<svg width="45" height="66" viewBox="0 0 45 66" fill="none" xmlns="http://www.w3.org/2000/svg">
<rect y="31.5" width="4.5" height="7.5" fill="#5869DD"/>
<rect y="39" width="4.5" height="4.5" fill="#5869DD"/>
<rect y="43.5" width="4.5" height="4.5" fill="#5869DD"/>
<rect y="48" width="4.5" height="4.5" fill="#5869DD"/>
<rect y="52.5" width="4.5" height="4.5" fill="#5869DD"/>
<rect x="4.5" y="57" width="4.5" height="4.5" fill="#5869DD"/>
<rect x="9" y="61.5" width="4.5" height="4.5" fill="#5869DD"/>
<rect x="13.5" y="61.5" width="4.5" height="4.5" fill="#5869DD"/>
<rect x="18" y="61.5" width="4.5" height="4.5" fill="#5869DD"/>
<rect x="22.5" y="61.5" width="4.5" height="4.5" fill="#5869DD"/>
<rect x="27" y="57" width="4.5" height="4.5" fill="#5869DD"/>
<rect x="31.5" y="52.5" width="4.5" height="4.5" fill="#5869DD"/>
<rect x="36" y="52.5" width="4.5" height="4.5" fill="#5869DD"/>
<rect x="40.5" y="48" width="4.5" height="4.5" fill="#5869DD"/>
<rect x="40.5" y="44.25" width="4.5" height="4.5" fill="#5869DD"/>
<rect x="40.5" y="40.5" width="4.5" height="4.5" fill="#5869DD"/>
<rect x="40.5" y="36" width="4.5" height="4.5" fill="#5869DD"/>
<rect x="36" y="31.5" width="4.5" height="4.5" fill="#5869DD"/>
<rect x="31.5" y="31.5" width="4.5" height="4.5" fill="#5869DD"/>
<rect x="27" y="31.5" width="4.5" height="4.5" fill="#5869DD"/>
<rect x="4.5" y="31.5" width="4.5" height="4.5" fill="#5869DD"/>
<rect x="9" y="31.5" width="4.5" height="4.5" fill="#5869DD"/>
<rect x="13.5" y="31.5" width="4.5" height="4.5" fill="#5869DD"/>
<rect x="18" y="31.5" width="4.5" height="4.5" fill="#5869DD"/>
<rect x="22.5" y="31.5" width="4.5" height="4.5" fill="#5869DD"/>
<rect x="33.75" y="39.75" width="4.5" height="4.5" fill="#5869DD"/>
<rect x="6.75" y="22.5" width="4.5" height="4.5" fill="#5869DD"/>
<rect x="6.75" y="18" width="4.5" height="4.5" fill="#5869DD"/>
<rect x="11.25" y="13.5" width="4.5" height="4.5" fill="#5869DD"/>
<rect x="6.75" y="9" width="4.5" height="4.5" fill="#5869DD"/>
<rect x="6.75" y="4.5" width="4.5" height="4.5" fill="#5869DD"/>
<rect x="18" y="18" width="4.5" height="4.5" fill="#5869DD"/>
<rect x="18" y="13.5" width="4.5" height="4.5" fill="#5869DD"/>
<rect x="22.5" y="9" width="4.5" height="4.5" fill="#5869DD"/>
<rect x="18" y="4.5" width="4.5" height="4.5" fill="#5869DD"/>
<rect x="18" width="4.5" height="4.5" fill="#5869DD"/>
<rect x="29.25" y="22.5" width="4.5" height="4.5" fill="#5869DD"/>
<rect x="29.25" y="18" width="4.5" height="4.5" fill="#5869DD"/>
<rect x="33.75" y="13.5" width="4.5" height="4.5" fill="#5869DD"/>
<rect x="29.25" y="9" width="4.5" height="4.5" fill="#5869DD"/>
<rect x="29.25" y="4.5" width="4.5" height="4.5" fill="#5869DD"/>
<rect x="33.75" y="44.25" width="4.5" height="4.5" fill="#5869DD"/>
</svg>
