<svg width="43" height="44" viewBox="0 0 43 44" fill="none" xmlns="http://www.w3.org/2000/svg">
<rect width="4.5" height="4.5" transform="matrix(-1 0 0 1 4.5 9)" fill="#5869DD"/>
<rect x="4.5" y="34.5" width="4.5" height="22.5" transform="rotate(180 4.5 34.5)" fill="#5869DD"/>
<rect x="38.25" y="9" width="4.5" height="4.5" fill="#5869DD"/>
<rect width="4.5" height="21.75" transform="matrix(1 0 0 -1 38.25 34.5)" fill="#5869DD"/>
<rect width="4.5" height="4.5" transform="matrix(-1 0 0 1 9 9)" fill="#5869DD"/>
<rect x="9" y="34.5" width="4.5" height="4.5" transform="rotate(180 9 34.5)" fill="#5869DD"/>
<rect x="33.75" y="9" width="4.5" height="4.5" fill="#5869DD"/>
<rect x="18.75" y="12" width="4.5" height="4.5" fill="#5869DD"/>
<rect x="18.75" y="16.5" width="4.5" height="4.5" fill="#5869DD"/>
<rect x="18.75" y="21" width="4.5" height="4.5" fill="#5869DD"/>
<rect x="23.25" y="21" width="4.5" height="4.5" fill="#5869DD"/>
<rect x="27.75" y="21" width="4.5" height="4.5" fill="#5869DD"/>
<rect width="4.5" height="4.5" transform="matrix(1 0 0 -1 33.75 34.5)" fill="#5869DD"/>
<rect width="4.5" height="4.5" transform="matrix(-1 0 0 1 9 4.5)" fill="#5869DD"/>
<rect x="9" y="39" width="4.5" height="4.5" transform="rotate(180 9 39)" fill="#5869DD"/>
<rect x="33.75" y="4.5" width="4.5" height="4.5" fill="#5869DD"/>
<rect width="4.5" height="4.5" transform="matrix(1 0 0 -1 33.75 39)" fill="#5869DD"/>
<rect width="4.5" height="4.5" transform="matrix(-1 0 0 1 13.5 4.5)" fill="#5869DD"/>
<rect x="13.5" y="39" width="4.5" height="4.5" transform="rotate(180 13.5 39)" fill="#5869DD"/>
<rect x="29.25" y="4.5" width="4.5" height="4.5" fill="#5869DD"/>
<rect width="4.5" height="4.5" transform="matrix(1 0 0 -1 29.25 39)" fill="#5869DD"/>
<rect width="4.5" height="4.5" transform="matrix(-1 0 0 1 13.5 0)" fill="#5869DD"/>
<rect x="13.5" y="43.5" width="4.5" height="4.5" transform="rotate(180 13.5 43.5)" fill="#5869DD"/>
<rect width="4.5" height="4.5" transform="matrix(-1 0 0 1 18 0)" fill="#5869DD"/>
<rect x="18" y="43.5" width="4.5" height="4.5" transform="rotate(180 18 43.5)" fill="#5869DD"/>
<rect width="4.5" height="4.5" transform="matrix(-1 0 0 1 29.25 0)" fill="#5869DD"/>
<rect x="29.25" y="43.5" width="4.5" height="4.5" transform="rotate(180 29.25 43.5)" fill="#5869DD"/>
<rect width="4.5" height="4.5" transform="matrix(-1 0 0 1 22.5 0)" fill="#5869DD"/>
<rect x="22.5" y="43.5" width="4.5" height="4.5" transform="rotate(180 22.5 43.5)" fill="#5869DD"/>
<rect width="4.5" height="4.5" transform="matrix(-1 0 0 1 26.25 0)" fill="#5869DD"/>
<rect x="26.25" y="43.5" width="4.5" height="4.5" transform="rotate(180 26.25 43.5)" fill="#5869DD"/>
<rect x="29.25" width="4.5" height="4.5" fill="#5869DD"/>
<rect width="4.5" height="4.5" transform="matrix(1 0 0 -1 29.25 43.5)" fill="#5869DD"/>
</svg>
