<svg width="50" height="41" viewBox="0 0 50 41" fill="none" xmlns="http://www.w3.org/2000/svg">
<rect width="4.5" height="4.5" transform="matrix(-1 0 0 1 27 9)" fill="#5869DD"/>
<rect x="22.5" y="9" width="4.5" height="4.5" fill="#5869DD"/>
<rect x="22.5" y="9" width="4.5" height="4.5" fill="#5869DD"/>
<rect width="4.5" height="4.5" transform="matrix(-1 0 0 1 27 9)" fill="#5869DD"/>
<rect x="27" y="4.5" width="4.5" height="4.5" fill="#5869DD"/>
<rect width="4.5" height="4.5" transform="matrix(-1 0 0 1 22.5 4.5)" fill="#5869DD"/>
<rect x="31.5" width="4.5" height="4.5" fill="#5869DD"/>
<rect width="4.5" height="4.5" transform="matrix(-1 0 0 1 18 0)" fill="#5869DD"/>
<rect x="36" width="4.5" height="4.5" fill="#5869DD"/>
<rect width="4.5" height="4.5" transform="matrix(-1 0 0 1 13.5 0)" fill="#5869DD"/>
<rect x="40.5" y="4.5" width="4.5" height="4.5" fill="#5869DD"/>
<rect width="4.5" height="4.5" transform="matrix(-1 0 0 1 9 4.5)" fill="#5869DD"/>
<rect x="45" y="9" width="4.5" height="4.5" fill="#5869DD"/>
<rect width="4.5" height="4.5" transform="matrix(-1 0 0 1 4.5 9)" fill="#5869DD"/>
<rect x="45" y="13.5" width="4.5" height="4.5" fill="#5869DD"/>
<rect width="4.5" height="4.5" transform="matrix(-1 0 0 1 4.5 13.5)" fill="#5869DD"/>
<rect x="40.5" y="18" width="4.5" height="4.5" fill="#5869DD"/>
<rect width="4.5" height="4.5" transform="matrix(-1 0 0 1 9 18)" fill="#5869DD"/>
<rect x="36" y="22.5" width="4.5" height="4.5" fill="#5869DD"/>
<rect width="4.5" height="4.5" transform="matrix(-1 0 0 1 13.5 22.5)" fill="#5869DD"/>
<rect x="31.5" y="27" width="4.5" height="4.5" fill="#5869DD"/>
<rect width="4.5" height="4.5" transform="matrix(-1 0 0 1 18 27)" fill="#5869DD"/>
<rect x="27" y="31.5" width="4.5" height="4.5" fill="#5869DD"/>
<rect width="4.5" height="4.5" transform="matrix(-1 0 0 1 22.5 31.5)" fill="#5869DD"/>
<rect x="22.5" y="36" width="4.5" height="4.5" fill="#5869DD"/>
<rect width="4.5" height="4.5" transform="matrix(-1 0 0 1 27 36)" fill="#5869DD"/>
</svg>
