<svg xmlns="http://www.w3.org/2000/svg" width="329" height="280" fill="none"><path fill="#000" d="m328.535 272-10.402 1.442L328.535 272ZM307.715 274.71l-10.444 1.106a.086.086 0 0 1-.06-.017.085.085 0 0 1-.031-.053.086.086 0 0 1 .019-.058.08.08 0 0 1 .051-.033l10.444-1.057a.056.056 0 0 1 .056.056.052.052 0 0 1-.017.039.052.052 0 0 1-.039.017h.021ZM286.812 276.767l-10.5.784a.138.138 0 0 1-.099-.034.142.142 0 0 1-.043-.146.128.128 0 0 1 .026-.047.133.133 0 0 1 .095-.046l10.5-.7a.114.114 0 0 1 .079.025.114.114 0 0 1 .04.073.116.116 0 0 1-.034.062.118.118 0 0 1-.064.029ZM265.852 278.174l-10.5.462a.195.195 0 0 1-.133-.053.194.194 0 0 1-.063-.129.196.196 0 0 1 .051-.136.184.184 0 0 1 .06-.043.176.176 0 0 1 .071-.017l10.5-.406a.162.162 0 0 1 .114.039.161.161 0 0 1 .054.108.169.169 0 0 1-.154.175ZM244.864 278.935l-10.5.147a.248.248 0 0 1-.199-.054.25.25 0 0 1-.087-.188.25.25 0 0 1 .087-.187.248.248 0 0 1 .199-.054l10.5-.091a.21.21 0 0 1 .217.21.218.218 0 0 1-.014.084.207.207 0 0 1-.118.118.206.206 0 0 1-.085.015ZM223.849 279.072l-10.5-.168a.294.294 0 0 1-.294-.294.303.303 0 0 1 .301-.294l10.5.224a.267.267 0 0 1 0 .532h-.007ZM202.85 278.578l-10.5-.469a.346.346 0 0 1-.247-.103.346.346 0 0 1 0-.495.35.35 0 0 1 .247-.102l10.5.532a.32.32 0 0 1 .308.336.315.315 0 0 1-.308.301ZM162.877 271.706l-10.129-2.8a.605.605 0 0 1-.413-.742.6.6 0 0 1 .503-.432.586.586 0 0 1 .232.019l10.108 2.8a.593.593 0 0 1 .137 1.091.6.6 0 0 1-.452.057l.014.007ZM142.667 266l-10.052-3.066a.611.611 0 0 1-.362-.295.61.61 0 0 1 .712-.874l10.031 3.073a.601.601 0 0 1 .425.519.6.6 0 0 1-.316.591.589.589 0 0 1-.459.045l.021.007ZM122.598 259.7l-9.947-3.388a.632.632 0 0 1-.395-.306.626.626 0 0 1 .544-.922c.086 0 .171.018.25.052l9.919 3.395a.607.607 0 0 1 .387.305.617.617 0 0 1-.786.857l.028.007ZM102.777 252.703l-9.8-3.794a.64.64 0 0 1-.357-.819.63.63 0 0 1 .812-.357l9.8 3.801a.63.63 0 0 1 .228 1.021.62.62 0 0 1-.683.148ZM83.254 244.876l-9.597-4.312a.645.645 0 0 1 .54-1.162l9.554 4.305a.641.641 0 0 1 .36.351.639.639 0 0 1-.63.879.647.647 0 0 1-.248-.068l.021.007ZM64.209 235.937l-9.275-4.984a.643.643 0 0 1-.359-.384.65.65 0 0 1 .725-.856c.09.016.175.049.25.099l9.226 4.963a.652.652 0 0 1 .357.637.643.643 0 0 1-.966.497l.042.028ZM45.887 225.554l-8.743-5.88a.66.66 0 0 1-.283-.953.659.659 0 0 1 .983-.146h.035l8.673 5.845a.646.646 0 0 1 .383.41.658.658 0 0 1-1.083.675l.035.049ZM28.81 213.22a117.17 117.17 0 0 1-7.805-7.112.699.699 0 0 1 .952-.945c2.45 2.464 5.033 4.802 7.7 7.042a.664.664 0 0 1 .084.931.66.66 0 0 1-.931.084ZM13.96 198.228a74.517 74.517 0 0 1-6-8.729.703.703 0 0 1 .155-1.079.698.698 0 0 1 .86.114.703.703 0 0 1 .162.265 72.926 72.926 0 0 0 5.88 8.603.7.7 0 0 1-.112.952.698.698 0 0 1-.945-.126ZM3.405 179.9a54.111 54.111 0 0 1-2.702-10.241.702.702 0 0 1 1.054-.59.701.701 0 0 1 .304.366 53.759 53.759 0 0 0 2.653 10.003.7.7 0 0 1-.399.875.704.704 0 0 1-.766-.177.702.702 0 0 1-.144-.236ZM0 159.061a59.202 59.202 0 0 1 1.344-10.5.723.723 0 0 1 .312-.451.718.718 0 0 1 .99.213.714.714 0 0 1 .098.539A57.83 57.83 0 0 0 1.4 159.11a.701.701 0 0 1-1.4-.049ZM4.404 138.392a72.447 72.447 0 0 1 4.564-9.555.699.699 0 0 1 1.232.198.7.7 0 0 1-.028.502 71.002 71.002 0 0 0-4.473 9.38.702.702 0 0 1-.933.479.697.697 0 0 1-.444-.701.696.696 0 0 1 .082-.282v-.021ZM14.828 120.015A87.467 87.467 0 0 1 21.702 112a.706.706 0 0 1 .51-.328.695.695 0 0 1 .784.761.697.697 0 0 1-.314.519 85.76 85.76 0 0 0-6.797 7.889.703.703 0 0 1-.778.399.697.697 0 0 1-.56-.671.7.7 0 0 1 .253-.554h.028ZM29.502 104.841a104.691 104.691 0 0 1 8.477-6.3.7.7 0 0 1 .93.182.7.7 0 0 1-.181.931 113.025 113.025 0 0 0-8.4 6.23.703.703 0 0 1-.945-.084.7.7 0 0 1 .084-.952l.035-.007ZM47.02 93.1a117.998 117.998 0 0 1 9.512-4.579.7.7 0 0 1 .868.35.658.658 0 0 1-.35.861 117.46 117.46 0 0 0-9.394 4.536.7.7 0 0 1-.637-1.169ZM66.414 84.797a149.464 149.464 0 0 1 10.143-2.884.651.651 0 0 1 .308 1.26c-3.383.84-6.732 1.797-10.045 2.87a.65.65 0 0 1-.826-.42.643.643 0 0 1 .42-.819v-.007ZM86.86 79.719c3.465-.616 6.944-1.12 10.444-1.491a.644.644 0 0 1 .564 1.043.633.633 0 0 1-.431.23c-3.463.374-6.911.871-10.346 1.492a.647.647 0 0 1-.231-1.274ZM107.839 77.573c3.526-.065 7.054.08 10.563.434a.633.633 0 0 1 .538.448.633.633 0 0 1-.426.783.634.634 0 0 1-.245.022 87.53 87.53 0 0 0-10.409-.42.64.64 0 0 1-.704-.633.643.643 0 0 1 .211-.474.64.64 0 0 1 .229-.132c.085-.028.175-.037.264-.028h-.021ZM128.802 79.992a38.496 38.496 0 0 1 9.8 4.256.624.624 0 0 1-.658 1.05 37.282 37.282 0 0 0-9.471-4.095.623.623 0 1 1 .343-1.197l-.014-.014ZM146.342 91.574a20.498 20.498 0 0 1 2.38 4.844c.557 1.71.916 3.48 1.071 5.271a.606.606 0 0 1-.546.665.593.593 0 0 1-.447-.133.61.61 0 0 1-.218-.413 20.007 20.007 0 0 0-3.262-9.54.616.616 0 0 1 1.015-.7l.007.006ZM149.197 112.304l-1.974 10.332a.599.599 0 0 1-.465.481.6.6 0 0 1-.619-.25.609.609 0 0 1-.099-.448l1.953-10.297a.606.606 0 1 1 1.19.224l.014-.042ZM146.013 132.946a27.02 27.02 0 0 0 .427 5.11c.157.836.367 1.662.63 2.471.273.805.609 1.596.91 2.394v.063a.584.584 0 0 1-.109.681.6.6 0 0 1-.204.133.587.587 0 0 1-.779-.394c-.322-.84-.7-1.659-.966-2.513a21.076 21.076 0 0 1-.7-2.611 28.05 28.05 0 0 1-.455-5.341.6.6 0 0 1 .829-.547.586.586 0 0 1 .319.326c.029.072.043.15.042.228h.056ZM154.16 150.943a25.344 25.344 0 0 0 9.177 4.459.55.55 0 0 1 .336.259.55.55 0 0 1-.202.757.558.558 0 0 1-.421.055 26.357 26.357 0 0 1-9.597-4.634.57.57 0 0 1 .07-.943.576.576 0 0 1 .63.047h.007ZM173.601 156.668a59.11 59.11 0 0 0 10.353-.938.53.53 0 0 1 .522.82.527.527 0 0 1-.34.216 60.53 60.53 0 0 1-10.535.987.544.544 0 0 1-.484-.543.546.546 0 0 1 .484-.542ZM194.044 153.18a73.725 73.725 0 0 0 9.652-3.927.482.482 0 0 1 .192-.062.484.484 0 0 1 .376.114.507.507 0 0 1 .175.353.521.521 0 0 1-.03.199.505.505 0 0 1-.272.285 76.116 76.116 0 0 1-9.799 4.011.517.517 0 0 1-.648-.326.502.502 0 0 1 .029-.391.511.511 0 0 1 .297-.256h.028ZM212.614 143.882a37.443 37.443 0 0 0 3.941-3.36c.609-.616 1.183-1.274 1.778-1.904l1.764-1.918a.47.47 0 0 1 .76.151.457.457 0 0 1-.102.507l-1.785 1.953c-.595.644-1.176 1.302-1.799 1.939a38.48 38.48 0 0 1-4.032 3.458.48.48 0 0 1-.7-.098.478.478 0 0 1 .098-.7l.077-.028ZM226.132 128.228a52.15 52.15 0 0 0 4.298-9.464.444.444 0 0 1 .553-.273.43.43 0 0 1 .252.22.444.444 0 0 1 .021.333 52.968 52.968 0 0 1-4.347 9.639.447.447 0 0 1-.616.161.442.442 0 0 1-.208-.274.45.45 0 0 1 .047-.342ZM172.68 272.83a52.136 52.136 0 0 0 10.086 2.511.443.443 0 0 1 .369.494.445.445 0 0 1-.324.361.429.429 0 0 1-.171.008 52.971 52.971 0 0 1-10.267-2.528.435.435 0 0 1-.15-.091.438.438 0 0 1-.146-.312.441.441 0 0 1 .117-.324.462.462 0 0 1 .486-.119ZM232.836 108.633c.489-3.448.737-6.926.742-10.409a.39.39 0 0 1 .119-.285.404.404 0 0 1 .287-.114.405.405 0 0 1 .406.406 76.823 76.823 0 0 1-.7 10.5.424.424 0 0 1-.476.357.421.421 0 0 1-.357-.476l-.021.021ZM233.155 87.772l-1.098-10.423a.378.378 0 0 1 .336-.413.376.376 0 0 1 .413.336l1.12 10.451a.386.386 0 0 1-.084.285.385.385 0 0 1-.544.06.392.392 0 0 1-.143-.26v-.036ZM230.776 66.925l-.553-5.229-.273-2.618-.175-2.632a.33.33 0 0 1 .08-.248.348.348 0 0 1 .235-.116.35.35 0 0 1 .364.315l.189 2.604.28 2.604.567 5.208a.36.36 0 0 1-.318.335.355.355 0 0 1-.382-.258l-.014.035ZM230.458 45.923a35.466 35.466 0 0 1 3.458-9.968.285.285 0 0 1 .37-.09.286.286 0 0 1 .134.356 35.067 35.067 0 0 0-3.346 9.8.315.315 0 0 1-.129.203.309.309 0 0 1-.235.049.314.314 0 0 1-.252-.364v.014ZM240.097 27.432c.616-.63 1.232-1.26 1.89-1.848a46.41 46.41 0 0 1 2.009-1.715c1.4-1.099 2.8-2.1 4.284-3.073a.231.231 0 0 1 .259.005.24.24 0 0 1 .096.15.232.232 0 0 1-.103.237 50.307 50.307 0 0 0-4.2 3.066 36.609 36.609 0 0 0-1.974 1.701 35.247 35.247 0 0 0-1.855 1.834.258.258 0 0 1-.371-.357h-.035ZM257.525 15.739c3.171-1.491 6.419-2.8 9.709-4.025a.183.183 0 0 1 .231.105.183.183 0 0 1-.105.231 120.358 120.358 0 0 0-9.66 4.06.208.208 0 0 1-.158.008.204.204 0 0 1-.115-.106.192.192 0 0 1-.02-.078.195.195 0 0 1 .053-.148.197.197 0 0 1 .065-.047ZM277.19 8.437l10.157-2.68a.126.126 0 1 1 .063.237l-10.129 2.73a.14.14 0 0 1-.158-.05.136.136 0 0 1-.024-.055.152.152 0 0 1 .014-.113.146.146 0 0 1 .091-.069h-.014ZM297.657 3.586 307.996 1.9a.07.07 0 0 1 .084.056c.001.01 0 .019-.002.028a.074.074 0 0 1-.034.041.08.08 0 0 1-.027.008l-10.318 1.743a.09.09 0 0 1-.099-.04.1.1 0 0 1 .003-.107.1.1 0 0 1 .061-.042h-.007ZM318.494.7l10.5-.7-10.5.77a.048.048 0 0 1-.032-.012.051.051 0 0 1-.017-.03c0-.01.004-.02.01-.027a.04.04 0 0 1 .025-.015l.014.014Z"/><path fill="url(#a)" d="M103.179 208.561c20.48 13.739 32.039 17.976 52.412 20.685a.593.593 0 0 0 .643-.393c2.954-8.992 9.082-16.363 9.232-18.974l-.023-.35a.724.724 0 0 0-.383-.514c-9.743.287-16.976-.631-29.499-7.183-4.098-2.145-8.763-4.893-14.268-8.399l-18.114 15.128Z"/><path fill="url(#b)" d="M74.663 198.67c7.282 9.172 14.689 9.736 28.516 9.891l18.114-15.128 2.84-2.372a1.63 1.63 0 0 0 .391-2.048c-.439-.795-1.429-1.082-2.286-.796a2.075 2.075 0 0 0-.336.147c-6.225 3.397-12.051.366-14.35-9.333l-32.89 19.639Z"/><path fill="#000" d="M163.313 202.841c-7.717.234-13.649.332-22.415-3.071l-5.337 2.062c12.523 6.552 19.756 7.47 29.499 7.183.21.112.334.284.383.514l-.325-5.094c-.058-.916-.859-1.622-1.805-1.594Z"/><path fill="#5869DD" d="M107.552 179.031c2.299 9.699 8.125 12.73 14.35 9.333.109-.06.221-.108.336-.147-4.816.787-8.973-2.839-10.818-11.014l-3.868 1.828ZM124.133 191.061l-2.84 2.372c5.505 3.506 10.17 6.254 14.268 8.399l5.337-2.062c-4.59-1.782-9.958-4.524-16.765-8.709Z"/><path stroke="#000" stroke-width="1.4" d="M103.179 208.561c-13.827-.155-21.234-.719-28.516-9.891l32.889-19.639m-4.373 29.53c20.48 13.739 32.039 17.976 52.412 20.685a.593.593 0 0 0 .643-.393c2.954-8.992 9.082-16.363 9.232-18.974m-62.287-1.318 18.114-15.128m0 0 2.84-2.372m-2.84 2.372c5.505 3.506 10.17 6.254 14.268 8.399m-28.009-22.801c2.299 9.699 8.125 12.73 14.35 9.333.109-.06.221-.108.336-.147m-14.686-9.186 3.868-1.828c1.845 8.175 6.002 11.801 10.818 11.014m1.895 2.844a1.63 1.63 0 0 0 .391-2.048c-.439-.795-1.429-1.082-2.286-.796m1.895 2.844c6.807 4.185 12.175 6.927 16.765 8.709m0 0c8.766 3.403 14.698 3.305 22.415 3.071.946-.028 1.747.678 1.805 1.594l.325 5.094m-24.545-9.759-5.337 2.062m0 0c12.523 6.552 19.756 7.47 29.499 7.183.21.112.334.284.383.514m.023.35c.007-.128 0-.245-.023-.35m.023.35-.023-.35"/><path fill="#5869DD" d="M31.761 160.677c-.754 19.177 8.643 39.364 31.286 48.486-22.636 5.512-45.677-37.925-31.286-48.486Z"/><path fill="url(#c)" d="M80.763 161.385c-5.158-8.575-8.015-18.394-5.783-25.701.708-2.319 2.164-4.371 4.022-5.761-16.322 9.461-27.264 16.731-47.24 30.754-.755 19.177 8.642 39.364 31.285 48.486 22.095-12.075 32.486-18.606 44.836-29.517-1.915.699-4.203.831-6.072.394-7.374-1.726-15.529-9.479-21.048-18.655Z"/><path fill="#5869DD" d="M87.188 128.407a39.512 39.512 0 0 0-1.976-.297c-1.437-.165-2.849.075-4.152.625-.696.4-1.382.796-2.058 1.188-1.858 1.39-3.314 3.442-4.022 5.761-2.232 7.307.625 17.126 5.783 25.701l22.982-2.145-16.557-30.833Z"/><path fill="#000" d="M111.801 174.952a3.392 3.392 0 0 0-.196-1.074l-7.86-14.638-22.982 2.145c5.52 9.176 13.674 16.929 21.048 18.655 1.869.437 4.157.305 6.072-.394 2.214-.809 3.928-2.375 3.918-4.694Z"/><path stroke="#000" stroke-width="1.4" d="M80.763 161.385c-5.158-8.575-8.015-18.394-5.783-25.701.708-2.319 2.164-4.371 4.022-5.761m1.76 31.462c5.52 9.176 13.675 16.929 21.049 18.655 1.869.437 4.157.305 6.072-.394m-27.12-18.261 22.982-2.145m0 0-16.557-30.833a39.512 39.512 0 0 0-1.976-.297c-1.437-.165-2.849.075-4.152.625m22.685 30.505 7.86 14.638c.127.375.194.728.196 1.074.01 2.319-1.704 3.885-3.918 4.694M81.06 128.735c-.696.4-1.382.796-2.058 1.188m2.058-1.188a9.78 9.78 0 0 0-2.058 1.188m-47.24 30.754c-.755 19.177 8.642 39.364 31.285 48.486m-31.286-48.486c-14.391 10.561 8.65 53.998 31.286 48.486m-31.286-48.486c19.977-14.023 30.919-21.293 47.24-30.754m-15.954 79.24c22.095-12.075 32.486-18.606 44.836-29.517"/><path fill="url(#d)" d="M209.544 162.038c17.097-11.168 13.553-45.185-7.917-75.98-21.47-30.794-52.734-46.704-69.831-35.536-9.867 6.445-12.859 20.5-9.498 37.154 2.463 12.204 8.336 25.803 17.416 38.825 8.501 12.194 18.538 22.054 28.623 28.823 15.384 10.326 30.88 13.46 41.207 6.714Z"/><path fill="url(#e)" d="M139.714 126.501c-9.08-13.022-14.953-26.621-17.416-38.825-14.173 22.308-22.494 33.06-39.153 43.72-15.41 13.255 11.199 49.378 27.756 44.089 20.138-12.377 33.338-15.565 57.436-20.161-10.085-6.769-20.122-16.629-28.623-28.823Z"/><path stroke="#000" stroke-width="1.4" d="M122.298 87.676c2.463 12.204 8.336 25.803 17.416 38.825 8.501 12.194 18.538 22.054 28.623 28.823m-46.039-67.648c-3.361-16.654-.369-30.71 9.498-37.154 17.097-11.168 48.361 4.742 69.831 35.536 21.47 30.795 25.014 64.812 7.917 75.98-10.327 6.746-25.823 3.612-41.207-6.714m-46.039-67.648c-14.173 22.308-22.494 33.06-39.153 43.72-15.41 13.255 11.199 49.378 27.756 44.089 20.138-12.377 33.338-15.565 57.436-20.161"/><path fill="url(#f)" d="m169.169 89.805-31.197 12.634c9.33 14.618 14.579 22.788 27.688 32.205l21.861-21.487c-11.311 5.495-26.467-17.448-18.352-23.352Z"/><path fill="#5869DD" d="M169.169 89.805c11.167-1.824 23.014 16.181 18.352 23.352-11.311 5.495-26.467-17.448-18.352-23.352Z"/><path fill="#000" d="M137.972 102.439c2.79 6.028 6.329 12.209 10.575 18.299 4.403 6.317 9.185 11.986 14.101 16.866l3.012-2.96c-13.109-9.417-18.358-17.587-27.688-32.205Z"/><path fill="url(#g)" d="M207.404 154.768c13.332-8.708 8.595-38.063-10.58-65.565-19.174-27.503-45.526-42.739-58.857-34.03-10.379 6.78-9.807 26.074.005 47.266l31.197-12.634c11.167-1.824 23.014 16.181 18.352 23.352l-21.861 21.487-3.012 2.96c16.49 16.372 34.486 23.873 44.756 17.164Z"/><path stroke="#000" stroke-width="1.4" d="M137.972 102.439c2.79 6.028 6.329 12.209 10.575 18.299 4.403 6.317 9.185 11.986 14.101 16.866m-24.676-35.165c-9.812-21.192-10.384-40.486-.005-47.266 13.331-8.709 39.683 6.527 58.857 34.03 19.175 27.502 23.912 56.857 10.58 65.565-10.27 6.709-28.266-.792-44.756-17.164m-24.676-35.165 31.197-12.634m-31.197 12.634c9.33 14.618 14.579 22.788 27.688 32.205m3.509-44.839c11.167-1.824 23.014 16.181 18.352 23.352m-18.352-23.352c-8.115 5.904 7.041 28.847 18.352 23.352m0 0-21.861 21.487m-3.012 2.96 3.012-2.96"/><path fill="#F1EFED" d="m170.473 93.596 6.898 8.126.954-1.542-6.501-7.66a.895.895 0 0 0-1.232-.118.83.83 0 0 0-.119 1.194ZM180.081 96.637l-2.894-3.41a.895.895 0 0 0-1.232-.118.828.828 0 0 0-.119 1.193l3.294 3.882.951-1.547ZM170.541 96.62a.895.895 0 0 0-1.232-.118.83.83 0 0 0-.119 1.193l4.645 5.472.95-1.547-4.244-5Z"/><path fill="#000" d="M178.479 108.639a.895.895 0 0 0 1.232.119.83.83 0 0 0 .119-1.194l-5.045-5.944-.95 1.547 4.644 5.472ZM177.371 101.722l6.422 7.568a.895.895 0 0 0 1.232.118.83.83 0 0 0 .119-1.194l-6.819-8.034-.954 1.542ZM185.628 103.172l-5.547-6.535-.951 1.547 5.147 6.064a.895.895 0 0 0 1.232.118.83.83 0 0 0 .119-1.194Z"/><path stroke="#000" stroke-width="1.05" d="m183.793 109.29-13.32-15.695m13.32 15.695a.895.895 0 0 0 1.232.118.83.83 0 0 0 .119-1.194l-6.819-8.034m5.468 9.11-6.422-7.568m-6.898-8.126a.83.83 0 0 1 .119-1.194.895.895 0 0 1 1.232.118l6.501 7.66m-7.852-6.585 6.898 8.127m6.906 2.526-8.441-9.946m8.441 9.946a.895.895 0 0 0 1.232.118.83.83 0 0 0 .119-1.194m-1.351 1.076-5.147-6.064m6.498 4.988-8.441-9.945m8.441 9.945-5.547-6.535m-2.894-3.41a.895.895 0 0 0-1.232-.118.828.828 0 0 0-.119 1.193m1.351-1.075 2.894 3.41m-4.245-2.335 3.294 3.882m-5.295 4.983 4.644 5.472a.895.895 0 0 0 1.232.119.83.83 0 0 0 .119-1.194l-5.045-5.944m-.95 1.547-4.645-5.472a.83.83 0 0 1 .119-1.193.895.895 0 0 1 1.232.118l4.244 5m-.95 1.547.95-1.547m2.586.102.954-1.542m.805-1.996.951-1.547"/><defs><linearGradient id="a" x1="74.575" x2="165.678" y1="200.908" y2="204.491" gradientUnits="userSpaceOnUse"><stop stop-color="#D6FFBB"/><stop offset="1" stop-color="#5869DD"/></linearGradient><linearGradient id="b" x1="74.575" x2="165.678" y1="200.908" y2="204.491" gradientUnits="userSpaceOnUse"><stop stop-color="#D6FFBB"/><stop offset="1" stop-color="#5869DD"/></linearGradient><linearGradient id="c" x1="53.845" x2="75.254" y1="134.209" y2="182.603" gradientUnits="userSpaceOnUse"><stop stop-color="#D6FFBB"/><stop offset="1" stop-color="#5869DD"/></linearGradient><linearGradient id="d" x1="111.314" x2="181.498" y1="105.631" y2="110.2" gradientUnits="userSpaceOnUse"><stop stop-color="#D6FFBB"/><stop offset="1" stop-color="#5869DD"/></linearGradient><linearGradient id="e" x1="98.898" x2="126.078" y1="94.677" y2="164.063" gradientUnits="userSpaceOnUse"><stop stop-color="#D6FFBB"/><stop offset="1" stop-color="#5869DD"/></linearGradient><linearGradient id="f" x1="139.253" x2="155.173" y1="85.8" y2="130.948" gradientUnits="userSpaceOnUse"><stop stop-color="#D6FFBB"/><stop offset="1" stop-color="#5869DD"/></linearGradient><linearGradient id="g" x1="202.828" x2="151.257" y1="28.331" y2="116.694" gradientUnits="userSpaceOnUse"><stop stop-color="#D6FFBB"/><stop offset="1" stop-color="#5869DD"/></linearGradient></defs></svg>
