<svg xmlns="http://www.w3.org/2000/svg" width="679" height="433" fill="none"><path fill="#000" d="m678.266 422-14.86 2.06 14.86-2.06ZM648.519 425.871l-14.92 1.58a.122.122 0 0 1-.085-.024.123.123 0 0 1-.045-.076.131.131 0 0 1 .1-.13l14.92-1.51c.021 0 .041.008.056.023a.082.082 0 0 1 .024.057.082.082 0 0 1-.024.057.079.079 0 0 1-.056.023h.03ZM618.664 428.809l-15 1.12a.201.201 0 0 1-.141-.047.202.202 0 0 1-.061-.209.17.17 0 0 1 .037-.067.176.176 0 0 1 .061-.047.19.19 0 0 1 .074-.02l15-1a.166.166 0 0 1 .113.037.158.158 0 0 1 .057.103.158.158 0 0 1-.14.13ZM588.718 430.82l-15 .66a.28.28 0 0 1-.28-.26.26.26 0 0 1 .072-.194.26.26 0 0 1 .188-.086l15-.58a.23.23 0 0 1 .24.21.244.244 0 0 1-.06.169.237.237 0 0 1-.16.081ZM558.729 431.907l-15 .21a.35.35 0 0 1-.409-.345.34.34 0 0 1 .033-.147.357.357 0 0 1 .225-.191.35.35 0 0 1 .151-.007l15-.13a.296.296 0 0 1 .219.084.307.307 0 0 1 .068.099.313.313 0 0 1 .023.117.275.275 0 0 1-.021.12.29.29 0 0 1-.168.169.315.315 0 0 1-.121.021ZM528.717 432.103l-15-.24a.418.418 0 0 1-.291-.717.431.431 0 0 1 .301-.123l15 .32a.38.38 0 0 1 0 .76h-.01ZM498.719 431.397l-15-.67a.5.5 0 0 1 0-1l15 .76a.454.454 0 0 1 .319.148.47.47 0 0 1 .121.332.45.45 0 0 1-.44.43ZM468.751 429.821l-15-1.13a.552.552 0 0 1-.5-.58.551.551 0 0 1 .59-.5l14.95 1.17a.518.518 0 0 1 .342.531.523.523 0 0 1-.422.469l.04.04ZM438.844 427.362l-14.93-1.55a.584.584 0 0 1 .12-1.16l14.97 1.58a.567.567 0 0 1 .5.62.573.573 0 0 1-.216.402.557.557 0 0 1-.444.108ZM409.004 424.06l-14.88-2a.628.628 0 0 1-.54-.71.632.632 0 0 1 .71-.54l14.85 2a.615.615 0 0 1 .525.685.609.609 0 0 1-.685.525l.02.04ZM379.271 419.94l-14.82-2.36a.672.672 0 1 1 .21-1.33l14.8 2.4a.66.66 0 0 1 .531.496.64.64 0 0 1-.08.493.647.647 0 0 1-.661.301h.02ZM349.661 415.001l-14.76-2.76a.72.72 0 0 1-.57-.83.72.72 0 0 1 .84-.57l14.73 2.79a.686.686 0 0 1 .56.81.71.71 0 0 1-.8.56ZM320.185 409.322l-14.68-3.14a.736.736 0 0 1-.58-.89.766.766 0 0 1 .9-.59l14.65 3.17a.74.74 0 0 1-.31 1.44l.02.01ZM290.879 402.863l-14.59-3.5a.803.803 0 0 1-.465-1.25.786.786 0 0 1 .229-.212.79.79 0 0 1 .606-.098l14.56 3.55a.779.779 0 0 1 .185 1.38.775.775 0 0 1-.545.13h.02ZM261.734 395.73l-14.54-3.73a.845.845 0 0 1-.623-.697.844.844 0 0 1 .405-.842.839.839 0 0 1 .638-.091l14.52 3.76a.82.82 0 0 1 .58 1 .816.816 0 0 1-.365.504.813.813 0 0 1-.615.096ZM232.686 388.151l-14.47-4a.862.862 0 0 1-.187-1.573.84.84 0 0 1 .647-.077l14.44 4a.847.847 0 0 1 .595 1.045.854.854 0 0 1-1.045.595l.02.01ZM203.81 380.001l-14.36-4.38a.866.866 0 0 1-.517-.422.873.873 0 0 1 1.017-1.248l14.33 4.39a.856.856 0 0 1 .51.418.863.863 0 0 1-1.01 1.232l.03.01ZM175.149 371l-14.21-4.84a.896.896 0 0 1-.67-.787.878.878 0 0 1 .23-.677.895.895 0 0 1 1.01-.216l14.17 4.85a.886.886 0 0 1 .654.78.883.883 0 0 1-.228.666.88.88 0 0 1-.996.214l.04.01ZM146.82 361.004l-14-5.42a.913.913 0 0 1-.51-1.17.899.899 0 0 1 1.16-.51l14 5.43a.895.895 0 0 1 .51 1.16.876.876 0 0 1-.815.575.87.87 0 0 1-.345-.065ZM118.939 349.823l-13.71-6.16a.923.923 0 0 1-.362-1.177.917.917 0 0 1 1.132-.483l13.65 6.15a.916.916 0 0 1 .515.501.924.924 0 0 1-.224 1.017.91.91 0 0 1-1.031.142l.03.01ZM91.728 337.053l-13.25-7.12a.924.924 0 0 1-.561-.929.927.927 0 0 1 .701-.828.934.934 0 0 1 .74.127l13.18 7.09a.922.922 0 0 1 .17 1.543.923.923 0 0 1-1.04.077l.06.04ZM65.557 322.219l-12.49-8.4a.937.937 0 0 1-.404-1.361.94.94 0 0 1 1.404-.209h.05l12.39 8.35a.946.946 0 0 1 .585.997.936.936 0 0 1-.825.81.932.932 0 0 1-.76-.257l.05.07ZM41.151 304.601c-3.86-3.22-7.59-6.6-11.15-10.16a1.003 1.003 0 0 1 .177-1.182.995.995 0 0 1 1.183-.168c3.5 3.52 7.19 6.86 11 10.06a.942.942 0 0 1 .12 1.33.943.943 0 0 1-1.33.12ZM19.94 283.182a106.363 106.363 0 0 1-8.57-12.47 1 1 0 1 1 1.68-1 104.114 104.114 0 0 0 8.4 12.29 1 1 0 0 1-.16 1.36 1.003 1.003 0 0 1-1.35-.18ZM4.86 257A77.318 77.318 0 0 1 1 242.37a1 1 0 0 1 1.94-.32c.8 4.874 2.07 9.66 3.79 14.29a.999.999 0 0 1-.57 1.25.995.995 0 0 1-1.094-.253A1.004 1.004 0 0 1 4.86 257ZM0 227.23a84.554 84.554 0 0 1 1.92-15 1.025 1.025 0 0 1 1.216-.785 1.024 1.024 0 0 1 .785 1.215A82.606 82.606 0 0 0 2 227.3a1.004 1.004 0 0 1-1.035.965A1 1 0 0 1 0 227.23ZM6.299 197.702a103.587 103.587 0 0 1 6.52-13.65 1 1 0 0 1 1.72 1 101.545 101.545 0 0 0-6.39 13.4 1 1 0 1 1-1.85-.72v-.03ZM21.183 171.45a124.93 124.93 0 0 1 9.82-11.45.995.995 0 0 1 .728-.469 1.01 1.01 0 0 1 1.063.647 1.004 1.004 0 0 1-.39 1.182 122.38 122.38 0 0 0-9.71 11.27 1.005 1.005 0 0 1-.666.559 1.002 1.002 0 0 1-1.138-.516.997.997 0 0 1 .253-1.223h.04ZM42.14 149.773a149.684 149.684 0 0 1 12.11-9 .998.998 0 0 1 1.33.26 1.001 1.001 0 0 1-.26 1.33 161.486 161.486 0 0 0-12 8.9 1.002 1.002 0 0 1-1.35-.12.998.998 0 0 1 .12-1.36l.05-.01ZM67.172 132.999c4.426-2.38 8.956-4.56 13.59-6.54a.999.999 0 0 1 1.24.5.939.939 0 0 1-.5 1.23c-4.567 1.96-9.04 4.12-13.42 6.48a1.005 1.005 0 0 1-1.175-1.112.996.996 0 0 1 .265-.558ZM94.882 121.139c4.78-1.55 9.61-2.91 14.49-4.12a.922.922 0 0 1 .658.146.926.926 0 0 1 .299 1.221.937.937 0 0 1-.517.433 212.921 212.921 0 0 0-14.35 4.1.931.931 0 0 1-1.18-.6.919.919 0 0 1 .6-1.17v-.01ZM124.088 113.884c4.95-.88 9.92-1.6 14.92-2.13a.919.919 0 0 1 1 .82.887.887 0 0 1-.195.67.894.894 0 0 1-.615.33 208.804 208.804 0 0 0-14.78 2.13.924.924 0 1 1-.33-1.82ZM154.061 110.819a126.51 126.51 0 0 1 15.09.62.891.891 0 0 1 .605.329c.075.092.13.197.163.311a.903.903 0 0 1-.608 1.118.918.918 0 0 1-.35.032c-4.94-.495-9.906-.696-14.87-.6a.92.92 0 0 1-.704-.229.909.909 0 0 1 0-1.353.914.914 0 0 1 .328-.189c.121-.039.249-.053.376-.039h-.03ZM184.006 114.274a54.995 54.995 0 0 1 14 6.08.89.89 0 0 1-.94 1.5 53.253 53.253 0 0 0-13.53-5.85.882.882 0 0 1-.557-.418.897.897 0 0 1-.085-.691.896.896 0 0 1 .779-.642.9.9 0 0 1 .353.041l-.02-.02ZM209.069 130.82a29.335 29.335 0 0 1 3.4 6.92 33.717 33.717 0 0 1 1.53 7.53.869.869 0 0 1-.78.95.863.863 0 0 1-.639-.19.852.852 0 0 1-.311-.59 28.577 28.577 0 0 0-4.66-13.63.867.867 0 0 1-.141-.659.9.9 0 0 1 .126-.319.896.896 0 0 1 .555-.383.885.885 0 0 1 .91.361l.01.01ZM213.14 160.434l-2.82 14.76a.863.863 0 0 1-.355.555.856.856 0 0 1-1.194-.225.865.865 0 0 1-.141-.64l2.79-14.71a.858.858 0 0 1 .362-.554.863.863 0 0 1 1.338.874l.02-.06ZM208.595 189.923a38.591 38.591 0 0 0 .61 7.3 28.09 28.09 0 0 0 .9 3.53c.39 1.15.87 2.28 1.3 3.42v.089a.844.844 0 0 1-.448 1.164.843.843 0 0 1-.953-.254.842.842 0 0 1-.159-.309c-.46-1.2-1-2.37-1.38-3.59a30.05 30.05 0 0 1-1-3.731 39.988 39.988 0 0 1-.65-7.629.856.856 0 0 1 1.184-.782.848.848 0 0 1 .516.792h.08ZM220.228 215.633a36.218 36.218 0 0 0 13.11 6.37.79.79 0 0 1 .56.97.79.79 0 0 1-.97.56 37.707 37.707 0 0 1-13.71-6.62.804.804 0 0 1-.306-.541.803.803 0 0 1 .166-.599.835.835 0 0 1 .24-.207.828.828 0 0 1 .617-.076.814.814 0 0 1 .283.143h.01ZM248.004 223.811c4.96-.012 9.909-.46 14.79-1.34a.763.763 0 0 1 .87.61.741.741 0 0 1-.124.562.77.77 0 0 1-.486.308 86.324 86.324 0 0 1-15.05 1.41.78.78 0 0 1 0-1.55ZM277.214 218.828a105.104 105.104 0 0 0 13.79-5.61.714.714 0 0 1 .811.075.713.713 0 0 1-.181 1.195 108.597 108.597 0 0 1-14 5.73.738.738 0 0 1-.784-.216.733.733 0 0 1 .324-1.174h.04ZM303.729 205.546a53.653 53.653 0 0 0 5.63-4.8c.87-.88 1.69-1.82 2.54-2.72l2.52-2.74a.672.672 0 0 1 1.086.216.67.67 0 0 1 0 .509.66.66 0 0 1-.146.215l-2.55 2.79c-.85.92-1.68 1.86-2.57 2.77a55.072 55.072 0 0 1-5.76 4.94.679.679 0 0 1-.795.053.699.699 0 0 1-.205-.193.68.68 0 0 1 .14-1l.11-.04ZM323.049 183.183a74.463 74.463 0 0 0 6.14-13.52.632.632 0 0 1 .79-.39.608.608 0 0 1 .36.314.615.615 0 0 1 .03.476 75.686 75.686 0 0 1-6.21 13.77.64.64 0 0 1-.643.312.632.632 0 0 1-.425-.248.64.64 0 0 1-.124-.477.65.65 0 0 1 .082-.237ZM332.625 155.19a106.915 106.915 0 0 0 1.06-14.87.568.568 0 0 1 .58-.57.579.579 0 0 1 .58.58c.01 5.017-.324 10.029-1 15a.599.599 0 0 1-1.076.276.603.603 0 0 1-.114-.446l-.03.03ZM333.08 125.389l-1.57-14.89a.54.54 0 0 1 .48-.59.539.539 0 0 1 .59.48l1.6 14.93a.55.55 0 0 1-.49.61.552.552 0 0 1-.61-.49v-.05ZM329.682 95.608l-.79-7.47-.39-3.74-.25-3.76a.484.484 0 0 1 .115-.355.475.475 0 0 1 .335-.165.497.497 0 0 1 .52.45l.27 3.72.4 3.72.81 7.44a.51.51 0 0 1-1 .11l-.02.05ZM329.226 65.604a50.635 50.635 0 0 1 4.94-14.24.41.41 0 0 1 .72.38 50.088 50.088 0 0 0-4.78 14 .441.441 0 0 1-.52.36.448.448 0 0 1-.36-.52v.02ZM342.996 39.19c.88-.9 1.76-1.8 2.7-2.64a66.3 66.3 0 0 1 2.87-2.45c2-1.57 4-3 6.12-4.39a.325.325 0 0 1 .25-.046.33.33 0 0 1 .257.266.334.334 0 0 1-.147.34 71.954 71.954 0 0 0-6 4.38 51.43 51.43 0 0 0-2.82 2.43c-.92.83-1.79 1.72-2.65 2.62a.37.37 0 0 1-.53-.51h-.05ZM367.903 22.484c4.53-2.13 9.17-4 13.87-5.75a.261.261 0 0 1 .33.15.26.26 0 0 1-.15.33 171.94 171.94 0 0 0-13.8 5.8.284.284 0 0 1-.224.012.288.288 0 0 1-.166-.152.303.303 0 0 1-.012-.224.293.293 0 0 1 .152-.166ZM395.997 12.053l14.51-3.83a.179.179 0 0 1 .256.114.179.179 0 0 1-.089.205.181.181 0 0 1-.077.021l-14.47 3.9a.202.202 0 0 1-.164-.016.2.2 0 0 1-.096-.134.231.231 0 0 1-.006-.083.24.24 0 0 1 .026-.079.215.215 0 0 1 .13-.098h-.02ZM425.227 5.123l14.77-2.41a.1.1 0 0 1 .105.043.12.12 0 0 1 .015.037.103.103 0 0 1-.022.074.106.106 0 0 1-.068.036l-14.74 2.49a.132.132 0 0 1-.105-.019.124.124 0 0 1-.037-.04.12.12 0 0 1-.018-.05.137.137 0 0 1 .023-.103c.02-.03.051-.05.087-.058h-.01ZM455 1l15-1-15 1.1a.072.072 0 0 1-.047-.017.071.071 0 0 1-.023-.043.053.053 0 0 1 .014-.04.06.06 0 0 1 .036-.02L455 1Z"/><path fill="url(#a)" d="M147.406 297.944c29.256 19.627 45.77 25.681 74.874 29.551a.848.848 0 0 0 .918-.562c4.22-12.846 12.974-23.376 13.189-27.105l-.032-.501a1.036 1.036 0 0 0-.548-.734c-13.919.41-24.252-.901-42.141-10.262-5.855-3.063-12.519-6.989-20.384-11.999l-25.876 21.612Z"/><path fill="url(#b)" d="M106.668 283.815c10.404 13.102 20.984 13.909 40.738 14.129l25.876-21.612 4.057-3.388a2.328 2.328 0 0 0 .56-2.925c-.627-1.136-2.042-1.546-3.266-1.137a2.944 2.944 0 0 0-.48.209c-8.893 4.854-17.216.523-20.5-13.332l-46.985 28.056Z"/><path fill="#000" d="M233.311 289.773c-11.024.334-19.499.475-32.021-4.387l-7.624 2.945c17.889 9.361 28.222 10.672 42.141 10.262.3.159.477.406.548.734l-.465-7.278c-.084-1.308-1.227-2.317-2.579-2.276Z"/><path fill="#5869DD" d="M153.653 255.759c3.284 13.855 11.607 18.186 20.5 13.332.155-.085.316-.154.48-.209-6.881 1.124-12.819-4.057-15.455-15.734l-5.525 2.611ZM177.339 272.944l-4.057 3.388c7.865 5.01 14.529 8.936 20.384 11.999l7.624-2.945c-6.558-2.546-14.226-6.463-23.951-12.442Z"/><path stroke="#000" stroke-width="2" d="M147.406 297.944c-19.754-.22-30.334-1.027-40.738-14.129l46.985-28.056m-6.247 42.185c29.256 19.627 45.77 25.681 74.874 29.551a.848.848 0 0 0 .918-.562c4.22-12.846 12.974-23.376 13.189-27.105m-88.981-1.884 25.876-21.612m0 0 4.057-3.388m-4.057 3.388c7.865 5.01 14.529 8.936 20.384 11.999m-40.013-32.572c3.284 13.855 11.607 18.186 20.5 13.332.155-.085.316-.154.48-.209m-20.98-13.123 5.525-2.611c2.636 11.677 8.574 16.858 15.455 15.734m2.706 4.062a2.328 2.328 0 0 0 .56-2.925c-.627-1.136-2.042-1.546-3.266-1.137m2.706 4.062c9.725 5.979 17.393 9.896 23.951 12.442m0 0c12.522 4.862 20.997 4.721 32.021 4.387 1.352-.041 2.495.968 2.579 2.276l.465 7.278m-35.065-13.941-7.624 2.945m0 0c17.889 9.361 28.222 10.672 42.141 10.262.3.159.477.406.548.734m.032.501c.01-.184 0-.351-.032-.501m.032.501-.032-.501"/><path fill="#5869DD" d="M45.379 229.539c-1.078 27.396 12.347 56.233 44.694 69.265-32.338 7.874-65.253-54.179-44.694-69.265Z"/><path fill="url(#c)" d="M115.381 230.55c-7.368-12.25-11.449-26.277-8.262-36.716 1.012-3.312 3.093-6.244 5.747-8.23-23.318 13.516-38.95 23.902-67.487 43.935-1.078 27.396 12.347 56.233 44.694 69.265 31.564-17.249 46.409-26.579 64.052-42.167-2.736.999-6.005 1.188-8.675.563-10.535-2.466-22.184-13.541-30.069-26.65Z"/><path fill="#5869DD" d="M124.56 183.438a56.858 56.858 0 0 0-2.823-.423c-2.053-.237-4.069.106-5.931.892-.994.571-1.974 1.137-2.94 1.697-2.654 1.986-4.735 4.918-5.747 8.23-3.187 10.439.894 24.466 8.262 36.716l32.831-3.064-23.652-44.048Z"/><path fill="#000" d="M159.721 249.931a4.796 4.796 0 0 0-.28-1.533l-11.229-20.912-32.831 3.064c7.885 13.109 19.534 24.184 30.069 26.65 2.67.625 5.939.436 8.675-.563 3.162-1.155 5.611-3.392 5.596-6.706Z"/><path stroke="#000" stroke-width="2" d="M115.381 230.55c-7.368-12.25-11.449-26.277-8.262-36.716 1.012-3.312 3.093-6.244 5.747-8.23m2.515 44.946c7.885 13.109 19.534 24.184 30.069 26.65 2.67.625 5.939.436 8.675-.563m-38.744-26.087 32.831-3.064m0 0-23.652-44.048a56.858 56.858 0 0 0-2.823-.423c-2.053-.237-4.069.106-5.931.892m32.406 43.579 11.229 20.912c.182.535.278 1.039.28 1.533.015 3.314-2.434 5.551-5.596 6.706m-38.319-72.73c-.994.571-1.974 1.137-2.94 1.697m2.94-1.697a13.975 13.975 0 0 0-2.94 1.697m-67.487 43.935c-1.078 27.396 12.347 56.233 44.694 69.265M45.38 229.539c-20.56 15.086 12.356 77.139 44.694 69.265M45.38 229.539c28.538-20.033 44.169-30.419 67.487-43.935m-22.793 113.2c31.564-17.249 46.409-26.579 64.052-42.167"/><path fill="url(#d)" d="M299.358 231.483c24.424-15.954 19.36-64.551-11.311-108.543-30.671-43.992-75.335-66.72-99.759-50.766-14.096 9.207-18.37 29.286-13.569 53.078 3.519 17.434 11.91 36.86 24.88 55.464 12.145 17.42 26.484 31.505 40.891 41.176 21.977 14.751 44.115 19.228 58.868 9.591Z"/><path fill="url(#e)" d="M199.599 180.716c-12.97-18.604-21.361-38.03-24.88-55.464-20.247 31.869-32.134 47.229-55.932 62.457-22.015 18.935 15.998 70.539 39.651 62.983 28.769-17.68 47.626-22.235 82.052-28.8-14.407-9.671-28.746-23.756-40.891-41.176Z"/><path stroke="#000" stroke-width="2" d="M174.719 125.252c3.519 17.434 11.91 36.86 24.88 55.464 12.145 17.42 26.484 31.505 40.891 41.176m-65.771-96.64c-4.801-23.792-.527-43.87 13.569-53.078 24.424-15.955 69.088 6.774 99.759 50.766 30.671 43.992 35.735 92.589 11.311 108.543-14.753 9.637-36.891 5.16-58.868-9.591m-65.771-96.64c-20.247 31.869-32.134 47.229-55.932 62.457-22.015 18.935 15.998 70.539 39.651 62.983 28.769-17.68 47.626-22.235 82.052-28.8"/><path fill="url(#f)" d="m241.676 128.293-44.568 18.048c13.329 20.883 20.828 32.555 39.555 46.008l31.23-30.696c-16.159 7.85-37.811-24.926-26.217-33.36Z"/><path fill="#5869DD" d="M241.676 128.293c15.953-2.605 32.877 23.115 26.217 33.36-16.159 7.85-37.811-24.926-26.217-33.36Z"/><path fill="#000" d="M197.108 146.341c3.987 8.611 9.041 17.442 15.107 26.142 6.291 9.023 13.123 17.122 20.146 24.095l4.302-4.229c-18.727-13.453-26.226-25.125-39.555-46.008Z"/><path fill="url(#g)" d="M296.298 221.098c19.045-12.441 12.278-54.376-15.115-93.666-27.392-39.289-65.037-61.054-84.082-48.614-14.827 9.686-14.009 37.249.007 67.523l44.568-18.048c15.953-2.605 32.877 23.115 26.217 33.36l-31.23 30.696-4.302 4.229c23.557 23.388 49.265 34.103 63.937 24.52Z"/><path stroke="#000" stroke-width="2" d="M197.108 146.341c3.987 8.611 9.041 17.442 15.107 26.142 6.291 9.023 13.123 17.122 20.146 24.095m-35.253-50.237c-14.016-30.274-14.834-57.837-.007-67.523 19.045-12.44 56.69 9.325 84.082 48.614 27.393 39.29 34.16 81.225 15.115 93.666-14.672 9.583-40.38-1.132-63.937-24.52m-35.253-50.237 44.568-18.048m-44.568 18.048c13.329 20.883 20.828 32.555 39.555 46.008m5.013-64.056c15.953-2.605 32.877 23.115 26.217 33.36m-26.217-33.36c-11.594 8.434 10.058 41.21 26.217 33.36m0 0-31.23 30.696m-4.302 4.229 4.302-4.229"/><path fill="#F1EFED" d="m243.54 133.708 9.853 11.609 1.364-2.203-9.287-10.942a1.278 1.278 0 0 0-1.76-.169 1.185 1.185 0 0 0-.17 1.705ZM257.265 138.053l-4.135-4.872a1.28 1.28 0 0 0-1.76-.169 1.184 1.184 0 0 0-.169 1.705l4.706 5.546 1.358-2.21ZM243.637 138.029a1.278 1.278 0 0 0-1.76-.169 1.185 1.185 0 0 0-.17 1.705l6.635 7.817 1.358-2.21-6.063-7.143Z"/><path fill="#000" d="M254.977 155.199a1.278 1.278 0 0 0 1.76.169 1.184 1.184 0 0 0 .169-1.705l-7.206-8.491-1.358 2.21 6.635 7.817ZM253.393 145.317l9.176 10.811a1.28 1.28 0 0 0 1.76.169 1.185 1.185 0 0 0 .17-1.705l-9.742-11.478-1.364 2.203ZM265.189 147.389l-7.924-9.336-1.358 2.21 7.352 8.662a1.278 1.278 0 0 0 1.76.169 1.185 1.185 0 0 0 .17-1.705Z"/><path stroke="#000" stroke-width="1.5" d="m262.569 156.128-19.029-22.42m19.029 22.42a1.28 1.28 0 0 0 1.76.169 1.185 1.185 0 0 0 .17-1.705l-9.742-11.478m7.812 13.014-9.176-10.811m-9.853-11.609a1.185 1.185 0 0 1 .17-1.705 1.278 1.278 0 0 1 1.76.169l9.287 10.942m-11.217-9.406 9.853 11.609m9.866 3.608-12.058-14.208m12.058 14.208a1.278 1.278 0 0 0 1.76.169 1.185 1.185 0 0 0 .17-1.705m-1.93 1.536-7.352-8.662m9.282 7.126-12.059-14.208m12.059 14.208-7.924-9.336m-4.135-4.872a1.28 1.28 0 0 0-1.76-.169 1.184 1.184 0 0 0-.169 1.705m1.929-1.536 4.135 4.872m-6.064-3.336 4.706 5.546m-7.565 7.119 6.635 7.817a1.278 1.278 0 0 0 1.76.169 1.184 1.184 0 0 0 .169-1.705l-7.206-8.491m-1.358 2.21-6.635-7.817a1.185 1.185 0 0 1 .17-1.705 1.278 1.278 0 0 1 1.76.169l6.063 7.143m-1.358 2.21 1.358-2.21m3.693.145 1.364-2.203m1.15-2.851 1.358-2.21"/><defs><linearGradient id="a" x1="106.542" x2="236.69" y1="287.012" y2="292.131" gradientUnits="userSpaceOnUse"><stop stop-color="#D6FFBB"/><stop offset="1" stop-color="#5869DD"/></linearGradient><linearGradient id="b" x1="106.542" x2="236.69" y1="287.012" y2="292.131" gradientUnits="userSpaceOnUse"><stop stop-color="#D6FFBB"/><stop offset="1" stop-color="#5869DD"/></linearGradient><linearGradient id="c" x1="76.927" x2="107.511" y1="191.727" y2="260.862" gradientUnits="userSpaceOnUse"><stop stop-color="#D6FFBB"/><stop offset="1" stop-color="#5869DD"/></linearGradient><linearGradient id="d" x1="159.029" x2="259.291" y1="150.902" y2="157.428" gradientUnits="userSpaceOnUse"><stop stop-color="#D6FFBB"/><stop offset="1" stop-color="#5869DD"/></linearGradient><linearGradient id="e" x1="141.291" x2="180.12" y1="135.252" y2="234.376" gradientUnits="userSpaceOnUse"><stop stop-color="#D6FFBB"/><stop offset="1" stop-color="#5869DD"/></linearGradient><linearGradient id="f" x1="198.939" x2="221.682" y1="122.571" y2="187.069" gradientUnits="userSpaceOnUse"><stop stop-color="#D6FFBB"/><stop offset="1" stop-color="#5869DD"/></linearGradient><linearGradient id="g" x1="289.761" x2="216.088" y1="40.473" y2="166.705" gradientUnits="userSpaceOnUse"><stop stop-color="#D6FFBB"/><stop offset="1" stop-color="#5869DD"/></linearGradient></defs></svg>
