<svg xmlns="http://www.w3.org/2000/svg" width="509" height="544" fill="none" viewBox="0 0 509 544"><path fill="#000" d="m78.647 148.026 3.155 2.575-.166.166-3.072-2.575.083-.166ZM87.782 155.915l5.481 5.811-.249.249-5.48-5.811.248-.249ZM98.33 167.955c1.577 2.159 3.072 4.4 4.484 6.642l-.415.249c-1.412-2.241-2.824-4.483-4.402-6.642l.332-.249ZM106.717 181.655a82.33 82.33 0 0 1 3.156 7.39l-.665.249c-.913-2.491-1.91-4.982-3.072-7.39l.581-.249ZM112.282 196.768a62.948 62.948 0 0 1 1.494 7.888l-.83.083c-.332-2.657-.747-5.231-1.412-7.805l.748-.166ZM114.274 212.71c0 2.657-.166 5.397-.498 8.055l-.914-.083c.332-2.658.499-5.315.499-7.972h.913ZM112.447 228.736a59.063 59.063 0 0 1-2.242 7.723l-.997-.332c.83-2.492 1.578-5.066 2.242-7.64l.997.249ZM107.215 243.932l-1.827 3.653c-.332.582-.581 1.246-.913 1.827l-.997 1.744-.997-.581.997-1.744c.332-.581.581-1.163.914-1.744l1.827-3.57.996.415ZM99.16 257.882c-1.578 2.159-3.239 4.317-4.983 6.31l-.913-.83a90.897 90.897 0 0 0 4.983-6.228l.913.748ZM88.53 270.088a92.485 92.485 0 0 1-6.063 5.313l-.83-.996a89.822 89.822 0 0 0 5.98-5.23l.913.913ZM76.073 280.218l-6.81 4.4-.747-1.245 6.727-4.235.83 1.08ZM62.204 288.521l-7.225 3.57-.581-1.328 7.141-3.487.665 1.245ZM47.67 295.413l-7.225 3.321-.665-1.328 7.309-3.404.58 1.411ZM39.282 302.139c1.246.332 2.492.415 3.82.581 1.33.084 2.658.167 3.987.167v1.494c-1.329 0-2.658-.083-4.07-.166-1.328-.083-2.74-.249-4.069-.581l.332-1.495ZM55.062 302.637l7.972-.415.083 1.578-7.972.415-.084-1.578ZM71.007 301.558l7.972-.664.166 1.578-7.972.664-.166-1.578ZM86.951 300.063l7.973-.913.166 1.661-7.973.83-.166-1.578ZM102.896 298.237l7.973-.914.166 1.661-7.972.913-.167-1.66ZM118.759 296.327l7.972-.997.25 1.744-7.973.914-.249-1.661ZM134.704 294.334l7.973-.996.166 1.661-7.89.996-.249-1.661ZM150.566 292.258l7.973-.996.249 1.661-7.972.996-.25-1.661ZM166.512 290.182l7.889-.996.249 1.577-7.972 1.08-.166-1.661ZM182.373 288.106l7.973-1.079.166 1.578-7.973 1.079-.166-1.578ZM198.235 285.948l7.973-1.08.166 1.578-7.89 1.079-.249-1.577ZM214.181 283.872l7.889-1.08.249 1.412-7.972 1.162-.166-1.494ZM230.043 281.796l7.973-1.08.166 1.329-7.973 1.08-.166-1.329ZM245.987 279.72l7.89-1.08.166 1.246-7.89 1.08-.166-1.246ZM261.85 277.644l7.972-.997.166 1.163-7.972 1.08-.166-1.246ZM277.795 275.651l7.972-.996.084 1.079-7.973 1.08-.083-1.163ZM293.657 273.741l7.973-.913.166.913-7.973.997-.166-.997ZM309.602 271.831l7.972-.83.083.83-7.889.997-.166-.997ZM325.547 270.088l7.972-.83.083.83-7.972.831-.083-.831ZM341.492 268.51l8.056-.747v.664l-7.973.831-.083-.748ZM357.521 267.015l7.972-.664.083.747-8.055.665v-.748ZM373.466 265.853l8.055-.415v.664l-7.972.415-.083-.664ZM389.577 265.106h7.973v.581l-7.973.083v-.664ZM405.604 265.438c2.658.249 5.316.581 7.973 1.329l-.166.581c-2.491-.748-5.232-1.08-7.807-1.246v-.664ZM417.065 272.745c-.415.581-.83 1.079-1.245 1.577-.416.499-.831.997-1.329 1.495-.914.996-1.827 1.909-2.824 2.906l-.415-.416a45.284 45.284 0 0 0 2.824-2.822c.415-.498.913-.997 1.328-1.495.416-.498.831-1.079 1.246-1.577l.415.332ZM405.439 283.871a116.41 116.41 0 0 1-6.644 4.484l-.332-.498a116.765 116.765 0 0 0 6.644-4.484l.332.498ZM391.819 292.424l-7.142 3.653-.249-.581 7.059-3.653.332.581ZM377.369 299.482l-7.308 3.155-.249-.581 7.308-3.155.249.581ZM362.587 305.627l-7.475 2.906-.249-.665 7.475-2.822.249.581ZM347.556 311.273l-7.558 2.575-.249-.748 7.557-2.574.25.747ZM332.357 316.421l-7.64 2.409-.249-.831 7.64-2.408.249.83ZM317.076 321.237l-7.64 2.326-.332-.914 7.723-2.242.249.83ZM301.713 325.804l-7.724 2.242-.249-.996 7.724-2.159.249.913ZM286.267 330.205l-7.724 2.159-.249-.996 7.723-2.16.25.997ZM270.819 334.523l-7.723 2.076-.332-1.163 7.806-1.993.249 1.08ZM255.372 338.675l-7.806 1.993-.25-1.163 7.724-1.993.332 1.163ZM239.843 342.744l-7.724 1.993-.332-1.246 7.724-1.993.332 1.246ZM224.312 346.812l-7.723 1.993-.332-1.328 7.723-1.994.332 1.329ZM208.782 350.798l-7.723 1.992-.415-1.411 7.806-1.993.332 1.412ZM193.253 354.783l-7.724 1.993-.415-1.412 7.807-1.992.332 1.411ZM177.806 358.852l-7.807 1.992-.415-1.494 7.806-2.076.416 1.578ZM162.275 362.921l-7.723 2.075-.498-1.66 7.806-1.993.415 1.578ZM146.746 367.073l-7.723 2.075-.416-1.66 7.724-2.076.415 1.661ZM131.299 371.307l-7.724 2.159-.498-1.744 7.807-2.075.415 1.66ZM115.853 375.625l-7.641 2.242-.498-1.661 7.64-2.241.499 1.66ZM100.488 380.192l-7.64 2.325-.581-1.744 7.723-2.325.498 1.744ZM85.208 384.925l-7.64 2.491-.582-1.744 7.64-2.491.582 1.744ZM70.01 389.99l-7.558 2.574-.664-1.744 7.557-2.656.665 1.826ZM54.895 395.305c-2.492.996-4.9 1.992-7.226 3.237l-.913-1.743a64.383 64.383 0 0 1 7.391-3.238l.748 1.744ZM41.441 402.777c-.166.249-.25.415-.332.581-.083.166 0 .25 0 .333.083.166.498.581 1.08.83 1.08.581 2.325.913 3.57 1.245l-.498 1.91c-1.329-.332-2.657-.748-3.986-1.412-.664-.415-1.412-.747-1.91-1.743a2.318 2.318 0 0 1-.083-1.661c.166-.498.415-.83.581-1.162l1.578 1.079ZM53.567 407.262l7.89.996-.25 1.993-7.973-.996.333-1.993ZM69.429 409.088l7.972.582-.166 2.076-7.972-.664.166-1.994ZM85.374 410.251l7.973.498-.083 1.993-8.056-.498.166-1.993ZM101.318 411.165l8.056.332-.083 1.993-8.056-.332.083-1.993ZM117.347 411.829l8.138.332-.083 1.993-8.138-.332.083-1.993ZM133.51 412.428l-.069 1.992 8.051.276.068-1.992-8.05-.276ZM149.569 412.991l7.973.249-.083 1.993-7.973-.249.083-1.993ZM165.598 413.489l7.972.249v1.911l-8.055-.25.083-1.91ZM181.626 413.905l7.973.249v1.91l-8.056-.166.083-1.993ZM197.654 414.403l7.973.166v1.91l-8.056-.166.083-1.91ZM213.682 414.818l7.972.166v1.91l-8.055-.249.083-1.827ZM229.711 415.233l7.973.249v1.744l-8.056-.166.083-1.827ZM245.738 415.648l7.973.249v1.744l-8.056-.166.083-1.827ZM261.767 416.146l7.972.25v1.661l-8.055-.25.083-1.661ZM277.795 416.645l7.973.332v1.495l-8.056-.167.083-1.66ZM293.823 417.226l7.973.249v1.495l-8.056-.249.083-1.495ZM309.851 417.807l7.972.332v1.412l-8.055-.332.083-1.412ZM325.88 418.471l7.972.333-.083 1.328-7.972-.332.083-1.329ZM341.907 419.219l7.973.415-.083 1.246-7.973-.332.083-1.329ZM357.936 420.132l7.972.416-.083 1.245-7.972-.498.083-1.163ZM373.881 421.128l8.056.582-.084 1.079-8.055-.498.083-1.163ZM389.909 422.374l7.973.747-.083.997-7.973-.664.083-1.08ZM405.855 423.952l7.972.996-.083.914-7.973-.914.084-.996ZM421.799 426.11l7.889 1.495-.166.831-7.889-1.412.166-.914ZM437.495 429.764c1.246.415 2.492.996 3.737 1.661.582.332 1.163.747 1.744 1.162.582.415 1.08.83 1.578 1.328l-.498.498-1.495-1.245c-.498-.415-1.079-.747-1.661-1.079-1.162-.664-2.408-1.08-3.654-1.578l.249-.747ZM448.042 441.057c.083 1.411-.166 2.74-.581 4.069-.415 1.328-.997 2.491-1.744 3.653l-.498-.332c1.329-2.242 2.242-4.816 2.159-7.39h.664ZM440.817 455.173c-1.827 1.909-3.82 3.736-5.896 5.479l-.249-.332c1.993-1.743 3.986-3.57 5.813-5.479l.332.332ZM428.526 465.552l-6.644 4.484-.166-.25 6.644-4.566.166.332ZM415.239 474.271l-3.488 1.993-.083-.083 3.405-2.076.166.166ZM466.481 377.2l17.457-12.778-2.34-21.505-17.457 12.779 2.34 21.504Z"/><path stroke="#000" stroke-linecap="round" stroke-linejoin="round" stroke-miterlimit="10" stroke-width="2" d="m444.318 346.972 2.341 21.505 19.796 8.726-2.34-21.505m-19.797-8.726 19.797 8.726m-19.797-8.726 17.457-12.778 19.797 8.726-17.457 12.778m2.366 21.502 17.457-12.778-2.34-21.505-17.457 12.779 2.34 21.504Z"/><path fill="#000" d="m50.487 147.934 19.849-4.471 12.103-38.844-19.848 4.471-12.104 38.844Z"/><path fill="#F1EFED" d="m21.196 64.222 41.381 44.844-.004.013 19.849-4.471-41.39-44.854-19.836 4.468ZM21.183 64.225l-6.048 19.41 27.587 29.919-6.052 19.422 13.797 14.951 12.103-38.844-13.537-14.677-27.85-30.181Z"/><path fill="#000" d="m15.135 83.635-.955-.298a1 1 0 0 0 .22.975l.735-.677Zm6.052-19.422.735-.679a1 1 0 0 0-1.69.381l.955.298Zm41.39 44.853.955.297a1 1 0 0 0-.22-.975l-.735.678Zm-7.006 19.125a1 1 0 1 0 1.909.595l-1.91-.595Zm-6.063-34.737a1 1 0 0 0-1.47 1.356l1.47-1.356ZM36.67 132.976l-.955-.297a.999.999 0 0 0 .22.975l.735-.678Zm13.797 14.951-.736.679a1 1 0 0 0 1.69-.381l-.954-.298Zm12.103-38.844.955.298a1.001 1.001 0 0 0-.22-.976l-.735.678Zm-12.083 38.851-.955-.297a1 1 0 0 0 1.175 1.272l-.22-.975Zm19.849-4.471.22.976a1 1 0 0 0 .734-.678l-.954-.298Zm12.103-38.844.955.297a.999.999 0 0 0-1.174-1.273l.22.976Zm-19.848 4.471-.22-.976a1.001 1.001 0 0 0-.735.678l.955.298Zm19.83-4.482.22.975a1 1 0 0 0 .516-1.653l-.735.678Zm-41.39-44.854.736-.678a1 1 0 0 0-.955-.298l.22.976Zm-19.848 4.47-.22-.975a1 1 0 0 0-.735.678l.955.298Zm41.39 44.855-.735.678a1 1 0 0 0 .955.297l-.22-.975Zm-19.851 4.475.954.297a1 1 0 0 0-.22-.975l-.734.678ZM16.09 83.932l6.052-19.422-1.91-.595-6.052 19.422 1.91.595Zm45.532 24.837-6.051 19.422 1.909.595 6.052-19.422-1.91-.595Zm-25.687 24.885 13.796 14.952 1.47-1.357-13.796-14.951-1.47 1.356Zm15.486 14.571 12.104-38.844-1.91-.595-12.103 38.844 1.91.595Zm11.884-39.82L49.508 93.454l-1.47 1.356 13.797 14.951 1.47-1.356Zm-12.598 40.504 19.848-4.47-.439-1.951-19.848 4.47.439 1.951Zm20.583-5.148 12.104-38.845-1.91-.595-12.103 38.845 1.91.595Zm10.93-40.118-19.849 4.471.44 1.951 19.848-4.471-.44-1.951Zm-20.584 5.149-12.104 38.845 1.91.594 12.104-38.844-1.91-.595Zm21.52-4.862-41.39-44.854-1.47 1.356 41.39 44.854 1.47-1.356Zm-20.363 6.124 19.848-4.471-.44-1.951-19.847 4.471.439 1.951Zm-21.026 3.203-6.052 19.422 1.91.595 6.051-19.423-1.91-.594ZM14.4 84.312l27.586 29.92 1.47-1.356-27.586-29.92-1.47 1.356ZM20.46 64.9l41.382 44.845 1.47-1.357L21.93 63.544 20.46 64.9Zm41.162 43.87-.004.012 1.91.594.004-.013-1.91-.593Zm-20.81-49.992-19.836 4.468.44 1.952L41.25 60.73l-.44-1.952Zm-19.836 4.468-.013.003.44 1.951.012-.002-.44-1.952Zm-.524 1.645.009.01 1.47-1.357-.01-.01-1.47 1.357Zm-.224-.964-6.048 19.41 1.91.595 6.048-19.41-1.91-.595Zm43.077 44.478L49.768 93.728l-1.47 1.355 13.537 14.678 1.47-1.356ZM49.768 93.727l-27.85-30.18-1.47 1.356 27.85 30.18 1.47-1.356ZM20.452 64.89l27.846 30.193 1.47-1.355-27.846-30.193-1.47 1.356Zm27.846 30.194 13.54 14.673 1.47-1.356-13.54-14.674-1.47 1.357Z"/><path fill="#000" stroke="#000" stroke-width="2.38" d="M483.353 427.799c-27-24-116.357 8-91-134.5l-3.5-31-88.5 266.5s25.25-1.5 48.125 3.5 88.375 19 101.375 0c10-14.615-35.208-37.954-10.604-40.977 24.604-3.023 73.104 7.477 67.604-13.523s-54-19.223-52-32c2-12.776 29.5-7.776 28.5-18Z"/><path fill="#5869DD" d="M164.364 430.772c-.166-.083-.415-.249-.415-.249-8.384-4.814-12.288-12.864-13.618-15.607l-.002-.004c-1.411-3.072-5.232-11.044-3.488-20.426l.167-.665c.166-.664 109.871-205.891 61.87-265.261-2.824-3.405-8.222-8.968-18.603-13.203-1.079-.083-2.823-.332-4.318-1.494-2.575-1.993-2.99-5.149-3.322-8.055a25.057 25.057 0 0 1 2.242-13.867s2.243-4.567 9.551-10.462c.996-.747 2.325-1.744 4.069-1.66.664 0 1.246.248 1.578.331 11.71-11.957 26.824-30.889 34.88-57.543 1.827-5.895 3.073-11.625 3.986-16.94a50.391 50.391 0 0 1 5.98-1.992c9.799-2.574 18.602-1.412 24.416 0C347.9 37.221 405.451 63.128 420.898 71.1c3.322 1.743 9.8 5.23 14.368 12.455 5.481 8.635 5.481 18.101 4.982 23.748-5.647 24.163-11.294 48.243-16.941 72.406 1.578.167 3.986.748 5.979 2.575 3.903 3.57 3.239 9.466 2.824 12.87-.332 3.238-2.076 12.289-9.966 17.105-2.574 1.578-5.066 2.242-6.727 2.574-6.075 25.828-12.143 51.649-18.208 77.466-25.357 142.5 58.643 111 85.643 135 1 10.224-25 2.724-27 15.5-2 12.777 50 17.701 50 33.5s-41 7-65.604 10.023c-24.603 3.023 19.604 30.362 9.604 44.977-13 19-77.5 3-100.375-2-22.874-5-50.624 1-50.624 1l-134.489-99.527Z"/><path stroke="#000" stroke-width="2.38" d="M146.841 394.486c-1.744 9.382 2.077 17.354 3.488 20.426l.002.004c1.33 2.743 5.234 10.793 13.618 15.607 0 0 .249.166.415.249l134.489 99.527s27.75-6 50.624-1c22.875 5 87.375 21 100.375 2 10-14.615-34.207-41.954-9.604-44.977 24.604-3.023 65.604 5.776 65.604-10.023s-52-20.723-50-33.5c2-12.776 28-5.276 27-15.5-27-24-111 7.5-85.643-135 6.065-25.817 12.133-51.638 18.208-77.466 1.661-.332 4.153-.996 6.727-2.574 7.89-4.816 9.634-13.867 9.966-17.105.415-3.404 1.079-9.3-2.824-12.87-1.993-1.827-4.401-2.408-5.979-2.575 5.647-24.163 11.294-48.243 16.941-72.406.499-5.647.499-15.112-4.982-23.748-4.568-7.224-11.046-10.712-14.368-12.455C405.451 63.128 347.9 37.22 269.337 3.675c-5.814-1.412-14.617-2.574-24.416 0a50.391 50.391 0 0 0-5.98 1.993c-.913 5.314-2.159 11.044-3.986 16.94-8.056 26.653-23.17 45.585-34.88 57.542-.332-.083-.914-.332-1.578-.332-1.744-.083-3.073.914-4.069 1.661-7.308 5.895-9.551 10.462-9.551 10.462a25.057 25.057 0 0 0-2.242 13.867c.332 2.906.747 6.062 3.322 8.055 1.495 1.162 3.239 1.411 4.318 1.494 10.381 4.235 15.779 9.798 18.603 13.203 48.001 59.37-61.704 264.597-61.87 265.261m-.167.665.167-.665m-.167.665.167-.665"/><path fill="#000" stroke="#000" stroke-width="2.38" d="M96.353 358.299c2.5-7 28 3.5 43.8-14l302.699 110.5c8.5 14-26.023 11.5-37.998 24.5-11.975 13 21.998 32.5-8.455 42.5-20.43 5-42.011-3.5-88.047 7.5-46.035 11-72.498-39.811-100.498-50s-72.502-2-72.502-15c1-7 25-4 26.5-15s-104.5-7.5-102.5-17.5 41.501-9.5 41.501-24.5-69-4.465-70-18.5c-1-14.034 83-4.5 83-13.5-2.001-11.5-20.002-10-17.5-17Z"/><path fill="url(#a)" stroke="#000" stroke-width="2.38" d="M221.826 9.82c-7.142 4.982-9.384 13.285-10.297 16.939l-.516 2.053c-22.466 89.475-35 139.398-72.86 312.487-15.799 17.5-40.298 9-42.8 16-2.5 7 14.499 3.5 16.5 15 0 9-84.5 1.966-83.5 16 1 14.035 70.5 1 70.5 16s-40 17-42 27 104.5 4 103 15-25.5 9.5-26.5 16.5c0 13 44.501 3.311 72.501 13.5 28 10.189 54.463 60.5 100.498 49.5 46.036-11 67.618-2.5 88.047-7.5 30.453-10-3.52-29 8.455-42s46.499-10.5 37.999-24.5-83.5-15.5-72.69-144.5l46.666-199.996c.415-2.408 1.661-11.293-3.571-20.427-5.564-9.715-14.616-12.953-16.859-13.7-50.659-22.17-101.235-44.424-151.811-66.678-1.328-.415-11.377-3.155-20.762 3.322Z"/><path stroke="#000" stroke-miterlimit="10" stroke-width="2.377" d="M227.647 7.827c4.152-2.242 9.052-2.99 18.852-4.484 7.142-1.08 10.879-1.66 15.28-1.163 5.648.582 10.132 2.325 13.122 3.654 70.673 31.968 122.578 55.55 141.845 63.439 3.488 1.411 12.79 5.148 18.686 14.365 5.647 8.884 5.564 19.015 4.817 25.575-3.821 16.358-9.551 41.185-16.361 70.33"/><path stroke="#000" stroke-miterlimit="10" stroke-width="2.377" d="M346.571 255.105c-47.503-21.257-95.006-42.431-142.426-63.688-.499-.166-2.326-.996-3.405-3.072a6.94 6.94 0 0 1-.665-4.069l28.818-124.054c.083-.415.581-2.242 2.408-3.322 1.412-.913 2.907-.83 3.322-.747 11.377 4.982 139.852 61.363 143.423 64.352 1.744 1.412 2.575 3.156 2.575 3.156s.747 1.66.83 3.57c.166 4.65-26.492 115.419-28.485 123.889-.582 2.906-3.488 4.65-6.395 3.985Z"/><path fill="#EDEAE2" stroke="#000" stroke-miterlimit="10" stroke-width="2.377" d="M347.65 251.286c-46.34-20.676-92.764-41.352-139.104-62.028-.498-.166-2.242-.996-3.322-2.989-.914-1.744-.747-3.404-.664-3.902l27.987-120.484c.083-.416.581-2.16 2.325-3.239 1.412-.83 2.824-.83 3.239-.747 11.045 4.816 136.613 59.785 140.101 62.691 1.661 1.329 2.491 3.073 2.491 3.073s.748 1.577.831 3.487c.166 4.484-25.662 112.098-27.655 120.318-.581 2.74-3.405 4.484-6.229 3.82Z"/><path stroke="#000" stroke-miterlimit="10" stroke-width="2.377" d="m190.608 221.393 5.481-1.993"/><path fill="#000" d="M224.159 322.208c.332.581.166 1.163.166 1.329-.946 3.972-1.844 10.827-2.766 16.187-.293 1.699-.588 3.247-.888 4.506 0 .083-.166.665-.747.997-.582.332-1.329.166-1.329.166 1 3 2.043 2.899 4.651.906 2.607-1.992 8.607-18.78 5.607-27.156l-4.694 3.065ZM195.516 375.471c.664-1.495 7.264-30.276 10.337-43.23a37.276 37.276 0 0 0-4.615-2.487c-.101.426-.211.906-.328 1.433l-.004.02c-.058.264-.115.527-.176.795-1.975 9.04-3.377 25.297-6.377 35.297-2 1.5-3.917.755-4.41-1.5-.493-2.254-1.09-5.5-3.09-10-2-4.5-6.211-8.193-6.211-8.193-.415-.415-.997-1.079-1.246-1.993a3.353 3.353 0 0 1-.076-1.308l.01-.075c-.166.581-.521 2.203-.106 2.95.249.416.747.665.913.748 4.817 1.993 7.406 26.961 12.306 28.954.083 0 .997.415 1.91-.083.747-.332 1.08-1.079 1.163-1.328Z"/><path stroke="#000" stroke-miterlimit="10" stroke-width="2.377" d="m189.03 303.764.08-.334m21.844-15.775v.166m0-.166v.166m0-.166c.067-.732-.134-1.625-.601-2.164m.601 2.33c-.083.581-1.079 4.816-5.149 22.17m0 0c.416-1.494.748-2.989 1.08-4.484m-1.08 4.484c9.551 4.567 16.444 10.972 17.441 11.387.166.083.664.332.913.83m-18.354-12.217 5-2.999m-9.567 22.762c5.108.935 16.686 13.916 17.357 15.639m-17.357-15.639c-.123.491-.226.962-.328 1.433m.328-1.433c-.101.426-.211.906-.328 1.433m.328-1.433c1.48.665 3.037 1.49 4.615 2.487-3.073 12.954-9.673 41.735-10.337 43.23-.083.249-.416.996-1.163 1.328-.913.498-1.827.083-1.91.083-4.9-1.993-7.489-26.961-12.306-28.954-.166-.083-.664-.332-.913-.748-.415-.747-.06-2.369.106-2.95l-.01.075m-10.225-47.011c-.581.332-.748.913-.748.996-1.245 5.232-2.654 12.509-2.654 18.694 0 .166-.166.747.166 1.329.25.498.748.747.914.83 5.58 0 8.222-1.014 18.187 3.636 0 0-3.155 11.874-5.481 20.759-.039.157-.116.428-.159.767m-10.225-47.011c.581-.332 1.163-.166 1.329-.166.358.308.725.592 1.1.853 5.294 3.688 12.079 2.892 17.586 5.449m-20.015-6.136 4-4m16.848 6.65-.045.159m34.261 22.105c.332.581.166 1.163.166 1.329-.946 3.972-1.844 10.827-2.766 16.187-.293 1.699-.588 3.247-.888 4.506 0 .083-.166.665-.747.997-.582.332-1.329.166-1.329.166m5.564-23.185 4.694-3.065m-10.258 26.25c1 3 2.043 2.899 4.651.906 2.607-1.992 8.607-18.78 5.607-27.156m-28.279 13.517c.055-.223.107-.442.156-.658m-10.832-31.899c-.25 1.062-.501 2.123-.754 3.182m.754-3.182c-.296 1.061-.526 2.121-.754 3.182m.754-3.182.399-1.698m-1.153 4.88-.031.146-.003-.001m.034-.145-.034.145m.034-.145-.034.145m11.62 28.572c-1.975 9.04-3.377 25.297-6.377 35.297-2 1.5-3.917.755-4.41-1.5-.493-2.254-1.09-5.5-3.09-10-2-4.5-6.211-8.193-6.211-8.193-.415-.415-.997-1.079-1.246-1.993a3.353 3.353 0 0 1-.076-1.308m21.41-12.303c.061-.268.118-.531.176-.795m-.176.795c.06-.276.119-.541.176-.795m.004-.02-.004.02m.004-.02-.004.02m14.048-47.552v.166m0-.166v.166m0-.166c.055-.606-.073-1.321-.383-1.856m.383 2.022c-.083.582-.08 5.816-4.149 23.171m0 0c.415-1.495.748-2.99 1.08-4.485m-1.08 4.485c9.866 5.807 16.656 10.757 18.048 12.151m-56.506-24.852c0-.083.166-.665.748-.997m0 0c.581-.332 1.162-.166 1.328-.166 4.594 3.952 10.572 3.768 15.874 5.277m0 0c1.378-5.88 2.73-11.785 4.131-17.642.08-.295.231-.556.425-.765m0 0c.406-.437 1.006-.649 1.568-.48 0 0 .427.49 1.072 1.188 1.31 1.419 3.519 3.697 4.86 4.458 2 1.135 7.439-.083 7.439-.083.083 0 .083.083.166.083.148.082.28.194.395.327m-15.5-5.493 4.768-3.48c.259-.075.534-.08.8 0 0 0 3.932 3.511 5.932 4.646 2 1.135 6.659-.332 7.438-.083.78.25.78.718.78.718m-4.218 3.692 4.218-3.692M187.286 181.287c-1.91-.415-3.156-2.408-2.741-4.318l28.652-123.14c.415-1.91 2.408-3.156 4.318-2.741 1.91.415 3.156 2.408 2.741 4.318l-28.652 123.141c-.415 1.993-2.408 3.238-4.318 2.74ZM212.947 236.921l-.332.83c-1.495 3.487-5.564 5.065-9.052 3.57l-14.201-6.144c-3.488-1.495-5.066-5.563-3.572-9.051l.333-.83c1.495-3.488 5.564-5.065 9.052-3.571l14.201 6.145c3.488 1.494 5.066 5.563 3.571 9.051Z"/><path stroke="#000" stroke-miterlimit="10" stroke-width="2.377" d="M188.116 222.639c.332-.582 1.328-2.325 3.405-3.156 1.162-.498 2.242-.498 2.491-.498.831 0 1.661.166 2.492.581a1224.91 1224.91 0 0 1 15.363 6.56c.831.415 2.99 1.578 4.236 4.069.747 1.578.83 2.906.913 3.238 0 .581 0 1.578-.332 2.906-.415 1.329-1.744 6.145-5.149 6.892-1.661.416-3.571-.332-4.983-.83a9.676 9.676 0 0 1-1.827-.83M276.853 259.299c1.666-.666 3.333-.833 5-1.5"/><path fill="#000" fill-rule="evenodd" d="M301.819 276.799c-1.516.352-1.962.65-3-.769-1.495 3.487-3.965 7.376-8.466 4.918-3.912-2.136-8.955-4.744-12.087-6.185l.087.036s6.724 3.096 12 6.149a54.805 54.805 0 0 1 3 1.851c5.012 3.356 6.821-.902 8.28-4.332.062-.148.124-.294.186-.437v-1.231Zm-23.553-2.036c-.471-.217-.9-.408-1.274-.566.277.194.576.304.895.421.123.045.25.092.379.145Z" clip-rule="evenodd"/><path stroke="#000" stroke-miterlimit="10" stroke-width="2.377" d="m298.819 276.03.332-.831c1.089-2.479-.452-5.354-2.173-7.311a6.697 6.697 0 0 0-2.398-1.739l-14.201-6.145c-3.488-1.495-6.557.083-8.052 3.571l-.332.83c-1.495 3.487.083 7.556 3.571 9.051 0 0 .537.365 1.426.741m21.827 1.833c-1.495 3.487-3.965 7.376-8.466 4.918m8.466-4.918c1.038 1.419 1.484 1.121 3 .769v1.231c-.062.143-.124.289-.186.437-1.459 3.43-3.268 7.688-8.28 4.332m-3-1.851c-3.912-2.136-8.955-4.744-12.087-6.185m12.087 6.185c-5.276-3.053-12-6.149-12-6.149m12 6.149a54.805 54.805 0 0 1 3 1.851m0 0c-5.227-3.5-15-8-15-8m0 0-.087-.036m-1.274-.566c.374.158.803.349 1.274.566m-1.274-.566c.277.194.576.304.895.421.123.045.25.092.379.145"/><path stroke="#000" stroke-miterlimit="10" stroke-width="2.377" d="M274.352 260.799a6.746 6.746 0 0 1 3.373-2.954c1.162-.498 2.242-.498 2.491-.498.831 0 1.661.166 2.492.581a1218.609 1218.609 0 0 1 15.363 6.56c.831.415 2.99 1.578 4.236 4.069.747 1.577.83 2.906.913 3.238 0 .581 0 1.578-.332 2.906-.415 1.329-1.744 6.145-5.149 6.892M321.241 279.103l5.481-1.993M343.498 294.63l-.332.83c-1.314 4.339-4.313 16.339-9.813 5.839m10.145-6.669c1.495-3.488-.083-7.556-3.571-9.051l-14.201-6.145c-3.488-1.494-7.558.083-9.053 3.571l-.332.83c-1.495 3.488-.476 8.47 3.012 9.964 0 0 7 0 14 7.5m10.145-6.669h2.355l-5 11.669h-4l-3.5-5"/><path stroke="#000" stroke-miterlimit="10" stroke-width="2.377" d="M318.667 280.348c.332-.581 1.328-2.325 3.404-3.155 1.163-.499 2.243-.499 2.492-.499.83 0 1.661.166 2.491.582a1218.645 1218.645 0 0 1 15.364 6.559c.831.416 2.99 1.578 4.236 4.069.747 1.578.83 2.906.913 3.238 0 .582 0 1.578-.332 2.907-.415 1.328-3.744 12.144-7.149 12.892-1.661.415-3.571-.333-4.983-.831-.747-.249-1.75-6.311-5.75-8.811s-4.104-2.494-10-3.5M362.353 263.299c-1.499-1.5-2.162-5.536-1.747-7.446l28.651-123.141c.416-1.91 2.409-3.156 4.319-2.74 1.91.415 3.156 2.408 2.741 4.317l-27.964 123.01c-2.5 9.5-4.5 7.5-6 6Z"/><path fill="#000" d="M393.908 129.888c-.997 0-1.744.333-2.243.499 1.246 0 2.658.166 3.488 1.411.914.997.831 2.408.748 3.073-1.495 17.188-26.885 118.192-27.549 121.928-.083.332-1.186 5.375-2.514 6.288-.748.499-3.739.212-4.486.212 0 0 1.5 3.5 4.486 2.5 4.014-1 4.514-7.5 4.514-7.5.5-2.5 6.531-26.859 28.538-122.598.084-.332.499-1.993-.581-3.654-.747-1.245-2.076-1.909-3.073-2.076-.581-.166-.996-.083-1.328-.083ZM216.269 50.673c.498-.166 1.329-.498 2.242-.498.332 0 .748-.083 1.329.083.996.166 2.325.83 3.073 2.075 1.079 1.661.664 3.322.581 3.654-22.008 95.739-27.821 120.235-28.319 121.729l-.166.333c-.416.996-1.246 1.909-2.243 2.491-.415.249-1.744.996-3.405.83-.581-.083-1.079-.249-1.328-.332.747 0 1.661-.166 2.408-.664 1.329-.914 1.578-2.658 1.661-2.99.498-2.74 12.208-52.976 28.402-122.227.083-.166.332-1.827-.747-3.073-.748-1.162-2.076-1.66-3.488-1.411ZM314.099 395.799c-1.415-.332-1.916-2.712-2.083-5.924-1.299 10.422-2.142 19.918 1.336 18.924 6.718-1.919 17.579-21.334 18.445-41.015-3.311 6.11-4.781 7.117-6.53 4.015-1.997 10.991-7.394 24.888-11.168 24Z"/><path stroke="#000" stroke-miterlimit="10" stroke-width="2.377" d="M312.016 389.875c.167 3.212.668 5.592 2.083 5.924 3.774.888 9.171-13.009 11.168-24m-13.251 18.076c-1.299 10.422-2.142 19.918 1.336 18.924 6.718-1.919 17.579-21.334 18.445-41.015m-19.781 22.091c-.335-6.441 0-12.281-2.142-18.076-1.663-4.5-1.302-8.725.001-12m2.57-3.749c.525-.402 1.083-.656 1.654-.721 3.957-.453 12.755 2.97 11.754 12.455a54.876 54.876 0 0 1-.586 4.015m-12.822-15.749c-1.026.786-1.929 2.137-2.57 3.749m2.57-3.749c.688-2.359.307-3.28 2.407-3.837m-4.977 7.586s1.477-6.414 2.977-7c1.5-.586 2-.586 2-.586m10.415 19.586c1.749 3.102 3.219 2.095 6.53-4.015m0 0a55.68 55.68 0 0 0 .055-2.485c0-9.537-7.754-14.271-14.5-13.5-1.092.125-1.898.255-2.5.414"/><path fill="#000" d="M280.385 412.799c-1.374-.475-1.63-1.023-1.468-4.236-.489 9.736-2.093 16.871 1.468 16.236 6.878-1.224 17.594-16.706 20.461-36.196-3.917 5.741-5.482 6.593-6.906 3.329-3.106 10.73-9.89 22.134-13.555 20.867Z"/><path stroke="#000" stroke-miterlimit="10" stroke-width="2.377" d="M284.509 374.409c3.982-.047 12.385 4.255 10.424 13.588a54.7 54.7 0 0 1-.993 3.935m-9.431-17.523c-.575.007-1.156.203-1.719.549m1.719-.549s.575-.787 1.843-1.211m14.494 15.405c-2.867 19.49-13.583 34.972-20.461 36.196-3.561.635-1.957-6.5-1.468-16.236m21.929-19.96c.12-.82-.085.823 0 0Zm0 0c-3.917 5.741-5.482 6.593-6.906 3.329m6.906-3.329s1.506-7.304-5.913-12.804c-4.174-3.093-6.95-3.147-8.581-2.601m-7.435 35.365c-.162 3.213.094 3.761 1.468 4.236 3.665 1.267 10.449-10.137 13.555-20.867m-15.023 16.631v-13.264c0-5-.696-13.748.934-16.873.802-1.538 1.838-2.79 2.939-3.468m0 0 3.562-1.76"/><path fill="#000" d="M259.318 375.711c-1.441-.514-1.707-1.112-1.523-4.626-.557 10.648-2.273 18.456 1.47 17.747 7.228-1.37 18.551-18.346 21.649-39.669-4.139 6.295-5.786 7.234-7.267 3.671-3.311 11.746-10.486 24.246-14.329 22.877Z"/><path stroke="#000" stroke-miterlimit="10" stroke-width="2.377" d="M263.821 333.717c4.182-.069 12.988 4.596 10.886 14.81a62.363 62.363 0 0 1-1.06 4.307m-9.826-19.117c-.604.01-1.215.227-1.808.608m1.808-.608s.607-.863 1.941-1.333m15.152 16.779c-3.098 21.323-14.421 38.299-21.649 39.669-3.743.709-2.027-7.099-1.47-17.747m23.119-21.922c.13-.897-.092.901 0 0Zm0 0c-4.139 6.295-5.786 7.234-7.267 3.671m7.267-3.671s1.615-7.992-6.153-13.973c-4.369-3.364-7.284-3.41-8.999-2.806m-7.967 38.701c-.184 3.514.082 4.112 1.523 4.626 3.843 1.369 11.018-11.131 14.329-22.877m-15.852 18.251.059-14.502c.023-5.467-.669-15.03 1.057-18.453.849-1.686 1.943-3.06 3.102-3.805m0 0 3.749-1.941M303.719 315.97c-2.326.083-4.568.249-6.893.332"/><path fill="#000" d="M305.714 331.876c-.591 4.743-3.717 10.739-8.195 11.366-3.886.561-7.362-3.051-9.226-7.443 0 0 2.52 11.995 4.54 14.247 2.02 2.253 3.737 1.827 5.647 1.661 5.149-.415 11.135-15.394 11.883-20.625-1.607 1.745-2.637 1.816-4.649.794Z"/><path stroke="#000" stroke-miterlimit="10" stroke-width="2.377" d="M305.714 331.876c-.591 4.743-3.717 10.739-8.195 11.366-3.886.561-7.362-3.051-9.226-7.443m17.421-3.923c.93-6.98-2.957-14.319-7.857-15.393-1.183-.268-3.464-.447-5.745.985-1.774 1.163-2.788 2.774-3.38 3.759 0 .268-2.112 4.027-1.858 8.68.102 1.926.608 3.983 1.419 5.892m17.421-3.923c2.012 1.022 3.042.951 4.649-.794m-19.841-12.283c2-2.5 5.806-4.407 8.297-4.407 6.81-.083 12.54 8.968 11.544 16.69m0 0c-.748 5.231-6.734 20.21-11.883 20.625-1.91.166-3.627.592-5.647-1.661-2.02-2.252-4.54-14.247-4.54-14.247M223.577 246.631c.332 4.523 3.488 10.052 7.142 9.549 2.907-.402 4.9-4.623 5.315-7.941.581-4.925-2.076-10.152-5.315-11.057-.747-.201-2.325-.301-3.737.603-1.163.804-1.827 1.91-2.159 2.614-.166.301-1.495 3.015-1.246 6.232Z"/><path stroke="#000" stroke-miterlimit="10" stroke-width="2.377" d="M234.456 236.881c-1.495.101-3.072.101-4.567.201M234.954 256.281h-4.235"/><path stroke="#000" stroke-miterlimit="10" stroke-width="2.377" d="M226.649 238.087c1.246-1.407 2.824-2.412 4.485-2.412 4.568 0 8.471 7.036 7.889 12.866-.415 4.021-3.072 8.444-6.56 8.746-1.329.1-2.575-.402-3.737-1.307M414.254 195.901c-2.076 5.646-1.91 13.535 1.246 14.946 2.242.997 6.146-1.743 7.973-3.653.747-.83 1.412-1.744 1.744-2.159.083-.166 1.744-2.408 2.657-4.816 1.329-3.322 3.073-10.712-.498-13.95-.332-.332-.914-.83-1.827-.996-3.903-1.08-9.218 4.982-11.295 10.628Z"/><path stroke="#000" stroke-miterlimit="10" stroke-width="2.377" d="M411.182 194.821c-2.74 7.225-2.408 17.604 2.159 19.68 3.239 1.411 8.305-1.329 10.631-3.322 1.827-1.494 3.488-3.902 3.571-3.985.332-.415 1.079-1.578 1.91-3.239 0 0 .996-1.992 1.578-4.068.415-1.329 3.903-12.871-1.578-17.604-.499-.415-1.329-1.079-2.575-1.411-5.647-1.329-12.872 6.559-15.696 13.949Z"/><path stroke="#000" stroke-miterlimit="10" stroke-width="2.377" d="M427.542 181.121a111.906 111.906 0 0 0-6.561-2.823c-3.073-1.246-4.734-1.827-6.893-2.242h-.083s-.83-.166-1.744 0c-3.156.498-5.647 2.823-5.647 2.823-1.91 1.661-6.561 6.726-8.388 15.611-.747 3.653-1.91 9.466 1.329 13.451.415.499.747.831 1.08 1.08.83.664 1.494.996 1.91 1.162 1.245.582 5.315 2.242 10.879 4.318M191.438 115.772c-1.993-.581-3.488-1.079-3.903-1.162-.083 0-.415-.083-.747-.333l-.166-.166c-4.817-4.317-4.236-13.451-2.492-19.098 3.488-11.625 13.537-15.112 13.703-15.112h.665c.498.083 1.079.249 1.577.332"/><path fill="#000" d="M414.587 210.183c.664.332 1.744.748 2.989.748 3.654 0 6.229-3.488 7.807-5.73 0 0 4.734-6.477 3.737-14.282a6.829 6.829 0 0 0-.831-2.574 10.035 10.035 0 0 0-1.411-1.827c-.166 0-.333 0-.582-.083.166.914 2.077 11.127-4.816 17.604-2.575 2.408-5.399 3.487-7.309 3.985.166.665.333 1.412.416 2.159ZM208.962 243.563c.249.166.664.249.996.332.914.167 1.91.333 2.741 0 .415-.166.747-.498 1.079-.83.831-.747 1.578-1.494 2.077-2.408a5.506 5.506 0 0 0 .498-1.661c.581-2.325.996-4.816.083-6.975-.166-.415-.498-.747-.831-.747-.249 0-.415.166-.581.249-.498.249-1.08.332-1.661.249.249.997.415 1.993.415 2.99-.083 2.408-1.578 4.484-3.239 6.227-.664.498-2.823 1.744-1.577 2.574Z"/><path fill="#8F8E93" d="M243.855 131.572c-.695 1.954-1.414 3.935-2.099 5.916 3.516 1.277 7.041 2.572 10.558 3.867 1.37-3.979 2.774-7.941 4.179-11.894-1.771-.634-3.507-1.286-5.261-1.92-.703 1.981-1.405 3.953-2.09 5.933-1.771-.634-3.516-1.268-5.287-1.902Zm-10.567-3.823c1.763.643 3.508 1.26 5.262 1.92.728-1.981 1.431-3.962 2.142-5.952 1.754.643 3.508 1.295 5.279 1.938.693-1.998 1.413-3.971 2.115-5.952 1.754.635 3.516 1.243 5.279 1.894a882.47 882.47 0 0 1 2.107-5.96 2987.67 2987.67 0 0 0 15.746 5.57 9403.933 9403.933 0 0 0-8.431 24.077c1.728.652 3.464 1.305 5.202 1.992a527.308 527.308 0 0 0-2.106 6.004c-1.729-.661-3.457-1.34-5.194-2.001-1.37 3.988-2.739 7.966-4.083 11.953a1181.36 1181.36 0 0 0-10.423-4.079c1.336-3.925 2.68-7.904 4.067-11.856a3503.452 3503.452 0 0 0-21.221-7.767c1.431-3.945 2.828-7.845 4.259-11.781ZM290.229 134.971c-2.9 8.196-5.792 16.357-8.702 24.501 1.703.697 3.432 1.376 5.126 2.081-.745 2.025-1.472 4.077-2.217 6.128a950.323 950.323 0 0 1 10.14 4.216 6069.793 6069.793 0 0 0 9.052-24.832 316.31 316.31 0 0 0-5.176-1.975c.726-2.086 1.471-4.155 2.215-6.224-3.5-1.295-6.964-2.6-10.438-3.895Zm-12.584 2.249c1.728.661 3.473 1.287 5.201 1.948.719-2.034 1.455-4.085 2.157-6.101 1.745.635 3.481 1.252 5.226 1.904.71-2.034 1.429-4.068 2.156-6.136 5.236 1.912 10.463 3.859 15.707 5.798-.735 2.069-1.488 4.138-2.232 6.233a512.81 512.81 0 0 1 5.201 1.931 544.57 544.57 0 0 1-2.249 6.251c1.72.679 3.44 1.34 5.168 2.01a4520.596 4520.596 0 0 1-6.928 18.853c-1.703-.696-3.397-1.419-5.1-2.107-.761 2.078-1.54 4.139-2.302 6.218a678.767 678.767 0 0 0-5.074-2.125c-.771 2.043-1.524 4.112-2.286 6.138-5.031-2.126-10.062-4.269-15.093-6.369.728-2.034 1.446-4.076 2.166-6.075-1.703-.696-3.389-1.402-5.083-2.107.71-2.025 1.429-4.041 2.131-6.048-1.72-.688-3.431-1.367-5.151-2.045 2.132-6.048 4.254-12.114 6.385-18.171ZM327.342 163.546c-.796 2.114-1.573 4.289-2.368 6.411 3.423 1.402 6.837 2.794 10.261 4.196 1.588-4.376 3.202-8.736 4.8-13.094-1.737-.67-3.456-1.305-5.185-1.957-.786 2.14-1.572 4.306-2.366 6.472-1.72-.67-3.423-1.367-5.142-2.028Zm-10.311-4.081c1.72.688 3.44 1.358 5.16 2.036a671.945 671.945 0 0 1 2.334-6.358c1.719.627 3.447 1.314 5.167 1.984.777-2.149 1.564-4.271 2.334-6.384 1.727.626 3.455 1.269 5.183 1.904.778-2.131 1.564-4.262 2.333-6.384a1089.686 1089.686 0 0 0 15.718 5.413c-3.236 8.806-6.47 17.726-9.756 26.664a496.06 496.06 0 0 1 5.134 2.097c-.836 2.255-1.647 4.483-2.492 6.755a238.42 238.42 0 0 0-5.127-2.159c-1.639 4.403-3.253 8.806-4.876 13.174-3.408-1.524-6.799-3.057-10.181-4.582 1.607-4.298 3.205-8.604 4.829-12.929a4210.941 4210.941 0 0 0-20.42-8.594c1.556-4.201 3.104-8.41 4.66-12.637Z"/><defs><linearGradient id="a" x1="62.626" x2="430.932" y1="347.014" y2="164.202" gradientUnits="userSpaceOnUse"><stop stop-color="#D6FFBB"/><stop offset="1" stop-color="#5869DD"/></linearGradient></defs></svg>
