<svg xmlns="http://www.w3.org/2000/svg" width="371" height="32" fill="none" viewBox="0 0 371 32"><path stroke="#8F8E93" stroke-width="2" d="M52.5 31V16m0 15H86m-33.5 0H19V16m33.5 0H86m-33.5 0h16m-16 0H35m51 0v15m0-15h33.5M86 16H68.5M86 31h33.5m0 0V16m0 15H153m-33.5-15H153m0 0v15m0-15h33.5M153 31h33.5m0 0H220m-33.5 0V16M220 31h33.5M220 31V16m33.5 15H287m-33.5 0V16M287 31h33.5M287 31V16m33.5 15V16m0 15H354V16m-33.5 0H287m33.5 0H303m17.5 0h16M287 16h-33.5m33.5 0h16m-49.5 0H220m0 0h-33.5m150 0V1m0 15H303m33.5 0H354M336.5 1H303m33.5 0h-16m16 0H370v15h-16M35 16V1m0 15h33.5M35 16H19M35 1h33.5M35 1h17.5M35 1H1.5v15H19M68.5 1v15m0-15H102M68.5 1h-16m16 15H102m0 0V1m0 15h33.5M102 1h33.5m0 0v15m0-15H169m-33.5 15H169m0 0h33.5M169 16V1m33.5 15H236m-33.5 0V1M236 16h33.5M236 16V1m33.5 15H303m-33.5 0V1M303 16V1m0 0h-33.5M303 1h17.5m-51 0H236m0 0h-33.5m0 0H169M52.5 1h268"/></svg>
