<svg width="57" height="111" viewBox="0 0 57 111" fill="none" xmlns="http://www.w3.org/2000/svg">
<path d="M4 110V85H13.314V101.5H11.3611V105H7.92593V110H4Z" fill="url(#paint0_linear_9855_41730)"/>
<path d="M27.1143 87.561V86.8293H24.0286V85.3659V84.6341H20.4286V82.9268V82.1951H18.3714V82.9268H20.4286V84.6341V85.3659H24.0286V86.8293V87.561H27.1143Z" fill="#5869DD"/>
<path d="M56 94L56 70H52.1482L52.1481 74.8H48.7778V78.16H45.5833H40V90V93.25V94H56Z" fill="url(#paint1_linear_9855_41730)"/>
<path d="M19.875 3V4.375H17.25V5.9375H15.3125V7.625H13.8125V9.375H11.625V11.125H9.375V13.0625H7.0625V16.375H8.875V18.625H10.125H18.1875H26.9375H29.75H30.75V17V11.875H32.1875V8.9375H34.3125V6.6875H37.3125H39.9375V3H19.875Z" fill="#5869DD"/>
<path d="M48.1875 38.125H49.6875V32.375H37.0625V31.4375H33.125V33.25H28.5625V34.75H26.9375V38.125H48.1875Z" fill="black"/>
<path d="M26.9375 18.625V24.75H32.1875V22.5H29.75V18.625H26.9375Z" fill="black"/>
<path d="M7.0625 16.375H5.5V24.75H4.1875V26.4375H2.6875V31.4375H1V37.1875H10.125V18.625H8.875V16.375H7.0625Z" fill="black"/>
<path d="M41.3125 17.125H51.1875V14.125H48.1875H38.5625V10.6875H37.3125V6.6875H34.3125V8.9375H32.1875V11.875H30.75V17H33.125L41.3125 17.125Z" fill="black"/>
<path d="M48.1875 14.125V9.25H47V7.625V5.9375H43.75V4.375H41.8125V3H39.9375V6.6875H37.3125V10.6875H38.5625V14.125H48.1875Z" fill="url(#paint2_linear_9855_41730)"/>
<path d="M25.5625 46.625H28H35.0625V44.5H38.1875V43.125H41.3125V41.375H45.3125V40.125H48.1875V38.125H26.9375V34.75H28.5625V33.25H33.125V31.4375H37.0625V32.375H49.6875H51.1875V30H52.8125V26H50.3125V24.75H48.1875V22.875H41.3125V17.125L33.125 17H30.75V18.625H29.75V22.5H32.1875V24.75H26.9375V18.625H18.1875V28.3125H20.75V30.375H18.1875V28.3125V18.625H10.125V37.1875H12.75V39H14.125V41.375H19.5625V43.125H25.5625V46.625Z" fill="#F1EFED"/>
<path d="M20.75 28.3125H18.1875V30.375H20.75V28.3125Z" fill="black"/>
<path d="M47 9.25H48.1875H51.5V7.625H47V9.25Z" fill="black"/>
<path d="M25.5 101.5V98.5H29.25V93.25V90H27.1143V87.561H24.0286V86.8293V85.3659H20.4286V84.6341V82.9268H18.3714V82.1951V81H13.314V85V101.5H25.5Z" fill="#5869DD"/>
<path d="M5.5 61V64H4V72.5H7V71H9.5V74H6V77H12V74.5H13.314H15.5V70H19.5625V66.5V60.5H15.5V57.5H9V61H5.5Z" fill="#F1EFED"/>
<path d="M48.1875 14.125H51.1875H55V4H53.5V1H43.75V4.375V5.9375H47V7.625H51.5V9.25H48.1875V14.125Z" fill="#F1EFED"/>
<path d="M27 51.9858H25.4959V50H22.4876V48H14.125H6V50.5H2.6875V64H4H5.5V61H9V57.5H15.5V60.5H19.5625V66.5H22.5V64H25.5625V61H28.5625V54.5H27V51.9858Z" fill="url(#paint3_linear_9855_41730)"/>
<path d="M45.6944 54.5H50.5V49H54V35H56V14.125H55H51.1875V17.125H41.3125V22.875H48.1875V24.75H50.3125V26H52.8125V30H51.1875V32.375H49.6875V38.125H48.1875V40.125H45.3125V41.375H41.3125V43.125H38.1875V44.5H35.0625V46.625V47.5625H38.5V48.5H40V50.2429H41.3125V51.9858H42.5V55.5H45.6944V54.5Z" fill="url(#paint4_linear_9855_41730)"/>
<path d="M29.75 66.9043V72.5H35.75V66.9043H29.75Z" fill="black"/>
<path fill-rule="evenodd" clip-rule="evenodd" d="M27.1143 90V87.561V86.8293H24.0286V85.3659V84.6341H20.4286V82.9268V82.1951H18.3714V81V80.2188H13.314V74.5H15.5V70H19.5625V66.5H22.5V64H25.5625V61H28.5625V54.5H27V51.9858H25.4959V50H22.4876V48H14.125V45H19.5625V43.125H25.5625V46.625H28V48H30V51H32.1875V54.5H34.0938V61H39V65H42V66.9043V68.5H45.6754L45.5833 78.16H40V90V93.25V94H35.5V92.25H32.375V90H29.25H27.1143ZM29.75 66.9043V72.5H35.75V66.9043H29.75Z" fill="#5869DD"/>
<path d="M45.6944 66.5V65V62.5H43.125H42V65V66.9043V68.5H45.6754L45.6944 66.5Z" fill="black"/>
<path d="M36 51H37.5V53H38.5V55.5H40V58.5H42V61V62.5H43.125H45.6944V61V55.5H42.5V51.9858H41.3125V50.2429H40V48.5H38.5V47.5625H35.0625V48.5H36V51Z" fill="#5869DD"/>
<path d="M28 48H30V51H32.1875V54.5H34.0938V61H39V65H42V62.5V61V58.5H40V55.5H38.5V53H37.5V51H36V48.5H35.0625V47.5625V46.625H28V48Z" fill="url(#paint5_linear_9855_41730)"/>
<path d="M13.314 85H4V110H7.92593V105H11.3611V101.5H13.314M13.314 85V101.5M13.314 85V81M13.314 101.5H25.5V98.5H29.25V93.25V90M27.1143 87.561V90H29.25M27.1143 87.561V86.8293H24.0286M27.1143 87.561H24.0286V86.8293M24.0286 86.8293V85.3659M24.0286 85.3659V84.6341H20.4286M24.0286 85.3659H20.4286V84.6341M20.4286 84.6341V82.9268M20.4286 82.9268V82.1951H18.3714M20.4286 82.9268H18.3714V82.1951M18.3714 82.1951V81M18.3714 81V80.2188H13.314M18.3714 81H13.314M13.314 81V80.2188M13.314 80.2188V74.5M40 94H56L56 70H52.1482L52.1481 74.8H48.7778V78.16H45.5833M40 94V93.25V90V78.16H45.5833M40 94H35.5V92.25H32.375V90H29.25M45.5833 78.16L45.6754 68.5M19.5625 43.125H25.5625V46.625H28M19.5625 43.125V41.375H14.125V39H12.75V37.1875H10.125M19.5625 43.125V45H14.125V48M35.0625 46.625V44.5H38.1875V43.125H41.3125V41.375H45.3125V40.125H48.1875V38.125M35.0625 46.625H28M35.0625 46.625V47.5625M48.1875 38.125H49.6875V32.375M48.1875 38.125H26.9375V34.75H28.5625V33.25H33.125V31.4375H37.0625V32.375H49.6875M49.6875 32.375H51.1875V30H52.8125V26H50.3125V24.75H48.1875V22.875H41.3125V17.125M41.3125 17.125H51.1875V14.125M41.3125 17.125L33.125 17H30.75M51.1875 14.125H48.1875M51.1875 14.125H55M48.1875 14.125V9.25M48.1875 14.125H38.5625V10.6875H37.3125V6.6875M48.1875 9.25H47V7.625M48.1875 9.25H51.5V7.625H47M47 5.9375H43.75V4.375M47 5.9375V3.5M47 5.9375V7.625M43.75 4.375H41.8125V3H39.9375M43.75 4.375V1H53.5V4H55V14.125M7.0625 16.375V13.0625H9.375V11.125H11.625V9.375H13.8125V7.625H15.3125V5.9375H17.25V4.375H19.875V3H39.9375M7.0625 16.375H5.5V24.75H4.1875V26.4375H2.6875V31.4375H1V37.1875H10.125M7.0625 16.375H8.875V18.625H10.125M10.125 37.1875V18.625M10.125 18.625H18.1875M30.75 17V18.625H29.75M30.75 17V11.875H32.1875V8.9375H34.3125V6.6875H37.3125M18.1875 18.625V28.3125M18.1875 18.625H26.9375M18.1875 28.3125H20.75V30.375M18.1875 28.3125V30.375M20.75 30.375H22.5H18.1875M20.75 30.375H18.1875M26.9375 18.625V24.75H32.1875V22.5H29.75V18.625M26.9375 18.625H29.75M37.3125 6.6875H39.9375V3M28 46.625V48H30V51H32.1875V54.5H34.0938V61H39V65H42M22.4876 48V50H25.4959V51.9858H27V54.5H28.5625V61H25.5625V64H22.5V66.5H19.5625M22.4876 48H6M22.4876 48H14.125M35.0625 47.5625V48.5H36V51H37.5V53H38.5V55.5H40V58.5H42V61V62.5M35.0625 47.5625H38.5V48.5H40V50.2429H41.3125V51.9858H42.5V55.5H45.6944M55 14.125H56V35H54V49H50.5V54.5H45.6944V55.5M45.6944 55.5V61M45.6944 61V65M45.6944 61V62.5M45.6944 65V66.5L45.6754 68.5M45.6944 65V62.5M14.125 48H6M4 64H2.6875V50.5H6V48M4 64H5.5V61H9V57.5H15.5V60.5H19.5625V66.5M4 64V72.5H7V71H9.5V74H6V77H12V74.5H13.314M19.5625 66.5V70H15.5V74.5H13.314M42 65V66.9043M42 65V62.5M45.6754 68.5H42V66.9043M45.6944 62.5H43.125H42M42 62.5V66.9043M35.75 66.9043H29.75V72.5H35.75V66.9043Z" stroke="black" stroke-width="2"/>
<defs>
<linearGradient id="paint0_linear_9855_41730" x1="0.999996" y1="55.5" x2="56" y2="86.5" gradientUnits="userSpaceOnUse">
<stop stop-color="#D6FFBB"/>
<stop offset="1" stop-color="#5869DD"/>
</linearGradient>
<linearGradient id="paint1_linear_9855_41730" x1="24.5" y1="75.5" x2="63.2319" y2="95.5186" gradientUnits="userSpaceOnUse">
<stop stop-color="#D6FFBB"/>
<stop offset="1" stop-color="#5869DD"/>
</linearGradient>
<linearGradient id="paint2_linear_9855_41730" x1="35.5852" y1="40.9029" x2="62.7505" y2="42.017" gradientUnits="userSpaceOnUse">
<stop stop-color="#D6FFBB"/>
<stop offset="1" stop-color="#5869DD"/>
</linearGradient>
<linearGradient id="paint3_linear_9855_41730" x1="0.999998" y1="55.5" x2="39" y2="67.5" gradientUnits="userSpaceOnUse">
<stop stop-color="#D6FFBB"/>
<stop offset="1" stop-color="#5869DD"/>
</linearGradient>
<linearGradient id="paint4_linear_9855_41730" x1="11.5" y1="34.5" x2="65.5" y2="58" gradientUnits="userSpaceOnUse">
<stop stop-color="#D6FFBB"/>
<stop offset="1" stop-color="#5869DD"/>
</linearGradient>
<linearGradient id="paint5_linear_9855_41730" x1="20" y1="46" x2="46.5" y2="64.5" gradientUnits="userSpaceOnUse">
<stop stop-color="#D6FFBB"/>
<stop offset="1" stop-color="#5869DD"/>
</linearGradient>
</defs>
</svg>
