<svg width="55" height="110" viewBox="0 0 55 110" fill="none" xmlns="http://www.w3.org/2000/svg">
<path d="M25.1143 89.561V88.8293H22.0286V87.3659V86.6341H18.4286V84.9268V84.1951H16.3714V84.9268H18.4286V86.6341V87.3659H22.0286V88.8293V89.561H25.1143Z" fill="#5869DD"/>
<path d="M19.875 1V2.375H17.25V3.9375H15.3125V5.625H13.8125V7.375H11.625V9.125H9.375V11.0625H7.0625V14.375H8.875V16.625H10.125H18.1875H26.9375H29.75H30.75V15V9.875H32.1875V6.9375H34.3125V4.6875H37.3125H39.9375V1H19.875Z" fill="#5869DD"/>
<path d="M48.1875 36.125H49.6875V30.375H37.0625V29.4375H33.125V31.25H28.5625V32.75H26.9375V36.125H48.1875Z" fill="black"/>
<path d="M26.9375 16.625V22.75H32.1875V20.5H29.75V16.625H26.9375Z" fill="black"/>
<path d="M7.0625 14.375H5.5V22.75H4.1875V24.4375H2.6875V29.4375H1V35.1875H10.125V16.625H8.875V14.375H7.0625Z" fill="black"/>
<path d="M41.3125 15.125H51.1875V12.125H48.1875H38.5625V8.6875H37.3125V4.6875H34.3125V6.9375H32.1875V9.875H30.75V15H33.125L41.3125 15.125Z" fill="black"/>
<path d="M48.1875 12.125V7.25H47V3.9375H43.75V2.375H41.8125V1H39.9375V4.6875H37.3125V8.6875H38.5625V12.125H48.1875Z" fill="url(#paint0_linear_14456_6593)"/>
<path d="M25.5625 44.625H28H35.0625V42.5H38.1875V41.125H41.3125V39.375H45.3125V38.125H48.1875V36.125H26.9375V32.75H28.5625V31.25H33.125V29.4375H37.0625V30.375H49.6875H51.1875V28H52.8125V24H50.3125V22.75H48.1875V20.875H41.3125V15.125L33.125 15H30.75V16.625H29.75V20.5H32.1875V22.75H26.9375V16.625H18.1875V26.3125H20.75V28.375H18.1875V26.3125V16.625H10.125V35.1875H12.75V37H14.125V39.375H19.5625V41.125H25.5625V44.625Z" fill="#F1EFED"/>
<path d="M1 74.0638V83H11.314V82.2188V79.2766H13.8926V76.5461H15.3967V69.844H8.95042V72.078H2.93388V74.0638H1Z" fill="#F1EFED"/>
<path d="M20.75 26.3125H18.1875V28.375H20.75V26.3125Z" fill="black"/>
<path d="M25.1143 89.561V92H27H27.5571H30H38V80.16H42.3889L42.5 78.5V67H40V66H36V67H30V61.4043H33V49H30V46H28V44.625H25.5625V41.125H19.5625V43H14.125V48H17.1875V46H22.4876V48H25.4959V49.9858H27V53.4681H25.4959V58.4255H22.4876V61.4043H20.7686V64.383H18.1901V67.8582H15.3967V69.844V76.5461H13.8926V79.2766H11.314V82.2188H12H16.3714V83V84.1951H18.4286V84.9268V86.6341H22.0286V87.3659V88.8293H25.1143V89.561Z" fill="#5869DD"/>
<path d="M36 61.4043H33H30V67H36V66V61.4043Z" fill="black"/>
<path d="M25.1143 92V89.561H22.0286V88.8293V87.3659H18.4286V86.6341V84.9268H16.3714V84.1951V83H12H11.314V86.6341H8.95042V87.5V88.8293V90.5H11.314V94H13V97H16.3714V99H19.5625V97H22.0286V95H25.1143V92Z" fill="#5869DD"/>
<path d="M13 97V94H11.314V90.5H8.95042V88.8293V87.5H5.5V89.561H1V100H4.5V106H7.5V109H15.3967V105H13V103.5V97Z" fill="url(#paint1_linear_14456_6593)"/>
<path d="M15.3967 69.844V67.8582H18.1901V64.383H20.7686V61.4043H22.4876V58.4255H25.4959V53.4681H27V49.9858H25.4959V48H22.4876V46H17.1875V48H14.125H11.314V49.9858H7.87603V52.4681H4.43802V56.6879H2.93388V61.4043H1V74.0638H2.93388V72.078H8.95042V69.844H15.3967Z" fill="url(#paint2_linear_14456_6593)"/>
<path d="M40 63V66V67H42.5H43V63V54H44V52.4681H41V49.9858H40V46.5H38.5V45.5625H35.0625V46.5H36V49H37.5V53.5H40V63Z" fill="#5869DD"/>
<path d="M54 96L54 72H50.1482L50.1481 76.8H46.7778V80.16H42.3889H38V92V96H54Z" fill="url(#paint3_linear_14456_6593)"/>
<path d="M28 46H30V49H33V61.4043H36V66H40V63V53.5H37.5V49H36V46.5H35.0625V45.5625V44.625H28V46Z" fill="url(#paint4_linear_14456_6593)"/>
<path d="M44 49.9858V52.4681V54H45.5V55.5H47.5V59H50.5V55.5H52.5V47.5H50.5V43.5H47V47.5H45.5V49.9858H44Z" fill="#F1EFED"/>
<path d="M43 63V67H45.5V65H47.5V63H50.5V61.4043H52.5V55.5H50.5V59H47.5V55.5H45.5V54H44H43V63Z" fill="url(#paint5_linear_14456_6593)"/>
<path d="M25.1143 92V89.561M25.1143 92H27.5571M25.1143 92V95H22.0286V97H19.5625V99H16.3714V97H13M25.1143 92H27M25.1143 89.561V88.8293H22.0286M25.1143 89.561H22.0286V88.8293M22.0286 88.8293V87.3659M22.0286 87.3659V86.6341H18.4286M22.0286 87.3659H18.4286V86.6341M18.4286 86.6341V84.9268M18.4286 84.9268V84.1951H16.3714M18.4286 84.9268H16.3714V84.1951M16.3714 84.1951V83M16.3714 83V82.2188H12H11.314M16.3714 83H12H11.314M19.5625 41.125H25.5625V44.625H28M19.5625 41.125V39.375H14.125V37H12.75V35.1875H10.125M19.5625 41.125V43H14.125V48M35.0625 44.625V42.5H38.1875V41.125H41.3125V39.375H45.3125V38.125H48.1875V36.125M35.0625 44.625H28M35.0625 44.625V45.5625M48.1875 36.125H49.6875V30.375M48.1875 36.125H26.9375V32.75H28.5625V31.25H33.125V29.4375H37.0625V30.375H49.6875M49.6875 30.375H51.1875V28H52.8125V24H50.3125V22.75H48.1875V20.875H41.3125V15.125M41.3125 15.125H51.1875V12.125H48.1875M41.3125 15.125L33.125 15H30.75M48.1875 12.125V7.25H47V3.9375H43.75V2.375H41.8125V1H39.9375M48.1875 12.125H38.5625V8.6875H37.3125V4.6875M7.0625 14.375V11.0625H9.375V9.125H11.625V7.375H13.8125V5.625H15.3125V3.9375H17.25V2.375H19.875V1H39.9375M7.0625 14.375H5.5V22.75H4.1875V24.4375H2.6875V29.4375H1V35.1875H10.125M7.0625 14.375H8.875V16.625H10.125M10.125 35.1875V16.625M10.125 16.625H18.1875M30.75 15V16.625H29.75M30.75 15V9.875H32.1875V6.9375H34.3125V4.6875H37.3125M18.1875 16.625V26.3125M18.1875 16.625H26.9375M18.1875 26.3125H20.75V28.375M18.1875 26.3125V28.375M20.75 28.375H22.5H18.1875M20.75 28.375H18.1875M26.9375 16.625V22.75H32.1875V20.5H29.75V16.625M26.9375 16.625H29.75M37.3125 4.6875H39.9375V1M1 74.0638V83H11.314M1 74.0638V61.4043H2.93388V56.6879H4.43802V52.4681H7.87603V49.9858H11.314V48H14.125M1 74.0638H2.93388V72.078H8.95042V69.844H15.3967M11.314 83V82.2188M11.314 83V86.6341H8.95042V87.5M15.3967 69.844V76.5461H13.8926V79.2766H11.314V82.2188M15.3967 69.844V67.8582H18.1901V64.383H20.7686V61.4043H22.4876V58.4255H25.4959V53.4681H27V49.9858H25.4959V48H22.4876V46H17.1875V48H14.125M33 61.4043V49H30V46H28V44.625M33 61.4043H36V66M33 61.4043H30V67H36V66M36 66H40M40 66V63V53.5H37.5V49H36V46.5H35.0625V45.5625M40 66V67H42.5M44 52.4681H41V49.9858H40V46.5H38.5V45.5625H35.0625M44 52.4681V49.9858H45.5V47.5H47V43.5H50.5V47.5H52.5V55.5M44 52.4681V54M43 67V63V54H44M43 67H42.5M43 67H45.5V65H47.5V63H50.5V61.4043H52.5V55.5M42.5 67V78.5L42.3889 80.16M52.5 55.5H50.5V59H47.5V55.5H45.5V54H44M42.3889 80.16H46.7778V76.8H50.1481L50.1482 72H54L54 96H38V92M42.3889 80.16H38V92M38 92H27M38 92H30H27.5571M27 92H27.5571M13 97V94H11.314V90.5H8.95042V88.8293V87.5M13 97V103.5V105H15.3967V109H7.5V106H4.5V100H1V89.561H5.5V87.5H8.95042" stroke="black" stroke-width="2"/>
<defs>
<linearGradient id="paint0_linear_14456_6593" x1="34.3275" y1="40.5368" x2="60.5074" y2="41.5811" gradientUnits="userSpaceOnUse">
<stop stop-color="#D6FFBB"/>
<stop offset="1" stop-color="#5869DD"/>
</linearGradient>
<linearGradient id="paint1_linear_14456_6593" x1="-9.99999" y1="69.5" x2="20.5" y2="110.5" gradientUnits="userSpaceOnUse">
<stop stop-color="#D6FFBB"/>
<stop offset="1" stop-color="#5869DD"/>
</linearGradient>
<linearGradient id="paint2_linear_14456_6593" x1="1" y1="55" x2="28" y2="66" gradientUnits="userSpaceOnUse">
<stop stop-color="#D6FFBB"/>
<stop offset="1" stop-color="#5869DD"/>
</linearGradient>
<linearGradient id="paint3_linear_14456_6593" x1="12" y1="79.5" x2="70.5" y2="94.5" gradientUnits="userSpaceOnUse">
<stop stop-color="#D6FFBB"/>
<stop offset="1" stop-color="#5869DD"/>
</linearGradient>
<linearGradient id="paint4_linear_14456_6593" x1="24.5" y1="50" x2="59.5" y2="73" gradientUnits="userSpaceOnUse">
<stop stop-color="#D6FFBB"/>
<stop offset="1" stop-color="#5869DD"/>
</linearGradient>
<linearGradient id="paint5_linear_14456_6593" x1="25" y1="55" x2="67" y2="69" gradientUnits="userSpaceOnUse">
<stop stop-color="#D6FFBB"/>
<stop offset="1" stop-color="#5869DD"/>
</linearGradient>
</defs>
</svg>
