<svg width="60" height="109" viewBox="0 0 60 109" fill="none" xmlns="http://www.w3.org/2000/svg">
<path d="M34 85.625V88.875V96.875H42.5V93.875H46.75V92.125V88.875H49.25V85.625V83.375H46.75V78.625H42.5V80.875H40.5V83.375H37V85.625H34Z" fill="#5869DD"/>
<path d="M25.3125 1V2.375H22.6875V3.9375H20.75V5.625H19.25V7.375H17.0625V9.125H14.8125V11.0625H12.5V14.375H14.3125V16.625H15.5625H23.625H32.375H35.1875H36.1875V15V9.875H37.625V6.9375H39.75V4.6875H42.75H45.375V1H25.3125Z" fill="#5869DD"/>
<path d="M53.625 36.125H55.125V30.375H42.5V29.4375H41.25H38.5625V31.25H34V32.75H32.375V36.125H53.625Z" fill="black"/>
<path d="M32.375 16.625V22.75H37.625V20.5H35.1875V16.625H32.375Z" fill="black"/>
<path d="M12.5 14.375H10.9375V20.875V22.75H9.625V24.4375H8.125V29.4375H6.4375V35.1875H15.5625V16.625H14.3125V14.375H12.5Z" fill="black"/>
<path d="M46.75 15.125H56.625V12.125H53.625H44V8.6875H42.75V6.9375V4.6875H39.75V6.9375H37.625V9.875H36.1875V15H38.5625L44 15.083L46.75 15.125Z" fill="black"/>
<path d="M12.5 48.5H10.8148L10.9375 49.625H8.125V52.125H6.4375V59.75H8.125V61.625H10.8148V64.375H12.5V48.5Z" fill="url(#paint0_linear_14456_6591)"/>
<path d="M1 78.625V103.625H4.92593V98.625H8.36111V95.125H14.25V78.625H10.8148H1Z" fill="url(#paint1_linear_14456_6591)"/>
<path d="M55.75 99.875H46.75V93.875H42.5V96.875H34V107.875H55.75V99.875Z" fill="url(#paint2_linear_14456_6591)"/>
<path d="M14.25 78.625V95.125H22.5V92.125H29.25V88.875H34V85.625H37V83.375H40.5V80.875H42.5V78.625H46.75V69.625H34V67.375H29.25V65.625H25V61.625H22.5V57.625H20.5V49.625V41.125H21.5V39.375H19.5625H17.0625V42.5H14.8125V45.25H12.5V48.5V64.375V78.625H14.25Z" fill="#5869DD"/>
<path d="M53.625 12.125V7.25H52.4375V3.9375H49.1875V2.375H47.25V1H45.375V4.6875H42.75V6.9375V8.6875H44V12.125H53.625Z" fill="url(#paint3_linear_14456_6591)"/>
<path d="M42.5 52.875H40.5V49.625H37V46.625H34V44.625H31V41.125H25V39.375H21.5V41.125H20.5V49.625V57.625H22.5V61.625H25V65.625H29.25V67.375H34V69.625H46.75V67.375H44.75V63.625V60.375H42.5V57.625V52.875Z" fill="url(#paint4_linear_14456_6591)"/>
<path d="M31 44.625H34H40.5V42.5H43.625V41.125H46.75V39.375H50.75V38.125H53.625V36.125H32.375V32.75H34V31.25H38.5625V29.4375H41.25H42.5V30.375H55.125H56.625V28H58.25V24H55.75V22.75H53.625V20.875H46.75V15.125L44 15.083L38.5625 15H36.1875V16.625H35.1875V20.5H37.625V22.75H32.375V16.625H23.625V26.3125H26.1875V28.375H23.625V26.3125V16.625H15.5625V35.1875H18.1875V37H19.5625V39.375H21.5H25V41.125H31V44.625Z" fill="#F1EFED"/>
<path d="M46.75 69.625H55.75V57.625H52V54.625H49.25V52.875H42.5V57.625V60.375H44.75V63.625V67.375H46.75V69.625Z" fill="#F1EFED"/>
<path d="M26.1875 26.3125H23.625V28.375H26.1875V26.3125Z" fill="black"/>
<path d="M14.25 95.125H8.36111V98.625H4.92593V103.625H1V78.625H10.8148H14.25M14.25 95.125V78.625M14.25 95.125H22.5V92.125H29.25V88.875H34M14.25 78.625H12.5V64.375M34 88.875V85.625H37V83.375H40.5V80.875H42.5V78.625H46.75M34 88.875V96.875M46.75 78.625V69.625M46.75 78.625V83.375H49.25V85.625V88.875H46.75V92.125V93.875M46.75 69.625H55.75V57.625H52V54.625H49.25V52.875H42.5M46.75 69.625H34V67.375H29.25V65.625H25V61.625H22.5V57.625H20.5V49.625V41.125H21.5V39.375M46.75 69.625V67.375H44.75V63.625V60.375H42.5V57.625V52.875M42.5 52.875H40.5V49.625H37V46.625H34V44.625M34 44.625H31V41.125H25V39.375H21.5M34 44.625H40.5V42.5H43.625V41.125H46.75V39.375H50.75V38.125H53.625V36.125M21.5 39.375H19.5625M34 96.875V107.875H55.75V99.875H46.75V93.875M34 96.875H42.5V93.875H46.75M53.625 36.125H55.125V30.375M53.625 36.125H32.375V32.75H34V31.25H38.5625V29.4375H41.25H42.5V30.375H55.125M55.125 30.375H56.625V28H58.25V24H55.75V22.75H53.625V20.875H46.75V15.125M46.75 15.125H56.625V12.125H53.625M46.75 15.125L44 15.083L38.5625 15H36.1875M53.625 12.125V7.25H52.4375V3.9375H49.1875V2.375H47.25V1H45.375M53.625 12.125H44V8.6875H42.75V6.9375V4.6875M12.5 14.375V11.0625H14.8125V9.125H17.0625V7.375H19.25V5.625H20.75V3.9375H22.6875V2.375H25.3125V1H45.375M12.5 14.375H10.9375V20.875V22.75H9.625V24.4375H8.125V29.4375H6.4375V35.1875H15.5625M12.5 14.375H14.3125V16.625H15.5625M15.5625 35.1875V16.625M15.5625 35.1875H18.1875V37H19.5625V39.375M15.5625 16.625H23.625M36.1875 15V16.625H35.1875M36.1875 15V9.875H37.625V6.9375H39.75V4.6875H42.75M23.625 16.625V26.3125M23.625 16.625H32.375M23.625 26.3125H26.1875V28.375M23.625 26.3125V28.375M26.1875 28.375H27.9375H23.625M26.1875 28.375H23.625M32.375 16.625V22.75H37.625V20.5H35.1875V16.625M32.375 16.625H35.1875M19.5625 39.375H17.0625V42.5H14.8125V45.25H12.5V48.5M42.75 4.6875H45.375V1M12.5 48.5H10.8148L10.9375 49.625H8.125V52.125H6.4375V59.75H8.125V61.625H10.8148V64.375H12.5M12.5 48.5V64.375M34 86.375H37V84.125H40.5V81.625H42.5V79.375H46.75" stroke="black" stroke-width="2"/>
<defs>
<linearGradient id="paint0_linear_14456_6591" x1="1" y1="54.4375" x2="58.25" y2="54.4375" gradientUnits="userSpaceOnUse">
<stop stop-color="#D6FFBB"/>
<stop offset="1" stop-color="#5869DD"/>
</linearGradient>
<linearGradient id="paint1_linear_14456_6591" x1="-17" y1="54.4375" x2="58.25" y2="89.125" gradientUnits="userSpaceOnUse">
<stop stop-color="#D6FFBB"/>
<stop offset="0.950166" stop-color="#5869DD"/>
</linearGradient>
<linearGradient id="paint2_linear_14456_6591" x1="1" y1="54.4375" x2="58.25" y2="54.4375" gradientUnits="userSpaceOnUse">
<stop stop-color="#D6FFBB"/>
<stop offset="1" stop-color="#5869DD"/>
</linearGradient>
<linearGradient id="paint3_linear_14456_6591" x1="37" y1="40.125" x2="65.2706" y2="41.3559" gradientUnits="userSpaceOnUse">
<stop stop-color="#D6FFBB"/>
<stop offset="1" stop-color="#5869DD"/>
</linearGradient>
<linearGradient id="paint4_linear_14456_6591" x1="1" y1="54.4375" x2="58.25" y2="54.4375" gradientUnits="userSpaceOnUse">
<stop stop-color="#D6FFBB"/>
<stop offset="1" stop-color="#5869DD"/>
</linearGradient>
</defs>
</svg>
