<svg xmlns="http://www.w3.org/2000/svg" width="304" height="32" fill="none" viewBox="0 0 304 32"><path stroke="#8F8E93" stroke-width="2" d="M52 16H18.5V1H52m0 15V1m0 15h33.5M52 1h33.5m0 0v15m0-15H119M85.5 16H119m0 0V1m0 15h33.5M119 1h33.5m0 0H186m-33.5 0v15M186 1h33.5M186 1v15m33.5-15H253m-33.5 0v15M253 1h33.5v15H253m0-15v15m0 0h-33.5m0 0H186m0 0h-33.5m-118 15H1V16h33.5m0 15V16m0 15H68M34.5 16H68m0 0v15m0-15h33.5M68 31h33.5m0 0V16m0 15H135m-33.5-15H135m0 0h33.5M135 16v15m33.5-15H202m-33.5 0v15M202 16h33.5M202 16v15m33.5-15H269m-33.5 0v15M269 16h33.5v15H269m0-15v15m0 0h-33.5m0 0H202m0 0h-33.5m0 0H135M18.5 31h268"/></svg>
