<svg xmlns="http://www.w3.org/2000/svg" width="60" height="60" fill="none" viewBox="0 0 60 60"><path fill="#5869DD" d="M49 19.5v-4h-3.5V11H42V8h-5V4h-3.5V1h-7v3H23v4h-5v3h-3.5v4.5H11v4h6v1.25h2.75v2.125h2V26.5H38.5v-3.625h2V20.75h2.75V19.5H49Z"/><path fill="#5869DD" d="M26.5 38H37v3.5h16V39h3.5v-3H59v-8.25h-2.5V24H53v-4.5h-7.25v11.875H44v1.875h-8V26.5H24.25v6.75h-8v-1.875H14.5V19.5H7V24H3.5v3.75H1V36h2.5v3H7v2.5h16V38h3.5Z"/><path fill="#000" d="M42.75 49.25h6v2h4V54h2.5v4.75H29v-3h4.25V54H38v-1.5h4.75v-3.25ZM12 47.375h4.75v1.875h1.75v3.25h2.25v2.625h2v3.625H12v-1.125H9.625V55.75H6.75V54H4.5v-6h2.25v-2.25H12v1.625Z"/><path fill="#F1EFED" d="M14.5 19.5v11.875h1.75v1.875h8V26.5h-2.5v-3.625h-2V20.75H17V19.5h-2.5ZM45.75 31.375V19.5h-2.5v1.25H40.5v2.125h-2V26.5H36v6.75h8v-1.875h1.75ZM33.5 38H23v3.5h-6v7.75h1.5v3.25h2.25v2.625h2v3.625H29v-3h4.25V54H38v-1.5h4.75v-3.25H43V41.5h-6V38h-3.5Z"/><path stroke="#000" stroke-width="2" d="M26.5 38H37m-10.5 0h7m-7 0H23m14 0v3.5h6M37 38h-3.5M53 19.5V24h3.5v3.75H59V36h-2.5v3H53v2.5H43m10-22h-4m4 0h-3.75m-.25 0v-4h-3.5V11H42V8h-5V4h-3.5V1h-7v3H23v4h-5v3h-3.5v4.5H11v4m38 0h-3.25m3.25 0h.25M33.5 38H23m0 0v3.5h-6m-6-22H7V24H3.5v3.75H1V36h2.5v3H7v2.5h10m-6-22h3.5m2.5 22v7.75h1.5m10.5 9.5h26.25V54h-2.5v-2.75h-4v-2H43m-14 9.5v-3h4.25V54H38v-1.5h4.75v-3.25H43m-14 9.5h-6.25M43 41.5v7.75m-20.25 9.5H12v-1.125H9.625V55.75H6.75V54H4.5v-6h2.25v-2.25H12v1.625h4.75v1.875h1.75m4.25 9.5v-3.625h-2V52.5H18.5v-3.25m-4-29.75v11.875h1.75v1.875h8V26.5m-9.75-7H17v1.25h2.75v2.125m4.5 3.625h-2.5v-3.625h-2m4.5 3.625H36m-16.25-3.625v6.875m29.5-10.25h-3.5m0 0v11.875H44v1.875h-8V26.5m9.75-7h-2.5v1.25H40.5v2.125M36 26.5h2.5v-3.625h2m0 0v6.875"/></svg>
