<svg xmlns="http://www.w3.org/2000/svg" width="60" height="60" fill="none" viewBox="0 0 60 60"><path fill="#5869DD" d="M49 19.5v-4h-3.5V11H42V8h-5V4h-3.5V1h-7v3H23v4h-5v3h-3.5v4.5H11v4h6v1.25h2.75v2.125h2V26.5H38.5v-3.625h2V20.75h2.75V19.5H49Z"/><path fill="#5869DD" d="M26.5 38H37v3.5h16V39h3.5v-3H59v-8.25h-2.5V24H53v-4.5h-7.25v11.875H44v1.875h-8V26.5H24.25v6.75h-8v-1.875H14.5V19.5H7V24H3.5v3.75H1V36h2.5v3H7v2.5h16V38h3.5Z"/><path fill="#000" d="M17 49.25h-6v2H7V54H4.5v4.75h26.25v-3H26.5V54h-4.75v-1.5H17v-3.25ZM47.75 47.375H43v1.875h-1.75v3.25H39v2.625h-2v3.625h10.75v-1.125h2.375V55.75H53V54h2.25v-6H53v-2.25h-5.25v1.625Z"/><path fill="#F1EFED" d="M33.5 38H23v3.5h-6v11h4.75V54h4.75v1.75h4.25v3H37v-3.625h2V52.5h2.25v-3.25H43V41.5h-6V38h-3.5ZM14.5 19.5v11.875h1.75v1.875h8V26.5h-2.5v-3.625h-2V20.75H17V19.5h-2.5ZM45.75 31.375V19.5h-2.5v1.25H40.5v2.125h-2V26.5H36v6.75h8v-1.875h1.75Z"/><path stroke="#000" stroke-width="2" d="M26.5 38H37m-10.5 0h7m-7 0H23m14 0v3.5h6M37 38h-3.5M53 19.5V24h3.5v3.75H59V36h-2.5v3H53v2.5H43m10-22h-4m4 0h-3.75m-.25 0v-4h-3.5V11H42V8h-5V4h-3.5V1h-7v3H23v4h-5v3h-3.5v4.5H11v4m38 0h-3.25m3.25 0h.25M33.5 38H23m0 0v3.5h-6m-6-22H7V24H3.5v3.75H1V36h2.5v3H7v2.5h10m-6-22h3.5m2.5 22v7.75m0 0h-6v2H7V54H4.5v4.75h26.25M17 49.25v3.25h4.75V54h4.75v1.75h4.25v3m0 0H37m6-17.25v5.875m0 0h4.75V45.75H53V48h2.25v6H53v1.75h-2.875v1.875H47.75v1.125H37m6-11.375v1.875h-1.75v3.25H39v2.625h-2v3.625M14.5 19.5v11.875h1.75v1.875h8V26.5m-9.75-7H17v1.25h2.75v2.125m4.5 3.625h-2.5v-3.625h-2m4.5 3.625H36m-16.25-3.625v6.875m29.5-10.25h-3.5m0 0v11.875H44v1.875h-8V26.5m9.75-7h-2.5v1.25H40.5v2.125M36 26.5h2.5v-3.625h2m0 0v6.875"/></svg>
