<svg xmlns="http://www.w3.org/2000/svg" width="690" height="378" fill="none"><path fill="#000" d="m73.03 87.779 14.84-2.209a.27.27 0 0 1 .3.22.27.27 0 0 1-.22.3L73.1 88.229a.23.23 0 0 1-.243-.369.23.23 0 0 1 .173-.081ZM102.68 83.352l14.86-2.25a.343.343 0 0 1 .357.29.34.34 0 0 1-.257.38l-14.85 2.16a.31.31 0 0 1-.34-.25.299.299 0 0 1 .23-.33ZM132.37 78.874l14.83-2.239a.4.4 0 0 1 .47.34.422.422 0 0 1-.34.47l-14.84 2.169a.375.375 0 0 1-.248-.69.372.372 0 0 1 .138-.05h-.01ZM162.04 74.396l14.83-2.24a.477.477 0 0 1 .485.225.483.483 0 0 1-.024.537.494.494 0 0 1-.321.188l-14.84 2.17a.46.46 0 0 1-.51-.38.44.44 0 0 1 .38-.5ZM191.679 69.928l14.84-2.209a.54.54 0 0 1 .16 1.06l-14.85 2.159a.512.512 0 0 1-.513-.434.513.513 0 0 1 .363-.566v-.01ZM221.379 65.53l14.84-2.188a.582.582 0 0 1 .64.712.577.577 0 0 1-.26.352.564.564 0 0 1-.21.075l-14.85 2.139a.572.572 0 0 1-.63-.47.54.54 0 0 1 .268-.55.55.55 0 0 1 .202-.07ZM251.07 61.183l14.84-2.139a.631.631 0 0 1 .69.769.606.606 0 0 1-.51.45l-14.86 2.1a.602.602 0 0 1-.729-.751.608.608 0 0 1 .323-.373.599.599 0 0 1 .246-.056ZM280.77 56.945l14.91-2.07a.66.66 0 0 1 .447 1.235.658.658 0 0 1-.267.065L281 58.174a.64.64 0 0 1-.72-.54.65.65 0 0 1 .49-.69ZM310.489 52.847l14.88-1.999a.703.703 0 0 1 .767.878.705.705 0 0 1-.587.512l-14.87 1.959a.68.68 0 1 1-.18-1.35h-.01ZM340.259 49.01l14.91-1.77a.74.74 0 0 1 .17 1.47l-14.9 1.729a.722.722 0 0 1-.8-.64.704.704 0 0 1 .62-.79ZM370.099 45.641l7.47-.69 7.48-.63a.79.79 0 0 1 .13 1.57l-7.47.6-7.46.67a.762.762 0 1 1-.14-1.52h-.01ZM400.02 43.233l15-.87a.821.821 0 0 1 .09 1.64l-15 .829a.805.805 0 0 1-.584-.202.791.791 0 0 1-.266-.558.793.793 0 0 1 .457-.764.798.798 0 0 1 .303-.075ZM460.04 41.363l15 .28a.872.872 0 0 1 .85.89.846.846 0 0 1-.549.782.861.861 0 0 1-.331.057l-15-.29a.861.861 0 0 1-.86-.86.86.86 0 0 1 .86-.86h.03ZM490.07 42.273l15 .88a.884.884 0 0 1 .83.929.881.881 0 0 1-.93.83l-15-.9a.875.875 0 0 1-.77-.588.876.876 0 0 1 .249-.935.875.875 0 0 1 .631-.216h-.01ZM520.03 44.371l14.93 1.83a.9.9 0 0 1-.21 1.779h-.07l-14.82-1.86a.893.893 0 0 1-.699-.98.892.892 0 0 1 .919-.778l-.05.01ZM549.78 48.949a149.605 149.605 0 0 1 14.53 3.998.906.906 0 0 1 .57 1.15.876.876 0 0 1-.45.524.89.89 0 0 1-.69.045 148.174 148.174 0 0 0-14.36-3.998.9.9 0 0 1-.68-1.08.903.903 0 0 1 1.08-.68v.04ZM578.291 58.764a85.918 85.918 0 0 1 6.61 3.718 31.621 31.621 0 0 1 6.12 4.668.925.925 0 0 1-.683 1.562.92.92 0 0 1-.647-.283 29.541 29.541 0 0 0-5.78-4.407 81.711 81.711 0 0 0-6.46-3.639.917.917 0 0 1-.497-.886.898.898 0 0 1 .097-.343.912.912 0 0 1 1.23-.4l.01.01ZM594.229 81.902a26.575 26.575 0 0 1-3.94 6.676 50.948 50.948 0 0 1-5.2 5.587.933.933 0 1 1-1.28-1.359 48.731 48.731 0 0 0 5-5.377 24.507 24.507 0 0 0 3.67-6.187.925.925 0 0 1 .484-.515.91.91 0 0 1 .706-.015.93.93 0 0 1 .56 1.19ZM573.19 103.521l-3.13 2.089c-1 .71-2.12 1.35-3.18 1.999l-6.39 3.998a.951.951 0 0 1-1.375-1.023.946.946 0 0 1 .375-.586l6.35-3.948c1-.66 2.13-1.299 3.15-1.999l3.11-2.069a.94.94 0 0 1 1.318.994.935.935 0 0 1-.318.575l.09-.03ZM547.379 118.983l-13.44 6.746a.994.994 0 0 1-.857.246.994.994 0 0 1-.713-.536.994.994 0 0 1-.001-.891c.069-.139.169-.259.292-.353.124-.093.267-.156.419-.185l13.37-6.706a1.001 1.001 0 0 1 1.157 1.156 1 1 0 0 1-.297.553l.07-.03ZM520.26 131.956l-13.86 5.797a1 1 0 0 1-.76-1.799l13.82-5.767a1 1 0 0 1 1.27.53.998.998 0 0 1-.47 1.239ZM492.41 143.221l-14.07 5.237a.992.992 0 0 1-.836.071.999.999 0 0 1-.247-1.747 1 1 0 0 1 .393-.173l14-5.227c.126-.076.267-.124.413-.14a1.011 1.011 0 0 1 .804.279.992.992 0 0 1 .299.796 1.006 1.006 0 0 1-.423.738 1.006 1.006 0 0 1-.403.166h.07ZM464.24 153.575l-14.11 5.098a1.005 1.005 0 0 1-.811.026.999.999 0 0 1 .131-1.895l14.11-5.098a1.014 1.014 0 0 1 .811-.026.999.999 0 0 1-.131 1.895ZM435.99 163.72l-14.18 4.907a.999.999 0 0 1-1.25-.609 1.003 1.003 0 0 1 .61-1.25l14.17-4.907a1 1 0 0 1 .65 1.869v-.01ZM407.68 173.494l-14.17 4.918a.994.994 0 0 1-1.267-.107.999.999 0 0 1 .627-1.712l14.17-4.938a1 1 0 0 1 1.24.59 1 1 0 0 1-.6 1.249ZM379.359 183.48l-14 5.287a.998.998 0 0 1-.68-1.719l14-5.327a.996.996 0 0 1 1.24.559 1 1 0 0 1-.56 1.24v-.04ZM351.46 194.384l-13.7 5.997a.94.94 0 1 1-.76-1.719l13.76-6.057a.957.957 0 0 1 .742-.034.937.937 0 0 1 .54.51.945.945 0 0 1 .007.742.943.943 0 0 1-.529.521l-.06.04ZM324.29 206.918l-13.16 7.116a.928.928 0 0 1-1.184-.413.929.929 0 0 1 .304-1.216l13.23-7.156a.938.938 0 0 1 1.27.369.998.998 0 0 1-.38 1.27l-.08.03ZM298.38 221.81c-4.18 2.719-8.26 5.57-12.24 8.556a.916.916 0 0 1-1.455-.857.91.91 0 0 1 .355-.603 212.5 212.5 0 0 1 12.33-8.635.9.9 0 0 1 .691-.131.9.9 0 0 1 .579.401.917.917 0 0 1-.26 1.269ZM274.539 239.761a77.647 77.647 0 0 0-10.26 10.654.902.902 0 0 1-1.43-1.099 79.23 79.23 0 0 1 10.5-10.925.915.915 0 0 1 1.226.128.909.909 0 0 1-.026 1.232l-.01.01ZM258.88 263.419a8.582 8.582 0 0 0 .85 3.268 10.644 10.644 0 0 0 2 2.789 21.354 21.354 0 0 0 5.84 4.167.895.895 0 0 1 .568.876.884.884 0 0 1-.654.813.9.9 0 0 1-.714-.109 22.939 22.939 0 0 1-6.31-4.508 12.205 12.205 0 0 1-2.36-3.248 10.28 10.28 0 0 1-1-3.938.902.902 0 0 1 .217-.647.893.893 0 0 1 .613-.303.9.9 0 0 1 .95.84ZM281.679 277.622c4.924.637 9.886.935 14.85.89a.869.869 0 1 1 0 1.739 109.074 109.074 0 0 1-15.09-.89.88.88 0 0 1 .24-1.739ZM311.48 278.002l14.9-1.28h.05a.862.862 0 0 1 .866.79.855.855 0 0 1-.726.919l-15 1.29a.867.867 0 0 1-.93-.79.86.86 0 0 1 .79-.929h.05ZM341.21 274.732l14.75-2.579a.847.847 0 0 1 .656.112.823.823 0 0 1 .242.239.818.818 0 0 1 .127.315.837.837 0 0 1-.725.983l-14.8 2.609a.841.841 0 0 1-.91-.355.848.848 0 0 1 .026-.977.842.842 0 0 1 .584-.337l.05-.01ZM370.68 269.156l14.62-3.298a.797.797 0 0 1 .96.599.801.801 0 0 1-.6.96l-14.64 3.338a.821.821 0 0 1-.873-1.238.82.82 0 0 1 .513-.361h.02ZM399.849 262.409l14.6-3.459a.77.77 0 0 1 .91.57.76.76 0 0 1-.57.91l-14.58 3.498a.778.778 0 0 1-1.005-.554.785.785 0 0 1 .108-.617.773.773 0 0 1 .527-.338l.01-.01ZM429.08 255.623l14.7-3.069a.716.716 0 0 1 .742 1.092.712.712 0 0 1-.452.307l-14.66 3.109a.742.742 0 0 1-.874-.857.721.721 0 0 1 .309-.472.728.728 0 0 1 .265-.11h-.03ZM458.57 249.895l14.88-2.108a.674.674 0 0 1 .76.569.68.68 0 0 1-.323.673.682.682 0 0 1-.247.087l-14.82 2.139a.677.677 0 0 1-.78-.59.693.693 0 0 1 .126-.512.685.685 0 0 1 .454-.268l-.05.01ZM488.42 246.388l15-.54a.614.614 0 0 1 .66.6.638.638 0 0 1-.61.66l-14.95.58a.664.664 0 0 1-.579-.655.662.662 0 0 1 .579-.656l-.1.011ZM518.479 246.277a50.86 50.86 0 0 1 14.841 2.999.59.59 0 0 1-.43 1.089 50.065 50.065 0 0 0-14.491-2.868.597.597 0 0 1-.23-.062.597.597 0 0 1-.309-.352.61.61 0 0 1 .031-.467.608.608 0 0 1 .588-.339ZM544.54 259.28a18.833 18.833 0 0 1 1.36 7.546 31.276 31.276 0 0 1-1.11 7.536.545.545 0 0 1-.457.447.569.569 0 0 1-.427-.113.56.56 0 0 1-.206-.39.55.55 0 0 1 .03-.224 30.456 30.456 0 0 0 1.06-7.266c.06-2.43-.383-4.845-1.3-7.096a.591.591 0 0 1 .3-.75.582.582 0 0 1 .75.31ZM538.87 288.246c-2.48 4.367-5.2 8.575-8 12.703a.512.512 0 0 1-.679.096.514.514 0 0 1-.209-.302.504.504 0 0 1 .048-.363c2.82-4.118 5.52-8.316 8-12.654a.532.532 0 0 1 .928.135.532.532 0 0 1-.008.375l-.08.01ZM521.91 313.033l-9.42 11.683a.432.432 0 0 1-.61.07.432.432 0 0 1-.07-.609l9.34-11.714a.474.474 0 0 1 .74.59l.02-.02ZM502.91 336.261c-1.64 1.91-3.35 3.729-5 5.598-1.65 1.869-3.29 3.758-4.83 5.707a.372.372 0 0 1-.51.07.37.37 0 0 1-.06-.51c1.55-1.999 3.17-3.888 4.83-5.767 1.66-1.879 3.35-3.718 5-5.617a.402.402 0 0 1 .442-.164.398.398 0 0 1 .262.536.394.394 0 0 1-.094.138l-.04.009ZM486.051 360.508a11.309 11.309 0 0 0-.18 3.628 8.737 8.737 0 0 0 1.16 3.399 12.633 12.633 0 0 0 5.57 4.597.283.283 0 0 1-.134.537.277.277 0 0 1-.106-.027 12.994 12.994 0 0 1-5.84-4.797 9.097 9.097 0 0 1-1.27-3.639 11.975 11.975 0 0 1 .17-3.828.306.306 0 0 1 .048-.115.319.319 0 0 1 .332-.135.32.32 0 0 1 .203.132.306.306 0 0 1 .047.238v.01ZM507.08 375.351c5 .41 10 .4 15 .32a.206.206 0 0 1 .194.121c.01.025.016.052.016.079a.221.221 0 0 1-.012.081.225.225 0 0 1-.043.071.197.197 0 0 1-.066.048.2.2 0 0 1-.079.02c-5 .1-10 .14-15-.25a.252.252 0 0 1-.3-.245.25.25 0 0 1 .3-.245h-.01ZM537.049 375.611l15-.26a.15.15 0 0 1 .14.14.116.116 0 0 1-.011.052.132.132 0 0 1-.03.044.136.136 0 0 1-.099.034l-15 .33a.176.176 0 0 1-.127-.046.182.182 0 0 1-.039-.056.17.17 0 0 1 .156-.238h.01ZM567.049 375.151l15 .15a.06.06 0 0 1 .06.06.063.063 0 0 1-.017.043.063.063 0 0 1-.043.017l-15-.07a.104.104 0 0 1-.068-.032.109.109 0 0 1-.032-.068.1.1 0 0 1 .1-.1ZM597.029 376.091l9 .91-9-.86v-.05Z"/><path fill="#000" fill-rule="evenodd" d="M547.993 319.379c70.518-.193 128.043-12.659 128.486-27.844.442-15.184-56.365-27.336-126.882-27.143-14.77.04-28.97.619-42.195 1.649l-86.263 26.975c1.489 14.818 57.55 26.553 126.854 26.363Z" clip-rule="evenodd"/><path fill="#F1EFED" d="M421.111 292.235c-.007.261.002.522.028.781l86.263-26.975c-49.916 3.885-85.941 14.19-86.291 26.194Z"/><path fill="#000" d="m421.139 293.016-.995.131.995-.131Zm254.34-1.478c-.046 1.562-.823 3.183-2.461 4.859-1.642 1.681-4.09 3.352-7.313 4.978-6.444 3.25-15.783 6.216-27.373 8.727-23.163 5.02-55.1 8.181-90.31 8.277l-.058 1.999c35.308-.096 67.393-3.265 90.732-8.323 11.662-2.527 21.194-5.537 27.864-8.901 3.334-1.681 6.004-3.476 7.868-5.384 1.868-1.913 2.985-4.003 3.051-6.237l-2 .005Zm-125.911-26.147c35.209-.096 66.967 2.891 89.841 7.784 11.445 2.448 20.612 5.363 26.868 8.578 3.129 1.609 5.48 3.267 7.024 4.939 1.54 1.668 2.223 3.285 2.178 4.846l2-.005c.065-2.235-.931-4.319-2.688-6.222-1.753-1.898-4.318-3.678-7.555-5.342-6.475-3.328-15.833-6.286-27.349-8.75-23.048-4.93-54.953-7.923-90.261-7.827l-.058 1.999Zm-1.546 52.988c-34.603.095-65.873-2.788-88.653-7.533-11.396-2.373-20.621-5.203-27.066-8.334-3.224-1.566-5.711-3.188-7.423-4.832-1.715-1.646-2.59-3.253-2.745-4.795l-1.991.262c.217 2.163 1.419 4.164 3.326 5.995 1.909 1.833 4.587 3.558 7.912 5.173 6.65 3.231 16.052 6.101 27.519 8.489 22.949 4.78 54.362 7.669 89.063 7.574l.058-1.999Zm-125.887-25.494a5.085 5.085 0 0 1-.024-.653l-2 .006c-.008.304.002.608.033.909l1.991-.262Zm-.024-.653c.072-2.472 2.001-5.105 6.135-7.773 4.088-2.638 10.077-5.139 17.682-7.408 15.194-4.534 36.601-8.074 61.52-10.014l-.092-1.993c-24.996 1.946-46.56 5.502-61.944 10.092-7.686 2.294-13.888 4.862-18.213 7.654-4.279 2.762-6.985 5.918-7.088 9.448l2-.006Zm85.337-25.195c13.199-1.027 27.374-1.605 42.12-1.646l.058-1.999c-14.794.041-29.019.621-42.27 1.652l.092 1.993Zm-86.038 26.932 86.263-26.975-.541-1.906-86.264 26.975.542 1.906Z"/><ellipse fill="#F1EFED" stroke="#000" stroke-linejoin="round" stroke-width="2" rx="126.707" ry="36.877" transform="matrix(.99107 .13333 -.26643 .96386 554.415 270.303)"/><path fill="#000" d="M471.204 256.869c.75.09 1.377.319 1.878.688.514.37.847.879 1.001 1.527.157.637.098 1.389-.178 2.259l-1.505 4.753-1.698-.203 1.495-4.719c.239-.755.197-1.384-.127-1.886-.323-.502-.836-.795-1.539-.879a2.802 2.802 0 0 0-1.419.204 3.482 3.482 0 0 0-1.239.867 3.378 3.378 0 0 0-.735 1.265l-1.44 4.548-1.698-.204 3.831-12.098 1.609.193-1.478 4.668a5.072 5.072 0 0 1 1.573-.809 3.944 3.944 0 0 1 1.669-.174Zm9.187 1.28-2.716 8.58-1.698-.204 2.717-8.58 1.697.204Zm1.194-3.42-.597 1.888-1.895-.227.598-1.888 1.894.227Zm9.45 8.757a4.738 4.738 0 0 1-1.166 1.926c-.546.552-1.229.951-2.049 1.197.521.229.862.519 1.023.871.173.353.19.747.052 1.182-.217.686-.657 1.216-1.318 1.587-.654.385-1.392.528-2.214.43l-2.377-.285c-.81-.098-1.41-.389-1.801-.875-.39-.486-.48-1.061-.27-1.725.29-.915 1.041-1.49 2.253-1.725a2.564 2.564 0 0 1-1.156-1.563c-.17-.674-.141-1.371.087-2.092a4.69 4.69 0 0 1 1.213-1.956 5.533 5.533 0 0 1 2.071-1.266 5.332 5.332 0 0 1 2.402-.264c1.144.137 1.981.677 2.511 1.619l.375-1.184 1.609.193-1.245 3.93Zm-5.337 2.21a3.284 3.284 0 0 0 1.562-.187 3.496 3.496 0 0 0 1.31-.858c.381-.382.653-.83.816-1.345.159-.503.177-.97.054-1.401a1.953 1.953 0 0 0-.702-1.064c-.357-.28-.803-.452-1.339-.516a3.264 3.264 0 0 0-2.223.517 3.228 3.228 0 0 0-1.366 1.795c-.247.778-.195 1.455.154 2.032.361.577.939.92 1.734 1.027Zm-.065 3.661a1.73 1.73 0 0 0 1.04-.178c.323-.163.53-.387.621-.673.098-.309.054-.582-.131-.818s-.474-.377-.867-.424l-2.109-.253a1.71 1.71 0 0 0-1.063.193c-.315.176-.522.418-.62.727a.766.766 0 0 0 .147.766c.201.226.492.362.873.407l2.109.253Zm14.518-9.017c.751.09 1.377.319 1.879.688.513.37.847.879 1 1.527.157.636.098 1.389-.177 2.259l-1.505 4.753-1.698-.203 1.494-4.719c.239-.755.197-1.384-.126-1.886-.324-.502-.837-.795-1.54-.879a2.8 2.8 0 0 0-1.418.204c-.47.193-.883.482-1.24.867a3.362 3.362 0 0 0-.734 1.265l-1.44 4.548-1.698-.204 3.831-12.098 1.608.193-1.478 4.668a5.088 5.088 0 0 1 1.574-.809 3.94 3.94 0 0 1 1.668-.174Zm11.316 1.356c.917.11 1.655.395 2.215.854.572.46.931 1.062 1.08 1.804.152.73.081 1.559-.212 2.486-.076.24-.138.417-.187.53l-7.327-.879c-.091.678.057 1.266.443 1.763.403.488.955.774 1.658.858 1.156.138 2.106-.169 2.852-.923l1.752.21c-.54.767-1.278 1.361-2.216 1.783a5.412 5.412 0 0 1-2.866.44c-.87-.104-1.597-.387-2.18-.849a3.28 3.28 0 0 1-1.139-1.793c-.176-.734-.13-1.524.139-2.37a5.542 5.542 0 0 1 1.312-2.212 5.534 5.534 0 0 1 2.132-1.401 5.395 5.395 0 0 1 2.544-.301Zm-.493 1.438a3.253 3.253 0 0 0-2.024.416 3.583 3.583 0 0 0-1.445 1.519l5.486.658c.146-.695.028-1.279-.354-1.753-.37-.472-.924-.752-1.663-.84Zm12.54.007c.286.034.548.084.788.148l-.506 1.596c-.2-.072-.532-.135-.997-.191a3.135 3.135 0 0 0-1.502.176 3.394 3.394 0 0 0-1.223.815 3.11 3.11 0 0 0-.719 1.214l-1.472 4.651-1.698-.204 2.717-8.58 1.608.193-.418 1.321a4.766 4.766 0 0 1 1.611-.929 4.03 4.03 0 0 1 1.811-.21Zm11.085 3.11-1.435 4.531c-.116.366-.115.657.002.873.129.217.42.353.873.407.429.052.803.061 1.123.028l-.473 1.493a4.16 4.16 0 0 1-1.229.013c-1.894-.227-2.559-1.233-1.993-3.018l1.434-4.53-1.787-.215.489-1.544 1.787.214.706-2.231 1.698.204-.706 2.231 2.502.3-.489 1.544-2.502-.3Zm10.462-.526c.286.034.549.083.788.148l-.505 1.595c-.2-.071-.533-.135-.997-.19a3.14 3.14 0 0 0-1.503.176 3.39 3.39 0 0 0-1.223.815 3.109 3.109 0 0 0-.718 1.214l-1.473 4.651-1.697-.204 2.716-8.58 1.609.193-.418 1.321a4.731 4.731 0 0 1 1.611-.929 3.998 3.998 0 0 1 1.81-.21Zm11.029 1.5-2.717 8.58-1.698-.203.407-1.287a5.335 5.335 0 0 1-1.682.92 4.258 4.258 0 0 1-1.8.176c-.786-.094-1.441-.369-1.965-.823-.52-.466-.858-1.059-1.014-1.778-.156-.72-.098-1.508.174-2.366a5.838 5.838 0 0 1 1.282-2.233 5.433 5.433 0 0 1 2.019-1.397 4.633 4.633 0 0 1 2.33-.326c.619.074 1.154.281 1.603.62.449.338.786.777 1.012 1.314l.44-1.39 1.609.193Zm-6.726 6.71a3.14 3.14 0 0 0 1.55-.206c.508-.2.952-.509 1.332-.926.383-.43.663-.924.841-1.485.177-.56.218-1.078.121-1.553a2.027 2.027 0 0 0-.664-1.184c-.35-.303-.786-.486-1.311-.549a3.05 3.05 0 0 0-1.531.208 3.541 3.541 0 0 0-1.32.947 3.894 3.894 0 0 0-.835 1.467c-.178.56-.22 1.084-.127 1.57.097.475.315.863.652 1.165.337.301.768.484 1.292.546Zm15.094-5.884c.727.087 1.33.313 1.807.679.49.368.805.875.947 1.521.157.636.098 1.389-.177 2.259l-1.505 4.753-1.698-.204 1.494-4.719c.239-.755.197-1.383-.126-1.885-.324-.502-.837-.795-1.54-.879a2.893 2.893 0 0 0-1.472.197 3.237 3.237 0 0 0-1.193.837 3.514 3.514 0 0 0-.716 1.268l-1.451 4.581-1.698-.203 2.717-8.58 1.608.193-.434 1.372a4.868 4.868 0 0 1 1.622-.963 3.893 3.893 0 0 1 1.815-.227Zm7.739 10.19c-1.12-.135-1.987-.5-2.602-1.096-.6-.606-.816-1.369-.649-2.287l1.698.204c-.001.51.169.911.51 1.201.356.28.88.462 1.571.545.644.077 1.193.042 1.647-.106.459-.158.739-.398.84-.718.102-.321.044-.589-.172-.805-.2-.225-.646-.439-1.336-.641l-.965-.293c-2.028-.624-2.838-1.582-2.429-2.874.239-.756.777-1.32 1.613-1.695.839-.386 1.819-.512 2.939-.378 1.013.121 1.804.454 2.374.997.574.532.829 1.21.766 2.033l-1.805-.216c-.034-.36-.225-.656-.572-.888-.344-.243-.76-.394-1.248-.452-.62-.075-1.143-.042-1.57.096-.412.129-.667.348-.765.657-.087.274-.022.52.194.735.22.205.619.389 1.197.554l.983.296c1.153.34 1.91.763 2.269 1.269.363.495.432 1.097.207 1.806-.239.755-.784 1.325-1.636 1.71-.836.375-1.855.49-3.059.346Zm14.385-7.538c.787.095 1.44.375 1.96.841.524.455.864 1.042 1.019 1.761.156.719.098 1.508-.174 2.366a5.832 5.832 0 0 1-1.282 2.233 5.628 5.628 0 0 1-2.024 1.414c-.763.3-1.538.403-2.324.309a3.357 3.357 0 0 1-1.561-.579 3.09 3.09 0 0 1-.998-1.242l-1.331 4.204-1.698-.203 3.641-11.498 1.608.193-.44 1.39a5.443 5.443 0 0 1 1.74-.985 4.21 4.21 0 0 1 1.864-.204Zm-2.633 7.379a3.037 3.037 0 0 0 1.531-.208 3.588 3.588 0 0 0 1.315-.929c.383-.429.663-.924.841-1.484.177-.561.218-1.079.121-1.553-.094-.486-.309-.88-.647-1.182-.337-.302-.768-.484-1.292-.547a3.146 3.146 0 0 0-1.549.206c-.509.2-.955.515-1.338.944a3.91 3.91 0 0 0-.835 1.467c-.178.561-.22 1.084-.127 1.571.097.474.32.863.67 1.166.349.303.786.486 1.31.549Zm17.969-5.362-2.717 8.58-1.698-.203.408-1.287a5.351 5.351 0 0 1-1.683.92 4.258 4.258 0 0 1-1.8.176c-.786-.094-1.441-.368-1.965-.823-.52-.466-.858-1.059-1.014-1.778-.155-.72-.097-1.508.174-2.366a5.838 5.838 0 0 1 1.282-2.233 5.456 5.456 0 0 1 2.02-1.397 4.629 4.629 0 0 1 2.329-.326c.619.074 1.154.281 1.603.62.449.338.787.777 1.012 1.314l.44-1.39 1.609.193Zm-6.726 6.71a3.139 3.139 0 0 0 1.55-.206c.508-.2.952-.509 1.332-.926a4.02 4.02 0 0 0 .841-1.485c.178-.56.218-1.078.121-1.553a2.027 2.027 0 0 0-.664-1.184c-.349-.303-.786-.486-1.31-.549a3.042 3.042 0 0 0-1.532.209 3.554 3.554 0 0 0-1.32.946 3.894 3.894 0 0 0-.835 1.467c-.178.56-.22 1.084-.126 1.57.097.475.314.863.651 1.165.337.301.768.484 1.292.546Zm15.095-5.884c.286.034.548.083.788.147l-.506 1.596c-.2-.071-.532-.135-.997-.19a3.122 3.122 0 0 0-1.502.176 3.381 3.381 0 0 0-1.223.815 3.09 3.09 0 0 0-.718 1.214l-1.473 4.651-1.698-.204 2.717-8.58 1.609.193-.419 1.321a4.75 4.75 0 0 1 1.611-.929 4.004 4.004 0 0 1 1.811-.21Zm6.722.806c.917.11 1.656.394 2.215.853.572.46.932 1.062 1.08 1.804.152.731.081 1.559-.212 2.486a6.53 6.53 0 0 1-.186.53l-7.328-.879c-.091.678.057 1.266.444 1.763.402.488.954.774 1.657.858 1.156.139 2.107-.169 2.852-.923l1.752.21c-.54.767-1.278 1.361-2.216 1.783a5.402 5.402 0 0 1-2.866.44c-.87-.104-1.596-.387-2.18-.849a3.28 3.28 0 0 1-1.139-1.793c-.176-.734-.129-1.524.139-2.37a5.542 5.542 0 0 1 1.312-2.212 5.534 5.534 0 0 1 2.132-1.401 5.382 5.382 0 0 1 2.544-.3Zm-.493 1.437a3.254 3.254 0 0 0-2.024.416 3.583 3.583 0 0 0-1.445 1.519l5.487.658c.145-.695.027-1.279-.354-1.753-.37-.471-.925-.752-1.664-.84Zm12.54.007c.727.087 1.329.314 1.806.68.49.367.806.874.947 1.521.158.636.098 1.389-.177 2.258l-1.505 4.754-1.698-.204 1.494-4.719c.24-.755.197-1.384-.126-1.885-.323-.502-.837-.795-1.54-.88a2.904 2.904 0 0 0-1.472.198 3.235 3.235 0 0 0-1.192.836 3.51 3.51 0 0 0-.717 1.268l-1.451 4.582-1.698-.204 2.717-8.58 1.609.193-.435 1.373a4.878 4.878 0 0 1 1.622-.963 3.911 3.911 0 0 1 1.816-.228Zm5.202 5.255a5.242 5.242 0 0 1 1.337-2.173 5.882 5.882 0 0 1 2.226-1.407 5.543 5.543 0 0 1 2.603-.312c.989.119 1.788.506 2.397 1.16.624.645.92 1.429.888 2.351l-1.859-.223a1.813 1.813 0 0 0-.64-1.199c-.354-.327-.805-.524-1.353-.589a3.262 3.262 0 0 0-1.626.214 3.6 3.6 0 0 0-1.374.94 3.736 3.736 0 0 0-.848 1.448c-.174.549-.208 1.067-.103 1.555.109.476.342.872.7 1.188.361.305.822.491 1.382.558a3.223 3.223 0 0 0 1.608-.217c.54-.22.983-.547 1.331-.98l1.858.222c-.532.863-1.287 1.526-2.262 1.991-.961.455-1.935.623-2.924.505-.882-.106-1.625-.397-2.228-.873a3.522 3.522 0 0 1-1.205-1.819c-.2-.736-.169-1.516.092-2.34Zm21.552-1.869-8.877 10.87-1.841-.221 2.385-2.902-1.693-8.949 2.02.242 1.115 7.081 5.015-6.346 1.876.225Z"/><path fill="#000" fill-rule="evenodd" d="M18.36 87.505c4.845 17.912 60.047 25.59 123.297 17.147 23.193-3.096 44.248-7.929 61.375-13.693 21.023-7.074 36.127-15.55 42.005-23.935 2.392-3.412 3.256-6.81 2.368-10.091L124.108 39.786c-13.735 1.833-26.72 4.276-38.583 7.16C65.44 51.829 48.57 57.979 36.717 64.58c-13.385 7.455-20.37 15.487-18.358 22.924Z" clip-rule="evenodd"/><path fill="#F1EFED" d="M124.108 39.786c63.249-8.443 118.451-.765 123.297 17.147L124.108 39.786Z"/><path fill="#000" d="m36.717 64.58.594.857-.594-.856Zm166.315 26.38-.442-.924.442.923ZM85.525 46.945l.364.946-.364-.946Zm159.512 20.078-.874-.605.874.605Zm-103.641 36.663c-31.559 4.212-61.072 4.397-83.263 1.311-11.103-1.544-20.312-3.899-27.012-6.94-6.737-3.058-10.69-6.69-11.77-10.685l-1.983.264c1.342 4.96 6.107 9.006 13.06 12.162 6.99 3.172 16.443 5.568 27.653 7.127 22.434 3.119 52.146 2.922 83.837-1.308l-.522-1.931Zm-17.027-62.936c31.558-4.212 61.072-4.397 83.263-1.31 11.102 1.543 20.312 3.898 27.012 6.94 6.737 3.057 10.689 6.688 11.77 10.684l1.982-.264c-1.341-4.96-6.107-9.006-13.06-12.162-6.989-3.172-16.442-5.568-27.652-7.127-22.434-3.12-52.146-2.922-83.837 1.308l.522 1.931ZM19.35 87.373c-.897-3.317.172-6.907 3.252-10.67 3.075-3.755 8.065-7.565 14.71-11.266l-1.19-1.712c-6.74 3.754-11.935 7.688-15.195 11.67-3.255 3.977-4.674 8.122-3.559 12.242l1.983-.264Zm183.24 2.663c-17.061 5.742-38.055 10.562-61.194 13.651l.522 1.931c23.247-3.103 44.364-7.95 61.557-13.735l-.885-1.847Zm-165.279-24.6C49.07 58.889 65.854 52.764 85.89 47.893L85.162 46c-20.136 4.895-37.093 11.07-49.04 17.724l1.19 1.713ZM85.89 47.893c11.829-2.876 24.779-5.312 38.48-7.141l-.522-1.93C110.079 40.657 97.06 43.106 85.162 46l.727 1.892Zm160.525 9.173c.792 2.928.054 6.065-2.251 9.354l1.748 1.211c2.479-3.536 3.469-7.194 2.485-10.83l-1.982.265Zm-2.251 9.354c-2.838 4.047-7.96 8.188-15.05 12.211-7.076 4.016-16.051 7.882-26.523 11.406l.885 1.847c10.55-3.55 19.638-7.46 26.84-11.547 7.187-4.08 12.556-8.37 15.596-12.706l-1.748-1.211Zm3.268-10.45L124.134 38.822l-.052 1.928 123.297 17.147.052-1.928Z"/><ellipse fill="#F1EFED" stroke="#000" stroke-linejoin="round" stroke-width="2" rx="113.524" ry="34.841" transform="matrix(.967 -.25477 .47112 .88207 126.192 59.656)"/><path fill="#000" d="m44.1 74.938 2.225 8.72-1.656.425-2.225-8.72 1.657-.425Zm-.784-3.515.489 1.919-1.848.473-.49-1.918 1.849-.474Zm15.125-.342c.698-.179 1.358-.187 1.982-.024.635.16 1.188.507 1.659 1.043.48.52.832 1.223 1.058 2.107l1.232 4.831-1.657.424-1.223-4.796c-.196-.767-.572-1.321-1.13-1.662-.546-.343-1.15-.43-1.813-.26-.72.184-1.236.59-1.548 1.214-.31.624-.372 1.309-.182 2.053l1.188 4.657-1.657.424-1.223-4.796c-.196-.768-.572-1.322-1.13-1.662-.546-.343-1.15-.43-1.813-.26-.72.184-1.236.589-1.548 1.213-.311.625-.372 1.31-.182 2.054l1.188 4.656-1.657.424-2.224-8.72 1.57-.402.35 1.378a3.626 3.626 0 0 1 .915-1.442 3.313 3.313 0 0 1 1.48-.824c.686-.176 1.34-.183 1.964-.02a3.079 3.079 0 0 1 1.624.977c.201-.62.546-1.161 1.036-1.621a3.882 3.882 0 0 1 1.741-.966Zm11.747-3.008a3.97 3.97 0 0 1 2.244.058 4.16 4.16 0 0 1 1.891 1.225c.536.594.915 1.326 1.137 2.198.222.873.24 1.698.056 2.476a4.303 4.303 0 0 1-1.069 2.001 4.063 4.063 0 0 1-1.946 1.112c-.581.148-1.16.16-1.737.036a4.082 4.082 0 0 1-1.588-.764l1.09 4.273-1.657.424-2.98-11.685 1.569-.402.36 1.412c.245-.595.593-1.099 1.045-1.512.452-.413.98-.697 1.585-.852Zm1.643 7.606a2.618 2.618 0 0 0 1.28-.736c.341-.36.57-.796.687-1.31a3.535 3.535 0 0 0-.047-1.641 3.419 3.419 0 0 0-.74-1.446 2.716 2.716 0 0 0-1.235-.835 2.615 2.615 0 0 0-1.476-.031 2.71 2.71 0 0 0-1.297.74 2.682 2.682 0 0 0-.7 1.332 3.422 3.422 0 0 0 .042 1.624c.145.57.394 1.057.745 1.463a2.7 2.7 0 0 0 2.74.84Zm9.8-10.535c.28-.072.546-.121.799-.149l.413 1.622c-.22.007-.558.069-1.011.185a2.72 2.72 0 0 0-1.272.697c-.324.33-.546.722-.666 1.174a2.7 2.7 0 0 0 .01 1.353l1.206 4.727-1.656.424-2.225-8.72 1.57-.402.342 1.343c.207-.549.526-1.02.958-1.416.44-.41.951-.69 1.532-.838Zm9.047 7.345c-.86.22-1.695.223-2.505.01a4.67 4.67 0 0 1-2.093-1.211 4.627 4.627 0 0 1-1.197-2.146 4.538 4.538 0 0 1 .027-2.441 4.506 4.506 0 0 1 1.256-2.068 4.798 4.798 0 0 1 2.199-1.213 4.663 4.663 0 0 1 2.475.016c.81.214 1.507.618 2.092 1.211.582.582.98 1.291 1.193 2.129a4.633 4.633 0 0 1-.023 2.458c-.232.79-.65 1.48-1.256 2.068-.596.574-1.32.97-2.168 1.187Zm-.391-1.535c.534-.137.99-.39 1.367-.759.373-.38.63-.83.77-1.349a3.234 3.234 0 0 0-.008-1.633 3.13 3.13 0 0 0-.77-1.419 2.84 2.84 0 0 0-1.323-.813 2.863 2.863 0 0 0-1.567-.026 2.993 2.993 0 0 0-1.397.785 2.847 2.847 0 0 0-.77 1.349 3.133 3.133 0 0 0 .003 1.615c.142.559.4 1.037.775 1.437.371.388.812.66 1.322.813.519.14 1.051.14 1.598 0Zm13.696-11.347-1.525 9.68-2.162.554-5.974-7.76 1.849-.474 4.823 6.309 1.193-7.85 1.796-.46Zm5.74-1.655c.895-.23 1.723-.237 2.483-.023a3.965 3.965 0 0 1 1.971 1.242c.538.605.927 1.379 1.167 2.32.063.245.103.427.121.546l-7.15 1.83a2.854 2.854 0 0 0 1.369 1.434 2.859 2.859 0 0 0 1.978.18c1.128-.288 1.825-.906 2.091-1.854l1.709-.437c-.072.885-.418 1.686-1.041 2.403-.625.705-1.414 1.18-2.367 1.423-.849.218-1.665.222-2.449.014a4.347 4.347 0 0 1-2.018-1.211c-.562-.6-.952-1.33-1.172-2.19-.219-.86-.225-1.683-.016-2.467a4.24 4.24 0 0 1 1.173-2.028c.585-.571 1.302-.965 2.151-1.182Zm.339 1.474c-.686.175-1.224.542-1.614 1.1-.379.555-.54 1.185-.485 1.89l5.354-1.371c-.248-.68-.675-1.165-1.282-1.456-.595-.293-1.253-.348-1.973-.163Zm14.121-8.8 3.136 12.296-1.656.424-.334-1.308a4.098 4.098 0 0 1-1.027 1.434c-.447.387-.96.654-1.542.803a4.058 4.058 0 0 1-2.239-.04 4.288 4.288 0 0 1-1.896-1.242c-.536-.594-.915-1.327-1.137-2.199-.222-.872-.241-1.697-.056-2.475a4.175 4.175 0 0 1 1.073-1.984 3.974 3.974 0 0 1 1.942-1.129 3.65 3.65 0 0 1 1.798-.014c.594.145 1.141.42 1.641.824l-1.273-4.988 1.57-.401Zm-1.535 12.043a2.71 2.71 0 0 0 1.297-.74c.353-.364.588-.802.705-1.315a3.536 3.536 0 0 0-.047-1.641 3.416 3.416 0 0 0-.74-1.446 2.68 2.68 0 0 0-1.253-.831 2.706 2.706 0 0 0-1.493-.027 2.615 2.615 0 0 0-1.279.737c-.342.36-.57.802-.684 1.327a3.424 3.424 0 0 0 .043 1.624c.145.57.394 1.057.745 1.463a2.74 2.74 0 0 0 1.23.818c.472.152.964.162 1.476.031Zm17.211-2.771c-1.093.28-2.083.26-2.969-.058-.877-.333-1.491-.943-1.842-1.832l1.657-.424c.279.46.652.761 1.122.901.477.126 1.054.102 1.728-.07.628-.161 1.108-.39 1.441-.685.331-.308.454-.624.371-.95a.912.912 0 0 0-.597-.665c-.306-.132-.828-.165-1.567-.1l-1.039.08c-2.187.164-3.449-.411-3.784-1.725-.195-.767-.016-1.47.54-2.108.553-.649 1.376-1.114 2.468-1.393.989-.253 1.891-.237 2.707.05a3.068 3.068 0 0 1 1.81 1.562l-1.761.45c-.229-.313-.564-.511-1.007-.596a2.972 2.972 0 0 0-1.383.038c-.605.155-1.064.371-1.377.65-.304.263-.416.552-.336.866.071.28.264.477.579.595.312.106.776.13 1.393.07l1.056-.084c1.236-.106 2.156.005 2.76.334.601.317.993.836 1.177 1.556.196.768.012 1.478-.552 2.13-.556.638-1.421 1.107-2.595 1.407Zm8.126-11.742c.895-.23 1.723-.237 2.484-.023a3.961 3.961 0 0 1 1.97 1.242c.538.605.928 1.379 1.168 2.32.062.245.102.426.12.546l-7.149 1.83a2.852 2.852 0 0 0 1.368 1.434 2.862 2.862 0 0 0 1.979.18c1.127-.288 1.824-.906 2.09-1.854l1.709-.438c-.071.886-.418 1.687-1.04 2.404-.625.705-1.415 1.18-2.368 1.423-.849.218-1.665.222-2.449.014a4.351 4.351 0 0 1-2.018-1.211c-.561-.6-.952-1.33-1.171-2.19-.22-.86-.225-1.683-.017-2.467a4.233 4.233 0 0 1 1.174-2.028c.585-.571 1.302-.965 2.15-1.182Zm.339 1.474c-.686.175-1.224.542-1.614 1.1-.379.555-.54 1.185-.484 1.89l5.353-1.371c-.247-.68-.675-1.165-1.281-1.456-.595-.294-1.253-.348-1.974-.163Zm7.426 1.368a4.542 4.542 0 0 1 .028-2.44 4.51 4.51 0 0 1 1.256-2.069 4.797 4.797 0 0 1 2.198-1.213 4.385 4.385 0 0 1 2.817.19c.921.358 1.619.96 2.095 1.804l-1.814.464a2.387 2.387 0 0 0-1.239-.853 2.684 2.684 0 0 0-1.554-.048 2.807 2.807 0 0 0-1.363.776c-.365.366-.61.813-.735 1.34a3.249 3.249 0 0 0 .02 1.612c.143.558.395 1.038.758 1.44.36.392.789.666 1.287.823a2.9 2.9 0 0 0 1.563.009 2.773 2.773 0 0 0 1.345-.772c.371-.392.596-.846.675-1.362l1.813-.464c-.013.97-.336 1.839-.969 2.608a4.452 4.452 0 0 1-2.385 1.502c-.86.22-1.696.224-2.506.01a4.67 4.67 0 0 1-2.092-1.21 4.63 4.63 0 0 1-1.198-2.147Zm18.222-9.31 2.225 8.72-1.57.402-.355-1.395a3.859 3.859 0 0 1-.962 1.472 3.383 3.383 0 0 1-1.515.834c-.71.182-1.388.194-2.034.038-.635-.16-1.199-.498-1.69-1.017-.483-.533-.837-1.24-1.062-2.124l-1.233-4.832 1.657-.424 1.223 4.796c.196.768.579 1.32 1.148 1.658.569.337 1.196.418 1.882.242.5-.128.906-.356 1.219-.683.321-.343.529-.743.623-1.2.105-.46.097-.93-.024-1.406l-1.188-4.657 1.656-.424Zm8.067-2.25c.279-.072.545-.122.798-.15l.414 1.622c-.221.008-.559.07-1.012.185-.512.131-.935.364-1.271.697a2.597 2.597 0 0 0-.656 2.528l1.206 4.726-1.657.424-2.224-8.72 1.569-.402.343 1.343c.206-.548.526-1.02.957-1.416a3.49 3.49 0 0 1 1.533-.838Zm5.108-1.123 2.225 8.72-1.657.424-2.224-8.72 1.656-.424Zm-.785-3.515.49 1.919-1.849.473-.489-1.919 1.848-.473Zm7.026 3.59 1.174 4.604c.095.372.261.633.497.783.248.147.611.16 1.087.038a5.709 5.709 0 0 0 1.124-.4l.387 1.517c-.31.191-.698.346-1.163.465-.953.245-1.732.202-2.336-.126-.607-.34-1.024-.958-1.253-1.853l-1.174-4.604-1.744.446-.4-1.57 1.743-.446-.578-2.267 1.657-.424.578 2.267 4.36-1.116.4 1.57-4.359 1.115Zm13.069-5.019-2.128 12.993-1.796.46.581-3.474-6.44-7.474 1.971-.505 4.891 5.994 1.09-7.525 1.831-.469Z"/><path fill="#000" fill-rule="evenodd" d="M111.195 229.982c.776 22.269 47.41 39.158 104.16 37.723 28.789-.729 54.651-6.033 73.045-13.99 17.865-7.728 28.687-17.959 28.304-28.931l-44.879-31.903a174.951 174.951 0 0 0-9.476-2.068c-14.824-2.819-31.806-4.207-49.805-3.751-56.75 1.435-102.126 20.651-101.349 42.92Z" clip-rule="evenodd"/><path stroke="#000" stroke-width="2" d="M316.704 224.784c.383 10.972-10.439 21.203-28.304 28.931-18.394 7.957-44.256 13.261-73.045 13.99-56.75 1.435-103.384-15.454-104.16-37.723-.777-22.269 44.599-41.485 101.349-42.92 17.999-.456 34.981.932 49.805 3.751 3.268.621 6.43 1.312 9.476 2.068m44.879 31.903c-.476-13.649-18.179-25.277-44.879-31.903m44.879 31.903-44.879-31.903"/><ellipse fill="#F1EFED" stroke="#000" stroke-linejoin="round" stroke-width="2" rx="101.599" ry="33.049" transform="matrix(.96329 -.2687 .32285 .94638 206.317 206.112)"/><path fill="#000" d="m136.361 224.379 2.719 8.579-1.63.516-2.72-8.579 1.631-.516Zm-.985-3.464.598 1.887-1.819.576-.598-1.887 1.819-.576Zm8.908.766c.698-.221 1.369-.27 2.012-.147.655.12 1.239.432 1.751.937.521.49.919 1.169 1.194 2.039l1.507 4.752-1.63.517-1.496-4.719c-.24-.755-.653-1.284-1.241-1.589-.587-.305-1.219-.35-1.894-.137a2.48 2.48 0 0 0-1.749 1.989 3.09 3.09 0 0 0 .122 1.396l1.453 4.581-1.631.517-2.72-8.579 1.545-.489.435 1.373c.172-.571.46-1.071.865-1.502a3.372 3.372 0 0 1 1.477-.939Zm12.973 5.708c-1.076.341-2.065.377-2.968.11-.895-.283-1.544-.858-1.945-1.726l1.631-.516c.304.445.695.724 1.172.837.484.099 1.058.043 1.722-.168.617-.195 1.084-.45 1.4-.764.312-.326.418-.648.316-.969a.914.914 0 0 0-.634-.63c-.313-.114-.837-.118-1.571-.012l-1.033.139c-2.175.286-3.468-.217-3.877-1.51-.24-.755-.1-1.466.418-2.134.515-.679 1.31-1.189 2.386-1.529.972-.308 1.874-.342 2.706-.102a3.07 3.07 0 0 1 1.897 1.457l-1.733.549c-.247-.3-.593-.48-1.04-.539a2.963 2.963 0 0 0-1.38.116c-.595.188-1.04.43-1.337.725-.289.28-.384.575-.286.884.087.274.291.461.612.561.318.088.783.086 1.395-.007l1.05-.144c1.228-.175 2.154-.116 2.776.178.618.282 1.039.778 1.264 1.487.24.755.096 1.474-.43 2.157-.519.668-1.356 1.184-2.511 1.55Zm6.346-9.939 1.436 4.529c.116.366.29.619.524.76.244.136.584.135 1.019-.002.412-.131.75-.276 1.014-.435l.473 1.493c-.276.201-.637.372-1.083.513-1.82.576-3.012-.028-3.578-1.812l-1.436-4.53-1.716.544-.489-1.544 1.716-.544-.708-2.23 1.631-.517.707 2.231 2.402-.761.49 1.544-2.402.761Zm12.299-5.595 2.72 8.579-1.631.516-.407-1.287a4.096 4.096 0 0 1-.945 1.489 3.724 3.724 0 0 1-1.493.888 4.063 4.063 0 0 1-2.239.086 4.304 4.304 0 0 1-1.965-1.133c-.568-.563-.989-1.273-1.261-2.131-.272-.858-.337-1.68-.197-2.467a4.166 4.166 0 0 1 .959-2.041 3.98 3.98 0 0 1 1.874-1.236 3.665 3.665 0 0 1 1.795-.115 4.145 4.145 0 0 1 1.686.731l-.441-1.39 1.545-.489Zm-1.96 8.588a2.705 2.705 0 0 0 1.882-2.163 3.525 3.525 0 0 0-.141-1.636 3.432 3.432 0 0 0-.822-1.401 2.68 2.68 0 0 0-1.298-.759 2.716 2.716 0 0 0-1.493.057c-.503.16-.915.429-1.236.807a2.72 2.72 0 0 0-.606 1.363 3.405 3.405 0 0 0 .135 1.618c.178.561.454 1.034.827 1.419a2.75 2.75 0 0 0 1.276.747c.48.125.972.108 1.476-.052Zm9.889-11.288c.698-.221 1.369-.27 2.012-.147.655.12 1.239.433 1.751.937.521.49.919 1.17 1.194 2.039l1.507 4.752-1.63.517-1.496-4.718c-.239-.755-.653-1.285-1.24-1.59-.588-.305-1.219-.35-1.894-.136a2.482 2.482 0 0 0-1.749 1.988c-.068.462-.027.928.121 1.397l1.453 4.581-1.63.516-2.72-8.579 1.544-.489.435 1.373c.172-.571.46-1.071.865-1.501a3.365 3.365 0 0 1 1.477-.94Zm9.646-1.167 1.436 4.529c.116.366.291.619.524.76.244.136.584.135 1.019-.002.412-.131.75-.276 1.014-.435l.473 1.493c-.276.201-.637.372-1.083.513-1.819.576-3.012-.028-3.577-1.812l-1.437-4.53-1.716.544-.489-1.544 1.716-.544-.707-2.23 1.63-.517.707 2.231 2.403-.761.489 1.544-2.402.761Zm12.961-4.105 1.436 4.529c.116.366.291.619.524.759.245.137.584.136 1.019-.002.412-.13.75-.275 1.014-.434l.474 1.493c-.277.2-.638.371-1.084.513-1.819.576-3.012-.028-3.577-1.812l-1.436-4.53-1.716.544-.49-1.545 1.716-.543-.707-2.231 1.63-.516.707 2.231 2.403-.761.489 1.544-2.402.761Zm8.98-4.733c.275-.087.538-.151.789-.193l.506 1.596c-.221.019-.554.1-1 .241a2.713 2.713 0 0 0-1.23.767 2.605 2.605 0 0 0-.599 1.209c-.086.443-.056.893.089 1.351l1.474 4.649-1.63.516-2.72-8.578 1.544-.489.419 1.321a3.62 3.62 0 0 1 .876-1.467c.416-.434.91-.741 1.482-.923Zm10.697-3.199 2.719 8.579-1.63.516-.408-1.287a4.08 4.08 0 0 1-.944 1.489 3.735 3.735 0 0 1-1.494.888 4.053 4.053 0 0 1-2.239.086 4.3 4.3 0 0 1-1.964-1.133c-.569-.563-.989-1.273-1.261-2.131-.272-.858-.338-1.68-.197-2.467.141-.787.46-1.468.958-2.041a3.978 3.978 0 0 1 1.875-1.235 3.653 3.653 0 0 1 1.795-.116 4.158 4.158 0 0 1 1.686.731l-.441-1.389 1.545-.49Zm-1.961 8.589a2.71 2.71 0 0 0 1.883-2.164 3.546 3.546 0 0 0-.141-1.635 3.419 3.419 0 0 0-.822-1.401 2.672 2.672 0 0 0-2.791-.702 2.613 2.613 0 0 0-1.236.806 2.721 2.721 0 0 0-.607 1.363 3.423 3.423 0 0 0 .136 1.619c.177.56.453 1.033.827 1.418.37.374.796.623 1.276.748.48.124.972.107 1.475-.052Zm6.156-5.198a4.536 4.536 0 0 1-.112-2.437 4.508 4.508 0 0 1 1.136-2.135 4.797 4.797 0 0 1 2.127-1.334 4.38 4.38 0 0 1 2.823.031 3.995 3.995 0 0 1 2.196 1.683l-1.785.565a2.4 2.4 0 0 0-1.287-.782 2.689 2.689 0 0 0-1.555.04c-.537.17-.976.454-1.316.851a2.751 2.751 0 0 0-.658 1.379 3.248 3.248 0 0 0 .113 1.607c.174.549.454 1.014.839 1.396.382.369.826.619 1.332.748a2.904 2.904 0 0 0 1.562-.079 2.777 2.777 0 0 0 1.299-.846c.348-.412.546-.878.596-1.397l1.784-.565c.043.968-.23 1.854-.819 2.657a4.449 4.449 0 0 1-2.296 1.634 4.905 4.905 0 0 1-2.501.15 4.674 4.674 0 0 1-2.159-1.091 4.627 4.627 0 0 1-1.319-2.075Zm14.212-4.161-.836 1.473.914 2.882-1.63.517-3.835-12.096 1.63-.516 2.323 7.326 2.791-5.076 2.162-.685-2.659 4.657 5.74 3.808-2.18.69-4.42-2.98Zm7.819-7.536 2.72 8.578-1.63.516-2.72-8.578 1.63-.516Zm-.985-3.465.599 1.888-1.819.576-.599-1.887 1.819-.577Zm8.909.766c.698-.221 1.368-.27 2.012-.146.655.12 1.238.432 1.751.937.52.489.918 1.169 1.194 2.038l1.507 4.753-1.631.516-1.496-4.718c-.239-.755-.652-1.285-1.24-1.59-.588-.304-1.219-.35-1.894-.136a2.474 2.474 0 0 0-1.749 1.989 3.09 3.09 0 0 0 .122 1.396l1.452 4.581-1.63.516-2.72-8.578 1.545-.489.435 1.372a3.72 3.72 0 0 1 .865-1.501 3.368 3.368 0 0 1 1.477-.94Zm16.226-.646c.233.732.271 1.45.117 2.153-.155.704-.523 1.33-1.104 1.879.6-.013 1.076.1 1.43.34.364.237.615.573.753 1.008.218.686.144 1.326-.222 1.92-.35.602-.92 1.028-1.71 1.278l-2.282.723c-.778.247-1.486.238-2.123-.026a2.132 2.132 0 0 1-1.272-1.391c-.29-.915.033-1.722.969-2.421a3.396 3.396 0 0 1-1.962-.889 4.258 4.258 0 0 1-1.174-1.856 4.026 4.026 0 0 1-.093-2.199 4.235 4.235 0 0 1 1.082-1.947 4.644 4.644 0 0 1 1.977-1.212c1.098-.347 2.165-.219 3.2.384l-.376-1.184 1.545-.489 1.245 3.929Zm-3.419 4.104c.514-.163.94-.43 1.275-.8a2.67 2.67 0 0 0 .651-1.283c.11-.488.083-.989-.08-1.504a2.706 2.706 0 0 0-.79-1.241 2.579 2.579 0 0 0-1.26-.639 2.945 2.945 0 0 0-1.499.097c-.767.243-1.322.695-1.666 1.358-.336.648-.382 1.355-.139 2.121.246.778.697 1.346 1.352 1.705.667.355 1.385.417 2.156.186Zm2.133 3.214c.366-.116.638-.309.817-.58.19-.274.239-.554.149-.84a1.025 1.025 0 0 0-.605-.658c-.306-.13-.647-.135-1.025-.015l-2.025.641c-.378.12-.654.32-.829.602a1.024 1.024 0 0 0-.115.887c.09.285.287.488.589.606.313.115.653.114 1.019-.002l2.025-.641Z"/><path fill="#000" fill-rule="evenodd" d="M529.286 113.203c57.714.627 104.633-11.165 104.798-26.338.165-15.172-46.487-27.98-104.201-28.606-12.088-.132-23.702.282-34.513 1.157l-70.252 25.962c1.411 14.828 47.448 27.21 104.168 27.825Z" clip-rule="evenodd"/><path stroke="#000" stroke-width="2" d="M425.118 85.378c1.411 14.828 47.448 27.21 104.168 27.825 57.714.627 104.633-11.165 104.798-26.338.165-15.172-46.487-27.98-104.201-28.606-12.088-.132-23.702.282-34.513 1.157m-70.252 25.962a7.54 7.54 0 0 1-.033-.781c.131-11.995 29.481-21.877 70.285-25.18m-70.252 25.96 70.252-25.96"/><ellipse fill="#F1EFED" stroke="#000" stroke-linejoin="round" stroke-width="2" rx="104.504" ry="36.091" transform="rotate(11.039 -74.405 2790.67) skewX(-.011)"/><path fill="#000" d="M462.918 48.31a3.97 3.97 0 0 1 2 1.02 4.159 4.159 0 0 1 1.179 1.921c.228.767.254 1.592.079 2.474-.175.883-.513 1.636-1.016 2.258a4.295 4.295 0 0 1-1.826 1.345 4.06 4.06 0 0 1-2.234.164 3.73 3.73 0 0 1-1.583-.717 4.082 4.082 0 0 1-1.104-1.374l-.262 1.324-1.678-.332 2.465-12.448 1.589.314-1 5.05a4.158 4.158 0 0 1 1.594-.914 3.656 3.656 0 0 1 1.797-.085Zm-1.793 7.572a2.616 2.616 0 0 0 1.472-.112 2.744 2.744 0 0 0 1.184-.885 3.54 3.54 0 0 0 .665-1.502 3.417 3.417 0 0 0-.046-1.624 2.714 2.714 0 0 0-.754-1.287c-.361-.34-.8-.562-1.318-.664a2.673 2.673 0 0 0-2.695 1.008 3.411 3.411 0 0 0-.661 1.484 3.51 3.51 0 0 0 .042 1.642 2.7 2.7 0 0 0 2.111 1.94Zm12.69-5.416c.906.18 1.657.53 2.251 1.05a3.968 3.968 0 0 1 1.243 1.971c.225.779.243 1.645.054 2.598a6.253 6.253 0 0 1-.126.544l-7.24-1.432a2.861 2.861 0 0 0 .618 1.883c.444.54 1.013.88 1.707 1.017 1.142.226 2.037-.031 2.685-.772l1.731.343c-.446.768-1.104 1.341-1.974 1.72-.868.366-1.784.454-2.75.263-.859-.17-1.597-.518-2.215-1.044a4.352 4.352 0 0 1-1.299-1.963c-.249-.783-.287-1.61-.115-2.482.173-.87.522-1.615 1.048-2.233a4.226 4.226 0 0 1 1.932-1.324c.774-.263 1.591-.31 2.45-.14Zm-.329 1.476c-.695-.137-1.338-.038-1.931.297-.58.338-.997.836-1.25 1.496l5.421 1.072c.069-.72-.107-1.342-.53-1.866-.41-.522-.98-.855-1.71-.999Zm9.5 2.173-.923 4.661c-.074.377-.037.684.111.921.161.24.482.408.965.503.447.089.843.13 1.186.125l-.304 1.536c-.362.038-.779.011-1.25-.082-.965-.191-1.649-.565-2.053-1.122-.401-.568-.512-1.306-.332-2.212l.923-4.662-1.766-.35.315-1.588 1.765.349.455-2.296 1.677.332-.454 2.296 4.414.873-.314 1.59-4.415-.874Zm7.281 1.44-.923 4.662c-.075.376-.044.682.093.917.149.238.447.4.894.489.424.084.79.12 1.098.107l-.304 1.536c-.339.043-.738.02-1.197-.071-1.872-.37-2.626-1.474-2.262-3.31l.923-4.662-1.766-.349.315-1.59 1.766.35.454-2.295 1.678.332-.455 2.295 2.472.489-.314 1.59-2.472-.49Zm9.2-.015c.906.18 1.657.53 2.251 1.051a3.969 3.969 0 0 1 1.243 1.97c.225.78.243 1.645.054 2.599a6.253 6.253 0 0 1-.126.544l-7.24-1.433a2.861 2.861 0 0 0 .618 1.884c.444.54 1.013.88 1.707 1.017 1.142.226 2.037-.032 2.685-.772l1.731.342c-.446.769-1.104 1.342-1.974 1.72-.868.367-1.784.454-2.75.263-.859-.17-1.597-.517-2.215-1.043a4.352 4.352 0 0 1-1.299-1.964c-.249-.783-.287-1.61-.114-2.481.172-.871.521-1.616 1.047-2.233a4.236 4.236 0 0 1 1.932-1.325c.774-.262 1.591-.309 2.45-.139Zm-.329 1.477c-.695-.138-1.338-.039-1.93.296-.581.338-.998.837-1.251 1.496l5.421 1.073c.069-.72-.107-1.343-.529-1.867-.411-.521-.981-.854-1.711-.998Zm12.232.878c.282.056.544.126.784.21l-.325 1.642c-.203-.089-.534-.179-.993-.27-.518-.102-1-.075-1.447.081a2.602 2.602 0 0 0-1.107.772c-.289.346-.48.755-.573 1.226l-.948 4.785-1.677-.332 1.748-8.828 1.589.314-.269 1.36a3.628 3.628 0 0 1 1.474-.865 3.48 3.48 0 0 1 1.744-.095Zm13.008 2.573c.906.18 1.656.53 2.25 1.05a3.961 3.961 0 0 1 1.243 1.971c.225.779.243 1.645.055 2.598a6.253 6.253 0 0 1-.126.544l-7.24-1.432a2.85 2.85 0 0 0 .618 1.884c.443.54 1.012.88 1.707 1.017 1.142.225 2.037-.032 2.685-.772l1.73.342c-.445.768-1.103 1.341-1.973 1.72-.868.366-1.785.454-2.75.263-.859-.17-1.598-.518-2.215-1.044a4.346 4.346 0 0 1-1.3-1.963c-.248-.783-.286-1.61-.114-2.481.173-.871.522-1.616 1.048-2.233a4.226 4.226 0 0 1 1.932-1.325c.774-.263 1.59-.309 2.45-.139Zm-.329 1.476c-.695-.137-1.338-.038-1.931.297-.581.338-.997.837-1.25 1.496l5.421 1.072c.069-.72-.108-1.342-.53-1.866-.41-.521-.981-.854-1.71-.999Zm12.663 2.799-3.073-.608-1.433 7.24-1.678-.332 1.434-7.24-1.766-.349.315-1.59 1.766.35.188-.953c.18-.907.574-1.538 1.183-1.895.623-.366 1.446-.448 2.471-.245.306.06.608.139.907.234.299.096.51.175.633.236l-.305 1.536c-.315-.136-.814-.271-1.497-.406-.553-.11-.962-.087-1.225.07-.251.157-.415.425-.489.802l-.189.953 3.073.608-.315 1.589Zm9.901 1.959-6.004-1.188-1.433 7.24-1.678-.333 1.434-7.239-1.766-.35.315-1.588 1.766.349.188-.954c.18-.906.574-1.537 1.183-1.894.623-.366 1.446-.448 2.471-.245.306.06.608.139.907.234.299.096.51.175.633.235l-.305 1.537c-.315-.136-.814-.272-1.497-.407-.553-.11-.962-.086-1.225.07-.251.158-.415.426-.489.802l-.189.954 6.004 1.187-.315 1.59Zm1.282-1.398-1.749 8.828-1.677-.332 1.748-8.828 1.678.332Zm.805-3.51-.385 1.942-1.871-.37.384-1.943 1.872.37Zm1.232 8.5a4.542 4.542 0 0 1 1.076-2.19 4.507 4.507 0 0 1 2.024-1.325c.8-.27 1.635-.319 2.506-.147a4.388 4.388 0 0 1 2.46 1.386 3.992 3.992 0 0 1 1.113 2.532l-1.836-.363a2.39 2.39 0 0 0-.751-1.305 2.687 2.687 0 0 0-1.382-.713 2.804 2.804 0 0 0-1.563.112c-.487.173-.901.47-1.241.892-.339.41-.564.898-.675 1.463a3.353 3.353 0 0 0 .063 1.627c.156.508.425.94.807 1.298a2.9 2.9 0 0 0 1.406.682 2.772 2.772 0 0 0 1.546-.117 2.487 2.487 0 0 0 1.195-.937l1.837.363c-.429.87-1.095 1.514-1.998 1.935a4.449 4.449 0 0 1-2.799.327 4.906 4.906 0 0 1-2.265-1.072 4.675 4.675 0 0 1-1.366-1.995 4.62 4.62 0 0 1-.157-2.453Zm14.179-1.782-1.748 8.828-1.678-.332 1.748-8.828 1.678.332Zm.805-3.51-.384 1.942-1.872-.37.385-1.943 1.871.37Zm6.662 4.803c.906.18 1.657.53 2.251 1.051a3.966 3.966 0 0 1 1.242 1.97c.226.78.244 1.645.055 2.599a6.253 6.253 0 0 1-.126.544l-7.24-1.433a2.861 2.861 0 0 0 .618 1.884c.443.54 1.012.88 1.707 1.017 1.142.225 2.037-.032 2.685-.772l1.73.342c-.445.768-1.103 1.342-1.973 1.72-.868.367-1.784.454-2.75.263-.859-.17-1.598-.517-2.215-1.043a4.355 4.355 0 0 1-1.3-1.964c-.248-.783-.286-1.61-.114-2.481.173-.871.522-1.616 1.048-2.233a4.226 4.226 0 0 1 1.932-1.325c.774-.262 1.59-.309 2.45-.139Zm-.329 1.476c-.695-.137-1.338-.038-1.931.297-.58.338-.997.837-1.25 1.496l5.421 1.073c.069-.72-.107-1.343-.53-1.867-.41-.521-.98-.854-1.71-.999Zm12.232.879c.718.142 1.329.422 1.833.84.517.42.878.975 1.084 1.664.22.68.241 1.466.064 2.361l-.968 4.891-1.678-.332.962-4.856c.154-.776.046-1.44-.322-1.99s-.899-.893-1.594-1.03a2.49 2.49 0 0 0-1.415.105 2.47 2.47 0 0 0-1.075.796c-.282.373-.471.8-.566 1.283l-.934 4.714-1.677-.332 1.748-8.828 1.589.314-.28 1.413a3.738 3.738 0 0 1 1.481-.9 3.375 3.375 0 0 1 1.748-.113Zm5.626 5.883a4.533 4.533 0 0 1 1.076-2.19 4.5 4.5 0 0 1 2.024-1.325 4.795 4.795 0 0 1 2.506-.146 4.388 4.388 0 0 1 2.46 1.385 3.992 3.992 0 0 1 1.113 2.533l-1.836-.364a2.397 2.397 0 0 0-.751-1.304 2.686 2.686 0 0 0-1.382-.714 2.807 2.807 0 0 0-1.564.113c-.487.173-.9.47-1.241.892-.338.41-.563.898-.675 1.463a3.365 3.365 0 0 0 .064 1.627c.156.508.425.94.807 1.297a2.9 2.9 0 0 0 1.406.682 2.772 2.772 0 0 0 1.546-.116 2.486 2.486 0 0 0 1.195-.938l1.837.363c-.429.87-1.095 1.515-1.998 1.936a4.45 4.45 0 0 1-2.799.327 4.908 4.908 0 0 1-2.265-1.072 4.677 4.677 0 0 1-1.367-1.996 4.63 4.63 0 0 1-.156-2.453Zm20.826-.467-7.516 10.807-1.819-.36 2.021-2.884-2.592-9.522 1.996.394 1.832 7.519 4.224-6.32 1.854.366Z"/></svg>
