<svg xmlns="http://www.w3.org/2000/svg" width="1440" height="240" fill="none"><g clip-path="url(#a)"><path fill="url(#b)" fill-rule="evenodd" d="M1470.53 233.236h-203.29l21-24.092h182.29v24.092Zm-244.17-77.861h40.63v-16.596h-41.63l1 16.596Zm25.18-50.861h244.99V78.816h-244.99v25.698Zm27.7 21.683h-28.17V109.6h28.17v16.597Zm35 29.178h182.29v-24.092h-182.29v24.092Zm-407.103 66.717h303.213v-13.098H904.137v-24.093h309.213v6H910.137v12.093h306.213v25.098H907.137v-6Zm330.023-54.191h206.21v6h-206.21v-6Zm259.37-122.066h-247.91v6h247.91v-6Zm-198.41 109.54v-38.87h201.33v6h-195.33v32.87h-6Zm198.41-127.743h-247.91v6h247.91v-6ZM1248.62 10.5h247.91v6h-247.91v-6ZM-2.971 56.986H-20l3.704 4.77 7.166 9.23H7.899l-10.87-14Zm22.102 0H2.1l3.705 4.77 7.165 9.23h17.03l-10.87-14Zm2.938 173.45V187.61H37.93l19.639 16.906v25.92h-35.5Zm50.812-59.302v10.204h8.75v-6.176l-4.84-4.028h-3.91Zm13.75 10.204v-10.204h3.91l4.84 4.028v6.176h-8.75Zm13.75-10.204v10.204h8.75v-6.176l-4.84-4.028h-3.91Zm-46.297 5.102-.222-.222v.222H15.25v-1.611h37.223l18.796-18.796 1.61 1.611-18.795 18.796ZM24.83 78.203a3.502 3.502 0 0 0-.353.005l-.316.02a3.37 3.37 0 0 0-.333.04l-.316.052a3.146 3.146 0 0 0-.289.062l-.315.084a2.79 2.79 0 0 0-.236.073l-.315.115a2.493 2.493 0 0 0-.185.075l-.316.144a2.167 2.167 0 0 0-.14.071l-.317.172c-.037.02-.073.042-.107.064l-.316.199a1.79 1.79 0 0 0-.082.055l-.315.224c-.022.015-.043.03-.063.047l-.315.247a1.548 1.548 0 0 0-.048.039l-.316.268-.036.032-.316.287-.014.013-.013.013-.316.302-.01.01-.01.01-.316.317-.015.015-.316.326-.01.01-.316.335-.006.006-.318.34-.623.671-.006.006-.305.323-.303.314-.298.299-.292.28-.284.259-.274.234-.262.205-.245.175-.222.142-.194.106-.155.071-.108.04-.026.007-.085-.028-.139-.06-.18-.092-.213-.129-.237-.162-.256-.195-.27-.223-.28-.25-.29-.273-.295-.292-.302-.309-.306-.321-.308-.33-.004-.004-.628-.676-.32-.34-.009-.01-.316-.329-.013-.014-.315-.32-.019-.018-.316-.308a1.143 1.143 0 0 0-.024-.024l-.316-.293a1.23 1.23 0 0 0-.033-.03l-.316-.275-.02-.018-.023-.018-.315-.255a1.612 1.612 0 0 0-.057-.044l-.315-.233a1.654 1.654 0 0 0-.074-.052l-.316-.209a1.902 1.902 0 0 0-.097-.06l-.316-.183a2.163 2.163 0 0 0-.127-.068l-.316-.155a2.337 2.337 0 0 0-.167-.074l-.316-.126a2.65 2.65 0 0 0-.215-.075l-.316-.096a3.037 3.037 0 0 0-.27-.067l-.315-.065a3.29 3.29 0 0 0-.319-.048l-.315-.033a3.498 3.498 0 0 0-.35-.018l-.315-.001c-.118 0-.235.005-.35.017l-.316.031c-.109.011-.216.027-.32.048l-.316.063a2.985 2.985 0 0 0-.272.067l-.315.094a2.7 2.7 0 0 0-.218.075l-.316.125a2.377 2.377 0 0 0-.169.074l-.315.154a2.084 2.084 0 0 0-.13.068l-.315.182a1.93 1.93 0 0 0-.098.06l-.316.208-.075.052-.315.233-.012.008-.016.012a1.35 1.35 0 0 0-.03.023l-.315.255-.02.017-.009.007-.015.013-.315.274-.014.013-.02.017-.315.292a1.41 1.41 0 0 0-.025.024l-.316.308-.019.018-.316.32-.013.014-.316.329-.008.01-.316.335-.633.681-.004.004-.309.33-.306.322-.301.31-.297.292-.29.274-.28.25-.27.225-.257.196-.238.164-.214.13-.181.094-.141.06-.09.031-.022-.006-.107-.038-.153-.07-.192-.105-.221-.14-.244-.174-.261-.204-.274-.233-.284-.257-.292-.28-.297-.298-.303-.313-.308-.326-.944-1.013-.321-.34-.01-.011-.316-.327-.015-.015-.315-.316-.013-.013-.008-.007-.316-.304-.014-.014-.013-.011-.316-.288a1.38 1.38 0 0 0-.036-.032l-.315-.269a1.514 1.514 0 0 0-.047-.038l-.316-.249a1.647 1.647 0 0 0-.062-.046l-.315-.225a1.806 1.806 0 0 0-.081-.054l-.316-.2a1.984 1.984 0 0 0-.106-.064l-.316-.173a2.225 2.225 0 0 0-.14-.07l-.315-.146a2.482 2.482 0 0 0-.183-.075l-.315-.116a2.823 2.823 0 0 0-.234-.074l-.315-.085a3.092 3.092 0 0 0-.287-.063l-.316-.054a3.336 3.336 0 0 0-.331-.04l-.316-.022a3.497 3.497 0 0 0-.353-.006l-.316.01c-.116.003-.23.013-.343.028l-.316.042c-1.127.15-1.838.817-1.588 1.491.251.674 1.368 1.099 2.496.949l.107-.014.036.01.108.04.155.07.194.107.222.141.245.175.262.206.274.234.284.259.292.28.298.299.303.314.308.325.944 1.014.006.007.316.334.01.01.316.327.015.015.315.316.01.01.011.01.316.303.011.01.016.016.316.286.037.032.315.269.048.039.315.247c.02.016.041.031.063.046l.315.225.082.055.316.199c.034.022.07.043.107.063l.316.173c.046.025.093.048.142.07l.315.144c.06.028.121.053.185.076l.315.114c.076.028.155.053.236.074l.316.084c.093.025.19.046.289.062l.315.052c.11.019.22.031.333.039l.316.02c.117.008.236.01.354.006l.315-.012c.115-.004.23-.014.342-.029l.316-.043c.103-.014.205-.033.303-.057l.316-.075c.086-.02.17-.044.251-.071l.316-.106c.068-.023.135-.048.199-.075l.315-.136c.053-.023.104-.047.153-.072l.316-.165c.04-.02.079-.043.116-.066l.316-.191.089-.057.315-.218.068-.049.315-.24.023-.018.029-.023.316-.263.039-.034.316-.281.013-.013.017-.015.315-.298.008-.007.015-.015.316-.313.016-.016.316-.324.011-.012.316-.332.007-.007.316-.338.003-.003.626-.673.004-.006.307-.326.305-.317.3-.304.293-.286.287-.265.277-.242.266-.214.25-.184.23-.151.202-.117.168-.081.122-.049.051-.015.055.017.125.05.17.082.203.118.23.153.252.186.266.215.278.242.287.267.294.287.3.304.304.318.307.327.005.004.626.674.004.004.315.337.008.008.315.331.012.013.316.323.016.017.316.312.011.01.012.012.316.297.016.015.014.013.316.281.012.01.027.024.316.262.052.041.316.24a1.446 1.446 0 0 0 .068.05l.316.216c.029.02.059.038.09.057l.315.19c.038.023.077.045.118.066l.316.164c.05.025.1.05.154.073l.316.134c.065.027.132.053.2.075l.316.105c.082.027.167.05.254.071l.316.074c.099.023.201.041.305.055l.316.042c.113.015.227.024.343.028l.316.01c.117.004.236.002.353-.007l.316-.022c.112-.008.223-.02.331-.04l.316-.053c.098-.017.194-.038.287-.063l.315-.085c.08-.022.159-.046.233-.074l.316-.116a2.44 2.44 0 0 0 .183-.075l.315-.145c.049-.023.095-.046.14-.07l.316-.175c.037-.02.072-.04.106-.062l.316-.2a1.87 1.87 0 0 0 .08-.055l.316-.226.037-.026.013-.01.012-.01.316-.248.047-.039.315-.269.014-.012.022-.02.316-.287c.01-.008.018-.017.027-.026l.316-.303.01-.01.01-.01.316-.316.015-.015.316-.327.01-.01.315-.335.64-.686.307-.33.006-.007.305-.322.302-.313.299-.298.29-.28.285-.257.274-.233.26-.205.244-.173.222-.14.192-.105.153-.07.106-.038.023-.006.09.03.14.06.182.095.214.13.238.163.256.196.27.225.282.25.29.274.295.293.302.31.306.322.31.33.003.003.628.677.005.005.316.335.008.01.316.329.013.014.316.32.01.01.009.008.315.307.012.012.014.012.315.293.018.015.015.014.316.275.023.02.02.017.316.254c.688.555 1.998.671 2.926.26.928-.41 1.123-1.193.435-1.748l-.293-.237-.277-.241-.287-.266-.294-.285-.3-.304-.304-.318-.307-.326-.004-.005-.626-.673-.319-.341-.007-.008-.316-.332-.011-.012-.316-.323-.017-.017-.315-.312a1.581 1.581 0 0 0-.023-.022l-.316-.298-.012-.012-.017-.016-.316-.281a1.431 1.431 0 0 0-.04-.034l-.315-.263-.013-.01a1.356 1.356 0 0 0-.039-.03l-.315-.242a1.768 1.768 0 0 0-.068-.049l-.316-.217a2.026 2.026 0 0 0-.088-.057l-.316-.192a1.995 1.995 0 0 0-.116-.065l-.316-.165c-.049-.025-.1-.05-.153-.072l-.316-.136a2.603 2.603 0 0 0-.198-.076l-.316-.105a2.917 2.917 0 0 0-.251-.072l-.316-.075a3.201 3.201 0 0 0-.303-.056l-.316-.043a3.42 3.42 0 0 0-.342-.03l-.316-.011ZM-5.4 111.112v49.874h9.25l18.22-19.265v-30.609H-5.4Zm-3.17 62.893 13.32 10.749v53.805h5v-56.195l-15.18-12.25-3.14 3.891Zm497.052 43.266v-6.386H72.881v-13.721h415.601v-5.917H72.881v-3.637H492.5v13.19H76.899v6.448H492.5v13.659H76.899v7.571H223.5v3.637H72.881v-14.844h415.601ZM51.59 94.441v5.918h46.602v13.72h-61.62v-3.636h57.602v-6.448H47.572v-13.19h36.62v3.636H51.59Zm810.74 14.545h19.026L893.5 90.75h-19.026l-8.005 12.021-4.139 6.215Zm-227.294 113.5H616.01l14.144-15.236h19.026l-14.144 15.236Zm6.533-.001h19.025l14.144-15.235h-19.025l-14.144 15.235Zm44.584.001h-19.026l14.144-15.236h19.026l-14.144 15.236Zm6.529 0h19.026l14.144-15.236h-19.026l-14.144 15.236Zm44.584 0h-19.025l14.144-15.236h19.025l-14.144 15.236Zm6.531-.001h45.17V207.25h-31.026l-14.144 15.235Zm93.838-113.499h19.026l12.144-18.236h-19.026l-8.005 12.021-4.139 6.215Zm-18.973 91.073h-19.025V187.901h19.025v12.158Zm-18.525-78.074v42.826h15.861l19.639-16.906v-22.096h48.112v-3.824h-83.612Zm53.473 53.212h-51.473v1.612h52.862v-.222l.222.222 25.513-25.514-1.611-1.611-25.513 25.513Zm-239.598 51.5h172.862v1.612H614.012v-1.612Zm172.862 4.612H609.012v1.611h177.862v-1.611Zm-183.862 4.611h183.862v1.611H603.012v-1.611Zm259.351-12.411a3.8 3.8 0 0 1 .354-.005l.316.012c.115.004.229.014.342.029l.315.043c.104.015.205.033.304.057l.315.075c.087.02.171.044.252.071l.315.106c.069.023.135.048.199.075l.316.136.055.025.039.018.059.03.315.164c.041.021.079.043.117.065l.316.192.088.057.316.218.067.049.316.24a.438.438 0 0 0 .025.02l.011.008.015.013.316.263.024.02.015.014.316.281.03.028.316.298.008.008.014.014.316.312.017.017.315.324.012.012.316.332.007.007.318.341.626.674.005.004.307.327.304.317.3.304.294.286.286.265.278.242.293.236c.688.555.493 1.338-.435 1.749-.928.411-2.238.294-2.926-.26l-.316-.255-.022-.018-.021-.019-.316-.274-.016-.014-.017-.016-.316-.292-.013-.013-.012-.011-.316-.308-.008-.008-.01-.01-.316-.32-.013-.014-.316-.329-.009-.009-.315-.336-.005-.005-.629-.676-.003-.004-.309-.33-.306-.322-.302-.309-.296-.293-.29-.274-.281-.251-.27-.224-.257-.196-.238-.164-.213-.13-.182-.094-.14-.061-.091-.03-.022.006-.106.038-.154.07-.191.105-.222.14-.244.174-.261.204-.274.233-.284.258-.291.279-.298.298-.303.313-.305.323-.005.006-.308.33-.639.687-.316.334-.01.01-.315.327-.015.015-.316.316-.01.011-.01.01-.316.303-.016.015-.011.01-.316.288-.036.032-.316.269a.866.866 0 0 1-.047.038l-.315.249-.03.022-.016.012-.016.012-.316.225-.017.013-.021.013-.043.029-.315.2-.054.033-.02.011a.968.968 0 0 1-.033.019l-.315.173a2.038 2.038 0 0 1-.14.071l-.316.145a2.306 2.306 0 0 1-.182.075l-.316.116a1.79 1.79 0 0 1-.103.036l-.056.017-.034.01a.595.595 0 0 1-.04.011l-.316.085a3.24 3.24 0 0 1-.287.063l-.315.054c-.109.019-.22.032-.332.04l-.316.022a3.46 3.46 0 0 1-.353.006l-.316-.01a3.259 3.259 0 0 1-.343-.028l-.315-.042a3.006 3.006 0 0 1-.306-.055l-.315-.074a2.776 2.776 0 0 1-.254-.071l-.316-.104-.085-.03a2.04 2.04 0 0 1-.083-.032l-.032-.014-.316-.134-.091-.041a1.908 1.908 0 0 1-.064-.032l-.315-.163-.023-.012-.033-.018-.062-.036-.316-.191a1.371 1.371 0 0 1-.09-.057l-.315-.216-.012-.009-.017-.011-.015-.011-.025-.019-.315-.24a1.041 1.041 0 0 1-.052-.041l-.316-.261-.019-.016-.021-.019-.315-.281-.02-.017-.011-.01-.316-.298-.014-.014-.008-.008-.316-.312-.017-.017-.315-.323-.012-.012-.316-.332-.007-.008-.316-.337-.003-.003-.626-.674-.005-.005-.307-.327-.305-.318-.3-.304-.294-.287-.287-.266-.277-.243-.267-.215-.25-.185-.231-.153-.204-.118-.169-.083-.125-.05-.055-.017-.051.016-.123.048-.167.082-.203.116-.229.151-.251.184-.265.215-.278.241-.286.265-.294.287-.3.303-.304.318-.307.326-.005.005-.625.673-.004.004-.315.337-.007.008-.316.332-.012.012-.315.323-.017.017-.316.312-.022.022-.316.298-.03.028-.315.282-.02.017-.02.016-.315.263-.028.022-.024.019-.316.241a1.945 1.945 0 0 1-.067.049l-.316.217c-.028.02-.058.039-.088.057l-.316.192a1.309 1.309 0 0 1-.117.065l-.315.165a.745.745 0 0 1-.04.02l-.022.011-.015.007a1.75 1.75 0 0 1-.076.034l-.316.136a2.74 2.74 0 0 1-.199.076l-.315.105a2.534 2.534 0 0 1-.251.072l-.316.075c-.099.023-.2.042-.304.056l-.315.043a3.462 3.462 0 0 1-.202.022l-.14.008-.316.011a3.46 3.46 0 0 1-.353-.005l-.316-.021a3.684 3.684 0 0 1-.333-.038l-.316-.053-.058-.01a2.777 2.777 0 0 1-.231-.052l-.316-.084a2.8 2.8 0 0 1-.235-.073l-.316-.115a2.525 2.525 0 0 1-.184-.075l-.316-.144-.048-.023-.043-.021-.027-.014-.023-.013-.316-.172-.024-.014-.025-.014-.025-.015-.021-.013-.012-.008-.316-.199c-.028-.018-.056-.036-.082-.055l-.316-.224-.022-.016-.04-.031-.316-.247-.031-.025-.016-.014-.316-.268-.036-.032-.316-.287a.664.664 0 0 1-.028-.026l-.315-.302-.011-.011-.01-.01-.316-.316-.015-.015-.315-.326-.011-.011-.315-.334-.006-.006-.944-1.014-.308-.326-.304-.314-.298-.299-.291-.28-.285-.259-.274-.234-.261-.205-.245-.175-.223-.141-.193-.107-.155-.071-.109-.04-.036-.01-.106.014c-1.128.15-2.245-.275-2.496-.949-.251-.673.46-1.341 1.588-1.491l.315-.042c.113-.015.228-.024.344-.028l.315-.01c.118-.004.236-.001.354.007l.315.022a2.392 2.392 0 0 1 .258.028l.074.011.315.054c.099.017.194.038.287.063l.316.085.087.025c.05.015.099.032.146.049l.316.116.078.03c.035.014.07.029.104.045l.316.145a4.993 4.993 0 0 1 .14.071l.315.174.048.027.059.035.315.201a.549.549 0 0 1 .04.026l.041.028.316.226.022.016.012.008.013.011.015.011.315.248.017.013.009.008.021.018.316.269.036.032.316.287.008.007.019.019.316.303.02.02.316.316.015.015.315.327.01.011.322.34.944 1.014.307.325.303.313.298.298.292.28.283.258.274.232.261.205.244.173.222.14.191.105.154.07.106.039.022.005.091-.03.14-.06.182-.095.213-.13.239-.163.256-.196.27-.225.282-.251.289-.273.296-.293.302-.309.306-.323.309-.33.003-.003.634-.682.315-.336.009-.009.316-.329.013-.014.316-.319.018-.019.316-.307.025-.024.316-.293a.856.856 0 0 1 .033-.029l.316-.275.044-.037.315-.254.057-.044.316-.232.041-.03.034-.022.315-.208.024-.016.028-.017.046-.028.316-.181c.041-.024.085-.047.129-.069l.316-.153c.054-.027.11-.052.169-.075l.316-.124.069-.026.035-.013c.037-.013.075-.025.113-.036l.316-.095.118-.032a3.18 3.18 0 0 1 .154-.035l.315-.063c.058-.011.117-.021.176-.03.048-.007.096-.013.145-.017l.315-.032c.116-.011.233-.017.35-.017l.316.001c.117 0 .234.006.349.018l.316.033a2.713 2.713 0 0 1 .319.049l.315.064c.093.019.183.042.27.068l.315.095a2.886 2.886 0 0 1 .216.076l.316.125c.057.023.113.048.167.075l.315.154c.044.022.087.045.128.069l.316.182.041.025.022.014.009.005.025.016.315.209c.026.017.05.034.074.052l.316.233.026.02.022.017.008.007.316.255.017.014.026.023.316.275.015.014.01.009.008.007.315.293.017.015.008.008.316.308.018.019.316.32.013.013.316.33.008.009.32.341.629.676.003.003.309.33.306.322.302.308.295.293.289.272.281.25.27.224.256.194.237.163.213.128.18.093.138.059.086.028.025-.007.109-.039.155-.072.193-.106.223-.141.245-.175.261-.206.274-.234.284-.259.292-.28.298-.299.304-.314.305-.322.005-.006.624-.671.318-.341.006-.006.315-.334.01-.01.316-.327.015-.015.316-.316.021-.02.315-.303.028-.026.316-.286a.548.548 0 0 1 .036-.032l.316-.269.047-.039.316-.247.023-.018a.946.946 0 0 1 .039-.028l.316-.225.048-.033.034-.022.315-.199.056-.034a.869.869 0 0 1 .052-.029l.316-.173.057-.03.084-.04.316-.145c.059-.027.121-.052.184-.075l.316-.114.045-.016a1.434 1.434 0 0 1 .11-.035l.029-.009.018-.005.033-.009.316-.084.029-.007.027-.007a.83.83 0 0 1 .048-.011c.026-.007.053-.012.08-.018l.105-.019.316-.052.124-.019.083-.009.055-.005.038-.003.033-.003.315-.021Zm-55.924 10.726a5.875 5.875 0 1 0 0-11.75 5.875 5.875 0 0 0 0 11.75Zm430.721-49.334h206.21v6h-206.21v-6ZM740.805 46.551h-3v45h-106v6h106v5h-106v6h112v-32.5h91.5v-6h-91.5v-5.484h247v-6h-247V52.55h91.5v-6h-94.5Zm12 62h67v-24.25h-67v24.25Zm-26.317 42.26h16.676v-19.723h-16.676v19.723ZM539.742 232.92h50.563v-48h-50.563v28.572h-33.709v19.428h33.709Zm167.68-40.338h-61v-26.723l27.5-29h33.5v55.723Zm67.906-28.689h-23.919v-35.084H633.75v-6h140v.177h1.578v40.907ZM495.23 232.92h-250v-6h250v6Zm227.883-55.237h55v-6h-55v6Zm55 14h-55v-6h55v6Z" clip-rule="evenodd" opacity=".25"/><path stroke="#8F8E93" stroke-linejoin="round" stroke-width="2" d="M107 84.48H44.414L25.448 52.986H-8m0 0v111.53l21.437 15.47M-8 52.986V1h63.477l25.92 15.5H110m-3 136.413H81.397m0 0H44.414m36.983 0-25.92 27.073h-42.04m0 0v59.074H593l32-36h169.705m115-118.074h-62.587l-18.965 30.388m0 0h-33.448V179.986m33.448-64.612h55.948m25.604 37.539h-25.604l-25.919 27.073h-63.477m0 23.074v36H1354m-559.295-36v-23.074M1454 203.06h-169.7l-32 36"/><path stroke="#8F8E93" stroke-width="2" d="M793.5 1.5h53.499l11 16h60M794.5 117V1"/><circle cx="118" cy="18" r="5.5" fill="#000" stroke="#000"/><circle cx="111" cy="16" r="5.5" fill="#F0EFED" stroke="#000"/><circle cx="118" cy="86" r="5.5" fill="#000" stroke="#000"/><circle cx="111" cy="84" r="5.5" fill="#F0EFED" stroke="#000"/><circle cx="922" cy="19" r="5.5" fill="#000" stroke="#000"/><circle cx="915" cy="17" r="5.5" fill="#F0EFED" stroke="#000"/><circle cx="922" cy="87" r="5.5" fill="#000" stroke="#000"/><circle cx="915" cy="85" r="5.5" fill="#F0EFED" stroke="#000"/><circle cx="922" cy="155" r="5.5" fill="#000" stroke="#000"/><circle cx="915" cy="153" r="5.5" fill="#F0EFED" stroke="#000"/><circle cx="118" cy="155" r="5.5" fill="#000" stroke="#000"/><circle cx="111" cy="153" r="5.5" fill="#F0EFED" stroke="#000"/></g><defs><linearGradient id="b" x1="1423" x2="1425" y1="238.559" y2="-.941" gradientUnits="userSpaceOnUse"><stop stop-color="#F1EFED"/><stop offset=".503" stop-color="#A9A5A4" stop-opacity=".07"/><stop offset="1" stop-color="#F1EFED"/></linearGradient><clipPath id="a"><path fill="#fff" d="M0 0h1440v240H0z"/></clipPath></defs></svg>
