<svg xmlns="http://www.w3.org/2000/svg" width="429" height="253" fill="none"><path fill="#000" d="m43.316 27.146-8.889 3.062 8.889-3.062ZM9.71 43.431a35.271 35.271 0 0 0-3.272 3.366c-.508.593-.997 1.21-1.453 1.845-.457.634-.856 1.292-1.287 1.938a.05.05 0 0 1-.057.015.05.05 0 0 1-.018-.012.057.057 0 0 1-.015-.063.057.057 0 0 1 .012-.019c.43-.646.849-1.291 1.292-1.938.444-.647.952-1.252 1.466-1.845a34.713 34.713 0 0 1 3.28-3.363.045.045 0 0 1 .034-.002c.006.002.01.005.015.01a.05.05 0 0 1 .003.068ZM1.424 59.498c.158.761.495 1.473.985 2.075a5.286 5.286 0 0 0 1.852 1.367c.714.308 1.465.52 2.235.628.77.118 1.557.16 2.332.247a.076.076 0 0 1 .055.026.076.076 0 0 1 .018.059.082.082 0 0 1-.059.07.081.081 0 0 1-.032.002c-.782-.086-1.562-.135-2.345-.252a8.644 8.644 0 0 1-2.267-.646A5.235 5.235 0 0 1 2.3 61.672a5.021 5.021 0 0 1-1.012-2.136.063.063 0 0 1 .053-.078.07.07 0 0 1 .083.04ZM18.217 63.865l9.38-.778a.095.095 0 0 1 .1.05.107.107 0 0 1-.086.15l-9.38.76a.09.09 0 0 1-.067-.021.087.087 0 0 1-.03-.063.094.094 0 0 1 .083-.098ZM36.926 61.984l2.335-.267c.78-.102 1.562-.16 2.345-.206l4.699-.323a.125.125 0 0 1 .13.12.12.12 0 0 1-.114.13l-4.68.31c-.783.033-1.564.104-2.338.205l-2.336.255a.114.114 0 0 1-.085-.02.115.115 0 0 1-.045-.075.118.118 0 0 1 .089-.129ZM55.713 61.246l9.393.439a.151.151 0 0 1 .136.098.15.15 0 0 1 .009.059.15.15 0 0 1-.157.138l-9.388-.458a.144.144 0 0 1-.138-.145.137.137 0 0 1 .092-.123.14.14 0 0 1 .053-.008ZM74.5 61.98a93.706 93.706 0 0 0 9.395-.395.175.175 0 0 1 .188.155.176.176 0 0 1-.155.188c-3.125.289-6.259.383-9.397.359a.164.164 0 0 1-.158-.163.15.15 0 0 1 .126-.144ZM78.763 60.264l9.247-1.708a.194.194 0 0 1 .072.38l-9.26 1.69a.188.188 0 0 1-.213-.148.183.183 0 0 1 .148-.214h.006ZM111.654 56.79l9.285-1.522a.208.208 0 0 1 .219.097.208.208 0 0 1 .027.08.219.219 0 0 1-.177.253l-9.274 1.496a.203.203 0 0 1-.156-.032.207.207 0 0 1-.084-.134.211.211 0 0 1 .034-.15.21.21 0 0 1 .126-.089ZM130.303 54.27c1.572-.066 3.13-.17 4.704-.198l4.704-.198a.238.238 0 0 1 .248.228.244.244 0 0 1-.235.248l-4.699.167-4.691.198a.23.23 0 0 1-.247-.21c0-.059.023-.115.062-.159a.24.24 0 0 1 .154-.076ZM149.115 53.647l9.41-.045a.262.262 0 0 1 .262.265.246.246 0 0 1-.018.1.264.264 0 0 1-.14.143.26.26 0 0 1-.101.02l-9.411.02a.252.252 0 0 1-.097-.484.24.24 0 0 1 .095-.019ZM167.938 53.79l9.401.465a.294.294 0 0 1 .243.412.283.283 0 0 1-.276.16l-9.389-.489a.276.276 0 0 1-.17-.476.268.268 0 0 1 .191-.071ZM186.716 55.071l9.344 1.202a.317.317 0 0 1 .275.355.326.326 0 0 1-.039.118.325.325 0 0 1-.193.15.315.315 0 0 1-.123.008l-9.327-1.24a.304.304 0 0 1-.176-.122.307.307 0 0 1-.05-.208.301.301 0 0 1 .302-.263h-.013ZM205.345 57.78l2.319.387 2.336.322 4.657.639a.315.315 0 0 1 .213.126.321.321 0 0 1 .06.24.324.324 0 0 1-.238.272.32.32 0 0 1-.127.006l-4.664-.645-2.336-.328-2.319-.386a.322.322 0 0 1-.136-.574.305.305 0 0 1 .235-.058ZM223.885 61.128a22.773 22.773 0 0 1 4.366 1.92 10.804 10.804 0 0 1 3.586 3.209c.05.074.068.165.05.253a.338.338 0 0 1-.611.122 10.082 10.082 0 0 0-3.364-2.998 22.168 22.168 0 0 0-4.233-1.87.338.338 0 0 1-.195-.165.338.338 0 0 1 .146-.45.333.333 0 0 1 .255-.02ZM233.006 75.68a11.778 11.778 0 0 1-2.205 4.276 17.412 17.412 0 0 1-3.521 3.244.353.353 0 0 1-.544-.21.351.351 0 0 1 .047-.265.347.347 0 0 1 .096-.098 16.41 16.41 0 0 0 3.383-3.107 11.099 11.099 0 0 0 2.096-4.02.34.34 0 0 1 .423-.237.345.345 0 0 1 .225.418ZM218.933 87.664l-8.475 4.081a.365.365 0 0 1-.317-.658l8.476-4.062a.353.353 0 0 1 .472.168.358.358 0 0 1-.156.471ZM201.975 95.757l-8.516 4.007a.38.38 0 0 1-.414-.064.373.373 0 0 1-.022-.533.38.38 0 0 1 .118-.086l8.517-3.989a.371.371 0 0 1 .317.665ZM184.944 103.783l-8.482 4.062a.378.378 0 0 1-.147.039.389.389 0 0 1-.414-.365.406.406 0 0 1 .096-.283.389.389 0 0 1 .121-.092l8.489-4.05a.368.368 0 0 1 .293-.018.383.383 0 0 1 .129.076.388.388 0 0 1 .104.411.39.39 0 0 1-.189.22ZM168.012 111.967l-8.4 4.222a.4.4 0 0 1-.538-.181.404.404 0 0 1 .181-.538l8.419-4.217a.393.393 0 0 1 .509.188.399.399 0 0 1-.159.52l-.012.006ZM151.275 120.531l-8.251 4.493a.405.405 0 0 1-.482-.017.405.405 0 0 1-.159-.293.425.425 0 0 1 .02-.17.42.42 0 0 1 .227-.245l8.276-4.487a.427.427 0 0 1 .152-.047.417.417 0 0 1 .401.212.411.411 0 0 1-.165.554h-.019ZM134.875 129.706l-7.987 4.933a.433.433 0 0 1-.59-.145.427.427 0 0 1 .139-.583l8.025-4.941a.415.415 0 0 1 .576.133.422.422 0 0 1-.138.583l-.025.02ZM119.121 139.919c-2.533 1.827-5.013 3.734-7.394 5.756a.445.445 0 0 1-.325.109.437.437 0 0 1-.305-.158.428.428 0 0 1-.063-.494.434.434 0 0 1 .112-.136 117.514 117.514 0 0 1 7.456-5.79.435.435 0 0 1 .506.707l.013.006ZM103.226 149.877c-.784.152-1.569.279-2.369.363-.394.017-.794.071-1.203.051l-.313.013-.169.007a1.031 1.031 0 0 1-.259-.039l-.167-.094a.488.488 0 0 1-.162-.432.523.523 0 0 1 .182-.284.572.572 0 0 1 .116-.074l.143-.037.175-.007.314-.014c1.606-.161 3.167-.189 4.741-.199a.449.449 0 0 1 .352.756.446.446 0 0 1-.314.146c-1.561.034-3.134.069-4.654.196l-.275.011-.113.005.086-.054a.394.394 0 0 0 .125-.3.44.44 0 0 0-.143-.408c-.174-.112-.115-.064-.135-.076-.019-.012 0 0 .038-.002l.125-.005.276-.011c.37-.016.758-.032 1.138-.08a23.773 23.773 0 0 0 2.282-.347.447.447 0 0 1 .175.877l.008.038ZM113.649 148.848l9.389-.553a.473.473 0 0 1 .333.122.456.456 0 0 1 .15.322.454.454 0 0 1-.122.334.467.467 0 0 1-.322.149l-9.389.547a.462.462 0 0 1-.325-.757.465.465 0 0 1 .286-.164ZM132.387 147.51l9.376-.866a.47.47 0 0 1 .186.02.464.464 0 0 1 .282.236.478.478 0 0 1 .033.365.463.463 0 0 1-.233.279.467.467 0 0 1-.178.051l-9.376.86a.478.478 0 0 1-.084-.945h-.006ZM151.127 145.83l9.387-.608a.494.494 0 0 1 .348.808.498.498 0 0 1-.307.175l-9.387.59a.478.478 0 0 1-.353-.12.485.485 0 0 1 .123-.805.471.471 0 0 1 .189-.04ZM169.94 144.967l9.408-.101a.51.51 0 0 1 .472.486.51.51 0 0 1-.43.523l-9.409.089a.5.5 0 0 1-.466-.48.503.503 0 0 1 .425-.517ZM188.752 144.816l9.443-.008a.515.515 0 0 1 .367.147.5.5 0 0 1 .15.365.503.503 0 0 1-.15.367.52.52 0 0 1-.367.151l-9.413-.006a.49.49 0 0 1-.362-.145.5.5 0 0 1-.149-.361.514.514 0 0 1 .481-.51ZM207.602 144.846l9.416.087a.51.51 0 0 1 .372.157.527.527 0 0 1-.377.898l-9.417-.099a.506.506 0 0 1-.367-.155.525.525 0 0 1-.11-.569.521.521 0 0 1 .483-.319ZM226.419 145.081l9.422.231a.536.536 0 0 1-.024 1.069l-9.422-.231a.537.537 0 0 1-.474-.543.537.537 0 0 1 .499-.52l-.001-.006ZM245.228 145.635l9.43.419a.55.55 0 0 1 .215.04.544.544 0 0 1 .145.909.54.54 0 0 1-.409.127l-9.393-.421a.53.53 0 0 1-.509-.559.534.534 0 0 1 .559-.511l-.038-.004ZM264.031 146.609l9.384.823a.545.545 0 0 1 .379.197.549.549 0 0 1 .118.41.534.534 0 0 1-.391.478.543.543 0 0 1-.216.019l-9.353-.824a.55.55 0 0 1-.366-.193.535.535 0 0 1-.063-.598.544.544 0 0 1 .318-.265.533.533 0 0 1 .21-.022l-.02-.025ZM282.775 148.726l9.238 1.828a.548.548 0 1 1-.212 1.076l-9.207-1.828a.542.542 0 0 1-.41-.638.543.543 0 0 1 .623-.433l-.032-.005ZM301.176 152.827a72.183 72.183 0 0 1 8.919 3.185.554.554 0 0 1-.021 1.017.524.524 0 0 1-.211.036.52.52 0 0 1-.209-.049 71.901 71.901 0 0 0-8.791-3.133.553.553 0 0 1 .307-1.056h.006ZM318.33 160.816a20.43 20.43 0 0 1 3.4 3.417 14.548 14.548 0 0 1 2.308 4.299.544.544 0 0 1-.165.593.547.547 0 0 1-.403.132.544.544 0 0 1-.378-.191.564.564 0 0 1-.106-.188 13.362 13.362 0 0 0-2.131-3.961 19.096 19.096 0 0 0-3.217-3.237.535.535 0 0 1-.207-.368.555.555 0 0 1 .899-.496ZM322.597 177.994a29.309 29.309 0 0 1-6.065 7.39.563.563 0 0 1-.792-.042.56.56 0 0 1 .042-.793 28.024 28.024 0 0 0 5.832-7.091.546.546 0 0 1 .55-.282.55.55 0 0 1 .467.403.563.563 0 0 1-.047.422l.013-.007ZM308.114 178.743a102.076 102.076 0 0 1-8.47 4.2.561.561 0 0 1-.708-.301.564.564 0 0 1 .251-.728 118.389 118.389 0 0 0 8.385-4.121.557.557 0 0 1 .762.219.547.547 0 0 1 .049.427.552.552 0 0 1-.267.336l-.002-.032Z"/><path fill="#000" fill-rule="evenodd" d="M32.79 64.49c3.038 11.209 37.646 16.013 77.299 10.73 14.541-1.938 27.74-4.962 38.478-8.57 13.179-4.426 22.649-9.73 26.334-14.977 1.499-2.136 2.041-4.262 1.484-6.315L99.087 34.627c-8.61 1.147-16.751 2.676-24.188 4.48-12.593 3.057-23.17 6.905-30.6 11.036-8.391 4.666-12.77 9.692-11.509 14.346Z" clip-rule="evenodd"/><path fill="#F1EFED" d="M99.087 34.627c39.653-5.283 74.26-.479 77.298 10.73l-77.298-10.73Z"/><path fill="#000" d="m44.3 50.143.372.537-.373-.537Zm104.267 16.508-.278-.579.278.579ZM74.899 39.108l.228.593-.228-.593ZM174.9 51.673l-.548-.38.548.38Zm-64.976 22.942c-19.785 2.636-38.288 2.751-52.2.82-6.96-.966-12.734-2.44-16.935-4.343-4.224-1.914-6.7-4.186-7.378-6.686l-1.243.166c.842 3.105 3.83 5.637 8.188 7.611 4.382 1.986 10.309 3.485 17.336 4.46 14.065 1.953 32.692 1.829 52.56-.818l-.328-1.21ZM99.251 35.232c19.785-2.636 38.288-2.752 52.2-.82 6.961.966 12.734 2.44 16.935 4.343 4.223 1.913 6.701 4.186 7.378 6.685l1.243-.165c-.842-3.105-3.83-5.637-8.188-7.612-4.382-1.985-10.309-3.484-17.336-4.46-14.065-1.952-32.692-1.828-52.56.819l.328 1.21Zm-65.84 29.174c-.561-2.074.108-4.32 2.039-6.675 1.928-2.35 5.056-4.735 9.222-7.05l-.746-1.075c-4.225 2.35-7.482 4.812-9.526 7.304-2.04 2.489-2.93 5.083-2.231 7.662l1.243-.166Zm114.878 1.666c-10.696 3.593-23.857 6.61-38.364 8.543l.328 1.21c14.574-1.942 27.813-4.975 38.591-8.595l-.555-1.158ZM44.672 50.68c7.371-4.098 17.894-7.93 30.455-10.98l-.457-1.185c-12.623 3.063-23.254 6.927-30.744 11.091l.746 1.074ZM75.127 39.7c7.415-1.799 15.534-3.323 24.124-4.468l-.328-1.21c-8.631 1.15-16.793 2.682-24.253 4.493l.457 1.186Zm100.637 5.74c.496 1.832.034 3.794-1.411 5.853l1.096.76c1.554-2.213 2.175-4.502 1.558-6.778l-1.243.165Zm-1.411 5.853c-1.779 2.532-4.991 5.123-9.435 7.641-4.437 2.514-10.063 4.933-16.629 7.138l.555 1.158c6.615-2.222 12.312-4.669 16.827-7.226 4.506-2.553 7.872-5.237 9.778-7.951l-1.096-.76Zm2.048-6.54-77.298-10.73-.032 1.208 77.299 10.73.031-1.208Z"/><path fill="#000" fill-rule="evenodd" d="M303.336 95.312c44.21-.122 80.274-7.94 80.551-17.465.278-9.524-35.336-17.147-79.545-17.026-9.26.026-18.162.389-26.453 1.034l-54.081 16.92c.933 9.295 36.08 16.656 79.528 16.537Z" clip-rule="evenodd"/><path fill="#F1EFED" d="M223.791 78.286c-.005.164.001.327.017.49l54.081-16.92c-31.294 2.437-53.879 8.9-54.098 16.43Z"/><path fill="#000" d="m223.808 78.776-.624.082.624-.082Zm159.452-.927c-.028.98-.516 1.996-1.542 3.048-1.03 1.054-2.564 2.102-4.585 3.122-4.04 2.039-9.895 3.899-17.161 5.474-14.521 3.149-34.543 5.131-56.617 5.192l-.037 1.253c22.136-.06 42.25-2.048 56.883-5.22 7.311-1.586 13.287-3.474 17.468-5.584 2.09-1.054 3.764-2.18 4.933-3.377 1.171-1.2 1.871-2.51 1.912-3.912l-1.254.004Zm-78.937-16.401c22.074-.06 41.984 1.813 56.324 4.882 7.175 1.536 12.923 3.364 16.844 5.38 1.962 1.01 3.436 2.05 4.404 3.099.966 1.046 1.394 2.06 1.365 3.04l1.254-.004c.041-1.401-.583-2.708-1.684-3.902-1.1-1.19-2.708-2.307-4.737-3.35-4.059-2.088-9.926-3.944-17.146-5.489-14.45-3.093-34.452-4.97-56.587-4.91l-.037 1.254Zm-.968 33.237c-21.694.06-41.298-1.749-55.579-4.725-7.145-1.489-12.928-3.264-16.969-5.228-2.021-.982-3.58-2-4.654-3.03-1.074-1.033-1.624-2.041-1.721-3.008l-1.248.164c.136 1.356.89 2.611 2.085 3.76 1.197 1.15 2.876 2.232 4.961 3.245 4.169 2.026 10.063 3.826 17.252 5.324 14.388 2.998 34.081 4.81 55.836 4.751l.037-1.253Zm-78.923-15.992a3.293 3.293 0 0 1-.014-.409l-1.254.003a4.34 4.34 0 0 0 .02.57l1.248-.163Zm-.014-.409c.045-1.551 1.254-3.203 3.846-4.876 2.563-1.655 6.318-3.224 11.085-4.647 9.525-2.844 22.946-5.064 38.569-6.281l-.058-1.25c-15.671 1.221-29.19 3.451-38.835 6.331-4.818 1.438-8.706 3.05-11.418 4.8-2.683 1.733-4.379 3.713-4.443 5.926l1.254-.003Zm53.5-15.804c8.274-.644 17.161-1.007 26.405-1.032l.037-1.254c-9.275.026-18.193.39-26.5 1.036l.058 1.25Zm-53.94 16.893 54.081-16.92-.34-1.195-54.081 16.92.34 1.195Z"/><ellipse fill="#F1EFED" stroke="#000" stroke-linejoin="round" stroke-width="1.254" rx="71.163" ry="21.812" transform="matrix(.96711 -.25434 .47178 .88172 100.393 47.06)"/><ellipse fill="#F1EFED" stroke="#000" stroke-linejoin="round" stroke-width="1.254" rx="79.437" ry="23.13" transform="matrix(.99106 .1334 -.2663 .96389 307.361 64.53)"/><path fill="#000" d="M249.176 53.932c.501.06.918.213 1.253.46.342.246.564.586.667 1.018.105.424.065.926-.118 1.506l-1.003 3.169-1.132-.136.996-3.146c.159-.504.131-.923-.085-1.257-.216-.335-.558-.53-1.026-.587a1.867 1.867 0 0 0-.946.136 2.323 2.323 0 0 0-.826.578c-.227.25-.391.531-.49.844l-.959 3.032-1.132-.136 2.553-8.066 1.072.129-.985 3.112c.315-.24.664-.42 1.049-.54.384-.12.755-.158 1.112-.116Zm6.125.854-1.81 5.72-1.132-.135 1.81-5.72 1.132.135Zm.796-2.28-.398 1.259-1.263-.151.398-1.259 1.263.152Zm6.301 5.839a3.165 3.165 0 0 1-.778 1.284 3.158 3.158 0 0 1-1.365.798c.347.153.574.346.682.58.115.236.126.499.035.789-.145.457-.438.81-.879 1.058-.436.257-.928.352-1.476.286l-1.585-.19c-.54-.065-.94-.26-1.2-.583-.26-.325-.321-.708-.181-1.15.194-.61.694-.994 1.502-1.15a1.717 1.717 0 0 1-.771-1.042 2.512 2.512 0 0 1 .058-1.395 3.12 3.12 0 0 1 .809-1.304c.392-.38.852-.662 1.38-.844a3.55 3.55 0 0 1 1.601-.176c.763.092 1.321.452 1.675 1.08l.249-.79 1.073.129-.829 2.62Zm-3.558 1.473c.357.043.704.002 1.041-.124.336-.126.628-.317.873-.573.254-.254.435-.553.544-.896.106-.336.118-.647.036-.934a1.304 1.304 0 0 0-.468-.71c-.238-.186-.536-.301-.893-.344a2.18 2.18 0 0 0-1.482.345 2.152 2.152 0 0 0-.91 1.197c-.165.518-.13.97.103 1.354.241.385.626.614 1.156.685Zm-.043 2.441c.254.03.485-.009.693-.118.216-.11.354-.259.414-.45a.56.56 0 0 0-.087-.544c-.124-.158-.316-.252-.579-.284l-1.405-.168a1.139 1.139 0 0 0-.709.129.836.836 0 0 0-.413.484.507.507 0 0 0 .098.51c.134.151.328.242.582.273l1.406.168Zm9.678-6.011c.5.06.918.213 1.252.459.342.247.565.586.667 1.018.105.424.066.926-.118 1.506l-1.003 3.169-1.132-.136.996-3.146c.159-.504.131-.923-.085-1.257-.215-.335-.557-.53-1.026-.586a1.867 1.867 0 0 0-.946.135 2.32 2.32 0 0 0-.826.578c-.227.25-.39.531-.489.844l-.96 3.032-1.132-.136 2.553-8.066 1.072.129-.985 3.112c.315-.24.665-.42 1.049-.54.384-.12.755-.158 1.113-.115Zm7.543.905c.612.073 1.104.263 1.477.569.381.307.621.708.72 1.202.102.487.054 1.04-.141 1.658-.051.16-.092.278-.124.353l-4.885-.586c-.061.452.038.844.296 1.176.268.325.636.515 1.105.572.77.092 1.404-.113 1.901-.616l1.168.14c-.36.511-.852.908-1.477 1.189a3.606 3.606 0 0 1-1.911.293c-.58-.07-1.064-.258-1.453-.566a2.187 2.187 0 0 1-.76-1.195c-.117-.49-.086-1.016.092-1.58a3.707 3.707 0 0 1 .875-1.475 3.687 3.687 0 0 1 1.421-.934 3.598 3.598 0 0 1 1.696-.2Zm-.328.958a2.17 2.17 0 0 0-1.349.277c-.423.242-.744.58-.964 1.013l3.658.439c.097-.464.018-.853-.236-1.169-.247-.314-.617-.501-1.109-.56Zm8.359.005c.191.023.366.056.526.099l-.337 1.064c-.133-.048-.355-.09-.665-.128a2.088 2.088 0 0 0-1.001.118 2.264 2.264 0 0 0-.816.543 2.068 2.068 0 0 0-.478.81l-.982 3.1-1.131-.136 1.81-5.72 1.072.129-.279.88a3.16 3.16 0 0 1 1.074-.619c.408-.14.81-.188 1.207-.14Zm7.391 2.074-.956 3.02c-.077.245-.077.439.001.583.086.145.28.235.582.271.286.035.535.04.748.019l-.315.995a2.768 2.768 0 0 1-.819.009c-1.262-.152-1.706-.822-1.329-2.012l.956-3.02-1.192-.144.326-1.03 1.192.144.47-1.487 1.132.135-.47 1.488 1.668.2-.326 1.03-1.668-.2Zm6.974-.35c.191.022.366.055.526.098l-.337 1.064c-.133-.048-.355-.09-.665-.127a2.092 2.092 0 0 0-1.002.117c-.31.121-.582.302-.815.544a2.067 2.067 0 0 0-.478.81l-.982 3.1-1.132-.136 1.811-5.72 1.072.128-.279.881a3.16 3.16 0 0 1 1.074-.62c.408-.14.81-.187 1.207-.14Zm7.353 1-1.811 5.72-1.132-.135.272-.858a3.56 3.56 0 0 1-1.122.613 2.845 2.845 0 0 1-1.2.118c-.524-.063-.961-.246-1.31-.55a2.161 2.161 0 0 1-.676-1.185c-.104-.48-.065-1.005.116-1.577a3.888 3.888 0 0 1 .855-1.489c.388-.42.837-.73 1.345-.931a3.086 3.086 0 0 1 1.553-.218c.413.05.77.188 1.069.414.3.226.525.518.675.876l.293-.926 1.073.128Zm-4.483 4.474c.349.042.694-.004 1.033-.138.339-.133.635-.339.888-.617.255-.287.442-.616.56-.99.118-.374.145-.719.081-1.035a1.352 1.352 0 0 0-.443-.79 1.586 1.586 0 0 0-.874-.366 2.033 2.033 0 0 0-1.021.139 2.361 2.361 0 0 0-.879.63 2.599 2.599 0 0 0-.557.979 2.1 2.1 0 0 0-.084 1.047c.064.316.209.575.434.776.225.201.512.323.862.365Zm10.062-3.923c.484.058.886.209 1.204.453.327.245.537.583.632 1.014.105.424.065.926-.118 1.506l-1.003 3.169-1.132-.136.996-3.146c.159-.504.131-.923-.085-1.257-.215-.335-.558-.53-1.026-.586a1.934 1.934 0 0 0-.982.131 2.164 2.164 0 0 0-.795.558c-.219.25-.378.532-.477.845l-.967 3.055-1.132-.136 1.81-5.72 1.073.128-.29.916c.321-.286.682-.5 1.081-.643.41-.148.814-.199 1.211-.151Zm5.16 6.794c-.747-.09-1.325-.333-1.735-.73-.4-.405-.544-.913-.433-1.525l1.132.136c-.001.34.113.607.34.8.238.187.587.308 1.048.364.429.051.795.028 1.098-.07.305-.106.492-.266.56-.48.067-.213.029-.392-.115-.536-.134-.15-.431-.293-.891-.427l-.643-.196c-1.353-.416-1.893-1.055-1.62-1.916.159-.504.518-.88 1.075-1.13.56-.258 1.213-.342 1.959-.252.676.08 1.203.303 1.583.665.383.354.553.806.511 1.355l-1.203-.144c-.023-.24-.15-.438-.382-.592a1.78 1.78 0 0 0-.832-.302c-.413-.05-.762-.028-1.047.065-.274.086-.444.231-.509.437-.058.184-.015.347.129.49.147.137.413.26.798.37l.655.197c.769.227 1.274.51 1.513.847.242.33.288.73.139 1.204-.16.503-.523.883-1.091 1.14-.557.25-1.237.326-2.039.23Zm9.589-5.025c.524.063.96.25 1.307.56.349.304.575.695.679 1.175.104.48.065 1.005-.116 1.577a3.899 3.899 0 0 1-.854 1.489c-.389.42-.839.734-1.35.942-.508.2-1.025.27-1.549.206a2.226 2.226 0 0 1-1.04-.386 2.062 2.062 0 0 1-.666-.828l-.887 2.803-1.132-.135 2.426-7.666 1.073.129-.294.927a3.62 3.62 0 0 1 1.16-.657c.416-.14.83-.185 1.243-.136Zm-1.755 4.92c.35.042.69-.005 1.021-.139a2.39 2.39 0 0 0 .876-.62c.256-.285.442-.615.561-.989.118-.374.145-.719.08-1.035a1.368 1.368 0 0 0-.431-.788c-.225-.201-.512-.323-.861-.365a2.096 2.096 0 0 0-1.033.137 2.335 2.335 0 0 0-.892.63 2.598 2.598 0 0 0-.557.978 2.124 2.124 0 0 0-.084 1.047c.065.316.214.576.447.778.232.202.524.324.873.366Zm11.979-3.575-1.811 5.72-1.132-.135.272-.858c-.343.276-.717.48-1.122.614a2.841 2.841 0 0 1-1.199.117c-.525-.063-.961-.246-1.311-.55a2.161 2.161 0 0 1-.676-1.185c-.104-.48-.065-1.005.116-1.577a3.888 3.888 0 0 1 .855-1.489c.388-.42.837-.73 1.345-.93a3.086 3.086 0 0 1 1.553-.218c.413.05.77.187 1.069.413.3.226.525.518.675.877l.293-.927 1.073.129Zm-4.483 4.474c.349.042.694-.004 1.033-.137.339-.134.635-.34.888-.618.255-.286.442-.616.56-.99.119-.374.145-.719.081-1.035a1.352 1.352 0 0 0-.443-.79 1.585 1.585 0 0 0-.874-.366 2.032 2.032 0 0 0-1.021.14 2.359 2.359 0 0 0-.879.63 2.598 2.598 0 0 0-.557.978 2.1 2.1 0 0 0-.084 1.047c.064.316.209.575.434.776.225.201.512.323.862.365Zm10.062-3.923c.19.023.366.056.525.099l-.337 1.064c-.133-.048-.354-.09-.664-.127a2.089 2.089 0 0 0-1.002.117c-.31.12-.582.302-.815.543a2.07 2.07 0 0 0-.479.81l-.981 3.1-1.132-.136 1.81-5.72 1.073.129-.279.88a3.16 3.16 0 0 1 1.074-.619c.407-.14.81-.188 1.207-.14Zm4.481.538c.612.073 1.104.263 1.477.569.381.307.621.708.72 1.202.102.488.055 1.04-.141 1.658a4.46 4.46 0 0 1-.124.353l-4.885-.586c-.061.452.038.844.296 1.175.268.326.636.516 1.105.572.77.093 1.404-.112 1.901-.615l1.168.14c-.36.512-.852.908-1.477 1.189a3.604 3.604 0 0 1-1.911.293c-.58-.07-1.064-.258-1.453-.566a2.18 2.18 0 0 1-.759-1.195c-.118-.49-.087-1.016.092-1.58.178-.565.47-1.056.874-1.475a3.685 3.685 0 0 1 1.421-.934 3.597 3.597 0 0 1 1.696-.2Zm-.328.958a2.17 2.17 0 0 0-1.349.277c-.423.243-.744.58-.964 1.013l3.658.439c.097-.464.019-.853-.236-1.169-.247-.314-.616-.501-1.109-.56Zm8.359.005c.485.058.886.21 1.205.453.326.245.537.583.631 1.014.105.425.066.927-.118 1.506l-1.003 3.17-1.131-.136.995-3.147c.16-.503.131-.922-.084-1.257-.216-.334-.558-.53-1.027-.586a1.932 1.932 0 0 0-.981.132 2.15 2.15 0 0 0-.795.557c-.22.251-.379.533-.478.846l-.966 3.054-1.132-.135 1.81-5.72 1.072.128-.289.915c.321-.286.681-.5 1.081-.642a2.6 2.6 0 0 1 1.21-.152Zm3.469 3.504c.174-.55.471-1.032.891-1.449a3.927 3.927 0 0 1 1.484-.938 3.697 3.697 0 0 1 1.736-.208c.659.08 1.191.337 1.597.774.417.43.614.952.593 1.567l-1.239-.148a1.21 1.21 0 0 0-.428-.8c-.236-.218-.536-.35-.902-.393a2.174 2.174 0 0 0-1.084.143 2.398 2.398 0 0 0-.915.627c-.261.277-.45.599-.566.965a2.01 2.01 0 0 0-.068 1.037c.073.317.228.581.467.792.24.203.547.327.921.372a2.15 2.15 0 0 0 1.072-.145c.36-.147.655-.365.887-.653l1.239.148a3.489 3.489 0 0 1-1.508 1.327c-.64.304-1.29.416-1.949.337-.588-.07-1.083-.265-1.486-.582-.4-.325-.668-.73-.803-1.213-.133-.491-.113-1.011.061-1.56Zm14.368-1.245-5.917 7.246-1.227-.147 1.589-1.935-1.129-5.966 1.346.161.745 4.721 3.342-4.23 1.251.15ZM46.803 59.197l1.485 5.813-1.104.283-1.486-5.813 1.105-.283Zm-.525-2.343.327 1.28-1.232.314-.327-1.279 1.232-.315Zm10.085-.224a2.607 2.607 0 0 1 1.322-.015c.423.106.792.338 1.106.695.32.348.556.816.706 1.405l.823 3.22-1.104.283-.818-3.197c-.13-.512-.382-.881-.753-1.108-.364-.23-.767-.287-1.209-.174-.48.123-.825.392-1.032.808-.207.417-.248.873-.12 1.369l.793 3.104-1.105.282-.817-3.197c-.13-.511-.382-.88-.754-1.108-.364-.229-.767-.287-1.209-.174-.48.123-.824.393-1.032.809-.207.416-.247.872-.12 1.368l.793 3.105-1.105.282-1.485-5.813 1.046-.268.235.919c.128-.371.33-.692.609-.96.286-.272.615-.455.987-.55a2.583 2.583 0 0 1 1.31-.013c.42.099.782.316 1.082.652.134-.414.364-.774.69-1.08.333-.316.72-.53 1.161-.644Zm7.832-2.001a2.647 2.647 0 0 1 1.496.038c.484.15.904.422 1.262.818.357.395.61.884.758 1.465.149.582.161 1.132.038 1.65-.123.52-.36.964-.712 1.334-.353.363-.786.61-1.297.74a2.49 2.49 0 0 1-1.158.024 2.724 2.724 0 0 1-1.06-.51l.728 2.849-1.104.282-1.99-7.79 1.046-.267.24.942c.163-.397.395-.733.696-1.008a2.436 2.436 0 0 1 1.057-.567Zm1.097 5.07c.341-.087.626-.25.853-.49.228-.24.38-.531.459-.873.076-.35.065-.715-.032-1.094a2.28 2.28 0 0 0-.494-.964 1.744 1.744 0 0 0-1.807-.579 1.785 1.785 0 0 0-1.332 1.38c-.078.343-.068.704.029 1.084.097.38.262.705.497.975a1.802 1.802 0 0 0 1.827.56Zm6.532-7.02a3.82 3.82 0 0 1 .533-.099l.276 1.081a3.478 3.478 0 0 0-.675.123 1.81 1.81 0 0 0-.847.465 1.734 1.734 0 0 0-.437 1.684l.806 3.15-1.105.283-1.486-5.813 1.047-.267.229.895c.137-.366.35-.68.638-.944.293-.273.634-.459 1.022-.558Zm6.035 4.898a3.27 3.27 0 0 1-1.671.006 3.117 3.117 0 0 1-1.395-.807 3.087 3.087 0 0 1-.8-1.431 3.023 3.023 0 0 1 .018-1.627 3 3 0 0 1 .837-1.378 3.197 3.197 0 0 1 1.466-.808 3.109 3.109 0 0 1 1.65.012c.54.142 1.005.411 1.395.807.389.388.654.861.797 1.42a3.086 3.086 0 0 1-.015 1.638 3.117 3.117 0 0 1-.837 1.378 3.18 3.18 0 0 1-1.445.79Zm-.262-1.023c.357-.09.66-.26.911-.505.25-.254.42-.553.514-.9.091-.353.09-.716-.006-1.088a2.088 2.088 0 0 0-.514-.946 1.896 1.896 0 0 0-.882-.542 1.91 1.91 0 0 0-1.045-.018 1.994 1.994 0 0 0-.931.523c-.251.246-.423.545-.514.899-.093.346-.092.705.003 1.077s.267.691.517.957c.248.26.542.44.882.543.346.093.7.093 1.065 0Zm9.13-7.56-1.014 6.452-1.442.369-3.986-5.174 1.233-.315 3.218 4.206.793-5.231 1.198-.306Zm3.826-1.101c.597-.153 1.149-.158 1.656-.015.515.141.953.417 1.314.829.36.403.62.919.78 1.547.041.163.068.284.08.363l-4.767 1.218c.193.43.497.749.913.956.422.198.862.238 1.32.121.751-.192 1.216-.604 1.393-1.235l1.14-.291c-.048.59-.28 1.123-.694 1.601-.416.47-.943.786-1.578.948a3.188 3.188 0 0 1-1.633.009 2.9 2.9 0 0 1-1.346-.808 3.28 3.28 0 0 1-.782-1.46 3.213 3.213 0 0 1-.011-1.644c.137-.53.397-.981.782-1.352.39-.38.867-.643 1.433-.787Zm.227.982a1.816 1.816 0 0 0-1.076.733c-.253.37-.36.79-.323 1.26l3.57-.913c-.166-.453-.45-.776-.855-.97-.397-.196-.836-.233-1.317-.11Zm9.413-5.861 2.095 8.197-1.105.282-.223-.872c-.161.371-.389.69-.685.955-.297.258-.64.436-1.027.535-.512.13-1.01.122-1.493-.027a2.865 2.865 0 0 1-1.265-.829c-.357-.396-.61-.884-.758-1.465-.149-.582-.162-1.132-.038-1.65.123-.52.362-.96.715-1.323.35-.37.782-.62 1.294-.752a2.436 2.436 0 0 1 1.199-.009c.396.097.761.28 1.094.55l-.85-3.325 1.047-.267Zm-1.02 8.026a1.803 1.803 0 0 0 1.334-1.368c.076-.35.065-.715-.032-1.095a2.284 2.284 0 0 0-.494-.963 1.784 1.784 0 0 0-1.83-.573 1.743 1.743 0 0 0-1.309 1.375c-.078.342-.068.703.029 1.082.097.38.263.705.497.976.232.262.506.444.82.546.316.1.643.108.984.02Zm11.475-1.842c-.729.186-1.389.173-1.98-.04a2.056 2.056 0 0 1-1.228-1.221l1.104-.282c.186.307.435.508.748.601.319.084.703.068 1.153-.047.418-.107.738-.259.961-.456.22-.205.302-.416.247-.633a.611.611 0 0 0-.399-.443c-.204-.088-.552-.11-1.045-.067l-.692.053c-1.459.109-2.3-.275-2.524-1.151-.131-.512-.011-.98.36-1.405.368-.432.916-.742 1.645-.928.659-.168 1.26-.157 1.805.034.542.184.944.53 1.207 1.042l-1.174.3c-.153-.209-.376-.342-.672-.398a1.982 1.982 0 0 0-.922.025c-.403.103-.709.247-.918.432-.202.176-.277.369-.224.578.048.186.177.318.387.397.208.07.517.086.928.047l.704-.056c.825-.07 1.438.004 1.841.223.401.212.663.558.785 1.038.131.512.008.985-.368 1.42-.37.424-.947.737-1.729.937Zm5.415-7.825c.597-.152 1.149-.157 1.656-.014.515.14.953.417 1.314.828.359.404.619.92.779 1.548.042.162.069.284.081.363l-4.767 1.218c.192.43.497.748.913.956.422.197.862.238 1.319.121.752-.192 1.216-.604 1.394-1.236l1.139-.29c-.047.59-.278 1.123-.693 1.6-.417.47-.943.787-1.578.95a3.19 3.19 0 0 1-1.633.008 2.902 2.902 0 0 1-1.346-.808 3.281 3.281 0 0 1-.782-1.46 3.218 3.218 0 0 1-.011-1.644 2.82 2.82 0 0 1 .781-1.352c.39-.38.868-.643 1.434-.788Zm.226.983a1.817 1.817 0 0 0-1.076.733c-.252.37-.359.79-.322 1.26l3.569-.913c-.165-.453-.45-.777-.855-.97-.396-.196-.835-.233-1.316-.11Zm4.952.914a3.033 3.033 0 0 1 .018-1.627c.153-.534.431-.993.837-1.378a3.193 3.193 0 0 1 1.466-.808 2.921 2.921 0 0 1 1.877.127c.615.24 1.081.64 1.398 1.204l-1.209.309a1.596 1.596 0 0 0-.827-.57 1.79 1.79 0 0 0-1.036-.032 1.869 1.869 0 0 0-.908.517 1.838 1.838 0 0 0-.491.893c-.085.344-.08.702.015 1.074.095.372.263.692.505.96.24.261.527.444.859.55.33.097.678.099 1.042.006.356-.092.655-.263.897-.514.247-.262.396-.564.449-.908l1.209-.309a2.712 2.712 0 0 1-.646 1.738 2.962 2.962 0 0 1-1.589 1 3.272 3.272 0 0 1-1.671.007 3.116 3.116 0 0 1-1.395-.808 3.084 3.084 0 0 1-.8-1.43Zm12.148-6.2 1.485 5.813-1.046.267-.238-.93c-.135.373-.349.7-.641.981a2.247 2.247 0 0 1-1.01.556c-.472.12-.924.129-1.356.024a2.318 2.318 0 0 1-1.127-.678c-.322-.355-.558-.828-.708-1.416l-.824-3.221 1.105-.282.817 3.197c.131.511.386.88.765 1.105.38.225.798.279 1.256.162a1.66 1.66 0 0 0 .812-.455 1.62 1.62 0 0 0 .415-.8 1.97 1.97 0 0 0-.016-.937l-.794-3.104 1.105-.282Zm5.378-1.499c.186-.047.363-.08.532-.099l.276 1.082a3.478 3.478 0 0 0-.674.123 1.814 1.814 0 0 0-.848.464 1.735 1.735 0 0 0-.436 1.684l.805 3.151-1.105.282-1.485-5.813 1.046-.267.229.895c.138-.365.35-.68.638-.943a2.32 2.32 0 0 1 1.022-.559Zm3.406-.746 1.485 5.813-1.104.282-1.486-5.813 1.105-.282Zm-.525-2.343.327 1.279-1.232.314-.327-1.278 1.232-.315Zm4.686 2.394.784 3.07c.063.248.174.422.332.522.165.098.407.106.724.025.295-.075.545-.164.75-.266l.258 1.012c-.207.127-.465.23-.775.31-.636.162-1.155.133-1.558-.086-.404-.227-.683-.639-.836-1.235l-.784-3.07-1.163.297-.267-1.046 1.163-.297-.387-1.511 1.105-.283.386 1.512 2.907-.743.267 1.046-2.906.743Zm8.713-3.341-1.416 8.66-1.197.306.386-2.316-4.296-4.983 1.314-.336 3.263 3.996.725-5.015 1.221-.312Z"/><path fill="#000" fill-rule="evenodd" d="M51.906 153.48c2.721 13.71 33.278 19.476 68.251 12.88 17.741-3.346 33.211-9.231 43.793-16.007 10.278-6.581 15.944-14.004 14.604-20.759l-30.982-15.238a109.525 109.525 0 0 0-6.072-.328c-9.457-.254-20.105.595-31.197 2.687-34.973 6.596-61.118 23.056-58.397 36.765Z" clip-rule="evenodd"/><path stroke="#000" stroke-width="1.254" d="M178.554 129.594c1.34 6.755-4.326 14.178-14.604 20.759-10.582 6.776-26.052 12.661-43.793 16.007-34.973 6.596-65.53.83-68.25-12.88-2.722-13.709 23.423-30.169 58.396-36.765 11.092-2.092 21.74-2.941 31.197-2.687 2.085.056 4.111.166 6.072.328m30.982 15.238c-1.668-8.402-13.793-13.821-30.982-15.238m30.982 15.238-30.982-15.238"/><ellipse fill="#F1EFED" stroke="#000" stroke-linejoin="round" stroke-width="1.254" rx="63.701" ry="25.568" transform="matrix(.94056 -.33963 .39214 .9199 110.065 131.676)"/><path fill="#000" d="m66.5 144.696 1.894 5.315-1.01.36-1.894-5.315 1.01-.36Zm-.694-2.149.417 1.169-1.127.402-.417-1.169 1.127-.402Zm5.598.282c.432-.154.851-.2 1.257-.137.413.061.785.244 1.117.549.337.295.602.712.794 1.25l1.049 2.945-1.01.36-1.042-2.923c-.166-.468-.437-.791-.812-.969-.375-.178-.771-.192-1.19-.043a1.56 1.56 0 0 0-1.051 1.285c-.032.291.004.581.107.872l1.011 2.838-1.01.36-1.893-5.315.957-.341.303.851a2.33 2.33 0 0 1 .508-.96c.249-.289.55-.496.905-.622Zm8.253 3.289c-.666.237-1.285.282-1.857.134a1.932 1.932 0 0 1-1.256-1.038l1.01-.359c.2.272.451.438.752.498.306.051.664.003 1.075-.143.383-.137.67-.307.86-.51.189-.211.248-.416.177-.614a.572.572 0 0 0-.411-.381c-.199-.065-.527-.056-.985.027l-.643.11c-1.357.228-2.178-.059-2.463-.86-.167-.468-.095-.916.215-1.346.308-.437.794-.774 1.46-1.012.603-.214 1.167-.256 1.694-.124.523.125.93.415 1.22.871l-1.073.383c-.161-.183-.382-.288-.664-.315-.284-.035-.57 0-.861.103-.369.132-.643.293-.822.485-.175.182-.228.368-.16.56.06.17.193.283.396.338.201.048.492.036.874-.036l.654-.113c.766-.137 1.347-.121 1.743.05.394.163.669.464.825.904.167.467.093.921-.222 1.36-.31.43-.822.773-1.538 1.028Zm3.755-6.37 1 2.807c.08.227.196.381.345.464.156.08.369.072.638-.024.255-.091.464-.189.626-.295l.33.925a2.387 2.387 0 0 1-.668.346c-1.127.401-1.887.049-2.281-1.056l-1-2.807-1.063.379-.34-.957 1.062-.378-.492-1.382 1.01-.36.492 1.382 1.488-.53.341.956-1.488.53Zm7.581-3.779 1.894 5.315-1.01.36-.284-.797c-.119.362-.305.68-.559.954a2.336 2.336 0 0 1-.916.589 2.538 2.538 0 0 1-1.4.104 2.688 2.688 0 0 1-1.256-.667c-.369-.339-.648-.775-.837-1.307a3.198 3.198 0 0 1-.178-1.541c.07-.497.256-.93.555-1.3a2.48 2.48 0 0 1 1.147-.816 2.288 2.288 0 0 1 1.122-.112c.38.056.737.196 1.072.42l-.307-.861.957-.341Zm-1.038 5.425a1.696 1.696 0 0 0 1.131-1.397c.041-.334 0-.675-.124-1.022a2.138 2.138 0 0 0-.546-.859 1.679 1.679 0 0 0-1.764-.378 1.634 1.634 0 0 0-.756.533c-.193.244-.31.533-.35.867-.043.327-.003.664.12 1.011.124.348.308.638.55.871.24.226.512.372.816.44.304.067.611.046.923-.066Zm5.946-7.293c.432-.154.851-.2 1.257-.137.413.061.785.244 1.118.549.336.295.6.712.793 1.25l1.049 2.945-1.01.36-1.042-2.923c-.166-.468-.437-.791-.812-.969-.375-.178-.771-.192-1.19-.043a1.56 1.56 0 0 0-1.05 1.285c-.033.291.003.581.106.872l1.011 2.838-1.01.36-1.893-5.315.957-.341.303.851a2.33 2.33 0 0 1 .508-.96c.249-.289.55-.496.905-.622Zm6.016-.946 1 2.807c.081.226.196.381.345.464.156.08.369.072.638-.024.256-.091.464-.189.626-.295l.33.925a2.388 2.388 0 0 1-.668.346c-1.127.401-1.887.049-2.281-1.057l-1-2.806-1.063.379-.34-.957 1.062-.379-.492-1.382 1.01-.359.492 1.382 1.488-.531.341.957-1.488.53Zm8.029-2.86 1 2.806c.08.227.195.382.345.464.156.08.369.072.638-.024.255-.091.464-.189.626-.294l.329.924a2.355 2.355 0 0 1-.667.346c-1.127.401-1.887.049-2.281-1.056l-1-2.806-1.063.378-.341-.956 1.063-.379-.492-1.382 1.01-.36.492 1.382 1.488-.53.341.957-1.488.53Zm5.521-3.165c.17-.061.333-.107.49-.139l.352.989a3.278 3.278 0 0 0-.621.173 1.711 1.711 0 0 0-.754.508 1.634 1.634 0 0 0-.263 1.615l1.027 2.881-1.01.36-1.894-5.315.957-.341.291.818c.098-.354.27-.667.516-.938.252-.281.554-.485.909-.611Zm6.63-2.243 1.893 5.315-1.01.36-.284-.797a2.56 2.56 0 0 1-.558.954 2.357 2.357 0 0 1-.916.59 2.549 2.549 0 0 1-1.401.103 2.69 2.69 0 0 1-1.256-.666 3.22 3.22 0 0 1-.837-1.307 3.217 3.217 0 0 1-.178-1.542c.071-.497.256-.93.556-1.3a2.492 2.492 0 0 1 1.146-.816 2.289 2.289 0 0 1 1.122-.112c.38.056.737.196 1.073.42l-.307-.861.957-.341Zm-1.038 5.426a1.699 1.699 0 0 0 1.131-1.398 2.21 2.21 0 0 0-.125-1.022 2.137 2.137 0 0 0-.545-.859 1.68 1.68 0 0 0-1.764-.378 1.645 1.645 0 0 0-.757.533 1.71 1.71 0 0 0-.35.867c-.043.327-.003.664.121 1.011.124.348.307.638.55.871.24.226.512.372.815.44.304.067.612.046.924-.065Zm3.741-3.394a2.84 2.84 0 0 1-.124-1.525 2.82 2.82 0 0 1 .664-1.363 3.006 3.006 0 0 1 1.303-.883 2.75 2.75 0 0 1 1.769-.044 2.507 2.507 0 0 1 1.413 1.007l-1.106.393a1.501 1.501 0 0 0-.823-.461 1.682 1.682 0 0 0-.973.059 1.757 1.757 0 0 0-.806.563 1.726 1.726 0 0 0-.382.879c-.05.329-.015.664.107 1.004.121.34.306.625.556.856.247.223.531.37.852.439.317.063.643.035.976-.084.326-.116.591-.302.795-.559.209-.266.323-.562.342-.888l1.106-.394a2.557 2.557 0 0 1-.455 1.683 2.789 2.789 0 0 1-1.402 1.075 3.083 3.083 0 0 1-1.564.149 2.94 2.94 0 0 1-1.376-.635c-.4-.337-.69-.761-.872-1.271Zm8.811-2.924-.491.942.636 1.786-1.01.36-2.67-7.494 1.01-.36 1.617 4.539 1.636-3.243 1.34-.477-1.563 2.977 3.68 2.259-1.35.481-2.835-1.77Zm4.731-4.896 1.894 5.315-1.01.36-1.893-5.315 1.009-.36Zm-.693-2.149.416 1.17-1.126.401-.417-1.169 1.127-.402Zm5.597.282a2.542 2.542 0 0 1 1.257-.136c.413.06.786.243 1.118.548.337.295.601.712.793 1.251l1.049 2.944-1.01.36-1.041-2.923c-.167-.468-.437-.791-.812-.969-.375-.178-.772-.192-1.19-.043a1.57 1.57 0 0 0-.728.511 1.557 1.557 0 0 0-.323.774 1.93 1.93 0 0 0 .107.872l1.011 2.839-1.01.359-1.894-5.315.957-.341.303.851c.095-.361.265-.681.509-.96a2.11 2.11 0 0 1 .904-.622Zm10.151-.765c.162.453.202.902.121 1.346-.082.445-.298.845-.65 1.202.375-.022.676.039.903.182.234.14.398.345.494.614.152.425.12.828-.096 1.209-.207.385-.554.664-1.043.838l-1.414.504c-.482.172-.925.182-1.331.031a1.336 1.336 0 0 1-.827-.843c-.202-.567-.018-1.08.554-1.539a2.13 2.13 0 0 1-1.249-.514 2.66 2.66 0 0 1-.777-1.137c-.164-.46-.2-.919-.107-1.375.098-.466.309-.881.635-1.245a2.92 2.92 0 0 1 1.211-.803c.681-.242 1.352-.186 2.013.17l-.261-.734.957-.341.867 2.435Zm-2.051 2.647a1.77 1.77 0 0 0 .781-.53c.202-.239.329-.512.38-.818.057-.308.03-.621-.084-.94a1.697 1.697 0 0 0-.522-.76 1.619 1.619 0 0 0-.804-.373 1.855 1.855 0 0 0-.937.094c-.475.169-.812.465-1.013.888-.196.414-.21.858-.041 1.332.172.482.467.828.885 1.039.426.208.877.23 1.355.068Zm1.407 1.967a.919.919 0 0 0 .499-.382.58.58 0 0 0 .075-.53.64.64 0 0 0-.394-.398c-.194-.075-.408-.07-.642.013l-1.254.447c-.234.083-.403.215-.506.396a.64.64 0 0 0-.053.558c.063.177.19.299.382.366a.973.973 0 0 0 .639-.023l1.254-.447Z"/><path fill="#000" fill-rule="evenodd" d="M324.62 191.724c36.182.393 65.598-7.004 65.701-16.521.103-9.517-29.144-17.55-65.327-17.943-7.578-.083-14.859.177-21.637.726l-44.043 16.284c.885 9.301 29.747 17.068 65.306 17.454Z" clip-rule="evenodd"/><path stroke="#000" stroke-width="1.254" d="M259.314 174.27c.885 9.301 29.747 17.068 65.306 17.454 36.182.393 65.598-7.004 65.701-16.521.103-9.517-29.144-17.55-65.327-17.943-7.578-.083-14.859.177-21.637.726m-44.043 16.284a4.711 4.711 0 0 1-.02-.49c.082-7.523 18.482-13.722 44.063-15.794m-44.043 16.284 44.043-16.284"/><ellipse cx="326.936" cy="162.041" fill="#F1EFED" stroke="#000" stroke-linejoin="round" stroke-width="1.254" rx="65.517" ry="22.637" transform="rotate(11.045 326.936 162.041)"/><path fill="#000" d="M281.091 150.264c.518.102.963.329 1.334.68.372.343.634.77.786 1.281.152.511.169 1.061.053 1.649-.117.589-.342 1.091-.677 1.506a2.87 2.87 0 0 1-1.218.896 2.702 2.702 0 0 1-1.489.109 2.48 2.48 0 0 1-1.055-.478 2.718 2.718 0 0 1-.736-.916l-.175.883-1.118-.222 1.642-8.299 1.06.21-.667 3.367a2.771 2.771 0 0 1 1.063-.61c.39-.118.789-.137 1.197-.056Zm-1.194 5.048c.345.068.672.043.981-.075.309-.118.572-.315.789-.59.219-.283.367-.616.443-1.001a2.285 2.285 0 0 0-.03-1.082 1.818 1.818 0 0 0-.503-.858 1.746 1.746 0 0 0-.879-.443 1.797 1.797 0 0 0-.993.072 1.791 1.791 0 0 0-.804.6 2.281 2.281 0 0 0-.44.989c-.076.384-.067.749.028 1.094a1.806 1.806 0 0 0 1.408 1.294Zm8.459-3.61c.604.119 1.104.353 1.5.7.404.349.681.787.829 1.314.15.519.162 1.097.037 1.732a4.441 4.441 0 0 1-.084.363l-4.827-.955c-.011.47.126.889.412 1.256.296.36.675.586 1.138.677.761.151 1.358-.02 1.79-.514l1.154.229c-.297.512-.736.894-1.316 1.146a3.071 3.071 0 0 1-1.833.175 3.182 3.182 0 0 1-1.477-.696 2.893 2.893 0 0 1-.866-1.309 3.276 3.276 0 0 1-.076-1.654 3.21 3.21 0 0 1 .698-1.489 2.821 2.821 0 0 1 1.288-.883 3.11 3.11 0 0 1 1.633-.092Zm-.219.984a1.812 1.812 0 0 0-1.287.198 1.902 1.902 0 0 0-.834.997l3.614.715c.046-.48-.071-.895-.353-1.244-.274-.348-.654-.57-1.14-.666Zm6.333 1.449-.615 3.108c-.05.251-.025.456.074.614.107.16.322.272.643.335a3.8 3.8 0 0 0 .791.083l-.202 1.025c-.242.025-.52.007-.834-.055-.643-.128-1.099-.377-1.368-.748-.268-.379-.342-.871-.222-1.475l.615-3.108-1.177-.233.209-1.06 1.178.233.302-1.53 1.119.221-.303 1.531 2.943.582-.21 1.06-2.943-.583Zm4.854.961-.615 3.108c-.05.251-.029.455.062.611.099.159.298.267.596.326.283.056.527.08.732.072l-.203 1.024a2.5 2.5 0 0 1-.797-.048c-1.248-.247-1.751-.983-1.509-2.207l.615-3.108-1.177-.233.21-1.059 1.177.233.303-1.53 1.118.221-.303 1.53 1.648.327-.209 1.059-1.648-.326Zm6.133-.01c.604.12 1.104.354 1.501.701.403.349.68.787.828 1.314.15.519.162 1.096.037 1.732a4.441 4.441 0 0 1-.084.363l-4.827-.956c-.011.471.126.89.412 1.256.296.361.675.586 1.138.678.762.151 1.358-.021 1.79-.514l1.154.228c-.297.512-.736.894-1.316 1.147a3.079 3.079 0 0 1-1.833.175 3.182 3.182 0 0 1-1.477-.696 2.898 2.898 0 0 1-.866-1.309 3.277 3.277 0 0 1-.076-1.654 3.21 3.21 0 0 1 .698-1.489c.352-.42.782-.714 1.288-.883a3.12 3.12 0 0 1 1.633-.093Zm-.219.985a1.812 1.812 0 0 0-1.287.198 1.902 1.902 0 0 0-.834.997l3.614.715c.046-.48-.071-.895-.353-1.244-.274-.348-.654-.57-1.14-.666Zm8.154.586c.188.037.363.084.523.14l-.217 1.095a3.543 3.543 0 0 0-.662-.18 1.813 1.813 0 0 0-.964.054 1.73 1.73 0 0 0-1.12 1.332l-.632 3.19-1.118-.222 1.165-5.885 1.059.209-.179.907c.282-.271.609-.463.983-.577.382-.12.77-.141 1.162-.063Zm8.672 1.716c.604.12 1.104.353 1.5.701.404.349.68.787.829 1.314.15.519.162 1.096.036 1.732-.032.165-.06.286-.084.362l-4.826-.955c-.012.471.126.89.412 1.256.296.36.675.586 1.138.678.761.151 1.358-.021 1.79-.514l1.154.228c-.297.512-.736.894-1.316 1.146a3.071 3.071 0 0 1-1.833.176 3.202 3.202 0 0 1-1.477-.696 2.903 2.903 0 0 1-.866-1.309 3.291 3.291 0 0 1-.077-1.655c.115-.58.348-1.077.699-1.488.352-.42.781-.714 1.288-.883a3.12 3.12 0 0 1 1.633-.093Zm-.219.984a1.822 1.822 0 0 0-1.287.198 1.905 1.905 0 0 0-.834.998l3.614.715c.046-.48-.072-.895-.353-1.244-.274-.348-.654-.57-1.14-.667Zm8.442 1.867-2.049-.405-.955 4.826-1.118-.221.955-4.827-1.177-.233.209-1.059 1.178.233.125-.636c.12-.604.383-1.025.789-1.263.415-.244.964-.298 1.647-.163a5.373 5.373 0 0 1 1.026.313l-.202 1.024c-.211-.09-.543-.181-.999-.271-.369-.073-.641-.057-.816.047-.168.105-.277.283-.326.535l-.126.635 2.048.406-.209 1.059Zm6.6 1.306-4.002-.792-.955 4.827-1.119-.222.956-4.826-1.178-.233.21-1.059 1.177.233.126-.636c.12-.604.382-1.025.788-1.263.416-.244.965-.299 1.647-.163a5.318 5.318 0 0 1 1.027.313l-.203 1.024c-.21-.091-.543-.181-.998-.271-.369-.073-.641-.058-.817.046-.167.106-.276.284-.326.535l-.125.636 4.002.792-.21 1.059Zm.855-.931-1.165 5.885-1.119-.221 1.165-5.886 1.119.222Zm.536-2.341-.256 1.295-1.248-.247.256-1.295 1.248.247Zm.822 5.668a3.03 3.03 0 0 1 .717-1.461 3.008 3.008 0 0 1 1.349-.883 3.197 3.197 0 0 1 1.671-.097 2.927 2.927 0 0 1 1.64.924c.451.48.699 1.043.742 1.688l-1.224-.242a1.587 1.587 0 0 0-.501-.87 1.785 1.785 0 0 0-.921-.476 1.868 1.868 0 0 0-1.042.075 1.825 1.825 0 0 0-.827.595 2.15 2.15 0 0 0-.45.975c-.075.377-.061.738.042 1.085.104.339.283.627.538.865.256.23.569.381.938.454.361.072.704.046 1.03-.077.336-.129.601-.338.797-.625l1.224.242c-.286.58-.73 1.01-1.332 1.29a2.963 2.963 0 0 1-1.865.218 3.262 3.262 0 0 1-1.51-.715 3.11 3.11 0 0 1-.911-1.33 3.078 3.078 0 0 1-.105-1.635Zm9.452-1.188-1.165 5.886-1.118-.221 1.165-5.886 1.118.221Zm.537-2.34-.257 1.295-1.247-.247.256-1.295 1.248.247Zm4.441 3.203c.604.12 1.104.353 1.5.701.404.349.681.787.829 1.314.15.519.162 1.096.037 1.732a4.394 4.394 0 0 1-.084.362l-4.827-.955a1.91 1.91 0 0 0 .412 1.256c.296.36.675.586 1.138.678.761.15 1.358-.021 1.79-.514l1.154.228c-.297.512-.736.894-1.316 1.146a3.071 3.071 0 0 1-1.833.176 3.202 3.202 0 0 1-1.477-.696 2.903 2.903 0 0 1-.866-1.309 3.28 3.28 0 0 1-.076-1.655c.115-.58.347-1.077.698-1.488.352-.42.781-.714 1.288-.883a3.12 3.12 0 0 1 1.633-.093Zm-.219.984a1.822 1.822 0 0 0-1.287.198 1.906 1.906 0 0 0-.834.997l3.614.716c.046-.481-.071-.895-.353-1.245-.274-.347-.654-.569-1.14-.666Zm8.154.587c.479.094.886.281 1.223.56.344.28.584.65.722 1.109.147.453.161.978.043 1.574l-.645 3.261-1.119-.221.641-3.237c.103-.518.031-.961-.214-1.327-.246-.367-.6-.596-1.063-.688a1.666 1.666 0 0 0-.944.07 1.659 1.659 0 0 0-.716.531 2.07 2.07 0 0 0-.378.855l-.622 3.143-1.118-.221 1.165-5.886 1.059.21-.186.942c.283-.279.612-.479.987-.6a2.243 2.243 0 0 1 1.165-.075Zm3.751 3.923a3.03 3.03 0 0 1 .717-1.461 3.008 3.008 0 0 1 1.349-.883 3.197 3.197 0 0 1 1.671-.097 2.927 2.927 0 0 1 1.64.924c.451.48.699 1.043.742 1.688l-1.224-.242a1.587 1.587 0 0 0-.501-.87 1.785 1.785 0 0 0-.921-.476 1.868 1.868 0 0 0-1.042.075 1.83 1.83 0 0 0-.827.595 2.15 2.15 0 0 0-.45.975c-.075.377-.061.738.042 1.085.104.338.284.627.538.865.256.23.569.381.938.454.361.072.704.046 1.03-.077.336-.129.601-.338.797-.625l1.224.242c-.286.58-.73 1.01-1.332 1.29a2.963 2.963 0 0 1-1.865.218 3.267 3.267 0 0 1-1.51-.715 3.11 3.11 0 0 1-.911-1.33 3.078 3.078 0 0 1-.105-1.635Zm13.884-.311-5.01 7.205-1.213-.24 1.347-1.923-1.728-6.349 1.33.264 1.222 5.012 2.816-4.213 1.236.244ZM428.287 240.106a55.609 55.609 0 0 0-6.835-1.385.167.167 0 0 1-.146-.193.172.172 0 0 1 .193-.146c2.316.328 4.61.801 6.868 1.415a.16.16 0 0 1 .096.075c.01.018.017.038.02.059a.162.162 0 0 1-.078.157.158.158 0 0 1-.118.018ZM414.503 238.02l-6.992-.267a.2.2 0 0 1-.169-.202.197.197 0 0 1 .183-.188l7.015.289a.183.183 0 0 1 .127.059.184.184 0 0 1-.011.258.183.183 0 0 1-.132.048l-.021.003ZM400.506 237.8l-7.002.268a.22.22 0 0 1-.196-.211.217.217 0 0 1 .049-.146.218.218 0 0 1 .132-.078l6.996-.251a.197.197 0 0 1 .146.056.202.202 0 0 1 .062.144.191.191 0 0 1-.051.147.212.212 0 0 1-.065.047.213.213 0 0 1-.078.016l.007.008ZM386.515 238.497l-7.027.501a.235.235 0 0 1-.171-.06.242.242 0 0 1-.022-.335.237.237 0 0 1 .162-.079l6.99-.466a.236.236 0 0 1 .243.216.232.232 0 0 1-.175.223ZM372.52 239.345l-6.986.585a.255.255 0 0 1-.213-.419.252.252 0 0 1 .173-.088l7.004-.579a.23.23 0 0 1 .094.01.233.233 0 0 1 .166.212.245.245 0 0 1-.057.176.246.246 0 0 1-.165.084l-.016.019ZM358.574 240.669l-6.95.884a.27.27 0 0 1-.102-.007.262.262 0 0 1 .037-.514l6.961-.871a.256.256 0 0 1 .285.221.254.254 0 0 1-.126.254.242.242 0 0 1-.095.031l-.01.002ZM344.688 242.529l-6.927 1.05a.275.275 0 0 1-.249-.227.275.275 0 0 1 .156-.299l6.936-1.032a.27.27 0 0 1 .174.064c.048.042.08.099.09.162a.268.268 0 0 1-.185.295l.005-.013ZM330.831 244.664l-6.933 1.097a.28.28 0 0 1-.236-.034.285.285 0 0 1-.131-.2.297.297 0 0 1 .064-.23.29.29 0 0 1 .215-.104l6.929-1.069a.282.282 0 0 1 .271.446.282.282 0 0 1-.185.112l.006-.018ZM316.974 246.785l-6.94 1.001a.305.305 0 0 1-.285-.482.304.304 0 0 1 .197-.117l6.938-.981a.304.304 0 0 1 .297.142.305.305 0 0 1 .037.11.29.29 0 0 1-.244.327ZM303.076 248.692l-6.971.788a.32.32 0 0 1-.241-.058.305.305 0 0 1-.084-.095.304.304 0 0 1-.028-.247.307.307 0 0 1 .16-.19.33.33 0 0 1 .123-.032l6.963-.776a.312.312 0 0 1 .327.148.302.302 0 0 1 .039.121.3.3 0 0 1-.012.126.302.302 0 0 1-.286.217l.01-.002ZM289.114 250.117l-7.005.451a.334.334 0 0 1-.238-.081.331.331 0 0 1-.031-.465.33.33 0 0 1 .226-.111l6.988-.431a.323.323 0 0 1 .039.64l.021-.003ZM275.091 250.786l-7.026-.041a.34.34 0 0 1-.21-.57.342.342 0 0 1 .219-.109l6.996.056a.328.328 0 0 1 .234.099.34.34 0 0 1 .072.108.35.35 0 0 1 .024.128.322.322 0 0 1-.089.226.324.324 0 0 1-.22.103ZM261.051 250.391l-6.993-.701a.363.363 0 0 1-.238-.128.357.357 0 0 1 .05-.497.357.357 0 0 1 .259-.078l6.954.714a.348.348 0 0 1 .298.246.347.347 0 0 1-.33.444ZM247.11 248.595l-3.442-.708a25.037 25.037 0 0 1-3.399-1.035.363.363 0 0 1-.044-.672.368.368 0 0 1 .278-.018c1.075.415 2.177.752 3.3 1.01l3.421.711a.356.356 0 0 1 .281.422.36.36 0 0 1-.395.29ZM233.907 243.768a59.093 59.093 0 0 1-5.878-3.894.382.382 0 0 1-.146-.248.376.376 0 0 1 .598-.354 58.816 58.816 0 0 0 5.798 3.852.38.38 0 0 1 .138.511.375.375 0 0 1-.51.133ZM222.638 235.336a48.786 48.786 0 0 1-4.755-5.221.395.395 0 0 1-.101-.297.395.395 0 0 1 .604-.297c.046.03.085.068.114.113a48.125 48.125 0 0 0 4.668 5.147.378.378 0 0 1 .117.271.374.374 0 0 1-.11.274.383.383 0 0 1-.412.091.396.396 0 0 1-.125-.081ZM214.082 224.134a22.284 22.284 0 0 1-2.136-6.784.41.41 0 0 1 .009-.156.4.4 0 0 1 .781.055 21.35 21.35 0 0 0 2.061 6.541.397.397 0 0 1 .02.3.403.403 0 0 1-.199.227.42.42 0 0 1-.151.041.41.41 0 0 1-.29-.099.403.403 0 0 1-.095-.125ZM212.57 210.241a16.284 16.284 0 0 1 1.511-3.255 15.47 15.47 0 0 1 .996-1.478l1.066-1.421a.405.405 0 0 1 .565-.079.404.404 0 0 1 .079.565l-.009.027-1.034 1.387c-.356.45-.682.923-.976 1.416a15.685 15.685 0 0 0-1.436 3.093.398.398 0 0 1-.642.176.417.417 0 0 1-.139-.275.392.392 0 0 1 .019-.156ZM221.166 199.089a45.755 45.755 0 0 1 5.815-4.037.42.42 0 0 1 .316-.058.42.42 0 0 1 .259.189.414.414 0 0 1-.034.465.409.409 0 0 1-.127.103 45.77 45.77 0 0 0-5.704 3.986.407.407 0 0 1-.569-.055.413.413 0 0 1-.063-.466.408.408 0 0 1 .107-.127ZM233.224 191.803a84.874 84.874 0 0 1 6.544-2.608.414.414 0 0 1 .487.264.414.414 0 0 1-.217.51 83.19 83.19 0 0 0-6.475 2.582.414.414 0 0 1-.515-.217.415.415 0 0 1 .176-.531ZM246.477 187.072l6.805-1.748a.418.418 0 0 1 .505.3.419.419 0 0 1-.3.506l-6.783 1.726a.411.411 0 0 1-.5-.299.416.416 0 0 1 .273-.485ZM260.153 183.857l6.909-1.258a.418.418 0 0 1 .457.344.42.42 0 0 1-.308.482l-6.888 1.251a.417.417 0 0 1-.418-.648.417.417 0 0 1 .268-.174l-.02.003ZM273.985 181.486l6.941-1.046a.412.412 0 0 1 .313.078.423.423 0 0 1-.187.756l-6.936 1.046a.422.422 0 1 1-.126-.833l-.005-.001Z"/></svg>
