<svg xmlns="http://www.w3.org/2000/svg" width="383" height="254" fill="none"><g clip-path="url(#a)"><path fill="url(#b)" fill-rule="evenodd" d="M319.77 190.73h57.776v-16.587h-44.364l-13.412 9.176v7.411Zm45.754-22.543c.058.005.116.006.174.003l.267-.011c.057-.002.114-.008.171-.017l.266-.041c.054-.009.108-.02.16-.035l.267-.072c.048-.013.097-.029.144-.047l.266-.102c.043-.017.084-.035.125-.055l.267-.131c.036-.018.071-.037.106-.058l.266-.159.088-.056.266-.186.073-.053.266-.21.014-.011.022-.018.022-.02.267-.233.047-.043.266-.253.038-.038.266-.272.017-.017.013-.014.266-.288.023-.026.267-.302.017-.02.266-.312.012-.015.267-.321.007-.009.267-.326.003-.004.266-.328v-.001l.261-.321.005-.006.257-.313.254-.304.25-.29.244-.272.238-.252.229-.229.246-.227a1.5 1.5 0 0 0-2.036-2.203l-.267.246-.041.039-.266.266-.015.016-.017.017-.267.283-.013.013-.012.014-.267.298-.019.022-.266.309-.014.016-.266.318-.01.011-.266.325-.005.006-.266.328-.001.001-.263.324-.003.004-.256.313-.007.01-.253.304-.252.295-.246.28-.24.26-.233.237-.224.214-.214.187-.201.158-.186.13-.17.101-.15.074-.132.051-.114.031-.1.015-.093.004-.095-.007-.103-.02-.119-.036-.137-.057-.156-.081-.175-.11-.191-.138-.205-.167-.217-.195-.227-.22-.235-.245-.242-.266-.247-.284-.254-.3-.254-.308-.007-.008-.257-.317-.003-.002-.264-.326-.002-.003-.266-.327-.006-.008-.267-.323-.01-.012-.266-.316-.016-.018-.266-.306-.005-.006-.016-.018-.267-.293-.027-.029-.266-.278-.035-.035-.266-.26-.044-.041-.267-.24a1.211 1.211 0 0 0-.054-.047l-.266-.218a1.743 1.743 0 0 0-.068-.052l-.266-.194a2.407 2.407 0 0 0-.083-.056l-.266-.168a1.62 1.62 0 0 0-.1-.057l-.266-.141a1.617 1.617 0 0 0-.119-.056l-.266-.112a1.335 1.335 0 0 0-.138-.05l-.267-.082a1.679 1.679 0 0 0-.155-.04l-.266-.052a1.596 1.596 0 0 0-.169-.023l-.266-.021a1.444 1.444 0 0 0-.174-.004l-.266.01a1.41 1.41 0 0 0-.172.016l-.266.04c-.054.009-.108.02-.161.034l-.266.071a1.442 1.442 0 0 0-.145.047l-.266.101a1.404 1.404 0 0 0-.126.054l-.267.13a1.586 1.586 0 0 0-.107.058l-.266.158a1.2 1.2 0 0 0-.089.056l-.266.185-.073.053-.266.209-.059.049-.267.232-.047.043-.267.253-.038.038-.266.271-.03.032-.266.287-.023.026-.267.301-.017.02-.267.313-.012.015-.266.32-.008.01-.266.326-.004.004-.266.328-.261.322-.005.006-.257.313-.255.305-.25.29-.244.274-.238.252-.23.23-.221.205-.21.178-.196.149-.181.12-.163.092-.145.066-.125.043-.109.025-.097.012h-.093l-.096-.011-.108-.025-.125-.042-.143-.065-.163-.091-.18-.119-.196-.147-.209-.177-.221-.203-.23-.229-.237-.252-.244-.273-.25-.289-.255-.305-.259-.316-.263-.324-.001-.001-.265-.327-.004-.004-.266-.326-.007-.01-.267-.321-.012-.014-.266-.313-.018-.02-.266-.302-.012-.013-.011-.012-.266-.288-.03-.032-.266-.272-.038-.037-.266-.254-.047-.043-.267-.233c-.019-.016-.038-.033-.058-.048l-.267-.21a.965.965 0 0 0-.072-.054l-.266-.185a1.579 1.579 0 0 0-.052-.035l-.036-.022-.266-.159a1.55 1.55 0 0 0-.106-.057l-.267-.131a.734.734 0 0 0-.057-.027l-.032-.014-.02-.008-.016-.006-.266-.102a1.53 1.53 0 0 0-.145-.047l-.266-.073a1.469 1.469 0 0 0-.16-.034l-.267-.042a1.597 1.597 0 0 0-.171-.017l-.266-.011a1.684 1.684 0 0 0-.174.003l-.266.02a1.594 1.594 0 0 0-.169.022l-.266.051c-.053.01-.105.023-.156.039l-.267.081a1.335 1.335 0 0 0-.138.05l-.267.11c-.04.017-.08.036-.119.056l-.267.14a1.239 1.239 0 0 0-.1.058l-.267.166-.024.016-.022.015-.037.025-.266.193-.029.021-.02.015-.019.016-.266.217a.508.508 0 0 0-.024.02l-.032.027-.266.239c-.015.014-.03.027-.044.042l-.266.259-.016.015-.02.02-.266.277-.028.03-.266.293-.021.023-.266.306-.016.018-.266.315-.011.013-.267.323-.006.008-.266.327-.002.003-.265.326-.002.002-.261.321-.258.313-.253.301-.248.285-.243.266-.235.246-.227.222-.217.195-.206.169-.192.139-.175.11-.157.083-.138.058-.119.037-.105.021-.094.007-.093-.003-.182-.028a1.5 1.5 0 1 0-.451 2.966l.266.041c.057.008.114.014.172.016l.266.009c.058.003.116.001.174-.003l.266-.022c.057-.004.113-.012.168-.023l.267-.052c.052-.01.104-.023.155-.039l.267-.082c.046-.015.092-.032.138-.051l.266-.111c.04-.017.08-.036.119-.057l.266-.14c.034-.018.067-.037.1-.058l.266-.168c.028-.017.056-.036.083-.056l.266-.193a1.71 1.71 0 0 0 .067-.052l.267-.218.026-.022.018-.016.01-.009.267-.24.043-.041.267-.26.015-.016.02-.019.266-.278.027-.03.267-.293.021-.023.266-.306.015-.018.267-.316.01-.013.267-.323.006-.007.266-.328.002-.002.264-.326.002-.003.261-.32.258-.313.253-.299.248-.285.242-.265.235-.245.227-.221.217-.195.205-.166.191-.139.174-.109.157-.082.137-.057.119-.036.103-.02.095-.007.093.004.1.016.114.031.131.05.151.074.17.102.186.129.201.159.214.187.224.213.233.238.24.26.246.279.252.296.256.309.259.317.004.004.263.325.001.001.266.328.005.006.266.324.009.011.267.319.014.016.266.309.019.022.267.297.012.014.013.014.266.282.033.034.266.265.041.04.267.246a.615.615 0 0 1 .027.025.424.424 0 0 1 .024.02l.266.224c.021.018.042.035.064.051l.266.201c.025.019.051.037.078.055l.266.175c.031.021.062.04.095.058l.266.149c.037.02.075.039.113.057l.266.12c.044.02.088.037.133.052l.266.091c.05.017.1.032.151.043l.266.061c.055.013.11.022.165.028l.267.031c.057.006.115.01.173.009h.266c.058 0 .116-.004.173-.011l.267-.031c.055-.007.11-.017.164-.029l.267-.062c.05-.012.1-.027.15-.044l.266-.092c.045-.016.089-.033.132-.053l.266-.122c.038-.017.076-.036.112-.057l.267-.149c.032-.018.063-.038.093-.058l.267-.176.077-.055.266-.202a.78.78 0 0 0 .063-.051l.266-.225.051-.045.267-.247.02-.02.02-.019.266-.266.015-.015.018-.019.266-.283.025-.027.266-.298.02-.022.266-.309.014-.016.266-.319.009-.011.266-.325.005-.005.266-.328.001-.001.263-.324.003-.005.259-.317.257-.308.251-.295.246-.279.24-.259.232-.236.224-.213.213-.185.201-.158.185-.128.169-.1.15-.073.131-.05.113-.03.1-.015.093-.004.095.008.104.02.119.037.138.058.157.083.176.111.191.139.206.168.217.196.227.222.235.245.243.267.248.285.253.3.258.313.261.321.002.003.265.326.002.003.266.327.007.007.266.323.011.013.266.316.016.018.266.305.013.015.008.009.267.293.027.029.267.277.035.036.266.259.044.041.267.239.016.015.018.015.021.018.266.216.068.053.266.192.028.02a.86.86 0 0 0 .055.036l.267.167c.033.021.066.04.1.058l.267.139c.039.021.079.039.119.056l.267.111c.045.019.091.035.138.05l.267.081c.051.015.103.028.156.038l.266.051c.056.011.112.018.169.022l.266.02Zm12.35-49.491h-68.608v-1.412h68.608v1.412ZM230.082 70.231h68.609v-1.412h-68.609v1.412Zm23.473-5.293h68.608v-1.412h-68.608v1.411Zm45.136-5.297h-68.609v-1.412h68.609v1.412Zm-30.546-3.724.047.001h.04l.266-.006h.034l.019-.002.034-.002.266-.02.084-.01.267-.036.025-.004c.018-.002.037-.006.055-.01l.267-.05c.025-.005.05-.01.076-.017l.266-.066.029-.007.041-.012.267-.079.064-.02.266-.093.013-.005a.898.898 0 0 0 .044-.017l.267-.105.05-.02.267-.117.044-.02.266-.127.019-.01.019-.009.266-.136.016-.008.015-.008.267-.144.025-.014.267-.151.02-.012.266-.156.014-.009.267-.16.009-.006.266-.163.004-.002.266-.164h.001l.259-.16.006-.004.249-.152.011-.006.247-.148.247-.143.242-.135.236-.125.229-.114.246-.114a1.5 1.5 0 0 0-1.258-2.723l-.266.123-.026.012-.014.007-.267.133a1.311 1.311 0 0 0-.033.017l-.267.141-.027.015-.267.149-.022.012-.266.155-.017.01-.266.159-.011.006-.266.163-.007.003-.266.164h-.001l-.262.163-.004.002-.253.155-.009.006-.25.15-.249.146-.244.138-.238.129-.232.118-.225.108-.219.096-.212.083-.206.072-.199.06-.194.047-.188.036-.183.025-.181.014-.179.004-.18-.007-.182-.017-.184-.029-.19-.039-.195-.05-.201-.064-.207-.075-.215-.087-.221-.1-.227-.11-.234-.121-.239-.132-.245-.14-.251-.149-.252-.153-.008-.004-.256-.157-.003-.002-.263-.163-.003-.001-.266-.164-.008-.005-.266-.161-.013-.008-.266-.157-.018-.011-.266-.153-.024-.013-.266-.147-.014-.007-.016-.008-.266-.14a1.51 1.51 0 0 0-.036-.017l-.266-.13-.021-.01-.021-.01-.266-.12a1.11 1.11 0 0 0-.049-.02l-.266-.11-.055-.021-.267-.097a.83.83 0 0 0-.034-.012l-.027-.009-.267-.084a1.252 1.252 0 0 0-.068-.02l-.266-.07a1.525 1.525 0 0 0-.074-.017l-.267-.056a1.381 1.381 0 0 0-.079-.015l-.266-.04a1.505 1.505 0 0 0-.084-.011l-.266-.026a1.95 1.95 0 0 0-.086-.006l-.266-.011a1.577 1.577 0 0 0-.087 0l-.267.004c-.029 0-.057.002-.086.004l-.267.02a1.495 1.495 0 0 0-.084.01l-.266.035a1.516 1.516 0 0 0-.081.013l-.267.05a1.72 1.72 0 0 0-.076.017l-.266.065a1.554 1.554 0 0 0-.071.019l-.266.079a1.113 1.113 0 0 0-.064.02l-.267.092a1.462 1.462 0 0 0-.057.021l-.267.105a.95.95 0 0 0-.05.021l-.267.116-.044.02-.266.127a.747.747 0 0 0-.038.018l-.267.136c-.01.005-.021.01-.031.017l-.267.143-.026.014-.266.151-.02.012-.266.156-.015.009-.266.16-.01.006-.266.163-.005.002-.265.164h-.001l-.26.16-.006.004-.255.155-.252.152-.248.143-.241.135-.236.126-.23.114-.223.104-.217.092-.21.08-.204.067-.197.055-.191.044-.187.032-.182.022-.18.01h-.18l-.18-.01-.182-.02-.186-.032-.192-.044-.197-.055-.203-.067-.21-.079-.216-.09-.223-.104-.23-.114-.235-.125-.242-.135-.247-.143-.252-.15-.258-.158-.262-.162h-.001l-.266-.164-.004-.002-.266-.163-.009-.006-.267-.16-.014-.009-.267-.156-.019-.012-.267-.15-.025-.015-.267-.144-.031-.017-.267-.136-.037-.018-.267-.127a1 1 0 0 0-.044-.02l-.266-.116a2.319 2.319 0 0 0-.033-.014l-.018-.008-.266-.105a1.647 1.647 0 0 0-.057-.02l-.267-.093a1.198 1.198 0 0 0-.064-.021l-.266-.08a1.654 1.654 0 0 0-.07-.019l-.266-.065a1.909 1.909 0 0 0-.076-.017l-.267-.05a1.456 1.456 0 0 0-.081-.014l-.266-.036a1.596 1.596 0 0 0-.084-.01l-.267-.02a1.5 1.5 0 0 0-.086-.005l-.266-.005h-.088l-.266.01a1.551 1.551 0 0 0-.086.006l-.266.026c-.011 0-.021.002-.032.003l-.02.003-.032.004-.266.04-.028.005a1.524 1.524 0 0 0-.051.01l-.267.055-.019.004-.014.004-.018.004-.023.006-.267.07a2.14 2.14 0 0 0-.068.02l-.266.082a1.217 1.217 0 0 0-.062.021l-.267.097a1.554 1.554 0 0 0-.055.021l-.266.108a.497.497 0 0 0-.029.012l-.02.01-.267.119-.026.012-.016.008-.266.13a2.02 2.02 0 0 0-.036.017l-.266.139-.03.016-.266.146-.024.013-.266.153-.019.01-.266.158-.013.008-.266.161-.008.005-.267.164-.002.001-.264.163-.002.002-.261.16-.256.155-.251.148-.245.141-.24.132-.234.122-.228.111-.221.1-.214.088-.208.075-.201.064-.196.051-.189.04-.185.029-.182.017-.18.008-.179-.004-.223-.017a1.5 1.5 0 0 0-.228 2.992l.267.02c.028.002.057.004.086.004l.267.005a1.187 1.187 0 0 0 .087-.001l.266-.01.057-.004.029-.003.266-.026.021-.002.02-.002.023-.003.02-.003.266-.041a1.56 1.56 0 0 0 .079-.015l.267-.056c.024-.005.049-.01.074-.017l.266-.07.068-.02.267-.084.061-.021.267-.097.055-.021.266-.11.049-.02.266-.12.014-.006.028-.014.266-.13.022-.01.014-.008.266-.139.029-.015.267-.147.023-.013.267-.153.018-.01.266-.159.013-.007.266-.161.008-.005.266-.164.003-.001.263-.163.003-.002.26-.16.256-.154.25-.149.246-.14.239-.132.234-.121.227-.11.221-.1.214-.087.208-.075.201-.063.195-.051.189-.04.185-.028.182-.017.179-.007.18.004.181.014.183.025.188.036.194.048.199.06.205.07.213.084.219.096.225.107.232.119.238.129.244.138.249.146.254.153.258.158.004.002.262.162h.001l.266.165.006.003.267.163.011.006.266.16.017.01.266.154.022.012.266.149.014.007.014.008.267.141.015.008.018.01.267.132a.827.827 0 0 0 .04.02l.266.122.046.02.267.113.026.01.013.006.014.005.266.1.023.01.025.008.012.004.267.088.021.007.045.013.266.074c.024.007.048.013.073.018l.266.06.011.003.019.004.048.009.266.045c.028.005.055.01.083.012l.266.03a1.463 1.463 0 0 0 .085.008l.267.015c.028.002.057.003.086.003h.267l.087-.003.266-.016c.029-.002.057-.004.085-.008l.267-.03a1.59 1.59 0 0 0 .082-.013l.266-.046a2.27 2.27 0 0 0 .078-.015l.266-.061.072-.019.267-.074.066-.02.266-.089.06-.021.266-.101.053-.021.266-.113.021-.009.025-.012.267-.123.017-.008.023-.011.266-.133.033-.017.267-.142.027-.015.267-.149.021-.012.267-.155.016-.01.266-.159.011-.006.267-.163.005-.003.267-.164.262-.162.005-.003.257-.157.254-.153.249-.146.244-.138.237-.128.232-.118.225-.107.219-.095.212-.084.205-.07.199-.06.193-.047.188-.035.183-.025.181-.013.18-.004.179.008.182.017.185.029.189.04.196.051.201.064.208.075.214.088.222.1.227.11.234.123.24.132.245.14.251.15.253.152.007.005.257.157.002.002.264.163.003.001.266.164.008.005.266.16.013.009.266.157.019.011.266.153.024.013.266.146.03.016.266.139.023.011.013.007.266.13.022.01.021.01.266.119.049.02.266.109.055.021.267.096.031.012.031.01.266.083.069.02.266.07.02.004.017.004.037.009.267.055.079.014.266.04.028.005.056.006.266.025.086.006.267.01Zm-15.53-38.162h-10.506V40.87l44.552-.53h85.632v-2.117h-85.632l-34.046-20.47Zm7.972-5.567H206v-4H261.806l.507.34 17.023 11.446-2.232 3.32-16.517-11.107Zm-34.21 151.64h47.006v-1.646h-47.006a2 2 0 0 1-2-2v-5.647a2 2 0 0 1 2-2h47.006v-1.647h-44.427v-4h46.427a2 2 0 0 1 2 2v5.647a2 2 0 0 1-2 2h-47.006v1.647h47.006a2 2 0 0 1 2 2v5.646a2 2 0 0 1-2 2h-49.006v-4Zm19.181-38.25h38.173l4.127-3.367h-23.329l-10.202-6.515h-24.245l15.476 9.882Zm36.813-36.566h24.245l15.476-9.882h-24.245l-10.202 6.514-5.274 3.368Zm-7.222 0h-24.245l5.274-3.368 10.202-6.514h24.245l-15.476 9.882Zm-55.712 0h24.246l15.475-9.882h-24.245l-10.202 6.514-5.274 3.368Zm77.636 23.57h-57.776v-7.411l13.412-9.176h44.364v16.587Zm76.687 34.527h-35.868v4h37.868a2 2 0 0 0 2-2v-5.646a2 2 0 0 0-2-2h-47.673l-3.009-1.647h50.682a2 2 0 0 0 2-2v-5.647a2 2 0 0 0-2-2H215.537v4H373.76v1.647h-56.502a1.999 1.999 0 0 0-.96 3.754l10.317 5.647c.294.161.625.246.96.246h46.185v1.646Zm-79.687-.16c2.849 0 5.158 1.58 5.158 3.53 0 1.949-2.309 3.529-5.158 3.529s-5.159-1.58-5.159-3.529c0-1.95 2.31-3.53 5.159-3.53Zm18.014-51.308h-9.409v2.824h10.059c.423 0 .836-.09 1.182-.255l36.352-17.391h28.307v-2.824h-28.957c-.423 0-.836.09-1.183.255l-36.351 17.391Zm-20.218 73.499 22.628 16.411-3.002 1.937-22.628-16.411 3.002-1.937Zm-4.531-138.085h95.884V5.997h-73.625L287.338 19.86v11.196Zm91.24-27.88H239.297V0h139.281v3.177Z" clip-rule="evenodd"/><path stroke="#8F8E93" stroke-linejoin="round" stroke-width="1.339" d="M22.636 30.082H-19.26L-31.956 9-51 9.74v69.904m73.636-7.767H5.496m-24.756 0H5.497m0 0L-11.854 90h-28.143L-51 79.644m0 0v5.548"/><path fill="#000" d="M29.982 26.785A4.608 4.608 0 1 0 29.94 36a4.608 4.608 0 0 0 .042-9.215Z"/><path fill="#F0EFED" stroke="#000" stroke-width=".768" d="M20.384 29.589a4.224 4.224 0 1 1 8.448.038 4.224 4.224 0 0 1-8.448-.038Z"/><path fill="#000" d="M29.982 68.784A4.608 4.608 0 1 0 29.94 78a4.608 4.608 0 0 0 .042-9.216Z"/><path fill="#F0EFED" stroke="#000" stroke-width=".768" d="M20.384 71.589a4.224 4.224 0 1 1 8.448.038 4.224 4.224 0 0 1-8.448-.038Z"/><path stroke="#8F8E93" stroke-linejoin="round" stroke-width="1.339" d="M22.636 112.082H-19.26L-31.956 91-51 91.74v69.904m73.636-7.767H5.496m-24.756 0H5.497m0 0L-11.854 172h-28.143L-51 161.644m0 0v5.548"/><path fill="#000" d="M29.982 108.784a4.609 4.609 0 1 0-.04 9.218 4.609 4.609 0 0 0 .04-9.218Z"/><path fill="#F0EFED" stroke="#000" stroke-width=".768" d="M20.384 111.589a4.224 4.224 0 1 1 8.447.037 4.224 4.224 0 0 1-8.447-.037Z"/><path fill="#000" d="M29.982 150.784a4.609 4.609 0 1 0-.04 9.218 4.609 4.609 0 0 0 .04-9.218Z"/><path fill="#F0EFED" stroke="#000" stroke-width=".768" d="M20.384 153.589a4.224 4.224 0 1 1 8.447.037 4.224 4.224 0 0 1-8.447-.037Z"/><path stroke="#8F8E93" stroke-linejoin="round" stroke-width="1.339" d="M22.636 194.082H-19.26L-31.956 173l-19.044.74v69.904m73.636-7.767H5.496m-24.756 0H5.497m0 0L-11.854 254h-28.143L-51 243.644m0 0v5.548"/><path fill="#000" d="M29.982 190.784a4.609 4.609 0 1 0-.04 9.218 4.609 4.609 0 0 0 .04-9.218Z"/><path fill="#F0EFED" stroke="#000" stroke-width=".768" d="M20.384 193.589a4.224 4.224 0 1 1 8.447.037 4.224 4.224 0 0 1-8.447-.037Z"/><path fill="#000" d="M29.982 232.784a4.609 4.609 0 1 0-.04 9.218 4.609 4.609 0 0 0 .04-9.218Z"/><path fill="#F0EFED" stroke="#000" stroke-width=".768" d="M20.384 235.589a4.224 4.224 0 1 1 8.447.037 4.224 4.224 0 0 1-8.447-.037Z"/></g><defs><linearGradient id="b" x1="259.816" x2="181.513" y1="-68.135" y2="162.939" gradientUnits="userSpaceOnUse"><stop stop-color="#F1EFED"/><stop offset=".535" stop-color="#DDD" stop-opacity=".22"/><stop offset="1" stop-color="#F1EFED"/></linearGradient><clipPath id="a"><path fill="#fff" d="M0 0h383v254H0z"/></clipPath></defs></svg>
