<svg xmlns="http://www.w3.org/2000/svg" width="104" height="113" fill="none" viewBox="0 0 104 113"><path fill="#F1EFED" d="M75.01 82.788h-5.753v5.916h5.754v-5.916Z"/><path fill="#F1EFED" d="M75.01 76.876h-5.753v5.912h5.754v-5.912ZM98.018 17.74h-5.75v5.913h5.75v-5.912ZM92.268 17.74h-5.754v5.913h5.754v-5.912ZM92.268 23.653h-5.754v5.912h5.754v-5.912Z"/><path fill="#F1EFED" d="M86.514 23.653H80.76v5.912h5.754v-5.912ZM80.76 29.565h-5.75v5.917h5.75v-5.917ZM86.514 17.74H80.76v5.913h5.754v-5.912ZM80.76 23.653h-5.75v5.912h5.75v-5.912ZM80.76 35.482h-5.75v5.912h5.75v-5.912Z"/><path fill="#F1EFED" d="M75.01 35.482h-5.753v5.912h5.754v-5.912ZM92.268 47.306h-5.754v5.917h5.754v-5.917ZM92.268 53.223h-5.754v5.912h5.754v-5.912ZM92.268 59.135h-5.754v5.912h5.754v-5.912ZM92.268 65.047h-5.754v5.916h5.754v-5.916Z"/><path fill="#F1EFED" d="M86.514 59.135H80.76v5.912h5.754v-5.912ZM86.514 65.047H80.76v5.916h5.754v-5.916ZM86.514 53.223H80.76v5.912h5.754v-5.912ZM86.514 47.306H80.76v5.917h5.754v-5.917ZM80.76 53.223h-5.75v5.912h5.75v-5.912ZM80.76 47.306h-5.75v5.917h5.75v-5.917ZM80.76 59.135h-5.75v5.912h5.75v-5.912ZM80.76 65.047h-5.75v5.916h5.75v-5.916ZM92.268 35.482h-5.754v5.912h5.754v-5.912ZM98.018 41.394h-5.75v5.912h5.75v-5.912ZM92.268 41.394h-5.754v5.912h5.754v-5.912Z"/><path fill="#F1EFED" d="M86.514 41.394H80.76v5.912h5.754v-5.912ZM80.76 41.394h-5.75v5.912h5.75v-5.912Z"/><path fill="#F1EFED" d="M75.01 41.394h-5.753v5.912h5.754v-5.912ZM40.496 47.306h-5.754v5.917h5.754v-5.917ZM46.245 41.394h-5.75v5.912h5.75v-5.912ZM46.245 65.047h-5.75v5.916h5.75v-5.916ZM46.245 59.135h-5.75v5.912h5.75v-5.912ZM46.245 53.223h-5.75v5.912h5.75v-5.912Z"/><path fill="#F1EFED" d="M46.245 47.306h-5.75v5.917h5.75v-5.917ZM57.753 59.135H52v5.912h5.754v-5.912ZM57.753 53.223H52v5.912h5.754v-5.912ZM57.753 47.306H52v5.917h5.754v-5.917ZM57.753 65.047H52v5.916h5.754v-5.916ZM52 59.135h-5.755v5.912H52v-5.912ZM52 65.047h-5.755v5.916H52v-5.916ZM52 47.306h-5.755v5.917H52v-5.917ZM52 41.394h-5.755v5.912H52v-5.912ZM52 53.223h-5.755v5.912H52v-5.912ZM57.753 35.482H52v5.912h5.754v-5.912Z"/><path fill="#F1EFED" d="M63.503 35.482h-5.75v5.912h5.75v-5.912ZM69.257 29.565h-5.754v5.917h5.754v-5.917ZM69.257 23.653h-5.754v5.912h5.754v-5.912ZM63.503 29.565h-5.75v5.917h5.75v-5.917ZM63.503 23.653h-5.75v5.912h5.75v-5.912ZM69.257 47.306h-5.754v5.917h5.754v-5.917ZM63.503 53.223h-5.75v5.912h5.75v-5.912ZM63.503 59.135h-5.75v5.912h5.75v-5.912ZM63.503 65.047h-5.75v5.916h5.75v-5.916ZM63.503 70.963h-5.75v5.913h5.75v-5.913ZM63.503 47.306h-5.75v5.917h5.75v-5.917Z"/><path fill="#F1EFED" d="M57.753 70.963H52v5.913h5.754v-5.913ZM52 70.963h-5.755v5.913H52v-5.913ZM46.245 70.963h-5.75v5.913h5.75v-5.913ZM28.988 82.788h-5.75v5.916h5.75v-5.916ZM34.742 82.788h-5.754v5.916h5.754v-5.916Z"/><path fill="#F1EFED" d="M34.742 76.876h-5.754v5.912h5.754v-5.912ZM34.742 88.704h-5.754v5.913h5.754v-5.913ZM40.496 70.963h-5.754v5.913h5.754v-5.913ZM40.496 88.704h-5.754v5.913h5.754v-5.913ZM40.496 76.876h-5.754v5.912h5.754v-5.912Z"/><path fill="#F1EFED" d="M40.496 82.788h-5.754v5.916h5.754v-5.916ZM40.496 59.135h-5.754v5.912h5.754v-5.912ZM40.496 53.223h-5.754v5.912h5.754v-5.912ZM40.496 65.047h-5.754v5.916h5.754v-5.916ZM34.742 53.223h-5.754v5.912h5.754v-5.912ZM46.245 88.704h-5.75v5.913h5.75v-5.913Z"/><path fill="#8F8E93" d="M23.238 82.788h-5.754v5.916h5.754v-5.916ZM28.988 76.876h-5.75v5.912h5.75v-5.912ZM34.742 65.047h-5.754v5.916h5.754v-5.916ZM34.742 70.963h-5.754v5.913h5.754v-5.913ZM34.742 47.306h-5.754v5.917h5.754v-5.917ZM28.988 53.223h-5.75v5.912h5.75v-5.912ZM28.988 47.306h-5.75v5.917h5.75v-5.917ZM40.496 41.394h-5.754v5.912h5.754v-5.912ZM52 35.482h-5.755v5.912H52v-5.912ZM46.245 35.482h-5.75v5.912h5.75v-5.912ZM57.753 23.653H52v5.912h5.754v-5.912ZM57.753 29.565H52v5.917h5.754v-5.917ZM75.01 65.047h-5.753v5.916h5.754v-5.916ZM75.01 59.135h-5.753v5.912h5.754v-5.912ZM69.257 82.788h-5.754v5.916h5.754v-5.916Z"/><path fill="#8F8E93" d="M69.257 76.876h-5.754v5.912h5.754v-5.912ZM52 82.788h-5.755v5.916H52v-5.916ZM52 88.704h-5.755v5.913H52v-5.913ZM46.245 82.788h-5.75v5.916h5.75v-5.916Z"/><path fill="url(#a)" d="M34.742 100.529h-5.754v5.916h5.754v-5.916Z"/><path fill="url(#b)" d="M57.753 100.529H52v5.916h5.754v-5.916Z"/><path fill="url(#c)" d="M52 100.529h-5.755v5.916H52v-5.916Z"/><path fill="url(#d)" d="M46.245 100.529h-5.75v5.916h5.75v-5.916Z"/><path fill="url(#e)" d="M40.496 100.529h-5.754v5.916h5.754v-5.916Z"/><path fill="url(#f)" d="M28.988 100.529h-5.75v5.916h5.75v-5.916Z"/><path fill="url(#g)" d="M28.988 94.617h-5.75v5.912h5.75v-5.912Z"/><path fill="url(#h)" d="M23.238 100.529h-5.754v5.916h5.754v-5.916Z"/><path fill="url(#i)" d="M23.238 94.617h-5.754v5.912h5.754v-5.912Z"/><path fill="url(#j)" d="M11.73 94.617H5.98v5.912h5.75v-5.912Z"/><path fill="url(#k)" d="M17.484 88.704H11.73v5.913h5.754v-5.913Z"/><path fill="url(#l)" d="M17.484 94.617H11.73v5.912h5.754v-5.912Z"/><path fill="url(#m)" d="M86.514 94.617H80.76v5.912h5.754v-5.912Z"/><path fill="url(#n)" d="M80.76 94.617h-5.75v5.912h5.75v-5.912Z"/><path fill="url(#o)" d="M75.01 94.617h-5.753v5.912h5.754v-5.912Z"/><path fill="url(#p)" d="M69.257 94.617h-5.754v5.912h5.754v-5.912Z"/><path fill="url(#q)" d="M63.503 94.617h-5.75v5.912h5.75v-5.912Z"/><path fill="url(#r)" d="M63.503 88.704h-5.75v5.913h5.75v-5.913Z"/><path fill="#000" d="M103.772 47.306h-5.754v5.917h5.754v-5.917ZM103.772 41.394h-5.754v5.912h5.754v-5.912ZM103.772 17.74h-5.754v5.913h5.754v-5.912Z"/><path fill="#000" d="M103.772 11.824h-5.754v5.917h5.754v-5.917ZM103.772 5.912h-5.754v5.912h5.754V5.912ZM98.018 94.617h-5.75v5.912h5.75v-5.912ZM98.018 65.047h-5.75v5.916h5.75v-5.916ZM98.018 59.135h-5.75v5.912h5.75v-5.912ZM98.018 53.223h-5.75v5.912h5.75v-5.912ZM98.018 47.306h-5.75v5.917h5.75v-5.917ZM98.018 35.482h-5.75v5.912h5.75v-5.912ZM98.018 29.565h-5.75v5.917h5.75v-5.917ZM98.018 23.653h-5.75v5.912h5.75v-5.912ZM98.018 11.824h-5.75v5.917h5.75v-5.917ZM98.018 5.912h-5.75v5.912h5.75V5.912ZM98.018 0h-5.75v5.912h5.75V0ZM92.268 100.529h-5.754v5.916h5.754v-5.916Z"/><path fill="#000" d="M92.268 94.617h-5.754v5.912h5.754v-5.912ZM92.268 88.704h-5.754v5.913h5.754v-5.913ZM92.268 70.963h-5.754v5.913h5.754v-5.913ZM92.268 29.565h-5.754v5.917h5.754v-5.917ZM92.268 11.824h-5.754v5.917h5.754v-5.917ZM92.268 5.912h-5.754v5.912h5.754V5.912ZM92.268 0h-5.754v5.912h5.754V0Z"/><path fill="#000" d="M86.514 100.529H80.76v5.916h5.754v-5.916ZM86.514 88.704H80.76v5.913h5.754v-5.913ZM86.514 82.788H80.76v5.916h5.754v-5.916ZM86.514 70.963H80.76v5.913h5.754v-5.913ZM86.514 35.482H80.76v5.912h5.754v-5.912ZM86.514 29.565H80.76v5.917h5.754v-5.917ZM86.514 11.824H80.76v5.917h5.754v-5.917ZM86.514 5.912H80.76v5.912h5.754V5.912ZM86.514 0H80.76v5.912h5.754V0ZM80.76 100.529h-5.75v5.916h5.75v-5.916ZM80.76 88.704h-5.75v5.913h5.75v-5.913ZM80.76 82.788h-5.75v5.916h5.75v-5.916Z"/><path fill="#000" d="M80.76 76.876h-5.75v5.912h5.75v-5.912ZM80.76 70.963h-5.75v5.913h5.75v-5.913ZM80.76 17.74h-5.75v5.913h5.75v-5.912Z"/><path fill="#000" d="M80.76 11.824h-5.75v5.917h5.75v-5.917ZM80.76 5.912h-5.75v5.912h5.75V5.912ZM80.76 0h-5.75v5.912h5.75V0ZM75.01 100.529h-5.753v5.916h5.754v-5.916ZM75.01 88.704h-5.753v5.913h5.754v-5.913ZM75.01 70.963h-5.753v5.913h5.754v-5.913ZM75.01 53.223h-5.753v5.912h5.754v-5.912ZM75.01 47.306h-5.753v5.917h5.754v-5.917ZM75.01 29.565h-5.753v5.917h5.754v-5.917ZM75.01 23.653h-5.753v5.912h5.754v-5.912Z"/><path fill="#000" d="M75.01 17.74h-5.753v5.913h5.754v-5.912Z"/><path fill="#000" d="M75.01 11.824h-5.753v5.917h5.754v-5.917ZM75.01 5.912h-5.753v5.912h5.754V5.912ZM75.01 0h-5.753v5.912h5.754V0ZM69.257 100.529h-5.754v5.916h5.754v-5.916ZM69.257 88.704h-5.754v5.913h5.754v-5.913ZM69.257 70.963h-5.754v5.913h5.754v-5.913ZM69.257 65.047h-5.754v5.916h5.754v-5.916ZM69.257 59.135h-5.754v5.912h5.754v-5.912ZM69.257 53.223h-5.754v5.912h5.754v-5.912ZM69.257 41.394h-5.754v5.912h5.754v-5.912ZM69.257 35.482h-5.754v5.912h5.754v-5.912ZM69.257 17.74h-5.754v5.913h5.754v-5.912Z"/><path fill="#000" d="M69.257 11.824h-5.754v5.917h5.754v-5.917ZM69.257 5.912h-5.754v5.912h5.754V5.912ZM69.257 0h-5.754v5.912h5.754V0ZM63.503 106.445h-5.75v5.912h5.75v-5.912ZM63.503 100.529h-5.75v5.916h5.75v-5.916ZM63.503 82.788h-5.75v5.916h5.75v-5.916Z"/><path fill="#000" d="M63.503 76.876h-5.75v5.912h5.75v-5.912ZM63.503 41.394h-5.75v5.912h5.75v-5.912ZM63.503 17.74h-5.75v5.913h5.75v-5.912Z"/><path fill="#000" d="M63.503 11.824h-5.75v5.917h5.75v-5.917ZM63.503 5.912h-5.75v5.912h5.75V5.912ZM63.503 0h-5.75v5.912h5.75V0ZM57.753 106.445H52v5.912h5.754v-5.912ZM57.753 94.617H52v5.912h5.754v-5.912ZM57.753 88.704H52v5.913h5.754v-5.913ZM57.753 82.788H52v5.916h5.754v-5.916Z"/><path fill="#000" d="M57.753 76.876H52v5.912h5.754v-5.912ZM57.753 41.394H52v5.912h5.754v-5.912ZM57.753 17.74H52v5.913h5.754v-5.912Z"/><path fill="#000" d="M57.753 11.824H52v5.917h5.754v-5.917ZM57.753 5.912H52v5.912h5.754V5.912ZM57.753 0H52v5.912h5.754V0ZM52 106.445h-5.755v5.912H52v-5.912ZM52 94.617h-5.755v5.912H52v-5.912ZM52 76.876h-5.755v5.912H52v-5.912ZM52 29.565h-5.755v5.917H52v-5.917ZM52 23.653h-5.755v5.912H52v-5.912ZM52 17.74h-5.755v5.913H52v-5.912Z"/><path fill="#000" d="M52 11.824h-5.755v5.917H52v-5.917ZM52 5.912h-5.755v5.912H52V5.912ZM52 0h-5.755v5.912H52V0ZM46.245 106.445h-5.75v5.912h5.75v-5.912ZM46.245 94.617h-5.75v5.912h5.75v-5.912ZM46.245 76.876h-5.75v5.912h5.75v-5.912ZM46.245 29.565h-5.75v5.917h5.75v-5.917ZM46.245 23.653h-5.75v5.912h5.75v-5.912ZM46.245 17.74h-5.75v5.913h5.75v-5.912Z"/><path fill="#000" d="M46.245 11.824h-5.75v5.917h5.75v-5.917ZM46.245 5.912h-5.75v5.912h5.75V5.912ZM46.245 0h-5.75v5.912h5.75V0ZM40.496 106.445h-5.754v5.912h5.754v-5.912ZM40.496 94.617h-5.754v5.912h5.754v-5.912ZM40.496 35.482h-5.754v5.912h5.754v-5.912ZM40.496 29.565h-5.754v5.917h5.754v-5.917ZM40.496 23.653h-5.754v5.912h5.754v-5.912Z"/><path fill="#000" d="M40.496 17.74h-5.754v5.913h5.754v-5.912Z"/><path fill="#000" d="M40.496 11.824h-5.754v5.917h5.754v-5.917ZM40.496 5.912h-5.754v5.912h5.754V5.912ZM34.742 106.445h-5.754v5.912h5.754v-5.912ZM34.742 94.617h-5.754v5.912h5.754v-5.912ZM34.742 59.135h-5.754v5.912h5.754v-5.912ZM34.742 41.394h-5.754v5.912h5.754v-5.912ZM34.742 35.482h-5.754v5.912h5.754v-5.912ZM34.742 29.565h-5.754v5.917h5.754v-5.917ZM34.742 23.653h-5.754v5.912h5.754v-5.912ZM34.742 17.74h-5.754v5.913h5.754v-5.912Z"/><path fill="#000" d="M34.742 11.824h-5.754v5.917h5.754v-5.917ZM34.742 5.912h-5.754v5.912h5.754V5.912ZM28.988 106.445h-5.75v5.912h5.75v-5.912ZM28.988 88.704h-5.75v5.913h5.75v-5.913ZM28.988 70.963h-5.75v5.913h5.75v-5.913ZM28.988 65.047h-5.75v5.916h5.75v-5.916ZM28.988 59.135h-5.75v5.912h5.75v-5.912ZM28.988 41.394h-5.75v5.912h5.75v-5.912ZM28.988 35.482h-5.75v5.912h5.75v-5.912ZM28.988 29.565h-5.75v5.917h5.75v-5.917ZM28.988 23.653h-5.75v5.912h5.75v-5.912ZM28.988 17.74h-5.75v5.913h5.75v-5.912Z"/><path fill="#000" d="M28.988 11.824h-5.75v5.917h5.75v-5.917ZM28.988 5.912h-5.75v5.912h5.75V5.912ZM23.238 106.445h-5.754v5.912h5.754v-5.912ZM23.238 88.704h-5.754v5.913h5.754v-5.913ZM23.238 76.876h-5.754v5.912h5.754v-5.912ZM23.238 70.963h-5.754v5.913h5.754v-5.913ZM23.238 65.047h-5.754v5.916h5.754v-5.916ZM23.238 59.135h-5.754v5.912h5.754v-5.912ZM23.238 53.223h-5.754v5.912h5.754v-5.912ZM23.238 47.306h-5.754v5.917h5.754v-5.917ZM23.238 41.394h-5.754v5.912h5.754v-5.912ZM23.238 35.482h-5.754v5.912h5.754v-5.912ZM23.238 29.565h-5.754v5.917h5.754v-5.917ZM23.238 23.653h-5.754v5.912h5.754v-5.912ZM23.238 17.74h-5.754v5.913h5.754v-5.912Z"/><path fill="#000" d="M23.238 11.824h-5.754v5.917h5.754v-5.917ZM23.238 5.912h-5.754v5.912h5.754V5.912ZM17.484 100.529H11.73v5.916h5.754v-5.916ZM17.484 82.788H11.73v5.916h5.754v-5.916Z"/><path fill="#000" d="M17.484 76.876H11.73v5.912h5.754v-5.912ZM17.484 70.963H11.73v5.913h5.754v-5.913ZM17.484 65.047H11.73v5.916h5.754v-5.916ZM17.484 59.135H11.73v5.912h5.754v-5.912ZM17.484 53.223H11.73v5.912h5.754v-5.912ZM17.484 47.306H11.73v5.917h5.754v-5.917ZM17.484 41.394H11.73v5.912h5.754v-5.912ZM17.484 35.482H11.73v5.912h5.754v-5.912ZM17.484 29.565H11.73v5.917h5.754v-5.917ZM17.484 23.653H11.73v5.912h5.754v-5.912ZM17.484 17.74H11.73v5.913h5.754v-5.912Z"/><path fill="#000" d="M17.484 11.824H11.73v5.917h5.754v-5.917ZM11.73 100.529H5.98v5.916h5.75v-5.916ZM11.73 88.704H5.98v5.913h5.75v-5.913ZM11.73 70.963H5.98v5.913h5.75v-5.913ZM11.73 65.047H5.98v5.916h5.75v-5.916ZM11.73 59.135H5.98v5.912h5.75v-5.912ZM11.73 53.223H5.98v5.912h5.75v-5.912ZM11.73 47.306H5.98v5.917h5.75v-5.917ZM11.73 41.394H5.98v5.912h5.75v-5.912ZM11.73 35.482H5.98v5.912h5.75v-5.912ZM11.73 29.565H5.98v5.917h5.75v-5.917ZM11.73 23.653H5.98v5.912h5.75v-5.912ZM11.73 17.74H5.98v5.913h5.75v-5.912ZM5.98 100.529H.228v5.916H5.98v-5.916Z"/><path fill="#000" d="M5.98 94.617H.228v5.912H5.98v-5.912ZM5.98 59.135H.228v5.912H5.98v-5.912ZM5.98 53.223H.228v5.912H5.98v-5.912ZM5.98 47.306H.228v5.917H5.98v-5.917ZM5.98 41.394H.228v5.912H5.98v-5.912ZM5.98 35.482H.228v5.912H5.98v-5.912ZM5.98 29.565H.228v5.917H5.98v-5.917ZM5.98 23.653H.228v5.912H5.98v-5.912Z"/><defs><linearGradient id="a" x1=".227" x2="103.772" y1="56.179" y2="56.179" gradientUnits="userSpaceOnUse"><stop stop-color="#D6FFBB"/><stop offset="1" stop-color="#5869DD"/></linearGradient><linearGradient id="b" x1=".227" x2="103.772" y1="56.179" y2="56.179" gradientUnits="userSpaceOnUse"><stop stop-color="#D6FFBB"/><stop offset="1" stop-color="#5869DD"/></linearGradient><linearGradient id="c" x1=".227" x2="103.772" y1="56.179" y2="56.179" gradientUnits="userSpaceOnUse"><stop stop-color="#D6FFBB"/><stop offset="1" stop-color="#5869DD"/></linearGradient><linearGradient id="d" x1=".227" x2="103.772" y1="56.179" y2="56.179" gradientUnits="userSpaceOnUse"><stop stop-color="#D6FFBB"/><stop offset="1" stop-color="#5869DD"/></linearGradient><linearGradient id="e" x1=".227" x2="103.772" y1="56.179" y2="56.179" gradientUnits="userSpaceOnUse"><stop stop-color="#D6FFBB"/><stop offset="1" stop-color="#5869DD"/></linearGradient><linearGradient id="f" x1=".227" x2="103.772" y1="56.179" y2="56.179" gradientUnits="userSpaceOnUse"><stop stop-color="#D6FFBB"/><stop offset="1" stop-color="#5869DD"/></linearGradient><linearGradient id="g" x1=".227" x2="103.772" y1="56.179" y2="56.179" gradientUnits="userSpaceOnUse"><stop stop-color="#D6FFBB"/><stop offset="1" stop-color="#5869DD"/></linearGradient><linearGradient id="h" x1=".227" x2="103.772" y1="56.179" y2="56.179" gradientUnits="userSpaceOnUse"><stop stop-color="#D6FFBB"/><stop offset="1" stop-color="#5869DD"/></linearGradient><linearGradient id="i" x1=".227" x2="103.772" y1="56.179" y2="56.179" gradientUnits="userSpaceOnUse"><stop stop-color="#D6FFBB"/><stop offset="1" stop-color="#5869DD"/></linearGradient><linearGradient id="j" x1=".227" x2="103.772" y1="56.179" y2="56.179" gradientUnits="userSpaceOnUse"><stop stop-color="#D6FFBB"/><stop offset="1" stop-color="#5869DD"/></linearGradient><linearGradient id="k" x1=".227" x2="103.772" y1="56.179" y2="56.179" gradientUnits="userSpaceOnUse"><stop stop-color="#D6FFBB"/><stop offset="1" stop-color="#5869DD"/></linearGradient><linearGradient id="l" x1=".227" x2="103.772" y1="56.179" y2="56.179" gradientUnits="userSpaceOnUse"><stop stop-color="#D6FFBB"/><stop offset="1" stop-color="#5869DD"/></linearGradient><linearGradient id="m" x1=".227" x2="103.772" y1="56.179" y2="56.179" gradientUnits="userSpaceOnUse"><stop stop-color="#D6FFBB"/><stop offset="1" stop-color="#5869DD"/></linearGradient><linearGradient id="n" x1=".227" x2="103.772" y1="56.179" y2="56.179" gradientUnits="userSpaceOnUse"><stop stop-color="#D6FFBB"/><stop offset="1" stop-color="#5869DD"/></linearGradient><linearGradient id="o" x1=".227" x2="103.772" y1="56.179" y2="56.179" gradientUnits="userSpaceOnUse"><stop stop-color="#D6FFBB"/><stop offset="1" stop-color="#5869DD"/></linearGradient><linearGradient id="p" x1=".227" x2="103.772" y1="56.179" y2="56.179" gradientUnits="userSpaceOnUse"><stop stop-color="#D6FFBB"/><stop offset="1" stop-color="#5869DD"/></linearGradient><linearGradient id="q" x1=".227" x2="103.772" y1="56.179" y2="56.179" gradientUnits="userSpaceOnUse"><stop stop-color="#D6FFBB"/><stop offset="1" stop-color="#5869DD"/></linearGradient><linearGradient id="r" x1=".227" x2="103.772" y1="56.179" y2="56.179" gradientUnits="userSpaceOnUse"><stop stop-color="#D6FFBB"/><stop offset="1" stop-color="#5869DD"/></linearGradient></defs></svg>
