<svg xmlns="http://www.w3.org/2000/svg" width="90" height="103" fill="none" viewBox="0 0 90 103"><path fill="#000" d="M89.911 35.54h-4.088v4.443h4.088V35.54ZM89.911 31.098h-4.088v4.442h4.088v-4.442ZM89.911 22.213h-4.088v4.442h4.088v-4.442ZM89.911 17.77h-4.088v4.443h4.088V17.77ZM89.911 13.328h-4.088v4.442h4.088v-4.442ZM85.823 39.983h-4.086v4.442h4.086v-4.442Z"/><path fill="#8F8E93" d="M85.823 35.54h-4.086v4.443h4.086V35.54ZM85.823 31.098h-4.086v4.442h4.086v-4.442Z"/><path fill="#000" d="M85.823 26.655h-4.086v4.443h4.086v-4.443ZM85.823 22.213h-4.086v4.442h4.086v-4.442Z"/><path fill="url(#a)" d="M85.823 17.77h-4.086v4.443h4.086V17.77Z"/><path fill="url(#b)" d="M85.823 13.328h-4.086v4.442h4.086v-4.442Z"/><path fill="#000" d="M85.823 8.885h-4.086v4.443h4.086V8.885ZM81.737 44.425H77.65v4.443h4.086v-4.443Z"/><path fill="#8F8E93" d="M81.737 39.983H77.65v4.442h4.086v-4.442Z"/><path fill="url(#c)" d="M81.737 35.54H77.65v4.443h4.086V35.54Z"/><path fill="url(#d)" d="M81.737 31.098H77.65v4.442h4.086v-4.442Z"/><path fill="url(#e)" d="M81.737 26.655H77.65v4.443h4.086v-4.443Z"/><path fill="url(#f)" d="M81.737 22.213H77.65v4.442h4.086v-4.442Z"/><path fill="#000" d="M81.737 17.77H77.65v4.443h4.086V17.77Z"/><path fill="url(#g)" d="M81.737 13.328H77.65v4.442h4.086v-4.442Z"/><path fill="#000" d="M81.737 8.885H77.65v4.443h4.086V8.885ZM77.65 48.868h-4.088v4.442h4.089v-4.442Z"/><path fill="#8F8E93" d="M77.65 44.425h-4.088v4.443h4.089v-4.443ZM77.65 39.983h-4.088v4.442h4.089v-4.442Z"/><path fill="url(#h)" d="M77.65 35.54h-4.088v4.443h4.089V35.54Z"/><path fill="url(#i)" d="M77.65 31.098h-4.088v4.442h4.089v-4.442Z"/><path fill="url(#j)" d="M77.65 26.655h-4.088v4.443h4.089v-4.443Z"/><path fill="#000" d="M77.65 22.213h-4.088v4.442h4.089v-4.442Z"/><path fill="url(#k)" d="M77.65 17.77h-4.088v4.443h4.089V17.77Z"/><path fill="url(#l)" d="M77.65 13.328h-4.088v4.442h4.089v-4.442Z"/><path fill="#F1EFED" d="M77.65 8.885h-4.088v4.443h4.089V8.885Z"/><path fill="#000" d="M77.65 4.443h-4.088v4.442h4.089V4.443ZM77.65 0h-4.088v4.443h4.089V0ZM73.563 48.868h-4.087v4.442h4.087v-4.442Z"/><path fill="#8F8E93" d="M73.563 44.425h-4.087v4.443h4.087v-4.443Z"/><path fill="url(#m)" d="M73.563 39.983h-4.087v4.442h4.087v-4.442Z"/><path fill="url(#n)" d="M73.563 35.54h-4.087v4.443h4.087V35.54Z"/><path fill="url(#o)" d="M73.563 31.098h-4.087v4.442h4.087v-4.442Z"/><path fill="#000" d="M73.563 26.655h-4.087v4.443h4.087v-4.443Z"/><path fill="url(#p)" d="M73.563 22.213h-4.087v4.442h4.087v-4.442Z"/><path fill="url(#q)" d="M73.563 17.77h-4.087v4.443h4.087V17.77Z"/><path fill="url(#r)" d="M73.563 13.328h-4.087v4.442h4.087v-4.442Z"/><path fill="#F1EFED" d="M73.563 8.885h-4.087v4.443h4.087V8.885ZM73.563 4.443h-4.087v4.442h4.087V4.443Z"/><path fill="#000" d="M73.563 0h-4.087v4.443h4.087V0ZM69.476 44.425H65.39v4.443h4.086v-4.443Z"/><path fill="#8F8E93" d="M69.476 39.983H65.39v4.442h4.086v-4.442Z"/><path fill="url(#s)" d="M69.476 35.54H65.39v4.443h4.086V35.54Z"/><path fill="#000" d="M69.476 31.098H65.39v4.442h4.086v-4.442Z"/><path fill="#F1EFED" d="M69.476 26.655H65.39v4.443h4.086v-4.443Z"/><path fill="#000" d="M69.476 22.213H65.39v4.442h4.086v-4.442Z"/><path fill="url(#t)" d="M69.476 17.77H65.39v4.443h4.086V17.77Z"/><path fill="url(#u)" d="M69.476 13.328H65.39v4.442h4.086v-4.442Z"/><path fill="#F1EFED" d="M69.476 8.885H65.39v4.443h4.086V8.885Z"/><path fill="#000" d="M69.476 4.443H65.39v4.442h4.086V4.443ZM65.39 44.425h-4.088v4.443h4.088v-4.443Z"/><path fill="#8F8E93" d="M65.39 39.983h-4.088v4.442h4.088v-4.442Z"/><path fill="url(#v)" d="M65.39 35.54h-4.088v4.443h4.088V35.54Z"/><path fill="#000" d="M65.39 31.098h-4.088v4.442h4.088v-4.442Z"/><path fill="#F1EFED" d="M65.39 26.655h-4.088v4.443h4.088v-4.443Z"/><path fill="url(#w)" d="M65.39 22.213h-4.088v4.442h4.088v-4.442Z"/><path fill="#F1EFED" d="M65.39 17.77h-4.088v4.443h4.088V17.77ZM65.39 13.328h-4.088v4.442h4.088v-4.442Z"/><path fill="#000" d="M65.39 8.885h-4.088v4.443h4.088V8.885ZM61.302 53.31h-4.086v4.443h4.086V53.31ZM61.302 48.868h-4.086v4.442h4.086v-4.442ZM61.302 44.425h-4.086v4.443h4.086v-4.443Z"/><path fill="#8F8E93" d="M61.302 39.983h-4.086v4.442h4.086v-4.442Z"/><path fill="#000" d="M61.302 35.54h-4.086v4.443h4.086V35.54Z"/><path fill="url(#x)" d="M61.302 31.098h-4.086v4.442h4.086v-4.442Z"/><path fill="#000" d="M61.302 26.655h-4.086v4.443h4.086v-4.443Z"/><path fill="url(#y)" d="M61.302 22.213h-4.086v4.442h4.086v-4.442Z"/><path fill="#F1EFED" d="M61.302 17.77h-4.086v4.443h4.086V17.77Z"/><path fill="#000" d="M61.302 13.328h-4.086v4.442h4.086v-4.442ZM61.302 8.885h-4.086v4.443h4.086V8.885ZM57.216 53.31H53.13v4.443h4.086V53.31Z"/><path fill="#8F8E93" d="M57.216 48.868H53.13v4.442h4.086v-4.442ZM57.216 44.425H53.13v4.443h4.086v-4.443ZM57.216 39.983H53.13v4.442h4.086v-4.442Z"/><path fill="url(#z)" d="M57.216 35.54H53.13v4.443h4.086V35.54Z"/><path fill="url(#A)" d="M57.216 31.098H53.13v4.442h4.086v-4.442Z"/><path fill="#8F8E93" d="M57.216 26.655H53.13v4.443h4.086v-4.443Z"/><path fill="url(#B)" d="M57.216 22.213H53.13v4.442h4.086v-4.442Z"/><path fill="url(#C)" d="M57.216 17.77H53.13v4.443h4.086V17.77Z"/><path fill="url(#D)" d="M57.216 13.328H53.13v4.442h4.086v-4.442Z"/><path fill="#000" d="M57.216 8.885H53.13v4.443h4.086V8.885ZM53.13 48.868h-4.088v4.442h4.088v-4.442Z"/><path fill="#8F8E93" d="M53.13 44.425h-4.088v4.443h4.088v-4.443Z"/><path fill="url(#E)" d="M53.13 39.983h-4.088v4.442h4.088v-4.442Z"/><path fill="url(#F)" d="M53.13 35.54h-4.088v4.443h4.088V35.54Z"/><path fill="#F1EFED" d="M53.13 31.098h-4.088v4.442h4.088v-4.442Z"/><path fill="#8F8E93" d="M53.13 26.655h-4.088v4.443h4.088v-4.443Z"/><path fill="url(#G)" d="M53.13 22.213h-4.088v4.442h4.088v-4.442Z"/><path fill="url(#H)" d="M53.13 17.77h-4.088v4.443h4.088V17.77Z"/><path fill="#000" d="M53.13 13.328h-4.088v4.442h4.088v-4.442ZM53.13 8.885h-4.088v4.443h4.088V8.885ZM49.042 48.868h-4.086v4.442h4.086v-4.442Z"/><path fill="#8F8E93" d="M49.042 44.425h-4.086v4.443h4.086v-4.443Z"/><path fill="url(#I)" d="M49.042 39.983h-4.086v4.442h4.086v-4.442Z"/><path fill="#F1EFED" d="M49.042 35.54h-4.086v4.443h4.086V35.54ZM49.042 31.098h-4.086v4.442h4.086v-4.442Z"/><path fill="#000" d="M49.042 26.655h-4.086v4.443h4.086v-4.443Z"/><path fill="url(#J)" d="M49.042 22.213h-4.086v4.442h4.086v-4.442Z"/><path fill="url(#K)" d="M49.042 17.77h-4.086v4.443h4.086V17.77Z"/><path fill="url(#L)" d="M49.042 13.328h-4.086v4.442h4.086v-4.442Z"/><path fill="#F1EFED" d="M49.042 8.885h-4.086v4.443h4.086V8.885Z"/><path fill="#000" d="M49.042 4.443h-4.086v4.442h4.086V4.443ZM44.956 48.868h-4.087v4.442h4.087v-4.442Z"/><path fill="#8F8E93" d="M44.956 44.425h-4.087v4.443h4.087v-4.443Z"/><path fill="url(#M)" d="M44.956 39.983h-4.087v4.442h4.087v-4.442Z"/><path fill="#8F8E93" d="M44.956 35.54h-4.087v4.443h4.087V35.54ZM44.956 31.098h-4.087v4.442h4.087v-4.442Z"/><path fill="#000" d="M44.956 26.655h-4.087v4.443h4.087v-4.443Z"/><path fill="url(#N)" d="M44.956 22.213h-4.087v4.442h4.087v-4.442Z"/><path fill="#000" d="M44.956 17.77h-4.087v4.443h4.087V17.77Z"/><path fill="url(#O)" d="M44.956 13.328h-4.087v4.442h4.087v-4.442Z"/><path fill="#F1EFED" d="M44.956 8.885h-4.087v4.443h4.087V8.885ZM44.956 4.443h-4.087v4.442h4.087V4.443Z"/><path fill="#000" d="M44.956 0h-4.087v4.443h4.087V0ZM40.87 57.753H36.78v4.442h4.089v-4.442ZM40.87 53.31H36.78v4.443h4.089V53.31ZM40.87 48.868H36.78v4.442h4.089v-4.442Z"/><path fill="#8F8E93" d="M40.87 44.425H36.78v4.443h4.089v-4.443Z"/><path fill="#000" d="M40.87 39.983H36.78v4.442h4.089v-4.442Z"/><path fill="#8F8E93" d="M40.87 35.54H36.78v4.443h4.089V35.54Z"/><path fill="#F1EFED" d="M40.87 31.098H36.78v4.442h4.089v-4.442ZM40.87 26.655H36.78v4.443h4.089v-4.443Z"/><path fill="url(#P)" d="M40.87 22.213H36.78v4.442h4.089v-4.442Z"/><path fill="#000" d="M40.87 17.77H36.78v4.443h4.089V17.77Z"/><path fill="url(#Q)" d="M40.87 13.328H36.78v4.442h4.089v-4.442Z"/><path fill="url(#R)" d="M40.87 8.885H36.78v4.443h4.089V8.885Z"/><path fill="#F1EFED" d="M40.87 4.443H36.78v4.442h4.089V4.443Z"/><path fill="#000" d="M40.87 0H36.78v4.443h4.089V0ZM36.781 75.523h-4.086v4.442h4.086v-4.442ZM36.781 62.195h-4.086v4.443h4.086v-4.443ZM36.781 57.753h-4.086v4.442h4.086v-4.442Z"/><path fill="url(#S)" d="M36.781 53.31h-4.086v4.443h4.086V53.31Z"/><path fill="#000" d="M36.781 48.868h-4.086v4.442h4.086v-4.442Z"/><path fill="#8F8E93" d="M36.781 44.425h-4.086v4.443h4.086v-4.443Z"/><path fill="#000" d="M36.781 39.983h-4.086v4.442h4.086v-4.442Z"/><path fill="url(#T)" d="M36.781 35.54h-4.086v4.443h4.086V35.54Z"/><path fill="#F1EFED" d="M36.781 31.098h-4.086v4.442h4.086v-4.442Z"/><path fill="url(#U)" d="M36.781 26.655h-4.086v4.443h4.086v-4.443Z"/><path fill="url(#V)" d="M36.781 22.213h-4.086v4.442h4.086v-4.442Z"/><path fill="url(#W)" d="M36.781 17.77h-4.086v4.443h4.086V17.77Z"/><path fill="#000" d="M36.781 13.328h-4.086v4.442h4.086v-4.442Z"/><path fill="url(#X)" d="M36.781 8.885h-4.086v4.443h4.086V8.885Z"/><path fill="url(#Y)" d="M36.781 4.443h-4.086v4.442h4.086V4.443Z"/><path fill="#000" d="M36.781 0h-4.086v4.443h4.086V0ZM32.695 79.965H28.61v4.443h4.086v-4.443ZM32.695 75.523H28.61v4.442h4.086v-4.442ZM32.695 66.638H28.61v4.442h4.086v-4.442ZM32.695 62.195H28.61v4.443h4.086v-4.443Z"/><path fill="url(#Z)" d="M32.695 57.753H28.61v4.442h4.086v-4.442Z"/><path fill="url(#aa)" d="M32.695 53.31H28.61v4.443h4.086V53.31Z"/><path fill="#000" d="M32.695 48.868H28.61v4.442h4.086v-4.442ZM32.695 44.425H28.61v4.443h4.086v-4.443ZM32.695 39.983H28.61v4.442h4.086v-4.442Z"/><path fill="url(#ab)" d="M32.695 35.54H28.61v4.443h4.086V35.54Z"/><path fill="#F1EFED" d="M32.695 31.098H28.61v4.442h4.086v-4.442Z"/><path fill="url(#ac)" d="M32.695 26.655H28.61v4.443h4.086v-4.443Z"/><path fill="url(#ad)" d="M32.695 22.213H28.61v4.442h4.086v-4.442Z"/><path fill="url(#ae)" d="M32.695 17.77H28.61v4.443h4.086V17.77Z"/><path fill="url(#af)" d="M32.695 13.328H28.61v4.442h4.086v-4.442Z"/><path fill="url(#ag)" d="M32.695 8.885H28.61v4.443h4.086V8.885Z"/><path fill="url(#ah)" d="M32.695 4.443H28.61v4.442h4.086V4.443Z"/><path fill="#000" d="M32.695 0H28.61v4.443h4.086V0ZM28.61 84.408h-4.09v4.442h4.09v-4.442Z"/><path fill="#000" d="M28.61 79.965h-4.09v4.443h4.09v-4.443Z"/><path fill="url(#ai)" d="M28.61 75.523h-4.09v4.442h4.09v-4.442Z"/><path fill="#000" d="M28.61 71.08h-4.09v4.443h4.09V71.08Z"/><path fill="#000" d="M28.61 66.638h-4.09v4.442h4.09v-4.442Z"/><path fill="url(#aj)" d="M28.61 62.195h-4.09v4.443h4.09v-4.443Z"/><path fill="url(#ak)" d="M28.61 57.753h-4.09v4.442h4.09v-4.442Z"/><path fill="url(#al)" d="M28.61 53.31h-4.09v4.443h4.09V53.31Z"/><path fill="url(#am)" d="M28.61 48.868h-4.09v4.442h4.09v-4.442Z"/><path fill="#000" d="M28.61 44.425h-4.09v4.443h4.09v-4.443Z"/><path fill="url(#an)" d="M28.61 39.983h-4.09v4.442h4.09v-4.442Z"/><path fill="url(#ao)" d="M28.61 35.54h-4.09v4.443h4.09V35.54Z"/><path fill="#000" d="M28.61 31.098h-4.09v4.442h4.09v-4.442ZM28.61 26.655h-4.09v4.443h4.09v-4.443ZM28.61 22.213h-4.09v4.442h4.09v-4.442Z"/><path fill="url(#ap)" d="M28.61 17.77h-4.09v4.443h4.09V17.77Z"/><path fill="url(#aq)" d="M28.61 13.328h-4.09v4.442h4.09v-4.442Z"/><path fill="#F1EFED" d="M28.61 8.885h-4.09v4.443h4.09V8.885ZM28.61 4.443h-4.09v4.442h4.09V4.443Z"/><path fill="#000" d="M28.61 0h-4.09v4.443h4.09V0ZM24.52 84.408h-4.085v4.442h4.086v-4.442Z"/><path fill="url(#ar)" d="M24.52 79.965h-4.085v4.443h4.086v-4.443Z"/><path fill="url(#as)" d="M24.52 75.523h-4.085v4.442h4.086v-4.442Z"/><path fill="#000" d="M24.52 71.08h-4.085v4.443h4.086V71.08Z"/><path fill="url(#at)" d="M24.52 66.638h-4.085v4.442h4.086v-4.442Z"/><path fill="url(#au)" d="M24.52 62.195h-4.085v4.443h4.086v-4.443Z"/><path fill="url(#av)" d="M24.52 57.753h-4.085v4.442h4.086v-4.442Z"/><path fill="url(#aw)" d="M24.52 53.31h-4.085v4.443h4.086V53.31Z"/><path fill="url(#ax)" d="M24.52 48.868h-4.085v4.442h4.086v-4.442Z"/><path fill="#000" d="M24.52 44.425h-4.085v4.443h4.086v-4.443Z"/><path fill="url(#ay)" d="M24.52 39.983h-4.085v4.442h4.086v-4.442Z"/><path fill="url(#az)" d="M24.52 35.54h-4.085v4.443h4.086V35.54Z"/><path fill="#000" d="M24.52 31.098h-4.085v4.442h4.086v-4.442Z"/><path fill="#F1EFED" d="M24.52 26.655h-4.085v4.443h4.086v-4.443ZM24.52 22.213h-4.085v4.442h4.086v-4.442Z"/><path fill="#000" d="M24.52 17.77h-4.085v4.443h4.086V17.77Z"/><path fill="#F1EFED" d="M24.52 13.328h-4.085v4.442h4.086v-4.442ZM24.52 8.885h-4.085v4.443h4.086V8.885ZM24.52 4.443h-4.085v4.442h4.086V4.443Z"/><path fill="#000" d="M24.52 0h-4.085v4.443h4.086V0ZM20.435 93.293h-4.086v4.442h4.086v-4.442ZM20.435 88.85h-4.086v4.443h4.086V88.85Z"/><path fill="url(#aA)" d="M20.435 84.408h-4.086v4.442h4.086v-4.442Z"/><path fill="url(#aB)" d="M20.435 75.523h-4.086v4.442h4.086v-4.442Z"/><path fill="url(#aC)" d="M20.435 71.08h-4.086v4.443h4.086V71.08Z"/><path fill="url(#aD)" d="M20.435 66.638h-4.086v4.442h4.086v-4.442Z"/><path fill="#000" d="M20.435 62.195h-4.086v4.443h4.086v-4.443Z"/><path fill="url(#aE)" d="M20.435 57.753h-4.086v4.442h4.086v-4.442Z"/><path fill="url(#aF)" d="M20.435 53.31h-4.086v4.443h4.086V53.31Z"/><path fill="#000" d="M20.435 48.868h-4.086v4.442h4.086v-4.442ZM20.435 39.983h-4.086v4.442h4.086v-4.442ZM20.435 35.54h-4.086v4.443h4.086V35.54Z"/><path fill="#8F8E93" d="M20.435 31.098h-4.086v4.442h4.086v-4.442Z"/><path fill="#F1EFED" d="M20.435 26.655h-4.086v4.443h4.086v-4.443ZM20.435 22.213h-4.086v4.442h4.086v-4.442Z"/><path fill="url(#aG)" d="M20.435 17.77h-4.086v4.443h4.086V17.77Z"/><path fill="#F1EFED" d="M20.435 13.328h-4.086v4.442h4.086v-4.442ZM20.435 8.885h-4.086v4.443h4.086V8.885Z"/><path fill="#000" d="M20.435 4.443h-4.086v4.442h4.086V4.443ZM16.349 97.736H12.26v4.442h4.089v-4.442ZM16.349 93.293H12.26v4.442h4.089v-4.442Z"/><path fill="url(#aH)" d="M16.349 88.85H12.26v4.443h4.089V88.85Z"/><path fill="url(#aI)" d="M16.349 75.523H12.26v4.442h4.089v-4.442Z"/><path fill="url(#aJ)" d="M16.349 71.08H12.26v4.443h4.089V71.08Z"/><path fill="#000" d="M16.349 66.638H12.26v4.442h4.089v-4.442Z"/><path fill="url(#aK)" d="M16.349 57.753H12.26v4.442h4.089v-4.442Z"/><path fill="#000" d="M16.349 53.31H12.26v4.443h4.089V53.31ZM16.349 35.54H12.26v4.443h4.089V35.54Z"/><path fill="#8F8E93" d="M16.349 31.098H12.26v4.442h4.089v-4.442ZM16.349 26.655H12.26v4.443h4.089v-4.443ZM16.349 22.213H12.26v4.442h4.089v-4.442Z"/><path fill="url(#aL)" d="M16.349 17.77H12.26v4.443h4.089V17.77Z"/><path fill="#000" d="M16.349 13.328H12.26v4.442h4.089v-4.442ZM16.349 8.885H12.26v4.443h4.089V8.885ZM16.349 4.443H12.26v4.442h4.089V4.443ZM12.26 97.736H8.174v4.442h4.086v-4.442Z"/><path fill="url(#aM)" d="M12.26 93.293H8.174v4.442h4.086v-4.442Z"/><path fill="url(#aN)" d="M12.26 75.523H8.174v4.442h4.086v-4.442Z"/><path fill="#000" d="M12.26 71.08H8.174v4.443h4.086V71.08ZM12.26 57.753H8.174v4.442h4.086v-4.442ZM12.26 35.54H8.174v4.443h4.086V35.54Z"/><path fill="#8F8E93" d="M12.26 31.098H8.174v4.442h4.086v-4.442ZM12.26 26.655H8.174v4.443h4.086v-4.443Z"/><path fill="url(#aO)" d="M12.26 22.213H8.174v4.442h4.086v-4.442Z"/><path fill="url(#aP)" d="M12.26 17.77H8.174v4.443h4.086V17.77Z"/><path fill="#000" d="M12.26 13.328H8.174v4.442h4.086v-4.442ZM8.174 75.523H4.088v4.442h4.086v-4.442ZM8.174 35.54H4.088v4.443h4.086V35.54ZM8.174 31.098H4.088v4.442h4.086v-4.442Z"/><path fill="#F1EFED" d="M8.174 26.655H4.088v4.443h4.086v-4.443ZM8.174 22.213H4.088v4.442h4.086v-4.442ZM8.174 17.77H4.088v4.443h4.086V17.77Z"/><path fill="#000" d="M8.174 13.328H4.088v4.442h4.086v-4.442ZM4.088 26.655H0v4.443h4.088v-4.443ZM4.088 22.213H0v4.442h4.088v-4.442ZM4.088 17.77H0v4.443h4.088V17.77Z"/><defs><linearGradient id="a" x1="15.248" x2="157.74" y1="186.016" y2="134.879" gradientUnits="userSpaceOnUse"><stop stop-color="#D6FFBB"/><stop offset=".717" stop-color="#5869DD"/></linearGradient><linearGradient id="b" x1="15.248" x2="157.74" y1="186.016" y2="134.879" gradientUnits="userSpaceOnUse"><stop stop-color="#D6FFBB"/><stop offset=".717" stop-color="#5869DD"/></linearGradient><linearGradient id="c" x1="15.248" x2="157.74" y1="186.016" y2="134.879" gradientUnits="userSpaceOnUse"><stop stop-color="#D6FFBB"/><stop offset=".717" stop-color="#5869DD"/></linearGradient><linearGradient id="d" x1="15.248" x2="157.74" y1="186.016" y2="134.879" gradientUnits="userSpaceOnUse"><stop stop-color="#D6FFBB"/><stop offset=".717" stop-color="#5869DD"/></linearGradient><linearGradient id="e" x1="15.248" x2="157.74" y1="186.016" y2="134.879" gradientUnits="userSpaceOnUse"><stop stop-color="#D6FFBB"/><stop offset=".717" stop-color="#5869DD"/></linearGradient><linearGradient id="f" x1="15.248" x2="157.74" y1="186.016" y2="134.879" gradientUnits="userSpaceOnUse"><stop stop-color="#D6FFBB"/><stop offset=".717" stop-color="#5869DD"/></linearGradient><linearGradient id="g" x1="15.248" x2="157.74" y1="186.016" y2="134.879" gradientUnits="userSpaceOnUse"><stop stop-color="#D6FFBB"/><stop offset=".717" stop-color="#5869DD"/></linearGradient><linearGradient id="h" x1="15.248" x2="157.74" y1="186.016" y2="134.879" gradientUnits="userSpaceOnUse"><stop stop-color="#D6FFBB"/><stop offset=".717" stop-color="#5869DD"/></linearGradient><linearGradient id="i" x1="15.248" x2="157.74" y1="186.016" y2="134.879" gradientUnits="userSpaceOnUse"><stop stop-color="#D6FFBB"/><stop offset=".717" stop-color="#5869DD"/></linearGradient><linearGradient id="j" x1="15.248" x2="157.74" y1="186.016" y2="134.879" gradientUnits="userSpaceOnUse"><stop stop-color="#D6FFBB"/><stop offset=".717" stop-color="#5869DD"/></linearGradient><linearGradient id="k" x1="15.248" x2="157.74" y1="186.016" y2="134.879" gradientUnits="userSpaceOnUse"><stop stop-color="#D6FFBB"/><stop offset=".717" stop-color="#5869DD"/></linearGradient><linearGradient id="l" x1="15.248" x2="157.74" y1="186.016" y2="134.879" gradientUnits="userSpaceOnUse"><stop stop-color="#D6FFBB"/><stop offset=".717" stop-color="#5869DD"/></linearGradient><linearGradient id="m" x1="15.248" x2="157.74" y1="186.016" y2="134.879" gradientUnits="userSpaceOnUse"><stop stop-color="#D6FFBB"/><stop offset=".717" stop-color="#5869DD"/></linearGradient><linearGradient id="n" x1="15.248" x2="157.74" y1="186.016" y2="134.879" gradientUnits="userSpaceOnUse"><stop stop-color="#D6FFBB"/><stop offset=".717" stop-color="#5869DD"/></linearGradient><linearGradient id="o" x1="15.248" x2="157.74" y1="186.016" y2="134.879" gradientUnits="userSpaceOnUse"><stop stop-color="#D6FFBB"/><stop offset=".717" stop-color="#5869DD"/></linearGradient><linearGradient id="p" x1="15.248" x2="157.74" y1="186.016" y2="134.879" gradientUnits="userSpaceOnUse"><stop stop-color="#D6FFBB"/><stop offset=".717" stop-color="#5869DD"/></linearGradient><linearGradient id="q" x1="15.248" x2="157.74" y1="186.016" y2="134.879" gradientUnits="userSpaceOnUse"><stop stop-color="#D6FFBB"/><stop offset=".717" stop-color="#5869DD"/></linearGradient><linearGradient id="r" x1="15.248" x2="157.74" y1="186.016" y2="134.879" gradientUnits="userSpaceOnUse"><stop stop-color="#D6FFBB"/><stop offset=".717" stop-color="#5869DD"/></linearGradient><linearGradient id="s" x1="15.248" x2="157.74" y1="186.016" y2="134.879" gradientUnits="userSpaceOnUse"><stop stop-color="#D6FFBB"/><stop offset=".717" stop-color="#5869DD"/></linearGradient><linearGradient id="t" x1="15.248" x2="157.74" y1="186.016" y2="134.879" gradientUnits="userSpaceOnUse"><stop stop-color="#D6FFBB"/><stop offset=".717" stop-color="#5869DD"/></linearGradient><linearGradient id="u" x1="15.248" x2="157.74" y1="186.016" y2="134.879" gradientUnits="userSpaceOnUse"><stop stop-color="#D6FFBB"/><stop offset=".717" stop-color="#5869DD"/></linearGradient><linearGradient id="v" x1="15.248" x2="157.74" y1="186.016" y2="134.879" gradientUnits="userSpaceOnUse"><stop stop-color="#D6FFBB"/><stop offset=".717" stop-color="#5869DD"/></linearGradient><linearGradient id="w" x1="15.248" x2="157.74" y1="186.016" y2="134.879" gradientUnits="userSpaceOnUse"><stop stop-color="#D6FFBB"/><stop offset=".717" stop-color="#5869DD"/></linearGradient><linearGradient id="x" x1="15.248" x2="157.74" y1="186.016" y2="134.879" gradientUnits="userSpaceOnUse"><stop stop-color="#D6FFBB"/><stop offset=".717" stop-color="#5869DD"/></linearGradient><linearGradient id="y" x1="15.248" x2="157.74" y1="186.016" y2="134.879" gradientUnits="userSpaceOnUse"><stop stop-color="#D6FFBB"/><stop offset=".717" stop-color="#5869DD"/></linearGradient><linearGradient id="z" x1="15.248" x2="157.74" y1="186.016" y2="134.879" gradientUnits="userSpaceOnUse"><stop stop-color="#D6FFBB"/><stop offset=".717" stop-color="#5869DD"/></linearGradient><linearGradient id="A" x1="15.248" x2="157.74" y1="186.016" y2="134.879" gradientUnits="userSpaceOnUse"><stop stop-color="#D6FFBB"/><stop offset=".717" stop-color="#5869DD"/></linearGradient><linearGradient id="B" x1="15.248" x2="157.74" y1="186.016" y2="134.879" gradientUnits="userSpaceOnUse"><stop stop-color="#D6FFBB"/><stop offset=".717" stop-color="#5869DD"/></linearGradient><linearGradient id="C" x1="15.248" x2="157.74" y1="186.016" y2="134.879" gradientUnits="userSpaceOnUse"><stop stop-color="#D6FFBB"/><stop offset=".717" stop-color="#5869DD"/></linearGradient><linearGradient id="D" x1="15.248" x2="157.74" y1="186.016" y2="134.879" gradientUnits="userSpaceOnUse"><stop stop-color="#D6FFBB"/><stop offset=".717" stop-color="#5869DD"/></linearGradient><linearGradient id="E" x1="15.248" x2="157.74" y1="186.016" y2="134.879" gradientUnits="userSpaceOnUse"><stop stop-color="#D6FFBB"/><stop offset=".717" stop-color="#5869DD"/></linearGradient><linearGradient id="F" x1="15.248" x2="157.74" y1="186.016" y2="134.879" gradientUnits="userSpaceOnUse"><stop stop-color="#D6FFBB"/><stop offset=".717" stop-color="#5869DD"/></linearGradient><linearGradient id="G" x1="15.248" x2="157.74" y1="186.016" y2="134.879" gradientUnits="userSpaceOnUse"><stop stop-color="#D6FFBB"/><stop offset=".717" stop-color="#5869DD"/></linearGradient><linearGradient id="H" x1="15.248" x2="157.74" y1="186.016" y2="134.879" gradientUnits="userSpaceOnUse"><stop stop-color="#D6FFBB"/><stop offset=".717" stop-color="#5869DD"/></linearGradient><linearGradient id="I" x1="15.248" x2="157.74" y1="186.016" y2="134.879" gradientUnits="userSpaceOnUse"><stop stop-color="#D6FFBB"/><stop offset=".717" stop-color="#5869DD"/></linearGradient><linearGradient id="J" x1="15.248" x2="157.74" y1="186.016" y2="134.879" gradientUnits="userSpaceOnUse"><stop stop-color="#D6FFBB"/><stop offset=".717" stop-color="#5869DD"/></linearGradient><linearGradient id="K" x1="15.248" x2="157.74" y1="186.016" y2="134.879" gradientUnits="userSpaceOnUse"><stop stop-color="#D6FFBB"/><stop offset=".717" stop-color="#5869DD"/></linearGradient><linearGradient id="L" x1="15.248" x2="157.74" y1="186.016" y2="134.879" gradientUnits="userSpaceOnUse"><stop stop-color="#D6FFBB"/><stop offset=".717" stop-color="#5869DD"/></linearGradient><linearGradient id="M" x1="15.248" x2="157.74" y1="186.016" y2="134.879" gradientUnits="userSpaceOnUse"><stop stop-color="#D6FFBB"/><stop offset=".717" stop-color="#5869DD"/></linearGradient><linearGradient id="N" x1="15.248" x2="157.74" y1="186.016" y2="134.879" gradientUnits="userSpaceOnUse"><stop stop-color="#D6FFBB"/><stop offset=".717" stop-color="#5869DD"/></linearGradient><linearGradient id="O" x1="15.248" x2="157.74" y1="186.016" y2="134.879" gradientUnits="userSpaceOnUse"><stop stop-color="#D6FFBB"/><stop offset=".717" stop-color="#5869DD"/></linearGradient><linearGradient id="P" x1="15.248" x2="157.74" y1="186.016" y2="134.879" gradientUnits="userSpaceOnUse"><stop stop-color="#D6FFBB"/><stop offset=".717" stop-color="#5869DD"/></linearGradient><linearGradient id="Q" x1="15.248" x2="157.74" y1="186.016" y2="134.879" gradientUnits="userSpaceOnUse"><stop stop-color="#D6FFBB"/><stop offset=".717" stop-color="#5869DD"/></linearGradient><linearGradient id="R" x1="15.248" x2="157.74" y1="186.016" y2="134.879" gradientUnits="userSpaceOnUse"><stop stop-color="#D6FFBB"/><stop offset=".717" stop-color="#5869DD"/></linearGradient><linearGradient id="S" x1="0" x2="89.911" y1="51.089" y2="51.089" gradientUnits="userSpaceOnUse"><stop stop-color="#D6FFBB"/><stop offset=".524" stop-color="#5869DD"/></linearGradient><linearGradient id="T" x1="15.248" x2="157.74" y1="186.016" y2="134.879" gradientUnits="userSpaceOnUse"><stop stop-color="#D6FFBB"/><stop offset=".717" stop-color="#5869DD"/></linearGradient><linearGradient id="U" x1="15.248" x2="157.74" y1="186.016" y2="134.879" gradientUnits="userSpaceOnUse"><stop stop-color="#D6FFBB"/><stop offset=".717" stop-color="#5869DD"/></linearGradient><linearGradient id="V" x1="15.248" x2="157.74" y1="186.016" y2="134.879" gradientUnits="userSpaceOnUse"><stop stop-color="#D6FFBB"/><stop offset=".717" stop-color="#5869DD"/></linearGradient><linearGradient id="W" x1="15.248" x2="157.74" y1="186.016" y2="134.879" gradientUnits="userSpaceOnUse"><stop stop-color="#D6FFBB"/><stop offset=".717" stop-color="#5869DD"/></linearGradient><linearGradient id="X" x1="15.248" x2="157.74" y1="186.016" y2="134.879" gradientUnits="userSpaceOnUse"><stop stop-color="#D6FFBB"/><stop offset=".717" stop-color="#5869DD"/></linearGradient><linearGradient id="Y" x1="15.248" x2="157.74" y1="186.016" y2="134.879" gradientUnits="userSpaceOnUse"><stop stop-color="#D6FFBB"/><stop offset=".717" stop-color="#5869DD"/></linearGradient><linearGradient id="Z" x1="0" x2="89.911" y1="51.089" y2="51.089" gradientUnits="userSpaceOnUse"><stop stop-color="#D6FFBB"/><stop offset=".524" stop-color="#5869DD"/></linearGradient><linearGradient id="aa" x1="0" x2="89.911" y1="51.089" y2="51.089" gradientUnits="userSpaceOnUse"><stop stop-color="#D6FFBB"/><stop offset=".524" stop-color="#5869DD"/></linearGradient><linearGradient id="ab" x1="15.248" x2="157.74" y1="186.016" y2="134.879" gradientUnits="userSpaceOnUse"><stop stop-color="#D6FFBB"/><stop offset=".717" stop-color="#5869DD"/></linearGradient><linearGradient id="ac" x1="15.248" x2="157.74" y1="186.016" y2="134.879" gradientUnits="userSpaceOnUse"><stop stop-color="#D6FFBB"/><stop offset=".717" stop-color="#5869DD"/></linearGradient><linearGradient id="ad" x1="15.248" x2="157.74" y1="186.016" y2="134.879" gradientUnits="userSpaceOnUse"><stop stop-color="#D6FFBB"/><stop offset=".717" stop-color="#5869DD"/></linearGradient><linearGradient id="ae" x1="15.248" x2="157.74" y1="186.016" y2="134.879" gradientUnits="userSpaceOnUse"><stop stop-color="#D6FFBB"/><stop offset=".717" stop-color="#5869DD"/></linearGradient><linearGradient id="af" x1="15.248" x2="157.74" y1="186.016" y2="134.879" gradientUnits="userSpaceOnUse"><stop stop-color="#D6FFBB"/><stop offset=".717" stop-color="#5869DD"/></linearGradient><linearGradient id="ag" x1="15.248" x2="157.74" y1="186.016" y2="134.879" gradientUnits="userSpaceOnUse"><stop stop-color="#D6FFBB"/><stop offset=".717" stop-color="#5869DD"/></linearGradient><linearGradient id="ah" x1="15.248" x2="157.74" y1="186.016" y2="134.879" gradientUnits="userSpaceOnUse"><stop stop-color="#D6FFBB"/><stop offset=".717" stop-color="#5869DD"/></linearGradient><linearGradient id="ai" x1="0" x2="89.911" y1="51.089" y2="51.089" gradientUnits="userSpaceOnUse"><stop stop-color="#D6FFBB"/><stop offset=".524" stop-color="#5869DD"/></linearGradient><linearGradient id="aj" x1="0" x2="89.911" y1="51.089" y2="51.089" gradientUnits="userSpaceOnUse"><stop stop-color="#D6FFBB"/><stop offset=".524" stop-color="#5869DD"/></linearGradient><linearGradient id="ak" x1="0" x2="89.911" y1="51.089" y2="51.089" gradientUnits="userSpaceOnUse"><stop stop-color="#D6FFBB"/><stop offset=".524" stop-color="#5869DD"/></linearGradient><linearGradient id="al" x1="0" x2="89.911" y1="51.089" y2="51.089" gradientUnits="userSpaceOnUse"><stop stop-color="#D6FFBB"/><stop offset=".524" stop-color="#5869DD"/></linearGradient><linearGradient id="am" x1="0" x2="89.911" y1="51.089" y2="51.089" gradientUnits="userSpaceOnUse"><stop stop-color="#D6FFBB"/><stop offset=".524" stop-color="#5869DD"/></linearGradient><linearGradient id="an" x1="15.248" x2="157.74" y1="186.016" y2="134.879" gradientUnits="userSpaceOnUse"><stop stop-color="#D6FFBB"/><stop offset=".717" stop-color="#5869DD"/></linearGradient><linearGradient id="ao" x1="15.248" x2="157.74" y1="186.016" y2="134.879" gradientUnits="userSpaceOnUse"><stop stop-color="#D6FFBB"/><stop offset=".717" stop-color="#5869DD"/></linearGradient><linearGradient id="ap" x1="15.248" x2="157.74" y1="186.016" y2="134.879" gradientUnits="userSpaceOnUse"><stop stop-color="#D6FFBB"/><stop offset=".717" stop-color="#5869DD"/></linearGradient><linearGradient id="aq" x1="15.248" x2="157.74" y1="186.016" y2="134.879" gradientUnits="userSpaceOnUse"><stop stop-color="#D6FFBB"/><stop offset=".717" stop-color="#5869DD"/></linearGradient><linearGradient id="ar" x1="0" x2="89.911" y1="51.089" y2="51.089" gradientUnits="userSpaceOnUse"><stop stop-color="#D6FFBB"/><stop offset=".524" stop-color="#5869DD"/></linearGradient><linearGradient id="as" x1="0" x2="89.911" y1="51.089" y2="51.089" gradientUnits="userSpaceOnUse"><stop stop-color="#D6FFBB"/><stop offset=".524" stop-color="#5869DD"/></linearGradient><linearGradient id="at" x1="0" x2="89.911" y1="51.089" y2="51.089" gradientUnits="userSpaceOnUse"><stop stop-color="#D6FFBB"/><stop offset=".524" stop-color="#5869DD"/></linearGradient><linearGradient id="au" x1="0" x2="89.911" y1="51.089" y2="51.089" gradientUnits="userSpaceOnUse"><stop stop-color="#D6FFBB"/><stop offset=".524" stop-color="#5869DD"/></linearGradient><linearGradient id="av" x1="0" x2="89.911" y1="51.089" y2="51.089" gradientUnits="userSpaceOnUse"><stop stop-color="#D6FFBB"/><stop offset=".524" stop-color="#5869DD"/></linearGradient><linearGradient id="aw" x1="0" x2="89.911" y1="51.089" y2="51.089" gradientUnits="userSpaceOnUse"><stop stop-color="#D6FFBB"/><stop offset=".524" stop-color="#5869DD"/></linearGradient><linearGradient id="ax" x1="0" x2="89.911" y1="51.089" y2="51.089" gradientUnits="userSpaceOnUse"><stop stop-color="#D6FFBB"/><stop offset=".524" stop-color="#5869DD"/></linearGradient><linearGradient id="ay" x1="15.248" x2="157.74" y1="186.016" y2="134.879" gradientUnits="userSpaceOnUse"><stop stop-color="#D6FFBB"/><stop offset=".717" stop-color="#5869DD"/></linearGradient><linearGradient id="az" x1="15.248" x2="157.74" y1="186.016" y2="134.879" gradientUnits="userSpaceOnUse"><stop stop-color="#D6FFBB"/><stop offset=".717" stop-color="#5869DD"/></linearGradient><linearGradient id="aA" x1="0" x2="89.911" y1="51.089" y2="51.089" gradientUnits="userSpaceOnUse"><stop stop-color="#D6FFBB"/><stop offset=".524" stop-color="#5869DD"/></linearGradient><linearGradient id="aB" x1="0" x2="89.911" y1="51.089" y2="51.089" gradientUnits="userSpaceOnUse"><stop stop-color="#D6FFBB"/><stop offset=".524" stop-color="#5869DD"/></linearGradient><linearGradient id="aC" x1="0" x2="89.911" y1="51.089" y2="51.089" gradientUnits="userSpaceOnUse"><stop stop-color="#D6FFBB"/><stop offset=".524" stop-color="#5869DD"/></linearGradient><linearGradient id="aD" x1="0" x2="89.911" y1="51.089" y2="51.089" gradientUnits="userSpaceOnUse"><stop stop-color="#D6FFBB"/><stop offset=".524" stop-color="#5869DD"/></linearGradient><linearGradient id="aE" x1="0" x2="89.911" y1="51.089" y2="51.089" gradientUnits="userSpaceOnUse"><stop stop-color="#D6FFBB"/><stop offset=".524" stop-color="#5869DD"/></linearGradient><linearGradient id="aF" x1="0" x2="89.911" y1="51.089" y2="51.089" gradientUnits="userSpaceOnUse"><stop stop-color="#D6FFBB"/><stop offset=".524" stop-color="#5869DD"/></linearGradient><linearGradient id="aG" x1="15.248" x2="157.74" y1="186.016" y2="134.879" gradientUnits="userSpaceOnUse"><stop stop-color="#D6FFBB"/><stop offset=".717" stop-color="#5869DD"/></linearGradient><linearGradient id="aH" x1="0" x2="89.911" y1="51.089" y2="51.089" gradientUnits="userSpaceOnUse"><stop stop-color="#D6FFBB"/><stop offset=".524" stop-color="#5869DD"/></linearGradient><linearGradient id="aI" x1="0" x2="89.911" y1="51.089" y2="51.089" gradientUnits="userSpaceOnUse"><stop stop-color="#D6FFBB"/><stop offset=".524" stop-color="#5869DD"/></linearGradient><linearGradient id="aJ" x1="0" x2="89.911" y1="51.089" y2="51.089" gradientUnits="userSpaceOnUse"><stop stop-color="#D6FFBB"/><stop offset=".524" stop-color="#5869DD"/></linearGradient><linearGradient id="aK" x1="0" x2="89.911" y1="51.089" y2="51.089" gradientUnits="userSpaceOnUse"><stop stop-color="#D6FFBB"/><stop offset=".524" stop-color="#5869DD"/></linearGradient><linearGradient id="aL" x1="15.248" x2="157.74" y1="186.016" y2="134.879" gradientUnits="userSpaceOnUse"><stop stop-color="#D6FFBB"/><stop offset=".717" stop-color="#5869DD"/></linearGradient><linearGradient id="aM" x1="0" x2="89.911" y1="51.089" y2="51.089" gradientUnits="userSpaceOnUse"><stop stop-color="#D6FFBB"/><stop offset=".524" stop-color="#5869DD"/></linearGradient><linearGradient id="aN" x1="0" x2="89.911" y1="51.089" y2="51.089" gradientUnits="userSpaceOnUse"><stop stop-color="#D6FFBB"/><stop offset=".524" stop-color="#5869DD"/></linearGradient><linearGradient id="aO" x1="15.248" x2="157.74" y1="186.016" y2="134.879" gradientUnits="userSpaceOnUse"><stop stop-color="#D6FFBB"/><stop offset=".717" stop-color="#5869DD"/></linearGradient><linearGradient id="aP" x1="15.248" x2="157.74" y1="186.016" y2="134.879" gradientUnits="userSpaceOnUse"><stop stop-color="#D6FFBB"/><stop offset=".717" stop-color="#5869DD"/></linearGradient></defs></svg>
