<svg xmlns="http://www.w3.org/2000/svg" width="93" height="96" fill="none" viewBox="0 0 93 96"><path fill="#000" d="M92.213 59.644h-5.427v5.964h5.427v-5.964ZM92.213 53.68h-5.427v5.964h5.427v-5.965ZM92.213 47.715h-5.427v5.964h5.427v-5.964ZM92.213 41.75h-5.427v5.965h5.427V41.75Z"/><path fill="#000" d="M92.213 35.786h-5.427v5.965h5.427v-5.965ZM92.213 29.822h-5.427v5.964h5.427v-5.964ZM92.213 23.857h-5.427v5.965h5.427v-5.965ZM92.213 17.893h-5.427v5.964h5.427v-5.964ZM92.213 11.929h-5.427v5.964h5.427V11.93ZM92.213 5.964h-5.427v5.965h5.427V5.964ZM92.213 0h-5.427v5.964h5.427V0ZM86.786 65.608h-5.423v5.964h5.423v-5.964Z"/><path fill="#5869DD" d="M86.786 59.644h-5.423v5.964h5.423v-5.964Z"/><path fill="#F1EFED" d="M86.786 53.68h-5.423v5.964h5.423v-5.965Z"/><path fill="#5869DD" d="M86.786 47.715h-5.423v5.964h5.423v-5.964ZM86.786 41.75h-5.423v5.965h5.423V41.75Z"/><path fill="#5869DD" d="M86.786 35.786h-5.423v5.965h5.423v-5.965ZM86.786 29.822h-5.423v5.964h5.423v-5.964ZM86.786 23.857h-5.423v5.965h5.423v-5.965ZM86.786 17.893h-5.423v5.964h5.423v-5.964ZM86.786 11.929h-5.423v5.964h5.423V11.93Z"/><path fill="#8F8E93" d="M86.786 5.964h-5.423v5.965h5.423V5.964ZM86.786 0h-5.423v5.964h5.423V0Z"/><path fill="#000" d="M81.363 71.572H75.94v5.965h5.423v-5.965Z"/><path fill="#5869DD" d="M81.363 65.608H75.94v5.964h5.423v-5.964Z"/><path fill="#F1EFED" d="M81.363 59.644H75.94v5.964h5.423v-5.964ZM81.363 53.68H75.94v5.964h5.423v-5.965ZM81.363 47.715H75.94v5.964h5.423v-5.964ZM81.363 41.75H75.94v5.965h5.423V41.75Z"/><path fill="#F1EFED" d="M81.363 35.786H75.94v5.965h5.423v-5.965ZM81.363 29.822H75.94v5.964h5.423v-5.964Z"/><path fill="#5869DD" d="M81.363 23.857H75.94v5.965h5.423v-5.965ZM81.363 17.893H75.94v5.964h5.423v-5.964Z"/><path fill="#8F8E93" d="M81.363 11.929H75.94v5.964h5.423V11.93Z"/><path fill="url(#a)" d="M81.363 5.964H75.94v5.965h5.423V5.964Z"/><path fill="#8F8E93" d="M81.363 0H75.94v5.964h5.423V0Z"/><path fill="#000" d="M75.94 77.537h-5.427V83.5h5.427v-5.964Z"/><path fill="#5869DD" d="M75.94 71.572h-5.427v5.965h5.427v-5.965Z"/><path fill="#F1EFED" d="M75.94 65.608h-5.427v5.964h5.427v-5.964Z"/><path fill="#5869DD" d="M75.94 59.644h-5.427v5.964h5.427v-5.964ZM75.94 53.68h-5.427v5.964h5.427v-5.965ZM75.94 47.715h-5.427v5.964h5.427v-5.964ZM75.94 41.75h-5.427v5.965h5.427V41.75Z"/><path fill="#F1EFED" d="M75.94 35.786h-5.427v5.965h5.427v-5.965Z"/><path fill="#5869DD" d="M75.94 29.822h-5.427v5.964h5.427v-5.964ZM75.94 23.857h-5.427v5.965h5.427v-5.965Z"/><path fill="#8F8E93" d="M75.94 17.893h-5.427v5.964h5.427v-5.964Z"/><path fill="url(#b)" d="M75.94 11.929h-5.427v5.964h5.427V11.93Z"/><path fill="url(#c)" d="M75.94 5.964h-5.427v5.965h5.427V5.964Z"/><path fill="#8F8E93" d="M75.94 0h-5.427v5.964h5.427V0Z"/><path fill="#000" d="M70.513 83.501h-5.422v5.964h5.422v-5.964Z"/><path fill="#5869DD" d="M70.513 77.537h-5.422V83.5h5.422v-5.964Z"/><path fill="#5869DD" d="M70.513 71.572h-5.422v5.965h5.422v-5.965ZM70.513 65.608h-5.422v5.964h5.422v-5.964ZM70.513 59.644h-5.422v5.964h5.422v-5.964ZM70.513 53.68h-5.422v5.964h5.422v-5.965ZM70.513 47.715h-5.422v5.964h5.422v-5.964ZM70.513 41.75h-5.422v5.965h5.422V41.75Z"/><path fill="#5869DD" d="M70.513 35.786h-5.422v5.965h5.422v-5.965ZM70.513 29.822h-5.422v5.964h5.422v-5.964Z"/><path fill="#8F8E93" d="M70.513 23.857h-5.422v5.965h5.422v-5.965Z"/><path fill="url(#d)" d="M70.513 17.893h-5.422v5.964h5.422v-5.964Z"/><path fill="url(#e)" d="M70.513 11.929h-5.422v5.964h5.422V11.93Z"/><path fill="url(#f)" d="M70.513 5.964h-5.422v5.965h5.422V5.964Z"/><path fill="#8F8E93" d="M70.513 0h-5.422v5.964h5.422V0Z"/><path fill="#000" d="M65.09 89.465h-5.422v5.965h5.423v-5.965Z"/><path fill="#8F8E93" d="M65.09 83.501h-5.422v5.964h5.423v-5.964ZM65.09 77.537h-5.422V83.5h5.423v-5.964Z"/><path fill="#8F8E93" d="M65.09 71.572h-5.422v5.965h5.423v-5.965ZM65.09 65.608h-5.422v5.964h5.423v-5.964ZM65.09 59.644h-5.422v5.964h5.423v-5.964ZM65.09 53.68h-5.422v5.964h5.423v-5.965ZM65.09 47.715h-5.422v5.964h5.423v-5.964ZM65.09 41.75h-5.422v5.965h5.423V41.75Z"/><path fill="#8F8E93" d="M65.09 35.786h-5.422v5.965h5.423v-5.965ZM65.09 29.822h-5.422v5.964h5.423v-5.964Z"/><path fill="url(#g)" d="M65.09 23.857h-5.422v5.965h5.423v-5.965Z"/><path fill="url(#h)" d="M65.09 17.893h-5.422v5.964h5.423v-5.964Z"/><path fill="url(#i)" d="M65.09 11.929h-5.422v5.964h5.423V11.93Z"/><path fill="url(#j)" d="M65.09 5.964h-5.422v5.965h5.423V5.964Z"/><path fill="#8F8E93" d="M65.09 0h-5.422v5.964h5.423V0Z"/><path fill="#000" d="M59.668 89.465H54.24v5.965h5.427v-5.965Z"/><path fill="#8F8E93" d="M59.668 83.501H54.24v5.964h5.427v-5.964Z"/><path fill="url(#k)" d="M59.668 77.537H54.24V83.5h5.427v-5.964Z"/><path fill="url(#l)" d="M59.668 71.572H54.24v5.965h5.427v-5.965Z"/><path fill="url(#m)" d="M59.668 65.608H54.24v5.964h5.427v-5.964Z"/><path fill="url(#n)" d="M59.668 59.644H54.24v5.964h5.427v-5.964Z"/><path fill="url(#o)" d="M59.668 53.68H54.24v5.964h5.427v-5.965Z"/><path fill="url(#p)" d="M59.668 47.715H54.24v5.964h5.427v-5.964Z"/><path fill="url(#q)" d="M59.668 41.75H54.24v5.965h5.427V41.75Z"/><path fill="url(#r)" d="M59.668 35.786H54.24v5.965h5.427v-5.965Z"/><path fill="#8F8E93" d="M59.668 29.822H54.24v5.964h5.427v-5.964Z"/><path fill="url(#s)" d="M59.668 23.857H54.24v5.965h5.427v-5.965Z"/><path fill="url(#t)" d="M59.668 17.893H54.24v5.964h5.427v-5.964Z"/><path fill="url(#u)" d="M59.668 11.929H54.24v5.964h5.427V11.93Z"/><path fill="#F1EFED" d="M59.668 5.964H54.24v5.965h5.427V5.964Z"/><path fill="#8F8E93" d="M59.668 0H54.24v5.964h5.427V0Z"/><path fill="#000" d="M54.24 89.465h-5.422v5.965h5.423v-5.965Z"/><path fill="#8F8E93" d="M54.24 83.501h-5.422v5.964h5.423v-5.964Z"/><path fill="url(#v)" d="M54.24 77.537h-5.422V83.5h5.423v-5.964Z"/><path fill="url(#w)" d="M54.24 71.572h-5.422v5.965h5.423v-5.965Z"/><path fill="url(#x)" d="M54.24 65.608h-5.422v5.964h5.423v-5.964Z"/><path fill="url(#y)" d="M54.24 59.644h-5.422v5.964h5.423v-5.964Z"/><path fill="url(#z)" d="M54.24 53.68h-5.422v5.964h5.423v-5.965Z"/><path fill="url(#A)" d="M54.24 47.715h-5.422v5.964h5.423v-5.964Z"/><path fill="url(#B)" d="M54.24 41.75h-5.422v5.965h5.423V41.75Z"/><path fill="url(#C)" d="M54.24 35.786h-5.422v5.965h5.423v-5.965Z"/><path fill="#8F8E93" d="M54.24 29.822h-5.422v5.964h5.423v-5.964Z"/><path fill="url(#D)" d="M54.24 23.857h-5.422v5.965h5.423v-5.965Z"/><path fill="url(#E)" d="M54.24 17.893h-5.422v5.964h5.423v-5.964Z"/><path fill="#F1EFED" d="M54.24 11.929h-5.422v5.964h5.423V11.93ZM54.24 5.964h-5.422v5.965h5.423V5.964Z"/><path fill="#8F8E93" d="M54.24 0h-5.422v5.964h5.423V0Z"/><path fill="#000" d="M48.818 89.465h-5.423v5.965h5.423v-5.965Z"/><path fill="#8F8E93" d="M48.818 83.501h-5.423v5.964h5.423v-5.964Z"/><path fill="url(#F)" d="M48.818 77.537h-5.423V83.5h5.423v-5.964Z"/><path fill="#F1EFED" d="M48.818 71.572h-5.423v5.965h5.423v-5.965Z"/><path fill="url(#G)" d="M48.818 65.608h-5.423v5.964h5.423v-5.964Z"/><path fill="url(#H)" d="M48.818 59.644h-5.423v5.964h5.423v-5.964Z"/><path fill="url(#I)" d="M48.818 53.68h-5.423v5.964h5.423v-5.965Z"/><path fill="url(#J)" d="M48.818 47.715h-5.423v5.964h5.423v-5.964Z"/><path fill="url(#K)" d="M48.818 41.75h-5.423v5.965h5.423V41.75Z"/><path fill="url(#L)" d="M48.818 35.786h-5.423v5.965h5.423v-5.965Z"/><path fill="#8F8E93" d="M48.818 29.822h-5.423v5.964h5.423v-5.964Z"/><path fill="url(#M)" d="M48.818 23.857h-5.423v5.965h5.423v-5.965Z"/><path fill="#F1EFED" d="M48.818 17.893h-5.423v5.964h5.423v-5.964Z"/><path fill="url(#N)" d="M48.818 11.929h-5.423v5.964h5.423V11.93Z"/><path fill="#F1EFED" d="M48.818 5.964h-5.423v5.965h5.423V5.964Z"/><path fill="#8F8E93" d="M48.818 0h-5.423v5.964h5.423V0Z"/><path fill="#000" d="M43.395 89.465h-5.427v5.965h5.427v-5.965Z"/><path fill="#8F8E93" d="M43.395 83.501h-5.427v5.964h5.427v-5.964Z"/><path fill="url(#O)" d="M43.395 77.537h-5.427V83.5h5.427v-5.964Z"/><path fill="#F1EFED" d="M43.395 71.572h-5.427v5.965h5.427v-5.965ZM43.395 65.608h-5.427v5.964h5.427v-5.964ZM43.395 59.644h-5.427v5.964h5.427v-5.964Z"/><path fill="url(#P)" d="M43.395 53.68h-5.427v5.964h5.427v-5.965Z"/><path fill="url(#Q)" d="M43.395 47.715h-5.427v5.964h5.427v-5.964Z"/><path fill="url(#R)" d="M43.395 41.75h-5.427v5.965h5.427V41.75Z"/><path fill="url(#S)" d="M43.395 35.786h-5.427v5.965h5.427v-5.965Z"/><path fill="#8F8E93" d="M43.395 29.822h-5.427v5.964h5.427v-5.964Z"/><path fill="#F1EFED" d="M43.395 23.857h-5.427v5.965h5.427v-5.965Z"/><path fill="url(#T)" d="M43.395 17.893h-5.427v5.964h5.427v-5.964Z"/><path fill="url(#U)" d="M43.395 11.929h-5.427v5.964h5.427V11.93Z"/><path fill="#F1EFED" d="M43.395 5.964h-5.427v5.965h5.427V5.964Z"/><path fill="#8F8E93" d="M43.395 0h-5.427v5.964h5.427V0Z"/><path fill="#000" d="M37.968 89.465h-5.423v5.965h5.423v-5.965Z"/><path fill="#8F8E93" d="M37.968 83.501h-5.423v5.964h5.423v-5.964Z"/><path fill="url(#V)" d="M37.968 77.537h-5.423V83.5h5.423v-5.964Z"/><path fill="url(#W)" d="M37.968 71.572h-5.423v5.965h5.423v-5.965Z"/><path fill="url(#X)" d="M37.968 65.608h-5.423v5.964h5.423v-5.964Z"/><path fill="#F1EFED" d="M37.968 59.644h-5.423v5.964h5.423v-5.964ZM37.968 53.68h-5.423v5.964h5.423v-5.965ZM37.968 47.715h-5.423v5.964h5.423v-5.964Z"/><path fill="url(#Y)" d="M37.968 41.75h-5.423v5.965h5.423V41.75Z"/><path fill="url(#Z)" d="M37.968 35.786h-5.423v5.965h5.423v-5.965Z"/><path fill="#8F8E93" d="M37.968 29.822h-5.423v5.964h5.423v-5.964Z"/><path fill="#F1EFED" d="M37.968 23.857h-5.423v5.965h5.423v-5.965Z"/><path fill="url(#aa)" d="M37.968 17.893h-5.423v5.964h5.423v-5.964Z"/><path fill="#F1EFED" d="M37.968 11.929h-5.423v5.964h5.423V11.93Z"/><path fill="url(#ab)" d="M37.968 5.964h-5.423v5.965h5.423V5.964Z"/><path fill="#8F8E93" d="M37.968 0h-5.423v5.964h5.423V0Z"/><path fill="#000" d="M32.545 89.465h-5.423v5.965h5.423v-5.965Z"/><path fill="#8F8E93" d="M32.545 83.501h-5.423v5.964h5.423v-5.964Z"/><path fill="url(#ac)" d="M32.545 77.537h-5.423V83.5h5.423v-5.964Z"/><path fill="url(#ad)" d="M32.545 71.572h-5.423v5.965h5.423v-5.965Z"/><path fill="url(#ae)" d="M32.545 65.608h-5.423v5.964h5.423v-5.964Z"/><path fill="#F1EFED" d="M32.545 59.644h-5.423v5.964h5.423v-5.964Z"/><path fill="url(#af)" d="M32.545 53.68h-5.423v5.964h5.423v-5.965Z"/><path fill="#F1EFED" d="M32.545 47.715h-5.423v5.964h5.423v-5.964ZM32.545 41.75h-5.423v5.965h5.423V41.75Z"/><path fill="url(#ag)" d="M32.545 35.786h-5.423v5.965h5.423v-5.965Z"/><path fill="#8F8E93" d="M32.545 29.822h-5.423v5.964h5.423v-5.964Z"/><path fill="#F1EFED" d="M32.545 23.857h-5.423v5.965h5.423v-5.965ZM32.545 17.893h-5.423v5.964h5.423v-5.964Z"/><path fill="url(#ah)" d="M32.545 11.929h-5.423v5.964h5.423V11.93Z"/><path fill="url(#ai)" d="M32.545 5.964h-5.423v5.965h5.423V5.964Z"/><path fill="#8F8E93" d="M32.545 0h-5.423v5.964h5.423V0Z"/><path fill="#000" d="M27.122 89.465h-5.427v5.965h5.427v-5.965Z"/><path fill="#8F8E93" d="M27.122 83.501h-5.427v5.964h5.427v-5.964Z"/><path fill="url(#aj)" d="M27.122 77.537h-5.427V83.5h5.427v-5.964Z"/><path fill="url(#ak)" d="M27.122 71.572h-5.427v5.965h5.427v-5.965Z"/><path fill="url(#al)" d="M27.122 65.608h-5.427v5.964h5.427v-5.964Z"/><path fill="#F1EFED" d="M27.122 59.644h-5.427v5.964h5.427v-5.964ZM27.122 53.68h-5.427v5.964h5.427v-5.965ZM27.122 47.715h-5.427v5.964h5.427v-5.964Z"/><path fill="url(#am)" d="M27.122 41.75h-5.427v5.965h5.427V41.75Z"/><path fill="url(#an)" d="M27.122 35.786h-5.427v5.965h5.427v-5.965Z"/><path fill="#8F8E93" d="M27.122 29.822h-5.427v5.964h5.427v-5.964Z"/><path fill="#F1EFED" d="M27.122 23.857h-5.427v5.965h5.427v-5.965Z"/><path fill="url(#ao)" d="M27.122 17.893h-5.427v5.964h5.427v-5.964Z"/><path fill="url(#ap)" d="M27.122 11.929h-5.427v5.964h5.427V11.93Z"/><path fill="url(#aq)" d="M27.122 5.964h-5.427v5.965h5.427V5.964Z"/><path fill="#8F8E93" d="M27.122 0h-5.427v5.964h5.427V0Z"/><path fill="#000" d="M21.695 89.465h-5.422v5.965h5.422v-5.965Z"/><path fill="#8F8E93" d="M21.695 83.501h-5.422v5.964h5.422v-5.964Z"/><path fill="url(#ar)" d="M21.695 77.537h-5.422V83.5h5.422v-5.964Z"/><path fill="#F1EFED" d="M21.695 71.572h-5.422v5.965h5.422v-5.965ZM21.695 65.608h-5.422v5.964h5.422v-5.964ZM21.695 59.644h-5.422v5.964h5.422v-5.964Z"/><path fill="url(#as)" d="M21.695 53.68h-5.422v5.964h5.422v-5.965Z"/><path fill="url(#at)" d="M21.695 47.715h-5.422v5.964h5.422v-5.964Z"/><path fill="url(#au)" d="M21.695 41.75h-5.422v5.965h5.422V41.75Z"/><path fill="url(#av)" d="M21.695 35.786h-5.422v5.965h5.422v-5.965Z"/><path fill="#8F8E93" d="M21.695 29.822h-5.422v5.964h5.422v-5.964Z"/><path fill="url(#aw)" d="M21.695 23.857h-5.422v5.965h5.422v-5.965Z"/><path fill="url(#ax)" d="M21.695 17.893h-5.422v5.964h5.422v-5.964Z"/><path fill="url(#ay)" d="M21.695 11.929h-5.422v5.964h5.422V11.93Z"/><path fill="#8F8E93" d="M21.695 5.964h-5.422v5.965h5.422V5.964Z"/><path fill="#000" d="M16.273 89.465H10.85v5.965h5.423v-5.965Z"/><path fill="#8F8E93" d="M16.273 83.501H10.85v5.964h5.423v-5.964Z"/><path fill="url(#az)" d="M16.273 77.537H10.85V83.5h5.423v-5.964Z"/><path fill="#F1EFED" d="M16.273 71.572H10.85v5.965h5.423v-5.965Z"/><path fill="url(#aA)" d="M16.273 65.608H10.85v5.964h5.423v-5.964Z"/><path fill="url(#aB)" d="M16.273 59.644H10.85v5.964h5.423v-5.964Z"/><path fill="url(#aC)" d="M16.273 53.68H10.85v5.964h5.423v-5.965Z"/><path fill="url(#aD)" d="M16.273 47.715H10.85v5.964h5.423v-5.964Z"/><path fill="url(#aE)" d="M16.273 41.75H10.85v5.965h5.423V41.75Z"/><path fill="url(#aF)" d="M16.273 35.786H10.85v5.965h5.423v-5.965Z"/><path fill="#8F8E93" d="M16.273 29.822H10.85v5.964h5.423v-5.964Z"/><path fill="url(#aG)" d="M16.273 23.857H10.85v5.965h5.423v-5.965Z"/><path fill="url(#aH)" d="M16.273 17.893H10.85v5.964h5.423v-5.964Z"/><path fill="#8F8E93" d="M16.273 11.929H10.85v5.964h5.423V11.93Z"/><path fill="#000" d="M10.85 89.465H5.423v5.965h5.427v-5.965Z"/><path fill="#8F8E93" d="M10.85 83.501H5.423v5.964h5.427v-5.964Z"/><path fill="url(#aI)" d="M10.85 77.537H5.423V83.5h5.427v-5.964Z"/><path fill="url(#aJ)" d="M10.85 71.572H5.423v5.965h5.427v-5.965Z"/><path fill="url(#aK)" d="M10.85 65.608H5.423v5.964h5.427v-5.964Z"/><path fill="url(#aL)" d="M10.85 59.644H5.423v5.964h5.427v-5.964Z"/><path fill="url(#aM)" d="M10.85 53.68H5.423v5.964h5.427v-5.965Z"/><path fill="url(#aN)" d="M10.85 47.715H5.423v5.964h5.427v-5.964Z"/><path fill="url(#aO)" d="M10.85 41.75H5.423v5.965h5.427V41.75Z"/><path fill="url(#aP)" d="M10.85 35.786H5.423v5.965h5.427v-5.965Z"/><path fill="#8F8E93" d="M10.85 29.822H5.423v5.964h5.427v-5.964Z"/><path fill="url(#aQ)" d="M10.85 23.857H5.423v5.965h5.427v-5.965Z"/><path fill="#8F8E93" d="M10.85 17.893H5.423v5.964h5.427v-5.964Z"/><path fill="#000" d="M5.423 89.465H0v5.965h5.423v-5.965Z"/><path fill="#8F8E93" d="M5.423 83.501H0v5.964h5.423v-5.964ZM5.423 77.537H0V83.5h5.423v-5.964Z"/><path fill="#8F8E93" d="M5.423 71.572H0v5.965h5.423v-5.965ZM5.423 65.608H0v5.964h5.423v-5.964ZM5.423 59.644H0v5.964h5.423v-5.964ZM5.423 53.68H0v5.964h5.423v-5.965ZM5.423 47.715H0v5.964h5.423v-5.964ZM5.423 41.75H0v5.965h5.423V41.75Z"/><path fill="#8F8E93" d="M5.423 35.786H0v5.965h5.423v-5.965ZM5.423 29.822H0v5.964h5.423v-5.964ZM5.423 23.857H0v5.965h5.423v-5.965Z"/><defs><linearGradient id="a" x1="7.639" x2="82.535" y1="62.446" y2="17.154" gradientUnits="userSpaceOnUse"><stop stop-color="#D6FFBB"/><stop offset="1" stop-color="#5869DD"/></linearGradient><linearGradient id="b" x1="7.639" x2="82.535" y1="62.446" y2="17.154" gradientUnits="userSpaceOnUse"><stop stop-color="#D6FFBB"/><stop offset="1" stop-color="#5869DD"/></linearGradient><linearGradient id="c" x1="7.639" x2="82.535" y1="62.446" y2="17.154" gradientUnits="userSpaceOnUse"><stop stop-color="#D6FFBB"/><stop offset="1" stop-color="#5869DD"/></linearGradient><linearGradient id="d" x1="7.639" x2="82.535" y1="62.446" y2="17.154" gradientUnits="userSpaceOnUse"><stop stop-color="#D6FFBB"/><stop offset="1" stop-color="#5869DD"/></linearGradient><linearGradient id="e" x1="7.639" x2="82.535" y1="62.446" y2="17.154" gradientUnits="userSpaceOnUse"><stop stop-color="#D6FFBB"/><stop offset="1" stop-color="#5869DD"/></linearGradient><linearGradient id="f" x1="7.639" x2="82.535" y1="62.446" y2="17.154" gradientUnits="userSpaceOnUse"><stop stop-color="#D6FFBB"/><stop offset="1" stop-color="#5869DD"/></linearGradient><linearGradient id="g" x1="7.639" x2="82.535" y1="62.446" y2="17.154" gradientUnits="userSpaceOnUse"><stop stop-color="#D6FFBB"/><stop offset="1" stop-color="#5869DD"/></linearGradient><linearGradient id="h" x1="7.639" x2="82.535" y1="62.446" y2="17.154" gradientUnits="userSpaceOnUse"><stop stop-color="#D6FFBB"/><stop offset="1" stop-color="#5869DD"/></linearGradient><linearGradient id="i" x1="7.639" x2="82.535" y1="62.446" y2="17.154" gradientUnits="userSpaceOnUse"><stop stop-color="#D6FFBB"/><stop offset="1" stop-color="#5869DD"/></linearGradient><linearGradient id="j" x1="7.639" x2="82.535" y1="62.446" y2="17.154" gradientUnits="userSpaceOnUse"><stop stop-color="#D6FFBB"/><stop offset="1" stop-color="#5869DD"/></linearGradient><linearGradient id="k" x1="0" x2="92.213" y1="47.715" y2="47.715" gradientUnits="userSpaceOnUse"><stop stop-color="#D6FFBB"/><stop offset="1" stop-color="#5869DD"/></linearGradient><linearGradient id="l" x1="0" x2="92.213" y1="47.715" y2="47.715" gradientUnits="userSpaceOnUse"><stop stop-color="#D6FFBB"/><stop offset="1" stop-color="#5869DD"/></linearGradient><linearGradient id="m" x1="0" x2="92.213" y1="47.715" y2="47.715" gradientUnits="userSpaceOnUse"><stop stop-color="#D6FFBB"/><stop offset="1" stop-color="#5869DD"/></linearGradient><linearGradient id="n" x1="0" x2="92.213" y1="47.715" y2="47.715" gradientUnits="userSpaceOnUse"><stop stop-color="#D6FFBB"/><stop offset="1" stop-color="#5869DD"/></linearGradient><linearGradient id="o" x1="0" x2="92.213" y1="47.715" y2="47.715" gradientUnits="userSpaceOnUse"><stop stop-color="#D6FFBB"/><stop offset="1" stop-color="#5869DD"/></linearGradient><linearGradient id="p" x1="0" x2="92.213" y1="47.715" y2="47.715" gradientUnits="userSpaceOnUse"><stop stop-color="#D6FFBB"/><stop offset="1" stop-color="#5869DD"/></linearGradient><linearGradient id="q" x1="0" x2="92.213" y1="47.715" y2="47.715" gradientUnits="userSpaceOnUse"><stop stop-color="#D6FFBB"/><stop offset="1" stop-color="#5869DD"/></linearGradient><linearGradient id="r" x1="0" x2="92.213" y1="47.715" y2="47.715" gradientUnits="userSpaceOnUse"><stop stop-color="#D6FFBB"/><stop offset="1" stop-color="#5869DD"/></linearGradient><linearGradient id="s" x1="7.639" x2="82.535" y1="62.446" y2="17.154" gradientUnits="userSpaceOnUse"><stop stop-color="#D6FFBB"/><stop offset="1" stop-color="#5869DD"/></linearGradient><linearGradient id="t" x1="7.639" x2="82.535" y1="62.446" y2="17.154" gradientUnits="userSpaceOnUse"><stop stop-color="#D6FFBB"/><stop offset="1" stop-color="#5869DD"/></linearGradient><linearGradient id="u" x1="7.639" x2="82.535" y1="62.446" y2="17.154" gradientUnits="userSpaceOnUse"><stop stop-color="#D6FFBB"/><stop offset="1" stop-color="#5869DD"/></linearGradient><linearGradient id="v" x1="0" x2="92.213" y1="47.715" y2="47.715" gradientUnits="userSpaceOnUse"><stop stop-color="#D6FFBB"/><stop offset="1" stop-color="#5869DD"/></linearGradient><linearGradient id="w" x1="0" x2="92.213" y1="47.715" y2="47.715" gradientUnits="userSpaceOnUse"><stop stop-color="#D6FFBB"/><stop offset="1" stop-color="#5869DD"/></linearGradient><linearGradient id="x" x1="0" x2="92.213" y1="47.715" y2="47.715" gradientUnits="userSpaceOnUse"><stop stop-color="#D6FFBB"/><stop offset="1" stop-color="#5869DD"/></linearGradient><linearGradient id="y" x1="0" x2="92.213" y1="47.715" y2="47.715" gradientUnits="userSpaceOnUse"><stop stop-color="#D6FFBB"/><stop offset="1" stop-color="#5869DD"/></linearGradient><linearGradient id="z" x1="0" x2="92.213" y1="47.715" y2="47.715" gradientUnits="userSpaceOnUse"><stop stop-color="#D6FFBB"/><stop offset="1" stop-color="#5869DD"/></linearGradient><linearGradient id="A" x1="0" x2="92.213" y1="47.715" y2="47.715" gradientUnits="userSpaceOnUse"><stop stop-color="#D6FFBB"/><stop offset="1" stop-color="#5869DD"/></linearGradient><linearGradient id="B" x1="0" x2="92.213" y1="47.715" y2="47.715" gradientUnits="userSpaceOnUse"><stop stop-color="#D6FFBB"/><stop offset="1" stop-color="#5869DD"/></linearGradient><linearGradient id="C" x1="0" x2="92.213" y1="47.715" y2="47.715" gradientUnits="userSpaceOnUse"><stop stop-color="#D6FFBB"/><stop offset="1" stop-color="#5869DD"/></linearGradient><linearGradient id="D" x1="7.639" x2="82.535" y1="62.446" y2="17.154" gradientUnits="userSpaceOnUse"><stop stop-color="#D6FFBB"/><stop offset="1" stop-color="#5869DD"/></linearGradient><linearGradient id="E" x1="7.639" x2="82.535" y1="62.446" y2="17.154" gradientUnits="userSpaceOnUse"><stop stop-color="#D6FFBB"/><stop offset="1" stop-color="#5869DD"/></linearGradient><linearGradient id="F" x1="0" x2="92.213" y1="47.715" y2="47.715" gradientUnits="userSpaceOnUse"><stop stop-color="#D6FFBB"/><stop offset="1" stop-color="#5869DD"/></linearGradient><linearGradient id="G" x1="0" x2="92.213" y1="47.715" y2="47.715" gradientUnits="userSpaceOnUse"><stop stop-color="#D6FFBB"/><stop offset="1" stop-color="#5869DD"/></linearGradient><linearGradient id="H" x1="0" x2="92.213" y1="47.715" y2="47.715" gradientUnits="userSpaceOnUse"><stop stop-color="#D6FFBB"/><stop offset="1" stop-color="#5869DD"/></linearGradient><linearGradient id="I" x1="0" x2="92.213" y1="47.715" y2="47.715" gradientUnits="userSpaceOnUse"><stop stop-color="#D6FFBB"/><stop offset="1" stop-color="#5869DD"/></linearGradient><linearGradient id="J" x1="0" x2="92.213" y1="47.715" y2="47.715" gradientUnits="userSpaceOnUse"><stop stop-color="#D6FFBB"/><stop offset="1" stop-color="#5869DD"/></linearGradient><linearGradient id="K" x1="0" x2="92.213" y1="47.715" y2="47.715" gradientUnits="userSpaceOnUse"><stop stop-color="#D6FFBB"/><stop offset="1" stop-color="#5869DD"/></linearGradient><linearGradient id="L" x1="0" x2="92.213" y1="47.715" y2="47.715" gradientUnits="userSpaceOnUse"><stop stop-color="#D6FFBB"/><stop offset="1" stop-color="#5869DD"/></linearGradient><linearGradient id="M" x1="7.639" x2="82.535" y1="62.446" y2="17.154" gradientUnits="userSpaceOnUse"><stop stop-color="#D6FFBB"/><stop offset="1" stop-color="#5869DD"/></linearGradient><linearGradient id="N" x1="7.639" x2="82.535" y1="62.446" y2="17.154" gradientUnits="userSpaceOnUse"><stop stop-color="#D6FFBB"/><stop offset="1" stop-color="#5869DD"/></linearGradient><linearGradient id="O" x1="0" x2="92.213" y1="47.715" y2="47.715" gradientUnits="userSpaceOnUse"><stop stop-color="#D6FFBB"/><stop offset="1" stop-color="#5869DD"/></linearGradient><linearGradient id="P" x1="0" x2="92.213" y1="47.715" y2="47.715" gradientUnits="userSpaceOnUse"><stop stop-color="#D6FFBB"/><stop offset="1" stop-color="#5869DD"/></linearGradient><linearGradient id="Q" x1="0" x2="92.213" y1="47.715" y2="47.715" gradientUnits="userSpaceOnUse"><stop stop-color="#D6FFBB"/><stop offset="1" stop-color="#5869DD"/></linearGradient><linearGradient id="R" x1="0" x2="92.213" y1="47.715" y2="47.715" gradientUnits="userSpaceOnUse"><stop stop-color="#D6FFBB"/><stop offset="1" stop-color="#5869DD"/></linearGradient><linearGradient id="S" x1="0" x2="92.213" y1="47.715" y2="47.715" gradientUnits="userSpaceOnUse"><stop stop-color="#D6FFBB"/><stop offset="1" stop-color="#5869DD"/></linearGradient><linearGradient id="T" x1="7.639" x2="82.535" y1="62.446" y2="17.154" gradientUnits="userSpaceOnUse"><stop stop-color="#D6FFBB"/><stop offset="1" stop-color="#5869DD"/></linearGradient><linearGradient id="U" x1="7.639" x2="82.535" y1="62.446" y2="17.154" gradientUnits="userSpaceOnUse"><stop stop-color="#D6FFBB"/><stop offset="1" stop-color="#5869DD"/></linearGradient><linearGradient id="V" x1="0" x2="92.213" y1="47.715" y2="47.715" gradientUnits="userSpaceOnUse"><stop stop-color="#D6FFBB"/><stop offset="1" stop-color="#5869DD"/></linearGradient><linearGradient id="W" x1="0" x2="92.213" y1="47.715" y2="47.715" gradientUnits="userSpaceOnUse"><stop stop-color="#D6FFBB"/><stop offset="1" stop-color="#5869DD"/></linearGradient><linearGradient id="X" x1="0" x2="92.213" y1="47.715" y2="47.715" gradientUnits="userSpaceOnUse"><stop stop-color="#D6FFBB"/><stop offset="1" stop-color="#5869DD"/></linearGradient><linearGradient id="Y" x1="0" x2="92.213" y1="47.715" y2="47.715" gradientUnits="userSpaceOnUse"><stop stop-color="#D6FFBB"/><stop offset="1" stop-color="#5869DD"/></linearGradient><linearGradient id="Z" x1="0" x2="92.213" y1="47.715" y2="47.715" gradientUnits="userSpaceOnUse"><stop stop-color="#D6FFBB"/><stop offset="1" stop-color="#5869DD"/></linearGradient><linearGradient id="aa" x1="7.639" x2="82.535" y1="62.446" y2="17.154" gradientUnits="userSpaceOnUse"><stop stop-color="#D6FFBB"/><stop offset="1" stop-color="#5869DD"/></linearGradient><linearGradient id="ab" x1="7.639" x2="82.535" y1="62.446" y2="17.154" gradientUnits="userSpaceOnUse"><stop stop-color="#D6FFBB"/><stop offset="1" stop-color="#5869DD"/></linearGradient><linearGradient id="ac" x1="0" x2="92.213" y1="47.715" y2="47.715" gradientUnits="userSpaceOnUse"><stop stop-color="#D6FFBB"/><stop offset="1" stop-color="#5869DD"/></linearGradient><linearGradient id="ad" x1="0" x2="92.213" y1="47.715" y2="47.715" gradientUnits="userSpaceOnUse"><stop stop-color="#D6FFBB"/><stop offset="1" stop-color="#5869DD"/></linearGradient><linearGradient id="ae" x1="0" x2="92.213" y1="47.715" y2="47.715" gradientUnits="userSpaceOnUse"><stop stop-color="#D6FFBB"/><stop offset="1" stop-color="#5869DD"/></linearGradient><linearGradient id="af" x1="0" x2="92.213" y1="47.715" y2="47.715" gradientUnits="userSpaceOnUse"><stop stop-color="#D6FFBB"/><stop offset="1" stop-color="#5869DD"/></linearGradient><linearGradient id="ag" x1="0" x2="92.213" y1="47.715" y2="47.715" gradientUnits="userSpaceOnUse"><stop stop-color="#D6FFBB"/><stop offset="1" stop-color="#5869DD"/></linearGradient><linearGradient id="ah" x1="7.639" x2="82.535" y1="62.446" y2="17.154" gradientUnits="userSpaceOnUse"><stop stop-color="#D6FFBB"/><stop offset="1" stop-color="#5869DD"/></linearGradient><linearGradient id="ai" x1="7.639" x2="82.535" y1="62.446" y2="17.154" gradientUnits="userSpaceOnUse"><stop stop-color="#D6FFBB"/><stop offset="1" stop-color="#5869DD"/></linearGradient><linearGradient id="aj" x1="0" x2="92.213" y1="47.715" y2="47.715" gradientUnits="userSpaceOnUse"><stop stop-color="#D6FFBB"/><stop offset="1" stop-color="#5869DD"/></linearGradient><linearGradient id="ak" x1="0" x2="92.213" y1="47.715" y2="47.715" gradientUnits="userSpaceOnUse"><stop stop-color="#D6FFBB"/><stop offset="1" stop-color="#5869DD"/></linearGradient><linearGradient id="al" x1="0" x2="92.213" y1="47.715" y2="47.715" gradientUnits="userSpaceOnUse"><stop stop-color="#D6FFBB"/><stop offset="1" stop-color="#5869DD"/></linearGradient><linearGradient id="am" x1="0" x2="92.213" y1="47.715" y2="47.715" gradientUnits="userSpaceOnUse"><stop stop-color="#D6FFBB"/><stop offset="1" stop-color="#5869DD"/></linearGradient><linearGradient id="an" x1="0" x2="92.213" y1="47.715" y2="47.715" gradientUnits="userSpaceOnUse"><stop stop-color="#D6FFBB"/><stop offset="1" stop-color="#5869DD"/></linearGradient><linearGradient id="ao" x1="7.639" x2="82.535" y1="62.446" y2="17.154" gradientUnits="userSpaceOnUse"><stop stop-color="#D6FFBB"/><stop offset="1" stop-color="#5869DD"/></linearGradient><linearGradient id="ap" x1="7.639" x2="82.535" y1="62.446" y2="17.154" gradientUnits="userSpaceOnUse"><stop stop-color="#D6FFBB"/><stop offset="1" stop-color="#5869DD"/></linearGradient><linearGradient id="aq" x1="7.639" x2="82.535" y1="62.446" y2="17.154" gradientUnits="userSpaceOnUse"><stop stop-color="#D6FFBB"/><stop offset="1" stop-color="#5869DD"/></linearGradient><linearGradient id="ar" x1="0" x2="92.213" y1="47.715" y2="47.715" gradientUnits="userSpaceOnUse"><stop stop-color="#D6FFBB"/><stop offset="1" stop-color="#5869DD"/></linearGradient><linearGradient id="as" x1="0" x2="92.213" y1="47.715" y2="47.715" gradientUnits="userSpaceOnUse"><stop stop-color="#D6FFBB"/><stop offset="1" stop-color="#5869DD"/></linearGradient><linearGradient id="at" x1="0" x2="92.213" y1="47.715" y2="47.715" gradientUnits="userSpaceOnUse"><stop stop-color="#D6FFBB"/><stop offset="1" stop-color="#5869DD"/></linearGradient><linearGradient id="au" x1="0" x2="92.213" y1="47.715" y2="47.715" gradientUnits="userSpaceOnUse"><stop stop-color="#D6FFBB"/><stop offset="1" stop-color="#5869DD"/></linearGradient><linearGradient id="av" x1="0" x2="92.213" y1="47.715" y2="47.715" gradientUnits="userSpaceOnUse"><stop stop-color="#D6FFBB"/><stop offset="1" stop-color="#5869DD"/></linearGradient><linearGradient id="aw" x1="7.639" x2="82.535" y1="62.446" y2="17.154" gradientUnits="userSpaceOnUse"><stop stop-color="#D6FFBB"/><stop offset="1" stop-color="#5869DD"/></linearGradient><linearGradient id="ax" x1="7.639" x2="82.535" y1="62.446" y2="17.154" gradientUnits="userSpaceOnUse"><stop stop-color="#D6FFBB"/><stop offset="1" stop-color="#5869DD"/></linearGradient><linearGradient id="ay" x1="7.639" x2="82.535" y1="62.446" y2="17.154" gradientUnits="userSpaceOnUse"><stop stop-color="#D6FFBB"/><stop offset="1" stop-color="#5869DD"/></linearGradient><linearGradient id="az" x1="0" x2="92.213" y1="47.715" y2="47.715" gradientUnits="userSpaceOnUse"><stop stop-color="#D6FFBB"/><stop offset="1" stop-color="#5869DD"/></linearGradient><linearGradient id="aA" x1="0" x2="92.213" y1="47.715" y2="47.715" gradientUnits="userSpaceOnUse"><stop stop-color="#D6FFBB"/><stop offset="1" stop-color="#5869DD"/></linearGradient><linearGradient id="aB" x1="0" x2="92.213" y1="47.715" y2="47.715" gradientUnits="userSpaceOnUse"><stop stop-color="#D6FFBB"/><stop offset="1" stop-color="#5869DD"/></linearGradient><linearGradient id="aC" x1="0" x2="92.213" y1="47.715" y2="47.715" gradientUnits="userSpaceOnUse"><stop stop-color="#D6FFBB"/><stop offset="1" stop-color="#5869DD"/></linearGradient><linearGradient id="aD" x1="0" x2="92.213" y1="47.715" y2="47.715" gradientUnits="userSpaceOnUse"><stop stop-color="#D6FFBB"/><stop offset="1" stop-color="#5869DD"/></linearGradient><linearGradient id="aE" x1="0" x2="92.213" y1="47.715" y2="47.715" gradientUnits="userSpaceOnUse"><stop stop-color="#D6FFBB"/><stop offset="1" stop-color="#5869DD"/></linearGradient><linearGradient id="aF" x1="0" x2="92.213" y1="47.715" y2="47.715" gradientUnits="userSpaceOnUse"><stop stop-color="#D6FFBB"/><stop offset="1" stop-color="#5869DD"/></linearGradient><linearGradient id="aG" x1="7.639" x2="82.535" y1="62.446" y2="17.154" gradientUnits="userSpaceOnUse"><stop stop-color="#D6FFBB"/><stop offset="1" stop-color="#5869DD"/></linearGradient><linearGradient id="aH" x1="7.639" x2="82.535" y1="62.446" y2="17.154" gradientUnits="userSpaceOnUse"><stop stop-color="#D6FFBB"/><stop offset="1" stop-color="#5869DD"/></linearGradient><linearGradient id="aI" x1="0" x2="92.213" y1="47.715" y2="47.715" gradientUnits="userSpaceOnUse"><stop stop-color="#D6FFBB"/><stop offset="1" stop-color="#5869DD"/></linearGradient><linearGradient id="aJ" x1="0" x2="92.213" y1="47.715" y2="47.715" gradientUnits="userSpaceOnUse"><stop stop-color="#D6FFBB"/><stop offset="1" stop-color="#5869DD"/></linearGradient><linearGradient id="aK" x1="0" x2="92.213" y1="47.715" y2="47.715" gradientUnits="userSpaceOnUse"><stop stop-color="#D6FFBB"/><stop offset="1" stop-color="#5869DD"/></linearGradient><linearGradient id="aL" x1="0" x2="92.213" y1="47.715" y2="47.715" gradientUnits="userSpaceOnUse"><stop stop-color="#D6FFBB"/><stop offset="1" stop-color="#5869DD"/></linearGradient><linearGradient id="aM" x1="0" x2="92.213" y1="47.715" y2="47.715" gradientUnits="userSpaceOnUse"><stop stop-color="#D6FFBB"/><stop offset="1" stop-color="#5869DD"/></linearGradient><linearGradient id="aN" x1="0" x2="92.213" y1="47.715" y2="47.715" gradientUnits="userSpaceOnUse"><stop stop-color="#D6FFBB"/><stop offset="1" stop-color="#5869DD"/></linearGradient><linearGradient id="aO" x1="0" x2="92.213" y1="47.715" y2="47.715" gradientUnits="userSpaceOnUse"><stop stop-color="#D6FFBB"/><stop offset="1" stop-color="#5869DD"/></linearGradient><linearGradient id="aP" x1="0" x2="92.213" y1="47.715" y2="47.715" gradientUnits="userSpaceOnUse"><stop stop-color="#D6FFBB"/><stop offset="1" stop-color="#5869DD"/></linearGradient><linearGradient id="aQ" x1="7.639" x2="82.535" y1="62.446" y2="17.154" gradientUnits="userSpaceOnUse"><stop stop-color="#D6FFBB"/><stop offset="1" stop-color="#5869DD"/></linearGradient></defs></svg>
