<svg xmlns="http://www.w3.org/2000/svg" width="91" height="109" fill="none" viewBox="0 0 91 109"><path fill="#F1EFED" d="M60.667 24.66h-5.055v4.93h5.055v-4.93ZM55.612 14.796h-5.054v4.931h5.054v-4.931ZM60.667 19.727h-5.055v4.932h5.055v-4.932Z"/><path fill="#F1EFED" d="M60.667 14.796h-5.055v4.931h5.055v-4.931ZM55.612 19.727h-5.054v4.932h5.054v-4.932ZM55.612 29.59h-5.054v4.933h5.054V29.59ZM55.612 24.66h-5.054v4.93h5.054v-4.93ZM60.667 29.59h-5.055v4.933h5.055V29.59ZM50.558 29.59H45.5v4.933h5.058V29.59ZM50.558 24.66H45.5v4.93h5.058v-4.93ZM50.558 14.796H45.5v4.931h5.058v-4.931Z"/><path fill="#F1EFED" d="M50.558 19.727H45.5v4.932h5.058v-4.932ZM25.279 34.523h-5.055v4.931h5.055v-4.931Z"/><path fill="url(#a)" d="M20.224 49.318h-5.057v4.932h5.057v-4.932Z"/><path fill="url(#b)" d="M25.279 44.386h-5.055v4.932h5.055v-4.932Z"/><path fill="url(#c)" d="M15.167 29.59h-5.055v4.933h5.055V29.59Z"/><path fill="url(#d)" d="M20.224 44.386h-5.057v4.932h5.057v-4.932Z"/><path fill="url(#e)" d="M15.167 39.455h-5.055v4.931h5.055v-4.931Z"/><path fill="url(#f)" d="M15.167 34.523h-5.055v4.931h5.055v-4.931Z"/><path fill="url(#g)" d="M15.167 44.386h-5.055v4.932h5.055v-4.932Z"/><path fill="url(#h)" d="M30.333 29.59H25.28v4.933h5.054V29.59Z"/><path fill="url(#i)" d="M30.333 39.455H25.28v4.931h5.054v-4.931Z"/><path fill="url(#j)" d="M35.391 39.455h-5.058v4.931h5.058v-4.931Z"/><path fill="url(#k)" d="M30.333 44.386H25.28v4.932h5.054v-4.932Z"/><path fill="url(#l)" d="M35.391 44.386h-5.058v4.932h5.058v-4.932Z"/><path fill="url(#m)" d="M35.391 34.523h-5.058v4.931h5.058v-4.931Z"/><path fill="url(#n)" d="M30.333 49.318H25.28v4.932h5.054v-4.932Z"/><path fill="url(#o)" d="M25.279 54.25h-5.055v4.932h5.055V54.25Z"/><path fill="url(#p)" d="M25.279 49.318h-5.055v4.932h5.055v-4.932Z"/><path fill="url(#q)" d="M75.833 88.773H70.78v4.931h5.054v-4.931Z"/><path fill="url(#r)" d="M70.779 88.773h-5.054v4.931h5.054v-4.931Z"/><path fill="url(#s)" d="M60.667 88.773h-5.055v4.931h5.055v-4.931Z"/><path fill="url(#t)" d="M55.612 88.773h-5.054v4.931h5.054v-4.931Z"/><path fill="url(#u)" d="M65.725 88.773h-5.058v4.931h5.058v-4.931Z"/><path fill="url(#v)" d="M40.446 88.773H35.39v4.931h5.055v-4.931Z"/><path fill="url(#w)" d="M50.558 88.773H45.5v4.931h5.058v-4.931Z"/><path fill="url(#x)" d="M45.5 88.773h-5.054v4.931H45.5v-4.931Z"/><path fill="url(#y)" d="M35.391 88.773h-5.058v4.931h5.058v-4.931Z"/><path fill="url(#z)" d="M75.833 78.91H70.78v4.93h5.054v-4.93Z"/><path fill="url(#A)" d="M70.779 78.91h-5.054v4.93h5.054v-4.93Z"/><path fill="url(#B)" d="M55.612 78.91h-5.054v4.93h5.054v-4.93Z"/><path fill="url(#C)" d="M65.725 78.91h-5.058v4.93h5.058v-4.93Z"/><path fill="url(#D)" d="M60.667 78.91h-5.055v4.93h5.055v-4.93Z"/><path fill="url(#E)" d="M45.5 78.91h-5.054v4.93H45.5v-4.93Z"/><path fill="url(#F)" d="M50.558 78.91H45.5v4.93h5.058v-4.93Z"/><path fill="url(#G)" d="M40.446 78.91H35.39v4.93h5.055v-4.93Z"/><path fill="url(#H)" d="M35.391 78.91h-5.058v4.93h5.058v-4.93Z"/><path fill="url(#I)" d="M75.833 69.046H70.78v4.931h5.054v-4.931Z"/><path fill="url(#J)" d="M70.779 69.046h-5.054v4.931h5.054v-4.931Z"/><path fill="url(#K)" d="M65.725 69.046h-5.058v4.931h5.058v-4.931Z"/><path fill="url(#L)" d="M60.667 69.046h-5.055v4.931h5.055v-4.931Z"/><path fill="url(#M)" d="M55.612 69.046h-5.054v4.931h5.054v-4.931Z"/><path fill="url(#N)" d="M40.446 69.046H35.39v4.931h5.055v-4.931Z"/><path fill="url(#O)" d="M50.558 69.046H45.5v4.931h5.058v-4.931Z"/><path fill="url(#P)" d="M45.5 69.046h-5.054v4.931H45.5v-4.931Z"/><path fill="url(#Q)" d="M35.391 69.046h-5.058v4.931h5.058v-4.931Z"/><path fill="url(#R)" d="M70.779 59.182h-5.054v4.932h5.054v-4.932Z"/><path fill="url(#S)" d="M75.833 59.182H70.78v4.932h5.054v-4.932Z"/><path fill="url(#T)" d="M60.667 59.182h-5.055v4.932h5.055v-4.932Z"/><path fill="url(#U)" d="M55.612 59.182h-5.054v4.932h5.054v-4.932Z"/><path fill="url(#V)" d="M65.725 59.182h-5.058v4.932h5.058v-4.932Z"/><path fill="url(#W)" d="M50.558 59.182H45.5v4.932h5.058v-4.932Z"/><path fill="url(#X)" d="M45.5 59.182h-5.054v4.932H45.5v-4.932Z"/><path fill="url(#Y)" d="M40.446 59.182H35.39v4.932h5.055v-4.932Z"/><path fill="url(#Z)" d="M35.391 59.182h-5.058v4.932h5.058v-4.932Z"/><path fill="url(#aa)" d="M80.891 34.523h-5.058v4.931h5.058v-4.931Z"/><path fill="url(#ab)" d="M85.946 39.455H80.89v4.931h5.055v-4.931Z"/><path fill="url(#ac)" d="M85.946 49.318H80.89v4.932h5.055v-4.932Z"/><path fill="url(#ad)" d="M85.946 59.182H80.89v4.932h5.055v-4.932Z"/><path fill="url(#ae)" d="M85.946 69.046H80.89v4.931h5.055v-4.931Z"/><path fill="url(#af)" d="M85.946 78.91H80.89v4.93h5.055v-4.93Z"/><path fill="url(#ag)" d="M85.946 88.773H80.89v4.931h5.055v-4.931Z"/><path fill="url(#ah)" d="M80.891 88.773h-5.058v4.931h5.058v-4.931Z"/><path fill="url(#ai)" d="M80.891 64.114h-5.058v4.931h5.058v-4.931Z"/><path fill="url(#aj)" d="M80.891 54.25h-5.058v4.932h5.058V54.25Z"/><path fill="url(#ak)" d="M80.891 49.318h-5.058v4.932h5.058v-4.932Z"/><path fill="url(#al)" d="M80.891 44.386h-5.058v4.932h5.058v-4.932Z"/><path fill="url(#am)" d="M80.891 83.84h-5.058v4.933h5.058V83.84Z"/><path fill="url(#an)" d="M80.891 78.91h-5.058v4.93h5.058v-4.93Z"/><path fill="url(#ao)" d="M80.891 73.977h-5.058v4.932h5.058v-4.932Z"/><path fill="url(#ap)" d="M80.891 59.182h-5.058v4.932h5.058v-4.932Z"/><path fill="url(#aq)" d="M80.891 69.046h-5.058v4.931h5.058v-4.931Z"/><path fill="url(#ar)" d="M70.779 49.318h-5.054v4.932h5.054v-4.932Z"/><path fill="url(#as)" d="M60.667 49.318h-5.055v4.932h5.055v-4.932Z"/><path fill="url(#at)" d="M65.725 49.318h-5.058v4.932h5.058v-4.932Z"/><path fill="url(#au)" d="M55.612 49.318h-5.054v4.932h5.054v-4.932Z"/><path fill="url(#av)" d="M40.446 49.318H35.39v4.932h5.055v-4.932Z"/><path fill="url(#aw)" d="M50.558 49.318H45.5v4.932h5.058v-4.932Z"/><path fill="url(#ax)" d="M45.5 49.318h-5.054v4.932H45.5v-4.932Z"/><path fill="url(#ay)" d="M50.558 39.455H45.5v4.931h5.058v-4.931Z"/><path fill="url(#az)" d="M60.667 39.455h-5.055v4.931h5.055v-4.931Z"/><path fill="url(#aA)" d="M65.725 29.59h-5.058v4.933h5.058V29.59Z"/><path fill="url(#aB)" d="M65.725 24.66h-5.058v4.93h5.058v-4.93Z"/><path fill="url(#aC)" d="M65.725 19.727h-5.058v4.932h5.058v-4.932Z"/><path fill="url(#aD)" d="M65.725 14.796h-5.058v4.931h5.058v-4.931Z"/><path fill="url(#aE)" d="M65.725 34.523h-5.058v4.931h5.058v-4.931Z"/><path fill="url(#aF)" d="M55.612 34.523h-5.054v4.931h5.054v-4.931Z"/><path fill="#F1EFED" d="M75.833 49.318H70.78v4.932h5.054v-4.932Z"/><path fill="#F1EFED" d="M75.833 44.386H70.78v4.932h5.054v-4.932ZM70.779 44.386h-5.054v4.932h5.054v-4.932ZM65.725 44.386h-5.058v4.932h5.058v-4.932ZM55.612 44.386h-5.054v4.932h5.054v-4.932Z"/><path fill="#F1EFED" d="M60.667 44.386h-5.055v4.932h5.055v-4.932ZM50.558 44.386H45.5v4.932h5.058v-4.932ZM45.5 44.386h-5.054v4.932H45.5v-4.932ZM15.167 49.318h-5.055v4.932h5.055v-4.932ZM20.224 59.182h-5.057v4.932h5.057v-4.932ZM20.224 54.25h-5.057v4.932h5.057V54.25ZM20.224 69.046h-5.057v4.931h5.057v-4.931ZM20.224 64.114h-5.057v4.931h5.057v-4.931ZM10.112 44.386H5.058v4.932h5.054v-4.932ZM10.112 39.455H5.058v4.931h5.054v-4.931ZM10.112 34.523H5.058v4.931h5.054v-4.931ZM10.112 29.59H5.058v4.933h5.054V29.59ZM25.279 24.66h-5.055v4.93h5.055v-4.93ZM20.224 24.66h-5.057v4.93h5.057v-4.93ZM15.167 24.66h-5.055v4.93h5.055v-4.93ZM70.779 9.864h-5.054v4.931h5.054V9.864ZM60.667 4.932h-5.055v4.932h5.055V4.932ZM55.612 4.932h-5.054v4.932h5.054V4.932ZM50.558 4.932H45.5v4.932h5.058V4.932ZM40.446 29.59H35.39v4.933h5.055V29.59ZM40.446 14.796H35.39v4.931h5.055v-4.931ZM45.5 9.864h-5.054v4.931H45.5V9.864ZM40.446 24.66H35.39v4.93h5.055v-4.93Z"/><path fill="#F1EFED" d="M40.446 19.727H35.39v4.932h5.055v-4.932ZM40.446 9.864H35.39v4.931h5.055V9.864Z"/><path fill="#8F8E93" d="M25.279 19.727h-5.055v4.932h5.055v-4.932ZM25.279 98.636h-5.055v4.932h5.055v-4.932Z"/><path fill="#000" d="M20.224 78.91h-5.057v4.93h5.057v-4.93ZM20.224 93.704h-5.057v4.932h5.057v-4.931ZM15.167 69.046h-5.055v4.931h5.055v-4.931Z"/><path fill="#8F8E93" d="M70.779 54.25h-5.054v4.932h5.054V54.25ZM75.833 54.25H70.78v4.932h5.054V54.25ZM65.725 54.25h-5.058v4.932h5.058V54.25ZM55.612 54.25h-5.054v4.932h5.054V54.25Z"/><path fill="#8F8E93" d="M60.667 54.25h-5.055v4.932h5.055V54.25ZM50.558 54.25H45.5v4.932h5.058V54.25ZM40.446 54.25H35.39v4.932h5.055V54.25ZM45.5 54.25h-5.054v4.932H45.5V54.25Z"/><path fill="#8F8E93" d="M35.391 54.25h-5.058v4.932h5.058V54.25ZM75.833 64.114H70.78v4.931h5.054v-4.931ZM70.779 64.114h-5.054v4.931h5.054v-4.931ZM60.667 64.114h-5.055v4.931h5.055v-4.931Z"/><path fill="#8F8E93" d="M65.725 64.114h-5.058v4.931h5.058v-4.931ZM55.612 64.114h-5.054v4.931h5.054v-4.931ZM50.558 64.114H45.5v4.931h5.058v-4.931ZM45.5 64.114h-5.054v4.931H45.5v-4.931ZM40.446 64.114H35.39v4.931h5.055v-4.931Z"/><path fill="#8F8E93" d="M35.391 64.114h-5.058v4.931h5.058v-4.931ZM75.833 73.977H70.78v4.932h5.054v-4.932ZM70.779 73.977h-5.054v4.932h5.054v-4.932ZM65.725 73.977h-5.058v4.932h5.058v-4.932Z"/><path fill="#8F8E93" d="M60.667 73.977h-5.055v4.932h5.055v-4.932ZM55.612 73.977h-5.054v4.932h5.054v-4.932ZM50.558 73.977H45.5v4.932h5.058v-4.932ZM45.5 73.977h-5.054v4.932H45.5v-4.932ZM40.446 73.977H35.39v4.932h5.055v-4.932Z"/><path fill="#8F8E93" d="M35.391 73.977h-5.058v4.932h5.058v-4.932ZM75.833 83.84H70.78v4.933h5.054V83.84ZM70.779 83.84h-5.054v4.933h5.054V83.84ZM65.725 83.84h-5.058v4.933h5.058V83.84ZM55.612 83.84h-5.054v4.933h5.054V83.84Z"/><path fill="#8F8E93" d="M60.667 83.84h-5.055v4.933h5.055V83.84ZM45.5 83.84h-5.054v4.933H45.5V83.84ZM40.446 83.84H35.39v4.933h5.055V83.84ZM50.558 83.84H45.5v4.933h5.058V83.84Z"/><path fill="#8F8E93" d="M35.391 83.84h-5.058v4.933h5.058V83.84ZM85.946 83.84H80.89v4.933h5.055V83.84ZM85.946 73.977H80.89v4.932h5.055v-4.932ZM85.946 64.114H80.89v4.931h5.055v-4.931ZM85.946 54.25H80.89v4.932h5.055V54.25ZM85.946 44.386H80.89v4.932h5.055v-4.932ZM85.946 34.523H80.89v4.931h5.055v-4.931ZM80.891 39.455h-5.058v4.931h5.058v-4.931ZM65.725 39.455h-5.058v4.931h5.058v-4.931ZM60.667 34.523h-5.055v4.931h5.055v-4.931ZM55.612 39.455h-5.054v4.931h5.054v-4.931ZM45.5 39.455h-5.054v4.931H45.5v-4.931ZM50.558 34.523H45.5v4.931h5.058v-4.931ZM35.391 9.864h-5.058v4.931h5.058V9.864ZM40.446 4.932H35.39v4.932h5.055V4.932ZM45.5 4.932h-5.054v4.932H45.5V4.932ZM60.667 0h-5.055v4.932h5.055V0ZM55.612 0h-5.054v4.932h5.054V0ZM50.558 0H45.5v4.932h5.058V0Z"/><path fill="#000" d="M91 88.773h-5.054v4.931H91v-4.931ZM91 83.84h-5.054v4.933H91V83.84ZM91 78.91h-5.054v4.93H91v-4.93ZM91 73.977h-5.054v4.932H91v-4.932ZM91 69.046h-5.054v4.931H91v-4.931ZM91 64.114h-5.054v4.931H91v-4.931ZM91 59.182h-5.054v4.932H91v-4.932ZM91 54.25h-5.054v4.932H91V54.25ZM91 49.318h-5.054v4.932H91v-4.932Z"/><path fill="#000" d="M91 44.386h-5.054v4.932H91v-4.932ZM91 39.455h-5.054v4.931H91v-4.931ZM85.946 93.704H80.89v4.932h5.055v-4.931Z"/><path fill="#000" d="M80.891 93.704h-5.058v4.932h5.058v-4.931Z"/><path fill="#000" d="M75.833 93.704H70.78v4.932h5.054v-4.931ZM75.833 39.455H70.78v4.931h5.054v-4.931ZM75.833 34.523H70.78v4.931h5.054v-4.931ZM75.833 29.59H70.78v4.933h5.054V29.59ZM75.833 24.66H70.78v4.93h5.054v-4.93ZM75.833 19.727H70.78v4.932h5.054v-4.932Z"/><path fill="#000" d="M75.833 14.796H70.78v4.931h5.054v-4.931ZM75.833 9.864H70.78v4.931h5.054V9.864ZM70.779 93.704h-5.054v4.932h5.054v-4.931ZM70.779 39.455h-5.054v4.931h5.054v-4.931Z"/><path fill="#8F8E93" d="M70.779 34.523h-5.054v4.931h5.054v-4.931ZM70.779 29.59h-5.054v4.933h5.054V29.59ZM70.779 24.66h-5.054v4.93h5.054v-4.93ZM70.779 19.727h-5.054v4.932h5.054v-4.932Z"/><path fill="#8F8E93" d="M70.779 14.796h-5.054v4.931h5.054v-4.931Z"/><path fill="#000" d="M70.779 4.932h-5.054v4.932h5.054V4.932ZM65.725 93.704h-5.058v4.932h5.058v-4.931Z"/><path fill="#8F8E93" d="M65.725 9.864h-5.058v4.931h5.058V9.864Z"/><path fill="#000" d="M65.725 4.932h-5.058v4.932h5.058V4.932ZM60.667 93.704h-5.055v4.932h5.055v-4.931ZM60.667 9.864h-5.055v4.931h5.055V9.864ZM55.612 93.704h-5.054v4.932h5.054v-4.931ZM55.612 9.864h-5.054v4.931h5.054V9.864ZM50.558 93.704H45.5v4.932h5.058v-4.931ZM50.558 9.864H45.5v4.931h5.058V9.864ZM45.5 93.704h-5.054v4.932H45.5v-4.931ZM45.5 34.523h-5.054v4.931H45.5v-4.931ZM45.5 29.59h-5.054v4.933H45.5V29.59ZM45.5 24.66h-5.054v4.93H45.5v-4.93ZM45.5 19.727h-5.054v4.932H45.5v-4.932Z"/><path fill="#000" d="M45.5 14.796h-5.054v4.931H45.5v-4.931ZM40.446 93.704H35.39v4.932h5.055v-4.931ZM40.446 44.386H35.39v4.932h5.055v-4.932ZM40.446 39.455H35.39v4.931h5.055v-4.931ZM40.446 34.523H35.39v4.931h5.055v-4.931Z"/><path fill="#000" d="M35.391 93.704h-5.058v4.932h5.058v-4.931ZM35.391 49.318h-5.058v4.932h5.058v-4.932ZM35.391 29.59h-5.058v4.933h5.058V29.59Z"/><path fill="#8F8E93" d="M35.391 24.66h-5.058v4.93h5.058v-4.93ZM35.391 19.727h-5.058v4.932h5.058v-4.932Z"/><path fill="#8F8E93" d="M35.391 14.796h-5.058v4.931h5.058v-4.931Z"/><path fill="#000" d="M30.333 98.636H25.28v4.932h5.054v-4.932ZM30.333 93.704H25.28v4.932h5.054v-4.931ZM30.333 88.773H25.28v4.931h5.054v-4.931ZM30.333 83.84H25.28v4.933h5.054V83.84ZM30.333 78.91H25.28v4.93h5.054v-4.93ZM30.333 73.977H25.28v4.932h5.054v-4.932ZM30.333 69.046H25.28v4.931h5.054v-4.931ZM30.333 64.114H25.28v4.931h5.054v-4.931ZM30.333 59.182H25.28v4.932h5.054v-4.932ZM30.333 54.25H25.28v4.932h5.054V54.25ZM30.333 34.523H25.28v4.931h5.054v-4.931ZM30.333 24.66H25.28v4.93h5.054v-4.93ZM30.333 19.727H25.28v4.932h5.054v-4.932ZM25.279 103.568h-5.055v4.932h5.055v-4.932Z"/><path fill="#8F8E93" d="M25.279 93.704h-5.055v4.932h5.055v-4.931ZM25.279 88.773h-5.055v4.931h5.055v-4.931ZM25.279 83.84h-5.055v4.933h5.055V83.84ZM25.279 78.91h-5.055v4.93h5.055v-4.93ZM25.279 73.977h-5.055v4.932h5.055v-4.932ZM25.279 69.046h-5.055v4.931h5.055v-4.931ZM25.279 64.114h-5.055v4.931h5.055v-4.931ZM25.279 59.182h-5.055v4.932h5.055v-4.932Z"/><path fill="#000" d="M25.279 39.455h-5.055v4.931h5.055v-4.931ZM25.279 29.59h-5.055v4.933h5.055V29.59ZM20.224 98.636h-5.057v4.932h5.057v-4.932ZM20.224 88.773h-5.057v4.931h5.057v-4.931Z"/><path fill="#8F8E93" d="M20.224 83.84h-5.057v4.933h5.057V83.84ZM20.224 73.977h-5.057v4.932h5.057v-4.932Z"/><path fill="#000" d="M20.224 39.455h-5.057v4.931h5.057v-4.931ZM20.224 34.523h-5.057v4.931h5.057v-4.931ZM20.224 29.59h-5.057v4.933h5.057V29.59Z"/><path fill="#8F8E93" d="M20.224 19.727h-5.057v4.932h5.057v-4.932Z"/><path fill="#000" d="M15.167 88.773h-5.055v4.931h5.055v-4.931ZM15.167 83.84h-5.055v4.933h5.055V83.84ZM15.167 73.977h-5.055v4.932h5.055v-4.932Z"/><path fill="#8F8E93" d="M15.167 64.114h-5.055v4.931h5.055v-4.931ZM15.167 59.182h-5.055v4.932h5.055v-4.932ZM15.167 54.25h-5.055v4.932h5.055V54.25ZM15.167 19.727h-5.055v4.932h5.055v-4.932ZM10.112 49.318H5.058v4.932h5.054v-4.932Z"/><path fill="#000" d="M10.112 24.66H5.058v4.93h5.054v-4.93Z"/><path fill="#8F8E93" d="M5.058 44.386H0v4.932h5.058v-4.932ZM5.058 39.455H0v4.931h5.058v-4.931ZM5.058 34.523H0v4.931h5.058v-4.931ZM5.058 29.59H0v4.933h5.058V29.59Z"/><defs><linearGradient id="a" x1="0" x2="91" y1="54.25" y2="54.25" gradientUnits="userSpaceOnUse"><stop stop-color="#D6FFBB"/><stop offset="1" stop-color="#5869DD"/></linearGradient><linearGradient id="b" x1="0" x2="91" y1="54.25" y2="54.25" gradientUnits="userSpaceOnUse"><stop stop-color="#D6FFBB"/><stop offset="1" stop-color="#5869DD"/></linearGradient><linearGradient id="c" x1="0" x2="91" y1="54.25" y2="54.25" gradientUnits="userSpaceOnUse"><stop stop-color="#D6FFBB"/><stop offset="1" stop-color="#5869DD"/></linearGradient><linearGradient id="d" x1="0" x2="91" y1="54.25" y2="54.25" gradientUnits="userSpaceOnUse"><stop stop-color="#D6FFBB"/><stop offset="1" stop-color="#5869DD"/></linearGradient><linearGradient id="e" x1="0" x2="91" y1="54.25" y2="54.25" gradientUnits="userSpaceOnUse"><stop stop-color="#D6FFBB"/><stop offset="1" stop-color="#5869DD"/></linearGradient><linearGradient id="f" x1="0" x2="91" y1="54.25" y2="54.25" gradientUnits="userSpaceOnUse"><stop stop-color="#D6FFBB"/><stop offset="1" stop-color="#5869DD"/></linearGradient><linearGradient id="g" x1="0" x2="91" y1="54.25" y2="54.25" gradientUnits="userSpaceOnUse"><stop stop-color="#D6FFBB"/><stop offset="1" stop-color="#5869DD"/></linearGradient><linearGradient id="h" x1="0" x2="91" y1="54.25" y2="54.25" gradientUnits="userSpaceOnUse"><stop stop-color="#D6FFBB"/><stop offset="1" stop-color="#5869DD"/></linearGradient><linearGradient id="i" x1="0" x2="91" y1="54.25" y2="54.25" gradientUnits="userSpaceOnUse"><stop stop-color="#D6FFBB"/><stop offset="1" stop-color="#5869DD"/></linearGradient><linearGradient id="j" x1="0" x2="91" y1="54.25" y2="54.25" gradientUnits="userSpaceOnUse"><stop stop-color="#D6FFBB"/><stop offset="1" stop-color="#5869DD"/></linearGradient><linearGradient id="k" x1="0" x2="91" y1="54.25" y2="54.25" gradientUnits="userSpaceOnUse"><stop stop-color="#D6FFBB"/><stop offset="1" stop-color="#5869DD"/></linearGradient><linearGradient id="l" x1="0" x2="91" y1="54.25" y2="54.25" gradientUnits="userSpaceOnUse"><stop stop-color="#D6FFBB"/><stop offset="1" stop-color="#5869DD"/></linearGradient><linearGradient id="m" x1="0" x2="91" y1="54.25" y2="54.25" gradientUnits="userSpaceOnUse"><stop stop-color="#D6FFBB"/><stop offset="1" stop-color="#5869DD"/></linearGradient><linearGradient id="n" x1="0" x2="91" y1="54.25" y2="54.25" gradientUnits="userSpaceOnUse"><stop stop-color="#D6FFBB"/><stop offset="1" stop-color="#5869DD"/></linearGradient><linearGradient id="o" x1="0" x2="91" y1="54.25" y2="54.25" gradientUnits="userSpaceOnUse"><stop stop-color="#D6FFBB"/><stop offset="1" stop-color="#5869DD"/></linearGradient><linearGradient id="p" x1="0" x2="91" y1="54.25" y2="54.25" gradientUnits="userSpaceOnUse"><stop stop-color="#D6FFBB"/><stop offset="1" stop-color="#5869DD"/></linearGradient><linearGradient id="q" x1="0" x2="91" y1="54.25" y2="54.25" gradientUnits="userSpaceOnUse"><stop stop-color="#D6FFBB"/><stop offset="1" stop-color="#5869DD"/></linearGradient><linearGradient id="r" x1="0" x2="91" y1="54.25" y2="54.25" gradientUnits="userSpaceOnUse"><stop stop-color="#D6FFBB"/><stop offset="1" stop-color="#5869DD"/></linearGradient><linearGradient id="s" x1="0" x2="91" y1="54.25" y2="54.25" gradientUnits="userSpaceOnUse"><stop stop-color="#D6FFBB"/><stop offset="1" stop-color="#5869DD"/></linearGradient><linearGradient id="t" x1="0" x2="91" y1="54.25" y2="54.25" gradientUnits="userSpaceOnUse"><stop stop-color="#D6FFBB"/><stop offset="1" stop-color="#5869DD"/></linearGradient><linearGradient id="u" x1="0" x2="91" y1="54.25" y2="54.25" gradientUnits="userSpaceOnUse"><stop stop-color="#D6FFBB"/><stop offset="1" stop-color="#5869DD"/></linearGradient><linearGradient id="v" x1="0" x2="91" y1="54.25" y2="54.25" gradientUnits="userSpaceOnUse"><stop stop-color="#D6FFBB"/><stop offset="1" stop-color="#5869DD"/></linearGradient><linearGradient id="w" x1="0" x2="91" y1="54.25" y2="54.25" gradientUnits="userSpaceOnUse"><stop stop-color="#D6FFBB"/><stop offset="1" stop-color="#5869DD"/></linearGradient><linearGradient id="x" x1="0" x2="91" y1="54.25" y2="54.25" gradientUnits="userSpaceOnUse"><stop stop-color="#D6FFBB"/><stop offset="1" stop-color="#5869DD"/></linearGradient><linearGradient id="y" x1="0" x2="91" y1="54.25" y2="54.25" gradientUnits="userSpaceOnUse"><stop stop-color="#D6FFBB"/><stop offset="1" stop-color="#5869DD"/></linearGradient><linearGradient id="z" x1="0" x2="91" y1="54.25" y2="54.25" gradientUnits="userSpaceOnUse"><stop stop-color="#D6FFBB"/><stop offset="1" stop-color="#5869DD"/></linearGradient><linearGradient id="A" x1="0" x2="91" y1="54.25" y2="54.25" gradientUnits="userSpaceOnUse"><stop stop-color="#D6FFBB"/><stop offset="1" stop-color="#5869DD"/></linearGradient><linearGradient id="B" x1="0" x2="91" y1="54.25" y2="54.25" gradientUnits="userSpaceOnUse"><stop stop-color="#D6FFBB"/><stop offset="1" stop-color="#5869DD"/></linearGradient><linearGradient id="C" x1="0" x2="91" y1="54.25" y2="54.25" gradientUnits="userSpaceOnUse"><stop stop-color="#D6FFBB"/><stop offset="1" stop-color="#5869DD"/></linearGradient><linearGradient id="D" x1="0" x2="91" y1="54.25" y2="54.25" gradientUnits="userSpaceOnUse"><stop stop-color="#D6FFBB"/><stop offset="1" stop-color="#5869DD"/></linearGradient><linearGradient id="E" x1="0" x2="91" y1="54.25" y2="54.25" gradientUnits="userSpaceOnUse"><stop stop-color="#D6FFBB"/><stop offset="1" stop-color="#5869DD"/></linearGradient><linearGradient id="F" x1="0" x2="91" y1="54.25" y2="54.25" gradientUnits="userSpaceOnUse"><stop stop-color="#D6FFBB"/><stop offset="1" stop-color="#5869DD"/></linearGradient><linearGradient id="G" x1="0" x2="91" y1="54.25" y2="54.25" gradientUnits="userSpaceOnUse"><stop stop-color="#D6FFBB"/><stop offset="1" stop-color="#5869DD"/></linearGradient><linearGradient id="H" x1="0" x2="91" y1="54.25" y2="54.25" gradientUnits="userSpaceOnUse"><stop stop-color="#D6FFBB"/><stop offset="1" stop-color="#5869DD"/></linearGradient><linearGradient id="I" x1="0" x2="91" y1="54.25" y2="54.25" gradientUnits="userSpaceOnUse"><stop stop-color="#D6FFBB"/><stop offset="1" stop-color="#5869DD"/></linearGradient><linearGradient id="J" x1="0" x2="91" y1="54.25" y2="54.25" gradientUnits="userSpaceOnUse"><stop stop-color="#D6FFBB"/><stop offset="1" stop-color="#5869DD"/></linearGradient><linearGradient id="K" x1="0" x2="91" y1="54.25" y2="54.25" gradientUnits="userSpaceOnUse"><stop stop-color="#D6FFBB"/><stop offset="1" stop-color="#5869DD"/></linearGradient><linearGradient id="L" x1="0" x2="91" y1="54.25" y2="54.25" gradientUnits="userSpaceOnUse"><stop stop-color="#D6FFBB"/><stop offset="1" stop-color="#5869DD"/></linearGradient><linearGradient id="M" x1="0" x2="91" y1="54.25" y2="54.25" gradientUnits="userSpaceOnUse"><stop stop-color="#D6FFBB"/><stop offset="1" stop-color="#5869DD"/></linearGradient><linearGradient id="N" x1="0" x2="91" y1="54.25" y2="54.25" gradientUnits="userSpaceOnUse"><stop stop-color="#D6FFBB"/><stop offset="1" stop-color="#5869DD"/></linearGradient><linearGradient id="O" x1="0" x2="91" y1="54.25" y2="54.25" gradientUnits="userSpaceOnUse"><stop stop-color="#D6FFBB"/><stop offset="1" stop-color="#5869DD"/></linearGradient><linearGradient id="P" x1="0" x2="91" y1="54.25" y2="54.25" gradientUnits="userSpaceOnUse"><stop stop-color="#D6FFBB"/><stop offset="1" stop-color="#5869DD"/></linearGradient><linearGradient id="Q" x1="0" x2="91" y1="54.25" y2="54.25" gradientUnits="userSpaceOnUse"><stop stop-color="#D6FFBB"/><stop offset="1" stop-color="#5869DD"/></linearGradient><linearGradient id="R" x1="0" x2="91" y1="54.25" y2="54.25" gradientUnits="userSpaceOnUse"><stop stop-color="#D6FFBB"/><stop offset="1" stop-color="#5869DD"/></linearGradient><linearGradient id="S" x1="0" x2="91" y1="54.25" y2="54.25" gradientUnits="userSpaceOnUse"><stop stop-color="#D6FFBB"/><stop offset="1" stop-color="#5869DD"/></linearGradient><linearGradient id="T" x1="0" x2="91" y1="54.25" y2="54.25" gradientUnits="userSpaceOnUse"><stop stop-color="#D6FFBB"/><stop offset="1" stop-color="#5869DD"/></linearGradient><linearGradient id="U" x1="0" x2="91" y1="54.25" y2="54.25" gradientUnits="userSpaceOnUse"><stop stop-color="#D6FFBB"/><stop offset="1" stop-color="#5869DD"/></linearGradient><linearGradient id="V" x1="0" x2="91" y1="54.25" y2="54.25" gradientUnits="userSpaceOnUse"><stop stop-color="#D6FFBB"/><stop offset="1" stop-color="#5869DD"/></linearGradient><linearGradient id="W" x1="0" x2="91" y1="54.25" y2="54.25" gradientUnits="userSpaceOnUse"><stop stop-color="#D6FFBB"/><stop offset="1" stop-color="#5869DD"/></linearGradient><linearGradient id="X" x1="0" x2="91" y1="54.25" y2="54.25" gradientUnits="userSpaceOnUse"><stop stop-color="#D6FFBB"/><stop offset="1" stop-color="#5869DD"/></linearGradient><linearGradient id="Y" x1="0" x2="91" y1="54.25" y2="54.25" gradientUnits="userSpaceOnUse"><stop stop-color="#D6FFBB"/><stop offset="1" stop-color="#5869DD"/></linearGradient><linearGradient id="Z" x1="0" x2="91" y1="54.25" y2="54.25" gradientUnits="userSpaceOnUse"><stop stop-color="#D6FFBB"/><stop offset="1" stop-color="#5869DD"/></linearGradient><linearGradient id="aa" x1="0" x2="91" y1="54.25" y2="54.25" gradientUnits="userSpaceOnUse"><stop stop-color="#D6FFBB"/><stop offset="1" stop-color="#5869DD"/></linearGradient><linearGradient id="ab" x1="0" x2="91" y1="54.25" y2="54.25" gradientUnits="userSpaceOnUse"><stop stop-color="#D6FFBB"/><stop offset="1" stop-color="#5869DD"/></linearGradient><linearGradient id="ac" x1="0" x2="91" y1="54.25" y2="54.25" gradientUnits="userSpaceOnUse"><stop stop-color="#D6FFBB"/><stop offset="1" stop-color="#5869DD"/></linearGradient><linearGradient id="ad" x1="0" x2="91" y1="54.25" y2="54.25" gradientUnits="userSpaceOnUse"><stop stop-color="#D6FFBB"/><stop offset="1" stop-color="#5869DD"/></linearGradient><linearGradient id="ae" x1="0" x2="91" y1="54.25" y2="54.25" gradientUnits="userSpaceOnUse"><stop stop-color="#D6FFBB"/><stop offset="1" stop-color="#5869DD"/></linearGradient><linearGradient id="af" x1="0" x2="91" y1="54.25" y2="54.25" gradientUnits="userSpaceOnUse"><stop stop-color="#D6FFBB"/><stop offset="1" stop-color="#5869DD"/></linearGradient><linearGradient id="ag" x1="0" x2="91" y1="54.25" y2="54.25" gradientUnits="userSpaceOnUse"><stop stop-color="#D6FFBB"/><stop offset="1" stop-color="#5869DD"/></linearGradient><linearGradient id="ah" x1="0" x2="91" y1="54.25" y2="54.25" gradientUnits="userSpaceOnUse"><stop stop-color="#D6FFBB"/><stop offset="1" stop-color="#5869DD"/></linearGradient><linearGradient id="ai" x1="0" x2="91" y1="54.25" y2="54.25" gradientUnits="userSpaceOnUse"><stop stop-color="#D6FFBB"/><stop offset="1" stop-color="#5869DD"/></linearGradient><linearGradient id="aj" x1="0" x2="91" y1="54.25" y2="54.25" gradientUnits="userSpaceOnUse"><stop stop-color="#D6FFBB"/><stop offset="1" stop-color="#5869DD"/></linearGradient><linearGradient id="ak" x1="0" x2="91" y1="54.25" y2="54.25" gradientUnits="userSpaceOnUse"><stop stop-color="#D6FFBB"/><stop offset="1" stop-color="#5869DD"/></linearGradient><linearGradient id="al" x1="0" x2="91" y1="54.25" y2="54.25" gradientUnits="userSpaceOnUse"><stop stop-color="#D6FFBB"/><stop offset="1" stop-color="#5869DD"/></linearGradient><linearGradient id="am" x1="0" x2="91" y1="54.25" y2="54.25" gradientUnits="userSpaceOnUse"><stop stop-color="#D6FFBB"/><stop offset="1" stop-color="#5869DD"/></linearGradient><linearGradient id="an" x1="0" x2="91" y1="54.25" y2="54.25" gradientUnits="userSpaceOnUse"><stop stop-color="#D6FFBB"/><stop offset="1" stop-color="#5869DD"/></linearGradient><linearGradient id="ao" x1="0" x2="91" y1="54.25" y2="54.25" gradientUnits="userSpaceOnUse"><stop stop-color="#D6FFBB"/><stop offset="1" stop-color="#5869DD"/></linearGradient><linearGradient id="ap" x1="0" x2="91" y1="54.25" y2="54.25" gradientUnits="userSpaceOnUse"><stop stop-color="#D6FFBB"/><stop offset="1" stop-color="#5869DD"/></linearGradient><linearGradient id="aq" x1="0" x2="91" y1="54.25" y2="54.25" gradientUnits="userSpaceOnUse"><stop stop-color="#D6FFBB"/><stop offset="1" stop-color="#5869DD"/></linearGradient><linearGradient id="ar" x1="0" x2="91" y1="54.25" y2="54.25" gradientUnits="userSpaceOnUse"><stop stop-color="#D6FFBB"/><stop offset="1" stop-color="#5869DD"/></linearGradient><linearGradient id="as" x1="0" x2="91" y1="54.25" y2="54.25" gradientUnits="userSpaceOnUse"><stop stop-color="#D6FFBB"/><stop offset="1" stop-color="#5869DD"/></linearGradient><linearGradient id="at" x1="0" x2="91" y1="54.25" y2="54.25" gradientUnits="userSpaceOnUse"><stop stop-color="#D6FFBB"/><stop offset="1" stop-color="#5869DD"/></linearGradient><linearGradient id="au" x1="0" x2="91" y1="54.25" y2="54.25" gradientUnits="userSpaceOnUse"><stop stop-color="#D6FFBB"/><stop offset="1" stop-color="#5869DD"/></linearGradient><linearGradient id="av" x1="0" x2="91" y1="54.25" y2="54.25" gradientUnits="userSpaceOnUse"><stop stop-color="#D6FFBB"/><stop offset="1" stop-color="#5869DD"/></linearGradient><linearGradient id="aw" x1="0" x2="91" y1="54.25" y2="54.25" gradientUnits="userSpaceOnUse"><stop stop-color="#D6FFBB"/><stop offset="1" stop-color="#5869DD"/></linearGradient><linearGradient id="ax" x1="0" x2="91" y1="54.25" y2="54.25" gradientUnits="userSpaceOnUse"><stop stop-color="#D6FFBB"/><stop offset="1" stop-color="#5869DD"/></linearGradient><linearGradient id="ay" x1="0" x2="91" y1="54.25" y2="54.25" gradientUnits="userSpaceOnUse"><stop stop-color="#D6FFBB"/><stop offset="1" stop-color="#5869DD"/></linearGradient><linearGradient id="az" x1="0" x2="91" y1="54.25" y2="54.25" gradientUnits="userSpaceOnUse"><stop stop-color="#D6FFBB"/><stop offset="1" stop-color="#5869DD"/></linearGradient><linearGradient id="aA" x1="0" x2="91" y1="54.25" y2="54.25" gradientUnits="userSpaceOnUse"><stop stop-color="#D6FFBB"/><stop offset="1" stop-color="#5869DD"/></linearGradient><linearGradient id="aB" x1="0" x2="91" y1="54.25" y2="54.25" gradientUnits="userSpaceOnUse"><stop stop-color="#D6FFBB"/><stop offset="1" stop-color="#5869DD"/></linearGradient><linearGradient id="aC" x1="0" x2="91" y1="54.25" y2="54.25" gradientUnits="userSpaceOnUse"><stop stop-color="#D6FFBB"/><stop offset="1" stop-color="#5869DD"/></linearGradient><linearGradient id="aD" x1="0" x2="91" y1="54.25" y2="54.25" gradientUnits="userSpaceOnUse"><stop stop-color="#D6FFBB"/><stop offset="1" stop-color="#5869DD"/></linearGradient><linearGradient id="aE" x1="0" x2="91" y1="54.25" y2="54.25" gradientUnits="userSpaceOnUse"><stop stop-color="#D6FFBB"/><stop offset="1" stop-color="#5869DD"/></linearGradient><linearGradient id="aF" x1="0" x2="91" y1="54.25" y2="54.25" gradientUnits="userSpaceOnUse"><stop stop-color="#D6FFBB"/><stop offset="1" stop-color="#5869DD"/></linearGradient></defs></svg>
