<svg xmlns="http://www.w3.org/2000/svg" width="73" height="113" fill="none" viewBox="0 0 73 113"><path fill="url(#a)" d="M43.666 5.428h-4.852v5.108h4.852V5.428Z"/><path fill="url(#b)" d="M38.814 5.428h-4.851v5.108h4.851V5.428Z"/><path fill="url(#c)" d="M43.666 15.643h-4.852v5.107h4.852v-5.107Z"/><path fill="url(#d)" d="M48.518 15.643h-4.852v5.107h4.852v-5.107Z"/><path fill="url(#e)" d="M48.518 10.536h-4.852v5.107h4.852v-5.107Z"/><path fill="url(#f)" d="M43.666 10.536h-4.852v5.107h4.852v-5.107Z"/><path fill="url(#g)" d="M38.814 15.643h-4.851v5.107h4.851v-5.107Z"/><path fill="url(#h)" d="M38.814 10.536h-4.851v5.107h4.851v-5.107Z"/><path fill="url(#i)" d="M33.963 15.643H29.11v5.107h4.852v-5.107Z"/><path fill="url(#j)" d="M33.963 10.536H29.11v5.107h4.852v-5.107Z"/><path fill="url(#k)" d="M24.259 25.857h-4.852v5.107h4.852v-5.107Z"/><path fill="url(#l)" d="M24.259 20.75h-4.852v5.107h4.852V20.75Z"/><path fill="url(#m)" d="M53.37 25.857h-4.852v5.107h4.852v-5.107Z"/><path fill="url(#n)" d="M58.222 36.071H53.37v5.108h4.852V36.07Z"/><path fill="url(#o)" d="M53.37 36.071h-4.852v5.108h4.852V36.07Z"/><path fill="url(#p)" d="M58.222 41.178H53.37v5.108h4.852v-5.108Z"/><path fill="url(#q)" d="M53.37 30.964h-4.852v5.107h4.852v-5.107Z"/><path fill="url(#r)" d="M53.37 20.75h-4.852v5.107h4.852V20.75Z"/><path fill="url(#s)" d="M48.518 20.75h-4.852v5.107h4.852V20.75Z"/><path fill="url(#t)" d="M43.666 30.964h-4.852v5.107h4.852v-5.107Z"/><path fill="url(#u)" d="M43.666 36.071h-4.852v5.108h4.852V36.07Z"/><path fill="url(#v)" d="M48.518 36.071h-4.852v5.108h4.852V36.07Z"/><path fill="url(#w)" d="M48.518 25.857h-4.852v5.107h4.852v-5.107Z"/><path fill="url(#x)" d="M48.518 30.964h-4.852v5.107h4.852v-5.107Z"/><path fill="url(#y)" d="M43.666 25.857h-4.852v5.107h4.852v-5.107Z"/><path fill="url(#z)" d="M38.814 41.178h-4.851v5.108h4.851v-5.108Z"/><path fill="url(#A)" d="M38.814 36.071h-4.851v5.108h4.851V36.07Z"/><path fill="url(#B)" d="M38.814 30.964h-4.851v5.107h4.851v-5.107Z"/><path fill="url(#C)" d="M38.814 25.857h-4.851v5.107h4.851v-5.107Z"/><path fill="url(#D)" d="M33.963 30.964H29.11v5.107h4.852v-5.107Z"/><path fill="url(#E)" d="M33.963 36.071H29.11v5.108h4.852V36.07Z"/><path fill="url(#F)" d="M33.963 41.178H29.11v5.108h4.852v-5.108Z"/><path fill="url(#G)" d="M33.963 25.857H29.11v5.107h4.852v-5.107Z"/><path fill="url(#H)" d="M29.11 30.964H24.26v5.107h4.852v-5.107Z"/><path fill="url(#I)" d="M29.11 36.071H24.26v5.108h4.852V36.07Z"/><path fill="url(#J)" d="M53.37 41.178h-4.852v5.108h4.852v-5.108Z"/><path fill="url(#K)" d="M53.37 46.286h-4.852v5.107h4.852v-5.107Z"/><path fill="url(#L)" d="M53.37 51.393h-4.852V56.5h4.852v-5.107Z"/><path fill="url(#M)" d="M43.666 41.178h-4.852v5.108h4.852v-5.108Z"/><path fill="url(#N)" d="M48.518 41.178h-4.852v5.108h4.852v-5.108Z"/><path fill="url(#O)" d="M43.666 46.286h-4.852v5.107h4.852v-5.107Z"/><path fill="url(#P)" d="M38.814 51.393h-4.851V56.5h4.851v-5.107Z"/><path fill="url(#Q)" d="M38.814 46.286h-4.851v5.107h4.851v-5.107Z"/><path fill="url(#R)" d="M33.963 71.822H29.11v5.107h4.852V71.82Z"/><path fill="url(#S)" d="M33.963 82.036H29.11v5.107h4.852v-5.107Z"/><path fill="url(#T)" d="M33.963 76.929H29.11v5.107h4.852v-5.107Z"/><path fill="url(#U)" d="M33.963 87.143H29.11v5.107h4.852v-5.107Z"/><path fill="url(#V)" d="M43.666 66.714h-4.852v5.108h4.852v-5.108Z"/><path fill="url(#W)" d="M48.518 61.607h-4.852v5.107h4.852v-5.107Z"/><path fill="url(#X)" d="M43.666 56.5h-4.852v5.107h4.852V56.5Z"/><path fill="url(#Y)" d="M38.814 56.5h-4.851v5.107h4.851V56.5Z"/><path fill="url(#Z)" d="M33.963 61.607H29.11v5.107h4.852v-5.107Z"/><path fill="url(#aa)" d="M33.963 56.5H29.11v5.107h4.852V56.5Z"/><path fill="url(#ab)" d="M29.11 61.607H24.26v5.107h4.852v-5.107Z"/><path fill="url(#ac)" d="M24.259 41.178h-4.852v5.108h4.852v-5.108Z"/><path fill="url(#ad)" d="M19.407 46.286h-4.852v5.107h4.852v-5.107Z"/><path fill="url(#ae)" d="M19.407 36.071h-4.852v5.108h4.852V36.07Z"/><path fill="url(#af)" d="M19.407 30.964h-4.852v5.107h4.852v-5.107Z"/><path fill="url(#ag)" d="M14.555 41.178H9.704v5.108h4.851v-5.108Z"/><path fill="url(#ah)" d="M19.407 41.178h-4.852v5.108h4.852v-5.108Z"/><path fill="#000" d="M24.259.321h-4.852v5.107h4.852V.321ZM19.407 5.428h-4.852v5.108h4.852V5.428ZM14.555 10.536H9.704v5.107h4.851v-5.107ZM9.704 15.643H4.852v5.107h4.852v-5.107ZM4.852 20.75H0v5.107h4.852V20.75Z"/><path fill="#5869DD" d="M43.666 97.357h-4.852v5.107h4.852v-5.107Z"/><path fill="#5869DD" d="M38.814 97.357h-4.851v5.107h4.851v-5.107ZM38.814 102.464h-4.851v5.108h4.851v-5.108ZM33.963 102.464H29.11v5.108h4.852v-5.108ZM29.11 97.357H24.26v5.107h4.852v-5.107ZM33.963 92.25H29.11v5.107h4.852V92.25Z"/><path fill="#5869DD" d="M29.11 92.25H24.26v5.107h4.852V92.25Z"/><path fill="#F1EFED" d="M24.259 15.643h-4.852v5.107h4.852v-5.107ZM14.555 20.75H9.704v5.107h4.851V20.75ZM19.407 20.75h-4.852v5.107h4.852V20.75ZM19.407 15.643h-4.852v5.107h4.852v-5.107Z"/><path fill="#8F8E93" d="M58.222 46.286H53.37v5.107h4.852v-5.107ZM53.37 56.5h-4.852v5.107h4.852V56.5ZM38.814 87.143h-4.851v5.107h4.851v-5.107ZM43.666 82.036h-4.852v5.107h4.852v-5.107ZM43.666 71.822h-4.852v5.107h4.852V71.82ZM43.666 76.929h-4.852v5.107h4.852v-5.107ZM48.518 87.143h-4.852v5.107h4.852v-5.107Z"/><path fill="#8F8E93" d="M43.666 87.143h-4.852v5.107h4.852v-5.107ZM67.925 20.75h-4.852v5.107h4.852V20.75ZM53.37 10.536h-4.852v5.107h4.852v-5.107ZM63.073 15.643h-4.851v5.107h4.851v-5.107ZM53.37 5.428h-4.852v5.108h4.852V5.428Z"/><path fill="#8F8E93" d="M58.222 10.536H53.37v5.107h4.852v-5.107ZM48.518 5.428h-4.852v5.108h4.852V5.428ZM67.925 46.286h-4.852v5.107h4.852v-5.107ZM67.925 41.178h-4.852v5.108h4.852v-5.108Z"/><path fill="#8F8E93" d="M67.925 36.071h-4.852v5.108h4.852V36.07Z"/><path fill="#8F8E93" d="M63.073 41.178h-4.851v5.108h4.851v-5.108ZM67.925 30.964h-4.852v5.107h4.852v-5.107ZM63.073 46.286h-4.851v5.107h4.851v-5.107ZM67.925 25.857h-4.852v5.107h4.852v-5.107Z"/><path fill="#8F8E93" d="M63.073 36.071h-4.851v5.108h4.851V36.07Z"/><path fill="#8F8E93" d="M63.073 30.964h-4.851v5.107h4.851v-5.107ZM63.073 51.393h-4.851V56.5h4.851v-5.107ZM58.222 51.393H53.37V56.5h4.852v-5.107ZM58.222 56.5H53.37v5.107h4.852V56.5ZM53.37 61.607h-4.852v5.107h4.852v-5.107ZM48.518 71.822h-4.852v5.107h4.852V71.82ZM48.518 76.929h-4.852v5.107h4.852v-5.107ZM48.518 82.036h-4.852v5.107h4.852v-5.107Z"/><path fill="#8F8E93" d="M48.518 66.714h-4.852v5.108h4.852v-5.108ZM29.11 66.714H24.26v5.108h4.852v-5.108ZM29.11 82.036H24.26v5.107h4.852v-5.107ZM29.11 76.929H24.26v5.107h4.852v-5.107Z"/><path fill="#8F8E93" d="M29.11 71.822H24.26v5.107h4.852V71.82ZM24.259 61.607h-4.852v5.107h4.852v-5.107ZM24.259 56.5h-4.852v5.107h4.852V56.5ZM19.407 56.5h-4.852v5.107h4.852V56.5ZM14.555 51.393H9.704V56.5h4.851v-5.107ZM14.555 46.286H9.704v5.107h4.851v-5.107ZM19.407 51.393h-4.852V56.5h4.852v-5.107ZM9.704 46.286H4.852v5.107h4.852v-5.107ZM9.704 41.178H4.852v5.108h4.852v-5.108ZM9.704 25.857H4.852v5.107h4.852v-5.107Z"/><path fill="#8F8E93" d="M9.704 36.071H4.852v5.108h4.852V36.07Z"/><path fill="#8F8E93" d="M9.704 30.964H4.852v5.107h4.852v-5.107Z"/><path fill="#F1EFED" d="M58.222 30.964H53.37v5.107h4.852v-5.107ZM63.073 25.857h-4.851v5.107h4.851v-5.107Z"/><path fill="#8F8E93" d="M63.073 20.75h-4.851v5.107h4.851V20.75Z"/><path fill="#F1EFED" d="M58.222 25.857H53.37v5.107h4.852v-5.107ZM58.222 20.75H53.37v5.107h4.852V20.75Z"/><path fill="#8F8E93" d="M58.222 15.643H53.37v5.107h4.852v-5.107Z"/><path fill="#F1EFED" d="M53.37 15.643h-4.852v5.107h4.852v-5.107ZM33.963 5.428H29.11v5.108h4.852V5.428ZM29.11 10.536H24.26v5.107h4.852v-5.107Z"/><path fill="#F1EFED" d="M29.11 5.428H24.26v5.108h4.852V5.428ZM24.259 10.536h-4.852v5.107h4.852v-5.107ZM29.11 25.857H24.26v5.107h4.852v-5.107ZM43.666 20.75h-4.852v5.107h4.852V20.75Z"/><path fill="#F1EFED" d="M38.814 20.75h-4.851v5.107h4.851V20.75ZM33.963 20.75H29.11v5.107h4.852V20.75ZM29.11 15.643H24.26v5.107h4.852v-5.107Z"/><path fill="#F1EFED" d="M29.11 20.75H24.26v5.107h4.852V20.75ZM29.11 51.393H24.26V56.5h4.852v-5.107ZM29.11 46.286H24.26v5.107h4.852v-5.107ZM24.259 36.071h-4.852v5.108h4.852V36.07Z"/><path fill="#F1EFED" d="M24.259 30.964h-4.852v5.107h4.852v-5.107ZM14.555 30.964H9.704v5.107h4.851v-5.107ZM14.555 25.857H9.704v5.107h4.851v-5.107Z"/><path fill="#F1EFED" d="M14.555 36.071H9.704v5.108h4.851V36.07ZM19.407 25.857h-4.852v5.107h4.852v-5.107Z"/><path fill="#000" d="M33.963 97.357H29.11v5.107h4.852v-5.107ZM29.11 87.143H24.26v5.107h4.852v-5.107ZM72.777 46.286h-4.852v5.107h4.852v-5.107ZM72.777 41.178h-4.852v5.108h4.852v-5.108Z"/><path fill="#000" d="M72.777 36.071h-4.852v5.108h4.852V36.07Z"/><path fill="#000" d="M72.777 30.964h-4.852v5.107h4.852v-5.107ZM72.777 25.857h-4.852v5.107h4.852v-5.107ZM72.777 20.75h-4.852v5.107h4.852V20.75ZM67.925 51.393h-4.852V56.5h4.852v-5.107ZM67.925 15.643h-4.852v5.107h4.852v-5.107ZM63.073 56.5h-4.851v5.107h4.851V56.5ZM63.073 10.536h-4.851v5.107h4.851v-5.107ZM58.222 61.607H53.37v5.107h4.852v-5.107ZM58.222 5.428H53.37v5.108h4.852V5.428ZM53.37 97.357h-4.852v5.107h4.852v-5.107ZM53.37 92.25h-4.852v5.107h4.852V92.25ZM53.37 87.143h-4.852v5.107h4.852v-5.107ZM53.37 82.036h-4.852v5.107h4.852v-5.107ZM53.37 76.929h-4.852v5.107h4.852v-5.107ZM53.37 71.822h-4.852v5.107h4.852V71.82Z"/><path fill="#000" d="M53.37 66.714h-4.852v5.108h4.852v-5.108ZM53.37.321h-4.852v5.107h4.852V.321ZM48.518 102.464h-4.852v5.108h4.852v-5.108ZM48.518 97.357h-4.852v5.107h4.852v-5.107ZM48.518 92.25h-4.852v5.107h4.852V92.25ZM48.518 56.5h-4.852v5.107h4.852V56.5ZM48.518 51.393h-4.852V56.5h4.852v-5.107ZM48.518 46.286h-4.852v5.107h4.852v-5.107ZM48.518.321h-4.852v5.107h4.852V.321ZM43.666 107.572h-4.852v5.107h4.852v-5.107ZM43.666 102.464h-4.852v5.108h4.852v-5.108ZM43.666 92.25h-4.852v5.107h4.852V92.25ZM43.666 61.607h-4.852v5.107h4.852v-5.107ZM43.666 51.393h-4.852V56.5h4.852v-5.107ZM43.666.321h-4.852v5.107h4.852V.321Z"/><path fill="#000" d="M38.814 107.572h-4.851v5.107h4.851v-5.107ZM38.814 92.25h-4.851v5.107h4.851V92.25ZM38.814 82.036h-4.851v5.107h4.851v-5.107ZM38.814 76.929h-4.851v5.107h4.851v-5.107ZM38.814 71.822h-4.851v5.107h4.851V71.82Z"/><path fill="#000" d="M38.814 66.714h-4.851v5.108h4.851v-5.108ZM38.814 61.607h-4.851v5.107h4.851v-5.107ZM38.814.321h-4.851v5.107h4.851V.321ZM33.963 107.572H29.11v5.107h4.852v-5.107ZM33.963 66.714H29.11v5.108h4.852v-5.108ZM33.963 51.393H29.11V56.5h4.852v-5.107ZM33.963 46.286H29.11v5.107h4.852v-5.107ZM33.963.321H29.11v5.107h4.852V.321ZM29.11 102.464H24.26v5.108h4.852v-5.108ZM29.11 56.5H24.26v5.107h4.852V56.5ZM29.11 41.178H24.26v5.108h4.852v-5.108Z"/><path fill="#000" d="M29.11.321H24.26v5.107h4.852V.321ZM24.259 102.464h-4.852v5.108h4.852v-5.108ZM24.259 97.357h-4.852v5.107h4.852v-5.107ZM24.259 92.25h-4.852v5.107h4.852V92.25ZM24.259 87.143h-4.852v5.107h4.852v-5.107ZM24.259 82.036h-4.852v5.107h4.852v-5.107ZM24.259 76.929h-4.852v5.107h4.852v-5.107ZM24.259 71.822h-4.852v5.107h4.852V71.82Z"/><path fill="#000" d="M24.259 66.714h-4.852v5.108h4.852v-5.108ZM24.259 51.393h-4.852V56.5h4.852v-5.107ZM24.259 46.286h-4.852v5.107h4.852v-5.107Z"/><path fill="#F1EFED" d="M24.259 5.428h-4.852v5.108h4.852V5.428Z"/><path fill="#000" d="M19.407 61.607h-4.852v5.107h4.852v-5.107Z"/><path fill="#F1EFED" d="M19.407 10.536h-4.852v5.107h4.852v-5.107Z"/><path fill="#000" d="M14.555 56.5H9.704v5.107h4.851V56.5Z"/><path fill="#F1EFED" d="M14.555 15.643H9.704v5.107h4.851v-5.107Z"/><path fill="#000" d="M9.704 51.393H4.852V56.5h4.852v-5.107Z"/><path fill="#F1EFED" d="M9.704 20.75H4.852v5.107h4.852V20.75Z"/><path fill="#000" d="M4.852 46.286H0v5.107h4.852v-5.107ZM4.852 41.178H0v5.108h4.852v-5.108Z"/><path fill="#000" d="M4.852 36.071H0v5.108h4.852V36.07Z"/><path fill="#000" d="M4.852 30.964H0v5.107h4.852v-5.107ZM4.852 25.857H0v5.107h4.852v-5.107Z"/><defs><linearGradient id="a" x1="0" x2="72.777" y1="56.5" y2="56.5" gradientUnits="userSpaceOnUse"><stop stop-color="#D6FFBB"/><stop offset="1" stop-color="#5869DD"/></linearGradient><linearGradient id="b" x1="0" x2="72.777" y1="56.5" y2="56.5" gradientUnits="userSpaceOnUse"><stop stop-color="#D6FFBB"/><stop offset="1" stop-color="#5869DD"/></linearGradient><linearGradient id="c" x1="0" x2="72.777" y1="56.5" y2="56.5" gradientUnits="userSpaceOnUse"><stop stop-color="#D6FFBB"/><stop offset="1" stop-color="#5869DD"/></linearGradient><linearGradient id="d" x1="0" x2="72.777" y1="56.5" y2="56.5" gradientUnits="userSpaceOnUse"><stop stop-color="#D6FFBB"/><stop offset="1" stop-color="#5869DD"/></linearGradient><linearGradient id="e" x1="0" x2="72.777" y1="56.5" y2="56.5" gradientUnits="userSpaceOnUse"><stop stop-color="#D6FFBB"/><stop offset="1" stop-color="#5869DD"/></linearGradient><linearGradient id="f" x1="0" x2="72.777" y1="56.5" y2="56.5" gradientUnits="userSpaceOnUse"><stop stop-color="#D6FFBB"/><stop offset="1" stop-color="#5869DD"/></linearGradient><linearGradient id="g" x1="0" x2="72.777" y1="56.5" y2="56.5" gradientUnits="userSpaceOnUse"><stop stop-color="#D6FFBB"/><stop offset="1" stop-color="#5869DD"/></linearGradient><linearGradient id="h" x1="0" x2="72.777" y1="56.5" y2="56.5" gradientUnits="userSpaceOnUse"><stop stop-color="#D6FFBB"/><stop offset="1" stop-color="#5869DD"/></linearGradient><linearGradient id="i" x1="0" x2="72.777" y1="56.5" y2="56.5" gradientUnits="userSpaceOnUse"><stop stop-color="#D6FFBB"/><stop offset="1" stop-color="#5869DD"/></linearGradient><linearGradient id="j" x1="0" x2="72.777" y1="56.5" y2="56.5" gradientUnits="userSpaceOnUse"><stop stop-color="#D6FFBB"/><stop offset="1" stop-color="#5869DD"/></linearGradient><linearGradient id="k" x1="0" x2="72.777" y1="56.5" y2="56.5" gradientUnits="userSpaceOnUse"><stop stop-color="#D6FFBB"/><stop offset="1" stop-color="#5869DD"/></linearGradient><linearGradient id="l" x1="0" x2="72.777" y1="56.5" y2="56.5" gradientUnits="userSpaceOnUse"><stop stop-color="#D6FFBB"/><stop offset="1" stop-color="#5869DD"/></linearGradient><linearGradient id="m" x1="0" x2="72.777" y1="56.5" y2="56.5" gradientUnits="userSpaceOnUse"><stop stop-color="#D6FFBB"/><stop offset="1" stop-color="#5869DD"/></linearGradient><linearGradient id="n" x1="0" x2="72.777" y1="56.5" y2="56.5" gradientUnits="userSpaceOnUse"><stop stop-color="#D6FFBB"/><stop offset="1" stop-color="#5869DD"/></linearGradient><linearGradient id="o" x1="0" x2="72.777" y1="56.5" y2="56.5" gradientUnits="userSpaceOnUse"><stop stop-color="#D6FFBB"/><stop offset="1" stop-color="#5869DD"/></linearGradient><linearGradient id="p" x1="0" x2="72.777" y1="56.5" y2="56.5" gradientUnits="userSpaceOnUse"><stop stop-color="#D6FFBB"/><stop offset="1" stop-color="#5869DD"/></linearGradient><linearGradient id="q" x1="0" x2="72.777" y1="56.5" y2="56.5" gradientUnits="userSpaceOnUse"><stop stop-color="#D6FFBB"/><stop offset="1" stop-color="#5869DD"/></linearGradient><linearGradient id="r" x1="0" x2="72.777" y1="56.5" y2="56.5" gradientUnits="userSpaceOnUse"><stop stop-color="#D6FFBB"/><stop offset="1" stop-color="#5869DD"/></linearGradient><linearGradient id="s" x1="0" x2="72.777" y1="56.5" y2="56.5" gradientUnits="userSpaceOnUse"><stop stop-color="#D6FFBB"/><stop offset="1" stop-color="#5869DD"/></linearGradient><linearGradient id="t" x1="0" x2="72.777" y1="56.5" y2="56.5" gradientUnits="userSpaceOnUse"><stop stop-color="#D6FFBB"/><stop offset="1" stop-color="#5869DD"/></linearGradient><linearGradient id="u" x1="0" x2="72.777" y1="56.5" y2="56.5" gradientUnits="userSpaceOnUse"><stop stop-color="#D6FFBB"/><stop offset="1" stop-color="#5869DD"/></linearGradient><linearGradient id="v" x1="0" x2="72.777" y1="56.5" y2="56.5" gradientUnits="userSpaceOnUse"><stop stop-color="#D6FFBB"/><stop offset="1" stop-color="#5869DD"/></linearGradient><linearGradient id="w" x1="0" x2="72.777" y1="56.5" y2="56.5" gradientUnits="userSpaceOnUse"><stop stop-color="#D6FFBB"/><stop offset="1" stop-color="#5869DD"/></linearGradient><linearGradient id="x" x1="0" x2="72.777" y1="56.5" y2="56.5" gradientUnits="userSpaceOnUse"><stop stop-color="#D6FFBB"/><stop offset="1" stop-color="#5869DD"/></linearGradient><linearGradient id="y" x1="0" x2="72.777" y1="56.5" y2="56.5" gradientUnits="userSpaceOnUse"><stop stop-color="#D6FFBB"/><stop offset="1" stop-color="#5869DD"/></linearGradient><linearGradient id="z" x1="0" x2="72.777" y1="56.5" y2="56.5" gradientUnits="userSpaceOnUse"><stop stop-color="#D6FFBB"/><stop offset="1" stop-color="#5869DD"/></linearGradient><linearGradient id="A" x1="0" x2="72.777" y1="56.5" y2="56.5" gradientUnits="userSpaceOnUse"><stop stop-color="#D6FFBB"/><stop offset="1" stop-color="#5869DD"/></linearGradient><linearGradient id="B" x1="0" x2="72.777" y1="56.5" y2="56.5" gradientUnits="userSpaceOnUse"><stop stop-color="#D6FFBB"/><stop offset="1" stop-color="#5869DD"/></linearGradient><linearGradient id="C" x1="0" x2="72.777" y1="56.5" y2="56.5" gradientUnits="userSpaceOnUse"><stop stop-color="#D6FFBB"/><stop offset="1" stop-color="#5869DD"/></linearGradient><linearGradient id="D" x1="0" x2="72.777" y1="56.5" y2="56.5" gradientUnits="userSpaceOnUse"><stop stop-color="#D6FFBB"/><stop offset="1" stop-color="#5869DD"/></linearGradient><linearGradient id="E" x1="0" x2="72.777" y1="56.5" y2="56.5" gradientUnits="userSpaceOnUse"><stop stop-color="#D6FFBB"/><stop offset="1" stop-color="#5869DD"/></linearGradient><linearGradient id="F" x1="0" x2="72.777" y1="56.5" y2="56.5" gradientUnits="userSpaceOnUse"><stop stop-color="#D6FFBB"/><stop offset="1" stop-color="#5869DD"/></linearGradient><linearGradient id="G" x1="0" x2="72.777" y1="56.5" y2="56.5" gradientUnits="userSpaceOnUse"><stop stop-color="#D6FFBB"/><stop offset="1" stop-color="#5869DD"/></linearGradient><linearGradient id="H" x1="0" x2="72.777" y1="56.5" y2="56.5" gradientUnits="userSpaceOnUse"><stop stop-color="#D6FFBB"/><stop offset="1" stop-color="#5869DD"/></linearGradient><linearGradient id="I" x1="0" x2="72.777" y1="56.5" y2="56.5" gradientUnits="userSpaceOnUse"><stop stop-color="#D6FFBB"/><stop offset="1" stop-color="#5869DD"/></linearGradient><linearGradient id="J" x1="0" x2="72.777" y1="56.5" y2="56.5" gradientUnits="userSpaceOnUse"><stop stop-color="#D6FFBB"/><stop offset="1" stop-color="#5869DD"/></linearGradient><linearGradient id="K" x1="0" x2="72.777" y1="56.5" y2="56.5" gradientUnits="userSpaceOnUse"><stop stop-color="#D6FFBB"/><stop offset="1" stop-color="#5869DD"/></linearGradient><linearGradient id="L" x1="0" x2="72.777" y1="56.5" y2="56.5" gradientUnits="userSpaceOnUse"><stop stop-color="#D6FFBB"/><stop offset="1" stop-color="#5869DD"/></linearGradient><linearGradient id="M" x1="0" x2="72.777" y1="56.5" y2="56.5" gradientUnits="userSpaceOnUse"><stop stop-color="#D6FFBB"/><stop offset="1" stop-color="#5869DD"/></linearGradient><linearGradient id="N" x1="0" x2="72.777" y1="56.5" y2="56.5" gradientUnits="userSpaceOnUse"><stop stop-color="#D6FFBB"/><stop offset="1" stop-color="#5869DD"/></linearGradient><linearGradient id="O" x1="0" x2="72.777" y1="56.5" y2="56.5" gradientUnits="userSpaceOnUse"><stop stop-color="#D6FFBB"/><stop offset="1" stop-color="#5869DD"/></linearGradient><linearGradient id="P" x1="0" x2="72.777" y1="56.5" y2="56.5" gradientUnits="userSpaceOnUse"><stop stop-color="#D6FFBB"/><stop offset="1" stop-color="#5869DD"/></linearGradient><linearGradient id="Q" x1="0" x2="72.777" y1="56.5" y2="56.5" gradientUnits="userSpaceOnUse"><stop stop-color="#D6FFBB"/><stop offset="1" stop-color="#5869DD"/></linearGradient><linearGradient id="R" x1="0" x2="72.777" y1="56.5" y2="56.5" gradientUnits="userSpaceOnUse"><stop stop-color="#D6FFBB"/><stop offset="1" stop-color="#5869DD"/></linearGradient><linearGradient id="S" x1="0" x2="72.777" y1="56.5" y2="56.5" gradientUnits="userSpaceOnUse"><stop stop-color="#D6FFBB"/><stop offset="1" stop-color="#5869DD"/></linearGradient><linearGradient id="T" x1="0" x2="72.777" y1="56.5" y2="56.5" gradientUnits="userSpaceOnUse"><stop stop-color="#D6FFBB"/><stop offset="1" stop-color="#5869DD"/></linearGradient><linearGradient id="U" x1="0" x2="72.777" y1="56.5" y2="56.5" gradientUnits="userSpaceOnUse"><stop stop-color="#D6FFBB"/><stop offset="1" stop-color="#5869DD"/></linearGradient><linearGradient id="V" x1="0" x2="72.777" y1="56.5" y2="56.5" gradientUnits="userSpaceOnUse"><stop stop-color="#D6FFBB"/><stop offset="1" stop-color="#5869DD"/></linearGradient><linearGradient id="W" x1="0" x2="72.777" y1="56.5" y2="56.5" gradientUnits="userSpaceOnUse"><stop stop-color="#D6FFBB"/><stop offset="1" stop-color="#5869DD"/></linearGradient><linearGradient id="X" x1="0" x2="72.777" y1="56.5" y2="56.5" gradientUnits="userSpaceOnUse"><stop stop-color="#D6FFBB"/><stop offset="1" stop-color="#5869DD"/></linearGradient><linearGradient id="Y" x1="0" x2="72.777" y1="56.5" y2="56.5" gradientUnits="userSpaceOnUse"><stop stop-color="#D6FFBB"/><stop offset="1" stop-color="#5869DD"/></linearGradient><linearGradient id="Z" x1="0" x2="72.777" y1="56.5" y2="56.5" gradientUnits="userSpaceOnUse"><stop stop-color="#D6FFBB"/><stop offset="1" stop-color="#5869DD"/></linearGradient><linearGradient id="aa" x1="0" x2="72.777" y1="56.5" y2="56.5" gradientUnits="userSpaceOnUse"><stop stop-color="#D6FFBB"/><stop offset="1" stop-color="#5869DD"/></linearGradient><linearGradient id="ab" x1="0" x2="72.777" y1="56.5" y2="56.5" gradientUnits="userSpaceOnUse"><stop stop-color="#D6FFBB"/><stop offset="1" stop-color="#5869DD"/></linearGradient><linearGradient id="ac" x1="0" x2="72.777" y1="56.5" y2="56.5" gradientUnits="userSpaceOnUse"><stop stop-color="#D6FFBB"/><stop offset="1" stop-color="#5869DD"/></linearGradient><linearGradient id="ad" x1="0" x2="72.777" y1="56.5" y2="56.5" gradientUnits="userSpaceOnUse"><stop stop-color="#D6FFBB"/><stop offset="1" stop-color="#5869DD"/></linearGradient><linearGradient id="ae" x1="0" x2="72.777" y1="56.5" y2="56.5" gradientUnits="userSpaceOnUse"><stop stop-color="#D6FFBB"/><stop offset="1" stop-color="#5869DD"/></linearGradient><linearGradient id="af" x1="0" x2="72.777" y1="56.5" y2="56.5" gradientUnits="userSpaceOnUse"><stop stop-color="#D6FFBB"/><stop offset="1" stop-color="#5869DD"/></linearGradient><linearGradient id="ag" x1="0" x2="72.777" y1="56.5" y2="56.5" gradientUnits="userSpaceOnUse"><stop stop-color="#D6FFBB"/><stop offset="1" stop-color="#5869DD"/></linearGradient><linearGradient id="ah" x1="0" x2="72.777" y1="56.5" y2="56.5" gradientUnits="userSpaceOnUse"><stop stop-color="#D6FFBB"/><stop offset="1" stop-color="#5869DD"/></linearGradient></defs></svg>
