<svg xmlns="http://www.w3.org/2000/svg" width="100" height="98" fill="none" viewBox="0 0 100 98"><path fill="#000" d="M72.22 53.9h-5.553v4.9h5.554v-4.9ZM66.667 49.002h-5.559v4.899h5.559v-4.899ZM94.442 34.302h-5.554v4.899h5.554v-4.899Z"/><path fill="#000" d="M88.888 39.2h-5.555v4.9h5.555v-4.9ZM83.333 34.302h-5.558v4.899h5.558v-4.899ZM88.888 29.4h-5.555v4.902h5.555V29.4ZM94.442 14.7h-5.554v4.902h5.554V14.7ZM88.888 19.602h-5.555v4.899h5.555v-4.899Z"/><path fill="#000" d="M88.888 24.501h-5.555V29.4h5.555V24.5Z"/><path fill="url(#a)" d="M38.888 29.4h-5.555v4.902h5.555V29.4Z"/><path fill="url(#b)" d="M33.333 29.4h-5.558v4.902h5.558V29.4Z"/><path fill="url(#c)" d="M33.333 24.501h-5.558V29.4h5.558V24.5Z"/><path fill="url(#d)" d="M61.108 34.302h-5.554v4.899h5.554v-4.899Z"/><path fill="url(#e)" d="M61.108 29.4h-5.554v4.902h5.554V29.4Z"/><path fill="url(#f)" d="M55.554 39.2H50v4.9h5.554v-4.9Z"/><path fill="url(#g)" d="M55.554 34.302H50v4.899h5.554v-4.899Z"/><path fill="url(#h)" d="M55.554 29.4H50v4.902h5.554V29.4Z"/><path fill="url(#i)" d="M66.667 29.4h-5.559v4.902h5.559V29.4Z"/><path fill="url(#j)" d="M66.667 24.501h-5.559V29.4h5.559V24.5Z"/><path fill="url(#k)" d="M61.108 24.501h-5.554V29.4h5.554V24.5Z"/><path fill="url(#l)" d="M61.108 19.602h-5.554v4.899h5.554v-4.899Z"/><path fill="url(#m)" d="M61.108 14.7h-5.554v4.902h5.554V14.7Z"/><path fill="url(#n)" d="M55.554 14.7H50v4.902h5.554V14.7Z"/><path fill="url(#o)" d="M55.554 9.801H50V14.7h5.554V9.8Z"/><path fill="url(#p)" d="M38.888 9.801h-5.555V14.7h5.555V9.8Z"/><path fill="url(#q)" d="M33.333 9.801h-5.558V14.7h5.558V9.8Z"/><path fill="url(#r)" d="M44.442 9.801h-5.554V14.7h5.554V9.8Z"/><path fill="url(#s)" d="M50 4.903h-5.558V9.8H50V4.903Z"/><path fill="url(#t)" d="M50 9.801h-5.558V14.7H50V9.8Z"/><path fill="url(#u)" d="M38.888 4.903h-5.555V9.8h5.555V4.903Z"/><path fill="url(#v)" d="M44.442 4.903h-5.554V9.8h5.554V4.903Z"/><path fill="url(#w)" d="M27.775 4.903h-5.554V9.8h5.554V4.903Z"/><path fill="url(#x)" d="M33.333 4.903h-5.558V9.8h5.558V4.903Z"/><path fill="url(#y)" d="M27.775 9.801h-5.554V14.7h5.554V9.8Z"/><path fill="url(#z)" d="M22.22 9.801h-5.553V14.7h5.554V9.8Z"/><path fill="url(#A)" d="M27.775 14.7h-5.554v4.902h5.554V14.7Z"/><path fill="url(#B)" d="M27.775 19.602h-5.554v4.899h5.554v-4.899Z"/><path fill="url(#C)" d="M22.22 19.602h-5.553v4.899h5.554v-4.899Z"/><path fill="url(#D)" d="M22.22 14.7h-5.553v4.902h5.554V14.7Z"/><path fill="url(#E)" d="M16.667 14.7h-5.559v4.902h5.559V14.7Z"/><path fill="url(#F)" d="M16.667 19.602h-5.559v4.899h5.559v-4.899Z"/><path fill="url(#G)" d="M27.775 24.501h-5.554V29.4h5.554V24.5Z"/><path fill="url(#H)" d="M22.22 24.501h-5.553V29.4h5.554V24.5Z"/><path fill="url(#I)" d="M16.667 24.501h-5.559V29.4h5.559V24.5Z"/><path fill="url(#J)" d="M16.667 29.4h-5.559v4.902h5.559V29.4Z"/><path fill="url(#K)" d="M22.22 53.9h-5.553v4.9h5.554v-4.9Z"/><path fill="url(#L)" d="M27.775 49.002h-5.554v4.899h5.554v-4.899Z"/><path fill="url(#M)" d="M22.22 49.002h-5.553v4.899h5.554v-4.899Z"/><path fill="url(#N)" d="M16.667 49.002h-5.559v4.899h5.559v-4.899Z"/><path fill="url(#O)" d="M33.333 44.1h-5.558v4.902h5.558v-4.903Z"/><path fill="url(#P)" d="M33.333 49.002h-5.558v4.899h5.558v-4.899Z"/><path fill="url(#Q)" d="M38.888 53.9h-5.555v4.9h5.555v-4.9Z"/><path fill="url(#R)" d="M38.888 44.1h-5.555v4.902h5.555v-4.903Z"/><path fill="url(#S)" d="M38.888 49.002h-5.555v4.899h5.555v-4.899Z"/><path fill="url(#T)" d="M38.888 39.2h-5.555v4.9h5.555v-4.9Z"/><path fill="url(#U)" d="M38.888 34.302h-5.555v4.899h5.555v-4.899Z"/><path fill="url(#V)" d="M44.442 34.302h-5.554v4.899h5.554v-4.899Z"/><path fill="url(#W)" d="M50 49.002h-5.558v4.899H50v-4.899Z"/><path fill="url(#X)" d="M50 53.9h-5.558v4.9H50v-4.9Z"/><path fill="url(#Y)" d="M50 39.2h-5.558v4.9H50v-4.9Z"/><path fill="url(#Z)" d="M50 58.8h-5.558v4.902H50v-4.903Z"/><path fill="url(#aa)" d="M50 44.1h-5.558v4.902H50v-4.903Z"/><path fill="url(#ab)" d="M50 34.302h-5.558v4.899H50v-4.899Z"/><path fill="url(#ac)" d="M44.442 49.002h-5.554v4.899h5.554v-4.899Z"/><path fill="url(#ad)" d="M44.442 39.2h-5.554v4.9h5.554v-4.9Z"/><path fill="url(#ae)" d="M44.442 58.8h-5.554v4.902h5.554v-4.903Z"/><path fill="url(#af)" d="M44.442 44.1h-5.554v4.902h5.554v-4.903Z"/><path fill="url(#ag)" d="M44.442 53.9h-5.554v4.9h5.554v-4.9Z"/><path fill="url(#ah)" d="M72.22 34.302h-5.553v4.899h5.554v-4.899Z"/><path fill="url(#ai)" d="M72.22 39.2h-5.553v4.9h5.554v-4.9Z"/><path fill="url(#aj)" d="M61.108 58.8h-5.554v4.902h5.554v-4.903Z"/><path fill="url(#ak)" d="M66.667 39.2h-5.559v4.9h5.559v-4.9Z"/><path fill="url(#al)" d="M66.667 34.302h-5.559v4.899h5.559v-4.899Z"/><path fill="url(#am)" d="M55.554 58.8H50v4.902h5.554v-4.903Z"/><path fill="url(#an)" d="M61.108 44.1h-5.554v4.902h5.554v-4.903Z"/><path fill="url(#ao)" d="M61.108 39.2h-5.554v4.9h5.554v-4.9Z"/><path fill="url(#ap)" d="M55.554 49.002H50v4.899h5.554v-4.899Z"/><path fill="url(#aq)" d="M55.554 44.1H50v4.902h5.554v-4.903Z"/><path fill="url(#ar)" d="M55.554 53.9H50v4.9h5.554v-4.9Z"/><path fill="url(#as)" d="M88.888 49.002h-5.555v4.899h5.555v-4.899Z"/><path fill="url(#at)" d="M83.333 49.002h-5.558v4.899h5.558v-4.899Z"/><path fill="url(#au)" d="M88.888 53.9h-5.555v4.9h5.555v-4.9Z"/><path fill="url(#av)" d="M83.333 53.9h-5.558v4.9h5.558v-4.9Z"/><path fill="url(#aw)" d="M94.442 58.8h-5.554v4.902h5.554v-4.903Z"/><path fill="url(#ax)" d="M88.888 58.8h-5.555v4.902h5.555v-4.903Z"/><path fill="url(#ay)" d="M83.333 58.8h-5.558v4.902h5.558v-4.903Z"/><path fill="url(#az)" d="M77.775 58.8h-5.554v4.902h5.554v-4.903Z"/><path fill="url(#aA)" d="M83.333 83.3h-5.558V88.2h5.558V83.3Z"/><path fill="url(#aB)" d="M77.775 83.3h-5.554V88.2h5.554V83.3Z"/><path fill="url(#aC)" d="M88.888 78.402h-5.555V83.3h5.555v-4.898Z"/><path fill="url(#aD)" d="M83.333 78.402h-5.558V83.3h5.558v-4.898Z"/><path fill="url(#aE)" d="M77.775 78.402h-5.554V83.3h5.554v-4.898Z"/><path fill="url(#aF)" d="M94.442 73.499h-5.554v4.903h5.554v-4.903Z"/><path fill="url(#aG)" d="M88.888 73.499h-5.555v4.903h5.555v-4.903Z"/><path fill="url(#aH)" d="M83.333 73.499h-5.558v4.903h5.558v-4.903Z"/><path fill="url(#aI)" d="M77.775 73.499h-5.554v4.903h5.554v-4.903Z"/><path fill="url(#aJ)" d="M94.442 68.6h-5.554V73.5h5.554V68.6Z"/><path fill="url(#aK)" d="M88.888 68.6h-5.555V73.5h5.555V68.6Z"/><path fill="url(#aL)" d="M83.333 68.6h-5.558V73.5h5.558V68.6Z"/><path fill="url(#aM)" d="M72.22 68.6h-5.553V73.5h5.554V68.6Z"/><path fill="url(#aN)" d="M77.775 68.6h-5.554V73.5h5.554V68.6Z"/><path fill="url(#aO)" d="M94.442 63.702h-5.554V68.6h5.554v-4.898Z"/><path fill="url(#aP)" d="M88.888 63.702h-5.555V68.6h5.555v-4.898Z"/><path fill="url(#aQ)" d="M83.333 63.702h-5.558V68.6h5.558v-4.898Z"/><path fill="url(#aR)" d="M77.775 63.702h-5.554V68.6h5.554v-4.898Z"/><path fill="url(#aS)" d="M72.22 63.702h-5.553V68.6h5.554v-4.898Z"/><path fill="url(#aT)" d="M66.667 63.702h-5.559V68.6h5.559v-4.898Z"/><path fill="url(#aU)" d="M61.108 63.702h-5.554V68.6h5.554v-4.898Z"/><path fill="url(#aV)" d="M55.554 63.702H50V68.6h5.554v-4.898Z"/><path fill="url(#aW)" d="M50 63.702h-5.558V68.6H50v-4.898Z"/><path fill="url(#aX)" d="M50 68.6h-5.558V73.5H50V68.6Z"/><path fill="url(#aY)" d="M44.442 68.6h-5.554V73.5h5.554V68.6Z"/><path fill="url(#aZ)" d="M44.442 73.499h-5.554v4.903h5.554v-4.903Z"/><path fill="url(#ba)" d="M38.888 73.499h-5.555v4.903h5.555v-4.903Z"/><path fill="url(#bb)" d="M33.333 73.499h-5.558v4.903h5.558v-4.903Z"/><path fill="url(#bc)" d="M44.442 78.402h-5.554V83.3h5.554v-4.898Z"/><path fill="url(#bd)" d="M38.888 78.402h-5.555V83.3h5.555v-4.898Z"/><path fill="url(#be)" d="M50 83.3h-5.558V88.2H50V83.3Z"/><path fill="url(#bf)" d="M72.22 83.3h-5.553V88.2h5.554V83.3Z"/><path fill="url(#bg)" d="M66.667 83.3h-5.559V88.2h5.559V83.3Z"/><path fill="url(#bh)" d="M72.22 88.199h-5.553V93.1h5.554V88.2Z"/><path fill="url(#bi)" d="M66.667 88.199h-5.559V93.1h5.559V88.2Z"/><path fill="url(#bj)" d="M61.108 88.199h-5.554V93.1h5.554V88.2Z"/><path fill="url(#bk)" d="M55.554 88.199H50V93.1h5.554V88.2Z"/><path fill="url(#bl)" d="M50 88.199h-5.558V93.1H50V88.2Z"/><path fill="url(#bm)" d="M44.442 88.199h-5.554V93.1h5.554V88.2Z"/><path fill="url(#bn)" d="M44.442 83.3h-5.554V88.2h5.554V83.3Z"/><path fill="url(#bo)" d="M33.333 78.402h-5.558V83.3h5.558v-4.898Z"/><path fill="url(#bp)" d="M33.333 83.3h-5.558V88.2h5.558V83.3Z"/><path fill="url(#bq)" d="M38.888 83.3h-5.555V88.2h5.555V83.3Z"/><path fill="url(#br)" d="M22.22 73.499h-5.553v4.903h5.554v-4.903Z"/><path fill="url(#bs)" d="M27.775 73.499h-5.554v4.903h5.554v-4.903Z"/><path fill="url(#bt)" d="M22.22 68.6h-5.553V73.5h5.554V68.6Z"/><path fill="url(#bu)" d="M27.775 78.402h-5.554V83.3h5.554v-4.898Z"/><path fill="url(#bv)" d="M16.667 53.9h-5.559v4.9h5.559v-4.9Z"/><path fill="url(#bw)" d="M16.667 63.702h-5.559V68.6h5.559v-4.898Z"/><path fill="url(#bx)" d="M16.667 68.6h-5.559V73.5h5.559V68.6Z"/><path fill="url(#by)" d="M16.667 58.8h-5.559v4.902h5.559v-4.903Z"/><path fill="url(#bz)" d="M11.108 49.002H5.554v4.899h5.554v-4.899Z"/><path fill="url(#bA)" d="M11.108 44.1H5.554v4.902h5.554v-4.903Z"/><path fill="url(#bB)" d="M11.108 39.2H5.554v4.9h5.554v-4.9Z"/><path fill="url(#bC)" d="M11.108 34.302H5.554v4.899h5.554v-4.899Z"/><path fill="url(#bD)" d="M11.108 53.9H5.554v4.9h5.554v-4.9Z"/><path fill="#5869DD" d="M88.888 34.302h-5.555v4.899h5.555v-4.899Z"/><path fill="#000" d="M94.442 29.4h-5.554v4.902h5.554V29.4ZM77.775 39.2h-5.554v4.9h5.554v-4.9ZM83.333 44.1h-5.558v4.902h5.558v-4.903Z"/><path fill="#8F8E93" d="M50 24.501h-5.558V29.4H50V24.5Z"/><path fill="#8F8E93" d="M50 19.602h-5.558v4.899H50v-4.899ZM44.442 19.602h-5.554v4.899h5.554v-4.899ZM38.888 19.602h-5.555v4.899h5.555v-4.899Z"/><path fill="#8F8E93" d="M44.442 24.501h-5.554V29.4h5.554V24.5Z"/><path fill="#000" d="M27.775 34.302h-5.554v4.899h5.554v-4.899Z"/><path fill="#000" d="M27.775 39.2h-5.554v4.9h5.554v-4.9ZM22.22 39.2h-5.553v4.9h5.554v-4.9Z"/><path fill="#000" d="M22.22 34.302h-5.553v4.899h5.554v-4.899Z"/><path fill="#F1EFED" d="M61.108 78.402h-5.554V83.3h5.554v-4.898ZM66.667 73.499h-5.559v4.903h5.559v-4.903ZM61.108 73.499h-5.554v4.903h5.554v-4.903Z"/><path fill="#F1EFED" d="M55.554 78.402H50V83.3h5.554v-4.898ZM55.554 73.499H50v4.903h5.554v-4.903Z"/><path fill="#5869DD" d="M38.888 63.702h-5.555V68.6h5.555v-4.898ZM33.333 63.702h-5.558V68.6h5.558v-4.898ZM27.775 58.8h-5.554v4.902h5.554v-4.903ZM27.775 63.702h-5.554V68.6h5.554v-4.898ZM33.333 58.8h-5.558v4.902h5.558v-4.903Z"/><path fill="#000" d="M100 73.499h-5.558v4.903H100v-4.903Z"/><path fill="#000" d="M100 68.6h-5.558V73.5H100V68.6ZM100 63.702h-5.558V68.6H100v-4.898ZM100 58.8h-5.558v4.902H100v-4.903ZM100 24.501h-5.558V29.4H100V24.5Z"/><path fill="#000" d="M100 19.602h-5.558v4.899H100v-4.899ZM100 14.7h-5.558v4.902H100V14.7ZM100 9.801h-5.558V14.7H100V9.8ZM94.442 78.402h-5.554V83.3h5.554v-4.898ZM94.442 53.9h-5.554v4.9h5.554v-4.9Z"/><path fill="#000" d="M94.442 49.002h-5.554v4.899h5.554v-4.899Z"/><path fill="#F1EFED" d="M94.442 24.501h-5.554V29.4h5.554V24.5Z"/><path fill="#F1EFED" d="M94.442 19.602h-5.554v4.899h5.554v-4.899Z"/><path fill="#000" d="M88.888 83.3h-5.555V88.2h5.555V83.3ZM88.888 44.1h-5.555v4.902h5.555v-4.903ZM83.333 88.199h-5.558V93.1h5.558V88.2Z"/><path fill="#5869DD" d="M83.333 39.2h-5.558v4.9h5.558v-4.9Z"/><path fill="#000" d="M77.775 88.199h-5.554V93.1h5.554V88.2ZM77.775 53.9h-5.554v4.9h5.554v-4.9Z"/><path fill="#000" d="M77.775 49.002h-5.554v4.899h5.554v-4.899Z"/><path fill="#5869DD" d="M77.775 44.1h-5.554v4.902h5.554v-4.903Z"/><path fill="#000" d="M77.775 34.302h-5.554v4.899h5.554v-4.899ZM72.22 93.101h-5.553V98h5.554v-4.899ZM72.22 78.402h-5.553V83.3h5.554v-4.898ZM72.22 73.499h-5.553v4.903h5.554v-4.903ZM72.22 58.8h-5.553v4.902h5.554v-4.903Z"/><path fill="#5869DD" d="M72.22 49.002h-5.553v4.899h5.554v-4.899Z"/><path fill="#000" d="M72.22 44.1h-5.553v4.902h5.554v-4.903ZM72.22 29.4h-5.553v4.902h5.554V29.4ZM72.22 24.501h-5.553V29.4h5.554V24.5ZM66.667 93.101h-5.559V98h5.559v-4.899ZM66.667 78.402h-5.559V83.3h5.559v-4.898ZM66.667 68.6h-5.559V73.5h5.559V68.6ZM66.667 58.8h-5.559v4.902h5.559v-4.903Z"/><path fill="#5869DD" d="M66.667 53.9h-5.559v4.9h5.559v-4.9Z"/><path fill="#000" d="M66.667 44.1h-5.559v4.902h5.559v-4.903ZM66.667 19.602h-5.559v4.899h5.559v-4.899ZM66.667 14.7h-5.559v4.902h5.559V14.7ZM61.108 93.101h-5.554V98h5.554v-4.899ZM61.108 83.3h-5.554V88.2h5.554V83.3ZM61.108 68.6h-5.554V73.5h5.554V68.6ZM61.108 53.9h-5.554v4.9h5.554v-4.9Z"/><path fill="#000" d="M61.108 49.002h-5.554v4.899h5.554v-4.899ZM61.108 9.801h-5.554V14.7h5.554V9.8ZM55.554 93.101H50V98h5.554v-4.899ZM55.554 83.3H50V88.2h5.554V83.3ZM55.554 68.6H50V73.5h5.554V68.6ZM55.554 24.501H50V29.4h5.554V24.5Z"/><path fill="#000" d="M55.554 19.602H50v4.899h5.554v-4.899ZM55.554 4.903H50V9.8h5.554V4.903ZM50 93.101h-5.558V98H50v-4.899ZM50 78.402h-5.558V83.3H50v-4.898ZM50 73.499h-5.558v4.903H50v-4.903ZM50 29.4h-5.558v4.902H50V29.4ZM50 14.7h-5.558v4.902H50V14.7ZM50 0h-5.558v4.903H50V0ZM44.442 93.101h-5.554V98h5.554v-4.899ZM44.442 63.702h-5.554V68.6h5.554v-4.898ZM44.442 29.4h-5.554v4.902h5.554V29.4ZM44.442 14.7h-5.554v4.902h5.554V14.7ZM44.442 0h-5.554v4.903h5.554V0ZM38.888 88.199h-5.555V93.1h5.555V88.2ZM38.888 68.6h-5.555V73.5h5.555V68.6ZM38.888 58.8h-5.555v4.902h5.555v-4.903ZM38.888 24.501h-5.555V29.4h5.555V24.5ZM38.888 14.7h-5.555v4.902h5.555V14.7ZM38.888 0h-5.555v4.903h5.555V0ZM33.333 88.199h-5.558V93.1h5.558V88.2ZM33.333 68.6h-5.558V73.5h5.558V68.6ZM33.333 53.9h-5.558v4.9h5.558v-4.9ZM33.333 39.2h-5.558v4.9h5.558v-4.9Z"/><path fill="#000" d="M33.333 34.302h-5.558v4.899h5.558v-4.899ZM33.333 19.602h-5.558v4.899h5.558v-4.899ZM33.333 14.7h-5.558v4.902h5.558V14.7ZM33.333 0h-5.558v4.903h5.558V0ZM27.775 93.101h-5.554V98h5.554v-4.899ZM27.775 88.199h-5.554V93.1h5.554V88.2Z"/><path fill="#000" d="M27.775 83.3h-5.554V88.2h5.554V83.3ZM27.775 68.6h-5.554V73.5h5.554V68.6ZM27.775 53.9h-5.554v4.9h5.554v-4.9ZM27.775 44.1h-5.554v4.902h5.554v-4.903ZM27.775 29.4h-5.554v4.902h5.554V29.4ZM27.775 0h-5.554v4.903h5.554V0ZM22.22 93.101h-5.553V98h5.554v-4.899ZM22.22 78.402h-5.553V83.3h5.554v-4.898ZM22.22 63.702h-5.553V68.6h5.554v-4.898ZM22.22 58.8h-5.553v4.902h5.554v-4.903ZM22.22 44.1h-5.553v4.902h5.554v-4.903ZM22.22 29.4h-5.553v4.902h5.554V29.4ZM22.22 4.903h-5.553V9.8h5.554V4.903ZM16.667 73.499h-5.559v4.903h5.559v-4.903Z"/><path fill="#000" d="M16.667 44.1h-5.559v4.902h5.559v-4.903Z"/><path fill="#000" d="M16.667 39.2h-5.559v4.9h5.559v-4.9Z"/><path fill="#000" d="M16.667 34.302h-5.559v4.899h5.559v-4.899ZM16.667 9.801h-5.559V14.7h5.559V9.8ZM11.108 68.6H5.554V73.5h5.554V68.6ZM11.108 63.702H5.554V68.6h5.554v-4.898ZM11.108 58.8H5.554v4.902h5.554v-4.903ZM11.108 29.4H5.554v4.902h5.554V29.4ZM11.108 24.501H5.554V29.4h5.554V24.5Z"/><path fill="#000" d="M11.108 19.602H5.554v4.899h5.554v-4.899ZM11.108 14.7H5.554v4.902h5.554V14.7ZM5.554 53.9H0v4.9h5.554v-4.9Z"/><path fill="#000" d="M5.554 49.002H0v4.899h5.554v-4.899ZM5.554 44.1H0v4.902h5.554v-4.903Z"/><path fill="#000" d="M5.554 39.2H0v4.9h5.554v-4.9Z"/><path fill="#000" d="M5.554 34.302H0v4.899h5.554v-4.899Z"/><defs><linearGradient id="a" x1="0" x2="100" y1="49" y2="49" gradientUnits="userSpaceOnUse"><stop stop-color="#D6FFBB"/><stop offset="1" stop-color="#5869DD"/></linearGradient><linearGradient id="b" x1="0" x2="100" y1="49" y2="49" gradientUnits="userSpaceOnUse"><stop stop-color="#D6FFBB"/><stop offset="1" stop-color="#5869DD"/></linearGradient><linearGradient id="c" x1="0" x2="100" y1="49" y2="49" gradientUnits="userSpaceOnUse"><stop stop-color="#D6FFBB"/><stop offset="1" stop-color="#5869DD"/></linearGradient><linearGradient id="d" x1="0" x2="100" y1="49" y2="49" gradientUnits="userSpaceOnUse"><stop stop-color="#D6FFBB"/><stop offset="1" stop-color="#5869DD"/></linearGradient><linearGradient id="e" x1="0" x2="100" y1="49" y2="49" gradientUnits="userSpaceOnUse"><stop stop-color="#D6FFBB"/><stop offset="1" stop-color="#5869DD"/></linearGradient><linearGradient id="f" x1="0" x2="100" y1="49" y2="49" gradientUnits="userSpaceOnUse"><stop stop-color="#D6FFBB"/><stop offset="1" stop-color="#5869DD"/></linearGradient><linearGradient id="g" x1="0" x2="100" y1="49" y2="49" gradientUnits="userSpaceOnUse"><stop stop-color="#D6FFBB"/><stop offset="1" stop-color="#5869DD"/></linearGradient><linearGradient id="h" x1="0" x2="100" y1="49" y2="49" gradientUnits="userSpaceOnUse"><stop stop-color="#D6FFBB"/><stop offset="1" stop-color="#5869DD"/></linearGradient><linearGradient id="i" x1="0" x2="100" y1="49" y2="49" gradientUnits="userSpaceOnUse"><stop stop-color="#D6FFBB"/><stop offset="1" stop-color="#5869DD"/></linearGradient><linearGradient id="j" x1="0" x2="100" y1="49" y2="49" gradientUnits="userSpaceOnUse"><stop stop-color="#D6FFBB"/><stop offset="1" stop-color="#5869DD"/></linearGradient><linearGradient id="k" x1="0" x2="100" y1="49" y2="49" gradientUnits="userSpaceOnUse"><stop stop-color="#D6FFBB"/><stop offset="1" stop-color="#5869DD"/></linearGradient><linearGradient id="l" x1="0" x2="100" y1="49" y2="49" gradientUnits="userSpaceOnUse"><stop stop-color="#D6FFBB"/><stop offset="1" stop-color="#5869DD"/></linearGradient><linearGradient id="m" x1="0" x2="100" y1="49" y2="49" gradientUnits="userSpaceOnUse"><stop stop-color="#D6FFBB"/><stop offset="1" stop-color="#5869DD"/></linearGradient><linearGradient id="n" x1="0" x2="100" y1="49" y2="49" gradientUnits="userSpaceOnUse"><stop stop-color="#D6FFBB"/><stop offset="1" stop-color="#5869DD"/></linearGradient><linearGradient id="o" x1="0" x2="100" y1="49" y2="49" gradientUnits="userSpaceOnUse"><stop stop-color="#D6FFBB"/><stop offset="1" stop-color="#5869DD"/></linearGradient><linearGradient id="p" x1="0" x2="100" y1="49" y2="49" gradientUnits="userSpaceOnUse"><stop stop-color="#D6FFBB"/><stop offset="1" stop-color="#5869DD"/></linearGradient><linearGradient id="q" x1="0" x2="100" y1="49" y2="49" gradientUnits="userSpaceOnUse"><stop stop-color="#D6FFBB"/><stop offset="1" stop-color="#5869DD"/></linearGradient><linearGradient id="r" x1="0" x2="100" y1="49" y2="49" gradientUnits="userSpaceOnUse"><stop stop-color="#D6FFBB"/><stop offset="1" stop-color="#5869DD"/></linearGradient><linearGradient id="s" x1="0" x2="100" y1="49" y2="49" gradientUnits="userSpaceOnUse"><stop stop-color="#D6FFBB"/><stop offset="1" stop-color="#5869DD"/></linearGradient><linearGradient id="t" x1="0" x2="100" y1="49" y2="49" gradientUnits="userSpaceOnUse"><stop stop-color="#D6FFBB"/><stop offset="1" stop-color="#5869DD"/></linearGradient><linearGradient id="u" x1="0" x2="100" y1="49" y2="49" gradientUnits="userSpaceOnUse"><stop stop-color="#D6FFBB"/><stop offset="1" stop-color="#5869DD"/></linearGradient><linearGradient id="v" x1="0" x2="100" y1="49" y2="49" gradientUnits="userSpaceOnUse"><stop stop-color="#D6FFBB"/><stop offset="1" stop-color="#5869DD"/></linearGradient><linearGradient id="w" x1="0" x2="100" y1="49" y2="49" gradientUnits="userSpaceOnUse"><stop stop-color="#D6FFBB"/><stop offset="1" stop-color="#5869DD"/></linearGradient><linearGradient id="x" x1="0" x2="100" y1="49" y2="49" gradientUnits="userSpaceOnUse"><stop stop-color="#D6FFBB"/><stop offset="1" stop-color="#5869DD"/></linearGradient><linearGradient id="y" x1="0" x2="100" y1="49" y2="49" gradientUnits="userSpaceOnUse"><stop stop-color="#D6FFBB"/><stop offset="1" stop-color="#5869DD"/></linearGradient><linearGradient id="z" x1="0" x2="100" y1="49" y2="49" gradientUnits="userSpaceOnUse"><stop stop-color="#D6FFBB"/><stop offset="1" stop-color="#5869DD"/></linearGradient><linearGradient id="A" x1="0" x2="100" y1="49" y2="49" gradientUnits="userSpaceOnUse"><stop stop-color="#D6FFBB"/><stop offset="1" stop-color="#5869DD"/></linearGradient><linearGradient id="B" x1="0" x2="100" y1="49" y2="49" gradientUnits="userSpaceOnUse"><stop stop-color="#D6FFBB"/><stop offset="1" stop-color="#5869DD"/></linearGradient><linearGradient id="C" x1="0" x2="100" y1="49" y2="49" gradientUnits="userSpaceOnUse"><stop stop-color="#D6FFBB"/><stop offset="1" stop-color="#5869DD"/></linearGradient><linearGradient id="D" x1="0" x2="100" y1="49" y2="49" gradientUnits="userSpaceOnUse"><stop stop-color="#D6FFBB"/><stop offset="1" stop-color="#5869DD"/></linearGradient><linearGradient id="E" x1="0" x2="100" y1="49" y2="49" gradientUnits="userSpaceOnUse"><stop stop-color="#D6FFBB"/><stop offset="1" stop-color="#5869DD"/></linearGradient><linearGradient id="F" x1="0" x2="100" y1="49" y2="49" gradientUnits="userSpaceOnUse"><stop stop-color="#D6FFBB"/><stop offset="1" stop-color="#5869DD"/></linearGradient><linearGradient id="G" x1="0" x2="100" y1="49" y2="49" gradientUnits="userSpaceOnUse"><stop stop-color="#D6FFBB"/><stop offset="1" stop-color="#5869DD"/></linearGradient><linearGradient id="H" x1="0" x2="100" y1="49" y2="49" gradientUnits="userSpaceOnUse"><stop stop-color="#D6FFBB"/><stop offset="1" stop-color="#5869DD"/></linearGradient><linearGradient id="I" x1="0" x2="100" y1="49" y2="49" gradientUnits="userSpaceOnUse"><stop stop-color="#D6FFBB"/><stop offset="1" stop-color="#5869DD"/></linearGradient><linearGradient id="J" x1="0" x2="100" y1="49" y2="49" gradientUnits="userSpaceOnUse"><stop stop-color="#D6FFBB"/><stop offset="1" stop-color="#5869DD"/></linearGradient><linearGradient id="K" x1="0" x2="100" y1="49" y2="49" gradientUnits="userSpaceOnUse"><stop stop-color="#D6FFBB"/><stop offset="1" stop-color="#5869DD"/></linearGradient><linearGradient id="L" x1="0" x2="100" y1="49" y2="49" gradientUnits="userSpaceOnUse"><stop stop-color="#D6FFBB"/><stop offset="1" stop-color="#5869DD"/></linearGradient><linearGradient id="M" x1="0" x2="100" y1="49" y2="49" gradientUnits="userSpaceOnUse"><stop stop-color="#D6FFBB"/><stop offset="1" stop-color="#5869DD"/></linearGradient><linearGradient id="N" x1="0" x2="100" y1="49" y2="49" gradientUnits="userSpaceOnUse"><stop stop-color="#D6FFBB"/><stop offset="1" stop-color="#5869DD"/></linearGradient><linearGradient id="O" x1="0" x2="100" y1="49" y2="49" gradientUnits="userSpaceOnUse"><stop stop-color="#D6FFBB"/><stop offset="1" stop-color="#5869DD"/></linearGradient><linearGradient id="P" x1="0" x2="100" y1="49" y2="49" gradientUnits="userSpaceOnUse"><stop stop-color="#D6FFBB"/><stop offset="1" stop-color="#5869DD"/></linearGradient><linearGradient id="Q" x1="0" x2="100" y1="49" y2="49" gradientUnits="userSpaceOnUse"><stop stop-color="#D6FFBB"/><stop offset="1" stop-color="#5869DD"/></linearGradient><linearGradient id="R" x1="0" x2="100" y1="49" y2="49" gradientUnits="userSpaceOnUse"><stop stop-color="#D6FFBB"/><stop offset="1" stop-color="#5869DD"/></linearGradient><linearGradient id="S" x1="0" x2="100" y1="49" y2="49" gradientUnits="userSpaceOnUse"><stop stop-color="#D6FFBB"/><stop offset="1" stop-color="#5869DD"/></linearGradient><linearGradient id="T" x1="0" x2="100" y1="49" y2="49" gradientUnits="userSpaceOnUse"><stop stop-color="#D6FFBB"/><stop offset="1" stop-color="#5869DD"/></linearGradient><linearGradient id="U" x1="0" x2="100" y1="49" y2="49" gradientUnits="userSpaceOnUse"><stop stop-color="#D6FFBB"/><stop offset="1" stop-color="#5869DD"/></linearGradient><linearGradient id="V" x1="0" x2="100" y1="49" y2="49" gradientUnits="userSpaceOnUse"><stop stop-color="#D6FFBB"/><stop offset="1" stop-color="#5869DD"/></linearGradient><linearGradient id="W" x1="0" x2="100" y1="49" y2="49" gradientUnits="userSpaceOnUse"><stop stop-color="#D6FFBB"/><stop offset="1" stop-color="#5869DD"/></linearGradient><linearGradient id="X" x1="0" x2="100" y1="49" y2="49" gradientUnits="userSpaceOnUse"><stop stop-color="#D6FFBB"/><stop offset="1" stop-color="#5869DD"/></linearGradient><linearGradient id="Y" x1="0" x2="100" y1="49" y2="49" gradientUnits="userSpaceOnUse"><stop stop-color="#D6FFBB"/><stop offset="1" stop-color="#5869DD"/></linearGradient><linearGradient id="Z" x1="0" x2="100" y1="49" y2="49" gradientUnits="userSpaceOnUse"><stop stop-color="#D6FFBB"/><stop offset="1" stop-color="#5869DD"/></linearGradient><linearGradient id="aa" x1="0" x2="100" y1="49" y2="49" gradientUnits="userSpaceOnUse"><stop stop-color="#D6FFBB"/><stop offset="1" stop-color="#5869DD"/></linearGradient><linearGradient id="ab" x1="0" x2="100" y1="49" y2="49" gradientUnits="userSpaceOnUse"><stop stop-color="#D6FFBB"/><stop offset="1" stop-color="#5869DD"/></linearGradient><linearGradient id="ac" x1="0" x2="100" y1="49" y2="49" gradientUnits="userSpaceOnUse"><stop stop-color="#D6FFBB"/><stop offset="1" stop-color="#5869DD"/></linearGradient><linearGradient id="ad" x1="0" x2="100" y1="49" y2="49" gradientUnits="userSpaceOnUse"><stop stop-color="#D6FFBB"/><stop offset="1" stop-color="#5869DD"/></linearGradient><linearGradient id="ae" x1="0" x2="100" y1="49" y2="49" gradientUnits="userSpaceOnUse"><stop stop-color="#D6FFBB"/><stop offset="1" stop-color="#5869DD"/></linearGradient><linearGradient id="af" x1="0" x2="100" y1="49" y2="49" gradientUnits="userSpaceOnUse"><stop stop-color="#D6FFBB"/><stop offset="1" stop-color="#5869DD"/></linearGradient><linearGradient id="ag" x1="0" x2="100" y1="49" y2="49" gradientUnits="userSpaceOnUse"><stop stop-color="#D6FFBB"/><stop offset="1" stop-color="#5869DD"/></linearGradient><linearGradient id="ah" x1="0" x2="100" y1="49" y2="49" gradientUnits="userSpaceOnUse"><stop stop-color="#D6FFBB"/><stop offset="1" stop-color="#5869DD"/></linearGradient><linearGradient id="ai" x1="0" x2="100" y1="49" y2="49" gradientUnits="userSpaceOnUse"><stop stop-color="#D6FFBB"/><stop offset="1" stop-color="#5869DD"/></linearGradient><linearGradient id="aj" x1="0" x2="100" y1="49" y2="49" gradientUnits="userSpaceOnUse"><stop stop-color="#D6FFBB"/><stop offset="1" stop-color="#5869DD"/></linearGradient><linearGradient id="ak" x1="0" x2="100" y1="49" y2="49" gradientUnits="userSpaceOnUse"><stop stop-color="#D6FFBB"/><stop offset="1" stop-color="#5869DD"/></linearGradient><linearGradient id="al" x1="0" x2="100" y1="49" y2="49" gradientUnits="userSpaceOnUse"><stop stop-color="#D6FFBB"/><stop offset="1" stop-color="#5869DD"/></linearGradient><linearGradient id="am" x1="0" x2="100" y1="49" y2="49" gradientUnits="userSpaceOnUse"><stop stop-color="#D6FFBB"/><stop offset="1" stop-color="#5869DD"/></linearGradient><linearGradient id="an" x1="0" x2="100" y1="49" y2="49" gradientUnits="userSpaceOnUse"><stop stop-color="#D6FFBB"/><stop offset="1" stop-color="#5869DD"/></linearGradient><linearGradient id="ao" x1="0" x2="100" y1="49" y2="49" gradientUnits="userSpaceOnUse"><stop stop-color="#D6FFBB"/><stop offset="1" stop-color="#5869DD"/></linearGradient><linearGradient id="ap" x1="0" x2="100" y1="49" y2="49" gradientUnits="userSpaceOnUse"><stop stop-color="#D6FFBB"/><stop offset="1" stop-color="#5869DD"/></linearGradient><linearGradient id="aq" x1="0" x2="100" y1="49" y2="49" gradientUnits="userSpaceOnUse"><stop stop-color="#D6FFBB"/><stop offset="1" stop-color="#5869DD"/></linearGradient><linearGradient id="ar" x1="0" x2="100" y1="49" y2="49" gradientUnits="userSpaceOnUse"><stop stop-color="#D6FFBB"/><stop offset="1" stop-color="#5869DD"/></linearGradient><linearGradient id="as" x1="0" x2="100" y1="49" y2="49" gradientUnits="userSpaceOnUse"><stop stop-color="#D6FFBB"/><stop offset="1" stop-color="#5869DD"/></linearGradient><linearGradient id="at" x1="0" x2="100" y1="49" y2="49" gradientUnits="userSpaceOnUse"><stop stop-color="#D6FFBB"/><stop offset="1" stop-color="#5869DD"/></linearGradient><linearGradient id="au" x1="0" x2="100" y1="49" y2="49" gradientUnits="userSpaceOnUse"><stop stop-color="#D6FFBB"/><stop offset="1" stop-color="#5869DD"/></linearGradient><linearGradient id="av" x1="0" x2="100" y1="49" y2="49" gradientUnits="userSpaceOnUse"><stop stop-color="#D6FFBB"/><stop offset="1" stop-color="#5869DD"/></linearGradient><linearGradient id="aw" x1="0" x2="100" y1="49" y2="49" gradientUnits="userSpaceOnUse"><stop stop-color="#D6FFBB"/><stop offset="1" stop-color="#5869DD"/></linearGradient><linearGradient id="ax" x1="0" x2="100" y1="49" y2="49" gradientUnits="userSpaceOnUse"><stop stop-color="#D6FFBB"/><stop offset="1" stop-color="#5869DD"/></linearGradient><linearGradient id="ay" x1="0" x2="100" y1="49" y2="49" gradientUnits="userSpaceOnUse"><stop stop-color="#D6FFBB"/><stop offset="1" stop-color="#5869DD"/></linearGradient><linearGradient id="az" x1="0" x2="100" y1="49" y2="49" gradientUnits="userSpaceOnUse"><stop stop-color="#D6FFBB"/><stop offset="1" stop-color="#5869DD"/></linearGradient><linearGradient id="aA" x1="0" x2="100" y1="49" y2="49" gradientUnits="userSpaceOnUse"><stop stop-color="#D6FFBB"/><stop offset="1" stop-color="#5869DD"/></linearGradient><linearGradient id="aB" x1="0" x2="100" y1="49" y2="49" gradientUnits="userSpaceOnUse"><stop stop-color="#D6FFBB"/><stop offset="1" stop-color="#5869DD"/></linearGradient><linearGradient id="aC" x1="0" x2="100" y1="49" y2="49" gradientUnits="userSpaceOnUse"><stop stop-color="#D6FFBB"/><stop offset="1" stop-color="#5869DD"/></linearGradient><linearGradient id="aD" x1="0" x2="100" y1="49" y2="49" gradientUnits="userSpaceOnUse"><stop stop-color="#D6FFBB"/><stop offset="1" stop-color="#5869DD"/></linearGradient><linearGradient id="aE" x1="0" x2="100" y1="49" y2="49" gradientUnits="userSpaceOnUse"><stop stop-color="#D6FFBB"/><stop offset="1" stop-color="#5869DD"/></linearGradient><linearGradient id="aF" x1="0" x2="100" y1="49" y2="49" gradientUnits="userSpaceOnUse"><stop stop-color="#D6FFBB"/><stop offset="1" stop-color="#5869DD"/></linearGradient><linearGradient id="aG" x1="0" x2="100" y1="49" y2="49" gradientUnits="userSpaceOnUse"><stop stop-color="#D6FFBB"/><stop offset="1" stop-color="#5869DD"/></linearGradient><linearGradient id="aH" x1="0" x2="100" y1="49" y2="49" gradientUnits="userSpaceOnUse"><stop stop-color="#D6FFBB"/><stop offset="1" stop-color="#5869DD"/></linearGradient><linearGradient id="aI" x1="0" x2="100" y1="49" y2="49" gradientUnits="userSpaceOnUse"><stop stop-color="#D6FFBB"/><stop offset="1" stop-color="#5869DD"/></linearGradient><linearGradient id="aJ" x1="0" x2="100" y1="49" y2="49" gradientUnits="userSpaceOnUse"><stop stop-color="#D6FFBB"/><stop offset="1" stop-color="#5869DD"/></linearGradient><linearGradient id="aK" x1="0" x2="100" y1="49" y2="49" gradientUnits="userSpaceOnUse"><stop stop-color="#D6FFBB"/><stop offset="1" stop-color="#5869DD"/></linearGradient><linearGradient id="aL" x1="0" x2="100" y1="49" y2="49" gradientUnits="userSpaceOnUse"><stop stop-color="#D6FFBB"/><stop offset="1" stop-color="#5869DD"/></linearGradient><linearGradient id="aM" x1="0" x2="100" y1="49" y2="49" gradientUnits="userSpaceOnUse"><stop stop-color="#D6FFBB"/><stop offset="1" stop-color="#5869DD"/></linearGradient><linearGradient id="aN" x1="0" x2="100" y1="49" y2="49" gradientUnits="userSpaceOnUse"><stop stop-color="#D6FFBB"/><stop offset="1" stop-color="#5869DD"/></linearGradient><linearGradient id="aO" x1="0" x2="100" y1="49" y2="49" gradientUnits="userSpaceOnUse"><stop stop-color="#D6FFBB"/><stop offset="1" stop-color="#5869DD"/></linearGradient><linearGradient id="aP" x1="0" x2="100" y1="49" y2="49" gradientUnits="userSpaceOnUse"><stop stop-color="#D6FFBB"/><stop offset="1" stop-color="#5869DD"/></linearGradient><linearGradient id="aQ" x1="0" x2="100" y1="49" y2="49" gradientUnits="userSpaceOnUse"><stop stop-color="#D6FFBB"/><stop offset="1" stop-color="#5869DD"/></linearGradient><linearGradient id="aR" x1="0" x2="100" y1="49" y2="49" gradientUnits="userSpaceOnUse"><stop stop-color="#D6FFBB"/><stop offset="1" stop-color="#5869DD"/></linearGradient><linearGradient id="aS" x1="0" x2="100" y1="49" y2="49" gradientUnits="userSpaceOnUse"><stop stop-color="#D6FFBB"/><stop offset="1" stop-color="#5869DD"/></linearGradient><linearGradient id="aT" x1="0" x2="100" y1="49" y2="49" gradientUnits="userSpaceOnUse"><stop stop-color="#D6FFBB"/><stop offset="1" stop-color="#5869DD"/></linearGradient><linearGradient id="aU" x1="0" x2="100" y1="49" y2="49" gradientUnits="userSpaceOnUse"><stop stop-color="#D6FFBB"/><stop offset="1" stop-color="#5869DD"/></linearGradient><linearGradient id="aV" x1="0" x2="100" y1="49" y2="49" gradientUnits="userSpaceOnUse"><stop stop-color="#D6FFBB"/><stop offset="1" stop-color="#5869DD"/></linearGradient><linearGradient id="aW" x1="0" x2="100" y1="49" y2="49" gradientUnits="userSpaceOnUse"><stop stop-color="#D6FFBB"/><stop offset="1" stop-color="#5869DD"/></linearGradient><linearGradient id="aX" x1="0" x2="100" y1="49" y2="49" gradientUnits="userSpaceOnUse"><stop stop-color="#D6FFBB"/><stop offset="1" stop-color="#5869DD"/></linearGradient><linearGradient id="aY" x1="0" x2="100" y1="49" y2="49" gradientUnits="userSpaceOnUse"><stop stop-color="#D6FFBB"/><stop offset="1" stop-color="#5869DD"/></linearGradient><linearGradient id="aZ" x1="0" x2="100" y1="49" y2="49" gradientUnits="userSpaceOnUse"><stop stop-color="#D6FFBB"/><stop offset="1" stop-color="#5869DD"/></linearGradient><linearGradient id="ba" x1="0" x2="100" y1="49" y2="49" gradientUnits="userSpaceOnUse"><stop stop-color="#D6FFBB"/><stop offset="1" stop-color="#5869DD"/></linearGradient><linearGradient id="bb" x1="0" x2="100" y1="49" y2="49" gradientUnits="userSpaceOnUse"><stop stop-color="#D6FFBB"/><stop offset="1" stop-color="#5869DD"/></linearGradient><linearGradient id="bc" x1="0" x2="100" y1="49" y2="49" gradientUnits="userSpaceOnUse"><stop stop-color="#D6FFBB"/><stop offset="1" stop-color="#5869DD"/></linearGradient><linearGradient id="bd" x1="0" x2="100" y1="49" y2="49" gradientUnits="userSpaceOnUse"><stop stop-color="#D6FFBB"/><stop offset="1" stop-color="#5869DD"/></linearGradient><linearGradient id="be" x1="0" x2="100" y1="49" y2="49" gradientUnits="userSpaceOnUse"><stop stop-color="#D6FFBB"/><stop offset="1" stop-color="#5869DD"/></linearGradient><linearGradient id="bf" x1="0" x2="100" y1="49" y2="49" gradientUnits="userSpaceOnUse"><stop stop-color="#D6FFBB"/><stop offset="1" stop-color="#5869DD"/></linearGradient><linearGradient id="bg" x1="0" x2="100" y1="49" y2="49" gradientUnits="userSpaceOnUse"><stop stop-color="#D6FFBB"/><stop offset="1" stop-color="#5869DD"/></linearGradient><linearGradient id="bh" x1="0" x2="100" y1="49" y2="49" gradientUnits="userSpaceOnUse"><stop stop-color="#D6FFBB"/><stop offset="1" stop-color="#5869DD"/></linearGradient><linearGradient id="bi" x1="0" x2="100" y1="49" y2="49" gradientUnits="userSpaceOnUse"><stop stop-color="#D6FFBB"/><stop offset="1" stop-color="#5869DD"/></linearGradient><linearGradient id="bj" x1="0" x2="100" y1="49" y2="49" gradientUnits="userSpaceOnUse"><stop stop-color="#D6FFBB"/><stop offset="1" stop-color="#5869DD"/></linearGradient><linearGradient id="bk" x1="0" x2="100" y1="49" y2="49" gradientUnits="userSpaceOnUse"><stop stop-color="#D6FFBB"/><stop offset="1" stop-color="#5869DD"/></linearGradient><linearGradient id="bl" x1="0" x2="100" y1="49" y2="49" gradientUnits="userSpaceOnUse"><stop stop-color="#D6FFBB"/><stop offset="1" stop-color="#5869DD"/></linearGradient><linearGradient id="bm" x1="0" x2="100" y1="49" y2="49" gradientUnits="userSpaceOnUse"><stop stop-color="#D6FFBB"/><stop offset="1" stop-color="#5869DD"/></linearGradient><linearGradient id="bn" x1="0" x2="100" y1="49" y2="49" gradientUnits="userSpaceOnUse"><stop stop-color="#D6FFBB"/><stop offset="1" stop-color="#5869DD"/></linearGradient><linearGradient id="bo" x1="0" x2="100" y1="49" y2="49" gradientUnits="userSpaceOnUse"><stop stop-color="#D6FFBB"/><stop offset="1" stop-color="#5869DD"/></linearGradient><linearGradient id="bp" x1="0" x2="100" y1="49" y2="49" gradientUnits="userSpaceOnUse"><stop stop-color="#D6FFBB"/><stop offset="1" stop-color="#5869DD"/></linearGradient><linearGradient id="bq" x1="0" x2="100" y1="49" y2="49" gradientUnits="userSpaceOnUse"><stop stop-color="#D6FFBB"/><stop offset="1" stop-color="#5869DD"/></linearGradient><linearGradient id="br" x1="0" x2="100" y1="49" y2="49" gradientUnits="userSpaceOnUse"><stop stop-color="#D6FFBB"/><stop offset="1" stop-color="#5869DD"/></linearGradient><linearGradient id="bs" x1="0" x2="100" y1="49" y2="49" gradientUnits="userSpaceOnUse"><stop stop-color="#D6FFBB"/><stop offset="1" stop-color="#5869DD"/></linearGradient><linearGradient id="bt" x1="0" x2="100" y1="49" y2="49" gradientUnits="userSpaceOnUse"><stop stop-color="#D6FFBB"/><stop offset="1" stop-color="#5869DD"/></linearGradient><linearGradient id="bu" x1="0" x2="100" y1="49" y2="49" gradientUnits="userSpaceOnUse"><stop stop-color="#D6FFBB"/><stop offset="1" stop-color="#5869DD"/></linearGradient><linearGradient id="bv" x1="0" x2="100" y1="49" y2="49" gradientUnits="userSpaceOnUse"><stop stop-color="#D6FFBB"/><stop offset="1" stop-color="#5869DD"/></linearGradient><linearGradient id="bw" x1="0" x2="100" y1="49" y2="49" gradientUnits="userSpaceOnUse"><stop stop-color="#D6FFBB"/><stop offset="1" stop-color="#5869DD"/></linearGradient><linearGradient id="bx" x1="0" x2="100" y1="49" y2="49" gradientUnits="userSpaceOnUse"><stop stop-color="#D6FFBB"/><stop offset="1" stop-color="#5869DD"/></linearGradient><linearGradient id="by" x1="0" x2="100" y1="49" y2="49" gradientUnits="userSpaceOnUse"><stop stop-color="#D6FFBB"/><stop offset="1" stop-color="#5869DD"/></linearGradient><linearGradient id="bz" x1="0" x2="100" y1="49" y2="49" gradientUnits="userSpaceOnUse"><stop stop-color="#D6FFBB"/><stop offset="1" stop-color="#5869DD"/></linearGradient><linearGradient id="bA" x1="0" x2="100" y1="49" y2="49" gradientUnits="userSpaceOnUse"><stop stop-color="#D6FFBB"/><stop offset="1" stop-color="#5869DD"/></linearGradient><linearGradient id="bB" x1="0" x2="100" y1="49" y2="49" gradientUnits="userSpaceOnUse"><stop stop-color="#D6FFBB"/><stop offset="1" stop-color="#5869DD"/></linearGradient><linearGradient id="bC" x1="0" x2="100" y1="49" y2="49" gradientUnits="userSpaceOnUse"><stop stop-color="#D6FFBB"/><stop offset="1" stop-color="#5869DD"/></linearGradient><linearGradient id="bD" x1="0" x2="100" y1="49" y2="49" gradientUnits="userSpaceOnUse"><stop stop-color="#D6FFBB"/><stop offset="1" stop-color="#5869DD"/></linearGradient></defs></svg>
