<svg xmlns="http://www.w3.org/2000/svg" width="512" height="388" fill="none" viewBox="0 0 512 388"><path fill="#000" d="m436.158 148.834-2.933 14.708a.083.083 0 0 1-.046.036.076.076 0 0 1-.059-.006.06.06 0 0 1-.027-.02.087.087 0 0 1-.016-.03.074.074 0 0 1-.002-.033.076.076 0 0 1 .011-.032l3.072-14.623ZM430.318 178.263l-3.219 14.655a.26.26 0 0 1-.311.199.266.266 0 0 1-.165-.114.264.264 0 0 1-.035-.197l3.407-14.616a.175.175 0 0 1 .073-.108.174.174 0 0 1 .189.003.147.147 0 0 1 .046.047.163.163 0 0 1 .024.128l-.009.003ZM423.347 207.456l-4.497 14.339a.43.43 0 0 1-.543.282.434.434 0 0 1-.282-.543l4.648-14.247a.335.335 0 0 1 .066-.118.333.333 0 0 1 .37-.102c.08.026.148.079.191.151a.343.343 0 0 1 .047.238ZM413.364 235.774a122.864 122.864 0 0 1-6.943 13.37.565.565 0 0 1-.758.22.56.56 0 0 1-.22-.758 125.166 125.166 0 0 0 6.961-13.2.531.531 0 0 1 .284-.269.51.51 0 0 1 .391.011.523.523 0 0 1 .285.626ZM397.53 261.362a56.007 56.007 0 0 1-11.351 9.942.659.659 0 0 1-.732-.008.664.664 0 0 1-.269-.681.66.66 0 0 1 .285-.415 54.49 54.49 0 0 0 11.137-9.641.613.613 0 0 1 .766.025.612.612 0 0 1 .137.755l.027.023ZM372.203 277.291c-2.48.568-5.003.923-7.543 1.061a47.877 47.877 0 0 1-7.62-.176.738.738 0 0 1-.663-.542.75.75 0 0 1-.019-.302.763.763 0 0 1 .844-.682c2.441.265 4.899.339 7.352.223a42.905 42.905 0 0 0 7.305-.982.698.698 0 0 1 .731.275c.053.076.09.161.109.252a.696.696 0 0 1-.067.539.701.701 0 0 1-.182.209.695.695 0 0 1-.247.125ZM343.307 271.598a39.43 39.43 0 0 1-8.379-12.71.849.849 0 0 1 .138-.968.845.845 0 0 1 .285-.196.85.85 0 0 1 1.116.437 38.179 38.179 0 0 0 7.959 12.269.807.807 0 0 1 .012 1.137.804.804 0 0 1-1.137.012l.006.019ZM330.359 244.449a144.947 144.947 0 0 1-2.465-14.903.884.884 0 0 1 .779-.975.883.883 0 0 1 .975.779 138.915 138.915 0 0 0 2.398 14.704.87.87 0 0 1-1.69.385l.003.01ZM326.711 214.543c-.09-2.504-.2-5.002-.281-7.509l.039-7.518a.905.905 0 0 1 .268-.644.909.909 0 0 1 1.486.298.909.909 0 0 1 .069.349l-.05 7.48c.075 2.487.172 4.978.26 7.472a.9.9 0 0 1-1.794.062l.003.01ZM325.676 184.671c-.177-1.219-.379-2.421-.665-3.587a12.513 12.513 0 0 0-1.2-3.244 4.045 4.045 0 0 0-.441-.622 2.663 2.663 0 0 0-.241-.222.63.63 0 0 0-.237-.171 1.104 1.104 0 0 0-1.055-.048 7.308 7.308 0 0 0-2.486 2.022.997.997 0 0 1-1.339.086.95.95 0 0 1-.317-.647.941.941 0 0 1 .234-.682 8.761 8.761 0 0 1 3.321-2.587l.289-.084.317-.091c.218-.04.439-.058.66-.056l.672.127c.217.065.423.159.613.281.194.085.371.207.52.359.156.129.304.267.443.414.234.268.446.555.633.857a14.515 14.515 0 0 1 1.411 3.756c.292 1.258.502 2.52.689 3.777a.94.94 0 0 1-.789 1.051.93.93 0 0 1-1.051-.788l.019.099ZM311.04 191.109l-7.915 12.746a1 1 0 0 1-1.653-1.031l7.936-12.711a1.008 1.008 0 0 1 1.055-.742.996.996 0 0 1 .766.475.996.996 0 0 1-.196 1.275l.007-.012ZM295.22 216.599c-2.713 4.222-5.527 8.379-8.523 12.412a.994.994 0 0 1-1.074.482 1.006 1.006 0 0 1-.66-.479.998.998 0 0 1 .126-1.171c3.007-3.995 5.744-8.13 8.445-12.317a1.002 1.002 0 0 1 1.755.357c.064.241.036.498-.079.719l.01-.003ZM277.126 240.676c-3.4 3.728-7.049 7.22-10.922 10.453a.93.93 0 0 1-.699.226.922.922 0 0 1-.359-.107.924.924 0 0 1-.289-.238 1.004 1.004 0 0 1 .12-1.347 109.676 109.676 0 0 0 10.704-10.307 1.004 1.004 0 0 1 1.164-.461.995.995 0 0 1 .702 1.036 1.004 1.004 0 0 1-.44.751l.019-.006ZM253.744 259.8a55.496 55.496 0 0 1-14.205 5.449.941.941 0 0 1-1.121-1.084.919.919 0 0 1 .728-.739 53.41 53.41 0 0 0 13.696-5.301.941.941 0 0 1 1.283.367 1.003 1.003 0 0 1-.377 1.286l-.004.022ZM224.339 266.113a47.527 47.527 0 0 1-14.656-4.155.905.905 0 0 1-.464-.502.896.896 0 0 1 .529-1.147.877.877 0 0 1 .344-.054.879.879 0 0 1 .339.081 46.002 46.002 0 0 0 14.103 3.972.91.91 0 1 1-.195 1.805ZM196.846 253.872a80.882 80.882 0 0 1-10.695-10.717.857.857 0 0 1 .121-1.189.858.858 0 0 1 1.192.08 78.713 78.713 0 0 0 10.505 10.491.878.878 0 0 1-.469 1.558.885.885 0 0 1-.645-.194l-.009-.029ZM176.964 231.179l-8.91-11.994a.78.78 0 0 1 .164-1.089.79.79 0 0 1 1.088.164l9.035 11.958a.848.848 0 0 1-.803 1.281.848.848 0 0 1-.547-.265l-.027-.055ZM158.007 208.26a50.798 50.798 0 0 0-12.275-8.156.7.7 0 0 1-.343-.932.7.7 0 0 1 .931-.342 52.438 52.438 0 0 1 12.684 8.308.747.747 0 0 1 .043 1.031.752.752 0 0 1-1.028.097l-.012-.006ZM131.587 195.915a62.745 62.745 0 0 0-14.813-.278.611.611 0 0 1-.476-.973.608.608 0 0 1 .366-.234 65.026 65.026 0 0 1 15.12.189.661.661 0 0 1 .556.734.65.65 0 0 1-.734.557l-.019.005ZM102.126 198.299c-4.813 1.28-9.55 2.83-14.189 4.643a.503.503 0 0 1-.374-.933 134.813 134.813 0 0 1 14.234-4.77.56.56 0 0 1 .309 1.066l.02-.006ZM74.203 208.9l-13.367 6.757a.322.322 0 0 1-.369-.037.318.318 0 0 1-.078-.104.333.333 0 0 1 .04-.366.322.322 0 0 1 .1-.081l13.304-6.978a.396.396 0 0 1 .32-.03.413.413 0 0 1 .243.21.415.415 0 0 1 .032.316.412.412 0 0 1-.203.244l-.022.069ZM47.762 222.996l-12.92 7.617a.149.149 0 0 1-.058.023.157.157 0 0 1-.116-.029.16.16 0 0 1-.056-.164.161.161 0 0 1 .069-.096l12.832-7.778a.246.246 0 0 1 .187-.025.252.252 0 0 1 .151.114.238.238 0 0 1-.009.271.232.232 0 0 1-.07.064l-.01.003ZM21.927 238.249l-10.485 5.818 10.42-5.934a.072.072 0 0 1 .038-.029.072.072 0 0 1 .048.004.08.08 0 0 1 .025.086l-.046.055Z"/><path fill="#000" stroke="#000" stroke-linejoin="round" stroke-width="2" d="m469.458 17.032-90.106 86.355.968 7.437 89.138-93.792Z"/><path fill="#F1EFED" d="m279.6 91.65-13.631 36.363 43.642 17.702 13.631-36.363L279.6 91.651Z"/><path fill="url(#a)" d="m265.969 128.013-80.659 84.399 43.642 17.701 80.659-84.398-43.642-17.702Z"/><path fill="url(#b)" d="m279.6 91.65 43.642 17.702 38.511-41.472-41.891-13.464a2 2 0 0 0-1.998.462L279.6 91.651Z"/><path fill="#5869DD" d="m185.31 212.412-32.024 7.698 43.513 16.71 32.153-6.707-43.642-17.701Z"/><path fill="url(#c)" d="m149.74 231.057 29.036 56.126c.218.422.58.753 1.019.933L222.7 305.65l-14.667-28.365-14.667-28.365-43.626-17.863Z"/><path fill="url(#d)" d="m193.366 248.92 3.433-12.1-43.513-16.71-3.546 10.947 43.626 17.863Z"/><path fill="#5869DD" fill-rule="evenodd" d="m384.979 86.916 13.68 27.003c.378.747.251 1.65-.318 2.264L222.7 305.65l-14.667-28.365 176.946-190.37Z" clip-rule="evenodd"/><path fill="url(#e)" d="m323.242 109.352-13.631 36.363-80.659 84.398-32.153 6.707-3.433 12.1 14.667 28.365 176.946-190.37-23.226-19.035-38.511 41.472Z"/><path fill="#000" d="m279.6 91.65-.693-.72a.99.99 0 0 0-.243.37l.936.35ZM153.286 220.11l-.233-.972a.999.999 0 0 0-.718.664l.951.308Zm156.325-74.395.723.691a1.01 1.01 0 0 0 .214-.34l-.937-.351Zm-80.659 84.398.205.979a.995.995 0 0 0 .518-.288l-.723-.691Zm-79.212.944-.952-.309c-.082.254-.059.531.064.768l.888-.459Zm72.96 74.593-.378.926c.385.157.828.059 1.111-.246l-.733-.68ZM361.753 67.88l.634-.773a.994.994 0 0 0-.328-.179l-.306.952Zm-153.72 209.405-.888.459.888-.459Zm176.946-190.37.892-.451a.982.982 0 0 0-.258-.322l-.634.774Zm-65.117-32.499.306-.952-.306.952Zm-1.998.462-.693-.72.693.72ZM178.776 287.183l-.888.46.888-.46Zm1.019.933-.378.925.378-.925Zm218.546-171.933-.733-.68.733.68Zm.318-2.264-.892.452.892-.452Zm-131.753 14.445 13.63-36.362-1.872-.702-13.631 36.362 1.873.702Zm-80.873 84.739 80.659-84.399-1.446-1.382-80.658 84.399 1.445 1.382Zm-32.513 7.98 32.024-7.699-.467-1.945-32.024 7.699.467 1.945Zm157.028-75.017 13.63-36.363-1.872-.702-13.631 36.363 1.873.702Zm-80.873 84.738 80.659-84.398-1.446-1.382-80.658 84.398 1.445 1.382Zm-35.347 18.389 3.433-12.1-1.924-.546-3.433 12.1 1.924.546Zm2.675-11.394 32.154-6.707-.409-1.958-32.153 6.707.408 1.958Zm-17.339 48.925-29.036-56.127-1.776.919 29.036 56.127 1.776-.919Zm85.929-157.784 43.642 17.702.752-1.854-43.642-17.701-.752 1.853Zm58.025-20.514-43.642-17.702-.752 1.853 43.642 17.702.752-1.853ZM184.935 213.338l43.642 17.702.751-1.853-43.642-17.702-.751 1.853Zm-32.007 7.706 43.513 16.71.717-1.867-43.513-16.71-.717 1.867ZM362.059 66.928l-41.891-13.464-.612 1.904 41.891 13.464.612-1.904Zm-44.888-12.77L278.907 90.93l1.386 1.442 38.264-36.773-1.386-1.442Zm6.804 55.875 38.511-41.472-1.465-1.361-38.512 41.472 1.466 1.361ZM150.691 231.365l3.547-10.947-1.903-.616-3.547 10.946 1.903.617Zm72.742 74.965 175.642-189.467-1.467-1.36L221.967 304.97l1.466 1.36Zm-44.016-17.289 42.905 17.535.756-1.851-42.904-17.535-.757 1.851Zm14.328-41.047-43.626-17.863-.758 1.851 43.626 17.863.758-1.851Zm-1.268 1.385 14.668 28.365 1.776-.918-14.667-28.366-1.777.919Zm14.668 28.365 14.667 28.365 1.776-.918-14.667-28.365-1.776.918ZM384.087 87.368l13.68 27.003 1.784-.903-13.68-27.004-1.784.904ZM208.765 277.966l176.947-190.37-1.465-1.36L207.3 276.603l1.465 1.362ZM385.613 86.142l-23.226-19.035-1.268 1.547 23.226 19.035 1.268-1.547Zm-65.445-32.678a3 3 0 0 0-2.997.693l1.386 1.442a1 1 0 0 1 .999-.23l.612-1.905Zm-142.28 234.179a2.993 2.993 0 0 0 1.529 1.398l.757-1.851a1 1 0 0 1-.51-.466l-1.776.919Zm221.187-170.78a3.001 3.001 0 0 0 .476-3.395l-1.784.903a1 1 0 0 1-.159 1.132l1.467 1.36ZM315.901 74.63c1.026.323 2.606-.061 3.522-.874.938-.794.837-1.729-.208-2.04-1.057-.329-2.637.056-3.535.847-.896.81-.816 1.737.221 2.068ZM307.605 78.07c.988.346 2.528-.035 3.415-.835.896-.81.797-1.725-.22-2.058-1.017-.333-2.547.056-3.424.845-.877.798-.778 1.713.229 2.047ZM297.783 87.001c.937.341 2.4-.012 3.278-.8.896-.801.808-1.707-.149-2.046-.967-.338-2.419.024-3.278.801-.848.786-.789 1.704.149 2.045ZM309.34 82.894c-.907.802-2.418 1.18-3.376.83-.967-.337-1.036-1.255-.149-2.055.886-.8 2.399-1.157 3.376-.82.996.325 1.056 1.254.149 2.045ZM320.265 93.377c-.978.798-2.53 1.16-3.438.806-.93-.362-.899-1.29.067-2.096.977-.799 2.509-1.169 3.467-.82.937.341.897 1.27-.096 2.11ZM327.904 85.039c.996.325 2.607-.053 3.622-.875 1.015-.832 1.014-1.766.006-2.11-1.007-.334-2.617.053-3.601.882-.996.82-1.016 1.747-.027 2.103ZM307.501 88.579c-.898.79-2.401 1.137-3.328.805-.938-.35-.959-1.283-.07-2.063.897-.8 2.379-1.165 3.337-.816.938.35.977 1.271.061 2.074ZM314.41 80.382c.987.336 2.548-.047 3.473-.86.946-.815.878-1.723-.139-2.056-1.018-.343-2.569.029-3.484.85-.907.802-.848 1.72.15 2.066ZM315.977 85.233c-.937.805-2.486 1.196-3.444.847-.959-.349-.978-1.271-.061-2.073.926-.814 2.447-1.183 3.434-.847.987.337 1.016 1.258.071 2.073ZM322.903 76.894c1.037.331 2.637-.055 3.593-.861.975-.829.895-1.755-.142-2.086-1.055-.31-2.655.077-3.593.871-.953.836-.874 1.753.142 2.076ZM313.901 90.96c-.956.807-2.469 1.165-3.386.822-.931-.371-.919-1.287-.002-2.09.937-.794 2.448-1.172 3.387-.81.957.338.948 1.273.001 2.079ZM321.186 82.698c.977.337 2.568-.04 3.543-.867.975-.818.945-1.75-.062-2.084-1.017-.333-2.597.051-3.553.868-.956.806-.926 1.737.072 2.083ZM322.576 87.596c-.976.808-2.556 1.193-3.505.843-.968-.348-.958-1.283.009-2.08.965-.828 2.527-1.19 3.504-.854.967.339.968 1.273-.008 2.091ZM329.887 79.18c1.008.344 2.638-.046 3.632-.876 1.007-.801.975-1.752-.062-2.084-1.047-.33-2.667.058-3.653.868-.975.828-.934 1.758.083 2.092Z"/><path fill="#000" fill-rule="evenodd" d="M234.825 280.356c2.856-2.38 3.894-5.842 2.319-7.733-.778-.933-2.047-1.309-3.477-1.164-3.779 5.705-4.343 8.095-2.188 10.713 1.123-.322 2.285-.932 3.346-1.816Z" clip-rule="evenodd"/><path fill="#F1EFED" d="M229.12 273.51c-2.856 2.38-3.895 5.842-2.319 7.733.99 1.188 2.777 1.473 4.678.929-2.155-2.618-1.591-5.008 2.188-10.713-1.467.149-3.101.846-4.547 2.051Z"/><path fill="#000" d="M236.538 273.128c.565.678.724 1.713.353 2.951-.369 1.232-1.245 2.566-2.571 3.671l1.01 1.212c1.53-1.275 2.602-2.862 3.072-4.43.468-1.56.359-3.201-.652-4.414l-1.212 1.01Zm-9.131 7.61c-.565-.678-.725-1.713-.353-2.951.369-1.232 1.245-2.566 2.571-3.671l-1.01-1.212c-1.53 1.275-2.602 2.862-3.072 4.43-.468 1.56-.359 3.201.652 4.414l1.212-1.01Zm2.218-6.622c1.343-1.119 2.833-1.741 4.121-1.872l-.159-1.569c-1.644.167-3.423.938-4.972 2.229l1.01 1.212Zm4.121-1.872c1.263-.128 2.234.215 2.792.884l1.212-1.01c-.998-1.197-2.566-1.605-4.163-1.443l.159 1.569Zm.574 7.506c-.982.819-2.048 1.374-3.058 1.664l.434 1.516c1.235-.354 2.494-1.019 3.634-1.968l-1.01-1.212Zm-3.058 1.664c-1.749.5-3.148.173-3.855-.676l-1.212 1.01c1.273 1.527 3.448 1.769 5.501 1.182l-.434-1.516Zm1.747-10.39c-1.887 2.849-3.055 4.985-3.433 6.787-.194.924-.185 1.776.045 2.598.229.815.663 1.552 1.249 2.264l1.218-1.003c-.491-.596-.795-1.14-.948-1.687-.152-.542-.17-1.134-.02-1.848.309-1.474 1.313-3.384 3.204-6.24l-1.315-.871Z"/><path fill="#F1EFED" d="m259.454 178.464 6.415 2.979-1.984 2.581-1.985 2.581-6.345-3.038 3.899-5.103Z"/><path fill="#000" d="m261.9 186.605-6.345-3.038.161 1.228 6.442 3.187-.258-1.377Z"/><path fill="#000" d="m261.9 186.605.258 1.377 1.956-2.508-.229-1.45-1.985 2.581Z"/><path fill="#F1EFED" d="m266.069 182.967-.2-1.524-1.984 2.581.229 1.45 1.955-2.507Z"/><path fill="#000" d="m259.454 178.464.143-.309a.34.34 0 0 0-.413.102l.27.207Zm6.415 2.979.337-.044a.338.338 0 0 0-.194-.264l-.143.308Zm-10.314 2.124-.27-.206a.336.336 0 0 0-.067.251l.337-.045Zm6.603 4.415-.151.304a.34.34 0 0 0 .419-.095l-.268-.209Zm3.911-5.015.268.209a.34.34 0 0 0 .069-.254l-.337.045Zm-10.353 1.828-.337.044c.015.112.084.21.186.261l.151-.305Zm8.169-.771-.27-.207.27.207Zm-4.574-5.252 6.415 2.979.286-.616-6.415-2.98-.286.617Zm2.736 7.527-6.345-3.038-.294.613 6.345 3.038.294-.613Zm-6.222-2.525 3.899-5.104-.54-.413-3.899 5.104.54.413Zm5.741 2.894.258 1.376.668-.125-.258-1.376-.668.125Zm4.84-3.746-.2-1.523-.674.088.2 1.524.674-.089Zm-4.097 4.755-6.442-3.187-.302.61 6.442 3.186.302-.609Zm-6.256-2.926-.161-1.228-.674.089.161 1.227.674-.088Zm9.547-3.515-1.985 2.581.539.414 1.985-2.581-.539-.414Zm-1.985 2.581-1.985 2.581.539.415 1.985-2.582-.539-.414Zm-1.189 4.374 1.956-2.508-.536-.418-1.956 2.508.536.418Zm1.956-2.508 1.955-2.507-.536-.418-1.955 2.507.536.418Zm-.833-1.606.229 1.45.672-.106-.23-1.45-.671.106Z"/><path fill="#F1EFED" d="m267.8 167.321 6.393 3.025-2.003 2.567-2.003 2.567-6.323-3.084 3.936-5.075Z"/><path fill="#000" d="m270.187 175.48-6.323-3.084.152 1.229 6.419 3.233-.248-1.378ZM270.187 175.48l.248 1.378 1.974-2.493-.219-1.452-2.003 2.567Z"/><path fill="#F1EFED" d="m274.382 171.871-.189-1.525-2.003 2.567.219 1.452 1.973-2.494Z"/><path fill="#000" d="m267.8 167.321.145-.307a.339.339 0 0 0-.414.099l.269.208Zm6.393 3.025.338-.042a.342.342 0 0 0-.192-.265l-.146.307Zm-10.329 2.05-.269-.208a.34.34 0 0 0-.069.25l.338-.042Zm6.571 4.462-.153.304a.34.34 0 0 0 .42-.093l-.267-.211Zm3.947-4.987.267.211a.342.342 0 0 0 .071-.253l-.338.042Zm-10.366 1.754-.337.042a.341.341 0 0 0 .184.262l.153-.304Zm8.174-.712-.268-.209.268.209Zm-4.536-5.285 6.394 3.025.291-.614-6.394-3.025-.291.614Zm2.682 7.546-6.323-3.083-.298.611 6.323 3.083.298-.611Zm-6.204-2.569 3.936-5.076-.537-.416-3.936 5.075.537.417Zm5.72 2.935.249 1.378.669-.12-.248-1.378-.67.12Zm4.868-3.711-.189-1.525-.675.084.189 1.525.675-.084Zm-4.132 4.725-6.419-3.233-.306.608 6.419 3.233.306-.608Zm-6.235-2.971-.152-1.228-.675.083.153 1.229.674-.084Zm9.572-3.446-2.003 2.567.536.418 2.003-2.567-.536-.418Zm-2.003 2.567-2.003 2.567.536.418 2.003-2.567-.536-.418Zm-1.22 4.365 1.973-2.493-.533-.422-1.973 2.493.533.422Zm1.973-2.493 1.974-2.494-.533-.422-1.974 2.494.533.422Zm-.821-1.612.219 1.451.672-.101-.219-1.452-.672.102Z"/><path fill="#F1EFED" d="m276.609 157.034 6.415 2.979-1.985 2.581-1.985 2.582-6.345-3.038 3.9-5.104Z"/><path fill="#000" d="m279.054 165.176-6.345-3.038.161 1.227 6.442 3.187-.258-1.376Z"/><path fill="#000" d="m279.054 165.176.258 1.376 1.956-2.508-.229-1.45-1.985 2.582Z"/><path fill="#F1EFED" d="m283.223 161.537-.199-1.524-1.985 2.581.229 1.45 1.955-2.507Z"/><path fill="#000" d="m276.609 157.034.143-.308a.34.34 0 0 0-.414.102l.271.206Zm6.415 2.979.337-.044a.341.341 0 0 0-.194-.264l-.143.308Zm-10.315 2.125-.27-.207a.338.338 0 0 0-.067.251l.337-.044Zm6.603 4.414-.15.305a.342.342 0 0 0 .419-.096l-.269-.209Zm3.911-5.015.269.209a.343.343 0 0 0 .069-.253l-.338.044Zm-10.353 1.828-.337.044c.015.113.085.21.186.261l.151-.305Zm8.169-.771-.27-.207.27.207Zm-4.574-5.252 6.415 2.98.287-.617-6.415-2.979-.287.616Zm2.736 7.527-6.345-3.038-.294.613 6.345 3.038.294-.613Zm-6.222-2.525 3.9-5.104-.541-.412-3.899 5.103.54.413Zm5.741 2.894.258 1.377.669-.126-.259-1.376-.668.125Zm4.841-3.745-.2-1.524-.675.089.2 1.523.675-.088Zm-4.098 4.754-6.442-3.187-.302.61 6.443 3.187.301-.61Zm-6.256-2.926-.161-1.228-.674.089.161 1.227.674-.088Zm9.547-3.515-1.985 2.581.539.415 1.985-2.581-.539-.415Zm-1.985 2.581-1.984 2.581.539.415 1.984-2.581-.539-.415Zm-1.188 4.374 1.955-2.508-.536-.418-1.956 2.508.537.418Zm1.955-2.508 1.956-2.507-.537-.418-1.955 2.507.536.418Zm-.833-1.606.229 1.45.672-.106-.229-1.45-.672.106Z"/><path fill="#F1EFED" d="m285.444 147.623 6.394 3.025-2.003 2.567-2.004 2.567-6.323-3.084 3.936-5.075Z"/><path fill="#000" d="m287.831 155.782-6.323-3.084.153 1.229 6.419 3.233-.249-1.378ZM287.831 155.782l.249 1.378 1.973-2.493-.218-1.452-2.004 2.567Z"/><path fill="#F1EFED" d="m292.027 152.173-.189-1.525-2.003 2.567.218 1.452 1.974-2.494Z"/><path fill="#000" d="m285.444 147.623.146-.307a.34.34 0 0 0-.415.099l.269.208Zm6.394 3.025.337-.042a.34.34 0 0 0-.192-.265l-.145.307Zm-10.33 2.05-.268-.208a.34.34 0 0 0-.069.25l.337-.042Zm6.572 4.462-.153.304a.34.34 0 0 0 .419-.093l-.266-.211Zm3.947-4.987.266.211a.338.338 0 0 0 .071-.253l-.337.042Zm-10.366 1.754-.338.042a.34.34 0 0 0 .185.262l.153-.304Zm8.174-.712-.268-.209.268.209Zm-4.536-5.285 6.393 3.025.291-.614-6.393-3.025-.291.614Zm2.682 7.546-6.324-3.083-.298.611 6.323 3.083.299-.611Zm-6.204-2.569 3.936-5.076-.538-.416-3.935 5.075.537.417Zm5.72 2.935.248 1.378.669-.12-.248-1.378-.669.12Zm4.867-3.711-.189-1.525-.675.084.189 1.525.675-.084Zm-4.131 4.725-6.42-3.233-.305.608 6.419 3.233.306-.608Zm-6.235-2.971-.152-1.228-.675.083.152 1.229.675-.084Zm9.572-3.446-2.003 2.567.536.418 2.003-2.567-.536-.418Zm-2.003 2.567-2.004 2.567.537.418 2.003-2.567-.536-.418Zm-1.221 4.365 1.974-2.493-.533-.422-1.974 2.493.533.422Zm1.974-2.493 1.973-2.494-.533-.422-1.973 2.494.533.422Zm-.822-1.612.219 1.451.672-.101-.218-1.452-.673.102Z"/><path fill="#F1EFED" d="m247.59 173.422 6.415 2.979-1.985 2.581-1.984 2.581-6.345-3.038 3.899-5.103Z"/><path fill="#000" d="m250.036 181.563-6.345-3.038.161 1.228 6.442 3.187-.258-1.377Z"/><path fill="#000" d="m250.036 181.563.258 1.377 1.955-2.508-.229-1.45-1.984 2.581Z"/><path fill="#F1EFED" d="m254.205 177.925-.2-1.524-1.985 2.581.229 1.45 1.956-2.507Z"/><path fill="#000" d="m247.59 173.422.143-.309a.34.34 0 0 0-.413.102l.27.207Zm6.415 2.979.337-.044a.338.338 0 0 0-.194-.264l-.143.308Zm-10.314 2.124-.271-.206a.344.344 0 0 0-.067.25l.338-.044Zm6.603 4.415-.151.304a.34.34 0 0 0 .419-.095l-.268-.209Zm3.911-5.015.268.209a.34.34 0 0 0 .069-.254l-.337.045Zm-10.353 1.828-.337.044c.014.112.084.21.186.26l.151-.304Zm8.168-.771-.269-.207.269.207Zm-4.573-5.252 6.415 2.979.286-.616-6.415-2.98-.286.617Zm2.736 7.527-6.346-3.038-.293.613 6.345 3.038.294-.613Zm-6.222-2.525 3.899-5.104-.54-.413-3.9 5.104.541.413Zm5.741 2.894.258 1.376.668-.125-.258-1.376-.668.125Zm4.84-3.746-.2-1.523-.674.088.2 1.524.674-.089Zm-4.097 4.755-6.443-3.187-.301.609 6.442 3.187.302-.609Zm-6.256-2.927-.161-1.227-.675.088.162 1.228.674-.089Zm9.546-3.514-1.984 2.581.539.414 1.985-2.581-.54-.414Zm-1.984 2.581-1.985 2.581.539.415 1.985-2.582-.539-.414Zm-1.189 4.374 1.956-2.508-.537-.418-1.955 2.508.536.418Zm1.956-2.508 1.955-2.507-.536-.419-1.956 2.508.537.418Zm-.833-1.606.229 1.45.671-.106-.229-1.45-.671.106Z"/><path fill="#F1EFED" d="m255.935 162.279 6.394 3.025-2.003 2.567-2.003 2.567-6.323-3.084 3.935-5.075Z"/><path fill="#000" d="M258.323 170.438 252 167.354l.152 1.229 6.419 3.233-.248-1.378ZM258.323 170.438l.248 1.378 1.973-2.494-.218-1.451-2.003 2.567Z"/><path fill="#F1EFED" d="m262.518 166.829-.189-1.525-2.003 2.567.218 1.451 1.974-2.493Z"/><path fill="#000" d="m255.935 162.279.146-.307a.337.337 0 0 0-.414.099l.268.208Zm6.394 3.025.337-.042a.337.337 0 0 0-.192-.265l-.145.307ZM252 167.354l-.269-.208a.34.34 0 0 0-.069.25l.338-.042Zm6.571 4.462-.153.304c.144.072.32.033.42-.093l-.267-.211Zm3.947-4.987.266.211a.334.334 0 0 0 .071-.253l-.337.042Zm-10.366 1.754-.338.042c.014.112.083.21.185.262l.153-.304Zm8.174-.712-.268-.209.268.209Zm-4.536-5.285 6.393 3.025.291-.614-6.393-3.025-.291.614Zm2.682 7.546-6.323-3.083-.299.611 6.324 3.083.298-.611Zm-6.204-2.569 3.936-5.076-.537-.416-3.936 5.075.537.417Zm5.72 2.935.248 1.378.67-.12-.249-1.379-.669.121Zm4.867-3.711-.189-1.525-.675.084.189 1.525.675-.084Zm-4.131 4.725-6.419-3.233-.306.608 6.419 3.233.306-.608Zm-6.235-2.971-.152-1.229-.675.084.152 1.229.675-.084Zm9.572-3.446-2.003 2.567.536.418 2.003-2.567-.536-.418Zm-2.003 2.567-2.003 2.567.536.418 2.003-2.567-.536-.418Zm-1.22 4.365 1.973-2.494-.533-.422-1.974 2.494.534.422Zm1.973-2.494 1.973-2.493-.533-.422-1.973 2.493.533.422Zm-.821-1.611.218 1.451.673-.101-.219-1.452-.672.102Z"/><path fill="#F1EFED" d="m264.744 151.992 6.415 2.979-1.984 2.581-1.985 2.581-6.345-3.038 3.899-5.103Z"/><path fill="#000" d="m267.19 160.133-6.345-3.038.161 1.228 6.442 3.187-.258-1.377Z"/><path fill="#000" d="m267.19 160.133.258 1.377 1.956-2.508-.229-1.45-1.985 2.581Z"/><path fill="#F1EFED" d="m271.359 156.495-.2-1.524-1.984 2.581.229 1.45 1.955-2.507Z"/><path fill="#000" d="m264.744 151.992.143-.308a.338.338 0 0 0-.413.102l.27.206Zm6.415 2.979.337-.044a.339.339 0 0 0-.193-.264l-.144.308Zm-10.314 2.124-.27-.206a.337.337 0 0 0-.067.251l.337-.045Zm6.603 4.415-.151.305c.145.071.32.031.419-.096l-.268-.209Zm3.911-5.015.268.209a.34.34 0 0 0 .069-.253l-.337.044Zm-10.353 1.828-.337.044a.34.34 0 0 0 .186.261l.151-.305Zm8.169-.771-.27-.207.27.207Zm-4.574-5.252 6.415 2.98.287-.617-6.416-2.979-.286.616Zm2.736 7.527-6.345-3.038-.294.613 6.345 3.038.294-.613Zm-6.222-2.525 3.899-5.104-.54-.412-3.899 5.103.54.413Zm5.741 2.894.258 1.376.668-.125-.258-1.376-.668.125Zm4.84-3.745-.2-1.524-.674.088.2 1.524.674-.088Zm-4.097 4.754-6.442-3.187-.302.61 6.442 3.187.302-.61Zm-6.256-2.926-.161-1.228-.674.089.161 1.227.674-.088Zm9.547-3.515-1.985 2.581.539.415 1.985-2.582-.539-.414Zm-1.985 2.581-1.985 2.581.54.415 1.984-2.581-.539-.415Zm-1.189 4.374 1.956-2.508-.536-.418-1.956 2.508.536.418Zm1.956-2.508 1.955-2.507-.536-.418-1.955 2.507.536.418Zm-.833-1.606.229 1.45.672-.106-.23-1.45-.671.106Z"/><path fill="#F1EFED" d="m273.58 142.581 6.393 3.025-2.003 2.567-2.003 2.567-6.323-3.084 3.936-5.075Z"/><path fill="#000" d="m275.967 150.74-6.323-3.084.152 1.229 6.42 3.233-.249-1.378ZM275.967 150.74l.249 1.378 1.973-2.494-.219-1.451-2.003 2.567Z"/><path fill="#F1EFED" d="m280.162 147.131-.189-1.525-2.003 2.567.219 1.451 1.973-2.493Z"/><path fill="#000" d="m273.58 142.581.145-.307a.338.338 0 0 0-.414.099l.269.208Zm6.393 3.025.338-.042a.339.339 0 0 0-.192-.265l-.146.307Zm-10.329 2.05-.269-.208a.34.34 0 0 0-.068.25l.337-.042Zm6.572 4.462-.153.304a.34.34 0 0 0 .419-.093l-.266-.211Zm3.946-4.987.267.211a.338.338 0 0 0 .071-.253l-.338.042Zm-10.366 1.754-.337.042c.014.112.083.21.184.262l.153-.304Zm8.174-.712-.268-.209.268.209Zm-4.536-5.285 6.394 3.025.291-.614-6.394-3.025-.291.614Zm2.682 7.546-6.323-3.083-.298.611 6.323 3.083.298-.611Zm-6.203-2.569 3.936-5.076-.538-.416-3.936 5.075.538.417Zm5.72 2.935.248 1.378.669-.12-.248-1.379-.669.121Zm4.867-3.711-.189-1.525-.675.084.189 1.525.675-.084Zm-4.131 4.725-6.42-3.233-.306.608 6.42 3.233.306-.608Zm-6.235-2.971-.153-1.229-.674.084.152 1.229.675-.084Zm9.571-3.446-2.003 2.567.536.418 2.003-2.567-.536-.418Zm-2.003 2.567-2.003 2.567.536.418 2.003-2.567-.536-.418Zm-1.22 4.365 1.974-2.494-.534-.422-1.973 2.494.533.422Zm1.974-2.494 1.973-2.493-.533-.422-1.974 2.493.534.422Zm-.822-1.611.219 1.451.672-.101-.218-1.452-.673.102Z"/><path fill="#F1EFED" d="m236.524 167.73 6.415 2.98-1.985 2.581-1.985 2.581-6.345-3.038 3.9-5.104Z"/><path fill="#000" d="m238.969 175.872-6.345-3.038.161 1.227 6.443 3.187-.259-1.376Z"/><path fill="#000" d="m238.969 175.872.259 1.376 1.955-2.507-.229-1.45-1.985 2.581Z"/><path fill="#F1EFED" d="m243.139 172.233-.2-1.523-1.985 2.581.229 1.45 1.956-2.508Z"/><path fill="#000" d="m236.524 167.73.143-.308a.34.34 0 0 0-.414.102l.271.206Zm6.415 2.98.337-.045a.341.341 0 0 0-.194-.264l-.143.309Zm-10.315 2.124-.27-.206a.335.335 0 0 0-.067.25l.337-.044Zm6.604 4.414-.151.305a.34.34 0 0 0 .419-.096l-.268-.209Zm3.911-5.015.268.209a.342.342 0 0 0 .069-.253l-.337.044Zm-10.354 1.828-.337.045c.015.112.085.21.186.26l.151-.305Zm8.169-.77-.27-.207.27.207Zm-4.574-5.252 6.415 2.979.287-.617-6.415-2.979-.287.617Zm2.736 7.526-6.345-3.038-.294.614 6.345 3.038.294-.614Zm-6.222-2.525 3.9-5.103-.541-.413-3.899 5.104.54.412Zm5.741 2.895.258 1.376.669-.125-.259-1.377-.668.126Zm4.841-3.746-.2-1.524-.675.089.2 1.524.675-.089Zm-4.098 4.755-6.442-3.187-.302.609 6.443 3.187.301-.609Zm-6.256-2.927-.161-1.227-.674.088.161 1.228.674-.089Zm9.547-3.515-1.985 2.582.539.414 1.985-2.581-.539-.415Zm-1.985 2.582-1.984 2.581.539.414 1.984-2.581-.539-.414Zm-1.188 4.373 1.955-2.507-.536-.418-1.956 2.507.537.418Zm1.955-2.507 1.956-2.508-.537-.418-1.955 2.508.536.418Zm-.833-1.606.229 1.45.672-.106-.229-1.45-.672.106Z"/><path fill="#F1EFED" d="m244.869 156.588 6.393 3.025-2.003 2.567-2.003 2.566-6.323-3.083 3.936-5.075Z"/><path fill="#000" d="m247.256 164.746-6.323-3.083.152 1.229 6.42 3.233-.249-1.379ZM247.256 164.746l.249 1.379 1.973-2.494-.219-1.451-2.003 2.566Z"/><path fill="#F1EFED" d="m251.451 161.138-.189-1.525-2.003 2.567.219 1.451 1.973-2.493Z"/><path fill="#000" d="m244.869 156.588.145-.308a.34.34 0 0 0-.414.099l.269.209Zm6.393 3.025.338-.042a.34.34 0 0 0-.192-.266l-.146.308Zm-10.329 2.05-.269-.208a.34.34 0 0 0-.068.25l.337-.042Zm6.572 4.462-.153.303a.34.34 0 0 0 .419-.092l-.266-.211Zm3.946-4.987.267.211a.34.34 0 0 0 .071-.253l-.338.042Zm-10.366 1.754-.337.041a.34.34 0 0 0 .184.262l.153-.303Zm8.174-.712-.268-.21.268.21Zm-4.535-5.285 6.393 3.025.291-.615-6.394-3.025-.29.615Zm2.681 7.546-6.323-3.084-.298.612 6.323 3.083.298-.611Zm-6.203-2.57 3.936-5.075-.538-.417-3.936 5.076.538.416Zm5.72 2.936.248 1.378.669-.121-.248-1.378-.669.121Zm4.867-3.711-.189-1.525-.675.084.189 1.525.675-.084Zm-4.131 4.725-6.42-3.233-.306.607 6.42 3.233.306-.607Zm-6.235-2.971-.152-1.229-.675.084.152 1.228.675-.083Zm9.571-3.446-2.003 2.566.536.419 2.004-2.567-.537-.418Zm-2.003 2.566-2.003 2.567.536.419 2.003-2.567-.536-.419Zm-1.22 4.366 1.974-2.494-.534-.422-1.973 2.494.533.422Zm1.974-2.494 1.973-2.493-.533-.422-1.974 2.493.534.422Zm-.822-1.612.219 1.452.672-.101-.218-1.452-.673.101Z"/><path fill="#F1EFED" d="m253.678 146.301 6.415 2.979-1.985 2.581-1.984 2.581-6.346-3.038 3.9-5.103Z"/><path fill="#000" d="m256.124 154.442-6.346-3.038.162 1.228 6.442 3.187-.258-1.377Z"/><path fill="#000" d="m256.124 154.442.258 1.377 1.955-2.508-.229-1.45-1.984 2.581Z"/><path fill="#F1EFED" d="m260.293 150.803-.2-1.523-1.985 2.581.229 1.45 1.956-2.508Z"/><path fill="#000" d="m253.678 146.301.143-.309a.34.34 0 0 0-.413.102l.27.207Zm6.415 2.979.337-.044a.338.338 0 0 0-.194-.264l-.143.308Zm-10.315 2.124-.27-.206a.344.344 0 0 0-.067.25l.337-.044Zm6.604 4.415-.151.304a.34.34 0 0 0 .419-.095l-.268-.209Zm3.911-5.016.268.21a.34.34 0 0 0 .069-.254l-.337.044Zm-10.353 1.829-.338.044a.34.34 0 0 0 .187.26l.151-.304Zm8.168-.771-.269-.207.269.207Zm-4.573-5.252 6.415 2.979.286-.616-6.415-2.98-.286.617Zm2.735 7.527-6.345-3.039-.293.614 6.345 3.038.293-.613Zm-6.221-2.525 3.899-5.104-.54-.413-3.9 5.104.541.413Zm5.74 2.894.259 1.376.668-.125-.258-1.377-.669.126Zm4.841-3.746-.2-1.523-.674.088.2 1.524.674-.089Zm-4.097 4.755-6.443-3.187-.301.609 6.442 3.187.302-.609Zm-6.256-2.927-.161-1.227-.675.088.161 1.228.675-.089Zm9.546-3.514-1.984 2.581.539.414 1.984-2.581-.539-.414Zm-1.984 2.581-1.985 2.581.539.414 1.985-2.581-.539-.414Zm-1.189 4.374 1.955-2.508-.536-.418-1.955 2.507.536.419Zm1.955-2.508 1.956-2.507-.536-.419-1.956 2.508.536.418Zm-.833-1.606.229 1.45.672-.106-.229-1.45-.672.106Z"/><path fill="#F1EFED" d="m262.514 136.89 6.393 3.025-2.003 2.567-2.003 2.566-6.323-3.083 3.936-5.075Z"/><path fill="#000" d="m264.901 145.048-6.323-3.083.152 1.229 6.419 3.233-.248-1.379ZM264.901 145.048l.248 1.379 1.974-2.494-.219-1.451-2.003 2.566Z"/><path fill="#F1EFED" d="m269.096 141.44-.189-1.525-2.003 2.567.219 1.451 1.973-2.493Z"/><path fill="#000" d="m262.514 136.89.145-.308a.34.34 0 0 0-.414.099l.269.209Zm6.393 3.025.337-.042a.338.338 0 0 0-.192-.266l-.145.308Zm-10.329 2.05-.269-.208a.34.34 0 0 0-.069.25l.338-.042Zm6.571 4.462-.153.303a.34.34 0 0 0 .42-.092l-.267-.211Zm3.947-4.987.267.211a.34.34 0 0 0 .07-.253l-.337.042Zm-10.366 1.754-.338.041a.341.341 0 0 0 .185.262l.153-.303Zm8.174-.712-.268-.21.268.21Zm-4.536-5.285 6.394 3.025.29-.615-6.393-3.025-.291.615Zm2.682 7.546-6.323-3.084-.298.612 6.323 3.083.298-.611Zm-6.204-2.57 3.936-5.075-.537-.417-3.936 5.076.537.416Zm5.72 2.936.249 1.378.669-.121-.249-1.378-.669.121Zm4.867-3.711-.189-1.525-.674.084.189 1.525.674-.084Zm-4.131 4.725-6.419-3.233-.306.607 6.419 3.233.306-.607Zm-6.235-2.971-.152-1.229-.675.084.152 1.228.675-.083Zm9.572-3.446-2.003 2.566.536.419 2.003-2.567-.536-.418Zm-2.003 2.566-2.003 2.567.536.419 2.003-2.567-.536-.419Zm-1.22 4.366 1.973-2.494-.533-.422-1.973 2.494.533.422Zm1.973-2.494 1.974-2.493-.534-.422-1.973 2.493.533.422Zm-.821-1.612.218 1.452.673-.101-.219-1.452-.672.101Z"/><mask id="f" fill="#fff"><path d="M230.119 197.028c-1.614 1.099-2.105 3.046-1.096 4.348 0 0 1.521-1.39 3.201-2.794 1.681-1.404 2.644-1.186 2.644-1.186-1.008-1.302-3.134-1.467-4.749-.368Z"/><path fill-rule="evenodd" d="M234.868 197.396c1.009 1.302.518 3.248-1.096 4.347-.363.247-.751.43-1.147.551l-.401-3.712c1.681-1.404 2.644-1.186 2.644-1.186Z" clip-rule="evenodd"/><path d="M232.224 198.582c-1.68 1.404-3.201 2.794-3.201 2.794.782 1.009 2.236 1.335 3.602.918l-.401-3.712Z"/></mask><path fill="#000" d="M230.119 197.028c-1.614 1.099-2.105 3.046-1.096 4.348 0 0 1.521-1.39 3.201-2.794 1.681-1.404 2.644-1.186 2.644-1.186-1.008-1.302-3.134-1.467-4.749-.368Z"/><path fill="#F1EFED" fill-rule="evenodd" d="M234.868 197.396c1.009 1.302.518 3.248-1.096 4.347-.363.247-.751.43-1.147.551l-.401-3.712c1.681-1.404 2.644-1.186 2.644-1.186Z" clip-rule="evenodd"/><path fill="#000" d="M232.224 198.582c-1.68 1.404-3.201 2.794-3.201 2.794.782 1.009 2.236 1.335 3.602.918l-.401-3.712Z"/><path fill="#000" d="m229.023 201.376.245.239h.001v-.001l.004-.003.012-.012.051-.046.195-.176a102.575 102.575 0 0 1 2.928-2.546l-.469-.498a105.515 105.515 0 0 0-2.948 2.563l-.196.177-.051.047a.1.1 0 0 1-.014.012.014.014 0 0 1-.003.004h-.001v.001l.246.239Zm3.436-2.545c.81-.677 1.427-.946 1.819-1.051.197-.053.34-.065.425-.066a.601.601 0 0 1 .087.003l.012.001h-.002l-.003-.001h-.003l.074-.321.075-.321-.002-.001h-.003l-.007-.002a.393.393 0 0 0-.019-.003l-.055-.008a1.666 1.666 0 0 0-.177-.007c-.147.002-.35.023-.605.091-.509.137-1.214.461-2.085 1.188l.469.498Zm-.583-.222.401 3.712.696-.054-.401-3.712-.696.054Zm.749 3.685.227.628-.227-.628Zm1.681-4.516c.715.923.447 2.476-.951 3.428l.833 1.075c1.831-1.247 2.545-3.587 1.243-5.268l-1.125.765Zm-4.721 3.215c-.715-.923-.447-2.476.951-3.427l-.833-1.075c-1.831 1.246-2.545 3.586-1.243 5.267l1.125-.765Zm.951-3.427c1.397-.951 3.055-.71 3.77.212l1.125-.765c-1.303-1.681-3.897-1.769-5.728-.522l.833 1.075Zm2.819 3.64a3.55 3.55 0 0 1-.957.46l.454 1.256a4.915 4.915 0 0 0 1.336-.641l-.833-1.075Zm-.957.46c-1.151.351-2.255.048-2.813-.673l-1.125.765c1.006 1.299 2.81 1.647 4.392 1.164l-.454-1.256Z" mask="url(#f)"/><path fill="#F1EFED" stroke="#000" stroke-width=".68" d="M233.947 197.121c.379.43.498 1.029.343 1.68-.155.65-.582 1.329-1.259 1.869-.677.54-1.454.821-2.154.853-.7.032-1.299-.185-1.678-.615-.378-.43-.498-1.03-.343-1.68.155-.65.583-1.329 1.259-1.869.677-.54 1.455-.822 2.154-.853.7-.032 1.299.185 1.678.615Z"/><mask id="g" fill="#fff"><path d="M238.598 200.561c-1.615 1.099-2.106 3.045-1.097 4.347 0 0 1.521-1.389 3.202-2.794 1.681-1.404 2.644-1.186 2.644-1.186-1.009-1.302-3.135-1.466-4.749-.367Z"/><path fill-rule="evenodd" d="M243.347 200.928c1.009 1.302.518 3.248-1.097 4.347a4.23 4.23 0 0 1-1.147.551l-.4-3.712c1.681-1.404 2.644-1.186 2.644-1.186Z" clip-rule="evenodd"/><path d="M240.703 202.114c-1.681 1.405-3.202 2.794-3.202 2.794.782 1.01 2.236 1.335 3.602.918l-.4-3.712Z"/></mask><path fill="#000" d="M238.598 200.561c-1.615 1.099-2.106 3.045-1.097 4.347 0 0 1.521-1.389 3.202-2.794 1.681-1.404 2.644-1.186 2.644-1.186-1.009-1.302-3.135-1.466-4.749-.367Z"/><path fill="#F1EFED" fill-rule="evenodd" d="M243.347 200.928c1.009 1.302.518 3.248-1.097 4.347a4.23 4.23 0 0 1-1.147.551l-.4-3.712c1.681-1.404 2.644-1.186 2.644-1.186Z" clip-rule="evenodd"/><path fill="#000" d="M240.703 202.114c-1.681 1.405-3.202 2.794-3.202 2.794.782 1.01 2.236 1.335 3.602.918l-.4-3.712Z"/><path fill="#000" d="m237.501 204.908.246.239.001-.001.003-.003.013-.011.051-.047.194-.175a105.843 105.843 0 0 1 2.929-2.547l-.47-.497a102.625 102.625 0 0 0-3.143 2.74l-.052.047-.013.012a.014.014 0 0 0-.004.003v.001h-.001l.246.239Zm3.437-2.545c.809-.676 1.426-.945 1.819-1.051a1.72 1.72 0 0 1 .425-.066c.043-.001.072.002.087.003l.012.002-.002-.001h-.003l-.002-.001h-.002l.075-.321.075-.321h-.002l-.003-.001-.008-.001-.018-.004-.055-.007a1.423 1.423 0 0 0-.177-.008 2.48 2.48 0 0 0-.605.091c-.51.137-1.215.461-2.086 1.189l.47.497Zm-.583-.221.4 3.711.696-.054-.4-3.712-.696.055Zm.748 3.684.227.628-.227-.628Zm1.682-4.515c.715.923.446 2.476-.951 3.427l.833 1.075c1.831-1.247 2.544-3.587 1.242-5.268l-1.124.766Zm-4.722 3.214c-.715-.922-.446-2.475.951-3.427l-.833-1.075c-1.831 1.247-2.544 3.587-1.242 5.268l1.124-.766Zm.951-3.427c1.398-.951 3.056-.71 3.771.213l1.124-.766c-1.302-1.681-3.897-1.769-5.728-.522l.833 1.075Zm2.82 3.64c-.305.208-.63.36-.957.46l.453 1.256a4.92 4.92 0 0 0 1.337-.641l-.833-1.075Zm-.957.46c-1.152.351-2.255.048-2.814-.673l-1.124.766c1.006 1.298 2.81 1.646 4.391 1.163l-.453-1.256Z" mask="url(#g)"/><path fill="#F1EFED" stroke="#000" stroke-width=".68" d="M242.425 200.653c.379.43.498 1.03.343 1.68-.155.65-.582 1.33-1.259 1.869-.676.54-1.454.822-2.154.853-.699.032-1.299-.185-1.677-.615-.379-.43-.498-1.029-.343-1.679.155-.651.582-1.33 1.259-1.87.676-.54 1.454-.821 2.154-.853.699-.031 1.299.185 1.677.615Z"/><mask id="h" fill="#fff"><path d="M223.881 204.499c-1.614 1.099-2.105 3.046-1.097 4.348 0 0 1.521-1.39 3.202-2.794 1.681-1.404 2.644-1.186 2.644-1.186-1.008-1.302-3.135-1.467-4.749-.368Z"/><path fill-rule="evenodd" d="M228.63 204.867c1.009 1.302.518 3.248-1.096 4.347-.363.247-.752.43-1.147.551l-.401-3.712c1.681-1.404 2.644-1.186 2.644-1.186Z" clip-rule="evenodd"/><path d="M225.986 206.053c-1.681 1.404-3.202 2.794-3.202 2.794.782 1.009 2.236 1.335 3.603.918l-.401-3.712Z"/></mask><path fill="#000" d="M223.881 204.499c-1.614 1.099-2.105 3.046-1.097 4.348 0 0 1.521-1.39 3.202-2.794 1.681-1.404 2.644-1.186 2.644-1.186-1.008-1.302-3.135-1.467-4.749-.368Z"/><path fill="#F1EFED" fill-rule="evenodd" d="M228.63 204.867c1.009 1.302.518 3.248-1.096 4.347-.363.247-.752.43-1.147.551l-.401-3.712c1.681-1.404 2.644-1.186 2.644-1.186Z" clip-rule="evenodd"/><path fill="#000" d="M225.986 206.053c-1.681 1.404-3.202 2.794-3.202 2.794.782 1.009 2.236 1.335 3.603.918l-.401-3.712Z"/><path fill="#000" d="m222.784 208.847.246.239.001-.001.003-.003.013-.012.051-.046.194-.176.705-.629c.589-.522 1.387-1.218 2.224-1.917l-.47-.498a107.76 107.76 0 0 0-3.143 2.74l-.052.047a.064.064 0 0 1-.013.012.007.007 0 0 1-.003.003l-.001.001v.001l.245.239Zm3.437-2.545c.81-.677 1.427-.946 1.819-1.051.197-.053.339-.065.425-.066a.601.601 0 0 1 .099.004h-.002l-.003-.001h-.004l.075-.321.075-.321h-.001l-.001-.001h-.003l-.007-.002a.79.79 0 0 0-.019-.003l-.055-.008a1.679 1.679 0 0 0-.177-.007 2.48 2.48 0 0 0-.605.091c-.509.137-1.215.461-2.086 1.188l.47.498Zm-.583-.222.401 3.712.696-.054-.401-3.712-.696.054Zm.749 3.685.226.628-.226-.628Zm1.681-4.516c.715.923.447 2.476-.951 3.428l.833 1.075c1.831-1.247 2.545-3.587 1.242-5.268l-1.124.765Zm-4.722 3.215c-.715-.923-.446-2.476.951-3.427l-.832-1.075c-1.832 1.246-2.545 3.586-1.243 5.267l1.124-.765Zm.951-3.427c1.398-.952 3.056-.71 3.771.212l1.124-.765c-1.302-1.681-3.896-1.769-5.727-.522l.832 1.075Zm2.82 3.64c-.305.207-.63.36-.957.46l.453 1.256a4.95 4.95 0 0 0 1.337-.641l-.833-1.075Zm-.957.46c-1.151.351-2.255.048-2.814-.673l-1.124.765c1.006 1.299 2.81 1.647 4.391 1.164l-.453-1.256Z" mask="url(#h)"/><path fill="#F1EFED" stroke="#000" stroke-width=".68" d="M227.709 204.592c.378.43.498 1.029.343 1.68-.155.65-.583 1.329-1.259 1.869-.677.54-1.455.821-2.154.853-.7.031-1.3-.185-1.678-.615-.379-.43-.498-1.03-.343-1.68.155-.65.582-1.329 1.259-1.869.677-.54 1.454-.822 2.154-.853.7-.032 1.299.185 1.678.615Z"/><mask id="i" fill="#fff"><path d="M232.359 208.032c-1.614 1.099-2.105 3.045-1.096 4.347 0 0 1.521-1.39 3.202-2.794 1.68-1.404 2.644-1.186 2.644-1.186-1.009-1.302-3.135-1.467-4.75-.367Z"/><path fill-rule="evenodd" d="M237.109 208.399c1.008 1.302.517 3.248-1.097 4.347-.363.247-.751.43-1.147.551l-.4-3.712c1.68-1.404 2.644-1.186 2.644-1.186Z" clip-rule="evenodd"/><path d="M234.465 209.585c-1.681 1.404-3.202 2.794-3.202 2.794.782 1.009 2.236 1.335 3.602.918l-.4-3.712Z"/></mask><path fill="#000" d="M232.359 208.032c-1.614 1.099-2.105 3.045-1.096 4.347 0 0 1.521-1.39 3.202-2.794 1.68-1.404 2.644-1.186 2.644-1.186-1.009-1.302-3.135-1.467-4.75-.367Z"/><path fill="#F1EFED" fill-rule="evenodd" d="M237.109 208.399c1.008 1.302.517 3.248-1.097 4.347-.363.247-.751.43-1.147.551l-.4-3.712c1.68-1.404 2.644-1.186 2.644-1.186Z" clip-rule="evenodd"/><path fill="#000" d="M234.465 209.585c-1.681 1.404-3.202 2.794-3.202 2.794.782 1.009 2.236 1.335 3.602.918l-.4-3.712Z"/><path fill="#000" d="m231.263 212.379.246.239.001-.001.003-.003.013-.012.05-.046.195-.176a105.44 105.44 0 0 1 2.928-2.546l-.469-.498a105.515 105.515 0 0 0-2.947 2.563l-.197.178-.051.046-.013.013a.014.014 0 0 0-.004.003h-.001v.001l.246.239Zm3.436-2.545c.81-.676 1.427-.946 1.82-1.051a1.72 1.72 0 0 1 .424-.066.618.618 0 0 1 .088.003l.012.002-.002-.001h-.003l-.002-.001h-.002l.075-.321.074-.321h-.002l-.003-.001-.007-.002a.26.26 0 0 0-.019-.003l-.055-.007a1.403 1.403 0 0 0-.177-.008c-.147.002-.35.023-.605.091-.509.137-1.214.461-2.085 1.188l.469.498Zm-.582-.221.4 3.711.696-.054-.4-3.712-.696.055Zm.748 3.684.227.628-.227-.628Zm1.682-4.515c.715.922.446 2.475-.951 3.427l.832 1.075c1.832-1.247 2.545-3.587 1.243-5.268l-1.124.766Zm-4.722 3.214c-.715-.923-.447-2.476.951-3.427l-.833-1.075c-1.831 1.247-2.545 3.587-1.242 5.268l1.124-.766Zm.951-3.427c1.397-.951 3.056-.71 3.771.213l1.124-.766c-1.302-1.681-3.897-1.769-5.728-.522l.833 1.075Zm2.82 3.64a3.57 3.57 0 0 1-.958.46l.454 1.256a4.915 4.915 0 0 0 1.336-.641l-.832-1.075Zm-.958.46c-1.151.351-2.255.048-2.813-.673l-1.124.766c1.005 1.298 2.81 1.646 4.391 1.163l-.454-1.256Z" mask="url(#i)"/><path fill="#F1EFED" stroke="#000" stroke-width=".68" d="M236.187 208.124c.379.43.498 1.03.343 1.68-.155.65-.582 1.329-1.259 1.869-.677.54-1.454.822-2.154.853-.699.032-1.299-.185-1.678-.615-.378-.43-.497-1.029-.342-1.68.155-.65.582-1.329 1.259-1.869.676-.54 1.454-.821 2.154-.853.699-.032 1.299.185 1.677.615Z"/><mask id="j" fill="#fff"><path d="M221.374 192.325c-1.614 1.099-2.105 3.045-1.097 4.347 0 0 1.521-1.389 3.202-2.793 1.681-1.404 2.644-1.187 2.644-1.187-1.008-1.302-3.135-1.466-4.749-.367Z"/><path fill-rule="evenodd" d="M226.123 192.692c1.009 1.302.518 3.249-1.096 4.348-.363.247-.751.43-1.147.55l-.401-3.711c1.681-1.404 2.644-1.187 2.644-1.187Z" clip-rule="evenodd"/><path d="M223.479 193.879c-1.681 1.404-3.202 2.793-3.202 2.793.782 1.01 2.236 1.335 3.603.918l-.401-3.711Z"/></mask><path fill="#000" d="M221.374 192.325c-1.614 1.099-2.105 3.045-1.097 4.347 0 0 1.521-1.389 3.202-2.793 1.681-1.404 2.644-1.187 2.644-1.187-1.008-1.302-3.135-1.466-4.749-.367Z"/><path fill="#F1EFED" fill-rule="evenodd" d="M226.123 192.692c1.009 1.302.518 3.249-1.096 4.348-.363.247-.751.43-1.147.55l-.401-3.711c1.681-1.404 2.644-1.187 2.644-1.187Z" clip-rule="evenodd"/><path fill="#000" d="M223.479 193.879c-1.681 1.404-3.202 2.793-3.202 2.793.782 1.01 2.236 1.335 3.603.918l-.401-3.711Z"/><path fill="#000" d="m220.277 196.672.246.239.001-.001.003-.003a.095.095 0 0 0 .013-.011l.051-.046.195-.176a104.443 104.443 0 0 1 2.928-2.547l-.469-.497a105.774 105.774 0 0 0-3.195 2.787l-.014.012-.003.003-.001.001.245.239Zm3.437-2.545c.81-.676 1.427-.945 1.819-1.051.197-.052.339-.065.425-.066.043 0 .072.002.087.003a.113.113 0 0 1 .012.002h-.002l-.003-.001h-.002l-.001-.001.074-.321.075-.321h-.002l-.003-.001-.007-.001-.019-.004-.055-.007a1.403 1.403 0 0 0-.177-.008 2.487 2.487 0 0 0-.605.091c-.509.137-1.214.461-2.085 1.189l.469.497Zm-.583-.221.401 3.712.696-.055-.401-3.712-.696.055Zm.749 3.684.226.629-.226-.629Zm1.681-4.515c.715.923.447 2.476-.951 3.427l.833 1.075c1.831-1.246 2.545-3.586 1.242-5.267l-1.124.765Zm-4.721 3.215c-.715-.923-.447-2.476.951-3.428l-.833-1.075c-1.831 1.247-2.545 3.587-1.243 5.268l1.125-.765Zm.951-3.428c1.397-.951 3.055-.71 3.77.213l1.124-.765c-1.302-1.681-3.896-1.769-5.727-.523l.833 1.075Zm2.819 3.64c-.305.208-.629.36-.957.46l.453 1.257a4.939 4.939 0 0 0 1.337-.642l-.833-1.075Zm-.957.46c-1.151.352-2.255.048-2.813-.672l-1.125.765c1.006 1.298 2.81 1.646 4.391 1.164l-.453-1.257Z" mask="url(#j)"/><path fill="#F1EFED" stroke="#000" stroke-width=".68" d="M225.202 192.417c.378.43.498 1.03.343 1.68-.155.65-.583 1.33-1.259 1.87-.677.539-1.454.821-2.154.853-.7.031-1.299-.186-1.678-.616-.378-.429-.498-1.029-.343-1.679.155-.651.583-1.33 1.259-1.87.677-.539 1.454-.821 2.154-.853.7-.031 1.299.185 1.678.615Z"/><mask id="k" fill="#fff"><path d="M215.136 199.796c-1.614 1.099-2.105 3.045-1.097 4.347 0 0 1.521-1.389 3.202-2.794 1.681-1.404 2.644-1.186 2.644-1.186-1.009-1.302-3.135-1.466-4.749-.367Z"/><path fill-rule="evenodd" d="M219.885 200.163c1.009 1.302.518 3.248-1.097 4.347a4.23 4.23 0 0 1-1.147.551l-.4-3.712c1.681-1.404 2.644-1.186 2.644-1.186Z" clip-rule="evenodd"/><path d="M217.241 201.349c-1.681 1.405-3.202 2.794-3.202 2.794.782 1.01 2.236 1.335 3.602.918l-.4-3.712Z"/></mask><path fill="#000" d="M215.136 199.796c-1.614 1.099-2.105 3.045-1.097 4.347 0 0 1.521-1.389 3.202-2.794 1.681-1.404 2.644-1.186 2.644-1.186-1.009-1.302-3.135-1.466-4.749-.367Z"/><path fill="#F1EFED" fill-rule="evenodd" d="M219.885 200.163c1.009 1.302.518 3.248-1.097 4.347a4.23 4.23 0 0 1-1.147.551l-.4-3.712c1.681-1.404 2.644-1.186 2.644-1.186Z" clip-rule="evenodd"/><path fill="#000" d="M217.241 201.349c-1.681 1.405-3.202 2.794-3.202 2.794.782 1.01 2.236 1.335 3.602.918l-.4-3.712Z"/><path fill="#000" d="m214.039 204.143.246.239.001-.001.003-.003.013-.011.051-.047.194-.175a108.47 108.47 0 0 1 2.929-2.547l-.47-.497a105.061 105.061 0 0 0-3.143 2.74l-.052.047a.18.18 0 0 0-.016.015l-.001.001h-.001l.246.239Zm3.437-2.545c.809-.676 1.426-.945 1.819-1.051a1.72 1.72 0 0 1 .425-.066c.043-.001.072.002.087.003a.113.113 0 0 1 .012.002l-.002-.001h-.003l-.002-.001h-.002l.075-.321.075-.321h-.002l-.003-.001-.007-.001-.019-.004-.055-.007a1.413 1.413 0 0 0-.177-.008 2.48 2.48 0 0 0-.605.091c-.51.137-1.215.461-2.086 1.189l.47.497Zm-.583-.221.4 3.711.696-.054-.4-3.712-.696.055Zm.748 3.684.227.628-.227-.628Zm1.682-4.515c.715.923.446 2.476-.951 3.427l.833 1.075c1.831-1.247 2.544-3.587 1.242-5.268l-1.124.766Zm-4.722 3.214c-.715-.923-.446-2.475.951-3.427l-.833-1.075c-1.831 1.247-2.544 3.587-1.242 5.268l1.124-.766Zm.951-3.427c1.398-.951 3.056-.71 3.771.213l1.124-.766c-1.302-1.681-3.896-1.769-5.728-.522l.833 1.075Zm2.82 3.64c-.305.208-.63.36-.957.46l.453 1.256a4.92 4.92 0 0 0 1.337-.641l-.833-1.075Zm-.957.46c-1.151.351-2.255.048-2.814-.673l-1.124.766c1.006 1.298 2.81 1.646 4.391 1.163l-.453-1.256Z" mask="url(#k)"/><path fill="#F1EFED" stroke="#000" stroke-width=".68" d="M218.964 199.888c.378.43.497 1.03.342 1.68-.154.65-.582 1.33-1.259 1.869-.676.54-1.454.822-2.154.853-.699.032-1.299-.185-1.677-.615-.379-.43-.498-1.029-.343-1.679.155-.651.582-1.33 1.259-1.87.677-.54 1.454-.821 2.154-.853.7-.031 1.299.185 1.678.615Z"/><mask id="l" fill="#fff"><path d="M212.599 188.428c-1.615 1.099-2.106 3.046-1.097 4.348 0 0 1.521-1.39 3.202-2.794 1.681-1.404 2.644-1.186 2.644-1.186-1.009-1.302-3.135-1.467-4.749-.368Z"/><path fill-rule="evenodd" d="M217.348 188.796c1.009 1.302.518 3.248-1.097 4.347a4.23 4.23 0 0 1-1.147.551l-.4-3.712c1.681-1.404 2.644-1.186 2.644-1.186Z" clip-rule="evenodd"/><path d="M214.704 189.982c-1.681 1.404-3.202 2.794-3.202 2.794.782 1.009 2.236 1.335 3.602.918l-.4-3.712Z"/></mask><path fill="#000" d="M212.599 188.428c-1.615 1.099-2.106 3.046-1.097 4.348 0 0 1.521-1.39 3.202-2.794 1.681-1.404 2.644-1.186 2.644-1.186-1.009-1.302-3.135-1.467-4.749-.368Z"/><path fill="#F1EFED" fill-rule="evenodd" d="M217.348 188.796c1.009 1.302.518 3.248-1.097 4.347a4.23 4.23 0 0 1-1.147.551l-.4-3.712c1.681-1.404 2.644-1.186 2.644-1.186Z" clip-rule="evenodd"/><path fill="#000" d="M214.704 189.982c-1.681 1.404-3.202 2.794-3.202 2.794.782 1.009 2.236 1.335 3.602.918l-.4-3.712Z"/><path fill="#000" d="m211.502 192.776.246.239v-.001h.001l.003-.003.013-.012.051-.046.194-.176a100.223 100.223 0 0 1 2.929-2.546l-.47-.498a102.756 102.756 0 0 0-3.143 2.74l-.052.047-.013.012-.004.003v.001h-.001l.246.24Zm3.437-2.545c.809-.677 1.426-.946 1.819-1.051.196-.053.339-.065.425-.067a.726.726 0 0 1 .099.005h-.002l-.003-.001h-.004l.075-.321.075-.321h-.001l-.001-.001h-.003l-.008-.002a.335.335 0 0 0-.018-.003l-.055-.008a1.454 1.454 0 0 0-.177-.007 2.48 2.48 0 0 0-.605.091c-.51.137-1.215.461-2.086 1.188l.47.498Zm-.583-.222.4 3.712.696-.054-.4-3.712-.696.054Zm.748 3.685.227.628-.227-.628Zm1.682-4.516c.715.923.446 2.476-.951 3.427l.833 1.076c1.831-1.247 2.544-3.587 1.242-5.268l-1.124.765Zm-4.722 3.215c-.715-.923-.446-2.476.951-3.427l-.833-1.075c-1.831 1.246-2.544 3.586-1.242 5.267l1.124-.765Zm.951-3.427c1.398-.952 3.056-.711 3.771.212l1.124-.765c-1.302-1.681-3.897-1.769-5.728-.522l.833 1.075Zm2.82 3.639c-.305.208-.63.361-.957.461l.453 1.256a4.95 4.95 0 0 0 1.337-.641l-.833-1.076Zm-.957.461c-1.152.351-2.255.048-2.814-.673l-1.124.765c1.006 1.298 2.81 1.647 4.391 1.164l-.453-1.256Z" mask="url(#l)"/><path fill="#F1EFED" stroke="#000" stroke-width=".68" d="M216.426 188.521c.379.43.498 1.029.343 1.679-.155.651-.582 1.33-1.259 1.87-.676.54-1.454.821-2.154.853-.699.031-1.299-.185-1.677-.615-.379-.43-.498-1.03-.343-1.68.155-.65.582-1.33 1.259-1.869.676-.54 1.454-.822 2.154-.853.699-.032 1.299.185 1.677.615Z"/><mask id="m" fill="#fff"><path d="M206.36 195.899c-1.614 1.099-2.105 3.046-1.096 4.348 0 0 1.521-1.39 3.202-2.794 1.68-1.404 2.644-1.186 2.644-1.186-1.009-1.302-3.135-1.467-4.75-.368Z"/><path fill-rule="evenodd" d="M211.11 196.267c1.008 1.302.517 3.248-1.097 4.347-.363.247-.751.43-1.147.551l-.4-3.712c1.68-1.404 2.644-1.186 2.644-1.186Z" clip-rule="evenodd"/><path d="M208.466 197.453c-1.681 1.404-3.202 2.794-3.202 2.794.782 1.009 2.236 1.335 3.602.918l-.4-3.712Z"/></mask><path fill="#000" d="M206.36 195.899c-1.614 1.099-2.105 3.046-1.096 4.348 0 0 1.521-1.39 3.202-2.794 1.68-1.404 2.644-1.186 2.644-1.186-1.009-1.302-3.135-1.467-4.75-.368Z"/><path fill="#F1EFED" fill-rule="evenodd" d="M211.11 196.267c1.008 1.302.517 3.248-1.097 4.347-.363.247-.751.43-1.147.551l-.4-3.712c1.68-1.404 2.644-1.186 2.644-1.186Z" clip-rule="evenodd"/><path fill="#000" d="M208.466 197.453c-1.681 1.404-3.202 2.794-3.202 2.794.782 1.009 2.236 1.335 3.602.918l-.4-3.712Z"/><path fill="#000" d="m205.264 200.247.246.239v-.001h.001l.003-.003.013-.012.05-.046.195-.176a109.435 109.435 0 0 1 2.928-2.546l-.469-.498a105.515 105.515 0 0 0-2.947 2.563l-.197.177a1.19 1.19 0 0 1-.051.047l-.013.012-.004.003-.001.001.246.24Zm3.436-2.545c.81-.677 1.427-.946 1.82-1.051.196-.053.339-.065.424-.067a.747.747 0 0 1 .1.005h-.002l-.003-.001h-.004c0-.001-.001-.001.075-.321l.074-.321-.002-.001h-.003l-.007-.002a.26.26 0 0 0-.019-.003l-.055-.008a1.435 1.435 0 0 0-.177-.007c-.147.002-.35.022-.605.091-.509.137-1.214.461-2.085 1.188l.469.498Zm-.582-.222.4 3.712.696-.054-.4-3.712-.696.054Zm.748 3.685.227.628-.227-.628Zm1.682-4.516c.715.923.446 2.476-.951 3.427l.832 1.076c1.832-1.247 2.545-3.587 1.243-5.268l-1.124.765Zm-4.722 3.215c-.715-.923-.447-2.476.951-3.427l-.833-1.075c-1.831 1.246-2.545 3.586-1.242 5.267l1.124-.765Zm.951-3.427c1.397-.952 3.056-.711 3.771.212l1.124-.765c-1.303-1.681-3.897-1.769-5.728-.522l.833 1.075Zm2.82 3.639c-.306.208-.63.361-.958.461l.454 1.256a4.944 4.944 0 0 0 1.336-.641l-.832-1.076Zm-.958.461c-1.151.351-2.255.048-2.813-.673l-1.124.765c1.005 1.298 2.809 1.647 4.391 1.164l-.454-1.256Z" mask="url(#m)"/><path fill="#F1EFED" stroke="#000" stroke-width=".68" d="M210.188 195.992c.379.43.498 1.029.343 1.679-.155.651-.582 1.33-1.259 1.87-.677.54-1.454.821-2.154.853-.7.031-1.299-.185-1.678-.615-.378-.43-.497-1.03-.342-1.68.155-.65.582-1.33 1.259-1.869.676-.54 1.454-.822 2.154-.853.699-.032 1.299.185 1.677.615Z"/><defs><linearGradient id="a" x1="246.693" x2="292.538" y1="164.679" y2="203.372" gradientUnits="userSpaceOnUse"><stop stop-color="#D6FFBB"/><stop offset="1" stop-color="#5869DD"/></linearGradient><linearGradient id="b" x1="306.118" x2="424.249" y1="92.162" y2="90.54" gradientUnits="userSpaceOnUse"><stop stop-color="#D6FFBB"/><stop offset="1" stop-color="#5869DD"/></linearGradient><linearGradient id="c" x1="159.651" x2="180.203" y1="220.17" y2="276.221" gradientUnits="userSpaceOnUse"><stop stop-color="#D6FFBB"/><stop offset="1" stop-color="#5869DD"/></linearGradient><linearGradient id="d" x1="128.655" x2="179.781" y1="237.708" y2="288.223" gradientUnits="userSpaceOnUse"><stop stop-color="#D6FFBB"/><stop offset="1" stop-color="#5869DD"/></linearGradient><linearGradient id="e" x1="253.892" x2="306.737" y1="130.724" y2="180.317" gradientUnits="userSpaceOnUse"><stop stop-color="#D6FFBB"/><stop offset="1" stop-color="#5869DD"/></linearGradient></defs></svg>
