<svg xmlns="http://www.w3.org/2000/svg" width="241" height="197" fill="none" viewBox="0 0 241 197"><path fill="#000" d="M240.664 14.09c-4.802.528-9.715 1.215-14.587 1.984l-.252.646c4.872-.77 9.743-1.538 14.545-2.065l.294-.564ZM211.014 19.025a272.802 272.802 0 0 0-15.3 4l-.125.89c5.081-1.496 10.204-2.91 15.258-4.082l.167-.808ZM180.176 28.077a239.165 239.165 0 0 0-15.382 6.104l.266.892c5.095-2.223 10.078-4.286 15.187-6.105l-.071-.89ZM149.608 41.42a257.667 257.667 0 0 0-14.682 8.213l.616.814a252.728 252.728 0 0 1 14.528-8.134l-.462-.894ZM120.818 58.58a214.368 214.368 0 0 0-13.183 9.6l1.121.657a417.457 417.457 0 0 1 13.029-9.521l-.967-.737ZM95.293 78.274l-5.85 5.292c-.909.883-2.014 1.764-2.924 2.646L83.79 88.86l1.583.418L88.1 86.63c.91-.882 1.861-1.684 2.77-2.566l5.696-5.213-1.274-.577ZM73.506 99.539c-3.204 3.615-6.366 7.311-9.178 10.929l2.002.097a218.981 218.981 0 0 1 9.024-10.85l-1.848-.176ZM56.256 121.648a166.4 166.4 0 0 0-6.784 11.03l2.268-.144a161.827 161.827 0 0 1 6.672-10.869l-2.156-.017ZM43.78 143.554l-4.712 10.885 2.688-.463 4.446-10.645-2.422.223ZM35.405 165.091l-2.963 10.495 2.758-.706 2.85-10.334-2.645.545ZM29.984 185.924l-2.5 10.256 2.8-.624 2.612-10.417-2.912.785Z"/><path fill="#000" d="m88.193 140.023-4.724-36.911-17.161-7.18.001-.002-.005-.002 2.362 18.456-34.33-14.365-.002-.018-2.36-18.438-17.164-7.182 4.724 36.912 68.659 28.73Z"/><path fill="#F1EFED" d="m98.272 91.842-14.8 11.272-.003-.002 4.724 36.911 14.802-11.274-4.724-36.907ZM98.27 91.837l-17.16-7.18-14.8 11.273 17.158 7.18L98.27 91.837ZM31.967 81.554l14.8-11.272v-.003L29.605 63.1 14.803 74.371l17.164 7.182ZM34.336 100.019l34.33 14.365-2.372-18.469-17.165-7.182L34.334 100l.002.018Z"/><path fill="#000" d="m88.193 140.023-.386.922c.33.138.707.09.992-.127l-.606-.795Zm-21.89-44.095.386-.922a1 1 0 0 0-1.377 1.049l.992-.127Zm2.363 18.456-.386.923a1 1 0 0 0 1.378-1.05l-.992.127Zm-34.33-14.365-.992.127a1 1 0 0 0 .606.796l.386-.923Zm-2.362-18.456.992-.127a1 1 0 0 0-.606-.795l-.386.922ZM14.81 74.381l.386-.922a1 1 0 0 0-1.378 1.05l.992-.128Zm4.724 36.912-.992.127a1 1 0 0 0 .606.796l.386-.923Zm12.433-29.739-.386.923a1 1 0 0 0 .992-.127l-.606-.796ZM46.77 70.28l.605.796a1 1 0 0 0-.22-1.718l-.385.922ZM29.605 63.1l.386-.923a1 1 0 0 0-.992.127l.606.796ZM14.803 74.371l-.606-.795a1 1 0 0 0 .22 1.718l.386-.923Zm32.955-4.223a1 1 0 0 0-1.983.254l1.983-.254ZM33.721 99.211a1 1 0 1 0 1.211 1.591l-1.211-1.591Zm32.573-3.296.992-.127a1 1 0 0 0-.606-.795l-.386.922Zm17.179 7.199-.386.922c.33.138.707.09.992-.127l-.606-.795ZM98.275 91.84l.606.795a1 1 0 0 0-.22-1.718l-.386.923ZM81.11 84.657l.386-.922a1 1 0 0 0-.992.127l.606.795ZM66.308 95.931l-.606-.795a1 1 0 0 0 .22 1.718l.386-.923Zm31.963-4.094.992-.127a1 1 0 0 0-1.598-.67l.606.796Zm4.724 36.912.606.795a1 1 0 0 0 .386-.922l-.992.127ZM65.312 96.055l2.362 18.456 1.984-.254-2.363-18.456-1.983.254Zm3.74 17.407-34.33-14.365-.772 1.845 34.33 14.365.772-1.845ZM32.36 80.641l-17.164-7.182-.772 1.845 17.164 7.182.772-1.845Zm-18.542-6.133 4.724 36.912 1.984-.254-4.724-36.912-1.984.254Zm5.33 37.708 68.659 28.729.772-1.845-68.659-28.729-.772 1.845Zm9.851-49.913L14.197 73.577l1.212 1.59L30.21 63.895 29 62.303ZM14.417 75.295l17.164 7.182.772-1.845L15.19 73.45l-.772 1.845Zm34.326 14.36 17.165 7.183.772-1.845-17.165-7.183-.772 1.845Zm53.646 38.298-14.802 11.274 1.212 1.591 14.802-11.274-1.212-1.591Zm-13.204 11.943-4.725-36.911-1.983.254 4.724 36.91 1.984-.253Zm-5.33-37.707-17.161-7.18-.772 1.845 17.16 7.18.773-1.845Zm-16.941-5.462.001-.001-1.212-1.591h-.001l1.212 1.592Zm-.219-1.72-.005-.002-.772 1.846.005.002.772-1.845Zm-31.367 4.885-.002-.018-1.984.254.002.018 1.984-.254Zm-.002-.018-2.36-18.438-1.984.254 2.36 18.438 1.984-.254Zm13.197-11.937L33.728 99.205l1.212 1.591 14.795-11.268-1.212-1.59ZM33.728 99.205l-.007.006 1.211 1.591.008-.006-1.212-1.59Zm46.776-15.343-14.8 11.273 1.211 1.59 14.801-11.272-1.212-1.591Zm3.35 18.326-17.159-7.18-.772 1.845 17.16 7.18.771-1.845Zm-.771 1.846.004.002.772-1.845-.004-.002-.772 1.845Zm1.377-1.049v-.002l-1.984.254v.002l1.984-.254Zm13.206-11.938-14.8 11.271 1.213 1.591 14.798-11.271-1.211-1.591Zm6.321 37.575-4.724-36.907-1.983.254 4.723 36.907 1.984-.254Zm-6.708-36.659v.006l1.984-.253v-.006l-1.984.253Zm1.598.675.004-.003-1.212-1.59-.003.002 1.211 1.591Zm-.222-1.723-17.159-7.18-.772 1.845 17.16 7.18.771-1.845Zm-14.58 12.991 14.8-11.273-1.212-1.591-14.8 11.273 1.211 1.591Zm14.8-11.273.002-.001-1.212-1.591h-.002l1.212 1.592Zm-.214-1.716-.006-.002-.772 1.845.006.002.772-1.845ZM32.573 82.35l14.8-11.272-1.212-1.591-14.8 11.272 1.212 1.59ZM47.76 70.155v-.003l-1.984.254v.003l1.984-.254Zm-.606-.798L29.99 62.176l-.772 1.845 17.162 7.18.772-1.844Zm.003.001-.003-.001-.772 1.845h.002l.773-1.844Zm-1.381 1.045v.003l1.984-.254v-.003l-1.984.254Zm0 .006 2.362 18.45 1.984-.253-2.362-18.45-1.984.253Zm1.598.669.003-.002-1.212-1.591-.003.002 1.212 1.59Zm22.285 43.179-2.373-18.47-1.983.255 2.372 18.47 1.984-.255Zm-21.135-26.32L33.721 99.211l1.211 1.591 14.803-11.274-1.212-1.59ZM148.123 71.05l27.513-28.247-21.911 6.181-.026-.026-.005.018-5.589 22.013.018.062Z"/><path fill="#F1EFED" d="M175.636 42.803 164.93 4.852l-11.231 44.106.026.026 21.911-6.181Z"/><path fill="#F1EFED" d="M164.93 4.852 137.417 33.1l16.282 15.858L164.93 4.852ZM153.694 48.976l.005-.018L137.417 33.1l10.688 37.889 5.589-22.013Z"/><path fill="#000" d="m137.417 33.1-.717-.698a1 1 0 0 0-.246.97l.963-.272ZM164.93 4.852l.962-.272a1 1 0 0 0-1.679-.426l.717.698Zm10.706 37.95.716.699a.998.998 0 0 0 .246-.97l-.962.272Zm-27.513 28.249-.963.271a1.001 1.001 0 0 0 1.679.426l-.716-.697Zm5.602-22.067-.698.717c.256.249.626.343.97.246l-.272-.963Zm-.031-.008-.969-.246.969.246Zm-6.572 21.82a1 1 0 0 0 1.939.493l-1.939-.492Zm-8.989-36.999L165.646 5.55l-1.433-1.395L136.7 32.402l1.433 1.395Zm25.834-28.674 10.706 37.951 1.925-.543-10.706-37.95-1.925.542Zm10.953 36.982-27.513 28.248 1.432 1.395L176.352 43.5l-1.432-1.395Zm.444-.265-21.91 6.182.543 1.925 21.91-6.182-.543-1.925Zm-20.941 6.428-.027-.026-1.395 1.433.026.026 1.396-1.433Zm-1.694.444-.004.018 1.938.493.005-.018-1.939-.493Zm-.004.018-5.589 22.013 1.939.492 5.588-22.013-1.938-.492Zm-5.582 22.53.017.062 1.925-.543-.017-.062-1.925.543Zm-.007-.517-.014.054 1.939.492.014-.054-1.939-.492Zm1.932-.026-10.689-37.889-1.925.543 10.689 37.89 1.925-.544Zm5.6-21.512 11.231-44.107-1.938-.493-11.232 44.107 1.939.493Zm-.272-.963-16.281-15.859-1.396 1.433 16.282 15.859 1.395-1.433Z"/></svg>
