<svg
  width="80"
  height="80"
  viewBox="0 0 80 80"
  fill="none"
  xmlns="http://www.w3.org/2000/svg"
>
  <path
    d="M27.4961 57.5006C26.8331 57.5006 26.1972 57.2372 25.7283 56.7684C25.2595 56.2995 24.9961 55.6637 24.9961 55.0006V25.0006C24.9963 24.5746 25.1054 24.1558 25.313 23.7838C25.5205 23.4118 25.8197 23.099 26.1821 22.8751C26.5445 22.6512 26.9581 22.5237 27.3836 22.5045C27.8092 22.4853 28.2325 22.5752 28.6136 22.7656L58.6136 37.7656C59.0283 37.9735 59.377 38.2926 59.6207 38.6873C59.8644 39.082 59.9934 39.5367 59.9934 40.0006C59.9934 40.4645 59.8644 40.9192 59.6207 41.3139C59.377 41.7086 59.0283 42.0278 58.6136 42.2356L28.6136 57.2356C28.2667 57.4094 27.8841 57.5001 27.4961 57.5006Z"
    fill="#F1EFED"
  />
  <path
    d="M40 4.99219C33.0777 4.99219 26.3108 7.0449 20.5551 10.8908C14.7993 14.7366 10.3133 20.2029 7.66423 26.5983C5.01516 32.9937 4.32205 40.031 5.67253 46.8203C7.02301 53.6097 10.3564 59.8461 15.2513 64.7409C20.1461 69.6358 26.3825 72.9692 33.1719 74.3197C39.9612 75.6702 46.9985 74.977 53.3939 72.328C59.7893 69.6789 65.2556 65.1929 69.1015 59.4371C72.9473 53.6814 75 46.9145 75 39.9922C75 30.7096 71.3125 21.8072 64.7487 15.2435C58.185 8.67968 49.2826 4.99219 40 4.99219ZM58.6175 42.2297L28.6175 57.2297C28.2363 57.4202 27.8127 57.5101 27.3869 57.4908C26.9612 57.4715 26.5474 57.3437 26.1849 57.1195C25.8225 56.8953 25.5234 56.5822 25.316 56.2099C25.1086 55.8375 24.9998 55.4184 25 54.9922V24.9922C25.0002 24.5662 25.1093 24.1474 25.3169 23.7754C25.5244 23.4034 25.8236 23.0906 26.186 22.8667C26.5484 22.6428 26.962 22.5152 27.3875 22.4961C27.8131 22.4769 28.2365 22.5668 28.6175 22.7572L58.6175 37.7572C59.0322 37.965 59.3809 38.2842 59.6246 38.6789C59.8683 39.0736 59.9973 39.5283 59.9973 39.9922C59.9973 40.4561 59.8683 40.9108 59.6246 41.3055C59.3809 41.7002 59.0322 42.0193 58.6175 42.2272V42.2297Z"
    fill="black"
    fill-opacity="0.3"
  />
</svg>
