<svg xmlns="http://www.w3.org/2000/svg" width="1601" height="708" fill="none" viewBox="0 0 1601 708"><path fill="#000" d="M140.782 3a7.747 7.747 0 1 0-.07 15.493A7.747 7.747 0 0 0 140.781 3Z"/><path fill="#F0EFED" stroke="#000" stroke-width="1.291" d="M124.646 7.714a7.102 7.102 0 1 1 14.2.066 7.102 7.102 0 0 1-14.2-.066Z"/><path fill="#000" d="M809.782 60a7.747 7.747 0 1 0-.07 15.493 7.747 7.747 0 0 0 .07-15.493Z"/><path fill="#F0EFED" stroke="#000" stroke-width="1.291" d="M793.646 64.714a7.102 7.102 0 1 1 14.2.066 7.102 7.102 0 0 1-14.2-.066Z"/><path stroke="#8F8E93" stroke-linejoin="round" stroke-width="2" d="M800 65h-77.5m0 0h-16.396V34.07h35.823V9H673m49.5 56v132H766v-40M131 9H89v35m0 0H42v58H0m89-58v169h533v90H472v24h150M1452 180.462h56V295h-38v155h53m-71-269.538V135h-112m112 45.462v58.39h-187V269m-156 181h323.5M1265 370.82h144V450h23.5M869 325.926h-95m0 0h-95v-87.074h150V269h232m-287 56.926v44.894h249V295h-88M651 403h100m310-60v60H751m681.5 47v61h90.5m-328-130h-86V269h156m0 0v56.926h144M751 403v138" opacity=".2"/><path stroke="#8F8E93" stroke-width="2" d="M26.5 561.495V582H96v110h204v-33.5H120v19h74m114.5-116.005h-74m518 116.005h-419v-39.005h-200v-77h101M590 582v-74h118v-79M590 582v19h-75v-36.5h-55v57.748M590 582h118m-248 70.495v-30.247m0 0h-67m-158.5-60.753V582h99v-31" opacity=".2"/><g fill="#8F8E93" opacity=".2"><path d="m995.347 323.169 3.058-1.123a26.202 26.202 0 0 0-1.414-3.171l-2.882 1.521a22.84 22.84 0 0 1 1.238 2.773ZM995.167 315.919a26.422 26.422 0 0 0-2.199-2.685l-2.378 2.225a23.058 23.058 0 0 1 1.925 2.352l2.652-1.892Z"/><path d="M999.382 325.368v.008l-3.181.706c2.737 12.298-5.013 24.487-17.312 27.225-12.298 2.737-24.487-5.014-27.225-17.312-2.737-12.299 5.013-24.487 17.312-27.225 6.83-1.52 13.98.178 19.397 4.607l2.063-2.522c-11.125-9.077-27.503-7.417-36.581 3.709-9.077 11.125-7.417 27.503 3.708 36.581 11.126 9.077 27.504 7.417 36.581-3.709a25.984 25.984 0 0 0 5.238-22.068Z"/><path d="m962.578 332.148 11.361 16.41 11.361-16.41-11.361-18.937-11.361 18.937Zm11.361 10.686-4.78-6.911 4.78 2.132 4.781-2.132-4.781 6.911Zm0-8.344-7.08-3.147 7.08-11.799 7.081 11.799-7.081 3.147ZM1140.99 316.883c-.67 0-1.21.542-1.21 1.21a1.21 1.21 0 1 0 2.42 0c0-.668-.54-1.21-1.21-1.21Z"/><path d="M1174.92 331.355a1.228 1.228 0 0 0-.86-.355c-.01.002-.48-.024-.86.355l-.85.855-2.78-2.781c6.14-8.607 5.2-20.48-2.36-28.04-8.52-8.518-22.3-8.519-30.82 0-8.52 8.516-8.52 22.304 0 30.822 7.54 7.543 19.41 8.511 28.04 2.355l2.78 2.782-.86.856c-.47.473-.47 1.24 0 1.713l15.31 15.308a6.046 6.046 0 0 0 8.56 0 6.043 6.043 0 0 0 0-8.561l-15.3-15.309Zm-6 4.281-2.59-2.593c.3-.27.6-.547.88-.832.29-.285.56-.58.83-.88l2.6 2.592-1.72 1.713Zm-30.82-5.137c-7.57-7.571-7.57-19.826 0-27.398 7.57-7.571 19.83-7.572 27.4 0 7.55 7.554 7.59 19.806 0 27.398-7.68 7.679-19.93 7.468-27.4 0Zm35.96 3.424 3.42 3.425-5.13 5.137-3.43-3.425 5.14-5.137Zm14.45 19.59a3.62 3.62 0 0 1-5.13 0l-9.32-9.316 5.14-5.137 9.31 9.317a3.629 3.629 0 0 1 0 5.136Z"/><path d="M1163.79 304.812c-6.63-6.622-17.35-6.626-23.98-.001-6.61 6.609-6.61 17.364 0 23.974 6.63 6.625 17.35 6.626 23.98 0 6.6-6.61 6.61-17.364 0-23.973Zm-1.72 22.26c-5.68 5.679-14.87 5.68-20.55.001-5.66-5.666-5.66-14.884 0-20.55 5.68-5.676 14.88-5.677 20.55.001 5.67 5.665 5.67 14.883 0 20.548Z"/><path d="M1151.8 304.695c-3.24 0-6.28 1.26-8.56 3.546a11.924 11.924 0 0 0-2.9 4.651 1.22 1.22 0 0 0 .76 1.536 1.22 1.22 0 0 0 1.54-.757 9.454 9.454 0 0 1 2.31-3.718 9.622 9.622 0 0 1 6.85-2.836c.67 0 1.21-.542 1.21-1.211a1.21 1.21 0 0 0-1.21-1.211ZM1345.87 279.86a4.137 4.137 0 0 0-3.99 3.099h-2.26a20.62 20.62 0 0 0-7.18-14.636v-3.959c0-1.141.92-2.066 2.06-2.066h5.32a4.126 4.126 0 0 0 4.52 3.066 4.134 4.134 0 0 0 0-8.199 4.127 4.127 0 0 0-4.52 3.067h-5.32c-2.28 0-4.13 1.85-4.13 4.132v2.39a20.512 20.512 0 0 0-10.33-3.371v-2.265a4.133 4.133 0 1 0-2.06 0v2.265c-3.69.175-7.26 1.34-10.34 3.371v-2.39a4.132 4.132 0 0 0-4.13-4.132h-5.31a4.133 4.133 0 0 0-4.52-3.067 4.126 4.126 0 0 0-3.61 4.1 4.125 4.125 0 0 0 3.61 4.099c2.06.262 4-1.051 4.52-3.066h5.31c1.14 0 2.07.925 2.07 2.066v3.959a20.583 20.583 0 0 0-7.18 14.636h-2.27a4.127 4.127 0 0 0-4.52-3.066 4.135 4.135 0 0 0-3.61 4.1c0 2.08 1.55 3.837 3.61 4.099 2.07.262 4-1.051 4.52-3.066h2.27a20.587 20.587 0 0 0 7.18 14.637v3.958a2.07 2.07 0 0 1-2.07 2.066h-5.31a4.134 4.134 0 0 0-4.52-3.066 4.126 4.126 0 0 0-3.61 4.1c0 2.08 1.54 3.837 3.61 4.099 2.06.262 4-1.052 4.52-3.066h5.31c2.28 0 4.13-1.85 4.13-4.133v-2.39a20.537 20.537 0 0 0 10.34 3.371v2.265a4.133 4.133 0 1 0 2.06 0v-2.265a20.502 20.502 0 0 0 10.33-3.371v2.39a4.132 4.132 0 0 0 4.13 4.133h5.32a4.127 4.127 0 0 0 4.52 3.066 4.134 4.134 0 0 0 0-8.199 4.127 4.127 0 0 0-4.52 3.066h-5.32c-1.14 0-2.06-.925-2.06-2.066v-3.958c4.3-3.685 6.9-8.979 7.18-14.637h2.26a4.125 4.125 0 0 0 4.69 3.025 4.115 4.115 0 0 0 3.41-4.42 4.12 4.12 0 0 0-4.11-3.771Zm-2.07-20.662c1.14 0 2.07.925 2.07 2.067a2.07 2.07 0 0 1-2.07 2.066c-1.14 0-2.06-.925-2.06-2.066 0-1.142.92-2.067 2.06-2.067Zm-49.59 4.133c-1.14 0-2.06-.925-2.06-2.066 0-1.142.92-2.067 2.06-2.067 1.15 0 2.07.925 2.07 2.067 0 .548-.22 1.073-.6 1.461a2.09 2.09 0 0 1-1.47.605Zm0 45.456c-1.14 0-2.06-.925-2.06-2.066a2.065 2.065 0 1 1 4.13 0c0 1.141-.92 2.066-2.07 2.066Zm49.59-4.133c1.14 0 2.07.925 2.07 2.067a2.07 2.07 0 0 1-2.07 2.066c-1.14 0-2.06-.925-2.06-2.066 0-1.141.92-2.067 2.06-2.067Zm-26.86-47.522a2.07 2.07 0 0 1 2.07-2.066c1.14 0 2.06.925 2.06 2.066 0 1.141-.92 2.066-2.06 2.066a2.07 2.07 0 0 1-2.07-2.066Zm-24.79 28.927a2.07 2.07 0 0 1-2.07-2.066 2.07 2.07 0 0 1 2.07-2.067c1.14 0 2.06.925 2.06 2.067 0 1.141-.92 2.066-2.06 2.066Zm28.92 24.794c0 1.141-.92 2.066-2.06 2.066a2.07 2.07 0 0 1-2.07-2.066 2.07 2.07 0 0 1 2.07-2.066c1.14 0 2.06.925 2.06 2.066Zm-2.06-8.265c-10.27 0-18.6-8.325-18.6-18.595 0-10.271 8.33-18.596 18.6-18.596 10.27 0 18.59 8.325 18.59 18.596-.01 10.265-8.33 18.583-18.59 18.595Zm26.86-16.529a2.07 2.07 0 0 1-2.07-2.066 2.07 2.07 0 0 1 2.07-2.067c1.14 0 2.06.925 2.06 2.067 0 1.141-.92 2.066-2.06 2.066Z"/><path d="M1331.41 282.956c-.57 0-1.04-.462-1.04-1.033v-3.099a11.384 11.384 0 0 0-10.82-11.356c-6.05-.303-11.28 4.189-11.9 10.22-.06.567.36 1.074.92 1.131.57.057 1.08-.357 1.14-.925a9.393 9.393 0 0 1 9.3-8.368c5.13.006 9.29 4.165 9.3 9.298v3.099c0 1.712 1.38 3.1 3.1 3.1.57 0 1.03-.463 1.03-1.033 0-.571-.46-1.034-1.03-1.034Z"/><path d="M1331.41 287.09a5.165 5.165 0 0 1-5.17-5.165v-3.1a7.232 7.232 0 0 0-7.23-7.231c-4 0-7.23 3.237-7.23 7.231v.154c0 1.056-.86 1.911-1.92 1.913h-1.18c-.57 0-1.04.462-1.04 1.033 0 .57.47 1.033 1.04 1.033h1.18a3.981 3.981 0 0 0 3.98-3.979v-.154a5.17 5.17 0 0 1 5.17-5.165c2.85 0 5.16 2.312 5.16 5.165v3.099a7.245 7.245 0 0 0 7.24 7.232c.57 0 1.03-.462 1.03-1.033a1.03 1.03 0 0 0-1.03-1.033Z"/><path d="M1322.11 278.827c0-.913-.41-1.779-1.1-2.368a3.108 3.108 0 0 0-2.52-.689 3.194 3.194 0 0 0-2.58 3.174 6.15 6.15 0 0 1-6.2 6.081c-.57 0-1.03.463-1.03 1.033 0 .571.46 1.034 1.03 1.034 4.53.026 8.23-3.618 8.26-8.149-.02-.532.34-1.007.85-1.136.31-.054.62.029.85.226.24.197.37.487.37.794 0 5.696-4.17 10.331-9.3 10.331-.57 0-1.03.462-1.03 1.033 0 .57.46 1.033 1.03 1.033 6.27 0 11.37-5.561 11.37-12.397ZM1328.31 290.191a6.652 6.652 0 0 1-5.34-2.643 1.033 1.033 0 0 0-1.43-.279c-.48.317-.6.956-.29 1.429a8.75 8.75 0 0 0 7.06 3.559c.57 0 1.03-.462 1.03-1.033 0-.57-.46-1.033-1.03-1.033ZM1326.49 294.358c-2-.514-3.8-1.617-5.16-3.166a2.039 2.039 0 0 0-2.49-.463 13.338 13.338 0 0 1-6.03 1.531c-.57 0-1.03.463-1.03 1.033 0 .571.46 1.034 1.03 1.034 2.43-.025 4.82-.633 6.97-1.773a12.33 12.33 0 0 0 6.21 3.808 1.028 1.028 0 0 0 1.27-.877 1.019 1.019 0 0 0-.77-1.127Z"/><path d="M1323.39 297.455a6.826 6.826 0 0 1-3.01-1.653 2.845 2.845 0 0 0-3.08-.535 8.94 8.94 0 0 1-3.46.744c-.57 0-1.03.462-1.03 1.033s.46 1.033 1.03 1.033a10.98 10.98 0 0 0 4.27-.909c.29-.125.62-.07.86.141a8.833 8.833 0 0 0 3.92 2.152c.56.137 1.12-.201 1.25-.755a1.03 1.03 0 0 0-.75-1.251ZM718.25 256.375h2.25v9h2.25v-9H725v-2.25h-6.75v2.25ZM745.25 256.375h2.25v9h2.25v-9H752v-2.25h-6.75v2.25ZM727.25 255.25v9a1.123 1.123 0 0 0 1.125 1.125H734v-2.25h-4.5v-2.25h4.5v-2.25h-4.5v-2.25h4.5v-2.25h-5.625a1.123 1.123 0 0 0-1.125 1.125ZM736.25 257.5a3.373 3.373 0 0 0 3.375 3.375A1.123 1.123 0 0 1 740.75 262a1.123 1.123 0 0 1-1.125 1.125h-3.375v2.25h3.375A3.373 3.373 0 0 0 743 262a3.373 3.373 0 0 0-3.375-3.375 1.123 1.123 0 0 1-1.125-1.125 1.123 1.123 0 0 1 1.125-1.125H743v-2.25h-3.375a3.373 3.373 0 0 0-3.375 3.375Z"/><path d="M714.875 269.875h40.5a1.123 1.123 0 0 0 1.125-1.125v-18a1.123 1.123 0 0 0-1.125-1.125h-40.5a1.123 1.123 0 0 0-1.125 1.125v18a1.123 1.123 0 0 0 1.125 1.125Zm1.125-18h38.25v15.75H716v-15.75ZM713.75 283.377h6.75a1.123 1.123 0 0 0 1.125-1.125v-6.289l3.049-3.037-1.598-1.598-3.037 3.049h-6.289a1.122 1.122 0 0 0-1.125 1.125v6.75a1.125 1.125 0 0 0 1.125 1.125Zm5.625-2.25h-2.914l2.914-2.914v2.914Zm-1.586-4.5-2.914 2.914v-2.914h2.914ZM720.5 296.875h-6.75a1.123 1.123 0 0 0-1.125 1.125v6.75a1.123 1.123 0 0 0 1.125 1.125h6.75a1.123 1.123 0 0 0 1.125-1.125V298a1.123 1.123 0 0 0-1.125-1.125Zm-1.125 6.75h-4.5v-4.5h4.5v4.5ZM721.951 283.703l-1.912 1.924h-6.289a1.122 1.122 0 0 0-1.125 1.125v6.75a1.125 1.125 0 0 0 1.125 1.125h6.75a1.123 1.123 0 0 0 1.125-1.125v-6.289l1.924-1.912-1.598-1.598Zm-4.162 4.174-2.914 2.914v-2.914h2.914Zm1.586 4.5h-2.914l2.914-2.914v2.914ZM723.875 275.5H756.5v2.25h-32.625v-2.25ZM723.875 298H738.5v2.25h-14.625V298ZM723.875 302.5H756.5v2.25h-32.625v-2.25Z"/><path d="m777.549 269.076-4.5-4.5a1.135 1.135 0 0 0-.799-.333 1.127 1.127 0 0 0-.799.333l-9.326 9.338V246.25a1.123 1.123 0 0 0-1.125-1.125h-51.75a1.123 1.123 0 0 0-1.125 1.125v67.5a1.123 1.123 0 0 0 1.125 1.125H761a1.123 1.123 0 0 0 1.125-1.125v-27.664l15.424-15.412a1.135 1.135 0 0 0 .333-.799 1.127 1.127 0 0 0-.333-.799Zm-31.917 25.268 2.149 2.149-3.768 1.619 1.619-3.768Zm1.204-1.969 20.914-20.914 2.914 2.914-20.914 20.914-2.914-2.914Zm13.039 20.25h-49.5v-65.25h49.5v28.789L756.039 280h-32.164v2.25h29.914l-4.5 4.5h-25.414V289h23.164l-2.25 2.25h-20.914v2.25h19.665l-2.7 6.311a1.13 1.13 0 0 0 .503 1.43 1.123 1.123 0 0 0 .971.044l7.875-3.375c.133-.057.254-.137.36-.236l9.326-9.338v24.289Zm12.375-39.836-2.914-2.914 2.914-2.914 2.914 2.914-2.914 2.914ZM1374.6 411.944l8.87 3.135a1.318 1.318 0 0 0 .88-2.487l-8.87-3.135 1.76-4.973 2.79.989c2.68.947 5.66.077 7.4-2.166l2.79-3.581a1.319 1.319 0 1 0-2.08-1.62l-2.79 3.581a3.951 3.951 0 0 1-4.44 1.3l-2.8-.989.44-1.244a3.941 3.941 0 0 0-1.3-4.439 9.226 9.226 0 0 0-1.56-7.447 4.184 4.184 0 0 0 2.34-2.47l.88-2.487c.25-.686-.11-1.44-.8-1.682a1.313 1.313 0 0 0-1.68.804l-.88 2.486c-.26.724-1.1 1.196-1.74.97-.53-.187-4.45-1.572-4.98-1.758-.64-.226-1-1.124-.74-1.849l.88-2.486c.24-.687-.12-1.44-.81-1.683a1.317 1.317 0 0 0-1.68.804l-.88 2.486a4.205 4.205 0 0 0 .27 3.393c-2.5.67-4.69 2.38-5.89 4.812a3.978 3.978 0 0 0-3.81 2.636l-.43 1.243-2.64-.93a3.956 3.956 0 0 1-2.63-3.801l.08-4.537a1.32 1.32 0 0 0-2.64-.048l-.08 4.537a6.582 6.582 0 0 0 4.39 6.335l2.64.931-1.76 4.973-8.7-3.076a1.328 1.328 0 0 0-1.69.803c-.24.687.12 1.441.81 1.683l8.7 3.076-1.32 3.73c-.15.42-.27.844-.37 1.268l-2.7-.955a6.587 6.587 0 0 0-7.4 2.166l-2.79 3.581a1.32 1.32 0 0 0 .23 1.851c.58.447 1.41.344 1.85-.231l2.79-3.58a3.951 3.951 0 0 1 4.44-1.3l3.27 1.156c.01 4.886 3.05 9.47 7.92 11.189 4.86 1.719 10.11.067 13.18-3.731l3.44 1.215a3.953 3.953 0 0 1 2.64 3.801l-.09 4.538c-.01.728.57 1.329 1.3 1.342.73.013 1.33-.567 1.34-1.295l.08-4.537a6.582 6.582 0 0 0-4.39-6.335l-2.87-1.014c.19-.392.36-.798.51-1.218l1.32-3.73Zm-16.8 7.949c-4-2.094-5.96-6.874-4.41-11.251l5.27-14.919c.24-.686 1-1.046 1.68-.804l6.22 2.197-8.76 24.777Zm4.79-28.977c1.58-2.629 4.85-3.881 7.85-2.82a6.597 6.597 0 0 1 4.33 7.126l-12.18-4.306Zm8.2 23.879c-1.54 4.376-6.07 6.86-10.5 5.977l8.76-24.777 6.21 2.198c.69.242 1.05.997.81 1.682l-5.28 14.92ZM1319.39 421.27l5.22-2.695a.825.825 0 0 0-.76-1.464l-5.22 2.695-1.51-2.926 1.65-.851a4.128 4.128 0 0 0 2.18-4.293l-.44-2.801a.825.825 0 0 0-1.63.254l.44 2.801a2.47 2.47 0 0 1-1.31 2.576l-1.65.85-.37-.732a2.481 2.481 0 0 0-2.58-1.306 5.761 5.761 0 0 0-4.06-2.475c.25-.665.23-1.442-.12-2.122l-.75-1.463a.825.825 0 0 0-1.11-.354.82.82 0 0 0-.36 1.109l.76 1.464c.22.426.07 1.013-.31 1.207l-2.92 1.511c-.38.195-.94-.025-1.16-.451l-.76-1.464a.822.822 0 1 0-1.46.756l.75 1.464c.36.679.98 1.145 1.66 1.328a5.798 5.798 0 0 0-.33 4.741 2.472 2.472 0 0 0-.42 2.856l.37.732-1.55.8c-.94.489-2.09.318-2.85-.426l-2.03-1.977a.83.83 0 0 0-1.17.015.826.826 0 0 0 .02 1.164l2.03 1.978a4.106 4.106 0 0 0 4.76.709l1.55-.799 1.51 2.926-5.12 2.645a.817.817 0 0 0-.35 1.11c.2.404.7.562 1.1.354l5.13-2.645 1.13 2.195c.13.247.27.484.42.711l-1.59.82a4.116 4.116 0 0 0-2.18 4.294l.44 2.801c.07.449.49.756.94.686.45-.07.75-.491.68-.94l-.43-2.801a2.463 2.463 0 0 1 1.3-2.576l1.93-.994a7.43 7.43 0 0 0 8.48 1.184c2.86-1.478 4.35-4.573 3.94-7.596l2.02-1.045c.95-.489 2.1-.318 2.86.426l2.03 1.977c.32.318.85.311 1.16-.015a.826.826 0 0 0-.01-1.164l-2.03-1.978a4.108 4.108 0 0 0-4.76-.709l-1.69.871c-.1-.254-.21-.506-.34-.753l-1.13-2.195Zm-3.57 11.043a5.777 5.777 0 0 1-7.01-2.803l-4.53-8.78a.825.825 0 0 1 .35-1.11l3.66-1.889 7.53 14.582Zm-11.14-14.572a4.117 4.117 0 0 1 7.17-3.702l-7.17 3.702Zm14.38 6.48c1.33 2.576.52 5.7-1.78 7.336l-7.52-14.582 3.65-1.889a.822.822 0 0 1 1.11.354l4.54 8.781Z"/></g><g fill="#8F8E93" opacity=".2"><path d="M533.808 621.548a2.676 2.676 0 0 0-2.674-2.673 2.676 2.676 0 0 0-2.673 2.673 2.676 2.676 0 0 0 2.673 2.673 2.677 2.677 0 0 0 2.674-2.673Zm-3.753 0a1.08 1.08 0 1 1 1.079 1.079 1.08 1.08 0 0 1-1.079-1.079ZM537.489 624.221a2.676 2.676 0 0 0 2.674-2.673 2.676 2.676 0 0 0-2.674-2.673 2.676 2.676 0 0 0-2.673 2.673 2.676 2.676 0 0 0 2.673 2.673Zm0-3.752c.596 0 1.08.484 1.08 1.079s-.485 1.079-1.08 1.079a1.08 1.08 0 0 1 0-2.158ZM543.838 624.221a2.677 2.677 0 0 0 2.673-2.673c0-1.474-1.2-2.673-2.673-2.673a2.676 2.676 0 0 0-2.674 2.673 2.676 2.676 0 0 0 2.674 2.673Zm0-3.752a1.08 1.08 0 0 1 1.079 1.079 1.08 1.08 0 0 1-2.159 0 1.08 1.08 0 0 1 1.08-1.079ZM552.66 622.344h19.413a.796.796 0 1 0 0-1.594H552.66a.797.797 0 0 0 0 1.594Z"/><path d="M575.085 616h-47.757a3.332 3.332 0 0 0-3.328 3.328v44.344a3.332 3.332 0 0 0 3.328 3.328h47.757a3.332 3.332 0 0 0 3.328-3.328v-44.344a3.332 3.332 0 0 0-3.328-3.328Zm0 49.406h-47.757a1.736 1.736 0 0 1-1.734-1.734v-36.57h4.443a.797.797 0 1 0 0-1.594h-4.443v-6.18c0-.956.778-1.734 1.734-1.734h47.757c.956 0 1.734.778 1.734 1.734v6.18h-43.806a.797.797 0 0 0 0 1.594h43.806v36.57c0 .956-.778 1.734-1.734 1.734Z"/><path d="M569.107 629.086h-6.967a2.526 2.526 0 0 0-2.523 2.524v.964a2.653 2.653 0 0 0-1.723 1.724l-12.449.047a2.656 2.656 0 0 0-1.721-1.719v-.964a2.527 2.527 0 0 0-2.524-2.524h-6.965a2.527 2.527 0 0 0-2.524 2.524v6.966a2.526 2.526 0 0 0 2.524 2.523h.964a2.653 2.653 0 0 0 1.722 1.722v3.257a3.05 3.05 0 0 0 3.047 3.047h7.508c.26.817.905 1.463 1.722 1.722v1.019a2.472 2.472 0 0 0 2.469 2.469h1.08a2.652 2.652 0 0 0 1.595 1.738c-.23.457-.702.77-1.246.77h-8.514a2.651 2.651 0 0 0-1.78-1.939v-.965a2.526 2.526 0 0 0-2.524-2.523h-6.966a2.526 2.526 0 0 0-2.523 2.523v6.967a2.526 2.526 0 0 0 2.523 2.523h6.966a2.526 2.526 0 0 0 2.524-2.523v-.965a2.655 2.655 0 0 0 1.641-1.503h8.653a2.995 2.995 0 0 0 2.905-2.289 2.65 2.65 0 0 0 1.824-1.814h.917a2.472 2.472 0 0 0 2.469-2.469v-2.097a.797.797 0 1 0-1.594 0v2.097a.876.876 0 0 1-.875.875h-.96c-.829-2.378-4.174-2.36-4.992 0h-1.123a.876.876 0 0 1-.875-.875v-1.019c.17-.054.331-.124.488-.211.011-.011 1.357-.691 1.357-2.308a2.648 2.648 0 0 0-1.845-2.519v-1.018c0-.483.392-.875.875-.875h7.075c.483 0 .875.392.875.875v2.096a.797.797 0 1 0 1.594 0v-2.096a2.472 2.472 0 0 0-2.469-2.469h-7.075a2.472 2.472 0 0 0-2.469 2.469v1.018a2.655 2.655 0 0 0-1.722 1.722h-7.507a1.455 1.455 0 0 1-1.454-1.453v-3.257a2.654 2.654 0 0 0 1.721-1.722h.965a2.526 2.526 0 0 0 2.523-2.523v-.965a2.65 2.65 0 0 0 1.722-1.724l12.45-.047c.26.816.905 1.461 1.721 1.719v.965a2.526 2.526 0 0 0 2.523 2.523h6.967a2.526 2.526 0 0 0 2.523-2.523v-6.966a2.526 2.526 0 0 0-2.523-2.524Zm-27.102 29.436a1.048 1.048 0 0 1 0-2.095 1.049 1.049 0 0 1 0 2.095Zm-.797 2.436a.93.93 0 0 1-.93.929h-6.966a.93.93 0 0 1-.929-.929v-6.967a.93.93 0 0 1 .929-.929h6.966a.93.93 0 0 1 .93.929v.965c-2.472.787-2.443 4.258 0 5.037v.965Zm15.125-7.295a1.048 1.048 0 0 1-2.094 0c.131-1.439 1.968-1.378 2.094 0Zm-6.179-6.318a1.048 1.048 0 1 1-1.206 1.035c0-.639.571-1.132 1.206-1.035Zm-7.227-11.153a1.048 1.048 0 0 1 0-2.095 1.049 1.049 0 0 1 0 2.095Zm-5.209 5.209a1.048 1.048 0 0 1-1.036-1.206 1.049 1.049 0 0 1 2.083.159c0 .578-.47 1.047-1.047 1.047Zm4.412-2.773a.93.93 0 0 1-.93.929h-.964a2.646 2.646 0 0 0-3.048-1.791c-.011.006-1.493.241-1.989 1.791h-.964a.93.93 0 0 1-.93-.929v-6.967a.93.93 0 0 1 .93-.929h6.966a.93.93 0 0 1 .929.929v.965a2.645 2.645 0 0 0-1.841 2.652c.004.011.015 1.803 1.841 2.385v.965Zm18.284-4.583a1.049 1.049 0 1 1-1.048 1.048c0-.578.47-1.048 1.048-1.048Zm9.622 4.531a.93.93 0 0 1-.929.929h-6.967a.93.93 0 0 1-.929-.929v-.965a2.643 2.643 0 0 0 1.841-2.654 2.648 2.648 0 0 0-1.841-2.383v-.964a.93.93 0 0 1 .929-.93h6.967a.93.93 0 0 1 .929.93v6.966ZM199.946 580.054c-5.194-5.194-12.1-8.054-19.446-8.054-7.346 0-14.252 2.86-19.446 8.054-5.194 5.194-8.054 12.1-8.054 19.446 0 7.346 2.86 14.252 8.054 19.446 5.195 5.194 12.1 8.054 19.446 8.054a27.51 27.51 0 0 0 25.21-16.496.806.806 0 1 0-1.477-.645 25.9 25.9 0 0 1-23.733 15.53c-6.915 0-13.417-2.693-18.306-7.583-4.89-4.889-7.583-11.391-7.583-18.306 0-6.915 2.693-13.416 7.583-18.306 4.89-4.89 11.391-7.583 18.306-7.583 6.915 0 13.417 2.693 18.306 7.583 4.89 4.89 7.583 11.391 7.583 18.306 0 2.529-.364 5.028-1.081 7.426a.805.805 0 0 0 1.544.461A27.504 27.504 0 0 0 208 599.5c0-7.346-2.86-14.252-8.054-19.446Z"/><path d="M165.643 585.577a.806.806 0 0 0-1.137.082 21.146 21.146 0 0 0-5.158 13.844c0 11.662 9.488 21.151 21.151 21.151 11.662 0 21.151-9.489 21.151-21.151 0-11.663-9.488-21.151-21.151-21.151a21.165 21.165 0 0 0-13.625 4.972.804.804 0 1 0 1.038 1.232 19.554 19.554 0 0 1 12.587-4.593c10.774 0 19.54 8.765 19.54 19.54 0 10.774-8.766 19.539-19.54 19.539s-19.54-8.765-19.54-19.539c0-4.7 1.692-9.242 4.765-12.789a.806.806 0 0 0-.081-1.137Z"/><path d="M188.522 588.1v-5.341a.806.806 0 0 0-1.612 0v5.341a.806.806 0 0 0 1.612 0ZM182.306 581.953a2.613 2.613 0 0 0-2.611 2.61v1.732a2.613 2.613 0 0 0 2.611 2.61 2.613 2.613 0 0 0 2.61-2.61v-1.732a2.613 2.613 0 0 0-2.61-2.61Zm.998 4.342a1 1 0 0 1-1.997 0v-1.732a1 1 0 0 1 1.997 0v1.732ZM175.087 581.953a2.613 2.613 0 0 0-2.61 2.61v1.732a2.613 2.613 0 0 0 2.61 2.61 2.613 2.613 0 0 0 2.61-2.61v-1.732a2.613 2.613 0 0 0-2.61-2.61Zm.999 4.342a1 1 0 0 1-1.998 0v-1.732a1 1 0 0 1 1.998 0v1.732ZM171.359 609.556v5.34a.806.806 0 0 0 1.612 0v-5.34a.806.806 0 0 0-1.612 0ZM177.579 608.75a2.613 2.613 0 0 0-2.61 2.61v1.732a2.613 2.613 0 0 0 2.61 2.61 2.613 2.613 0 0 0 2.61-2.61v-1.732a2.613 2.613 0 0 0-2.61-2.61Zm.999 4.342a1 1 0 0 1-1.998 0v-1.732a1 1 0 0 1 1.998 0v1.732ZM184.794 608.75a2.613 2.613 0 0 0-2.61 2.61v1.732a2.613 2.613 0 0 0 2.61 2.61 2.613 2.613 0 0 0 2.61-2.61v-1.732a2.613 2.613 0 0 0-2.61-2.61Zm.999 4.342a1 1 0 0 1-1.998 0v-1.732a1 1 0 0 1 1.998 0v1.732ZM189.406 609.556v5.34a.806.806 0 0 0 1.612 0v-5.34a.806.806 0 0 0-1.612 0ZM195.744 597.17v-5.341a.806.806 0 1 0-1.611 0v5.341a.806.806 0 0 0 1.611 0ZM186.91 595.365a2.613 2.613 0 0 0 2.61 2.611 2.614 2.614 0 0 0 2.611-2.611v-1.731a2.614 2.614 0 0 0-2.611-2.611 2.613 2.613 0 0 0-2.61 2.611v1.731Zm1.612-1.731a1 1 0 0 1 1.997 0v1.731a1 1 0 0 1-1.997 0v-1.731ZM184.106 591.023a.806.806 0 0 0-.805.806v5.341a.806.806 0 1 0 1.611 0v-5.341a.806.806 0 0 0-.806-.806ZM179.695 597.17a.806.806 0 0 0 1.612 0v-5.341a.805.805 0 0 0-1.612 0v5.341ZM176.892 597.976a.805.805 0 0 0 .805-.806v-5.341a.805.805 0 1 0-1.611 0v5.341c0 .445.361.806.806.806ZM168.863 593.634v1.731a2.614 2.614 0 0 0 2.611 2.611 2.613 2.613 0 0 0 2.61-2.611v-1.731a2.613 2.613 0 0 0-2.61-2.611 2.614 2.614 0 0 0-2.611 2.611Zm3.609 0v1.731a1 1 0 0 1-1.997 0v-1.731a1 1 0 0 1 1.997 0ZM166.064 591.023a.806.806 0 0 0-.806.806v5.341a.806.806 0 0 0 1.611 0v-5.341a.806.806 0 0 0-.805-.806ZM190.523 602.704v1.731a2.614 2.614 0 0 0 2.611 2.611 2.613 2.613 0 0 0 2.61-2.611v-1.731a2.613 2.613 0 0 0-2.61-2.61 2.613 2.613 0 0 0-2.611 2.61Zm3.61 0v1.731a1 1 0 0 1-1.998 0v-1.731a1 1 0 0 1 1.998 0ZM186.91 606.24a.806.806 0 0 0 1.612 0v-5.341a.805.805 0 0 0-1.612 0v5.341ZM179.695 604.435a2.614 2.614 0 0 0 2.611 2.611 2.613 2.613 0 0 0 2.61-2.611v-1.731a2.613 2.613 0 0 0-2.61-2.61 2.613 2.613 0 0 0-2.611 2.61v1.731Zm1.612-1.731a1 1 0 0 1 1.997 0v1.731a1 1 0 0 1-1.997 0v-1.731ZM176.086 606.24a.806.806 0 0 0 1.611 0v-5.341a.804.804 0 1 0-1.611 0v5.341ZM174.088 606.24v-5.341a.805.805 0 0 0-1.611 0v5.341a.805.805 0 1 0 1.611 0ZM165.258 602.704v1.731a2.613 2.613 0 0 0 2.61 2.611 2.613 2.613 0 0 0 2.61-2.611v-1.731a2.613 2.613 0 0 0-2.61-2.61 2.613 2.613 0 0 0-2.61 2.61Zm3.609 0v1.731a1 1 0 0 1-1.998 0v-1.731a1 1 0 0 1 1.998 0ZM646.503 524h-.006a7.515 7.515 0 0 0-5.35 2.253 8.105 8.105 0 0 0-2.319 5.49v.06c.066 3.276.884 6.135 2.365 8.268 1.418 2.04 3.375 3.238 5.371 3.285l.126.001c1.908 0 3.674-1.031 4.988-2.916 1.419-2.038 2.257-4.926 2.492-8.584.003-.038.003-.075.002-.113a8.103 8.103 0 0 0-2.319-5.491 7.515 7.515 0 0 0-5.35-2.253Zm.111 17.051c-2.642-.062-5.443-3.544-5.567-9.265a5.766 5.766 0 0 1 1.654-3.881 5.353 5.353 0 0 1 3.786-1.599 5.353 5.353 0 0 1 3.793 1.581 5.766 5.766 0 0 1 1.672 3.874c-.459 6.939-3.163 9.338-5.338 9.29Zm33.858 10.505a1.114 1.114 0 0 0-.59-.469 26.552 26.552 0 0 1-5.932-2.945 1.078 1.078 0 0 0-1.255.057c-.119.093-.219.21-.294.344l-2.025 3.644-2.026-3.644a1.13 1.13 0 0 0-.692-.542 1.064 1.064 0 0 0-.857.141 27.15 27.15 0 0 1-5.399 2.755 13.32 13.32 0 0 0-1.374-2.962 1.117 1.117 0 0 0-.59-.47c-2.67-.896-5.444-2.273-8.245-4.092a1.089 1.089 0 0 0-.857-.141 1.13 1.13 0 0 0-.692.542l-3.144 5.656-3.144-5.656a1.144 1.144 0 0 0-.293-.344 1.087 1.087 0 0 0-.842-.218 1.078 1.078 0 0 0-.414.161c-2.801 1.819-5.576 3.196-8.246 4.092a1.12 1.12 0 0 0-.59.47 13.411 13.411 0 0 0-1.374 2.962 27.15 27.15 0 0 1-5.399-2.755 1.078 1.078 0 0 0-1.256.057c-.119.093-.218.21-.293.344l-2.025 3.644-2.026-3.644a1.13 1.13 0 0 0-.692-.542 1.064 1.064 0 0 0-.857.141 26.566 26.566 0 0 1-5.931 2.945 1.114 1.114 0 0 0-.59.469 10.124 10.124 0 0 0-1.417 3.865 10.266 10.266 0 0 0 .23 4.129 1.16 1.16 0 0 0 .569.722c3.454 1.818 7.084 2.728 10.714 2.728 3.63 0 7.26-.91 10.715-2.728a1.12 1.12 0 0 0 .245-.178 30.252 30.252 0 0 0 12.916 2.903c4.456 0 8.86-.989 12.917-2.903.073.071.156.13.245.178 3.455 1.819 7.084 2.728 10.715 2.728 3.63 0 7.26-.91 10.714-2.728a1.16 1.16 0 0 0 .568-.722c.356-1.344.434-2.751.23-4.129a10.14 10.14 0 0 0-1.417-3.865Zm-67.105 6.894a7.836 7.836 0 0 1 .826-5.307 28.119 28.119 0 0 0 5.049-2.431l2.421 4.355c.098.175.238.321.406.422a1.08 1.08 0 0 0 1.11 0c.168-.101.308-.247.406-.422l2.421-4.355a28.01 28.01 0 0 0 5.071 2.437 13.632 13.632 0 0 0 .315 5.425c.009.033.02.064.031.095-5.863 2.763-12.22 2.691-18.056-.219Zm20.046-.977a11.206 11.206 0 0 1 1.219-7.948 38.4 38.4 0 0 0 7.37-3.578l3.537 6.363c.097.175.238.321.406.422a1.08 1.08 0 0 0 1.11 0c.168-.101.308-.247.406-.422l3.537-6.363a38.4 38.4 0 0 0 7.37 3.578 11.21 11.21 0 0 1 1.219 7.948c-8.459 4.285-17.715 4.286-26.174 0Zm46.22.977c-5.837 2.91-12.193 2.981-18.056.219a.96.96 0 0 0 .031-.095c.468-1.766.576-3.614.316-5.425a28.041 28.041 0 0 0 5.071-2.437l2.421 4.355c.097.175.237.321.406.422a1.076 1.076 0 0 0 1.109 0c.169-.101.309-.247.406-.422l2.421-4.355a28.11 28.11 0 0 0 5.048 2.431 7.83 7.83 0 0 1 .827 5.307ZM670.38 534h-.007a5.768 5.768 0 0 0-4.102 1.728 6.22 6.22 0 0 0-1.778 4.21v.06c.05 2.447.664 4.588 1.778 6.191 1.087 1.565 2.598 2.484 4.146 2.521l.091.001c2.418 0 5.339-2.259 5.751-8.66.002-.038.003-.075.002-.113a6.216 6.216 0 0 0-1.779-4.21A5.762 5.762 0 0 0 670.38 534Zm.086 12.405c-1.778-.042-3.665-2.456-3.755-6.424a3.88 3.88 0 0 1 1.114-2.602 3.597 3.597 0 0 1 2.539-1.074 3.6 3.6 0 0 1 2.547 1.056 3.876 3.876 0 0 1 1.129 2.595c-.303 4.506-2.01 6.486-3.574 6.449ZM622.627 534h-.007a5.768 5.768 0 0 0-4.102 1.728 6.22 6.22 0 0 0-1.778 4.21v.06c.05 2.447.665 4.588 1.778 6.191 1.088 1.565 2.599 2.484 4.146 2.521l.091.001c2.418 0 5.339-2.259 5.751-8.66.002-.038.003-.075.002-.113a6.216 6.216 0 0 0-1.779-4.21 5.766 5.766 0 0 0-4.102-1.728Zm.13 12.406h-.043c-1.779-.042-3.665-2.456-3.755-6.425a3.876 3.876 0 0 1 1.113-2.602 3.597 3.597 0 0 1 2.54-1.073 3.594 3.594 0 0 1 2.546 1.056c.685.68 1.09 1.61 1.13 2.594-.301 4.465-1.979 6.45-3.531 6.45ZM397.297 582.453h2.859v1.906h-2.859v-1.906ZM403.969 587.219h2.859v1.906h-2.859v-1.906ZM397.297 587.219h4.765v1.906h-4.765v-1.906ZM389.672 587.219h5.719v1.906h-5.719v-1.906ZM395.391 591.984h11.437v1.907h-11.437v-1.907ZM389.672 591.984h3.812v1.907h-3.812v-1.907ZM401.109 596.75h5.719v1.906h-5.719v-1.906ZM389.672 596.75h9.531v1.906h-9.531v-1.906ZM395.391 601.516h5.718v1.906h-5.718v-1.906ZM389.672 601.516h3.812v1.906h-3.812v-1.906Z"/><path d="M440.188 579.594a.953.953 0 0 0-.954-.953h-5.718a.95.95 0 0 0-.953.953v4.765h-4.766a.953.953 0 0 0-.953.954v4.765h-4.766a.956.956 0 0 0-.953.953v4.766h-4.766a.954.954 0 0 0-.953.953v5.719h-6.836a2.853 2.853 0 0 0-1.249-1.513 2.858 2.858 0 1 0 1.249 3.419h1.118v2.859a.957.957 0 0 1-.954.954h-20.968a.957.957 0 0 1-.953-.954v-21.921h4.765a2.864 2.864 0 0 0 2.86-2.86v-4.765h14.296a.952.952 0 0 1 .954.953v.953h1.906v-.953a2.864 2.864 0 0 0-2.86-2.86h-14.46a2.837 2.837 0 0 0-2.022.838l-6.508 6.508a2.838 2.838 0 0 0-.838 2.022v22.085a2.864 2.864 0 0 0 2.86 2.86h20.968a2.864 2.864 0 0 0 2.86-2.86v-2.859h30.5v-1.906h-1.906v-22.875Zm-47.657-.559v3.418a.956.956 0 0 1-.953.953h-3.418l4.371-4.371Zm13.344 25.34a.955.955 0 0 1-.674-1.627.956.956 0 0 1 1.467.144.96.96 0 0 1-.119 1.204.956.956 0 0 1-.674.279Zm11.438-6.672h3.812v4.766h-3.812v-4.766Zm5.718-5.719h3.813v10.485h-3.813v-10.485Zm5.719-5.718h3.813v16.203h-3.813v-16.203Zm5.719 16.203v-21.922h3.812v21.922h-3.812ZM387.766 576.736a2.863 2.863 0 0 0 2.854-2.692 2.866 2.866 0 0 0-.274-1.4l2.859-2.86a2.865 2.865 0 0 0 2.327.062 2.855 2.855 0 0 0 1.601-1.688h4.14a2.86 2.86 0 0 0 5.515-.481l5.383-4.614a2.858 2.858 0 1 0-1.297-1.399l-4.559 3.908a2.852 2.852 0 0 0-2.729-1.201 2.862 2.862 0 0 0-2.313 1.88h-4.14a2.857 2.857 0 0 0-4.744-1.042 2.86 2.86 0 0 0-.531 3.227l-2.86 2.86a2.867 2.867 0 0 0-2.479.007 2.867 2.867 0 0 0-1.542 1.942 2.855 2.855 0 0 0 .555 2.416 2.85 2.85 0 0 0 2.234 1.075Zm25.734-17.157a.952.952 0 1 1 0 1.905.952.952 0 0 1 0-1.905Zm-9.531 6.672a.95.95 0 0 1 .88.589.956.956 0 0 1-1.245 1.245.953.953 0 0 1 .365-1.834Zm-9.532 0a.952.952 0 1 1 0 1.905.952.952 0 0 1 0-1.905Zm-6.671 6.672a.952.952 0 0 1 .934 1.139.947.947 0 0 1-.748.749.953.953 0 1 1-.186-1.888Z"/><path d="m422.265 575.202-6.3 6.3h-8.347a2.863 2.863 0 0 0-3.18-1.865 2.857 2.857 0 0 0-1.702.976 2.856 2.856 0 0 0 1.702 4.661 2.863 2.863 0 0 0 3.18-1.865h2.07v17.156h1.906v-17.156h4.766a.956.956 0 0 0 .674-.279l6.879-6.879a12.422 12.422 0 0 0 16.561-4.723 12.429 12.429 0 0 0-4.067-16.735 12.427 12.427 0 0 0-16.882 3.407 12.421 12.421 0 0 0 2.74 17.002Zm-17.343 8.207a.952.952 0 0 1-.88-.589.956.956 0 0 1 1.245-1.245.953.953 0 0 1-.365 1.834Zm32.427-10.943-5.523-6.214h8.318a10.446 10.446 0 0 1-2.795 6.214Zm2.795-8.12h-9.487v-9.487a10.498 10.498 0 0 1 9.487 9.487Zm-11.394-9.487v10.44c0 .234.086.459.242.633l-.001.001 6.934 7.8a10.48 10.48 0 0 1-13.344-.742 10.488 10.488 0 0 1-3.312-8.714 10.48 10.48 0 0 1 9.481-9.418Z"/></g><g opacity=".7"><path fill="url(#a)" d="M98 28h22v174H98V28Z"/><path fill="url(#b)" d="M760 422v-11h174v11H760Z"/><path fill="url(#c)" d="M1111 395v-8h92v8h-92Z"/><path fill="url(#d)" d="M963 398v-3h92v3h-92Z"/><path fill="url(#e)" d="M991 390v-3h64v3h-64Z"/><path fill="url(#f)" d="M974 382v-3h81v3h-81Z"/><path fill="url(#g)" d="M77 590h12v99H77v-99Z"/><path fill="url(#h)" d="M465 571h9v65h-9v-65Z"/><path fill="url(#i)" d="M480 585h4v65h-4v-65Z"/><path fill="url(#j)" d="M489 571h9v65h-9v-65Z"/><path fill="url(#k)" d="M591 226h22v69h-22v-69Z"/><path fill="url(#l)" d="M477 295h114v-46l-114 24v22Z"/><path fill="url(#m)" d="M597 625h114v-27.333l-114 18.261V625Z"/><path fill="url(#n)" d="M55 60h22v27H55V60Z"/><path fill="url(#o)" d="M55 92h22v27H55V92Z"/><path fill="url(#p)" d="M55 124h22v27H55v-27Z"/><path fill="url(#q)" d="M55 156h22v27H55v-27Z"/><path fill="url(#r)" d="M55 188h22v27H55v-27Z"/><path fill="url(#s)" d="M728 75h8v112h-8V75Z"/><path fill="url(#t)" d="M736 148v39h20.5v-18.5L736 148Z"/><path fill="url(#u)" d="M339 639h8.14v35H339v-35Z"/><path fill="url(#v)" d="M347.14 657.104V674H368v-8.015l-20.86-8.881Z"/><path fill="url(#w)" d="M1444 461h8.14v46H1444v-46Z"/><path fill="url(#x)" d="M1452.14 483.67V507H1473v-11.067l-20.86-12.263Z"/><path fill="url(#y)" fill-rule="evenodd" d="M733 23h-67v-7h67v7Z" clip-rule="evenodd"/><path fill="url(#z)" fill-rule="evenodd" d="M1261 260h-67v-7h67v7Z" clip-rule="evenodd"/><path fill="url(#A)" fill-rule="evenodd" d="M1233 245h-67v-7h67v7Z" clip-rule="evenodd"/><path fill="url(#B)" fill-rule="evenodd" d="M1190 260h-67v-7h67v7Z" clip-rule="evenodd"/><path fill="url(#C)" d="M686 334h78v12h-78v-12Z"/><path fill="url(#D)" d="M764 366v-20h-8l-20 20h28Z"/><path fill="url(#E)" d="M1385 306h78v12h-78v-12Z"/><path fill="url(#F)" d="M1463 338v-20h-8l-20 20h28Z"/><path fill="url(#G)" d="M694 482c0 7.732-6.268 14-14 14s-14-6.268-14-14 6.268-14 14-14 14 6.268 14 14Z"/><path fill="url(#H)" d="M757 135c0 7.732-3.134 14-7 14s-7-6.268-7-14 3.134-14 7-14 7 6.268 7 14Z"/><path fill="url(#I)" d="M800 349c0 7.732-3.134 14-7 14s-7-6.268-7-14 3.134-14 7-14 7 6.268 7 14Z"/><path fill="url(#J)" d="M819 349c0 7.732-3.134 14-7 14s-7-6.268-7-14 3.134-14 7-14 7 6.268 7 14Z"/><path fill="url(#K)" d="M838 348c0 7.732-3.134 14-7 14s-7-6.268-7-14 3.134-14 7-14 7 6.268 7 14Z"/><path fill="url(#L)" d="M1055 371c0 2.761-5.82 5-13 5s-13-2.239-13-5 5.82-5 13-5 13 2.239 13 5Z"/><path fill="url(#M)" d="M71 639.5c0 27.338-5.82 49.5-13 49.5s-13-22.162-13-49.5S50.82 590 58 590s13 22.162 13 49.5Z"/><path fill="url(#N)" d="M329 652.5c0 5.799-4.701 10.5-10.5 10.5s-10.5-4.701-10.5-10.5 4.701-10.5 10.5-10.5 10.5 4.701 10.5 10.5Z"/><path fill="url(#O)" fill-rule="evenodd" d="m867.845 243 12.924 12.973L893.692 243l12.923 12.973L919.538 243l12.924 12.973L945.385 243l12.923 12.973L971.231 243l12.924 12.973L997.078 243 1012 257.98l-4 4.013-10.922-10.966L984.155 264l-12.924-12.973L958.308 264l-12.923-12.973L932.462 264l-12.924-12.973L906.615 264l-12.923-12.973L880.769 264l-12.924-12.973L854.922 264 840 249.02l3.998-4.013 10.924 10.966L867.845 243Z" clip-rule="evenodd"/><path fill="url(#P)" fill-rule="evenodd" d="m1130.75 431 9.17 9.267 9.16-9.267 9.17 9.267 9.17-9.267 9.16 9.267 9.17-9.267 9.17 9.267 9.16-9.267 9.17 9.267 9.17-9.267 10.58 10.7-2.84 2.867-7.74-7.834-9.17 9.267-9.17-9.267-9.16 9.267-9.17-9.267-9.17 9.267-9.16-9.267-9.17 9.267-9.17-9.267-9.16 9.267-9.17-9.267-9.17 9.267-10.58-10.7 2.84-2.867 7.74 7.834 9.17-9.267Z" clip-rule="evenodd"/><path fill="url(#Q)" fill-rule="evenodd" d="m373.483 689 16.004 11.738L405.491 689l16.003 11.738L437.498 689l16.004 11.738L469.506 689l16.003 11.738L501.513 689l16.004 11.738L533.521 689 552 702.553l-4.951 3.631-13.528-9.922L517.517 708l-16.004-11.738L485.509 708l-16.003-11.738L453.502 708l-16.004-11.738L421.494 708l-16.003-11.738L389.487 708l-16.004-11.738L357.479 708 339 694.447l4.951-3.631 13.528 9.922L373.483 689Z" clip-rule="evenodd"/><path fill="url(#R)" fill-rule="evenodd" d="m381.073 226 17.206 11.738L415.485 226l17.206 11.738L449.897 226l17.206 11.738L484.309 226l17.206 11.738L518.721 226l17.206 11.738L553.133 226 573 239.553l-5.323 3.631-14.544-9.922L535.927 245l-17.206-11.738L501.515 245l-17.206-11.738L467.103 245l-17.206-11.738L432.691 245l-17.206-11.738L398.279 245l-17.206-11.738L363.867 245 344 231.447l5.323-3.631 14.544 9.922L381.073 226Z" clip-rule="evenodd"/><path fill="url(#S)" fill-rule="evenodd" d="M1595.5 471H1473v-5h127.5v21h-108v10h108v18.5h-5V502h-108v-20h108v-11Z" clip-rule="evenodd"/><path fill="url(#T)" fill-rule="evenodd" d="M1487.05 309.02V432H1482V304h21.21v108.424h10.1V304H1532v5.02h-13.64v108.423h-20.2V309.02h-11.11Z" clip-rule="evenodd"/><path fill="url(#U)" d="M1314 208h129v21h-177l48-21Z"/><path fill="url(#V)" d="M1415 141v67h8v-67h-8Z"/><path fill="url(#W)" d="M1439 157c0 7.732-2.46 14-5.5 14s-5.5-6.268-5.5-14 2.46-14 5.5-14 5.5 6.268 5.5 14Z"/><path fill="url(#X)" d="M1439 191c0 7.732-2.46 14-5.5 14s-5.5-6.268-5.5-14 2.46-14 5.5-14 5.5 6.268 5.5 14Z"/><path fill="url(#Y)" d="M1469 136h30v30h-30v-30Z"/><path fill="url(#Z)" d="M1469 199h30v30h-30v-30Z"/><path fill="url(#aa)" d="M1484 238h15v40h-15v-40Z"/><path fill="url(#ab)" d="M130 664h161v8H130v-8Z"/><path fill="url(#ac)" d="M244 568h85v8h-85v-8Z"/><path fill="url(#ad)" d="M519 589h67v8h-67v-8Z"/><path fill="url(#ae)" d="M519 568h67v8h-67v-8Z"/><path fill="url(#af)" d="m534 580 36.964-.192.032 6.057-36.965.192L534 580Z"/><path fill="url(#ag)" d="m676 649 66.684 17.25H609.316L676 649Z"/><path fill="url(#ah)" d="m728 461.5 17.25-54.127v108.254L728 461.5Z"/><path fill="url(#ai)" d="m1332 346 66.68 17.25h-133.36L1332 346Z"/><path fill="url(#aj)" d="m1393 114 54.56 12.75h-109.12L1393 114Z"/><path fill="url(#ak)" fill-rule="evenodd" d="M597 589h96l.388 3.962L597 610.434V589Zm4 4v12.566L664.569 593H601Z" clip-rule="evenodd"/></g><defs><linearGradient id="a" x1="1234" x2="565.475" y1="1005" y2="-198.874" gradientUnits="userSpaceOnUse"><stop offset=".183" stop-color="#F1EFED"/><stop offset=".343" stop-color="#DDD" stop-opacity=".22"/><stop offset=".419" stop-color="#F1EFED"/><stop offset=".587" stop-color="#DDD" stop-opacity=".22"/><stop offset=".7" stop-color="#DDD" stop-opacity=".22"/><stop offset=".784" stop-color="#DDD" stop-opacity=".22"/><stop offset=".991" stop-color="#F1EFED"/></linearGradient><linearGradient id="b" x1="1234" x2="565.475" y1="1005" y2="-198.874" gradientUnits="userSpaceOnUse"><stop offset=".183" stop-color="#F1EFED"/><stop offset=".343" stop-color="#DDD" stop-opacity=".22"/><stop offset=".419" stop-color="#F1EFED"/><stop offset=".587" stop-color="#DDD" stop-opacity=".22"/><stop offset=".7" stop-color="#DDD" stop-opacity=".22"/><stop offset=".784" stop-color="#DDD" stop-opacity=".22"/><stop offset=".991" stop-color="#F1EFED"/></linearGradient><linearGradient id="c" x1="1234" x2="565.475" y1="1005" y2="-198.874" gradientUnits="userSpaceOnUse"><stop offset=".183" stop-color="#F1EFED"/><stop offset=".343" stop-color="#DDD" stop-opacity=".22"/><stop offset=".419" stop-color="#F1EFED"/><stop offset=".587" stop-color="#DDD" stop-opacity=".22"/><stop offset=".7" stop-color="#DDD" stop-opacity=".22"/><stop offset=".784" stop-color="#DDD" stop-opacity=".22"/><stop offset=".991" stop-color="#F1EFED"/></linearGradient><linearGradient id="d" x1="1234" x2="565.475" y1="1005" y2="-198.874" gradientUnits="userSpaceOnUse"><stop offset=".183" stop-color="#F1EFED"/><stop offset=".343" stop-color="#DDD" stop-opacity=".22"/><stop offset=".419" stop-color="#F1EFED"/><stop offset=".587" stop-color="#DDD" stop-opacity=".22"/><stop offset=".7" stop-color="#DDD" stop-opacity=".22"/><stop offset=".784" stop-color="#DDD" stop-opacity=".22"/><stop offset=".991" stop-color="#F1EFED"/></linearGradient><linearGradient id="e" x1="1234" x2="565.475" y1="1005" y2="-198.874" gradientUnits="userSpaceOnUse"><stop offset=".183" stop-color="#F1EFED"/><stop offset=".343" stop-color="#DDD" stop-opacity=".22"/><stop offset=".419" stop-color="#F1EFED"/><stop offset=".587" stop-color="#DDD" stop-opacity=".22"/><stop offset=".7" stop-color="#DDD" stop-opacity=".22"/><stop offset=".784" stop-color="#DDD" stop-opacity=".22"/><stop offset=".991" stop-color="#F1EFED"/></linearGradient><linearGradient id="f" x1="1234" x2="565.475" y1="1005" y2="-198.874" gradientUnits="userSpaceOnUse"><stop offset=".183" stop-color="#F1EFED"/><stop offset=".343" stop-color="#DDD" stop-opacity=".22"/><stop offset=".419" stop-color="#F1EFED"/><stop offset=".587" stop-color="#DDD" stop-opacity=".22"/><stop offset=".7" stop-color="#DDD" stop-opacity=".22"/><stop offset=".784" stop-color="#DDD" stop-opacity=".22"/><stop offset=".991" stop-color="#F1EFED"/></linearGradient><linearGradient id="g" x1="1234" x2="565.475" y1="1005" y2="-198.874" gradientUnits="userSpaceOnUse"><stop offset=".183" stop-color="#F1EFED"/><stop offset=".343" stop-color="#DDD" stop-opacity=".22"/><stop offset=".419" stop-color="#F1EFED"/><stop offset=".587" stop-color="#DDD" stop-opacity=".22"/><stop offset=".7" stop-color="#DDD" stop-opacity=".22"/><stop offset=".784" stop-color="#DDD" stop-opacity=".22"/><stop offset=".991" stop-color="#F1EFED"/></linearGradient><linearGradient id="h" x1="1234" x2="565.475" y1="1005" y2="-198.874" gradientUnits="userSpaceOnUse"><stop offset=".183" stop-color="#F1EFED"/><stop offset=".343" stop-color="#DDD" stop-opacity=".22"/><stop offset=".419" stop-color="#F1EFED"/><stop offset=".587" stop-color="#DDD" stop-opacity=".22"/><stop offset=".7" stop-color="#DDD" stop-opacity=".22"/><stop offset=".784" stop-color="#DDD" stop-opacity=".22"/><stop offset=".991" stop-color="#F1EFED"/></linearGradient><linearGradient id="i" x1="1234" x2="565.475" y1="1005" y2="-198.874" gradientUnits="userSpaceOnUse"><stop offset=".183" stop-color="#F1EFED"/><stop offset=".343" stop-color="#DDD" stop-opacity=".22"/><stop offset=".419" stop-color="#F1EFED"/><stop offset=".587" stop-color="#DDD" stop-opacity=".22"/><stop offset=".7" stop-color="#DDD" stop-opacity=".22"/><stop offset=".784" stop-color="#DDD" stop-opacity=".22"/><stop offset=".991" stop-color="#F1EFED"/></linearGradient><linearGradient id="j" x1="1234" x2="565.475" y1="1005" y2="-198.874" gradientUnits="userSpaceOnUse"><stop offset=".183" stop-color="#F1EFED"/><stop offset=".343" stop-color="#DDD" stop-opacity=".22"/><stop offset=".419" stop-color="#F1EFED"/><stop offset=".587" stop-color="#DDD" stop-opacity=".22"/><stop offset=".7" stop-color="#DDD" stop-opacity=".22"/><stop offset=".784" stop-color="#DDD" stop-opacity=".22"/><stop offset=".991" stop-color="#F1EFED"/></linearGradient><linearGradient id="k" x1="1234" x2="565.475" y1="1005" y2="-198.874" gradientUnits="userSpaceOnUse"><stop offset=".183" stop-color="#F1EFED"/><stop offset=".343" stop-color="#DDD" stop-opacity=".22"/><stop offset=".419" stop-color="#F1EFED"/><stop offset=".587" stop-color="#DDD" stop-opacity=".22"/><stop offset=".7" stop-color="#DDD" stop-opacity=".22"/><stop offset=".784" stop-color="#DDD" stop-opacity=".22"/><stop offset=".991" stop-color="#F1EFED"/></linearGradient><linearGradient id="l" x1="1234" x2="565.475" y1="1005" y2="-198.874" gradientUnits="userSpaceOnUse"><stop offset=".183" stop-color="#F1EFED"/><stop offset=".343" stop-color="#DDD" stop-opacity=".22"/><stop offset=".419" stop-color="#F1EFED"/><stop offset=".587" stop-color="#DDD" stop-opacity=".22"/><stop offset=".7" stop-color="#DDD" stop-opacity=".22"/><stop offset=".784" stop-color="#DDD" stop-opacity=".22"/><stop offset=".991" stop-color="#F1EFED"/></linearGradient><linearGradient id="m" x1="1234" x2="565.475" y1="1005" y2="-198.874" gradientUnits="userSpaceOnUse"><stop offset=".183" stop-color="#F1EFED"/><stop offset=".343" stop-color="#DDD" stop-opacity=".22"/><stop offset=".419" stop-color="#F1EFED"/><stop offset=".587" stop-color="#DDD" stop-opacity=".22"/><stop offset=".7" stop-color="#DDD" stop-opacity=".22"/><stop offset=".784" stop-color="#DDD" stop-opacity=".22"/><stop offset=".991" stop-color="#F1EFED"/></linearGradient><linearGradient id="n" x1="1234" x2="565.475" y1="1005" y2="-198.874" gradientUnits="userSpaceOnUse"><stop offset=".183" stop-color="#F1EFED"/><stop offset=".343" stop-color="#DDD" stop-opacity=".22"/><stop offset=".419" stop-color="#F1EFED"/><stop offset=".587" stop-color="#DDD" stop-opacity=".22"/><stop offset=".7" stop-color="#DDD" stop-opacity=".22"/><stop offset=".784" stop-color="#DDD" stop-opacity=".22"/><stop offset=".991" stop-color="#F1EFED"/></linearGradient><linearGradient id="o" x1="1234" x2="565.475" y1="1005" y2="-198.874" gradientUnits="userSpaceOnUse"><stop offset=".183" stop-color="#F1EFED"/><stop offset=".343" stop-color="#DDD" stop-opacity=".22"/><stop offset=".419" stop-color="#F1EFED"/><stop offset=".587" stop-color="#DDD" stop-opacity=".22"/><stop offset=".7" stop-color="#DDD" stop-opacity=".22"/><stop offset=".784" stop-color="#DDD" stop-opacity=".22"/><stop offset=".991" stop-color="#F1EFED"/></linearGradient><linearGradient id="p" x1="1234" x2="565.475" y1="1005" y2="-198.874" gradientUnits="userSpaceOnUse"><stop offset=".183" stop-color="#F1EFED"/><stop offset=".343" stop-color="#DDD" stop-opacity=".22"/><stop offset=".419" stop-color="#F1EFED"/><stop offset=".587" stop-color="#DDD" stop-opacity=".22"/><stop offset=".7" stop-color="#DDD" stop-opacity=".22"/><stop offset=".784" stop-color="#DDD" stop-opacity=".22"/><stop offset=".991" stop-color="#F1EFED"/></linearGradient><linearGradient id="q" x1="1234" x2="565.475" y1="1005" y2="-198.874" gradientUnits="userSpaceOnUse"><stop offset=".183" stop-color="#F1EFED"/><stop offset=".343" stop-color="#DDD" stop-opacity=".22"/><stop offset=".419" stop-color="#F1EFED"/><stop offset=".587" stop-color="#DDD" stop-opacity=".22"/><stop offset=".7" stop-color="#DDD" stop-opacity=".22"/><stop offset=".784" stop-color="#DDD" stop-opacity=".22"/><stop offset=".991" stop-color="#F1EFED"/></linearGradient><linearGradient id="r" x1="1234" x2="565.475" y1="1005" y2="-198.874" gradientUnits="userSpaceOnUse"><stop offset=".183" stop-color="#F1EFED"/><stop offset=".343" stop-color="#DDD" stop-opacity=".22"/><stop offset=".419" stop-color="#F1EFED"/><stop offset=".587" stop-color="#DDD" stop-opacity=".22"/><stop offset=".7" stop-color="#DDD" stop-opacity=".22"/><stop offset=".784" stop-color="#DDD" stop-opacity=".22"/><stop offset=".991" stop-color="#F1EFED"/></linearGradient><linearGradient id="s" x1="1234" x2="565.475" y1="1005" y2="-198.874" gradientUnits="userSpaceOnUse"><stop offset=".183" stop-color="#F1EFED"/><stop offset=".343" stop-color="#DDD" stop-opacity=".22"/><stop offset=".419" stop-color="#F1EFED"/><stop offset=".587" stop-color="#DDD" stop-opacity=".22"/><stop offset=".7" stop-color="#DDD" stop-opacity=".22"/><stop offset=".784" stop-color="#DDD" stop-opacity=".22"/><stop offset=".991" stop-color="#F1EFED"/></linearGradient><linearGradient id="t" x1="1234" x2="565.475" y1="1005" y2="-198.874" gradientUnits="userSpaceOnUse"><stop offset=".183" stop-color="#F1EFED"/><stop offset=".343" stop-color="#DDD" stop-opacity=".22"/><stop offset=".419" stop-color="#F1EFED"/><stop offset=".587" stop-color="#DDD" stop-opacity=".22"/><stop offset=".7" stop-color="#DDD" stop-opacity=".22"/><stop offset=".784" stop-color="#DDD" stop-opacity=".22"/><stop offset=".991" stop-color="#F1EFED"/></linearGradient><linearGradient id="u" x1="1234" x2="565.475" y1="1005" y2="-198.874" gradientUnits="userSpaceOnUse"><stop offset=".183" stop-color="#F1EFED"/><stop offset=".343" stop-color="#DDD" stop-opacity=".22"/><stop offset=".419" stop-color="#F1EFED"/><stop offset=".587" stop-color="#DDD" stop-opacity=".22"/><stop offset=".7" stop-color="#DDD" stop-opacity=".22"/><stop offset=".784" stop-color="#DDD" stop-opacity=".22"/><stop offset=".991" stop-color="#F1EFED"/></linearGradient><linearGradient id="v" x1="1234" x2="565.475" y1="1005" y2="-198.874" gradientUnits="userSpaceOnUse"><stop offset=".183" stop-color="#F1EFED"/><stop offset=".343" stop-color="#DDD" stop-opacity=".22"/><stop offset=".419" stop-color="#F1EFED"/><stop offset=".587" stop-color="#DDD" stop-opacity=".22"/><stop offset=".7" stop-color="#DDD" stop-opacity=".22"/><stop offset=".784" stop-color="#DDD" stop-opacity=".22"/><stop offset=".991" stop-color="#F1EFED"/></linearGradient><linearGradient id="w" x1="1234" x2="565.475" y1="1005" y2="-198.874" gradientUnits="userSpaceOnUse"><stop offset=".183" stop-color="#F1EFED"/><stop offset=".343" stop-color="#DDD" stop-opacity=".22"/><stop offset=".419" stop-color="#F1EFED"/><stop offset=".587" stop-color="#DDD" stop-opacity=".22"/><stop offset=".7" stop-color="#DDD" stop-opacity=".22"/><stop offset=".784" stop-color="#DDD" stop-opacity=".22"/><stop offset=".991" stop-color="#F1EFED"/></linearGradient><linearGradient id="x" x1="1234" x2="565.475" y1="1005" y2="-198.874" gradientUnits="userSpaceOnUse"><stop offset=".183" stop-color="#F1EFED"/><stop offset=".343" stop-color="#DDD" stop-opacity=".22"/><stop offset=".419" stop-color="#F1EFED"/><stop offset=".587" stop-color="#DDD" stop-opacity=".22"/><stop offset=".7" stop-color="#DDD" stop-opacity=".22"/><stop offset=".784" stop-color="#DDD" stop-opacity=".22"/><stop offset=".991" stop-color="#F1EFED"/></linearGradient><linearGradient id="y" x1="1234" x2="565.475" y1="1005" y2="-198.874" gradientUnits="userSpaceOnUse"><stop offset=".183" stop-color="#F1EFED"/><stop offset=".343" stop-color="#DDD" stop-opacity=".22"/><stop offset=".419" stop-color="#F1EFED"/><stop offset=".587" stop-color="#DDD" stop-opacity=".22"/><stop offset=".7" stop-color="#DDD" stop-opacity=".22"/><stop offset=".784" stop-color="#DDD" stop-opacity=".22"/><stop offset=".991" stop-color="#F1EFED"/></linearGradient><linearGradient id="z" x1="1234" x2="565.475" y1="1005" y2="-198.874" gradientUnits="userSpaceOnUse"><stop offset=".183" stop-color="#F1EFED"/><stop offset=".343" stop-color="#DDD" stop-opacity=".22"/><stop offset=".419" stop-color="#F1EFED"/><stop offset=".587" stop-color="#DDD" stop-opacity=".22"/><stop offset=".7" stop-color="#DDD" stop-opacity=".22"/><stop offset=".784" stop-color="#DDD" stop-opacity=".22"/><stop offset=".991" stop-color="#F1EFED"/></linearGradient><linearGradient id="A" x1="1234" x2="565.475" y1="1005" y2="-198.874" gradientUnits="userSpaceOnUse"><stop offset=".183" stop-color="#F1EFED"/><stop offset=".343" stop-color="#DDD" stop-opacity=".22"/><stop offset=".419" stop-color="#F1EFED"/><stop offset=".587" stop-color="#DDD" stop-opacity=".22"/><stop offset=".7" stop-color="#DDD" stop-opacity=".22"/><stop offset=".784" stop-color="#DDD" stop-opacity=".22"/><stop offset=".991" stop-color="#F1EFED"/></linearGradient><linearGradient id="B" x1="1234" x2="565.475" y1="1005" y2="-198.874" gradientUnits="userSpaceOnUse"><stop offset=".183" stop-color="#F1EFED"/><stop offset=".343" stop-color="#DDD" stop-opacity=".22"/><stop offset=".419" stop-color="#F1EFED"/><stop offset=".587" stop-color="#DDD" stop-opacity=".22"/><stop offset=".7" stop-color="#DDD" stop-opacity=".22"/><stop offset=".784" stop-color="#DDD" stop-opacity=".22"/><stop offset=".991" stop-color="#F1EFED"/></linearGradient><linearGradient id="C" x1="1234" x2="565.475" y1="1005" y2="-198.874" gradientUnits="userSpaceOnUse"><stop offset=".183" stop-color="#F1EFED"/><stop offset=".343" stop-color="#DDD" stop-opacity=".22"/><stop offset=".419" stop-color="#F1EFED"/><stop offset=".587" stop-color="#DDD" stop-opacity=".22"/><stop offset=".7" stop-color="#DDD" stop-opacity=".22"/><stop offset=".784" stop-color="#DDD" stop-opacity=".22"/><stop offset=".991" stop-color="#F1EFED"/></linearGradient><linearGradient id="D" x1="1234" x2="565.475" y1="1005" y2="-198.874" gradientUnits="userSpaceOnUse"><stop offset=".183" stop-color="#F1EFED"/><stop offset=".343" stop-color="#DDD" stop-opacity=".22"/><stop offset=".419" stop-color="#F1EFED"/><stop offset=".587" stop-color="#DDD" stop-opacity=".22"/><stop offset=".7" stop-color="#DDD" stop-opacity=".22"/><stop offset=".784" stop-color="#DDD" stop-opacity=".22"/><stop offset=".991" stop-color="#F1EFED"/></linearGradient><linearGradient id="E" x1="1234" x2="565.475" y1="1005" y2="-198.874" gradientUnits="userSpaceOnUse"><stop offset=".183" stop-color="#F1EFED"/><stop offset=".343" stop-color="#DDD" stop-opacity=".22"/><stop offset=".419" stop-color="#F1EFED"/><stop offset=".587" stop-color="#DDD" stop-opacity=".22"/><stop offset=".7" stop-color="#DDD" stop-opacity=".22"/><stop offset=".784" stop-color="#DDD" stop-opacity=".22"/><stop offset=".991" stop-color="#F1EFED"/></linearGradient><linearGradient id="F" x1="1234" x2="565.475" y1="1005" y2="-198.874" gradientUnits="userSpaceOnUse"><stop offset=".183" stop-color="#F1EFED"/><stop offset=".343" stop-color="#DDD" stop-opacity=".22"/><stop offset=".419" stop-color="#F1EFED"/><stop offset=".587" stop-color="#DDD" stop-opacity=".22"/><stop offset=".7" stop-color="#DDD" stop-opacity=".22"/><stop offset=".784" stop-color="#DDD" stop-opacity=".22"/><stop offset=".991" stop-color="#F1EFED"/></linearGradient><linearGradient id="G" x1="1234" x2="565.475" y1="1005" y2="-198.874" gradientUnits="userSpaceOnUse"><stop offset=".183" stop-color="#F1EFED"/><stop offset=".343" stop-color="#DDD" stop-opacity=".22"/><stop offset=".419" stop-color="#F1EFED"/><stop offset=".587" stop-color="#DDD" stop-opacity=".22"/><stop offset=".7" stop-color="#DDD" stop-opacity=".22"/><stop offset=".784" stop-color="#DDD" stop-opacity=".22"/><stop offset=".991" stop-color="#F1EFED"/></linearGradient><linearGradient id="H" x1="1234" x2="565.475" y1="1005" y2="-198.874" gradientUnits="userSpaceOnUse"><stop offset=".183" stop-color="#F1EFED"/><stop offset=".343" stop-color="#DDD" stop-opacity=".22"/><stop offset=".419" stop-color="#F1EFED"/><stop offset=".587" stop-color="#DDD" stop-opacity=".22"/><stop offset=".7" stop-color="#DDD" stop-opacity=".22"/><stop offset=".784" stop-color="#DDD" stop-opacity=".22"/><stop offset=".991" stop-color="#F1EFED"/></linearGradient><linearGradient id="I" x1="1234" x2="565.475" y1="1005" y2="-198.874" gradientUnits="userSpaceOnUse"><stop offset=".183" stop-color="#F1EFED"/><stop offset=".343" stop-color="#DDD" stop-opacity=".22"/><stop offset=".419" stop-color="#F1EFED"/><stop offset=".587" stop-color="#DDD" stop-opacity=".22"/><stop offset=".7" stop-color="#DDD" stop-opacity=".22"/><stop offset=".784" stop-color="#DDD" stop-opacity=".22"/><stop offset=".991" stop-color="#F1EFED"/></linearGradient><linearGradient id="J" x1="1234" x2="565.475" y1="1005" y2="-198.874" gradientUnits="userSpaceOnUse"><stop offset=".183" stop-color="#F1EFED"/><stop offset=".343" stop-color="#DDD" stop-opacity=".22"/><stop offset=".419" stop-color="#F1EFED"/><stop offset=".587" stop-color="#DDD" stop-opacity=".22"/><stop offset=".7" stop-color="#DDD" stop-opacity=".22"/><stop offset=".784" stop-color="#DDD" stop-opacity=".22"/><stop offset=".991" stop-color="#F1EFED"/></linearGradient><linearGradient id="K" x1="1234" x2="565.475" y1="1005" y2="-198.874" gradientUnits="userSpaceOnUse"><stop offset=".183" stop-color="#F1EFED"/><stop offset=".343" stop-color="#DDD" stop-opacity=".22"/><stop offset=".419" stop-color="#F1EFED"/><stop offset=".587" stop-color="#DDD" stop-opacity=".22"/><stop offset=".7" stop-color="#DDD" stop-opacity=".22"/><stop offset=".784" stop-color="#DDD" stop-opacity=".22"/><stop offset=".991" stop-color="#F1EFED"/></linearGradient><linearGradient id="L" x1="1234" x2="565.475" y1="1005" y2="-198.874" gradientUnits="userSpaceOnUse"><stop offset=".183" stop-color="#F1EFED"/><stop offset=".343" stop-color="#DDD" stop-opacity=".22"/><stop offset=".419" stop-color="#F1EFED"/><stop offset=".587" stop-color="#DDD" stop-opacity=".22"/><stop offset=".7" stop-color="#DDD" stop-opacity=".22"/><stop offset=".784" stop-color="#DDD" stop-opacity=".22"/><stop offset=".991" stop-color="#F1EFED"/></linearGradient><linearGradient id="M" x1="1234" x2="565.475" y1="1005" y2="-198.874" gradientUnits="userSpaceOnUse"><stop offset=".183" stop-color="#F1EFED"/><stop offset=".343" stop-color="#DDD" stop-opacity=".22"/><stop offset=".419" stop-color="#F1EFED"/><stop offset=".587" stop-color="#DDD" stop-opacity=".22"/><stop offset=".7" stop-color="#DDD" stop-opacity=".22"/><stop offset=".784" stop-color="#DDD" stop-opacity=".22"/><stop offset=".991" stop-color="#F1EFED"/></linearGradient><linearGradient id="N" x1="1234" x2="565.475" y1="1005" y2="-198.874" gradientUnits="userSpaceOnUse"><stop offset=".183" stop-color="#F1EFED"/><stop offset=".343" stop-color="#DDD" stop-opacity=".22"/><stop offset=".419" stop-color="#F1EFED"/><stop offset=".587" stop-color="#DDD" stop-opacity=".22"/><stop offset=".7" stop-color="#DDD" stop-opacity=".22"/><stop offset=".784" stop-color="#DDD" stop-opacity=".22"/><stop offset=".991" stop-color="#F1EFED"/></linearGradient><linearGradient id="O" x1="1234" x2="565.475" y1="1005" y2="-198.874" gradientUnits="userSpaceOnUse"><stop offset=".183" stop-color="#F1EFED"/><stop offset=".343" stop-color="#DDD" stop-opacity=".22"/><stop offset=".419" stop-color="#F1EFED"/><stop offset=".587" stop-color="#DDD" stop-opacity=".22"/><stop offset=".7" stop-color="#DDD" stop-opacity=".22"/><stop offset=".784" stop-color="#DDD" stop-opacity=".22"/><stop offset=".991" stop-color="#F1EFED"/></linearGradient><linearGradient id="P" x1="1234" x2="565.475" y1="1005" y2="-198.874" gradientUnits="userSpaceOnUse"><stop offset=".183" stop-color="#F1EFED"/><stop offset=".343" stop-color="#DDD" stop-opacity=".22"/><stop offset=".419" stop-color="#F1EFED"/><stop offset=".587" stop-color="#DDD" stop-opacity=".22"/><stop offset=".7" stop-color="#DDD" stop-opacity=".22"/><stop offset=".784" stop-color="#DDD" stop-opacity=".22"/><stop offset=".991" stop-color="#F1EFED"/></linearGradient><linearGradient id="Q" x1="1234" x2="565.475" y1="1005" y2="-198.874" gradientUnits="userSpaceOnUse"><stop offset=".183" stop-color="#F1EFED"/><stop offset=".343" stop-color="#DDD" stop-opacity=".22"/><stop offset=".419" stop-color="#F1EFED"/><stop offset=".587" stop-color="#DDD" stop-opacity=".22"/><stop offset=".7" stop-color="#DDD" stop-opacity=".22"/><stop offset=".784" stop-color="#DDD" stop-opacity=".22"/><stop offset=".991" stop-color="#F1EFED"/></linearGradient><linearGradient id="R" x1="1234" x2="565.475" y1="1005" y2="-198.874" gradientUnits="userSpaceOnUse"><stop offset=".183" stop-color="#F1EFED"/><stop offset=".343" stop-color="#DDD" stop-opacity=".22"/><stop offset=".419" stop-color="#F1EFED"/><stop offset=".587" stop-color="#DDD" stop-opacity=".22"/><stop offset=".7" stop-color="#DDD" stop-opacity=".22"/><stop offset=".784" stop-color="#DDD" stop-opacity=".22"/><stop offset=".991" stop-color="#F1EFED"/></linearGradient><linearGradient id="S" x1="1234" x2="565.475" y1="1005" y2="-198.874" gradientUnits="userSpaceOnUse"><stop offset=".183" stop-color="#F1EFED"/><stop offset=".343" stop-color="#DDD" stop-opacity=".22"/><stop offset=".419" stop-color="#F1EFED"/><stop offset=".587" stop-color="#DDD" stop-opacity=".22"/><stop offset=".7" stop-color="#DDD" stop-opacity=".22"/><stop offset=".784" stop-color="#DDD" stop-opacity=".22"/><stop offset=".991" stop-color="#F1EFED"/></linearGradient><linearGradient id="T" x1="1234" x2="565.475" y1="1005" y2="-198.874" gradientUnits="userSpaceOnUse"><stop offset=".183" stop-color="#F1EFED"/><stop offset=".343" stop-color="#DDD" stop-opacity=".22"/><stop offset=".419" stop-color="#F1EFED"/><stop offset=".587" stop-color="#DDD" stop-opacity=".22"/><stop offset=".7" stop-color="#DDD" stop-opacity=".22"/><stop offset=".784" stop-color="#DDD" stop-opacity=".22"/><stop offset=".991" stop-color="#F1EFED"/></linearGradient><linearGradient id="U" x1="1234" x2="565.475" y1="1005" y2="-198.874" gradientUnits="userSpaceOnUse"><stop offset=".183" stop-color="#F1EFED"/><stop offset=".343" stop-color="#DDD" stop-opacity=".22"/><stop offset=".419" stop-color="#F1EFED"/><stop offset=".587" stop-color="#DDD" stop-opacity=".22"/><stop offset=".7" stop-color="#DDD" stop-opacity=".22"/><stop offset=".784" stop-color="#DDD" stop-opacity=".22"/><stop offset=".991" stop-color="#F1EFED"/></linearGradient><linearGradient id="V" x1="1234" x2="565.475" y1="1005" y2="-198.874" gradientUnits="userSpaceOnUse"><stop offset=".183" stop-color="#F1EFED"/><stop offset=".343" stop-color="#DDD" stop-opacity=".22"/><stop offset=".419" stop-color="#F1EFED"/><stop offset=".587" stop-color="#DDD" stop-opacity=".22"/><stop offset=".7" stop-color="#DDD" stop-opacity=".22"/><stop offset=".784" stop-color="#DDD" stop-opacity=".22"/><stop offset=".991" stop-color="#F1EFED"/></linearGradient><linearGradient id="W" x1="1234" x2="565.475" y1="1005" y2="-198.874" gradientUnits="userSpaceOnUse"><stop offset=".183" stop-color="#F1EFED"/><stop offset=".343" stop-color="#DDD" stop-opacity=".22"/><stop offset=".419" stop-color="#F1EFED"/><stop offset=".587" stop-color="#DDD" stop-opacity=".22"/><stop offset=".7" stop-color="#DDD" stop-opacity=".22"/><stop offset=".784" stop-color="#DDD" stop-opacity=".22"/><stop offset=".991" stop-color="#F1EFED"/></linearGradient><linearGradient id="X" x1="1234" x2="565.475" y1="1005" y2="-198.874" gradientUnits="userSpaceOnUse"><stop offset=".183" stop-color="#F1EFED"/><stop offset=".343" stop-color="#DDD" stop-opacity=".22"/><stop offset=".419" stop-color="#F1EFED"/><stop offset=".587" stop-color="#DDD" stop-opacity=".22"/><stop offset=".7" stop-color="#DDD" stop-opacity=".22"/><stop offset=".784" stop-color="#DDD" stop-opacity=".22"/><stop offset=".991" stop-color="#F1EFED"/></linearGradient><linearGradient id="Y" x1="1234" x2="565.475" y1="1005" y2="-198.874" gradientUnits="userSpaceOnUse"><stop offset=".183" stop-color="#F1EFED"/><stop offset=".343" stop-color="#DDD" stop-opacity=".22"/><stop offset=".419" stop-color="#F1EFED"/><stop offset=".587" stop-color="#DDD" stop-opacity=".22"/><stop offset=".7" stop-color="#DDD" stop-opacity=".22"/><stop offset=".784" stop-color="#DDD" stop-opacity=".22"/><stop offset=".991" stop-color="#F1EFED"/></linearGradient><linearGradient id="Z" x1="1234" x2="565.475" y1="1005" y2="-198.874" gradientUnits="userSpaceOnUse"><stop offset=".183" stop-color="#F1EFED"/><stop offset=".343" stop-color="#DDD" stop-opacity=".22"/><stop offset=".419" stop-color="#F1EFED"/><stop offset=".587" stop-color="#DDD" stop-opacity=".22"/><stop offset=".7" stop-color="#DDD" stop-opacity=".22"/><stop offset=".784" stop-color="#DDD" stop-opacity=".22"/><stop offset=".991" stop-color="#F1EFED"/></linearGradient><linearGradient id="aa" x1="1234" x2="565.475" y1="1005" y2="-198.874" gradientUnits="userSpaceOnUse"><stop offset=".183" stop-color="#F1EFED"/><stop offset=".343" stop-color="#DDD" stop-opacity=".22"/><stop offset=".419" stop-color="#F1EFED"/><stop offset=".587" stop-color="#DDD" stop-opacity=".22"/><stop offset=".7" stop-color="#DDD" stop-opacity=".22"/><stop offset=".784" stop-color="#DDD" stop-opacity=".22"/><stop offset=".991" stop-color="#F1EFED"/></linearGradient><linearGradient id="ab" x1="1234" x2="565.475" y1="1005" y2="-198.874" gradientUnits="userSpaceOnUse"><stop offset=".183" stop-color="#F1EFED"/><stop offset=".343" stop-color="#DDD" stop-opacity=".22"/><stop offset=".419" stop-color="#F1EFED"/><stop offset=".587" stop-color="#DDD" stop-opacity=".22"/><stop offset=".7" stop-color="#DDD" stop-opacity=".22"/><stop offset=".784" stop-color="#DDD" stop-opacity=".22"/><stop offset=".991" stop-color="#F1EFED"/></linearGradient><linearGradient id="ac" x1="1234" x2="565.475" y1="1005" y2="-198.874" gradientUnits="userSpaceOnUse"><stop offset=".183" stop-color="#F1EFED"/><stop offset=".343" stop-color="#DDD" stop-opacity=".22"/><stop offset=".419" stop-color="#F1EFED"/><stop offset=".587" stop-color="#DDD" stop-opacity=".22"/><stop offset=".7" stop-color="#DDD" stop-opacity=".22"/><stop offset=".784" stop-color="#DDD" stop-opacity=".22"/><stop offset=".991" stop-color="#F1EFED"/></linearGradient><linearGradient id="ad" x1="1234" x2="565.475" y1="1005" y2="-198.874" gradientUnits="userSpaceOnUse"><stop offset=".183" stop-color="#F1EFED"/><stop offset=".343" stop-color="#DDD" stop-opacity=".22"/><stop offset=".419" stop-color="#F1EFED"/><stop offset=".587" stop-color="#DDD" stop-opacity=".22"/><stop offset=".7" stop-color="#DDD" stop-opacity=".22"/><stop offset=".784" stop-color="#DDD" stop-opacity=".22"/><stop offset=".991" stop-color="#F1EFED"/></linearGradient><linearGradient id="ae" x1="1234" x2="565.475" y1="1005" y2="-198.874" gradientUnits="userSpaceOnUse"><stop offset=".183" stop-color="#F1EFED"/><stop offset=".343" stop-color="#DDD" stop-opacity=".22"/><stop offset=".419" stop-color="#F1EFED"/><stop offset=".587" stop-color="#DDD" stop-opacity=".22"/><stop offset=".7" stop-color="#DDD" stop-opacity=".22"/><stop offset=".784" stop-color="#DDD" stop-opacity=".22"/><stop offset=".991" stop-color="#F1EFED"/></linearGradient><linearGradient id="af" x1="1234" x2="565.475" y1="1005" y2="-198.874" gradientUnits="userSpaceOnUse"><stop offset=".183" stop-color="#F1EFED"/><stop offset=".343" stop-color="#DDD" stop-opacity=".22"/><stop offset=".419" stop-color="#F1EFED"/><stop offset=".587" stop-color="#DDD" stop-opacity=".22"/><stop offset=".7" stop-color="#DDD" stop-opacity=".22"/><stop offset=".784" stop-color="#DDD" stop-opacity=".22"/><stop offset=".991" stop-color="#F1EFED"/></linearGradient><linearGradient id="ag" x1="1234" x2="565.475" y1="1005" y2="-198.874" gradientUnits="userSpaceOnUse"><stop offset=".183" stop-color="#F1EFED"/><stop offset=".343" stop-color="#DDD" stop-opacity=".22"/><stop offset=".419" stop-color="#F1EFED"/><stop offset=".587" stop-color="#DDD" stop-opacity=".22"/><stop offset=".7" stop-color="#DDD" stop-opacity=".22"/><stop offset=".784" stop-color="#DDD" stop-opacity=".22"/><stop offset=".991" stop-color="#F1EFED"/></linearGradient><linearGradient id="ah" x1="1234" x2="565.475" y1="1005" y2="-198.874" gradientUnits="userSpaceOnUse"><stop offset=".183" stop-color="#F1EFED"/><stop offset=".343" stop-color="#DDD" stop-opacity=".22"/><stop offset=".419" stop-color="#F1EFED"/><stop offset=".587" stop-color="#DDD" stop-opacity=".22"/><stop offset=".7" stop-color="#DDD" stop-opacity=".22"/><stop offset=".784" stop-color="#DDD" stop-opacity=".22"/><stop offset=".991" stop-color="#F1EFED"/></linearGradient><linearGradient id="ai" x1="1234" x2="565.475" y1="1005" y2="-198.874" gradientUnits="userSpaceOnUse"><stop offset=".183" stop-color="#F1EFED"/><stop offset=".343" stop-color="#DDD" stop-opacity=".22"/><stop offset=".419" stop-color="#F1EFED"/><stop offset=".587" stop-color="#DDD" stop-opacity=".22"/><stop offset=".7" stop-color="#DDD" stop-opacity=".22"/><stop offset=".784" stop-color="#DDD" stop-opacity=".22"/><stop offset=".991" stop-color="#F1EFED"/></linearGradient><linearGradient id="aj" x1="1234" x2="565.475" y1="1005" y2="-198.874" gradientUnits="userSpaceOnUse"><stop offset=".183" stop-color="#F1EFED"/><stop offset=".343" stop-color="#DDD" stop-opacity=".22"/><stop offset=".419" stop-color="#F1EFED"/><stop offset=".587" stop-color="#DDD" stop-opacity=".22"/><stop offset=".7" stop-color="#DDD" stop-opacity=".22"/><stop offset=".784" stop-color="#DDD" stop-opacity=".22"/><stop offset=".991" stop-color="#F1EFED"/></linearGradient><linearGradient id="ak" x1="1234" x2="565.475" y1="1005" y2="-198.874" gradientUnits="userSpaceOnUse"><stop offset=".183" stop-color="#F1EFED"/><stop offset=".343" stop-color="#DDD" stop-opacity=".22"/><stop offset=".419" stop-color="#F1EFED"/><stop offset=".587" stop-color="#DDD" stop-opacity=".22"/><stop offset=".7" stop-color="#DDD" stop-opacity=".22"/><stop offset=".784" stop-color="#DDD" stop-opacity=".22"/><stop offset=".991" stop-color="#F1EFED"/></linearGradient></defs></svg>
