<svg xmlns="http://www.w3.org/2000/svg" width="473" height="339" fill="none" viewBox="0 0 473 339"><path fill="#000" d="M383.506 331.38ZM389.816 315.008a59.83 59.83 0 0 1 5.536-6.921c.01-.004.021-.006.031-.004.011.002.02.008.027.016a.1.1 0 0 1 .007.015.033.033 0 0 1-.001.017.047.047 0 0 1-.006.015 60.716 60.716 0 0 0-5.565 6.898l-.035-.007s0-.03.006-.029ZM401.657 301.866l6.681-5.858a.072.072 0 0 1 .024-.014c.009-.003.018-.004.028-.003a.092.092 0 0 1 .027.008c.008.004.015.01.021.017a.089.089 0 0 1 .014.025c.003.009.004.018.003.028a.079.079 0 0 1-.025.048l-6.687 5.803a.062.062 0 0 1-.044.008.057.057 0 0 1-.037-.025.067.067 0 0 1-.005-.037ZM415.105 290.324l6.639-5.867a.104.104 0 0 1 .037-.017.086.086 0 0 1 .039 0 .095.095 0 0 1 .037.016c.011.008.02.018.026.03.015.022.02.049.015.075a.106.106 0 0 1-.043.064l-6.681 5.858a.089.089 0 0 1-.115-.024.09.09 0 0 1-.013-.066.087.087 0 0 1 .038-.055l.021-.014ZM428.024 278.221c2-2.166 3.852-4.464 5.546-6.877a.13.13 0 0 1 .083-.055.151.151 0 0 1 .052 0 .151.151 0 0 1 .047.021.13.13 0 0 1 .055.083.151.151 0 0 1 0 .052.151.151 0 0 1-.021.047 66.671 66.671 0 0 1-5.595 6.884.131.131 0 0 1-.035.027.119.119 0 0 1-.042.011.13.13 0 0 1-.044-.006.125.125 0 0 1-.066-.059.111.111 0 0 1 .02-.128ZM437.944 159.4a40.49 40.49 0 0 0 1.588-4.123c.46-1.394.796-2.826 1.004-4.28a.16.16 0 0 1 .122-.153.167.167 0 0 1 .133.027.167.167 0 0 1 .064.121.159.159 0 0 1-.013.068 24.924 24.924 0 0 1-1.027 4.336 40.635 40.635 0 0 1-1.61 4.142.152.152 0 0 1-.031.048.152.152 0 0 1-.048.031.154.154 0 0 1-.056.01.148.148 0 0 1-.055-.013.147.147 0 0 1-.085-.091.15.15 0 0 1 .014-.123ZM439.079 246.821a11.754 11.754 0 0 0-2.919-3.215 17.631 17.631 0 0 0-3.773-2.178.184.184 0 0 1-.101-.104.192.192 0 0 1 .106-.247.192.192 0 0 1 .145.003 18.138 18.138 0 0 1 3.861 2.25 12.102 12.102 0 0 1 2.995 3.314.172.172 0 0 1 .025.129.175.175 0 0 1-.074.108.171.171 0 0 1-.07.032.177.177 0 0 1-.195-.092ZM423.876 239.172a70.44 70.44 0 0 0-8.791-.662.219.219 0 0 1-.083-.016.224.224 0 0 1-.07-.048.22.22 0 0 1 .159-.369c2.957.047 5.909.28 8.837.696a.173.173 0 0 1 .074.026.196.196 0 0 1 .096.202.2.2 0 0 1-.222.171ZM406.26 238.721l-8.814.763a.244.244 0 0 1-.164-.067.245.245 0 0 1-.029-.33.247.247 0 0 1 .15-.095l8.844-.738a.236.236 0 0 1 .169.054.233.233 0 0 1 .026.326.231.231 0 0 1-.157.08l-.025.007ZM388.737 240.903l-8.741 1.436a.277.277 0 0 1-.087-.543l8.736-1.412a.246.246 0 0 1 .192.046.255.255 0 0 1 .101.171.246.246 0 0 1-.212.294l.011.008ZM371.23 243.71l-8.736 1.731a.3.3 0 0 1-.114-.59l8.695-1.68a.295.295 0 0 1 .338.233.289.289 0 0 1-.183.306ZM353.807 246.964l-8.672 1.83a.323.323 0 0 1-.38-.25.322.322 0 0 1 .251-.38l8.694-1.825a.323.323 0 0 1 .12-.002c.04.007.077.022.111.045a.311.311 0 0 1 .131.195.306.306 0 0 1-.238.361l-.017.026ZM336.522 250.809l-8.579 2.198a.33.33 0 0 1-.365-.49.336.336 0 0 1 .202-.152l8.594-2.184a.326.326 0 0 1 .4.358.328.328 0 0 1-.239.267l-.013.003ZM319.394 255.321l-8.524 2.403a.354.354 0 0 1-.216-.064.347.347 0 0 1 .017-.581l8.538-2.382c.08-.01.161.009.228.054a.334.334 0 0 1 .12.422.335.335 0 0 1-.167.165l.004-.017ZM302.35 260.168l-8.525 2.463a.373.373 0 0 1-.424-.1.372.372 0 0 1-.029-.435.378.378 0 0 1 .253-.164l8.524-2.427a.356.356 0 1 1 .196.686l.005-.023ZM285.3 265.002l-8.549 2.344a.382.382 0 0 1-.468-.272.38.38 0 0 1 .264-.464l8.55-2.319a.382.382 0 0 1 .394.132.366.366 0 0 1-.191.579ZM268.168 269.571l-8.621 2.082c-.052.015-.106.02-.16.015a.394.394 0 0 1-.346-.461.4.4 0 0 1 .171-.263.403.403 0 0 1 .149-.06l8.612-2.065a.389.389 0 0 1 .502.279.392.392 0 0 1-.17.421.407.407 0 0 1-.15.056l.013-.004ZM250.88 273.55l-8.715 1.663a.414.414 0 0 1-.487-.329.414.414 0 0 1 .33-.487l8.698-1.637a.408.408 0 0 1 .433.331.407.407 0 0 1-.284.466l.025-.007ZM233.395 276.587l-8.819 1.051a.43.43 0 0 1-.095-.852l8.783-1.028a.412.412 0 0 1 .31.087.41.41 0 0 1 .157.281.414.414 0 0 1-.336.461ZM215.723 278.296l-8.881.218a.459.459 0 0 1-.319-.123.469.469 0 0 1-.1-.142.45.45 0 0 1 .228-.588.43.43 0 0 1 .169-.038l8.836-.198a.447.447 0 0 1 .313.122.431.431 0 0 1 .135.309.434.434 0 0 1-.381.44ZM197.956 278.229l-4.428-.347a31.758 31.758 0 0 1-4.427-.763.462.462 0 0 1-.16-.836.461.461 0 0 1 .347-.066c1.412.351 2.848.601 4.297.748l4.402.353a.458.458 0 0 1 .311.155.438.438 0 0 1 .108.33.456.456 0 0 1-.45.426ZM180.638 274.252a74.69 74.69 0 0 1-7.983-3.958.467.467 0 0 1-.223-.288.476.476 0 0 1 .695-.537 74.303 74.303 0 0 0 7.877 3.917.479.479 0 0 1 .252.619.474.474 0 0 1-.618.247ZM165.18 265.453a61.83 61.83 0 0 1-6.784-5.797.497.497 0 1 1 .7-.7 60.953 60.953 0 0 0 6.661 5.717.492.492 0 0 1 .19.322.48.48 0 0 1-.096.361.479.479 0 0 1-.671.097ZM152.69 252.755a28.097 28.097 0 0 1-3.742-8.166.503.503 0 0 1 .051-.383.494.494 0 0 1 .31-.23.508.508 0 0 1 .613.362 26.954 26.954 0 0 0 3.611 7.873.487.487 0 0 1-.004.552.504.504 0 0 1-.839-.008ZM148.618 235.584a20.613 20.613 0 0 1 1.386-4.316c.3-.689.64-1.36 1.018-2.009l1.114-1.948a.51.51 0 0 1 .884.509l-.007.034-1.08 1.9c-.376.62-.711 1.264-1.001 1.929a19.665 19.665 0 0 0-1.317 4.1.533.533 0 0 1-.075.183.514.514 0 0 1-.322.214.507.507 0 0 1-.381-.076.504.504 0 0 1-.219-.52ZM157.65 220.258a57.949 57.949 0 0 1 6.661-5.971.53.53 0 0 1 .181-.101.51.51 0 0 1 .652.362.494.494 0 0 1 .011.206.524.524 0 0 1-.215.345 57.77 57.77 0 0 0-6.53 5.889.513.513 0 0 1-.722.02.51.51 0 0 1-.038-.75ZM171.633 209.238a106.438 106.438 0 0 1 7.799-4.295.516.516 0 0 1 .652.254.516.516 0 0 1-.192.673 105.246 105.246 0 0 0-7.718 4.251.514.514 0 0 1-.377.037.521.521 0 0 1-.164-.92ZM187.513 201.232l8.261-3.259a.535.535 0 0 1 .681.297.528.528 0 0 1-.297.681l-8.237 3.227a.525.525 0 0 1-.399-.008.518.518 0 0 1-.276-.288.53.53 0 0 1 .267-.65ZM204.166 195.061l8.469-2.661a.53.53 0 0 1 .6.747.533.533 0 0 1-.284.265l-8.443 2.649a.53.53 0 0 1-.662-.345.526.526 0 0 1 .345-.662l-.025.007ZM221.144 189.917l8.542-2.4a.537.537 0 0 1 .563.183.54.54 0 0 1 .111.392.531.531 0 0 1-.385.45l-8.536 2.401a.532.532 0 0 1-.289-1.025l-.006-.001ZM238.199 185.09l4.224-1.294c1.411-.439 2.813-.861 4.234-1.316a.537.537 0 0 1 .679.348.54.54 0 0 1-.348.68l-4.234 1.309-4.243 1.302a.537.537 0 0 1-.312-1.029ZM255.187 180.026l8.511-2.4a.549.549 0 0 1 .594.174.543.543 0 0 1-.297.871l-8.536 2.4a.538.538 0 0 1-.574-.189.548.548 0 0 1 .284-.86l.018.004ZM272.203 175.136l8.441-2.674a.555.555 0 0 1 .692.36.554.554 0 0 1-.171.588.556.556 0 0 1-.189.104l-8.459 2.7a.544.544 0 0 1-.622-.147.554.554 0 0 1 .295-.898l.013-.033ZM289.002 169.61l8.258-3.156a.553.553 0 0 1 .692.333.554.554 0 0 1-.304.706l-8.269 3.154a.553.553 0 0 1-.713-.316.591.591 0 0 1 .317-.718l.019-.003ZM305.335 162.916a117.343 117.343 0 0 0 7.836-4.034.57.57 0 0 1 .435-.07.562.562 0 0 1 .125 1.042 118.552 118.552 0 0 1-7.922 4.07.552.552 0 0 1-.741-.267.59.59 0 0 1 .267-.741ZM320.591 154.135a43.91 43.91 0 0 0 6.55-5.783.59.59 0 0 1 .835.775 45.245 45.245 0 0 1-6.719 5.929.59.59 0 0 1-.668-.91l.002-.011ZM331.808 141.119c.52-1.33.865-2.723 1.024-4.143.082-.7.111-1.406.086-2.111a5.445 5.445 0 0 0-.492-1.911.592.592 0 0 1 .71-.676c.126.028.24.097.324.196.34.737.54 1.531.59 2.341a14.99 14.99 0 0 1-.085 2.311 17.621 17.621 0 0 1-1.102 4.434.59.59 0 0 1-.741.317.592.592 0 0 1-.314-.758ZM325.765 128.24a43.511 43.511 0 0 0-8.568-1.654.593.593 0 0 1-.485-.166.594.594 0 0 1-.087-.732.6.6 0 0 1 .433-.275.593.593 0 0 1 .261.028c2.985.27 5.935.84 8.805 1.702a.59.59 0 0 1-.353 1.098l-.006-.001ZM308.392 126.12l-8.814.153a.594.594 0 0 1-.383-.964.591.591 0 0 1 .359-.205l8.873-.147a.597.597 0 0 1 .486.119.581.581 0 0 1 .169.701.59.59 0 0 1-.636.342l-.054.001ZM292.368 126.992l-13.142.818a1.341 1.341 0 0 1-.369 0 1.162 1.162 0 0 1-.337-.102.767.767 0 0 1-.244-.185.418.418 0 0 1-.067-.482.6.6 0 0 1 .19-.212.956.956 0 0 1 .302-.141c.115-.033.238-.048.363-.046l13.187-.819c.216.004.423.06.581.159.158.099.256.233.277.377.02.144-.04.288-.168.405a.996.996 0 0 1-.528.228h-.045ZM273.154 128.661l-8.782 1.167a.587.587 0 0 1-.601-.514.59.59 0 0 1 .449-.651l8.795-1.201a.582.582 0 0 1 .438.116.6.6 0 0 1 .226.392.576.576 0 0 1-.116.437.588.588 0 0 1-.392.227l-.017.027ZM255.518 130.659l-8.806.668a.59.59 0 0 1-.092-1.159l8.836-.667a.593.593 0 0 1 .648.288.59.59 0 0 1-.557.876l-.029-.006ZM237.847 132l-8.829.693a.589.589 0 0 1-.626-.533.593.593 0 0 1 .533-.62l8.841-.697a.589.589 0 0 1 .524.543.593.593 0 0 1-.437.615l-.006-.001ZM220.18 133.39l-8.832.711a.596.596 0 0 1-.71-.251.585.585 0 0 1-.042-.523.591.591 0 0 1 .66-.361l8.834-.716a.585.585 0 0 1 .516.064.598.598 0 0 1 .265.448.59.59 0 0 1-.691.628ZM202.524 134.817l-8.835.722a.592.592 0 0 1-.718-.243.587.587 0 0 1 .353-.878.595.595 0 0 1 .272-.008l8.837-.727a.59.59 0 0 1 .091 1.134ZM184.857 136.263l-8.839.74a.566.566 0 0 1-.432-.116.578.578 0 0 1-.21-.395.562.562 0 0 1 .553-.606l8.829-.723a.56.56 0 0 1 .547.3.561.561 0 0 1 .06.211.593.593 0 0 1-.513.612l.005-.023ZM167.19 137.694l-8.832.711a.566.566 0 0 1-.405-.133.555.555 0 0 1 .32-.976l8.827-.712a.546.546 0 0 1 .406.13.564.564 0 0 1 .064.786.564.564 0 0 1-.38.194ZM149.524 139.101l-8.835.692a.548.548 0 0 1-.457-.907.55.55 0 0 1 .376-.19l8.83-.699a.558.558 0 0 1 .468.912.55.55 0 0 1-.376.193l-.006-.001ZM131.858 140.491l-8.836.698a.543.543 0 1 1-.084-1.085l8.83-.699a.55.55 0 0 1 .592.496.55.55 0 0 1-.496.592l-.006-.002ZM114.182 141.826l-8.853.519a.53.53 0 0 1-.39-.133.54.54 0 0 1 .322-.942l8.838-.529a.55.55 0 0 1 .576.511.543.543 0 0 1-.51.57l.017.004ZM96.459 142.698l-8.875.129a.53.53 0 0 1-.54-.525.535.535 0 0 1 .524-.54l8.847-.135a.549.549 0 0 1 .413.133.54.54 0 0 1 .01.794.543.543 0 0 1-.41.144h.03ZM78.707 142.682l-8.876-.456a.533.533 0 0 1-.489-.553.525.525 0 0 1 .554-.489l8.829.477a.52.52 0 0 1 .367.175.54.54 0 0 1 .135.384.535.535 0 0 1-.559.503l.038-.041ZM60.997 141.332l-8.778-1.305a.523.523 0 0 1-.44-.591.513.513 0 0 1 .205-.342.523.523 0 0 1 .387-.097l.029.006 8.738 1.297a.522.522 0 0 1 .397.588.528.528 0 0 1-.55.448l.012-.004ZM43.493 138.166a46.045 46.045 0 0 1-8.42-3.04.516.516 0 0 1 .456-.925 45.219 45.219 0 0 0 8.232 2.959.52.52 0 0 1-.268 1.006ZM27.52 128.098a8.07 8.07 0 0 1-.901-4.571c.17-1.539.637-3.03 1.376-4.39a.512.512 0 0 1 .499-.276.52.52 0 0 1 .412.748 10.985 10.985 0 0 0-1.268 4.008 7.047 7.047 0 0 0 .796 4 .513.513 0 0 1-.21.698.521.521 0 0 1-.393.04.522.522 0 0 1-.306-.25l-.004-.007ZM34.257 113.234a67.417 67.417 0 0 1 6.86-5.706.499.499 0 0 1 .39-.123.517.517 0 0 1 .355.205.508.508 0 0 1-.147.735 67.127 67.127 0 0 0-6.753 5.626.514.514 0 0 1-.729-.021.514.514 0 0 1 .02-.728l.004.012ZM48.489 102.548l7.674-4.447a.495.495 0 0 1 .687.178.502.502 0 0 1-.184.686l-7.628 4.456a.49.49 0 0 1-.38.056.506.506 0 0 1-.128-.927l-.041-.002ZM64.05 93.993l8.057-3.765a.49.49 0 0 1 .414.888L64.51 94.86a.508.508 0 0 1-.667-.246.501.501 0 0 1 .245-.662l-.039.04ZM80.324 86.845c2.774-1.05 5.568-2.048 8.427-2.839a.472.472 0 0 1 .54.69.478.478 0 0 1-.288.225c-2.822.78-5.602 1.775-8.352 2.824a.486.486 0 0 1-.654-.268.484.484 0 0 1 .31-.635l.017.003ZM97.363 81.823l8.606-2.096a.463.463 0 0 1 .603.323.456.456 0 0 1-.065.368.458.458 0 0 1-.317.199l-8.603 2.11a.473.473 0 0 1-.569-.342.466.466 0 0 1 .345-.562ZM114.612 77.711l8.642-1.95a.45.45 0 0 1 .535.333.447.447 0 0 1-.179.464.448.448 0 0 1-.161.07l-8.638 1.963a.456.456 0 0 1-.205-.881l.006.001ZM99.588 89.498l8.66-1.832a.441.441 0 0 1 .465.173.448.448 0 0 1 .07.16.425.425 0 0 1-.177.467.426.426 0 0 1-.163.067l-8.655 1.869a.436.436 0 0 1-.535-.334.433.433 0 0 1 .334-.534l.001-.036ZM149.248 70.186l8.677-1.828a.406.406 0 0 1 .309.056.393.393 0 0 1 .175.26.408.408 0 0 1-.317.484l-8.666 1.831a.42.42 0 0 1-.174-.82l-.004.017ZM166.59 66.57l8.672-1.83a.39.39 0 0 1 .468.303.396.396 0 0 1-.302.468l-8.671 1.83a.404.404 0 0 1-.476-.313.403.403 0 0 1 .313-.475l-.004.017ZM183.929 62.923l8.657-1.875a.38.38 0 0 1 .391.154.374.374 0 0 1 .062.283.379.379 0 0 1-.292.302l-8.671 1.884a.382.382 0 0 1-.458-.293.38.38 0 0 1 .052-.29.387.387 0 0 1 .242-.168l.017.003ZM201.231 59.137l8.639-1.993a.36.36 0 0 1 .387.542.362.362 0 0 1-.225.16l-8.633 1.995a.37.37 0 0 1-.172-.717l.004.013ZM218.485 55.11l8.595-2.136a.34.34 0 0 1 .358.127.358.358 0 0 1 .063.256.338.338 0 0 1-.257.285l-8.598 2.146a.35.35 0 1 1-.167-.68l.006.001ZM235.65 50.746l8.541-2.338a.329.329 0 0 1 .35.116.334.334 0 0 1 .026.367.326.326 0 0 1-.2.156l-8.545 2.356a.337.337 0 1 1-.182-.64l.01-.017ZM252.705 45.973l8.387-2.787a.32.32 0 0 1 .399.203.316.316 0 0 1-.202.393l-8.422 2.81a.32.32 0 1 1-.2-.608l.038-.01Z"/><path fill="#000" fill-rule="evenodd" d="M273.105 174.208c49.97-5.219 89.938-16.941 89.27-26.181-.668-9.24-41.719-12.499-91.69-7.279-10.466 1.093-20.494 2.471-29.801 4.052l-59.399 22.6c2.013 8.878 42.509 11.938 91.62 6.808Z" clip-rule="evenodd"/><path fill="#F1EFED" d="M181.415 166.929c.011.159.035.316.07.471l59.399-22.6c-35.129 5.968-59.997 14.824-59.469 22.129Z"/><path stroke="#000" stroke-width="2" d="M181.485 167.4c2.013 8.878 42.509 11.938 91.62 6.808 49.97-5.219 89.938-16.941 89.27-26.181-.668-9.24-41.719-12.499-91.69-7.279-10.466 1.093-20.494 2.471-29.801 4.052m-59.399 22.6a3.111 3.111 0 0 1-.07-.471c-.528-7.305 24.34-16.161 59.469-22.129m-59.399 22.6 59.399-22.6"/><ellipse cx="95.006" cy="22.489" fill="#F1EFED" stroke="#000" stroke-linejoin="round" stroke-width="1.13" rx="95.006" ry="22.489" transform="matrix(.99948 .03239 -.16756 .98586 178.09 116.852)"/><path fill="#000" d="M202.373 141.998c.389.212.682.484.878.815.196.322.291.691.286 1.107a2.34 2.34 0 0 1-.339 1.22 2.204 2.204 0 0 1-.934.829c-.411.202-.9.3-1.468.293l-3.768-.047.105-8.399 3.755.047c.544.007 1.011.112 1.4.317.39.205.683.481.878.827.204.347.303.736.298 1.168-.005.4-.098.755-.278 1.065-.179.309-.451.562-.813.758Zm-1.59-.464c.48.006.841-.102 1.084-.323.251-.229.379-.559.384-.991.01-.824-.469-1.242-1.436-1.254l-2.496-.031-.032 2.568 2.496.031Zm-.033 3.624c.495.006.873-.102 1.132-.322.258-.221.39-.548.396-.979.005-.416-.119-.73-.373-.941-.253-.219-.627-.332-1.123-.338l-2.508-.031-.032 2.579 2.508.032Zm7.463-4.924c.616.008 1.15.146 1.603.416.461.27.812.65 1.054 1.141.242.483.359 1.049.351 1.697a4.07 4.07 0 0 1-.017.372l-4.919-.062c.074.465.285.852.633 1.16.356.301.771.454 1.243.46.775.009 1.331-.268 1.666-.831l1.176.014c-.199.558-.561 1.013-1.085 1.367a3.082 3.082 0 0 1-1.771.506 3.196 3.196 0 0 1-1.579-.416 2.908 2.908 0 0 1-1.09-1.13 3.28 3.28 0 0 1-.376-1.612 3.216 3.216 0 0 1 .416-1.591c.27-.477.639-.844 1.106-1.103a3.118 3.118 0 0 1 1.589-.388Zm-.037 1.008a1.82 1.82 0 0 0-1.229.428c-.34.292-.552.67-.638 1.133l3.684.045c-.042-.48-.234-.867-.574-1.159-.332-.292-.747-.441-1.243-.447Zm6.492.272-.039 3.168c-.004.256.058.453.184.591.134.137.366.208.694.212a3.81 3.81 0 0 0 .792-.062l-.013 1.044a2.806 2.806 0 0 1-.829.098c-.656-.008-1.15-.171-1.482-.487-.332-.324-.494-.794-.486-1.41l.039-3.168-1.2-.015.014-1.08 1.199.015.02-1.559 1.14.014-.02 1.56 3 .037-.013 1.08-3-.038Zm4.947.062-.039 3.168c-.003.256.054.453.172.59.127.138.342.208.646.212a3.14 3.14 0 0 0 .733-.063l-.013 1.044a2.537 2.537 0 0 1-.794.098c-1.271-.016-1.9-.647-1.884-1.895l.039-3.168-1.2-.015.014-1.08 1.2.015.019-1.56 1.14.014-.019 1.56 1.679.021-.013 1.08-1.68-.021Zm6.029-1.125c.616.008 1.151.146 1.603.416.461.27.812.65 1.054 1.141.242.483.359 1.049.351 1.697a4.111 4.111 0 0 1-.016.371l-4.92-.061a1.9 1.9 0 0 0 .634 1.16c.356.301.77.454 1.242.46.776.009 1.331-.268 1.666-.832l1.176.015c-.199.558-.56 1.013-1.085 1.367a3.077 3.077 0 0 1-1.77.506 3.196 3.196 0 0 1-1.579-.416 2.894 2.894 0 0 1-1.09-1.13 3.283 3.283 0 0 1-.376-1.612 3.206 3.206 0 0 1 .416-1.591c.27-.477.638-.845 1.106-1.103a3.116 3.116 0 0 1 1.588-.388Zm-.036 1.008a1.82 1.82 0 0 0-1.23.428c-.339.292-.552.67-.638 1.132l3.684.046c-.042-.48-.233-.867-.574-1.159-.332-.292-.746-.441-1.242-.447Zm8.125-.907c.192.002.372.016.539.042l-.014 1.116c-.143-.034-.371-.052-.683-.056a1.802 1.802 0 0 0-.939.228 1.74 1.74 0 0 0-.632.64 1.804 1.804 0 0 0-.227.873l-.04 3.252-1.14-.014.075-5.999 1.079.013-.011.924c.228-.317.515-.566.861-.745a2.319 2.319 0 0 1 1.132-.274Zm5.728 3.191a3.033 3.033 0 0 1 .44-1.567 3.006 3.006 0 0 1 1.166-1.113 3.198 3.198 0 0 1 1.625-.4 2.927 2.927 0 0 1 1.781.61 2.67 2.67 0 0 1 1.037 1.525l-1.248-.015a1.589 1.589 0 0 0-.651-.764 1.79 1.79 0 0 0-.992-.301 1.868 1.868 0 0 0-1.011.264 1.832 1.832 0 0 0-.706.735c-.172.31-.26.657-.265 1.041-.004.384.075.737.239 1.059.164.314.393.565.687.752.294.18.629.272 1.005.277.368.004.701-.083.999-.264a1.66 1.66 0 0 0 .669-.759l1.248.015a2.713 2.713 0 0 1-1.075 1.511 2.968 2.968 0 0 1-1.795.554 3.263 3.263 0 0 1-1.614-.429 3.108 3.108 0 0 1-1.138-1.142 3.088 3.088 0 0 1-.401-1.589Zm13.341-2.834-.074 5.999-1.08-.013.012-.96c-.228.325-.52.586-.874.781a2.25 2.25 0 0 1-1.12.274 2.77 2.77 0 0 1-1.316-.328 2.32 2.32 0 0 1-.912-.948c-.219-.426-.324-.944-.317-1.552l.042-3.323 1.14.014-.041 3.3c-.007.528.144.949.452 1.265.308.316.698.477 1.17.483.344.004.645-.072.903-.229.266-.165.469-.386.608-.664.148-.279.223-.582.228-.91l.039-3.203 1.14.014Zm4.557 6.177c-.752-.009-1.385-.193-1.901-.552-.508-.366-.797-.866-.869-1.499l1.139.015c.1.345.289.603.567.775.286.163.661.248 1.125.254.432.005.781-.059 1.046-.191.266-.141.4-.323.403-.547a.61.61 0 0 0-.269-.532c-.175-.138-.505-.25-.992-.336l-.683-.129c-1.436-.273-2.149-.862-2.138-1.766.007-.528.244-.949.712-1.264.468-.322 1.078-.478 1.83-.469.68.009 1.258.176 1.734.502.476.318.774.757.895 1.319l-1.211-.015c-.094-.241-.275-.428-.546-.559a1.985 1.985 0 0 0-.897-.215c-.416-.005-.749.055-.998.18-.242.117-.364.283-.367.499-.002.192.088.353.27.483.183.123.478.218.885.287l.694.129c.815.146 1.388.377 1.72.694.332.308.495.71.489 1.206-.007.528-.248.953-.724 1.275-.468.314-1.106.466-1.914.456Zm6.097-4.965-.039 3.168c-.003.256.054.453.173.59.126.138.341.209.645.212a3.2 3.2 0 0 0 .733-.062l-.013 1.044a2.53 2.53 0 0 1-.793.098c-1.272-.016-1.901-.648-1.885-1.896l.039-3.168-1.199-.015.013-1.08 1.2.015.019-1.559 1.14.014-.019 1.56 1.68.02-.014 1.08-1.68-.021Zm6.072 5.116a3.27 3.27 0 0 1-1.615-.428 3.116 3.116 0 0 1-1.138-1.142 3.087 3.087 0 0 1-.4-1.589 3.023 3.023 0 0 1 .44-1.567 2.997 2.997 0 0 1 1.165-1.113 3.205 3.205 0 0 1 1.626-.4 3.103 3.103 0 0 1 1.59.44 3 3 0 0 1 1.138 1.142c.274.475.408 1.001.401 1.577a3.097 3.097 0 0 1-.44 1.579 3.125 3.125 0 0 1-1.166 1.113 3.172 3.172 0 0 1-1.601.388Zm.013-1.055c.368.004.705-.08 1.011-.252.307-.18.55-.425.73-.735a2.17 2.17 0 0 0 .277-1.053 2.096 2.096 0 0 0-.251-1.047 1.898 1.898 0 0 0-.711-.753 1.913 1.913 0 0 0-1.005-.288 1.99 1.99 0 0 0-1.035.263 1.894 1.894 0 0 0-.729.735 2.09 2.09 0 0 0-.277 1.041c-.005.384.079.737.251 1.059.172.314.409.565.71.753.31.18.653.272 1.029.277Zm12.587-5.028c.48.006.907.115 1.28.328.381.212.677.532.888.959.219.419.325.932.317 1.54l-.041 3.324-1.14-.015.041-3.299c.006-.528-.14-.95-.441-1.266-.292-.316-.666-.476-1.122-.482-.496-.006-.898.165-1.206.513-.308.348-.466.778-.472 1.29l-.04 3.204-1.14-.014.041-3.3c.007-.528-.14-.95-.44-1.265-.292-.316-.666-.477-1.122-.482-.496-.007-.898.164-1.207.513-.308.348-.465.778-.472 1.29l-.04 3.204-1.14-.015.075-5.999 1.08.013-.012.948c.22-.325.499-.582.838-.769a2.2 2.2 0 0 1 1.095-.275 2.58 2.58 0 0 1 1.268.328c.382.205.674.508.877.911.237-.365.552-.653.947-.864a2.583 2.583 0 0 1 1.288-.32Zm7.447.092c.616.008 1.15.147 1.603.416.46.27.812.65 1.054 1.142.242.483.358 1.048.35 1.696a4.158 4.158 0 0 1-.016.372l-4.92-.061c.074.465.286.851.634 1.16.356.3.77.453 1.242.459.776.01 1.332-.267 1.667-.831l1.176.014c-.199.558-.561 1.014-1.086 1.367a3.07 3.07 0 0 1-1.77.506 3.186 3.186 0 0 1-1.579-.416 2.899 2.899 0 0 1-1.09-1.129 3.287 3.287 0 0 1-.376-1.613 3.209 3.209 0 0 1 .416-1.591 2.81 2.81 0 0 1 1.106-1.102 3.118 3.118 0 0 1 1.589-.389Zm-.037 1.008a1.811 1.811 0 0 0-1.229.429c-.34.292-.553.669-.638 1.132l3.683.046c-.042-.481-.233-.867-.573-1.16-.333-.292-.747-.441-1.243-.447Zm8.125-.907c.192.002.372.017.539.043l-.013 1.116a3.474 3.474 0 0 0-.684-.057 1.821 1.821 0 0 0-.939.228 1.743 1.743 0 0 0-.632.641 1.801 1.801 0 0 0-.227.873l-.04 3.252-1.14-.015.075-5.999 1.08.013-.012.924c.228-.317.515-.565.861-.745a2.319 2.319 0 0 1 1.132-.274Zm8.342 6.344c-.752-.009-1.386-.193-1.902-.551a2.059 2.059 0 0 1-.869-1.499l1.14.014c.1.345.288.603.566.775.286.163.661.248 1.125.254.432.005.781-.058 1.047-.191.265-.141.4-.323.403-.547a.611.611 0 0 0-.27-.531c-.174-.139-.505-.251-.992-.337l-.682-.128c-1.437-.274-2.15-.863-2.138-1.767.006-.528.243-.949.711-1.263.468-.323 1.078-.479 1.83-.47.68.009 1.258.176 1.734.502.476.318.775.758.896 1.319l-1.212-.015c-.093-.241-.275-.427-.545-.559a1.99 1.99 0 0 0-.898-.215c-.415-.005-.748.055-.998.18-.241.117-.363.283-.366.499-.002.192.088.353.27.484.182.122.477.218.884.287l.695.128c.814.146 1.387.378 1.719.694.333.308.496.71.489 1.206-.006.528-.247.953-.724 1.275-.467.314-1.105.466-1.913.456Zm7.261-6.15c.616.008 1.15.146 1.603.416.46.27.812.65 1.054 1.141.242.483.359 1.049.351 1.697a4.475 4.475 0 0 1-.017.372l-4.92-.062c.075.465.286.852.634 1.16.356.301.77.454 1.242.46.776.01 1.332-.268 1.667-.831l1.176.014c-.199.558-.561 1.013-1.085 1.367a3.082 3.082 0 0 1-1.771.506 3.186 3.186 0 0 1-1.579-.416 2.901 2.901 0 0 1-1.09-1.13 3.28 3.28 0 0 1-.376-1.612 3.216 3.216 0 0 1 .416-1.591c.27-.477.639-.844 1.106-1.103a3.118 3.118 0 0 1 1.589-.388Zm-.037 1.008a1.816 1.816 0 0 0-1.229.428c-.34.292-.553.67-.638 1.133l3.683.045c-.042-.48-.233-.867-.573-1.159-.333-.292-.747-.441-1.243-.447Zm8.125-.907c.192.002.372.016.54.042l-.014 1.116a3.573 3.573 0 0 0-.684-.056 1.811 1.811 0 0 0-.939.228c-.265.157-.476.37-.632.64a1.807 1.807 0 0 0-.226.874l-.041 3.251-1.14-.014.075-5.999 1.08.013-.012.924c.228-.317.515-.566.862-.745a2.312 2.312 0 0 1 1.131-.274Zm8.151.221-2.655 5.968-1.488-.019-2.505-6.032 1.272.016 2.015 4.898 2.125-4.846 1.236.015Zm2.822.035-.075 6-1.139-.014.074-6 1.14.014Zm.102-2.399-.016 1.32-1.272-.016.016-1.319 1.272.015Zm1.839 5.424a3.02 3.02 0 0 1 .44-1.567 3.002 3.002 0 0 1 1.166-1.114 3.198 3.198 0 0 1 1.625-.399 2.918 2.918 0 0 1 1.78.61c.532.39.877.899 1.037 1.525l-1.247-.016a1.598 1.598 0 0 0-.651-.764 1.783 1.783 0 0 0-.992-.3 1.873 1.873 0 0 0-1.012.263 1.846 1.846 0 0 0-.705.736c-.172.309-.26.656-.265 1.04-.005.384.075.737.239 1.059.164.314.393.565.687.753.293.18.628.272 1.004.276a1.85 1.85 0 0 0 1-.263c.306-.188.529-.442.669-.76l1.248.016a2.715 2.715 0 0 1-1.075 1.51 2.963 2.963 0 0 1-1.795.554 3.27 3.27 0 0 1-1.615-.428 3.131 3.131 0 0 1-1.138-1.142 3.09 3.09 0 0 1-.4-1.589Zm10.531-2.99c.615.008 1.15.147 1.602.416.461.27.812.651 1.054 1.142.242.483.359 1.048.351 1.696a4.158 4.158 0 0 1-.016.372l-4.92-.061c.074.465.285.851.634 1.16.356.3.77.453 1.242.459.776.01 1.331-.267 1.666-.831l1.176.014c-.199.558-.56 1.014-1.085 1.367a3.07 3.07 0 0 1-1.77.506 3.186 3.186 0 0 1-1.579-.416 2.892 2.892 0 0 1-1.09-1.129 3.285 3.285 0 0 1-.376-1.613 3.209 3.209 0 0 1 .416-1.591 2.81 2.81 0 0 1 1.106-1.102 3.118 3.118 0 0 1 1.589-.389Zm-.037 1.008a1.811 1.811 0 0 0-1.229.429c-.34.292-.553.669-.639 1.132l3.684.046c-.042-.481-.233-.867-.573-1.159-.333-.293-.747-.442-1.243-.448Z"/><path fill="#000" fill-rule="evenodd" d="M20.43 82.135c1.402 14.283 47.855 24.609 103.756 23.065 28.358-.784 53.701-4.472 71.606-9.781 17.39-5.156 27.765-11.841 27.074-18.879L177.715 56.56c-3.024-.452-6.162-.86-9.401-1.223-14.693-1.646-31.473-2.35-49.203-1.86C63.209 55.02 19.029 67.85 20.431 82.134Z" clip-rule="evenodd"/><path fill="#F1EFED" d="M177.715 56.559c26.509 3.959 44.292 11.227 45.151 19.981L177.715 56.56Z"/><path stroke="#000" stroke-width="2" d="M222.866 76.54c.691 7.038-9.684 13.723-27.074 18.879-17.905 5.309-43.248 8.997-71.606 9.781-55.901 1.544-102.354-8.782-103.756-23.065-1.401-14.284 42.78-27.115 98.681-28.66 17.73-.49 34.51.215 49.203 1.86 3.239.363 6.377.772 9.401 1.224m45.151 19.981c-.859-8.754-18.642-16.022-45.151-19.981m45.151 19.981L177.715 56.56"/><path fill="#F1EFED" stroke="#000" stroke-linejoin="round" stroke-width="1.13" d="M207.504 49.943c8.198 12.633-28.063 30.714-80.989 40.387-52.927 9.673-102.477 7.273-110.674-5.359C7.643 72.34 43.904 54.257 96.83 44.584c52.927-9.672 102.477-7.273 110.674 5.36Z"/><path fill="#000" d="m37.405 73.633 1.24 8.308-1.306.194-5.892-5.987 1.002 6.717-1.163.174-1.24-8.308 1.46-.218 5.715 5.856-.98-6.563 1.164-.173Zm5.45 1.492c.609-.091 1.158-.04 1.648.154.498.192.906.512 1.223.958.316.438.522.978.618 1.618.025.166.039.29.043.37l-4.866.726c.147.447.418.795.81 1.044.4.24.834.325 1.3.255.768-.115 1.272-.477 1.513-1.087l1.163-.174c-.108.582-.392 1.09-.853 1.523a3.074 3.074 0 0 1-1.667.782 3.188 3.188 0 0 1-1.625-.157 2.9 2.9 0 0 1-1.256-.941 3.28 3.28 0 0 1-.63-1.532 3.213 3.213 0 0 1 .157-1.637 2.82 2.82 0 0 1 .915-1.265 3.115 3.115 0 0 1 1.506-.638Zm.125 1c-.467.07-.849.276-1.146.62a1.902 1.902 0 0 0-.449 1.22l3.644-.544c-.118-.468-.369-.819-.751-1.053-.375-.235-.808-.316-1.298-.243Zm13.286-2.88-.918 6.203-1.377.205-2.153-4.35-.838 4.797-1.34.2-2.679-5.667 1.223-.183 1.968 4.487.857-4.908 1.246-.186 2.227 4.436.574-4.854 1.21-.18Zm8.875-1.447a2.648 2.648 0 0 1 1.485.191c.466.197.856.511 1.171.941.315.43.517.942.606 1.536.088.593.045 1.142-.13 1.645a2.865 2.865 0 0 1-.845 1.255 2.707 2.707 0 0 1-1.366.604c-.395.059-.78.027-1.154-.095a2.724 2.724 0 0 1-1.002-.615l.133.89-1.128.169-1.248-8.368 1.068-.159.506 3.394c.203-.378.468-.688.795-.931a2.435 2.435 0 0 1 1.11-.457Zm.576 5.156c.348-.052.647-.186.898-.401a1.83 1.83 0 0 0 .545-.822c.11-.34.138-.704.08-1.091a2.28 2.28 0 0 0-.394-1.01 1.814 1.814 0 0 0-.762-.638 1.744 1.744 0 0 0-.977-.121 1.785 1.785 0 0 0-1.465 1.238 2.28 2.28 0 0 0-.082 1.08c.058.387.19.728.395 1.02a1.803 1.803 0 0 0 1.762.745Zm9.548-6.545.885 5.934-1.068.16-.142-.95a2.566 2.566 0 0 1-.737.91c-.312.241-.666.391-1.062.45a2.772 2.772 0 0 1-1.351-.114 2.314 2.314 0 0 1-1.052-.789c-.284-.386-.471-.88-.56-1.481l-.492-3.288 1.128-.168.487 3.264c.078.522.294.914.649 1.177.355.262.765.359 1.232.29.34-.052.625-.175.855-.371.236-.205.4-.456.494-.753.101-.299.127-.61.08-.934l-.474-3.17 1.128-.167Zm5.486 5.369c-.744.11-1.4.03-1.965-.241a2.057 2.057 0 0 1-1.098-1.34l1.127-.169c.154.325.382.55.683.675.309.115.692.139 1.151.07.428-.063.762-.182 1.003-.355.24-.182.343-.383.31-.605a.61.61 0 0 0-.35-.481c-.195-.109-.54-.166-1.034-.174l-.694-.017c-1.462-.041-2.26-.508-2.393-1.402-.078-.523.089-.976.5-1.361.41-.393.988-.645 1.732-.756.672-.1 1.27-.028 1.791.218.521.237.886.624 1.096 1.159l-1.2.179c-.13-.224-.339-.378-.626-.465a1.983 1.983 0 0 0-.92-.069c-.412.062-.731.174-.958.337-.22.154-.313.338-.281.552.028.19.143.335.344.434.2.091.506.139.919.142l.706.016c.827.014 1.43.15 1.808.41.377.25.602.621.676 1.112.078.522-.093.98-.511 1.374-.412.385-1.017.637-1.816.757Zm4.767-6.9.886 5.935-1.128.168-.886-5.934 1.128-.169Zm-.283-2.384.195 1.305-1.258.188-.195-1.305 1.258-.188Zm5.783 1.442c.482-.072.929-.033 1.34.116.418.147.77.414 1.053.8.291.378.481.867.571 1.469l.49 3.287-1.127.168-.487-3.263c-.078-.523-.294-.915-.649-1.178-.354-.262-.765-.358-1.232-.289a1.652 1.652 0 0 0-1.36 1.125 2.058 2.058 0 0 0-.068.933l.473 3.168-1.127.169-.886-5.934 1.068-.16.142.95c.173-.358.415-.657.727-.898.319-.25.676-.404 1.072-.463Zm7.43-1.109c.61-.09 1.16-.04 1.65.154.498.193.905.512 1.222.958.317.438.522.978.618 1.619.025.166.039.29.043.37l-4.866.726c.148.447.418.795.811 1.044.4.24.833.324 1.3.255.767-.115 1.271-.478 1.512-1.088l1.163-.173c-.107.582-.391 1.09-.852 1.522a3.076 3.076 0 0 1-1.667.783 3.19 3.19 0 0 1-1.625-.158 2.902 2.902 0 0 1-1.257-.94 3.281 3.281 0 0 1-.629-1.533 3.212 3.212 0 0 1 .156-1.637c.19-.513.495-.935.915-1.265a3.114 3.114 0 0 1 1.507-.637Zm.126 1c-.467.07-.849.277-1.145.62a1.902 1.902 0 0 0-.45 1.22l3.645-.544c-.119-.468-.369-.818-.752-1.052-.375-.236-.808-.317-1.298-.243Zm7.917 4.109c-.744.11-1.399.03-1.965-.24a2.054 2.054 0 0 1-1.098-1.341l1.127-.169c.154.325.381.55.683.675.309.116.692.14 1.151.07.428-.063.762-.181 1.003-.355.24-.181.343-.383.31-.604a.609.609 0 0 0-.351-.482c-.194-.108-.539-.166-1.033-.173l-.694-.018c-1.462-.04-2.26-.508-2.393-1.402-.078-.522.089-.976.5-1.36.411-.394.988-.646 1.732-.757.672-.1 1.269-.028 1.791.218.521.238.886.624 1.096 1.16l-1.199.178c-.131-.223-.34-.378-.628-.464a1.983 1.983 0 0 0-.92-.07c-.411.062-.73.174-.957.338-.219.154-.313.338-.281.551.028.19.143.335.344.434.199.092.506.139.919.142l.706.016c.827.014 1.43.15 1.808.41.377.25.602.621.676 1.112.077.522-.093.98-.511 1.374-.412.385-1.017.638-1.816.757Zm6.69-.999c-.744.111-1.399.031-1.966-.24a2.056 2.056 0 0 1-1.097-1.34l1.127-.169c.154.325.381.55.683.674.309.116.692.14 1.151.071.427-.063.762-.182 1.003-.356.239-.18.343-.382.31-.604a.609.609 0 0 0-.351-.481c-.194-.109-.539-.167-1.033-.174l-.694-.017c-1.462-.041-2.26-.508-2.393-1.403-.078-.522.089-.975.5-1.36.411-.393.988-.645 1.732-.756.672-.1 1.269-.028 1.791.218.521.237.886.624 1.095 1.159l-1.198.179c-.131-.224-.34-.378-.628-.465a1.983 1.983 0 0 0-.92-.069c-.411.062-.73.174-.957.337-.219.154-.313.338-.281.552.028.19.143.334.343.434.2.091.507.139.919.142l.707.016c.827.014 1.429.15 1.808.41.377.25.602.621.675 1.112.078.522-.092.98-.51 1.374-.412.385-1.017.637-1.816.756Zm7.468-4.269a3.026 3.026 0 0 1 .183-1.617c.206-.516.531-.944.973-1.285a3.198 3.198 0 0 1 1.54-.655 2.927 2.927 0 0 1 1.856.318c.586.3 1.009.747 1.267 1.34l-1.234.184a1.597 1.597 0 0 0-.765-.65 1.789 1.789 0 0 0-1.027-.138 1.866 1.866 0 0 0-.956.421c-.267.218-.46.498-.579.839-.12.333-.152.69-.095 1.07.057.38.192.715.405 1.007.212.284.478.495.798.633.319.13.664.168 1.036.112.364-.054.679-.194.945-.42a1.66 1.66 0 0 0 .539-.857l1.234-.184a2.718 2.718 0 0 1-.819 1.663 2.967 2.967 0 0 1-1.684.834 3.27 3.27 0 0 1-1.662-.165 3.12 3.12 0 0 1-1.306-.945 3.084 3.084 0 0 1-.649-1.505Zm12.83-4.948.886 5.934-1.127.169-.133-.89a2.725 2.725 0 0 1-.779.88 2.486 2.486 0 0 1-1.077.428 2.704 2.704 0 0 1-1.482-.18 2.862 2.862 0 0 1-1.174-.953c-.315-.43-.517-.942-.605-1.535-.089-.594-.045-1.142.13-1.645.176-.504.458-.918.846-1.243a2.648 2.648 0 0 1 1.364-.616c.412-.061.81-.024 1.194.113.384.137.729.356 1.033.659l-.144-.962 1.068-.159Zm-2.196 5.448a1.803 1.803 0 0 0 1.468-1.226c.111-.34.137-.704.079-1.092a2.286 2.286 0 0 0-.393-1.009 1.785 1.785 0 0 0-1.763-.756 1.745 1.745 0 0 0-.899.401c-.25.216-.431.493-.542.833-.113.333-.14.692-.082 1.08.058.388.19.728.395 1.021.204.285.458.494.761.627.303.132.628.173.976.12Zm7.807-6.407a2.65 2.65 0 0 1 1.485.191c.466.198.856.511 1.171.942.315.43.517.942.606 1.535.088.593.045 1.142-.131 1.645a2.869 2.869 0 0 1-.844 1.255 2.707 2.707 0 0 1-1.366.604c-.395.059-.78.027-1.154-.095a2.716 2.716 0 0 1-1.002-.614l.434 2.907-1.128.168-1.186-7.951 1.068-.16.143.962c.203-.378.468-.689.795-.932a2.44 2.44 0 0 1 1.109-.457Zm.575 5.156c.349-.052.648-.186.899-.401.251-.216.433-.49.545-.822.111-.34.137-.704.079-1.091a2.262 2.262 0 0 0-.393-1.01 1.809 1.809 0 0 0-.762-.638 1.746 1.746 0 0 0-.977-.12 1.784 1.784 0 0 0-1.465 1.238c-.112.331-.14.691-.082 1.079.058.388.19.728.395 1.02a1.805 1.805 0 0 0 1.761.745Zm9.663-6.562.886 5.934-1.128.168-.133-.89a2.723 2.723 0 0 1-.778.88 2.488 2.488 0 0 1-1.077.428 2.71 2.71 0 0 1-1.483-.179 2.866 2.866 0 0 1-1.173-.953c-.315-.43-.517-.942-.605-1.536-.089-.593-.045-1.141.13-1.645.176-.503.458-.917.846-1.242a2.648 2.648 0 0 1 1.364-.616 2.436 2.436 0 0 1 1.194.113c.384.136.728.356 1.032.658l-.143-.961 1.068-.16Zm-2.196 5.447a1.798 1.798 0 0 0 1.467-1.226c.111-.34.138-.704.08-1.091a2.286 2.286 0 0 0-.393-1.01 1.789 1.789 0 0 0-1.763-.755 1.746 1.746 0 0 0-.899.4 1.813 1.813 0 0 0-.543.834 2.281 2.281 0 0 0-.081 1.08c.058.388.189.728.395 1.02.204.286.458.495.761.627.302.133.628.173.976.121Zm7.807-6.406a2.646 2.646 0 0 1 1.484.19 2.78 2.78 0 0 1 1.172.942c.315.43.517.942.605 1.536.089.593.045 1.142-.13 1.645a2.869 2.869 0 0 1-.844 1.254 2.712 2.712 0 0 1-1.366.604 2.49 2.49 0 0 1-1.155-.094 2.72 2.72 0 0 1-1.001-.615l.132.89-1.127.168-1.249-8.367 1.068-.16.507 3.395a2.76 2.76 0 0 1 .795-.931 2.436 2.436 0 0 1 1.109-.457Zm.575 5.155c.348-.052.648-.185.899-.4.251-.216.432-.49.544-.822.111-.34.138-.704.08-1.092a2.286 2.286 0 0 0-.393-1.009 1.743 1.743 0 0 0-1.739-.76 1.785 1.785 0 0 0-1.466 1.238 2.281 2.281 0 0 0-.081 1.08c.058.388.189.728.395 1.021a1.8 1.8 0 0 0 1.761.744Zm5.332-5.916.886 5.935-1.128.168-.885-5.934 1.127-.169Zm-.283-2.384.195 1.306-1.258.188-.195-1.306 1.258-.188Zm3.538-.589 1.249 8.368-1.127.168-1.249-8.367 1.127-.169Zm3.982 1.893.886 5.935-1.128.168-.885-5.934 1.127-.169Zm-.283-2.384.195 1.306-1.258.187-.195-1.305 1.258-.188Zm4.417 2.86.468 3.133c.038.253.13.437.276.553.155.114.394.147.719.099.301-.045.558-.108.773-.188l.154 1.032a2.817 2.817 0 0 1-.803.23c-.649.096-1.163.015-1.541-.244-.38-.267-.615-.705-.706-1.314l-.467-3.133-1.187.177-.16-1.068 1.187-.178-.23-1.542 1.127-.169.231 1.543 2.967-.443.159 1.069-2.967.442Zm4.494-1.763.886 5.934-1.128.168-.886-5.934 1.128-.168Zm-.283-2.385.195 1.306-1.258.188-.195-1.306 1.258-.188Zm5.26 1.52c.61-.09 1.159-.04 1.649.155.498.192.906.512 1.223.958.316.438.522.977.618 1.618.025.166.039.29.043.37l-4.866.726c.147.447.418.795.811 1.044.399.24.833.325 1.3.255.767-.115 1.271-.477 1.512-1.087l1.163-.174c-.107.582-.392 1.09-.853 1.523a3.073 3.073 0 0 1-1.667.782 3.19 3.19 0 0 1-1.625-.157 2.901 2.901 0 0 1-1.256-.941 3.277 3.277 0 0 1-.629-1.532 3.2 3.2 0 0 1 .156-1.637c.19-.514.495-.936.915-1.265a3.117 3.117 0 0 1 1.506-.638Zm.126 1c-.467.07-.849.277-1.145.62a1.896 1.896 0 0 0-.449 1.22l3.643-.543c-.118-.468-.369-.819-.751-1.053-.375-.235-.808-.316-1.298-.243Zm7.916 4.11c-.744.11-1.399.03-1.965-.241a2.06 2.06 0 0 1-1.098-1.34l1.128-.17c.153.326.381.55.683.675.308.116.692.14 1.151.071.427-.064.761-.182 1.002-.356.24-.181.344-.383.311-.604a.609.609 0 0 0-.351-.482c-.194-.108-.539-.166-1.033-.173l-.694-.018c-1.463-.04-2.26-.508-2.394-1.402-.078-.522.089-.975.501-1.36.41-.393.988-.645 1.731-.756.673-.1 1.27-.028 1.792.218.521.237.886.624 1.095 1.159l-1.199.178c-.13-.223-.339-.378-.627-.464a1.983 1.983 0 0 0-.92-.069c-.412.062-.731.174-.957.337-.22.154-.313.338-.282.552.029.19.143.334.344.434.2.091.506.138.919.142l.706.015c.827.014 1.43.151 1.809.41.377.251.602.622.675 1.113.078.522-.092.98-.51 1.374-.412.385-1.018.637-1.817.756Z"/><path fill="#000" fill-rule="evenodd" d="M145.125 274.854c62.513 1.971 113.99-5.634 114.977-16.985.988-11.351-48.888-22.15-111.401-24.121-13.093-.413-25.702-.405-37.465-.032l-77.518 17.603c.738 11.134 49.97 21.599 111.407 23.535Z" clip-rule="evenodd"/><path fill="#F1EFED" d="M33.724 250.733a3.822 3.822 0 0 0-.006.586l77.518-17.603c-44.396 1.411-76.732 8.043-77.512 17.017Z"/><path stroke="#000" stroke-width="2" d="M33.718 251.319c.738 11.134 49.97 21.599 111.407 23.535 62.513 1.971 113.99-5.634 114.977-16.985.988-11.351-48.888-22.15-111.401-24.121-13.093-.413-25.702-.405-37.465-.032m-77.518 17.603a3.822 3.822 0 0 1 .006-.586c.78-8.974 33.116-15.606 77.512-17.017m-77.518 17.603 77.518-17.603"/><ellipse cx="115.289" cy="28.273" fill="#F1EFED" stroke="#000" stroke-linejoin="round" stroke-width="1.13" rx="115.289" ry="28.273" transform="matrix(.98976 .14277 -.36713 .93017 44.465 197.43)"/><path fill="#000" d="m66.98 230.802-1.558-.207-1.091 3.305-1.19-.158 2.636-7.976 3.64.483c.555.074.997.24 1.326.497.339.252.552.569.64.954.1.378.075.791-.074 1.239a2.903 2.903 0 0 1-1.067 1.464c-.51.368-1.118.553-1.822.555l1.668 3.706-1.499-.199-1.608-3.663Zm-1.215-1.244 2.38.316c.475.064.876.002 1.203-.185.337-.193.574-.498.712-.916.138-.418.113-.754-.076-1.009-.178-.262-.505-.424-.981-.487l-2.38-.316-.858 2.597Zm10.298-.166c.61.081 1.1.277 1.47.587a2 2 0 0 1 .704 1.212c.095.489.041 1.04-.162 1.656a4.349 4.349 0 0 1-.129.351l-4.877-.647c-.066.451.028.844.281 1.179.264.328.63.523 1.098.586.77.102 1.406-.095 1.909-.591l1.166.154c-.366.507-.864.897-1.492 1.17a3.595 3.595 0 0 1-1.914.269c-.58-.077-1.061-.271-1.446-.584a2.189 2.189 0 0 1-.745-1.205c-.11-.491-.073-1.017.112-1.579.186-.562.484-1.05.894-1.464.412-.421.89-.726 1.432-.915a3.584 3.584 0 0 1 1.699-.179Zm-.34.954a2.17 2.17 0 0 0-1.353.26c-.426.237-.752.57-.976 1l3.652.485c.103-.462.029-.852-.222-1.171-.243-.317-.61-.509-1.101-.574Zm11.53-1.787-2.655 8.032-1.13-.15.282-.854a3.551 3.551 0 0 1-1.129.599 2.836 2.836 0 0 1-1.201.102c-.523-.069-.958-.258-1.303-.565a2.163 2.163 0 0 1-.661-1.194c-.098-.481-.053-1.006.136-1.576.188-.57.479-1.062.873-1.478.394-.415.846-.72 1.357-.914a3.096 3.096 0 0 1 1.556-.198c.412.055.767.197 1.063.427.297.23.518.525.664.885l1.077-3.259 1.07.143Zm-5.311 6.752c.349.046.694.005 1.034-.124.34-.13.64-.332.896-.607.259-.283.45-.61.573-.982.123-.373.154-.717.093-1.035a1.348 1.348 0 0 0-.432-.795 1.59 1.59 0 0 0-.87-.377 2.036 2.036 0 0 0-1.022.126c-.332.13-.628.337-.887.62a2.602 2.602 0 0 0-.57.971 2.115 2.115 0 0 0-.097 1.045c.06.318.202.578.425.782.222.204.508.329.857.376Zm12.512-3.358-1.883 5.697-1.07-.142.3-.911a3.38 3.38 0 0 1-1.104.638c-.402.137-.8.179-1.197.126-.484-.064-.887-.221-1.21-.47a1.747 1.747 0 0 1-.623-1.01c-.089-.432-.038-.937.153-1.514l1.043-3.156 1.13.15-1.036 3.133c-.165.501-.143.921.069 1.258.211.337.55.537 1.019.599.34.046.663.009.967-.109.315-.125.583-.311.806-.559.23-.247.397-.526.5-.838l1.005-3.042 1.13.15Zm1.022 3.11a3.51 3.51 0 0 1 .91-1.438 3.92 3.92 0 0 1 1.496-.919 3.688 3.688 0 0 1 1.737-.186c.659.088 1.188.352 1.588.794.411.435.602.96.573 1.575l-1.237-.164a1.215 1.215 0 0 0-.417-.805c-.234-.221-.532-.356-.897-.405a2.175 2.175 0 0 0-1.086.13 2.406 2.406 0 0 0-.924.614 2.49 2.49 0 0 0-.577.958c-.12.365-.147.71-.081 1.036.068.319.22.585.456.798.238.206.544.334.916.384.365.048.723.005 1.074-.131.362-.142.66-.357.896-.643l1.237.165a3.497 3.497 0 0 1-1.525 1.308 3.497 3.497 0 0 1-1.953.311c-.587-.078-1.08-.278-1.478-.6a2.35 2.35 0 0 1-.788-1.223c-.127-.493-.1-1.012.08-1.559Zm9.865-.593-.994 3.008c-.081.243-.079.437.005.583.093.147.301.242.626.286.302.04.571.052.808.036l-.328.991a3.064 3.064 0 0 1-.854-.007c-.65-.086-1.093-.299-1.328-.64-.233-.348-.253-.815-.059-1.399l.994-3.008-1.19-.158.339-1.026 1.189.158.49-1.481 1.13.15-.49 1.481 2.974.395-.339 1.026-2.973-.395Zm5.002-.406-1.882 5.697-1.13-.15 1.882-5.697 1.13.15Zm.825-2.27-.414 1.254-1.261-.168.414-1.253 1.261.167Zm2.381 8.761c-.587-.078-1.08-.278-1.478-.6a2.346 2.346 0 0 1-.788-1.223c-.127-.493-.1-1.012.08-1.559a3.51 3.51 0 0 1 .91-1.438 3.92 3.92 0 0 1 1.496-.919 3.688 3.688 0 0 1 1.738-.186c.578.077 1.062.28 1.45.609.398.323.661.73.788 1.223.129.485.104 1.001-.077 1.548a3.579 3.579 0 0 1-.913 1.449 4.093 4.093 0 0 1-1.496.919 3.667 3.667 0 0 1-1.71.177Zm.331-1.002a2.29 2.29 0 0 0 1.082-.118c.359-.135.675-.339.947-.612.275-.281.473-.603.593-.968.121-.364.143-.706.066-1.026a1.428 1.428 0 0 0-.48-.801 1.682 1.682 0 0 0-.913-.395 2.323 2.323 0 0 0-1.109.126 2.474 2.474 0 0 0-.948.612 2.417 2.417 0 0 0-.589.956c-.12.365-.144.711-.069 1.038.076.319.236.586.48.801.254.208.567.337.94.387Zm9.758-3.843c.484.065.884.221 1.199.469.324.249.53.59.619 1.022.099.425.054.927-.137 1.504l-1.043 3.156-1.13-.15 1.035-3.133c.166-.502.143-.921-.068-1.258-.212-.338-.551-.537-1.019-.6a1.938 1.938 0 0 0-.984.12 2.15 2.15 0 0 0-.801.547 2.347 2.347 0 0 0-.489.839l-1.005 3.043-1.13-.15 1.882-5.697 1.071.142-.301.911a3.25 3.25 0 0 1 1.089-.628 2.605 2.605 0 0 1 1.212-.137Zm9.538 7.452c-.587-.078-1.079-.278-1.478-.601a2.355 2.355 0 0 1-.788-1.222c-.127-.493-.1-1.013.081-1.56a3.506 3.506 0 0 1 .91-1.437 3.912 3.912 0 0 1 1.496-.919 3.684 3.684 0 0 1 1.737-.186c.579.077 1.063.28 1.451.609.398.323.661.73.788 1.223.129.485.103 1.001-.077 1.548a3.56 3.56 0 0 1-.914 1.448 4.066 4.066 0 0 1-1.496.92 3.667 3.667 0 0 1-1.71.177Zm.332-1.003c.364.049.725.01 1.082-.118.359-.134.675-.338.947-.611.275-.281.472-.603.593-.968.12-.365.142-.707.066-1.026a1.428 1.428 0 0 0-.48-.801 1.675 1.675 0 0 0-.913-.395 2.301 2.301 0 0 0-1.11.126 2.478 2.478 0 0 0-.947.612 2.406 2.406 0 0 0-.589.956 1.913 1.913 0 0 0-.07 1.038c.077.319.237.586.48.801.255.208.568.337.941.386Zm9.509-5.183c-.325-.043-.577-.009-.754.102-.17.112-.295.29-.375.533l-.203.615 1.665.221-.339 1.026-1.665-.221-1.544 4.671-1.13-.15 1.544-4.671-1.19-.158.339-1.026 1.19.158.203-.615c.193-.585.505-1.004.936-1.256.434-.259.976-.346 1.626-.259.317.042.58.112.787.211l-.328.991a3.696 3.696 0 0 0-.762-.172Zm8.918 2.493c.5.066.915.224 1.246.474.339.252.557.594.654 1.027.1.425.054.927-.137 1.504l-1.043 3.156-1.13-.15 1.036-3.133c.166-.502.143-.921-.069-1.258-.211-.337-.551-.537-1.019-.599a1.863 1.863 0 0 0-.947.124 2.298 2.298 0 0 0-1.334 1.404l-.997 3.02-1.13-.15 2.654-8.033 1.071.142-1.024 3.099a3.4 3.4 0 0 1 1.055-.526 2.64 2.64 0 0 1 1.114-.101Zm10.456 1.507-1.883 5.697-1.071-.142.302-.912a3.372 3.372 0 0 1-1.105.639 2.599 2.599 0 0 1-1.197.126c-.484-.064-.887-.221-1.211-.47a1.746 1.746 0 0 1-.622-1.01c-.089-.432-.038-.937.153-1.514l1.043-3.156 1.13.15-1.036 3.133c-.165.501-.143.921.069 1.258.211.337.551.537 1.019.599.341.046.663.009.967-.109.315-.125.583-.311.806-.559.23-.247.397-.526.5-.838l1.005-3.042 1.131.15Zm9.852 1.19c.476.063.868.218 1.175.465.316.248.514.588.595 1.019.092.424.042.925-.149 1.502l-1.043 3.157-1.13-.151 1.036-3.133c.165-.501.146-.92-.057-1.256-.196-.336-.519-.533-.971-.593a1.843 1.843 0 0 0-1.356.343 2.283 2.283 0 0 0-.858 1.171l-1.006 3.042-1.13-.15 1.036-3.134c.165-.501.146-.92-.057-1.256-.196-.335-.519-.533-.971-.593a1.843 1.843 0 0 0-1.356.343 2.287 2.287 0 0 0-.858 1.171l-1.006 3.042-1.13-.15 1.883-5.697 1.071.142-.298.9a3.15 3.15 0 0 1 1.066-.631 2.56 2.56 0 0 1 1.173-.13c.467.062.855.217 1.163.464.317.24.517.564.597.971a3.303 3.303 0 0 1 1.203-.708 2.99 2.99 0 0 1 1.378-.15Zm10.248 1.48-1.883 5.697-1.13-.15.282-.855a3.544 3.544 0 0 1-1.129.599 2.851 2.851 0 0 1-1.201.103c-.523-.07-.958-.258-1.303-.566a2.161 2.161 0 0 1-.661-1.194c-.098-.481-.053-1.006.136-1.576a3.896 3.896 0 0 1 .873-1.478 3.62 3.62 0 0 1 1.357-.913 3.077 3.077 0 0 1 1.556-.198c.412.054.767.197 1.063.426.297.23.518.525.664.885l.305-.922 1.071.142Zm-4.539 4.416c.349.047.694.005 1.034-.124.341-.129.64-.331.896-.607.259-.282.45-.61.573-.982.123-.372.154-.717.093-1.034a1.348 1.348 0 0 0-.432-.795 1.582 1.582 0 0 0-.869-.377 2.016 2.016 0 0 0-1.023.126c-.332.13-.628.336-.887.619a2.597 2.597 0 0 0-.57.971 2.12 2.12 0 0 0-.097 1.046c.061.317.202.578.425.782.222.204.508.329.857.375Zm10.111-3.795c.483.064.883.22 1.198.468.324.249.53.59.619 1.022.099.426.054.927-.137 1.504l-1.043 3.156-1.13-.15 1.035-3.133c.166-.501.143-.921-.068-1.258-.212-.337-.551-.537-1.019-.599a1.932 1.932 0 0 0-.983.119 2.149 2.149 0 0 0-.802.548 2.338 2.338 0 0 0-.489.839l-1.005 3.042-1.13-.15 1.883-5.697 1.07.142-.301.912a3.254 3.254 0 0 1 1.089-.629 2.607 2.607 0 0 1 1.213-.136Zm11.376 1.511c.611.081 1.101.277 1.47.587.377.312.612.716.705 1.212.095.489.041 1.04-.162 1.656a4.435 4.435 0 0 1-.129.351l-4.877-.647c-.066.451.027.844.281 1.179.264.328.63.523 1.098.586.769.102 1.405-.095 1.909-.591l1.165.154c-.366.507-.863.897-1.491 1.17a3.597 3.597 0 0 1-1.915.269c-.579-.077-1.06-.271-1.446-.584a2.194 2.194 0 0 1-.744-1.205c-.111-.491-.074-1.017.112-1.579s.484-1.05.894-1.463a3.67 3.67 0 0 1 1.432-.916 3.595 3.595 0 0 1 1.698-.179Zm-.34.954a2.169 2.169 0 0 0-1.352.26 2.39 2.39 0 0 0-.977 1l3.652.485c.103-.462.03-.852-.221-1.171-.243-.317-.61-.509-1.102-.574Zm8.359.111c.19.025.365.06.524.105l-.35 1.06c-.133-.05-.354-.095-.663-.136a2.095 2.095 0 0 0-1.003.105 2.266 2.266 0 0 0-.822.533 2.058 2.058 0 0 0-.489.803l-1.021 3.088-1.13-.15 1.883-5.697 1.071.142-.29.877a3.156 3.156 0 0 1 1.081-.605c.41-.136.812-.178 1.209-.125Zm5.358.711c.19.026.365.061.524.106l-.351 1.059c-.132-.049-.353-.094-.663-.135a2.083 2.083 0 0 0-1.003.104 2.266 2.266 0 0 0-.822.533c-.225.232-.388.5-.489.804l-1.02 3.087-1.13-.15 1.883-5.697 1.07.143-.29.877a3.18 3.18 0 0 1 1.082-.606 2.685 2.685 0 0 1 1.209-.125Zm2.635 6.535c-.587-.078-1.08-.278-1.478-.6a2.35 2.35 0 0 1-.788-1.223c-.127-.493-.1-1.013.08-1.559a3.51 3.51 0 0 1 .91-1.438 3.92 3.92 0 0 1 1.496-.919 3.69 3.69 0 0 1 1.738-.186c.579.077 1.062.28 1.45.609.398.323.661.73.788 1.223.129.485.104 1.001-.077 1.548a3.579 3.579 0 0 1-.913 1.449 4.093 4.093 0 0 1-1.496.919 3.667 3.667 0 0 1-1.71.177Zm.331-1.002a2.29 2.29 0 0 0 1.082-.118c.359-.135.675-.339.947-.612.275-.281.473-.603.593-.968.121-.365.143-.707.066-1.026a1.428 1.428 0 0 0-.48-.801 1.675 1.675 0 0 0-.913-.395 2.323 2.323 0 0 0-1.109.126 2.463 2.463 0 0 0-.947.612 2.408 2.408 0 0 0-.59.956c-.12.365-.143.711-.069 1.038.076.319.236.586.48.801.254.208.567.337.94.387Zm9.759-3.843c.19.026.365.061.524.106l-.351 1.059c-.132-.049-.353-.094-.663-.135a2.083 2.083 0 0 0-1.003.104 2.266 2.266 0 0 0-.822.533c-.225.232-.388.5-.489.804l-1.02 3.088-1.13-.151 1.883-5.697 1.07.143-.29.877a3.18 3.18 0 0 1 1.082-.606 2.685 2.685 0 0 1 1.209-.125Z"/></svg>
