<svg xmlns="http://www.w3.org/2000/svg" width="1238" height="408" fill="none" viewBox="0 0 1238 408"><path fill="#000" d="m0 346.408 13.31-6.9-13.31 6.9ZM26.89 333.118l13.84-5.8a.083.083 0 0 1 .034-.005.08.08 0 0 1 .034.008.089.089 0 0 1 .046.052.09.09 0 0 1-.003.069.09.09 0 0 1-.051.046l-13.85 5.74a.064.064 0 0 1-.04.015.064.064 0 0 1-.04-.015s0-.09.03-.11ZM54.831 322.202l14.37-4.33a.157.157 0 0 1 .115.014.158.158 0 0 1 .075.086.17.17 0 0 1-.1.19l-14.39 4.27c-.015.005-.03.006-.046.005a.12.12 0 0 1-.045-.014.116.116 0 0 1-.059-.071c-.004-.015-.006-.031-.004-.046a.12.12 0 0 1 .043-.082.126.126 0 0 1 .041-.022ZM83.818 314.48c4.91-1 9.86-1.74 14.84-2.3.056 0 .11.022.149.061a.212.212 0 0 1 0 .297.208.208 0 0 1-.149.062c-5 .53-9.91 1.29-14.81 2.23a.19.19 0 0 1-.21-.15.16.16 0 0 1 .18-.2ZM113.642 311.203l7.51.07 7.5.43c.035.001.069.01.101.025a.255.255 0 0 1 .136.152.257.257 0 0 1 .013.103.25.25 0 0 1-.025.101.255.255 0 0 1-.152.136.257.257 0 0 1-.103.013l-7.48-.45-7.48-.1a.243.243 0 0 1-.17-.077.247.247 0 0 1-.07-.173.23.23 0 0 1 .22-.23ZM143.58 313.352l14.8 2.55a.32.32 0 0 1 .213.137.33.33 0 0 1 .005.367.332.332 0 0 1-.338.146l-14.77-2.59a.3.3 0 0 1-.237-.226.297.297 0 0 1 .223-.352.291.291 0 0 1 .114-.002l-.01-.03ZM172.999 319.188l14.5 3.869a.392.392 0 0 1 .28.47.401.401 0 0 1-.48.28l-14.47-3.91a.355.355 0 0 1-.19-.174.365.365 0 0 1-.025-.256.362.362 0 0 1 .405-.26l-.02-.019ZM201.921 327.359l14.28 4.6a.45.45 0 0 1 .257.218.44.44 0 0 1-.527.622l-14.25-4.65a.414.414 0 0 1-.244-.203.412.412 0 0 1 .175-.553.416.416 0 0 1 .309-.034ZM230.432 336.71l14.24 4.72a.502.502 0 0 1 .062.911.501.501 0 0 1-.372.039l-14.22-4.77a.465.465 0 0 1-.3-.6.47.47 0 0 1 .59-.3ZM258.922 346.086l14.28 4.6a.549.549 0 0 1 .401.242.553.553 0 0 1 .06.465.533.533 0 0 1-.325.337.535.535 0 0 1-.466-.044l-14.27-4.63a.52.52 0 0 1-.34-.65.536.536 0 0 1 .66-.32ZM287.5 355.197l14.33 4.41a.573.573 0 0 1 .357.703.573.573 0 0 1-.687.387l-14.33-4.45a.558.558 0 0 1-.322-.27.552.552 0 0 1 .233-.743.55.55 0 0 1 .419-.037ZM316.199 363.896l14.4 4.17a.602.602 0 0 1 .41.75.601.601 0 0 1-.284.362.587.587 0 0 1-.456.048l-14.41-4.2a.59.59 0 0 1 .33-1.13h.01ZM344.999 372.098l14.52 3.86a.632.632 0 0 1 .435.284.637.637 0 0 1-.246.917.64.64 0 0 1-.519.029l-14.49-3.92a.623.623 0 0 1-.151-1.138.62.62 0 0 1 .471-.062l-.02.03ZM373.999 379.701l14.57 3.54a.665.665 0 0 1 .463.803.67.67 0 0 1-.783.496l-14.52-3.579a.66.66 0 0 1-.491-.536.658.658 0 0 1 .307-.658.637.637 0 0 1 .239-.087.626.626 0 0 1 .255.011l-.04.01ZM403.219 386.601l7.33 1.6 7.33 1.51a.702.702 0 0 1 .447.301c.103.156.141.346.103.529a.702.702 0 0 1-.301.447c-.155.103-.346.14-.529.103l-7.36-1.53-7.32-1.6a.69.69 0 1 1 .3-1.34v-.02ZM432.629 392.281l14.84 2a.753.753 0 0 1 .492.282.737.737 0 0 1 .148.548.753.753 0 0 1-.83.63l-14.9-2a.728.728 0 0 1-.62-.81.723.723 0 0 1 .529-.602.74.74 0 0 1 .281-.018l.06-.03ZM462.38 395.508l14.95.53a.778.778 0 0 1 .496 1.339.768.768 0 0 1-.556.201l-15-.57a.75.75 0 0 1 0-1.5h.11ZM492.28 395.789l14.91-1.06h.05a.804.804 0 0 1 .934.745.817.817 0 0 1-.824.865l-15 1a.791.791 0 0 1-.604-1.282.789.789 0 0 1 .494-.288l.04.02ZM521.999 392.817l14.7-2.75a.817.817 0 0 1 .334-.006.836.836 0 0 1 .666.676c.026.11.03.224.009.335a.806.806 0 0 1-.365.546.822.822 0 0 1-.314.119l-14.79 2.74a.816.816 0 0 1-.638-.109.822.822 0 0 1-.218-1.17.83.83 0 0 1 .556-.331l.06-.05ZM551.23 386.483l7.18-2.099 7.1-2.311a.853.853 0 0 1 .53 1.621l-7.17 2.33-7.22 2.11a.866.866 0 0 1-.675-.043.85.85 0 0 1 .205-1.587l.05-.021ZM579.462 376.714l13.54-6.26h.05a.856.856 0 0 1 .947.152.878.878 0 0 1 .276.6.857.857 0 0 1-.23.62.89.89 0 0 1-.273.198l-13.68 6.29a.85.85 0 0 1-.938-.148.836.836 0 0 1-.192-.272.856.856 0 0 1 .42-1.14l.08-.04ZM606.241 363.418l12.86-7.64a.87.87 0 1 1 .89 1.5l-12.9 7.68a.87.87 0 0 1-1.195-.305.873.873 0 0 1 .305-1.195l.04-.04ZM631.721 347.714l12.47-8.31a.881.881 0 0 1 .988-.008.886.886 0 0 1 .012 1.478l-12.49 8.32a.886.886 0 0 1-1.235-.235.892.892 0 0 1 .235-1.235l.02-.01ZM656.639 331.043l12.56-8.22a.904.904 0 0 1 1.25.25.9.9 0 0 1-.25 1.25l-12.54 8.2a.886.886 0 0 1-1.23-.25.899.899 0 0 1 .21-1.23ZM681.998 314.961l13.1-7.4a.91.91 0 0 1 .89 1.59l-13 7.34a.92.92 0 0 1-.33.132.908.908 0 0 1-1.056-1.088.915.915 0 0 1 .396-.574ZM708.571 300.844a220.45 220.45 0 0 1 13.93-5.74.922.922 0 1 1 .64 1.73 215.97 215.97 0 0 0-13.81 5.68.918.918 0 0 1-1.155-.482.924.924 0 0 1 .395-1.188ZM736.8 290.361c4.82-1.407 9.683-2.65 14.59-3.73a.933.933 0 0 1 1.11.71.93.93 0 0 1-.71 1.11 212.64 212.64 0 0 0-14.46 3.69.928.928 0 0 1-1.222-.609.934.934 0 0 1 .353-1.018.911.911 0 0 1 .349-.153h-.01ZM766.192 283.89l15-1.79a.944.944 0 0 1 1.045.825.94.94 0 0 1-.825 1.045h-.06l-14.84 1.76h-.06a.933.933 0 0 1-1.035-.815.931.931 0 0 1 .815-1.035l-.04.01ZM796.18 281.227h15.05a1 1 0 0 1 0 1.91h-15.05a.964.964 0 0 1-.734-.24.96.96 0 0 1-.313-.705.949.949 0 0 1 1.047-.945v-.02ZM826.248 281.958l15 1.5a1 1 0 0 1-.19 1.92l-14.87-1.5h-.049a.997.997 0 0 1-1.134-.619 1.004 1.004 0 0 1 .089-.898 1.001 1.001 0 0 1 1.235-.383l-.081-.02ZM856.099 285.663l14.79 2.76a1 1 0 0 1-.36 1.92l-14.7-2.76a.999.999 0 1 1 .35-1.9l-.08-.02ZM885.56 291.626l14.61 3.52a1 1 0 1 1-.46 1.91l-14.56-3.52a1 1 0 0 1 .46-1.91h-.05ZM914.681 299.05l14.38 4.39a1.004 1.004 0 0 1 .607 1.228 1.003 1.003 0 0 1-1.187.682l-14.34-4.39a.99.99 0 0 1-.675-.463 1.014 1.014 0 0 1-.138-.395 1.014 1.014 0 0 1 .239-.783.994.994 0 0 1 1.154-.259l-.04-.01ZM943.261 308.409l14 5.64a.999.999 0 0 1-.75 1.84l-13.87-5.59a1.007 1.007 0 0 1-.618-.527 1.012 1.012 0 0 1 .894-1.444c.132-.002.262.023.384.071l-.04.01ZM970.921 320.178c4.55 2 9.12 4 13.78 5.75a.999.999 0 0 1-.68 1.85c-4.73-1.75-9.34-3.75-13.91-5.8a1 1 0 0 1-.5-1.3.998.998 0 0 1 1.31-.5ZM999.001 329.962a53.48 53.48 0 0 0 14.669.67.99.99 0 0 1 .7.224c.2.162.33.393.36.646a.99.99 0 0 1-.22.702c-.17.197-.4.325-.65.358-5.08.474-10.19.246-15.209-.68a1 1 0 1 1 .34-1.92h.01ZM1027.88 327.116c2.3-.904 4.54-1.939 6.71-3.1 1.09-.57 2.18-1.2 3.26-1.81l3.26-1.82a.997.997 0 0 1 1.28-.136c.13.088.24.205.32.342.07.136.12.289.12.445a.898.898 0 0 1-.09.455.965.965 0 0 1-.28.366c-.12.098-.27.166-.42.198l-3.28 1.84c-1.1.61-2.18 1.24-3.3 1.83a68.258 68.258 0 0 1-6.9 3.2.986.986 0 0 1-.63-.134.995.995 0 0 1-.45-1.137.987.987 0 0 1 .37-.529l.03-.01ZM1053.82 312.533c4.15-2.747 8.22-5.627 12.19-8.64.1-.082.21-.144.34-.181a.93.93 0 0 1 .74.084c.11.063.21.148.29.25.07.102.13.219.16.344.03.124.04.254.02.381a.928.928 0 0 1-.14.356.796.796 0 0 1-.26.276c-4 3.04-8.1 5.943-12.29 8.71a.92.92 0 0 1-.71.148.96.96 0 0 1-.35-.143c-.1-.07-.19-.16-.26-.265a1.004 1.004 0 0 1 .27-1.32ZM1077.56 294.439c3.72-3.3 7.31-6.75 10.69-10.39a.93.93 0 0 1 .65-.298c.25-.01.49.08.67.248a.927.927 0 0 1 .05 1.32c-3.43 3.69-7 7.19-10.81 10.53a.913.913 0 0 1-.32.186.928.928 0 0 1-.72-.044.985.985 0 0 1-.48-.539 1.122 1.122 0 0 1-.05-.365.892.892 0 0 1 .1-.355.915.915 0 0 1 .22-.293ZM1097.67 272.554a77.105 77.105 0 0 0 7.43-12.8.92.92 0 0 1 .21-.296c.08-.084.19-.15.3-.193a.923.923 0 0 1 .71.019c.22.102.39.288.48.516.08.228.08.481-.02.704a78.08 78.08 0 0 1-7.59 13.12.938.938 0 0 1-1.3.23.861.861 0 0 1-.25-.264.847.847 0 0 1-.13-.34.893.893 0 0 1 .01-.364c.03-.119.08-.232.15-.332ZM1109.22 245.657c.65-4.858.38-9.796-.82-14.55a.855.855 0 0 1-.02-.356.994.994 0 0 1 .12-.336.854.854 0 0 1 .24-.265.932.932 0 0 1 .68-.172c.11.017.23.058.33.119.1.061.19.142.27.238a.95.95 0 0 1 .15.322 40.489 40.489 0 0 1 .87 15.23.925.925 0 0 1-.1.364.795.795 0 0 1-.23.296.896.896 0 0 1-.7.208.922.922 0 0 1-.64-.377 1.055 1.055 0 0 1-.15-.345.797.797 0 0 1 0-.376ZM1102.33 217.816a61.413 61.413 0 0 0-9.75-11.07.857.857 0 0 1-.21-.283 1.024 1.024 0 0 1-.09-.344c0-.119.01-.238.06-.35.04-.112.1-.215.18-.303a.912.912 0 0 1 1.28-.06 63.96 63.96 0 0 1 10 11.39.889.889 0 0 1 .22.721.903.903 0 0 1-.4.64.852.852 0 0 1-.36.142.914.914 0 0 1-.72-.199.963.963 0 0 1-.24-.304l.03.02ZM1081 197.354l-12-9.08a.872.872 0 0 1-.34-.59.868.868 0 0 1 .17-.66.897.897 0 0 1 .59-.344.9.9 0 0 1 .66.174l11.94 9.06a.87.87 0 0 1 .41.6.78.78 0 0 1-.01.372.836.836 0 0 1-.15.336.89.89 0 0 1-.64.354.905.905 0 0 1-.69-.232l.06.01ZM1057.49 178.589a73.342 73.342 0 0 1-10.14-11.27.807.807 0 0 1-.17-.32 1.104 1.104 0 0 1-.03-.362c.02-.121.06-.237.12-.341a.984.984 0 0 1 .25-.264c.1-.069.22-.117.34-.141a.874.874 0 0 1 .69.157c.1.072.18.165.24.271a70.848 70.848 0 0 0 9.9 11c.16.168.26.394.26.63 0 .235-.1.461-.26.63a.845.845 0 0 1-.29.192.843.843 0 0 1-.34.068.83.83 0 0 1-.33-.068.845.845 0 0 1-.29-.192l.05.01ZM1041.31 153.282l-.16-1.93c-.08-.663-.11-1.332-.09-2 .06-1.346.34-2.674.83-3.93a18.225 18.225 0 0 1 4.48-6.41.854.854 0 0 1 .61-.254c.23 0 .46.091.62.254a.885.885 0 0 1 0 1.23 16.625 16.625 0 0 0-4.06 5.79 10.828 10.828 0 0 0-.72 3.37c-.01.592.02 1.183.09 1.77l.16 1.8v.11c.02.119.01.24-.02.356a.922.922 0 0 1-.15.32.904.904 0 0 1-.62.324.848.848 0 0 1-.65-.196.819.819 0 0 1-.22-.27.79.79 0 0 1-.1-.334ZM1059.11 130.712a137.3 137.3 0 0 1 14-5.67.857.857 0 0 1 .62.077c.19.102.33.272.41.476.07.204.06.426-.03.624a.86.86 0 0 1-.44.443c-4.7 1.614-9.31 3.487-13.8 5.61a.866.866 0 0 1-1-.09.848.848 0 0 1-.22-.281 1.012 1.012 0 0 1-.09-.344.886.886 0 0 1 .25-.649.972.972 0 0 1 .3-.196ZM1087.43 120.491l14.36-4.19a.855.855 0 0 1 .97 1.218.88.88 0 0 1-.49.412l-14.38 4.2a.842.842 0 0 1-.92-.269.716.716 0 0 1-.16-.298c-.03-.11-.04-.224-.03-.337a.903.903 0 0 1 .1-.322.901.901 0 0 1 .22-.255c.1-.069.2-.12.31-.149l.02-.01ZM1116 111.596a112.86 112.86 0 0 0 13.63-6 .822.822 0 0 1 1.11.34c.1.192.12.417.06.625a.853.853 0 0 1-.4.485 113.938 113.938 0 0 1-13.82 6.09.873.873 0 0 1-.33.072.875.875 0 0 1-.34-.065.824.824 0 0 1-.51-.815.805.805 0 0 1 .29-.598.88.88 0 0 1 .3-.164l.01.03ZM1141.41 96.957a18.308 18.308 0 0 0 3.69-6.1c.76-2.251.96-4.656.57-7a.778.778 0 0 1 .15-.589c.12-.17.3-.285.51-.321.21-.032.42.02.59.143.17.124.28.31.31.517.44 2.604.22 5.277-.62 7.78a19.797 19.797 0 0 1-4 6.66.787.787 0 0 1-.86.224.723.723 0 0 1-.27-.16.712.712 0 0 1-.19-.25.655.655 0 0 1-.08-.303.817.817 0 0 1 .04-.311c.04-.1.09-.192.16-.27v-.02ZM1139.19 70.88a76.573 76.573 0 0 0-10.07-10.92.752.752 0 0 1 0-1.06.814.814 0 0 1 .24-.177.74.74 0 0 1 .82.117 79.233 79.233 0 0 1 10.24 11.12c.06.08.11.172.13.27a.761.761 0 0 1-.55.94.77.77 0 0 1-.81-.28v-.01ZM1117.36 50.88a144.31 144.31 0 0 0-12.81-7.66.759.759 0 0 1-.36-.438.928.928 0 0 1-.02-.289.67.67 0 0 1 .09-.274.906.906 0 0 1 .18-.227.716.716 0 0 1 .82-.063 147.8 147.8 0 0 1 13 7.71c.16.11.28.278.31.469.04.191 0 .39-.11.552a.745.745 0 0 1-.47.31.731.731 0 0 1-.55-.11l-.08.02ZM1091.1 36.712l-13.87-5.58a.668.668 0 0 1-.37-.367.638.638 0 0 1-.01-.523.688.688 0 0 1 .89-.38l14 5.58c.17.069.31.204.39.376a.77.77 0 0 1 .01.539.721.721 0 0 1-.38.387.707.707 0 0 1-.54.008l-.12-.04ZM1063.07 26.291l-14.37-4.21a.697.697 0 0 1-.39-.313.658.658 0 0 1-.05-.497.637.637 0 0 1 .32-.387.638.638 0 0 1 .49-.053l14.43 4.2a.65.65 0 0 1 .36.33c.07.151.09.324.04.485a.7.7 0 0 1-.3.384.663.663 0 0 1-.48.081l-.05-.02ZM1034.18 18.387l-14.63-3.25a.548.548 0 0 1-.22-.096.54.54 0 0 1-.17-.175.487.487 0 0 1-.09-.226.66.66 0 0 1 .01-.243.623.623 0 0 1 .73-.47l14.67 3.22c.08.018.16.051.23.099.06.047.12.108.17.178.04.07.07.148.09.23.01.082.01.166-.01.248a.615.615 0 0 1-.09.227.644.644 0 0 1-.66.258h-.03ZM1004.84 12.29l-14.77-2.51a.586.586 0 0 1-.352-.25.586.586 0 0 1 .136-.793.59.59 0 0 1 .416-.117l14.81 2.49a.596.596 0 0 1 .49.456c.01.077.01.157 0 .234a.578.578 0 0 1-.46.486.564.564 0 0 1-.23.004h-.04ZM975.241 7.578l-14.87-1.88a.554.554 0 0 1 .14-1.1l14.89 1.85a.575.575 0 0 1 .399.207.56.56 0 0 1 .124.432.56.56 0 0 1-.226.388.571.571 0 0 1-.437.103h-.02ZM945.461 4.15l-14.93-1.19a.522.522 0 0 1-.543-.777.513.513 0 0 1 .388-.25.52.52 0 0 1 .235.028l15 1.2a.54.54 0 0 1-.08 1.07l-.07-.08ZM915.572 1.96l-15-.66a.47.47 0 1 1 0-.94l15 .6a.522.522 0 0 1 .48.52.515.515 0 0 1-.52.49l.04-.01ZM885.601.96l-15-.14a.412.412 0 0 1-.41-.41.407.407 0 0 1 .42-.41l15 .07a.453.453 0 0 1 .384.445.452.452 0 0 1-.384.445h-.01ZM855.61.893l-15 .34a.338.338 0 0 1-.332-.205.364.364 0 0 1-.005-.27.339.339 0 0 1 .073-.115.342.342 0 0 1 .244-.11l15-.4a.371.371 0 0 1 .39.37.371.371 0 0 1-.37.39ZM825.638 1.79l-15 .76a.287.287 0 0 1-.211-.071.287.287 0 0 1-.022-.412.302.302 0 0 1 .203-.098l15-.82a.318.318 0 0 1 .308.18.319.319 0 0 1-.278.461ZM795.7 3.498l-15 1.12a.22.22 0 0 1-.25-.21.227.227 0 0 1 .053-.168.237.237 0 0 1 .157-.082l15-1.18a.25.25 0 0 1 .28.24.268.268 0 0 1-.24.28ZM765.8 5.958l-14.93 1.39a.16.16 0 0 1-.19-.15.184.184 0 0 1 .038-.124.182.182 0 0 1 .112-.066l14.93-1.5c.053 0 .104.02.142.058a.202.202 0 0 1 0 .283.202.202 0 0 1-.142.059l.04.05ZM736.001 8.96l-14.9 1.71a.126.126 0 0 1-.062-.043.122.122 0 0 1 0-.144.125.125 0 0 1 .062-.043l14.89-1.76a.139.139 0 0 1 .145.135.138.138 0 0 1-.135.145ZM706.158 12.446l-14.87 1.92a.049.049 0 0 1-.035-.014.052.052 0 0 1-.015-.036c0-.013.006-.026.015-.035a.049.049 0 0 1 .035-.015l14.87-2a.09.09 0 0 1 .064.016.088.088 0 0 1 .036.054.065.065 0 0 1-.003.034.081.081 0 0 1-.016.03.08.08 0 0 1-.061.026l-.02.02ZM676.42 16.38 665 17.96l11.44-1.64-.02.06Z"/><path fill="#000" fill-rule="evenodd" d="M1096.7 157.008c74.09-7.739 133.3-25.896 132.24-40.555-1.06-14.659-61.99-20.268-136.08-12.529-15.52 1.621-30.39 3.699-44.18 6.106l-87.954 35.198c3.053 14.099 63.154 19.386 135.974 11.78Z" clip-rule="evenodd"/><path fill="#F1EFED" d="M960.618 144.479c.019.253.055.502.108.749l87.954-35.198c-52.073 9.086-88.9 22.861-88.062 34.449Z"/><path stroke="#000" stroke-width="2" d="M960.726 145.228c3.053 14.099 63.154 19.386 135.974 11.78 74.09-7.739 133.3-25.896 132.24-40.555-1.06-14.659-61.99-20.268-136.08-12.529-15.52 1.621-30.39 3.699-44.18 6.106m-87.954 35.198a5.538 5.538 0 0 1-.108-.749c-.838-11.588 35.989-25.363 88.062-34.449m-87.954 35.198 87.954-35.198"/><ellipse cx="143.511" cy="35.678" fill="#F1EFED" stroke="#000" stroke-linejoin="round" stroke-width="2" rx="143.511" ry="35.678" transform="matrix(.99948 .03239 -.16756 .98586 950.996 67.46)"/><path fill="#000" d="M984.793 105.701c.583.323 1.02.732 1.311 1.23.291.485.432 1.039.421 1.663-.012.684-.185 1.293-.519 1.827-.321.523-.79.935-1.408 1.236-.617.301-1.352.444-2.204.429l-5.651-.1.223-12.598 5.633.1c.816.014 1.515.176 2.097.487.583.31 1.02.726 1.311 1.247.302.521.448 1.106.437 1.754-.011.6-.152 1.131-.424 1.595-.273.463-.681.84-1.227 1.13Zm-2.381-.708c.719.013 1.262-.146 1.628-.475.378-.342.573-.836.584-1.484.022-1.236-.693-1.867-2.145-1.892l-3.743-.066-.068 3.851 3.744.066Zm-.078 5.436c.743.013 1.31-.145 1.7-.475.39-.329.591-.817.602-1.465.011-.624-.173-1.095-.551-1.414-.378-.331-.939-.503-1.683-.516l-3.762-.066-.068 3.869 3.762.067Zm11.233-7.327c.924.016 1.724.228 2.401.636a3.97 3.97 0 0 1 1.572 1.72c.359.727.53 1.576.513 2.548a5.706 5.706 0 0 1-.028.557l-7.378-.13c.107.698.421 1.28.941 1.745a2.867 2.867 0 0 0 1.86.699c1.164.02 1.999-.391 2.506-1.234l1.764.031c-.303.835-.849 1.515-1.639 2.041-.789.514-1.675.763-2.659.745-.876-.015-1.664-.227-2.365-.635a4.349 4.349 0 0 1-1.626-1.703c-.384-.727-.567-1.535-.552-2.422.016-.888.228-1.683.636-2.384a4.231 4.231 0 0 1 1.668-1.644c.715-.396 1.51-.586 2.386-.57Zm-.063 1.511c-.707-.013-1.323.198-1.847.633-.512.435-.834 1-.966 1.693l5.525.098c-.059-.721-.343-1.302-.851-1.743-.497-.441-1.117-.668-1.861-.681Zm9.736.46-.08 4.751c-.01.384.08.679.27.887.2.207.54.316 1.04.324.45.008.85-.021 1.19-.087l-.03 1.566c-.35.102-.77.148-1.25.14-.98-.017-1.72-.264-2.22-.741-.49-.489-.73-1.195-.71-2.119l.08-4.752-1.8-.031.028-1.62 1.802.032.04-2.34 1.71.03-.04 2.34 4.5.079-.03 1.62-4.5-.079Zm7.42.131-.08 4.751c-.01.384.07.679.25.886.19.208.51.316.97.324.43.007.8-.022 1.1-.089l-.03 1.566c-.33.102-.72.149-1.19.141-1.91-.034-2.85-.987-2.81-2.858l.08-4.752-1.8-.031.03-1.62 1.8.032.04-2.34 1.71.03-.04 2.34 2.52.044-.03 1.62-2.52-.044Zm9.05-1.641c.93.016 1.73.229 2.4.637.69.408 1.22.981 1.58 1.72.35.726.53 1.575.51 2.547-.01.252-.02.438-.03.558l-7.38-.131c.11.698.42 1.28.94 1.745.54.454 1.16.687 1.86.699 1.17.021 2-.391 2.51-1.234l1.76.031c-.3.835-.85 1.516-1.64 2.042-.78.514-1.67.762-2.65.745-.88-.016-1.67-.227-2.37-.636-.7-.42-1.24-.988-1.63-1.703-.38-.727-.56-1.534-.55-2.422.02-.888.23-1.682.64-2.383a4.2 4.2 0 0 1 1.67-1.645c.71-.395 1.51-.585 2.38-.57Zm-.06 1.511a2.74 2.74 0 0 0-1.85.634c-.51.435-.83.999-.96 1.693l5.52.097c-.06-.721-.34-1.302-.85-1.743-.5-.441-1.12-.668-1.86-.681Zm12.19-1.297c.29.005.56.028.81.069l-.03 1.673c-.21-.052-.55-.082-1.02-.09-.53-.009-1 .103-1.41.335-.4.233-.72.552-.95.956-.23.392-.34.828-.35 1.308l-.09 4.877-1.71-.03.16-8.999 1.62.029-.02 1.386c.34-.474.77-.845 1.29-1.112.54-.278 1.1-.412 1.7-.402Zm8.57 4.832c.02-.864.24-1.646.67-2.346a4.55 4.55 0 0 1 1.76-1.662 4.796 4.796 0 0 1 2.44-.587c1 .018 1.89.328 2.67.93.79.59 1.31 1.355 1.54 2.295l-1.87-.033c-.2-.483-.52-.867-.97-1.151a2.674 2.674 0 0 0-1.49-.458 2.82 2.82 0 0 0-1.52.387c-.44.256-.8.622-1.06 1.097-.26.464-.39.983-.4 1.559-.01.576.1 1.106.35 1.591.24.472.58.85 1.02 1.134.44.272.94.413 1.5.423.56.009 1.06-.12 1.51-.388.46-.28.79-.658 1.01-1.134l1.87.033c-.27.931-.81 1.684-1.63 2.257-.8.562-1.7.835-2.69.817-.89-.016-1.7-.234-2.42-.655a4.663 4.663 0 0 1-1.7-1.722c-.41-.727-.6-1.523-.59-2.387Zm20.03-4.147-.15 8.999-1.62-.029.02-1.44c-.34.486-.78.875-1.32 1.165-.52.279-1.08.413-1.68.403-.73-.013-1.39-.181-1.97-.503-.57-.322-1.02-.798-1.36-1.428-.32-.642-.48-1.419-.46-2.331l.09-4.985 1.71.03-.09 4.949c-.02.792.21 1.426.67 1.902.46.476 1.04.721 1.75.733.51.009.97-.103 1.35-.336.4-.245.71-.575.92-.992.23-.416.34-.87.35-1.362l.09-4.805 1.7.03Zm6.79 9.301c-1.13-.02-2.08-.3-2.85-.842-.75-.554-1.18-1.305-1.29-2.255l1.71.03c.15.519.43.908.85 1.167.42.248.98.378 1.68.39.65.011 1.17-.082 1.57-.279.4-.208.6-.481.61-.817a.91.91 0 0 0-.4-.799c-.26-.209-.76-.379-1.48-.512l-1.03-.198c-2.15-.423-3.21-1.311-3.19-2.667.01-.792.37-1.422 1.08-1.89.7-.479 1.62-.709 2.75-.689 1.01.018 1.88.273 2.59.766.71.48 1.16 1.142 1.34 1.986l-1.82-.032c-.14-.363-.41-.644-.82-.843-.4-.211-.85-.321-1.34-.33-.62-.011-1.12.077-1.5.262-.36.174-.55.422-.55.746-.01.288.13.531.4.727.27.185.71.331 1.32.438l1.04.198c1.22.226 2.08.577 2.58 1.054.49.465.74 1.069.72 1.813-.01.792-.38 1.427-1.09 1.907-.71.468-1.67.691-2.88.669Zm9.19-7.399-.09 4.751c0 .384.08.68.26.887.19.207.51.315.96.323.44.008.8-.022 1.1-.088l-.02 1.565c-.33.103-.73.15-1.2.141-1.9-.033-2.84-.986-2.81-2.858l.09-4.751-1.8-.032.03-1.619 1.8.031.04-2.339 1.71.03-.05 2.339 2.52.045-.02 1.62-2.52-.045Zm9.06 7.721a4.94 4.94 0 0 1-2.42-.654 4.63 4.63 0 0 1-1.69-1.723 4.556 4.556 0 0 1-.59-2.386 4.51 4.51 0 0 1 .67-2.347 4.487 4.487 0 0 1 1.76-1.661 4.786 4.786 0 0 1 2.44-.587c.87.015 1.67.239 2.38.672.73.421 1.29.995 1.7 1.722.41.716.6 1.505.59 2.369a4.704 4.704 0 0 1-.67 2.365c-.44.7-1.02 1.254-1.76 1.661-.73.395-1.53.585-2.41.569Zm.03-1.583c.55.009 1.06-.114 1.52-.37.46-.267.83-.633 1.1-1.096.27-.476.41-1.001.42-1.577a3.19 3.19 0 0 0-.36-1.573 2.888 2.888 0 0 0-1.06-1.135 2.905 2.905 0 0 0-1.51-.44c-.56-.01-1.08.119-1.55.386-.46.256-.83.622-1.1 1.097-.28.463-.42.983-.43 1.559-.01.576.12 1.106.37 1.591.26.472.61.85 1.06 1.134.46.273.98.414 1.54.424Zm18.92-7.444c.72.013 1.36.18 1.92.502.57.322 1.01.804 1.32 1.446.33.63.48 1.401.47 2.312l-.09 4.986-1.71-.03.09-4.95c.01-.792-.21-1.426-.65-1.901-.44-.476-1-.72-1.68-.732-.75-.013-1.35.24-1.82.76-.46.52-.7 1.164-.72 1.931l-.08 4.806-1.71-.03.09-4.95c.01-.792-.21-1.425-.65-1.901-.44-.476-1-.72-1.68-.732-.75-.013-1.35.24-1.82.76-.46.52-.7 1.164-.71 1.932l-.09 4.805-1.71-.03.16-8.999 1.62.029-.03 1.421c.34-.486.76-.868 1.27-1.148a3.314 3.314 0 0 1 1.64-.403c.71.013 1.34.18 1.9.502.57.31 1.01.768 1.31 1.373a3.78 3.78 0 0 1 1.43-1.289c.6-.325 1.25-.482 1.93-.47Zm11.17.198c.92.016 1.72.228 2.4.636.69.408 1.21.982 1.57 1.72.36.726.53 1.576.52 2.547-.01.252-.02.438-.03.558l-7.38-.13c.11.698.42 1.279.94 1.745.53.453 1.15.686 1.86.699 1.16.02 2-.391 2.51-1.234l1.76.031c-.3.835-.85 1.515-1.64 2.041-.79.514-1.67.763-2.66.745-.87-.015-1.66-.227-2.36-.635a4.352 4.352 0 0 1-1.63-1.703 4.91 4.91 0 0 1-.55-2.422c.02-.888.23-1.683.64-2.384.4-.713.96-1.261 1.66-1.644.72-.396 1.51-.586 2.39-.57Zm-.06 1.511c-.71-.013-1.33.198-1.85.633-.51.435-.83 1-.97 1.693l5.53.098c-.06-.721-.34-1.302-.85-1.743-.5-.441-1.12-.668-1.86-.681Zm12.19-1.297c.29.005.56.028.81.068l-.03 1.674c-.21-.052-.56-.082-1.02-.09-.53-.01-1 .102-1.41.335-.4.233-.72.551-.96.955-.22.392-.34.828-.34 1.308l-.09 4.877-1.71-.03.16-8.998 1.62.028-.03 1.386a3.69 3.69 0 0 1 1.3-1.111c.54-.279 1.1-.413 1.7-.402Zm12.46 9.581c-1.12-.02-2.07-.301-2.84-.842-.76-.554-1.19-1.305-1.3-2.255l1.71.03c.15.518.43.907.85 1.167.43.247.99.377 1.68.39.65.011 1.17-.082 1.57-.279.4-.209.61-.481.61-.817a.888.888 0 0 0-.4-.799c-.26-.209-.75-.38-1.48-.513l-1.03-.198c-2.15-.422-3.21-1.311-3.19-2.666.02-.792.37-1.422 1.08-1.89.7-.479 1.62-.709 2.75-.689 1.02.018 1.88.273 2.59.766.72.48 1.16 1.142 1.34 1.986l-1.82-.033c-.14-.362-.41-.643-.81-.842a3.031 3.031 0 0 0-1.35-.33c-.62-.011-1.12.076-1.5.262-.36.173-.54.422-.55.746 0 .288.13.53.4.727.27.185.72.331 1.33.438l1.04.198c1.22.226 2.07.577 2.57 1.054.5.465.74 1.069.72 1.813-.01.792-.37 1.427-1.09 1.907-.71.467-1.66.691-2.88.669Zm10.94-9.168c.93.016 1.73.228 2.41.636.68.408 1.21.982 1.57 1.72.36.727.53 1.576.51 2.548 0 .252-.01.438-.03.557l-7.38-.13c.11.698.42 1.28.94 1.745.54.453 1.16.686 1.86.699 1.17.02 2-.391 2.51-1.234l1.76.031c-.3.835-.84 1.515-1.63 2.041-.79.515-1.68.763-2.66.746-.88-.016-1.67-.228-2.37-.636a4.32 4.32 0 0 1-1.62-1.703c-.39-.727-.57-1.534-.56-2.422.02-.888.23-1.683.64-2.383.41-.713.96-1.262 1.67-1.645.71-.396 1.51-.586 2.38-.57Zm-.06 1.511a2.738 2.738 0 0 0-1.85.633c-.51.435-.83 1-.96 1.694l5.52.097c-.06-.721-.34-1.302-.85-1.743-.49-.441-1.11-.668-1.86-.681Zm12.2-1.297c.28.005.55.028.8.068l-.03 1.674c-.21-.052-.55-.082-1.02-.09-.53-.01-1 .102-1.41.335-.4.233-.72.551-.95.955-.23.392-.34.828-.35 1.308l-.09 4.878-1.71-.031.16-8.998 1.62.028-.02 1.386c.34-.474.78-.844 1.3-1.111.53-.279 1.1-.413 1.7-.402Zm12.22.396-4.03 8.93-2.23-.039-3.71-9.067 1.91.033 2.98 7.362 3.23-7.252 1.85.033Zm4.23.074-.16 8.999-1.71-.03.16-8.999 1.71.03Zm.17-3.597-.03 1.98-1.91-.034.04-1.98 1.9.034Zm2.72 8.149c.02-.864.24-1.646.67-2.346a4.482 4.482 0 0 1 1.76-1.662 4.796 4.796 0 0 1 2.44-.587c1 .018 1.89.328 2.67.929.79.591 1.3 1.356 1.54 2.296l-1.87-.033c-.2-.483-.52-.867-.97-1.151a2.707 2.707 0 0 0-1.49-.459 2.82 2.82 0 0 0-1.52.388c-.45.256-.8.622-1.06 1.097-.26.464-.4.983-.41 1.559-.01.576.11 1.106.35 1.591.25.472.59.85 1.03 1.134.44.272.94.413 1.5.422.56.01 1.06-.119 1.5-.387.47-.28.8-.658 1.01-1.134l1.88.033c-.27.931-.81 1.684-1.63 2.257-.8.562-1.7.834-2.69.817-.89-.016-1.7-.234-2.42-.655a4.663 4.663 0 0 1-1.7-1.722c-.41-.727-.6-1.523-.59-2.387Zm15.82-4.401c.92.016 1.72.228 2.4.636.69.408 1.21.982 1.57 1.72.36.726.53 1.576.52 2.547-.01.252-.02.438-.03.558l-7.38-.13c.11.698.42 1.279.94 1.745.53.453 1.15.686 1.86.699 1.16.02 2-.391 2.51-1.234l1.76.031c-.3.835-.85 1.515-1.64 2.041-.79.514-1.67.763-2.66.745-.87-.015-1.66-.227-2.36-.635a4.352 4.352 0 0 1-1.63-1.703 4.912 4.912 0 0 1-.55-2.423c.02-.887.23-1.682.64-2.383.4-.713.96-1.261 1.66-1.644.72-.396 1.51-.586 2.39-.57Zm-.06 1.511c-.71-.013-1.33.198-1.85.633-.51.435-.83 1-.97 1.693l5.53.098c-.06-.721-.34-1.302-.85-1.743-.5-.441-1.12-.668-1.86-.681Z"/><path fill="#000" fill-rule="evenodd" d="M192.773 364.834c2.12 21.607 80.485 37.005 175.033 34.392 47.964-1.325 90.878-7.031 121.246-15.153 29.495-7.888 47.154-18.055 46.11-28.701l-75.996-30.015a485.097 485.097 0 0 0-15.874-1.804c-24.815-2.419-53.176-3.402-83.164-2.573-94.548 2.613-169.476 22.247-167.355 43.854Z" clip-rule="evenodd"/><path fill="#F1EFED" d="M459.166 325.357c44.755 5.861 74.696 16.772 75.996 30.015l-75.996-30.015Z"/><path stroke="#000" stroke-width="2" d="M535.162 355.372c1.044 10.646-16.615 20.813-46.11 28.701-30.368 8.122-73.282 13.828-121.246 15.153-94.548 2.613-172.913-12.785-175.033-34.392-2.121-21.607 72.807-41.241 167.355-43.854 29.988-.829 58.349.154 83.164 2.573a485.097 485.097 0 0 1 15.874 1.804m75.996 30.015c-1.3-13.243-31.241-24.154-75.996-30.015m75.996 30.015-75.996-30.015"/><ellipse cx="161.008" cy="44.02" fill="#F1EFED" stroke="#000" stroke-linejoin="round" stroke-width="2" rx="161.008" ry="44.02" transform="matrix(.9837 -.17978 .54434 .83886 170 333.852)"/><path fill="#000" d="m238.629 361.212-2.328.37.819 5.155-1.778.283-1.978-12.444 5.44-.865c.83-.131 1.566-.084 2.21.141a3.2 3.2 0 0 1 1.575 1.081c.406.494.665 1.091.776 1.79.149.936-.002 1.78-.454 2.532-.453.741-1.172 1.262-2.157 1.565l4.97 4.55-2.24.356-4.855-4.514Zm-2.585-1.248 3.555-.565c.711-.113 1.229-.371 1.553-.775.335-.418.45-.953.347-1.605-.104-.651-.378-1.118-.824-1.4-.436-.295-1.009-.386-1.72-.273l-3.556.565.645 4.053Zm14.298-4.623c.912-.145 1.738-.076 2.475.208.75.281 1.366.755 1.848 1.419.48.653.797 1.459.949 2.419.04.249.063.434.07.554l-7.288 1.158a2.85 2.85 0 0 0 1.231 1.554 2.855 2.855 0 0 0 1.953.364c1.15-.182 1.901-.733 2.253-1.652l1.742-.277c-.153.875-.572 1.64-1.257 2.296-.688.644-1.517 1.043-2.489 1.198-.865.137-1.679.066-2.44-.214a4.352 4.352 0 0 1-1.898-1.393c-.504-.649-.826-1.412-.965-2.289-.14-.877-.069-1.696.21-2.458.279-.773.73-1.41 1.355-1.91.636-.514 1.386-.84 2.251-.977Zm.202 1.499c-.7.111-1.269.426-1.709.945-.428.518-.647 1.13-.656 1.836l5.457-.867c-.184-.7-.564-1.223-1.142-1.568-.565-.348-1.216-.463-1.95-.346Zm14.872-7.449 1.992 12.532-1.689.269-.212-1.334a4.077 4.077 0 0 1-1.155 1.332 3.724 3.724 0 0 1-1.609.657 4.057 4.057 0 0 1-2.226-.248 4.29 4.29 0 0 1-1.774-1.413c-.479-.64-.788-1.405-.93-2.294-.141-.889-.084-1.712.173-2.47a4.159 4.159 0 0 1 1.251-1.875 3.967 3.967 0 0 1 2.037-.944 3.648 3.648 0 0 1 1.792.153 4.14 4.14 0 0 1 1.558.973l-.808-5.084 1.6-.254Zm-2.637 11.846a2.697 2.697 0 0 0 2.183-1.859 3.533 3.533 0 0 0 .104-1.639 3.413 3.413 0 0 0-.604-1.508 2.68 2.68 0 0 0-1.171-.944 2.705 2.705 0 0 0-1.484-.165 2.615 2.615 0 0 0-1.342.615 2.711 2.711 0 0 0-.803 1.257c-.163.5-.199 1.04-.107 1.621.093.581.295 1.089.607 1.526.311.424.694.734 1.15.929.457.194.946.25 1.467.167Zm15.131-10.096 1.413 8.889-1.6.254-.226-1.422a3.85 3.85 0 0 1-1.094 1.376 3.371 3.371 0 0 1-1.585.69c-.723.115-1.399.064-2.029-.152-.618-.217-1.148-.607-1.589-1.169-.432-.575-.719-1.313-.863-2.214l-.782-4.924 1.689-.268.777 4.888c.124.783.454 1.368.99 1.757.535.388 1.153.527 1.852.416.51-.081.935-.27 1.277-.567.351-.311.595-.69.73-1.137.148-.449.183-.916.106-1.402l-.755-4.746 1.689-.269Zm3.642 3.978a4.53 4.53 0 0 1 .252-2.428 4.495 4.495 0 0 1 1.441-1.942 4.8 4.8 0 0 1 2.301-1.004 4.392 4.392 0 0 1 2.787.45 4 4 0 0 1 1.92 1.992l-1.849.293a2.389 2.389 0 0 0-1.155-.964 2.683 2.683 0 0 0-1.544-.192 2.8 2.8 0 0 0-1.428.646c-.397.33-.682.752-.856 1.266a3.248 3.248 0 0 0-.127 1.606c.09.569.297 1.07.622 1.505.322.423.724.735 1.206.938.48.191.998.243 1.555.154a2.778 2.778 0 0 0 1.411-.643c.405-.356.671-.787.797-1.293l1.849-.294c-.102.964-.504 1.799-1.206 2.506a4.445 4.445 0 0 1-2.513 1.274 4.9 4.9 0 0 1-2.496-.223 4.678 4.678 0 0 1-1.972-1.399 4.629 4.629 0 0 1-.995-2.248Zm13.388-5.044.746 4.693c.061.379.202.654.423.826.234.169.593.215 1.079.138a5.754 5.754 0 0 0 1.157-.293l.245 1.546c-.326.162-.727.28-1.201.355-.971.155-1.743.04-2.314-.343-.573-.395-.932-1.048-1.077-1.961l-.746-4.693-1.778.283-.254-1.6 1.777-.283-.367-2.311 1.689-.268.367 2.311 4.444-.707.255 1.6-4.445.707Zm6.716-2.708 1.413 8.888-1.689.269-1.413-8.889 1.689-.268Zm-.458-3.572.31 1.955-1.884.3-.311-1.956 1.885-.299Zm9.559 11.421a4.91 4.91 0 0 1-2.496-.223 4.68 4.68 0 0 1-1.972-1.4 4.631 4.631 0 0 1-.996-2.248 4.545 4.545 0 0 1 .252-2.427 4.513 4.513 0 0 1 1.441-1.943 4.798 4.798 0 0 1 2.301-1.003 4.659 4.659 0 0 1 2.464.246 4.503 4.503 0 0 1 1.972 1.4c.526.633.857 1.377.992 2.23a4.623 4.623 0 0 1-.249 2.445 4.685 4.685 0 0 1-1.441 1.943 4.784 4.784 0 0 1-2.268.98Zm-.249-1.565a2.96 2.96 0 0 0 1.431-.628c.407-.344.704-.768.892-1.272a3.238 3.238 0 0 0 .142-1.626 3.132 3.132 0 0 0-.637-1.485 2.845 2.845 0 0 0-1.242-.932 2.86 2.86 0 0 0-1.558-.172 2.997 2.997 0 0 0-1.464.652 2.835 2.835 0 0 0-.891 1.272 3.125 3.125 0 0 0-.145 1.608c.09.569.303 1.07.639 1.503.334.42.748.731 1.242.932a3.084 3.084 0 0 0 1.591.148Zm10.932-9.611c.723-.115 1.393-.063 2.011.154.63.216 1.16.612 1.592 1.187.442.562.734 1.293.877 2.194l.783 4.924-1.689.268-.777-4.888c-.124-.782-.454-1.368-.99-1.757-.536-.388-1.153-.527-1.852-.416a2.475 2.475 0 0 0-2.025 1.707 3.086 3.086 0 0 0-.088 1.399l.755 4.747-1.689.268-1.413-8.888 1.6-.255.226 1.422c.255-.538.614-.99 1.078-1.356a3.373 3.373 0 0 1 1.601-.71Zm18.649 6.514a4.91 4.91 0 0 1-2.496-.223 4.683 4.683 0 0 1-1.973-1.4 4.639 4.639 0 0 1-.995-2.248 4.545 4.545 0 0 1 .252-2.427 4.505 4.505 0 0 1 1.441-1.943 4.798 4.798 0 0 1 2.301-1.003 4.656 4.656 0 0 1 2.463.246 4.506 4.506 0 0 1 1.973 1.4c.526.633.856 1.377.992 2.23a4.623 4.623 0 0 1-.249 2.445 4.685 4.685 0 0 1-1.441 1.943 4.784 4.784 0 0 1-2.268.98Zm-.249-1.565a2.96 2.96 0 0 0 1.431-.628c.407-.344.704-.768.891-1.272a3.227 3.227 0 0 0 .143-1.626 3.142 3.142 0 0 0-.637-1.485 2.845 2.845 0 0 0-1.242-.932 2.86 2.86 0 0 0-1.558-.172 2.997 2.997 0 0 0-1.464.652 2.835 2.835 0 0 0-.891 1.272 3.125 3.125 0 0 0-.146 1.608c.091.569.304 1.07.64 1.503.334.42.748.731 1.242.932a3.084 3.084 0 0 0 1.591.148Zm9.63-11.409c-.486.078-.814.233-.983.466-.158.232-.207.537-.146.917l.152.96 2.489-.396.254 1.6-2.489.396 1.159 7.288-1.689.269-1.158-7.289-1.778.283-.254-1.6 1.777-.283-.152-.96c-.145-.912-.006-1.639.419-2.181.422-.553 1.119-.907 2.091-1.061.474-.075.891-.087 1.252-.035l.246 1.547a5.719 5.719 0 0 0-1.19.079Zm14.256-.261c.747-.118 1.441-.071 2.083.143a3.36 3.36 0 0 1 1.645 1.178c.442.562.734 1.293.877 2.194l.783 4.924-1.689.269-.777-4.889c-.124-.782-.454-1.368-.99-1.756-.536-.389-1.153-.528-1.852-.417a2.408 2.408 0 0 0-1.239.58 2.668 2.668 0 0 0-.763 1.16 2.956 2.956 0 0 0-.105 1.402l.749 4.711-1.689.268-1.992-12.533 1.6-.254.768 4.835a3.917 3.917 0 0 1 1.104-1.196 3.463 3.463 0 0 1 1.487-.619Zm15.71-2.314 1.413 8.888-1.6.254-.226-1.422a3.844 3.844 0 0 1-1.094 1.377 3.38 3.38 0 0 1-1.585.689c-.723.115-1.399.065-2.029-.151-.618-.218-1.148-.608-1.589-1.169-.432-.576-.719-1.314-.862-2.214l-.783-4.924 1.689-.269.777 4.889c.124.782.454 1.367.99 1.756.535.389 1.153.528 1.852.417.51-.081.935-.271 1.277-.568.351-.311.595-.69.73-1.137.148-.448.183-.916.106-1.402l-.755-4.746 1.689-.268Zm14.64-2.51c.711-.113 1.369-.059 1.975.16.618.218 1.137.616 1.557 1.193.43.563.716 1.295.859 2.196l.783 4.924-1.689.269-.777-4.889c-.124-.782-.448-1.368-.972-1.759-.512-.393-1.106-.535-1.781-.428-.735.117-1.286.472-1.654 1.065-.367.593-.491 1.269-.37 2.027l.754 4.747-1.689.268-.777-4.889c-.124-.782-.448-1.368-.972-1.759-.512-.392-1.105-.535-1.781-.427-.735.116-1.286.471-1.653 1.064-.368.593-.491 1.269-.371 2.028l.755 4.746-1.689.268-1.413-8.888 1.6-.254.223 1.404a3.62 3.62 0 0 1 1.043-1.35 3.304 3.304 0 0 1 1.55-.684c.699-.111 1.352-.057 1.958.162a3.08 3.08 0 0 1 1.527 1.125c.257-.6.651-1.106 1.181-1.518a3.886 3.886 0 0 1 1.823-.801Zm15.398-2.265 1.413 8.889-1.689.268-.212-1.333a4.098 4.098 0 0 1-1.155 1.332 3.74 3.74 0 0 1-1.609.656 4.061 4.061 0 0 1-2.227-.247 4.288 4.288 0 0 1-1.773-1.413c-.479-.641-.789-1.406-.93-2.295-.141-.889-.084-1.712.172-2.469a4.172 4.172 0 0 1 1.252-1.876 3.968 3.968 0 0 1 2.037-.944 3.661 3.661 0 0 1 1.792.153 4.15 4.15 0 0 1 1.558.974l-.229-1.44 1.6-.255Zm-3.216 8.203a2.718 2.718 0 0 0 1.36-.617 2.71 2.71 0 0 0 .823-1.243 3.533 3.533 0 0 0 .104-1.639 3.42 3.42 0 0 0-.604-1.507 2.679 2.679 0 0 0-1.171-.944 2.705 2.705 0 0 0-1.484-.165 2.61 2.61 0 0 0-1.342.614 2.72 2.72 0 0 0-.803 1.258c-.164.499-.199 1.04-.107 1.62a3.53 3.53 0 0 0 .607 1.526c.311.425.694.734 1.15.929.456.195.945.251 1.467.168Zm11.458-9.695c.723-.115 1.393-.063 2.011.154.63.216 1.161.612 1.592 1.187.442.562.734 1.293.878 2.194l.782 4.924-1.689.268-.777-4.888c-.124-.783-.454-1.368-.99-1.757-.535-.389-1.153-.527-1.852-.416a2.475 2.475 0 0 0-2.025 1.707 3.086 3.086 0 0 0-.088 1.399l.755 4.746-1.689.269-1.413-8.889 1.6-.254.226 1.422c.255-.538.614-.99 1.079-1.356a3.37 3.37 0 0 1 1.6-.71Zm17.002-2.702c.912-.145 1.737-.076 2.475.208.75.282 1.366.755 1.848 1.419.48.653.797 1.459.949 2.419.04.249.063.434.07.554l-7.288 1.159a2.857 2.857 0 0 0 1.231 1.554 2.866 2.866 0 0 0 1.953.364c1.15-.183 1.901-.734 2.253-1.652l1.742-.277c-.153.874-.572 1.64-1.257 2.295-.688.644-1.517 1.044-2.489 1.198-.865.137-1.679.066-2.44-.214a4.352 4.352 0 0 1-1.898-1.393c-.504-.649-.826-1.412-.965-2.289-.14-.877-.07-1.696.21-2.457a4.23 4.23 0 0 1 1.355-1.911c.635-.514 1.386-.84 2.251-.977Zm.202 1.499c-.7.111-1.269.426-1.709.946-.428.517-.647 1.129-.656 1.835l5.457-.867c-.184-.7-.564-1.223-1.142-1.568-.565-.348-1.216-.463-1.95-.346Zm11.781-3.404c.284-.045.554-.07.808-.074l.263 1.654c-.221-.014-.562.016-1.025.09a2.705 2.705 0 0 0-1.33.576c-.353.299-.61.668-.772 1.106a2.695 2.695 0 0 0-.113 1.349l.765 4.818-1.688.268-1.413-8.888 1.6-.255.217 1.369a3.631 3.631 0 0 1 1.085-1.321 3.477 3.477 0 0 1 1.603-.692Zm8.006-1.272a5.63 5.63 0 0 1 .809-.074l.263 1.653c-.221-.013-.563.017-1.025.09a2.715 2.715 0 0 0-1.33.576 2.592 2.592 0 0 0-.772 1.107 2.702 2.702 0 0 0-.114 1.348l.766 4.818-1.689.268-1.413-8.888 1.6-.254.218 1.368a3.625 3.625 0 0 1 1.084-1.32 3.481 3.481 0 0 1 1.603-.692Zm8.334 8.153a4.91 4.91 0 0 1-2.496-.223 4.683 4.683 0 0 1-1.973-1.4 4.639 4.639 0 0 1-.995-2.248 4.545 4.545 0 0 1 .252-2.427 4.505 4.505 0 0 1 1.441-1.943 4.798 4.798 0 0 1 2.301-1.003 4.656 4.656 0 0 1 2.463.246 4.506 4.506 0 0 1 1.973 1.4c.526.633.856 1.376.992 2.23a4.623 4.623 0 0 1-.249 2.445 4.675 4.675 0 0 1-1.441 1.942 4.776 4.776 0 0 1-2.268.981Zm-.249-1.565a2.96 2.96 0 0 0 1.431-.628c.407-.344.704-.768.891-1.272a3.227 3.227 0 0 0 .143-1.626 3.142 3.142 0 0 0-.637-1.485 2.845 2.845 0 0 0-1.242-.932 2.86 2.86 0 0 0-1.558-.172 2.997 2.997 0 0 0-1.464.652 2.835 2.835 0 0 0-.891 1.272 3.125 3.125 0 0 0-.146 1.608c.091.569.304 1.07.64 1.503.334.42.748.731 1.242.932a3.094 3.094 0 0 0 1.591.148Zm10.932-9.611c.284-.045.554-.07.808-.074l.263 1.654c-.221-.014-.562.016-1.025.09a2.701 2.701 0 0 0-1.33.576c-.353.299-.61.668-.772 1.106a2.695 2.695 0 0 0-.113 1.349l.765 4.817-1.688.269-1.413-8.889 1.6-.254.217 1.369a3.639 3.639 0 0 1 1.084-1.321 3.485 3.485 0 0 1 1.604-.692Z"/><path fill="#000" fill-rule="evenodd" d="M929.403 336.329c88.327 2.832 161.167-8.955 162.687-26.328 1.52-17.373-68.85-33.752-157.18-36.584-18.5-.593-36.321-.545-52.949.061l-109.753 27.163c.922 17.037 70.386 32.905 157.195 35.688Z" clip-rule="evenodd"/><path fill="#F1EFED" d="M772.223 299.745a6.385 6.385 0 0 0-.015.896l109.753-27.163c-62.762 2.29-108.536 12.533-109.738 26.267Z"/><path stroke="#000" stroke-width="2" d="M772.208 300.641c.922 17.037 70.386 32.905 157.195 35.688 88.327 2.832 161.167-8.955 162.687-26.328 1.52-17.373-68.85-33.752-157.18-36.584-18.5-.593-36.321-.545-52.949.061m-109.753 27.163a6.385 6.385 0 0 1 .015-.896c1.202-13.734 46.976-23.977 109.738-26.267m-109.753 27.163 109.753-27.163"/><ellipse cx="161.114" cy="43.274" fill="#F1EFED" stroke="#000" stroke-linejoin="round" stroke-width="2" rx="161.114" ry="43.274" transform="matrix(.98968 .1433 -.36763 .92997 795.816 217.961)"/><path fill="#000" d="m835.99 261.092-3.743 12.031-1.967-.226-4.341-10.575-3.027 9.728-1.752-.202 3.743-12.031 2.199.253 4.178 10.325 2.957-9.504 1.753.201Zm6.687 4.152c.918.105 1.658.386 2.22.843a2.994 2.994 0 0 1 1.089 1.798c.156.73.089 1.559-.2 2.487a6.307 6.307 0 0 1-.183.531l-7.332-.843c-.087.678.063 1.265.452 1.761.405.486.959.769 1.662.85 1.157.133 2.106-.179 2.848-.937l1.752.202c-.536.769-1.271 1.367-2.206 1.793a5.402 5.402 0 0 1-2.864.454c-.871-.1-1.599-.379-2.184-.838a3.285 3.285 0 0 1-1.148-1.788c-.18-.733-.137-1.523.126-2.371a5.546 5.546 0 0 1 1.302-2.218 5.516 5.516 0 0 1 2.124-1.411 5.392 5.392 0 0 1 2.542-.313Zm-.484 1.439a3.263 3.263 0 0 0-2.022.427 3.58 3.58 0 0 0-1.438 1.525l5.49.632c.142-.696.021-1.279-.363-1.751-.373-.47-.928-.748-1.667-.833Zm20.612 1.054-5.392 8.281-2.074-.239-.159-6.872-4.348 6.354-2.02-.232-.027-8.905 1.842.212-.193 6.992 4.449-6.502 1.878.216.205 7.02 4.015-6.535 1.824.21Zm13.452 1.369c.786.09 1.441.368 1.964.831.526.452.868 1.038 1.028 1.756.159.719.105 1.508-.163 2.367a5.84 5.84 0 0 1-1.27 2.239 5.616 5.616 0 0 1-2.018 1.424 4.712 4.712 0 0 1-2.322.32 3.34 3.34 0 0 1-1.563-.571 3.084 3.084 0 0 1-1.005-1.237l-.401 1.289-1.698-.195 3.769-12.118 1.61.186-1.53 4.915a5.42 5.42 0 0 1 1.736-.993c.622-.213 1.243-.284 1.863-.213Zm-2.597 7.392a3.052 3.052 0 0 0 1.531-.216 3.587 3.587 0 0 0 1.309-.935c.381-.431.659-.927.834-1.488.175-.562.212-1.08.113-1.554-.096-.486-.313-.879-.652-1.179-.339-.3-.771-.48-1.295-.54a3.132 3.132 0 0 0-1.548.213c-.508.203-.952.52-1.333.951a3.877 3.877 0 0 0-.828 1.471c-.175.561-.215 1.085-.119 1.571.1.474.325.862.675 1.163.351.302.789.483 1.313.543Zm17.769-5.469-2.673 8.594-1.61-.185.428-1.375c-.48.431-1.027.76-1.641.986a3.893 3.893 0 0 1-1.791.221c-.727-.083-1.336-.308-1.828-.673-.479-.364-.799-.863-.96-1.499-.145-.646-.082-1.404.189-2.275l1.482-4.761 1.698.196-1.47 4.726c-.235.757-.19 1.385.136 1.885.326.501.84.791 1.544.872.512.059.995-.004 1.448-.189a3.176 3.176 0 0 0 1.193-.86c.34-.376.582-.799.729-1.269l1.427-4.589 1.699.195Zm4.178 9.56c-1.121-.129-1.99-.49-2.608-1.083-.603-.604-.823-1.365-.661-2.284l1.699.195c.002.511.174.911.516 1.199.358.279.883.458 1.574.537.644.074 1.193.037 1.647-.113.458-.161.736-.402.836-.723.1-.321.041-.588-.176-.803-.202-.225-.648-.437-1.34-.635l-.966-.289c-2.031-.614-2.846-1.568-2.443-2.863.235-.756.77-1.323 1.604-1.702.838-.39 1.817-.521 2.937-.392 1.014.116 1.807.445 2.379.986.577.529.835 1.205.776 2.029l-1.806-.207c-.036-.361-.228-.656-.576-.886-.345-.241-.762-.39-1.25-.446-.62-.071-1.144-.037-1.57.104-.411.131-.665.351-.761.66-.086.275-.02.52.197.735.221.204.621.386 1.2.548l.984.291c1.155.334 1.914.754 2.276 1.258.365.493.437 1.095.216 1.806-.235.756-.778 1.328-1.627 1.717-.834.379-1.853.499-3.057.361Zm11.271-7.783-2.674 8.594-1.699-.196 2.674-8.593 1.699.195Zm1.176-3.425-.588 1.89-1.895-.218.588-1.89 1.895.218Zm7.19 4.209c.727.084 1.331.307 1.81.671.492.365.81.871.955 1.516.16.636.105 1.389-.166 2.26l-1.481 4.761-1.699-.195 1.47-4.727c.236-.756.19-1.385-.136-1.885-.325-.5-.84-.791-1.543-.872a2.895 2.895 0 0 0-1.472.205 3.229 3.229 0 0 0-1.188.842 3.524 3.524 0 0 0-.71 1.272l-1.428 4.589-1.699-.196 2.674-8.593 1.609.185-.428 1.375a4.862 4.862 0 0 1 1.618-.971 3.895 3.895 0 0 1 1.814-.237Zm11.196 1.288c.918.105 1.658.386 2.22.843a2.994 2.994 0 0 1 1.089 1.798c.156.73.089 1.559-.2 2.488-.074.24-.136.417-.183.53l-7.332-.843c-.087.678.063 1.265.452 1.761.405.486.959.769 1.662.85 1.157.133 2.106-.179 2.848-.937l1.752.202c-.535.769-1.271 1.367-2.206 1.794a5.401 5.401 0 0 1-2.864.453c-.871-.1-1.598-.379-2.184-.838a3.285 3.285 0 0 1-1.148-1.788c-.18-.733-.137-1.523.126-2.371a5.546 5.546 0 0 1 1.302-2.218 5.516 5.516 0 0 1 2.124-1.411 5.392 5.392 0 0 1 2.542-.313Zm-.484 1.44a3.255 3.255 0 0 0-2.022.426 3.577 3.577 0 0 0-1.438 1.526l5.49.631c.142-.696.021-1.279-.363-1.751-.373-.47-.928-.747-1.667-.832Zm8.432 8.731c-1.12-.129-1.989-.49-2.608-1.083-.602-.603-.822-1.364-.66-2.283l1.699.195c.002.511.174.91.516 1.199.358.278.883.457 1.574.537.644.074 1.193.036 1.647-.113.457-.161.736-.402.836-.723.1-.321.041-.589-.176-.804-.202-.225-.648-.436-1.34-.635l-.966-.289c-2.032-.613-2.846-1.567-2.443-2.862.235-.756.77-1.324 1.604-1.703.837-.39 1.816-.521 2.937-.392 1.013.117 1.806.445 2.379.986.576.529.835 1.206.776 2.03l-1.806-.208c-.036-.36-.228-.655-.576-.885-.345-.242-.762-.39-1.251-.447-.62-.071-1.143-.036-1.569.105-.412.13-.665.35-.761.66-.086.275-.02.52.197.735.221.203.621.386 1.2.547l.984.291c1.155.335 1.914.755 2.275 1.259.366.493.438 1.095.217 1.805-.235.756-.778 1.329-1.627 1.718-.834.379-1.853.499-3.058.36Zm10.08 1.16c-1.121-.129-1.99-.49-2.608-1.084-.602-.603-.823-1.364-.66-2.283l1.699.195c.001.511.173.91.516 1.199.358.279.882.458 1.574.537.644.074 1.192.036 1.646-.113.458-.161.737-.402.837-.723.099-.321.041-.589-.176-.803-.202-.225-.649-.437-1.34-.635l-.966-.289c-2.032-.614-2.846-1.568-2.444-2.863.236-.756.77-1.323 1.604-1.702.838-.391 1.817-.521 2.938-.392 1.013.116 1.806.445 2.379.985.576.53.835 1.206.776 2.03l-1.806-.208c-.036-.36-.228-.655-.577-.885-.344-.241-.761-.39-1.25-.446-.62-.072-1.143-.037-1.57.104-.411.131-.665.351-.761.66-.085.275-.02.52.198.735.22.203.62.386 1.2.547l.984.292c1.155.334 1.913.754 2.275 1.258.365.493.437 1.095.216 1.805-.235.757-.777 1.329-1.627 1.718-.834.379-1.853.499-3.057.361Zm13.337-3.095a5.254 5.254 0 0 1 1.326-2.18 5.89 5.89 0 0 1 2.219-1.418 5.554 5.554 0 0 1 2.602-.324c.989.114 1.79.497 2.402 1.149.628.642.928 1.424.9 2.347l-1.86-.214a1.811 1.811 0 0 0-.646-1.196c-.356-.326-.808-.52-1.356-.583a3.248 3.248 0 0 0-1.625.222c-.52.201-.976.517-1.369.946-.389.418-.67.902-.841 1.452-.171.55-.203 1.069-.095 1.556.111.476.347.871.706 1.185.362.303.824.487 1.384.551a3.221 3.221 0 0 0 1.607-.225 3.23 3.23 0 0 0 1.326-.987l1.86.214c-.528.865-1.279 1.533-2.253 2.002-.958.46-1.931.633-2.921.519-.882-.102-1.626-.389-2.232-.862a3.521 3.521 0 0 1-1.214-1.813c-.204-.736-.177-1.516.08-2.341Zm21.335-1.997-2.673 8.594-1.699-.195.401-1.29a5.331 5.331 0 0 1-1.678.929 4.274 4.274 0 0 1-1.799.185c-.787-.091-1.443-.362-1.969-.814a3.24 3.24 0 0 1-1.023-1.773c-.159-.719-.105-1.508.162-2.367a5.845 5.845 0 0 1 1.271-2.24 5.448 5.448 0 0 1 2.012-1.406 4.63 4.63 0 0 1 2.328-.338c.62.072 1.155.276 1.606.612.451.337.79.774 1.019 1.31l.433-1.392 1.609.185Zm-6.691 6.743a3.147 3.147 0 0 0 1.548-.213 3.53 3.53 0 0 0 1.328-.934c.381-.43.659-.927.833-1.488.175-.562.213-1.079.113-1.554a2.024 2.024 0 0 0-.67-1.181c-.35-.301-.788-.482-1.313-.542a3.038 3.038 0 0 0-1.53.215 3.556 3.556 0 0 0-1.315.953c-.377.419-.654.91-.828 1.471-.175.562-.214 1.085-.118 1.571.099.474.318.862.657 1.162.339.3.77.48 1.295.54Zm15.225-5.939c.787.09 1.441.367 1.964.831.526.452.869 1.037 1.028 1.756.159.719.105 1.507-.162 2.367a5.829 5.829 0 0 1-1.271 2.239 5.613 5.613 0 0 1-2.017 1.424 4.717 4.717 0 0 1-2.323.32 3.34 3.34 0 0 1-1.563-.571 3.09 3.09 0 0 1-1.004-1.237l-1.31 4.211-1.699-.196 3.583-11.515 1.609.185-.433 1.392a5.416 5.416 0 0 1 1.735-.993 4.18 4.18 0 0 1 1.863-.213Zm-2.596 7.392a3.05 3.05 0 0 0 1.53-.216 3.59 3.59 0 0 0 1.31-.935c.381-.431.659-.927.833-1.489.175-.561.213-1.079.113-1.553-.095-.486-.313-.879-.652-1.179-.338-.3-.77-.48-1.295-.541a3.148 3.148 0 0 0-1.548.214 3.499 3.499 0 0 0-1.333.95c-.377.42-.653.91-.828 1.472-.175.561-.214 1.085-.118 1.571.099.474.324.862.675 1.163.351.302.788.482 1.313.543Zm17.942-5.449-2.67 8.593-1.703-.195.401-1.289a5.351 5.351 0 0 1-1.678.929 4.274 4.274 0 0 1-1.799.184c-.787-.09-1.443-.362-1.969-.814-.523-.463-.864-1.054-1.023-1.773-.159-.718-.105-1.507.162-2.367a5.841 5.841 0 0 1 1.271-2.239 5.44 5.44 0 0 1 2.012-1.407 4.63 4.63 0 0 1 2.328-.337c.62.071 1.155.275 1.606.612.452.337.792.773 1.022 1.31l.43-1.392 1.61.185Zm-6.692 6.743c.524.06 1.04-.011 1.548-.214.508-.203.95-.514 1.328-.933.381-.431.658-.927.836-1.489.17-.561.21-1.079.11-1.553-.1-.486-.319-.88-.67-1.181-.351-.302-.788-.482-1.313-.543a3.05 3.05 0 0 0-1.53.216 3.542 3.542 0 0 0-1.315.952c-.378.42-.654.91-.828 1.472-.175.561-.214 1.085-.119 1.571.1.474.319.861.658 1.161.339.3.77.48 1.295.541Zm15.222-5.94c.79.091 1.44.368 1.97.831.52.453.87 1.038 1.02 1.756.16.719.11 1.508-.16 2.367-.26.86-.69 1.606-1.27 2.24a5.578 5.578 0 0 1-2.02 1.423 4.71 4.71 0 0 1-2.32.321 3.37 3.37 0 0 1-1.56-.572 3.147 3.147 0 0 1-1.01-1.237l-.4 1.289-1.7-.195 3.77-12.117 1.61.185-1.53 4.915c.54-.448 1.12-.78 1.74-.993a4.193 4.193 0 0 1 1.86-.213Zm-2.59 7.392a3.05 3.05 0 0 0 1.53-.215c.49-.204.93-.516 1.31-.936.38-.431.66-.927.83-1.488.18-.562.21-1.08.11-1.554a2.014 2.014 0 0 0-.65-1.179c-.34-.3-.77-.48-1.29-.54a3.148 3.148 0 0 0-1.55.213c-.51.203-.95.52-1.33.951-.38.419-.66.91-.83 1.471-.18.562-.22 1.085-.12 1.571.1.474.32.862.67 1.164.35.301.79.482 1.32.542Zm11.41-6.199-2.67 8.593-1.7-.195 2.67-8.594 1.7.196Zm1.18-3.425-.59 1.89-1.89-.218.58-1.89 1.9.218Zm5.37.528-3.77 12.117-1.7-.195 3.77-12.117 1.7.195Zm4.36 4.151-2.68 8.594-1.7-.196 2.68-8.594 1.7.196Zm1.17-3.425-.58 1.89-1.9-.218.59-1.89 1.89.218Zm4.33 5.66-1.41 4.538c-.11.367-.1.658.03.875.14.218.45.355.94.411.46.053.86.063 1.22.033l-.47 1.495c-.38.064-.81.068-1.28.013-.98-.112-1.65-.421-2.01-.925-.36-.516-.4-1.215-.13-2.097l1.42-4.538-1.79-.206.48-1.546 1.79.205.69-2.234 1.7.195-.69 2.235 4.47.514-.49 1.547-4.47-.515Zm7.5-.74-2.68 8.594-1.7-.196 2.68-8.593 1.7.195Zm1.17-3.425-.58 1.89-1.9-.218.59-1.89 1.89.218Zm6.41 4.119c.91.105 1.65.386 2.22.843.57.457.93 1.057 1.08 1.798.16.73.09 1.559-.19 2.487-.08.241-.14.418-.19.531l-7.33-.843c-.09.678.06 1.265.45 1.761.41.486.96.769 1.66.85 1.16.133 2.11-.179 2.85-.937l1.75.202c-.53.769-1.27 1.367-2.2 1.793-.93.415-1.89.567-2.87.454-.87-.1-1.59-.379-2.18-.838a3.282 3.282 0 0 1-1.15-1.788c-.18-.733-.14-1.523.13-2.371.26-.848.7-1.587 1.3-2.218a5.517 5.517 0 0 1 2.12-1.411 5.432 5.432 0 0 1 2.55-.313Zm-.49 1.439a3.25 3.25 0 0 0-2.02.427c-.63.366-1.11.874-1.44 1.525l5.49.632c.14-.696.02-1.28-.36-1.751-.37-.47-.93-.748-1.67-.833Zm8.43 8.732c-1.12-.129-1.99-.49-2.6-1.083-.61-.604-.83-1.365-.66-2.284l1.69.196c.01.51.18.91.52 1.199.36.278.88.457 1.57.537.65.074 1.2.036 1.65-.114.46-.161.74-.402.84-.722.1-.321.04-.589-.18-.804-.2-.225-.65-.436-1.34-.635l-.96-.289c-2.04-.613-2.85-1.567-2.45-2.862.24-.756.77-1.324 1.61-1.703.83-.39 1.81-.521 2.93-.392 1.02.117 1.81.445 2.38.986.58.529.84 1.206.78 2.03l-1.81-.208c-.03-.36-.23-.655-.57-.885a2.722 2.722 0 0 0-1.25-.447c-.62-.071-1.15-.036-1.57.105-.41.13-.67.35-.76.66-.09.275-.02.52.19.734.22.204.62.386 1.2.548l.99.291c1.15.335 1.91.754 2.27 1.259.37.493.44 1.095.22 1.805-.24.756-.78 1.329-1.63 1.718-.83.378-1.85.499-3.06.36Z"/></svg>
