<svg xmlns="http://www.w3.org/2000/svg" width="100" height="91" fill="none" viewBox="0 0 100 91"><path fill="#000" fill-rule="evenodd" d="M14 66.257c0 5.434.937 10.653 2.662 15.512 2.017 5.682 8.57 7.95 14.307 5.909 12.554-4.467 22.63-9.03 31.325-14.47L14 66.258Z" clip-rule="evenodd"/><path fill="#000" d="M85.118 24.6C78.32 21.027 70.55 19 62.294 19c-19.292 0-35.942 11.07-43.68 27.072l47.123 24.886c8.465-5.774 15.659-12.56 22.724-21.174 6.638-8.094 5.97-20.283-3.337-25.181l-.006-.003Z"/><path fill="#5869DD" d="m14 66.257 48.294 6.95a103.774 103.774 0 0 0 3.443-2.249L18.615 46.072A46.235 46.235 0 0 0 14 66.257Z"/><path fill="#000" d="m30.97 87.678-.252-.707.251.707Zm-14.308-5.909-.707.251.707-.25Zm.06.17-.706.253.706-.254Zm-2.829-14.94 48.295 6.951.213-1.485-48.294-6.95L13.893 67ZM62.294 19.75c8.132 0 15.784 1.996 22.475 5.514l.697-1.328c-6.901-3.628-14.792-5.686-23.172-5.686v1.5Zm-.397 52.822c-8.634 5.402-18.657 9.943-31.18 14.399l.504 1.413c12.584-4.478 22.715-9.062 31.471-14.54l-.795-1.272ZM30.717 86.97c-5.443 1.937-11.502-.252-13.348-5.453l-1.414.502c2.188 6.163 9.235 8.51 15.266 6.364l-.503-1.413ZM17.37 81.518a45.525 45.525 0 0 1-2.619-15.26h-1.5c0 5.52.952 10.824 2.705 15.762l1.414-.502Zm67.4-56.255c.014.008-.007-.003.005.003l.7-1.327c-.003 0-.004-.002-.005-.002l-.002-.001-.699 1.327ZM17.427 81.685l-.06-.167-1.413.502.061.172 1.412-.507Zm67.346-56.419c8.762 4.612 9.541 16.197 3.107 24.042l1.16.951c6.843-8.343 6.284-21.135-3.568-26.32l-.699 1.328Zm-53.812 63.21.259-.092-.503-1.413-.258.091.502 1.414Zm54.51-64.537-.006-.003-.697 1.328.006.003.697-1.328ZM14.75 66.257a45.483 45.483 0 0 1 4.54-19.859l-1.35-.653a46.985 46.985 0 0 0-4.69 20.512h1.5Zm4.54-19.859C26.903 30.651 43.294 19.75 62.294 19.75v-1.5C42.71 18.25 25.8 29.488 17.94 45.745l1.35.653Zm68.59 2.91c-7.026 8.567-14.168 15.302-22.565 21.03l.845 1.24c8.532-5.82 15.777-12.658 22.88-21.319l-1.16-.951Zm-22.565 21.03a102.97 102.97 0 0 1-3.418 2.234l.795 1.272c1.18-.739 2.335-1.493 3.468-2.266l-.845-1.24Zm-47.05-23.603 47.122 24.887.7-1.327L18.966 45.41l-.7 1.326ZM89.04 50.26c6.825-8.321 6.215-21.175-3.568-26.32l-.698 1.328c8.694 4.572 9.52 16.22 3.106 24.041l1.16.951ZM16.016 82.192c2.18 6.065 9.046 8.377 14.946 6.284l-.502-1.413c-5.302 1.88-11.192-.259-13.032-5.378l-1.412.507Z"/><path fill="#000" fill-rule="evenodd" d="m57.827 24.427-.022-8.08-2.778-7.33L52.855 23.9l4.972.527Z" clip-rule="evenodd"/><path fill="#000" d="M57.767 2.604a.911.911 0 0 0-.436-.774.887.887 0 0 0-1.347.625l-.957 6.561 2.778 7.332-.038-13.744Z"/><path stroke="#000" stroke-width="1.5" d="M55.027 9.016 52.855 23.9l4.972.527-.022-8.08m-2.778-7.33.957-6.562a.887.887 0 0 1 1.347-.625c.27.165.435.459.436.774l.038 13.744m-2.778-7.332 2.778 7.332"/><path fill="url(#a)" d="M55.951 3.028a1.077 1.077 0 0 1 2.148-.048L60.002 24h-5l.949-20.972Z"/><path fill="#000" d="M60.002 24v.75h.82l-.073-.818-.747.068Zm-5 0-.75-.034-.035.784h.785V24Zm2.35-20.953 1.903 21.02 1.494-.135-1.903-21.02-1.494.135Zm2.65 20.203h-5v1.5h5v-1.5Zm-4.25.784L56.7 3.062l-1.498-.068-.95 20.972 1.5.068ZM57.026 2.75c.169 0 .31.129.325.297l1.494-.135a1.827 1.827 0 0 0-1.82-1.662v1.5Zm0-1.5c-.977 0-1.781.768-1.825 1.744l1.498.068a.327.327 0 0 1 .327-.312v-1.5Z"/><path fill="#000" fill-rule="evenodd" d="m23.726 42.244-4.453-2.546-10.732-3.052 12.236 9.636 2.95-4.038Z" clip-rule="evenodd"/><path stroke="#000" stroke-width="1.5" d="m8.54 36.646 12.237 9.636 2.95-4.038-4.454-2.546M8.541 36.646l-4.787-3.77a.885.885 0 0 1 .133-1.476.915.915 0 0 1 .89.008l14.496 8.29M8.541 36.646l10.732 3.052"/><path fill="url(#b)" stroke="#000" stroke-width="1.5" d="M4.367 32.692a1.073 1.073 0 0 1-.352-1.444 1.08 1.08 0 0 1 1.387-.44l19.173 8.838-2.506 4.326-17.702-11.28Z"/><path fill="url(#c)" stroke="#000" stroke-width="1.5" d="M63.156 18.357C37.665 18.16 16.84 38.502 16.643 63.794c-.048 6.145 1.982 12.623 4.669 18.36 1.954 4.174 6.824 5.943 11.183 4.444 28.29-9.728 43.74-19.835 59.183-39.457 5.211-6.621 5.533-16.383-1.388-21.187-7.856-5.452-17.553-7.522-27.134-7.597Z"/><path fill="#000" fill-rule="evenodd" d="M71.576 38.93a4.51 4.51 0 0 0 5.652-2.94 4.486 4.486 0 0 0-.808-4.204c-1.447.207-2.872 1.166-3.776 3.773-1.6-.314-.356-3.74.465-5.414a4.513 4.513 0 0 0-4.467 3.145 4.49 4.49 0 0 0 2.934 5.64Z" clip-rule="evenodd"/><path fill="#F1EFED" d="M76.42 31.786a4.509 4.509 0 0 0-3.31-1.641c-.822 1.673-2.066 5.1-.466 5.414.904-2.607 2.33-3.566 3.776-3.773Z"/><path fill="#000" d="m72.644 35.559-.097.49.427.084.143-.411-.473-.163Zm3.776-3.773.387-.317-.387.317Zm.33 4.054a4.01 4.01 0 0 1-5.022 2.614l-.302.953a5.012 5.012 0 0 0 6.279-3.266l-.954-.3Zm-5.022 2.614a3.99 3.99 0 0 1-2.609-5.014l-.954-.3a4.988 4.988 0 0 0 3.26 6.267l.303-.953Zm2.415-7.627a3.99 3.99 0 0 1 2.608 5.013l.954.3a4.988 4.988 0 0 0-3.26-6.267l-.302.954Zm-5.024 2.613a4.011 4.011 0 0 1 3.97-2.796l.04-.999a5.014 5.014 0 0 0-4.964 3.495l.954.3Zm3.97-2.796c.35.013.703.073 1.054.183l.302-.954a5.012 5.012 0 0 0-1.316-.228l-.04 1Zm-.429-.719c-.42.857-.957 2.177-1.182 3.343-.112.576-.159 1.17-.038 1.667.062.254.174.504.363.71.195.21.447.346.744.404l.195-.98a.35.35 0 0 1-.203-.104.595.595 0 0 1-.127-.268c-.07-.287-.054-.713.048-1.242.202-1.044.697-2.274 1.098-3.09l-.898-.44Zm3.69 1.366a4.354 4.354 0 0 0-2.358 1.112c-.727.662-1.349 1.632-1.82 2.993l.945.326c.432-1.246.974-2.059 1.548-2.58a3.35 3.35 0 0 1 1.825-.862l-.14-.989Zm1.355 4.85a4.985 4.985 0 0 0-.898-4.672l-.775.633a3.987 3.987 0 0 1 .719 3.738l.954.3Zm-.898-4.672a4.972 4.972 0 0 0-2.362-1.596l-.302.954c.77.242 1.414.695 1.89 1.275l.774-.633Z"/><path fill="#000" fill-rule="evenodd" d="M34.941 62.009a4.512 4.512 0 0 0 5.828-2.576 4.484 4.484 0 0 0-.54-4.247c-1.456.115-2.94.982-4.008 3.526-1.576-.415-.118-3.755.809-5.373a4.515 4.515 0 0 0-4.659 2.856 4.488 4.488 0 0 0 2.57 5.814Z" clip-rule="evenodd"/><path fill="#F1EFED" d="M40.23 55.186a4.509 4.509 0 0 0-3.2-1.847c-.927 1.618-2.386 4.958-.809 5.373 1.068-2.544 2.552-3.41 4.008-3.526Z"/><path fill="#000" d="m36.221 58.712-.128.483.421.111.169-.401-.462-.193Zm4.008-3.526.407-.291-.407.291Zm.073 4.067a4.011 4.011 0 0 1-5.18 2.29l-.362.932a5.014 5.014 0 0 0 6.475-2.862l-.933-.36Zm-5.18 2.29a3.989 3.989 0 0 1-2.284-5.168l-.933-.36c-1 2.574.279 5.466 2.855 6.46l.362-.932Zm2.896-7.458a3.989 3.989 0 0 1 2.284 5.168l.933.36a4.986 4.986 0 0 0-2.855-6.46l-.362.932Zm-5.18 2.29a4.013 4.013 0 0 1 4.14-2.539l.103-.994a5.016 5.016 0 0 0-5.176 3.173l.933.36Zm4.14-2.539c.348.035.697.117 1.04.25l.362-.933a5.007 5.007 0 0 0-1.3-.311l-.102.994Zm-.383-.744c-.474.828-1.094 2.11-1.393 3.26-.147.568-.232 1.158-.143 1.661.046.258.142.515.318.731.18.222.424.375.716.452l.256-.967a.35.35 0 0 1-.195-.116.597.597 0 0 1-.11-.276c-.05-.29-.009-.714.127-1.235.268-1.03.84-2.226 1.293-3.016l-.869-.494Zm3.596 1.596a4.356 4.356 0 0 0-2.424.96c-.768.615-1.45 1.544-2.007 2.872l.923.385c.51-1.216 1.103-1.993 1.709-2.477a3.352 3.352 0 0 1 1.876-.744l-.077-.996Zm1.044 4.925a4.983 4.983 0 0 0-.599-4.718l-.813.583a3.986 3.986 0 0 1 .48 3.775l.932.36Zm-.599-4.718a4.97 4.97 0 0 0-2.256-1.742l-.362.932c.753.29 1.367.784 1.805 1.393l.813-.583Z"/><defs><linearGradient id="a" x1="55.85" x2="64.718" y1="42.051" y2="41.229" gradientUnits="userSpaceOnUse"><stop stop-color="#5869DD"/><stop offset="1" stop-color="#D6FFBB"/></linearGradient><linearGradient id="b" x1="38.14" x2="41.849" y1="52.241" y2="44.147" gradientUnits="userSpaceOnUse"><stop stop-color="#5869DD"/><stop offset="1" stop-color="#D6FFBB"/></linearGradient><linearGradient id="c" x1="2.389" x2="71.235" y1="64.575" y2="94.223" gradientUnits="userSpaceOnUse"><stop stop-color="#5869DD"/><stop offset="1" stop-color="#D6FFBB"/></linearGradient></defs></svg>
