<svg xmlns="http://www.w3.org/2000/svg" width="64" height="84" fill="none" viewBox="0 0 64 84"><path fill="#000" d="M12.76 25.126s18.958 3.404 32.522 4.647L39.69 22.72c-2.094-.164-3.587-.178-4.877-.362-3.347-.478-5.796-1.95-8.043-3.301-3.783-2.275-6.993-4.205-12.958-.466-7.422 4.652-3.916 5.607-2.006 6.127.537.146.948.258.955.407Z"/><path fill="#5869DD" d="M45.282 29.773c2.13.195 4.205.573 6.106.98 1.082.233 2.109.475 3.057.699 2.812.663 4.163 1.37 4.333 1.156.138-.172-.5-.95-1.763-2.843 0 0-.832-4.046-8.476-5.704-3.883-.842-6.687-1.171-8.85-1.34l5.593 7.052Z"/><path fill="#000" d="m12.76 25.126-.75.036.03.597.587.106.133-.739Zm1.051-6.534.399.636-.399-.636Zm21.001 3.767.107-.742-.107.742Zm22.203 7.406-.734.151.03.143.08.122.624-.416ZM48.54 24.06l.16-.733-.16.733Zm-36.734.658-.197.723.197-.723Zm14.964-5.661-.386.643.386-.643Zm24.619 11.696.157-.733-.157.733Zm3.057.698-.173.73.173-.73Zm4.333 1.156.586.469-.586-.468Zm-13.427-3.582c-6.758-.62-14.87-1.778-21.3-2.783a611.105 611.105 0 0 1-10.944-1.816l-.16-.03-.041-.006-.01-.002h-.003l-.133.737-.132.739h.003a1.638 1.638 0 0 1 .052.01l.162.028.627.11a611.115 611.115 0 0 0 10.347 1.71c6.44 1.008 14.589 2.173 21.395 2.797l.137-1.494Zm-33.743-3.584c.283.077.478.131.606.18.067.026.066.032.037.01a.515.515 0 0 1-.117-.117.65.65 0 0 1-.123-.353l1.498-.071c-.019-.394-.29-.611-.393-.684a1.668 1.668 0 0 0-.368-.187c-.213-.081-.492-.156-.745-.225l-.395 1.447Zm23.31-3.825c-3.18-.455-5.511-1.849-7.762-3.202l-.773 1.286c2.242 1.348 4.808 2.898 8.323 3.4l.213-1.484Zm-7.762-3.202c-1.865-1.121-3.743-2.262-5.938-2.587-2.243-.332-4.715.192-7.805 2.129l.796 1.27c2.876-1.802 4.99-2.182 6.79-1.915 1.847.274 3.466 1.236 5.384 2.389l.773-1.286Zm-13.743-.458c-1.877 1.176-3.116 2.15-3.87 2.977-.732.804-1.139 1.62-.968 2.426.169.798.834 1.25 1.365 1.51.556.272 1.205.446 1.668.572l.394-1.447c-.491-.134-.997-.274-1.403-.473-.432-.21-.538-.385-.556-.473-.017-.078-.028-.406.61-1.105.617-.677 1.722-1.567 3.556-2.716l-.796-1.271ZM51.545 30.02c-1.916-.412-4.023-.796-6.194-.995l-.137 1.494c2.087.19 4.13.562 6.016.967l.315-1.466Zm-.315 1.466c1.074.23 2.094.471 3.042.695l.345-1.46c-.947-.224-1.98-.467-3.072-.701l-.315 1.466Zm-2.85-6.693c3.7.802 5.677 2.165 6.721 3.259.525.55.825 1.042.99 1.382a3.18 3.18 0 0 1 .191.49v-.007h-.001c0-.001 0-.002.734-.153l.735-.152v-.002l-.001-.003-.002-.007-.004-.02a2.984 2.984 0 0 0-.066-.23 4.667 4.667 0 0 0-.237-.573 7.041 7.041 0 0 0-1.254-1.761c-1.283-1.344-3.543-2.833-7.488-3.689l-.318 1.466Zm-13.674-1.692c1.316.188 2.906.209 4.925.367l.117-1.496c-2.17-.17-3.566-.176-4.83-.356l-.212 1.485Zm4.925.367c2.132.166 4.902.491 8.75 1.325l.317-1.466c-3.92-.85-6.757-1.183-8.95-1.355l-.117 1.496Zm-.53-.282 5.594 7.052 1.175-.932-5.593-7.052-1.175.932Zm15.171 8.995c1.374.324 2.39.658 3.096.89.342.112.65.213.882.268.112.027.258.057.405.057.115 0 .463-.013.709-.32l-1.171-.937a.658.658 0 0 1 .311-.217.513.513 0 0 1 .157-.026c.03 0 .02.004-.062-.015a11.864 11.864 0 0 1-.763-.236c-.714-.234-1.78-.585-3.22-.924l-.344 1.46Zm5.092.895a.862.862 0 0 0 .17-.682 1.345 1.345 0 0 0-.118-.359 5.405 5.405 0 0 0-.368-.618c-.155-.234-.354-.521-.587-.86a98.21 98.21 0 0 1-.822-1.21l-1.248.833c.32.478.599.885.834 1.228.238.346.427.618.572.838.15.227.23.36.264.432.019.04.002.016-.008-.045a.64.64 0 0 1 .14-.494l1.17.937Z"/><path fill="#000" fill-rule="evenodd" d="m39.59 44.744-1.925 8.668 4.983 17.424 7.628-1.23c.607-.099.982-.717.8-1.305-1.765-5.657-2.487-10.625-2.029-15.26l-3.852-13.964-5.605 5.667Z" clip-rule="evenodd"/><path fill="url(#a)" d="m41.516 36.076-1.925 8.668 5.604-5.667 3.852 13.963c.657-6.641 4.482-11.952 10.389-18.271.69-.738.023-2.003-.951-1.779l-16.969 3.086Z"/><path fill="#000" d="m42.648 70.836-.72.206.182.64.658-.106-.12-.74Zm-1.132-34.76-.134-.738-.49.09-.108.485.732.163Zm-3.851 17.336-.732-.163-.042.186.053.183.72-.206Zm1.925-8.668-.732-.163.733.163Zm9.457 8.296.747.074-.747-.074ZM59.436 34.77l.547.512-.547-.512Zm-14.241 4.308.723-.2-.345-1.249-.911.922.533.527Zm5.08 30.528-.119-.74.12.74Zm.8-1.304-.716.224.716-.224Zm-8.307 3.275 7.627-1.23-.239-1.481-7.627 1.23.239 1.481Zm-5.824-17.958 4.983 17.424 1.442-.412-4.983-17.425-1.442.413Zm3.84-17.705-1.926 8.668 1.465.325 1.925-8.667-1.464-.326Zm-1.926 8.668-1.925 8.668 1.464.325 1.926-8.668-1.465-.325Zm12.933 23.497c-1.745-5.596-2.443-10.46-1.997-14.964l-1.493-.148c-.471 4.767.275 9.84 2.058 15.559l1.432-.447Zm-10.14-31.264 16.968-3.086-.268-1.476-16.969 3.086.268 1.476Zm17.002-3.093a.19.19 0 0 1 .14.013c.042.022.092.066.129.137.078.146.056.289-.034.386l1.095 1.024c.6-.641.59-1.5.263-2.114-.328-.619-1.048-1.11-1.93-.908l.337 1.462Zm.235.536c-5.92 6.333-9.904 11.802-10.587 18.71l1.493.147c.63-6.376 4.296-11.529 10.19-17.833l-1.096-1.024Zm1.095 1.024.026-.028-1.095-1.025-.026.029 1.095 1.024Zm-19.86 9.99 5.605-5.666-1.066-1.055-5.605 5.666 1.067 1.055Zm4.349-5.994 3.852 13.963 1.446-.4-3.852-13.962-1.446.399Zm15.537-4.024c.602-.642.588-1.5.248-2.113-.342-.615-1.07-1.081-1.94-.88l.336 1.461a.226.226 0 0 1 .161.014.321.321 0 0 1 .131.133c.075.135.058.266-.03.36l1.094 1.025Zm-9.614 35.093a1.763 1.763 0 0 0 1.396-2.268l-1.432.447a.263.263 0 0 1-.203.34l.239 1.48ZM48.078 10.32 36.516 20.937l5.494-1.668 6.068-8.947Z"/><path fill="url(#b)" d="M50.438 14.54c4.513-4.202 4.49-13.228 4.49-13.228S48.165 4.3 43.372 8.214c-4.793 3.914-6.855 12.722-6.855 12.722l11.562-10.615-6.068 8.947s3.915-.525 8.428-4.727Z"/><path fill="#000" d="m36.516 20.936-.73-.17a.75.75 0 0 0 .948.888l-.218-.718ZM54.93 1.312l.75-.002a.75.75 0 0 0-1.053-.684l.303.686Zm-6.852 9.009.621.42a.75.75 0 0 0-1.128-.973l.508.553Zm2.872 4.769c2.434-2.266 3.595-5.768 4.162-8.592a30.351 30.351 0 0 0 .56-4.766 17.559 17.559 0 0 0 .008-.39V1.31l-.75.002-.75.001v.021l-.001.07-.007.28a28.823 28.823 0 0 1-.53 4.52c-.55 2.739-1.634 5.852-3.714 7.788l1.022 1.098Zm3.98-13.778a243.32 243.32 0 0 0-.304-.686h-.001a70.535 70.535 0 0 0-4.033 2.009c-2.308 1.246-5.244 2.998-7.694 4.998l.948 1.162c2.344-1.913 5.186-3.613 7.459-4.84a69.064 69.064 0 0 1 3.638-1.826l.217-.1.056-.024.013-.006.003-.001-.302-.686ZM42.897 7.633c-2.545 2.078-4.317 5.401-5.444 8.123a38.327 38.327 0 0 0-1.564 4.602 21.302 21.302 0 0 0-.096.377l-.005.021-.001.006v.002h-.001l.73.172.73.171.001-.004.004-.017.017-.07.071-.274a36.798 36.798 0 0 1 1.5-4.412c1.102-2.662 2.758-5.7 5.006-7.535l-.948-1.162Zm-5.874 13.855 11.562-10.615-1.015-1.105L36.01 20.384l1.014 1.104Zm-.29.166 5.495-1.668-.435-1.436-5.495 1.668.436 1.436Zm5.277-2.386.1.743h.008l.014-.003a4.906 4.906 0 0 0 .199-.035c.13-.025.317-.065.552-.127.47-.123 1.135-.332 1.942-.675 1.616-.688 3.798-1.916 6.124-4.081l-1.022-1.098c-2.187 2.037-4.219 3.173-5.689 3.798-.735.313-1.33.499-1.736.605a7.333 7.333 0 0 1-.59.13h-.004.002l.1.743ZM47.457 9.9l-6.067 8.947 1.241.842 6.067-8.947-1.241-.842Z"/><path fill="url(#c)" stroke="#000" stroke-width="1.5" d="M27.914 80.917c-4.664-5.676-9.369-7.291-17.786-6.725-2.399.16-4.671-1.261-5.329-3.574C-3.68 40.797 2.751 21.281 17 17.255c0 0 4.503-1.235 8.502 1.73 3.998 2.966 4.811 5.747 7.562 6.736 2.752.988 7.688-.433 17.187.68 7.15.836 9.626 5.173 10.414 7.268.219.58-.234 1.133-.854 1.16-8.74.375-12.165 4.932-14.56 10.85-2.444 6.041-2.236 13.465 6.63 22.838.348.367.38.94.063 1.336-6.11 7.636-9.65 12.274-19.824 13.038-1.635.123-3.165-.708-4.205-1.974Z"/><path fill="url(#d)" d="M49.18 12.93C53.352 9.674 54.93 1.313 54.93 1.313s-8.273 1.668-13.12 5.467c-4.846 3.799-5.377 13.16-5.377 13.16L46.547 8.799l-6.004 9.208c2.788-1.381 6.366-3.302 8.637-5.075Z"/><path fill="#5869DD" d="M46.547 8.798 36.432 19.94s1.78-.779 4.111-1.934l6.004-9.208Z"/><path fill="#000" d="m36.432 19.94-.749-.043a.75.75 0 0 0 1.05.73l-.301-.687Zm12.748-7.01-.461-.59.461.59ZM54.93 1.313l.737.138a.75.75 0 0 0-.886-.874l.149.736Zm-8.382 7.486.629.41a.75.75 0 0 0-1.184-.914l.555.504Zm-6.004 9.208.333.672-.333-.672Zm9.099-4.484c2.261-1.766 3.757-4.844 4.68-7.364a34.536 34.536 0 0 0 1.264-4.321 19.256 19.256 0 0 0 .074-.358l.004-.02.001-.006v-.002l-.736-.14-.737-.138a.178.178 0 0 1-.004.019l-.013.066-.055.26a33.038 33.038 0 0 1-1.205 4.124c-.908 2.474-2.286 5.206-4.196 6.697l.923 1.183Zm5.287-12.21L54.78.576h-.002l-.005.002-.02.004a13.217 13.217 0 0 0-.354.077 49.02 49.02 0 0 0-4.45 1.25c-2.699.9-6.076 2.3-8.602 4.28l.925 1.18c2.321-1.819 5.504-3.153 8.152-4.037a47.542 47.542 0 0 1 4.304-1.21 22.612 22.612 0 0 1 .329-.071l.016-.003.003-.001-.147-.735ZM41.347 6.189c-2.625 2.057-4.021 5.552-4.77 8.405a31.21 31.21 0 0 0-.86 4.868 18.118 18.118 0 0 0-.032.402l-.001.024v.008l.748.044.749.042v-.004l.001-.017.005-.073.024-.29a29.714 29.714 0 0 1 .817-4.624c.73-2.778 2.022-5.863 4.244-7.605l-.925-1.18Zm-4.36 14.255L47.103 9.302l-1.11-1.008-10.116 11.142 1.11 1.008Zm-.555-.504.3.687.002-.001a.13.13 0 0 0 .004-.002l.016-.007.062-.027.237-.106a116.28 116.28 0 0 0 3.823-1.807l-.666-1.343a114.294 114.294 0 0 1-4.06 1.91l-.014.006a.08.08 0 0 1-.004.002l.3.688Zm4.444-1.262c2.789-1.382 6.428-3.331 8.766-5.156l-.923-1.183c-2.206 1.723-5.721 3.614-8.509 4.995l.666 1.344Zm5.043-10.29-6.004 9.208 1.257.82 6.004-9.209-1.257-.819Z"/><defs><linearGradient id="a" x1="92.519" x2="72.19" y1="36.727" y2="17.469" gradientUnits="userSpaceOnUse"><stop stop-color="#D6FFBB"/><stop offset="1" stop-color="#5869DD"/></linearGradient><linearGradient id="b" x1="29.358" x2="53.456" y1="4.473" y2="10.703" gradientUnits="userSpaceOnUse"><stop stop-color="#D6FFBB"/><stop offset=".864" stop-color="#5869DD"/></linearGradient><linearGradient id="c" x1="1" x2="61" y1="50" y2="50" gradientUnits="userSpaceOnUse"><stop stop-color="#D6FFBB"/><stop offset="1" stop-color="#5869DD"/></linearGradient><linearGradient id="d" x1="29.354" x2="53.177" y1="4.418" y2="11.043" gradientUnits="userSpaceOnUse"><stop stop-color="#D6FFBB"/><stop offset=".864" stop-color="#5869DD"/></linearGradient></defs></svg>
