<svg xmlns="http://www.w3.org/2000/svg" width="26" height="25" fill="none" viewBox="0 0 26 25"><mask id="a" fill="#fff"><path d="M24.936 9.564a.431.431 0 0 0-.254-.779h-7.85l-7.416 5.43-2.424 7.52a.431.431 0 0 0 .665.48l6.088-4.458a.431.431 0 0 1 .51 0l6.088 4.457a.431.431 0 0 0 .665-.48l-2.329-7.223a.431.431 0 0 1 .156-.48l6.101-4.467Z"/><path d="M16.833 8.785 14.41 1.272a.431.431 0 0 0-.82 0l-2.326 7.214a.431.431 0 0 1-.41.3H3.317a.431.431 0 0 0-.254.778l6.352 4.65 7.417-5.429Z"/></mask><path fill="#000" d="M24.936 9.564a.431.431 0 0 0-.254-.779h-7.85l-7.416 5.43-2.424 7.52a.431.431 0 0 0 .665.48l6.088-4.458a.431.431 0 0 1 .51 0l6.088 4.457a.431.431 0 0 0 .665-.48l-2.329-7.223a.431.431 0 0 1 .156-.48l6.101-4.467Z"/><path fill="#000" d="m9.671 14.563 7.416-5.43-.509-.696-7.416 5.43.509.696Zm7.162-5.778-.82.265.192.597h.628v-.862Zm-7.417 5.43.82.264.192-.592-.502-.368-.51.696Zm1.437-5.43v.862-.862Zm.41-.299-.82-.264.82.264ZM7.658 22.215l.509.695-.51-.695Zm-.665-.48-.82-.265.82.264Zm14.016 0-.82.264.82-.265Zm-.665.48-.509.695.51-.695Zm-1.508-8.184-.51-.696.51.696Zm-.156.48-.82.265.82-.265Zm6.003-5.726v.862-.862Zm.254.779-.51-.696.51.696Zm-10.681 8.193.509-.696-.51.696Zm-.51 0-.509-.696.51.696Zm.665-16.485-.82.265.82-.265Zm-.82.265 2.422 7.513 1.641-.53-2.422-7.512-1.641.529Zm3.243 8.11h7.849V7.923h-7.85v1.724Zm7.594-.779-6.101 4.467 1.018 1.391 6.101-4.466-1.018-1.392Zm-6.568 5.908 2.329 7.223 1.64-.53-2.328-7.223-1.641.53Zm2.994 6.743-6.09-4.458-1.018 1.391 6.09 4.458 1.018-1.391Zm-7.617-4.458L7.147 21.52l1.019 1.391 6.089-4.458-1.019-1.39ZM7.812 22l2.425-7.52-1.641-.529-2.425 7.52 1.641.529Zm2.114-8.48L3.573 8.87l-1.018 1.39 6.352 4.651 1.019-1.39ZM3.318 9.647h7.535V7.923H3.318v1.724Zm8.766-.896 2.326-7.214-1.64-.53-2.327 7.215 1.641.529Zm-1.23.896c.56 0 1.058-.362 1.23-.896l-1.641-.53a.431.431 0 0 1 .41-.298v1.724Zm-7.28-.779a.431.431 0 0 1-.256.78V7.922c-1.25 0-1.772 1.598-.763 2.337l1.018-1.392Zm3.573 12.65a.431.431 0 0 1 .665.481l-1.64-.53c-.386 1.194.982 2.182 1.994 1.441L7.147 21.52Zm13.04.481a.431.431 0 0 1 .666-.48l-1.019 1.391c1.012.74 2.38-.247 1.995-1.44l-1.641.529Zm-1.861-8.664c-.45.33-.638.91-.467 1.44l1.64-.529a.431.431 0 0 1-.155.48l-1.018-1.39Zm6.356-3.688a.431.431 0 0 1-.255-.779l1.018 1.392c1.01-.739.487-2.337-.763-2.337v1.724Zm-9.918 7.414a1.293 1.293 0 0 0-1.528 0l1.019 1.391a.43.43 0 0 1-.51 0l1.019-1.39Zm.467-16.053c-.386-1.195-2.076-1.195-2.462 0l1.641.529a.431.431 0 0 1-.82 0l1.64-.53Z" mask="url(#a)"/><path fill="#000" d="m7.235 21.652-1.745-.121 1.706-2.575.039 2.696ZM18.765 21.652l1.745-.121-1.706-2.575-.039 2.696ZM11.915 1.056l2.241.265-1.027 3.024-1.214-3.288Z"/><path fill="#F2EA86" stroke="#000" stroke-width=".862" d="m12.5 1.395 2.3 7.078a.862.862 0 0 0 .82.595h7.442l-6.021 4.375a.862.862 0 0 0-.313.963l2.3 7.078-6.021-4.374a.862.862 0 0 0-1.014 0l-6.02 4.374 2.3-7.078a.862.862 0 0 0-.314-.963L1.94 9.068H9.38c.374 0 .705-.24.82-.595l2.3-7.078Z"/></svg>
