<svg xmlns="http://www.w3.org/2000/svg" width="479" height="450" fill="none" viewBox="0 0 479 450"><path fill="#8F8E93" d="m46.396 194.39 7.055-2.94.392.262-7.042 2.839-.405-.161ZM67.43 185.147l16.261-5.433.602.436-16.26 5.433-.603-.436ZM101.449 175.013c5.903-1.482 12.005-2.815 18.089-4.028l.56.688c-6.084 1.213-12.169 2.427-18.073 3.909l-.576-.569ZM136.512 168.567c6.503-.967 13.203-1.772 19.866-2.313l.496 1.148c-6.662.54-13.344 1.213-19.847 2.18l-.515-1.015ZM177.521 166.501c6.839.068 13.863.386 20.857.924l.061 1.131c-6.993-.538-13.786-.936-20.625-1.004l-.293-1.051ZM218.661 169.511c6.86.968 13.901 2.199 20.695 3.634l-.395 1.251a306.545 306.545 0 0 0-20.481-3.604l.181-1.281ZM258.59 178.622a301.843 301.843 0 0 1 19.757 5.585l-1.038 1.097a589.432 589.432 0 0 0-19.541-5.555l.822-1.127ZM297.436 189.711l9.093 4.013c1.439.699 3.109 1.307 4.547 2.006l4.315 2.097-1.713 1.246-4.314-2.097c-1.439-.699-2.894-1.276-4.332-1.976l-8.879-3.981 1.283-1.308ZM331.386 206.836c5.153 2.889 10.29 5.89 14.992 8.943l-2.27.932a265.454 265.454 0 0 0-14.782-8.914l2.06-.961ZM360.962 225.907c4.299 3.126 8.568 6.466 12.414 9.746l-2.687.716a200.816 200.816 0 0 0-12.217-9.609l2.49-.853ZM384.509 245.974l9.873 10.494-3.289.535-9.468-10.326 2.884-.703ZM402.991 267.032l7.387 11.325-3.392.348-7.199-11.179 3.204-.494ZM418.462 291.099l6.931 11.152-3.465.446-7.123-11.295 3.657-.303Z"/><path fill="#000" d="m284.494 220.174 10.243 3.861 1.747 10.765-10.244-3.861-1.746-10.765ZM309.995 199.455l-8.501 6.904-10.248-3.861-1.747-10.767 20.496 7.724ZM280.986 198.637l-10.25-3.863-1.747-10.768 10.25 3.862 1.747 10.769Z"/><path fill="#F1EFED" d="m289.501 191.726 8.497-6.902 30.749 11.587-34.007 27.622-10.247-3.862.001.003-.006-.002 17.006-13.813.002.001 8.502-6.906-20.498-7.724.001-.001v-.003Z"/><path fill="#F1EFED" d="m296.489 234.799-1.746-10.765-.003-.001 34.007-27.622 1.748 10.769-34.006 27.619ZM279.252 187.866l8.502-6.905 1.747 10.765-.006.004.004.001-8.5 6.904-1.747-10.769Z"/><path fill="#F1EFED" d="m287.754 180.961-8.502 6.905-10.25-3.862 8.502-6.906 10.25 3.863Z"/><path fill="#000" d="m284.488 220.172-.181.479a.51.51 0 0 1-.142-.876l.323.397Zm25.507-20.717.181-.48a.51.51 0 0 1 .142.877l-.323-.397Zm-20.5-7.725-.18.479a.51.51 0 0 1-.142-.877l.322.398Zm8.503-6.906-.323-.398a.513.513 0 0 1 .504-.081l-.181.479Zm30.749 11.587.181-.479a.511.511 0 0 1 .325.397l-.506.082Zm-34.004 27.623.181-.48a.513.513 0 0 1 .324.398l-.505.082Zm1.747 10.768.506-.082a.511.511 0 0 1-.686.561l.18-.479Zm-10.25-3.863-.18.48a.511.511 0 0 1-.325-.397l.505-.083Zm-1.747-10.768-.505.082a.51.51 0 0 1 .686-.561l-.181.479Zm11.991 14.632.323.398a.512.512 0 0 1-.828-.316l.505-.082Zm34.011-27.623.505-.082a.508.508 0 0 1-.183.479l-.322-.397Zm-40.997-15.451-.505.082a.513.513 0 0 1 .686-.561l-.181.479Zm1.748 10.769-.181.479a.511.511 0 0 1-.325-.397l.506-.082Zm10.25 3.862.322.398a.51.51 0 0 1-.503.081l.181-.479Zm8.502-6.906.181-.479a.515.515 0 0 1 .325.397.515.515 0 0 1-.183.48l-.323-.398Zm-22.244-18.493.18-.48a.512.512 0 0 1 .325.398l-.505.082Zm-6.755 17.674.323.397a.512.512 0 0 1-.829-.315l.506-.082Zm8.502-6.906.506-.082a.512.512 0 0 1-.162.462l-.344-.38Zm-11.997-14.631-.323-.397a.514.514 0 0 1 .504-.082l-.181.479Zm-8.502 6.906-.181.479a.513.513 0 0 1-.142-.877l.323.398Zm11.984 14.633.506-.082a.512.512 0 0 1-.686.561l.18-.479Zm-10.25-3.863-.18.48a.512.512 0 0 1-.325-.398l.505-.082Zm-1.747-10.768-.506.082a.511.511 0 0 1 .687-.561l-.181.479Zm10.25 3.862.181-.479a.515.515 0 0 1 .325.397l-.506.082Zm18.94-3.523 30.749 11.587-.361.959-30.75-11.588.362-.958Zm31.81 22.917-1.747-10.769 1.011-.164L331 207.098l-1.011.164Zm-28.816-1.3 8.502-6.905.646.795-8.503 6.906-.645-.796Zm-13.096-24.604-8.502 6.906-.646-.795 8.502-6.906.646.795Zm-8.32 6.426 1.747 10.769-1.011.164-1.747-10.769 1.011-.164Zm7.816-6.344-10.249-3.863.361-.958 10.249 3.862-.361.959Zm-9.746-3.944-8.502 6.906-.646-.796 8.502-6.905.646.795Zm-8.645 6.029 10.25 3.862-.361.959-10.25-3.863.361-.958Zm11.624 15.591-10.25-3.862.361-.959 10.25 3.862-.361.959Zm-10.575-4.26-1.748-10.768 1.012-.164 1.747 10.768-1.011.164Zm-1.061-11.329 10.25 3.862-.362.959-10.25-3.863.362-.958Zm10.575 4.259 1.747 10.769-1.011.164-1.748-10.768 1.012-.165Zm4.929 31.909 10.244 3.86-.362.959-10.243-3.86.361-.959Zm10.569 4.258 1.746 10.765-1.011.164-1.746-10.765 1.011-.164Zm1.06 11.326-10.243-3.86.361-.959 10.243 3.86-.361.959Zm-10.568-4.257-1.747-10.765 1.011-.165 1.747 10.765-1.011.165Zm10.575 4.259-.007-.002.361-.959.006.003-.36.958Zm.679-.563.001.003-1.011.164-.001-.003 1.011-.164Zm-13.001-14.461v-.004l1.011-.164v.003l-1.011.165Zm.325.397-.006-.003.361-.958.007.002-.362.959Zm26.005-20.802-8.501 6.905-.646-.795 8.501-6.905.646.795Zm-9.005 6.987-10.248-3.862.361-.959 10.249 3.862-.362.959Zm-10.573-4.259-1.747-10.767 1.011-.164 1.747 10.767-1.011.164Zm-1.061-11.328 20.497 7.723-.361.959-20.497-7.724.361-.958Zm.325.395v.002l-1.011.164v-.002l1.011-.164Zm-.686.563-.003-.001.361-.959.003.002-.361.958Zm-8.642 6.027 8.5-6.904.646.796-8.5 6.903-.646-.795Zm20.998 7.643.002.001-.361.958h-.001l.36-.959Zm-17.509 13.895 17.006-13.813.646.795-17.006 13.813-.646-.795Zm5.013-28.447 8.497-6.902.646.796-8.498 6.901-.645-.795Zm39.892 5.481-34.007 27.621-.646-.795 34.007-27.621.646.795Zm-34.511 27.703-10.246-3.861.361-.959 10.246 3.861-.361.959Zm15.259-24.578-20.499-7.725.362-.958 20.498 7.724-.361.959Zm-20.662-8.584.001-.001.688.76-.001.001-.688-.76Zm-.161.461v-.003l1.011-.164.001.003-1.012.164Zm.16-.46.001-.001.688.76-.001.001-.688-.76Zm.164.858h-.001l.361-.959.002.001-.362.958Zm5.602 31.344.003.001-.362.959-.003-.001.362-.959Zm.142.877-.003.002-.646-.795.003-.002.646.795Zm-6.068-32.622-1.747-10.765 1.011-.164 1.747 10.765-1.011.164Zm.178-.476.005-.004.645.795-.005.004-.645-.795Zm6.811 43.549-1.747-10.765 1.011-.164 1.747 10.765-1.011.164Zm34.833-27.304-34.005 27.619-.645-.795 34.005-27.619.645.795Zm-34.655 26.828.005-.004.645.795-.005.005-.645-.796Zm.833.312.001.003-1.012.164v-.003l1.011-.164Z"/></svg>
