<svg xmlns="http://www.w3.org/2000/svg" width="340" height="280" fill="none" viewBox="0 0 340 280"><path fill="#000" d="m28.06 36.917 6.852.084.178.377-6.794-.167-.237-.294ZM49.176 37.753 64 40.063l.293.58-14.824-2.31-.293-.58ZM80.24 43.663c5.225 1.298 10.547 2.792 15.81 4.37l.172.757c-5.263-1.578-10.525-3.157-15.75-4.455l-.232-.672ZM111.45 53.367c5.528 2.015 11.151 4.234 16.645 6.634l-.036 1.065c-5.494-2.4-11.053-4.71-16.58-6.726l-.029-.974ZM144.579 68.185a257.534 257.534 0 0 1 16.491 9.25l-.482 1.022c-5.422-3.303-10.747-6.401-16.265-9.227l.256-1.045ZM176.158 87.37a256.422 256.422 0 0 1 15.086 11.572l-.909.941a251.213 251.213 0 0 0-14.926-11.458l.749-1.055ZM204.8 111.083a248.483 248.483 0 0 1 13.407 12.91l-1.358.546a483.056 483.056 0 0 0-13.246-12.796l1.197-.66ZM230.271 136.674l5.68 6.871c.873 1.136 1.967 2.299 2.84 3.435l2.619 3.408-1.848.237-2.619-3.407c-.873-1.136-1.807-2.187-2.681-3.323l-5.52-6.757 1.529-.464ZM250.434 164.273c2.906 4.36 5.756 8.8 8.242 13.103l-2.163-.205a238.627 238.627 0 0 0-8.089-12.994l2.01.096ZM266.305 191.666c2.066 4.184 4.02 8.526 5.67 12.651l-2.385-.51a174.11 174.11 0 0 0-5.573-12.465l2.288.324ZM277.298 217.144l3.819 12.654-2.925-.984-3.555-12.346 2.661.676ZM283.109 241.493l1.293 12.267-2.906-1.149-1.2-12.071 2.813.953ZM285.465 266.745l.994 11.935-3.005-1.1-1.091-12.133 3.102 1.298ZM189.169 177.13l18.28 14.697-3.596 23.17-18.28-14.697 3.596-23.17Z"/><path fill="#000" d="m254.826 151.708-21.886 8.47-18.289-14.704 3.597-23.173 36.578 29.407ZM196.338 130.765l-18.291-14.706 3.597-23.177 18.292 14.706-3.598 23.177Z"/><path fill="#F1EFED" d="m218.255 122.291 21.876-8.466 54.875 44.118-87.55 33.881-18.286-14.701-.001.007-.011-.009 43.782-16.943.003.002 21.889-8.471-36.581-29.41.003-.001.001-.007ZM203.865 214.999l3.597-23.17-.006-.005 87.55-33.881-3.597 23.177-87.544 33.879Z"/><path fill="#F1EFED" d="m199.963 107.592 21.889-8.471-3.597 23.17-.013.005.006.005-21.882 8.468 3.597-23.177ZM221.852 99.12l-21.889 8.472-18.292-14.706 21.89-8.471 18.291 14.706Z"/><path fill="#000" d="m189.158 177.121-.626.779a.999.999 0 0 1 .266-1.712l.36.933Zm65.668-25.413.626-.78a1 1 0 0 1-.265 1.712l-.361-.932Zm-36.584-29.412-.626.779a.998.998 0 0 1 .265-1.712l.361.933Zm21.889-8.471-.36-.933a1 1 0 0 1 .987.153l-.627.78Zm54.875 44.118.627-.78c.278.224.416.58.361.933l-.988-.153Zm-87.544 33.886.627-.779a1 1 0 0 1 .361.932l-.988-.153Zm-3.598 23.177.988.153a1 1 0 0 1-1.614.626l.626-.779ZM185.573 200.3l-.627.779a1 1 0 0 1-.361-.933l.988.154Zm3.597-23.177-.988-.154a1.002 1.002 0 0 1 1.615-.626l-.627.78Zm14.682 37.881.361.933a1.002 1.002 0 0 1-1.349-1.087l.988.154Zm87.557-33.884.988.153a1 1 0 0 1-.627.779l-.361-.932Zm-73.161-58.823-.988-.154a1 1 0 0 1 1.615-.625l-.627.779Zm-3.597 23.177-.627.779a1 1 0 0 1-.361-.933l.988.154Zm18.292 14.706.361.932a1 1 0 0 1-.987-.152l.626-.78Zm21.889-8.471.627-.78a1.001 1.001 0 0 1-.266 1.712l-.361-.932Zm-32.98-52.588.626-.78c.279.224.417.58.362.933l-.988-.153Zm-25.486 31.648.36.932a1 1 0 0 1-1.349-1.086l.989.154Zm21.888-8.471.988.153a1 1 0 0 1-.578.759l-.41-.912Zm-14.693-37.883-.361-.933a1 1 0 0 1 .987.153l-.626.78Zm-21.89 8.47-.626.78a.999.999 0 0 1 .265-1.712l.361.933Zm14.667 37.88.989.153a1 1 0 0 1-1.615.626l.626-.779Zm-18.291-14.706-.627.779a1.002 1.002 0 0 1-.362-.933l.989.154Zm3.597-23.177-.988-.154a1 1 0 0 1 1.615-.626l-.627.78Zm18.292 14.706.627-.78c.278.224.416.58.361.933l-.988-.153Zm40.822 5.457 54.875 44.118-1.253 1.559-54.875-44.118 1.253-1.559Zm49.663 67.921 3.597-23.177 1.976.307-3.597 23.177-1.976-.307Zm-57.839-21.719 21.889-8.471.722 1.865-21.889 8.471-.722-1.865Zm-10.369-59.194-21.889 8.471-.722-1.865 21.889-8.47.722 1.864Zm-21.262 7.692-3.597 23.177-1.977-.307 3.598-23.177 1.976.307Zm20.274-7.845-18.291-14.706 1.253-1.559 18.291 14.706-1.253 1.559Zm-17.304-14.553-21.889 8.471-.722-1.865 21.89-8.47.721 1.864Zm-21.623 6.76 18.292 14.705-1.254 1.559-18.291-14.706 1.253-1.559Zm13.414 39.437-18.292-14.706 1.253-1.559 18.292 14.706-1.253 1.559Zm-18.654-15.639 3.598-23.177 1.976.307-3.597 23.177-1.977-.307Zm5.213-23.803 18.292 14.706-1.254 1.559-18.292-14.706 1.254-1.559Zm18.653 15.639-3.597 23.177-1.977-.307 3.598-23.177 1.976.307Zm-11.128 68.609 18.28 14.697-1.253 1.559-18.28-14.697 1.253-1.559Zm18.642 15.63-3.597 23.17-1.976-.306 3.596-23.171 1.977.307Zm-5.212 23.796-18.28-14.697 1.254-1.559 18.28 14.698-1.254 1.558Zm-18.641-15.63 3.596-23.17 1.977.307-3.597 23.17-1.976-.307Zm18.653 15.639-.011-.009 1.252-1.559.011.009-1.252 1.559Zm1.603-.635-.001.007-1.976-.307.001-.006 1.976.306Zm-16.66-38.174.001-.007 1.977.307-.001.007-1.977-.307Zm.362.933-.011-.009 1.253-1.558.011.009-1.253 1.558Zm66.644-25.269-21.886 8.47-.722-1.865 21.886-8.47.722 1.865Zm-22.874 8.317-18.289-14.704 1.254-1.559 18.289 14.704-1.254 1.559Zm-18.65-15.637 3.597-23.173 1.976.307-3.597 23.173-1.976-.307Zm5.211-23.799 36.578 29.407-1.253 1.559-36.578-29.407 1.253-1.559Zm.363.929-.001.004-1.976-.307v-.004l1.977.307Zm-1.616.63-.005-.005 1.252-1.559.006.005-1.253 1.559Zm-21.616 6.756 21.882-8.468.722 1.865-21.883 8.468-.721-1.865Zm37.561 29.562.003.002-1.252 1.56-.003-.003 1.252-1.559Zm-44.768 16.79 43.781-16.943.722 1.865-43.782 16.944-.721-1.866Zm29.096-54.83 21.877-8.466.721 1.865-21.876 8.466-.722-1.865Zm77.473 37.517-87.55 33.882-.722-1.865 87.55-33.882.722 1.865Zm-88.538 33.729-18.285-14.702 1.253-1.559 18.286 14.702-1.254 1.559Zm47.377-40.116-36.581-29.41 1.253-1.558 36.581 29.409-1.253 1.559Zm-36.365-31.101.003-.001.82 1.824-.003.001-.82-1.824Zm-.575.757.001-.007 1.976.307-.001.007-1.976-.307Zm.571-.755.004-.002.821 1.824-.004.001-.821-1.823Zm-.213 1.689-.002-.002 1.253-1.558.003.002-1.254 1.558Zm-9.541 67.967.006.005-1.254 1.558-.006-.005 1.254-1.558Zm-.266 1.712-.007.002-.721-1.865.006-.002.722 1.865Zm9.45-70.62 3.596-23.17 1.977.307-3.597 23.17-1.976-.307Zm.614-.774.013-.005.722 1.865-.013.005-.722-1.865Zm-15.004 93.482 3.596-23.17 1.977.307-3.597 23.17-1.976-.307Zm88.893-32.793-87.544 33.879-.722-1.865 87.544-33.879.722 1.865Zm-88.279 32.019.014-.005.721 1.865-.013.006-.722-1.866Zm1.362 1.081-.001.007-1.976-.307.001-.007 1.976.307Z"/></svg>
