<svg xmlns="http://www.w3.org/2000/svg" width="126" height="32" fill="none" viewBox="0 0 126 32"><path fill="#000" d="m14.797 18.321-2.764 2.564L.757 10.43 3.52 7.868 14.797 18.32ZM12.008 0 9.185 2.617l2.823 2.617 2.822-2.617L12.008 0ZM14.834 13.152 12.07 10.59 23.347.135 26.112 2.7 14.834 13.153ZM31.177 13.234l-2.822-2.618L31.177 8 34 10.616l-2.823 2.618ZM19.864 13.76l2.765-2.562 11.277 10.453-2.765 2.563-11.277-10.453ZM19.83 29.466 22.561 32h.18l2.732-2.534-2.821-2.616-2.824 2.616ZM8.487 29.437 11.251 32l11.277-10.455-2.764-2.562L8.487 29.437ZM0 21.568l2.822 2.616 2.823-2.616-2.822-2.617L0 21.568ZM43.72 16.271c0-1.067.25-2.037.752-2.912a5.562 5.562 0 0 1 2.08-2.08c.875-.512 1.845-.768 2.912-.768.821 0 1.59.16 2.304.48.715.31 1.328.757 1.84 1.344a5.41 5.41 0 0 1 1.152 2.016h-1.776c-.33-.715-.8-1.275-1.408-1.68-.597-.416-1.301-.624-2.112-.624-.757 0-1.445.187-2.064.56a4.075 4.075 0 0 0-1.472 1.536 4.342 4.342 0 0 0-.528 2.128c0 .779.176 1.493.528 2.144.363.64.853 1.147 1.472 1.52s1.307.56 2.064.56c.81 0 1.515-.203 2.112-.608.608-.416 1.077-.981 1.408-1.696h1.776a5.56 5.56 0 0 1-1.152 2.032 5.365 5.365 0 0 1-1.84 1.344 5.738 5.738 0 0 1-2.304.464c-1.067 0-2.037-.25-2.912-.752a5.72 5.72 0 0 1-2.08-2.08 5.839 5.839 0 0 1-.752-2.928ZM67.153 16.111v5.76h-1.44v-1.888a4.807 4.807 0 0 1-1.697 1.504c-.682.363-1.46.544-2.336.544-1.045 0-2-.25-2.864-.752a5.634 5.634 0 0 1-2.047-2.08c-.491-.885-.736-1.861-.736-2.928s.25-2.037.752-2.912a5.562 5.562 0 0 1 2.08-2.08c.874-.512 1.845-.768 2.911-.768 1.12 0 2.128.304 3.024.912a5.077 5.077 0 0 1 1.953 2.448h-1.825a3.644 3.644 0 0 0-1.311-1.328 3.472 3.472 0 0 0-1.84-.496c-.758 0-1.446.187-2.065.56a4.075 4.075 0 0 0-1.472 1.536 4.342 4.342 0 0 0-.528 2.128c0 .779.176 1.493.528 2.144.352.64.832 1.147 1.44 1.52s1.28.56 2.017.56c.991 0 1.818-.277 2.48-.832a3.97 3.97 0 0 0 1.327-2.096H61.52v-1.456h5.633ZM73.626 22.031c-1.302 0-2.4-.32-3.296-.96-.886-.65-1.424-1.552-1.616-2.704h1.6c.266.736.666 1.275 1.2 1.616.544.341 1.264.512 2.16.512.864 0 1.562-.155 2.096-.464.533-.32.8-.73.8-1.232 0-.437-.198-.79-.592-1.056-.395-.277-1.046-.507-1.952-.688l-1.216-.224c-1.27-.224-2.219-.608-2.848-1.152-.63-.555-.944-1.237-.944-2.048 0-.619.186-1.163.56-1.632.373-.47.896-.832 1.568-1.088.672-.267 1.445-.4 2.32-.4 1.141 0 2.133.283 2.976.848.842.555 1.397 1.339 1.664 2.352h-1.68c-.214-.544-.598-.955-1.152-1.232-.544-.288-1.174-.432-1.888-.432-.843 0-1.51.15-2 .448-.48.288-.72.688-.72 1.2 0 .416.192.752.576 1.008.394.256 1.013.459 1.856.608l1.216.208c1.344.224 2.33.608 2.96 1.152.629.544.944 1.243.944 2.096 0 .64-.198 1.205-.592 1.696-.384.49-.923.875-1.616 1.152-.694.277-1.488.416-2.384.416ZM84.463 16.351v1.44h-4.64v-1.44h4.64ZM88.858 15.311v4.224c0 .341.08.603.24.784.17.181.459.272.864.272.384 0 .71-.032.976-.096v1.392c-.288.096-.64.144-1.056.144-1.696 0-2.544-.832-2.544-2.496v-4.224h-1.6v-1.44h1.6v-2.08h1.52v2.08h2.24v1.44h-2.24ZM96.078 13.711c.821 0 1.536.176 2.144.528a3.528 3.528 0 0 1 1.424 1.504c.33.64.496 1.392.496 2.256 0 .224-.005.39-.016.496h-6.56c.106.619.394 1.13.864 1.536.48.395 1.034.592 1.664.592 1.035 0 1.77-.379 2.208-1.136h1.568c-.256.747-.73 1.36-1.424 1.84a4.1 4.1 0 0 1-2.352.704c-.779 0-1.483-.176-2.112-.528a3.868 3.868 0 0 1-1.472-1.488c-.352-.64-.528-1.355-.528-2.144 0-.79.176-1.499.528-2.128a3.758 3.758 0 0 1 1.456-1.488 4.153 4.153 0 0 1 2.112-.544Zm-.032 1.344a2.42 2.42 0 0 0-1.632.592 2.535 2.535 0 0 0-.832 1.52h4.912c-.064-.64-.326-1.152-.784-1.536-.448-.384-1.003-.576-1.664-.576ZM109.341 13.871v8h-1.52v-1.2c-.33.427-.73.763-1.2 1.008-.469.235-.97.352-1.504.352a3.61 3.61 0 0 1-1.92-.528 3.823 3.823 0 0 1-1.36-1.488c-.33-.63-.496-1.344-.496-2.144s.166-1.515.496-2.144c.331-.63.784-1.12 1.36-1.472a3.53 3.53 0 0 1 1.92-.544c.555 0 1.072.128 1.552.384s.891.613 1.232 1.072v-1.296h1.44Zm-3.968 6.752a2.405 2.405 0 0 0 2.176-1.328 3.13 3.13 0 0 0 .32-1.424c0-.523-.106-.992-.32-1.408a2.378 2.378 0 0 0-2.176-1.344c-.469 0-.89.117-1.264.352a2.424 2.424 0 0 0-.88.992c-.213.416-.32.885-.32 1.408 0 .523.107.997.32 1.424.214.416.507.741.88.976.374.235.795.352 1.264.352ZM121.745 13.711c.64 0 1.211.139 1.712.416.512.277.912.699 1.2 1.264.299.555.448 1.237.448 2.048v4.432h-1.52v-4.4c0-.704-.203-1.264-.608-1.68-.395-.416-.896-.624-1.504-.624-.661 0-1.195.235-1.6.704-.405.47-.608 1.045-.608 1.728v4.272h-1.52v-4.4c0-.704-.203-1.264-.608-1.68-.395-.416-.896-.624-1.504-.624-.661 0-1.195.235-1.6.704-.405.47-.608 1.045-.608 1.728v4.272h-1.52v-8h1.44v1.264a3.218 3.218 0 0 1 1.104-1.04 2.944 2.944 0 0 1 1.456-.384c.629 0 1.195.139 1.696.416.512.267.907.667 1.184 1.2.309-.49.725-.88 1.248-1.168a3.447 3.447 0 0 1 1.712-.448Z"/></svg>
