<svg xmlns="http://www.w3.org/2000/svg" width="426" height="289" fill="none" viewBox="0 0 426 289"><mask id="a" fill="#fff"><path d="M7 289h419V151H7v138ZM426 13H7v138h419V13Z"/></mask><path fill="#000" d="M7 289h419V151H7v138Z"/><path fill="#000" d="M426 150.528H7v.944h419v-.944ZM7 13v-.943h-.943V13H7Zm419 0h.943v-.943H426V13Zm0 276v.943h.943V289H426ZM7 289h-.943v.943H7V289ZM7 13.943h419v-1.886H7v1.886Zm419 274.114H7v1.886h419v-1.886ZM425.057 13v138h1.886V13h-1.886Zm0 138v138h1.886V151h-1.886ZM7.943 289V151H6.057v138h1.886Zm0-138V13H6.057v138h1.886Z" mask="url(#a)"/><path fill="#F1EFED" stroke="#000" stroke-width=".943" d="M.472.472h418.057v275.057H.472z"/><path fill="#000" stroke="#000" stroke-width="1.258" d="m21.095 34.493.018 5.192-2.067-.565-.009-2.4a7.98 7.98 0 0 0-.804-3.466l1.6-.01a1.253 1.253 0 0 1 1.262 1.249Zm-1.672 6.035 1.695.463.019 5.544a1.262 1.262 0 0 1-1.254 1.266l-.845.005.03-.209.812-5.587.022-.156-.053-.148-.426-1.178Z"/><rect width="11.204" height="14.557" x=".631" y=".625" fill="#F1EFED" stroke="#000" stroke-width="1.258" rx="1.258" transform="matrix(.99998 -.0065 .00345 1 6.762 32.703)"/><path fill="#000" stroke="#000" stroke-width="1.258" d="m49.396 34.488.018 5.192-2.068-.565-.008-2.4a7.979 7.979 0 0 0-.805-3.466l1.6-.01a1.253 1.253 0 0 1 1.263 1.249Zm-1.672 6.035 1.694.463.02 5.544a1.262 1.262 0 0 1-1.254 1.266l-.845.005.03-.209.811-5.587.023-.156-.053-.148-.426-1.178Z"/><rect width="11.204" height="14.557" x=".631" y=".625" fill="#F1EFED" stroke="#000" stroke-width="1.258" rx="1.258" transform="matrix(.99998 -.0065 .00345 1 35.062 32.698)"/><path fill="#000" stroke="#000" stroke-width="1.258" d="m77.697 34.483.018 5.191-2.068-.564-.008-2.4a7.98 7.98 0 0 0-.805-3.467l1.6-.01a1.253 1.253 0 0 1 1.263 1.25Zm-1.673 6.035 1.695.462.02 5.544a1.263 1.263 0 0 1-1.254 1.266l-.846.006.03-.21.812-5.586.023-.156-.054-.148-.426-1.178Z"/><rect width="11.204" height="14.557" x=".631" y=".625" fill="#F1EFED" stroke="#000" stroke-width="1.258" rx="1.258" transform="matrix(.99998 -.0065 .00345 1 63.363 32.693)"/><path fill="#000" stroke="#000" stroke-width="1.258" d="m105.997 34.477.018 5.192-2.067-.565-.008-2.4a7.984 7.984 0 0 0-.805-3.466l1.6-.01a1.253 1.253 0 0 1 1.262 1.249Zm-1.672 6.035 1.695.463.019 5.544a1.263 1.263 0 0 1-1.253 1.266l-.846.005.03-.209.812-5.587.023-.156-.054-.148-.426-1.178Z"/><rect width="11.204" height="14.557" x=".631" y=".625" fill="#F1EFED" stroke="#000" stroke-width="1.258" rx="1.258" transform="matrix(.99998 -.0065 .00345 1 91.664 32.687)"/><path fill="#000" stroke="#000" stroke-width="1.258" d="m134.298 34.471.018 5.192-2.067-.565-.009-2.4a7.983 7.983 0 0 0-.804-3.466l1.6-.01a1.253 1.253 0 0 1 1.262 1.25Zm-1.672 6.035 1.695.463.019 5.544a1.263 1.263 0 0 1-1.254 1.266l-.845.006.03-.21.812-5.587.022-.156-.053-.148-.426-1.178Z"/><rect width="11.204" height="14.557" x=".631" y=".625" fill="#F1EFED" stroke="#000" stroke-width="1.258" rx="1.258" transform="matrix(.99998 -.0065 .00345 1 119.965 32.682)"/><path fill="#000" stroke="#000" stroke-width="1.258" d="m162.599 34.467.018 5.191-2.067-.565-.009-2.4a7.983 7.983 0 0 0-.804-3.466l1.6-.01a1.253 1.253 0 0 1 1.262 1.25Zm-1.672 6.035 1.694.462.02 5.544a1.263 1.263 0 0 1-1.254 1.266l-.845.006.03-.21.812-5.587.022-.155-.053-.149-.426-1.178Z"/><rect width="11.204" height="14.557" x=".631" y=".625" fill="#F1EFED" stroke="#000" stroke-width="1.258" rx="1.258" transform="matrix(.99998 -.0065 .00345 1 148.265 32.677)"/><path fill="#000" stroke="#000" stroke-width="1.258" d="m190.9 34.461.018 5.192-2.068-.565-.008-2.4a7.97 7.97 0 0 0-.805-3.466l1.601-.01a1.254 1.254 0 0 1 1.262 1.25Zm-1.672 6.035 1.694.463.019 5.544a1.261 1.261 0 0 1-1.253 1.266l-.846.005.031-.209.811-5.587.023-.156-.054-.148-.425-1.178Z"/><rect width="11.204" height="14.557" x=".631" y=".625" fill="#F1EFED" stroke="#000" stroke-width="1.258" rx="1.258" transform="matrix(.99998 -.0065 .00345 1 176.566 32.671)"/><path fill="#000" stroke="#000" stroke-width="1.258" d="m219.201 34.455.018 5.192-2.068-.565-.008-2.4a7.97 7.97 0 0 0-.805-3.466l1.6-.01a1.254 1.254 0 0 1 1.263 1.25Zm-1.673 6.035 1.695.463.019 5.544a1.262 1.262 0 0 1-1.253 1.266l-.846.006.031-.21.811-5.587.023-.156-.054-.148-.426-1.178Z"/><rect width="11.204" height="14.557" x=".631" y=".625" fill="#F1EFED" stroke="#000" stroke-width="1.258" rx="1.258" transform="matrix(.99998 -.0065 .00345 1 204.867 32.666)"/><path fill="#000" stroke="#000" stroke-width="1.258" d="m247.501 34.45.018 5.192-2.067-.565-.008-2.4a7.998 7.998 0 0 0-.805-3.466l1.6-.01a1.253 1.253 0 0 1 1.262 1.249Zm-1.672 6.035 1.695.463.019 5.544a1.263 1.263 0 0 1-1.253 1.266l-.846.005.03-.209.812-5.587.023-.156-.054-.148-.426-1.178Z"/><rect width="11.204" height="14.557" x=".631" y=".625" fill="#F1EFED" stroke="#000" stroke-width="1.258" rx="1.258" transform="rotate(-.371 5135.22 -35819.59) skewX(-.175)"/><path fill="#000" stroke="#000" stroke-width="1.258" d="m275.802 34.445.018 5.192-2.067-.565-.009-2.4a7.983 7.983 0 0 0-.804-3.466l1.6-.01a1.253 1.253 0 0 1 1.262 1.249Zm-1.672 6.035 1.695.463.019 5.544a1.263 1.263 0 0 1-1.254 1.266l-.845.005.03-.209.812-5.587.022-.156-.053-.148-.426-1.178Z"/><rect width="11.204" height="14.557" x=".631" y=".625" fill="#F1EFED" stroke="#000" stroke-width="1.258" rx="1.258" transform="matrix(.99998 -.0065 .00345 1 261.469 32.655)"/><path fill="#000" stroke="#000" stroke-width="1.258" d="m304.103 34.44.018 5.191-2.068-.564-.008-2.4a7.983 7.983 0 0 0-.804-3.467l1.6-.01a1.253 1.253 0 0 1 1.262 1.25Zm-1.672 6.035 1.694.463.02 5.543a1.263 1.263 0 0 1-1.254 1.266l-.845.006.03-.21.811-5.586.023-.156-.053-.148-.426-1.178Z"/><rect width="11.204" height="14.557" x=".631" y=".625" fill="#F1EFED" stroke="#000" stroke-width="1.258" rx="1.258" transform="matrix(.99998 -.0065 .00345 1 289.769 32.65)"/><path fill="#000" stroke="#000" stroke-width="1.258" d="m332.404 34.434.018 5.192-2.068-.565-.008-2.4a7.97 7.97 0 0 0-.805-3.466l1.601-.01a1.254 1.254 0 0 1 1.262 1.249Zm-1.673 6.035 1.695.463.019 5.543a1.261 1.261 0 0 1-1.253 1.267l-.846.005.031-.209.811-5.587.023-.156-.054-.148-.426-1.178Z"/><rect width="11.204" height="14.557" x=".631" y=".625" fill="#F1EFED" stroke="#000" stroke-width="1.258" rx="1.258" transform="matrix(.99998 -.0065 .00345 1 318.07 32.644)"/><path fill="#000" stroke="#000" stroke-width="1.258" d="m360.704 34.428.018 5.192-2.067-.565-.008-2.4a7.984 7.984 0 0 0-.805-3.466l1.6-.01a1.253 1.253 0 0 1 1.262 1.25Zm-1.672 6.035 1.695.463.019 5.544a1.262 1.262 0 0 1-1.253 1.266l-.846.006.031-.21.811-5.587.023-.156-.054-.148-.426-1.178Z"/><rect width="11.204" height="14.557" x=".631" y=".625" fill="#F1EFED" stroke="#000" stroke-width="1.258" rx="1.258" transform="rotate(-.371 5188.07 -53217.867) skewX(-.175)"/><path fill="#000" stroke="#000" stroke-width="1.258" d="m389.005 34.424.018 5.191-2.067-.565-.008-2.4a7.998 7.998 0 0 0-.805-3.466l1.6-.01a1.253 1.253 0 0 1 1.262 1.25Zm-1.672 6.035 1.695.462.019 5.544a1.263 1.263 0 0 1-1.254 1.266l-.845.006.03-.21.812-5.587.022-.155-.053-.148-.426-1.178Z"/><rect width="11.204" height="14.557" x=".631" y=".625" fill="#F1EFED" stroke="#000" stroke-width="1.258" rx="1.258" transform="rotate(-.371 5201.355 -57567.32) skewX(-.175)"/></svg>
