<svg xmlns="http://www.w3.org/2000/svg" fill="none" viewBox="0 0 1195 506"><path fill="#000" d="m376.056 505.715-7.32-13.089 7.32 13.089ZM361.366 479.558l-7.28-13.098a.08.08 0 0 1 0-.11.082.082 0 0 1 .025-.02.078.078 0 0 1 .03-.007c.011 0 .021.003.031.007a.078.078 0 0 1 .024.02l7.23 13.148c.008.01.012.022.012.035a.055.055 0 0 1-.012.035.047.047 0 0 1-.031.005.054.054 0 0 1-.029-.015ZM346.988 453.252l-6.88-13.318a.136.136 0 0 1 .017-.155.135.135 0 0 1 .096-.05.13.13 0 0 1 .055.006.132.132 0 0 1 .082.069l6.82 13.338a.123.123 0 0 1 .008.09.122.122 0 0 1-.058.07.119.119 0 0 1-.079 0 .125.125 0 0 1-.061-.05ZM333.527 426.466l-6.21-13.658a.213.213 0 0 1 .1-.27.208.208 0 0 1 .155-.003c.05.018.092.055.115.103l6.15 13.668c.01.02.016.042.016.065a.147.147 0 0 1-.012.065.157.157 0 0 1-.094.09.172.172 0 0 1-.22-.06ZM321.647 398.91l-5-14.158a.23.23 0 0 1-.018-.097.23.23 0 0 1 .023-.096.238.238 0 0 1 .145-.127.26.26 0 0 1 .33.15l5 14.148a.233.233 0 0 1-.011.174.227.227 0 0 1-.129.116.21.21 0 0 1-.095.04.211.211 0 0 1-.103-.008.2.2 0 0 1-.088-.054.217.217 0 0 1-.054-.088ZM312.647 370.275a110.741 110.741 0 0 1-2.45-14.798.309.309 0 0 1 .163-.305.318.318 0 0 1 .117-.035.329.329 0 0 1 .34.29 108.543 108.543 0 0 0 2.35 14.768.289.289 0 0 1-.22.34.303.303 0 0 1-.3-.26ZM310.647 340.409a31.105 31.105 0 0 1 5.73-13.898.358.358 0 0 1 .384-.125.368.368 0 0 1 .196.575 30.472 30.472 0 0 0-5.69 13.518.339.339 0 0 1-.134.224.333.333 0 0 1-.256.056.35.35 0 0 1-.23-.35ZM328.546 317.802a47.544 47.544 0 0 1 14.83-2.629.41.41 0 0 1 .303.109.425.425 0 0 1 .028.6.423.423 0 0 1-.136.097.424.424 0 0 1-.165.034c-4.966.07-9.89.923-14.59 2.529a.4.4 0 0 1-.51-.23.4.4 0 0 1 .24-.51ZM358.417 316.033c5 .67 9.9 1.639 14.78 2.779a.477.477 0 0 1 .36.58.494.494 0 0 1-.077.172.486.486 0 0 1-.503.188c-4.86-1.16-9.75-2.14-14.68-2.819a.464.464 0 0 1-.302-.174.446.446 0 0 1-.088-.336.438.438 0 0 1 .173-.302.458.458 0 0 1 .337-.088ZM387.757 322.482l14.43 4.128a.529.529 0 0 1 .316.25.507.507 0 0 1 .044.4.52.52 0 0 1-.64.36l-14.41-4.139a.5.5 0 0 1-.34-.62.492.492 0 0 1 .6-.379ZM416.498 331.15l14.15 4.919a.56.56 0 0 1 .232.895.558.558 0 0 1-.379.184.57.57 0 0 1-.213-.029l-14.14-4.949a.537.537 0 0 1-.33-.69.54.54 0 0 1 .271-.307.526.526 0 0 1 .409-.023ZM444.748 341.319l14 5.508a.56.56 0 0 1 .324.305.564.564 0 0 1 .006.445.565.565 0 0 1-.31.324.579.579 0 0 1-.45.006l-13.98-5.529a.558.558 0 0 1-.32-.729.562.562 0 0 1 .73-.33ZM472.578 352.557l13.8 5.919a.619.619 0 0 1 .441.586.638.638 0 0 1-.051.255.633.633 0 0 1-.375.342.627.627 0 0 1-.505-.053l-13.77-5.939a.6.6 0 0 1 .47-1.1l-.01-.01ZM500.108 364.475l13.69 6.139a.651.651 0 1 1-.53 1.19l-13.67-6.169a.636.636 0 0 1-.331-.352.63.63 0 0 1 .851-.798l-.01-.01ZM527.457 376.863l13.65 6.219a.671.671 0 0 1 .33.9.685.685 0 0 1-.642.4.676.676 0 0 1-.258-.06l-13.63-6.249a.652.652 0 0 1-.354-.375.657.657 0 0 1 .024-.515.643.643 0 0 1 .628-.385.649.649 0 0 1 .252.065ZM554.757 389.282l13.69 6.129a.698.698 0 0 1 .375.395.71.71 0 0 1-.684.966.708.708 0 0 1-.271-.061l-13.67-6.17a.707.707 0 0 1-.362-.386.686.686 0 0 1 .174-.748.703.703 0 0 1 .496-.186c.09.002.18.023.262.061h-.01ZM582.027 401.85l13.39 6.779a.752.752 0 0 1 .142 1.23.749.749 0 0 1-.542.179.749.749 0 0 1-.28-.079l-13.35-6.809a.727.727 0 0 1-.403-.721.716.716 0 0 1 .502-.624.72.72 0 0 1 .541.045ZM608.738 415.528l13.34 6.839a.78.78 0 1 1-.71 1.39l-13.34-6.869a.765.765 0 0 1-.462-.747.746.746 0 0 1 .276-.54.772.772 0 0 1 .584-.166.762.762 0 0 1 .292.103l.02-.01ZM635.507 429.006l13.59 6.299a.81.81 0 0 1 .4 1.07.825.825 0 0 1-1.08.39l-13.6-6.299a.794.794 0 1 1 .67-1.44l.02-.02ZM662.897 441.084l14.071 5.069h.049a.824.824 0 0 1 .474.431.808.808 0 0 1 .077.317.806.806 0 0 1-.051.322.84.84 0 0 1-1.069.51l-14.14-5.139a.828.828 0 0 1-.488-.42.814.814 0 0 1-.034-.642.812.812 0 0 1 .439-.469.805.805 0 0 1 .642-.009l.03.03ZM691.328 450.233a135.532 135.532 0 0 0 14.65 2.689.85.85 0 0 1 .418 1.516.854.854 0 0 1-.628.174 135.54 135.54 0 0 1-14.84-2.73.845.845 0 0 1-.62-.999.845.845 0 0 1 .372-.542.835.835 0 0 1 .648-.108ZM720.828 453.692c2.47-.07 4.94-.24 7.4-.54a32.171 32.171 0 0 0 7.11-1.61.873.873 0 0 1 1.184.494.87.87 0 0 1-.594 1.136 34.374 34.374 0 0 1-7.5 1.69 81.794 81.794 0 0 1-7.56.549.86.86 0 1 1 0-1.719h-.04ZM745.338 442.114a21.065 21.065 0 0 0 1.06-7.089 37.242 37.242 0 0 0-.86-7.259.872.872 0 0 1 .357-.904.89.89 0 0 1 .972-.017.881.881 0 0 1 .381.551c.548 2.5.846 5.049.89 7.609a22.453 22.453 0 0 1-1.17 7.678.86.86 0 0 1-.431.562.855.855 0 0 1-.707.055.864.864 0 0 1-.492-1.196v.01ZM740.848 413.728c-2-4.549-4.27-8.999-6.7-13.318a.87.87 0 0 1-.082-.672.877.877 0 0 1 .744-.641.885.885 0 0 1 .878.443 147.972 147.972 0 0 1 6.77 13.488.884.884 0 0 1-.479 1.1.882.882 0 0 1-1.131-.4ZM726.407 387.622l-8.45-12.338a.902.902 0 0 1 .299-1.154.898.898 0 0 1 1.181.154l8.49 12.418a.892.892 0 0 1-.259 1.2.893.893 0 0 1-1.211-.2l-.05-.08ZM709.228 363.086l-8.58-12.308a.898.898 0 0 1-.088-1.065.887.887 0 0 1 .613-.414.892.892 0 0 1 .717.185c.099.08.18.18.238.294l8.52 12.268a.903.903 0 0 1 .239.715.895.895 0 0 1-.389.645.904.904 0 0 1-.743.124.902.902 0 0 1-.577-.484l.05.04ZM692.477 338.119c-2.59-4.289-5.06-8.678-7.31-13.178a.91.91 0 0 1 .415-1.224.915.915 0 0 1 1.225.415c2.22 4.439 4.66 8.788 7.23 13.048a.908.908 0 0 1-.999 1.353.907.907 0 0 1-.561-.414ZM679.196 311.073a83.038 83.038 0 0 1-3.81-14.668.935.935 0 0 1 .775-1.065.934.934 0 0 1 1.065.775 80.19 80.19 0 0 0 3.71 14.368.92.92 0 0 1-.56 1.18.925.925 0 0 1-1.18-.56v-.03ZM675.137 281.138a19.615 19.615 0 0 1 3-7.219 18.993 18.993 0 0 1 5.73-5.339.943.943 0 0 1 1 1.6 17.105 17.105 0 0 0-5.17 4.809 17.543 17.543 0 0 0-2.73 6.529.933.933 0 0 1-1.105.725.933.933 0 0 1-.725-1.105ZM698.537 264.191a82.44 82.44 0 0 1 15.15 0 .947.947 0 0 1 .81 1.015.948.948 0 0 1-.96.875 82.224 82.224 0 0 0-14.81-.05.939.939 0 0 1-.19-1.87v.03ZM728.648 266.27l14.72 3.199a1.002 1.002 0 0 1 1.054 1.211 1 1 0 0 1-1.464.659h-.05l-14.6-3.179h-.06a.948.948 0 0 1-.74-.758.951.951 0 0 1 .01-.372 1 1 0 0 1 1.13-.76ZM757.877 273.329c2.41.65 4.8 1.309 7.21 1.939l7.29 1.81a1.002 1.002 0 0 1 .71 1.169.996.996 0 0 1-1.17.71l-7.27-1.799c-2.42-.63-4.85-1.31-7.27-2a1.003 1.003 0 0 1-.456-1.119 1.004 1.004 0 0 1 .956-.74v.03ZM786.898 280.908l14.46 4.059a.996.996 0 0 1 .513 1.163 1 1 0 0 1-1.043.726l-14.42-4.069a.993.993 0 0 1-.937-.821.995.995 0 0 1 .591-1.096.993.993 0 0 1 .866.038h-.03ZM815.757 289.167l14.39 4.258a1.002 1.002 0 0 1 .66 1.24.998.998 0 0 1-1.23.66l-14.37-4.269a.995.995 0 0 1-.47-.494.995.995 0 0 1 .358-1.231.996.996 0 0 1 .662-.164ZM844.528 297.676l14.4 4.158a1 1 0 0 1 .207 1.829 1 1 0 0 1-.757.091l-14.42-4.179a1 1 0 0 1 .55-1.909l.02.01ZM873.368 305.844l14.5 3.759a.997.997 0 0 1 .562 1.162 1 1 0 0 1-1.052.747l-14.54-3.758a1.008 1.008 0 0 1-.68-.437.99.99 0 0 1-.135-.797.997.997 0 0 1 1.305-.696l.04.02ZM902.447 313.043l14.66 2.999a.999.999 0 0 1-.39 1.92l-14.73-2.999a1.005 1.005 0 0 1-.613-1.133 1 1 0 0 1 1.013-.797l.06.01ZM931.857 318.602l14.79 1.929a1.007 1.007 0 0 1 .832.288.99.99 0 0 1 .283.833.995.995 0 0 1-.487.734 1.002 1.002 0 0 1-.878.065l-14.83-1.97a1 1 0 1 1 .25-1.929l.04.05ZM961.577 321.762a43.918 43.918 0 0 0 14.53-1.48 1.01 1.01 0 0 1 .892-.112.997.997 0 0 1 .651 1.111.998.998 0 0 1-.983.831 45.69 45.69 0 0 1-15.18 1.569 1.003 1.003 0 0 1-1.15-.562 1 1 0 0 1 1.23-1.357h.01ZM986.267 311.483c.603-2.289.638-4.692.1-6.998a28.318 28.318 0 0 0-2.51-6.779.95.95 0 1 1 1.69-.86 29.437 29.437 0 0 1 2.68 7.249c.61 2.599.569 5.309-.12 7.888a.995.995 0 0 1-1.104.405 1 1 0 0 1-.726-.925l-.01.02ZM975.306 285.677l-9.96-11.188a.943.943 0 0 1 .141-1.252.94.94 0 0 1 1.259.012l10 11.208a.947.947 0 0 1 .237.682.94.94 0 0 1-.317.648.912.912 0 0 1-.674.245.929.929 0 0 1-.646-.315l-.04-.04ZM955.037 263.651l-10.55-10.639a.905.905 0 0 1-.274-.655.922.922 0 0 1 .274-.655.912.912 0 0 1 1.3 0l10.58 10.649a.935.935 0 0 1 .211 1.022.935.935 0 0 1-.871.574.922.922 0 0 1-.66-.286l-.01-.01ZM933.808 242.494l-10.68-10.529a.91.91 0 0 1 .633-1.562.91.91 0 0 1 .647.262l10.69 10.519a.923.923 0 0 1 .081 1.359.93.93 0 0 1-.692.277.91.91 0 0 1-.369-.093.91.91 0 0 1-.3-.233h-.01ZM912.538 221.307l-10.37-10.808a.912.912 0 0 1-.037-1.35.909.909 0 0 1 .696-.249.91.91 0 0 1 .651.349l10.35 10.818a.909.909 0 0 1 .267.64.899.899 0 0 1-.563.838.906.906 0 0 1-.994-.198v-.04ZM892.127 199.26l-4.831-5.759c-.8-1-1.62-1.899-2.4-2.889l-2.31-3a.88.88 0 0 1-.178-.658.9.9 0 0 1 .65-.747.891.891 0 0 1 .938.315l2.27 2.94c.77 1 1.601 1.91 2.391 2.869l4.81 5.73a.908.908 0 0 1-.773 1.477.875.875 0 0 1-.608-.318l.041.04ZM874.058 175.174l-7.74-12.888a.89.89 0 0 1-.101-.667.88.88 0 0 1 1.611-.243v.05l7.69 12.778v.05a.892.892 0 0 1-.327 1.175.885.885 0 0 1-.647.109.886.886 0 0 1-.546-.364h.06ZM859.547 148.818a64.895 64.895 0 0 1-4.69-14.438.87.87 0 0 1 1.589-.615.872.872 0 0 1 .122.315 62.929 62.929 0 0 0 4.58 13.998.877.877 0 0 1-1.124 1.122.874.874 0 0 1-.486-.422l.009.04ZM860.357 120.692a17.769 17.769 0 0 1 7.82-.4c2.524.375 5.012.957 7.44 1.739a.854.854 0 0 1 .296.161.852.852 0 0 1 .309.584.862.862 0 0 1-1.115.905 45.07 45.07 0 0 0-7.16-1.68 16.239 16.239 0 0 0-7 .33.863.863 0 0 1-.692-.018.868.868 0 0 1 .152-1.631l-.05.01ZM889.417 128.221l13.27 6.999a.849.849 0 0 1 .417.504.85.85 0 0 1-.566 1.067.853.853 0 0 1-.651-.061l-13.26-6.999a.864.864 0 0 1-.321-1.14.861.861 0 0 1 1.121-.38l-.01.01ZM915.918 142.279l13.24 6.999a.837.837 0 0 1 .285 1.095.836.836 0 0 1-1.065.384l-13.26-6.999a.843.843 0 1 1 .79-1.489l.01.01ZM942.448 156.126l13.38 6.729a.812.812 0 0 1 .441.459.8.8 0 0 1-1.151.971l-13.41-6.699a.819.819 0 0 1-.36-1.1.79.79 0 0 1 .468-.41.806.806 0 0 1 .622.05h.01ZM969.297 169.395l13.59 6.309a.768.768 0 0 1-.091 1.379.77.77 0 0 1-.559.01l-13.59-6.279a.78.78 0 0 1-.39-1 .788.788 0 0 1 1-.389l.04-.03ZM996.648 181.713l13.882 5.639a.822.822 0 0 1 .41.417c.03.093.05.192.05.292 0 .1-.02.199-.06.291a.8.8 0 0 1-.16.253.875.875 0 0 1-.25.167.73.73 0 0 1-.59-.02l-13.932-5.619a.747.747 0 0 1-.429-.409.733.733 0 0 1 .009-.591.759.759 0 0 1 1-.42h.07ZM1024.56 192.501l14.3 4.389a.71.71 0 0 1 .41.349c.09.166.11.36.06.54a.96.96 0 0 1-.13.241.746.746 0 0 1-.48.249.674.674 0 0 1-.27-.03l-14.39-4.388a.717.717 0 0 1-.25-.133.586.586 0 0 1-.18-.218.83.83 0 0 1-.08-.269c-.01-.094 0-.19.03-.28a.605.605 0 0 1 .13-.248.655.655 0 0 1 .22-.179.724.724 0 0 1 .55-.053l.08.03ZM1053.42 200.13a80.96 80.96 0 0 0 14.8 1.28.686.686 0 0 1 .7.396.673.673 0 0 1 0 .559.689.689 0 0 1-.7.395 83.271 83.271 0 0 1-15.03-1.26.7.7 0 0 1-.45-.277.688.688 0 0 1 .16-.962c.15-.106.34-.15.52-.121v-.01ZM1082.47 198.36a17.246 17.246 0 0 0 5.58-4.509 18.523 18.523 0 0 0 3.23-6.429.524.524 0 0 1 .11-.232c.05-.07.11-.128.19-.172a.655.655 0 0 1 .5-.063c.08.024.16.064.22.118a.63.63 0 0 1 .17.198c.04.077.06.16.07.246a.732.732 0 0 1-.03.255 19.413 19.413 0 0 1-3.45 6.889 18.514 18.514 0 0 1-6 4.869.671.671 0 0 1-.88-.288.654.654 0 0 1-.04-.495.664.664 0 0 1 .31-.387h.02ZM1091.74 172.795c-.19-1.22-.38-2.45-.63-3.67-.25-1.22-.48-2.44-.76-3.649-.54-2.43-1.17-4.83-1.87-7.219-.03-.077-.03-.158-.03-.237.01-.08.04-.158.07-.228a.56.56 0 0 1 .16-.184c.06-.05.13-.088.21-.111.07-.023.15-.031.23-.023a.634.634 0 0 1 .42.222.77.77 0 0 1 .11.211c.71 2.409 1.35 4.849 1.91 7.299.28 1.219.54 2.449.77 3.689.23 1.24.45 2.47.65 3.72a.74.74 0 0 1 .01.257.674.674 0 0 1-.28.421.626.626 0 0 1-.73-.034.595.595 0 0 1-.24-.444v-.02ZM1083.49 144.178c-1.91-4.599-4.05-9.098-6.35-13.518a.578.578 0 0 1 .66-.737.61.61 0 0 1 .34.197c2.33 4.44 4.49 8.999 6.42 13.608a.58.58 0 0 1 .05.225c0 .077-.02.154-.04.226a.702.702 0 0 1-.13.191.65.65 0 0 1-.19.128.574.574 0 0 1-.23.048.571.571 0 0 1-.42-.173.539.539 0 0 1-.13-.195h.02ZM1069.77 117.633l-8-12.619a.54.54 0 0 1-.11-.204.593.593 0 0 1-.01-.23.55.55 0 0 1 .08-.214.61.61 0 0 1 .17-.162.54.54 0 0 1 .44-.067.55.55 0 0 1 .21.107c.06.049.1.111.14.181l8.1 12.648c.04.061.07.129.08.202.02.073.02.147 0 .219a.69.69 0 0 1-.09.201c-.04.059-.1.11-.16.148a.545.545 0 0 1-.62-.011.583.583 0 0 1-.15-.159l-.08-.04ZM1053.24 92.646l-8.65-12.248a.484.484 0 0 1-.08-.386c.02-.134.1-.254.21-.334a.497.497 0 0 1 .38-.086c.07.012.13.037.19.074.05.038.1.086.14.142l8.68 12.238a.544.544 0 0 1-.16.693.525.525 0 0 1-.7-.083l-.01-.01ZM1036.02 68.08l-8.22-12.558a.361.361 0 0 1-.07-.169.55.55 0 0 1 0-.18.512.512 0 0 1 .21-.291c.1-.066.22-.089.34-.064.12.024.23.093.3.194l8.26 12.508c.07.11.09.244.07.373a.564.564 0 0 1-.21.317.514.514 0 0 1-.38.072.477.477 0 0 1-.31-.212l.01.01ZM1028.85 45.783c2.44.617 4.85 1.392 7.2 2.32 2.35.9 4.66 1.869 7 2.868.1.044.17.126.21.227.04.101.04.214 0 .313a.406.406 0 0 1-.22.216.4.4 0 0 1-.31-.006c-2.3-1-4.61-1.94-6.94-2.819a56.61 56.61 0 0 0-7.09-2.26.44.44 0 0 1-.28-.19.45.45 0 0 1-.06-.159.33.33 0 0 1 .01-.17c.01-.057.03-.11.07-.157a.37.37 0 0 1 .12-.118c.05-.031.11-.052.16-.061.06-.01.12-.007.18.006l-.05-.01ZM1056.65 57.291l13.46 6.62c.04.018.08.046.11.08.03.035.05.075.07.12.01.043.02.09.02.136a.576.576 0 0 1-.04.133.434.434 0 0 1-.08.112.462.462 0 0 1-.12.07.359.359 0 0 1-.14.017.306.306 0 0 1-.13-.039l-13.49-6.569a.31.31 0 0 1-.12-.09.347.347 0 0 1-.08-.128c-.02-.047-.02-.097-.02-.147 0-.05.02-.1.04-.145a.328.328 0 0 1 .09-.12.35.35 0 0 1 .27-.097c.05.003.1.015.15.037l.01.01ZM1084.03 69.37l14.19 4.798c.07.028.13.082.17.153.03.07.04.152.02.227a.292.292 0 0 1-.16.168.284.284 0 0 1-.22.012l-14.24-4.748a.307.307 0 0 1-.11-.062.38.38 0 0 1-.08-.098.255.255 0 0 1-.03-.12.262.262 0 0 1 .01-.125c.02-.04.04-.077.06-.11a.329.329 0 0 1 .35-.095h.04ZM1112.7 77.968c4.87 1.07 9.81 1.85 14.78 2.34.03.003.06.012.09.026.03.015.05.034.07.059.02.024.04.052.05.082.01.03.01.062.01.093a.257.257 0 0 1-.26.22c-4.99-.476-9.95-1.244-14.85-2.3a.273.273 0 0 1-.14-.123.233.233 0 0 1-.02-.183.244.244 0 0 1 .09-.156c.05-.04.11-.06.18-.058ZM1142.42 80.517c4.98-.37 9.88-1.406 14.59-3.079a.184.184 0 0 1 .14.004c.04.02.08.056.09.101.02.045.02.095 0 .14a.199.199 0 0 1-.1.095 56.873 56.873 0 0 1-14.68 3.16.204.204 0 0 1-.15-.05.203.203 0 0 1-.08-.14c-.01-.028 0-.056.01-.083 0-.026.02-.05.03-.072a.202.202 0 0 1 .07-.052c.02-.013.05-.021.08-.024ZM1169.92 70.02c1.91-1.601 3.67-3.382 5.24-5.32a44.794 44.794 0 0 0 4.18-6.179.316.316 0 0 1 .03-.04c.01-.01.03-.018.04-.023a.125.125 0 0 1 .05-.003c.02.002.03.007.05.016.01.011.02.024.02.039.01.015.01.03.01.046s0 .031-.01.046c0 .015-.01.028-.02.039a44.557 44.557 0 0 1-4.19 6.239 40.295 40.295 0 0 1-5.25 5.37c-.02.014-.03.026-.05.035a.156.156 0 0 1-.06.012.156.156 0 0 1-.06-.012.112.112 0 0 1-.05-.036.14.14 0 0 1-.04-.105.14.14 0 0 1 .04-.105l.07-.02ZM1184.86 44.643c1.27-4.832 2.2-9.746 2.79-14.707 0 0 0-.06.07-.06.01.004.03.014.04.029.01.014.02.032.02.05a108.41 108.41 0 0 1-2.76 14.738v.047c0 .015-.01.03-.02.043a.155.155 0 0 1-.03.03c-.02.008-.03.011-.05.011a.084.084 0 0 1-.04-.01.082.082 0 0 1-.04-.03c-.01-.014-.01-.029-.02-.044 0-.016 0-.032.01-.047l.03-.05Z"/><mask id="a" fill="#fff"><path d="M10.942 368.665h666.265V251.957H10.942v116.708ZM677.207 135.249H10.942v116.708h666.265V135.249Z"/></mask><path fill="#000" d="M10.942 368.665h666.265V251.957H10.942v116.708Z"/><path fill="#000" d="M677.207 251.207H10.942v1.5h666.265v-1.5ZM10.942 135.249v-1.5h-1.5v1.5h1.5Zm666.265 0h1.5v-1.5h-1.5v1.5Zm0 233.416v1.5h1.5v-1.5h-1.5Zm-666.265 0h-1.5v1.5h1.5v-1.5Zm0-231.916h666.265v-3H10.942v3Zm666.265 230.416H10.942v3h666.265v-3Zm-1.5-231.916v116.708h3V135.249h-3Zm0 116.708v116.708h3V251.957h-3ZM12.442 368.665V251.957h-3v116.708h3Zm0-116.708V135.249h-3v116.708h3Z" mask="url(#a)"/><path fill="#F1EFED" stroke="#000" stroke-width="1.5" d="M.75 124.75h664.765v231.916H.75z"/><path fill="#000" stroke="#000" stroke-width="2" d="m43.081 139.334.029 8.254-3.288-.898-.013-3.816a12.687 12.687 0 0 0-1.279-5.51l2.544-.016a1.992 1.992 0 0 1 2.007 1.986Zm-2.659 9.594 2.695.736.03 8.813a2.007 2.007 0 0 1-1.993 2.013l-1.344.009.048-.332 1.29-8.883.037-.248-.086-.235-.677-1.873Z"/><rect width="17.816" height="23.143" x="1.003" y=".993" fill="#F1EFED" stroke="#000" stroke-width="2" rx="2" transform="matrix(.99998 -.0065 .00345 1 20.29 136.488)"/><path fill="#000" stroke="#000" stroke-width="2" d="m88.081 139.327.029 8.253-3.287-.898-.014-3.816a12.687 12.687 0 0 0-1.279-5.51l2.544-.016a1.992 1.992 0 0 1 2.007 1.987Zm-2.659 9.594 2.695.736.03 8.812a2.007 2.007 0 0 1-1.993 2.013l-1.344.009.048-.332 1.29-8.882.037-.248-.085-.236-.678-1.872Z"/><rect width="17.816" height="23.143" x="1.003" y=".993" fill="#F1EFED" stroke="#000" stroke-width="2" rx="2" transform="matrix(.99998 -.0065 .00345 1 65.29 136.481)"/><path fill="#000" stroke="#000" stroke-width="2" d="m133.081 139.318.029 8.253-3.287-.898-.014-3.815a12.684 12.684 0 0 0-1.279-5.511l2.544-.016a1.992 1.992 0 0 1 2.007 1.987Zm-2.659 9.594 2.695.736.03 8.813a2.008 2.008 0 0 1-1.993 2.013l-1.344.008.048-.332 1.291-8.882.036-.248-.086-.236-.677-1.872Z"/><rect width="17.816" height="23.143" x="1.003" y=".993" fill="#F1EFED" stroke="#000" stroke-width="2" rx="2" transform="matrix(.99998 -.0065 .00345 1 110.29 136.472)"/><path fill="#000" stroke="#000" stroke-width="2" d="m178.081 139.309.029 8.253-3.287-.898-.014-3.815a12.676 12.676 0 0 0-1.279-5.51l2.544-.017a1.993 1.993 0 0 1 2.007 1.987Zm-2.659 9.594 2.695.736.03 8.813a2.007 2.007 0 0 1-1.993 2.013l-1.344.009.048-.333 1.291-8.882.036-.248-.086-.235-.677-1.873Z"/><rect width="17.816" height="23.143" x="1.003" y=".993" fill="#F1EFED" stroke="#000" stroke-width="2" rx="2" transform="matrix(.99998 -.0065 .00345 1 155.29 136.463)"/><path fill="#000" stroke="#000" stroke-width="2" d="m223.081 139.3.029 8.253-3.287-.898-.014-3.815a12.68 12.68 0 0 0-1.279-5.51l2.544-.017a1.993 1.993 0 0 1 2.007 1.987Zm-2.659 9.594 2.695.736.03 8.813a2.007 2.007 0 0 1-1.993 2.013l-1.344.009.048-.332 1.291-8.883.036-.248-.086-.235-.677-1.873Z"/><rect width="17.816" height="23.143" x="1.003" y=".993" fill="#F1EFED" stroke="#000" stroke-width="2" rx="2" transform="matrix(.99998 -.0065 .00345 1 200.29 136.454)"/><path fill="#000" stroke="#000" stroke-width="2" d="m268.081 139.293.029 8.253-3.287-.898-.014-3.816a12.68 12.68 0 0 0-1.279-5.51l2.544-.016a1.992 1.992 0 0 1 2.007 1.987Zm-2.659 9.593 2.695.736.03 8.813a2.007 2.007 0 0 1-1.993 2.013l-1.344.009.048-.332 1.291-8.883.036-.248-.086-.235-.677-1.873Z"/><rect width="17.816" height="23.143" x="1.003" y=".993" fill="#F1EFED" stroke="#000" stroke-width="2" rx="2" transform="matrix(.99998 -.0065 .00345 1 245.29 136.446)"/><path fill="#000" stroke="#000" stroke-width="2" d="m313.081 139.284.029 8.253-3.287-.898-.014-3.816a12.68 12.68 0 0 0-1.279-5.51l2.544-.016a1.992 1.992 0 0 1 2.007 1.987Zm-2.659 9.594 2.695.736.03 8.812a2.007 2.007 0 0 1-1.993 2.013l-1.344.009.048-.332 1.291-8.882.036-.248-.086-.236-.677-1.872Z"/><rect width="17.816" height="23.143" x="1.003" y=".993" fill="#F1EFED" stroke="#000" stroke-width="2" rx="2" transform="matrix(.99998 -.0065 .00345 1 290.29 136.438)"/><path fill="#000" stroke="#000" stroke-width="2" d="m358.081 139.275.029 8.253-3.287-.898-.014-3.815a12.684 12.684 0 0 0-1.279-5.511l2.544-.016a1.992 1.992 0 0 1 2.007 1.987Zm-2.659 9.594 2.695.736.03 8.813a2.008 2.008 0 0 1-1.993 2.013l-1.344.008.048-.332 1.291-8.882.036-.248-.086-.236-.677-1.872Z"/><rect width="17.816" height="23.143" x="1.003" y=".993" fill="#F1EFED" stroke="#000" stroke-width="2" rx="2" transform="matrix(.99998 -.0065 .00345 1 335.29 136.429)"/><path fill="#000" stroke="#000" stroke-width="2" d="m403.081 139.266.029 8.253-3.287-.898-.014-3.815a12.676 12.676 0 0 0-1.279-5.51l2.544-.017a1.993 1.993 0 0 1 2.007 1.987Zm-2.659 9.594 2.695.736.03 8.813a2.007 2.007 0 0 1-1.993 2.013l-1.344.009.048-.332 1.291-8.883.036-.248-.086-.235-.677-1.873Z"/><rect width="17.816" height="23.143" x="1.003" y=".993" fill="#F1EFED" stroke="#000" stroke-width="2" rx="2" transform="matrix(.99998 -.0065 .00345 1 380.29 136.42)"/><path fill="#000" stroke="#000" stroke-width="2" d="m448.081 139.258.029 8.253-3.287-.897-.014-3.816a12.68 12.68 0 0 0-1.279-5.51l2.544-.017a1.993 1.993 0 0 1 2.007 1.987Zm-2.659 9.594 2.695.736.03 8.813a2.007 2.007 0 0 1-1.993 2.013l-1.344.009.048-.332 1.291-8.883.036-.248-.086-.235-.677-1.873Z"/><rect width="17.816" height="23.143" x="1.003" y=".993" fill="#F1EFED" stroke="#000" stroke-width="2" rx="2" transform="matrix(.99998 -.0065 .00345 1 425.29 136.412)"/><path fill="#000" stroke="#000" stroke-width="2" d="m493.081 139.25.029 8.253-3.288-.898-.013-3.816a12.68 12.68 0 0 0-1.279-5.51l2.544-.016a1.992 1.992 0 0 1 2.007 1.987Zm-2.659 9.593 2.695.736.03 8.813a2.007 2.007 0 0 1-1.993 2.013l-1.344.009.048-.332 1.29-8.883.037-.248-.086-.235-.677-1.873Z"/><rect width="17.816" height="23.143" x="1.003" y=".993" fill="#F1EFED" stroke="#000" stroke-width="2" rx="2" transform="matrix(.99998 -.0065 .00345 1 470.29 136.404)"/><path fill="#000" stroke="#000" stroke-width="2" d="m538.081 139.241.029 8.253-3.288-.898-.013-3.816a12.68 12.68 0 0 0-1.279-5.51l2.544-.016a1.992 1.992 0 0 1 2.007 1.987Zm-2.659 9.594 2.695.736.03 8.812a2.007 2.007 0 0 1-1.993 2.013l-1.344.009.048-.332 1.29-8.882.037-.248-.086-.236-.677-1.872Z"/><rect width="17.816" height="23.143" x="1.003" y=".993" fill="#F1EFED" stroke="#000" stroke-width="2" rx="2" transform="matrix(.99998 -.0065 .00345 1 515.29 136.395)"/><path fill="#000" stroke="#000" stroke-width="2" d="m583.081 139.232.029 8.253-3.288-.898-.013-3.815a12.684 12.684 0 0 0-1.279-5.511l2.544-.016a1.992 1.992 0 0 1 2.007 1.987Zm-2.659 9.594 2.695.736.03 8.813a2.008 2.008 0 0 1-1.993 2.013l-1.344.008.048-.332 1.29-8.882.037-.248-.086-.236-.677-1.872Z"/><rect width="17.816" height="23.143" x="1.003" y=".993" fill="#F1EFED" stroke="#000" stroke-width="2" rx="2" transform="rotate(-.371 21242.914 -86058.6) skewX(-.175)"/><path fill="#000" stroke="#000" stroke-width="2" d="m628.081 139.224.029 8.253-3.288-.898-.013-3.815a12.676 12.676 0 0 0-1.279-5.51l2.544-.017a1.993 1.993 0 0 1 2.007 1.987Zm-2.659 9.594 2.695.736.03 8.813a2.007 2.007 0 0 1-1.993 2.013l-1.344.009.048-.332 1.29-8.883.037-.248-.086-.235-.677-1.873Z"/><rect width="17.816" height="23.143" x="1.003" y=".993" fill="#F1EFED" stroke="#000" stroke-width="2" rx="2" transform="matrix(.99998 -.0065 .00345 1 605.29 136.378)"/><path fill="#000" d="m590.187 360.812-.27.546 17.869 1.665 36.567-128.496-18.943-3.212-.101.401-.165.571-.186.567-.204.562-.224.558-.242.553-.26.549-.275.545-.291.542-.304.538-.317.536-.327.532-.336.531-.343.529-.348.528-.352.527-.353.527-.353.526-.351.527-.347.529-.341.529-.333.532-.323.533-.313.537-.299.539-.286.543-.27.547-.253.55-.236.555-.218.559-.198.563-.178.569-.159.573-.138.578-.118.583-.097.588-.078.592-.059.597-.041.602-.022.605-.007.61.01.613.023.617.036.62.047.622.057.625.064.626.071.628.074.629.077.629.077.63.075.629.072.628.066.627.06.625.05.623.04.621.027.618.014.614-.001.611-.017.607-.035.603-.053.598-.072.594-.091.589-.111.585-.132.579-.152.575-.172.57-.192.565-.211.561-.23.556-.248.552-.265.547-.281.544-.295.541-.309.537-.32.535-.33.532-.338.53-.346.529-.349.527-.353.527-.353.526-.353.527-.35.528-.345.528-.338.53-.33.533-.32.534-.308.537-.295.541-.281.544-.265.548-.247.552-.23.556-.211.56-.192.566-.172.57-.151.575-.132.579-.111.585-.091.589-.071.594-.053.598-.034.603-.018.607v.611l.014.615.027.617.04.621.051.623.059.625.067.627.072.629.075.629.077.629.077.63.074.629.07.627.065.627.056.625.047.622.036.62.023.616.009.613-.006.61-.023.606-.041.601-.059.597-.078.592-.098.588-.118.583-.139.578-.158.573-.179.568-.199.564-.217.559-.236.554-.254.551-.27.546-.286.543-.3.539-.312.537-.324.534-.333.531-.341.53-.347.528-.351.527-.353.527-.353.526-.352.527-.349.528-.343.529-.335.531-.327.533-.317.535-.304.539-.29.541-.275.545-.259.55-.242.553-.224.557-.205.563-.185.566-.165.572-.145.576-.124.582-.105.586-.084.591-.065.595-.047.6-.028.604-.012.609.004.612.019.615.032.619.044.622.053.624.062.626.069.627.073.629.076.629.077.629.077.63.073.628.068.628.062.626.054.623.043.622.032.619.019.615.004.612-.012.608-.029.605-.047.6-.065.595-.085.591-.105.586-.125.581-.145.577-.165.571-.185.567-.205.562-.224.557-.242.554-.26.549-.275.545-.291.542-.304.538-.317.535-.326.533-.336.531-.343.529-.349.528-.352.527-.353.526-.353.527-.351.527-.347.528-.341.53-.333.531-.323.534-.313.537-.299.539-.286.543Z"/><path stroke="#000" stroke-linecap="round" stroke-linejoin="round" stroke-miterlimit="10" stroke-width="2" d="m589.21 363.023.218-.56.236-.554.253-.551m0 0 .27-.546.286-.543.299-.539.313-.537.323-.534.333-.531.341-.53.347-.528.351-.527.353-.527.353-.526.352-.527.349-.528.343-.529.336-.531.326-.533.317-.535.304-.538.291-.542.275-.545.26-.549.242-.554.224-.557.205-.562.185-.567.165-.571.145-.577.125-.581.105-.586.085-.591.065-.595.047-.6.029-.605.012-.608-.004-.612-.019-.615-.032-.619-.043-.622-.054-.623-.062-.626-.068-.628-.073-.628-.077-.63-.077-.629-.076-.629-.073-.629-.069-.627-.062-.626-.053-.624-.044-.622-.032-.619-.019-.615-.004-.612.012-.609.028-.604.047-.6.065-.595.084-.591.105-.586.124-.582.145-.576.165-.572.185-.566.205-.563.224-.557.242-.553.259-.55.275-.545.29-.541.304-.539.317-.535.327-.533.335-.531.343-.529.349-.528.352-.527.353-.526.353-.527.351-.527.347-.528.341-.53.333-.531.324-.534.312-.537.3-.539.286-.543.27-.546.254-.551.236-.554.217-.559.199-.564.179-.568.158-.573.139-.578.118-.583.098-.588.078-.592.059-.597.041-.601.023-.606.006-.61-.009-.613-.023-.616-.036-.62-.047-.622-.056-.625-.065-.627-.07-.627-.074-.629-.077-.63-.077-.629-.075-.629-.072-.629-.067-.627-.059-.625-.051-.623-.04-.621-.027-.617-.014-.615v-.611l.018-.607.034-.603.053-.598.071-.594.091-.589.111-.585.132-.579.151-.575.172-.57.192-.566.211-.56.23-.556.247-.552.265-.548.281-.544.295-.541.308-.537.32-.534.33-.533.338-.53.345-.528.35-.528.353-.527.353-.526.353-.527.349-.527.346-.529.338-.53.33-.532.32-.535.309-.537.295-.541.281-.544.265-.547.248-.552.23-.556.211-.561.192-.565.172-.57.152-.575.132-.579.111-.585.091-.589.072-.594.053-.598.035-.603.017-.607.001-.611-.014-.614-.027-.618-.04-.621-.05-.623-.06-.625-.066-.627-.072-.628-.075-.629-.077-.63-.077-.629-.074-.629-.071-.628-.064-.626-.057-.625-.047-.622-.036-.62-.023-.617-.01-.613.007-.61.022-.605.041-.602.059-.597.078-.592.097-.588.118-.583.138-.578.159-.573.178-.569.198-.563.218-.559.236-.555.253-.55.27-.547.286-.543.299-.539.313-.537.323-.533.333-.532.341-.529.347-.529.351-.527.353-.526.353-.527.352-.527.348-.528.343-.529.336-.531.327-.532.317-.536.304-.538.291-.542.275-.545.26-.549.242-.553.224-.558.204-.562.186-.567.165-.571.101-.401m-35.493 130.043 17.869 1.665 36.567-128.496-18.943-3.212m.5-3.733-.029.604-.047.6-.065.595-.085.591-.105.586-.125.581-.044.176m.5-3.733.011-.609-.004-.612-.018-.615-.032-.619-.043-.621-.054-.624-.062-.626-.068-.627-.074-.629-.076-.629-.077-.63-.076-.629-.073-.629-.069-.627-.062-.626-.053-.624-.044-.622-.032-.618-.019-.616-.004-.612.012-.608.028-.605.047-.6.065-.595.084-.591.105-.586.124-.581.145-.577.165-.571.185-.567.205-.562.224-.558.241-.553.26-.549.275-.546.29-.541.304-.539.317-.535.326-.533.336-.531.343-.529.349-.528.351-.527.354-.526.353-.527.351-.527.347-.528.341-.53.333-.531.323-.534.313-.536.3-.54.285-.542.271-.547.254-.55.236-.555.217-.559.199-.564.178-.568.159-.573.138-.578.119-.583.098-.588.078-.592.059-.597.041-.601.023-.606.006-.609-.009-.614-.023-.616-.036-.62-.047-.622-.056-.625-.065-.626-.07-.628-.074-.629-.077-.629-.077-.63-.075-.629-.072-.628-.067-.627-.059-.626-.051-.623-.04-.62-.027-.618-.015-.615.001-.61.017-.607.035-.603.052-.599.072-.594.091-.589.111-.585.132-.579.151-.575.172-.57.192-.565.211-.561.229-.556.248-.552.265-.548.28-.544.295-.54.309-.538.32-.534.33-.532.338-.531.345-.528.35-.528.352-.526.354-.527.353-.527.349-.527.345-.529.339-.53.33-.532.32-.535.309-.537.295-.54.281-.544.265-.548.248-.552.23-.556.211-.561.192-.565.172-.57.152-.575.131-.579.112-.585.091-.589.072-.594.053-.598.035-.603.017-.607.001-.611-.014-.614-.027-.618-.04-.62-.051-.623-.059-.626-.066-.627-.072-.628-.076-.629-.076-.63-.077-.629-.075-.629-.07-.628-.064-.626-.057-.625-.047-.622-.036-.62-.023-.617-.01-.613.006-.609.023-.606.041-.602.058-.597.078-.592.098-.588.118-.583.138-.578.159-.573.178-.568m-18.4 95.207-.5 3.733"/><mask id="c" fill="#fff"><path fill-rule="evenodd" d="M774.101 141.384 672.28 116.756a6.375 6.375 0 0 0-7.704 4.732l-53.738 227.65c-.622 2.637.484 5.372 2.786 6.801 10.289 6.383 38.996 23.725 56.984 29.976 9.739 3.385 25.543 2.381 40.226.184l63.267-244.715Z" clip-rule="evenodd"/><path d="M743.102 379.451c2.201-.569 3.89-2.3 4.456-4.501l56.439-219.683a6.375 6.375 0 0 0-4.676-7.783l-25.22-6.1-63.267 244.715c13.646-2.041 26.324-5.112 32.268-6.648Z"/></mask><path fill="url(#b)" fill-rule="evenodd" d="M774.101 141.384 672.28 116.756a6.375 6.375 0 0 0-7.704 4.732l-53.738 227.65c-.622 2.637.484 5.372 2.786 6.801 10.289 6.383 38.996 23.725 56.984 29.976 9.739 3.385 25.543 2.381 40.226.184l63.267-244.715Z" clip-rule="evenodd"/><path fill="#5869DD" d="M743.102 379.451c2.201-.569 3.89-2.3 4.456-4.501l56.439-219.683a6.375 6.375 0 0 0-4.676-7.783l-25.22-6.1-63.267 244.715c13.646-2.041 26.324-5.112 32.268-6.648Z"/><path fill="#000" d="m772.949 141.086-63.267 244.715 2.304.596 63.267-244.716-2.304-.595ZM670.608 385.915l.782-2.248-.782 2.248Zm40.226.184.353 2.354-.353-2.354Zm-97.21-30.16 1.255-2.023-1.255 2.023Zm133.934 19.011 2.305.592-2.305-.592Zm56.439-219.683-2.306-.593 2.306.593Zm-2.306-.593-56.438 219.684 4.61 1.184 56.439-219.683-4.611-1.185ZM613.155 349.685l53.737-227.651-4.632-1.093-53.738 227.65 4.633 1.094Zm58.235 33.982c-17.691-6.148-46.166-23.332-56.511-29.751l-2.51 4.045c10.233 6.349 39.173 23.848 57.458 30.203l1.563-4.497Zm.33-264.598 101.822 24.628 1.119-4.627-101.822-24.628-1.119 4.627Zm101.822 24.628 25.219 6.1 1.119-4.627-25.219-6.1-1.119 4.627Zm-31.035 233.45c-5.907 1.525-18.495 4.574-32.025 6.598l.705 4.708c13.761-2.059 26.528-5.152 32.51-6.698l-1.19-4.608Zm-32.025 6.598c-7.281 1.089-14.789 1.875-21.65 1.975-6.9.102-12.961-.495-17.442-2.053l-1.563 4.497c5.257 1.827 11.967 2.42 19.075 2.316 7.147-.105 14.882-.92 22.285-2.027l-.705-4.708Zm-101.96-35.154c-.853 3.615.661 7.394 3.847 9.37l2.51-4.045a3.902 3.902 0 0 1-1.724-4.231l-4.633-1.094Zm136.731 25.767c-.356 1.384-1.407 2.443-2.746 2.789l1.19 4.608c3.063-.791 5.391-3.195 6.166-6.213l-4.61-1.184Zm61.049-218.499a8.756 8.756 0 0 0-6.422-10.689l-1.119 4.627a3.995 3.995 0 0 1 2.93 4.877l4.611 1.185Zm-139.41-33.825a3.995 3.995 0 0 1 4.828-2.965l1.119-4.627a8.755 8.755 0 0 0-10.579 6.499l4.632 1.093Z" mask="url(#c)"/><path fill="#5869DD" stroke="#000" stroke-width="2.38" d="M806.037 139.126c-2.543 10.665-13.459 18.584-29.709 22.486-16.177 3.884-37.281 3.675-59.453-1.614-22.172-5.288-41.098-14.628-53.78-25.396-12.739-10.816-18.905-22.809-16.362-33.474 2.544-10.664 13.46-18.583 29.709-22.485 16.178-3.884 37.282-3.675 59.454 1.613 22.171 5.289 41.098 14.628 53.78 25.396 12.739 10.817 18.905 22.81 16.361 33.474Z"/><mask id="d" fill="#fff"><path fill-rule="evenodd" d="M806.227 143.689a21.92 21.92 0 0 0 1.787-4.822c5.469-22.665-26.599-49.644-71.625-60.26-45.026-10.617-85.96-.85-91.429 21.814-.668 2.769-.776 5.603-.368 8.463 9.77-19.178 47.952-26.822 89.642-16.993 39.525 9.32 69.065 31.248 71.993 51.798Z" clip-rule="evenodd"/></mask><path fill="#000" fill-rule="evenodd" d="M806.227 143.689a21.92 21.92 0 0 0 1.787-4.822c5.469-22.665-26.599-49.644-71.625-60.26-45.026-10.617-85.96-.85-91.429 21.814-.668 2.769-.776 5.603-.368 8.463 9.77-19.178 47.952-26.822 89.642-16.993 39.525 9.32 69.065 31.248 71.993 51.798Z" clip-rule="evenodd"/><path fill="#000" d="m808.014 138.867 2.314.558-2.314-.558Zm-1.787 4.822-2.356.336 1.062 7.448 3.415-6.704-2.121-1.08Zm-69.838-65.082.546-2.317-.546 2.317ZM644.96 100.42l2.314.559-2.314-.559Zm-.368 8.463-2.356.335 1.061 7.449 3.416-6.704-2.121-1.08Zm89.642-16.993.546-2.316-.546 2.316Zm71.467 46.417a19.577 19.577 0 0 1-1.594 4.3l4.241 2.161a24.326 24.326 0 0 0 1.98-5.344l-4.627-1.117Zm-69.858-57.385c22.229 5.242 41.142 14.5 53.762 25.117 12.737 10.716 18.506 22.28 16.096 32.268l4.627 1.117c3.058-12.676-4.472-25.933-17.658-37.027-13.304-11.193-32.937-20.733-55.735-26.108l-1.092 4.633Zm-88.569 20.057c2.412-9.998 12.854-17.75 29.119-21.631 16.115-3.845 37.221-3.667 59.45 1.574l1.092-4.633c-22.797-5.375-44.67-5.622-61.647-1.571-16.825 4.015-29.585 12.478-32.641 25.144l4.627 1.117Zm-.326 7.568c-.368-2.58-.268-5.109.326-7.568l-4.627-1.117c-.743 3.079-.859 6.216-.411 9.356l4.712-.671Zm-.235 1.416c4.385-8.608 15.465-15.088 31.18-18.117 15.595-3.006 35.219-2.49 55.795 2.36l1.092-4.632c-21.114-4.978-41.426-5.556-57.787-2.402-16.241 3.13-29.137 10.061-34.522 20.63l4.242 2.161Zm86.975-15.756c19.504 4.599 36.47 12.294 48.868 21.297 12.478 9.06 19.984 19.18 21.315 28.52l4.713-.672c-1.598-11.21-10.326-22.329-23.231-31.7-12.985-9.429-30.552-17.358-50.573-22.078l-1.092 4.633Z" mask="url(#d)"/><path fill="url(#e)" stroke="#000" stroke-width="2.38" d="M761.905 140.714c-.92 4.297-5.617 7.741-13.285 9.496-7.564 1.732-17.58 1.695-28.229-.583-10.65-2.278-19.805-6.34-25.998-11.014-6.28-4.739-9.158-9.802-8.239-14.1.919-4.297 5.616-7.741 13.285-9.497 7.564-1.731 17.579-1.694 28.229.584 10.65 2.277 19.804 6.339 25.998 11.014 6.28 4.738 9.158 9.802 8.239 14.1Z"/><path fill="url(#f)" stroke="#000" stroke-width="2.38" d="m702.364 89.378 63.488 14.873-6.867 27.493c-.997 3.993-3.578 7.282-7.308 8.443-6.653 2.071-18.097 4.114-31.828.278-13.414-3.747-20.524-9.679-24.008-13.672-2.031-2.327-2.325-5.631-1.414-8.901l7.937-28.514Z"/><path fill="url(#g)" stroke="#000" stroke-width="2.38" d="M767.078 102.103c-.782 3.656-4.778 6.638-11.415 8.171-6.534 1.509-15.196 1.488-24.413-.483-9.217-1.972-17.13-5.495-22.475-9.545-5.43-4.114-7.857-8.47-7.075-12.125.782-3.656 4.778-6.638 11.415-8.171 6.535-1.51 15.197-1.488 24.413.483 9.217 1.971 17.13 5.494 22.476 9.544 5.429 4.114 7.856 8.47 7.074 12.126Z"/><path fill="url(#h)" stroke="#000" stroke-width="2.38" d="M759.283 100.613c-.187.94-.883 1.869-2.271 2.701-1.388.833-3.357 1.496-5.815 1.918-4.905.841-11.501.679-18.601-.735-7.1-1.413-13.255-3.788-17.464-6.444-2.109-1.33-3.674-2.696-4.638-3.997-.963-1.301-1.251-2.426-1.064-3.365.187-.94.883-1.868 2.271-2.701 1.389-.833 3.358-1.496 5.815-1.917 4.906-.842 11.501-.68 18.601.734 7.1 1.413 13.255 3.788 17.465 6.444 2.108 1.33 3.674 2.697 4.637 3.998.964 1.3 1.251 2.425 1.064 3.364Z"/><path fill="url(#i)" fill-rule="evenodd" d="M646.576 97.344c-.563 1.116-2.299 9.817-3.357 15.119v.001c-.396 1.983-.697 3.49-.806 3.947-2.141 8.977 1.557 18.635 9.578 27.688L603.91 349.701a72.88 72.88 0 0 0-3.064 10.956c-.622 3.154.272 6.45 2.631 8.634 12.172 11.269 30.686 20.509 53.126 25.95 44.072 10.686 86.084.144 91.399-22.509.65-2.768 3.579-16.396 3.175-19.257-9.527 19.161-45.065 28.569-85.873 18.674-17.196-4.17-32.917-11.869-45.331-20.941l47.085-194.158c12.258 8.327 28.261 15.343 46.378 19.665 44.63 10.645 85.191.906 90.596-21.754.661-2.769 3.641-16.4 3.234-19.261-9.668 19.171-52.162 27.907-93.486 18.05-39.176-9.344-64.286-35.856-67.204-56.406Z" clip-rule="evenodd"/><path stroke="#000" stroke-width="2.38" d="M713.437 176.715c-16.721-3.989-31.641-10.273-43.478-17.764-.989-.625-1.956-1.26-2.901-1.901l-46.583 192.089a3.132 3.132 0 0 0 1.227 3.308c12.131 8.532 27.195 15.724 43.602 19.702 36.548 8.862 68.868 2.241 82.063-13.002 1.538-1.777 2.816-3.672 3.811-5.672.159 1.13-.201 3.938-.735 7.093-.819 4.836-2.047 10.489-2.44 12.164-5.315 22.653-47.328 33.195-91.399 22.509-22.44-5.441-40.955-14.681-53.127-25.951-2.359-2.184-3.252-5.479-2.631-8.633a72.884 72.884 0 0 1 3.065-10.956l48.081-205.602c-8.022-9.053-11.72-18.711-9.579-27.688.109-.457.41-1.965.806-3.948v-.001c.473-2.368 1.081-5.414 1.659-8.16.716-3.401 2.387-6.34 2.698-6.958.312 2.194-.124 4.456.684 6.758 6.757 19.257 30.527 41.302 65.52 49.648 37.262 8.888 75.475 2.659 89.716-12.707 1.553-1.675 2.82-3.459 3.771-5.344.156 1.097-.186 3.777-.704 6.821-.834 4.896-2.123 10.734-2.53 12.441-5.405 22.66-45.966 32.399-90.596 21.754Z"/><path fill="#000" d="M707.961 361.983c-.33 1.254-.916 2.231-1.759 2.933-.851.688-1.856.979-3.014.872l.405-1.541c.776-.071 1.396-.32 1.86-.747.467-.438.813-1.089 1.04-1.952.219-.832.246-1.545.083-2.137-.173-.595-.501-.955-.984-1.082-.422-.111-.811-.01-1.168.303-.367.31-.752.879-1.156 1.707l-.524 1.114c-.537 1.167-1.147 1.984-1.83 2.453-.694.466-1.431.596-2.212.391a2.537 2.537 0 0 1-1.431-.952c-.358-.479-.575-1.074-.652-1.786-.086-.715-.019-1.494.202-2.337.289-1.099.812-1.984 1.57-2.652.748-.672 1.643-1.008 2.687-1.009l-.425 1.619c-.578.068-1.071.334-1.478.798-.416.452-.713 1.021-.894 1.71-.214.812-.238 1.492-.075 2.04.156.536.481.868.974.998.401.105.773.005 1.117-.3.347-.316.699-.861 1.056-1.635l.508-1.119c.556-1.238 1.175-2.091 1.859-2.56.683-.469 1.436-.595 2.258-.379a2.622 2.622 0 0 1 1.484.999c.376.494.609 1.111.701 1.849.092.738.024 1.539-.202 2.402Zm-3.839-7.972c-1.028-.27-1.9-.757-2.615-1.461a5.53 5.53 0 0 1-1.478-2.53c-.272-.973-.273-1.973-.003-3a5.541 5.541 0 0 1 1.045-2.099 5.076 5.076 0 0 1 1.761-1.432 5.382 5.382 0 0 1 2.233-.6l-.449 1.711c-.772.138-1.431.448-1.975.931-.552.471-.93 1.096-1.135 1.877-.192.73-.186 1.44.017 2.131.203.69.572 1.292 1.107 1.807a4.33 4.33 0 0 0 1.917 1.047 4.41 4.41 0 0 0 2.199.033 4.089 4.089 0 0 0 1.837-1.033 3.909 3.909 0 0 0 1.062-1.847c.205-.781.188-1.511-.051-2.189-.247-.691-.673-1.286-1.278-1.786l.449-1.711a5.541 5.541 0 0 1 1.666 1.624c.426.639.702 1.344.83 2.113a5.72 5.72 0 0 1-.136 2.338c-.27 1.027-.757 1.899-1.461 2.615a5.706 5.706 0 0 1-2.531 1.478c-.98.259-1.983.253-3.011-.017Zm10.426-17.111c-.273 1.038-.764 1.925-1.474 2.662a5.632 5.632 0 0 1-2.538 1.508 5.712 5.712 0 0 1-3.015-.001c-1.028-.269-1.899-.762-2.612-1.476a5.478 5.478 0 0 1-1.469-2.561 5.833 5.833 0 0 1 .009-3.047 5.828 5.828 0 0 1 1.489-2.657 5.46 5.46 0 0 1 2.538-1.509c.972-.272 1.972-.273 3-.003a5.728 5.728 0 0 1 2.627 1.481 5.617 5.617 0 0 1 1.469 2.561c.257.99.248 2.004-.024 3.042Zm-1.48-.388a4.026 4.026 0 0 0-.009-2.162 4.016 4.016 0 0 0-1.084-1.833 4.214 4.214 0 0 0-1.924-1.082 4.128 4.128 0 0 0-2.192.001 3.99 3.99 0 0 0-1.861 1.06 4.012 4.012 0 0 0-1.069 1.878 4.093 4.093 0 0 0 .005 2.177c.2.7.567 1.313 1.099 1.837a4.217 4.217 0 0 0 1.913 1.063 4.31 4.31 0 0 0 2.203.018 4.179 4.179 0 0 0 1.845-1.064 4.097 4.097 0 0 0 1.074-1.893Zm.099-13.179-.53 2.019 4.47 1.174-.404 1.542-10.791-2.834 1.238-4.717c.189-.719.49-1.3.902-1.741a2.826 2.826 0 0 1 1.438-.891c.545-.153 1.121-.15 1.727.009.812.213 1.443.637 1.891 1.271.439.631.605 1.4.499 2.306l5.46-2.406-.51 1.943-5.39 2.325Zm-1.933 1.651.81-3.083c.162-.617.137-1.129-.075-1.536-.219-.42-.611-.704-1.177-.853-.565-.148-1.041-.092-1.428.169-.395.248-.673.68-.835 1.297l-.81 3.083 3.515.923Zm-.418-12.528 3.222.846 1.377-5.241 1.449.38-1.377 5.242 3.222.846 1.498-5.704 1.449.381-1.903 7.245-10.791-2.834 1.903-7.245 1.449.38-1.498 5.704ZM669.901 210.909c-.217.842-.776 1.54-1.541 2.108l-.775-.386-.029-.015c-.832-.38-2.171-1.25-1.78-2.767a2.133 2.133 0 0 1 2.595-1.534 2.137 2.137 0 0 1 1.53 2.594Zm-6.216-1.598c-.499 1.939.375 3.766 2.29 4.909-1.641.574-3.503.847-5.025.897l-.537 2.087 5.431 1.396a2.01 2.01 0 0 1 1.444 2.442 2.01 2.01 0 0 1-2.443 1.443l-5.43-1.395-.537 2.087 5.431 1.396c2.222.579 4.512-.762 5.084-2.986.572-2.223-.788-4.503-3.012-5.074l-.911-.234c.951-.189 1.932-.466 2.846-.875l5.683 2.824.549-2.136-4.122-2.047c.728-.678 1.295-1.528 1.57-2.598.588-2.288-.808-4.633-3.096-5.221a4.292 4.292 0 0 0-5.215 3.085ZM666.624 198.852l5.777.048-5.05-2.879.455-1.768 7.262 4.297-.455 1.769-5.825-.005 5.103 2.8-.455 1.768-8.434.264.454-1.768 5.812-.088-5.084-2.743.436-1.696.004.001Zm2.034-8.891a4.292 4.292 0 1 0 8.314 2.133 4.292 4.292 0 0 0-8.314-2.133Zm6.604 1.697a2.523 2.523 0 1 1-4.89-1.255 2.523 2.523 0 0 1 4.89 1.255Zm-2.244-10.394a2.219 2.219 0 0 0 1.596 2.7l3.939 1.012-.457 1.78-7.845-2.016.458-1.78 1.207.31s-1.016-1.07-.615-2.629l.141-.547 1.761.453-.185.717Zm3.395-5.495a4.294 4.294 0 0 0-3.075-3.051l-.458 1.78a2.45 2.45 0 0 1 1.763 2.981l-.062.239-6.155-1.582-.458 1.779 11.632 2.99.457-1.78-3.696-.95.055-.212a.728.728 0 0 1 .384-.44l4.092-1.642.548-2.133-5.027 2.021Z"/><path fill="#5869DD" stroke="#000" stroke-width="2.38" d="m659.785 326.71-6.22 22.021c-.646 2.288.38 4.748 2.522 5.845 6.038 3.092 10.373 4.626 16.804 4.43 3.677-.112 6.591-2.804 7.561-6.186l6.81-23.746c.939-3.274-.598-6.969-4.013-8.101-4.057-1.344-6.927-1.464-9.211-1.312-.689.046-1.372.123-1.975.191-.335.037-.646.072-.92.098-.826.076-1.496.091-2.144-.027-.864-.156-1.608-.123-2.258.113-.658.24-1.093.645-1.402 1.006-.507.59-1.166 1.06-1.953 1.621-.271.194-.557.398-.858.621-1.058.788-2.293 1.834-2.743 3.426Z"/><path fill="url(#j)" stroke="#000" stroke-width="2.38" d="m660.829 320.303-5.827 23.748a5.09 5.09 0 0 0 3.083 5.945l.435-1.107-.435 1.107c5.609 2.204 7.885 3.025 12.644 3.22 3.247.133 6.013-2.137 6.793-5.199l5.501-21.59c.802-3.147-1.497-6.044-4.498-6.552-2.207-.374-3.793-.895-5.548-1.48l-.088-.029c-1.742-.58-3.645-1.214-6.383-1.767-2.625-.53-5.064 1.202-5.677 3.704Z"/><path fill="#000" d="M665.588 341.741c.275-1.234.826-2.109 1.653-2.626.826-.516 1.796-.65 2.909-.402.718.161 1.313.469 1.785.924.472.456.791 1.021.959 1.696.161.662.153 1.388-.023 2.177a4.6 4.6 0 0 1-.815 1.793c-.399.506-.88.898-1.441 1.176a3.894 3.894 0 0 1-1.823.389l.335-1.502c.647-.089 1.176-.321 1.589-.696.415-.386.695-.902.84-1.549.167-.749.09-1.382-.23-1.899-.317-.528-.84-.873-1.569-1.035-.708-.158-1.319-.061-1.833.292-.512.342-.854.903-1.028 1.681-.104.466-.111.9-.02 1.302.081.401.238.744.471 1.029l-.362 1.624-5.548-2.051 1.446-6.478 1.396.311-1.198 5.371 2.931 1.069a3.557 3.557 0 0 1-.436-1.26 3.451 3.451 0 0 1 .012-1.336Zm7.126-6.097 1.669.373-.372 1.669-1.669-.373.372-1.669Zm3.192-5.735c-.204.911-.604 1.66-1.203 2.249-.609.586-1.365.975-2.267 1.166-.913.19-1.916.162-3.009-.082-1.092-.243-2.006-.644-2.742-1.201-.746-.559-1.265-1.233-1.556-2.02-.302-.789-.351-1.639-.148-2.549.203-.911.609-1.659 1.218-2.245.598-.589 1.354-.978 2.267-1.167.903-.191 1.9-.165 2.993.079 1.092.243 2.012.645 2.758 1.204.735.557 1.254 1.231 1.556 2.02.291.787.336 1.636.133 2.546Zm-1.412-.314c.21-.941.016-1.76-.583-2.456-.596-.707-1.526-1.201-2.791-1.483-1.264-.282-2.316-.23-3.156.156-.838.375-1.362 1.034-1.572 1.974-.21.941-.017 1.765.58 2.471.598.697 1.53 1.186 2.794 1.468 1.264.282 2.316.235 3.153-.14.84-.386 1.366-1.05 1.575-1.99Z"/><path fill="#F1EFED" stroke="#000" stroke-width="2.38" d="m900.982 304.492.031-.031.028-.034c1.899-2.269 4.334-3.304 6.576-2.847.203.041.402.094.596.158l.118.038.123.014c.277.03.555.073.834.13l23.346 4.757-4.065 19.952-23.346-4.757a9.314 9.314 0 0 1-.818-.206l-.119-.036-.124-.011a5.33 5.33 0 0 1-.61-.087c-2.243-.457-4.078-2.363-4.938-5.194l-.013-.042-.015-.04a8.995 8.995 0 0 1-.419-5.051l.454-2.229a9 9 0 0 1 2.361-4.484Z"/><path fill="#000" stroke="#000" stroke-width="2.38" d="M937.287 318.015c-.591 2.902-1.823 5.328-3.275 6.914-1.471 1.606-3.001 2.197-4.277 1.938-1.275-.26-2.453-1.404-3.178-3.457-.715-2.027-.9-4.742-.308-7.644.591-2.902 1.823-5.328 3.274-6.913 1.471-1.606 3.002-2.198 4.277-1.938 1.276.26 2.453 1.403 3.178 3.456.716 2.027.9 4.742.309 7.644ZM1080.97 124.396l.02-.041.02-.039c1.32-2.65 1.29-5.296-.03-7.166-.12-.169-.25-.33-.39-.482l-.08-.093-.06-.107a7.967 7.967 0 0 0-.46-.712l-13.72-19.472-16.65 11.733 13.73 19.472c.17.233.34.455.52.667l.08.095.06.109c.1.179.21.354.33.523 1.31 1.871 3.8 2.787 6.74 2.438l.04-.006.04-.002a9.007 9.007 0 0 0 4.8-1.644l1.85-1.31a8.966 8.966 0 0 0 3.16-3.963Z"/><path fill="#F1EFED" stroke="#000" stroke-width="2.38" d="M1054.01 96.575c-2.42 1.706-4.15 3.809-5.01 5.775-.88 1.991-.81 3.631-.06 4.695.75 1.064 2.27 1.683 4.44 1.522 2.14-.158 4.7-1.079 7.12-2.786 2.42-1.706 4.15-3.808 5.02-5.775.88-1.99.81-3.63.06-4.695-.75-1.063-2.27-1.682-4.44-1.522-2.15.158-4.71 1.08-7.13 2.786Z"/><defs><linearGradient id="b" x1="605.709" x2="736.79" y1="232.214" y2="328.131" gradientUnits="userSpaceOnUse"><stop stop-color="#D6FFBB"/><stop offset="1" stop-color="#5869DD"/></linearGradient><linearGradient id="e" x1="674.363" x2="743.254" y1="126.556" y2="91.429" gradientUnits="userSpaceOnUse"><stop stop-color="#D6FFBB"/><stop offset="1" stop-color="#5869DD"/></linearGradient><linearGradient id="f" x1="681.116" x2="721.745" y1="118.559" y2="195.676" gradientUnits="userSpaceOnUse"><stop stop-color="#D6FFBB"/><stop offset="1" stop-color="#5869DD"/></linearGradient><linearGradient id="g" x1="703.071" x2="784.738" y1="132.168" y2="86.899" gradientUnits="userSpaceOnUse"><stop stop-color="#D6FFBB"/><stop offset="1" stop-color="#5869DD"/></linearGradient><linearGradient id="h" x1="711.851" x2="764.96" y1="118.663" y2="80.795" gradientUnits="userSpaceOnUse"><stop stop-color="#5869DD"/><stop offset="1" stop-color="#D6FFBB"/></linearGradient><linearGradient id="i" x1="612.266" x2="733.605" y1="219.138" y2="260.222" gradientUnits="userSpaceOnUse"><stop stop-color="#D6FFBB"/><stop offset="1" stop-color="#5869DD"/></linearGradient><linearGradient id="j" x1="653.103" x2="675.103" y1="327.981" y2="354.255" gradientUnits="userSpaceOnUse"><stop stop-color="#D6FFBB"/><stop offset="1" stop-color="#5869DD"/></linearGradient></defs></svg>
