<svg xmlns="http://www.w3.org/2000/svg" width="467" height="434" fill="none" viewBox="0 0 467 434"><path fill="#8F8E93" d="m44.405 184.194 7.1-2.83.387.269-7.084 2.729-.403-.168ZM65.442 174.952l15.394-5.328.555.44-15.394 5.327-.555-.439ZM98.463 166.819c5.616-1.439 11.415-2.727 17.196-3.896l.513.691c-5.78 1.169-11.561 2.338-17.176 3.777l-.533-.572ZM134.509 160.527c6.469-.558 13.135-.973 19.767-1.169l.506.98c-6.632.195-13.281.5-19.749 1.059l-.524-.87ZM173.543 159.308c6.837.174 13.855.601 20.839 1.249l.044 1.131c-6.984-.647-13.769-1.15-20.605-1.325l-.278-1.055ZM213.698 162.32a312.92 312.92 0 0 1 20.636 3.956l-.414 1.245a307.154 307.154 0 0 0-20.422-3.923l.2-1.278ZM254.656 171.446a302.322 302.322 0 0 1 19.669 5.893l-1.055 1.081a590.36 590.36 0 0 0-19.453-5.86l.839-1.114ZM291.545 183.549l9.032 4.154c1.427.721 3.088 1.355 4.515 2.077l4.282 2.164-1.731 1.22-4.282-2.165c-1.427-.721-2.874-1.321-4.301-2.043l-8.816-4.12 1.301-1.287ZM324.404 199.672c4.806 2.922 9.595 5.955 13.97 9.038l-2.167.914a244.286 244.286 0 0 0-13.772-9.007l1.969-.945ZM352.954 219.746c3.961 3.147 7.888 6.508 11.421 9.807l-2.539.698a185.548 185.548 0 0 0-11.24-9.668l2.358-.837ZM375.66 240.844l9.712 10.648-3.296.483-9.31-10.473 2.894-.658ZM393.156 260.91l7.214 11.439-3.397.296-7.027-11.292 3.21-.443ZM407.626 283.984l6.76 11.259-3.47.393-6.951-11.407 3.661-.245Z"/><path fill="#000" d="m226.617 175.207 11.594 12.158 16.549-3.894-11.595-12.157-16.548 3.893Z"/><path fill="#F1EFED" d="m248.114 155.243-4.953 16.051 11.594 12.158 4.954-16.051-11.595-12.158Z"/><path fill="#F1EFED" d="m248.114 155.243-16.548 3.893-4.954 16.051 16.549-3.893 4.953-16.051Z"/><path fill="#000" d="m231.566 159.136-.117-.498a.51.51 0 0 0-.372.347l.489.151Zm16.548-3.893.371-.353a.51.51 0 0 0-.488-.145l.117.498Zm-21.502 19.944-.489-.151a.514.514 0 0 0 .607.65l-.118-.499Zm.005.02-.117-.499a.512.512 0 0 0-.254.852l.371-.353Zm11.594 12.158-.37.353a.51.51 0 0 0 .488.145l-.118-.498Zm16.549-3.894.117.499a.514.514 0 0 0 .253-.852l-.37.353Zm-11.595-12.157.371-.354a.513.513 0 0 0-.488-.145l.117.499Zm11.59 12.138-.371.353a.51.51 0 0 0 .86-.202l-.489-.151Zm4.954-16.051.489.151a.513.513 0 0 0-.119-.505l-.37.354Zm-28.026-7.766 16.549-3.893-.235-.997-16.548 3.893.234.997Zm15.942-4.543-4.954 16.051.979.302 4.954-16.051-.979-.302Zm-4.582 15.703-16.548 3.894.235.997 16.548-3.893-.235-.998Zm-15.941 4.543 4.953-16.051-.978-.302-4.954 16.051.979.302Zm-.856.222 11.595 12.158.741-.707-11.594-12.158-.742.707Zm12.083 12.303 16.548-3.893-.235-.997-16.548 3.893.235.997Zm16.801-4.745-11.594-12.158-.742.707 11.595 12.158.741-.707Zm-12.082-12.303-16.548 3.893.234.998 16.549-3.894-.235-.997Zm-.258.833 11.594 12.157.742-.707-11.595-12.157-.741.707Zm12.454 11.955 4.954-16.051-.979-.302-4.953 16.051.978.302Zm4.835-16.556-11.594-12.157-.741.707 11.594 12.157.741-.707Z"/><path fill="#F1EFED" stroke="#000" stroke-width="1.219" d="m309.648 187.914.02-.01.019-.012c2.196-1.379 4.586-1.63 6.443-.593.167.093.327.195.48.304l.051.037.058.026c.227.101.451.213.672.336l17.953 10.016-8.78 15.598-17.957-10.019a8.024 8.024 0 0 1-.638-.395l-.052-.036-.059-.024a4.904 4.904 0 0 1-.511-.248c-1.856-1.035-2.888-3.194-2.854-5.776l.001-.023-.002-.022a7.893 7.893 0 0 1 1.006-4.361l.938-1.666a7.943 7.943 0 0 1 3.212-3.132Z"/><path fill="#000" stroke="#000" stroke-width="1.219" d="M335.684 208.169c-1.232 2.206-2.899 3.86-4.568 4.766-1.677.91-3.27 1.028-4.468.355s-1.929-2.097-2.031-4.007c-.101-1.901.436-4.19 1.668-6.395 1.233-2.205 2.899-3.859 4.569-4.765 1.677-.91 3.27-1.028 4.468-.355 1.197.673 1.929 2.097 2.03 4.007.101 1.9-.436 4.189-1.668 6.394Z"/></svg>
