<svg xmlns="http://www.w3.org/2000/svg" width="355" height="241" fill="none" viewBox="0 0 355 241"><path fill="#000" d="m22.046 39.909 6.79-.934.231.347-6.742.842-.279-.255ZM43.137 37.729l15.003.085.376.53-15.003-.084-.376-.531ZM74.187 39.631c5.36.508 10.845 1.196 16.283 1.976l.283.723c-5.439-.78-10.877-1.56-16.237-2.069l-.33-.63ZM107.351 44.306c5.766 1.173 11.655 2.534 17.445 4.093l.122 1.057c-5.789-1.558-11.629-3.018-17.394-4.19l-.173-.96ZM141.451 54.108a257.31 257.31 0 0 1 17.681 6.702l-.325 1.08c-5.852-2.461-11.578-4.735-17.454-6.711l.098-1.071ZM175.903 68.216a256.449 256.449 0 0 1 16.636 9.206l-.759 1.066a251.196 251.196 0 0 0-16.461-9.118l.584-1.154ZM208.336 87.7a248.736 248.736 0 0 1 15.174 10.778l-1.262.74A485.272 485.272 0 0 0 207.25 88.53l1.086-.83ZM236.582 109.088l6.636 5.952c1.032.994 2.286 1.982 3.318 2.976l3.096 2.982-1.792.509-3.096-2.982c-1.032-.994-2.112-1.894-3.144-2.888l-6.461-5.863 1.443-.686ZM260.672 132.519c3.522 3.88 6.999 7.849 10.095 11.735l-2.169.118a239.103 239.103 0 0 0-9.927-11.65l2.001-.203ZM280.444 157.789c2.664 3.831 5.24 7.835 7.484 11.67l-2.434-.151a174.92 174.92 0 0 0-7.361-11.5l2.311-.019ZM294.348 182.125l5.654 11.949-3.038-.54-5.347-11.682 2.731.273ZM304.053 204.362l3.099 11.939-3.044-.705-2.977-11.759 2.922.525ZM310.442 228.558l2.754 11.656-3.136-.643-2.878-11.836 3.26.823ZM161.633 76.945l9.207 19.302L192.268 98l-9.206-19.302-21.429-1.753Z"/><path fill="#F1EFED" d="m195.286 61.124-12.222 17.549 9.206 19.302 12.222-17.55-9.206-19.301Z"/><path fill="#F1EFED" d="m195.286 61.124-21.429-1.753-12.222 17.549 21.429 1.753 12.222-17.55Z"/><path fill="#000" d="m173.857 59.37.082-.996a1 1 0 0 0-.902.425l.82.572Zm21.429 1.754.902-.43a1 1 0 0 0-.821-.567l-.081.997ZM161.635 76.92l-.82-.572a.998.998 0 0 0 .739 1.568l.081-.996Zm-.002.025.082-.996a1 1 0 0 0-.984 1.427l.902-.43Zm9.207 19.302-.903.43a1 1 0 0 0 .821.567l.082-.997ZM192.268 98l-.082.997a1 1 0 0 0 .985-1.427l-.903.43Zm-9.206-19.302.902-.43a1 1 0 0 0-.821-.566l-.081.996Zm9.208 19.277-.903.43a1.002 1.002 0 0 0 1.724.141l-.821-.571Zm12.222-17.55.821.572c.205-.295.236-.677.082-1.002l-.903.43Zm-30.716-20.058 21.428 1.753.163-1.993-21.428-1.753-.163 1.993Zm20.689.185-12.222 17.55 1.641 1.142 12.222-17.549-1.641-1.143Zm-11.32 17.124-21.428-1.753-.163 1.993 21.428 1.753.163-1.993Zm-20.689-.185 12.222-17.549-1.641-1.143-12.222 17.55 1.641 1.142Zm-1.725-.115 9.206 19.302 1.805-.861-9.206-19.302-1.805.86Zm10.027 19.868 21.428 1.753.164-1.993-21.429-1.753-.163 1.993Zm22.413.326-9.207-19.302-1.805.86 9.206 19.303 1.806-.861Zm-10.028-19.868-21.428-1.753-.163 1.993 21.428 1.753.163-1.993Zm-.982 1.401 9.206 19.302 1.806-.86-9.207-19.303-1.805.861Zm10.93 19.443 12.222-17.549-1.641-1.143-12.223 17.55 1.642 1.142Zm12.304-18.55-9.207-19.303-1.805.861 9.207 19.302 1.805-.86Z"/><path fill="#F1EFED" stroke="#000" stroke-width="2.38" d="m250.006 119.483.042-.012.041-.015c2.796-1.036 5.44-.723 7.167.8a5.2 5.2 0 0 1 .441.437l.083.092.101.074c.226.165.447.342.662.531l17.981 15.85-13.561 15.434-17.978-15.848a8.989 8.989 0 0 1-.611-.59l-.085-.091-.103-.071a5.183 5.183 0 0 1-.488-.382l-.787.893.787-.893c-1.728-1.523-2.375-4.112-1.704-7.023l.01-.042.007-.043a9.108 9.108 0 0 1 2.17-4.635l1.513-1.722a9.086 9.086 0 0 1 4.312-2.744Z"/><path fill="#000" stroke="#000" stroke-width="2.38" d="M275.019 149.173c-1.968 2.257-4.266 3.764-6.342 4.416-2.099.659-3.763.399-4.779-.504s-1.484-2.535-1.102-4.72c.377-2.16 1.567-4.652 3.535-6.908 1.968-2.256 4.266-3.764 6.341-4.416 2.099-.659 3.763-.398 4.78.504 1.016.903 1.484 2.536 1.102 4.72-.377 2.16-1.567 4.652-3.535 6.908Z"/></svg>
