<svg xmlns="http://www.w3.org/2000/svg" width="34" height="35" fill="none" viewBox="0 0 34 35"><path fill="#000" d="M17.845 6.054c.126-.387.397-.64.713-.76.42-.158.92-.08 1.263.233.145.133.263.309.334.527l2.389 7.353c.163.5.629.84 1.155.84h7.731c.35 0 .638.132.846.336.494.484.538 1.373-.132 1.86l-6.255 4.545c-.425.309-.603.857-.44 1.357l2.388 7.354c.364 1.118-.916 2.049-1.868 1.357l-6.255-4.544a1.214 1.214 0 0 0-1.428 0l-6.255 4.544c-.545.396-1.198.26-1.588-.138a1.184 1.184 0 0 1-.28-1.22l.313-.965 2.076-6.388a1.214 1.214 0 0 0-.441-1.357l-6.256-4.545a1.314 1.314 0 0 1-.167-.145 1.168 1.168 0 0 1-.334-.766c-.03-.64.445-1.286 1.215-1.286h7.732c.526 0 .992-.338 1.155-.839l2.39-7.353Z"/><path fill="#000" d="M15.845 4.054c.297-.913 1.405-1.08 2-.504.01.008.018.017.027.027.122.126.22.285.283.477l.403 1.24 1.986 6.113c.163.5.629.84 1.155.84h7.732a1.191 1.191 0 0 1 .93.428c.358.433.405 1.103-.001 1.571-.061.071-.133.137-.216.197l-6.255 4.545c-.425.309-.603.857-.44 1.357l2.388 7.354c.364 1.118-.916 2.049-1.868 1.357l-6.255-4.544a1.214 1.214 0 0 0-1.428 0l-5.81 4.22-.445.324c-.525.382-1.15.27-1.544-.096a1.183 1.183 0 0 1-.324-1.262l2.389-7.353a1.214 1.214 0 0 0-.441-1.357l-4.757-3.456-1.499-1.089a1.327 1.327 0 0 1-.215-.197c-.646-.744-.145-2 .93-2H12.3c.526 0 .992-.338 1.155-.839l2.39-7.353Z"/><path fill="#000" d="m18.155 4.054.403 1.24c.42-.158.92-.08 1.263.233l-1.949-1.95c.122.126.22.285.283.477ZM30.36 14.246h1.07c.35 0 .638.133.846.337l-1.916-1.908c.359.433.406 1.103 0 1.571ZM5.354 15.532l-1.499-1.089a1.327 1.327 0 0 1-.094-.075l1.927 1.93a1.168 1.168 0 0 1-.334-.766ZM10.162 29.699l.314-.966-.445.323c-.525.382-1.15.27-1.544-.096l1.956 1.958a1.184 1.184 0 0 1-.28-1.22Z"/><path stroke="#000" d="M6.044 15.947a.669.669 0 0 1-.19-.44l.19.44Zm0 0-.002-.002M18.32 6.208a.526.526 0 0 1 .004-.012l1.744 5.366c.229.706.887 1.184 1.63 1.184h.105l.265.816c.229.706.887 1.184 1.63 1.184h5.177l-5.28 3.837c-.601.437-.853 1.21-.623 1.917l2.389 7.353c.214.658-.54 1.205-1.1.799l-6.254-4.545a1.714 1.714 0 0 0-2.016 0l-4.565 3.317 1.6-4.924a1.714 1.714 0 0 0-.622-1.917l-1.33-.966a1.714 1.714 0 0 0-.67-1.034l-4.531-3.291a.702.702 0 0 1 .695-.546h7.732c.743 0 1.4-.478 1.63-1.184l2.39-7.354Zm4.699 7.045-.165-.507h6.576c.181 0 .324.056.434.14l.123.124a.734.734 0 0 1 .103.736h-6.392c-.31 0-.584-.199-.68-.493Zm7.545 1.493h.866c.214 0 .378.079.495.194a.715.715 0 0 1-.075 1.098l-6.256 4.545c-.6.437-.852 1.21-.622 1.917l2.389 7.353c.214.658-.54 1.205-1.1.799l-1.23-.895c.914-.199 1.628-1.145 1.281-2.213l-2.39-7.353a.714.714 0 0 1 .26-.799l6.255-4.544c.045-.033.087-.067.127-.102ZM17.42 24.916l1.236.898a1.712 1.712 0 0 0-.664.293l-6.255 4.545a.702.702 0 0 1-.937-.084l-.001-.002a.685.685 0 0 1-.161-.713l.264-.811 5.678-4.126a.714.714 0 0 1 .84 0Zm-8.64 3.63a.683.683 0 0 1-.142-.693l2.305-7.095.874.634c.25.182.355.504.26.799l-2.026 6.233-.314.228a.699.699 0 0 1-.904-.053l-.053-.052Z"/><path fill="#F2EA86" stroke="#000" d="m17.68 4.209 2.389 7.353c.23.707.887 1.185 1.63 1.185h7.732c.692 0 .98.885.42 1.292l-6.255 4.545c-.601.436-.853 1.21-.623 1.916l2.389 7.354c.214.658-.54 1.205-1.1.798l-6.254-4.544a1.714 1.714 0 0 0-2.016 0l-6.255 4.544c-.56.407-1.313-.14-1.099-.799l2.39-7.353a1.714 1.714 0 0 0-.623-1.916l-6.256-4.545c-.56-.407-.272-1.292.42-1.292h7.732c.743 0 1.4-.479 1.63-1.185l2.39-7.353c.213-.658 1.144-.658 1.358 0Z"/></svg>
