<svg xmlns="http://www.w3.org/2000/svg" width="486" height="621" fill="none" viewBox="0 0 486 621"><path fill="#000" d="M338.858 99.85c18.119-5.037 28.225-25.597 22.573-45.922-5.653-20.325-24.923-32.719-43.041-27.682-18.119 5.037-28.225 25.598-22.573 45.923 5.653 20.325 24.923 32.718 43.041 27.681Z"/><path fill="#F2EA86" stroke="#000" stroke-miterlimit="10" stroke-width="2.377" d="M338.043 94.868c17.81-4.951 27.735-25.191 22.168-45.207-5.566-20.016-24.516-32.228-42.325-27.277-17.809 4.951-27.734 25.19-22.168 45.207 5.566 20.016 24.516 32.228 42.325 27.277Z"/><path fill="#000" d="M341.403 62.05a40.006 40.006 0 0 0 4.152-2.242c4.236-2.74 6.146-5.314 5.564-7.556-.913-3.156-6.477-4.07-13.37-3.405.498-6.809-.499-12.289-3.737-13.12-3.239-.83-6.81 3.571-9.8 9.716-5.73-3.82-11.045-5.647-13.371-3.322-1.661 1.661-1.245 4.816 1.08 9.217a38.745 38.745 0 0 0 2.491 3.903 40.146 40.146 0 0 0-4.152 2.242c-4.235 2.74-6.146 5.314-5.564 7.556.415 1.495 1.91 2.491 4.152 3.072 3.073.582 6.146.748 9.218.332-.498 6.81.499 12.29 3.738 13.12 3.238.83 6.809-3.57 9.799-9.715a29.731 29.731 0 0 0 8.305 4.069c2.159.58 3.986.415 5.149-.748 1.661-1.66 1.246-4.816-1.08-9.217-.83-1.328-1.661-2.657-2.574-3.902Zm8.138-9.466c.416 1.411-1.411 3.57-4.899 5.812-1.329.83-2.741 1.66-4.236 2.325a88.534 88.534 0 0 0-3.737-4.484c.415-1.993.664-3.902.914-5.812 6.809-.664 11.377.249 11.958 2.159ZM329.61 64.707c-1.246.332-2.408.664-3.571.913-.914-.747-1.744-1.577-2.658-2.408-.913-.83-1.744-1.744-2.491-2.574.249-1.162.498-2.325.83-3.487l.997-3.488c1.163-.415 2.325-.747 3.488-1.08 1.246-.331 2.408-.663 3.571-.913.914.748 1.744 1.578 2.658 2.408.913.83 1.744 1.744 2.491 2.575-.249 1.162-.498 2.325-.83 3.487l-.997 3.487c-1.163.416-2.325.748-3.488 1.08Zm2.907.83c-.499 1.412-.997 2.74-1.578 3.986-1.08-.747-2.243-1.66-3.405-2.574.83-.166 1.661-.415 2.491-.665l2.492-.747Zm-8.388.498c-1.495.333-2.907.499-4.236.665.167-1.329.333-2.74.582-4.235.581.581 1.162 1.162 1.744 1.827.664.58 1.246 1.162 1.91 1.743Zm-4.568-6.891c-.996-1.08-1.827-2.16-2.657-3.239 1.245-.581 2.574-1.08 3.986-1.578-.249.83-.498 1.578-.664 2.409a20.387 20.387 0 0 0-.665 2.408Zm3.82-7.39c.499-1.412.997-2.74 1.578-3.986 1.08.747 2.243 1.66 3.405 2.574-.83.166-1.661.415-2.491.664-.914.25-1.744.498-2.492.747Zm8.305-.499c1.495-.332 2.907-.498 4.236-.664-.166 1.328-.333 2.74-.582 4.235-.581-.582-1.162-1.163-1.744-1.827-.664-.581-1.245-1.163-1.91-1.744Zm4.568 6.892c.996 1.08 1.827 2.159 2.657 3.239-1.245.58-2.574 1.079-3.986 1.577.249-.83.498-1.578.664-2.408.25-.747.499-1.578.665-2.408Zm-2.658-20.925c1.993.498 3.073 4.982 2.492 11.791-1.91.25-3.904.581-5.897.997-1.495-1.329-3.072-2.491-4.65-3.654 2.906-6.145 6.062-9.632 8.055-9.134Zm-20.263 13.369c-1.91-3.57-2.409-6.31-1.412-7.39.664-.665 1.91-.748 3.571-.332a29.184 29.184 0 0 1 8.056 3.985c-.748 1.744-1.495 3.57-2.077 5.48-1.993.665-3.82 1.412-5.564 2.16-.913-1.163-1.744-2.492-2.574-3.903Zm-7.059 14.116c-.416-1.412 1.411-3.57 4.899-5.813 1.329-.83 2.741-1.66 4.236-2.325a89.023 89.023 0 0 0 3.737 4.484c-.415 1.993-.664 3.903-.913 5.813-6.81.664-11.378-.25-11.959-2.16Zm15.945 15.361c-1.993-.498-3.073-4.982-2.492-11.79 1.91-.25 3.904-.582 5.897-.997 1.495 1.328 3.072 2.491 4.65 3.653-2.906 6.145-6.062 9.633-8.055 9.134Zm21.592-5.978c-1.412 1.411-5.979.166-11.627-3.654.748-1.743 1.495-3.57 2.077-5.48 1.993-.664 3.82-1.412 5.564-2.159.913 1.246 1.744 2.657 2.574 3.986 1.993 3.487 2.492 6.227 1.412 7.307Z"/><path fill="#000" d="M330.855 57.814c.498 1.66-.498 3.321-2.159 3.82-1.661.498-3.322-.499-3.82-2.16-.499-1.66.498-3.32 2.159-3.818 1.661-.415 3.405.498 3.82 2.158ZM79.304 231.026l3.156 2.575-.166.166-3.073-2.575.083-.166ZM88.44 238.915l5.48 5.811-.248.249-5.482-5.811.25-.249ZM98.987 250.955c1.577 2.159 3.072 4.4 4.484 6.642l-.415.249c-1.412-2.241-2.824-4.483-4.402-6.642l.333-.249ZM107.374 264.655a82.043 82.043 0 0 1 3.156 7.39l-.664.249c-.914-2.491-1.91-4.982-3.073-7.39l.581-.249ZM112.939 279.768a63.132 63.132 0 0 1 1.495 7.888l-.831.083c-.332-2.657-.747-5.231-1.412-7.805l.748-.166ZM114.931 295.71c0 2.657-.166 5.397-.498 8.055l-.913-.083c.332-2.658.498-5.315.498-7.972h.913ZM113.104 311.736a59.063 59.063 0 0 1-2.242 7.723l-.997-.332a115.912 115.912 0 0 0 2.243-7.64l.996.249ZM107.872 326.932l-1.827 3.653c-.332.582-.581 1.246-.913 1.827l-.997 1.744-.996-.581.996-1.744c.332-.581.582-1.163.914-1.744l1.827-3.57.996.415ZM99.817 340.882c-1.578 2.159-3.239 4.317-4.983 6.31l-.913-.83a90.928 90.928 0 0 0 4.983-6.228l.913.748ZM89.187 353.088a92.485 92.485 0 0 1-6.063 5.313l-.83-.996a89.824 89.824 0 0 0 5.98-5.23l.913.913ZM76.73 363.218l-6.81 4.4-.747-1.245 6.727-4.235.83 1.08ZM62.861 371.521l-7.225 3.57-.581-1.328 7.142-3.487.664 1.245ZM48.327 378.413l-7.225 3.321-.664-1.328 7.308-3.404.581 1.411ZM39.94 385.139c1.245.332 2.491.415 3.82.581 1.329.084 2.657.167 3.986.167v1.494c-1.329 0-2.657-.083-4.07-.166-1.328-.083-2.74-.249-4.069-.581l.333-1.495ZM55.719 385.637l7.972-.415.083 1.578-7.972.415-.083-1.578ZM71.664 384.558l7.973-.664.166 1.578-7.973.664-.166-1.578ZM87.608 383.063l7.973-.913.166 1.661-7.972.83-.167-1.578ZM103.554 381.237l7.972-.914.166 1.661-7.972.913-.166-1.66ZM119.416 379.327l7.973-.997.249 1.744-7.973.914-.249-1.661ZM135.361 377.334l7.973-.996.166 1.661-7.89.996-.249-1.661ZM151.224 375.258l7.972-.996.249 1.661-7.972.996-.249-1.661ZM167.169 373.182l7.889-.996.25 1.577-7.973 1.08-.166-1.661ZM183.03 371.106l7.973-1.079.166 1.578-7.973 1.079-.166-1.578ZM198.893 368.948l7.972-1.08.166 1.578-7.889 1.079-.249-1.577ZM214.838 366.872l7.889-1.08.25 1.412-7.973 1.162-.166-1.494ZM230.7 364.796l7.973-1.08.166 1.329-7.973 1.08-.166-1.329ZM246.645 362.72l7.889-1.08.166 1.246-7.889 1.08-.166-1.246ZM262.507 360.644l7.972-.997.166 1.163-7.972 1.08-.166-1.246ZM278.452 358.651l7.973-.996.083 1.079-7.973 1.08-.083-1.163ZM294.314 356.741l7.973-.913.166.913-7.972.997-.167-.997ZM310.259 354.831l7.972-.83.083.83-7.889.997-.166-.997ZM326.204 353.088l7.973-.83.083.83-7.973.831-.083-.831ZM342.149 351.51l8.056-.747v.664l-7.973.831-.083-.748ZM358.178 350.015l7.972-.664.083.747-8.055.665v-.748ZM374.123 348.853l8.056-.415v.664l-7.973.415-.083-.664ZM390.234 348.106h7.973v.581l-7.973.083v-.664ZM406.262 348.438c2.657.249 5.315.581 7.972 1.329l-.166.581c-2.491-.748-5.232-1.08-7.806-1.246v-.664ZM417.723 355.745c-.416.581-.831 1.079-1.246 1.577-.415.499-.831.997-1.329 1.495-.913.996-1.827 1.909-2.824 2.906l-.415-.416a45.284 45.284 0 0 0 2.824-2.822c.415-.498.913-.997 1.329-1.495.415-.498.83-1.079 1.245-1.577l.416.332ZM406.096 366.871a116.057 116.057 0 0 1-6.644 4.484l-.332-.498a116.41 116.41 0 0 0 6.644-4.484l.332.498ZM392.476 375.424l-7.142 3.653-.249-.581 7.059-3.653.332.581ZM378.026 382.482l-7.308 3.155-.249-.581 7.308-3.155.249.581ZM363.244 388.627l-7.474 2.906-.249-.665 7.474-2.822.249.581ZM348.213 394.273l-7.558 2.575-.249-.748 7.558-2.574.249.747ZM333.015 399.421l-7.641 2.409-.249-.831 7.64-2.408.25.83ZM317.733 404.237l-7.64 2.326-.332-.914 7.723-2.242.249.83ZM302.37 408.804l-7.723 2.242-.25-.996 7.724-2.159.249.913ZM286.924 413.205l-7.724 2.159-.249-.996 7.724-2.16.249.997ZM271.476 417.523l-7.723 2.076-.332-1.163 7.806-1.993.249 1.08ZM256.029 421.675l-7.806 1.993-.249-1.163 7.723-1.993.332 1.163ZM240.5 425.744l-7.723 1.993-.333-1.246 7.724-1.993.332 1.246ZM224.97 429.812l-7.724 1.993-.332-1.328 7.723-1.994.333 1.329ZM209.439 433.798l-7.723 1.992-.415-1.411 7.806-1.993.332 1.412ZM193.91 437.783l-7.723 1.993-.416-1.412 7.807-1.992.332 1.411ZM178.463 441.852l-7.807 1.992-.415-1.494 7.807-2.076.415 1.578ZM162.933 445.921l-7.724 2.075-.498-1.66 7.806-1.993.416 1.578ZM147.403 450.073l-7.723 2.075-.415-1.66 7.723-2.076.415 1.661ZM131.956 454.307l-7.723 2.159-.499-1.744 7.807-2.075.415 1.66ZM116.51 458.625l-7.641 2.242-.498-1.661 7.64-2.241.499 1.66ZM101.146 463.192l-7.64 2.325-.582-1.744 7.723-2.325.499 1.744ZM85.865 467.925l-7.64 2.491-.581-1.744 7.64-2.491.581 1.744ZM70.667 472.99l-7.557 2.574-.665-1.744 7.558-2.656.664 1.826ZM55.552 478.305c-2.492.996-4.9 1.992-7.225 3.237l-.914-1.743a64.39 64.39 0 0 1 7.391-3.238l.748 1.744ZM42.098 485.777c-.166.249-.249.415-.332.581-.083.166 0 .25 0 .333.083.166.498.581 1.08.83 1.08.581 2.325.913 3.57 1.245l-.498 1.91c-1.328-.332-2.657-.748-3.986-1.412-.664-.415-1.412-.747-1.91-1.743a2.318 2.318 0 0 1-.083-1.661c.166-.498.415-.83.581-1.162l1.578 1.079ZM54.224 490.262l7.89.996-.25 1.993-7.972-.996.332-1.993ZM70.086 492.088l7.973.582-.166 2.076-7.973-.664.166-1.994ZM86.031 493.251l7.973.498-.083 1.993-8.056-.498.166-1.993ZM101.976 494.165l8.055.332-.083 1.993-8.055-.332.083-1.993ZM118.004 494.829l8.139.332-.083 1.993-8.139-.332.083-1.993ZM134.167 495.428l-.068 1.992 8.05.276.069-1.992-8.051-.276ZM150.227 495.991l7.972.249-.083 1.993-7.972-.249.083-1.993ZM166.255 496.489l7.972.249v1.911l-8.055-.25.083-1.91ZM182.283 496.905l7.973.249v1.91l-8.056-.166.083-1.993ZM198.312 497.403l7.972.166v1.91l-8.055-.166.083-1.91ZM214.339 497.818l7.972.166v1.91l-8.055-.249.083-1.827ZM230.368 498.233l7.973.249v1.744l-8.056-.166.083-1.827ZM246.396 498.648l7.972.249v1.744l-8.056-.166.084-1.827ZM262.424 499.146l7.972.25v1.661l-8.055-.25.083-1.661ZM278.452 499.645l7.973.332v1.495l-8.056-.167.083-1.66ZM294.481 500.226l7.972.249v1.495l-8.056-.249.084-1.495ZM310.508 500.807l7.972.332v1.412l-8.055-.332.083-1.412ZM326.537 501.471l7.973.333-.083 1.328-7.973-.332.083-1.329ZM342.564 502.219l7.973.415-.083 1.246-7.973-.332.083-1.329ZM358.593 503.132l7.972.416-.083 1.245-7.972-.498.083-1.163ZM374.538 504.128l8.056.582-.083 1.079-8.056-.498.083-1.163ZM390.566 505.374l7.973.747-.083.997-7.973-.664.083-1.08ZM406.512 506.952l7.972.996-.083.914-7.972-.914.083-.996ZM422.456 509.11l7.89 1.495-.166.831-7.89-1.412.166-.914ZM438.152 512.764c1.246.415 2.492.996 3.738 1.661.581.332 1.162.747 1.744 1.162.581.415 1.079.83 1.577 1.328l-.498.498-1.495-1.245c-.498-.415-1.079-.747-1.661-1.079-1.162-.664-2.408-1.08-3.654-1.578l.249-.747ZM448.7 524.057c.083 1.411-.166 2.74-.582 4.069-.415 1.328-.996 2.491-1.744 3.653l-.498-.332c1.329-2.242 2.242-4.816 2.159-7.39h.665ZM441.475 538.173c-1.827 1.909-3.821 3.736-5.897 5.479l-.249-.332c1.993-1.743 3.986-3.57 5.813-5.479l.333.332ZM429.183 548.552l-6.644 4.484-.166-.25 6.644-4.566.166.332ZM415.896 557.271l-3.488 1.993-.083-.083 3.405-2.076.166.166Z"/><path fill="#5869DD" d="M304.113 584.424c-80.39-34.46-139.436-59.868-139.603-59.951-.166-.084-.415-.25-.415-.25-8.388-4.816-12.291-12.87-13.62-15.61-1.411-3.072-5.232-11.044-3.488-20.427l.167-.664c.166-.664 109.871-215.891 61.87-275.261-2.824-3.405-8.222-8.968-18.603-13.203-1.079-.083-2.823-.332-4.318-1.495-2.575-1.993-2.99-5.148-3.322-8.054a25.059 25.059 0 0 1 2.242-13.867s2.243-4.567 9.551-10.462c.996-.748 2.325-1.744 4.069-1.661.664 0 1.246.249 1.578.332 11.71-11.957 26.824-30.889 34.88-57.543 1.827-5.896 3.073-11.625 3.986-16.94a50.384 50.384 0 0 1 5.98-1.992c9.799-2.574 18.602-1.412 24.416 0 78.563 33.546 136.114 59.453 151.561 67.424 3.322 1.744 9.8 5.231 14.368 12.456 5.481 8.635 5.481 18.101 4.982 23.748-5.647 24.163-11.294 48.243-16.941 72.406 1.578.166 3.986.748 5.979 2.574 3.903 3.571 3.239 9.466 2.824 12.871-.332 3.238-2.076 12.289-9.966 17.105-2.574 1.578-5.066 2.242-6.727 2.574-20.762 88.266-41.441 176.45-62.202 264.716-.25 2.408-1.08 6.145-3.738 9.549-1.245 1.661-3.321 3.737-12.54 7.224-10.132 3.903-18.021 6.809-28.153 5.397-1.993-.249-3.737-.664-4.817-.996Z"/><path fill="url(#a)" d="M298.965 582.68c-113.028-48.908-148.24-64.601-153.306-67.425-.249-.166-.415-.249-.415-.249-8.222-4.65-12.125-12.455-13.454-15.195-1.412-2.989-5.232-10.795-3.488-19.845.083-.333.083-.582.166-.665 47.669-219.545 60.209-269.283 85.207-368.842.913-3.653 3.156-11.957 10.298-16.939 9.384-6.477 19.433-3.736 20.762-3.321 50.576 22.253 101.151 44.507 151.81 66.677 2.243.747 11.295 3.986 16.859 13.701 5.232 9.134 3.986 18.018 3.571 20.426L330.44 563.416c-.333 1.577-2.658 11.293-12.208 16.773-8.803 5.065-17.523 2.989-19.267 2.491Z"/><path stroke="#000" stroke-miterlimit="10" stroke-width="2.378" d="M298.965 582.68c-113.028-48.908-148.24-64.601-153.306-67.424-.249-.166-.415-.249-.415-.249-8.222-4.65-12.125-12.456-13.454-15.196-1.412-2.989-5.232-10.794-3.488-19.845.083-.332.083-.582.166-.665 47.669-219.544 60.209-269.282 85.207-368.841.913-3.654 3.156-11.957 10.298-16.94 9.384-6.476 19.433-3.736 20.762-3.321 50.576 22.253 101.151 44.507 151.81 66.677 2.243.747 11.295 3.986 16.859 13.701 5.232 9.134 3.986 18.019 3.571 20.427L330.44 563.416c-.333 1.578-2.658 11.293-12.208 16.773-8.803 5.065-17.523 2.989-19.267 2.491Z"/><path stroke="#000" stroke-miterlimit="10" stroke-width="2.377" d="M415.73 298.534c-26.409 113.26-61.206 262.391-63.366 269.283-.83 2.74-2.491 4.982-2.491 4.982-2.99 3.986-7.142 5.48-12.54 7.224-14.035 4.401-21.011 6.56-28.901 5.314-4.152-.664-7.391-1.827-9.467-2.657M227.793 91.527c4.152-2.242 9.052-2.989 18.852-4.484 7.142-1.079 10.879-1.66 15.28-1.162 5.648.581 10.132 2.325 13.122 3.654 70.673 31.968 122.578 55.55 141.845 63.438 3.488 1.412 12.79 5.149 18.686 14.365 5.647 8.885 5.564 19.016 4.817 25.575-3.821 16.358-9.551 41.186-16.361 70.331"/><path stroke="#000" stroke-miterlimit="10" stroke-width="2.377" d="M346.717 338.806c-47.503-21.257-95.006-42.431-142.426-63.688-.499-.166-2.326-.996-3.405-3.072a6.94 6.94 0 0 1-.665-4.069l28.818-124.054c.083-.416.581-2.242 2.408-3.322 1.412-.913 2.907-.83 3.322-.747 11.377 4.982 139.852 61.363 143.423 64.352 1.744 1.412 2.575 3.155 2.575 3.155s.747 1.661.83 3.571c.166 4.65-26.492 115.419-28.485 123.888-.582 2.906-3.488 4.65-6.395 3.986Z"/><path fill="#EDEAE2" stroke="#000" stroke-miterlimit="10" stroke-width="2.377" d="M347.796 334.986c-46.34-20.675-92.764-41.351-139.104-62.027-.498-.166-2.242-.996-3.322-2.989-.914-1.744-.747-3.405-.664-3.903l27.987-120.484c.083-.415.581-2.159 2.325-3.238 1.412-.83 2.824-.83 3.239-.747 11.045 4.816 136.613 59.785 140.101 62.691 1.661 1.329 2.491 3.072 2.491 3.072s.748 1.578.831 3.488c.166 4.484-25.662 112.097-27.655 120.318-.581 2.74-3.405 4.484-6.229 3.819Z"/><path stroke="#000" stroke-miterlimit="10" stroke-width="2.377" d="m201.384 413.454-5.232 22.171c-.249.913-1.163 1.494-1.993 1.245l-13.371-5.563c-.415-.415-.997-1.079-1.246-1.993-.249-.913 0-1.744.083-2.076a7161.61 7161.61 0 0 1 5.481-20.759c-1.993-.996-4.069-1.909-6.062-2.906M189.176 387.465c1.827-7.64 3.571-15.362 5.398-23.001.249-.914 1.163-1.495 1.993-1.246l13.371 5.564c.083 0 .083.083.166.083.747.415 1.079 1.577.996 2.491v.166c-.083.581-1.079 4.816-5.149 22.17"/><path stroke="#000" stroke-miterlimit="10" stroke-width="2.377" d="M206.035 415.364c-3.073 12.954-5.398 22.42-6.063 23.914-.083.25-.415.997-1.162 1.329-.914.498-1.827.083-1.91.083-4.9-1.993-9.8-4.069-14.617-6.062-.166-.083-.664-.332-.913-.747-.415-.747-.166-1.744 0-2.325M196.567 362.886c.166-.913.416-1.744.582-2.657.083-.166.249-.581.747-.914.581-.415 1.246-.332 1.329-.332 5.232 2.242 10.381 4.567 15.613 6.809.249.166.83.498 1.162 1.329.25.581.25 1.162.25 1.411-1.827 7.806-3.654 15.611-5.398 23.333 2.574.997 14.948 5.979 16.277 6.726.249.166.498.249.498.249.498.332 1.246.831 1.744 1.661.166.249.748 1.162.665 2.242 0 .415-.084.664-.084.747-1.328 5.73-2.491 11.459-3.903 17.105 0 .166-.083.582-.415.914-.664.83-1.91.83-2.325.83-.499 0-.914-.083-1.661-.249-.831-.249-1.91-.581-3.156-1.162"/><path stroke="#000" stroke-miterlimit="10" stroke-width="2.377" d="M195.404 363.302c2.326-1.08 4.568-2.076 6.893-3.156M210.935 369.779c1.744-.914 3.488-1.91 5.232-2.824M190.754 305.094l5.481-1.993M224.637 403.242c1.744-.665 3.488-1.246 5.232-1.91M206.117 393.526c1.661-.581 3.405-1.162 5.066-1.744M170.157 378.497c2.159-.913 4.236-1.827 6.395-2.74M195.321 436.787c1.163.997 2.326 2.077 3.488 3.073M185.023 406.479c-9.965-4.65-17.107-8.137-18.104-8.635-.166-.083-.664-.332-.914-.831-.332-.581-.166-1.162-.166-1.328 1.246-5.231 2.409-10.463 3.654-15.694 0-.083.167-.664.748-.996.581-.332 1.163-.166 1.329-.166 5.896 2.74 11.792 5.563 17.689 8.303.249-1.162.498-2.325.83-3.487"/><path stroke="#000" stroke-miterlimit="10" stroke-width="2.377" d="M207.031 389.208c-.332 1.495-.664 2.989-1.079 4.484 9.55 4.567 16.443 7.971 17.44 8.386.166.083.664.333.913.831.332.581.166 1.162.166 1.328-1.245 5.232-2.408 10.463-3.654 15.694 0 .083-.166.664-.747.996-.582.333-1.163.167-1.329.167-5.813-2.575-11.627-5.066-17.357-7.64-.249.997-.415 1.91-.664 2.906M187.432 264.988c-1.91-.415-3.156-2.408-2.741-4.318l28.652-123.141c.415-1.91 2.408-3.156 4.318-2.74 1.91.415 3.156 2.408 2.741 4.317L191.75 262.248c-.415 1.992-2.408 3.238-4.318 2.74ZM213.093 320.621l-.332.831c-1.495 3.487-5.564 5.065-9.052 3.57l-14.201-6.144c-3.488-1.495-5.066-5.564-3.572-9.051l.333-.831c1.495-3.487 5.564-5.065 9.052-3.57l14.201 6.144c3.488 1.495 5.066 5.564 3.571 9.051Z"/><path stroke="#000" stroke-miterlimit="10" stroke-width="2.377" d="M188.262 306.339c.332-.581 1.328-2.325 3.405-3.155 1.162-.498 2.242-.498 2.491-.498.831 0 1.661.166 2.492.581a1224.91 1224.91 0 0 1 15.363 6.56c.831.415 2.99 1.577 4.236 4.069.747 1.577.83 2.906.913 3.238 0 .581 0 1.578-.332 2.906-.415 1.329-1.744 6.145-5.149 6.892-1.661.415-3.571-.332-4.983-.83a9.67 9.67 0 0 1-1.827-.831M276.957 343.456l5.481-1.993M299.297 358.9l-.332.83c-1.495 3.488-5.564 5.066-9.052 3.571l-14.201-6.145c-3.488-1.494-5.066-5.563-3.571-9.05l.332-.831c1.495-3.487 5.564-5.065 9.052-3.57l14.201 6.144c3.488 1.495 5.066 5.647 3.571 9.051Z"/><path stroke="#000" stroke-miterlimit="10" stroke-width="2.377" d="M274.466 344.701c.332-.581 1.329-2.325 3.405-3.155 1.162-.498 2.242-.498 2.491-.498.831 0 1.661.166 2.492.581a1218.609 1218.609 0 0 1 15.363 6.56c.831.415 2.99 1.577 4.236 4.068.747 1.578.83 2.907.913 3.239 0 .581 0 1.577-.332 2.906-.415 1.328-1.744 6.145-5.149 6.892-1.661.415-3.571-.332-4.983-.831a9.706 9.706 0 0 1-1.827-.83M321.387 362.803l5.481-1.993M343.644 378.331l-.332.83c-1.495 3.487-5.565 5.065-9.053 3.57l-14.201-6.144c-3.488-1.495-5.066-5.564-3.571-9.051l.332-.83c1.495-3.488 5.565-5.066 9.053-3.571l14.201 6.145c3.488 1.494 5.066 5.563 3.571 9.051Z"/><path stroke="#000" stroke-miterlimit="10" stroke-width="2.377" d="M318.812 364.049c.333-.582 1.329-2.325 3.405-3.156 1.163-.498 2.243-.498 2.492-.498.83 0 1.661.166 2.491.581a1218.73 1218.73 0 0 1 15.364 6.56c.831.415 2.99 1.578 4.236 4.069.747 1.577.83 2.906.913 3.238 0 .581 0 1.578-.332 2.906-.415 1.329-1.744 6.145-5.149 6.892-1.661.415-3.571-.332-4.983-.83a9.676 9.676 0 0 1-1.827-.83M363.492 343.871c-1.91-.415-3.155-2.408-2.74-4.318l28.651-123.141c.415-1.909 2.409-3.155 4.319-2.74 1.91.415 3.155 2.408 2.74 4.318l-28.651 123.141c-.415 1.993-2.409 3.238-4.319 2.74Z"/><path fill="#000" d="M391.811 214.087c.499-.166 1.246-.498 2.243-.498.332 0 .747-.083 1.328.083.997.166 2.326.831 3.073 2.076 1.08 1.661.665 3.321.581 3.654-22.007 95.739-27.82 120.234-28.319 121.729l-.166.332c-.415.997-1.246 1.91-2.242 2.491-.415.249-1.744.997-3.405.831-.581-.083-1.08-.25-1.329-.333.748 0 1.661-.166 2.409-.664 1.328-.913 1.577-2.657 1.661-2.989.664-3.737 26.907-105.04 28.402-122.228.083-.664.166-2.076-.748-3.072-.83-1.246-2.242-1.412-3.488-1.412ZM216.415 134.373c.498-.166 1.329-.498 2.242-.498.332 0 .748-.083 1.329.083.996.166 2.325.831 3.073 2.076 1.079 1.661.664 3.322.581 3.654-22.008 95.739-27.821 120.235-28.319 121.729l-.166.332c-.416.997-1.246 1.91-2.243 2.491-.415.249-1.744.997-3.405.831a7.531 7.531 0 0 1-1.328-.332c.747 0 1.661-.167 2.408-.665 1.329-.913 1.578-2.657 1.661-2.989.498-2.74 12.208-52.976 28.402-122.228.083-.166.332-1.826-.747-3.072-.748-1.162-2.076-1.661-3.488-1.412Z"/><path stroke="#000" stroke-miterlimit="10" stroke-width="2.377" d="M303.448 451.484c.333 5.896 4.983 13.12 10.464 12.373 4.402-.582 7.475-6.145 8.056-10.546.914-6.477-2.907-13.285-7.723-14.282-1.163-.249-3.405-.415-5.648.914-1.744 1.079-2.74 2.574-3.321 3.487 0 .249-2.077 3.737-1.828 8.054ZM319.892 438.365c-2.325.083-4.568.249-6.893.332"/><path stroke="#000" stroke-miterlimit="10" stroke-width="2.377" d="M320.308 463.691c-2.159 0-4.236.083-6.395.083"/><path stroke="#000" stroke-miterlimit="10" stroke-width="2.377" d="M308.266 440.109c1.91-1.91 4.235-3.238 6.726-3.238 6.81-.083 12.541 8.967 11.544 16.69-.747 5.231-4.734 11.209-9.883 11.625-1.91.166-3.82-.499-5.647-1.661M287.421 412.707c.332 5.896 4.983 13.12 10.464 12.372 4.402-.581 7.474-6.144 8.056-10.545.913-6.477-2.907-13.286-7.724-14.282-1.162-.249-3.405-.415-5.647.913-1.744 1.08-2.74 2.574-3.322 3.488 0 .249-2.076 3.736-1.827 8.054ZM303.865 399.671c-2.326.083-4.568.249-6.893.332"/><path stroke="#000" stroke-miterlimit="10" stroke-width="2.377" d="M304.279 424.997c-2.159 0-4.235.083-6.394.083"/><path stroke="#000" stroke-miterlimit="10" stroke-width="2.377" d="M292.238 401.331c1.91-1.91 4.236-3.238 6.727-3.238 6.81-.083 12.54 8.968 11.544 16.69-.748 5.231-4.734 11.21-9.883 11.625-1.91.166-3.82-.498-5.647-1.661M223.723 328.426c.333 3.737 3.488 8.304 7.142 7.889 2.907-.332 4.9-3.82 5.316-6.56.581-4.069-2.077-8.387-5.316-9.134-.747-.166-2.325-.249-3.737.498a5.846 5.846 0 0 0-2.159 2.159c-.166.249-1.495 2.491-1.246 5.148Z"/><path stroke="#000" stroke-miterlimit="10" stroke-width="2.377" d="M234.603 320.372c-1.495.083-3.073.083-4.568.166M235.101 336.398h-4.236"/><path stroke="#000" stroke-miterlimit="10" stroke-width="2.377" d="M226.796 321.369c1.246-1.163 2.824-1.993 4.484-1.993 4.568 0 8.471 5.812 7.89 10.628-.415 3.322-3.073 6.975-6.561 7.224-1.329.083-2.574-.332-3.737-1.079M257.773 430.892c.332 5.895 4.983 13.119 10.464 12.372 4.401-.581 7.474-6.145 8.055-10.545.914-6.477-2.906-13.286-7.723-14.282-1.163-.25-3.405-.416-5.647.913-1.744 1.079-2.741 2.574-3.322 3.487 0 .25-2.076 3.737-1.827 8.055ZM274.216 417.772c-2.325.083-4.567.249-6.893.332"/><path stroke="#000" stroke-miterlimit="10" stroke-width="2.377" d="M274.632 443.098c-2.159 0-4.235.083-6.395.083"/><path stroke="#000" stroke-miterlimit="10" stroke-width="2.377" d="M262.59 419.516c1.91-1.91 4.235-3.238 6.727-3.238 6.81-.083 12.54 8.967 11.543 16.69-.747 5.231-4.733 11.209-9.882 11.625-1.91.166-3.821-.499-5.648-1.661M274.299 469.254c.332 5.896 4.983 13.12 10.464 12.372 4.402-.581 7.474-6.144 8.056-10.545.913-6.477-2.907-13.286-7.724-14.282-1.162-.249-3.405-.415-5.647.913-1.744 1.08-2.741 2.574-3.322 3.488 0 .249-2.076 3.736-1.827 8.054ZM290.743 456.218c-2.326.083-4.568.249-6.893.332"/><path stroke="#000" stroke-miterlimit="10" stroke-width="2.377" d="M291.158 481.543c-2.159 0-4.235.083-6.394.083"/><path stroke="#000" stroke-miterlimit="10" stroke-width="2.377" d="M279.116 457.878c1.91-1.909 4.236-3.238 6.727-3.238 6.81-.083 12.54 8.968 11.544 16.69-.748 5.231-4.734 11.21-9.883 11.625-1.91.166-3.82-.498-5.647-1.661M190.505 382.067c-.581-.249-14.035-6.477-16.194-7.224-.166-.083-.581-.166-1.08-.166-1.079.083-1.91.913-2.408 1.661l-.249.498c-.332.664-.665 1.827-1.08 3.487M414.4 279.602c-2.076 5.646-1.91 13.534 1.246 14.946 2.242.997 6.146-1.744 7.973-3.653.747-.831 1.412-1.744 1.744-2.159.083-.166 1.744-2.408 2.657-4.816 1.329-3.322 3.073-10.712-.498-13.95-.332-.332-.914-.831-1.827-.997-3.903-1.079-9.218 4.982-11.295 10.629Z"/><path stroke="#000" stroke-miterlimit="10" stroke-width="2.377" d="M411.328 278.522c-2.74 7.224-2.408 17.604 2.159 19.68 3.239 1.411 8.305-1.329 10.631-3.322 1.827-1.495 3.488-3.903 3.571-3.986.332-.415 1.079-1.577 1.91-3.238 0 0 .996-1.993 1.578-4.069.415-1.328 3.903-12.87-1.578-17.603-.499-.415-1.329-1.08-2.575-1.412-5.647-1.328-12.872 6.56-15.696 13.95Z"/><path stroke="#000" stroke-miterlimit="10" stroke-width="2.377" d="M427.688 264.822a111.23 111.23 0 0 0-6.561-2.823c-3.073-1.246-4.734-1.827-6.893-2.242h-.083s-.83-.166-1.744 0c-3.156.498-5.647 2.823-5.647 2.823-1.91 1.661-6.561 6.726-8.388 15.61-.747 3.654-1.91 9.466 1.329 13.452.415.498.747.83 1.08 1.08.83.664 1.494.996 1.91 1.162 1.245.581 5.315 2.242 10.879 4.318M191.584 199.473c-1.993-.582-3.488-1.08-3.903-1.163-.083 0-.415-.083-.747-.332l-.166-.166c-4.817-4.318-4.236-13.452-2.492-19.098 3.488-11.625 13.537-15.112 13.703-15.112h.665c.498.083 1.079.249 1.577.332"/><path fill="#000" d="M208.609 381.237c-.333.913-.665 1.827-.665 2.823v1.162c0 .997-.415 1.91-.664 2.907-.582 1.826-.748 3.736-.914 5.729.498.249 1.08-.083 1.578-.332.665-.415 1.246-.747 1.91-1.162.332-.25.748-.499.997-.831.332-.332.498-.747.664-1.162 1.993-4.982 2.99-10.297 3.903-15.611.333-1.91.665-3.737.997-5.646.083-.582.083-1.329-.415-1.495-.831-.332-2.824 1.079-3.488 1.661-.831.747-1.246 1.827-1.661 2.823-1.08 2.823-1.412 6.061-2.242 9.134ZM222.727 412.541s-.665 1.163-.665 2.159v.914c0 .747-.664 2.241-.664 2.241-.913 1.91-.664 4.318-.166 4.484.166.083.332-.249.747-.249.333 0 .499.166.831.332.581.166 1.08.083 1.495 0 0 0 .747-.166 1.495-.747 1.993-1.661 1.079-9.632 3.737-14.282.166-.249 1.245-2.159.996-4.401-.083-.83-.249-1.079-.415-1.245-.996-.831-3.82.332-5.232 2.325-.415.498-.498.996-.83 1.909-1.246 3.405-.499 4.983-1.329 6.56ZM198.643 426.408c-.332.913-.664 1.827-.664 2.823v1.162c0 1.08-.665 2.907-.665 2.907-.332.913-.83 2.242-1.329 4.151.416.582 2.409 3.322 3.405 2.907.332-.166.499-.665.831-1.578.332-.996.249-1.329.581-2.159.249-.664.498-.996.664-1.162 1.495-2.325 1.911-9.217 3.904-15.611.415-1.412.996-2.906.249-3.903-.831-1.079-3.156-1.577-3.156-1.577s-1.329 1.992-1.661 2.823c-.996 2.906-1.412 6.144-2.159 9.217ZM414.733 293.884c.664.332 1.744.747 2.989.747 3.654 0 6.229-3.487 7.807-5.729 0 0 4.734-6.477 3.737-14.282-.166-1.495-.831-2.574-.831-2.574a9.999 9.999 0 0 0-1.411-1.827c-.166 0-.333 0-.582-.083.166.913 2.077 11.127-4.816 17.603-2.575 2.408-5.399 3.488-7.309 3.986.166.664.333 1.412.416 2.159ZM276.708 429.314c-.831.498-.416 1.91-.748 4.318 0 0 .166 1.079-.747 3.072-1.412 3.073-4.983 4.899-5.98 8.055 3.239-.332 5.648-1.412 6.81-2.491a8.28 8.28 0 0 0 1.246-1.412c.415-.664.747-1.329 1.163-2.076.498-.913 1.162-1.744 1.661-2.657 1.411-2.74 1.993-6.56.83-7.224-.415-.249-.664.166-2.159.332-1.412.166-1.661-.166-2.076.083ZM305.94 411.212c-.747.582-.249 1.91-.332 4.318 0 0 .249 1.08-.498 3.156-1.08 3.238-4.485 5.314-5.232 8.552 3.156-.581 5.481-1.91 6.561-3.072.664-.747 1.162-1.578 1.162-1.578.416-.664.665-1.411.914-2.159.415-.913.996-1.826 1.412-2.74 1.162-2.823 1.411-6.726.166-7.224-.415-.166-.665.249-2.159.498-1.246.249-1.578 0-1.994.249ZM322.052 450.322c-.747.498-.332 1.827-.581 4.235 0 0 .166 1.079-.665 3.072-1.245 3.072-4.816 4.899-5.73 8.055 3.156-.416 5.647-1.495 6.727-2.575.664-.664 1.246-1.411 1.246-1.411.415-.664.664-1.329 1.079-1.993.499-.913 1.08-1.661 1.578-2.574 1.329-2.74 1.744-6.477.582-7.058-.416-.249-.665.249-2.16.332-1.411 0-1.661-.332-2.076-.083ZM293.151 468.839c-.83.415-.498 1.827-.996 4.152 0 0 .083 1.079-.914 2.989-1.495 2.906-5.232 4.484-6.394 7.556 3.239-.166 5.73-.996 6.976-1.993.747-.581 1.328-1.328 1.328-1.328.499-.581.831-1.246 1.246-1.91.581-.83 1.246-1.578 1.744-2.491 1.578-2.574 2.325-6.311 1.163-6.975-.415-.249-.665.166-2.159.166-1.329-.083-1.578-.415-1.994-.166ZM209.108 327.264c.249.166.664.249.996.332.914.166 1.91.332 2.741 0 .415-.166.747-.498 1.079-.83.831-.747 1.578-1.495 2.077-2.408.249-.498.415-1.08.498-1.661.581-2.325.996-4.816.083-6.975-.166-.415-.498-.747-.831-.747-.249 0-.415.166-.581.249-.498.249-1.08.332-1.661.249.249.996.415 1.993.415 2.989-.083 2.408-1.578 4.484-3.239 6.228-.664.498-2.823 1.744-1.577 2.574ZM294.065 365.045c.249.249.581.415.913.498.831.332 1.744.747 2.658.498.415-.083.83-.332 1.163-.581.913-.581 1.827-1.079 2.491-1.993.332-.498.581-.996.83-1.495.997-2.158 1.911-4.483 1.412-6.808-.083-.416-.332-.831-.664-.914-.249 0-.415.083-.664.166-.499.166-1.163.166-1.661-.083 0 .997.083 1.993-.167 2.99-.498 2.325-2.408 4.151-4.401 5.48-.664.498-2.99 1.162-1.91 2.242ZM338.246 384.558c.249.249.581.332.913.498.831.332 1.827.665 2.658.415.415-.083.83-.332 1.162-.581.914-.581 1.827-1.162 2.409-2.076.332-.498.581-.996.747-1.494.914-2.159 1.744-4.567 1.163-6.892-.083-.415-.332-.831-.748-.914-.249 0-.415.083-.664.166a2.816 2.816 0 0 1-1.661 0c.083.997.166 1.993-.083 2.99-.415 2.325-2.242 4.235-4.152 5.646-.499.415-2.824 1.246-1.744 2.242Z"/><path fill="#F2EA86" stroke="#000" stroke-miterlimit="10" stroke-width="2.377" d="M281.408 214.445c15.306-2.156 25.197-21.757 22.094-43.781-3.103-22.024-18.026-38.13-33.331-35.974-15.306 2.156-25.197 21.757-22.094 43.781 3.103 22.024 18.026 38.13 33.331 35.974Z"/><path fill="#000" d="M259.27 139.854c3.238-2.99 8.055-6.311 14.118-6.975 16.443-1.827 33.883 16.69 36.79 36.037 2.657 17.188-6.312 34.626-18.769 42.597-1.993 1.246-3.82 2.159-5.149 2.657-.249 0-.498-.083-.747-.083-.25-.083-.499-.249-.748-.332a31.967 31.967 0 0 0 6.976-4.318c5.564-4.484 8.139-9.715 9.301-12.04 6.727-13.867 2.492-28.896 1.08-33.878-1.329-4.65-3.737-12.871-10.962-20.261-2.658-2.74-6.063-6.144-11.461-7.639-9.882-2.823-18.602 2.906-20.429 4.235Z"/><path fill="#000" d="M272.058 150.233c-3.321 8.469-6.56 16.939-9.882 25.492 5.066 2.74 10.215 5.397 15.281 8.137 3.986-3.653 7.972-7.307 11.958-10.877-5.73-7.64-11.543-15.196-17.357-22.752Z"/><path fill="#000" d="M263.753 179.046c4.817 6.394 9.55 12.788 14.367 19.181 3.239-6.975 6.478-14.033 9.717-21.008a83667.12 83667.12 0 0 1-9.966 9.217c-4.734-2.408-9.384-4.899-14.118-7.39Z"/><path fill="#F2EA86" stroke="#000" stroke-miterlimit="10" stroke-width="2.377" d="M335.514 280.208c15.415-14.999 19.458-35.844 9.03-46.557-10.428-10.713-31.377-7.238-46.792 7.761-15.415 15-19.458 35.844-9.03 46.557 10.428 10.714 31.377 7.239 46.792-7.761Z"/><path fill="#000" d="M334.261 228.12c2.408.415 8.471 1.827 13.537 7.058 4.899 5.065 6.062 10.877 6.477 13.452 3.322 18.35-13.703 34.21-14.616 35.04-11.295 10.214-28.818 15.86-42.936 10.38a30.455 30.455 0 0 1-4.982-2.491c-.167-.249-.25-.415-.416-.665-.083-.249-.083-.498-.166-.747 1.744.913 4.153 2.159 7.308 2.989 6.727 1.744 12.208.831 14.7.332 14.616-2.657 23.917-14.614 26.99-18.516 2.907-3.654 7.89-10.297 9.551-20.095.581-3.57 1.328-8.22-.582-13.368-3.405-9.217-12.872-12.705-14.865-13.369Z"/><path fill="#000" d="M326.371 267.229c1.993-.332 3.987-1.245 5.564-2.823 3.738-3.736 3.987-9.632.831-13.618l3.654-3.653-3.239-3.321-3.654 3.57-2.242-2.242 3.654-3.57-3.239-3.322-3.654 3.571-5.564-5.647-4.153 4.069 3.904 3.903-16.776 16.607-3.903-3.903-4.153 4.069 5.565 5.646-3.655 3.571 3.239 3.321 3.654-3.57 2.243 2.242-3.654 3.57 3.238 3.321 3.655-3.57 1.411 1.412c3.987 3.985 10.464 4.068 14.451.083 2.74-2.658 3.654-6.311 2.823-9.716Zm1.412-13.202a4.463 4.463 0 0 1-6.312 6.311l-5.564-5.564 6.312-6.227 5.564 5.48Zm-14.533 18.766-7.724-7.805 6.312-6.228 5.564 5.563 2.159 2.159a4.46 4.46 0 0 1 0 6.311 4.46 4.46 0 0 1-6.311 0Z"/><path fill="#F2EA86" stroke="#000" stroke-miterlimit="10" stroke-width="2.377" d="M452.29 64.894c15.903-13.226 21.353-32.894 12.172-43.93-9.181-11.034-29.515-9.258-45.418 3.968-15.903 13.227-21.353 32.895-12.172 43.93 9.181 11.035 29.515 9.259 45.418-3.968Z"/><path fill="#000" d="M455.036 14.937c2.159.415 6.312 1.495 10.049 4.816 0 0 3.903 3.903 5.979 9.466 1.744 4.567 1.08 16.856-6.561 28.813-1.827 2.824-12.623 19.763-32.72 22.337-5.897.747-17.606 2.242-25.164-5.979-9.218-9.964-4.235-25.242-3.986-25.99-.415 3.903-.581 11.293 3.571 18.434.914 1.66 1.993 3.072 2.99 4.318 1.578 1.08 3.82 2.325 6.81 3.404 6.311 2.16 11.626 1.661 14.035 1.412 14.201-1.495 24-12.206 27.239-15.694 3.073-3.321 8.388-9.217 10.63-18.516.831-3.405 1.91-7.723.416-12.788-2.658-9.134-11.378-13.202-13.288-14.033Z"/><path fill="#000" d="M457.527 39.266v-.083l-.083-.083c-2.574-2.657-5.149-5.23-7.723-7.888-.083-.083-.166-.083-.333-.083-8.636-.083-17.19-.083-25.827-.166-.166 0-.249 0-.249.249 0 2.574 0 5.065-.083 7.64 0 .165.083.248.249.248l33.8.25c.083-.167.166-.084.249-.084ZM431.284 51.805V51.224c.083-.083.166 0 .249 0 4.568 0 9.052.083 13.62.083h.249l-.083-.083c-2.574-2.657-5.149-5.232-7.723-7.889-.083-.083-.166-.083-.332-.083H431.201c-2.574 0-5.149 0-7.64-.083-.166 0-.249.083-.249.25 0 2.573 0 5.064-.083 7.639v6.144c0 .083.083.166.166.25 2.574 2.573 5.149 5.23 7.723 7.888 0 0 .083.083.166.083v-.166c-.083-4.65 0-9.051 0-13.452ZM467.138 460.2l17.457-12.778-2.34-21.505-17.457 12.779 2.34 21.504Z"/><path stroke="#000" stroke-linecap="round" stroke-linejoin="round" stroke-miterlimit="10" stroke-width="2" d="m444.976 429.972 2.34 21.505 19.796 8.726-2.34-21.505m-19.796-8.726 19.796 8.726m-19.796-8.726 17.456-12.778 19.797 8.726-17.457 12.778m2.366 21.502 17.457-12.778-2.34-21.505-17.457 12.779 2.34 21.504Z"/><path fill="#000" d="m420.072 532.686-15.213 15.221 16.755 62.435 30.451-30.467-5.583-20.805-15.218 15.227-.004-.014-.02.02-11.168-41.617Z"/><path fill="#F1EFED" d="m420.098 532.66-20.826-5.572-15.237 15.246 20.806 5.566 15.225-15.234.006.02.026-.026ZM368.771 557.586l20.824 5.571-5.586-20.817-15.238 15.246ZM446.502 559.05l-20.825-5.572 5.583 20.805 15.218-15.227.004.014.02-.02Z"/><path fill="#F1EFED" d="m404.859 547.907-2.405-.644-18.445-4.923 5.586 20.817.001.001-20.826-5.571 5.587 20.817 20.825 5.571 5.612 20.814 20.807 5.566.013-.013-16.755-62.435Z"/><path fill="#000" d="m384.033 542.335-.707-.707a1 1 0 0 0 .449 1.673l.258-.966Zm36.065-9.675.707.707a1 1 0 0 0-.449-1.673l-.258.966Zm-20.826-5.572.259-.966a1.002 1.002 0 0 0-.966.259l.707.707Zm5.587 20.817.965-.259a.998.998 0 0 0-.707-.707l-.258.966Zm16.76 62.455-.258.966a1 1 0 0 0 1.224-1.225l-.966.259Zm-20.825-5.571-.966.26a1 1 0 0 0 .706.705l.26-.965Zm-16.503-63.422a1 1 0 0 0-.516 1.932l.516-1.932Zm-15.521 16.218.258-.966a1 1 0 0 0-1.224 1.225l.966-.259Zm5.587 20.819-.966.259a1 1 0 0 0 .707.707l.259-.966Zm20.825 5.571.966-.26a1 1 0 0 0-.708-.706l-.258.966Zm-26.412-26.388-.708-.707c-.252.253-.35.621-.258.966l.966-.259Zm15.239-15.247.258-.966a1.003 1.003 0 0 0-.966.259l.708.707Zm5.587 20.818-.259.966a.998.998 0 0 0 1.224-1.225l-.965.259Zm31.992 47.21-.259.966a.998.998 0 0 0 .966-.259l-.707-.707Zm30.477-30.493.707.707a1 1 0 0 0 .259-.966l-.966.259Zm-5.587-20.819.966-.259a1.001 1.001 0 0 0-1.673-.447l.707.706Zm-15.238 15.247-.966.259a1 1 0 0 0 1.673.448l-.707-.707Zm-11.174-41.637.966-.259a1 1 0 0 0-1.673-.448l.707.707Zm26.436 26.384.708.707a1 1 0 0 0-.449-1.673l-.259.966Zm-20.825-5.572.259-.966a.998.998 0 0 0-1.224 1.225l.965-.259Zm5.587 20.819-.966.259a1.003 1.003 0 0 0 1.674.448l-.708-.707Zm-10.908-42.603-20.825-5.572-.517 1.932 20.825 5.572.517-1.932Zm-52.552 26.15 5.587 20.819 1.931-.518-5.587-20.819-1.931.518Zm6.294 21.526 20.826 5.571.516-1.932-20.825-5.571-.517 1.932Zm8.945-36.771 5.587 20.818 1.931-.518-5.586-20.818-1.932.518Zm6.811 19.593-20.826-5.571-.516 1.932 20.825 5.571.517-1.932Zm56.907-4.108-20.825-5.572-.517 1.932 20.825 5.572.517-1.932Zm-52.545 26.151 5.612 20.814 1.931-.521-5.611-20.813-1.932.52Zm25.148-52.256L404.152 547.2l1.414 1.413 15.213-15.22-1.415-1.414Zm-15.471 16.187 16.756 62.435 1.931-.518-16.755-62.436-1.932.519Zm18.429 62.883 30.45-30.467-1.414-1.414-30.451 30.467 1.415 1.414Zm30.709-31.433-5.583-20.805-1.932.519 5.583 20.804 1.932-.518Zm-7.257-21.252-15.217 15.226 1.415 1.414 15.217-15.227-1.415-1.413Zm-13.544 15.674-.004-.014-1.931.518.003.014 1.932-.518Zm-1.677-.462-.02.02 1.414 1.414.021-.02-1.415-1.414Zm1.653.468-11.169-41.617-1.931.518 11.168 41.617 1.932-.518Zm-7.494-20.307 5.583 20.805 1.931-.518-5.583-20.805-1.931.518Zm22.477 6.04.021-.02-1.415-1.414-.021.021 1.415 1.413Zm.259-.966-.004-.014-1.932.519.004.014 1.932-.519Zm-1.677-.461-15.218 15.226 1.415 1.414 15.217-15.227-1.414-1.413Zm-41.878-10.186 16.756 62.437 1.931-.518-16.756-62.437-1.931.518Zm16.756 62.437.004.018 1.932-.518-.005-.018-1.931.518Zm.388-78.174-.005-.02-1.932.518.006.02 1.931-.518Zm-.258.966.026-.026-1.415-1.414-.026.026 1.415 1.414Zm-22.214-7.012-15.238 15.246 1.415 1.414 15.237-15.246-1.414-1.414ZM383.776 543.3l20.806 5.566.517-1.932-20.806-5.566-.517 1.932Zm21.772 5.307 15.226-15.234-1.415-1.414-15.226 15.234 1.415 1.414Zm-21.773-5.308.001.001.517-1.932-.002-.001-.516 1.932Zm20.807 5.567.018.005.517-1.932-.018-.005-.517 1.932Zm-21.254-7.239-.002.001 1.414 1.414.002-.001-1.414-1.414Zm-14.815 16.925 20.824 5.571.517-1.932-20.824-5.571-.517 1.932Zm22.048 4.346-5.586-20.817-1.932.518 5.586 20.817 1.932-.518Zm-7.26-21.265-15.237 15.246 1.414 1.414 15.238-15.246-1.415-1.414Zm-13.823 16.66.001-.001-1.416-1.413-.001.001 1.416 1.413Zm-.449-1.673-.001-.001-.516 1.932.001.001.516-1.932Zm20.825 5.571-20.826-5.572-.517 1.932 20.826 5.572.517-1.932Zm10.68 43.563 20.795 5.58.518-1.931-20.794-5.58-.519 1.931Zm4.583-58.813-2.405-.644-.516 1.932 2.405.644.516-1.932Zm-2.405-.644-18.445-4.923-.516 1.932 18.445 4.923.516-1.932Zm-14.083 17.119.001.001 1.931-.518v-.001l-1.932.518Zm-20.825-5.57 5.587 20.817 1.931-.518-5.586-20.817-1.932.518Zm32.731 47.909 20.808 5.566.517-1.932-20.808-5.566-.517 1.932Zm21.774 5.307.013-.013-1.415-1.414-.013.014 1.415 1.413Zm-.432-1.668-.017-.005-.517 1.932.018.005.516-1.932Zm.418 1.681.014-.013-1.415-1.414-.013.013 1.414 1.414Zm-20.099-62.846 2.387.637.516-1.932-2.387-.637-.516 1.932Zm-18.421-4.928 18.421 4.928.516-1.932-18.42-4.928-.517 1.932ZM51.145 230.934l19.848-4.471 12.104-38.844-19.849 4.471-12.103 38.844Z"/><path fill="#F1EFED" d="m21.853 147.222 41.381 44.844-.004.013 19.849-4.471-41.39-44.854-19.836 4.468ZM21.84 147.225l-6.048 19.41 27.587 29.919-6.052 19.422 13.797 14.951 12.103-38.844-13.537-14.678-27.85-30.18Z"/><path fill="#000" d="m15.792 166.635-.954-.298a.999.999 0 0 0 .22.975l.734-.677Zm6.052-19.422.735-.679a1 1 0 0 0-1.69.381l.955.298Zm41.39 44.853.955.297a1 1 0 0 0-.22-.975l-.735.678Zm-7.006 19.125a1 1 0 0 0 1.91.595l-1.91-.595Zm-6.062-34.737a1 1 0 1 0-1.47 1.356l1.47-1.356Zm-12.839 39.522-.955-.297a.999.999 0 0 0 .22.975l.735-.678Zm13.797 14.951-.735.679a1 1 0 0 0 1.69-.381l-.955-.298Zm12.103-38.844.955.298a1.002 1.002 0 0 0-.22-.976l-.735.678Zm-12.082 38.851-.955-.297a1 1 0 0 0 1.174 1.272l-.22-.975Zm19.848-4.471.22.976c.348-.079.628-.337.735-.678l-.955-.298Zm12.104-38.844.954.297a.999.999 0 0 0-1.174-1.273l.22.976Zm-19.849 4.471-.22-.976a1.001 1.001 0 0 0-.735.678l.955.298Zm19.83-4.482.22.975a1 1 0 0 0 .516-1.653l-.735.678Zm-41.39-44.854.736-.678a1 1 0 0 0-.955-.298l.22.976Zm-19.848 4.471-.22-.976a1 1 0 0 0-.734.678l.954.298Zm41.39 44.854-.735.678a1 1 0 0 0 .955.297l-.22-.975Zm-19.851 4.475.955.297a1 1 0 0 0-.22-.975l-.735.678Zm-26.632-29.622L22.8 147.51l-1.91-.595-6.051 19.422 1.91.595Zm45.532 24.837-6.051 19.422 1.91.595 6.051-19.422-1.91-.595Zm-25.687 24.885 13.797 14.952 1.47-1.357-13.797-14.951-1.47 1.356Zm15.486 14.571 12.104-38.844-1.91-.595L50.17 230.63l1.91.595Zm11.884-39.82-13.796-14.951-1.47 1.356 13.796 14.951 1.47-1.356Zm-12.598 40.504 19.849-4.47-.44-1.951-19.848 4.47.44 1.951Zm20.584-5.148 12.103-38.845-1.91-.595-12.103 38.845 1.91.595Zm10.929-40.118-19.849 4.471.44 1.951 19.848-4.471-.44-1.951Zm-20.584 5.149L50.19 230.637l1.91.594 12.103-38.844-1.91-.595Zm21.52-4.862-41.39-44.854-1.47 1.356 41.39 44.854 1.47-1.356Zm-20.363 6.124 19.849-4.471-.44-1.951-19.848 4.471.44 1.951Zm-21.026 3.203-6.052 19.422 1.91.595 6.052-19.423-1.91-.594Zm-27.367-28.945 27.587 29.92 1.47-1.356-27.586-29.919-1.47 1.355Zm6.06-19.412L62.5 192.745l1.47-1.357-41.381-44.844-1.47 1.356Zm41.162 43.87-.004.012 1.91.594.004-.013-1.91-.593Zm-20.81-49.992-19.836 4.468.44 1.951 19.835-4.468-.439-1.951Zm-19.836 4.468-.012.003.439 1.951.013-.003-.44-1.951Zm-.524 1.645.009.009 1.47-1.356-.009-.01-1.47 1.357Zm-.223-.964-6.048 19.41 1.91.595 6.047-19.41-1.91-.595Zm43.076 44.478-13.537-14.677-1.47 1.355 13.537 14.678 1.47-1.356Zm-13.537-14.678-27.85-30.18-1.47 1.356 27.85 30.181 1.47-1.357ZM21.11 147.89l27.846 30.193 1.47-1.355-27.846-30.193-1.47 1.355Zm27.846 30.194 13.54 14.673 1.47-1.356-13.54-14.674-1.47 1.357Z"/><defs><linearGradient id="a" x1="64.773" x2="435.812" y1="437.258" y2="256.553" gradientUnits="userSpaceOnUse"><stop stop-color="#D6FFBB"/><stop offset="1" stop-color="#5869DD"/></linearGradient></defs></svg>
