<svg xmlns="http://www.w3.org/2000/svg" width="269" height="210" fill="none" viewBox="0 0 269 210"><path fill="#000" d="m268.86 6.73-14.986.23-.371.536 14.986-.231.371-.536ZM238.81 8.632c-5.35.562-10.824 1.304-16.25 2.138l-.276.726c5.426-.835 10.853-1.668 16.203-2.23l.323-.634ZM205.643 13.309c-5.469 1.085-11.052 2.354-16.534 3.82l-.084 1.046c5.481-1.467 11.013-2.835 16.483-3.92l.135-.946ZM172.542 23.111a231.32 231.32 0 0 0-16.729 6.425l.343 1.074c5.53-2.368 10.944-4.55 16.511-6.437l-.125-1.062ZM139.083 38.223a230.12 230.12 0 0 0-15.654 8.916l.758 1.065a225.367 225.367 0 0 1 15.489-8.831l-.593-1.15ZM107.667 56.704a224.209 224.209 0 0 0-14.21 10.491l1.23.749a438.793 438.793 0 0 1 14.043-10.405l-1.063-.835ZM79.429 78.093l-6.155 5.802c-.955.97-2.123 1.932-3.078 2.901l-2.865 2.91 1.727.527 2.865-2.91c.955-.97 1.959-1.846 2.914-2.816l5.991-5.717-1.399-.697ZM55.287 102.559c-3.486 3.919-6.926 7.925-9.987 11.845l2.168.097c3.061-3.92 6.334-7.84 9.82-11.758l-2.001-.184ZM36.51 126.836c-2.63 3.861-5.17 7.894-7.38 11.754l2.431-.175c2.21-3.86 4.628-7.721 7.257-11.582l-2.308.003ZM22.6 150.181l-5.548 12.014 3.031-.569 5.244-11.745-2.726.3ZM14.348 174.312l-3.42 11.158 3.001-.802 3.296-10.986-2.877.63ZM7.503 196.624 4.85 208.317l3.127-.673 2.776-11.876-3.25.856Z"/><path fill="#000" d="m89.436 143.584-4.872-36.924-17.15-7.254-.005-.003 2.437 18.463-34.31-14.51-.002-.019L33.1 84.893l-17.153-7.255 4.872 36.926 68.617 29.02Z"/><path fill="#F1EFED" d="m99.282 95.456-14.714 11.206-.004-.002 4.872 36.924 14.718-11.208-4.872-36.92ZM99.28 95.451 82.132 88.2 67.415 99.405l17.149 7.252L99.28 95.451ZM33.094 84.884l14.715-11.206v-.003L30.658 66.42 15.94 77.63l17.154 7.255ZM35.537 103.356l34.309 14.51-2.447-18.476-17.154-7.255-14.71 11.202.002.019Z"/><path fill="#000" d="m89.436 143.584-.39.921a1 1 0 0 0 .996-.125l-.606-.796Zm-22.027-44.18.39-.922a1 1 0 0 0-1.381 1.052l.991-.13Zm2.437 18.462-.39.921a1 1 0 0 0 1.381-1.052l-.991.131Zm-34.31-14.51-.99.131a1 1 0 0 0 .601.79l.39-.921ZM33.1 84.893l.992-.131a1 1 0 0 0-.602-.79l-.39.92Zm-17.153-7.255.39-.921a1 1 0 0 0-1.382 1.052l.992-.131Zm4.872 36.926-.992.131a1 1 0 0 0 .602.79l.39-.921Zm12.275-29.68-.39.92a1 1 0 0 0 .996-.125l-.606-.795Zm14.718-11.208.606.795a1 1 0 0 0-.217-1.716l-.39.92ZM30.658 66.42l.39-.92a1 1 0 0 0-.996.125l.606.795ZM15.94 77.63l-.606-.795a1 1 0 0 0 .216 1.716l.39-.92Zm32.86-4.088a1 1 0 0 0-1.983.262l1.983-.262Zm-13.879 29.006a1 1 0 0 0 1.212 1.591l-1.212-1.591Zm32.478-3.157.992-.131a1 1 0 0 0-.602-.79l-.39.921Zm17.169 7.272-.39.921c.33.139.71.091.996-.126l-.606-.795Zm14.718-11.208.606.795a.998.998 0 0 0-.217-1.716l-.39.92Zm-17.154-7.255.39-.921a1 1 0 0 0-.996.125l.606.795ZM67.413 99.405l-.605-.795a1 1 0 0 0 .216 1.716l.39-.92Zm31.869-3.956.991-.13a.999.999 0 0 0-1.597-.665l.606.795Zm4.872 36.926.606.796c.285-.218.432-.571.385-.927l-.991.131ZM66.418 99.534l2.436 18.463 1.983-.262-2.436-18.463-1.983.262Zm3.817 17.411-34.309-14.51-.779 1.842 34.31 14.51.778-1.842ZM33.49 83.972l-17.154-7.255-.779 1.842 17.154 7.255.78-1.842Zm-18.535-6.203 4.872 36.926 1.983-.262-4.872-36.926-1.983.262Zm5.474 37.716 68.617 29.02.78-1.842-68.617-29.02-.78 1.842Zm9.623-49.86L15.334 76.835l1.212 1.59 14.718-11.207-1.212-1.591ZM15.55 78.55l17.154 7.255.78-1.842-17.155-7.255-.779 1.842Zm34.305 14.506 17.155 7.255.779-1.842-17.154-7.255-.78 1.842Zm53.693 38.525L88.83 142.789l1.212 1.591 14.718-11.208-1.212-1.591Zm-13.12 11.872-4.873-36.924-1.983.262 4.873 36.924 1.983-.262Zm-5.475-37.714-17.15-7.254-.779 1.842 17.15 7.254.78-1.842Zm-16.934-5.537.002-.001-1.212-1.591h-.001l1.211 1.592Zm-.215-1.718-.005-.002-.78 1.842.006.002.78-1.841Zm-31.276 4.741-.002-.019-1.983.262.002.019 1.983-.262Zm-.002-.019-2.434-18.444-1.983.261 2.434 18.445 1.983-.262Zm13.113-11.867-14.71 11.203 1.211 1.591L50.85 92.93l-1.211-1.59Zm-14.71 11.203-.008.005 1.212 1.591.007-.005-1.212-1.591Zm46.597-15.139L66.809 98.61l1.212 1.591 14.716-11.207-1.211-1.591Zm3.427 18.334-17.149-7.252-.779 1.841 17.15 7.253.778-1.842Zm-.779 1.844.004.002.78-1.842-.005-.002-.779 1.842Zm1.381-1.052v-.002l-1.983.262v.002l1.983-.262Zm13.121-11.868-14.714 11.205 1.212 1.591 14.714-11.205-1.212-1.591Zm6.469 37.584-4.871-36.92-1.983.262 4.872 36.92 1.982-.262ZM98.29 95.581v.006l1.984-.261-.001-.006-1.983.261Zm1.598.67.004-.002-1.212-1.59-.004.002 1.212 1.59Zm-.218-1.72L82.52 87.277l-.779 1.841 17.149 7.253.779-1.842Zm-14.5 12.923 14.716-11.207-1.212-1.591-14.716 11.207 1.212 1.591Zm14.716-11.207.002-.001-1.212-1.591h-.002l1.212 1.592Zm-.21-1.714-.006-.003-.78 1.842.006.003.78-1.842ZM33.7 85.679l14.715-11.206-1.212-1.59-14.715 11.205L33.7 85.68Zm15.1-12.132v-.003l-1.982.262v.003l1.983-.262Zm-.601-.793L31.047 65.5l-.779 1.842 17.151 7.254.78-1.842Zm.002.001-.002-.001-.78 1.842h.003l.78-1.841Zm-1.384 1.048v.003l1.983-.262v-.003l-1.983.262Zm0 .005 2.437 18.458 1.983-.262L48.8 73.547l-1.983.261Zm1.598.665.003-.002-1.212-1.59-.003.001 1.212 1.591Zm22.422 43.262-2.446-18.476-1.983.262 2.446 18.476 1.983-.262ZM49.64 91.339l-14.718 11.208 1.212 1.591L50.85 92.93l-1.212-1.59ZM149.165 73.706l27.268-28.156-21.69 6.187-.026-.026-.004.018-5.565 21.915.017.062Z"/><path fill="#F1EFED" d="M176.433 45.55 165.901 7.798 154.717 51.71l.026.026 21.69-6.187Z"/><path fill="#F1EFED" d="m165.901 7.798-27.269 28.156 16.085 15.757 11.184-43.913ZM154.713 51.729l.004-.018-16.085-15.757 10.516 37.69 5.565-21.915Z"/><path fill="#000" d="m138.632 35.954-.718-.695c-.247.255-.34.622-.245.964l.963-.269Zm27.269-28.156.963-.269a1.001 1.001 0 0 0-1.682-.427l.719.696Zm10.532 37.752.719.696c.247-.256.34-.623.245-.965l-.964.269Zm-27.268 28.156-.963.269a1 1 0 0 0 1.681.427l-.718-.696Zm5.578-21.97-.699.715a.999.999 0 0 0 .974.247l-.275-.961Zm-.03-.007-.97-.247.97.247Zm-6.548 21.723a1 1 0 1 0 1.938.492l-1.938-.492Zm-8.814-36.802 27.268-28.157-1.437-1.39-27.268 28.156 1.437 1.39Zm25.586-28.583 10.533 37.752 1.927-.538L166.864 7.53l-1.927.538Zm10.778 36.787-27.268 28.157 1.436 1.39 27.269-28.155-1.437-1.392Zm.444-.266-21.69 6.187.549 1.923 21.69-6.187-.549-1.923Zm-20.716 6.434-.026-.025-1.4 1.428.027.026 1.399-1.429Zm-1.695.442-.005.018 1.939.494.004-.018-1.938-.494Zm-.005.019-5.565 21.916 1.939.492 5.565-21.916-1.939-.492Zm-5.559 22.43.018.062 1.926-.537-.017-.062-1.927.537Zm-.006-.514-.013.053 1.938.492.014-.053-1.939-.493Zm1.933-.023-10.516-37.69-1.926.537 10.515 37.69 1.927-.537Zm5.575-21.418L166.87 8.045l-1.939-.494-11.183 43.913 1.938.494Zm-.269-.961L139.332 35.24l-1.4 1.429 16.085 15.756 1.4-1.428Z"/></svg>
