<svg xmlns="http://www.w3.org/2000/svg" width="388" height="344" fill="none" viewBox="0 0 388 344"><path fill="#8F8E93" d="m385.015 116.026-17.142-5.462-.648.436 17.142 5.462.648-.436ZM350.998 105.892c-6.194-1.497-12.6-2.845-18.991-4.073l-.603.688c6.39 1.228 12.781 2.456 18.975 3.954l.619-.569ZM310.941 97.445c-6.49-1.028-13.178-1.896-19.831-2.5l-.51 1.144c6.653.603 13.324 1.339 19.814 2.367l.527-1.01ZM269.89 95.049a260.164 260.164 0 0 0-21.927.196l-.037 1.5c7.346-.37 14.485-.563 21.68-.314l.284-1.382ZM225.804 98.387a343.49 343.49 0 0 0-21.721 3.572l.39 1.254a336.486 336.486 0 0 1 21.497-3.542l-.166-1.284ZM182.738 106.502a268.517 268.517 0 0 0-20.687 6.215l1.106 1.406a524.065 524.065 0 0 1 20.46-6.185l-.879-1.436ZM142.086 118.57l-9.137 3.928c-1.446.686-3.123 1.279-4.569 1.964l-4.337 2.058 1.697 1.263 4.338-2.058c1.445-.686 2.907-1.25 4.353-1.935l8.922-3.9-1.267-1.32ZM105.041 136.699c-5.488 2.882-10.961 5.876-15.977 8.923l2.375.937a290.714 290.714 0 0 1 15.755-8.893l-2.153-.967ZM74.308 155.779c-4.59 3.399-9.148 7.037-13.257 10.616l2.852.84a211.545 211.545 0 0 1 13.046-10.467l-2.641-.989ZM48.527 176.873l-11.47 11.507 3.745.605 11.004-11.325-3.28-.787ZM29.318 200.9l-8.251 11.355 3.66.345 8.044-11.21-3.453-.49ZM12.68 222.976l-7.638 12.09 3.747.526 7.848-12.245-3.958-.371Z"/><path fill="#000" d="m129.102 158.103 4.549-20.629-7.745-7.179-.002-.002-2.274 10.315-15.494-14.362.002-.01 2.272-10.305-7.747-7.18-4.548 20.629 30.987 28.723Z"/><path fill="#F1EFED" d="m143.671 134.343-10.019 3.133-.001-.002-4.549 20.629 10.021-3.134 4.548-20.626ZM143.671 134.34l-7.744-7.179-10.021 3.134 7.745 7.178 10.02-3.133ZM110.408 115.925l10.02-3.133v-.002l-7.746-7.179-10.021 3.134 7.747 7.18ZM108.136 126.246l15.494 14.362 2.271-10.324-7.747-7.181-10.016 3.133-.002.01Z"/><path fill="#000" d="m129.102 158.103-.348.375a.514.514 0 0 0 .501.114l-.153-.489Zm-3.198-27.81.348-.376a.511.511 0 0 0-.848.265l.5.111Zm-2.274 10.315-.349.375a.513.513 0 0 0 .849-.265l-.5-.11Zm-15.494-14.362-.5-.11a.512.512 0 0 0 .152.486l.348-.376Zm2.274-10.315.5.111a.51.51 0 0 0-.152-.486l-.348.375Zm-7.747-7.18.348-.376a.513.513 0 0 0-.848.266l.5.11Zm-4.548 20.629-.5-.11a.512.512 0 0 0 .151.486l.349-.376Zm12.293-13.455-.348.376a.511.511 0 0 0 .501.113l-.153-.489Zm10.021-3.134.153.489a.51.51 0 0 0 .196-.864l-.349.375Zm-7.747-7.18.349-.376a.511.511 0 0 0-.501-.113l.152.489Zm-10.021 3.134-.153-.489a.513.513 0 0 0-.195.865l.348-.376Zm18.268 4.154a.513.513 0 0 0-1.001-.221l1.001.221Zm-12.949 12.85a.512.512 0 1 0 .306.977l-.306-.977Zm17.921 4.535.5.11a.512.512 0 0 0-.152-.486l-.348.376Zm7.751 7.192-.348.376a.511.511 0 0 0 .501.113l-.153-.489Zm10.022-3.134.152.489a.512.512 0 0 0 .196-.865l-.348.376Zm-7.747-7.181.348-.375a.514.514 0 0 0-.501-.114l.153.489Zm-10.021 3.134-.153-.488a.512.512 0 0 0-.196.864l.349-.376Zm17.766 4.044.5.111a.512.512 0 0 0-.653-.6l.153.489Zm-4.549 20.63.153.488a.511.511 0 0 0 .348-.378l-.501-.11Zm-13.719-24.787-2.275 10.315 1.001.221 2.274-10.315-1-.221Zm-1.426 10.05-15.494-14.361-.696.751 15.493 14.361.697-.751Zm-13.22-24.676-7.747-7.181-.696.752 7.747 7.18.696-.751Zm-8.595-6.915-4.548 20.629 1 .221 4.548-20.63-1-.22Zm-4.397 21.115 30.988 28.722.697-.751-30.988-28.722-.697.751Zm14.764-24.634-10.022 3.134.306.978 10.021-3.134-.305-.978Zm-10.217 3.999 7.747 7.18.696-.751-7.746-7.181-.697.752Zm15.493 14.358 7.747 7.181.696-.752-7.747-7.18-.696.751Zm21.165 31.001-10.022 3.134.306.978 10.021-3.135-.305-.977Zm-9.368 3.733 4.548-20.628-1.001-.221-4.548 20.628 1.001.221Zm4.396-21.114-7.745-7.179-.697.751 7.745 7.179.697-.751Zm-7.941-6.315h.001l-.306-.978v.001l.305.977Zm.197-.865-.003-.002-.696.751.002.003.697-.752Zm-17.619-3.562.002-.011-1-.22-.002.01 1 .221Zm.002-.011 2.272-10.304-1-.221-2.272 10.305 1 .22Zm9.363-3.732-10.016 3.133.306.978 10.016-3.133-.306-.978Zm-10.016 3.133-.005.002.306.977.005-.001-.306-.978Zm27.789.925-10.021 3.134.306.978 10.021-3.134-.306-.978Zm-1.775 10.426-7.744-7.179-.697.752 7.745 7.178.696-.751Zm-.697.752.002.002.697-.752-.002-.001-.697.751Zm.849-.265v-.001l-1-.221-.001.001 1.001.221Zm9.367-3.731-10.018 3.133.305.978 10.019-3.134-.306-.977Zm-3.894 21.225 4.547-20.626-1-.221-4.548 20.626 1.001.221Zm3.548-20.85-.001.003 1 .221.001-.003-1-.221Zm.652.602h.002l-.305-.978-.003.001.306.977Zm.195-.867-7.744-7.178-.697.751 7.745 7.178.696-.751Zm-10.215 3.998 10.02-3.134-.306-.977-10.02 3.134.306.977Zm10.02-3.134h.001l-.306-.978-.001.001.306.977Zm.198-.862-.003-.002-.696.751.002.003.697-.752Zm-33.461-17.552 10.02-3.133-.306-.978-10.02 3.134.306.977Zm10.367-3.512v-.002l-1-.22-.001.002 1.001.22Zm-.152-.488-7.745-7.179-.697.752 7.746 7.179.696-.752Zm.002.002-.002-.001-.696.751.001.001.697-.751Zm-.85.262v.002l1 .22.001-.001-1.001-.221Zm-.001.003-2.273 10.312 1 .221 2.274-10.312-1.001-.221Zm.654.6.001-.001-.306-.978-.001.001.306.978Zm3.549 27.437 2.271-10.324-1-.22-2.272 10.324 1.001.22Zm-6.129-18.104-10.021 3.135.306.977 10.021-3.134-.306-.978ZM234.3 120.039l22.228-16.67-16.008 1.928-.016-.021-.005.012-6.205 14.706.006.045Z"/><path fill="#F1EFED" d="m256.528 103.369-3.569-27.555-12.455 29.462.016.021 16.008-1.928ZM252.959 75.814l-22.228 16.67 9.773 12.792 12.455-29.462Z"/><path fill="#F1EFED" d="m240.499 105.288.005-.012-9.773-12.792 3.563 27.51 6.205-14.706Z"/><path fill="#000" d="m230.731 92.484-.308-.41a.513.513 0 0 0-.2.475l.508-.065Zm22.228-16.67.508-.066a.513.513 0 0 0-.816-.344l.308.41Zm3.569 27.555.308.41a.514.514 0 0 0 .2-.476l-.508.066Zm-22.228 16.67-.508.066a.514.514 0 0 0 .816.344l-.308-.41Zm6.22-14.742-.407.311c.11.144.288.219.468.198l-.061-.509Zm-.021-.009-.472-.199.472.199Zm-6.692 14.543a.512.512 0 1 0 .944.398l-.944-.398Zm-2.769-26.938 22.228-16.67-.615-.819-22.228 16.67.615.82Zm21.413-17.013 3.569 27.555 1.016-.132-3.569-27.555-1.016.132Zm3.77 27.079-22.228 16.67.615.82 22.228-16.67-.615-.82Zm.246-.098-16.009 1.928.123 1.017 16.008-1.928-.122-1.017Zm-15.54 2.125-.016-.021-.814.622.016.021.814-.622Zm-.895.091-.005.012.943.399.006-.012-.944-.399Zm-.005.012-6.205 14.706.944.398 6.205-14.706-.944-.398Zm-6.241 14.971.006.045 1.016-.132-.006-.045-1.016.132Zm.036-.265-.015.036.944.398.015-.036-.944-.398Zm.98.133-3.563-27.51-1.016.131 3.563 27.511 1.016-.132Zm6.174-14.452 12.455-29.463-.944-.399-12.455 29.463.944.399Zm-.065-.511-9.773-12.792-.814.622 9.773 12.792.814-.622Z"/></svg>
