<svg xmlns="http://www.w3.org/2000/svg" width="355" height="465" fill="none" viewBox="0 0 355 465"><g clip-path="url(#a)"><path fill="#000" d="M28.837 14.343a36.398 36.398 0 0 0-3.527 4.747 15.099 15.099 0 0 0-2.18 5.365.285.285 0 0 1-.333.245.286.286 0 0 1-.246-.332 15.432 15.432 0 0 1 2.29-5.539 37.176 37.176 0 0 1 3.6-4.747.262.262 0 0 1 .364 0 .27.27 0 0 1 .032.26ZM29.794 32.405a46.155 46.155 0 0 0 11.422 2.834.365.365 0 0 1 .317.404.364.364 0 0 1-.404.309 47.208 47.208 0 0 1-11.58-2.937.333.333 0 0 1-.183-.428.332.332 0 0 1 .428-.182ZM53.037 35.73c3.963-.11 7.886-.452 11.81-.935a.42.42 0 0 1 .46.365.412.412 0 0 1-.357.451c-3.963.476-7.926.792-11.89.903a.382.382 0 0 1-.396-.38.388.388 0 0 1 .373-.404ZM76.573 33.019l11.707-2.208a.46.46 0 0 1 .523.356.458.458 0 0 1-.357.53l-11.698 2.177a.436.436 0 0 1-.508-.348.435.435 0 0 1 .349-.5l-.016-.007ZM99.94 28.605l11.747-1.884a.483.483 0 0 1 .555.404.479.479 0 0 1-.219.489.477.477 0 0 1-.178.065l-11.738 1.844a.476.476 0 0 1-.539-.388.466.466 0 0 1 .373-.53ZM123.442 24.907l11.778-1.663a.519.519 0 0 1 .526.25.526.526 0 0 1-.033.58.531.531 0 0 1-.343.207l-11.762 1.623a.507.507 0 0 1-.485-.795.5.5 0 0 1 .319-.202ZM147.041 21.837l11.889-1.061a.557.557 0 0 1 .474.916.562.562 0 0 1-.379.2l-11.826 1.022a.545.545 0 0 1-.586-.491.536.536 0 0 1 .428-.586ZM170.805 20.176l5.952-.047h5.984a.602.602 0 0 1 .563.626.597.597 0 0 1-.634.562 27.983 27.983 0 0 0-2.941 0h-8.893a.57.57 0 0 1-.417-.963.577.577 0 0 1 .386-.178ZM194.428 23.208a8.165 8.165 0 0 1 2.441 2.08 4.6 4.6 0 0 1 .951 3.165 6.86 6.86 0 0 1-1.141 3.038 15.187 15.187 0 0 1-1.982 2.374.625.625 0 0 1-.888 0 .629.629 0 0 1-.139-.69.63.63 0 0 1 .139-.204 14.16 14.16 0 0 0 1.792-2.128 5.642 5.642 0 0 0 .951-2.461 3.329 3.329 0 0 0-.698-2.374 7.075 7.075 0 0 0-2.052-1.764.624.624 0 0 1-.283-.379.61.61 0 0 1 .069-.467.615.615 0 0 1 .84-.19ZM185.182 41.25a81.461 81.461 0 0 1-10.653 5.467.674.674 0 0 1-.888-.864.654.654 0 0 1 .357-.363 79.32 79.32 0 0 0 10.502-5.348.667.667 0 0 1 .896.213.636.636 0 0 1 .088.238.637.637 0 0 1-.116.484.644.644 0 0 1-.186.172ZM163.329 50.85l-11.461 3.3a.684.684 0 0 1-.84-.459.665.665 0 0 1 .057-.52.68.68 0 0 1 .41-.327l11.422-3.277h.039a.676.676 0 0 1 .793.46.675.675 0 0 1-.42.823ZM140.306 57.005l-11.54 2.802a.694.694 0 0 1-.741-.256.684.684 0 0 1-.115-.25.68.68 0 0 1 .268-.72.692.692 0 0 1 .247-.111l11.564-2.802a.69.69 0 0 1 .832.506.687.687 0 0 1-.507.792l-.008.04ZM117.287 62.836 105.802 65.9a.715.715 0 0 1-.864-.5.705.705 0 0 1 .499-.862l11.501-3.055a.697.697 0 0 1 .848.498.683.683 0 0 1-.068.533.695.695 0 0 1-.431.322ZM94.362 69.089l-11.366 3.435a.716.716 0 0 1-.895-.475.72.72 0 0 1 .475-.894l11.406-3.435a.722.722 0 0 1 .888.475.712.712 0 0 1-.476.886l-.032.008ZM71.766 76.306l-11.097 4.257a.738.738 0 0 1-.943-.42.735.735 0 0 1 .42-.941l11.097-4.273a.73.73 0 0 1 .983.698.719.719 0 0 1-.468.655l.008.024ZM49.882 85.383a188.558 188.558 0 0 0-10.502 5.46.737.737 0 0 1-1.007-.285.727.727 0 0 1 .278-1.005 186.414 186.414 0 0 1 10.597-5.492.738.738 0 0 1 1.056.62.728.728 0 0 1-.422.702ZM29.248 96.967c-3.32 2.129-6.578 4.352-9.701 6.742a.797.797 0 0 1-1.062-.143.74.74 0 0 1 .143-1.052c3.17-2.421 6.467-4.66 9.812-6.805a.794.794 0 0 1 1.038.23.743.743 0 0 1-.23 1.028ZM10.708 111.47a39.353 39.353 0 0 0-6.896 9.336.791.791 0 0 1-1.03.341.795.795 0 0 1-.341-1.029 40.869 40.869 0 0 1 7.133-9.7.792.792 0 0 1 1.078 0 .792.792 0 0 1 .056 1.052ZM1.565 131.842a18.035 18.035 0 0 0 1.53 5.459c.387.879.848 1.723 1.378 2.524l1.586 2.453v.063a.79.79 0 0 1-.23 1.068.792.792 0 0 1-1.078-.229l-1.633-2.556a18.198 18.198 0 0 1-1.458-2.682 19.696 19.696 0 0 1-1.657-5.926.79.79 0 0 1 .682-.854.794.794 0 0 1 .88.68ZM14.262 150.364a37.253 37.253 0 0 0 10.486 4.945.794.794 0 0 1 .532.982.79.79 0 0 1-.983.53 38.867 38.867 0 0 1-10.922-5.167.79.79 0 0 1-.198-1.092.795.795 0 0 1 1.085-.198ZM36.264 157.366c3.92.265 7.853.249 11.77-.048a.795.795 0 0 1 .84.729.793.793 0 0 1-.729.792 84.06 84.06 0 0 1-11.992.063.79.79 0 0 1 .111-1.576v.04ZM59.748 155.904l11.611-2.327h.04a.794.794 0 0 1 .904.602.79.79 0 0 1-.603.91l-11.699 2.375a.796.796 0 0 1-.911-.602.788.788 0 0 1 .353-.846.792.792 0 0 1 .305-.112h.055-.055ZM82.887 150.713l11.493-3.048a.76.76 0 0 1 .296-.023.759.759 0 0 1 .63.561.748.748 0 0 1-.266.79.746.746 0 0 1-.264.129l-11.5 3.063a.792.792 0 0 1-.936-.538.79.79 0 0 1 .547-.934ZM105.824 144.511l11.437-3.237a.794.794 0 0 1 .928.515.742.742 0 0 1-.256.786.761.761 0 0 1-.26.132l-11.437 3.253a.794.794 0 0 1-.935-.522.79.79 0 0 1 .523-.927ZM128.706 138.013l11.445-3.221a.739.739 0 0 1 .903.506.734.734 0 0 1-.507.903l-11.429 3.237a.744.744 0 0 1-.92-.506.746.746 0 0 1 .508-.911v-.008ZM151.611 131.662l11.516-2.992a.706.706 0 0 1 .548.072.716.716 0 0 1 .332.442.72.72 0 0 1-.073.548.725.725 0 0 1-.442.331l-11.493 3a.73.73 0 0 1-.552-.072.733.733 0 0 1-.264-.994.733.733 0 0 1 .443-.335h-.015ZM174.678 125.883l11.635-2.525a.713.713 0 0 1 .748 1.079.697.697 0 0 1-.446.306l-11.604 2.525a.719.719 0 0 1-.542-.094.715.715 0 0 1-.314-.452.72.72 0 0 1 .523-.839ZM198.047 121.17l11.77-1.813a.716.716 0 0 1 .792.586.705.705 0 0 1-.586.791l-11.723 1.821a.674.674 0 0 1-.272-.011.674.674 0 0 1-.43-.318.67.67 0 0 1-.09-.257.694.694 0 0 1 .586-.791l-.047-.008ZM221.652 117.987l11.834-1.148a.689.689 0 0 1 .753.61.703.703 0 0 1-.156.502.702.702 0 0 1-.463.25l-11.825 1.156a.695.695 0 0 1-.523-.14.681.681 0 0 1-.232-.749.688.688 0 0 1 .62-.481h-.008ZM245.352 115.887l11.889-.649a.67.67 0 0 1 .7.361.682.682 0 0 1 .029.544.692.692 0 0 1-.151.234.68.68 0 0 1-.507.199l-11.849.657a.683.683 0 0 1-.782-.633.675.675 0 0 1 .192-.515.689.689 0 0 1 .51-.206l-.031.008ZM269.166 115.008l11.889.325a.641.641 0 1 1 0 1.283l-11.889-.285a.656.656 0 0 1-.642-.673.666.666 0 0 1 .673-.65h-.031ZM292.957 116.344c3.963.459 7.926 1.06 11.794 1.828a.618.618 0 0 1 .388.932.603.603 0 0 1-.618.263c-3.876-.791-7.783-1.337-11.707-1.788a.628.628 0 0 1-.482-.682.628.628 0 0 1 .625-.553ZM316.352 120.994l2.861.886c.959.325 1.895.689 2.822 1.084a38.92 38.92 0 0 1 5.342 2.785.573.573 0 0 1-.61.966 37.927 37.927 0 0 0-5.192-2.691 34.824 34.824 0 0 0-2.726-1.036l-2.83-.87a.59.59 0 0 1-.107-1.08.592.592 0 0 1 .448-.044h-.008ZM335.044 134.989a7.529 7.529 0 0 1-.143 3.165 9.65 9.65 0 0 1-1.276 2.849 12.998 12.998 0 0 1-4.51 4.17.531.531 0 1 1-.539-.918 11.94 11.94 0 0 0 4.137-3.83 7.356 7.356 0 0 0 1.276-5.254.56.56 0 0 1 .452-.641.559.559 0 0 1 .634.451l-.031.008ZM317.809 149.169l-11.445 3.262a.501.501 0 0 1-.626-.533.485.485 0 0 1 .357-.417l11.413-3.285a.516.516 0 1 1 .285.989l.016-.016ZM294.884 155.514l-11.509 3a.46.46 0 0 1-.345-.047.442.442 0 0 1-.21-.278.46.46 0 0 1 .325-.562l11.493-3.039a.485.485 0 0 1 .361.053c.11.063.19.166.225.287a.477.477 0 0 1-.34.578v.008ZM271.893 161.534c-1.91.53-3.836.997-5.722 1.583l-5.675 1.71a.423.423 0 0 1-.462-.291.42.42 0 0 1 .216-.501l5.707-1.749c1.902-.586 3.82-1.053 5.73-1.583a.447.447 0 0 1 .513.124.444.444 0 0 1-.275.723l-.032-.016ZM249.519 169.224a88.964 88.964 0 0 0-10.304 5.777.385.385 0 0 1-.281.051.377.377 0 0 1-.234-.162.378.378 0 0 1 .103-.514 88.266 88.266 0 0 1 10.383-5.88.404.404 0 0 1 .539.19.392.392 0 0 1 .019.31.394.394 0 0 1-.209.228h-.016ZM229.72 182.068l-4.407 3.956a33.263 33.263 0 0 0-4.058 4.257.317.317 0 0 1-.436.056.31.31 0 0 1-.047-.436 33.204 33.204 0 0 1 4.09-4.351l4.414-4.004a.345.345 0 0 1 .576.118.348.348 0 0 1-.024.274.335.335 0 0 1-.092.106l-.016.024ZM216.078 200.692a12.277 12.277 0 0 0 .27 5.752 11.866 11.866 0 0 0 3.004 4.914.24.24 0 0 1-.171.41.242.242 0 0 1-.17-.07 12.385 12.385 0 0 1-3.17-5.095 12.84 12.84 0 0 1-.309-6.006.264.264 0 0 1 .209-.22.262.262 0 0 1 .108-.001.272.272 0 0 1 .178.111.275.275 0 0 1 .044.205h.007ZM229.364 217.547a55.178 55.178 0 0 0 11.287 3.515.172.172 0 0 1 .115.073.177.177 0 0 1 .027.133.182.182 0 0 1-.206.142 55.132 55.132 0 0 1-11.389-3.475.209.209 0 0 1-.112-.116.207.207 0 0 1 .117-.272.214.214 0 0 1 .161 0ZM252.392 222.426c3.964.15 7.933.081 11.889-.206a.106.106 0 0 1 .084.024c.011.01.02.022.026.036a.09.09 0 0 1 .009.043.104.104 0 0 1-.005.043.128.128 0 0 1-.021.038.11.11 0 0 1-.035.026.102.102 0 0 1-.042.012c-3.955.306-7.924.399-11.889.277a.15.15 0 0 1-.142-.15.151.151 0 0 1 .046-.102.155.155 0 0 1 .104-.041h-.024ZM276.071 220.906l11.707-2.043a.043.043 0 0 1 .028-.011c.01 0 .02.004.028.011a.055.055 0 0 1 .009.028c0 .01-.004.019-.009.027l-11.707 2.146a.086.086 0 0 1-.032.001.081.081 0 0 1-.029-.012.069.069 0 0 1-.022-.023.081.081 0 0 1-.012-.029.079.079 0 0 1 .014-.056.083.083 0 0 1 .049-.031l-.024-.008ZM299.398 216.39l4.756-1.062-4.756 1.086v-.024Z"/><rect width="7.53" height="18.22" x="70.391" y="37.711" fill="url(#b)" stroke="#000" stroke-linejoin="round" stroke-width="1.585" rx=".792"/><path fill="#000" fill-rule="evenodd" d="M108.216 42.86c-16.155 0-30.338 4.636-38.387 11.619-1.974 1.713-2.845 4.3-2.845 6.913v7.61l79.485-1.136-38.253-25.007Z" clip-rule="evenodd"/><path fill="#F1EFED" d="m146.469 67.866 3.737-.053.018-4.358c.017-3.942-1.279-7.89-4.443-10.244l-.003-.002c-8.436-6.27-22.409-10.35-37.562-10.35l38.253 25.007Z"/><path stroke="#000" stroke-linejoin="round" stroke-width="1.585" d="m108.216 42.86 38.253 25.006M108.216 42.86c-16.155 0-30.338 4.637-38.387 11.62m38.387-11.62c15.153 0 29.126 4.08 37.562 10.35m.691 14.657-79.485 1.135v-7.609m79.485 6.474 3.737-.053.018-4.358M69.829 54.48c-1.974 1.713-2.845 4.3-2.845 6.913m2.845-6.913c-1.973 1.712-2.845 4.302-2.845 6.913m78.794-8.183.003.002m-.003-.002.003.002m4.443 10.244c.017-3.942-1.279-7.89-4.443-10.244m4.443 10.244c.017-3.94-1.281-7.893-4.443-10.244"/><path fill="url(#c)" stroke="#000" stroke-linecap="round" stroke-linejoin="round" stroke-width="1.585" d="M66.294 62.576c-2.182 77.48-8.781 118.826-26.02 189.022h124.832c-7.123-69.037-10.2-111.625-14.854-188.324-.125-2.063-1.39-3.919-3.289-4.735-26.124-11.228-43.337-12.519-75.718-2.552-2.886.889-4.866 3.57-4.951 6.589Z"/><ellipse cx="31.907" cy="12.636" stroke="#000" stroke-linejoin="round" stroke-width="1.585" rx="31.907" ry="12.636" transform="translate(75.094 87.777) skewX(.056)"/><ellipse cx="31.895" cy="12.64" stroke="#000" stroke-linejoin="round" stroke-width="1.585" rx="31.895" ry="12.64" transform="matrix(.55102 -.8345 .83026 .55738 78.71 119.062)"/><ellipse cx="31.895" cy="12.64" stroke="#000" stroke-linejoin="round" stroke-width="1.585" rx="31.895" ry="12.64" transform="matrix(-.55134 -.83428 -.83046 .55707 135.297 119.062)"/><ellipse cx="5.418" cy="5.416" fill="#000" stroke="#000" stroke-linejoin="round" stroke-width="1.585" rx="5.418" ry="5.416" transform="translate(101.586 94.996) skewX(.056)"/><rect width="6.289" height="15.217" x="179.219" y="75.336" fill="url(#d)" stroke="#000" stroke-linejoin="round" stroke-width="1.585" rx=".662"/><path fill="#000" fill-rule="evenodd" d="M210.811 79.637c-13.492 0-25.338 3.872-32.06 9.704-1.649 1.43-2.376 3.592-2.376 5.774v6.355l66.385-.948-31.949-20.885Z" clip-rule="evenodd"/><path fill="#F1EFED" d="m242.76 100.522 3.12-.044.016-3.64c.014-3.293-1.069-6.592-3.713-8.557-7.047-5.237-18.716-8.644-31.372-8.644l31.949 20.885Z"/><path stroke="#000" stroke-linejoin="round" stroke-width="1.585" d="m210.811 79.637 31.949 20.885m-31.949-20.885c-13.492 0-25.338 3.872-32.06 9.704m32.06-9.704c12.656 0 24.325 3.407 31.372 8.644m.577 12.241-66.385.948v-6.355m66.385 5.407 3.12-.044.016-3.64m-67.145-7.497c-1.649 1.43-2.376 3.592-2.376 5.774m2.376-5.774c-1.648 1.43-2.376 3.593-2.376 5.774m65.808-6.834c2.644 1.965 3.727 5.264 3.713 8.557m-3.713-8.557c2.642 1.964 3.727 5.264 3.713 8.557"/><path fill="url(#e)" stroke="#000" stroke-linecap="round" stroke-linejoin="round" stroke-width="1.585" d="M175.802 96.102c-1.822 64.711-7.333 99.242-21.732 157.869h104.259c-5.949-57.659-8.519-93.228-12.406-157.286-.105-1.723-1.161-3.273-2.747-3.954-21.819-9.377-36.194-10.456-63.238-2.131-2.411.742-4.065 2.981-4.136 5.502Z"/><ellipse cx="20.535" cy="8.132" stroke="#000" stroke-linejoin="round" stroke-width="1.347" rx="20.535" ry="8.132" transform="translate(188.844 122.574) skewX(.056)"/><ellipse cx="20.527" cy="8.135" stroke="#000" stroke-linejoin="round" stroke-width="1.347" rx="20.527" ry="8.135" transform="matrix(.55102 -.8345 .83026 .55738 191.164 142.707)"/><ellipse cx="20.527" cy="8.135" stroke="#000" stroke-linejoin="round" stroke-width="1.347" rx="20.527" ry="8.135" transform="matrix(-.55134 -.83428 -.83046 .55707 227.586 142.707)"/><ellipse cx="3.487" cy="3.486" fill="#000" stroke="#000" stroke-linejoin="round" stroke-width="1.347" rx="3.487" ry="3.486" transform="translate(205.891 127.219) skewX(.056)"/><path fill="#000" stroke="#000" stroke-linejoin="round" stroke-width="1.585" d="M225.352 237.336h67.371v24.954h-67.371zM18.477 242.488h141.081v19.804H18.477z"/><path fill="#5869DD" stroke="#000" stroke-linejoin="round" stroke-width="1.585" d="m18.477 242.488 141.08 5.546v14.259H18.477v-19.805Z"/><path fill="url(#f)" d="m262.6 205.648-37.252-23.765v58.225H262.6v-34.46Z"/><path fill="url(#g)" fill-rule="evenodd" d="M225.348 181.883v80.406h-65.389l-5.35-60.8 70.739-19.606Z" clip-rule="evenodd"/><path fill="#000" d="M154.609 201.489v60.8h5.35l-5.35-60.8Z"/><path stroke="#000" stroke-linejoin="round" stroke-width="1.585" d="m225.348 181.883 37.252 23.765v34.46h-37.252m0-58.225v58.225m0-58.225-70.739 19.606m70.739 38.619v22.181h-65.389m-5.35-60.8v60.8h5.35m-5.35-60.8 5.35 60.8"/><path fill="url(#h)" stroke="#000" stroke-linejoin="round" stroke-width="1.585" d="m226.133 242.089 66.578-4.753v24.953h-66.578v-20.2Z"/><path fill="#000" d="M57.483 417.174a24.218 24.218 0 0 1-.19-9.648.63.63 0 0 1 .701-.505.633.633 0 0 1 .507.7 27.74 27.74 0 0 0-.38 4.613c.014 1.533.2 3.059.556 4.55a.628.628 0 0 1-.455.744.63.63 0 0 1-.739-.454ZM59.697 398.29a50.39 50.39 0 0 1 4.197-8.601.633.633 0 0 1 .828-.201.628.628 0 0 1 .202.826 49.133 49.133 0 0 0-4.09 8.399.632.632 0 0 1-.783.36.633.633 0 0 1-.354-.783ZM69.548 381.973a70.27 70.27 0 0 1 6.719-6.784.583.583 0 0 1 .2-.117.582.582 0 0 1 .456.027c.07.034.133.082.185.141a.588.588 0 0 1 .095.653.587.587 0 0 1-.14.186 69.363 69.363 0 0 0-6.605 6.676.633.633 0 0 1-.847.063.63.63 0 0 1-.063-.845ZM162.755 346.706l9.481-.284a.456.456 0 1 1 0 .91l-9.481.309a.458.458 0 0 1-.335-.128.473.473 0 0 1-.119-.507.461.461 0 0 1 .422-.3h.032ZM181.739 346.285h9.482a.404.404 0 0 1 .165.031.429.429 0 0 1 .265.398.434.434 0 0 1-.264.403.431.431 0 0 1-.166.033h-9.482a.443.443 0 1 1 0-.884v.019ZM200.719 346.417l9.482.266a.404.404 0 0 1 .286.125.402.402 0 0 1 .076.448.413.413 0 0 1-.388.242l-9.481-.24a.42.42 0 0 1-.438-.247.431.431 0 0 1 0-.347.431.431 0 0 1 .261-.231.423.423 0 0 1 .177-.016h.025ZM219.677 347.063l4.734.252c1.581.083 3.161.165 4.735.266a.39.39 0 0 1 .36.41.382.382 0 0 1-.411.361c-1.567-.101-3.16-.177-4.728-.259l-4.728-.234a.402.402 0 0 1-.373-.417.398.398 0 0 1 .411-.379ZM238.597 348.27l9.481.398a.365.365 0 0 1 .316.509.364.364 0 0 1-.341.211l-9.482-.373a.38.38 0 0 1-.36-.385.367.367 0 0 1 .242-.337.372.372 0 0 1 .144-.023ZM257.494 348.304a54.054 54.054 0 0 0 9.267-1.654.332.332 0 0 1 .474.205.335.335 0 0 1-.291.426 55.028 55.028 0 0 1-9.38 1.73.35.35 0 0 1-.305-.568.344.344 0 0 1 .235-.126v-.013ZM275.392 343.021a26.925 26.925 0 0 0 7.06-6.083.31.31 0 1 1 .48.391 27.396 27.396 0 0 1-7.205 6.247.322.322 0 0 1-.246.037.318.318 0 0 1-.2-.147.323.323 0 0 1 .111-.445ZM286.936 328.819c.428-1.492.64-3.037.632-4.588a15.716 15.716 0 0 0-.701-4.587.264.264 0 0 1 .373-.301.26.26 0 0 1 .132.143 16.53 16.53 0 0 1 .752 4.739 16.833 16.833 0 0 1-.663 4.758.31.31 0 0 1-.051.099.298.298 0 0 1-.192.106.278.278 0 0 1-.111-.01.267.267 0 0 1-.099-.051.268.268 0 0 1-.072-.085.278.278 0 0 1-.025-.217l.025-.006ZM282.213 311.577a42.136 42.136 0 0 0-6.997-6.31.22.22 0 0 1-.088-.147.222.222 0 0 1 .354-.213 42.246 42.246 0 0 1 7.098 6.31.24.24 0 0 1 .055.078.244.244 0 0 1 .019.092.245.245 0 0 1-.019.093.24.24 0 0 1-.055.078.242.242 0 0 1-.341 0l-.026.019ZM267.179 300.351a46.717 46.717 0 0 0-2.118-1.041l-2.149-.998-4.292-2.001a.18.18 0 0 1-.093-.102.179.179 0 0 1 .005-.138.19.19 0 0 1 .102-.091.193.193 0 0 1 .138.003l4.311 1.982 2.155.997a36.47 36.47 0 0 1 2.137 1.036.199.199 0 0 1 .125.115.194.194 0 0 1-.007.17.19.19 0 0 1-.056.067.192.192 0 0 1-.079.037.197.197 0 0 1-.167-.036h-.012ZM249.811 292.852a139.595 139.595 0 0 0-9.014-2.91.123.123 0 0 1-.049-.023.129.129 0 0 1-.052-.093.122.122 0 0 1 .006-.054.14.14 0 0 1 .066-.083.142.142 0 0 1 .105-.012c3.042.867 6.057 1.824 9.045 2.872a.164.164 0 0 1 .095.202.164.164 0 0 1-.202.101ZM231.647 287.59l-9.304-1.8a.095.095 0 0 1-.076-.108.099.099 0 0 1 .113-.075l9.267 1.755c.015.003.03.009.042.018a.112.112 0 0 1 .048.075.116.116 0 0 1-.134.135h.044ZM212.932 284.513l-9.444-.822a.054.054 0 0 1-.036-.014.054.054 0 0 1-.014-.036.038.038 0 0 1 .004-.021.043.043 0 0 1 .012-.017.05.05 0 0 1 .04-.013l9.482.777a.067.067 0 0 1 .051.023.067.067 0 0 1 .018.053.06.06 0 0 1-.008.029.068.068 0 0 1-.018.023.094.094 0 0 1-.026.014.078.078 0 0 1-.03.004h-.031Z"/><path fill="url(#i)" d="m104.999 380.167-10.318 21.585 13.168-5.235-2.85-16.35Z"/><path fill="#000" d="m143.264 375.642-6.292-1.043 8.539 14.691 13.035 6.955-1.991-11.419-13.291-9.184ZM136.972 374.599l-31.973 5.568 31.249 21.082.724-26.65Z"/><path fill="#5869DD" d="m154.049 403.981-1.479 8.28 7.966-4.596-1.99-11.42-13.035-6.955 8.538 14.691ZM110.699 412.868l15.897 11.939 24.495-4.266 1.479-8.28-8.269 4.381-33.602-3.774Z"/><path fill="url(#j)" d="m152.57 412.261 1.479-8.28-8.538-14.691-8.539-14.691-.724 26.65 16.322 11.012Z"/><path fill="url(#k)" d="m110.699 412.868 33.602 3.774 8.269-4.381-16.322-11.012-31.249-21.082 2.85 16.35 2.85 16.351Z"/><path fill="#5869DD" d="m94.68 401.752 7.257 8.096 8.762 3.02-2.85-16.351-13.168 5.235Z"/><path stroke="#000" stroke-linecap="round" stroke-linejoin="round" stroke-width="1.264" d="m104.999 380.167 31.973-5.568m-31.973 5.568 18.881-16.659 12.368 6.938.724 4.153m-31.973 5.568-10.318 21.585m10.318-21.585 31.249 21.082m-31.249-21.082 2.85 16.35m2.85 16.351 15.897 11.939 24.495-4.266 1.479-8.28m-41.871.607-8.762-3.02-7.256-8.096m16.018 11.116 33.602 3.774 8.269-4.381m-41.871.607-2.85-16.351m29.123-21.918 6.292 1.043 13.291 9.184 1.991 11.419m-21.574-21.646-.724 26.65m.724-26.65 8.539 14.691m7.059 22.971 1.479-8.28-8.538-14.691m7.059 22.971 7.966-4.596-1.99-11.42m-5.976 16.016-16.322-11.012m-41.567.503 13.168-5.235m37.662-7.227 13.035 6.955"/><path fill="url(#l)" d="m176.872 406.172 36.187 4.988 9.066-4.471-42.199-29.936-2.648 21.092-.75 5.974.344 2.353Z"/><path fill="url(#m)" d="m176.872 406.172 16.812 13.255 26.592-3.894 1.849-8.844-9.066 4.471-36.187-4.988Z"/><path fill="#5869DD" fill-rule="evenodd" d="m225.717 372.202-45.791 4.551 42.199 29.936 1.849-8.844.467-6.879 1.276-18.764Z" clip-rule="evenodd"/><path fill="#000" d="m206.415 365.838-34.71 5.083 8.221 5.832 45.791-4.551-19.302-6.364Z"/><path fill="#5869DD" fill-rule="evenodd" d="m222.125 406.689 1.849-8.844.467-6.879 9.738-15.342-3.309 26.355-8.745 4.71Z" clip-rule="evenodd"/><path fill="#000" d="m234.179 375.624-8.462-3.422-1.276 18.764 9.738-15.342Z"/><path fill="#5869DD" fill-rule="evenodd" d="m176.528 403.819.344 2.353-9.374-3.486 2.103-15.882 7.677 11.041-.75 5.974Z" clip-rule="evenodd"/><path fill="#000" d="m179.926 376.753-8.221-5.832-2.104 15.883 7.677 11.041 2.648-21.092Z"/><path stroke="#000" stroke-linecap="round" stroke-linejoin="round" stroke-width="1.264" d="m171.705 370.921 34.71-5.083m-34.71 5.083 20.902-17.35 13.151 7.79.657 4.477m-34.71 5.083 8.221 5.832m-8.221-5.832-2.104 15.883m7.271 19.368 16.812 13.255 26.592-3.894 1.849-8.844m-45.253-.517-9.374-3.486 2.103-15.882m7.271 19.368 36.187 4.988 9.066-4.471m-45.253-.517-.344-2.353.75-5.974m29.137-32.007 6.766 1.295 20.998 8.491m-27.764-9.786 19.302 6.364m-3.592 34.487 1.849-8.844.467-6.879m-2.316 15.723 8.745-4.71 3.309-26.355m-12.054 31.065-42.199-29.936m54.253-1.129-8.462-3.422m8.462 3.422-9.738 15.342m-44.515-14.213-2.648 21.092m2.648-21.092 45.791-4.551m0 0-1.276 18.764m-54.84-4.162 7.677 11.041"/><path fill="#000" d="m35.461 372.278-13.983 16.801 4.977 8.564 9.006-25.365ZM65.996 373.902l9.558 29.197 6.299-16.262-10.294-10.743-5.563-2.192Z"/><path fill="url(#n)" d="m33.875 402.068 12.112 13.685 23.394 1.244 3.087-6.949-8.511 2.156-30.082-10.136Z"/><path fill="url(#o)" d="m35.461 372.278-1.586 29.79 30.082 10.136 8.51-2.156-37.006-37.77Z"/><path fill="#5869DD" d="m33.875 402.068 1.586-29.79-9.006 25.365 7.42 4.425Z"/><path fill="url(#p)" d="m75.554 403.099-3.086 6.949 8.277-2.405 1.108-20.806-6.299 16.262Z"/><path fill="#5869DD" d="m75.554 403.099-9.558-29.197-30.535-1.624 37.007 37.77 3.086-6.949Z"/><path stroke="#000" stroke-linecap="round" stroke-linejoin="round" stroke-width="1.264" d="m35.461 372.278-1.586 29.79m1.586-29.79 30.535 1.624m-30.535-1.624 20.822-10.748 9.914 8.589-.201 3.783m-30.535-1.624-13.983 16.801 4.977 8.564m9.006-25.365 37.007 37.77m-37.007-37.77-9.006 25.365m7.42 4.425 12.112 13.685 23.394 1.244 3.087-6.949m-38.593-7.98-7.42-4.425m7.42 4.425 30.082 10.136 8.51-2.156m3.087-6.949-9.558-29.197m9.558 29.197-3.086 6.949m3.086-6.949 6.299-16.262m-15.857-12.935 5.563 2.192 10.294 10.743m-9.385 23.211 8.277-2.405 1.108-20.806"/><path fill="#5869DD" d="m237.725 346.545-6.242-11.688h-47.96l7.269 11.688h46.933Z"/><path fill="url(#q)" d="m231.483 334.857 6.242 11.688 44.101-56.369h-16.751l-33.592 44.681Z"/><path stroke="#000" stroke-linecap="round" stroke-linejoin="round" stroke-width="1.264" d="m231.483 334.857 6.242 11.688m-6.242-11.688h-47.96l7.269 11.688h46.933m-6.242-11.688 33.592-44.681h16.751l-44.101 56.369m44.101-56.368-44.101 56.368"/><path fill="url(#r)" d="m157.06 346.544-5.177-12.426 27.864-47.505h13.894l-36.581 59.931Z"/><path stroke="#000" stroke-linecap="round" stroke-linejoin="round" stroke-width="1.264" d="m193.641 286.614-36.581 59.93m0 0-5.177-12.426 27.864-47.505h13.894l-36.581 59.931Z"/><path fill="#5869DD" d="m171.528 353.967-3.801-12 9.394-17.764h10.201l-15.794 29.764Z"/><path stroke="#000" stroke-linecap="round" stroke-linejoin="round" stroke-width="1.264" d="m187.322 324.204-15.794 29.763m0 0-3.801-12 9.394-17.764h10.201l-15.794 29.764Z"/><path fill="#000" d="m247.758 363.348-5.394-10.101h-41.45l4.109 10.101h42.735Z"/><path fill="#5869DD" d="M252.907 371.497h14.476l-11.303-18.25-8.322 10.101 5.149 8.149Z"/><path fill="url(#s)" d="m259.189 332.73-8.033 9.795-8.792 10.722 5.394 10.101 8.322-10.101 16.903-20.517h-13.794Z"/><path stroke="#000" stroke-linecap="round" stroke-linejoin="round" stroke-width="1.264" d="m242.364 353.247 8.792-10.722 8.033-9.795h13.794l-16.903 20.517m-13.716 0 5.394 10.101m-5.394-10.101h-41.45l4.109 10.101h42.735m0 0 5.149 8.149h14.476l-11.303-18.25m-8.322 10.101 8.322-10.101"/><path fill="#5869DD" d="M110.537 384.072v12.635l125.707-29.693v-15.162l-4.493 1.151-18.183 4.661-9.069 2.324-13.809 3.539-52.187 13.377-3.046.78-1.045.268-23.875 6.12Z"/><path fill="url(#t)" d="m0 376.49 100.731 6.909 19.051-17.755 4.539-4.23-41.418-4.081-27.635-2.723L0 376.49Z"/><path fill="url(#u)" d="M155.099 332.73h-44.562l-27.634 10.94 36.879 2.209 19.928 1.193 15.389-14.342Z"/><path fill="#000" d="m100.731 383.399 9.806.673 2.342-2.699 13.652-15.729h-6.749l-19.051 17.755Z"/><path fill="#000" d="M110.537 396.707v-12.635l-9.806-.673v12.635l9.806.673Z"/><path fill="url(#v)" d="M0 376.49v12.636l100.731 6.908v-12.635L0 376.49Z"/><path fill="#F1EFED" d="m140.815 349.187 14.284-16.457-15.389 14.342 1.105 2.115Z"/><path fill="#5869DD" d="M119.782 365.644h6.749l1.837-2.117 10.135-11.675 2.312-2.665-1.105-2.115-15.389 14.342-4.539 4.23Z"/><path fill="#000" d="m112.879 381.373-2.342 2.699 23.875-6.12-21.533 3.421ZM204.499 359.988l-2.894-3.257c-14.715.516-25.422.28-36.356-1.473v5.097c7.436 1.568 15.313 2.505 25.441 3.172l13.809-3.539Z"/><path fill="#F1EFED" d="m140.815 349.187-2.312 2.665c10.179 4.044 18.169 6.694 26.746 8.503v-5.097c-7.568-1.213-15.244-3.152-24.434-6.071Z"/><path fill="#000" d="m181.963 334.626 19.642 22.105 2.894 3.257 9.069-2.324-31.605-23.038ZM132.886 371.021c1.398 1.827 2.159 3.864 2.571 6.663l3.046-.78c-.38-2.843-1.015-5.294-2.412-7.439l-3.205 1.556Z"/><path fill="#5869DD" fill-rule="evenodd" d="m213.568 338.732-31.605-4.106 31.605 23.038 18.183-4.661-18.183-14.271Z" clip-rule="evenodd"/><path fill="#000" d="m236.244 351.852-22.676-13.12 18.183 14.271 4.493-1.151Z"/><path fill="#5869DD" d="M190.69 363.527c-10.128-.667-18.005-1.604-25.441-3.172-8.577-1.809-16.567-4.459-26.746-8.503l-10.135 11.675c3.862 1.698 6.229 3.643 7.723 5.938 1.397 2.145 2.032 4.596 2.412 7.439l52.187-13.377Z"/><path fill="url(#w)" d="m181.963 334.626-26.864-1.896-14.284 16.457c9.19 2.919 16.866 4.858 24.434 6.071 10.934 1.753 21.641 1.989 36.356 1.473l-19.642-22.105Z"/><path fill="#F1EFED" d="M132.886 371.021c-1.391-1.819-3.415-3.43-6.355-5.377l-13.652 15.729 21.533-3.421 1.045-.268c-.412-2.799-1.173-4.836-2.571-6.663ZM82.903 343.67l-27.635 10.94 27.635 2.723 36.879-11.454-36.88-2.209Z"/><path fill="#000" d="m124.321 361.414 15.389-14.342-19.928-1.193-36.88 11.454 41.419 4.081Z"/><path stroke="#000" stroke-linecap="round" stroke-linejoin="round" stroke-width="1.264" d="M0 376.49v12.636l100.731 6.908M0 376.49l100.731 6.909M0 376.49l55.268-21.88m55.269 29.462v12.635m0-12.635-9.806-.673m9.806.673 2.342-2.699m-2.342 2.699 23.875-6.12m-23.875 18.755 125.707-29.693v-15.162m-125.707 44.855-9.806-.673m135.513-44.182-22.676-13.12m22.676 13.12-4.493 1.151m-76.652-20.273h-44.562l-27.634 10.94m72.196-10.94 26.864 1.896m-26.864-1.896-14.284 16.457m14.284-16.457-15.389 14.342m42.253-12.446 31.605 4.106m-31.605-4.106 19.642 22.105m-19.642-22.105 31.605 23.038m0-18.932 18.183 14.271m-27.252 6.985-2.894-3.257m2.894 3.257-13.809 3.539m13.809-3.539 9.069-2.324m-112.837 25.735 19.051-17.755m-19.051 17.755v12.635m19.051-30.39h6.749m-6.749 0 4.539-4.23m2.21 4.23c2.94 1.947 4.964 3.558 6.355 5.377m-6.355-5.377-13.652 15.729m13.652-15.729 1.837-2.117m7.089 14.157c-.412-2.799-1.173-4.836-2.571-6.663m2.571 6.663-1.045.268m1.045-.268 3.046-.78m2.312-27.717-2.312 2.665m2.312-2.665-1.105-2.115m1.105 2.115c9.19 2.919 16.866 4.858 24.434 6.071m36.356 1.473c-14.715.516-25.422.28-36.356-1.473m25.441 8.269c-10.128-.667-18.005-1.604-25.441-3.172m25.441 3.172-52.187 13.377m0-25.052c10.179 4.044 18.169 6.694 26.746 8.503m-26.746-8.503-10.135 11.675m-4.047-2.113 15.389-14.342m-15.389 14.342-41.418-4.081m-27.635-2.723 27.635-10.94m-27.635 10.94 27.635 2.723m0-13.663 36.879 2.209m19.928 1.193-19.928-1.193m13.104 25.142 3.205-1.556m-23.212 11.908 21.533-3.421m30.837-17.597v-5.097m48.319 2.406 18.183-4.661m-93.248 23.901c-.38-2.843-1.015-5.294-2.412-7.439m-7.723-5.938c3.862 1.698 6.229 3.643 7.723 5.938m-53.188-12.132 36.879-11.454"/><path fill="#000" d="m349.439 459.568-8.612.824a.292.292 0 0 1-.271-.264.293.293 0 0 1 .214-.312l8.612-.784a.268.268 0 0 1 .198.063c.027.023.05.051.066.083a.27.27 0 0 1-.029.295.265.265 0 0 1-.178.095ZM332.216 461.143l-8.617.692a.321.321 0 0 1-.228-.073.313.313 0 0 1-.112-.21.319.319 0 0 1 .288-.34l8.646-.668a.294.294 0 0 1 .292.163.323.323 0 0 1 .017.236.285.285 0 0 1-.063.106.285.285 0 0 1-.223.094ZM314.962 462.415l-8.647.444a.33.33 0 0 1-.345-.317.332.332 0 0 1 .185-.319.321.321 0 0 1 .126-.032l8.646-.421a.322.322 0 1 1 .035.645ZM297.688 463.313l-8.647.421a.357.357 0 1 1-.034-.709l8.646-.403a.343.343 0 0 1 .363.328.34.34 0 0 1-.089.249.342.342 0 0 1-.239.114ZM280.406 464.091l-8.647.294a.385.385 0 0 1-.392-.369.383.383 0 0 1 .221-.353.388.388 0 0 1 .143-.033l8.646-.271a.37.37 0 0 1 .278.616.359.359 0 0 1-.249.116ZM263.106 464.557l-8.647.07a.416.416 0 0 1-.315-.099.404.404 0 0 1 .315-.702l8.647-.041a.365.365 0 0 1 .278.11.371.371 0 0 1 .114.276.378.378 0 0 1-.115.275.39.39 0 0 1-.277.111ZM245.825 464.832l-8.646.167a.42.42 0 1 1 0-.841l8.646-.15a.412.412 0 0 1 .366.412.413.413 0 0 1-.366.412ZM228.505 464.845a97.478 97.478 0 0 1-8.646-.795.447.447 0 0 1-.378-.504.448.448 0 0 1 .504-.377c2.836.414 5.701.662 8.566.812a.43.43 0 0 1 .412.452.43.43 0 0 1-.452.412h-.006ZM211.308 462.162a5.19 5.19 0 0 1-1.96-1.318 2.203 2.203 0 0 1-.519-1.231 2.647 2.647 0 0 1 .283-1.272 6.172 6.172 0 0 1 1.458-1.807 18.051 18.051 0 0 1 1.729-1.364.474.474 0 0 1 .541-.04.47.47 0 0 1 .215.497.464.464 0 0 1-.22.303 16.03 16.03 0 0 0-1.654 1.283 5.461 5.461 0 0 0-1.256 1.525 1.724 1.724 0 0 0-.191.806c.024.267.134.519.312.719.451.465.997.826 1.602 1.059a.456.456 0 0 1 .201.585.452.452 0 0 1-.57.244l.029.011ZM219.993 451.019a77.863 77.863 0 0 1 3.971-1.762 78.382 78.382 0 0 1 4.076-1.513.482.482 0 0 1 .562.112c.047.05.082.109.105.173a.495.495 0 0 1-.167.549.499.499 0 0 1-.183.087c-1.361.46-2.704.949-4.035 1.485a80.203 80.203 0 0 0-3.937 1.727.493.493 0 0 1-.187.059.492.492 0 0 1-.364-.117.475.475 0 0 1-.162-.347.468.468 0 0 1 .144-.354.479.479 0 0 1 .165-.105l.012.006ZM236.364 445.282l8.375-2.153a.507.507 0 0 1 .377.053.497.497 0 0 1 .229.304.494.494 0 0 1-.358.576l-8.375 2.141a.494.494 0 0 1-.597-.354.487.487 0 0 1 .355-.596l-.006.029ZM253.03 440.765a70.907 70.907 0 0 0 8.001-3.097.506.506 0 0 1 .668.242.502.502 0 0 1-.242.668 72.783 72.783 0 0 1-8.121 3.132.5.5 0 0 1-.53-.148.5.5 0 0 1-.117-.362.494.494 0 0 1 .341-.435ZM257.126 436.274l-8.6-.634a.508.508 0 1 1 .075-1.014l8.646.64a.509.509 0 0 1 .43.539.508.508 0 0 1-.505.469h-.046ZM239.907 435.553l-8.646.075a.517.517 0 0 1 0-1.031l8.646-.07a.51.51 0 0 1 .513.513.514.514 0 0 1-.513.513ZM222.628 435.748l-8.646.156a.52.52 0 0 1-.376-.14.511.511 0 0 1-.161-.367.535.535 0 0 1 .146-.375.546.546 0 0 1 .168-.117.51.51 0 0 1 .199-.044l8.647-.15a.518.518 0 1 1 0 1.037h.023ZM205.341 436.09l-8.647.184a.534.534 0 0 1-.375-.155.534.534 0 0 1 0-.75.534.534 0 0 1 .375-.155l8.647-.179c.13.014.251.075.338.173a.527.527 0 0 1 0 .709.532.532 0 0 1-.338.173ZM188.047 436.458l-8.647.173a.542.542 0 0 1-.504-.324.52.52 0 0 1-.043-.206.537.537 0 0 1 .314-.527.547.547 0 0 1 .21-.049l8.647-.162a.537.537 0 0 1 .541.525.514.514 0 0 1-.134.398.515.515 0 0 1-.384.172ZM170.755 436.775l-8.646.149a.547.547 0 0 1 0-1.089l8.646-.144a.539.539 0 0 1 .542.542.54.54 0 0 1-.542.542ZM153.46 437.067l-8.647.116a.578.578 0 0 1 0-1.107l8.647-.103a.579.579 0 0 1 .396.547.577.577 0 0 1-.396.547ZM136.16 437.224l-8.646-.064a.578.578 0 0 1-.408-.983.578.578 0 0 1 .408-.169l8.646.069a.58.58 0 0 1 .425.556.577.577 0 0 1-.425.556v.035ZM118.854 436.951l-8.646-.38a.58.58 0 0 1-.382-.182.58.58 0 0 1-.154-.394.579.579 0 0 1 .576-.542l8.647.386a.58.58 0 0 1 .541.576.576.576 0 0 1-.582.536ZM101.564 435.984l-8.618-.818a.578.578 0 1 1 .11-1.152l8.6.824a.573.573 0 0 1 .522.63.589.589 0 0 1-.407.499c-.073.022-.149.03-.225.022l.018-.005ZM84.337 434.262a82.085 82.085 0 0 1-8.566-1.55.573.573 0 0 1-.42-.685.575.575 0 0 1 .692-.426 81.38 81.38 0 0 0 8.443 1.52.58.58 0 0 1 .496.645.577.577 0 0 1-.645.496ZM67.482 429.942a24.362 24.362 0 0 1-7.291-4.932.575.575 0 0 1 0-.794.58.58 0 0 1 .8 0 23.203 23.203 0 0 0 6.958 4.69.577.577 0 0 1 .282.754.574.574 0 0 1-.755.276l.006.006Z"/></g><defs><linearGradient id="b" x1="71.668" x2="84.766" y1="70.881" y2="68.673" gradientUnits="userSpaceOnUse"><stop stop-color="#5869DD"/><stop offset="1" stop-color="#D6FFBB"/></linearGradient><linearGradient id="c" x1="173.032" x2="51.044" y1="76.924" y2="212.449" gradientUnits="userSpaceOnUse"><stop stop-color="#D6FFBB"/><stop offset="1" stop-color="#5869DD"/></linearGradient><linearGradient id="d" x1="178.438" x2="186.098" y1="84.772" y2="83.574" gradientUnits="userSpaceOnUse"><stop stop-color="#D6FFBB"/><stop offset="1" stop-color="#5869DD"/></linearGradient><linearGradient id="e" x1="267.335" x2="177.034" y1="107.815" y2="212.032" gradientUnits="userSpaceOnUse"><stop stop-color="#D6FFBB"/><stop offset="1" stop-color="#5869DD"/></linearGradient><linearGradient id="f" x1="277.659" x2="208.625" y1="198.122" y2="241.328" gradientUnits="userSpaceOnUse"><stop stop-color="#D6FFBB"/><stop offset="1" stop-color="#5869DD"/></linearGradient><linearGradient id="g" x1="268.148" x2="193.298" y1="154.553" y2="253.612" gradientUnits="userSpaceOnUse"><stop stop-color="#D6FFBB"/><stop offset="1" stop-color="#5869DD"/></linearGradient><linearGradient id="h" x1="292.711" x2="249.136" y1="220.304" y2="255.183" gradientUnits="userSpaceOnUse"><stop stop-color="#D6FFBB"/><stop offset="1" stop-color="#5869DD"/></linearGradient><linearGradient id="i" x1="94.296" x2="157.209" y1="399.546" y2="388.578" gradientUnits="userSpaceOnUse"><stop stop-color="#D6FFBB"/><stop offset="1" stop-color="#5869DD"/></linearGradient><linearGradient id="j" x1="94.296" x2="157.209" y1="399.546" y2="388.578" gradientUnits="userSpaceOnUse"><stop stop-color="#D6FFBB"/><stop offset="1" stop-color="#5869DD"/></linearGradient><linearGradient id="k" x1="142.145" x2="125.717" y1="379.17" y2="440.441" gradientUnits="userSpaceOnUse"><stop stop-color="#D6FFBB"/><stop offset="1" stop-color="#5869DD"/></linearGradient><linearGradient id="l" x1="193.342" x2="251.667" y1="437.923" y2="401.013" gradientUnits="userSpaceOnUse"><stop stop-color="#5869DD"/><stop offset="1" stop-color="#D6FFBB"/></linearGradient><linearGradient id="m" x1="165.714" x2="234.876" y1="390.516" y2="380.377" gradientUnits="userSpaceOnUse"><stop stop-color="#D6FFBB"/><stop offset="1" stop-color="#5869DD"/></linearGradient><linearGradient id="n" x1="27.935" x2="119.549" y1="459.733" y2="424.35" gradientUnits="userSpaceOnUse"><stop stop-color="#D6FFBB"/><stop offset="1" stop-color="#5869DD"/></linearGradient><linearGradient id="o" x1="66.915" x2="51.641" y1="398.123" y2="428.454" gradientUnits="userSpaceOnUse"><stop stop-color="#D6FFBB"/><stop offset="1" stop-color="#5869DD"/></linearGradient><linearGradient id="p" x1="21.585" x2="81.67" y1="387.07" y2="390.269" gradientUnits="userSpaceOnUse"><stop stop-color="#D6FFBB"/><stop offset="1" stop-color="#5869DD"/></linearGradient><linearGradient id="q" x1="232.675" x2="308.52" y1="346.545" y2="300.348" gradientUnits="userSpaceOnUse"><stop stop-color="#5869DD"/><stop offset="1" stop-color="#D6FFBB"/></linearGradient><linearGradient id="r" x1="172.762" x2="206.746" y1="331.152" y2="326.694" gradientUnits="userSpaceOnUse"><stop stop-color="#5869DD"/><stop offset="1" stop-color="#D6FFBB"/></linearGradient><linearGradient id="s" x1="236.948" x2="290.531" y1="371.497" y2="336.581" gradientUnits="userSpaceOnUse"><stop stop-color="#5869DD"/><stop offset="1" stop-color="#D6FFBB"/></linearGradient><linearGradient id="t" x1="18.884" x2="112.393" y1="319.148" y2="396.755" gradientUnits="userSpaceOnUse"><stop stop-color="#D6FFBB"/><stop offset="1" stop-color="#5869DD"/></linearGradient><linearGradient id="u" x1="34.686" x2="181.95" y1="364.719" y2="319.737" gradientUnits="userSpaceOnUse"><stop stop-color="#D6FFBB"/><stop offset="1" stop-color="#5869DD"/></linearGradient><linearGradient id="v" x1="-92.996" x2="13.383" y1="364.719" y2="278.785" gradientUnits="userSpaceOnUse"><stop stop-color="#D6FFBB"/><stop offset="1" stop-color="#5869DD"/></linearGradient><linearGradient id="w" x1="86.201" x2="174.685" y1="315.041" y2="344.446" gradientUnits="userSpaceOnUse"><stop stop-color="#D6FFBB"/><stop offset="1" stop-color="#5869DD"/></linearGradient><clipPath id="a"><path fill="#fff" d="M0 0h355v465H0z"/></clipPath></defs></svg>
