<svg xmlns="http://www.w3.org/2000/svg" width="855" height="689" fill="none" viewBox="0 0 855 689"><path fill="#000" d="m823.147 665.811-14.875 1.94a.24.24 0 0 1-.176-.044.246.246 0 0 1-.094-.156.228.228 0 0 1 .006-.09.227.227 0 0 1 .194-.17l14.885-1.881a.224.224 0 0 1 .231.181.202.202 0 0 1-.171.22ZM793.385 669.622l-14.895 1.811a.297.297 0 0 1-.34-.27.3.3 0 0 1 .26-.33l14.906-1.771a.266.266 0 0 1 .105.004.265.265 0 0 1 .195.226c.01.037.012.076.006.114a.273.273 0 0 1-.043.106.281.281 0 0 1-.084.077.265.265 0 0 1-.11.033ZM763.573 673.176l-14.935 1.691a.375.375 0 0 1-.367-.192.376.376 0 0 1-.043-.139.378.378 0 0 1 .33-.41l14.915-1.62a.349.349 0 0 1 .38.3.34.34 0 0 1-.28.37ZM733.751 676.494l-14.925 1.571a.43.43 0 0 1-.48-.39.442.442 0 0 1 .39-.481l14.925-1.5a.408.408 0 0 1 .45.36.418.418 0 0 1-.36.44ZM703.895 679.557l-14.945 1.431a.51.51 0 0 1-.1-1.001l14.945-1.36a.475.475 0 0 1 .46.253.474.474 0 0 1-.052.511.456.456 0 0 1-.308.166ZM673.985 682.3l-14.956 1.2a.544.544 0 0 1-.394-.125.545.545 0 0 1-.196-.365.55.55 0 0 1 .5-.59l15.006-1.161a.532.532 0 0 1 .38.124.525.525 0 0 1 .18.357.514.514 0 0 1-.134.397.505.505 0 0 1-.386.163ZM644.044 684.508l-15.005.77a.565.565 0 0 1-.548-.331.576.576 0 0 1-.052-.219.568.568 0 0 1 .322-.555.549.549 0 0 1 .218-.055l15.005-.73a.56.56 0 1 1 .06 1.12ZM614.072 686.068l-15.005.73a.633.633 0 0 1-.492-.129.626.626 0 0 1-.231-.452.616.616 0 0 1 .405-.612.627.627 0 0 1 .258-.037l15.005-.7a.604.604 0 0 1 .63.57.6.6 0 0 1-.57.63ZM584.076 687.418l-15.005.51a.668.668 0 0 1-.68-.64.649.649 0 0 1 .63-.67l15.005-.469a.64.64 0 0 1 .484 1.068.628.628 0 0 1-.434.201ZM554.055 688.227l-15.006.12a.698.698 0 0 1-.548-1.219.698.698 0 0 1 .548-.171l15.006-.07a.665.665 0 0 1 .483.19.647.647 0 0 1 .197.48.677.677 0 0 1-.2.477.653.653 0 0 1-.48.193ZM524.071 688.707l-15.005.29a.731.731 0 0 1 0-1.46l15.005-.26a.72.72 0 0 1 0 1.43ZM494.004 688.728c-5.001-.25-10.003-.68-15.005-1.381a.773.773 0 0 1 .22-1.531c4.922.721 9.894 1.151 14.865 1.411a.75.75 0 1 1-.07 1.501h-.01ZM464.179 684.07a9.013 9.013 0 0 1-3.402-2.291 3.835 3.835 0 0 1-.9-2.141 4.62 4.62 0 0 1 .49-2.211 10.766 10.766 0 0 1 2.531-3.142 31.156 31.156 0 0 1 3.001-2.371.815.815 0 0 1 1.181.156.821.821 0 0 1 .13.637.81.81 0 0 1-.381.528 27.5 27.5 0 0 0-2.871 2.231 9.463 9.463 0 0 0-2.18 2.651 2.991 2.991 0 0 0-.33 1.401c.042.464.231.902.54 1.25a7.752 7.752 0 0 0 2.781 1.841.793.793 0 0 1 .349 1.018.786.786 0 0 1-.989.423l.05.02ZM479.229 664.691c2.25-1.06 4.561-2.121 6.892-3.061 2.331-.94 4.692-1.821 7.073-2.631a.842.842 0 0 1 .688-.008.847.847 0 0 1 .512.854.847.847 0 0 1-.65.755c-2.361.8-4.692 1.65-7.003 2.581-2.311.93-4.551 1.941-6.832 3.001a.825.825 0 0 1-.661.067.826.826 0 0 1-.498-.44.82.82 0 0 1-.017-.664.839.839 0 0 1 .476-.464l.02.01ZM507.639 654.715l14.535-3.742a.85.85 0 0 1 .655.092.852.852 0 0 1 .25.225c.068.09.118.193.146.303a.856.856 0 0 1-.62 1.001l-14.536 3.721a.848.848 0 0 1-1.035-.615.852.852 0 0 1 .615-1.035l-.01.05ZM536.571 646.863a123.46 123.46 0 0 0 13.885-5.382.872.872 0 1 1 .74 1.581 126.154 126.154 0 0 1-14.095 5.442.851.851 0 0 1-1.08-.55.866.866 0 0 1 .256-.926.855.855 0 0 1 .294-.165ZM543.68 639.051l-14.925-1.1a.887.887 0 0 1-.815-.946.88.88 0 0 1 .945-.815l15.005 1.11a.88.88 0 0 1-.13 1.751h-.08ZM513.795 637.8l-15.005.13a.907.907 0 0 1-.575-.293.902.902 0 0 1 .575-1.497l15.005-.12a.89.89 0 1 1 0 1.78ZM483.803 638.14l-15.005.27a.892.892 0 0 1-.931-.88.927.927 0 0 1 .253-.65.9.9 0 0 1 .638-.28l15.005-.26a.902.902 0 0 1 .9.9.902.902 0 0 1-.9.9h.04ZM453.808 638.728l-15.005.32a.92.92 0 1 1 0-1.84l15.005-.31a.92.92 0 0 1 0 1.83ZM423.786 639.369l-15.006.3a.935.935 0 0 1-.874-.563.915.915 0 0 1-.076-.357.935.935 0 0 1 .243-.693.942.942 0 0 1 .667-.307l15.006-.28a.928.928 0 0 1 .94.91.91.91 0 0 1-.9.99ZM393.78 639.919l-15.005.26a.947.947 0 0 1-.608-.309.946.946 0 0 1 0-1.272.947.947 0 0 1 .608-.309l15.005-.25a.942.942 0 0 1 .665 1.605.942.942 0 0 1-.665.275ZM363.772 640.431l-15.005.2a.997.997 0 0 1-.72-.96 1 1 0 0 1 .72-.96l15.005-.18a.995.995 0 0 1 .498 1.537.992.992 0 0 1-.498.363ZM333.74 640.7l-15.005-.11a1 1 0 1 1 0-2l15.005.12a.992.992 0 0 1 .532.358.993.993 0 0 1 0 1.214.997.997 0 0 1-.532.358v.06ZM303.709 640.23l-15.005-.66a1.002 1.002 0 0 1-.931-1.001 1.002 1.002 0 0 1 1.001-.94l15.005.67a1.004 1.004 0 0 1 .94 1.001.997.997 0 0 1-1.01.93ZM273.709 638.547l-14.955-1.42a1.007 1.007 0 0 1-.546-1.776c.206-.169.47-.251.736-.225l14.925 1.43a1.007 1.007 0 0 1 .793 1.471 1 1 0 0 1-.593.49.99.99 0 0 1-.39.04l.03-.01ZM243.808 635.547c-5-.634-9.962-1.532-14.866-2.692a1.002 1.002 0 0 1-.73-1.19 1.003 1.003 0 0 1 1.201-.74 141.337 141.337 0 0 0 14.655 2.641 1 1 0 0 1-.26 1.981ZM214.556 628.044a42.305 42.305 0 0 1-12.655-8.574 1.001 1.001 0 0 1 0-1.38.999.999 0 0 1 1.391 0 40.278 40.278 0 0 0 12.074 8.153.998.998 0 0 1 .49 1.311 1 1 0 0 1-1.31.48l.01.01ZM194.457 606.035a38.477 38.477 0 0 1-.3-15.297.996.996 0 0 1 .397-.619.996.996 0 0 1 .713-.181 1 1 0 0 1 .8 1.11 44.04 44.04 0 0 0-.6 7.314 32.28 32.28 0 0 0 .88 7.213 1.002 1.002 0 0 1-.72 1.181 1 1 0 0 1-1.17-.721ZM197.966 576.091a79.932 79.932 0 0 1 6.642-13.636 1.004 1.004 0 0 1 1.311-.321 1.003 1.003 0 0 1 .32 1.311 77.936 77.936 0 0 0-6.472 13.316 1.004 1.004 0 0 1-1.241.57 1.002 1.002 0 0 1-.56-1.24ZM213.54 550.22a111.172 111.172 0 0 1 10.633-10.755.947.947 0 0 1 .682-.237.936.936 0 0 1 .649.317.931.931 0 0 1 .241.68.923.923 0 0 1-.091.356.923.923 0 0 1-.22.294 109.95 109.95 0 0 0-10.454 10.585 1.003 1.003 0 0 1-1.34.1.995.995 0 0 1-.1-1.34ZM361.043 494.305l15.005-.45a.72.72 0 0 1 0 1.44l-15.005.49a.728.728 0 0 1-.53-.202.756.756 0 0 1-.189-.803.725.725 0 0 1 .669-.475h.05ZM391.099 493.632h15.005a.657.657 0 0 1 .631.418.653.653 0 0 1 .049.262.679.679 0 0 1-.68.69h-15.005a.7.7 0 1 1 0-1.4v.03ZM421.136 493.845l15.005.42a.637.637 0 0 1 .63.66.641.641 0 0 1-.204.454.664.664 0 0 1-.466.176l-15.005-.38a.67.67 0 1 1 0-1.33h.04ZM451.143 494.871l7.493.4c2.501.13 5.002.26 7.492.42a.622.622 0 0 1 .571.65.597.597 0 0 1-.207.42.614.614 0 0 1-.444.15c-2.48-.16-5.001-.28-7.482-.41l-7.483-.37a.629.629 0 0 1-.388-1.093.635.635 0 0 1 .448-.167ZM481.087 496.782l15.005.63a.58.58 0 0 1 .55.59.56.56 0 0 1-.181.397.57.57 0 0 1-.409.153l-15.005-.59a.602.602 0 0 1-.57-.61.583.583 0 0 1 .382-.533.59.59 0 0 1 .228-.037ZM510.99 496.835a85.447 85.447 0 0 0 14.665-2.621.53.53 0 1 1 .29 1 87.236 87.236 0 0 1-14.845 2.742.554.554 0 0 1-.11-1.101v-.02ZM539.311 488.462a42.634 42.634 0 0 0 11.174-9.645.488.488 0 0 1 .69-.07.488.488 0 0 1 .07.69 43.403 43.403 0 0 1-11.404 9.905.512.512 0 0 1-.705-.175.515.515 0 0 1 .175-.705ZM557.583 465.94a25.956 25.956 0 0 0 1-7.273 24.976 24.976 0 0 0-1.11-7.273.419.419 0 0 1 .59-.477.42.42 0 0 1 .21.227 26.267 26.267 0 0 1 1.19 7.513 26.764 26.764 0 0 1-1.05 7.543.451.451 0 0 1-.717.229.459.459 0 0 1-.153-.479l.04-.01ZM550.109 438.609a66.786 66.786 0 0 0-11.074-10.005.353.353 0 0 1-.075-.495.353.353 0 0 1 .495-.075 66.85 66.85 0 0 1 11.234 10.004.375.375 0 0 1 .086.418.397.397 0 0 1-.21.206.384.384 0 0 1-.416-.083l-.04.03ZM526.312 420.797a74.44 74.44 0 0 0-3.352-1.651l-3.401-1.58-6.792-3.172a.292.292 0 0 1-.148-.161.291.291 0 0 1 .008-.219.296.296 0 0 1 .163-.144.296.296 0 0 1 .217.004l6.822 3.141 3.411 1.581c1.141.5 2.261 1.06 3.382 1.641a.32.32 0 1 1-.29.56h-.02ZM498.832 408.911a221.7 221.7 0 0 0-14.265-4.612.194.194 0 0 1-.078-.037.213.213 0 0 1-.082-.147.21.21 0 0 1 .01-.086.22.22 0 0 1 .27-.15 250.877 250.877 0 0 1 14.315 4.552.26.26 0 0 1 .15.32.263.263 0 0 1-.128.144.256.256 0 0 1-.192.016ZM470.081 400.569l-14.725-2.851a.147.147 0 0 1-.094-.061.147.147 0 0 1-.026-.109.159.159 0 0 1 .067-.095.156.156 0 0 1 .113-.025l14.665 2.781a.18.18 0 0 1 .14.22.178.178 0 0 1-.21.14h.07ZM440.463 395.683l-14.945-1.3a.08.08 0 0 1-.057-.023.081.081 0 0 1-.023-.057.077.077 0 0 1 .006-.033.09.09 0 0 1 .02-.027.09.09 0 0 1 .03-.017c.011-.003.022-.004.034-.003l15.005 1.23c.015 0 .03.003.044.009a.126.126 0 0 1 .037.027.117.117 0 0 1-.013.166.111.111 0 0 1-.041.023c-.016.005-.031.007-.047.005h-.05ZM111.055 10.764 97.5 17.187a.13.13 0 0 1-.16-.06.13.13 0 0 1 .06-.17l13.595-6.353a.078.078 0 0 1 .055-.022c.02 0 .04.008.055.022.01.003.02.009.028.016a.077.077 0 0 1 .021.025.09.09 0 0 1 .006.064.09.09 0 0 1-.041.05.088.088 0 0 1-.032.008.08.08 0 0 1-.032-.003ZM84.313 24.304l-12.815 7.793a.21.21 0 0 1-.28-.07.22.22 0 0 1 .06-.29l12.865-7.723a.161.161 0 0 1 .177-.037c.02.009.038.021.053.037a.17.17 0 0 1-.06.23v.06ZM59.068 40.48 53.066 44.9c-1 .74-2 1.46-3 2.231l-2.922 2.331a.29.29 0 0 1-.41 0 .281.281 0 0 1 .05-.4l2.951-2.341c1-.77 2-1.47 3.001-2.211l6.082-4.402a.25.25 0 0 1 .35.06.242.242 0 0 1 .008.272.24.24 0 0 1-.068.068l-.04-.03ZM36.391 59.865a46.014 46.014 0 0 0-4.451 6.003 19.11 19.11 0 0 0-2.751 6.783.36.36 0 0 1-.42.31.36.36 0 0 1-.31-.42 19.53 19.53 0 0 1 2.89-7.004 47.017 47.017 0 0 1 4.542-6.002.33.33 0 0 1 .46 0 .34.34 0 0 1 .04.33ZM37.608 82.708a58.188 58.188 0 0 0 14.415 3.582.46.46 0 0 1 .4.51.46.46 0 0 1-.51.39 59.517 59.517 0 0 1-14.615-3.711.42.42 0 0 1-.23-.54.42.42 0 0 1 .54-.23ZM66.94 86.91c5.001-.14 9.953-.57 14.904-1.18a.53.53 0 0 1 .58.46.52.52 0 0 1-.45.57c-5.001.6-10.003 1-15.005 1.14a.482.482 0 0 1-.5-.48.489.489 0 0 1 .47-.51ZM96.646 83.475l14.775-2.792a.579.579 0 0 1 .661.45.584.584 0 0 1-.45.67l-14.766 2.752a.55.55 0 0 1-.64-.44.55.55 0 0 1 .44-.63l-.02-.01ZM126.141 77.897l14.825-2.381a.614.614 0 0 1 .619.285c.042.069.07.145.082.225a.604.604 0 0 1-.5.7l-14.816 2.331a.602.602 0 0 1-.68-.49.591.591 0 0 1 .47-.67ZM155.799 73.221l14.866-2.1a.66.66 0 0 1 .623 1.049.67.67 0 0 1-.433.261l-14.845 2.05a.643.643 0 0 1-.613-1.004.633.633 0 0 1 .402-.256ZM185.575 69.343l15.006-1.34a.703.703 0 0 1 .76.64.709.709 0 0 1-.64.77l-14.925 1.291a.69.69 0 0 1-.201-1.36ZM215.573 67.24l7.513-.06h7.552a.759.759 0 0 1 .638 1.076.758.758 0 0 1-.728.424c-1.21-.07-2.471-.06-3.711 0h-11.224a.725.725 0 0 1-.516-.208.717.717 0 0 1-.214-.513.73.73 0 0 1 .69-.72ZM245.39 71.071a10.302 10.302 0 0 1 3.081 2.632 5.823 5.823 0 0 1 1.2 4.001 8.679 8.679 0 0 1-1.44 3.842 19.269 19.269 0 0 1-2.501 3.001.8.8 0 0 1-.56.233.79.79 0 0 1-.561-.233.797.797 0 0 1-.238-.565.788.788 0 0 1 .238-.565c.84-.82 1.598-1.722 2.261-2.691a7.143 7.143 0 0 0 1.201-3.112 4.215 4.215 0 0 0-.881-3.001 8.919 8.919 0 0 0-2.591-2.231.776.776 0 0 1-.372-.784.793.793 0 0 1 .102-.287.782.782 0 0 1 1.061-.24ZM233.727 93.894a102.835 102.835 0 0 1-13.445 6.914.85.85 0 0 1-1.121-1.093.837.837 0 0 1 .451-.458c4.58-1.922 9.01-4.183 13.255-6.763a.838.838 0 0 1 1.13.27.814.814 0 0 1 .1.621.826.826 0 0 1-.37.51ZM206.139 106.028l-14.466 4.172a.863.863 0 0 1-1.09-.916.867.867 0 0 1 .62-.735l14.415-4.141h.05a.848.848 0 0 1 1.001.58.85.85 0 0 1-.53 1.04ZM177.083 113.813l-14.565 3.541a.866.866 0 0 1-1.08-.64.87.87 0 0 1 .65-1.05l14.595-3.542a.873.873 0 0 1 1.051.64.875.875 0 0 1-.123.627.875.875 0 0 1-.518.374l-.01.05ZM148.022 121.184l-14.495 3.871a.897.897 0 0 1-1.113-.977.88.88 0 0 1 .341-.59.89.89 0 0 1 .312-.153l14.515-3.862a.88.88 0 0 1 1.07.63.88.88 0 0 1-.086.674.867.867 0 0 1-.544.407ZM119.1 129.091l-14.345 4.342a.911.911 0 0 1-.691-.065.906.906 0 0 1 .161-1.666l14.395-4.342a.91.91 0 0 1 1.12.6.901.901 0 0 1-.6 1.121l-.04.01ZM90.574 138.221l-14.005 5.382a.927.927 0 0 1-1.19-.53.932.932 0 0 1 .53-1.19l14.005-5.403a.918.918 0 0 1 1.241.883.91.91 0 0 1-.59.828l.01.03ZM62.956 149.697A237.863 237.863 0 0 0 49.7 156.6a.926.926 0 0 1-1.035-.082.932.932 0 0 1-.235-.278.923.923 0 0 1 .35-1.271 235.222 235.222 0 0 1 13.374-6.943.928.928 0 0 1 1.094 1.456.937.937 0 0 1-.293.215ZM36.915 164.343c-4.191 2.691-8.303 5.502-12.244 8.524a1.003 1.003 0 0 1-1.34-.18.945.945 0 0 1-.068-1.054.941.941 0 0 1 .248-.277c4.001-3.061 8.163-5.893 12.384-8.604a.997.997 0 0 1 1.31.29.946.946 0 0 1-.023 1.047.941.941 0 0 1-.267.254ZM13.519 182.683a49.755 49.755 0 0 0-8.703 11.806 1.002 1.002 0 0 1-1.3.43 1.004 1.004 0 0 1-.43-1.301 51.69 51.69 0 0 1 9.002-12.265.999.999 0 0 1 1.36 0 .999.999 0 0 1 .07 1.33ZM1.975 208.446a22.843 22.843 0 0 0 1.93 6.903 21.518 21.518 0 0 0 1.741 3.191l2 3.102v.08a1 1 0 0 1-.29 1.35.999.999 0 0 1-1.36-.29l-2.06-3.231a23.067 23.067 0 0 1-1.841-3.392 24.956 24.956 0 0 1-2.091-7.493 1.002 1.002 0 0 1 .86-1.081 1.002 1.002 0 0 1 1.11.861ZM18.005 231.864a46.986 46.986 0 0 0 13.235 6.253 1.004 1.004 0 0 1 .67 1.241 1.002 1.002 0 0 1-1.24.67 49.01 49.01 0 0 1-13.785-6.533 1 1 0 0 1-.25-1.381.999.999 0 0 1 1.37-.25ZM45.766 240.718c4.947.335 9.911.315 14.855-.06a1.004 1.004 0 0 1 1.06.921.998.998 0 0 1-.92 1c-5.036.387-10.094.414-15.135.08a.996.996 0 0 1-.579-1.748c.199-.172.457-.259.72-.243v.05ZM75.41 238.865l14.655-2.941h.05a1.003 1.003 0 0 1 1.14.76 1.003 1.003 0 0 1-.76 1.151l-14.765 3.001a1.003 1.003 0 0 1-1.15-.76 1 1 0 0 1 .83-1.211h.07-.07ZM104.614 232.302l14.505-3.852a.943.943 0 0 1 1.01.341c.075.101.13.217.16.339a.942.942 0 0 1-.67 1.161l-14.515 3.872a1 1 0 0 1-1.181-.681 1.001 1.001 0 0 1 .691-1.18ZM133.56 224.457l14.435-4.092a1.003 1.003 0 0 1 1.17.651.942.942 0 0 1-.65 1.16l-14.435 4.112a1 1 0 0 1-1.18-.66 1 1 0 0 1 .66-1.171ZM162.439 216.25l14.445-4.072a.93.93 0 0 1 1.141.64.93.93 0 0 1-.64 1.141l-14.425 4.091a.943.943 0 0 1-1.161-.64.938.938 0 0 1 .64-1.15v-.01ZM191.357 208.216l14.536-3.782a.904.904 0 0 1 .957.329.898.898 0 0 1 .153.321.891.891 0 0 1-.092.692.887.887 0 0 1-.558.419l-14.505 3.792a.916.916 0 0 1-.965-.329.918.918 0 0 1-.156-.322.914.914 0 0 1 .328-.964.905.905 0 0 1 .323-.156h-.021ZM220.459 200.909l14.686-3.191a.896.896 0 0 1 1.06.69.887.887 0 0 1-.117.673.878.878 0 0 1-.563.387l-14.645 3.192a.919.919 0 0 1-.685-.119.919.919 0 0 1-.396-.572.909.909 0 0 1 .66-1.06ZM249.963 194.947l14.855-2.291a.896.896 0 0 1 1.001.74.89.89 0 0 1-.74 1l-14.796 2.301a.867.867 0 0 1-1-.74.88.88 0 0 1 .74-1l-.06-.01ZM279.751 190.928l14.935-1.451a.868.868 0 0 1 .95.77.88.88 0 0 1-.78.951l-14.925 1.46a.856.856 0 0 1-.661-.177.86.86 0 0 1-.328-.599.87.87 0 0 1 .819-.954h-.01ZM309.661 188.267l15.005-.82a.85.85 0 1 1 .09 1.691l-14.955.83a.851.851 0 0 1-.67-.183.864.864 0 0 1-.317-.618.858.858 0 0 1 .887-.91l-.04.01ZM339.709 187.156l15.005.41a.81.81 0 0 1 0 1.62l-15.005-.36a.817.817 0 0 1-.581-.257.82.82 0 0 1-.229-.593.837.837 0 0 1 .85-.82h-.04ZM369.747 188.844c5.002.58 10.003 1.34 14.885 2.311a.78.78 0 0 1 .49 1.177.757.757 0 0 1-.78.333c-4.892-1-9.824-1.69-14.775-2.261a.786.786 0 0 1-.609-.86.79.79 0 0 1 .789-.7ZM399.275 194.731l3.612 1.121c1.21.41 2.39.87 3.561 1.37a49.073 49.073 0 0 1 6.742 3.522.72.72 0 0 1 .225.995.72.72 0 0 1-.995.225 47.797 47.797 0 0 0-6.552-3.401 43.447 43.447 0 0 0-3.442-1.311l-3.571-1.1a.745.745 0 0 1-.495-.926.745.745 0 0 1 .925-.495h-.01ZM422.862 212.425a9.515 9.515 0 0 1-.18 4.002 12.162 12.162 0 0 1-1.61 3.601 16.41 16.41 0 0 1-5.692 5.273.674.674 0 0 1-.68-1.161 15.076 15.076 0 0 0 5.221-4.842 9.312 9.312 0 0 0 1.611-6.643.713.713 0 0 1 .57-.81.699.699 0 0 1 .8.57l-.04.01ZM401.123 230.35l-14.445 4.122a.634.634 0 0 1-.771-.431.621.621 0 0 1 .43-.77l14.405-4.152a.653.653 0 0 1 .75.94.656.656 0 0 1-.389.311l.02-.02ZM372.183 238.375l-14.526 3.792a.578.578 0 0 1-.435-.059.57.57 0 0 1-.265-.351.578.578 0 0 1 .41-.711l14.505-3.841a.618.618 0 0 1 .741.43.601.601 0 0 1-.43.73v.01ZM343.155 245.989c-2.411.67-4.842 1.26-7.222 2.001l-7.163 2.161a.528.528 0 0 1-.582-.368.527.527 0 0 1 .272-.633l7.202-2.211c2.401-.74 4.822-1.33 7.233-2.001a.573.573 0 0 1 .461.012.571.571 0 0 1 .296.354.564.564 0 0 1-.236.622.565.565 0 0 1-.221.083l-.04-.02ZM314.909 255.712a112.422 112.422 0 0 0-13.005 7.304.466.466 0 0 1-.354.065.475.475 0 0 1-.296-.205.482.482 0 0 1 .13-.651 111.282 111.282 0 0 1 13.105-7.433.512.512 0 0 1 .602.803.49.49 0 0 1-.162.117h-.02ZM289.92 271.951l-5.562 5.002a41.973 41.973 0 0 0-5.122 5.382.397.397 0 0 1-.55.07.394.394 0 0 1-.145-.262.39.39 0 0 1 .085-.288 41.921 41.921 0 0 1 5.162-5.502l5.572-5.063a.432.432 0 0 1 .726.15.423.423 0 0 1 .021.176.42.42 0 0 1-.167.305l-.02.03ZM272.717 295.504a15.539 15.539 0 0 0 .34 7.273 15.008 15.008 0 0 0 3.791 6.213.303.303 0 1 1-.43.43 15.666 15.666 0 0 1-4.001-6.443 16.261 16.261 0 0 1-.391-7.593.347.347 0 0 1 .265-.279.346.346 0 0 1 .136-.001.332.332 0 0 1 .224.141.34.34 0 0 1 .056.259h.01ZM289.488 316.825a69.584 69.584 0 0 0 14.245 4.442.24.24 0 0 1 .082.031.215.215 0 0 1 .097.142.213.213 0 0 1 .001.087.229.229 0 0 1-.26.18 69.532 69.532 0 0 1-14.375-4.392.266.266 0 0 1-.141-.146.267.267 0 0 1 .001-.204.269.269 0 0 1 .35-.14ZM318.551 322.984c5.002.19 10.012.103 15.005-.26a.118.118 0 0 1 .056.004.129.129 0 0 1 .094.126.146.146 0 0 1-.007.055.147.147 0 0 1-.07.081.144.144 0 0 1-.053.014c-4.992.387-10.001.504-15.005.35a.187.187 0 0 1-.128-.059.187.187 0 0 1-.052-.131.191.191 0 0 1 .19-.18h-.03ZM348.441 321.068l14.776-2.581a.048.048 0 0 1 .035-.014c.013 0 .025.005.035.014a.06.06 0 0 1 0 .07l-14.776 2.711a.107.107 0 0 1-.04.001.13.13 0 0 1-.037-.015.11.11 0 0 1-.028-.029.12.12 0 0 1-.015-.037.101.101 0 0 1 .08-.11l-.03-.01ZM377.883 315.352l6.002-1.34-6.002 1.37v-.03ZM839.621 663.042l14.974-1.088a.099.099 0 0 0 .041-.01.115.115 0 0 0 .033-.025.109.109 0 0 0 .019-.037.095.095 0 0 0 .003-.041.11.11 0 0 0-.114-.106l-14.976 1.048a.132.132 0 0 0-.052.008.125.125 0 0 0-.068.075.11.11 0 0 0-.005.051.13.13 0 0 0 .041.091.13.13 0 0 0 .094.034h.01Z"/><rect width="9.5" height="22.991" x="88.5" y="85" fill="url(#a)" stroke="#000" stroke-linejoin="round" stroke-width="2" rx="1"/><path fill="#000" fill-rule="evenodd" d="M136.214 91.496c-20.381 0-38.275 5.85-48.43 14.663-2.49 2.161-3.589 5.427-3.589 8.723v9.602l100.282-1.432-48.263-31.556Z" clip-rule="evenodd"/><path fill="#F1EFED" d="m184.477 123.052 4.714-.068.023-5.499c.021-4.974-1.614-9.957-5.606-12.926l-.003-.003c-10.644-7.912-28.272-13.06-47.391-13.06l48.263 31.556Z"/><path stroke="#000" stroke-linejoin="round" stroke-width="2" d="m136.214 91.496 48.263 31.556m-48.263-31.556c-20.381 0-38.275 5.85-48.43 14.663m48.43-14.663c19.119 0 36.747 5.148 47.391 13.06m.872 18.496-100.282 1.432v-9.602m100.282 8.17 4.714-.068.023-5.499m-101.43-11.326c-2.49 2.161-3.589 5.427-3.589 8.723m3.59-8.723c-2.49 2.159-3.59 5.428-3.59 8.723m99.41-10.326.003.003m-.003-.003.003.003m5.606 12.926c.021-4.974-1.614-9.957-5.606-12.926m5.606 12.926c.021-4.971-1.616-9.96-5.606-12.926"/><path fill="url(#b)" stroke="#000" stroke-linecap="round" stroke-linejoin="round" stroke-width="2" d="M83.328 116.38C80.575 214.149 72.25 266.322 50.5 354.9h157.494c-8.987-87.116-12.868-140.856-18.741-237.64-.157-2.604-1.754-4.946-4.151-5.976-32.957-14.168-54.673-15.797-95.524-3.221-3.643 1.122-6.142 4.507-6.25 8.317Z"/><ellipse cx="40.254" cy="15.944" stroke="#000" stroke-linejoin="round" stroke-width="2" rx="40.254" ry="15.944" transform="translate(94.445 148.176) skewX(.056)"/><ellipse cx="40.245" cy="15.948" stroke="#000" stroke-linejoin="round" stroke-width="2" rx="40.245" ry="15.948" transform="matrix(.55095 -.83454 .83021 .55745 99 187.656)"/><ellipse cx="40.245" cy="15.948" stroke="#000" stroke-linejoin="round" stroke-width="2" rx="40.245" ry="15.948" transform="matrix(-.55127 -.83433 -.83042 .55714 170.391 187.656)"/><ellipse cx="6.836" cy="6.833" fill="#000" stroke="#000" stroke-linejoin="round" stroke-width="2" rx="6.836" ry="6.833" transform="translate(127.867 157.289) skewX(.056)"/><rect width="7.934" height="19.202" x="225.82" y="132.484" fill="url(#c)" stroke="#000" stroke-linejoin="round" stroke-width="2" rx=".835"/><path fill="#000" fill-rule="evenodd" d="M265.672 137.91c-17.022 0-31.967 4.886-40.448 12.246-2.08 1.805-2.997 4.533-2.997 7.286v8.019l83.753-1.196-40.308-26.355Z" clip-rule="evenodd"/><path fill="#F1EFED" d="m305.98 164.265 3.937-.056.02-4.593c.018-4.156-1.349-8.319-4.685-10.798-8.89-6.608-23.612-10.908-39.58-10.908l40.308 26.355Z"/><path stroke="#000" stroke-linejoin="round" stroke-width="2" d="m265.672 137.91 40.308 26.355m-40.308-26.355c-17.022 0-31.967 4.886-40.448 12.246m40.448-12.246c15.968 0 30.69 4.3 39.58 10.908m.728 15.447-83.753 1.196v-8.019m83.753 6.823 3.937-.056.02-4.593m-84.713-9.46c-2.08 1.805-2.997 4.533-2.997 7.286m2.997-7.286c-2.079 1.804-2.997 4.534-2.997 7.286m83.025-8.624c3.336 2.479 4.703 6.642 4.685 10.798m-4.685-10.798c3.334 2.478 4.703 6.644 4.685 10.798"/><path fill="url(#d)" stroke="#000" stroke-linecap="round" stroke-linejoin="round" stroke-width="2" d="M221.504 158.69c-2.3 81.655-9.253 125.23-27.418 199.209h131.537c-7.506-72.758-10.748-117.641-15.652-198.474-.132-2.175-1.466-4.131-3.467-4.991-27.526-11.832-45.663-13.193-79.781-2.69-3.042.937-5.13 3.764-5.219 6.946Z"/><ellipse cx="25.907" cy="10.261" stroke="#000" stroke-linejoin="round" stroke-width="1.7" rx="25.907" ry="10.261" transform="translate(237.953 192.09) skewX(.056)"/><ellipse cx="25.901" cy="10.264" stroke="#000" stroke-linejoin="round" stroke-width="1.7" rx="25.901" ry="10.264" transform="matrix(.55095 -.83454 .83021 .55745 240.891 217.504)"/><ellipse cx="25.901" cy="10.264" stroke="#000" stroke-linejoin="round" stroke-width="1.7" rx="25.901" ry="10.264" transform="matrix(-.55127 -.83433 -.83042 .55714 286.836 217.504)"/><ellipse cx="4.4" cy="4.398" fill="#000" stroke="#000" stroke-linejoin="round" stroke-width="1.7" rx="4.4" ry="4.398" transform="translate(259.461 197.957) skewX(.056)"/><path fill="#000" stroke="#000" stroke-linejoin="round" stroke-width="2" d="M283.992 336.906h84.997v31.488h-84.997zM23 343.402h177.993v24.991H23z"/><path fill="#5869DD" stroke="#000" stroke-linejoin="round" stroke-width="2" d="m23 343.402 177.993 6.998v17.993H23v-24.991Z"/><path fill="url(#e)" d="m330.987 296.922-46.998-29.988v73.472h46.998v-43.484Z"/><path fill="url(#f)" fill-rule="evenodd" d="M283.989 266.934V368.396h-82.497l-6.75-76.722 89.247-24.74Z" clip-rule="evenodd"/><path fill="#000" d="M194.742 291.674v76.722h6.75l-6.75-76.722Z"/><path stroke="#000" stroke-linejoin="round" stroke-width="2" d="m283.989 266.934 46.998 29.988v43.484h-46.998m0-73.472v73.472m0-73.472-89.247 24.74m89.247 48.732v27.99h-82.497m-6.75-76.722v76.722h6.75m-6.75-76.722 6.75 76.722"/><path fill="url(#g)" stroke="#000" stroke-linejoin="round" stroke-width="2" d="m284.992 342.904 83.997-5.998v31.488h-83.997v-25.49Z"/><path fill="url(#h)" d="m269.214 540.907-16.323 34.154 20.832-8.283-4.509-25.871Z"/><path fill="#000" d="m329.749 533.748-9.955-1.651 13.509 23.246 20.621 11.005-3.15-18.068-21.025-14.532ZM319.794 532.097l-50.58 8.81 49.435 33.358 1.145-42.168Z"/><path fill="#5869DD" d="m346.811 578.588-2.34 13.101 12.602-7.272-3.149-18.069-20.621-11.005 13.508 23.245ZM278.232 592.649l25.148 18.891 38.752-6.75 2.339-13.101-13.081 6.933-53.158-5.973Z"/><path fill="url(#i)" d="m344.471 591.689 2.34-13.101-13.508-23.245-13.509-23.246-1.145 42.168 25.822 17.424Z"/><path fill="url(#j)" d="m278.232 592.649 53.158 5.973 13.081-6.933-25.822-17.424-49.435-33.358 4.509 25.871 4.509 25.871Z"/><path fill="#5869DD" d="m252.891 575.061 11.479 12.81 13.862 4.778-4.509-25.871-20.832 8.283Z"/><path stroke="#000" stroke-linecap="round" stroke-linejoin="round" stroke-width="2" d="m269.214 540.907 50.58-8.81m-50.58 8.81 29.869-26.358 19.566 10.978 1.145 6.57m-50.58 8.81-16.323 34.154m16.323-34.154 49.435 33.358m-49.435-33.358 4.509 25.871m4.509 25.871 25.148 18.891 38.752-6.75 2.339-13.101m-66.239.96-13.862-4.778-11.479-12.81m25.341 17.588 53.158 5.973 13.081-6.933m-66.239.96-4.509-25.871m46.071-34.681 9.955 1.651 21.025 14.532 3.15 18.068m-34.13-34.251-1.145 42.168m1.145-42.168 13.509 23.246m11.168 36.346 2.34-13.101-13.508-23.245m11.168 36.346 12.602-7.272-3.149-18.069m-9.453 25.341-25.822-17.424m-65.758.796 20.832-8.283m59.58-11.435 20.621 11.005"/><path fill="url(#k)" d="m382.928 582.056 57.246 7.894 14.342-7.075-66.757-47.367-4.19 33.373-1.186 9.453.545 3.722Z"/><path fill="url(#l)" d="m382.928 582.056 26.596 20.975 42.068-6.162 2.924-13.994-14.342 7.075-57.246-7.894Z"/><path fill="#5869DD" fill-rule="evenodd" d="m460.199 528.307-72.44 7.201 66.757 47.367 2.925-13.994.74-10.884 2.018-29.69Z" clip-rule="evenodd"/><path fill="#000" d="m429.663 518.236-54.91 8.043 13.006 9.229 72.44-7.201-30.536-10.071Z"/><path fill="#5869DD" fill-rule="evenodd" d="m454.516 582.875 2.925-13.994.74-10.884 15.405-24.276-5.235 41.701-13.835 7.453Z" clip-rule="evenodd"/><path fill="#000" d="m473.586 533.721-13.387-5.414-2.018 29.69 15.405-24.276Z"/><path fill="#5869DD" fill-rule="evenodd" d="m382.383 578.334.545 3.722-14.83-5.515 3.327-25.131 12.144 17.471-1.186 9.453Z" clip-rule="evenodd"/><path fill="#000" d="m387.759 535.508-13.006-9.229-3.328 25.131 12.144 17.471 4.19-33.373Z"/><path stroke="#000" stroke-linecap="round" stroke-linejoin="round" stroke-width="2" d="m374.753 526.279 54.91-8.042m-54.91 8.042 33.067-27.452 20.805 12.327 1.038 7.083m-54.91 8.042 13.006 9.229m-13.006-9.229-3.328 25.131m11.503 30.646 26.596 20.975 42.068-6.162 2.924-13.994m-71.588-.819-14.83-5.515 3.327-25.131m11.503 30.646 57.246 7.894 14.342-7.075m-71.588-.819-.545-3.722 1.186-9.453m46.094-50.644 10.704 2.049 33.219 13.435m-43.923-15.484 30.536 10.07m-5.683 54.568 2.925-13.994.74-10.884m-3.665 24.878 13.835-7.453 5.235-41.701m-19.07 49.154-66.757-47.367m85.827-1.787-13.387-5.414m13.387 5.414-15.405 24.276m-70.422-22.489-4.19 33.373m4.19-33.373 72.44-7.201m0 0-2.018 29.69m-86.756-6.587 12.144 17.471"/><path fill="#000" d="m159.229 528.425-22.12 26.585 7.873 13.55 14.247-40.135ZM207.535 530.994l15.12 46.2 9.965-25.732-16.285-16.998-8.8-3.47Z"/><path fill="url(#m)" d="m156.72 575.562 19.162 21.653 37.008 1.969 4.883-10.995-13.465 3.41-47.588-16.037Z"/><path fill="url(#n)" d="m159.229 528.425-2.509 47.137 47.588 16.037 13.465-3.41-58.544-59.764Z"/><path fill="#5869DD" d="m156.72 575.562 2.509-47.137-14.247 40.135 11.738 7.002Z"/><path fill="url(#o)" d="m222.655 577.194-4.882 10.995 13.094-3.806 1.753-32.921-9.965 25.732Z"/><path fill="#5869DD" d="m222.655 577.194-15.12-46.2-48.306-2.569 58.544 59.764 4.882-10.995Z"/><path stroke="#000" stroke-linecap="round" stroke-linejoin="round" stroke-width="2" d="m159.229 528.425-2.509 47.137m2.509-47.137 48.306 2.569m-48.306-2.569 32.94-17.006 15.684 13.59-.318 5.985m-48.306-2.569-22.12 26.585 7.873 13.55m14.247-40.135 58.544 59.764m-58.544-59.764-14.247 40.135m11.738 7.002 19.162 21.653 37.008 1.969 4.883-10.995m-61.053-12.627-11.738-7.002m11.738 7.002 47.588 16.037 13.465-3.41m4.882-10.995-15.12-46.2m15.12 46.2-4.882 10.995m4.882-10.995 9.965-25.732m-25.085-20.468 8.8 3.47 16.285 16.998m-14.847 36.727 13.094-3.806 1.753-32.921"/><path fill="#5869DD" d="m479.231 487.711-9.874-18.493h-75.873l11.5 18.493h74.247Z"/><path fill="url(#p)" d="m469.357 469.218 9.874 18.493 69.767-89.191h-26.499l-53.142 70.698Z"/><path stroke="#000" stroke-linecap="round" stroke-linejoin="round" stroke-width="2" d="m469.357 469.218 9.874 18.493m-9.874-18.493h-75.873l11.5 18.493h74.247m-9.874-18.493 53.142-70.698h26.499l-69.767 89.191m69.767-89.19-69.767 89.19"/><path fill="url(#q)" d="m351.613 487.714-8.191-19.662 44.08-75.165h21.981l-57.87 94.827Z"/><path stroke="#000" stroke-linecap="round" stroke-linejoin="round" stroke-width="2" d="m409.483 392.888-57.87 94.826m0 0-8.191-19.662 44.08-75.165h21.981l-57.87 94.827Z"/><path fill="#5869DD" d="m374.498 499.458-6.014-18.988 14.862-28.107h16.137l-24.985 47.095Z"/><path stroke="#000" stroke-linecap="round" stroke-linejoin="round" stroke-width="2" d="m399.483 452.365-24.985 47.093m0 0-6.014-18.988 14.862-28.107h16.137l-24.985 47.095Z"/><path fill="#000" d="m495.091 514.305-8.534-15.983h-65.573l6.5 15.983h67.607Z"/><path fill="#5869DD" d="M503.236 527.199h22.902l-17.881-28.877-13.166 15.983 8.145 12.894Z"/><path fill="url(#r)" d="m513.175 465.859-12.708 15.498-13.91 16.965 8.534 15.983 13.166-15.983 26.74-32.463h-21.822Z"/><path stroke="#000" stroke-linecap="round" stroke-linejoin="round" stroke-width="2" d="m486.557 498.322 13.91-16.965 12.708-15.498h21.822l-26.74 32.463m-21.7 0 8.534 15.983m-8.534-15.983h-65.573l6.5 15.983h67.607m0 0 8.145 12.894h22.902l-17.881-28.877m-13.166 15.983 13.166-15.983"/><path fill="#5869DD" d="M277.986 547.096v19.992l198.867-46.982v-23.991l-7.108 1.822-28.765 7.374-14.347 3.678-21.845 5.6-82.561 21.165-4.818 1.235-1.654.424-37.769 9.683Z"/><path fill="url(#s)" d="m103.117 535.1 159.355 10.931 30.139-28.092 7.182-6.694-65.524-6.457-43.718-4.308-87.434 34.62Z"/><path fill="url(#t)" d="M348.483 465.859h-70.497l-43.717 17.311 58.342 3.494 31.527 1.888 24.345-22.693Z"/><path fill="#000" d="m262.472 546.031 15.514 1.065 3.705-4.271 21.597-24.886h-10.677l-30.139 28.092Z"/><path fill="#000" d="M277.986 567.088v-19.992l-15.514-1.065v19.993l15.514 1.064Z"/><path fill="url(#u)" d="M103.117 535.1v19.993l159.355 10.931v-19.993L103.117 535.1Z"/><path fill="#F1EFED" d="m325.886 491.899 22.597-26.04-24.345 22.693 1.748 3.347Z"/><path fill="#5869DD" d="M292.611 517.939h10.677l2.907-3.35 16.032-18.474 3.659-4.216-1.748-3.347-24.345 22.693-7.182 6.694Z"/><path fill="#000" d="m281.691 542.825-3.705 4.271 37.769-9.683-34.064 5.412ZM426.633 508.989l-4.578-5.154c-23.279.817-40.217.443-57.515-2.33v8.064c11.763 2.481 24.225 3.964 40.248 5.02l21.845-5.6Z"/><path fill="#F1EFED" d="m325.886 491.899-3.659 4.216c16.104 6.399 28.744 10.591 42.313 13.454v-8.064c-11.972-1.92-24.116-4.988-38.654-9.606Z"/><path fill="#000" d="m390.982 468.858 31.073 34.977 4.578 5.154 14.347-3.678-49.998-36.453ZM313.343 526.445c2.211 2.891 3.414 6.115 4.066 10.544l4.818-1.235c-.6-4.498-1.604-8.376-3.814-11.771l-5.07 2.462Z"/><path fill="#5869DD" fill-rule="evenodd" d="m440.98 475.356-49.998-6.498 49.998 36.453 28.765-7.374-28.765-22.581Z" clip-rule="evenodd"/><path fill="#000" d="m476.853 496.115-35.873-20.759 28.765 22.581 7.108-1.822Z"/><path fill="#5869DD" d="M404.788 514.589c-16.023-1.056-28.485-2.539-40.248-5.02-13.569-2.863-26.209-7.055-42.313-13.454l-16.032 18.474c6.109 2.686 9.853 5.763 12.218 9.394 2.21 3.395 3.214 7.273 3.814 11.771l82.561-21.165Z"/><path fill="url(#v)" d="m390.982 468.858-42.499-2.999-22.597 26.04c14.538 4.618 26.682 7.686 38.654 9.606 17.298 2.773 34.236 3.147 57.515 2.33l-31.073-34.977Z"/><path fill="#F1EFED" d="M313.343 526.445c-2.202-2.878-5.403-5.426-10.055-8.506l-21.597 24.886 34.064-5.412 1.654-.424c-.652-4.429-1.855-7.653-4.066-10.544ZM234.269 483.17l-43.718 17.31 43.718 4.308 58.342-18.124-58.342-3.494Z"/><path fill="#000" d="m299.793 511.245 24.345-22.693-31.527-1.888-58.342 18.124 65.524 6.457Z"/><path stroke="#000" stroke-linecap="round" stroke-linejoin="round" stroke-width="2" d="M103.117 535.1v19.993l159.355 10.931M103.117 535.1l159.355 10.931M103.117 535.1l87.434-34.62m87.435 46.616v19.992m0-19.992-15.514-1.065m15.514 1.065 3.705-4.271m-3.705 4.271 37.769-9.683m-37.769 29.675 198.867-46.982v-23.991m-198.867 70.973-15.514-1.064m214.381-69.909-35.873-20.759m35.873 20.759-7.108 1.822m-121.262-32.078h-70.497l-43.717 17.311m114.214-17.311 42.499 2.999m-42.499-2.999-22.597 26.04m22.597-26.04-24.345 22.693m66.844-19.694 49.998 6.498m-49.998-6.498 31.073 34.977m-31.073-34.977 49.998 36.453m0-29.955 28.765 22.581m-43.112 11.052-4.578-5.154m4.578 5.154-21.845 5.6m21.845-5.6 14.347-3.678m-178.508 40.72 30.139-28.092m-30.139 28.092v19.993m30.139-48.085h10.677m-10.677 0 7.182-6.694m3.495 6.694c4.652 3.08 7.853 5.628 10.055 8.506m-10.055-8.506-21.597 24.886m21.597-24.886 2.907-3.35m11.214 22.4c-.652-4.429-1.855-7.653-4.066-10.544m4.066 10.544-1.654.424m1.654-.424 4.818-1.235m3.659-43.855-3.659 4.216m3.659-4.216-1.748-3.347m1.748 3.347c14.538 4.618 26.682 7.686 38.654 9.606m57.515 2.33c-23.279.817-40.217.443-57.515-2.33m40.248 13.084c-16.023-1.056-28.485-2.539-40.248-5.02m40.248 5.02-82.561 21.165m0-39.639c16.104 6.399 28.744 10.591 42.313 13.454m-42.313-13.454-16.032 18.474m-6.402-3.344 24.345-22.693m-24.345 22.693-65.524-6.457m-43.718-4.308 43.718-17.31m-43.718 17.31 43.718 4.308m0-21.618 58.342 3.494m31.527 1.888-31.527-1.888m20.732 39.781 5.07-2.462m-36.722 18.842 34.064-5.412m48.785-27.844v-8.064m76.44 3.806 28.765-7.374m-147.518 37.817c-.6-4.498-1.604-8.376-3.814-11.771m-12.218-9.394c6.109 2.686 9.853 5.763 12.218 9.394m-84.144-19.195 58.342-18.124"/><defs><linearGradient id="a" x1="90.111" x2="106.637" y1="126.856" y2="124.071" gradientUnits="userSpaceOnUse"><stop stop-color="#5869DD"/><stop offset="1" stop-color="#D6FFBB"/></linearGradient><linearGradient id="b" x1="217.994" x2="64.057" y1="134.483" y2="305.471" gradientUnits="userSpaceOnUse"><stop stop-color="#D6FFBB"/><stop offset="1" stop-color="#5869DD"/></linearGradient><linearGradient id="c" x1="224.835" x2="234.5" y1="144.391" y2="142.881" gradientUnits="userSpaceOnUse"><stop stop-color="#D6FFBB"/><stop offset="1" stop-color="#5869DD"/></linearGradient><linearGradient id="d" x1="336.985" x2="223.034" y1="173.468" y2="304.957" gradientUnits="userSpaceOnUse"><stop stop-color="#D6FFBB"/><stop offset="1" stop-color="#5869DD"/></linearGradient><linearGradient id="e" x1="349.986" x2="262.881" y1="287.426" y2="341.932" gradientUnits="userSpaceOnUse"><stop stop-color="#D6FFBB"/><stop offset="1" stop-color="#5869DD"/></linearGradient><linearGradient id="f" x1="337.987" x2="243.531" y1="232.447" y2="357.43" gradientUnits="userSpaceOnUse"><stop stop-color="#D6FFBB"/><stop offset="1" stop-color="#5869DD"/></linearGradient><linearGradient id="g" x1="368.989" x2="314.006" y1="315.414" y2="359.416" gradientUnits="userSpaceOnUse"><stop stop-color="#D6FFBB"/><stop offset="1" stop-color="#5869DD"/></linearGradient><linearGradient id="h" x1="252.283" x2="351.81" y1="571.571" y2="554.223" gradientUnits="userSpaceOnUse"><stop stop-color="#D6FFBB"/><stop offset="1" stop-color="#5869DD"/></linearGradient><linearGradient id="i" x1="252.283" x2="351.81" y1="571.571" y2="554.223" gradientUnits="userSpaceOnUse"><stop stop-color="#D6FFBB"/><stop offset="1" stop-color="#5869DD"/></linearGradient><linearGradient id="j" x1="327.978" x2="301.979" y1="539.33" y2="636.275" gradientUnits="userSpaceOnUse"><stop stop-color="#D6FFBB"/><stop offset="1" stop-color="#5869DD"/></linearGradient><linearGradient id="k" x1="408.983" x2="501.262" y1="632.295" y2="573.911" gradientUnits="userSpaceOnUse"><stop stop-color="#5869DD"/><stop offset="1" stop-color="#D6FFBB"/></linearGradient><linearGradient id="l" x1="365.275" x2="474.689" y1="557.285" y2="541.248" gradientUnits="userSpaceOnUse"><stop stop-color="#D6FFBB"/><stop offset="1" stop-color="#5869DD"/></linearGradient><linearGradient id="m" x1="147.323" x2="292.261" y1="666.804" y2="610.837" gradientUnits="userSpaceOnUse"><stop stop-color="#D6FFBB"/><stop offset="1" stop-color="#5869DD"/></linearGradient><linearGradient id="n" x1="208.989" x2="184.817" y1="569.319" y2="617.308" gradientUnits="userSpaceOnUse"><stop stop-color="#D6FFBB"/><stop offset="1" stop-color="#5869DD"/></linearGradient><linearGradient id="o" x1="137.278" x2="232.331" y1="551.83" y2="556.89" gradientUnits="userSpaceOnUse"><stop stop-color="#D6FFBB"/><stop offset="1" stop-color="#5869DD"/></linearGradient><linearGradient id="p" x1="471.241" x2="591.24" y1="487.711" y2="414.635" gradientUnits="userSpaceOnUse"><stop stop-color="#5869DD"/><stop offset="1" stop-color="#D6FFBB"/></linearGradient><linearGradient id="q" x1="376.452" x2="430.214" y1="463.36" y2="456.308" gradientUnits="userSpaceOnUse"><stop stop-color="#5869DD"/><stop offset="1" stop-color="#D6FFBB"/></linearGradient><linearGradient id="r" x1="477.991" x2="562.768" y1="527.199" y2="471.966" gradientUnits="userSpaceOnUse"><stop stop-color="#5869DD"/><stop offset="1" stop-color="#D6FFBB"/></linearGradient><linearGradient id="s" x1="132.991" x2="280.945" y1="444.367" y2="567.137" gradientUnits="userSpaceOnUse"><stop stop-color="#D6FFBB"/><stop offset="1" stop-color="#5869DD"/></linearGradient><linearGradient id="t" x1="157.99" x2="390.968" y1="516.474" y2="445.323" gradientUnits="userSpaceOnUse"><stop stop-color="#D6FFBB"/><stop offset="1" stop-color="#5869DD"/></linearGradient><linearGradient id="u" x1="-44.002" x2="124.313" y1="516.474" y2="380.533" gradientUnits="userSpaceOnUse"><stop stop-color="#D6FFBB"/><stop offset="1" stop-color="#5869DD"/></linearGradient><linearGradient id="v" x1="239.487" x2="379.473" y1="437.87" y2="484.381" gradientUnits="userSpaceOnUse"><stop stop-color="#D6FFBB"/><stop offset="1" stop-color="#5869DD"/></linearGradient></defs></svg>
