<svg xmlns="http://www.w3.org/2000/svg" width="44" height="44" fill="none" viewBox="0 0 44 44"><path fill="#8F8E93" d="M6.1 26H4v2.157h2.1V26Z"/><path fill="#8F8E93" d="M8.1 26H6v2.157h2.1V26Z"/><path fill="#8F8E93" d="M10.1 26H8v2.157h2.1V26Z"/><path fill="#8F8E93" d="M12.1 26H10v2.157h2.1V26Z"/><path fill="#8F8E93" d="M14.1 26H12v2.157h2.1V26Z"/><path fill="#8F8E93" d="M16.1 26H14v2.157h2.1V26Z"/><path fill="#8F8E93" d="M18.1 26H16v2.157h2.1V26ZM27.1 16H25v2.157h2.1V16Z"/><path fill="#8F8E93" d="M29.1 16H27v2.157h2.1V16Z"/><path fill="#8F8E93" d="M31.1 16H29v2.157h2.1V16Z"/><path fill="#8F8E93" d="M31.1 18H29v2.157h2.1V18ZM22.1 14H20v2.157h2.1V14Z"/><path fill="#8F8E93" d="M20.1 14H18v2.157h2.1V14ZM13.1 19H11v2.157h2.1V19Z"/><path fill="#8F8E93" d="M11.1 19H9v2.157h2.1V19Z"/><path fill="#8F8E93" d="M9.1 18H7v2.157h2.1V18Z"/><path fill="#8F8E93" d="M9.1 17H7v2.157h2.1V17Z"/><path fill="#8F8E93" d="M7.1 17H5v2.157h2.1V17Z"/><path fill="#8F8E93" d="M6.1 17H4v2.157h2.1V17Z"/><path fill="#8F8E93" d="M6.1 18H4v2.157h2.1V18Z"/><path fill="#8F8E93" d="M7.1 18H5v2.157h2.1V18Z"/><path fill="#8F8E93" d="M7.1 20H5v2.157h2.1V20ZM4.1 17H2v2.157h2.1V17Z"/><path fill="#8F8E93" d="M4.1 18H2v2.157h2.1V18ZM31.1 22H29v2.157h2.1V22Z"/><path fill="#8F8E93" d="M31.1 23H29v2.157h2.1V23ZM40.1 24H38v2.157h2.1V24ZM34.1 24H32v2.157h2.1V24ZM33.1 16H31v2.157h2.1V16Z"/><path fill="#8F8E93" d="M35.1 16H33v2.157h2.1V16Z"/><path fill="#8F8E93" d="M37.1 16H35v2.157h2.1V16Z"/><path fill="#8F8E93" d="M39.1 16H37v2.157h2.1V16Z"/><path fill="#8F8E93" d="M41.1 16H39v2.157h2.1V16Z"/><path fill="#8F8E93" d="M43.1 16H41v2.157h2.1V16ZM15.1 38H13v2.157h2.1V38Z"/><path fill="#8F8E93" d="M17.1 38H15v2.157h2.1V38Z"/><path fill="#8F8E93" d="M19.1 38H17v2.157h2.1V38Z"/><path fill="#8F8E93" d="M21.1 38H19v2.157h2.1V38Z"/><path fill="#8F8E93" d="M23.1 38H21v2.157h2.1V38Z"/><path fill="#8F8E93" d="M25.1 38H23v2.157h2.1V38Z"/><path fill="#8F8E93" d="M27.1 38H25v2.157h2.1V38Z"/><path fill="#8F8E93" d="M29.1 38H27v2.157h2.1V38Z"/><path fill="#8F8E93" d="M31.1 38H29v2.157h2.1V38ZM13.1 36H11v2.157h2.1V36Z"/><path fill="#8F8E93" d="M13.1 34H11v2.157h2.1V34ZM6.1 34H4v2.157h2.1V34ZM2.1 26H0v2.157h2.1V26Z"/><path fill="#8F8E93" d="M15.1 36H13v2.157h2.1V36Z"/><path fill="#8F8E93" d="M17.1 36H15v2.157h2.1V36Z"/><path fill="#8F8E93" d="M19.1 36H17v2.157h2.1V36Z"/><path fill="#8F8E93" d="M21.1 36H19v2.157h2.1V36Z"/><path fill="#8F8E93" d="M23.1 36H21v2.157h2.1V36Z"/><path fill="#8F8E93" d="M25.1 36H23v2.157h2.1V36Z"/><path fill="#8F8E93" d="M27.1 36H25v2.157h2.1V36Z"/><path fill="#8F8E93" d="M29.1 36H27v2.157h2.1V36ZM14.1 34H12v2.157h2.1V34Z"/><path fill="#8F8E93" d="M16.1 34H14v2.157h2.1V34Z"/><path fill="#8F8E93" d="M18.1 34H16v2.157h2.1V34Z"/><path fill="#8F8E93" d="M20.1 34H18v2.157h2.1V34Z"/><path fill="#8F8E93" d="M22.1 34H20v2.157h2.1V34Z"/><path fill="#8F8E93" d="M24.1 34H22v2.157h2.1V34Z"/><path fill="#8F8E93" d="M26.1 34H24v2.157h2.1V34Z"/><path fill="#8F8E93" d="M28.1 34H26v2.157h2.1V34Z"/><path fill="#8F8E93" d="M30.1 34H28v2.157h2.1V34ZM15.1 32H13v2.157h2.1V32Z"/><path fill="#8F8E93" d="M17.1 32H15v2.157h2.1V32Z"/><path fill="#8F8E93" d="M19.1 32H17v2.157h2.1V32Z"/><path fill="#8F8E93" d="M21.1 32H19v2.157h2.1V32Z"/><path fill="#8F8E93" d="M23.1 32H21v2.157h2.1V32Z"/><path fill="#8F8E93" d="M25.1 32H23v2.157h2.1V32Z"/><path fill="#8F8E93" d="M27.1 32H25v2.157h2.1V32Z"/><path fill="#8F8E93" d="M29.1 32H27v2.157h2.1V32Z"/><path fill="#8F8E93" d="M31.1 32H29v2.157h2.1V32ZM16.1 30H14v2.157h2.1V30Z"/><path fill="#8F8E93" d="M18.1 30H16v2.157h2.1V30Z"/><path fill="#8F8E93" d="M20.1 30H18v2.157h2.1V30Z"/><path fill="#8F8E93" d="M22.1 30H20v2.157h2.1V30ZM26.1 30H24v2.157h2.1V30Z"/><path fill="#8F8E93" d="M28.1 30H26v2.157h2.1V30Z"/><path fill="#8F8E93" d="M30.1 30H28v2.157h2.1V30Z"/><path fill="#8F8E93" d="M32.1 30H30v2.157h2.1V30ZM6.1 28H4v2.157h2.1V28Z"/><path fill="#8F8E93" d="M8.1 28H6v2.157h2.1V28Z"/><path fill="#8F8E93" d="M10.1 28H8v2.157h2.1V28Z"/><path fill="#8F8E93" d="M12.1 28H10v2.157h2.1V28Z"/><path fill="#8F8E93" d="M14.1 28H12v2.157h2.1V28Z"/><path fill="#8F8E93" d="M16.1 28H14v2.157h2.1V28Z"/><path fill="#8F8E93" d="M18.1 28H16v2.157h2.1V28Z"/><path fill="#8F8E93" d="M20.1 28H18v2.157h2.1V28Z"/><path fill="#8F8E93" d="M22.1 28H20v2.157h2.1V28ZM6.1 30H4v2.157h2.1V30Z"/><path fill="#8F8E93" d="M8.1 30H6v2.157h2.1V30Z"/><path fill="#8F8E93" d="M10.1 30H8v2.157h2.1V30Z"/><path fill="#8F8E93" d="M12.1 30H10v2.157h2.1V30Z"/><path fill="#8F8E93" d="M14.1 30H12v2.157h2.1V30Z"/><path fill="#8F8E93" d="M16.1 30H14v2.157h2.1V30Z"/><path fill="#8F8E93" d="M18.1 30H16v2.157h2.1V30Z"/><path fill="#8F8E93" d="M20.1 30H18v2.157h2.1V30Z"/><path fill="#8F8E93" d="M22.1 30H20v2.157h2.1V30ZM6.1 32H4v2.157h2.1V32Z"/><path fill="#8F8E93" d="M8.1 32H6v2.157h2.1V32Z"/><path fill="#8F8E93" d="M10.1 32H8v2.157h2.1V32Z"/><path fill="#8F8E93" d="M12.1 32H10v2.157h2.1V32Z"/><path fill="#8F8E93" d="M14.1 32H12v2.157h2.1V32Z"/><path fill="#8F8E93" d="M16.1 32H14v2.157h2.1V32Z"/><path fill="#8F8E93" d="M18.1 32H16v2.157h2.1V32Z"/><path fill="#8F8E93" d="M20.1 32H18v2.157h2.1V32Z"/><path fill="#8F8E93" d="M22.1 32H20v2.157h2.1V32ZM18.1 4H16v2.157h2.1V4ZM22.1 4H20v2.157h2.1V4Z"/><path fill="#8F8E93" d="M24.1 4H22v2.157h2.1V4Z"/><path fill="#8F8E93" d="M26.1 4H24v2.157h2.1V4Z"/><path fill="#8F8E93" d="M28.1 4H26v2.157h2.1V4Z"/><path fill="#8F8E93" d="M30.1 4H28v2.157h2.1V4Z"/><path fill="#8F8E93" d="M32.1 4H30v2.157h2.1V4Z"/><path fill="#8F8E93" d="M34.1 4H32v2.157h2.1V4ZM18.1 6H16v2.157h2.1V6ZM22.1 6H20v2.157h2.1V6Z"/><path fill="#8F8E93" d="M24.1 6H22v2.157h2.1V6Z"/><path fill="#8F8E93" d="M26.1 6H24v2.157h2.1V6Z"/><path fill="#8F8E93" d="M28.1 6H26v2.157h2.1V6Z"/><path fill="#8F8E93" d="M30.1 6H28v2.157h2.1V6Z"/><path fill="#8F8E93" d="M32.1 6H30v2.157h2.1V6Z"/><path fill="#8F8E93" d="M34.1 6H32v2.157h2.1V6ZM18.1 8H16v2.157h2.1V8ZM22.1 8H20v2.157h2.1V8Z"/><path fill="#8F8E93" d="M24.1 8H22v2.157h2.1V8Z"/><path fill="#8F8E93" d="M26.1 8H24v2.157h2.1V8Z"/><path fill="#8F8E93" d="M28.1 8H26v2.157h2.1V8Z"/><path fill="#8F8E93" d="M30.1 8H28v2.157h2.1V8Z"/><path fill="#8F8E93" d="M32.1 8H30v2.157h2.1V8Z"/><path fill="#8F8E93" d="M34.1 8H32v2.157h2.1V8ZM18.1 10H16v2.157h2.1V10Z"/><path fill="#8F8E93" d="M20.1 10H18v2.157h2.1V10Z"/><path fill="#8F8E93" d="M22.1 10H20v2.157h2.1V10Z"/><path fill="#8F8E93" d="M24.1 10H22v2.157h2.1V10Z"/><path fill="#8F8E93" d="M26.1 10H24v2.157h2.1V10Z"/><path fill="#8F8E93" d="M28.1 10H26v2.157h2.1V10Z"/><path fill="#8F8E93" d="M30.1 10H28v2.157h2.1V10Z"/><path fill="#8F8E93" d="M32.1 10H30v2.157h2.1V10Z"/><path fill="#8F8E93" d="M34.1 10H32v2.157h2.1V10ZM18.1 12H16v2.157h2.1V12Z"/><path fill="#8F8E93" d="M20.1 12H18v2.157h2.1V12Z"/><path fill="url(#a)" d="M32.297 29h-2.1v2.159h2.1V29Z"/><path fill="url(#b)" d="M40.694 29h-2.1v2.159h2.1V29Z"/><path fill="url(#c)" d="M38.595 29h-2.1v2.159h2.1V29Z"/><path fill="url(#d)" d="M36.495 29h-2.098v2.159h2.098V29Z"/><path fill="url(#e)" d="M34.397 29h-2.1v2.159h2.1V29Z"/><path fill="url(#f)" d="M30.198 29H28.1v2.159h2.098V29Z"/><path fill="url(#g)" d="M28.1 29H26v2.159h2.1V29Z"/><path fill="url(#h)" d="M33.297 27h-2.1v2.159h2.1V27Z"/><path fill="url(#i)" d="M41.694 27h-2.1v2.159h2.1V27Z"/><path fill="url(#j)" d="M39.595 27h-2.1v2.159h2.1V27Z"/><path fill="url(#k)" d="M37.495 27h-2.098v2.159h2.098V27Z"/><path fill="url(#l)" d="M35.397 27h-2.1v2.159h2.1V27Z"/><path fill="url(#m)" d="M31.198 27H29.1v2.159h2.098V27Z"/><path fill="url(#n)" d="M29.1 27H27v2.159h2.1V27Z"/><path fill="url(#o)" d="M34.297 25h-2.1v2.159h2.1V25Z"/><path fill="url(#p)" d="M42.694 25h-2.1v2.159h2.1V25Z"/><path fill="url(#q)" d="M40.595 25h-2.1v2.159h2.1V25Z"/><path fill="url(#r)" d="M38.495 25h-2.098v2.159h2.098V25Z"/><path fill="url(#s)" d="M36.397 25h-2.1v2.159h2.1V25Z"/><path fill="url(#t)" d="M32.198 25H30.1v2.159h2.098V25Z"/><path fill="url(#u)" d="M30.1 25H28v2.159h2.1V25Z"/><path fill="url(#v)" d="M32.297 31h-2.1v2.159h2.1V31Z"/><path fill="url(#w)" d="M38.595 31h-2.1v2.159h2.1V31Z"/><path fill="url(#x)" d="M36.495 31h-2.098v2.159h2.098V31Z"/><path fill="url(#y)" d="M34.397 31h-2.1v2.159h2.1V31Z"/><path fill="url(#z)" d="M30.198 31H28.1v2.159h2.098V31Z"/><path fill="url(#A)" d="M28.1 31H26v2.159h2.1V31Z"/><path fill="url(#B)" d="M32.297 33h-2.1v2.159h2.1V33Z"/><path fill="url(#C)" d="M38.595 33h-2.1v2.159h2.1V33Z"/><path fill="url(#D)" d="M36.495 33h-2.098v2.159h2.098V33Z"/><path fill="url(#E)" d="M34.397 33h-2.1v2.159h2.1V33Z"/><path fill="url(#F)" d="M30.198 33H28.1v2.159h2.098V33Z"/><path fill="url(#G)" d="M28.1 33H26v2.159h2.1V33Z"/><path fill="url(#H)" d="M30.297 35h-2.1v2.159h2.1V35Z"/><path fill="url(#I)" d="M36.595 35h-2.1v2.159h2.1V35Z"/><path fill="url(#J)" d="M34.495 35h-2.098v2.159h2.098V35Z"/><path fill="url(#K)" d="M32.397 35h-2.1v2.159h2.1V35Z"/><path fill="url(#L)" d="M28.198 35H26.1v2.159h2.098V35Z"/><path fill="url(#M)" d="M26.1 35H24v2.159h2.1V35Z"/><path fill="url(#N)" d="M32.297 33h-2.1v2.159h2.1V33Z"/><path fill="url(#O)" d="M38.595 33h-2.1v2.159h2.1V33Z"/><path fill="url(#P)" d="M36.495 33h-2.098v2.159h2.098V33Z"/><path fill="url(#Q)" d="M34.397 33h-2.1v2.159h2.1V33Z"/><path fill="url(#R)" d="M30.198 33H28.1v2.159h2.098V33Z"/><path fill="url(#S)" d="M28.1 33H26v2.159h2.1V33Z"/><path fill="url(#T)" d="M32.297 31h-2.1v2.159h2.1V31Z"/><path fill="url(#U)" d="M38.595 31h-2.1v2.159h2.1V31Z"/><path fill="url(#V)" d="M36.495 31h-2.098v2.159h2.098V31Z"/><path fill="url(#W)" d="M34.397 31h-2.1v2.159h2.1V31Z"/><path fill="url(#X)" d="M30.198 31H28.1v2.159h2.098V31Z"/><path fill="url(#Y)" d="M28.1 31H26v2.159h2.1V31Z"/><path fill="url(#Z)" d="M30.297 37h-2.1v2.159h2.1V37Z"/><path fill="url(#aa)" d="M36.595 37h-2.1v2.159h2.1V37Z"/><path fill="url(#ab)" d="M34.495 37h-2.098v2.159h2.098V37Z"/><path fill="url(#ac)" d="M32.397 37h-2.1v2.159h2.1V37Z"/><path fill="url(#ad)" d="M28.198 37H26.1v2.159h2.098V37Z"/><path fill="url(#ae)" d="M26.1 37H24v2.159h2.1V37Z"/><path fill="#8F8E93" d="M22.1 12H20v2.157h2.1V12Z"/><path fill="#8F8E93" d="M24.1 12H22v2.157h2.1V12Z"/><path fill="#8F8E93" d="M26.1 12H24v2.157h2.1V12Z"/><path fill="#8F8E93" d="M28.1 12H26v2.157h2.1V12Z"/><path fill="#8F8E93" d="M30.1 12H28v2.157h2.1V12Z"/><path fill="#8F8E93" d="M32.1 12H30v2.157h2.1V12Z"/><path fill="#8F8E93" d="M34.1 12H32v2.157h2.1V12ZM24.1 14H22v2.157h2.1V14Z"/><path fill="#8F8E93" d="M26.1 14H24v2.157h2.1V14Z"/><path fill="#8F8E93" d="M28.1 14H26v2.157h2.1V14Z"/><path fill="#8F8E93" d="M30.1 14H28v2.157h2.1V14Z"/><path fill="#8F8E93" d="M32.1 14H30v2.157h2.1V14Z"/><path fill="#8F8E93" d="M34.1 14H32v2.157h2.1V14ZM36.1 10H34v2.157h2.1V10Z"/><path fill="#8F8E93" d="M37.1 8H35v2.157h2.1V8Z"/><path fill="#8F8E93" d="M38.1 10H36v2.157h2.1V10Z"/><path fill="#8F8E93" d="M38.1 12H36v2.157h2.1V12Z"/><path fill="#8F8E93" d="M36.1 12H34v2.157h2.1V12ZM40.1 20H38v2.157h2.1V20ZM8.1 22H6v2.157h2.1V22ZM4.1 22H2v2.157h2.1V22Z"/><path fill="#8F8E93" d="M4.1 24H2v2.157h2.1V24ZM12.1 24H10v2.157h2.1V24ZM13.1 20H11v2.157h2.1V20Z"/><path fill="#8F8E93" d="M11.1 22H9v2.157h2.1V22ZM15.1 25H13v2.157h2.1V25ZM10.1 34H8v2.157h2.1V34ZM36.1 20H34v2.157h2.1V20Z"/><path fill="#8F8E93" d="M35.1 22H33v2.157h2.1V22Z"/><path fill="#8F8E93" d="M33.1 24H31v2.157h2.1V24ZM36.1 24H34v2.157h2.1V24Z"/><path fill="#8F8E93" d="M38.1 24H36v2.157h2.1V24Z"/><path fill="#8F8E93" d="M38.1 22H36v2.157h2.1V22ZM42.1 22H40v2.157h2.1V22ZM36.1 14H34v2.157h2.1V14ZM34.1 18H32v2.157h2.1V18ZM38.1 18H36v2.157h2.1V18ZM42.1 18H40v2.157h2.1V18Z"/><path fill="#8F8E93" d="M42.1 20H40v2.157h2.1V20Z"/><path fill="#8F8E93" d="M43.1 22H41v2.157h2.1V22ZM38.1 35H36v2.157h2.1V35ZM40.1 13H38v2.157h2.1V13ZM39.1 8H37v2.157h2.1V8Z"/><path fill="#8F8E93" d="M38.1 6H36v2.157h2.1V6ZM22.1 2H20v2.157h2.1V2ZM15.1 4H13v2.157h2.1V4ZM26.1 2H24v2.157h2.1V2Z"/><path fill="#8F8E93" d="M24.1 2H22v2.157h2.1V2ZM38.1 14H36v2.157h2.1V14Z"/><path fill="#8F8E93" d="M40.1 14H38v2.157h2.1V14ZM22.1 0H20v2.157h2.1V0Z"/><path fill="#8F8E93" d="M20.1 0H18v2.157h2.1V0Z"/><path fill="#8F8E93" d="M18.1 0H16v2.157h2.1V0Z"/><path fill="#8F8E93" d="M17.1 2H15v2.157h2.1V2Z"/><path fill="#8F8E93" d="M15.1 2H13v2.157h2.1V2Z"/><path fill="#8F8E93" d="M13.1 3H11v2.157h2.1V3Z"/><path fill="#8F8E93" d="M11.1 4H9v2.157h2.1V4ZM15.1 19H13v2.157h2.1V19Z"/><path fill="#8F8E93" d="M15.1 21H13v2.157h2.1V21Z"/><path fill="#8F8E93" d="M15.1 23H13v2.157h2.1V23ZM22.1 20H20v2.157h2.1V20Z"/><path fill="#8F8E93" d="M13.1 22H11v2.157h2.1V22ZM29.1 16H27v2.157h2.1V16ZM36.1 22H34v2.157h2.1V22ZM40.1 22H38v2.157h2.1V22ZM43.1 20H41v2.157h2.1V20Z"/><path fill="#8F8E93" d="M43.1 22H41v2.157h2.1V22ZM40.1 20H38v2.157h2.1V20Z"/><path fill="#8F8E93" d="M42.1 20H40v2.157h2.1V20Z"/><path fill="#8F8E93" d="M42.1 22H40v2.157h2.1V22ZM33.1 22H31v2.157h2.1V22Z"/><path fill="#8F8E93" d="M31.1 22H29v2.157h2.1V22Z"/><path fill="#8F8E93" d="M31.1 24H29v2.157h2.1V24ZM36.1 4H34v2.157h2.1V4ZM41.1 11H39v2.157h2.1V11ZM41.1 31H39v2.157h2.1V31Z"/><path fill="#8F8E93" d="M40.1 33H38v2.157h2.1V33ZM10.1 22H8v2.157h2.1V22Z"/><path fill="#8F8E93" d="M11.1 20H9v2.157h2.1V20ZM4.1 20H2v2.157h2.1V20Z"/><path fill="#8F8E93" d="M6.1 22H4v2.157h2.1V22Z"/><path fill="#8F8E93" d="M8.1 24H6v2.157h2.1V24ZM19.1 40H17v2.157h2.1V40Z"/><path fill="#8F8E93" d="M21.1 40H19v2.157h2.1V40Z"/><path fill="#8F8E93" d="M23.1 40H21v2.157h2.1V40Z"/><path fill="#8F8E93" d="M25.1 40H23v2.157h2.1V40Z"/><path fill="#5869DD" d="M28.1 18H26v2.157h2.1V18Z"/><path fill="#5869DD" d="M26.1 18H24v2.157h2.1V18Z"/><path fill="#5869DD" d="M28.1 16H26v2.157h2.1V16Z"/><path fill="#5869DD" d="M26.1 16H24v2.157h2.1V16Z"/><path fill="#5869DD" d="M24.1 16H22v2.157h2.1V16Z"/><path fill="#5869DD" d="M22.1 16H20v2.157h2.1V16Z"/><path fill="#5869DD" d="M22.1 15H20v2.157h2.1V15Z"/><path fill="#5869DD" d="M20.1 15H18v2.157h2.1V15Z"/><path fill="#5869DD" d="M20.1 17H18v2.157h2.1V17Z"/><path fill="#5869DD" d="M20.1 19H18v2.157h2.1V19Z"/><path fill="#5869DD" d="M18.1 17H16v2.157h2.1V17Z"/><path fill="#5869DD" d="M18.1 19H16v2.157h2.1V19Z"/><path fill="#5869DD" d="M17.1 19H15v2.157h2.1V19Z"/><path fill="#5869DD" d="M17.1 21H15v2.157h2.1V21ZM17.1 24H15v2.157h2.1V24Z"/><path fill="#5869DD" d="M17.1 23H15v2.157h2.1V23Z"/><path fill="#5869DD" d="M19.1 21H17v2.157h2.1V21Z"/><path fill="#5869DD" d="M19.1 23H17v2.157h2.1V23Z"/><path fill="#5869DD" d="M19.1 24H17v2.157h2.1V24Z"/><path fill="#5869DD" d="M20.1 24H18v2.157h2.1V24Z"/><path fill="#5869DD" d="M20.1 26H18v2.157h2.1V26Z"/><path fill="#5869DD" d="M22.1 26H20v2.157h2.1V26Z"/><path fill="#5869DD" d="M22.1 28H20v2.157h2.1V28Z"/><path fill="#5869DD" d="M20.1 28H18v2.157h2.1V28Z"/><path fill="#5869DD" d="M18.1 26H16v2.157h2.1V26ZM24.1 26H22v2.157h2.1V26Z"/><path fill="#5869DD" d="M24.1 27H22v2.157h2.1V27Z"/><path fill="#5869DD" d="M26.1 27H24v2.157h2.1V27Z"/><path fill="#5869DD" d="M27.1 27H25v2.157h2.1V27Z"/><path fill="#5869DD" d="M26.1 25H24v2.157h2.1V25Z"/><path fill="#5869DD" d="M26.1 24H24v2.157h2.1V24Z"/><path fill="#5869DD" d="M28.1 25H26v2.157h2.1V25Z"/><path fill="#5869DD" d="M28.1 23H26v2.157h2.1V23Z"/><path fill="#5869DD" d="M28.1 21H26v2.157h2.1V21Z"/><path fill="#5869DD" d="M28.1 19H26v2.157h2.1V19Z"/><path fill="#5869DD" d="M29.1 18H27v2.157h2.1V18Z"/><path fill="#5869DD" d="M29.1 20H27v2.157h2.1V20Z"/><path fill="#5869DD" d="M29.1 22H27v2.157h2.1V22Z"/><path fill="#5869DD" d="M29.1 23H27v2.157h2.1V23Z"/><path fill="#F1EFED" d="M20.1 9H18v2.157h2.1V9Z"/><path fill="#F1EFED" d="M20.1 11H18v2.157h2.1V11ZM29.1 13H27v2.157h2.1V13Z"/><path fill="#F1EFED" d="M29.1 11H27v2.157h2.1V11Z"/><path fill="#F1EFED" d="M31.1 11H29v2.157h2.1V11Z"/><path fill="#F1EFED" d="M31.1 9H29v2.157h2.1V9Z"/><path fill="#F1EFED" d="M33.1 9H31v2.157h2.1V9ZM26 30h-2v3h2v-3Z"/><path fill="#F1EFED" d="M33.1 7H31v2.157h2.1V7Z"/><path fill="#F1EFED" d="M35.1 6H33v2.157h2.1V6Z"/><path fill="#F1EFED" d="M35.1 8H33v2.157h2.1V8ZM33.1 18H31v2.157h2.1V18ZM13.1 24H11v2.157h2.1V24ZM10.1 24H8v2.157h2.1V24ZM6.1 24H4v2.157h2.1V24ZM11.1 36H9v2.157h2.1V36Z"/><path fill="#F1EFED" d="M11.1 34H9v2.157h2.1V34Z"/><path fill="#F1EFED" d="M11.1 32H9v2.157h2.1V32Z"/><path fill="#F1EFED" d="M13.1 33H11v2.157h2.1V33Z"/><path fill="#F1EFED" d="M13.1 31H11v2.157h2.1V31Z"/><path fill="#F1EFED" d="M15.1 31H13v2.157h2.1V31Z"/><path fill="url(#af)" d="M10.428 15H8.285v2h2.143v-2Z"/><path fill="url(#ag)" d="M19 15h-2.143v2H19v-2Z"/><path fill="url(#ah)" d="M16.857 15h-2.144v2h2.144v-2Z"/><path fill="url(#ai)" d="M14.713 15h-2.141v2h2.141v-2Z"/><path fill="url(#aj)" d="M12.572 15h-2.144v2h2.144v-2Z"/><path fill="url(#ak)" d="M8.285 15H6.143v2h2.142v-2Z"/><path fill="url(#al)" d="M6.143 15H4v2h2.143v-2Z"/><path fill="url(#am)" d="M10.297 13h-2.1v2.159h2.1V13Z"/><path fill="url(#an)" d="M18.695 13h-2.1v2.159h2.1V13Z"/><path fill="url(#ao)" d="M16.595 13h-2.1v2.159h2.1V13Z"/><path fill="url(#ap)" d="M14.495 13h-2.098v2.159h2.098V13Z"/><path fill="url(#aq)" d="M12.397 13h-2.1v2.159h2.1V13Z"/><path fill="url(#ar)" d="M8.198 13H6.1v2.159h2.098V13Z"/><path fill="url(#as)" d="M6.1 13H4v2.159h2.1V13Z"/><path fill="url(#at)" d="M10.297 11h-2.1v2.159h2.1V11Z"/><path fill="url(#au)" d="M16.595 11h-2.1v2.159h2.1V11Z"/><path fill="url(#av)" d="M14.495 11h-2.098v2.159h2.098V11Z"/><path fill="url(#aw)" d="M12.397 11h-2.1v2.159h2.1V11Z"/><path fill="url(#ax)" d="M8.198 11H6.1v2.159h2.098V11Z"/><path fill="url(#ay)" d="M6.1 11H4v2.159h2.1V11Z"/><path fill="url(#az)" d="M10.297 9h-2.1v2.159h2.1V9Z"/><path fill="url(#aA)" d="M16.595 9h-2.1v2.159h2.1V9Z"/><path fill="url(#aB)" d="M14.495 9h-2.098v2.159h2.098V9Z"/><path fill="url(#aC)" d="M12.397 9h-2.1v2.159h2.1V9Z"/><path fill="url(#aD)" d="M8.198 9H6.1v2.159h2.098V9Z"/><path fill="url(#aE)" d="M6.1 9H4v2.159h2.1V9Z"/><path fill="url(#aF)" d="M12.297 7h-2.1v2.159h2.1V7Z"/><path fill="url(#aG)" d="M16.495 7h-2.098v2.159h2.098V7Z"/><path fill="url(#aH)" d="M14.397 7h-2.1v2.159h2.1V7Z"/><path fill="url(#aI)" d="M10.198 7H8.1v2.159h2.098V7Z"/><path fill="url(#aJ)" d="M8.1 7H6v2.159h2.1V7Z"/><path fill="url(#aK)" d="M14.297 5h-2.1v2.159h2.1V5Z"/><path fill="url(#aL)" d="M16.397 5h-2.1v2.159h2.1V5Z"/><path fill="url(#aM)" d="M12.198 5H10.1v2.159h2.098V5Z"/><path fill="url(#aN)" d="M10.1 5H8v2.159h2.1V5Z"/><path fill="url(#aO)" d="M14.297 17h-2.1v2.159h2.1V17Z"/><path fill="url(#aP)" d="M16.397 17h-2.1v2.159h2.1V17Z"/><path fill="url(#aQ)" d="M12.198 17H10.1v2.159h2.098V17Z"/><path fill="url(#aR)" d="M10.1 17H8v2.159h2.1V17Z"/><path fill="#F1EFED" d="M17.1 4H15v2.157h2.1V4Z"/><path fill="#F1EFED" d="M19.1 4H17v2.157h2.1V4Z"/><path fill="#F1EFED" d="M19.1 6H17v2.157h2.1V6Z"/><path fill="#F1EFED" d="M19.1 8H17v2.157h2.1V8ZM8.1 11H6v2.157h2.1V11Z"/><path fill="#F1EFED" d="M10.1 9H8v2.157h2.1V9ZM17.1 29H15v2.157h2.1V29ZM22.1 22H20v2.157h2.1V22Z"/><path fill="#F1EFED" d="M24.1 22H22v2.157h2.1V22Z"/><path fill="#F1EFED" d="M24.1 20H22v2.157h2.1V20ZM36.1 18H34v2.157h2.1V18ZM41.1 24H39v2.157h2.1V24ZM40.1 18H38v2.157h2.1V18Z"/><path fill="#000" d="M26.1 0H24v2.157h2.1V0Z"/><path fill="#000" d="M24.1 0H22v2.157h2.1V0ZM27.1 2H25v2.157h2.1V2Z"/><path fill="#000" d="M29.1 2H27v2.157h2.1V2Z"/><path fill="#000" d="M31.1 2H29v2.157h2.1V2ZM34.1 4H32v2.157h2.1V4Z"/><path fill="#000" d="M36.1 6H34v2.157h2.1V6ZM40.1 9H38v2.157h2.1V9Z"/><path fill="#000" d="M40.1 11H38v2.157h2.1V11Z"/><path fill="#000" d="M42.1 13H40v2.157h2.1V13Z"/><path fill="#000" d="M42.1 15H40v2.157h2.1V15ZM43.1 18H41v2.157h2.1V18ZM43.1 24H41v2.157h2.1V24ZM42.1 27H40v2.157h2.1V27Z"/><path fill="#000" d="M42.1 29H40v2.157h2.1V29Z"/><path fill="#000" d="M40.1 31H38v2.157h2.1V31Z"/><path fill="#000" d="M40.1 33H38v2.157h2.1V33Z"/><path fill="#F1EFED" d="M26.1 33H24v2.157h2.1V33Z"/><path fill="#F1EFED" d="M28.1 34H26v2.157h2.1V34Z"/><path fill="#F1EFED" d="M29.1 36H27v2.157h2.1V36ZM36.1 33H34v2.157h2.1V33Z"/><path fill="#000" d="M38.1 36H36v2.157h2.1V36Z"/><path fill="#000" d="M36.1 38H34v2.157h2.1V38ZM31.1 40H29v2.157h2.1V40Z"/><path fill="#000" d="M29.1 40H27v2.157h2.1V40Z"/><path fill="#000" d="M27.1 40H25v2.157h2.1V40ZM19.1 41H17v2.157h2.1V41Z"/><path fill="#000" d="M17.1 40H15v2.157h2.1V40Z"/><path fill="#000" d="M15.1 40H13v2.157h2.1V40Z"/><path fill="#000" d="M13.1 38H11v2.157h2.1V38Z"/><path fill="#000" d="M11.1 38H9v2.157h2.1V38ZM8.1 34H6v2.157h2.1V34Z"/><path fill="#000" d="M6.1 32H4v2.157h2.1V32ZM4.1 29H2v2.157h2.1V29Z"/><path fill="#000" d="M4.1 27H2v2.157h2.1V27Z"/><path fill="#000" d="M4.1 25H2v2.157h2.1V25Z"/><path fill="#000" d="M2.1 24H0v2.157h2.1V24Z"/><path fill="#000" d="M2.1 22H0v2.157h2.1V22Z"/><path fill="#000" d="M2.1 20H0v2.157h2.1V20Z"/><path fill="#000" d="M2.1 18H0v2.157h2.1V18Z"/><path fill="#000" d="M2.1 16H0v2.157h2.1V16Z"/><path fill="#000" d="M4.1 15H2v2.157h2.1V15Z"/><path fill="#000" d="M4.1 13H2v2.157h2.1V13ZM20.1 20H18v2.157h2.1V20Z"/><path fill="#000" d="M20.1 22H18v2.157h2.1V22ZM22.1 18H20v2.157h2.1V18Z"/><path fill="#000" d="M24.1 18H22v2.157h2.1V18Z"/><path fill="#000" d="M26.1 20H24v2.157h2.1V20Z"/><path fill="#000" d="M26.1 22H24v2.157h2.1V22ZM22.1 24H20v2.157h2.1V24Z"/><path fill="#000" d="M24.1 24H22v2.157h2.1V24ZM34.1 20H32v2.157h2.1V20ZM38.1 20H36v2.157h2.1V20ZM9.1 20H7v2.157h2.1V20ZM6.1 20H4v2.157h2.1V20Z"/><path fill="#F1EFED" d="M22.1 16H20v2.157h2.1V16ZM24.1 26H22v2.157h2.1V26Z"/><path fill="#F1EFED" d="M20.1 16H18v2.157h2.1V16Z"/><path fill="#8F8E93" d="M18.1 11H16v2.157h2.1V11Z"/><path fill="#8F8E93" d="M18.1 9H16v2.157h2.1V9Z"/><path fill="#8F8E93" d="M18.1 7H16v2.157h2.1V7ZM34.1 38H32v2.157h2.1V38Z"/><path fill="#8F8E93" d="M33.1 39H31v2.157h2.1V39Z"/><defs><linearGradient id="a" x1="24" x2="42.694" y1="32.08" y2="32.08" gradientUnits="userSpaceOnUse"><stop stop-color="#D6FFBB"/><stop offset="1" stop-color="#5869DD"/></linearGradient><linearGradient id="b" x1="24" x2="42.694" y1="32.08" y2="32.08" gradientUnits="userSpaceOnUse"><stop stop-color="#D6FFBB"/><stop offset="1" stop-color="#5869DD"/></linearGradient><linearGradient id="c" x1="24" x2="42.694" y1="32.08" y2="32.08" gradientUnits="userSpaceOnUse"><stop stop-color="#D6FFBB"/><stop offset="1" stop-color="#5869DD"/></linearGradient><linearGradient id="d" x1="24" x2="42.694" y1="32.08" y2="32.08" gradientUnits="userSpaceOnUse"><stop stop-color="#D6FFBB"/><stop offset="1" stop-color="#5869DD"/></linearGradient><linearGradient id="e" x1="24" x2="42.694" y1="32.08" y2="32.08" gradientUnits="userSpaceOnUse"><stop stop-color="#D6FFBB"/><stop offset="1" stop-color="#5869DD"/></linearGradient><linearGradient id="f" x1="24" x2="42.694" y1="32.08" y2="32.08" gradientUnits="userSpaceOnUse"><stop stop-color="#D6FFBB"/><stop offset="1" stop-color="#5869DD"/></linearGradient><linearGradient id="g" x1="24" x2="42.694" y1="32.08" y2="32.08" gradientUnits="userSpaceOnUse"><stop stop-color="#D6FFBB"/><stop offset="1" stop-color="#5869DD"/></linearGradient><linearGradient id="h" x1="24" x2="42.694" y1="32.08" y2="32.08" gradientUnits="userSpaceOnUse"><stop stop-color="#D6FFBB"/><stop offset="1" stop-color="#5869DD"/></linearGradient><linearGradient id="i" x1="24" x2="42.694" y1="32.08" y2="32.08" gradientUnits="userSpaceOnUse"><stop stop-color="#D6FFBB"/><stop offset="1" stop-color="#5869DD"/></linearGradient><linearGradient id="j" x1="24" x2="42.694" y1="32.08" y2="32.08" gradientUnits="userSpaceOnUse"><stop stop-color="#D6FFBB"/><stop offset="1" stop-color="#5869DD"/></linearGradient><linearGradient id="k" x1="24" x2="42.694" y1="32.08" y2="32.08" gradientUnits="userSpaceOnUse"><stop stop-color="#D6FFBB"/><stop offset="1" stop-color="#5869DD"/></linearGradient><linearGradient id="l" x1="24" x2="42.694" y1="32.08" y2="32.08" gradientUnits="userSpaceOnUse"><stop stop-color="#D6FFBB"/><stop offset="1" stop-color="#5869DD"/></linearGradient><linearGradient id="m" x1="24" x2="42.694" y1="32.08" y2="32.08" gradientUnits="userSpaceOnUse"><stop stop-color="#D6FFBB"/><stop offset="1" stop-color="#5869DD"/></linearGradient><linearGradient id="n" x1="24" x2="42.694" y1="32.08" y2="32.08" gradientUnits="userSpaceOnUse"><stop stop-color="#D6FFBB"/><stop offset="1" stop-color="#5869DD"/></linearGradient><linearGradient id="o" x1="24" x2="42.694" y1="32.08" y2="32.08" gradientUnits="userSpaceOnUse"><stop stop-color="#D6FFBB"/><stop offset="1" stop-color="#5869DD"/></linearGradient><linearGradient id="p" x1="24" x2="42.694" y1="32.08" y2="32.08" gradientUnits="userSpaceOnUse"><stop stop-color="#D6FFBB"/><stop offset="1" stop-color="#5869DD"/></linearGradient><linearGradient id="q" x1="24" x2="42.694" y1="32.08" y2="32.08" gradientUnits="userSpaceOnUse"><stop stop-color="#D6FFBB"/><stop offset="1" stop-color="#5869DD"/></linearGradient><linearGradient id="r" x1="24" x2="42.694" y1="32.08" y2="32.08" gradientUnits="userSpaceOnUse"><stop stop-color="#D6FFBB"/><stop offset="1" stop-color="#5869DD"/></linearGradient><linearGradient id="s" x1="24" x2="42.694" y1="32.08" y2="32.08" gradientUnits="userSpaceOnUse"><stop stop-color="#D6FFBB"/><stop offset="1" stop-color="#5869DD"/></linearGradient><linearGradient id="t" x1="24" x2="42.694" y1="32.08" y2="32.08" gradientUnits="userSpaceOnUse"><stop stop-color="#D6FFBB"/><stop offset="1" stop-color="#5869DD"/></linearGradient><linearGradient id="u" x1="24" x2="42.694" y1="32.08" y2="32.08" gradientUnits="userSpaceOnUse"><stop stop-color="#D6FFBB"/><stop offset="1" stop-color="#5869DD"/></linearGradient><linearGradient id="v" x1="24" x2="42.694" y1="32.08" y2="32.08" gradientUnits="userSpaceOnUse"><stop stop-color="#D6FFBB"/><stop offset="1" stop-color="#5869DD"/></linearGradient><linearGradient id="w" x1="24" x2="42.694" y1="32.08" y2="32.08" gradientUnits="userSpaceOnUse"><stop stop-color="#D6FFBB"/><stop offset="1" stop-color="#5869DD"/></linearGradient><linearGradient id="x" x1="24" x2="42.694" y1="32.08" y2="32.08" gradientUnits="userSpaceOnUse"><stop stop-color="#D6FFBB"/><stop offset="1" stop-color="#5869DD"/></linearGradient><linearGradient id="y" x1="24" x2="42.694" y1="32.08" y2="32.08" gradientUnits="userSpaceOnUse"><stop stop-color="#D6FFBB"/><stop offset="1" stop-color="#5869DD"/></linearGradient><linearGradient id="z" x1="24" x2="42.694" y1="32.08" y2="32.08" gradientUnits="userSpaceOnUse"><stop stop-color="#D6FFBB"/><stop offset="1" stop-color="#5869DD"/></linearGradient><linearGradient id="A" x1="24" x2="42.694" y1="32.08" y2="32.08" gradientUnits="userSpaceOnUse"><stop stop-color="#D6FFBB"/><stop offset="1" stop-color="#5869DD"/></linearGradient><linearGradient id="B" x1="24" x2="42.694" y1="32.08" y2="32.08" gradientUnits="userSpaceOnUse"><stop stop-color="#D6FFBB"/><stop offset="1" stop-color="#5869DD"/></linearGradient><linearGradient id="C" x1="24" x2="42.694" y1="32.08" y2="32.08" gradientUnits="userSpaceOnUse"><stop stop-color="#D6FFBB"/><stop offset="1" stop-color="#5869DD"/></linearGradient><linearGradient id="D" x1="24" x2="42.694" y1="32.08" y2="32.08" gradientUnits="userSpaceOnUse"><stop stop-color="#D6FFBB"/><stop offset="1" stop-color="#5869DD"/></linearGradient><linearGradient id="E" x1="24" x2="42.694" y1="32.08" y2="32.08" gradientUnits="userSpaceOnUse"><stop stop-color="#D6FFBB"/><stop offset="1" stop-color="#5869DD"/></linearGradient><linearGradient id="F" x1="24" x2="42.694" y1="32.08" y2="32.08" gradientUnits="userSpaceOnUse"><stop stop-color="#D6FFBB"/><stop offset="1" stop-color="#5869DD"/></linearGradient><linearGradient id="G" x1="24" x2="42.694" y1="32.08" y2="32.08" gradientUnits="userSpaceOnUse"><stop stop-color="#D6FFBB"/><stop offset="1" stop-color="#5869DD"/></linearGradient><linearGradient id="H" x1="24" x2="42.694" y1="32.08" y2="32.08" gradientUnits="userSpaceOnUse"><stop stop-color="#D6FFBB"/><stop offset="1" stop-color="#5869DD"/></linearGradient><linearGradient id="I" x1="24" x2="42.694" y1="32.08" y2="32.08" gradientUnits="userSpaceOnUse"><stop stop-color="#D6FFBB"/><stop offset="1" stop-color="#5869DD"/></linearGradient><linearGradient id="J" x1="24" x2="42.694" y1="32.08" y2="32.08" gradientUnits="userSpaceOnUse"><stop stop-color="#D6FFBB"/><stop offset="1" stop-color="#5869DD"/></linearGradient><linearGradient id="K" x1="24" x2="42.694" y1="32.08" y2="32.08" gradientUnits="userSpaceOnUse"><stop stop-color="#D6FFBB"/><stop offset="1" stop-color="#5869DD"/></linearGradient><linearGradient id="L" x1="24" x2="42.694" y1="32.08" y2="32.08" gradientUnits="userSpaceOnUse"><stop stop-color="#D6FFBB"/><stop offset="1" stop-color="#5869DD"/></linearGradient><linearGradient id="M" x1="24" x2="42.694" y1="32.08" y2="32.08" gradientUnits="userSpaceOnUse"><stop stop-color="#D6FFBB"/><stop offset="1" stop-color="#5869DD"/></linearGradient><linearGradient id="N" x1="24" x2="42.694" y1="32.08" y2="32.08" gradientUnits="userSpaceOnUse"><stop stop-color="#D6FFBB"/><stop offset="1" stop-color="#5869DD"/></linearGradient><linearGradient id="O" x1="24" x2="42.694" y1="32.08" y2="32.08" gradientUnits="userSpaceOnUse"><stop stop-color="#D6FFBB"/><stop offset="1" stop-color="#5869DD"/></linearGradient><linearGradient id="P" x1="24" x2="42.694" y1="32.08" y2="32.08" gradientUnits="userSpaceOnUse"><stop stop-color="#D6FFBB"/><stop offset="1" stop-color="#5869DD"/></linearGradient><linearGradient id="Q" x1="24" x2="42.694" y1="32.08" y2="32.08" gradientUnits="userSpaceOnUse"><stop stop-color="#D6FFBB"/><stop offset="1" stop-color="#5869DD"/></linearGradient><linearGradient id="R" x1="24" x2="42.694" y1="32.08" y2="32.08" gradientUnits="userSpaceOnUse"><stop stop-color="#D6FFBB"/><stop offset="1" stop-color="#5869DD"/></linearGradient><linearGradient id="S" x1="24" x2="42.694" y1="32.08" y2="32.08" gradientUnits="userSpaceOnUse"><stop stop-color="#D6FFBB"/><stop offset="1" stop-color="#5869DD"/></linearGradient><linearGradient id="T" x1="24" x2="42.694" y1="32.08" y2="32.08" gradientUnits="userSpaceOnUse"><stop stop-color="#D6FFBB"/><stop offset="1" stop-color="#5869DD"/></linearGradient><linearGradient id="U" x1="24" x2="42.694" y1="32.08" y2="32.08" gradientUnits="userSpaceOnUse"><stop stop-color="#D6FFBB"/><stop offset="1" stop-color="#5869DD"/></linearGradient><linearGradient id="V" x1="24" x2="42.694" y1="32.08" y2="32.08" gradientUnits="userSpaceOnUse"><stop stop-color="#D6FFBB"/><stop offset="1" stop-color="#5869DD"/></linearGradient><linearGradient id="W" x1="24" x2="42.694" y1="32.08" y2="32.08" gradientUnits="userSpaceOnUse"><stop stop-color="#D6FFBB"/><stop offset="1" stop-color="#5869DD"/></linearGradient><linearGradient id="X" x1="24" x2="42.694" y1="32.08" y2="32.08" gradientUnits="userSpaceOnUse"><stop stop-color="#D6FFBB"/><stop offset="1" stop-color="#5869DD"/></linearGradient><linearGradient id="Y" x1="24" x2="42.694" y1="32.08" y2="32.08" gradientUnits="userSpaceOnUse"><stop stop-color="#D6FFBB"/><stop offset="1" stop-color="#5869DD"/></linearGradient><linearGradient id="Z" x1="24" x2="42.694" y1="32.08" y2="32.08" gradientUnits="userSpaceOnUse"><stop stop-color="#D6FFBB"/><stop offset="1" stop-color="#5869DD"/></linearGradient><linearGradient id="aa" x1="24" x2="42.694" y1="32.08" y2="32.08" gradientUnits="userSpaceOnUse"><stop stop-color="#D6FFBB"/><stop offset="1" stop-color="#5869DD"/></linearGradient><linearGradient id="ab" x1="24" x2="42.694" y1="32.08" y2="32.08" gradientUnits="userSpaceOnUse"><stop stop-color="#D6FFBB"/><stop offset="1" stop-color="#5869DD"/></linearGradient><linearGradient id="ac" x1="24" x2="42.694" y1="32.08" y2="32.08" gradientUnits="userSpaceOnUse"><stop stop-color="#D6FFBB"/><stop offset="1" stop-color="#5869DD"/></linearGradient><linearGradient id="ad" x1="24" x2="42.694" y1="32.08" y2="32.08" gradientUnits="userSpaceOnUse"><stop stop-color="#D6FFBB"/><stop offset="1" stop-color="#5869DD"/></linearGradient><linearGradient id="ae" x1="24" x2="42.694" y1="32.08" y2="32.08" gradientUnits="userSpaceOnUse"><stop stop-color="#D6FFBB"/><stop offset="1" stop-color="#5869DD"/></linearGradient><linearGradient id="af" x1="4" x2="19" y1="12.079" y2="12.079" gradientUnits="userSpaceOnUse"><stop stop-color="#D6FFBB"/><stop offset="1" stop-color="#5869DD"/></linearGradient><linearGradient id="ag" x1="4" x2="19" y1="12.079" y2="12.079" gradientUnits="userSpaceOnUse"><stop stop-color="#D6FFBB"/><stop offset="1" stop-color="#5869DD"/></linearGradient><linearGradient id="ah" x1="4" x2="19" y1="12.079" y2="12.079" gradientUnits="userSpaceOnUse"><stop stop-color="#D6FFBB"/><stop offset="1" stop-color="#5869DD"/></linearGradient><linearGradient id="ai" x1="4" x2="19" y1="12.079" y2="12.079" gradientUnits="userSpaceOnUse"><stop stop-color="#D6FFBB"/><stop offset="1" stop-color="#5869DD"/></linearGradient><linearGradient id="aj" x1="4" x2="19" y1="12.079" y2="12.079" gradientUnits="userSpaceOnUse"><stop stop-color="#D6FFBB"/><stop offset="1" stop-color="#5869DD"/></linearGradient><linearGradient id="ak" x1="4" x2="19" y1="12.079" y2="12.079" gradientUnits="userSpaceOnUse"><stop stop-color="#D6FFBB"/><stop offset="1" stop-color="#5869DD"/></linearGradient><linearGradient id="al" x1="4" x2="19" y1="12.079" y2="12.079" gradientUnits="userSpaceOnUse"><stop stop-color="#D6FFBB"/><stop offset="1" stop-color="#5869DD"/></linearGradient><linearGradient id="am" x1="4" x2="19" y1="12.079" y2="12.079" gradientUnits="userSpaceOnUse"><stop stop-color="#D6FFBB"/><stop offset="1" stop-color="#5869DD"/></linearGradient><linearGradient id="an" x1="4" x2="19" y1="12.079" y2="12.079" gradientUnits="userSpaceOnUse"><stop stop-color="#D6FFBB"/><stop offset="1" stop-color="#5869DD"/></linearGradient><linearGradient id="ao" x1="4" x2="19" y1="12.079" y2="12.079" gradientUnits="userSpaceOnUse"><stop stop-color="#D6FFBB"/><stop offset="1" stop-color="#5869DD"/></linearGradient><linearGradient id="ap" x1="4" x2="19" y1="12.079" y2="12.079" gradientUnits="userSpaceOnUse"><stop stop-color="#D6FFBB"/><stop offset="1" stop-color="#5869DD"/></linearGradient><linearGradient id="aq" x1="4" x2="19" y1="12.079" y2="12.079" gradientUnits="userSpaceOnUse"><stop stop-color="#D6FFBB"/><stop offset="1" stop-color="#5869DD"/></linearGradient><linearGradient id="ar" x1="4" x2="19" y1="12.079" y2="12.079" gradientUnits="userSpaceOnUse"><stop stop-color="#D6FFBB"/><stop offset="1" stop-color="#5869DD"/></linearGradient><linearGradient id="as" x1="4" x2="19" y1="12.079" y2="12.079" gradientUnits="userSpaceOnUse"><stop stop-color="#D6FFBB"/><stop offset="1" stop-color="#5869DD"/></linearGradient><linearGradient id="at" x1="4" x2="19" y1="12.079" y2="12.079" gradientUnits="userSpaceOnUse"><stop stop-color="#D6FFBB"/><stop offset="1" stop-color="#5869DD"/></linearGradient><linearGradient id="au" x1="4" x2="19" y1="12.079" y2="12.079" gradientUnits="userSpaceOnUse"><stop stop-color="#D6FFBB"/><stop offset="1" stop-color="#5869DD"/></linearGradient><linearGradient id="av" x1="4" x2="19" y1="12.079" y2="12.079" gradientUnits="userSpaceOnUse"><stop stop-color="#D6FFBB"/><stop offset="1" stop-color="#5869DD"/></linearGradient><linearGradient id="aw" x1="4" x2="19" y1="12.079" y2="12.079" gradientUnits="userSpaceOnUse"><stop stop-color="#D6FFBB"/><stop offset="1" stop-color="#5869DD"/></linearGradient><linearGradient id="ax" x1="4" x2="19" y1="12.079" y2="12.079" gradientUnits="userSpaceOnUse"><stop stop-color="#D6FFBB"/><stop offset="1" stop-color="#5869DD"/></linearGradient><linearGradient id="ay" x1="4" x2="19" y1="12.079" y2="12.079" gradientUnits="userSpaceOnUse"><stop stop-color="#D6FFBB"/><stop offset="1" stop-color="#5869DD"/></linearGradient><linearGradient id="az" x1="4" x2="19" y1="12.079" y2="12.079" gradientUnits="userSpaceOnUse"><stop stop-color="#D6FFBB"/><stop offset="1" stop-color="#5869DD"/></linearGradient><linearGradient id="aA" x1="4" x2="19" y1="12.079" y2="12.079" gradientUnits="userSpaceOnUse"><stop stop-color="#D6FFBB"/><stop offset="1" stop-color="#5869DD"/></linearGradient><linearGradient id="aB" x1="4" x2="19" y1="12.079" y2="12.079" gradientUnits="userSpaceOnUse"><stop stop-color="#D6FFBB"/><stop offset="1" stop-color="#5869DD"/></linearGradient><linearGradient id="aC" x1="4" x2="19" y1="12.079" y2="12.079" gradientUnits="userSpaceOnUse"><stop stop-color="#D6FFBB"/><stop offset="1" stop-color="#5869DD"/></linearGradient><linearGradient id="aD" x1="4" x2="19" y1="12.079" y2="12.079" gradientUnits="userSpaceOnUse"><stop stop-color="#D6FFBB"/><stop offset="1" stop-color="#5869DD"/></linearGradient><linearGradient id="aE" x1="4" x2="19" y1="12.079" y2="12.079" gradientUnits="userSpaceOnUse"><stop stop-color="#D6FFBB"/><stop offset="1" stop-color="#5869DD"/></linearGradient><linearGradient id="aF" x1="4" x2="19" y1="12.079" y2="12.079" gradientUnits="userSpaceOnUse"><stop stop-color="#D6FFBB"/><stop offset="1" stop-color="#5869DD"/></linearGradient><linearGradient id="aG" x1="4" x2="19" y1="12.079" y2="12.079" gradientUnits="userSpaceOnUse"><stop stop-color="#D6FFBB"/><stop offset="1" stop-color="#5869DD"/></linearGradient><linearGradient id="aH" x1="4" x2="19" y1="12.079" y2="12.079" gradientUnits="userSpaceOnUse"><stop stop-color="#D6FFBB"/><stop offset="1" stop-color="#5869DD"/></linearGradient><linearGradient id="aI" x1="4" x2="19" y1="12.079" y2="12.079" gradientUnits="userSpaceOnUse"><stop stop-color="#D6FFBB"/><stop offset="1" stop-color="#5869DD"/></linearGradient><linearGradient id="aJ" x1="4" x2="19" y1="12.079" y2="12.079" gradientUnits="userSpaceOnUse"><stop stop-color="#D6FFBB"/><stop offset="1" stop-color="#5869DD"/></linearGradient><linearGradient id="aK" x1="4" x2="19" y1="12.079" y2="12.079" gradientUnits="userSpaceOnUse"><stop stop-color="#D6FFBB"/><stop offset="1" stop-color="#5869DD"/></linearGradient><linearGradient id="aL" x1="4" x2="19" y1="12.079" y2="12.079" gradientUnits="userSpaceOnUse"><stop stop-color="#D6FFBB"/><stop offset="1" stop-color="#5869DD"/></linearGradient><linearGradient id="aM" x1="4" x2="19" y1="12.079" y2="12.079" gradientUnits="userSpaceOnUse"><stop stop-color="#D6FFBB"/><stop offset="1" stop-color="#5869DD"/></linearGradient><linearGradient id="aN" x1="4" x2="19" y1="12.079" y2="12.079" gradientUnits="userSpaceOnUse"><stop stop-color="#D6FFBB"/><stop offset="1" stop-color="#5869DD"/></linearGradient><linearGradient id="aO" x1="4" x2="19" y1="12.079" y2="12.079" gradientUnits="userSpaceOnUse"><stop stop-color="#D6FFBB"/><stop offset="1" stop-color="#5869DD"/></linearGradient><linearGradient id="aP" x1="4" x2="19" y1="12.079" y2="12.079" gradientUnits="userSpaceOnUse"><stop stop-color="#D6FFBB"/><stop offset="1" stop-color="#5869DD"/></linearGradient><linearGradient id="aQ" x1="4" x2="19" y1="12.079" y2="12.079" gradientUnits="userSpaceOnUse"><stop stop-color="#D6FFBB"/><stop offset="1" stop-color="#5869DD"/></linearGradient><linearGradient id="aR" x1="4" x2="19" y1="12.079" y2="12.079" gradientUnits="userSpaceOnUse"><stop stop-color="#D6FFBB"/><stop offset="1" stop-color="#5869DD"/></linearGradient></defs></svg>
