<svg xmlns="http://www.w3.org/2000/svg" width="267" height="284" fill="none" viewBox="0 0 267 284"><path fill="url(#a)" fill-rule="evenodd" d="m162.248 146.868-9.863 14.701 101.32 61.01 1.111-1.657c3.677-5.48 2.145-12.91-3.4-16.49l-89.168-57.564Z" clip-rule="evenodd"/><path fill="#000" d="m152.385 161.569 90.489 63.045a7.725 7.725 0 0 0 10.831-2.035l-101.32-61.01Z"/><path stroke="#000" stroke-width="1.5" d="m152.385 161.569 9.863-14.701 89.168 57.564c5.545 3.58 7.077 11.01 3.4 16.49l-1.111 1.657m-101.32-61.01 90.489 63.045a7.725 7.725 0 0 0 10.831-2.035m-101.32-61.01 101.32 61.01"/><rect width="24.16" height="4.054" x="161.198" y="171.371" fill="url(#b)" stroke="#000" stroke-width="1.5" rx="2.027" transform="rotate(-56.145 161.198 171.371)"/><rect width="24.16" height="4.054" x="166.659" y="175.035" fill="url(#c)" stroke="#000" stroke-width="1.5" rx="2.027" transform="rotate(-56.145 166.659 175.035)"/><rect width="24.16" height="4.054" x="172.12" y="178.697" fill="url(#d)" stroke="#000" stroke-width="1.5" rx="2.027" transform="rotate(-56.145 172.12 178.697)"/><rect width="24.16" height="4.054" x="177.581" y="182.359" fill="url(#e)" stroke="#000" stroke-width="1.5" rx="2.027" transform="rotate(-56.145 177.581 182.359)"/><path fill="#000" d="M107.115 186.834c38.145-.629 68.558-32.061 67.93-70.205-.574-34.813-26.803-63.185-60.377-67.4l-1.597 3.299c17.691 1.93 33.962 11.038 44.854 25.14a65.44 65.44 0 0 1 11.07 21.855c10.075 34.804-9.972 71.186-44.776 81.261-23.959 6.936-48.666-.403-65.023-17.004l-1.596 3.294c12.734 12.492 30.27 20.077 49.515 19.76Z"/><path fill="url(#f)" fill-rule="evenodd" d="M114.668 49.23a69.682 69.682 0 0 0-9.829-.531c-38.144.628-68.557 32.06-67.929 70.205.311 18.9 8.185 35.902 20.69 48.17l1.596-3.294c-7.404-7.515-13.098-16.927-16.237-27.771a65.765 65.765 0 0 1-2.552-15.663c-1.182-29.457 17.74-57.033 47.327-65.598a65.414 65.414 0 0 1 25.337-2.22l1.597-3.298Z" clip-rule="evenodd"/><path fill="url(#g)" fill-rule="evenodd" d="M124.219 180.784c34.804-10.075 54.851-46.457 44.776-81.26a65.44 65.44 0 0 0-11.07-21.855c-10.892-14.103-27.163-23.21-44.854-25.141a65.414 65.414 0 0 0-25.337 2.22c-29.587 8.565-48.51 36.141-47.327 65.598a65.765 65.765 0 0 0 2.552 15.663c3.139 10.844 8.832 20.256 16.237 27.771 16.357 16.601 41.064 23.94 65.023 17.004Zm12.151-14.471c26.81-16.786 34.937-52.128 18.151-78.939-8.113-12.957-20.56-21.55-34.284-25.077a57.579 57.579 0 0 0-11.065-1.719 57.094 57.094 0 0 0-16.03 1.356 56.877 56.877 0 0 0-8.96 2.858 57.654 57.654 0 0 0-8.6 4.431 57.65 57.65 0 0 0-7.743 5.802c-13.311 11.848-20.07 29.033-19.044 46.208a56.881 56.881 0 0 0 4.357 18.693 57.712 57.712 0 0 0 4.279 8.236 57.708 57.708 0 0 0 5.657 7.58 56.856 56.856 0 0 0 14.795 11.95c17.679 9.928 40.091 10.138 58.487-1.379Z" clip-rule="evenodd"/><path stroke="#000" stroke-width="1.5" d="M114.668 49.23a69.682 69.682 0 0 0-9.829-.531c-38.144.628-68.557 32.06-67.929 70.205.311 18.9 8.185 35.902 20.69 48.17M114.668 49.23c33.574 4.214 59.803 32.587 60.377 67.399.628 38.144-29.785 69.576-67.93 70.205-19.245.317-36.781-7.268-49.515-19.76M114.668 49.23l-1.597 3.298m-55.47 114.546 1.595-3.294m0 0c16.357 16.601 41.064 23.94 65.023 17.004 34.804-10.075 54.851-46.457 44.776-81.26a65.44 65.44 0 0 0-11.07-21.855c-10.892-14.103-27.163-23.21-44.854-25.141M59.196 163.78c-7.404-7.515-13.098-16.927-16.237-27.771a65.765 65.765 0 0 1-2.552-15.663c-1.182-29.457 17.74-57.033 47.327-65.598a65.414 65.414 0 0 1 25.337-2.22m41.45 34.846c16.786 26.811 8.659 62.153-18.151 78.939-18.396 11.517-40.808 11.307-58.487 1.379a56.856 56.856 0 0 1-14.795-11.95 57.708 57.708 0 0 1-5.657-7.58 57.712 57.712 0 0 1-4.28-8.236 56.881 56.881 0 0 1-4.356-18.693c-1.025-17.175 5.733-34.36 19.044-46.209a57.65 57.65 0 0 1 7.743-5.8 57.654 57.654 0 0 1 8.6-4.432 56.877 56.877 0 0 1 8.96-2.858 57.094 57.094 0 0 1 16.03-1.356c3.74.212 7.447.79 11.065 1.72 13.724 3.525 26.171 12.119 34.284 25.076Z"/><defs><linearGradient id="a" x1="200.275" x2="212.458" y1="196.203" y2="178.043" gradientUnits="userSpaceOnUse"><stop stop-color="#D6FFBB"/><stop offset="1" stop-color="#5869DD"/></linearGradient><linearGradient id="b" x1="161.198" x2="185.358" y1="173.398" y2="173.398" gradientUnits="userSpaceOnUse"><stop stop-color="#D6FFBB"/><stop offset="1" stop-color="#5869DD"/></linearGradient><linearGradient id="c" x1="166.659" x2="190.819" y1="177.062" y2="177.062" gradientUnits="userSpaceOnUse"><stop stop-color="#D6FFBB"/><stop offset="1" stop-color="#5869DD"/></linearGradient><linearGradient id="d" x1="172.12" x2="196.28" y1="180.724" y2="180.724" gradientUnits="userSpaceOnUse"><stop stop-color="#D6FFBB"/><stop offset="1" stop-color="#5869DD"/></linearGradient><linearGradient id="e" x1="177.581" x2="201.741" y1="184.386" y2="184.386" gradientUnits="userSpaceOnUse"><stop stop-color="#D6FFBB"/><stop offset="1" stop-color="#5869DD"/></linearGradient><linearGradient id="f" x1="36.9" x2="132.573" y1="117.766" y2="58.44" gradientUnits="userSpaceOnUse"><stop stop-color="#D6FFBB"/><stop offset="1" stop-color="#5869DD"/></linearGradient><linearGradient id="g" x1="36.9" x2="252.455" y1="117.766" y2="48.422" gradientUnits="userSpaceOnUse"><stop stop-color="#D6FFBB"/><stop offset="1" stop-color="#5869DD"/></linearGradient></defs></svg>
