<svg xmlns="http://www.w3.org/2000/svg" width="60" height="60" fill="none" viewBox="0 0 60 60"><path fill="#8F8E93" d="M44.514 29.998c0-8.004-6.512-14.516-14.516-14.516-8.004 0-14.516 6.512-14.516 14.516 0 8.004 6.512 14.516 14.516 14.516 8.004 0 14.516-6.512 14.516-14.516Zm-26.128 0c0-6.413 5.2-11.612 11.612-11.612 6.413 0 11.613 5.2 11.613 11.612 0 6.413-5.2 11.613-11.613 11.613-6.413 0-11.612-5.2-11.612-11.613Z"/><path fill="#8F8E93" d="m56.074 33.073 1.595-1.964c.255-.314.395-.707.395-1.11 0-.402-.14-.795-.393-1.107l-1.596-1.966C51.26 21.002 44.7 16.976 37.427 15.34c5.345 2.72 9.025 8.262 9.025 14.66 0 6.397-3.68 11.94-9.025 14.66 7.273-1.638 13.833-5.662 18.647-11.587ZM13.548 30c0-6.398 3.68-11.94 9.025-14.66C15.3 16.977 8.74 21.003 3.926 26.926L2.33 28.891A1.764 1.764 0 0 0 1.936 30c0 .402.14.795.392 1.108l1.597 1.965C8.74 38.998 15.3 43.023 22.572 44.66c-5.345-2.72-9.024-8.263-9.024-14.66ZM30 35.806a5.806 5.806 0 1 0 0-11.613 5.806 5.806 0 0 0 0 11.613ZM33.871 39.676a1.935 1.935 0 1 0 0-3.871 1.935 1.935 0 0 0 0 3.87Z"/><path fill="#8F8E93" d="M22.256 28.064a1.935 1.935 0 1 0 0-3.87 1.935 1.935 0 0 0 0 3.87ZM58.064 52.256H56.13v5.806h-1.936v-3.87h-1.935v3.87h-1.936v-9.677h-1.935v9.677h-1.2l-2.652-9.551a39.32 39.32 0 0 0 15.229-10.806L58.3 36.438A37.416 37.416 0 0 1 30 49.352 37.424 37.424 0 0 1 1.7 36.439L.237 37.707A39.359 39.359 0 0 0 30 51.288c4.375 0 8.662-.73 12.71-2.109l3.006 10.819H60v-1.936h-1.936v-5.806ZM13.856 12.17A39.305 39.305 0 0 0 .236 22.291L1.7 23.56A37.419 37.419 0 0 1 30 10.645a37.424 37.424 0 0 1 28.3 12.913l1.463-1.268A39.359 39.359 0 0 0 30 8.71c-4.974 0-9.837.938-14.36 2.707l-1.43-3.675h-2.596V0H9.677v7.742H7.742V3.87H5.806v3.87H3.871V1.935H1.935v5.806H0v1.935l12.886.001.97 2.493ZM1.936 50.32h11.612v1.936H1.936V50.32ZM1.936 54.191h11.612v1.936H1.936V54.19ZM1.936 58.063h11.612v1.935H1.936v-1.935ZM57.095 7.742a2.903 2.903 0 1 0 0-5.806 2.903 2.903 0 0 0 0 5.806ZM49.353 7.742a2.903 2.903 0 1 0 0-5.806 2.903 2.903 0 0 0 0 5.806ZM41.612 7.742a2.903 2.903 0 1 0 0-5.806 2.903 2.903 0 0 0 0 5.806Z"/></svg>
