<svg xmlns="http://www.w3.org/2000/svg" width="60" height="60" fill="none" viewBox="0 0 60 60"><path fill="#5869DD" d="M48.56 31.034h5.222a.958.958 0 0 0 .179-.036 3.102 3.102 0 1 0 0-1.996.958.958 0 0 0-.18-.036H48.56a18.522 18.522 0 0 0-5.117-11.804v-6.808c0-1.142.926-2.068 2.068-2.068h6.204a.947.947 0 0 0 .179-.036 3.102 3.102 0 1 0 0-1.996.947.947 0 0 0-.179-.036H45.51a4.136 4.136 0 0 0-4.136 4.136v4.947a18.491 18.491 0 0 0-10.34-3.86V6.218a.957.957 0 0 0-.036-.179 3.102 3.102 0 1 0-1.996 0 .957.957 0 0 0-.036.18v5.222a18.49 18.49 0 0 0-10.34 3.86v-4.947a4.136 4.136 0 0 0-4.136-4.136H8.286a.948.948 0 0 0-.179.036 3.102 3.102 0 1 0 0 1.996c.058.018.118.03.179.036h6.204a2.068 2.068 0 0 1 2.068 2.068v6.808a18.52 18.52 0 0 0-5.117 11.804H6.218a.957.957 0 0 0-.179.036 3.102 3.102 0 1 0 0 1.996.99.99 0 0 0 .18.036h5.222a18.521 18.521 0 0 0 5.117 11.804v6.808a2.068 2.068 0 0 1-2.068 2.068H8.286a.949.949 0 0 0-.179.036 3.102 3.102 0 1 0 0 1.996c.058.017.118.03.179.036h6.204a4.136 4.136 0 0 0 4.136-4.136v-4.947a18.491 18.491 0 0 0 10.34 3.86v5.223c.006.06.018.12.036.179a3.102 3.102 0 1 0 1.996 0 .958.958 0 0 0 .036-.18V48.56a18.49 18.49 0 0 0 10.34-3.86v4.947a4.136 4.136 0 0 0 4.136 4.136h6.204a.94.94 0 0 0 .179-.036 3.102 3.102 0 1 0 0-1.996.948.948 0 0 0-.18-.036H45.51a2.068 2.068 0 0 1-2.068-2.068v-6.808a18.52 18.52 0 0 0 5.117-11.804ZM30 13.456c6.279.007 11.367 5.095 11.374 11.374v3.102c0 .571.463 1.034 1.034 1.034a1.034 1.034 0 1 1 0 2.068 3.102 3.102 0 0 1-3.102-3.102V24.83A9.316 9.316 0 0 0 30 15.524a9.41 9.41 0 0 0-9.306 8.375 1.034 1.034 0 1 1-2.058-.207A11.358 11.358 0 0 1 30 13.456ZM18.626 27.932c0-.571.463-1.034 1.034-1.034h1.188a1.916 1.916 0 0 0 1.914-1.914v-.154a7.238 7.238 0 0 1 14.476 0v3.102a5.17 5.17 0 0 0 5.17 5.17 1.034 1.034 0 0 1 0 2.068 7.245 7.245 0 0 1-7.238-7.238V24.83a5.17 5.17 0 0 0-10.34 0v.154a3.987 3.987 0 0 1-3.982 3.982H19.66a1.034 1.034 0 0 1-1.034-1.034Zm2.068 8.272c0-.571.463-1.034 1.034-1.034 5.132 0 9.306-4.639 9.306-10.34a1.034 1.034 0 0 0-1.216-1.018 1.125 1.125 0 0 0-.852 1.137 8.223 8.223 0 0 1-8.272 8.153 1.034 1.034 0 1 1 0-2.068 6.153 6.153 0 0 0 6.204-6.087 3.195 3.195 0 0 1 2.585-3.177 3.102 3.102 0 0 1 3.619 3.06c0 6.842-5.103 12.408-11.374 12.408a1.034 1.034 0 0 1-1.034-1.034Zm14.446 8.52a1.034 1.034 0 0 1-1.252.756 8.881 8.881 0 0 1-3.93-2.154.8.8 0 0 0-.856-.142 10.97 10.97 0 0 1-4.273.91 1.034 1.034 0 0 1 0-2.068 8.93 8.93 0 0 0 3.458-.74 2.857 2.857 0 0 1 3.09.535 6.788 6.788 0 0 0 3.006 1.654c.554.137.892.695.757 1.25Zm3.102-3.102a1.034 1.034 0 0 1-1.255.755 12.37 12.37 0 0 1-6.22-3.811 15.18 15.18 0 0 1-6.97 1.774 1.034 1.034 0 1 1 0-2.068 13.339 13.339 0 0 0 6.031-1.532 2.042 2.042 0 0 1 2.496.463 10.288 10.288 0 0 0 5.164 3.168 1.034 1.034 0 0 1 .753 1.255l.001-.004Zm1.064-3.35a8.767 8.767 0 0 1-7.064-3.562 1.034 1.034 0 0 1 1.717-1.152 6.675 6.675 0 0 0 5.347 2.646 1.034 1.034 0 1 1 0 2.068Z"/></svg>
