<svg xmlns="http://www.w3.org/2000/svg" width="60" height="60" fill="none" viewBox="0 0 60 60"><path fill="#8F8E93" d="M59.23 24.912a17.142 17.142 0 0 0-3.783-6.508l-8.884 7.743a5.344 5.344 0 0 1 1.482 2.579l11.184-3.814ZM11.785 2.143H22.5a1.071 1.071 0 0 0 1.072-1.072V0H10.713v1.071a1.071 1.071 0 0 0 1.071 1.072ZM43.929 12.912V24.75c.245.056.485.13.72.223l9.252-8.065a17.056 17.056 0 0 0-9.972-3.996ZM60 30a17.102 17.102 0 0 0-.28-2.992l-11.603 3.955a5.365 5.365 0 0 1-4.188 4.286v11.839a17.15 17.15 0 0 0 16.07-17.089ZM41.788 49.284v-38.57a1.071 1.071 0 0 0-1.071-1.071H12.86a1.071 1.071 0 0 0-1.07 1.071v38.57a1.07 1.07 0 0 0 1.07 1.071h27.857a1.071 1.071 0 0 0 1.07-1.071Zm-16.07-15.535a4.822 4.822 0 0 1-9.643 0v-7.5a4.822 4.822 0 0 1 9.642 0v7.5Zm6.963-4.822a4.821 4.821 0 0 1 0 9.643h-3.75a1.071 1.071 0 0 1 0-2.143h3.75a2.679 2.679 0 0 0 0-5.357 4.821 4.821 0 0 1 0-9.642h3.75a1.071 1.071 0 1 1 0 2.143h-3.75a2.679 2.679 0 1 0 0 5.356Z"/><path fill="#8F8E93" d="M20.89 23.57a2.679 2.679 0 0 0-2.68 2.679v7.5a2.678 2.678 0 1 0 5.358 0v-7.5a2.678 2.678 0 0 0-2.679-2.679Z"/><path fill="#8F8E93" d="M3.214 59.998H31.07a3.214 3.214 0 0 0 3.214-3.215v-4.285H12.857a3.214 3.214 0 0 1-3.215-3.214v-38.57A3.214 3.214 0 0 1 12.857 7.5h21.427V3.214A3.214 3.214 0 0 0 31.07 0h-5.357v1.071A3.214 3.214 0 0 1 22.5 4.286H11.785A3.214 3.214 0 0 1 8.571 1.07V0H3.214A3.214 3.214 0 0 0 0 3.214v53.57a3.214 3.214 0 0 0 3.214 3.214Zm6.428-4.286h15a1.071 1.071 0 1 1 0 2.143h-15a1.071 1.071 0 1 1 0-2.143Z"/></svg>
