<svg xmlns="http://www.w3.org/2000/svg" width="55" height="66" fill="none" viewBox="0 0 55 66"><path fill="#8F8E93" d="M3.43 28.238h-.142A3.297 3.297 0 0 0 0 31.527v14.316a3.295 3.295 0 0 0 3.288 3.291h.144a3.298 3.298 0 0 0 3.288-3.29V31.526a3.302 3.302 0 0 0-3.29-3.288Z"/><path fill="#8F8E93" fill-rule="evenodd" d="M23.527 27.395H8.237a10.17 10.17 0 0 1-.044-.893c0-4.904 3.12-9.18 7.75-11.448l-2.568-3.96a.545.545 0 0 1 .16-.753.546.546 0 0 1 .758.16l2.655 4.097a17.36 17.36 0 0 1 6.58-1.277v14.074Zm-8.562-6.72c0 .815.66 1.47 1.472 1.47a1.47 1.47 0 1 0 0-2.938c-.813 0-1.472.653-1.472 1.468ZM11.314 54.387a3.026 3.026 0 0 1-3.022-3.017V28.764h15.235v25.623h-2.26v7.733a3.3 3.3 0 0 1-3.294 3.293h-.141a3.298 3.298 0 0 1-3.288-3.293v-7.733h-3.23ZM53.464 18.626c-.91.602-5.696 3.77-5.696 10.266 0 8.069 7.022 10.923 7.232 10.994-.032.173-1.115 3.909-3.702 7.715-2.307 3.349-4.716 6.693-8.38 6.693-1.767 0-2.901-.5-4.076-1.016-1.262-.556-2.571-1.132-4.763-1.132-2.168 0-3.6.613-4.96 1.195-.928.397-1.821.78-2.89.942V13.43c1.37.247 2.64.764 3.799 1.236 1.263.515 2.395.976 3.383.976.895 0 2-.441 3.28-.954 1.768-.706 3.871-1.547 6.221-1.547 1.536 0 7.055.142 10.687 5.394l-.135.091Zm-12.476-9.96c1.676-2.006 2.862-4.79 2.862-7.573 0-.386-.032-.778-.102-1.093-2.727.103-5.972 1.832-7.928 4.121-1.536 1.762-2.97 4.546-2.97 7.367 0 .424.07.848.103.984.173.033.453.071.733.071 2.447 0 5.524-1.653 7.302-3.876Z" clip-rule="evenodd"/></svg>
