<svg xmlns="http://www.w3.org/2000/svg" width="60" height="61" fill="none" viewBox="0 0 60 61"><path fill="#8F8E93" d="m48.28 35.608-8.179-5.11a1 1 0 0 0-1.53.847v2.697a1 1 0 0 0 .47.848l6.965 4.353a2.14 2.14 0 0 0 2.953-.682 2.143 2.143 0 0 0-.68-2.953ZM57.857.998h-15a2.142 2.142 0 0 0-2.143 2.143V24.57c0 1.184.96 2.142 2.143 2.142h15A2.142 2.142 0 0 0 60 24.57V3.14c0-1.183-.96-2.142-2.143-2.142ZM53.57 22.427h-6.429a2.142 2.142 0 1 1 0-4.286h6.429a2.142 2.142 0 1 1 0 4.286Zm0-6.429h-6.429a2.142 2.142 0 1 1 0-4.286h6.429a2.142 2.142 0 1 1 0 4.286Zm0-6.429h-6.429a2.142 2.142 0 1 1 0-4.285h6.429a2.142 2.142 0 1 1 0 4.285ZM17.143.998h-15A2.142 2.142 0 0 0 0 3.141V24.57c0 1.184.96 2.142 2.143 2.142h15a2.142 2.142 0 0 0 2.143-2.142V3.14c0-1.183-.96-2.142-2.143-2.142Zm-4.286 21.429H6.43a2.142 2.142 0 1 1 0-4.286h6.428a2.142 2.142 0 1 1 0 4.286Zm0-6.429H6.43a2.142 2.142 0 1 1 0-4.286h6.428a2.142 2.142 0 1 1 0 4.286Zm0-6.429H6.43a2.142 2.142 0 1 1 0-4.285h6.428a2.142 2.142 0 1 1 0 4.285ZM28.928 43.854 13.993 35.61a2.132 2.132 0 0 0-2.174-.057 2.141 2.141 0 0 0-1.105 1.874v11.04c0 .738.38 1.425 1.006 1.817l17.143 10.714"/><path fill="#8F8E93" d="m31.071 43.854 14.935-8.245a2.132 2.132 0 0 1 2.175-.057 2.14 2.14 0 0 1 1.105 1.874v11.04c0 .738-.381 1.425-1.007 1.817L31.136 60.997M21.428 31.345a1 1 0 0 0-1.53-.848l-8.178 5.111a2.143 2.143 0 0 0 2.273 3.635l6.495-4.06a2 2 0 0 0 .94-1.695v-2.143Z"/><path fill="#8F8E93" fill-rule="evenodd" d="M16.774 13.366c0-.812.658-1.47 1.47-1.47h7.837c.811 0 1.469.658 1.469 1.47v25.47a1.47 1.47 0 1 1-2.939 0v-24h-6.367a1.47 1.47 0 0 1-1.47-1.47ZM43.226 13.366a1.47 1.47 0 0 0-1.47-1.47H33.92a1.47 1.47 0 0 0-1.469 1.47v25.47a1.47 1.47 0 1 0 2.939 0v-24h6.367a1.47 1.47 0 0 0 1.47-1.47Z" clip-rule="evenodd"/></svg>
