<svg xmlns="http://www.w3.org/2000/svg" width="60" height="61" fill="none" viewBox="0 0 60 61"><path fill="#5869DD" d="m48.28 35.609-8.18-5.112a1 1 0 0 0-1.53.848v2.697a1 1 0 0 0 .47.848l6.965 4.353a2.14 2.14 0 0 0 2.953-.682 2.143 2.143 0 0 0-.68-2.952ZM57.857.997h-15a2.142 2.142 0 0 0-2.143 2.143v21.43c0 1.184.96 2.143 2.143 2.143h15A2.142 2.142 0 0 0 60 24.569V3.14c0-1.184-.96-2.143-2.143-2.143ZM53.57 22.426h-6.429a2.142 2.142 0 1 1 0-4.286h6.429a2.142 2.142 0 1 1 0 4.286Zm0-6.429h-6.429a2.142 2.142 0 1 1 0-4.285h6.429a2.142 2.142 0 1 1 0 4.285Zm0-6.428h-6.429a2.142 2.142 0 1 1 0-4.286h6.429a2.142 2.142 0 1 1 0 4.286ZM17.143.997h-15A2.142 2.142 0 0 0 0 3.14v21.43c0 1.184.96 2.143 2.143 2.143h15a2.142 2.142 0 0 0 2.143-2.143V3.14c0-1.184-.96-2.143-2.143-2.143Zm-4.286 21.429H6.43a2.142 2.142 0 1 1 0-4.286h6.428a2.142 2.142 0 1 1 0 4.286Zm0-6.429H6.43a2.142 2.142 0 1 1 0-4.285h6.428a2.142 2.142 0 1 1 0 4.285Zm0-6.428H6.43a2.142 2.142 0 1 1 0-4.286h6.428a2.142 2.142 0 1 1 0 4.286Zm16.071 34.285L13.993 35.61a2.132 2.132 0 0 0-2.174-.057 2.141 2.141 0 0 0-1.105 1.874v11.04c0 .738.38 1.425 1.006 1.817l17.143 10.714"/><path fill="#5869DD" d="m31.071 43.854 14.935-8.246a2.131 2.131 0 0 1 2.175-.056 2.14 2.14 0 0 1 1.105 1.874v11.04c0 .738-.381 1.425-1.007 1.817L31.136 60.997m-9.708-29.652a1 1 0 0 0-1.53-.848l-8.178 5.111a2.143 2.143 0 0 0 2.273 3.635l6.495-4.06a2 2 0 0 0 .94-1.695v-2.143Z"/><path fill="#5869DD" fill-rule="evenodd" d="M16.774 13.364a1.47 1.47 0 0 1 1.47-1.469h7.837a1.47 1.47 0 0 1 1.469 1.47v25.469a1.47 1.47 0 1 1-2.939 0v-24h-6.367a1.47 1.47 0 0 1-1.47-1.47Zm26.452 0a1.47 1.47 0 0 0-1.47-1.469H33.92a1.47 1.47 0 0 0-1.469 1.47v25.469a1.47 1.47 0 1 0 2.939 0v-24h6.367a1.47 1.47 0 0 0 1.47-1.47Z" clip-rule="evenodd"/></svg>
