<svg xmlns="http://www.w3.org/2000/svg" width="60" height="60" fill="none" viewBox="0 0 60 60"><path fill="#5869DD" d="M57.87 35H42.965c-1.176 0-2.13.931-2.13 2.083v20.832c0 1.152.954 2.084 2.13 2.084H57.87c1.176 0 2.13-.932 2.13-2.084V37.083c0-1.152-.954-2.084-2.13-2.084Zm-4.259 20.832h-6.388c-1.176 0-2.13-.932-2.13-2.083 0-1.152.954-2.084 2.13-2.084h6.388c1.176 0 2.13.932 2.13 2.084 0 1.151-.954 2.083-2.13 2.083Zm0-6.25h-6.388c-1.176 0-2.13-.932-2.13-2.083 0-1.152.954-2.083 2.13-2.083h6.388c1.176 0 2.13.931 2.13 2.083 0 1.151-.954 2.083-2.13 2.083Zm0-6.25h-6.388c-1.176 0-2.13-.931-2.13-2.083 0-1.151.954-2.083 2.13-2.083h6.388c1.176 0 2.13.932 2.13 2.083 0 1.151-.954 2.083-2.13 2.083ZM17.037 0H2.13C.954 0 0 .932 0 2.083v20.833C0 24.067.954 25 2.13 25h14.907c1.176 0 2.13-.931 2.13-2.083V2.083C19.166.932 18.212 0 17.036 0Zm-4.26 20.833H6.39c-1.176 0-2.13-.932-2.13-2.083 0-1.152.954-2.084 2.13-2.084h6.388c1.176 0 2.13.932 2.13 2.084 0 1.151-.954 2.083-2.13 2.083Zm0-6.25H6.39c-1.176 0-2.13-.932-2.13-2.083 0-1.152.954-2.084 2.13-2.084h6.388c1.176 0 2.13.932 2.13 2.084 0 1.151-.954 2.083-2.13 2.083Zm0-6.25H6.39c-1.176 0-2.13-.932-2.13-2.083 0-1.152.954-2.083 2.13-2.083h6.388c1.176 0 2.13.931 2.13 2.083 0 1.151-.954 2.083-2.13 2.083Z"/><path fill="#5869DD" fill-rule="evenodd" d="M28.332 8.785c-1.103 0-2.186.085-3.243.247a1.286 1.286 0 1 1-.39-2.542 23.958 23.958 0 0 1 3.633-.276c13.136 0 23.785 10.65 23.785 23.785a1.286 1.286 0 1 1-2.571 0c0-11.716-9.498-21.214-21.214-21.214Zm-22.5 19.929c.71 0 1.286.575 1.286 1.285 0 11.716 9.498 21.214 21.214 21.214 1.727 0 3.405-.206 5.01-.595a1.286 1.286 0 1 1 .605 2.5 23.842 23.842 0 0 1-5.615.666C15.196 53.784 4.547 43.135 4.547 30c0-.71.575-1.285 1.286-1.285Z" clip-rule="evenodd"/></svg>
