<svg xmlns="http://www.w3.org/2000/svg" width="421" height="415" fill="none" viewBox="0 0 421 415"><path fill="#8F8E93" d="M44.514 139.999c0-8.004-6.512-14.516-14.516-14.516-8.004 0-14.516 6.512-14.516 14.516 0 8.004 6.512 14.516 14.516 14.516 8.004 0 14.516-6.512 14.516-14.516Zm-26.128 0c0-6.413 5.2-11.612 11.612-11.612 6.413 0 11.613 5.199 11.613 11.612s-5.2 11.613-11.613 11.613c-6.413 0-11.612-5.2-11.612-11.613Z"/><path fill="#8F8E93" d="m56.075 143.073 1.595-1.965a1.762 1.762 0 0 0 .002-2.217l-1.596-1.965c-4.814-5.925-11.374-9.95-18.648-11.587 5.345 2.72 9.025 8.263 9.025 14.66 0 6.398-3.68 11.941-9.025 14.66 7.273-1.637 13.833-5.662 18.647-11.586ZM13.548 139.999c0-6.397 3.68-11.94 9.025-14.66-7.273 1.638-13.833 5.663-18.647 11.587L2.33 138.89a1.766 1.766 0 0 0-.394 1.109c0 .403.14.796.392 1.108l1.597 1.966c4.814 5.924 11.374 9.95 18.647 11.586-5.345-2.719-9.024-8.262-9.024-14.66ZM30.002 145.805a5.806 5.806 0 1 0 0-11.612 5.806 5.806 0 0 0 0 11.612ZM33.871 149.676a1.935 1.935 0 1 0 0-3.87 1.935 1.935 0 0 0 0 3.87Z"/><path fill="#8F8E93" d="M22.256 138.064a1.936 1.936 0 1 0-.001-3.872 1.936 1.936 0 0 0 0 3.872ZM58.065 162.257H56.13v5.806h-1.936v-3.871H52.26v3.871h-1.936v-9.677h-1.935v9.677h-1.2l-2.653-9.551a39.319 39.319 0 0 0 15.23-10.806l-1.464-1.268a37.414 37.414 0 0 1-28.3 12.916 37.422 37.422 0 0 1-28.3-12.914l-1.463 1.268a39.36 39.36 0 0 0 29.763 13.581c4.375 0 8.662-.731 12.71-2.109l3.006 10.818h14.284v-1.935h-1.936v-5.806ZM13.856 122.17a39.307 39.307 0 0 0-13.62 10.121l1.463 1.268A37.42 37.42 0 0 1 30 120.645a37.425 37.425 0 0 1 28.3 12.913l1.463-1.268A39.36 39.36 0 0 0 30 118.709c-4.974 0-9.837.939-14.36 2.708l-1.43-3.675h-2.596V110H9.677v7.742H7.742v-3.871H5.806v3.87H3.871v-5.806H1.935v5.806H0v1.935l12.886.001.97 2.493ZM1.936 160.321h11.612v1.936H1.936v-1.936ZM1.936 164.192h11.612v1.936H1.936v-1.936ZM1.936 168.063h11.612v1.935H1.936v-1.935ZM57.095 117.742a2.903 2.903 0 1 0 0-5.807 2.903 2.903 0 0 0 0 5.807ZM49.354 117.742a2.903 2.903 0 1 0 0-5.807 2.903 2.903 0 0 0 0 5.807ZM41.612 117.742a2.903 2.903 0 1 0 0-5.807 2.903 2.903 0 0 0 0 5.807ZM231.28 389.609l-8.178-5.112a1 1 0 0 0-1.53.848v2.697a1 1 0 0 0 .47.848l6.965 4.353a2.14 2.14 0 0 0 2.953-.682 2.142 2.142 0 0 0-.68-2.952ZM240.858 354.997h-15a2.142 2.142 0 0 0-2.143 2.143v21.429c0 1.184.959 2.143 2.143 2.143h15a2.143 2.143 0 0 0 2.143-2.143V357.14c0-1.184-.96-2.143-2.143-2.143Zm-4.286 21.429h-6.429a2.142 2.142 0 0 1 0-4.286h6.429a2.143 2.143 0 0 1 0 4.286Zm0-6.429h-6.429a2.142 2.142 0 1 1 0-4.285h6.429a2.142 2.142 0 1 1 0 4.285Zm0-6.428h-6.429a2.142 2.142 0 0 1 0-4.286h6.429a2.143 2.143 0 0 1 0 4.286ZM200.143 354.997h-15A2.143 2.143 0 0 0 183 357.14v21.429c0 1.184.96 2.143 2.143 2.143h15a2.143 2.143 0 0 0 2.143-2.143V357.14c0-1.184-.96-2.143-2.143-2.143Zm-4.286 21.429h-6.428a2.142 2.142 0 1 1 0-4.286h6.428a2.143 2.143 0 0 1 0 4.286Zm0-6.429h-6.428a2.142 2.142 0 1 1 0-4.285h6.428a2.142 2.142 0 1 1 0 4.285Zm0-6.428h-6.428a2.142 2.142 0 1 1 0-4.286h6.428a2.143 2.143 0 0 1 0 4.286ZM211.929 397.854l-14.935-8.246a2.132 2.132 0 0 0-2.174-.056 2.141 2.141 0 0 0-1.105 1.874v11.04c0 .738.381 1.425 1.006 1.817l17.143 10.714"/><path fill="#8F8E93" d="m214.072 397.854 14.935-8.246a2.132 2.132 0 0 1 2.174-.056 2.14 2.14 0 0 1 1.106 1.874v11.04c0 .738-.381 1.425-1.007 1.817l-17.143 10.714M204.429 385.345a1 1 0 0 0-1.53-.848l-8.178 5.111a2.144 2.144 0 0 0 2.273 3.635l6.495-4.059a2 2 0 0 0 .94-1.696v-2.143Z"/><path fill="#8F8E93" fill-rule="evenodd" d="M199.775 367.364a1.47 1.47 0 0 1 1.47-1.469h7.837a1.47 1.47 0 0 1 1.469 1.469v25.47a1.47 1.47 0 0 1-2.939 0v-24h-6.367a1.47 1.47 0 0 1-1.47-1.47ZM226.225 367.364a1.47 1.47 0 0 0-1.47-1.469h-7.837a1.47 1.47 0 0 0-1.469 1.469v25.47a1.47 1.47 0 0 0 2.939 0v-24h6.367a1.47 1.47 0 0 0 1.47-1.47Z" clip-rule="evenodd"/><path fill="#8F8E93" d="M231.559 31.034h5.223a.963.963 0 0 0 .179-.036 3.102 3.102 0 1 0 0-1.996.963.963 0 0 0-.179-.036h-5.223a18.521 18.521 0 0 0-5.117-11.804v-6.808c0-1.142.926-2.068 2.068-2.068h6.204a.938.938 0 0 0 .179-.036 3.102 3.102 0 1 0 0-1.996.938.938 0 0 0-.179-.036h-6.204a4.136 4.136 0 0 0-4.136 4.136v4.947a18.49 18.49 0 0 0-10.34-3.86V6.218a.91.91 0 0 0-.036-.179 3.103 3.103 0 1 0-1.996 0 .91.91 0 0 0-.036.18v5.222a18.49 18.49 0 0 0-10.34 3.86v-4.947a4.136 4.136 0 0 0-4.136-4.136h-6.204a.938.938 0 0 0-.179.036 3.102 3.102 0 1 0 0 1.996c.058.018.118.03.179.036h6.204a2.068 2.068 0 0 1 2.068 2.068v6.808a18.52 18.52 0 0 0-5.117 11.804h-5.223a.947.947 0 0 0-.179.036 3.102 3.102 0 1 0 0 1.996c.059.017.118.03.179.036h5.223a18.521 18.521 0 0 0 5.117 11.804v6.808a2.068 2.068 0 0 1-2.068 2.068h-6.204a.94.94 0 0 0-.179.036 3.102 3.102 0 1 0 0 1.996c.058.017.118.03.179.036h6.204a4.138 4.138 0 0 0 4.136-4.136v-4.947a18.49 18.49 0 0 0 10.34 3.86v5.223c.006.06.018.12.036.179a3.103 3.103 0 1 0 1.996 0 .991.991 0 0 0 .036-.18V48.56a18.493 18.493 0 0 0 10.34-3.86v4.947a4.135 4.135 0 0 0 4.136 4.136h6.204a.963.963 0 0 0 .179-.036 3.101 3.101 0 1 0 0-1.996.971.971 0 0 0-.179-.036h-6.204a2.068 2.068 0 0 1-2.068-2.068v-6.808a18.521 18.521 0 0 0 5.117-11.804ZM213 13.456c6.279.007 11.366 5.095 11.374 11.374v3.102c0 .571.463 1.034 1.034 1.034a1.034 1.034 0 1 1 0 2.068 3.102 3.102 0 0 1-3.102-3.102V24.83A9.317 9.317 0 0 0 213 15.524a9.41 9.41 0 0 0-9.306 8.375 1.034 1.034 0 1 1-2.058-.207A11.358 11.358 0 0 1 213 13.456Zm-11.374 14.476c0-.571.463-1.034 1.034-1.034h1.188a1.916 1.916 0 0 0 1.914-1.914v-.154a7.238 7.238 0 0 1 14.476 0v3.102a5.17 5.17 0 0 0 5.17 5.17 1.034 1.034 0 0 1 0 2.068 7.245 7.245 0 0 1-7.238-7.238V24.83a5.17 5.17 0 0 0-10.34 0v.154a3.987 3.987 0 0 1-3.982 3.982h-1.188a1.034 1.034 0 0 1-1.034-1.034Zm2.068 8.272c0-.571.463-1.034 1.034-1.034 5.132 0 9.306-4.639 9.306-10.34a1.034 1.034 0 0 0-1.216-1.018c-.518.129-.873.604-.852 1.137a8.224 8.224 0 0 1-8.272 8.153 1.034 1.034 0 1 1 0-2.068 6.153 6.153 0 0 0 6.204-6.087 3.196 3.196 0 0 1 2.585-3.177 3.104 3.104 0 0 1 3.619 3.06c0 6.842-5.103 12.408-11.374 12.408a1.034 1.034 0 0 1-1.034-1.034Zm14.446 8.52a1.035 1.035 0 0 1-1.252.756 8.881 8.881 0 0 1-3.929-2.154.802.802 0 0 0-.857-.142 10.99 10.99 0 0 1-4.273.91 1.034 1.034 0 0 1 0-2.068 8.934 8.934 0 0 0 3.458-.74 2.856 2.856 0 0 1 3.089.535c.845.8 1.88 1.369 3.007 1.654.554.137.892.695.757 1.25Zm3.102-3.102a1.034 1.034 0 0 1-1.255.755 12.372 12.372 0 0 1-6.22-3.811 15.181 15.181 0 0 1-6.971 1.774 1.034 1.034 0 1 1 0-2.068 13.333 13.333 0 0 0 6.032-1.532 2.044 2.044 0 0 1 2.496.463 10.285 10.285 0 0 0 5.164 3.168 1.036 1.036 0 0 1 .753 1.255l.001-.004Zm1.064-3.35a8.766 8.766 0 0 1-7.064-3.562 1.034 1.034 0 0 1 1.717-1.152 6.676 6.676 0 0 0 5.347 2.646 1.034 1.034 0 1 1 0 2.068ZM420.231 134.912a17.139 17.139 0 0 0-3.783-6.508l-8.884 7.743a5.347 5.347 0 0 1 1.482 2.579l11.185-3.814ZM372.786 112.143H383.5a1.073 1.073 0 0 0 1.072-1.072V110h-12.857v1.071a1.07 1.07 0 0 0 1.071 1.072ZM404.93 122.912v11.837c.245.057.485.132.72.223l9.252-8.064a17.051 17.051 0 0 0-9.972-3.996ZM421.001 139.999a17.15 17.15 0 0 0-.279-2.991l-11.604 3.955a5.367 5.367 0 0 1-4.188 4.286v11.839a17.15 17.15 0 0 0 16.071-17.089ZM402.788 159.284v-38.57a1.072 1.072 0 0 0-1.071-1.071h-27.856a1.072 1.072 0 0 0-1.072 1.071v38.57a1.073 1.073 0 0 0 1.072 1.072h27.856a1.073 1.073 0 0 0 1.071-1.072Zm-16.071-15.535a4.82 4.82 0 1 1-9.642 0v-7.5a4.822 4.822 0 0 1 8.23-3.409 4.818 4.818 0 0 1 1.412 3.409v7.5Zm6.965-4.821a4.822 4.822 0 0 1 3.409 8.23 4.822 4.822 0 0 1-3.409 1.412h-3.75a1.073 1.073 0 0 1 0-2.142h3.75a2.682 2.682 0 0 0 2.678-2.679 2.68 2.68 0 0 0-2.678-2.678 4.821 4.821 0 0 1 0-9.643h3.749a1.07 1.07 0 1 1 0 2.143h-3.749a2.678 2.678 0 1 0 0 5.357Z"/><path fill="#8F8E93" d="M381.89 133.571a2.678 2.678 0 0 0-2.679 2.678v7.5a2.676 2.676 0 0 0 2.679 2.679 2.682 2.682 0 0 0 2.678-2.679v-7.5a2.674 2.674 0 0 0-1.653-2.474 2.674 2.674 0 0 0-1.025-.204Z"/><path fill="#8F8E93" d="M364.214 169.998h27.857a3.21 3.21 0 0 0 3.214-3.214v-4.286h-21.428a3.213 3.213 0 0 1-3.214-3.214v-38.57a3.215 3.215 0 0 1 3.214-3.214h21.428v-4.286a3.216 3.216 0 0 0-3.214-3.214h-5.357v1.071a3.214 3.214 0 0 1-3.215 3.215h-10.714a3.214 3.214 0 0 1-3.214-3.215V110h-5.357c-.852 0-1.67.339-2.273.941a3.219 3.219 0 0 0-.941 2.273v53.57a3.217 3.217 0 0 0 3.214 3.214Zm6.429-4.285h14.999a1.073 1.073 0 0 1 0 2.142h-14.999a1.07 1.07 0 1 1 0-2.142Z"/><path fill="url(#a)" fill-rule="evenodd" d="m233.246 206.866-9.863 14.702 101.32 61.009 1.111-1.656c3.677-5.481 2.145-12.911-3.4-16.49l-89.168-57.565Z" clip-rule="evenodd"/><path fill="#000" d="m223.383 221.568 90.489 63.044a7.725 7.725 0 0 0 10.831-2.035l-101.32-61.009Z"/><path fill="#000" d="m223.383 221.568-.622-.418-.411.612.605.421.428-.615Zm9.863-14.702.406-.63-.619-.4-.41.612.623.418Zm91.457 75.711-.387.643.612.368.398-.593-.623-.418Zm-2.289-18.146-.407.63.407-.63Zm-98.408-42.446 9.863-14.701-1.246-.836-9.862 14.702 1.245.835Zm8.833-14.489 89.168 57.565.814-1.26-89.169-57.565-.813 1.26Zm81.462 76.501-90.489-63.045-.857 1.231 90.489 63.044.857-1.23Zm10.89-3.494-1.111 1.657 1.246.835 1.111-1.656-1.246-.836ZM222.997 222.21l101.319 61.01.774-1.285-101.32-61.01-.773 1.285Zm90.447 63.017a8.475 8.475 0 0 0 11.882-2.232l-1.246-.835a6.976 6.976 0 0 1-9.779 1.837l-.857 1.23Zm8.563-20.166c5.192 3.352 6.627 10.31 3.184 15.442l1.246.836c3.91-5.829 2.281-13.732-3.616-17.538l-.814 1.26Z"/><rect width="24.16" height="4.054" x="232.196" y="231.37" fill="url(#b)" stroke="#000" stroke-width="1.5" rx="2.027" transform="rotate(-56.145 232.196 231.37)"/><rect width="24.16" height="4.054" x="237.657" y="235.034" fill="url(#c)" stroke="#000" stroke-width="1.5" rx="2.027" transform="rotate(-56.145 237.657 235.034)"/><rect width="24.16" height="4.054" x="243.118" y="238.696" fill="url(#d)" stroke="#000" stroke-width="1.5" rx="2.027" transform="rotate(-56.145 243.118 238.696)"/><rect width="24.16" height="4.054" x="248.579" y="242.358" fill="url(#e)" stroke="#000" stroke-width="1.5" rx="2.027" transform="rotate(-56.145 248.579 242.358)"/><path fill="#000" d="M178.116 246.833c38.144-.629 68.558-32.061 67.929-70.205-.573-34.813-26.803-63.185-60.377-67.399l-1.597 3.298c17.692 1.93 33.962 11.038 44.854 25.141a65.425 65.425 0 0 1 11.07 21.854c10.076 34.804-9.971 71.186-44.775 81.261-23.959 6.936-48.666-.403-65.024-17.004l-1.595 3.294c12.733 12.492 30.27 20.077 49.515 19.76Z"/><path fill="url(#f)" fill-rule="evenodd" d="M185.668 109.229a69.563 69.563 0 0 0-9.828-.531c-38.145.628-68.558 32.06-67.93 70.205.312 18.9 8.185 35.902 20.691 48.17l1.595-3.294c-7.404-7.515-13.098-16.927-16.237-27.771a65.805 65.805 0 0 1-2.552-15.663c-1.182-29.457 17.74-57.033 47.328-65.598 8.486-2.457 17.066-3.123 25.336-2.22l1.597-3.298Z" clip-rule="evenodd"/><path fill="url(#g)" fill-rule="evenodd" d="M195.22 240.783c34.804-10.075 54.851-46.457 44.775-81.261a65.425 65.425 0 0 0-11.07-21.854c-10.892-14.103-27.162-23.211-44.854-25.141-8.27-.903-16.85-.237-25.336 2.22-29.588 8.565-48.51 36.141-47.328 65.598a65.805 65.805 0 0 0 2.552 15.663c3.139 10.844 8.833 20.256 16.237 27.771 16.358 16.601 41.065 23.94 65.024 17.004Zm12.15-14.471c26.811-16.786 34.937-52.128 18.151-78.939-8.113-12.957-20.56-21.551-34.283-25.077a57.634 57.634 0 0 0-11.065-1.719 57.111 57.111 0 0 0-16.03 1.356 56.81 56.81 0 0 0-8.96 2.858 57.703 57.703 0 0 0-8.601 4.431 57.746 57.746 0 0 0-7.742 5.801c-13.312 11.849-20.07 29.034-19.044 46.209a56.878 56.878 0 0 0 4.356 18.693 57.696 57.696 0 0 0 4.28 8.236 57.613 57.613 0 0 0 5.656 7.58 56.864 56.864 0 0 0 14.796 11.95c17.679 9.928 40.091 10.138 58.486-1.379Z" clip-rule="evenodd"/><path fill="#000" d="m185.668 109.229.094-.744-.094.744Zm-9.828-.531-.012-.75.012.75Zm-67.93 70.205.75-.012-.75.012Zm70.206 67.93.012.75-.012-.75Zm67.929-70.205-.75.012.75-.012Zm-6.05-17.106-.72.209.72-.209Zm-44.775 81.261-.209-.72.209.72Zm-81.261-44.775.721-.209-.721.209Zm-2.552-15.663-.749.03.749-.03Zm47.328-65.598-.209-.721.209.721Zm70.19 22.921-.593.458.593-.458Zm-3.404 9.705-.636.398.636-.398Zm-18.151 78.939-.398-.636.398.636Zm-43.227-104.379-.168-.731.168.731Zm27.095.363.186-.726-.186.726Zm-42.354 105.395-.367.654.367-.654Zm-20.452-19.53-.636.398.636-.398Zm-4.28-8.236-.691.291.691-.291Zm31.031-75.134-.286-.693.286.693Zm-16.343 10.232-.499-.56.499.56Zm-19.044 46.209-.749.045.749-.045Zm14.292 34.509.562-.496-.562.496Zm46.085-95.164-.043.749.043-.749Zm-49.977 103.202.534-.527-.534.527Zm55.566-115.294a70.465 70.465 0 0 0-9.934-.537l.024 1.5a68.973 68.973 0 0 1 9.723.525l.187-1.488Zm-9.934-.537c-38.559.635-69.303 32.409-68.667 70.968l1.499-.025c-.621-37.731 29.462-68.821 67.192-69.443l-.024-1.5Zm-68.667 70.968c.314 19.104 8.274 36.292 20.915 48.693l1.05-1.071c-12.37-12.136-20.158-28.952-20.466-47.647l-1.499.025Zm70.967 68.667c38.559-.636 69.302-32.409 68.667-70.968l-1.5.025c.622 37.731-29.461 68.821-67.192 69.443l.025 1.5Zm68.667-70.968c-.58-35.19-27.094-63.87-61.033-68.13l-.187 1.488c33.208 4.168 59.153 32.233 59.72 66.667l1.5-.025Zm-118.719 50.994c12.871 12.627 30.598 20.294 50.052 19.974l-.025-1.5c-19.036.313-36.381-7.188-48.977-19.545l-1.05 1.071Zm111.199-67.878c9.96 34.406-9.858 70.372-44.264 80.332l.417 1.441c35.202-10.191 55.478-46.988 45.288-82.19l-1.441.417ZM114.68 195.799a64.92 64.92 0 0 1-2.523-15.484l-1.499.06a66.516 66.516 0 0 0 2.581 15.841l1.441-.417Zm-2.523-15.484c-1.169-29.12 17.538-56.381 46.786-64.848l-.417-1.441c-29.926 8.664-49.064 36.555-47.868 66.349l1.499-.06Zm116.175-42.189a64.69 64.69 0 0 1 10.943 21.605l1.441-.417a66.196 66.196 0 0 0-11.197-22.105l-1.187.917Zm-3.447 9.645c16.567 26.46 8.547 61.339-17.913 77.905l.796 1.272c27.162-17.006 35.395-52.811 18.389-79.973l-1.272.796Zm-33.834-24.748c13.545 3.48 25.828 11.96 33.834 24.748l1.272-.796c-8.219-13.127-20.83-21.833-34.733-25.405l-.373 1.453Zm15.921 102.653c-18.154 11.366-40.272 11.16-57.721 1.361l-.734 1.308c17.908 10.057 40.614 10.271 59.251-1.397l-.796-1.272Zm-77.905-17.913a56.917 56.917 0 0 1-4.224-8.129l-1.382.582a58.415 58.415 0 0 0 4.335 8.343l1.271-.796Zm17.913-77.905a56.968 56.968 0 0 1 8.489-4.374l-.572-1.386a58.399 58.399 0 0 0-8.713 4.489l.796 1.271Zm8.489-4.374a56.107 56.107 0 0 1 8.842-2.82l-.336-1.462a57.546 57.546 0 0 0-9.078 2.896l.572 1.386Zm-16.131 10.1a56.916 56.916 0 0 1 7.642-5.726l-.796-1.271a58.48 58.48 0 0 0-7.843 5.876l.997 1.121Zm-14.495 64.05a56.158 56.158 0 0 1-4.299-18.446l-1.497.089a57.614 57.614 0 0 0 4.414 18.939l1.382-.582Zm-4.299-18.446c-1.012-16.952 5.659-33.913 18.794-45.604l-.997-1.121c-13.488 12.005-20.333 29.415-19.294 46.814l1.497-.089Zm12.982 35.05a57.637 57.637 0 0 0 14.991 12.107l.734-1.308a56.132 56.132 0 0 1-14.601-11.792l-1.124.993Zm57.898-94.668a58.303 58.303 0 0 0-11.209-1.742l-.085 1.498c3.691.209 7.35.779 10.921 1.697l.373-1.453Zm-27.113 1.094a56.32 56.32 0 0 1 15.819-1.338l.085-1.498a57.858 57.858 0 0 0-16.24 1.374l.336 1.462Zm-29.661 92.581a57.08 57.08 0 0 1-5.583-7.482l-1.271.796a58.497 58.497 0 0 0 5.73 7.679l1.124-.993Zm-5.374 12.155 1.595-3.294-1.35-.654-1.595 3.294 1.35.654Zm.386-3.095c16.543 16.79 41.532 24.214 65.766 17.199l-.417-1.441c-23.684 6.856-48.108-.398-64.281-16.811l-1.068 1.053Zm99.857-87.096c-11.017-14.264-27.473-23.475-45.366-25.428l-.163 1.491c17.489 1.909 33.574 10.913 44.342 24.854l1.187-.917Zm-44.773-24.355 1.597-3.298-1.35-.654-1.597 3.298 1.35.654Zm-.593-1.073c-8.366-.913-17.045-.239-25.627 2.245l.417 1.441c8.391-2.429 16.873-3.087 25.047-2.195l.163-1.491Zm-70.914 84.435c3.175 10.968 8.933 20.488 16.423 28.089l1.068-1.053c-7.318-7.427-12.947-16.731-16.05-27.453l-1.441.417Z"/><path fill="#8F8E93" d="M57.87 279.999H42.963c-1.176 0-2.13.932-2.13 2.084v20.832c0 1.152.954 2.084 2.13 2.084H57.87c1.176 0 2.13-.932 2.13-2.084v-20.832c0-1.152-.954-2.084-2.13-2.084Zm-4.259 20.833h-6.389c-1.175 0-2.13-.932-2.13-2.083 0-1.152.955-2.083 2.13-2.083h6.39c1.175 0 2.129.931 2.129 2.083 0 1.151-.954 2.083-2.13 2.083Zm0-6.25h-6.389c-1.175 0-2.13-.932-2.13-2.083 0-1.151.955-2.083 2.13-2.083h6.39c1.175 0 2.129.932 2.129 2.083 0 1.151-.954 2.083-2.13 2.083Zm0-6.25h-6.389c-1.175 0-2.13-.931-2.13-2.083 0-1.151.955-2.083 2.13-2.083h6.39c1.175 0 2.129.932 2.129 2.083 0 1.152-.954 2.083-2.13 2.083ZM17.037 245H2.13c-1.176 0-2.13.932-2.13 2.083v20.833c0 1.152.954 2.083 2.13 2.083h14.907c1.176 0 2.13-.931 2.13-2.083v-20.833c0-1.151-.954-2.083-2.13-2.083Zm-4.26 20.833H6.39c-1.176 0-2.13-.932-2.13-2.083 0-1.152.954-2.084 2.13-2.084h6.388c1.176 0 2.13.932 2.13 2.084 0 1.151-.954 2.083-2.13 2.083Zm0-6.25H6.39c-1.176 0-2.13-.932-2.13-2.083 0-1.152.954-2.084 2.13-2.084h6.388c1.176 0 2.13.932 2.13 2.084 0 1.151-.954 2.083-2.13 2.083Zm0-6.25H6.39c-1.176 0-2.13-.932-2.13-2.083 0-1.152.954-2.083 2.13-2.083h6.388c1.176 0 2.13.931 2.13 2.083 0 1.151-.954 2.083-2.13 2.083Z"/><path fill="#8F8E93" fill-rule="evenodd" d="M28.332 253.785c-1.103 0-2.186.085-3.243.247a1.287 1.287 0 0 1-.39-2.542 23.914 23.914 0 0 1 3.633-.276c13.136 0 23.785 10.649 23.785 23.785a1.286 1.286 0 1 1-2.571 0c0-11.716-9.498-21.214-21.214-21.214Zm-22.5 19.929c.71 0 1.286.575 1.286 1.285 0 11.716 9.498 21.214 21.214 21.214 1.727 0 3.405-.206 5.01-.595a1.286 1.286 0 0 1 .605 2.499 23.795 23.795 0 0 1-5.615.667c-13.136 0-23.785-10.649-23.785-23.785 0-.71.575-1.285 1.286-1.285Z" clip-rule="evenodd"/><path fill="#8F8E93" d="M369.43 270.238h-.142a3.298 3.298 0 0 0-3.288 3.289v14.317a3.295 3.295 0 0 0 3.288 3.29h.144a3.297 3.297 0 0 0 3.288-3.29v-14.317a3.302 3.302 0 0 0-3.29-3.289Z"/><path fill="#8F8E93" fill-rule="evenodd" d="M389.527 269.395h-15.29a10.51 10.51 0 0 1-.044-.893c0-4.904 3.121-9.179 7.749-11.448l-2.567-3.959a.545.545 0 0 1 .16-.754.546.546 0 0 1 .759.16l2.654 4.096a17.37 17.37 0 0 1 6.579-1.276v14.074Zm-8.562-6.72c0 .815.659 1.47 1.472 1.47a1.469 1.469 0 1 0 0-2.938c-.813 0-1.472.653-1.472 1.468ZM377.314 296.387a3.025 3.025 0 0 1-3.022-3.017v-22.606h15.235v25.623h-2.261v7.733a3.299 3.299 0 0 1-3.293 3.293h-.141a3.298 3.298 0 0 1-3.288-3.293v-7.733h-3.23ZM419.464 260.626c-.909.602-5.696 3.769-5.696 10.266 0 8.068 7.022 10.923 7.232 10.994-.032.174-1.116 3.909-3.702 7.715-2.307 3.349-4.716 6.692-8.38 6.692-1.767 0-2.901-.499-4.076-1.016-1.262-.555-2.571-1.131-4.763-1.131-2.167 0-3.601.613-4.96 1.195-.928.397-1.821.78-2.891.942V255.43c1.371.247 2.64.764 3.799 1.236 1.264.515 2.395.976 3.384.976.895 0 1.999-.441 3.281-.954 1.767-.706 3.871-1.547 6.22-1.547 1.536 0 7.055.141 10.687 5.394a4.295 4.295 0 0 1-.135.091Zm-12.476-9.959c1.676-2.007 2.862-4.79 2.862-7.574a5.27 5.27 0 0 0-.102-1.093c-2.727.103-5.972 1.832-7.928 4.121-1.536 1.762-2.969 4.546-2.969 7.367 0 .424.07.848.102.984.173.033.453.071.733.071 2.447 0 5.524-1.653 7.302-3.876Z" clip-rule="evenodd"/><defs><linearGradient id="a" x1="271.273" x2="283.456" y1="256.202" y2="238.041" gradientUnits="userSpaceOnUse"><stop stop-color="#D6FFBB"/><stop offset="1" stop-color="#5869DD"/></linearGradient><linearGradient id="b" x1="232.196" x2="256.356" y1="233.398" y2="233.398" gradientUnits="userSpaceOnUse"><stop stop-color="#D6FFBB"/><stop offset="1" stop-color="#5869DD"/></linearGradient><linearGradient id="c" x1="237.657" x2="261.817" y1="237.061" y2="237.061" gradientUnits="userSpaceOnUse"><stop stop-color="#D6FFBB"/><stop offset="1" stop-color="#5869DD"/></linearGradient><linearGradient id="d" x1="243.118" x2="267.278" y1="240.723" y2="240.723" gradientUnits="userSpaceOnUse"><stop stop-color="#D6FFBB"/><stop offset="1" stop-color="#5869DD"/></linearGradient><linearGradient id="e" x1="248.579" x2="272.739" y1="244.385" y2="244.385" gradientUnits="userSpaceOnUse"><stop stop-color="#D6FFBB"/><stop offset="1" stop-color="#5869DD"/></linearGradient><linearGradient id="f" x1="107.901" x2="203.573" y1="177.765" y2="118.439" gradientUnits="userSpaceOnUse"><stop stop-color="#D6FFBB"/><stop offset="1" stop-color="#5869DD"/></linearGradient><linearGradient id="g" x1="107.901" x2="323.456" y1="177.765" y2="108.421" gradientUnits="userSpaceOnUse"><stop stop-color="#D6FFBB"/><stop offset="1" stop-color="#5869DD"/></linearGradient></defs></svg>
