<svg xmlns="http://www.w3.org/2000/svg" width="600" height="532" fill="none" viewBox="0 0 600 532"><path fill="#000" d="M599.097 64.84c-1.59 4.74-3.18 9.48-4.73 14.23a.089.089 0 0 1-.018.037.096.096 0 0 1-.071.038.1.1 0 0 1-.041-.005.113.113 0 0 1-.06-.052.113.113 0 0 1-.01-.078c1.58-4.747 3.18-9.484 4.8-14.21a.064.064 0 0 1 .045-.02.06.06 0 0 1 .025.005.051.051 0 0 1 .02.015.075.075 0 0 1 .025.015.074.074 0 0 1 .015.025ZM589.802 93.36l-4.76 14.26a.177.177 0 0 1-.088.098.178.178 0 0 1-.132.012.187.187 0 0 1-.057-.035.186.186 0 0 1-.039-.054.186.186 0 0 1-.015-.065.164.164 0 0 1 .011-.066l4.82-14.19a.14.14 0 0 1 .17-.09.118.118 0 0 1 .069.048.12.12 0 0 1 .021.082ZM579.661 121.62c-1.94 4.61-4 9.16-6.41 13.58a.242.242 0 0 1-.32.1.257.257 0 0 1-.116-.145.257.257 0 0 1 .016-.185c2.37-4.39 4.5-8.92 6.46-13.51a.185.185 0 0 1 .106-.113.203.203 0 0 1 .077-.015.202.202 0 0 1 .077.018c.026.01.049.025.069.044a.22.22 0 0 1 .045.067.2.2 0 0 1-.004.159ZM565.32 147.959c-1.47 2-3 4-4.68 5.88-.84.94-1.65 1.89-2.59 2.76a18.38 18.38 0 0 1-3 2.29.323.323 0 0 1-.42-.11.31.31 0 0 1 .099-.42 17.63 17.63 0 0 0 3-2.2c.9-.83 1.721-1.78 2.551-2.7 1.65-1.87 3.21-3.82 4.68-5.83a.272.272 0 0 1 .148-.051.274.274 0 0 1 .152.041.262.262 0 0 1 .06.34ZM540.261 161.34a31.076 31.076 0 0 1-13.81-5.93.369.369 0 0 1-.07-.52.372.372 0 0 1 .52-.07 30.27 30.27 0 0 0 13.49 5.8.34.34 0 0 1 .28.39.338.338 0 0 1-.038.143.335.335 0 0 1-.093.115.335.335 0 0 1-.132.066.332.332 0 0 1-.147.006ZM517.66 143.269a28.267 28.267 0 0 1 .22-15 .45.45 0 0 1 .86.23 31.62 31.62 0 0 0-1.14 7.29 24.271 24.271 0 0 0 .85 7.3.412.412 0 0 1-.28.51.432.432 0 0 1-.51-.33ZM524.049 114.449a89.327 89.327 0 0 1 9-12.07.512.512 0 0 1 .848.318.507.507 0 0 1-.088.352 87.795 87.795 0 0 0-9 11.89.478.478 0 0 1-.66.16.484.484 0 0 1-.179-.305.484.484 0 0 1 .079-.345ZM543.85 91.82a16.02 16.02 0 0 1 3.34-2 6.07 6.07 0 0 1 4-.35 5.876 5.876 0 0 1 3.19 2.45 14.509 14.509 0 0 1 1.73 3.49.547.547 0 0 1-.715.57.55.55 0 0 1-.285-.21 13.456 13.456 0 0 0-1.58-3.23 4.85 4.85 0 0 0-2.61-2.05 5 5 0 0 0-3.31.32 14.562 14.562 0 0 0-3.09 1.83.513.513 0 0 1-.393.102.523.523 0 0 1-.347-.212.52.52 0 0 1 .07-.71ZM558.261 110.379c.18 5 .06 10-.21 15a.577.577 0 0 1-.61.55.583.583 0 0 1-.55-.61c.27-5 .41-10 .24-14.94a.582.582 0 0 1 .55-.59.578.578 0 0 1 .417.17.568.568 0 0 1 .163.42ZM556.868 140.409l-1.93 14.9a.619.619 0 0 1-1.104.301.63.63 0 0 1-.126-.461l2-14.84a.593.593 0 0 1 .441-.5.615.615 0 0 1 .234-.015.618.618 0 0 1 .397.231.593.593 0 0 1 .118.444l-.03-.06ZM551.697 170.05a98.664 98.664 0 0 1-6.15 13.78.663.663 0 0 1-.657.397.662.662 0 0 1-.503-1.017 96.72 96.72 0 0 0 6.1-13.59.64.64 0 0 1 .82-.38.618.618 0 0 1 .427.564.624.624 0 0 1-.037.246ZM537.53 196.619a122.558 122.558 0 0 1-9.57 11.65.71.71 0 0 1-1.21-.5.702.702 0 0 1 .21-.5 121.297 121.297 0 0 0 9.49-11.49.676.676 0 0 1 .435-.229.678.678 0 0 1 .665 1.019l-.02.05ZM517.033 218.62a111.744 111.744 0 0 1-12.18 8.92.74.74 0 0 1-.79-1.24c4.191-2.651 8.2-5.581 12-8.77a.72.72 0 0 1 .92 1.1l.05-.01ZM491.507 234.619c-2.31 1-4.66 1.91-7.06 2.7-1.2.4-2.4.78-3.62 1.1l-3.67 1a.777.777 0 0 1-.863-1.142.78.78 0 0 1 .473-.358h.05l3.59-.93c1.2-.31 2.38-.69 3.56-1.07 2.35-.77 4.67-1.66 6.94-2.64a.772.772 0 0 1 .611-.05.772.772 0 0 1 .449.417.766.766 0 0 1-.189.866.745.745 0 0 1-.271.157v-.05ZM308.201 295.209c-2.567.36-5.169.38-7.74.06a19.261 19.261 0 0 1-7.44-2.5 1 1 0 0 1-.33-1.33.995.995 0 0 1 .604-.433.996.996 0 0 1 .736.103 17.333 17.333 0 0 0 6.69 2.24c2.398.293 4.825.276 7.22-.05a1 1 0 0 1 .25 1.91h.01ZM285.923 279.259c.051-2.6.503-5.177 1.34-7.64a32.576 32.576 0 0 1 1.42-3.59c.27-.58.53-1.16.85-1.73l1-1.72a.997.997 0 0 1 1.257-.197.998.998 0 0 1 .433 1.197l-.08.13-.9 1.5c-.29.52-.55 1.08-.8 1.63a32.543 32.543 0 0 0-1.35 3.39 23.788 23.788 0 0 0-1.28 7.06 1.002 1.002 0 0 1-1 1 .996.996 0 0 1-.89-1.03ZM304.092 266.509a45.737 45.737 0 0 1 5.6 14.2c.034.13.041.265.021.397a.994.994 0 0 1-.769.829.983.983 0 0 1-.767-.138 1.02 1.02 0 0 1-.435-.648 43.67 43.67 0 0 0-5.33-13.59 1 1 0 1 1 1.68-1.05ZM311.257 295.84l-.21 3.8c-.09 1.26-.09 2.53-.26 3.79a56.044 56.044 0 0 1-1.42 7.5.99.99 0 0 1-.432.701 1.008 1.008 0 0 1-1.188-.051.992.992 0 0 1-.371-.735.996.996 0 0 1 .071-.415 52.534 52.534 0 0 0 1.37-7.23c.16-1.22.16-2.46.25-3.69l.2-3.69v-.09a.997.997 0 0 1 .332-.691.999.999 0 0 1 1.668.801h-.01ZM303.578 325.009a60.29 60.29 0 0 1-9.16 12.15.996.996 0 0 1-1.258-.114.998.998 0 0 1-.142-1.256 58.288 58.288 0 0 0 8.85-11.75 1.003 1.003 0 0 1 1.29-.244.997.997 0 0 1 .42 1.244v-.03ZM282.459 346.62a53.748 53.748 0 0 1-14.08 5.82 1 1 0 1 1-.47-1.87 51.691 51.691 0 0 0 13.55-5.62.99.99 0 0 1 .382-.241.988.988 0 0 1 .873.103c.128.083.235.194.314.324a1.01 1.01 0 0 1 .076.876 1.005 1.005 0 0 1-.645.598v.01ZM254.417 347.799a10.34 10.34 0 0 1 0-4.11 16.34 16.34 0 0 1 1.23-3.79 17.474 17.474 0 0 1 4.77-6.27.999.999 0 0 1 1.34.14.942.942 0 0 1 .203.696.933.933 0 0 1-.353.634 15.564 15.564 0 0 0-4.21 5.59 11.14 11.14 0 0 0-1.11 6.67 1.001 1.001 0 0 1-1.87.4v.04Z"/><path fill="#000" d="M273.749 338.369a31.006 31.006 0 0 1 3 7.1 49.566 49.566 0 0 1 1.57 7.48.94.94 0 0 1-1.86.25 46.995 46.995 0 0 0-1.51-7.19 29.004 29.004 0 0 0-2.85-6.67.948.948 0 0 1 .31-1.31.95.95 0 0 1 1.31.31l.03.03ZM278.8 368.109a86.672 86.672 0 0 1-.79 7.54c-.19 1.25-.42 2.5-.69 3.74-.27 1.24-.6 2.46-.9 3.69a.929.929 0 0 1-1.654.218.932.932 0 0 1-.146-.658c.29-1.2.62-2.4.88-3.6.26-1.2.48-2.41.66-3.63.37-2.44.62-4.91.77-7.38a.935.935 0 0 1 .985-.875.93.93 0 0 1 .875.985l.01-.03ZM271.257 397.3a111.44 111.44 0 0 1-7.28 13.32.919.919 0 0 1-1.54-1 109.296 109.296 0 0 0 7.12-13.05.928.928 0 0 1 .509-.532.915.915 0 0 1 1.039.234.916.916 0 0 1 .122 1.058l.03-.03ZM255.16 422.82c-3.16 3.91-6.52 7.67-10 11.26a.901.901 0 0 1-1.29-1.26c3.47-3.55 6.79-7.27 9.91-11.14a.893.893 0 0 1 .957-.304.903.903 0 0 1 .644.775.922.922 0 0 1-.191.669h-.03ZM234.119 444.39l-5.86 4.78c-.95.81-2 1.54-3 2.29l-3 2.25a.885.885 0 0 1-1.184-.231.889.889 0 0 1 .134-1.199l3-2.22c1-.74 2-1.46 3-2.27l5.77-4.73a.892.892 0 0 1 .655-.2.892.892 0 0 1 .806.975.895.895 0 0 1-.321.605v-.05ZM209.262 461.459a66.265 66.265 0 0 1-14.25 5.22.865.865 0 0 1-.658-.111.871.871 0 0 1 .268-1.589 64.795 64.795 0 0 0 13.86-5.1.89.89 0 0 1 1.18.4.878.878 0 0 1-.4 1.18ZM179.82 467.56a34.336 34.336 0 0 1-7.45-1.87 23.671 23.671 0 0 1-6.71-3.88.86.86 0 0 1 1.09-1.33 22.369 22.369 0 0 0 6.23 3.59 32.39 32.39 0 0 0 7.07 1.77.877.877 0 0 1 .62.315.882.882 0 0 1 .191.669.878.878 0 0 1-.36.595.87.87 0 0 1-.681.141ZM157.372 448.97a70.543 70.543 0 0 1-2.89-14.88.83.83 0 0 1 .181-.622.844.844 0 0 1 .9-.28.852.852 0 0 1 .609.722 67.952 67.952 0 0 0 2.83 14.52.858.858 0 0 1-.562 1.005.864.864 0 0 1-.617-.024.866.866 0 0 1-.441-.431l-.01-.01ZM153.46 419.07l-.12-15a.82.82 0 1 1 1.64 0l.16 15a.843.843 0 0 1-.84.84.841.841 0 0 1-.84-.84ZM153.852 389.009l.9-15a.77.77 0 0 1 .82-.73.778.778 0 0 1 .74.82l-.86 15a.797.797 0 0 1-.53.715.82.82 0 0 1-.31.045.822.822 0 0 1-.76-.85ZM155.828 359.03a42.49 42.49 0 0 1 1.4-7.51 16.65 16.65 0 0 1 1.53-3.6 7.84 7.84 0 0 1 2.86-2.95.744.744 0 0 1 .941 1.113.737.737 0 0 1-.221.187 6.46 6.46 0 0 0-2.27 2.39 16.014 16.014 0 0 0-1.38 3.29 40.433 40.433 0 0 0-1.32 7.23.752.752 0 0 1-.279.514.779.779 0 0 1-.561.166.766.766 0 0 1-.68-.84l-.02.01ZM175.371 350.899a26.2 26.2 0 0 1 6.63 13.72.712.712 0 0 1-.121.527.706.706 0 0 1-.459.283.718.718 0 0 1-.81-.58 24.671 24.671 0 0 0-6.35-12.96.717.717 0 0 1 0-1 .72.72 0 0 1 1 0l.11.01ZM180.729 379.71a41.863 41.863 0 0 1-7.11 13.4.667.667 0 0 1-.743.333.66.66 0 0 1-.257-1.153 41 41 0 0 0 6.84-13 .697.697 0 0 1 .86-.46.668.668 0 0 1 .405.335.673.673 0 0 1 .045.525l-.04.02Z"/><path fill="#000" d="M163.02 403.87a147.156 147.156 0 0 1-11.87 9.23.638.638 0 0 1-.88-.15.637.637 0 0 1-.013-.703.634.634 0 0 1 .173-.177 142.443 142.443 0 0 0 11.74-9.18.65.65 0 0 1 1.004.781.635.635 0 0 1-.154.199ZM138.412 421.129a123.802 123.802 0 0 1-13.54 6.61.59.59 0 0 1-.77-.33.559.559 0 0 1-.047-.224.56.56 0 0 1 .367-.536 119.472 119.472 0 0 0 13.39-6.58.611.611 0 0 1 .782.906.612.612 0 0 1-.182.154ZM110.409 432.099c-2.493.46-5.024.691-7.56.69a26.63 26.63 0 0 1-7.59-1.07.56.56 0 0 1-.37-.69.559.559 0 0 1 .69-.37c4.69 1.41 9.76 1.18 14.6.32a.57.57 0 0 1 .21 1.12h.02ZM83.89 421.97a36.501 36.501 0 0 1-3.31-14.75.512.512 0 0 1 .719-.562.516.516 0 0 1 .282.562 35.552 35.552 0 0 0 3.24 14.31.538.538 0 0 1-.24.72.531.531 0 0 1-.71-.24l.02-.04ZM81.867 392.179a55.91 55.91 0 0 1 5-14.24.45.45 0 0 1 .61-.19.451.451 0 0 1 .19.61 54.992 54.992 0 0 0-4.82 14 .5.5 0 0 1-.58.38.49.49 0 0 1-.38-.57l-.02.01ZM97.539 368.62a7.62 7.62 0 0 1 2 3.36 22.15 22.15 0 0 1 .89 3.72 39.75 39.75 0 0 1 .46 7.55.379.379 0 0 1-.39.37.388.388 0 0 1-.38-.39 38.2 38.2 0 0 0-.49-7.4 20.318 20.318 0 0 0-.86-3.58 6.909 6.909 0 0 0-1.8-3 .405.405 0 0 1-.125-.295.409.409 0 0 1 .125-.295.422.422 0 0 1 .59 0l-.02-.04ZM97.872 398.02a46.136 46.136 0 0 1-7.71 12.92.306.306 0 0 1-.212.111.31.31 0 0 1-.305-.166.31.31 0 0 1 .037-.345 45.358 45.358 0 0 0 7.58-12.77.357.357 0 0 1 .19-.193.357.357 0 0 1 .466.175.342.342 0 0 1 .004.268h-.05ZM78.83 420.82a59.537 59.537 0 0 1-13.57 6.42.25.25 0 0 1-.31-.16.26.26 0 0 1 .16-.31 59.243 59.243 0 0 0 13.44-6.42.282.282 0 0 1 .442.294.275.275 0 0 1-.142.176h-.02ZM50.552 430.369a76.097 76.097 0 0 1-15 .07.181.181 0 0 1-.154-.129.18.18 0 0 1-.006-.071.19.19 0 0 1 .2-.16 75.24 75.24 0 0 0 14.93-.13.21.21 0 0 1 .21.21.215.215 0 0 1-.062.149.207.207 0 0 1-.148.061h.03ZM20.819 427.479c-1.19-.42-2.38-.81-3.55-1.24a34.286 34.286 0 0 1-3.44-1.54 26.621 26.621 0 0 1-6.15-4.31.121.121 0 0 1 0-.16.11.11 0 0 1 .075-.03.11.11 0 0 1 .075.03 26.736 26.736 0 0 0 6.12 4.25 34.742 34.742 0 0 0 3.41 1.51c1.18.42 2.36.81 3.54 1.21.02.005.037.015.052.028a.13.13 0 0 1 .036.046.142.142 0 0 1 .002.116.161.161 0 0 1-.18.09h.01ZM2.969 377.56l.6-2.88-.59 2.88-.01.01v-.01Z"/><path fill="url(#a)" stroke="#000" stroke-width="2" d="m290.906 116.357 165.647 32.281-3.758 19.282-165.646-32.281 3.757-19.282Z"/><path fill="#000" stroke="#000" stroke-width="2" d="m399.238 137.469 56.527 11.015-3.758 19.282-56.526-11.016 3.757-19.281Z"/><path fill="#F1EFED" stroke="#000" stroke-width="1.5" d="m431.148 143.895 19.081 3.718-3.718 19.082-19.081-3.719z"/><path stroke="#000" stroke-width="1.735" d="m435.027 149.646 7.611 11.296m1.843-9.453-11.296 7.611"/><path fill="#F1EFED" stroke="#000" stroke-width="1.5" d="m412.07 140.178 19.081 3.718-3.718 19.082-19.081-3.719z"/><mask id="b" fill="#fff"><path d="m414.863 144.832 11.953 2.329-2.329 11.953-11.953-2.329 2.329-11.953Z"/></mask><path fill="#F1EFED" d="m414.863 144.832 11.953 2.329-2.329 11.953-11.953-2.329 2.329-11.953Z"/><path fill="#000" d="m414.863 144.832.332-1.703-.851-.166-.332 1.703.851.166Zm11.953 2.329.851.166.332-1.703-.851-.166-.332 1.703Zm-2.329 11.953-.083.426.851.166.083-.426-.851-.166Zm-11.953-2.329-.852-.166-.083.425.852.166.083-.425Zm1.997-10.25 11.953 2.329.664-3.406-11.953-2.329-.664 3.406Zm11.433.46-2.329 11.953 1.703.332 2.329-11.953-1.703-.332Zm-1.394 11.693-11.953-2.329-.166.851 11.953 2.33.166-.852Zm-11.184-1.737 2.329-11.953-1.703-.332-2.33 11.953 1.704.332Z" mask="url(#b)"/><path fill="#F1EFED" stroke="#000" stroke-width="1.5" d="m392.887 136.438 19.081 3.718-3.718 19.082-19.081-3.719z"/><mask id="c" fill="#fff"><path d="m404.895 154.254-10.741-2.093 2.093-10.74 10.741 2.093-2.093 10.74Z"/></mask><path fill="#F1EFED" d="m404.895 154.254-10.741-2.093 2.093-10.74 10.741 2.093-2.093 10.74Z"/><path fill="#000" d="m405.226 152.551-10.74-2.093-.663 3.406 10.74 2.093.663-3.406Z" mask="url(#c)"/><path fill="url(#d)" d="M217.721 375.61c-8.968 37.776-16.524 68.193-21.73 82.934-1.721 4.874-1.439 10.629 2.51 13.964 23.773 20.074 90.992 39.155 145.647 43.836 24.899 2.133 47.191 1.277 61.579-3.835 4.405-1.565 6.627-6.129 6.745-10.802.44-17.396 5.207-50.287 12.031-92.847 2.397-14.951 6.748-29.481 12.092-43.649 38.301-101.554 57.839-229.321 57.74-288.854-.002-1.191-.001-8.385 0-11.53 0-.981-.015-1.958-.071-2.938-.289-5.053-1.613-21.403-6.616-21.032-.731.054-2.744.004-2.875 3.622.075 3.624.112 7.251.112 10.878.017.145.017.299 0 .457a655.514 655.514 0 0 1-.047 7.286c-1.319 108.586-30.036 216.551-56.69 245.757a90.564 90.564 0 0 1-3.5 3.626c-18.885 18.518-46.557 29.78-74.5 30.484a108.92 108.92 0 0 1-7-.046c-17.767-.688-35.355-5.759-50.574-16.064a51.63 51.63 0 0 1-2.06-1.5c-1.715-1.3-3.719-2.898-4.892-3.823-11.064-8.722-18.903-18.992-26.019-34.177-.462-.986-.913-1.986-1.354-3-3.971-9.135-7.085-19.445-9.153-31.003-4.349-24.307-.864-49.416 2.367-72.696l.075-.545 3.376-24.326a379.968 379.968 0 0 1 22.869-87.13l17.463-44.3 6.12-15.525.031-.075c1.571-3.813-.365-4.563-1.025-4.904-2.189-1.129-4.669.724-7.16 4.144-9.32 12.798-14.907 27.969-21.306 42.45-29.308 66.317-41.7 179.179-44.886 252.713-1.056 24.378-3.662 48.709-9.299 72.45Z"/><path fill="#5869DD" d="m301.397 8.757-.031.075-6.12 15.525c9.898 1.202 14.872-5.039 23.402-20.277-1.066.132-2.139.268-3.219.409-4.915.639-9.738 2-14.032 4.268ZM484.773 44.479c-3.513-4.594-7.861-8.66-12.815-12.122a65.673 65.673 0 0 0 0 5.648c.349 8.27 2.19 16.506 5.19 19.352 4.063 3.853 7.503.669 7.737-1.543v-.457c0-3.627-.037-7.254-.112-10.878Z"/><path fill="#F1EFED" d="M293.481 110.718a15.558 15.558 0 0 0-1.892.038c-.671.049-1.265.474-1.568 1.075a319.232 319.232 0 0 0-7.339 15.526c-18.339 41.822-18.858 71.414-15.623 120.5l4.589.946c-.01-.236-.005-1.484 0-2.731v-2.715l-.051-1.212c-2.107-49.946-3.231-76.591 22.96-122.509.48-.841.895-1.804 1.188-2.779.255-.848.418-1.706.451-2.5.079-1.961-.635-3.537-2.715-3.639ZM421.148 279.607l3.5.721c20.992-42.901 33.362-69.744 33.397-112.971.006-6.6-.276-13.583-.859-21.062-.053-.671-.441-1.29-1.043-1.591a15.634 15.634 0 0 0-1.736-.753l-.833-.2c-1.774-.194-2.458 1.43-2.61 3.539-.092 1.276.01 2.73.184 4.067 6.611 50.921-7.662 79.963-27.704 123.277a2269.78 2269.78 0 0 0-2.296 4.973Z"/><path fill="#000" d="m271.648 248.803 149.5 30.804c.773-1.68 1.538-3.336 2.296-4.973l-151.796-31.277c.01.232.005 1.469 0 2.71v2.736Z"/><path fill="url(#e)" d="M395.148 298.432c-35.944 13.619-80.923 6.896-107.801-18.104 26.327-3.073 45.035-2.615 62.801 1.378 14.429 3.243 28.236 8.818 45 16.726Z"/><path fill="#5869DD" d="M291.589 110.756a15.558 15.558 0 0 1 1.892-.038c2.08.102 2.794 1.678 2.715 3.639 59.452 9.5 93.452 18 157.378 29.394.255.028.532.093.833.2.514.182 1.088.43 1.736.753.602.301.99.92 1.043 1.591.583 7.479.865 14.462.859 21.062 3.603-9.5 6.471-19.823 2.603-28.5-6.241-14-132.5-35.466-164.452-36.5-6.175-.2-10.548 8.361-13.514 25a319.232 319.232 0 0 1 7.339-15.526c.303-.601.897-1.026 1.568-1.075Z"/><path fill="url(#f)" d="M271.648 280.328c-6 0-9 2.529-12.045 7.029 7.116 15.185 14.955 25.455 26.019 34.177 2.634-8.871 6.322-11.388 14.526-16.177l-28.5-25.029Z"/><path fill="#000" d="M198.501 472.508c-3.949-3.335-4.231-9.09-2.51-13.964-1.721 4.874-6.918 22.378 2.51 29.813 12.959 10.219 76.264 29.782 129.647 38.202l16-10.215c-54.655-4.681-121.874-23.762-145.647-43.836Z"/><path fill="#5869DD" d="M412.472 501.707c-.118 4.673-2.34 9.237-6.745 10.802-14.388 5.112-36.68 5.968-61.579 3.835l-16 10.215c27.59 4.352 52.53 5.727 66.5 1.298 18.031-5.717 17.706-21.477 17.824-26.15Z"/><path fill="#000" d="M300.148 305.357c-8.204 4.789-11.892 7.306-14.526 16.177 1.173.925 3.177 2.523 4.892 3.823 3.556-6.021 9.232-13.891 12.341-18.202l.008-.012c.502-.696.937-1.299 1.285-1.786h-4ZM350.148 342.967v-23.344c0-1.009.76-1.86 1.76-1.99-.587 0-2.56.398-5.76 1.99-3.2 1.591-3.333 16.195-3 23.298 2.332.091 4.667.105 7 .046Z"/><path fill="#F1EFED" d="m271.648 280.328 28.5 25.029h4c-.799-2.795-17.544-14.521-27.056-21.182l-.004-.002c-2.396-1.678-4.333-3.034-5.44-3.845Z"/><path fill="#000" d="m295.246 24.357-1.38 3.5c13.501 2.363 19.128-7.75 26.909-21.737.45-.809.907-1.63 1.373-2.463-1.158.136-2.325.277-3.5.423-8.53 15.238-13.504 21.48-23.402 20.277Z"/><path fill="url(#g)" fill-rule="evenodd" d="m254.914 155.787-3.376 24.326-.075.545c-3.231 23.28-6.716 48.389-2.367 72.696 2.068 11.558 5.182 21.868 9.153 31.003.441 1.014.892 2.014 1.354 3 3.045-4.5 6.045-7.029 12.045-7.029 1.107.811 3.044 2.167 5.44 3.845l.004.002c9.512 6.661 26.257 18.387 27.056 21.182-.348.487-.783 1.09-1.285 1.786l-.008.012c-3.109 4.311-8.785 12.181-12.341 18.202a51.63 51.63 0 0 0 2.06 1.5c15.219 10.305 32.807 15.376 50.574 16.064-.333-7.103-.2-21.707 3-23.298 3.2-1.592 5.173-1.99 5.76-1.99 25.159-3.261 37.803-7.572 56.912-16.88a3.016 3.016 0 0 1 3.339.466l12.489 11.264a90.564 90.564 0 0 0 3.5-3.626c26.654-29.206 55.371-137.171 56.69-245.757-4.293 2.264-12.88.414-12.88-25.095a65.673 65.673 0 0 1 0-5.648 68.538 68.538 0 0 0-7.115-4.343C417.103 2.668 380.61-3.212 322.148 3.657c-.466.832-.923 1.654-1.373 2.463-7.781 13.986-13.408 24.1-26.909 21.737l-16.083 40.8a379.968 379.968 0 0 0-22.869 87.13Zm32.433 124.541a78.272 78.272 0 0 1-2.21-2.139c-8.231-8.285-14.549-18.418-18.078-30.332-3.235-49.086-2.716-78.678 15.623-120.5 2.966-16.639 7.339-25.2 13.514-25 31.952 1.034 158.211 22.5 164.452 36.5 3.868 8.677 1 19-2.603 28.5-.035 43.227-12.405 70.07-33.397 112.971-8.492 7.951-18.579 13.966-29.5 18.104-35.944 13.619-80.923 6.896-107.801-18.104Z" clip-rule="evenodd"/><path fill="#000" d="M484.885 55.814c-.234 2.212-3.674 5.396-7.737 1.543-3-2.846-4.841-11.081-5.19-19.352 0 25.509 8.587 27.359 12.88 25.095.029-2.429.045-4.858.047-7.286Z"/><path fill="url(#h)" fill-rule="evenodd" d="M285.137 278.189c-8.231-8.285-14.549-18.418-18.078-30.332l4.589.946 149.5 30.804 3.5.721c-7.577 7.094-16.424 12.648-26 16.701-14.988-7.565-28.411-13.596-42.693-17.422-19.802-5.306-41.256-6.373-70.818-1.418Z" clip-rule="evenodd"/><path fill="#F1EFED" d="M395.148 298.432a97.42 97.42 0 0 0 3.5-1.403c-14.988-7.565-28.411-13.596-42.693-17.422l-5.807 2.099c14.429 3.243 28.236 8.818 45 16.726Z"/><path fill="#000" d="M285.137 278.189c.722.727 1.459 1.44 2.21 2.139 26.327-3.073 45.035-2.615 62.801 1.378l5.807-2.099c-19.802-5.306-41.256-6.373-70.818-1.418ZM453.574 143.751c-63.926-11.394-97.926-19.894-157.378-29.394-.033.794-.196 1.652-.451 2.5l155.219 30.433c.152-2.109.836-3.733 2.61-3.539Z"/><path fill="url(#i)" fill-rule="evenodd" d="M350.148 342.967v-23.344c0-1.009.76-1.86 1.76-1.99 24.418-3.165 37.048-7.319 55.24-16.071l14.988 13.295c-18.779 17.103-45.26 27.436-71.988 28.11Z" clip-rule="evenodd"/><path fill="#F1EFED" d="M408.82 300.753c-.563.274-1.12.544-1.672.809l14.988 13.295a94.08 94.08 0 0 0 2.512-2.374l-12.489-11.264a3.016 3.016 0 0 0-3.339-.466Z"/><path stroke="#000" stroke-width="2" d="M464.843 28.014a68.538 68.538 0 0 1 7.115 4.343m-7.115-4.343C416.157 2.166 379.168-3.438 318.648 4.08m146.195 23.934C417.103 2.668 380.61-3.212 322.148 3.657M195.991 458.544c5.206-14.741 12.762-45.158 21.73-82.934 5.637-23.741 8.243-48.072 9.299-72.45 3.186-73.534 15.578-186.396 44.886-252.713 6.399-14.481 11.986-29.652 21.306-42.45 2.491-3.42 4.971-5.273 7.16-4.144.66.34 2.596 1.091 1.025 4.904M195.991 458.544c-1.721 4.874-1.439 10.629 2.51 13.964 23.773 20.074 90.992 39.155 145.647 43.836m-148.157-57.8c-1.721 4.874-6.918 22.378 2.51 29.813 12.959 10.219 76.264 29.782 129.647 38.202m84.324-24.852c.44-17.396 5.207-50.287 12.031-92.847 2.397-14.951 6.748-29.481 12.092-43.649 38.301-101.554 57.839-229.321 57.74-288.854-.002-1.191-.001-8.385 0-11.53 0-.981-.015-1.958-.071-2.938-.289-5.053-1.613-21.403-6.616-21.032-.731.054-2.744.004-2.875 3.622m-72.301 457.228c-.118 4.673-2.34 9.237-6.745 10.802-14.388 5.112-36.68 5.968-61.579 3.835m68.324-14.637c-.118 4.673.207 20.433-17.824 26.15-13.97 4.429-38.91 3.054-66.5-1.298m156.625-482.08c-3.513-4.594-7.861-8.66-12.815-12.122m12.815 12.122c.075 3.624.112 7.251.112 10.878M344.148 516.344l-16 10.215M277.783 68.657a379.968 379.968 0 0 0-22.869 87.13l-3.376 24.326m26.245-111.456 17.463-44.3m-17.463 44.3 16.083-40.8m-42.328 152.256-.075.545m.075-.545-.075.545M301.397 8.757l-.031.075-6.12 15.525m6.151-15.6c4.294-2.267 9.117-3.63 14.032-4.268 1.08-.14 2.153-.277 3.219-.41m153.31 28.278a65.673 65.673 0 0 0 0 5.648m12.927 17.352c.017.145.017.299 0 .457m0-.457v.457m0-.457v.457M295.246 24.357c9.898 1.202 14.872-5.039 23.402-20.277m-23.402 20.277-1.38 3.5M318.648 4.08c1.175-.146 2.342-.287 3.5-.423m-55.089 244.2 4.589.946m-4.589-.946c-3.235-49.086-2.716-78.678 15.623-120.5m-15.623 120.5c3.529 11.914 9.847 22.047 18.078 30.332m139.511 2.139c-8.492 7.951-18.579 13.966-29.5 18.104m29.5-18.104-153-31.525m153 31.525c20.992-42.901 33.362-69.744 33.397-112.971m-33.397 112.971-3.5-.721m3.5.721c-7.577 7.094-16.424 12.648-26 16.701m-111.301-16.701c26.878 25 71.857 31.723 107.801 18.104m-107.801-18.104a78.272 78.272 0 0 1-2.21-2.139m2.21 2.139c26.327-3.073 45.035-2.615 62.801 1.378m45 16.726a97.42 97.42 0 0 0 3.5-1.403m-3.5 1.403c-16.764-7.908-30.571-13.483-45-16.726m-90.545 5.651c3.045-4.5 6.045-7.029 12.045-7.029m-12.045 7.029c7.116 15.185 14.955 25.455 26.019 34.177m-26.019-34.177c-.462-.986-.913-1.986-1.354-3-3.971-9.135-7.085-19.445-9.153-31.003-4.349-24.307-.864-49.416 2.367-72.696m20.185 99.67 28.5 25.029m-28.5-25.029c1.107.811 3.044 2.167 5.44 3.845l.004.002c9.512 6.661 26.257 18.387 27.056 21.182m-4 0c-8.204 4.789-11.892 7.306-14.526 16.177m14.526-16.177h4m-18.526 16.177c1.173.925 3.177 2.523 4.892 3.823m13.634-20c-.348.487-.783 1.09-1.285 1.786m-12.349 18.214a51.63 51.63 0 0 0 2.06 1.5c15.219 10.305 32.807 15.376 50.574 16.064m-52.634-17.564c3.556-6.021 9.232-13.891 12.341-18.202m47.293 35.812v-23.344c0-1.009.76-1.86 1.76-1.99m-1.76 25.334c27.943-.704 55.615-11.966 74.5-30.484m-74.5 30.484a108.92 108.92 0 0 1-7-.046m7 .046c26.728-.674 53.209-11.007 71.988-28.11m2.512-2.374a90.564 90.564 0 0 0 3.5-3.626c26.654-29.206 55.371-137.171 56.69-245.757m-60.19 249.383-12.489-11.264a3.016 3.016 0 0 0-3.339-.466m15.828 11.73a94.08 94.08 0 0 1-2.512 2.374m-13.316-14.104c-19.109 9.308-31.753 13.619-56.912 16.88m56.912-16.88c-.563.274-1.12.544-1.672.809m-55.24 16.071c-.587 0-2.56.398-5.76 1.99-3.2 1.591-3.333 16.195-3 23.298m8.76-25.288c24.418-3.165 37.048-7.319 55.24-16.071m-135.5-52.759 149.5 30.804m-149.5-30.804c-.01-.236-.005-1.484 0-2.731m0 2.731v-2.736m0 2.736v-2.731m0-2.715 151.796 31.277m-151.796-31.277c.01.232.005 1.469 0 2.71m0-2.71v2.71m0-2.71-.051-1.212m.051 1.212-.051-1.212m149.551 37.462c.773-1.68 1.538-3.336 2.296-4.973m30.963-130.683c.514.182 1.088.43 1.736.753.602.301.99.92 1.043 1.591.583 7.479.865 14.462.859 21.062m-3.638-23.406-.833-.2m.833.2a3.703 3.703 0 0 0-.833-.2m.833.2-.833-.2m-157.378-29.394c.08-1.961-.635-3.537-2.715-3.639a15.558 15.558 0 0 0-1.892.038c-.671.049-1.265.474-1.568 1.075a319.232 319.232 0 0 0-7.339 15.526m13.514-13c59.452 9.5 93.452 18 157.378 29.394m-157.378-29.394c-.033.794-.196 1.652-.451 2.5m-13.063 10.5c2.966-16.639 7.339-25.2 13.514-25 31.952 1.034 158.211 22.5 164.452 36.5 3.868 8.677 1 19-2.603 28.5m-34.601 107.277c20.042-43.314 34.315-72.356 27.704-123.277-.174-1.337-.276-2.791-.184-4.067m-179.316 98.777v.005m-.051-3.927c-2.107-49.946-3.231-76.591 22.96-122.509.48-.841.895-1.804 1.188-2.779m157.829 26.894c-1.774-.194-2.458 1.43-2.61 3.539m33.921-91.476c-.234 2.212-3.674 5.396-7.737 1.543-3-2.846-4.841-11.081-5.19-19.352m12.927 17.809a655.514 655.514 0 0 1-.047 7.286M293.866 27.857c13.501 2.363 19.128-7.75 26.909-21.737.45-.809.907-1.63 1.373-2.463m-19.293 303.498.008-.012m-.008.012.008-.012M484.838 63.1c-4.293 2.264-12.88.414-12.88-25.095m-73.31 259.024c-14.988-7.565-28.411-13.596-42.693-17.422m-70.818-1.418c29.562-4.955 51.016-3.888 70.818 1.418m-5.807 2.099 5.807-2.099m-60.21-162.75 155.219 30.433m-28.828 167.567-14.988-13.295"/><path stroke="#000" stroke-linecap="round" stroke-linejoin="round" stroke-width="3" d="M356.148 294.857c-12.871-.782-20.06-1.319-32-5.5"/><path fill="#F1EFED" d="M378.607 467.434c9.199-.24 15.948 4.225 11.298 12.745-1.484 2.721-5.525 5.636-12.054 6.564l-4.456 5.409c8.939-.701 17.11-2.19 19.813-5.82 8.435-11.331-2.786-19.88-14.601-18.898Z"/><path fill="url(#j)" fill-rule="evenodd" d="M389.905 480.179c4.65-8.52-2.099-12.985-11.298-12.745-9.199.24-21.227 3.233-30.142 6.855-3.703 1.505-5.198 4.377-3.8 6.814.685 1.194 2.003 2.088 4.061 3.483.753.511 1.601.87 2.496 1.035 10.249 1.888 19.586 2.123 26.629 1.122 6.529-.928 10.57-3.843 12.054-6.564Z" clip-rule="evenodd"/><path fill="#000" d="M344.665 481.103a34.797 34.797 0 0 0 2.48 3.724c.699.925 1.585 1.697 2.593 2.405 4.518 3.171 10.009 4.862 15.519 5.072a70.17 70.17 0 0 0 8.138-.152l4.456-5.409c-7.043 1.001-16.38.766-26.629-1.122a6.577 6.577 0 0 1-2.496-1.035c-2.058-1.395-3.376-2.289-4.061-3.483Z"/><path stroke="#000" stroke-width="2" d="M378.607 467.434c9.199-.24 15.948 4.225 11.298 12.745-1.484 2.721-5.525 5.636-12.054 6.564m.756-19.309c11.815-.982 23.036 7.567 14.601 18.898-2.703 3.63-10.874 5.119-19.813 5.82m5.212-24.718c-9.199.24-21.227 3.233-30.142 6.855-3.703 1.505-5.198 4.377-3.8 6.814m0 0a34.797 34.797 0 0 0 2.48 3.724c.699.925 1.585 1.697 2.593 2.405 4.518 3.171 10.009 4.862 15.519 5.072a70.17 70.17 0 0 0 8.138-.152m-28.73-11.049c.685 1.194 2.003 2.088 4.061 3.483.753.511 1.601.87 2.496 1.035 10.249 1.888 19.586 2.123 26.629 1.122m0 0-4.456 5.409"/><path fill="#F1EFED" d="M383.607 434.434c9.199-.24 15.948 4.225 11.298 12.745-1.484 2.721-5.525 5.636-12.054 6.564l-4.456 5.409c8.939-.701 17.11-2.19 19.813-5.82 8.435-11.331-2.786-19.88-14.601-18.898Z"/><path fill="url(#k)" fill-rule="evenodd" d="M394.905 447.179c4.65-8.52-2.099-12.985-11.298-12.745-9.199.24-21.227 3.233-30.142 6.855-3.703 1.505-5.198 4.377-3.8 6.814.685 1.194 2.003 2.088 4.061 3.483.753.511 1.601.87 2.496 1.035 10.249 1.888 19.586 2.123 26.629 1.122 6.529-.928 10.57-3.843 12.054-6.564Z" clip-rule="evenodd"/><path fill="#000" d="M349.665 448.103a34.797 34.797 0 0 0 2.48 3.724c.699.925 1.585 1.697 2.593 2.405 4.518 3.171 10.009 4.862 15.519 5.072a70.17 70.17 0 0 0 8.138-.152l4.456-5.409c-7.043 1.001-16.38.766-26.629-1.122a6.577 6.577 0 0 1-2.496-1.035c-2.058-1.395-3.376-2.289-4.061-3.483Z"/><path stroke="#000" stroke-width="2" d="M383.607 434.434c9.199-.24 15.948 4.225 11.298 12.745-1.484 2.721-5.525 5.636-12.054 6.564m.756-19.309c11.815-.982 23.036 7.567 14.601 18.898-2.703 3.63-10.874 5.119-19.813 5.82m5.212-24.718c-9.199.24-21.227 3.233-30.142 6.855-3.703 1.505-5.198 4.377-3.8 6.814m0 0a34.797 34.797 0 0 0 2.48 3.724c.699.925 1.585 1.697 2.593 2.405 4.518 3.171 10.009 4.862 15.519 5.072a70.17 70.17 0 0 0 8.138-.152m-28.73-11.049c.685 1.194 2.003 2.088 4.061 3.483.753.511 1.601.87 2.496 1.035 10.249 1.888 19.586 2.123 26.629 1.122m0 0-4.456 5.409"/><path fill="#F1EFED" d="M390.944 401.434c9.022-.24 15.642 4.225 11.082 12.745-1.457 2.721-5.42 5.636-11.823 6.564l-4.37 5.409c8.767-.701 16.78-2.19 19.431-5.82 8.273-11.331-2.732-19.88-14.32-18.898Z"/><path fill="url(#l)" fill-rule="evenodd" d="M402.026 414.179c4.56-8.52-2.06-12.985-11.082-12.745-9.022.24-20.819 3.233-29.562 6.855-3.631 1.505-5.098 4.377-3.727 6.814.672 1.194 1.964 2.088 3.983 3.483.739.51 1.573.871 2.455 1.036 10.049 1.887 19.204 2.122 26.11 1.121 6.403-.928 10.366-3.843 11.823-6.564Z" clip-rule="evenodd"/><path fill="#000" d="M357.655 415.103a34.857 34.857 0 0 0 2.432 3.724c.686.925 1.555 1.697 2.543 2.405 4.432 3.171 9.817 4.862 15.221 5.072 2.752.107 5.436.052 7.982-.152l4.37-5.409c-6.906 1.001-16.061.766-26.11-1.121a6.408 6.408 0 0 1-2.455-1.036c-2.019-1.395-3.311-2.289-3.983-3.483Z"/><path stroke="#000" stroke-width="2" d="M390.944 401.434c9.023-.24 15.642 4.225 11.082 12.745-1.457 2.721-5.42 5.636-11.823 6.564m.741-19.309c11.588-.982 22.593 7.567 14.32 18.898-2.651 3.63-10.664 5.119-19.431 5.82m5.111-24.718c-9.022.24-20.819 3.233-29.562 6.855-3.631 1.505-5.098 4.377-3.727 6.814m0 0a34.857 34.857 0 0 0 2.432 3.724c.686.925 1.555 1.697 2.543 2.405 4.432 3.171 9.817 4.862 15.221 5.072 2.752.107 5.436.052 7.982-.152m-28.178-11.049c.672 1.194 1.964 2.088 3.983 3.483.739.51 1.573.871 2.455 1.036 10.049 1.887 19.204 2.122 26.11 1.121m0 0-4.37 5.409"/><path fill="#F1EFED" d="M397.607 368.434c9.199-.24 15.948 4.225 11.298 12.745-1.484 2.721-5.525 5.636-12.054 6.564l-4.456 5.409c8.939-.701 17.11-2.19 19.813-5.82 8.435-11.331-2.786-19.88-14.601-18.898Z"/><path fill="url(#m)" fill-rule="evenodd" d="M408.905 381.179c4.65-8.52-2.099-12.985-11.298-12.745-9.199.24-21.227 3.233-30.142 6.855-3.703 1.505-5.198 4.377-3.8 6.814.685 1.194 2.003 2.088 4.061 3.483.753.511 1.601.87 2.496 1.035 10.249 1.888 19.586 2.123 26.629 1.122 6.529-.928 10.57-3.843 12.054-6.564Z" clip-rule="evenodd"/><path fill="#000" d="M363.665 382.103a34.797 34.797 0 0 0 2.48 3.724c.699.925 1.585 1.697 2.593 2.405 4.518 3.171 10.009 4.862 15.519 5.072a70.17 70.17 0 0 0 8.138-.152l4.456-5.409c-7.043 1.001-16.38.766-26.629-1.122a6.577 6.577 0 0 1-2.496-1.035c-2.058-1.395-3.376-2.289-4.061-3.483Z"/><path stroke="#000" stroke-width="2" d="M397.607 368.434c9.199-.24 15.948 4.225 11.298 12.745-1.484 2.721-5.525 5.636-12.054 6.564m.756-19.309c11.815-.982 23.036 7.567 14.601 18.898-2.703 3.63-10.874 5.119-19.813 5.82m5.212-24.718c-9.199.24-21.227 3.233-30.142 6.855-3.703 1.505-5.198 4.377-3.8 6.814m0 0a34.797 34.797 0 0 0 2.48 3.724c.699.925 1.585 1.697 2.593 2.405 4.518 3.171 10.009 4.862 15.519 5.072a70.17 70.17 0 0 0 8.138-.152m-28.73-11.049c.685 1.194 2.003 2.088 4.061 3.483.753.511 1.601.87 2.496 1.035 10.249 1.888 19.586 2.123 26.629 1.122m0 0-4.456 5.409"/><path fill="#F1EFED" d="M268.898 463.397a35.108 35.108 0 0 1-3.537 2.74c-.958.653-2.044 1.104-3.224 1.453-5.293 1.567-11.036 1.421-16.326-.135a70.165 70.165 0 0 1-7.666-2.736l-2.501-6.547c6.357 3.193 15.283 5.944 25.599 7.419a6.583 6.583 0 0 0 2.696-.187c2.395-.666 3.929-1.094 4.959-2.007Z"/><path fill="url(#n)" fill-rule="evenodd" d="M235.644 458.172c-5.893-2.959-8.795-7.009-9.336-10.061-1.694-9.557 6.126-11.64 14.769-8.482 8.644 3.157 19.092 9.825 26.389 16.098 3.031 2.606 3.533 5.805 1.432 7.67-1.03.913-2.564 1.341-4.959 2.007a6.583 6.583 0 0 1-2.696.187c-10.316-1.475-19.242-4.226-25.599-7.419Z" clip-rule="evenodd"/><path fill="#000" d="M241.077 439.629c-8.643-3.158-16.463-1.075-14.769 8.482.541 3.052 3.443 7.102 9.336 10.061l2.501 6.547c-8.25-3.512-15.521-7.525-16.927-11.827-4.387-13.428 8.972-17.958 19.859-13.263Z"/><path stroke="#000" stroke-width="2" d="M241.077 439.629c-8.643-3.158-16.463-1.075-14.769 8.482.541 3.052 3.443 7.102 9.336 10.061m5.433-18.543c-10.887-4.695-24.246-.165-19.859 13.263 1.406 4.302 8.677 8.315 16.927 11.827m2.932-25.09c8.644 3.157 19.092 9.825 26.389 16.098 3.031 2.606 3.533 5.805 1.432 7.67m0 0a35.108 35.108 0 0 1-3.537 2.74c-.958.653-2.044 1.104-3.224 1.453-5.293 1.567-11.036 1.421-16.326-.135a70.165 70.165 0 0 1-7.666-2.736m30.753-1.322c-1.03.913-2.564 1.341-4.959 2.007a6.583 6.583 0 0 1-2.696.187c-10.316-1.475-19.242-4.226-25.599-7.419m0 0 2.501 6.547"/><path fill="url(#o)" fill-rule="evenodd" d="M232.077 414.851c-1.694-9.557 6.126-11.64 14.769-8.482 8.644 3.157 19.092 9.825 26.389 16.098 3.031 2.606 3.533 5.805 1.432 7.67-1.03.914-2.564 1.341-4.959 2.008a6.583 6.583 0 0 1-2.696.186c-10.316-1.475-19.242-4.226-25.599-7.418-5.893-2.96-8.795-7.01-9.336-10.062Z" clip-rule="evenodd"/><path fill="#F1EFED" d="M274.667 430.137a34.962 34.962 0 0 1-3.537 2.74c-.958.654-2.043 1.104-3.224 1.453-5.293 1.567-11.036 1.421-16.326-.134a70.376 70.376 0 0 1-7.666-2.737l-2.501-6.546c6.357 3.192 15.283 5.943 25.599 7.418a6.583 6.583 0 0 0 2.696-.186c2.395-.667 3.929-1.094 4.959-2.008Z"/><path fill="#000" d="M246.846 406.369c-8.643-3.158-16.463-1.075-14.769 8.482.541 3.052 3.443 7.102 9.336 10.062l2.501 6.546c-8.25-3.512-15.521-7.525-16.927-11.827-4.387-13.427 8.972-17.957 19.859-13.263Z"/><path stroke="#000" stroke-width="2" d="M246.846 406.369c-8.643-3.158-16.463-1.075-14.769 8.482.541 3.052 3.443 7.102 9.336 10.062m5.433-18.544c-10.887-4.694-24.246-.164-19.859 13.263 1.406 4.302 8.677 8.315 16.927 11.827m2.932-25.09c8.644 3.157 19.092 9.825 26.389 16.098 3.031 2.606 3.533 5.805 1.432 7.67m0 0a34.962 34.962 0 0 1-3.537 2.74c-.958.654-2.043 1.104-3.224 1.453-5.293 1.567-11.036 1.421-16.326-.134a70.376 70.376 0 0 1-7.666-2.737m30.753-1.322c-1.03.914-2.564 1.341-4.959 2.008a6.583 6.583 0 0 1-2.696.186c-10.316-1.475-19.242-4.226-25.599-7.418m0 0 2.501 6.546"/><path fill="url(#p)" fill-rule="evenodd" d="M235.841 381.869c-1.609-9.528 6.088-11.652 14.564-8.551 8.476 3.101 18.705 9.695 25.839 15.914 2.963 2.583 3.438 5.773 1.362 7.646-1.017.918-2.527 1.353-4.884 2.033a6.404 6.404 0 0 1-2.658.2c-10.127-1.412-18.879-4.105-25.107-7.254-5.774-2.919-8.602-6.944-9.116-9.988Z" clip-rule="evenodd"/><path fill="#F1EFED" d="M277.606 396.878a34.965 34.965 0 0 1-3.491 2.756c-.945.658-2.015 1.113-3.177 1.469-5.21 1.595-10.853 1.482-16.043-.04a67.573 67.573 0 0 1-7.518-2.686l-2.42-6.52c6.228 3.149 14.98 5.842 25.107 7.254a6.404 6.404 0 0 0 2.658-.2c2.357-.68 3.867-1.115 4.884-2.033Z"/><path fill="#000" d="M250.405 373.318c-8.476-3.101-16.173-.977-14.564 8.551.514 3.044 3.342 7.069 9.116 9.988l2.42 6.52c-8.087-3.457-15.209-7.421-16.566-11.706-4.233-13.376 8.922-17.975 19.594-13.353Z"/><path stroke="#000" stroke-width="2" d="M250.405 373.318c-8.476-3.101-16.173-.977-14.564 8.551.514 3.044 3.342 7.069 9.116 9.988m5.448-18.539c-10.672-4.622-23.827-.023-19.594 13.353 1.357 4.285 8.479 8.249 16.566 11.706m3.028-25.059c8.476 3.101 18.705 9.695 25.839 15.914 2.963 2.583 3.438 5.773 1.362 7.646m0 0a34.965 34.965 0 0 1-3.491 2.756c-.945.658-2.015 1.113-3.177 1.469-5.21 1.595-10.853 1.482-16.043-.04a67.573 67.573 0 0 1-7.518-2.686m30.229-1.499c-1.017.918-2.527 1.353-4.884 2.033a6.404 6.404 0 0 1-2.658.2c-10.127-1.412-18.879-4.105-25.107-7.254m0 0 2.42 6.52"/><path fill="url(#q)" fill-rule="evenodd" d="M249.167 358.71c-5.893-2.96-8.795-7.01-9.336-10.062-1.693-9.557 6.126-11.64 14.77-8.482 8.643 3.157 19.092 9.825 26.388 16.098 3.031 2.606 3.533 5.805 1.432 7.67-1.03.914-2.563 1.341-4.959 2.008a6.577 6.577 0 0 1-2.695.186c-10.317-1.475-19.243-4.226-25.6-7.418Z" clip-rule="evenodd"/><path fill="#F1EFED" d="M282.421 363.934a34.884 34.884 0 0 1-3.537 2.74c-.957.654-2.043 1.104-3.223 1.453-5.293 1.567-11.037 1.421-16.327-.135a70.165 70.165 0 0 1-7.666-2.736l-2.501-6.546c6.357 3.192 15.283 5.943 25.6 7.418a6.577 6.577 0 0 0 2.695-.186c2.396-.667 3.929-1.094 4.959-2.008Z"/><path fill="#000" d="M254.601 340.166c-8.644-3.158-16.463-1.075-14.77 8.482.541 3.052 3.443 7.102 9.336 10.062l2.501 6.546c-8.25-3.512-15.521-7.525-16.927-11.827-4.387-13.428 8.973-17.957 19.86-13.263Z"/><path stroke="#000" stroke-width="2" d="M254.601 340.166c-8.644-3.158-16.463-1.075-14.77 8.482.541 3.052 3.443 7.102 9.336 10.062m5.434-18.544c-10.887-4.694-24.247-.165-19.86 13.263 1.406 4.302 8.677 8.315 16.927 11.827m2.933-25.09c8.643 3.157 19.092 9.825 26.388 16.098 3.031 2.606 3.533 5.805 1.432 7.67m0 0a34.884 34.884 0 0 1-3.537 2.74c-.957.654-2.043 1.104-3.223 1.453-5.293 1.567-11.037 1.421-16.327-.135a70.165 70.165 0 0 1-7.666-2.736m30.753-1.322c-1.03.914-2.563 1.341-4.959 2.008a6.577 6.577 0 0 1-2.695.186c-10.317-1.475-19.243-4.226-25.6-7.418m0 0 2.501 6.546"/><path fill="url(#r)" fill-rule="evenodd" d="M326.693 364.127c-14.291-2.812-26.702-.768-27.775 4.594-1.078 5.39 9.709 12.092 24.093 14.969.381.076.759.149 1.137.218 13.902 2.55 25.811.481 26.861-4.767.17-.849.045-1.731-.342-2.625-2.068-4.782-11.633-9.92-23.751-12.344l-.223-.045Z" clip-rule="evenodd"/><path fill="#F1EFED" d="M321.652 388.209c15.413 3.084 28.989.182 30.322-6.48.338-1.691-.145-3.461-1.307-5.213.387.894.512 1.776.342 2.625-1.05 5.248-12.959 7.317-26.861 4.767l-5 3.75c.821.198 1.657.382 2.504.551Z"/><path fill="#000" d="M323.011 383.69c-14.384-2.877-25.171-9.579-24.093-14.969 1.073-5.362 13.484-7.406 27.775-4.594l-.215-.043c-15.413-3.083-28.989-.182-30.321 6.48-1.26 6.296 8.865 13.697 22.991 17.094l5-3.75a70.805 70.805 0 0 1-1.137-.218Z"/><path stroke="#000" stroke-width="2" d="M326.693 364.127c-14.291-2.812-26.702-.768-27.775 4.594-1.078 5.39 9.709 12.092 24.093 14.969.381.076.759.149 1.137.218m2.545-19.781-.215-.043c-15.413-3.083-28.989-.182-30.321 6.48-1.26 6.296 8.865 13.697 22.991 17.094m7.545-23.531c11.401 2.32 20.582 7.272 23.974 12.389m-23.974-12.389.223.045c12.118 2.424 21.683 7.562 23.751 12.344m0 0c1.162 1.752 1.645 3.522 1.307 5.213-1.333 6.662-14.909 9.564-30.322 6.48a64.623 64.623 0 0 1-2.504-.551m31.519-11.142c.387.894.512 1.776.342 2.625-1.05 5.248-12.959 7.317-26.861 4.767m-5 3.75 5-3.75"/><path fill="#F1EFED" d="M315.75 418.799c15.413 3.083 28.988.182 30.321-6.48.338-1.691-.145-3.462-1.306-5.213.387.894.511 1.776.342 2.625-1.05 5.247-12.959 7.317-26.862 4.767l-5 3.75c.822.198 1.657.382 2.505.551Z"/><path fill="url(#s)" fill-rule="evenodd" d="M320.791 394.717c-14.291-2.812-26.702-.768-27.775 4.594-1.078 5.39 9.709 12.092 24.093 14.969.38.076.759.149 1.136.218 13.903 2.55 25.812.48 26.862-4.767.169-.849.045-1.731-.342-2.625-2.068-4.782-11.633-9.92-23.751-12.345a14.661 14.661 0 0 1-.223-.044Z" clip-rule="evenodd"/><path fill="#000" d="M317.109 414.28c-14.384-2.877-25.171-9.579-24.093-14.969 1.073-5.362 13.484-7.406 27.775-4.594l-.215-.043c-15.414-3.083-28.989-.182-30.322 6.48-1.259 6.295 8.866 13.697 22.991 17.094l5-3.75a70.692 70.692 0 0 1-1.136-.218Z"/><path stroke="#000" stroke-width="2" d="M320.791 394.717c-14.291-2.812-26.702-.768-27.775 4.594-1.078 5.39 9.709 12.092 24.093 14.969.38.076.759.149 1.136.218m2.546-19.781-.215-.043c-15.414-3.083-28.989-.182-30.322 6.48-1.259 6.295 8.866 13.697 22.991 17.094m7.546-23.531c11.401 2.32 20.582 7.272 23.974 12.389m-23.974-12.389.223.044c12.118 2.425 21.683 7.563 23.751 12.345m0 0c1.161 1.751 1.644 3.522 1.306 5.213-1.333 6.662-14.908 9.563-30.321 6.48a64.675 64.675 0 0 1-2.505-.551m31.52-11.142c.387.894.511 1.776.342 2.625-1.05 5.247-12.959 7.317-26.862 4.767m-5 3.75 5-3.75"/><path fill="#F1EFED" d="M309.75 451.389c15.413 3.083 28.988.182 30.321-6.48.338-1.691-.145-3.462-1.306-5.213.387.894.511 1.776.342 2.625-1.05 5.247-12.959 7.316-26.862 4.767l-5 3.75c.822.197 1.657.381 2.505.551Z"/><path fill="url(#t)" fill-rule="evenodd" d="M314.791 427.307c-14.291-2.812-26.702-.768-27.775 4.594-1.078 5.39 9.709 12.092 24.093 14.969.38.076.759.149 1.136.218 13.903 2.549 25.812.48 26.862-4.767.169-.849.045-1.731-.342-2.625-2.068-4.782-11.633-9.921-23.751-12.345l-.223-.044Z" clip-rule="evenodd"/><path fill="#000" d="M311.109 446.87c-14.384-2.877-25.171-9.579-24.093-14.969 1.073-5.362 13.484-7.406 27.775-4.594l-.215-.043c-15.414-3.084-28.989-.182-30.322 6.48-1.259 6.295 8.866 13.697 22.991 17.094l5-3.75a70.692 70.692 0 0 1-1.136-.218Z"/><path stroke="#000" stroke-width="2" d="M314.791 427.307c-14.291-2.812-26.702-.768-27.775 4.594-1.078 5.39 9.709 12.092 24.093 14.969.38.076.759.149 1.136.218m2.546-19.781-.215-.043c-15.414-3.084-28.989-.182-30.322 6.48-1.259 6.295 8.866 13.697 22.991 17.094m7.546-23.531c11.401 2.319 20.582 7.272 23.974 12.389m-23.974-12.389.223.044c12.118 2.424 21.683 7.563 23.751 12.345m0 0c1.161 1.751 1.644 3.522 1.306 5.213-1.333 6.662-14.908 9.563-30.321 6.48a68.627 68.627 0 0 1-2.505-.551m31.52-11.142c.387.894.511 1.776.342 2.625-1.05 5.247-12.959 7.316-26.862 4.767m-5 3.75 5-3.75"/><path fill="url(#u)" fill-rule="evenodd" d="M308.791 458.899c-14.291-2.812-26.702-.769-27.775 4.593-1.078 5.39 9.709 12.092 24.093 14.97.38.076.759.148 1.136.218 13.903 2.549 25.812.48 26.862-4.767.169-.85.045-1.731-.342-2.625-2.068-4.782-11.633-9.921-23.751-12.345l-.223-.044Z" clip-rule="evenodd"/><path fill="#F1EFED" d="M303.75 482.981c15.413 3.083 28.988.182 30.321-6.48.338-1.691-.145-3.462-1.306-5.213.387.894.511 1.775.342 2.625-1.05 5.247-12.959 7.316-26.862 4.767l-5 3.75c.822.197 1.657.381 2.505.551Z"/><path fill="#000" d="M305.109 478.462c-14.384-2.878-25.171-9.58-24.093-14.97 1.073-5.362 13.484-7.405 27.775-4.593l-.215-.043c-15.414-3.084-28.989-.183-30.322 6.479-1.259 6.296 8.866 13.698 22.991 17.095l5-3.75c-.377-.07-.756-.142-1.136-.218Z"/><path stroke="#000" stroke-width="2" d="M308.791 458.899c-14.291-2.812-26.702-.769-27.775 4.593-1.078 5.39 9.709 12.092 24.093 14.97.38.076.759.148 1.136.218m2.546-19.781-.215-.043c-15.414-3.084-28.989-.183-30.322 6.479-1.259 6.296 8.866 13.698 22.991 17.095m7.546-23.531c11.401 2.319 20.582 7.272 23.974 12.389m-23.974-12.389.223.044c12.118 2.424 21.683 7.563 23.751 12.345m0 0c1.161 1.751 1.644 3.522 1.306 5.213-1.333 6.662-14.908 9.563-30.321 6.48a68.627 68.627 0 0 1-2.505-.551m31.52-11.142c.387.894.511 1.775.342 2.625-1.05 5.247-12.959 7.316-26.862 4.767m-5 3.75 5-3.75"/><path fill="#000" d="m378.272 68.646-4.429-.794-.53 2.953 4.43.794.529-2.953Z"/><path fill="#5869DD" fill-rule="evenodd" d="M363.833 47.176a10.987 10.987 0 0 0-6.032 2.562 10.958 10.958 0 0 0-3.71 6.447 10.998 10.998 0 0 0-.122 3.026 11.002 11.002 0 0 0 2.107 5.457l.041.055.008-.046 4.429.794 4.43.793 4.429.794 4.43.794 4.429.794 4.429.794 4.43.793 4.429.794 4.43.794 4.429.794 4.43.794 4.429.793 4.429.794-.117.655a10.994 10.994 0 0 0 4.749-4.904 11.092 11.092 0 0 0 1.111-4.88 11.02 11.02 0 0 0-6.862-10.133 11.04 11.04 0 0 0-2.2-.635l-2.188-.392-4.429-.794-4.43-.794-4.429-.794-4.43-.794-4.429-.794-4.429-.793-4.43-.794-4.429-.794-4.43-.794-1.476-.264a11.006 11.006 0 0 0-3.026-.122Z" clip-rule="evenodd"/><path fill="#000" d="m409.278 74.202-4.429-.793-.53 2.953 2.189.392c.768.137 1.532.192 2.282.17l.488-2.722Z"/><path fill="#000" d="m413.707 74.996-4.429-.794-.488 2.721c1.707-.051 3.344-.5 4.8-1.272l.117-.655ZM395.99 71.821l-4.43-.794-.529 2.953 4.43.794.529-2.953ZM360.554 65.47l-4.429-.793-.008.046a10.978 10.978 0 0 0 3.981 3.293l.456-2.545ZM382.701 69.44l-4.429-.794-.529 2.953 4.429.794.529-2.953ZM400.419 72.615l-4.429-.794-.529 2.953 4.429.794.529-2.953ZM404.849 73.409l-4.43-.794-.529 2.953 4.429.794.53-2.953Z"/><path fill="#000" d="m387.131 70.233-4.43-.793-.529 2.953 4.43.793.529-2.953ZM391.56 71.027l-4.429-.794-.529 2.953 4.429.794.529-2.953ZM373.843 67.852l-4.43-.794-.529 2.953 4.429.794.53-2.953Z"/><path fill="#000" d="m369.413 67.058-4.429-.794-.53 2.953 4.43.794.529-2.953ZM364.984 66.264l-4.43-.793-.456 2.545c.891.434 1.856.753 2.88.937l1.476.264.53-2.953Z"/><path stroke="#000" stroke-width="1.5" d="m356.125 64.677.882-4.922m-.882 4.922 4.429.794m-4.429-.794-.008.046m.008-.046-.049-.009m.931-4.913.882-4.921m-.882 4.921 4.429.794m-4.429-.794-3.038-.544m3.92-4.377.882-4.922m-.882 4.922 4.429.793m-4.429-.793-3.267-.586m4.149-4.336 4.429.794m-4.429-.794.184-1.03m-.184 1.03-.97-.174m58.552 10.493-4.429-.793m4.429.793-.882 4.922m.882-4.922.294-1.639m-.294 1.64 1.682.3m-6.111-1.094-4.429-.794m4.429.794-.882 4.921m.882-4.921.664-3.706m-5.093 2.912-4.43-.794m4.43.794-.882 4.921m.882-4.921.705-3.938m-5.135 3.144-4.429-.794m4.429.794-.882 4.922m.882-4.922.706-3.937m-5.135 3.143-4.43-.794m4.43.794-.882 4.922m.882-4.922.705-3.937m-5.135 3.143-4.429-.793m4.429.793-.882 4.922m.882-4.922.706-3.937m-5.135 3.144-4.43-.794m4.43.794-.882 4.921m.882-4.921.705-3.938m-5.135 3.144-4.429-.794m4.429.794-.882 4.921m.882-4.921.706-3.938m-5.135 3.144-4.429-.794m4.429.794-.882 4.922m.882-4.922.706-3.937m-5.135 3.143-4.43-.794m4.43.794-.882 4.922m.882-4.922.705-3.937m-5.135 3.144-4.429-.794m4.429.794-.882 4.921m.882-4.922.706-3.937M367.63 51.5l-4.43-.794m4.43.794-.882 4.921m.882-4.921.705-3.938m-5.135 3.144-.882 4.921m.882-4.921.633-3.53m51.638 17.977-4.429-.794m4.429.794-.882 4.921m.882-4.921 3.979.713m-8.408-1.507-4.429-.794m4.429.794-.882 4.922m-3.547-5.716-4.43-.793m4.43.793-.882 4.922m-3.548-5.715-4.429-.794m4.429.794-.882 4.921m-3.547-5.715-4.43-.794m4.43.794-.882 4.921m-3.548-5.715-4.429-.794m4.429.794-.882 4.922m-3.547-5.716-4.43-.794m4.43.794-.882 4.922m-3.548-5.716-4.429-.793m4.429.793-.882 4.922m-3.547-5.715-4.429-.794m4.429.794-.882 4.921m-3.547-5.715-4.43-.794m4.43.794-.882 4.921m-3.548-5.715-4.429-.794m4.429.794-.882 4.922m-3.547-5.716-4.43-.794m4.43.794-.882 4.922m-3.548-5.716-.882 4.922m53.153 9.526-4.429-.794m4.429.793-.882 4.922m.882-4.921 3.75.671m-8.179-1.465-4.429-.794m4.429.794-.882 4.921m-3.547-5.715-4.43-.794m4.43.794-.882 4.922m-3.548-5.716-4.429-.794m4.429.794-.882 4.922m-3.547-5.716-4.43-.793m4.43.793-.882 4.922m-3.548-5.715-4.429-.794m4.429.794-.882 4.921m-3.547-5.715-4.43-.794m4.43.794-.882 4.921m-3.548-5.715-4.429-.794m4.429.794-.882 4.922m-3.547-5.716-4.429-.794m4.429.794-.882 4.922m-3.547-5.716-4.43-.793m4.43.793-.882 4.922m-3.548-5.715-4.429-.794m4.429.794-.882 4.921m-3.547-5.715-4.43-.794m4.43.794-.882 4.921m-3.548-5.715-.882 4.922m53.153 9.525-4.429-.794m4.429.794.761.136m-.761-.136-.117.655m-4.312-1.449-4.429-.793m4.429.793-.488 2.721m-3.941-3.514-4.43-.794m4.43.794-.53 2.953m-3.9-3.747-4.429-.794m4.429.794-.529 2.953m-3.9-3.747-4.43-.794m4.43.794-.529 2.953m-3.901-3.747-4.429-.794m4.429.794-.529 2.953m-3.9-3.747-4.43-.793m4.43.793-.529 2.953m-3.901-3.746-4.429-.794m4.429.794-.529 2.953m-3.9-3.747-4.429-.794m4.429.794-.529 2.953m-3.9-3.747-4.43-.794m4.43.794-.53 2.953m-3.9-3.747-4.429-.794m4.429.794-.529 2.953m-3.9-3.746-4.43-.794m4.43.793-.53 2.953m-3.9-3.746-.456 2.545m3.735-20.84c-1.763.174-3.43.772-4.878 1.706m4.878-1.706a11.006 11.006 0 0 1 3.026.122l1.476.264m-9.38 1.32c-.403.26-.788.546-1.154.856m10.534-2.176 4.43.794m0 0 4.429.794m4.43.794-4.43-.794m4.43.794 4.429.793m0 0 4.429.794m0 0 4.43.794m0 0 4.429.794m0 0 4.43.794m0 0 4.429.794m0 0 2.188.392a11.04 11.04 0 0 1 2.2.634m0 0a10.953 10.953 0 0 1 4.059 2.86m0 0a11.02 11.02 0 0 1 1.388 1.94m0 0a10.95 10.95 0 0 1 1.415 5.333m0 0a11.092 11.092 0 0 1-1.111 4.88m0 0a10.994 10.994 0 0 1-3.871 4.386m0 0c-.284.187-.577.36-.878.519m-9.271.71 2.189.393c.768.137 1.532.192 2.282.17m-4.471-.563-4.429-.793m8.9 1.355c1.707-.051 3.344-.5 4.8-1.272m-13.7-.083-4.429-.794m0 0-4.43-.794m0 0-4.429-.794m0 0-4.43-.793m0 0-4.429-.794m0 0-4.43-.794m0 0-4.429-.794m0 0-4.43-.794m0 0-1.476-.264a10.999 10.999 0 0 1-2.88-.937m-3.981-3.293a10.978 10.978 0 0 0 3.981 3.293m-3.981-3.293a1.814 1.814 0 0 1-.041-.055m.041.055-.041-.055m-2.107-5.457a11.002 11.002 0 0 0 2.107 5.457m-2.107-5.457a11.079 11.079 0 0 1 .653-4.963m0 0a10.958 10.958 0 0 1 3.179-4.51"/><path fill="#000" d="M274.216 296.462a11.221 11.221 0 0 0 3.125 7.474l.307.331c.703.758 1.849.9 2.716.336l.812-.528a.608.608 0 0 0 .206-.794l-1.102-2.076a.608.608 0 0 0-.843-.24l-.821.481a7.38 7.38 0 0 1-1.762-4.394l.924-.221a.608.608 0 0 0 .444-.756l-.638-2.263a.608.608 0 0 0-.697-.432l-.958.182a2.126 2.126 0 0 0-1.73 2.139l.017.76v.001Z"/><path stroke="#000" stroke-linecap="round" stroke-linejoin="round" stroke-width="2" d="m397.598 312.898 7.797 1.789-1.607 7.006m-30.092 10.309-7.798-1.789 1.607-7.005"/><path fill="#000" d="m249.635 345.461 2.418-1.017.874.217-2.033 8.151-1.164-.291 1.652-6.625-2.069.857.322-1.292Z"/><path fill="#000" fill-rule="evenodd" d="m249.38 345.243 2.649-1.114 1.261.314-2.177 8.733-1.747-.436 1.581-6.338-2.069.857.502-2.016Zm2.002.654-1.652 6.625 1.164.29 2.032-8.15-.873-.218-2.418 1.017-.322 1.293 2.069-.857Z" clip-rule="evenodd"/><path fill="#000" d="m318.578 375.567-.273 1.095-6.206-1.547.247-.99 4.222-1.903c.574-.253 1.017-.509 1.329-.769a1.75 1.75 0 0 0 .622-.958 1.206 1.206 0 0 0-.245-1.1c-.256-.328-.629-.553-1.118-.675-.512-.128-.982-.113-1.408.045-.418.151-.746.51-.986 1.077l-1.211-.302c.182-.532.471-.962.866-1.293.405-.336.867-.55 1.385-.644a3.745 3.745 0 0 1 1.618.058c.598.149 1.089.378 1.473.688.387.303.649.657.787 1.062.14.398.155.818.044 1.26a2.59 2.59 0 0 1-.558 1.098 3.86 3.86 0 0 1-1.018.81c-.403.229-.947.493-1.632.792l-2.456 1.07 4.518 1.126Z"/><path fill="#000" fill-rule="evenodd" d="m318.937 375.349-.418 1.677-6.788-1.693.355-1.421 4.357-1.965c.56-.246.976-.489 1.258-.725l.004-.003c.271-.219.441-.483.519-.797a.904.904 0 0 0-.188-.839l-.002-.003c-.207-.265-.516-.459-.955-.568-.463-.116-.87-.099-1.232.034l-.001.001c-.312.113-.592.392-.812.913l-.1.236-1.777-.443.106-.31a3.142 3.142 0 0 1 .958-1.426 3.259 3.259 0 0 1 1.523-.708 4.045 4.045 0 0 1 1.745.061c.629.157 1.162.402 1.587.745.424.332.724.731.883 1.198.161.458.176.937.052 1.431a2.888 2.888 0 0 1-.623 1.222 4.148 4.148 0 0 1-1.096.874c-.416.236-.971.505-1.66.807l-1.647.717 3.952.985Zm-4.881-.908 4.518 1.127-.273 1.094-6.206-1.547.247-.99 4.221-1.903c.575-.253 1.018-.509 1.33-.769.32-.258.527-.578.622-.958.101-.404.019-.77-.245-1.1-.256-.328-.629-.553-1.118-.675-.512-.127-.982-.112-1.409.045-.417.152-.745.511-.986 1.077l-1.21-.301a3.24 3.24 0 0 1 .11-.282c.181-.404.433-.741.756-1.011a2.952 2.952 0 0 1 1.385-.644 3.73 3.73 0 0 1 1.618.057c.598.149 1.089.379 1.473.689.387.302.649.656.787 1.062.14.397.155.817.044 1.26a2.581 2.581 0 0 1-.558 1.097 3.86 3.86 0 0 1-1.018.81c-.403.229-.948.493-1.632.793l-2.456 1.069Z" clip-rule="evenodd"/><path fill="#000" d="M399.118 377.152c.693.56.931 1.275.714 2.144-.125.505-.367.91-.724 1.217-.356.307-.793.503-1.309.589-.514.078-1.066.043-1.656-.104a3.582 3.582 0 0 1-1.409-.698 3.216 3.216 0 0 1-.921-1.218 3.029 3.029 0 0 1-.207-1.549l1.141.285c.039 1.131.614 1.835 1.724 2.112.598.149 1.091.14 1.479-.027.39-.175.638-.476.744-.903.089-.357.034-.68-.166-.969-.191-.295-.585-.517-1.182-.666l-.839-.209.244-.978.838.209c.466.116.855.077 1.168-.117.32-.192.525-.471.616-.836.103-.411.023-.769-.239-1.074-.253-.31-.666-.537-1.241-.68a1.978 1.978 0 0 0-1.286.1c-.413.169-.74.471-.98.906l-1.13-.282c.206-.493.504-.897.896-1.211a3.046 3.046 0 0 1 1.33-.621c.494-.099.99-.087 1.487.037.582.145 1.071.366 1.467.663.396.296.671.649.825 1.058.155.402.177.828.064 1.278-.094.38-.266.705-.514.973-.239.262-.55.452-.934.571Z"/><path fill="#000" fill-rule="evenodd" d="M394.625 374.128c.194-.369.449-.681.765-.934a3.046 3.046 0 0 1 1.33-.621c.495-.1.99-.087 1.487.037.582.145 1.071.366 1.467.662.396.297.671.65.825 1.059.155.402.177.828.065 1.278-.095.38-.267.704-.515.972a1.933 1.933 0 0 1-.616.449 2.257 2.257 0 0 1-.318.122c.092.075.176.151.252.231.496.522.651 1.16.463 1.914-.126.504-.368.91-.724 1.217-.357.307-.794.503-1.31.589-.514.077-1.066.043-1.656-.104a3.588 3.588 0 0 1-1.409-.698 3.217 3.217 0 0 1-.92-1.219 2.965 2.965 0 0 1-.23-1.244c.003-.1.01-.201.022-.304l1.141.285c.04 1.131.614 1.835 1.724 2.111.598.149 1.091.14 1.479-.027.39-.175.638-.475.744-.902.089-.357.034-.68-.166-.969-.19-.295-.584-.517-1.182-.666l-.838-.209.243-.978.839.209c.465.116.854.077 1.167-.117.32-.193.525-.471.616-.836.103-.411.023-.769-.239-1.074-.253-.31-.666-.537-1.24-.68a1.98 1.98 0 0 0-1.287.1c-.413.169-.74.471-.98.905l-1.129-.281c.039-.096.083-.188.13-.277Zm3.201 5.501a.974.974 0 0 0 .574-.701.84.84 0 0 0-.122-.726l-.005-.008c-.128-.197-.428-.394-1.003-.537l-1.129-.282.389-1.56 1.129.282c.412.102.712.058.936-.081l.004-.003c.251-.151.408-.362.48-.651.081-.323.019-.579-.175-.805l-.006-.006c-.196-.241-.54-.444-1.08-.579a1.675 1.675 0 0 0-1.096.085l-.004.001c-.343.141-.62.391-.831.774l-.112.201-1.691-.421.134-.323a3.3 3.3 0 0 1 .984-1.329c.43-.345.917-.573 1.459-.681a3.63 3.63 0 0 1 1.619.04c.613.152 1.14.388 1.574.713.435.326.749.723.925 1.192.179.464.202.953.076 1.457-.106.426-.3.796-.585 1.103-.174.192-.38.348-.615.47.201.229.351.482.443.76.14.421.142.876.023 1.355-.139.559-.411 1.021-.82 1.372a2.911 2.911 0 0 1-1.456.657l-.004.001c-.559.085-1.151.046-1.773-.109a3.887 3.887 0 0 1-1.526-.756l-.001-.001a3.507 3.507 0 0 1-1.005-1.331l-.002-.003a3.335 3.335 0 0 1-.229-1.699l.039-.34 1.692.422.008.226c.018.517.157.907.393 1.197.237.29.595.508 1.104.634.561.14.98.121 1.285-.01Z" clip-rule="evenodd"/><path fill="#000" d="m250.171 385.777-1.398-.348-.493 1.979-1.165-.29.494-1.979-4.366-1.089.302-1.211 5.02-4.017 1.747.436-1.263 5.065 1.397.348-.275 1.106Zm-2.286-1.745 1.059-4.249-4.296 3.442 3.237.807Z"/><path fill="#000" fill-rule="evenodd" d="m250.389 386.139-1.397-.348-.494 1.979-1.746-.435.493-1.979-4.366-1.089.399-1.6 5.216-4.173 2.181.544-1.262 5.065 1.397.348-.421 1.688Zm-1.34-1.818 1.263-5.065-1.747-.435-5.021 4.016-.302 1.211 4.367 1.089-.494 1.979 1.165.291.493-1.98 1.397.349.276-1.106-1.397-.349Zm-.105-4.54-4.296 3.443 3.237.807 1.059-4.25Zm-.506.79-3.13 2.508 2.358.588.772-3.096Z" clip-rule="evenodd"/><path fill="#000" d="M311.634 402.408c.947.236 1.612.678 1.994 1.326.383.648.468 1.399.255 2.253-.138.551-.387 1.004-.747 1.359a2.683 2.683 0 0 1-1.327.708c-.514.111-1.074.091-1.679-.06-.52-.13-.977-.35-1.369-.663a3.244 3.244 0 0 1-.879-1.134 3.014 3.014 0 0 1-.266-1.414l1.153.287c.056.501.225.914.507 1.24.289.327.682.553 1.179.677.574.143 1.064.096 1.47-.141.413-.235.689-.632.828-1.191.136-.543.072-1.016-.19-1.42-.254-.401-.68-.676-1.278-.825a2.268 2.268 0 0 0-1.004-.041c-.31.055-.578.17-.803.344l-1.246-.31 1.688-4.242 4.972 1.24-.267 1.071-4.122-1.028-.88 2.242a2.76 2.76 0 0 1 .98-.312c.377-.055.72-.043 1.031.034Z"/><path fill="#000" fill-rule="evenodd" d="m311.874 408.347-.002.001c-.566.122-1.173.098-1.815-.062a3.858 3.858 0 0 1-1.482-.719l-.005-.004a3.534 3.534 0 0 1-.96-1.239l-.002-.003a3.316 3.316 0 0 1-.292-1.553l.019-.364 1.708.426.024.207c.051.45.2.803.435 1.076.242.274.578.472 1.026.583.519.13.924.08 1.245-.108l.003-.002c.327-.186.562-.505.686-1.003.119-.477.059-.862-.15-1.184l-.002-.003c-.202-.319-.552-.559-1.097-.695a1.985 1.985 0 0 0-.873-.037l-.007.001a1.484 1.484 0 0 0-.671.286l-.115.089-1.721-.429 1.913-4.804 5.517 1.376-.412 1.653-4.158-1.037-.533 1.358c.132-.035.268-.061.409-.08.407-.059.79-.048 1.144.04 1.001.25 1.746.729 2.181 1.465.429.727.515 1.561.287 2.478-.149.597-.423 1.102-.828 1.5a2.973 2.973 0 0 1-1.472.787Zm-1.86-5.835c.183-.064.38-.11.589-.138.377-.054.72-.043 1.031.035.947.236 1.612.678 1.994 1.325.383.648.468 1.399.255 2.253-.138.551-.387 1.004-.747 1.36a2.683 2.683 0 0 1-1.327.708c-.514.111-1.074.091-1.679-.06a3.56 3.56 0 0 1-1.369-.663 3.238 3.238 0 0 1-.879-1.135 2.987 2.987 0 0 1-.266-1.414l1.153.287c.056.501.225.914.507 1.24.289.328.682.554 1.179.677.574.144 1.064.097 1.47-.14.413-.235.689-.632.828-1.191.136-.544.073-1.017-.19-1.42-.254-.402-.68-.677-1.278-.826a2.282 2.282 0 0 0-1.004-.04c-.31.054-.578.169-.803.344l-1.246-.311 1.688-4.241 4.972 1.239-.267 1.071-4.122-1.027-.88 2.241a2.51 2.51 0 0 1 .391-.174Z" clip-rule="evenodd"/><path fill="#000" d="M391.062 410.627a3.64 3.64 0 0 1 1.476.727c.409.341.696.746.859 1.216.171.471.192.967.062 1.487a2.835 2.835 0 0 1-.779 1.389 2.86 2.86 0 0 1-1.379.719 3.672 3.672 0 0 1-1.682-.048c-.715-.178-1.28-.505-1.698-.98-.415-.483-.677-1.071-.784-1.766-.097-.7-.044-1.462.162-2.285.211-.846.526-1.55.947-2.113.43-.569.937-.962 1.519-1.18.582-.218 1.206-.243 1.874-.077.753.188 1.351.551 1.793 1.09a2.99 2.99 0 0 1 .718 1.836l-1.246-.31c-.092-.427-.26-.762-.504-1.004-.237-.24-.585-.418-1.043-.532a2.067 2.067 0 0 0-1.277.065c-.4.148-.749.423-1.048.827-.29.406-.509.92-.656 1.543a2.113 2.113 0 0 1 1.163-.65c.48-.103.987-.088 1.523.046Zm-1.211 4.41c.613.153 1.142.116 1.586-.112.446-.235.737-.624.872-1.167.122-.489.041-.926-.242-1.31-.282-.392-.718-.661-1.308-.808-.597-.149-1.117-.114-1.559.106-.435.221-.716.588-.844 1.1a1.73 1.73 0 0 0 .018.92c.099.297.273.559.522.786.256.228.574.39.955.485Z"/><path fill="#000" fill-rule="evenodd" d="M392.903 410.332c-.091-.427-.259-.761-.504-1.004-.237-.24-.584-.417-1.042-.532a2.078 2.078 0 0 0-1.278.065c-.399.148-.748.424-1.047.827a3.87 3.87 0 0 0-.503 1.007 5.845 5.845 0 0 0-.154.536 2.08 2.08 0 0 1 .407-.345c.223-.144.475-.246.757-.304a3.34 3.34 0 0 1 1.522.045 3.64 3.64 0 0 1 1.476.727c.41.341.696.747.86 1.216.171.471.191.967.062 1.487a2.843 2.843 0 0 1-.779 1.389 2.87 2.87 0 0 1-1.379.72 3.691 3.691 0 0 1-1.683-.049c-.714-.178-1.28-.504-1.697-.979-.416-.483-.677-1.072-.784-1.767-.098-.7-.044-1.462.161-2.284.211-.847.527-1.551.948-2.114.43-.569.936-.962 1.518-1.18.582-.217 1.207-.243 1.875-.077.753.188 1.35.552 1.793 1.091a3.003 3.003 0 0 1 .717 1.836l-1.246-.311Zm-3.426-.044a3.63 3.63 0 0 1 1.657.048 3.95 3.95 0 0 1 1.595.787c.448.373.768.823.95 1.347a2.79 2.79 0 0 1 .071 1.66 3.144 3.144 0 0 1-.862 1.532l-.002.001c-.42.399-.929.664-1.52.795l-.002.001a3.967 3.967 0 0 1-1.818-.051c-.764-.19-1.386-.544-1.85-1.072l-.003-.003c-.455-.53-.738-1.172-.853-1.916v-.004c-.104-.745-.045-1.546.167-2.399.219-.876.549-1.619.999-2.221l.001-.001c.459-.607 1.01-1.039 1.652-1.28.645-.241 1.332-.266 2.052-.087.808.202 1.464.597 1.952 1.191.491.59.756 1.264.786 2.015l.016.4-1.816-.453-.039-.183c-.082-.385-.228-.662-.422-.854l-.002-.002c-.186-.189-.477-.346-.902-.451a1.769 1.769 0 0 0-1.096.053l-.005.002c-.335.124-.639.358-.908.722a3.226 3.226 0 0 0-.333.594c.167-.075.346-.132.535-.171Zm2.346 2.336c-.23-.321-.597-.558-1.136-.693-.546-.136-.989-.097-1.353.083-.349.179-.578.47-.687.905-.064.258-.059.508.013.757.082.243.225.46.437.653.214.192.487.333.826.417.561.14 1.012.099 1.375-.087.361-.19.603-.503.72-.973.102-.408.034-.752-.193-1.059l-.002-.003Zm-.386 2.302c-.445.227-.973.264-1.587.111a2.193 2.193 0 0 1-.954-.485 1.843 1.843 0 0 1-.522-.786 1.726 1.726 0 0 1-.018-.919c.128-.513.409-.879.843-1.101.443-.219.963-.255 1.56-.106.59.147 1.026.417 1.308.809.283.384.364.82.242 1.309-.136.543-.426.933-.872 1.168Z" clip-rule="evenodd"/><path fill="#000" d="m248.3 412.503-.279 1.118-5.898 5.999-1.234-.307 5.98-6.029-5.007-1.248.267-1.071 6.171 1.538Z"/><path fill="#000" fill-rule="evenodd" d="m248.663 412.285-.371 1.489-6.076 6.179-1.912-.476 5.98-6.029-4.786-1.193.412-1.653 6.753 1.683Zm-1.795 1-5.98 6.028 1.235.308 5.898-5.999.279-1.118-6.171-1.539-.267 1.071 5.006 1.249Z" clip-rule="evenodd"/><path fill="#000" d="M306.355 436.335c.371.298.624.638.76 1.018.138.372.156.764.054 1.176a2.07 2.07 0 0 1-.719 1.144c-.351.283-.786.459-1.306.527-.52.069-1.087.026-1.7-.127-.613-.152-1.133-.381-1.56-.685-.427-.305-.733-.665-.918-1.083a2.1 2.1 0 0 1-.085-1.344 1.95 1.95 0 0 1 .599-1.013c.299-.272.682-.453 1.149-.542a2.136 2.136 0 0 1-.6-1.016 2.353 2.353 0 0 1 .005-1.161c.112-.45.331-.816.657-1.098a2.436 2.436 0 0 1 1.237-.545c.489-.076 1.024-.041 1.606.104.583.145 1.072.366 1.468.663.396.296.67.649.824 1.059.163.403.189.83.076 1.28a2.342 2.342 0 0 1-.54 1.028 2.15 2.15 0 0 1-1.007.615Zm-1.062-3.679c-.558-.139-1.032-.125-1.42.042-.38.169-.624.471-.733.906-.11.442-.038.831.216 1.167.265.329.676.564 1.235.703.559.14 1.028.125 1.409-.044.389-.175.639-.484.75-.926.108-.435.03-.817-.234-1.147-.256-.328-.664-.561-1.223-.701Zm-1.599 6.416c.621.155 1.139.16 1.554.017.415-.144.674-.422.777-.833a1.23 1.23 0 0 0-.278-1.17c-.293-.345-.75-.595-1.371-.75-.621-.155-1.142-.149-1.563.018-.419.16-.683.461-.794.903-.102.411-.004.778.295 1.1.299.322.759.56 1.38.715Z"/><path fill="#000" fill-rule="evenodd" d="M300.689 438.421a2.4 2.4 0 0 1-.099-1.532c.116-.466.345-.857.689-1.164.233-.212.507-.372.816-.484a2.346 2.346 0 0 1-.357-.777 2.653 2.653 0 0 1 .005-1.307c.126-.506.375-.927.752-1.252l.001-.001c.383-.328.848-.53 1.385-.614.536-.083 1.113-.043 1.726.109.613.153 1.14.389 1.574.714.435.325.748.722.924 1.19.188.465.215.956.088 1.462-.11.442-.313.829-.609 1.157a2.361 2.361 0 0 1-.68.518c.221.244.387.514.493.811.16.432.178.885.062 1.351a2.36 2.36 0 0 1-.821 1.305c-.4.323-.89.517-1.455.591-.564.074-1.169.027-1.812-.133-.642-.16-1.198-.403-1.662-.733-.464-.331-.808-.731-1.017-1.205l-.003-.006Zm5.761 1.252c.361-.289.6-.671.718-1.144a1.95 1.95 0 0 0-.053-1.176 2.174 2.174 0 0 0-.504-.787 3.046 3.046 0 0 0-.256-.231c.113-.033.221-.073.323-.119.266-.121.494-.287.684-.496.261-.289.442-.632.54-1.027a2.03 2.03 0 0 0-.076-1.281c-.154-.409-.429-.762-.825-1.059-.396-.297-.885-.517-1.467-.663-.582-.145-1.118-.179-1.606-.103-.489.076-.902.257-1.237.545a2.065 2.065 0 0 0-.657 1.097 2.345 2.345 0 0 0-.005 1.162c.069.273.192.526.371.758.068.089.145.174.229.257-.117.022-.228.05-.335.084a2.17 2.17 0 0 0-.814.458 1.947 1.947 0 0 0-.599 1.013c-.118.474-.09.922.085 1.345.185.417.49.778.918 1.082.427.304.947.533 1.56.686.613.153 1.18.195 1.7.127s.955-.244 1.306-.528Zm-.17-6.131c-.202-.258-.541-.465-1.059-.594-.518-.129-.919-.107-1.228.025-.287.129-.474.351-.562.704-.09.361-.031.654.162.91.21.261.554.468 1.07.597.519.129.915.105 1.214-.028.299-.134.492-.365.581-.725.088-.35.025-.634-.176-.886l-.002-.003Zm-.281 1.888c-.38.169-.849.184-1.408.045-.559-.14-.971-.374-1.235-.704-.254-.335-.326-.724-.216-1.167.108-.435.353-.736.733-.905.388-.168.861-.181 1.42-.042.559.139.967.373 1.223.701.264.329.342.711.234 1.146-.111.443-.361.751-.751.926Zm-.481 1.85c-.238-.281-.63-.507-1.215-.653-.584-.145-1.036-.13-1.379.007l-.004.001c-.326.124-.523.346-.61.695-.077.309-.01.572.223.823.246.264.644.482 1.233.628.589.147 1.043.142 1.384.024.323-.112.506-.313.583-.621.087-.35.017-.638-.212-.9l-.003-.004Zm-.27 1.809c-.415.144-.933.138-1.554-.017-.621-.154-1.081-.393-1.38-.715-.299-.322-.398-.688-.295-1.1.11-.442.375-.743.794-.902.421-.167.942-.174 1.563-.019s1.078.405 1.371.75c.295.338.388.728.277 1.17-.102.411-.361.689-.776.833Z" clip-rule="evenodd"/><path fill="#000" d="M296.676 471.131c-.698-.174-1.269-.498-1.712-.971-.44-.481-.726-1.071-.856-1.772-.129-.708-.089-1.481.12-2.319.209-.839.536-1.536.98-2.094.446-.564.975-.952 1.588-1.162.615-.218 1.272-.239 1.971-.065.698.174 1.268.502 1.709.983.442.473.728 1.063.856 1.771.131.701.091 1.47-.118 2.308-.209.839-.536 1.54-.982 2.105-.444.557-.973.945-1.588 1.163-.613.21-1.269.227-1.968.053Zm.27-1.083c.722.18 1.358.046 1.906-.402.557-.447.956-1.156 1.198-2.126s.222-1.783-.06-2.439c-.274-.653-.772-1.07-1.493-1.25-.722-.18-1.362-.047-1.918.4-.549.448-.944 1.158-1.186 2.128-.242.97-.226 1.782.048 2.436.282.656.783 1.073 1.505 1.253Z"/><path fill="#000" fill-rule="evenodd" d="M293.812 468.444v-.002c-.137-.757-.092-1.574.125-2.446.217-.871.56-1.61 1.036-2.207.477-.604 1.052-1.028 1.724-1.259.676-.239 1.393-.26 2.142-.073.749.187 1.372.542 1.856 1.07.486.52.795 1.164.932 1.922.14.75.096 1.563-.122 2.434-.217.872-.561 1.614-1.038 2.219l-.001.001c-.475.597-1.05 1.02-1.722 1.258l-.003.001c-.674.231-1.389.247-2.138.061-.748-.187-1.371-.537-1.858-1.057l-.002-.003c-.482-.526-.791-1.169-.931-1.919Zm7.52-2.941c-.128-.708-.414-1.299-.857-1.772-.44-.481-1.01-.809-1.709-.983-.698-.174-1.355-.152-1.97.066-.613.209-1.143.597-1.588 1.162-.444.557-.771 1.255-.98 2.093-.209.838-.249 1.612-.121 2.32.131.7.416 1.291.857 1.772.443.473 1.013.796 1.712.971.699.174 1.354.156 1.967-.054.615-.218 1.145-.605 1.589-1.162.446-.565.773-1.267.982-2.105.209-.838.249-1.608.118-2.308Zm-2.668 3.909c.489-.392.863-1.032 1.095-1.964.232-.932.203-1.673-.045-2.248l-.001-.002c-.235-.562-.654-.917-1.289-1.076-.635-.158-1.177-.042-1.657.342-.481.394-.851 1.036-1.083 1.968-.233.932-.207 1.672.033 2.246.243.565.667.921 1.302 1.08.635.158 1.172.041 1.643-.344l.002-.002Zm-3.223-.617c-.274-.653-.29-1.465-.049-2.436.242-.97.638-1.679 1.187-2.128.556-.447 1.195-.58 1.917-.4.722.18 1.22.597 1.494 1.251.282.655.302 1.468.06 2.439-.242.97-.641 1.678-1.198 2.125-.549.448-1.184.583-1.906.403-.722-.18-1.224-.598-1.505-1.254Z" clip-rule="evenodd"/><path fill="#000" d="M386.304 439.632c.714.179 1.279.509 1.694.992.418.475.675 1.063.773 1.763.107.695.058 1.453-.147 2.276-.211.846-.532 1.554-.962 2.122-.421.563-.922.954-1.504 1.171-.582.218-1.207.244-1.874.077-.753-.187-1.355-.552-1.806-1.093a3.017 3.017 0 0 1-.705-1.833l1.246.311c.091.426.255.76.492 1 .245.243.596.421 1.054.535.45.113.875.095 1.275-.053.402-.155.748-.436 1.038-.842.299-.403.522-.917.669-1.54a2.163 2.163 0 0 1-1.178.659c-.47.097-.972.079-1.508-.055a3.651 3.651 0 0 1-1.476-.726 2.82 2.82 0 0 1-.871-1.219 2.55 2.55 0 0 1-.05-1.484c.139-.559.398-1.018.776-1.378.38-.366.836-.607 1.367-.722a3.648 3.648 0 0 1 1.697.039Zm-1.141 4.477c.598.149 1.114.113 1.548-.108.443-.22.728-.586.855-1.098.078-.31.067-.614-.032-.911a1.713 1.713 0 0 0-.519-.797 2.136 2.136 0 0 0-.943-.483c-.613-.152-1.143-.111-1.589.124-.444.227-.734.612-.87 1.156-.122.489-.042.929.24 1.321.283.384.72.649 1.31.796Z"/><path fill="#000" fill-rule="evenodd" d="M383.019 445.418c.091.427.255.76.492 1.001.245.242.596.421 1.054.535.45.112.875.094 1.275-.053.401-.156.747-.437 1.038-.842.208-.281.379-.616.514-1.003.058-.169.11-.348.155-.537a2.102 2.102 0 0 1-.408.346c-.225.146-.482.25-.771.312-.469.098-.972.079-1.507-.054a3.64 3.64 0 0 1-1.476-.727c-.41-.341-.7-.747-.871-1.219a2.55 2.55 0 0 1-.051-1.484c.14-.559.398-1.018.777-1.377.38-.367.835-.608 1.367-.723a3.662 3.662 0 0 1 1.697.04c.714.178 1.279.508 1.694.991.418.475.675 1.063.773 1.763.107.695.058 1.454-.147 2.277-.211.846-.532 1.553-.962 2.122-.421.563-.922.953-1.504 1.171-.582.217-1.207.243-1.875.077-.753-.188-1.354-.552-1.805-1.094a3.013 3.013 0 0 1-.705-1.833l1.246.311Zm6.048-3.074c.114.741.06 1.539-.152 2.392-.219.877-.554 1.623-1.014 2.23-.45.603-.996 1.031-1.638 1.272-.645.241-1.332.266-2.052.087-.808-.202-1.468-.598-1.963-1.193l-.002-.001a3.312 3.312 0 0 1-.773-2.012l-.016-.4 1.816.453.039.183c.083.386.226.663.412.852.194.192.49.35.914.456a1.83 1.83 0 0 0 1.096-.043c.338-.131.639-.371.9-.736l.003-.004c.126-.17.239-.365.338-.586-.17.076-.351.135-.543.176l-.003.001c-.52.108-1.068.086-1.641-.057a3.95 3.95 0 0 1-1.595-.787 3.12 3.12 0 0 1-.961-1.347l-.002-.004a2.857 2.857 0 0 1-.058-1.656 3.069 3.069 0 0 1 2.371-2.32 3.957 3.957 0 0 1 1.833.042c.764.19 1.387.549 1.849 1.085.459.524.738 1.167.842 1.917Zm-2.489 1.388c.357-.177.589-.467.697-.901a1.297 1.297 0 0 0-.026-.744l-.003-.009a1.408 1.408 0 0 0-.431-.659l-.002-.002a1.844 1.844 0 0 0-.814-.413c-.56-.14-1.011-.095-1.377.097l-.003.002c-.357.183-.597.491-.715.962-.101.407-.036.755.191 1.072.232.313.6.547 1.14.682.547.136.985.096 1.34-.085l.003-.002Zm-2.725-.419c-.282-.392-.362-.832-.24-1.321.136-.543.425-.929.87-1.156.446-.235.975-.276 1.589-.123.38.095.694.255.943.482.256.229.429.495.518.797.1.297.11.601.033.911-.128.513-.413.879-.855 1.098-.434.222-.951.258-1.548.109-.59-.147-1.027-.413-1.31-.797Z" clip-rule="evenodd"/><path fill="#000" d="m381.145 476.493-.889 1.88 1.583.395-.247.99-1.781-.444-.942 1.991-1.025-.255.942-1.992-1.793-.447-.942 1.992-1.024-.256.941-1.991-1.583-.395.247-.99 1.781.444.89-1.88-1.584-.395.247-.99 1.781.444.942-1.991 1.025.255-.942 1.992 1.793.447.942-1.991 1.024.255-.941 1.991 1.583.395-.247.99-1.781-.444Zm-1.025-.256-1.793-.447-.889 1.881 1.793.447.889-1.881Z"/><path fill="#000" fill-rule="evenodd" d="m378.776 474.85 1.793.447.941-1.991 1.025.255-.942 1.992 1.584.395-.247.989-1.781-.444-.89 1.881 1.584.395-.247.989-1.781-.444-.942 1.991-1.025-.255.942-1.991-1.793-.447-.942 1.991-1.025-.256.942-1.991-1.583-.395.246-.989 1.782.444.889-1.881-1.583-.395.246-.989 1.782.444.942-1.992 1.024.256-.941 1.991Zm-1.191-.606.942-1.991 1.618.403-.942 1.992 1.2.299.941-1.992 1.619.404-.942 1.991 1.519.379-.391 1.572-1.834-.457-.628 1.327 1.519.379-.392 1.572-1.833-.457-.942 1.991-1.618-.403.941-1.992-1.199-.299-.942 1.991-1.618-.403.941-1.991-1.519-.379.392-1.572 1.834.457.628-1.327-1.52-.379.392-1.572 1.834.457Zm.912 1.897-.628 1.328 1.2.299.627-1.328-1.199-.299Zm-.166-.35-.89 1.88 1.794.447.889-1.88-1.793-.447Z" clip-rule="evenodd"/><path fill="#000" d="m238.866 448.715.932 2.308-1.22.499-.933-2.308-1.907 1.6-.843-1.013 1.906-1.6-2.12-1.312.713-1.135 2.098 1.326.602-2.415 1.29.322-.602 2.415 2.475-.186.097 1.336-2.488.163Z"/><path fill="#000" fill-rule="evenodd" d="m238.868 448.715.932 2.308-1.221.498-.932-2.308-1.907 1.6-.844-1.013 1.907-1.6-2.121-1.312.714-1.134 2.097 1.326.603-2.415 1.29.321-.602 2.415 2.474-.185.098 1.336-2.488.163Zm.177-1.534 2.398-.18.127 1.737-2.413.158.903 2.237-1.591.649-.904-2.239-1.85 1.553-1.1-1.321 1.848-1.551-2.057-1.272.927-1.474 2.033 1.285.584-2.341 1.679.419-.584 2.34Z" clip-rule="evenodd"/><path fill="#000" d="M259.222 388.962a1.822 1.822 0 0 1-.433.855 1.618 1.618 0 0 1-.843.479c.234.127.393.277.475.448.088.172.11.357.067.555a.988.988 0 0 1-.512.69c-.269.154-.583.192-.942.113l-1.04-.228c-.354-.078-.624-.239-.811-.482a.95.95 0 0 1-.181-.818c.091-.416.395-.655.911-.717a1.509 1.509 0 0 1-.558-.778 1.887 1.887 0 0 1-.04-.975c.075-.339.226-.628.453-.867.234-.244.517-.413.849-.51a2.06 2.06 0 0 1 1.03-.027c.5.109.882.395 1.147.858l.118-.54.703.155-.393 1.789Zm-2.228.821c.234.052.457.044.669-.025.212-.068.39-.184.535-.349a1.26 1.26 0 0 0 .304-.597 1.21 1.21 0 0 0-.029-.653 1.142 1.142 0 0 0-.343-.526 1.31 1.31 0 0 0-.599-.295 1.2 1.2 0 0 0-.942.153c-.274.175-.449.437-.525.786-.078.354-.031.673.142.956.177.285.44.468.788.55Zm.107 1.711a.65.65 0 0 0 .444-.042.41.41 0 0 0 .244-.29.454.454 0 0 0-.087-.388.645.645 0 0 0-.391-.233l-.922-.203a.649.649 0 0 0-.453.048.455.455 0 0 0-.241.316.415.415 0 0 0 .092.364.686.686 0 0 0 .392.226l.922.202ZM262.66 387.768c.328.072.608.205.839.397.235.194.399.446.489.755.092.304.094.654.007 1.05l-.476 2.164-.742-.163.472-2.149c.076-.343.034-.639-.124-.887a1.067 1.067 0 0 0-.699-.473 1.063 1.063 0 0 0-.607.039 1.19 1.19 0 0 0-.504.356 1.308 1.308 0 0 0-.271.563l-.455 2.071-.742-.164 1.21-5.508.703.154-.466 2.126c.191-.149.408-.255.65-.316a1.55 1.55 0 0 1 .716-.015ZM266.293 388.648l-.858 3.907-.743-.163.859-3.907.742.163Zm.39-1.552-.189.859-.828-.182.189-.859.828.182ZM322.273 403.027l-.189.86-.828-.182.189-.86.828.182Zm-.39 1.553-.9 4.094c-.178.813-.682 1.128-1.51.946a1.685 1.685 0 0 1-.5-.183l.149-.68c.124.06.279.11.467.151.197.044.345.03.443-.041.103-.071.172-.189.209-.356l.899-4.094.743.163ZM323.952 407.229l-.649.382-.289 1.313-.742-.163 1.21-5.509.742.163-.733 3.337 2.202-1.335.985.216-2.058 1.203 1.363 2.74-.992-.218-1.039-2.129ZM328.245 405.978l-.859 3.906-.742-.163.858-3.907.743.164Zm.39-1.553-.189.86-.828-.182.189-.86.828.182ZM329.614 374.181l-.859 3.907-.742-.163.129-.586a1.83 1.83 0 0 1-.694.363 1.668 1.668 0 0 1-.773.011 1.816 1.816 0 0 1-.881-.464 1.913 1.913 0 0 1-.504-.873 2.266 2.266 0 0 1-.012-1.1 2.26 2.26 0 0 1 .472-.994 1.85 1.85 0 0 1 .822-.573c.32-.115.652-.135.996-.06.271.06.51.178.717.355.207.176.369.395.486.655l.139-.633.704.155Zm-2.663 2.871a1.201 1.201 0 0 0 1.205-.415c.15-.185.253-.405.31-.661a1.516 1.516 0 0 0-.006-.722 1.182 1.182 0 0 0-.918-.889 1.153 1.153 0 0 0-.655.036 1.198 1.198 0 0 0-.536.39c-.149.18-.252.398-.308.653-.056.255-.055.499.004.73.059.226.168.416.325.571.157.155.35.257.579.307ZM332.946 374.831a1.854 1.854 0 0 1 1.385 1.336c.094.343.098.71.012 1.101-.086.39-.243.722-.472.993a1.908 1.908 0 0 1-.824.581 1.8 1.8 0 0 1-.994.052 1.653 1.653 0 0 1-.697-.333 1.816 1.816 0 0 1-.478-.621l-.128.586-.743-.163 1.21-5.509.704.155-.491 2.234c.216-.187.455-.318.716-.391.262-.074.529-.081.8-.021Zm-.867 3.348a1.171 1.171 0 0 0 1.189-.419 1.56 1.56 0 0 0 .309-.661 1.503 1.503 0 0 0-.005-.722 1.201 1.201 0 0 0-.323-.578 1.156 1.156 0 0 0-.58-.308 1.198 1.198 0 0 0-1.206.423c-.149.18-.252.398-.308.653-.056.255-.055.499.004.73a1.194 1.194 0 0 0 .92.882ZM334.93 377.397c.083-.376.249-.697.499-.964.25-.272.554-.462.911-.57a2.134 2.134 0 0 1 1.115-.041 1.95 1.95 0 0 1 1.08.638c.294.327.451.705.471 1.136l-.812-.179a1.06 1.06 0 0 0-.322-.586 1.185 1.185 0 0 0-.607-.33 1.25 1.25 0 0 0-.696.035 1.227 1.227 0 0 0-.56.385 1.445 1.445 0 0 0-.313.644c-.055.25-.051.491.013.723.065.228.18.422.347.584.167.157.373.263.618.317.24.052.469.04.688-.038.226-.081.406-.216.54-.405l.813.178a1.813 1.813 0 0 1-.906.841 1.974 1.974 0 0 1-1.247.12 2.185 2.185 0 0 1-.996-.498 2.079 2.079 0 0 1-.589-.899 2.057 2.057 0 0 1-.047-1.091ZM371.853 411.382c.314.061.581.184.8.368.225.185.381.43.468.735.094.301.102.65.024 1.048l-.423 2.175-.746-.145.42-2.16c.068-.345.022-.64-.137-.882a.993.993 0 0 0-.679-.45 1 1 0 0 0-.852.192 1.276 1.276 0 0 0-.464.79l-.408 2.097-.746-.146.42-2.159c.067-.346.022-.64-.138-.883a.991.991 0 0 0-.678-.45 1.006 1.006 0 0 0-.853.193 1.276 1.276 0 0 0-.463.79l-.409 2.096-.746-.145.765-3.926.707.138-.121.62c.183-.187.397-.322.641-.405.25-.082.5-.098.752-.049.308.06.573.182.792.366.226.18.381.414.467.702.198-.211.44-.362.724-.454.29-.095.584-.114.883-.056ZM376.679 412.322c.319.062.591.186.816.371.23.186.391.432.484.738.099.302.109.651.032 1.049l-.424 2.175-.746-.145.421-2.159c.067-.346.019-.641-.146-.884a1.066 1.066 0 0 0-.71-.457 1.099 1.099 0 0 0-1.105.405 1.367 1.367 0 0 0-.25.57l-.408 2.097-.746-.145.764-3.927.707.138-.122.628c.188-.186.407-.32.657-.402.255-.086.514-.103.776-.052ZM380.486 417.302a2.192 2.192 0 0 1-1.008-.474 2.07 2.07 0 0 1-.61-.885 2.062 2.062 0 0 1-.073-1.09c.073-.377.232-.702.475-.975.245-.278.544-.476.898-.591a2.134 2.134 0 0 1 1.113-.069c.383.075.713.234.991.478.285.241.488.536.61.885.123.345.148.706.075 1.083a2.07 2.07 0 0 1-.477.983c-.243.273-.542.47-.898.591a2.121 2.121 0 0 1-1.096.064Zm.135-.691c.241.046.472.032.693-.045.222-.081.411-.213.566-.395.156-.187.258-.406.307-.657.049-.252.036-.49-.039-.717a1.267 1.267 0 0 0-.377-.579 1.27 1.27 0 0 0-.624-.309 1.337 1.337 0 0 0-.711.049 1.27 1.27 0 0 0-.566.395 1.385 1.385 0 0 0-.305.65 1.43 1.43 0 0 0 .038.725c.075.226.201.419.376.578.182.155.396.257.642.305ZM377.757 376.46l-1.034 5.545-.747-.14.11-.59c-.202.18-.43.308-.683.386a1.66 1.66 0 0 1-.771.035 1.81 1.81 0 0 1-.896-.436 1.916 1.916 0 0 1-.532-.856 2.283 2.283 0 0 1-.047-1.099c.074-.393.22-.729.441-1.008a1.85 1.85 0 0 1 .803-.599c.316-.126.648-.156.994-.091.272.05.515.161.727.331.213.169.382.383.508.64l.419-2.25.708.132Zm-2.87 4.567a1.204 1.204 0 0 0 1.191-.453c.144-.19.24-.413.288-.67a1.531 1.531 0 0 0-.028-.722 1.199 1.199 0 0 0-.35-.57 1.205 1.205 0 0 0-.597-.29 1.163 1.163 0 0 0-1.177.464 1.522 1.522 0 0 0-.286.663c-.048.257-.039.5.027.729.066.224.181.411.343.561.162.149.358.245.589.288ZM380.39 378.538c.404.076.739.228 1.006.457.272.229.459.519.562.869.104.345.116.73.037 1.155-.021.11-.039.191-.054.242l-3.224-.601c-.004.313.09.592.284.834.2.238.454.386.763.443.509.095.905-.023 1.19-.356l.771.144a1.819 1.819 0 0 1-.869.774 2.045 2.045 0 0 1-1.221.13 2.12 2.12 0 0 1-.989-.453 1.934 1.934 0 0 1-.587-.866 2.172 2.172 0 0 1-.063-1.102c.072-.388.224-.721.454-.998a1.89 1.89 0 0 1 .852-.598c.343-.12.706-.145 1.088-.074Zm-.139.658a1.208 1.208 0 0 0-.856.142 1.264 1.264 0 0 0-.548.67l2.414.451a1.1 1.1 0 0 0-.245-.827 1.235 1.235 0 0 0-.765-.436ZM385.021 378.507c-.215-.04-.375-.024-.481.049-.1.073-.166.194-.198.362l-.079.424 1.101.206-.132.707-1.101-.205-.601 3.224-.748-.139.602-3.224-.786-.147.132-.708.786.147.079-.425c.075-.403.242-.687.501-.85.259-.169.604-.213 1.034-.133.209.039.386.096.529.172l-.128.684a2.53 2.53 0 0 0-.51-.144ZM253.141 419.775c.344.076.637.233.879.472.244.234.412.522.506.865.094.343.098.709.013 1.1a2.272 2.272 0 0 1-.473.994 1.914 1.914 0 0 1-.823.581c-.319.11-.651.127-.995.052a1.669 1.669 0 0 1-1.174-.955l-.421 1.915-.742-.163 1.15-5.236.703.155-.139.633c.216-.188.455-.318.717-.392.262-.073.528-.08.799-.021Zm-.867 3.348c.23.051.448.039.655-.036.208-.074.386-.202.535-.382.15-.186.253-.406.309-.661a1.529 1.529 0 0 0-.005-.722 1.21 1.21 0 0 0-.324-.579 1.155 1.155 0 0 0-.579-.307 1.202 1.202 0 0 0-.663.034 1.196 1.196 0 0 0-.544.388 1.52 1.52 0 0 0-.307.654c-.056.255-.055.498.003.729a1.205 1.205 0 0 0 .92.882ZM259.462 421.246l-1.151 5.235-.742-.163.421-1.914a1.816 1.816 0 0 1-.694.363 1.668 1.668 0 0 1-.773.011 1.808 1.808 0 0 1-.881-.464 1.913 1.913 0 0 1-.504-.873 2.266 2.266 0 0 1-.012-1.1 2.26 2.26 0 0 1 .472-.994 1.85 1.85 0 0 1 1.818-.632c.271.059.51.177.717.354.207.176.369.395.486.655l.139-.633.704.155Zm-2.663 2.872a1.21 1.21 0 0 0 1.206-.415c.149-.186.252-.406.309-.662a1.516 1.516 0 0 0-.006-.722 1.182 1.182 0 0 0-.918-.889 1.153 1.153 0 0 0-.655.036 1.213 1.213 0 0 0-.536.39c-.149.18-.252.398-.308.653-.056.256-.055.499.004.73.059.226.168.416.325.571.157.155.35.257.579.308ZM262.723 421.881c.125.027.241.061.347.1l-.16.727a2.298 2.298 0 0 0-.438-.129 1.214 1.214 0 0 0-.644.022 1.164 1.164 0 0 0-.765.872l-.465 2.118-.743-.163.859-3.907.703.154-.132.602a1.6 1.6 0 0 1 .663-.37c.256-.075.515-.084.775-.026ZM264.105 426.443c-.489-.107-.878-.313-1.167-.616a1.376 1.376 0 0 1-.365-1.096l.742.163a.859.859 0 0 0 .266.582c.164.146.398.252.7.318.281.062.517.067.709.016.192-.056.304-.156.337-.302a.407.407 0 0 0-.105-.384c-.095-.113-.296-.231-.602-.353l-.428-.176c-.901-.373-1.287-.853-1.158-1.442.076-.344.288-.587.636-.729.349-.147.768-.167 1.258-.059.442.097.797.284 1.064.561.268.272.403.6.407.982l-.79-.173a.686.686 0 0 0-.28-.438 1.318 1.318 0 0 0-.557-.262c-.271-.059-.496-.065-.676-.017-.173.043-.275.136-.306.276-.028.125.009.243.111.352.102.105.282.207.538.307l.436.178c.512.205.855.433 1.029.685.176.246.228.53.157.853-.076.344-.29.589-.645.735-.348.142-.785.155-1.311.039ZM314.88 438.317l-.453 2.063c-.036.167-.025.303.033.409.064.107.195.182.393.225.188.042.35.061.487.058l-.149.68a1.68 1.68 0 0 1-.532-.043c-.828-.182-1.153-.679-.974-1.492l.453-2.063-.781-.171.154-.704.782.172.223-1.016.742.163-.223 1.016 1.094.241-.155.703-1.094-.241ZM320.583 438.833l-.859 3.907-.703-.155.137-.625a1.703 1.703 0 0 1-.675.392 1.503 1.503 0 0 1-.768.028c-.318-.07-.59-.2-.815-.392a1.538 1.538 0 0 1-.468-.741c-.085-.309-.084-.661.003-1.056l.475-2.165.742.163-.472 2.149c-.075.344-.034.64.125.887.158.248.391.406.699.473.224.05.43.04.62-.027.196-.072.358-.189.487-.352.134-.162.224-.349.271-.563l.458-2.086.743.163ZM325.463 439.905l-2.538 3.538-.969-.213-.822-4.276.828.182.655 3.469 2.041-2.877.805.177ZM365.65 444.793l-1.757 3.794-.919-.128-.557-3.188-1.439 2.91-.896-.125-.644-4.128.816.113.413 3.24 1.472-2.977.832.116.589 3.256 1.281-2.996.809.113ZM368.592 449.241l-.94-1.657-1.366 1.336-.911-.127 1.865-1.792-1.25-2.161.935.13.888 1.57 1.259-1.271.935.131-1.781 1.714 1.301 2.257-.935-.13ZM374.682 446.051l-3.061 4.985-.816-.114.823-1.331-1.391-4.159.895.124 1.004 3.29 1.714-2.911.832.116ZM378.049 449.831l-.099.713-3.463-.482.099-.713 2.849-2.188-2.424-.338.099-.713 3.352.467-.099.713-2.842 2.189 2.528.352ZM252.418 457.377l-2.003-.44-.44 2.002-.879-.194.44-2.002-2.002-.44.194-.879 2.002.44.44-2.002.879.194-.44 2.002 2.002.44-.193.879Z"/><path stroke="#000" d="M260.437 357.842c1.266.392 2.624-.359 3.033-1.678.408-1.318-.287-2.706-1.553-3.098-1.266-.392-2.623.359-3.032 1.677-.409 1.319.286 2.706 1.552 3.099Zm0 0 6.877 2.131m0 0c1.266.393 2.624-.358 3.033-1.677.409-1.319-.286-2.706-1.552-3.098-1.266-.393-2.624.358-3.033 1.677-.409 1.319.286 2.706 1.552 3.098ZM356.035 478.057l4.484-1.907m0 0 2.905 3.911m-2.905-3.911 2.06 2.773-.723 2.664-5.238-1.42.722-2.665 3.179-1.352ZM318.922 473.41l-.286 1.823-9.113-1.428.286-1.823"/><defs><linearGradient id="a" x1="289.027" x2="454.674" y1="125.998" y2="158.279" gradientUnits="userSpaceOnUse"><stop stop-color="#D6FFBB"/><stop offset="1" stop-color="#5869DD"/></linearGradient><linearGradient id="d" x1="550.148" x2="248.148" y1="295.357" y2="252.357" gradientUnits="userSpaceOnUse"><stop stop-color="#D6FFBB"/><stop offset="1" stop-color="#5869DD"/></linearGradient><linearGradient id="e" x1="437.148" x2="263.148" y1="276.357" y2="314.357" gradientUnits="userSpaceOnUse"><stop stop-color="#D6FFBB"/><stop offset="1" stop-color="#5869DD"/></linearGradient><linearGradient id="f" x1="193.008" x2="494.335" y1="265.788" y2="265.788" gradientUnits="userSpaceOnUse"><stop stop-color="#D6FFBB"/><stop offset="1" stop-color="#5869DD"/></linearGradient><linearGradient id="g" x1="225.148" x2="357.148" y1="16.357" y2="297.357" gradientUnits="userSpaceOnUse"><stop stop-color="#D6FFBB"/><stop offset="1" stop-color="#5869DD"/></linearGradient><linearGradient id="h" x1="193.008" x2="494.335" y1="265.788" y2="265.788" gradientUnits="userSpaceOnUse"><stop stop-color="#D6FFBB"/><stop offset="1" stop-color="#5869DD"/></linearGradient><linearGradient id="i" x1="193.008" x2="494.335" y1="265.788" y2="265.788" gradientUnits="userSpaceOnUse"><stop stop-color="#D6FFBB"/><stop offset="1" stop-color="#5869DD"/></linearGradient><linearGradient id="j" x1="399.81" x2="391.67" y1="476.43" y2="498.557" gradientUnits="userSpaceOnUse"><stop stop-color="#D6FFBB"/><stop offset="1" stop-color="#5869DD"/></linearGradient><linearGradient id="k" x1="404.81" x2="396.67" y1="443.43" y2="465.557" gradientUnits="userSpaceOnUse"><stop stop-color="#D6FFBB"/><stop offset="1" stop-color="#5869DD"/></linearGradient><linearGradient id="l" x1="411.74" x2="403.479" y1="410.43" y2="432.453" gradientUnits="userSpaceOnUse"><stop stop-color="#D6FFBB"/><stop offset="1" stop-color="#5869DD"/></linearGradient><linearGradient id="m" x1="418.81" x2="410.67" y1="377.43" y2="399.557" gradientUnits="userSpaceOnUse"><stop stop-color="#D6FFBB"/><stop offset="1" stop-color="#5869DD"/></linearGradient><linearGradient id="n" x1="194.405" x2="202.365" y1="429.736" y2="416.089" gradientUnits="userSpaceOnUse"><stop stop-color="#5869DD"/><stop offset="1" stop-color="#D6FFBB"/></linearGradient><linearGradient id="o" x1="200.174" x2="208.134" y1="396.476" y2="382.829" gradientUnits="userSpaceOnUse"><stop stop-color="#5869DD"/><stop offset="1" stop-color="#D6FFBB"/></linearGradient><linearGradient id="p" x1="204.596" x2="212.603" y1="363.716" y2="350.111" gradientUnits="userSpaceOnUse"><stop stop-color="#5869DD"/><stop offset="1" stop-color="#D6FFBB"/></linearGradient><linearGradient id="q" x1="207.928" x2="215.888" y1="330.273" y2="316.626" gradientUnits="userSpaceOnUse"><stop stop-color="#5869DD"/><stop offset="1" stop-color="#D6FFBB"/></linearGradient><linearGradient id="r" x1="403.603" x2="401.679" y1="366.03" y2="391.824" gradientUnits="userSpaceOnUse"><stop stop-color="#D6FFBB"/><stop offset="1" stop-color="#5869DD"/></linearGradient><linearGradient id="s" x1="397.701" x2="395.777" y1="396.62" y2="422.414" gradientUnits="userSpaceOnUse"><stop stop-color="#D6FFBB"/><stop offset="1" stop-color="#5869DD"/></linearGradient><linearGradient id="t" x1="391.701" x2="389.777" y1="429.21" y2="455.004" gradientUnits="userSpaceOnUse"><stop stop-color="#D6FFBB"/><stop offset="1" stop-color="#5869DD"/></linearGradient><linearGradient id="u" x1="385.701" x2="383.777" y1="460.801" y2="486.596" gradientUnits="userSpaceOnUse"><stop stop-color="#D6FFBB"/><stop offset="1" stop-color="#5869DD"/></linearGradient></defs></svg>
