<svg xmlns="http://www.w3.org/2000/svg" width="216" height="160" fill="none" viewBox="0 0 216 160"><path fill="#F1EFED" d="M24.17 0h195.407v124.407H24.17z" style="mix-blend-mode:luminosity" transform="rotate(11.203 24.17 0)"/><g clip-path="url(#a)"><path fill="#000" d="m132.334 110.032-2.764-.559-.556 2.744 2.764.56.556-2.745Z"/><path fill="#000" d="m129.571 109.474-2.764-.56-.556 2.744 2.764.56.556-2.744Zm-2.764-.561-2.764-.559-.556 2.744 2.764.56.556-2.745Z"/><path fill="#000" d="m124.043 108.355-2.764-.56-.556 2.744 2.764.56.556-2.744Zm-2.764-.561-2.764-.56-.556 2.745 2.764.559.556-2.744Zm-2.764-.56-2.764-.56-.556 2.744 2.764.56.556-2.744Z"/><path fill="#000" d="m115.751 106.675-2.764-.56-.556 2.745 2.764.559.556-2.744Z"/><path fill="#000" d="m112.988 106.115-2.764-.56-.556 2.744 2.764.56.556-2.744Zm-2.765-.561-2.764-.56-.555 2.744 2.763.56.556-2.744Z"/><path fill="#000" d="m107.46 104.995-2.764-.559-.556 2.744 2.764.56.556-2.745Zm-2.764-.56-2.764-.56-.556 2.744 2.764.56.556-2.744Zm-2.765-.559-2.763-.56-.556 2.745 2.763.56.556-2.745Z"/><path fill="#000" d="m99.168 103.316-2.764-.56-.556 2.744 2.764.56.556-2.744Zm-2.764-.561-2.764-.56-.556 2.745 2.764.559.556-2.744Z"/><path fill="#000" d="m93.64 102.197-2.764-.56-.556 2.744 2.764.56.556-2.744Zm-2.764-.561-2.764-.56-.555 2.744 2.763.56.556-2.744Zm-2.764-.561-2.763-.559-.556 2.744 2.764.56.555-2.745Z"/><path fill="#000" d="m85.348 100.517-2.763-.56-.556 2.744 2.764.56.555-2.744Z"/><path fill="#000" d="m82.585 99.956-2.764-.56-.556 2.745 2.764.56.556-2.745Z"/><path fill="#000" d="m79.821 99.398-2.764-.56-.556 2.744 2.764.56.556-2.744Zm-2.764-.561-2.764-.56-.556 2.745 2.764.559.556-2.744Zm-2.764-.56-2.764-.56-.556 2.744 2.764.56.556-2.744Z"/><path fill="#000" d="m71.529 97.718-2.764-.56-.556 2.745 2.764.559.556-2.744Z"/><path fill="#000" d="m68.765 97.157-2.764-.56-.555 2.745 2.764.56.555-2.745Zm-2.764-.56-2.764-.56-.556 2.744 2.764.56.556-2.744Zm66.889 10.691-2.764-.559-.555 2.744 2.763.56.556-2.745Z"/><path fill="#8F8E93" d="m130.127 106.728-2.764-.56-.556 2.744 2.764.56.556-2.744Z"/><path fill="#8F8E93" d="m127.363 106.169-2.764-.56-.556 2.745 2.764.559.556-2.744Zm-2.764-.56-2.764-.56-.556 2.744 2.764.56.556-2.744Z"/><path fill="#8F8E93" d="m121.835 105.05-2.764-.56-.556 2.745 2.764.559.556-2.744Zm-2.764-.56-2.764-.56-.556 2.744 2.764.56.556-2.744Zm-2.764-.561-2.764-.56-.555 2.744 2.763.56.556-2.744Z"/><path fill="#8F8E93" d="m113.543 103.37-2.764-.559-.556 2.744 2.764.56.556-2.745Z"/><path fill="#8F8E93" d="m110.779 102.81-2.763-.56-.556 2.744 2.764.56.555-2.744Z"/><path fill="#8F8E93" d="m108.016 102.249-2.764-.56-.556 2.745 2.764.56.556-2.745Z"/><path fill="#8F8E93" d="m105.252 101.691-2.764-.56-.556 2.744 2.764.56.556-2.744Zm-2.764-.561-2.764-.56-.556 2.745 2.764.559.556-2.744Zm-2.764-.56-2.764-.56-.556 2.744 2.764.56.556-2.744Z"/><path fill="#8F8E93" d="m96.96 100.011-2.764-.56-.556 2.744 2.764.56.556-2.744Z"/><path fill="#8F8E93" d="m94.196 99.45-2.764-.56-.556 2.745 2.764.56.556-2.745Z"/><path fill="#8F8E93" d="m91.432 98.892-2.764-.56-.555 2.744 2.763.56.556-2.744Z"/><path fill="#8F8E93" d="m88.669 98.331-2.764-.56-.556 2.745 2.764.56.556-2.745Zm-2.765-.561-2.763-.56-.556 2.745 2.764.56.555-2.744Z"/><path fill="#8F8E93" d="m83.14 97.212-2.764-.56-.555 2.745 2.764.56.555-2.745Z"/><path fill="#8F8E93" d="m80.377 96.652-2.764-.56-.556 2.744 2.764.56.556-2.744Zm-2.764-.561-2.764-.56-.556 2.744 2.764.56.556-2.744Z"/><path fill="#8F8E93" d="m74.849 95.532-2.764-.56-.556 2.745 2.764.56.556-2.745Zm-2.764-.56-2.764-.56-.556 2.744 2.764.56.556-2.744Z"/><path fill="#8F8E93" d="m69.322 94.413-2.764-.56-.556 2.745 2.764.56.555-2.745Z"/><path fill="#000" d="m66.557 93.853-2.764-.56-.555 2.744 2.763.56.556-2.744Zm66.889 10.691-2.764-.56-.556 2.745 2.764.559.556-2.744Z"/><path fill="#8F8E93" d="m130.682 103.986-2.764-.56-.555 2.744 2.763.56.556-2.744Z"/><path fill="#8F8E93" d="m127.919 103.425-2.764-.56-.556 2.745 2.764.559.556-2.744Zm-2.765-.56-2.763-.56-.556 2.744 2.764.56.555-2.744Z"/><path fill="#8F8E93" d="m122.391 102.306-2.764-.56-.556 2.744 2.764.56.556-2.744Zm-2.764-.561-2.764-.559-.556 2.744 2.764.56.556-2.745Zm-2.764-.56-2.764-.56-.556 2.744 2.764.56.556-2.744Z"/><path fill="#8F8E93" d="m114.099 100.626-2.764-.56-.556 2.745 2.764.56.556-2.745Zm-2.764-.56-2.764-.56-.556 2.744 2.764.56.556-2.744Z"/><path fill="#8F8E93" d="m108.571 99.507-2.763-.56-.556 2.745 2.764.559.555-2.744Zm-2.764-.56-2.764-.56-.555 2.744 2.763.56.556-2.745Z"/><path fill="#8F8E93" d="m103.044 98.386-2.764-.56-.556 2.744 2.764.56.556-2.744Z"/><path fill="#8F8E93" d="m100.28 97.827-2.764-.56-.556 2.745 2.764.56.556-2.745Zm-2.764-.56-2.764-.56-.556 2.744 2.764.56.556-2.744Zm-2.764-.561-2.764-.56-.556 2.745 2.764.56.556-2.745Z"/><path fill="#8F8E93" d="m91.988 96.148-2.764-.56-.556 2.744 2.764.56.556-2.744Z"/><path fill="#8F8E93" d="m89.224 95.587-2.764-.56-.555 2.745 2.763.56.556-2.745Z"/><path fill="#8F8E93" d="m86.46 95.029-2.763-.56-.556 2.744 2.764.56.556-2.744Z"/><path fill="#8F8E93" d="m83.697 94.468-2.764-.56-.556 2.745 2.764.56.555-2.745Zm-2.764-.561-2.764-.56-.556 2.745 2.764.56.556-2.745Z"/><path fill="#8F8E93" d="m78.169 93.349-2.764-.56-.556 2.744 2.764.56.556-2.744Zm-2.764-.561-2.764-.56-.556 2.745 2.764.56.556-2.745Zm-2.765-.56-2.763-.56-.556 2.744 2.764.56.556-2.744Z"/><path fill="#8F8E93" d="m69.877 91.67-2.764-.56-.556 2.744 2.764.56.556-2.745Z"/><path fill="#000" d="m67.113 91.109-2.764-.56-.556 2.744 2.764.56.556-2.744Zm66.889 10.691-2.764-.56-.556 2.745 2.764.559.556-2.744Z"/><path fill="#8F8E93" d="m131.238 101.241-2.764-.559-.556 2.744 2.764.56.556-2.745Zm-2.764-.56-2.764-.56-.555 2.744 2.763.56.556-2.744Z"/><path fill="#8F8E93" d="m125.71 100.122-2.764-.56-.556 2.745 2.764.56.556-2.745Z"/><path fill="#8F8E93" d="m122.946 99.562-2.763-.56-.556 2.744 2.764.56.555-2.744Zm-2.764-.561-2.764-.56-.555 2.745 2.763.56.556-2.745Z"/><path fill="#8F8E93" d="m117.419 98.443-2.764-.56-.556 2.744 2.764.56.556-2.744Zm-2.764-.561-2.764-.56-.556 2.745 2.764.559.556-2.744Zm-2.764-.56-2.764-.56-.556 2.744 2.764.56.556-2.745Z"/><path fill="#8F8E93" d="m109.127 96.763-2.764-.56-.556 2.744 2.764.56.556-2.744Z"/><path fill="#8F8E93" d="m106.363 96.202-2.763-.56-.556 2.745 2.764.56.555-2.745Zm-2.764-.56-2.764-.56-.555 2.744 2.763.56.556-2.744Z"/><path fill="#8F8E93" d="m100.836 95.083-2.764-.56-.556 2.745 2.764.56.556-2.745Zm-2.764-.56-2.764-.56-.556 2.744 2.764.56.555-2.744Zm-2.765-.559-2.764-.56-.555 2.745 2.763.56.556-2.745Z"/><path fill="#8F8E93" d="m92.544 93.404-2.764-.56-.556 2.744 2.764.56.556-2.744Z"/><path fill="#8F8E93" d="m89.78 92.843-2.764-.56-.556 2.745 2.764.56.556-2.745Z"/><path fill="#8F8E93" d="m87.016 92.284-2.764-.56-.555 2.745 2.763.56.556-2.745Zm-2.764-.56-2.764-.56-.556 2.744 2.764.56.556-2.744Z"/><path fill="#8F8E93" d="m81.489 91.163-2.764-.56-.556 2.745 2.764.56.555-2.745Zm-2.765-.558-2.764-.56-.555 2.744 2.763.56.556-2.744Z"/><path fill="#8F8E93" d="m75.96 90.044-2.763-.56-.556 2.745 2.764.56.556-2.745Z"/><path fill="#8F8E93" d="m73.197 89.486-2.764-.56-.556 2.744 2.764.56.555-2.744Zm-2.764-.561-2.764-.56-.556 2.745 2.764.56.556-2.745Z"/><path fill="#000" d="m67.669 88.365-2.764-.56-.556 2.744 2.764.56.556-2.744Zm66.889 10.691-2.764-.56-.556 2.744 2.764.56.556-2.744Z"/><path fill="#8F8E93" d="m131.794 98.495-2.764-.56-.556 2.745 2.764.56.556-2.745Z"/><path fill="#8F8E93" d="m129.03 97.937-2.764-.56-.556 2.744 2.764.56.556-2.744Z"/><path fill="#8F8E93" d="m126.266 97.376-2.764-.56-.555 2.745 2.763.56.556-2.745Z"/><path fill="#8F8E93" d="m123.503 96.816-2.764-.56-.556 2.744 2.764.56.556-2.744Z"/><path fill="#8F8E93" d="m120.738 96.257-2.763-.56-.556 2.745 2.764.56.555-2.745Zm-2.763-.56-2.764-.56-.556 2.744 2.764.56.556-2.745Z"/><path fill="#8F8E93" d="m115.211 95.138-2.764-.56-.556 2.744 2.764.56.556-2.744Zm-2.764-.561-2.764-.56-.556 2.745 2.764.56.556-2.745Zm-2.764-.56-2.764-.56-.555 2.744 2.763.56.556-2.744Z"/><path fill="#8F8E93" d="m106.919 93.458-2.764-.56-.556 2.745 2.764.56.556-2.745Z"/><path fill="#8F8E93" d="m104.155 92.898-2.763-.56-.556 2.744 2.764.56.555-2.744Zm-2.764-.561-2.764-.56-.555 2.745 2.763.56.556-2.745Z"/><path fill="#8F8E93" d="m98.628 91.779-2.764-.56-.556 2.744 2.764.56.556-2.744Z"/><path fill="#8F8E93" d="m95.864 91.218-2.764-.56-.556 2.745 2.764.56.555-2.745Zm-2.764-.561-2.764-.56-.556 2.745 2.764.56.556-2.745Z"/><path fill="#8F8E93" d="m90.336 90.099-2.764-.56-.556 2.744 2.764.56.556-2.744Z"/><path fill="#8F8E93" d="m87.573 89.538-2.764-.56-.556 2.745 2.764.56.556-2.745Zm-2.765-.558-2.764-.56-.556 2.744 2.764.56.556-2.744Z"/><path fill="#8F8E93" d="m82.045 88.42-2.764-.56-.556 2.744 2.764.56.556-2.745Zm-2.765-.561-2.763-.56-.556 2.744 2.764.56.556-2.744Zm-2.764-.559-2.764-.56-.555 2.745 2.763.56.556-2.745Z"/><path fill="#8F8E93" d="m73.753 86.74-2.764-.56-.556 2.744 2.764.56.556-2.744Zm-2.764-.561-2.764-.56-.556 2.744 2.764.56.556-2.744Z"/><path fill="#000" d="m68.225 85.62-2.764-.56-.556 2.745 2.764.56.556-2.745Zm66.888 10.692-2.763-.56-.556 2.744 2.764.56.555-2.744Z"/><path fill="#8F8E93" d="m132.35 95.753-2.764-.56-.556 2.745 2.764.56.556-2.745Z"/><path fill="#8F8E93" d="m129.586 95.193-2.764-.56-.556 2.744 2.764.56.556-2.744Zm-2.764-.561-2.764-.56-.556 2.745 2.764.56.556-2.745Z"/><path fill="#8F8E93" d="m124.058 94.073-2.764-.56-.555 2.745 2.763.56.556-2.745Zm-2.764-.56-2.764-.56-.556 2.744 2.764.56.556-2.744Z"/><path fill="#8F8E93" d="m118.53 92.952-2.763-.56-.556 2.745 2.764.56.555-2.745Z"/><path fill="#8F8E93" d="m115.767 92.394-2.764-.56-.556 2.744 2.764.56.556-2.744Zm-2.764-.561-2.764-.56-.556 2.745 2.764.56.556-2.745Zm-2.764-.56-2.764-.56-.556 2.744 2.764.56.556-2.744Z"/><path fill="#8F8E93" d="m107.475 90.714-2.764-.56-.556 2.745 2.764.56.556-2.745Zm-2.764-.56-2.764-.56-.556 2.744 2.764.56.556-2.744Z"/><path fill="#8F8E93" d="m101.947 89.595-2.763-.56-.556 2.744 2.764.56.555-2.744Zm-2.764-.561-2.764-.56-.555 2.745 2.763.56.556-2.745Z"/><path fill="#8F8E93" d="m96.42 88.474-2.765-.56-.556 2.744 2.764.56.556-2.744Z"/><path fill="#8F8E93" d="m93.656 87.915-2.764-.56-.556 2.745 2.764.56.556-2.745Zm-2.764-.56-2.764-.56-.556 2.744 2.764.56.556-2.744Zm-2.764-.561-2.764-.56-.556 2.745 2.764.56.556-2.745Z"/><path fill="#8F8E93" d="m85.364 86.236-2.764-.56-.556 2.744 2.764.56.556-2.744Zm-2.764-.561-2.764-.56-.555 2.745 2.763.56.556-2.745Z"/><path fill="#8F8E93" d="m79.836 85.117-2.764-.56-.556 2.744 2.764.56.556-2.745Z"/><path fill="#8F8E93" d="m77.073 84.556-2.764-.56-.556 2.744 2.764.56.556-2.744Zm-2.765-.561-2.764-.56-.555 2.745 2.763.56.556-2.745Z"/><path fill="#8F8E93" d="m71.545 83.437-2.764-.56-.556 2.744 2.764.56.556-2.744Z"/><path fill="#000" d="m68.78 82.876-2.763-.56-.556 2.745 2.764.56.556-2.745Zm66.89 10.692-2.764-.56-.556 2.744 2.764.56.556-2.744Z"/><path fill="#8F8E93" d="m132.906 93.007-2.764-.56-.556 2.745 2.764.56.556-2.745Zm-2.764-.56-2.764-.56-.556 2.744 2.764.56.556-2.745Z"/><path fill="#8F8E93" d="m127.378 91.888-2.764-.56-.556 2.744 2.764.56.556-2.744Zm-2.764-.561-2.764-.56-.556 2.745 2.764.56.556-2.745Z"/><path fill="#8F8E93" d="m121.85 90.769-2.764-.56-.555 2.744 2.763.56.556-2.744Z"/><path fill="#8F8E93" d="m119.087 90.208-2.764-.56-.556 2.745 2.764.56.556-2.745Zm-2.765-.56-2.763-.56-.556 2.744 2.764.56.555-2.744Z"/><path fill="#8F8E93" d="m113.559 89.09-2.764-.56-.556 2.744 2.764.56.556-2.745Zm-2.764-.561-2.764-.56-.556 2.744 2.764.56.556-2.744Z"/><path fill="#8F8E93" d="m108.031 87.968-2.764-.56-.556 2.745 2.764.56.556-2.745Z"/><path fill="#8F8E93" d="m105.267 87.41-2.764-.56-.555 2.744 2.763.56.556-2.745Zm-2.764-.561-2.764-.56-.556 2.744 2.764.56.556-2.744Z"/><path fill="#8F8E93" d="m99.74 86.29-2.764-.56-.556 2.745 2.764.56.556-2.745Zm-2.765-.56-2.764-.56-.555 2.744 2.763.56.556-2.744Z"/><path fill="#8F8E93" d="m94.212 85.17-2.764-.56-.556 2.744 2.764.56.556-2.745Z"/><path fill="#8F8E93" d="m91.448 84.61-2.764-.56-.556 2.745 2.764.56.556-2.744Z"/><path fill="#8F8E93" d="m88.684 84.05-2.764-.56-.556 2.745 2.764.56.556-2.745Zm-2.764-.56-2.764-.56-.556 2.744 2.764.56.556-2.744Z"/><path fill="#8F8E93" d="m83.156 82.93-2.763-.559-.556 2.744 2.764.56.555-2.744Zm-2.764-.56-2.764-.56-.555 2.745 2.763.56.556-2.745Zm-2.764-.56-2.764-.56-.556 2.744 2.764.56.556-2.744Z"/><path fill="#8F8E93" d="m74.865 81.251-2.764-.56-.556 2.745 2.764.56.556-2.745ZM72.1 80.69l-2.763-.56-.556 2.745 2.764.56.556-2.744Z"/><path fill="#000" d="m69.337 80.132-2.764-.56-.556 2.745 2.764.56.556-2.745Zm66.888 10.691-2.764-.56-.555 2.745 2.763.56.556-2.745Z"/><path fill="#8F8E93" d="m133.462 90.263-2.764-.56-.556 2.744 2.764.56.556-2.744Z"/><path fill="#8F8E93" d="m130.698 89.704-2.764-.56-.556 2.745 2.764.56.556-2.745Zm-2.764-.56-2.764-.56-.556 2.744 2.764.56.556-2.744Zm-2.764-.561-2.764-.56-.556 2.745 2.764.56.556-2.745Z"/><path fill="#8F8E93" d="m122.406 88.025-2.764-.56-.556 2.744 2.764.56.556-2.744Zm-2.764-.561-2.764-.56-.555 2.745 2.763.56.556-2.745Zm-2.764-.56-2.764-.56-.556 2.744 2.764.56.556-2.744Z"/><path fill="#8F8E93" d="m114.114 86.345-2.763-.56-.556 2.744 2.764.56.555-2.744Z"/><path fill="#8F8E93" d="m111.351 85.784-2.764-.56-.556 2.745 2.764.56.556-2.745Z"/><path fill="#8F8E93" d="m108.587 85.226-2.764-.56-.556 2.744 2.764.56.556-2.744Zm-2.764-.561-2.764-.56-.556 2.745 2.764.56.556-2.745Zm-2.764-.56-2.764-.56-.555 2.744 2.763.56.556-2.744Z"/><path fill="#8F8E93" d="m100.295 83.546-2.764-.56-.556 2.745 2.764.56.556-2.745Zm-2.764-.56-2.764-.56-.556 2.744 2.764.56.556-2.744Zm-2.764-.561-2.764-.56-.555 2.745 2.763.56.556-2.745Z"/><path fill="#8F8E93" d="m92.004 81.867-2.764-.56-.556 2.744 2.764.56.556-2.745Zm-2.764-.561-2.764-.56-.556 2.744 2.764.56.556-2.744Z"/><path fill="#8F8E93" d="m86.476 80.747-2.764-.56-.556 2.745 2.764.56.556-2.745Zm-2.764-.56-2.764-.56-.556 2.744 2.764.56.556-2.744Zm-2.764-.561-2.764-.56-.556 2.745 2.764.56.556-2.745Z"/><path fill="#8F8E93" d="m78.184 79.068-2.764-.56-.555 2.744 2.763.56.556-2.744Zm-2.764-.561-2.764-.56-.556 2.745 2.764.56.556-2.745Z"/><path fill="#8F8E93" d="m72.656 77.947-2.763-.56-.556 2.744 2.764.56.555-2.745Z"/><path fill="#000" d="m69.892 77.388-2.764-.56-.555 2.744 2.763.56.556-2.744Zm66.889 10.692-2.764-.56-.556 2.744 2.764.56.556-2.745Z"/><path fill="#8F8E93" d="m134.017 87.519-2.764-.56-.555 2.744 2.763.56.556-2.744Z"/><path fill="#8F8E93" d="m131.254 86.96-2.764-.56-.556 2.745 2.764.56.556-2.745Zm-2.765-.56-2.763-.56-.556 2.744 2.764.56.555-2.744Z"/><path fill="#8F8E93" d="m125.726 85.841-2.764-.56-.556 2.744 2.764.56.556-2.744Z"/><path fill="#8F8E93" d="m122.962 85.28-2.764-.56-.556 2.745 2.764.56.556-2.745Zm-2.764-.56-2.764-.56-.556 2.744 2.764.56.556-2.744Z"/><path fill="#8F8E93" d="m117.434 84.161-2.764-.56-.555 2.745 2.763.56.556-2.745Zm-2.764-.561-2.764-.559-.556 2.744 2.764.56.556-2.744Z"/><path fill="#8F8E93" d="m111.906 83.04-2.763-.56-.556 2.745 2.764.56.555-2.745Zm-2.764-.558-2.764-.56-.555 2.744 2.763.56.556-2.744Z"/><path fill="#8F8E93" d="m106.379 81.921-2.764-.56-.556 2.745 2.764.56.556-2.745Z"/><path fill="#8F8E93" d="m103.615 81.363-2.764-.56-.556 2.744 2.764.56.556-2.744Z"/><path fill="#8F8E93" d="m100.851 80.802-2.764-.56-.556 2.745 2.764.56.556-2.745Zm-2.764-.56-2.764-.56-.556 2.744 2.764.56.556-2.745Z"/><path fill="#8F8E93" d="m95.323 79.683-2.764-.56-.556 2.744 2.764.56.556-2.744Z"/><path fill="#8F8E93" d="m92.56 79.122-2.765-.56-.555 2.745 2.763.56.556-2.745Z"/><path fill="#8F8E93" d="m89.796 78.562-2.764-.56-.556 2.744 2.764.56.556-2.744Z"/><path fill="#8F8E93" d="m87.031 78.003-2.763-.56-.556 2.745 2.764.56.555-2.745Zm-2.763-.56-2.764-.56-.556 2.744 2.764.56.556-2.744Z"/><path fill="#8F8E93" d="m81.504 76.882-2.764-.56-.556 2.745 2.764.56.556-2.745Z"/><path fill="#8F8E93" d="m78.74 76.323-2.764-.56-.556 2.745 2.764.56.556-2.745Z"/><path fill="#8F8E93" d="m75.976 75.763-2.764-.56-.556 2.744 2.764.56.556-2.744Z"/><path fill="#8F8E93" d="m73.212 75.204-2.764-.56-.556 2.745 2.764.56.556-2.745Z"/><path fill="#000" d="m70.448 74.644-2.764-.56-.556 2.744 2.764.56.556-2.744Zm66.889 10.691-2.764-.56-.556 2.745 2.764.56.556-2.745Z"/><path fill="#8F8E93" d="m134.573 84.777-2.764-.56-.556 2.744 2.764.56.556-2.744Zm-2.764-.561-2.764-.56-.555 2.744 2.763.56.556-2.744Z"/><path fill="#8F8E93" d="m129.045 83.656-2.764-.56-.556 2.744 2.764.56.556-2.745Z"/><path fill="#8F8E93" d="m126.281 83.097-2.763-.56-.556 2.744 2.764.56.555-2.744Z"/><path fill="#8F8E93" d="m123.518 82.536-2.764-.56-.556 2.745 2.764.56.556-2.745Zm-2.764-.56-2.764-.56-.556 2.744 2.764.56.556-2.744Z"/><path fill="#8F8E93" d="m117.99 81.417-2.764-.56-.556 2.745 2.764.56.556-2.745Zm-2.764-.56-2.764-.56-.556 2.744 2.764.56.556-2.744Z"/><path fill="#8F8E93" d="m112.462 80.298-2.764-.56-.556 2.745 2.764.56.556-2.745Z"/><path fill="#8F8E93" d="m109.698 79.738-2.763-.56-.556 2.744 2.764.56.555-2.744Zm-2.764-.561-2.764-.56-.555 2.745 2.763.56.556-2.745Z"/><path fill="#8F8E93" d="m104.171 78.618-2.764-.56-.556 2.745 2.764.56.556-2.745Zm-2.764-.56-2.764-.56-.556 2.744 2.764.56.556-2.744Zm-2.765-.561-2.764-.56-.555 2.745 2.763.56.556-2.745Z"/><path fill="#8F8E93" d="m95.879 76.939-2.764-.56-.556 2.744 2.764.56.556-2.744Zm-2.764-.561-2.764-.56-.556 2.745 2.764.56.556-2.745Z"/><path fill="#8F8E93" d="m90.351 75.82-2.764-.56-.556 2.744 2.764.56.556-2.744Z"/><path fill="#8F8E93" d="m87.587 75.259-2.764-.56-.556 2.745 2.764.56.556-2.745Z"/><path fill="#8F8E93" d="m84.823 74.698-2.763-.56-.556 2.745 2.764.56.555-2.745Z"/><path fill="#8F8E93" d="m82.06 74.14-2.765-.56-.555 2.744 2.763.56.556-2.744Z"/><path fill="#8F8E93" d="m79.296 73.58-2.764-.56-.556 2.744 2.764.56.556-2.745Zm-2.765-.561-2.763-.56-.556 2.744 2.764.56.555-2.744Z"/><path fill="#8F8E93" d="m73.768 72.46-2.764-.56-.556 2.745 2.764.56.556-2.745Z"/><path fill="#000" d="m71.004 71.9-2.764-.56-.556 2.744 2.764.56.556-2.744Zm66.889 10.691-2.764-.56-.556 2.744 2.764.56.556-2.744Z"/><path fill="#8F8E93" d="m135.129 82.03-2.764-.56-.556 2.745 2.764.56.556-2.745Z"/><path fill="#8F8E93" d="m132.365 81.472-2.764-.56-.556 2.744 2.764.56.556-2.744Z"/><path fill="#8F8E93" d="m129.601 80.911-2.764-.56-.555 2.745 2.763.56.556-2.745Z"/><path fill="#8F8E93" d="m126.838 80.35-2.764-.559-.556 2.744 2.764.56.556-2.744Z"/><path fill="#8F8E93" d="m124.073 79.792-2.763-.56-.556 2.745 2.764.56.555-2.745Z"/><path fill="#8F8E93" d="m121.31 79.232-2.764-.56-.556 2.744 2.764.56.556-2.744Z"/><path fill="#8F8E93" d="m118.546 78.671-2.764-.56-.556 2.745 2.764.56.556-2.745Z"/><path fill="#8F8E93" d="m115.782 78.113-2.764-.56-.556 2.744 2.764.56.556-2.744Z"/><path fill="#8F8E93" d="m113.018 77.552-2.764-.56-.555 2.745 2.763.56.556-2.745Zm-2.764-.56-2.764-.56-.556 2.744 2.764.56.556-2.745Z"/><path fill="#8F8E93" d="m107.49 76.433-2.764-.56-.556 2.744 2.764.56.556-2.744Z"/><path fill="#8F8E93" d="m104.727 75.872-2.764-.56-.556 2.745 2.764.56.556-2.745Z"/><path fill="#8F8E93" d="m101.963 75.314-2.764-.56-.556 2.744 2.764.56.556-2.744Zm-2.765-.561-2.763-.56-.556 2.745 2.764.56.555-2.745Z"/><path fill="#8F8E93" d="m96.435 74.193-2.764-.56-.556 2.744 2.764.56.556-2.744Z"/><path fill="#8F8E93" d="m93.671 73.634-2.764-.56-.556 2.745 2.764.56.556-2.745Zm-2.764-.561-2.764-.56-.556 2.745 2.764.56.556-2.745Zm-2.764-.56-2.764-.56-.556 2.744 2.764.56.556-2.744Z"/><path fill="#8F8E93" d="m85.38 71.954-2.764-.56-.556 2.745 2.764.56.556-2.745Zm-2.765-.56-2.763-.56-.556 2.744 2.764.56.555-2.744Zm-2.764-.559-2.764-.56-.556 2.745 2.764.56.556-2.745Z"/><path fill="#8F8E93" d="m77.088 70.275-2.764-.56-.556 2.744 2.764.56.556-2.744Zm-2.764-.561-2.764-.56-.556 2.745 2.764.56.556-2.745Z"/><path fill="#000" d="m71.56 69.156-2.764-.56-.556 2.744 2.764.56.556-2.745Zm66.889 10.689-2.764-.56-.556 2.744 2.764.56.556-2.744Z"/><path fill="#8F8E93" d="m135.685 79.286-2.764-.56-.555 2.745 2.763.56.556-2.745Zm-2.764-.56-2.764-.56-.556 2.744 2.764.56.556-2.744Z"/><path fill="#8F8E93" d="m130.157 78.165-2.763-.56-.556 2.745 2.764.56.555-2.745Zm-2.764-.558-2.764-.56-.555 2.744 2.763.56.556-2.744Z"/><path fill="#8F8E93" d="m124.63 77.046-2.764-.56-.556 2.745 2.764.56.556-2.745Z"/><path fill="#8F8E93" d="m121.866 76.488-2.764-.56-.556 2.744 2.764.56.556-2.744Z"/><path fill="#8F8E93" d="m119.102 75.927-2.764-.56-.556 2.745 2.764.56.556-2.745Zm-2.764-.56-2.764-.56-.556 2.744 2.764.56.556-2.745Z"/><path fill="#8F8E93" d="m113.574 74.808-2.764-.56-.556 2.744 2.764.56.556-2.744Zm-2.764-.561-2.764-.56-.555 2.745 2.763.56.556-2.745Z"/><path fill="#8F8E93" d="m108.047 73.687-2.764-.56-.556 2.744 2.764.56.556-2.744Z"/><path fill="#8F8E93" d="m105.282 73.128-2.763-.56-.556 2.745 2.764.56.555-2.745Z"/><path fill="#8F8E93" d="m102.519 72.568-2.764-.56-.556 2.744 2.764.56.556-2.744Z"/><path fill="#8F8E93" d="m99.755 72.009-2.764-.56-.556 2.745 2.764.56.556-2.745Zm-2.765-.561-2.763-.56-.556 2.745 2.764.56.555-2.745Z"/><path fill="#8F8E93" d="m94.227 70.888-2.764-.56-.555 2.744 2.763.56.556-2.744Z"/><path fill="#8F8E93" d="m91.463 70.33-2.764-.56-.556 2.744 2.764.56.556-2.745Zm-2.764-.561-2.764-.56-.556 2.744 2.764.56.556-2.744Z"/><path fill="#8F8E93" d="m85.936 69.208-2.764-.56-.556 2.745 2.764.56.556-2.745Z"/><path fill="#8F8E93" d="m83.172 68.65-2.764-.56-.556 2.744 2.764.56.556-2.744Zm-2.765-.56-2.763-.56-.556 2.744 2.764.56.555-2.745Zm-2.763-.561-2.764-.56-.556 2.744 2.764.56.556-2.744Z"/><path fill="#8F8E93" d="m74.88 66.97-2.764-.56-.556 2.744 2.764.56.556-2.744Z"/><path fill="#000" d="m72.116 66.41-2.764-.56-.556 2.744 2.764.56.556-2.745Zm66.889 10.693-2.764-.56-.556 2.744 2.764.56.556-2.744Z"/><path fill="#8F8E93" d="m136.241 76.542-2.764-.56-.556 2.745 2.764.56.556-2.745Zm-2.764-.56-2.764-.56-.555 2.744 2.763.56.556-2.744Z"/><path fill="#8F8E93" d="m130.713 75.423-2.764-.56-.556 2.745 2.764.56.556-2.745Zm-2.764-.56-2.764-.56-.556 2.744 2.764.56.556-2.744Z"/><path fill="#8F8E93" d="m125.185 74.302-2.764-.56-.555 2.745 2.763.56.556-2.745Z"/><path fill="#8F8E93" d="m122.422 73.743-2.764-.56-.556 2.745 2.764.56.556-2.745Zm-2.765-.56-2.763-.56-.556 2.744 2.764.56.555-2.744Z"/><path fill="#8F8E93" d="m116.894 72.624-2.764-.56-.556 2.745 2.764.56.556-2.745Zm-2.764-.56-2.764-.56-.556 2.744 2.764.56.556-2.744Zm-2.764-.561-2.764-.56-.556 2.745 2.764.56.556-2.745Z"/><path fill="#8F8E93" d="m108.602 70.945-2.764-.56-.555 2.744 2.763.56.556-2.744Zm-2.764-.561-2.764-.56-.556 2.745 2.764.56.556-2.745Z"/><path fill="#8F8E93" d="m103.074 69.823-2.763-.56-.556 2.745 2.764.56.555-2.745Zm-2.764-.558-2.764-.56-.556 2.744 2.764.56.556-2.744Z"/><path fill="#8F8E93" d="m97.547 68.704-2.764-.56-.556 2.745 2.764.56.556-2.745Z"/><path fill="#8F8E93" d="m94.783 68.144-2.764-.56-.556 2.744 2.764.56.556-2.744Z"/><path fill="#8F8E93" d="m92.02 67.585-2.765-.56-.555 2.745 2.763.56.556-2.745Z"/><path fill="#8F8E93" d="m89.255 67.025-2.764-.56-.556 2.744 2.764.56.556-2.744Z"/><path fill="#8F8E93" d="m86.491 66.466-2.763-.56-.556 2.744 2.764.56.555-2.744Zm-2.764-.56-2.764-.56-.555 2.744 2.763.56.556-2.745Z"/><path fill="#8F8E93" d="m80.964 65.345-2.764-.56-.556 2.744 2.764.56.556-2.744Z"/><path fill="#8F8E93" d="m78.2 64.786-2.764-.56-.556 2.745 2.764.56.555-2.745Zm-2.764-.56-2.764-.56-.556 2.744 2.764.56.556-2.744Z"/><path fill="#000" d="m72.672 63.665-2.764-.56-.556 2.745 2.764.56.556-2.745Zm66.888 10.694-2.764-.56-.555 2.744 2.763.56.556-2.744Z"/><path fill="#8F8E93" d="m136.797 73.798-2.764-.56-.556 2.745 2.764.56.556-2.745Zm-2.764-.56-2.764-.56-.556 2.744 2.764.56.556-2.744Z"/><path fill="#8F8E93" d="m131.269 72.679-2.764-.56-.556 2.744 2.764.56.556-2.744Zm-2.764-.561-2.764-.56-.556 2.745 2.764.56.556-2.745Z"/><path fill="#8F8E93" d="m125.741 71.56-2.764-.56-.556 2.744 2.764.56.556-2.744Z"/><path fill="#8F8E93" d="m122.977 71-2.764-.56-.555 2.744 2.763.56.556-2.745Z"/><path fill="#8F8E93" d="m120.214 70.439-2.764-.56-.556 2.744 2.764.56.556-2.744Z"/><path fill="#8F8E93" d="m117.449 69.88-2.763-.56-.556 2.745 2.764.56.555-2.745Z"/><path fill="#8F8E93" d="m114.686 69.32-2.764-.56-.556 2.744 2.764.56.556-2.744Z"/><path fill="#000" d="m111.922 68.759-2.764-.56-.556 2.745 2.764.56.556-2.745Z"/><path fill="#F1EFED" d="m109.158 68.2-2.764-.56-.556 2.745 2.764.56.556-2.745Zm-2.764-.56-2.764-.56-.555 2.744 2.763.56.556-2.744Z"/><path fill="#F1EFED" d="m103.63 67.081-2.764-.56-.556 2.745 2.764.56.556-2.745Zm-2.764-.561-2.764-.56-.556 2.745 2.764.56.556-2.744Z"/><path fill="#F1EFED" d="m98.102 65.96-2.764-.56-.555 2.745 2.763.56.556-2.745Z"/><path fill="#F1EFED" d="m95.339 65.402-2.764-.56-.556 2.744 2.764.56.556-2.744Zm-2.764-.561-2.764-.56-.556 2.744 2.764.56.556-2.744Zm-2.765-.561-2.763-.56-.556 2.745 2.764.56.556-2.745Z"/><path fill="#F1EFED" d="m87.047 63.722-2.764-.56-.556 2.744 2.764.56.556-2.744Zm-2.764-.561-2.764-.56-.556 2.745 2.764.56.556-2.745Z"/><path fill="#F1EFED" d="m81.52 62.6-2.765-.559-.555 2.744 2.763.56.556-2.744Z"/><path fill="#F1EFED" d="m78.755 62.042-2.764-.56-.556 2.745 2.764.56.556-2.745Z"/><path fill="#000" d="m75.991 61.482-2.763-.56-.556 2.744 2.764.56.555-2.744Zm-2.764-.559-2.764-.56-.555 2.745 2.763.56.556-2.745Zm66.889 10.692-2.764-.56-.556 2.744 2.764.56.556-2.744Zm-2.764-.561-2.764-.56-.555 2.744 2.763.56.556-2.744Z"/><path fill="#000" d="m134.589 70.495-2.764-.56-.556 2.745 2.764.56.556-2.745Zm-2.765-.56-2.763-.56-.556 2.744 2.764.56.555-2.744Z"/><path fill="#000" d="m129.061 69.374-2.764-.56-.556 2.745 2.764.56.556-2.745Z"/><path fill="#000" d="m126.297 68.816-2.764-.56-.556 2.744 2.764.56.556-2.744Zm-2.764-.561-2.764-.56-.556 2.745 2.764.56.556-2.745Z"/><path fill="#000" d="m120.769 67.697-2.764-.56-.555 2.744 2.763.56.556-2.745Zm-2.764-.561-2.764-.56-.556 2.744 2.764.56.556-2.744Z"/><path fill="#000" d="m115.241 66.575-2.763-.56-.556 2.745 2.764.56.555-2.745Z"/><path fill="#F1EFED" d="m112.478 66.017-2.764-.56-.556 2.744 2.764.56.556-2.744Z"/><path fill="#F1EFED" d="m109.714 65.456-2.764-.56-.556 2.745 2.764.56.556-2.745Zm-2.764-.56-2.764-.56-.556 2.744 2.764.56.556-2.744Z"/><path fill="#F1EFED" d="m104.186 64.337-2.764-.56-.556 2.745 2.764.56.556-2.745Zm-2.764-.56-2.764-.56-.556 2.744 2.764.56.556-2.744Zm-2.764-.561-2.764-.56-.556 2.744 2.764.56.556-2.744Z"/><path fill="#F1EFED" d="m95.894 62.657-2.764-.56-.555 2.745 2.763.56.556-2.745Z"/><path fill="#F1EFED" d="m93.13 62.097-2.763-.56-.556 2.744 2.764.56.556-2.744Z"/><path fill="#F1EFED" d="m90.366 61.538-2.763-.56-.556 2.745 2.764.56.555-2.745Z"/><path fill="#F1EFED" d="m87.603 60.978-2.764-.56-.556 2.744 2.764.56.556-2.744Zm-2.764-.561-2.764-.56-.556 2.745 2.764.56.556-2.745Z"/><path fill="#F1EFED" d="m82.075 59.859-2.764-.56-.556 2.744 2.764.56.556-2.744Zm-2.765-.561-2.763-.56-.556 2.745 2.764.56.556-2.745Z"/><path fill="#000" d="m76.548 58.738-2.764-.56-.556 2.744 2.764.56.556-2.744Z"/><path fill="#000" d="m73.783 58.179-2.764-.56-.555 2.744 2.764.56.555-2.744Zm66.889 10.689-2.764-.56-.556 2.745 2.764.56.556-2.745Z"/><path fill="#000" d="m137.908 68.31-2.763-.56-.556 2.744 2.764.56.555-2.744Zm-2.764-.56-2.764-.56-.555 2.744 2.763.56.556-2.745Z"/><path fill="#000" d="m132.381 67.19-2.764-.56-.556 2.745 2.764.56.556-2.744Z"/><path fill="#000" d="m129.617 66.63-2.764-.56-.556 2.745 2.764.56.556-2.745Zm-2.764-.56-2.764-.56-.556 2.744 2.764.56.556-2.744Z"/><path fill="#000" d="m124.089 65.511-2.764-.56-.556 2.744 2.764.56.556-2.744Z"/><path fill="#000" d="m121.325 64.95-2.764-.56-.556 2.745 2.764.56.556-2.745Zm-2.764-.56-2.764-.56-.555 2.744 2.763.56.556-2.744Z"/><path fill="#000" d="m115.798 63.831-2.764-.56-.556 2.745 2.764.56.556-2.745Zm-2.765-.561-2.763-.56-.556 2.745 2.764.56.555-2.744Zm-2.764-.558-2.764-.56-.555 2.745 2.763.56.556-2.745Z"/><path fill="#000" d="m107.506 62.152-2.764-.56-.556 2.744 2.764.56.556-2.744Zm-2.764-.561-2.764-.56-.556 2.745 2.764.56.556-2.745Z"/><path fill="#000" d="m101.978 61.032-2.764-.56-.556 2.745 2.764.56.556-2.745Z"/><path fill="#000" d="m99.214 60.472-2.764-.56-.556 2.744 2.764.56.556-2.744Zm-2.764-.561-2.764-.56-.555 2.745 2.763.56.556-2.745Z"/><path fill="#000" d="m93.686 59.353-2.764-.56-.555 2.744 2.763.56.556-2.744Z"/><path fill="#000" d="m90.923 58.792-2.764-.56-.556 2.745 2.764.56.556-2.745Z"/><path fill="#000" d="m88.159 58.234-2.764-.56-.556 2.744 2.764.56.556-2.744Zm-2.764-.561-2.764-.56-.556 2.745 2.764.56.556-2.745Zm-2.765-.56-2.763-.56-.556 2.744 2.764.56.556-2.744Z"/><path fill="#000" d="m79.867 56.554-2.764-.56-.556 2.744 2.764.56.556-2.744Zm-2.764-.561-2.764-.56-.555 2.745 2.763.56.556-2.745Z"/><path fill="#000" d="m74.34 55.433-2.765-.56-.556 2.744 2.764.56.556-2.744Z"/><path fill="#8F8E93" d="m138.464 65.564-2.764-.56-.556 2.744 2.764.56.556-2.744Z"/><path fill="#8F8E93" d="m135.7 65.005-2.763-.56-.556 2.745 2.764.56.555-2.745Z"/><path fill="#8F8E93" d="m132.937 64.445-2.764-.56-.556 2.744 2.764.56.556-2.744Z"/><path fill="#8F8E93" d="m130.173 63.884-2.764-.56-.556 2.745 2.764.56.556-2.745Z"/><path fill="#8F8E93" d="m127.409 63.325-2.764-.56-.556 2.745 2.764.56.556-2.745Zm-2.764-.56-2.764-.56-.556 2.744 2.764.56.556-2.744Z"/><path fill="#8F8E93" d="m121.881 62.206-2.764-.56-.556 2.745 2.764.56.556-2.745Z"/><path fill="#8F8E93" d="m119.117 61.646-2.763-.56-.556 2.744 2.764.56.555-2.744Zm-2.764-.561-2.764-.56-.555 2.745 2.763.56.556-2.745Z"/><path fill="#8F8E93" d="m113.59 60.527-2.764-.56-.556 2.744 2.764.56.556-2.744Zm-2.764-.561-2.764-.56-.556 2.745 2.764.56.556-2.745Zm-2.764-.56-2.764-.56-.556 2.744 2.764.56.556-2.744Z"/><path fill="#8F8E93" d="m105.298 58.847-2.764-.56-.556 2.744 2.764.56.556-2.744Zm-2.764-.561-2.764-.56-.556 2.745 2.764.56.556-2.745Z"/><path fill="#8F8E93" d="m99.77 57.728-2.764-.56-.556 2.744 2.764.56.556-2.744Z"/><path fill="#8F8E93" d="m97.007 57.167-2.764-.56-.556 2.745 2.764.56.556-2.745Zm-2.765-.56-2.764-.56-.555 2.744 2.763.56.556-2.744Z"/><path fill="#8F8E93" d="m91.478 56.048-2.764-.56-.555 2.745 2.763.56.556-2.745Z"/><path fill="#8F8E93" d="m88.715 55.488-2.764-.56-.556 2.744 2.764.56.556-2.744Zm-2.765-.561-2.763-.56-.556 2.745 2.764.56.556-2.745Z"/><path fill="#8F8E93" d="m83.187 54.368-2.764-.56-.556 2.745 2.764.56.556-2.745Zm-2.764-.56-2.764-.56-.556 2.744 2.764.56.556-2.744Z"/><path fill="#8F8E93" d="m77.66 53.25-2.764-.56-.556 2.744 2.763.56.556-2.745Z"/><path fill="#000" d="m74.895 52.689-2.764-.56-.555 2.744 2.763.56.556-2.744Zm39.25 5.093-2.764-.56-.556 2.745 2.764.56.556-2.745Z"/><path fill="#8F8E93" d="m111.382 57.222-2.764-.56-.556 2.744 2.764.56.556-2.744Z"/><path fill="#8F8E93" d="m108.617 56.663-2.763-.56-.556 2.745 2.764.56.555-2.745Z"/><path fill="#8F8E93" d="m105.854 56.103-2.764-.56-.556 2.744 2.764.56.556-2.744Zm-2.764-.561-2.764-.56-.556 2.745 2.764.56.556-2.745Z"/><path fill="#8F8E93" d="m100.326 54.984-2.764-.56-.556 2.744 2.764.56.556-2.744Zm-2.764-.561-2.764-.56-.555 2.745 2.763.56.556-2.745Z"/><path fill="#8F8E93" d="m94.798 53.864-2.764-.56-.556 2.745 2.764.56.556-2.745Z"/><path fill="#8F8E93" d="m92.034 53.304-2.764-.56-.555 2.744 2.763.56.556-2.744Z"/><path fill="#8F8E93" d="m89.27 52.743-2.763-.56-.556 2.745 2.764.56.556-2.745Z"/><path fill="#8F8E93" d="m86.507 52.185-2.764-.56-.556 2.744 2.764.56.556-2.744Zm-2.765-.561-2.764-.56-.555 2.745 2.763.56.556-2.745Z"/><path fill="#8F8E93" d="m80.979 51.064-2.764-.56-.556 2.744 2.764.56.556-2.744Z"/><path fill="#8F8E93" d="m78.215 50.505-2.764-.56-.556 2.745 2.764.56.556-2.745Z"/><path fill="#000" d="m75.45 49.945-2.763-.56-.556 2.744 2.764.56.556-2.744Zm36.487 4.533-2.764-.56-.556 2.744 2.764.56.556-2.744Z"/><path fill="#000" d="m109.174 53.92-2.764-.56-.556 2.744 2.764.56.556-2.745Zm-2.765-.561-2.763-.56-.556 2.744 2.764.56.555-2.744Zm-2.764-.559-2.764-.56-.556 2.744 2.764.56.556-2.744Z"/><path fill="#000" d="m100.882 52.24-2.764-.56-.556 2.744 2.764.56.556-2.745Zm-2.764-.561-2.764-.56-.556 2.744 2.764.56.556-2.744Z"/><path fill="#000" d="m95.354 51.12-2.764-.56-.556 2.745 2.764.56.556-2.745Z"/><path fill="#000" d="M92.59 50.56 89.826 50l-.556 2.744 2.764.56.556-2.744Z"/><path fill="#000" d="m89.826 50-2.763-.56-.556 2.744 2.763.56.556-2.745Zm-2.764-.56-2.764-.56-.555 2.745 2.763.56.556-2.744Z"/><path fill="#000" d="m84.298 48.88-2.764-.56-.556 2.745 2.764.56.556-2.745Z"/><path fill="#000" d="m81.534 48.322-2.764-.56-.555 2.744 2.763.56.556-2.745Z"/><path fill="#000" d="m78.77 47.761-2.763-.56-.556 2.744 2.764.56.556-2.744Z"/></g><path fill="#000" d="M132.66 119.599h-2.82v2.8h2.82v-2.8Zm-2.82 0h-2.82v2.8h2.82v-2.8Zm0-2.799h-2.82v2.799h2.82V116.8Zm-2.82 0h-2.82v2.8l2.82-.001V116.8Zm0-2.8h-2.82v2.8h2.82V114Zm-2.82 0h-2.82v2.8h2.82V114Zm0-2.799h-2.82V114h2.82v-2.799Zm-2.82 0h-2.82v2.8l2.82-.001v-2.799Zm-5.64 0h-2.82v2.8h2.82v-2.8Zm-2.82 0h-2.82v2.8h2.82v-2.8Zm-2.82 0h-2.82v2.8h2.82v-2.8Zm-2.82 0h-2.82v2.8h2.82v-2.8Z"/><path fill="#000" d="M121.38 108.4h-2.82v2.801h2.82V108.4Zm-2.82 0h-2.82v2.801h2.82V108.4Zm-14.1 0h-2.82v2.8l2.82.001V108.4Zm-2.82 0h-2.82v2.8h2.82v-2.8Zm22.56-2.801h-2.82v2.801l2.82-.001v-2.8Zm-25.38 0H96v2.8l2.82.001v-2.801Zm25.38-2.799h-2.82v2.799h2.82V102.8Zm-25.38 0H96v2.799h2.82V102.8Zm25.38-2.8h-2.82v2.8h2.82V100Zm-25.38 0H96v2.8h2.82V100Zm25.38-2.8h-2.82v2.8h2.82v-2.8Zm-25.38 0H96v2.8h2.82v-2.8Zm25.38-2.8h-2.82v2.8h2.82v-2.8Zm-25.38 0H96v2.8h2.82v-2.8Zm25.38-2.801h-2.82v2.8h2.82v-2.8Zm-25.38 0H96v2.8h2.82v-2.8Zm22.56-2.799h-2.82v2.8l2.82-.001v-2.8Zm-2.82 0h-2.82v2.8h2.82v-2.8Zm-14.1 0h-2.82v2.8h2.82v-2.8Zm-2.82 0h-2.82v2.799h2.82v-2.8Zm14.1-2.8h-2.82v2.8h2.82V86Zm-2.82 0h-2.82v2.8h2.82V86Zm-2.82 0h-2.82v2.8h2.82V86Zm-2.82 0h-2.82v2.8h2.82V86Z"/><path fill="url(#b)" d="M112.92 111.2h2.82v-2.801h5.64v-16.8h-5.64v-2.8h-11.28v2.8h-5.64v16.799h5.64v2.801h8.46Z"/><path fill="#000" d="m44.352 114.021 2.454.481-.24 1.227 3.68.72.48-2.453-4.907-.961.24-1.227-1.226-.24.48-2.453 1.227.24.24-1.227 4.907.961-.24 1.227 1.226.24-.24 1.227-2.453-.481.24-1.226-2.453-.481-.48 2.453 4.906.961-.24 1.227 1.226.24-.48 2.454-1.227-.24-.24 1.226-6.133-1.201.24-1.227-1.227-.24.24-1.227Zm11.8-4.057 8.587 1.681-.24 1.227-6.134-1.201-.48 2.453 4.907.961-.24 1.227-4.907-.961-.48 2.453 6.133 1.201-.24 1.227-8.587-1.682 1.681-8.586Zm12.572 5.009-.48 2.454 3.68.72.48-2.453-1.227-.24.24-1.227-1.226-.24-.24 1.226-1.227-.24Zm-2.454-.48 1.227.24.24-1.227 1.227.24.24-1.226 3.68.72-.24 1.227 1.227.24-.24 1.227 1.226.24-1.201 6.134-2.453-.481.48-2.453-3.68-.721-.48 2.454-2.454-.481 1.201-6.133Zm13.293 1.329-.721 3.68 2.453.481.24-1.227 1.227.24.48-2.453-3.68-.721Zm-2.213-1.707 7.36 1.441-.24 1.227 1.226.24-.72 3.68-2.454-.48-.24 1.227 1.227.24-.24 1.227 1.226.24-.24 1.226-3.68-.72.24-1.227-1.227-.24.24-1.227-1.226-.24-.48 2.453-2.454-.48 1.681-8.587Zm10.118 4.529 1.226.24.24-1.226 1.227.24.24-1.227 4.907.961-.24 1.227 1.227.24-.24 1.227-2.454-.481.24-1.226-2.453-.481-.24 1.227-1.227-.241-.72 3.681 1.226.24-.24 1.227 2.453.48.24-1.227 2.454.481-.24 1.226-1.227-.24-.24 1.227-4.907-.961.24-1.227-1.227-.24.24-1.227-1.226-.24.72-3.68Zm11.079-.378 2.453.481-.721 3.68 3.681.721.72-3.681 2.454.481-1.682 8.587-2.453-.481.72-3.68-3.68-.72-.72 3.68-2.454-.481 1.682-8.587Zm19.185 3.758-.24 1.226-2.453-.48-1.201 6.133 2.453.481-.24 1.227-7.361-1.442.241-1.227 2.453.481 1.201-6.134-2.453-.48.24-1.227 7.36 1.442Zm2.012.394 2.454.48-.241 1.227 1.227.24-.24 1.227 1.226.24-.24 1.227 1.227.24.721-3.68 2.453.48-1.682 8.587-2.453-.48.24-1.227-1.227-.24.241-1.227-1.227-.24.24-1.227-1.226-.24-.721 3.68-2.454-.48 1.682-8.587Zm10.118 4.529 1.227.24.24-1.227 1.227.24.24-1.226 6.134 1.201-.241 1.227-4.906-.961-.241 1.226-1.226-.24-.721 3.68 1.227.241-.241 1.226 2.454.481.48-2.454-1.226-.24.24-1.227 3.68.721-.961 4.907-6.133-1.201.24-1.227-1.227-.24.24-1.227-1.226-.24.72-3.68Zm10.118 4.529 1.227.24-.48 2.453-1.227-.24.48-2.453Zm3.681.72 1.226.241-.48 2.453-1.227-.24.481-2.454Zm3.68.721 1.226.24-.48 2.454-1.227-.24.481-2.454Z"/><defs><linearGradient id="b" x1="107.436" x2="103.511" y1="117.532" y2="81.42" gradientUnits="userSpaceOnUse"><stop offset=".121" stop-color="#F1EFED"/><stop offset=".488" stop-color="#DDD" stop-opacity=".22"/><stop offset="1" stop-color="#F1EFED"/></linearGradient><clipPath id="a"><path fill="#fff" d="m73.24 46.64 69.097 13.996-10.56 52.141-69.098-13.995z"/></clipPath></defs></svg>
