<svg xmlns="http://www.w3.org/2000/svg" width="434" height="292" fill="none" viewBox="0 0 434 292"><path fill="#000" d="m245.754 108.719-21.287 2.048-8.978 19.536 21.287-2.048 8.978-19.536Z"/><path stroke="#000" stroke-linecap="round" stroke-linejoin="round" stroke-miterlimit="10" stroke-width="2" d="m249.108 145.754 8.978-19.536-12.309-17.488-8.978 19.536m12.309 17.488-12.309-17.488m12.309 17.488-21.287 2.048-12.309-17.488 21.287-2.048m8.955-19.547-21.287 2.048-8.978 19.536 21.287-2.048 8.978-19.536Z"/><path fill="#000" d="m434 0-6.864 12.979a.08.08 0 0 1-.109 0 .076.076 0 0 1-.027-.059.076.076 0 0 1 .027-.059L434 0ZM420.969 26.258l-7.458 13.6a.274.274 0 0 1-.5-.052.273.273 0 0 1 .022-.205l7.634-13.508a.176.176 0 0 1 .105-.085.176.176 0 0 1 .134.013.174.174 0 0 1 .086.104.169.169 0 0 1-.013.134h-.01ZM404.967 239.494l-8.186 12.316a.427.427 0 1 1-.709-.472l8.304-12.188a.324.324 0 0 1 .094-.094.323.323 0 0 1 .123-.05.336.336 0 0 1 .255.055.343.343 0 0 1 .119.433ZM387.919 263.81a121.77 121.77 0 0 1-10.002 11.029.535.535 0 0 1-.38.161.535.535 0 0 1-.38-.161.577.577 0 0 1-.157-.399c0-.15.056-.293.157-.399a124.007 124.007 0 0 0 9.973-10.858.517.517 0 0 1 .15-.126.462.462 0 0 1 .375-.032c.062.02.119.054.168.098a.547.547 0 0 1 .096.687ZM365.839 284.143a56.158 56.158 0 0 1-13.973 6.825.628.628 0 0 1-.514-.051.65.65 0 0 1-.202-.175.735.735 0 0 1-.07-.779.68.68 0 0 1 .398-.341 54.625 54.625 0 0 0 13.676-6.579.601.601 0 0 1 .416-.011c.135.046.252.14.329.264a.679.679 0 0 1-.08.815l.02.032ZM337.279 292a43.095 43.095 0 0 1-7.532-1.114 46.705 46.705 0 0 1-7.262-2.361.748.748 0 0 1-.427-.421.782.782 0 0 1 .008-.61.784.784 0 0 1 .411-.433.744.744 0 0 1 .588 0 46.359 46.359 0 0 0 6.992 2.33 41.55 41.55 0 0 0 7.282 1.124.686.686 0 0 1 .624.482c.03.09.042.186.035.281a.75.75 0 0 1-.215.515.685.685 0 0 1-.504.207ZM310.504 278.61a39.845 39.845 0 0 1-4.488-14.599.837.837 0 0 1 .4-.895.828.828 0 0 1 .327-.109.835.835 0 0 1 .622.17.854.854 0 0 1 .323.563 38.595 38.595 0 0 0 4.209 14.056.816.816 0 0 1 .074.614.806.806 0 0 1-.378.486.797.797 0 0 1-1.089-.306v.02ZM306 249.147a135.546 135.546 0 0 1 2.015-15.395.874.874 0 0 1 .14-.33c.07-.1.162-.188.269-.256.107-.069.228-.118.356-.144.128-.026.261-.029.39-.009.13.02.253.064.364.127a.967.967 0 0 1 .283.244.847.847 0 0 1 .168.676 130.075 130.075 0 0 0-2.026 15.179.877.877 0 0 1-.353.561 1.058 1.058 0 0 1-1.327-.069.858.858 0 0 1-.279-.595v.011ZM311.014 218.969c.636-2.4 1.252-4.8 1.899-7.2l2.223-7.121a.887.887 0 0 1 .171-.311.95.95 0 0 1 .284-.226.995.995 0 0 1 1.053.087.914.914 0 0 1 .239.269.862.862 0 0 1 .079.685l-2.223 7.082c-.647 2.38-1.273 4.77-1.909 7.16a.905.905 0 0 1-.441.497.982.982 0 0 1-.68.082.942.942 0 0 1-.558-.378.852.852 0 0 1-.137-.636v.01ZM317.779 190.001c.166-1.272.303-2.534.352-3.785a13.785 13.785 0 0 0-.245-3.598 4.44 4.44 0 0 0-.244-.75 2.792 2.792 0 0 0-.167-.292.65.65 0 0 0-.176-.24 1.078 1.078 0 0 0-.448-.309 1.026 1.026 0 0 0-.532-.046 6.945 6.945 0 0 0-2.891 1.304.926.926 0 0 1-.696.112.975.975 0 0 1-.587-.415.997.997 0 0 1-.131-.357 1.05 1.05 0 0 1 .008-.383c.026-.126.076-.245.146-.351a.95.95 0 0 1 .261-.264A8.298 8.298 0 0 1 316.26 179h.617c.216.024.429.069.637.136l.598.323c.186.127.354.282.5.459.16.142.293.315.392.511.112.173.213.354.303.542.147.336.269.685.363 1.043a16.16 16.16 0 0 1 .304 4.171c-.069 1.345-.216 2.669-.383 3.983a.992.992 0 0 1-.356.635.881.881 0 0 1-.672.189.903.903 0 0 1-.6-.377 1.015 1.015 0 0 1-.174-.718l-.01.104ZM302.44 191.887l-10.982 9.991a.974.974 0 0 1-1.206-.209.994.994 0 0 1-.25-.604.994.994 0 0 1 .176-.63l10.992-9.951a.98.98 0 0 1 1.577-.155.998.998 0 0 1-.316 1.568l.009-.01ZM280.727 211.76c-3.891 3.437-7.865 6.781-11.982 9.947a1.024 1.024 0 0 1-1.715-.5 1.058 1.058 0 0 1 .149-.836 1.04 1.04 0 0 1 .31-.299c4.118-3.125 8.008-6.469 11.879-9.875a1.027 1.027 0 0 1 1.378.159 1.052 1.052 0 0 1-.03 1.404h.011ZM255.341 229.945a107.652 107.652 0 0 1-13.048 6.969.891.891 0 0 1-.714.022.908.908 0 0 1-.513-.51 1.02 1.02 0 0 1 0-.722.992.992 0 0 1 .477-.532 106.256 106.256 0 0 0 12.805-6.89.96.96 0 0 1 1.514.202 1.02 1.02 0 0 1 .075.864.985.985 0 0 1-.616.597h.02ZM228.246 241.743a61.426 61.426 0 0 1-15.362 1.184.986.986 0 0 1-.65-.296.825.825 0 0 1-.232-.629.792.792 0 0 1 .096-.326.851.851 0 0 1 .227-.267 1.008 1.008 0 0 1 .69-.202 59.2 59.2 0 0 0 14.826-1.184 1.039 1.039 0 0 1 .722.11.905.905 0 0 1 .271.235.828.828 0 0 1 .152.311.858.858 0 0 1-.145.651 1.013 1.013 0 0 1-.585.395l-.01.018ZM198.649 239.905a49.118 49.118 0 0 1-13.331-8.293.925.925 0 0 1-.271-.984.92.92 0 0 1 1.166-.581.912.912 0 0 1 .312.177 47.503 47.503 0 0 0 12.836 7.955.935.935 0 0 1-.343 1.82.945.945 0 0 1-.369-.094ZM175.387 220.586a81.719 81.719 0 0 1-7.324-13.392.872.872 0 0 1 .449-1.119.863.863 0 0 1 1.128.412 79.546 79.546 0 0 0 7.204 13.12.89.89 0 0 1-.889 1.378.882.882 0 0 1-.568-.369v-.03ZM162.356 193.461l-5.307-14.387a.804.804 0 0 1 .467-1.028.8.8 0 0 1 1.017.473l5.439 14.387a.884.884 0 0 1-.068.621.865.865 0 0 1-.461.416.861.861 0 0 1-1.077-.42l-.01-.062ZM150.648 165.673a51.27 51.27 0 0 0-9.409-11.422.724.724 0 0 1-.069-1.006.686.686 0 0 1 .978-.071 52.939 52.939 0 0 1 9.755 11.687c.094.17.121.37.076.559a.766.766 0 0 1-.319.459.73.73 0 0 1-1.003-.195l-.009-.011ZM128.097 146.94a56.69 56.69 0 0 0-13.684-4.672.601.601 0 0 1-.33-.287.701.701 0 0 1-.072-.455.658.658 0 0 1 .221-.393.553.553 0 0 1 .403-.131 58.7 58.7 0 0 1 13.994 4.671.686.686 0 0 1 .329.386.77.77 0 0 1-.01.529.686.686 0 0 1-.142.222.639.639 0 0 1-.207.144.584.584 0 0 1-.483-.014h-.019ZM99.533 141.374c-4.999-.135-10 .073-14.978.623a.447.447 0 0 1-.37-.136.661.661 0 0 1-.183-.414.709.709 0 0 1 .112-.45.485.485 0 0 1 .34-.222 111.352 111.352 0 0 1 15.059-.758.54.54 0 0 1 .348.228c.09.124.139.285.139.45 0 .166-.05.326-.139.451a.54.54 0 0 1-.348.228h.02ZM69.642 142.97l-14.258 3.021a.284.284 0 0 1-.243-.05.33.33 0 0 1-.09-.101.375.375 0 0 1-.044-.133.402.402 0 0 1 .047-.272.358.358 0 0 1 .088-.1.303.303 0 0 1 .116-.053l14.258-3.272a.354.354 0 0 1 .305.066.428.428 0 0 1 .112.128c.029.05.048.107.058.166a.498.498 0 0 1-.056.34.42.42 0 0 1-.11.126.369.369 0 0 1-.144.068l-.039.066ZM40.81 149.462l-14.615 3.532a.158.158 0 0 1-.165-.052.145.145 0 0 1-.008-.164.16.16 0 0 1 .093-.069l14.573-3.702a.261.261 0 0 1 .188.027.238.238 0 0 1 .122.234.221.221 0 0 1-.092.154.23.23 0 0 1-.087.04h-.01ZM11.925 157.156 0 160l11.894-2.983a.07.07 0 0 1 .092 0 .088.088 0 0 1 0 .096l-.061.043Z"/><path fill="#000" d="m131 221.999 32.328 18.499 16.161-9.247v.001l.005-.003-16.165-9.25 32.33-18.499.017.009 16.148 9.24 16.165-9.249-32.33-18.5L131 221.999Z"/><path fill="#F1EFED" d="m195.659 203.5-32.33 18.499 16.182 9.25 16.165-9.25-.017-18.499Z"/><path fill="#000" d="m131 221.999-.497-.868c-.311.178-.503.51-.503.868h1Zm48.494 9.25.497.868a1 1 0 0 0 0-1.736l-.497.868Zm-16.165-9.25-.496-.868a1.002 1.002 0 0 0 0 1.736l.496-.868Zm32.33-18.499.497-.868a1 1 0 0 0-.993 0l.496.868Zm16.165 9.249-.496.868a.997.997 0 0 0 .993 0l-.497-.868Zm16.165-9.249.497.868a1.002 1.002 0 0 0 0-1.736l-.497.868Zm-32.33-18.5.497-.868a1 1 0 0 0-.993 0l.496.868Zm16.177 27.749-.497-.868c-.311.179-.503.51-.503.868h1Zm0 18.5h-1a.998.998 0 0 0 1.496.868l-.496-.868Zm16.164-9.25.497.868a1 1 0 0 0 .503-.868h-1Zm0-18.499h1a.999.999 0 0 0-1.497-.868l.497.868Zm-16.656 28.617a1.001 1.001 0 0 0 .993-1.736l-.993 1.736ZM196.676 203.5a1 1 0 1 0-2 0h2Zm-17.165 27.749-.497.868a1 1 0 0 0 .993 0l-.496-.868Zm-16.187 9.251-.497-.868c-.311.179-.503.51-.503.868h1Zm0 18.5h-1a1 1 0 0 0 1.497.868l-.497-.868Zm16.165-9.25.497.868a1 1 0 0 0 .503-.868h-1Zm0-18.499h1a1 1 0 0 0-1.496-.868l.496.868Zm-16.16 27.748-.496.868a1 1 0 0 0 1.496-.868h-1ZM131 240.499h-1a1 1 0 0 0 .503.868l.497-.868Zm48.991-10.118-16.165-9.25-.993 1.736 16.165 9.25.993-1.736Zm-16.165-7.514 32.33-18.499-.993-1.736-32.33 18.499.993 1.736Zm48.495-9.25 16.165-9.249-.994-1.736-16.164 9.25.993 1.735Zm16.165-10.985-32.33-18.5-.993 1.736 32.329 18.5.994-1.736Zm-33.323-18.5-64.66 36.999.994 1.736 64.659-36.999-.993-1.736Zm15.673 28.617v18.5h2v-18.5h-2Zm1.496 19.368 16.165-9.25-.994-1.736-16.164 9.25.993 1.736ZM229 221.999V203.5h-2v18.499h2Zm-1.497-19.367-16.164 9.249.993 1.736 16.165-9.249-.994-1.736Zm-15.166 27.749-16.165-9.25-.993 1.736 16.165 9.25.993-1.736Zm-17.158-9.25-16.165 9.25.993 1.736 16.165-9.25-.993-1.736ZM162.324 240.5V259h2v-18.5h-2Zm1.497 19.368 16.165-9.25-.993-1.736-16.165 9.25.993 1.736Zm.005-1.737-32.329-18.5-.994 1.736 32.33 18.5.993-1.736ZM132 240.499v-18.5h-2v18.5h2Zm30.329 0v18.5h2v-18.5h-2Zm-31.826-17.632 32.328 18.499.994-1.736-32.328-18.499-.994 1.736Zm33.322 18.499 16.161-9.248-.993-1.735-16.162 9.247.994 1.736Zm14.664-10.115v.001h2v-.001h-2Zm1.497.869.005-.003-.993-1.736-.005.003.993 1.736Zm15.177-27.752.016.009.993-1.736-.016-.009-.993 1.736Zm.016.009 16.149 9.24.993-1.735-16.149-9.241-.993 1.736Zm1.497 17.622v-18.49h-2v18.49h2Zm0-18.49v-.009h-2v.009h2Zm-16.187 46.241v-18.498h-2v18.498h2Zm-16.663-8.383 16.16-9.247-.993-1.736-16.16 9.247.993 1.736Zm-.995-1.737-.004.002.994 1.736.004-.002-.994-1.736Zm0 1.736.002.001.993-1.736-.001-.001-.994 1.736Zm.002-18.499 16.159 9.253.994-1.736-16.16-9.252-.993 1.735Zm33.843-.868V203.5h-2v18.499h2Zm-2.017-18.498.017 18.499 2-.002-.017-18.499-2 .002Zm-14.652 26.88-16.181-9.25-.993 1.736 16.181 9.25.993-1.736Z"/></svg>
