<svg xmlns="http://www.w3.org/2000/svg" width="777" height="447" fill="none" viewBox="0 0 777 447"><path fill="#000" d="m58.147 446.547-6.462-11.557 6.462 11.557ZM45.177 423.452l-6.427-11.566a.07.07 0 0 1-.02-.048c0-.018.007-.036.02-.049a.063.063 0 0 1 .097 0l6.383 11.61a.053.053 0 0 1 0 .062c-.008.004-.018.006-.028.004a.04.04 0 0 1-.025-.013ZM32.483 400.223l-6.074-11.76a.121.121 0 0 1-.009-.095.122.122 0 0 1 .062-.072.11.11 0 0 1 .046-.014.114.114 0 0 1 .049.005c.015.005.03.013.042.023a.128.128 0 0 1 .03.039l6.022 11.777a.105.105 0 0 1-.044.141.104.104 0 0 1-.124-.044ZM20.599 376.571l-5.483-12.06a.186.186 0 0 1 .088-.239.186.186 0 0 1 .238.089l5.43 12.069a.137.137 0 0 1 .004.114.138.138 0 0 1-.083.08.148.148 0 0 1-.107.011.152.152 0 0 1-.087-.064ZM10.11 352.239l-4.414-12.502a.21.21 0 0 1 .056-.239.206.206 0 0 1 .076-.043.23.23 0 0 1 .291.132l4.415 12.493a.203.203 0 0 1-.124.256.199.199 0 0 1-.175.028.186.186 0 0 1-.078-.047.199.199 0 0 1-.047-.078ZM2.164 326.955a97.884 97.884 0 0 1-2.163-13.067.275.275 0 0 1 .248-.3.292.292 0 0 1 .3.256 95.897 95.897 0 0 0 2.075 13.04.256.256 0 0 1-.194.3.26.26 0 0 1-.177-.065.262.262 0 0 1-.089-.164ZM.399 300.582a27.464 27.464 0 0 1 5.059-12.271.315.315 0 0 1 .45-.053.325.325 0 0 1 .062.45 26.9 26.9 0 0 0-5.024 11.936.286.286 0 0 1-.118.198.286.286 0 0 1-.226.049.307.307 0 0 1-.203-.309ZM16.202 280.621a41.956 41.956 0 0 1 13.093-2.322.368.368 0 0 1 .267.096.375.375 0 0 1 .102.404.37.37 0 0 1-.198.212.362.362 0 0 1-.145.03 41.655 41.655 0 0 0-12.88 2.234.354.354 0 0 1-.45-.204.351.351 0 0 1 .211-.45ZM42.573 279.059c4.415.591 8.74 1.448 13.05 2.454a.424.424 0 0 1 .249.664.424.424 0 0 1-.444.166c-4.29-1.024-8.608-1.889-12.96-2.49a.392.392 0 0 1-.336-.294.395.395 0 0 1-.009-.156.402.402 0 0 1 .153-.267.39.39 0 0 1 .297-.077ZM68.477 284.751l12.74 3.647a.457.457 0 0 1 .318.573.458.458 0 0 1-.565.318l-12.722-3.655a.444.444 0 0 1-.3-.547.435.435 0 0 1 .355-.343.425.425 0 0 1 .174.007ZM93.851 292.406l12.493 4.344a.494.494 0 0 1 .053.905.482.482 0 0 1-.371.022l-12.484-4.37a.477.477 0 0 1-.291-.61.458.458 0 0 1 .24-.271.463.463 0 0 1 .36-.02ZM118.793 301.386l12.36 4.864a.497.497 0 0 1 .286.269.512.512 0 0 1-.103.564.508.508 0 0 1-.562.121l-12.343-4.883a.472.472 0 0 1-.164-.104.479.479 0 0 1-.153-.349.466.466 0 0 1 .035-.191.484.484 0 0 1 .451-.325.489.489 0 0 1 .193.034ZM143.363 311.31l12.184 5.226a.56.56 0 0 1 .339.294.555.555 0 0 1-.128.635.54.54 0 0 1-.426.14.54.54 0 0 1-.217-.071l-12.158-5.244a.53.53 0 0 1 .415-.971l-.009-.009ZM167.668 321.834l12.087 5.42a.574.574 0 1 1-.468 1.051l-12.069-5.447a.554.554 0 0 1-.327-.526.547.547 0 0 1 .176-.388.56.56 0 0 1 .61-.102l-.009-.008ZM191.814 332.771l12.051 5.492a.586.586 0 0 1 .348.567.576.576 0 0 1-.057.227.585.585 0 0 1-.335.315.607.607 0 0 1-.459-.014l-12.034-5.518a.592.592 0 0 1-.348-.561.584.584 0 0 1 .057-.225.561.561 0 0 1 .328-.307.585.585 0 0 1 .449.024ZM215.917 343.738l12.086 5.412a.603.603 0 0 1 .2.142.607.607 0 0 1 .172.449.621.621 0 0 1-.196.439.623.623 0 0 1-.688.118l-12.069-5.448a.604.604 0 0 1-.319-.341.605.605 0 0 1 .356-.786.605.605 0 0 1 .467.015h-.009ZM239.993 354.835l11.821 5.985a.662.662 0 0 1-.353 1.245.667.667 0 0 1-.247-.07l-11.786-6.013a.638.638 0 0 1-.283-.882.632.632 0 0 1 .848-.265ZM263.575 366.912l11.778 6.039a.692.692 0 0 1-.102 1.269.689.689 0 0 1-.525-.042l-11.778-6.065a.674.674 0 0 1-.408-.659.676.676 0 0 1 .486-.604.681.681 0 0 1 .531.071l.018-.009ZM287.208 378.815l11.998 5.562a.715.715 0 0 1 .353.945.721.721 0 0 1-.953.344l-12.007-5.562a.698.698 0 0 1-.34-.931.698.698 0 0 1 .931-.34l.018-.018ZM311.391 389.479l12.422 4.476h.045a.75.75 0 0 1 .247.148.734.734 0 0 1 .194.797.739.739 0 0 1-.945.45l-12.484-4.538a.714.714 0 0 1-.43-.37.717.717 0 0 1 .121-.814.73.73 0 0 1 .804-.175l.026.026ZM336.491 397.558a119.747 119.747 0 0 0 12.934 2.375.749.749 0 0 1 .654.838.754.754 0 0 1-.839.654 119.545 119.545 0 0 1-13.102-2.411.746.746 0 0 1-.547-.882.733.733 0 0 1 .328-.479.738.738 0 0 1 .572-.095ZM362.536 400.612a70.475 70.475 0 0 0 6.534-.477 28.39 28.39 0 0 0 6.277-1.421.763.763 0 0 1 .618-.012.77.77 0 0 1 .386 1.064.767.767 0 0 1-.483.387 30.3 30.3 0 0 1-6.622 1.492 71.756 71.756 0 0 1-6.674.485.759.759 0 1 1 0-1.518h-.036ZM384.176 390.388c.667-2.018.983-4.135.935-6.259a32.828 32.828 0 0 0-.759-6.41.782.782 0 0 1 .106-.582.768.768 0 0 1 .787-.341.763.763 0 0 1 .497.32.774.774 0 0 1 .12.276c.483 2.208.747 4.459.786 6.719a19.868 19.868 0 0 1-1.033 6.78.765.765 0 0 1-.688.587.778.778 0 0 1-.589-.21.77.77 0 0 1-.238-.578.762.762 0 0 1 .076-.311v.009ZM380.211 365.323c-1.766-4.017-3.77-7.946-5.916-11.76a.794.794 0 0 1-.072-.593.776.776 0 0 1 .657-.566.8.8 0 0 1 .576.16.774.774 0 0 1 .199.231 130.484 130.484 0 0 1 5.977 11.91.78.78 0 0 1-.992.991.772.772 0 0 1-.429-.373ZM367.462 342.272l-7.46-10.895a.79.79 0 0 1 .263-1.018.792.792 0 0 1 1.043.135l7.496 10.965a.787.787 0 0 1-1.298.883l-.044-.07ZM352.295 320.606l-7.575-10.869a.798.798 0 0 1 .153-1.181.8.8 0 0 1 .943.039.79.79 0 0 1 .21.26l7.522 10.832a.79.79 0 0 1 .102.954.789.789 0 0 1-.55.374.797.797 0 0 1-.849-.445l.044.036ZM337.506 298.561c-2.287-3.787-4.467-7.663-6.454-11.636a.81.81 0 0 1 .367-1.082.808.808 0 0 1 1.081.367c1.96 3.92 4.114 7.76 6.383 11.521a.807.807 0 0 1-.273 1.104.802.802 0 0 1-1.104-.274ZM325.781 274.679a73.255 73.255 0 0 1-3.364-12.951.823.823 0 1 1 1.625-.256 70.755 70.755 0 0 0 3.275 12.687.816.816 0 1 1-1.536.547v-.027ZM322.197 248.247a17.316 17.316 0 0 1 2.649-6.375 16.777 16.777 0 0 1 5.058-4.714.833.833 0 0 1 .883 1.412 15.11 15.11 0 0 0-4.564 4.247 15.48 15.48 0 0 0-2.41 5.765.828.828 0 0 1-.976.64.823.823 0 0 1-.64-.975ZM342.857 233.283a72.697 72.697 0 0 1 13.375 0 .837.837 0 0 1 .444 1.45.838.838 0 0 1-.576.218 72.752 72.752 0 0 0-13.076-.044.828.828 0 0 1-.715-1.345.826.826 0 0 1 .548-.306v.027ZM369.44 235.118l12.996 2.825a.884.884 0 1 1 .03 1.763.874.874 0 0 1-.392-.112h-.044l-12.89-2.807h-.053a.845.845 0 0 1-.532-.363.826.826 0 0 1-.112-.635.874.874 0 0 1 .367-.531.878.878 0 0 1 .63-.14ZM395.245 241.351c2.128.574 4.238 1.156 6.365 1.712l6.437 1.598a.884.884 0 0 1 .626 1.033.878.878 0 0 1-1.033.627l-6.418-1.589a282.252 282.252 0 0 1-6.418-1.766.884.884 0 0 1-.091-1.457.885.885 0 0 1 .532-.185v.027ZM420.868 248.042l12.766 3.585a.885.885 0 0 1 .453 1.027.881.881 0 0 1-.921.642l-12.731-3.594a.878.878 0 0 1-.827-.725.882.882 0 0 1 1.286-.935h-.026ZM446.347 255.335l12.704 3.761a.88.88 0 0 1 .583 1.095.884.884 0 0 1-1.086.583l-12.687-3.77a.885.885 0 0 1 .486-1.669ZM471.747 262.85l12.714 3.672a.884.884 0 0 1 .183 1.615.882.882 0 0 1-.669.08l-12.731-3.69a.882.882 0 0 1 .486-1.686l.017.009ZM497.21 270.061l12.801 3.32a.882.882 0 0 1-.432 1.686l-12.837-3.32a.884.884 0 0 1-.279-1.651.885.885 0 0 1 .711-.053l.036.018ZM522.883 276.418l12.943 2.648a.882.882 0 0 1-.345 1.695l-13.004-2.648a.888.888 0 0 1-.542-1.001.883.883 0 0 1 .895-.703l.053.009ZM548.848 281.328l13.057 1.704a.876.876 0 0 1 .945.593.876.876 0 0 1-.39 1.045.885.885 0 0 1-.775.057l-13.093-1.739a.892.892 0 0 1-.929-.599.877.877 0 0 1 .758-1.159.881.881 0 0 1 .391.054l.036.044ZM575.086 284.117a38.752 38.752 0 0 0 12.829-1.307.875.875 0 0 1 .787-.099.877.877 0 0 1 .549.574.877.877 0 0 1-.445 1.046.883.883 0 0 1-.397.095 40.329 40.329 0 0 1-13.402 1.386.894.894 0 0 1-.769-.175.883.883 0 0 1 .84-1.52h.008ZM596.885 275.041a12.82 12.82 0 0 0 .088-6.18 24.928 24.928 0 0 0-2.216-5.986.844.844 0 0 1 .342-1.174.837.837 0 0 1 1.15.415 25.97 25.97 0 0 1 2.366 6.4 14.307 14.307 0 0 1-.106 6.966.877.877 0 0 1-.429.337.876.876 0 0 1-.998-.283.879.879 0 0 1-.188-.513l-.009.018ZM587.208 252.254l-8.793-9.88a.827.827 0 0 1 .123-1.105.832.832 0 0 1 1.113.011l8.828 9.897a.817.817 0 0 1 .209.601.841.841 0 0 1-.875.789.81.81 0 0 1-.57-.278l-.035-.035ZM569.313 232.805l-9.314-9.394a.808.808 0 0 1 0-1.156.81.81 0 0 1 .262-.179.815.815 0 0 1 .623 0 .799.799 0 0 1 .262.179l9.341 9.402a.822.822 0 0 1-.583 1.41.801.801 0 0 1-.316-.068.807.807 0 0 1-.266-.185l-.009-.009ZM550.57 214.123l-9.429-9.297a.791.791 0 0 1-.241-.567.808.808 0 0 1 1.371-.58l9.438 9.288a.81.81 0 0 1 .251.916.808.808 0 0 1-.79.528.82.82 0 0 1-.591-.288h-.009ZM531.792 195.415l-9.155-9.544a.786.786 0 0 1-.203-.265.803.803 0 0 1 1.359-.839l9.138 9.553a.801.801 0 0 1 .236.565.803.803 0 0 1-1.375.565v-.035ZM513.771 175.948l-4.265-5.085c-.706-.883-1.43-1.678-2.119-2.552l-2.039-2.649a.785.785 0 0 1 1.013-1.163c.09.051.169.119.232.201l2.004 2.596c.68.883 1.412 1.686 2.11 2.534l4.247 5.058a.808.808 0 0 1-.106 1.122.787.787 0 0 1-1.113-.097l.036.035ZM497.818 154.679l-6.833-11.38a.773.773 0 0 1 .265-1.068.774.774 0 0 1 1.068.265v.044l6.789 11.283v.044a.787.787 0 0 1-1.342.812h.053ZM485.008 131.405a57.22 57.22 0 0 1-4.141-12.748.77.77 0 0 1 1.402-.543.757.757 0 0 1 .108.278 55.603 55.603 0 0 0 4.043 12.36.777.777 0 0 1-1.421.618l.009.035ZM485.723 106.572a15.698 15.698 0 0 1 6.904-.353 41.07 41.07 0 0 1 6.568 1.536.767.767 0 0 1 .534.658.76.76 0 0 1-.984.799 39.717 39.717 0 0 0-6.321-1.483 14.33 14.33 0 0 0-6.18.291.772.772 0 0 1-.612-.016.775.775 0 0 1-.405-.457.762.762 0 0 1 .056-.609.787.787 0 0 1 .203-.238.783.783 0 0 1 .281-.137l-.044.009ZM511.379 113.219l11.716 6.18a.756.756 0 0 1 .313 1.02.75.75 0 0 1-1.019.314l-11.707-6.181a.76.76 0 0 1 .706-1.341l-.009.008ZM534.776 125.633l11.689 6.18a.74.74 0 0 1 .252.967.742.742 0 0 1-.941.339l-11.706-6.18a.74.74 0 0 1-.309-1.006.74.74 0 0 1 1.006-.309l.009.009ZM558.198 137.861l11.813 5.942a.715.715 0 0 1 .39.405.702.702 0 0 1-.029.561.7.7 0 0 1-.43.362.71.71 0 0 1-.558-.065l-11.839-5.916a.72.72 0 0 1-.318-.971.7.7 0 0 1 .693-.395.7.7 0 0 1 .269.077h.009ZM581.903 149.576l11.998 5.571a.68.68 0 0 1-.574 1.228l-11.998-5.545a.691.691 0 0 1-.345-.883.701.701 0 0 1 .883-.344l.036-.027ZM606.05 160.453l12.254 4.979a.686.686 0 0 1 .217.148.685.685 0 0 1 .191.478.67.67 0 0 1-.055.257.631.631 0 0 1-.364.371.648.648 0 0 1-.519-.018l-12.298-4.962a.652.652 0 0 1-.371-.883.672.672 0 0 1 .883-.37h.062ZM630.69 169.978l12.625 3.876a.638.638 0 0 1 .415.786.594.594 0 0 1-.116.212.61.61 0 0 1-.661.194l-12.705-3.876a.636.636 0 1 1 .371-1.218l.071.026ZM656.171 176.715a71.562 71.562 0 0 0 13.067 1.13.594.594 0 0 1 .47.146.61.61 0 0 1 .203.45.611.611 0 0 1-.203.449.611.611 0 0 1-.47.147 73.591 73.591 0 0 1-13.27-1.113.61.61 0 0 1-.503-.697.617.617 0 0 1 .706-.503v-.009ZM681.817 175.153a15.205 15.205 0 0 0 4.927-3.982 16.33 16.33 0 0 0 2.852-5.677.557.557 0 0 1 .264-.356.556.556 0 0 1 .44-.056.576.576 0 0 1 .345.279.576.576 0 0 1 .036.442 17.087 17.087 0 0 1-3.045 6.083 16.268 16.268 0 0 1-5.298 4.3.58.58 0 0 1-.771-.255.585.585 0 0 1 .233-.778h.017ZM690.001 152.579c-.167-1.077-.335-2.163-.556-3.24-.221-1.077-.424-2.154-.671-3.222a99.362 99.362 0 0 0-1.651-6.375c-.02-.067-.027-.139-.02-.209a.55.55 0 0 1 .382-.462.552.552 0 0 1 .411.042.554.554 0 0 1 .26.32 107.593 107.593 0 0 1 1.686 6.445c.248 1.078.477 2.163.68 3.258.203 1.095.398 2.181.574 3.284a.566.566 0 0 1-.077.44.55.55 0 0 1-.375.241.544.544 0 0 1-.432-.111.556.556 0 0 1-.211-.393v-.018ZM682.719 127.31c-1.686-4.062-3.576-8.035-5.606-11.937a.512.512 0 0 1 .883-.477 153.59 153.59 0 0 1 5.668 12.016.522.522 0 0 1 .006.398.504.504 0 0 1-.28.282.518.518 0 0 1-.575-.111.518.518 0 0 1-.114-.171h.018ZM670.606 103.87l-7.063-11.142a.493.493 0 0 1-.103-.383.475.475 0 0 1 .407-.404.488.488 0 0 1 .508.266l7.151 11.168a.471.471 0 0 1-.007.549.471.471 0 0 1-.143.131.482.482 0 0 1-.548-.009.493.493 0 0 1-.132-.141l-.07-.035ZM656.011 81.806l-7.637-10.815a.47.47 0 0 1 .115-.636.44.44 0 0 1 .627.115l7.663 10.806a.464.464 0 0 1-.137.612.466.466 0 0 1-.622-.073l-.009-.01ZM640.808 60.115l-7.257-11.088a.418.418 0 0 1-.056-.309.396.396 0 0 1 .18-.256.413.413 0 0 1 .565.114l7.292 11.045a.448.448 0 0 1-.123.61.443.443 0 0 1-.61-.124l.009.008ZM634.478 40.427a51.84 51.84 0 0 1 6.357 2.049c2.074.794 4.114 1.65 6.18 2.534a.361.361 0 0 1 .185.476.356.356 0 0 1-.332.216.354.354 0 0 1-.136-.03 134.56 134.56 0 0 0-6.127-2.49 49.991 49.991 0 0 0-6.259-1.995.382.382 0 0 1-.297-.309.381.381 0 0 1 .068-.29.38.38 0 0 1 .405-.153l-.044-.008ZM659.022 50.589l11.883 5.844a.3.3 0 0 1 .141.415.305.305 0 0 1-.176.161.303.303 0 0 1-.239-.02l-11.91-5.8a.341.341 0 0 1-.191-.322.336.336 0 0 1 .483-.287l.009.009ZM683.195 61.254l12.528 4.238a.274.274 0 0 1 .168.336.267.267 0 0 1-.336.159l-12.572-4.194a.282.282 0 0 1-.194-.248.292.292 0 0 1 .067-.206.292.292 0 0 1 .304-.085h.035ZM708.507 68.846c4.306.944 8.663 1.634 13.049 2.066a.211.211 0 0 1 .185.147.21.21 0 0 1 .01.082.221.221 0 0 1-.23.195 113.311 113.311 0 0 1-13.111-2.031.239.239 0 0 1 .097-.46ZM734.746 71.099a49.35 49.35 0 0 0 12.881-2.72.16.16 0 0 1 .115.3 50.198 50.198 0 0 1-12.961 2.79.195.195 0 0 1-.203-.168.179.179 0 0 1 .042-.137.185.185 0 0 1 .126-.066ZM759.025 61.828a34.168 34.168 0 0 0 4.626-4.697 38.615 38.615 0 0 0 3.691-5.456.093.093 0 0 1 .027-.035.104.104 0 0 1 .082-.024.11.11 0 0 1 .041.015c.01.01.018.021.023.034a.113.113 0 0 1 .008.04.112.112 0 0 1-.008.041.098.098 0 0 1-.023.035 39.001 39.001 0 0 1-3.699 5.509 35.117 35.117 0 0 1-4.635 4.74.139.139 0 0 1-.097.043.139.139 0 0 1-.098-.042.142.142 0 0 1 0-.186l.062-.017ZM772.215 39.42a95.478 95.478 0 0 0 2.463-12.986s0-.053.062-.053a.068.068 0 0 1 .038.026c.01.013.015.028.014.044a94.575 94.575 0 0 1-2.436 13.014.096.096 0 0 1 .003.041.078.078 0 0 1-.016.038.089.089 0 0 1-.071.037.092.092 0 0 1-.072-.036.088.088 0 0 1-.015-.039.096.096 0 0 1 .003-.041l.027-.044Z"/><path fill="#000" d="m485.419 283.314 35.7 20.611v-20.611l-35.7-20.611v20.611Z"/><path fill="#F1EFED" d="M521.119 283.314v20.611l35.699-20.611v-20.611l-35.699 20.611ZM485.419 262.703l35.7 20.611 35.699-20.611-35.699-20.611-35.7 20.611Z"/><path fill="#000" d="M485.419 283.314h-1c0 .357.191.687.5.866l.5-.866Zm35.7 20.611-.5.866a.998.998 0 0 0 1 0l-.5-.866Zm-35.7-41.222-.5-.866a1 1 0 0 0-.5.866h1Zm71.399 20.611.5.866c.309-.179.5-.509.5-.866h-1Zm0-20.611h1a1 1 0 0 0-.5-.866l-.5.866Zm-35.699-20.611.5-.866a.998.998 0 0 0-1 0l.5.866Zm-36.2 42.088 35.7 20.611 1-1.732-35.7-20.611-1 1.732Zm37.2 19.745v-20.611h-2v20.611h2Zm-.5-21.477-35.7-20.611-1 1.732 35.7 20.611 1-1.732Zm-37.2-19.745v20.611h2v-20.611h-2Zm37.2 42.088 35.699-20.611-1-1.732-35.699 20.611 1 1.732Zm36.199-21.477v-20.611h-2v20.611h2Zm-1.5-21.477-35.699 20.611 1 1.732 35.699-20.611-1-1.732Zm-70.399 1.732 35.7-20.611-1-1.732-35.7 20.611 1 1.732Zm34.7-20.611 35.699 20.611 1-1.732-35.699-20.611-1 1.732Z"/></svg>
