<svg xmlns="http://www.w3.org/2000/svg" width="117" height="115" fill="none" viewBox="0 0 117 115"><path fill="#000" d="m24.286 91.123-7.016 22.264 91.195-20.236 7.016-22.264-91.195 20.236Z"/><path stroke="#000" stroke-linecap="round" stroke-linejoin="round" stroke-miterlimit="10" stroke-width="2" d="M8.498 73.9 1.477 96.183l15.787 17.223.006-.019M8.498 73.9l15.788 17.223M8.498 73.9l45.618-10.122-31.575-34.445L29.562 7.05M8.498 73.9l68.426-15.183L29.562 7.05m-5.276 84.073-7.016 22.264m7.016-22.264 91.195-20.236M29.563 7.05 52.37 1.989l47.361 51.667 15.787 17.222-.038.009m-98.21 42.5 91.194-20.236 7.016-22.264m-98.21 42.5-.039.009 7.021-22.284 91.234-20.244-.006.019"/></svg>
