<svg xmlns="http://www.w3.org/2000/svg" width="772" height="858" fill="none" viewBox="0 0 772 858"><path fill="#000" d="m386.652 811.259-12.666-1.055 12.666 1.055ZM361.311 809.195l-12.654-1.088a.07.07 0 0 1-.049-.01.064.064 0 0 1-.028-.042c-.003-.008-.004-.017-.003-.026a.07.07 0 0 1 .01-.025.047.047 0 0 1 .019-.018.06.06 0 0 1 .026-.008l12.665 1.146c.011 0 .021.003.03.009a.045.045 0 0 1 .019.024.044.044 0 0 1-.011.025.044.044 0 0 1-.024.013ZM336.011 806.84l-12.62-1.473a.141.141 0 0 1-.044-.014.131.131 0 0 1-.036-.03.128.128 0 0 1-.021-.042c-.004-.015-.005-.031-.004-.046a.139.139 0 0 1 .014-.045.105.105 0 0 1 .031-.035.125.125 0 0 1 .041-.022.123.123 0 0 1 .047-.003l12.604 1.524a.098.098 0 0 1 .067.038c.017.02.025.047.022.073a.1.1 0 0 1-.038.055.1.1 0 0 1-.063.02ZM310.808 803.613l-12.54-2.105a.178.178 0 0 1-.143-.198.178.178 0 0 1 .198-.142l12.52 2.151c.019.003.037.01.053.02s.03.023.04.039a.13.13 0 0 1 .021.052.156.156 0 0 1-.002.057.146.146 0 0 1-.147.126ZM285.813 798.912l-12.319-3.192a.208.208 0 0 1-.134-.095.218.218 0 0 1-.027-.079.211.211 0 0 1 .007-.083.219.219 0 0 1 .262-.161l12.312 3.187a.2.2 0 0 1 .117.09.19.19 0 0 1 .02.146.172.172 0 0 1-.017.086.18.18 0 0 1-.054.068.18.18 0 0 1-.167.033ZM261.424 791.673a93.939 93.939 0 0 1-11.561-5.287.255.255 0 0 1-.128-.157c-.01-.033-.013-.068-.01-.102a.286.286 0 0 1 .031-.099.278.278 0 0 1 .365-.101 92.1 92.1 0 0 0 11.493 5.343.244.244 0 0 1 .135.315.252.252 0 0 1-.325.088ZM239.485 778.933a26.368 26.368 0 0 1-7.055-10.61.3.3 0 0 1 .093-.329.314.314 0 0 1 .498.135 25.814 25.814 0 0 0 6.807 10.401.287.287 0 0 1 .093.201.274.274 0 0 1-.081.206.293.293 0 0 1-.355-.004ZM232.071 755.646a40.272 40.272 0 0 1 5.174-11.668.353.353 0 0 1 .22-.161.362.362 0 0 1 .436.265.34.34 0 0 1-.051.273 39.96 39.96 0 0 0-5.131 11.452.34.34 0 0 1-.404.249.343.343 0 0 1-.207-.154.342.342 0 0 1-.037-.256ZM244.973 733.816c2.839-3.197 5.841-6.181 8.953-9.071a.408.408 0 0 1 .663.158.42.42 0 0 1-.012.313.428.428 0 0 1-.094.129c-3.117 2.866-6.122 5.839-8.934 8.981a.385.385 0 0 1-.414.11.376.376 0 0 1-.129-.077.391.391 0 0 1-.11-.414.376.376 0 0 1 .077-.129ZM263.4 716.25l9.736-8.185a.452.452 0 0 1 .326-.104.43.43 0 0 1 .302.159.443.443 0 0 1-.05.62l-9.734 8.167a.424.424 0 0 1-.597-.055.418.418 0 0 1 .017-.602ZM283.105 700.157l10.159-7.615a.474.474 0 0 1 .749.443.477.477 0 0 1-.182.308l-10.175 7.593a.457.457 0 0 1-.641-.095.454.454 0 0 1-.088-.336.452.452 0 0 1 .178-.298ZM303.63 685.119l10.503-7.229a.482.482 0 0 1 .683.123.482.482 0 0 1 .081.372.487.487 0 0 1-.209.318l-10.507 7.206a.466.466 0 0 1-.531.01.47.47 0 0 1-.133-.13.476.476 0 0 1 .113-.67ZM324.71 670.884l10.696-6.895a.532.532 0 0 1 .415-.111.536.536 0 0 1 .437.441.543.543 0 0 1-.014.22.542.542 0 0 1-.276.33l-10.696 6.864a.507.507 0 0 1-.742-.534.507.507 0 0 1 .191-.317l-.011.002ZM346.123 657.181l10.798-6.713a.551.551 0 1 1 .586.936l-10.81 6.685a.529.529 0 0 1-.404.065.528.528 0 0 1-.405-.435.54.54 0 0 1 .094-.398.532.532 0 0 1 .153-.142l-.012.002ZM367.783 643.828l10.836-6.648a.562.562 0 0 1 .435-.069.575.575 0 0 1 .353.263.575.575 0 0 1-.187.794l-10.847 6.619a.558.558 0 0 1-.633-.023.576.576 0 0 1-.149-.166.548.548 0 0 1 .027-.625.559.559 0 0 1 .165-.145ZM389.441 630.523l10.791-6.718a.605.605 0 0 1 .811.862.587.587 0 0 1-.172.161l-10.81 6.685a.584.584 0 0 1-.886-.405.587.587 0 0 1 .271-.592l-.005.007ZM411.189 617.312l11.106-6.199a.636.636 0 0 1 .913.729.628.628 0 0 1-.3.379l-11.108 6.157a.626.626 0 0 1-.699-.058.608.608 0 0 1 .088-1.008ZM433.453 605.019l11.124-6.136a.66.66 0 0 1 .899.258.66.66 0 0 1-.258.899l-11.146 6.122a.635.635 0 0 1-.507.085.657.657 0 0 1-.408-.313.655.655 0 0 1-.048-.512.647.647 0 0 1 .341-.384l.003-.019ZM455.603 592.59l10.864-6.567a.685.685 0 0 1 .941.226.69.69 0 0 1-.237.943l-10.868 6.575a.675.675 0 0 1-1.001-.739.672.672 0 0 1 .306-.414l-.005-.024ZM477.064 579.061l10.226-7.488.024-.035a.704.704 0 0 1 .989.156.713.713 0 0 1-.148.993l-10.309 7.503a.705.705 0 0 1-.788.052.694.694 0 0 1-.029-1.175l.035-.006ZM496.958 563.413a114.94 114.94 0 0 0 8.829-9.022.722.722 0 0 1 1.088.948 114.63 114.63 0 0 1-8.947 9.137.722.722 0 0 1-1.137-.833.73.73 0 0 1 .167-.23ZM513.361 544.319a67.405 67.405 0 0 0 3.125-5.456 27.294 27.294 0 0 0 2.236-5.759.743.743 0 0 1 .907-.599.739.739 0 0 1 .518.956 29.13 29.13 0 0 1-2.365 6.071 69.048 69.048 0 0 1-3.193 5.574.732.732 0 0 1-1.012.197.73.73 0 0 1-.197-1.012l-.019.028ZM516.83 521.61a17.816 17.816 0 0 0-4.481-4.103 31.58 31.58 0 0 0-5.509-2.834.746.746 0 0 1-.406-.396.722.722 0 0 1-.06-.283.726.726 0 0 1 .21-.527.748.748 0 0 1 .806-.171c2.017.8 3.949 1.797 5.769 2.979a19.065 19.065 0 0 1 4.844 4.459.736.736 0 0 1-.973 1.098.748.748 0 0 1-.207-.227l.007.005ZM494.752 511.321c-4.145-.749-8.348-1.261-12.535-1.599a.75.75 0 0 1 .118-1.495c4.254.327 8.489.872 12.687 1.631a.743.743 0 0 1 .546.857.741.741 0 0 1-.816.606ZM469.563 509.104l-12.674.094a.759.759 0 0 1-.669-.755.761.761 0 0 1 .667-.758l12.749-.085a.75.75 0 0 1 .721.75.753.753 0 0 1-.714.757l-.08-.003ZM444.182 509.557l-12.715.2a.765.765 0 0 1-.791-1.07.761.761 0 0 1 .789-.444l12.658-.177a.768.768 0 0 1 .616.171.763.763 0 0 1-.609 1.336l.052-.016ZM418.7 509.504c-4.241-.211-8.496-.555-12.724-1.104a.777.777 0 0 1-.366-1.385.78.78 0 0 1 .573-.152c4.172.543 8.385.888 12.596 1.099a.774.774 0 0 1 .478 1.344.775.775 0 0 1-.557.198ZM393.4 506.027a70.316 70.316 0 0 1-12.114-4.27.786.786 0 0 1-.381-1.049.786.786 0 0 1 1.049-.381 67.91 67.91 0 0 0 11.856 4.197.784.784 0 0 1 .204 1.432.784.784 0 0 1-.593.085l-.021-.014ZM370.436 494.701a16.643 16.643 0 0 1-3.654-5.528 16.094 16.094 0 0 1-1.039-6.556.797.797 0 0 1 .827-.771.798.798 0 0 1 .771.826 14.503 14.503 0 0 0 .932 5.912 14.886 14.886 0 0 0 3.297 5.011.796.796 0 0 1-.577 1.345.794.794 0 0 1-.557-.239ZM369.606 470.228a69.856 69.856 0 0 1 7.175-10.647.803.803 0 0 1 1.097-.088.804.804 0 0 1 .16 1.089 69.738 69.738 0 0 0-7.049 10.384.793.793 0 0 1-1.071.312.797.797 0 0 1-.333-1.064l.021.014ZM385.327 450.052l9.22-8.83a.84.84 0 0 1 1.022-.38.843.843 0 0 1 .551.942.856.856 0 0 1-.453.612l-.024.035-9.149 8.755-.028.042a.805.805 0 0 1-1.14-.022.846.846 0 0 1 .001-1.154ZM404.13 432.853c1.598-1.386 3.194-2.753 4.778-4.148l4.724-4.266a.849.849 0 0 1 1.159.055.848.848 0 0 1-.055 1.158l-4.708 4.257a280 280 0 0 1-4.848 4.162.85.85 0 0 1-1.003-.21.849.849 0 0 1-.068-1.022l.021.014ZM423.202 416.048l9.701-8.24a.849.849 0 0 1 1.078 1.267l-9.69 8.207a.854.854 0 0 1-.651.341.846.846 0 0 1-.709-1.351.855.855 0 0 1 .285-.246l-.014.022ZM442.673 399.677l9.809-8.096a.849.849 0 0 1 1.184.123.847.847 0 0 1-.119 1.177l-9.806 8.077a.845.845 0 0 1-1.069-.194.846.846 0 0 1 .001-1.087ZM462.28 383.488l9.743-8.15a.845.845 0 0 1 1.383.721.846.846 0 0 1-.294.575l-9.767 8.155a.848.848 0 0 1-1.082-1.291l.017-.01ZM481.679 367.089l9.509-8.41a.852.852 0 0 1 1.083.156.844.844 0 0 1 .027 1.093l-9.528 8.438a.846.846 0 0 1-1.464-.663.84.84 0 0 1 .34-.595l.033-.019ZM500.511 350.062l9.051-8.882a.843.843 0 0 1 1.064.116.848.848 0 0 1 .1 1.067l-9.084 8.931a.846.846 0 0 1-1.326-.636.853.853 0 0 1 .159-.559l.036-.037ZM518.346 332.025l8.36-9.48a.854.854 0 0 1 .979-.434.85.85 0 0 1 .623.871.847.847 0 0 1-.371.648l-8.407 9.49a.854.854 0 0 1-.597.435.847.847 0 0 1-.641-1.525l.054-.005ZM534.641 312.636a37.202 37.202 0 0 0 5.841-10.913.842.842 0 0 1 .343-.68.842.842 0 0 1 .752-.129.85.85 0 0 1 .551.526.844.844 0 0 1-.095.756 38.713 38.713 0 0 1-6.085 11.412.853.853 0 0 1-.552.518.844.844 0 0 1-1.005-1.182.842.842 0 0 1 .245-.301l.005-.007ZM539.109 290.416a12.315 12.315 0 0 0-4.872-3.386 24.041 24.041 0 0 0-5.954-1.447.8.8 0 0 1-.751-.901.793.793 0 0 1 .324-.552.796.796 0 0 1 .623-.142c2.181.235 4.32.757 6.365 1.55a13.751 13.751 0 0 1 5.488 3.821.852.852 0 0 1-.238.968.846.846 0 0 1-.994.072l.009.017ZM515.78 285.895l-12.581 1.701a.794.794 0 0 1-.814-.692.796.796 0 0 1 .605-.879l12.614-1.719a.787.787 0 0 1 .797.39.818.818 0 0 1 .1.296.79.79 0 0 1-.148.59.785.785 0 0 1-.526.304l-.047.009ZM490.698 289.708l-12.473 2.376a.774.774 0 0 1-.591-.118.77.77 0 0 1-.33-.502.764.764 0 0 1 .116-.587.776.776 0 0 1 .5-.327l12.495-2.392a.794.794 0 0 1 .818.336.776.776 0 0 1-.009.884.795.795 0 0 1-.514.328l-.012.002ZM465.774 294.607l-12.459 2.519a.763.763 0 0 1-.58-.113.749.749 0 0 1-.214-.213.76.76 0 0 1-.118-.579.77.77 0 0 1 .605-.61l12.456-2.531a.775.775 0 0 1 .627.073.796.796 0 0 1 .367.514.777.777 0 0 1-.134.617.773.773 0 0 1-.546.316l-.004.007ZM440.809 299.52l-12.509 2.168a.762.762 0 0 1-.619-.092.784.784 0 0 1-.347-.521.78.78 0 0 1 .401-.812c.095-.05.2-.08.307-.087l12.506-2.15a.757.757 0 0 1 .787.328.766.766 0 0 1 .112.58.783.783 0 0 1-.331.491.773.773 0 0 1-.279.114l-.028-.019ZM415.646 303.422l-6.335.666c-1.082.089-2.103.239-3.168.319l-3.202.202a.742.742 0 0 1-.547-.186.748.748 0 0 1-.217-.81.756.756 0 0 1 .666-.511l3.141-.203c1.067-.067 2.1-.22 3.149-.32l6.305-.667a.77.77 0 0 1 .672 1.243.756.756 0 0 1-.511.276l.047-.009ZM390.159 304.712l-12.724-.665a.748.748 0 1 1 .075-1.492l.035.024 12.624.648.035.023a.754.754 0 0 1-.074 1.504l.029-.042ZM364.761 302.426a55.003 55.003 0 0 1-12.37-3.543.734.734 0 0 1-.366-.972.723.723 0 0 1 .687-.435.718.718 0 0 1 .278.063 53.408 53.408 0 0 0 12.008 3.412.743.743 0 0 1 .547.857.75.75 0 0 1-.817.606l.033.012ZM345.376 288.537a15.054 15.054 0 0 1 3.422-5.686 39.406 39.406 0 0 1 4.746-4.404.74.74 0 0 1 .537-.158.725.725 0 0 1 .624.522.736.736 0 0 1-.06.556.732.732 0 0 1-.183.22 38.103 38.103 0 0 0-4.571 4.236 13.737 13.737 0 0 0-3.083 5.076.75.75 0 0 1-.341.478.737.737 0 0 1-1.075-.88l-.016.04ZM364.431 271.679l11.203-6.011a.727.727 0 0 1 .98.298.724.724 0 0 1-.297.98l-11.199 6.004a.736.736 0 0 1-.54.033.732.732 0 0 1-.15-1.316l.003.012ZM386.861 259.712l11.19-5.989a.707.707 0 0 1 .905.318.71.71 0 0 1-.234.931l-11.199 6.004a.718.718 0 0 1-.967-.294.714.714 0 0 1 .294-.967l.011-.003ZM409.158 247.628l11.066-6.216a.685.685 0 0 1 .532-.094.68.68 0 0 1 .355 1.102.69.69 0 0 1-.218.168l-11.059 6.251a.697.697 0 0 1-1.01-.792.673.673 0 0 1 .329-.412l.005-.007ZM431.199 235.043l10.87-6.563a.654.654 0 0 1 .927.717.654.654 0 0 1-.258.398l-10.849 6.577a.658.658 0 0 1-.887-.2.666.666 0 0 1 .199-.887l-.002-.042ZM452.81 221.655l10.537-7.084a.648.648 0 0 1 .893.193.62.62 0 0 1-.193.892l-10.546 7.128a.619.619 0 0 1-.49.108.634.634 0 0 1-.412-.286.646.646 0 0 1 .178-.902l.033-.049ZM473.61 207.15l9.857-7.971a.61.61 0 0 1 .848.091.599.599 0 0 1 .128.438.597.597 0 0 1-.221.398l-9.9 8.034a.605.605 0 0 1-.676.064.614.614 0 0 1-.248-.829.628.628 0 0 1 .153-.183l.059-.042ZM492.641 190.48a68.74 68.74 0 0 0 7.908-9.795.569.569 0 0 1 .369-.296.564.564 0 0 1 .466.08.57.57 0 0 1 .25.402.578.578 0 0 1-.136.453 70.58 70.58 0 0 1-8.004 9.966.583.583 0 1 1-.846-.805l-.007-.005ZM505.153 169.226a14.59 14.59 0 0 0-.527-6.058 15.659 15.659 0 0 0-2.989-5.315.53.53 0 0 1-.142-.401.547.547 0 0 1 .192-.38.531.531 0 0 1 .614-.059.52.52 0 0 1 .164.142 16.4 16.4 0 0 1 3.209 5.687c.653 2.109.851 4.332.581 6.523a.562.562 0 0 1-.617.477.558.558 0 0 1-.494-.602l.009-.014ZM491.573 150.604c-.947-.444-1.901-.893-2.877-1.295-.976-.402-1.942-.818-2.925-1.194a95.072 95.072 0 0 0-5.96-2.105.519.519 0 0 1 .107-1.01.507.507 0 0 1 .201.022c2.03.642 4.048 1.348 6.035 2.114.99.381 1.978.781 2.958 1.207.98.425 1.949.853 2.922 1.305a.526.526 0 0 1 .309.297.525.525 0 0 1-.009.428.533.533 0 0 1-.746.241l-.015-.01ZM467.553 142.847c-4.137-.837-8.313-1.464-12.508-1.94a.497.497 0 0 1-.345-.518.493.493 0 0 1 .439-.441c4.223.465 8.451 1.107 12.605 1.933a.498.498 0 0 1 .32.209.488.488 0 0 1 .074.374.487.487 0 0 1-.213.323.496.496 0 0 1-.381.074l.009-.014ZM442.398 139.916l-12.658-.354a.471.471 0 0 1-.361-.124.453.453 0 0 1-.147-.351.46.46 0 0 1 .529-.451l12.726.298c.063 0 .125.012.182.037a.45.45 0 0 1 .251.263.464.464 0 0 1 .028.184.467.467 0 0 1-.484.461l-.066.037ZM417.005 139.698l-12.706.278a.448.448 0 0 1-.416-.6.429.429 0 0 1 .399-.27l12.713-.303a.45.45 0 0 1 .022.893l-.012.002ZM391.583 140.165l-12.72-.171a.385.385 0 0 1-.276-.121.39.39 0 0 1-.108-.28.401.401 0 0 1 .395-.389l12.703.12a.432.432 0 0 1 .419.425.423.423 0 0 1-.425.418l.012-.002ZM372.515 134.643a49.74 49.74 0 0 1 5.04-3.961c1.746-1.226 3.521-2.39 5.332-3.561a.35.35 0 0 1 .529.233.331.331 0 0 1-.003.133.334.334 0 0 1-.15.214 129.478 129.478 0 0 0-5.269 3.542 48.285 48.285 0 0 0-4.946 3.913.36.36 0 0 1-.404.07.352.352 0 0 1-.117-.085.364.364 0 0 1-.077-.124.37.37 0 0 1 .096-.404l-.031.03ZM393.77 120.558l11.026-6.325a.315.315 0 0 1 .111-.04.302.302 0 0 1 .116.007.315.315 0 0 1 .105.053.308.308 0 0 1 .075.09c.02.034.034.071.04.111a.302.302 0 0 1-.007.116.306.306 0 0 1-.053.105.3.3 0 0 1-.091.075l-11.005 6.369a.323.323 0 0 1-.246.034.326.326 0 0 1-.24-.269.315.315 0 0 1 .008-.126.316.316 0 0 1 .149-.198l.012-.002ZM415.226 107.035l10.094-7.7a.262.262 0 0 1 .357.047.254.254 0 0 1-.054.352l-10.082 7.758a.28.28 0 0 1-.094.048.272.272 0 0 1-.287-.096.266.266 0 0 1-.055-.2.256.256 0 0 1 .033-.101.28.28 0 0 1 .069-.08l.019-.028ZM434.847 90.958a107.85 107.85 0 0 0 8.644-9.279.205.205 0 0 1 .287-.031.21.21 0 0 1 .072.137.21.21 0 0 1-.04.15 108.775 108.775 0 0 1-8.649 9.347.23.23 0 0 1-.292-.03.23.23 0 0 1-.022-.293ZM450.714 71.28a47.339 47.339 0 0 0 4.745-11.712.156.156 0 0 1 .069-.096.153.153 0 0 1 .212.05.154.154 0 0 1 .02.116 48.208 48.208 0 0 1-4.731 11.813.188.188 0 0 1-.243.072.176.176 0 0 1-.086-.106c-.007-.023-.009-.046-.007-.07a.193.193 0 0 1 .021-.066ZM456.358 46.979a32.864 32.864 0 0 0-1.258-6.202 37.07 37.07 0 0 0-2.363-5.865.095.095 0 0 1-.013-.04.101.101 0 0 1 .024-.078c.01-.01.021-.019.034-.025a.104.104 0 0 1 .077.016c.011.007.02.017.027.028a.101.101 0 0 1 .016.037 37.554 37.554 0 0 1 2.401 5.9 33.718 33.718 0 0 1 1.287 6.232.13.13 0 0 1 .002.052.126.126 0 0 1-.106.103.135.135 0 0 1-.147-.1l.019-.058ZM445.596 24.462a91.462 91.462 0 0 0-9.016-8.927s-.042-.029-.009-.078a.066.066 0 0 1 .041-.017c.016 0 .031.004.043.013a90.78 90.78 0 0 1 9.052 8.92.087.087 0 0 1 .057.052.088.088 0 0 1 .004.04.082.082 0 0 1-.013.037.09.09 0 0 1-.068.037.085.085 0 0 1-.07-.032l-.021-.045ZM357.945 618.433l22.172-2.708 8.74-20.556-22.172 2.708-8.74 20.556Z"/><path fill="#F1EFED" d="m380.117 615.725-22.172 2.708 26.862 35.695 22.172-2.709-26.862-35.694ZM388.857 595.169l-8.74 20.556 26.862 35.694 8.741-20.555-26.863-35.695Z"/><path fill="#000" d="m357.945 618.433-.921-.391a1 1 0 0 0 .122.992l.799-.601Zm30.912-23.264.799-.601a.995.995 0 0 0-.92-.391l.121.992Zm-22.172 2.708-.121-.992a1 1 0 0 0-.799.601l.92.391Zm18.122 56.251-.799.601a.999.999 0 0 0 .92.391l-.121-.992Zm22.172-2.709.121.993a.998.998 0 0 0 .799-.601l-.92-.392Zm8.741-20.555.92.391a.998.998 0 0 0-.121-.992l-.799.601Zm-57.654-11.439 22.172-2.708-.243-1.985-22.172 2.708.243 1.985Zm22.971-3.309 8.741-20.555-1.841-.783-8.741 20.555 1.841.783Zm7.699-21.939-22.172 2.708.243 1.985 22.172-2.708-.243-1.985Zm-22.971 3.309-8.741 20.556 1.841.782 8.741-20.555-1.841-.783Zm-8.619 21.548 26.862 35.695 1.598-1.203-26.862-35.694-1.598 1.202Zm27.782 36.086 22.172-2.708-.242-1.985-22.172 2.708.242 1.985Zm22.971-3.309 8.741-20.556-1.841-.782-8.74 20.555 1.84.783Zm8.62-21.548-26.863-35.695-1.598 1.203 26.863 35.694 1.598-1.202Zm-37.201-13.937 26.862 35.695 1.598-1.203-26.862-35.695-1.598 1.203Z"/></svg>
