<svg xmlns="http://www.w3.org/2000/svg" width="144" height="107" fill="none" viewBox="0 0 144 107"><path fill="#000" d="m85.1 83.833-23.437.673-11.14 20.64 23.437-.673 11.14-20.64ZM48.188 23.914l12.306 19.97 23.448-.673 11.14-20.643-46.894 1.346ZM107.412 42.548l23.451-.674 11.143-20.646-23.452.674-11.142 20.646Z"/><path stroke="#000" stroke-linecap="round" stroke-linejoin="round" stroke-miterlimit="10" stroke-width="2" d="M61.663 84.506 12.428 4.616m49.235 79.89 23.436-.673m-23.436.673-11.14 20.64M12.429 4.616l70.353-2.02 12.31 19.972h-.008M12.428 4.615 1.285 25.261l49.235 79.891.004-.006m55.698-103.23L118.53 21.89M106.222 1.916 95.08 22.562l.003.006m11.139-20.652 23.451-.673 12.309 19.972-23.452.674m0 0-11.142 20.646-12.305-19.967m-9.984 61.265-11.139 20.64-23.436.673m34.575-21.313.004-.006-23.451.673-11.142 20.646h.014m34.575-21.313h.014L60.495 43.883m0 0-12.306-19.97 46.895-1.346M60.494 43.884l23.448-.673 11.14-20.643M60.495 43.884h-.003L48.18 23.911l46.904-1.346-.002.003m12.329 19.98 23.451-.674 11.143-20.646-23.452.674-11.142 20.646Z"/></svg>
