<svg xmlns="http://www.w3.org/2000/svg" width="40" height="40" fill="none" viewBox="0 0 40 40"><path fill="#000" d="m17.409 22.73-3.252 3.016L.891 13.448l3.252-3.016 13.266 12.299ZM14.128 1.176l-3.32 3.079 3.32 3.08 3.32-3.08-3.32-3.079ZM17.452 16.65l-3.251-3.015 13.266-12.3 3.253 3.016-13.268 12.298ZM36.68 16.745l-3.321-3.08 3.32-3.077L40 13.665l-3.32 3.08ZM23.37 17.367l3.254-3.015L39.89 26.65l-3.253 3.016L23.37 17.367ZM23.33 35.843l3.214 2.98h.212l3.214-2.98-3.319-3.078-3.322 3.078ZM9.986 35.807l3.252 3.016 13.266-12.3-3.252-3.015L9.986 35.807ZM0 26.55l3.32 3.079 3.321-3.078-3.32-3.079L0 26.551Z"/></svg>
