<svg xmlns="http://www.w3.org/2000/svg" width="12" height="14" fill="none" viewBox="0 0 12 14"><path fill="#F80909" fill-rule="evenodd" d="M3.67.389A.389.389 0 0 1 4.06 0H7.94a.39.39 0 0 1 .389.39v.96H3.67V.388Zm6.384 13.055a.595.595 0 0 1-.597.556H2.499a.6.6 0 0 1-.598-.558l-.595-8.71h9.384l-.636 8.712Zm1.547-9.5H.399V3.04a.903.903 0 0 1 .903-.903h9.396a.904.904 0 0 1 .903.903v.902Zm-7.404 7.98a.394.394 0 1 0 .788 0v-5.53a.394.394 0 0 0-.788 0v5.53Zm2.813 0a.394.394 0 1 0 .79 0v-5.53a.394.394 0 0 0-.79 0v5.53Z" clip-rule="evenodd"/></svg>
