<svg width="29" height="28" viewBox="0 0 29 28" fill="none" xmlns="http://www.w3.org/2000/svg">
<path d="M15.3574 1.12125L18.9143 8.22339C19.0789 8.5517 19.3967 8.78001 19.7662 8.83284L27.7185 9.9725C28.645 10.1046 29.0164 11.2292 28.3445 11.8726L22.5899 17.4011C22.3238 17.6577 22.2013 18.0256 22.2644 18.3879L23.6236 26.1938C23.7825 27.1033 22.8119 27.7977 21.983 27.3693L14.8712 23.6843C14.5419 23.5145 14.1475 23.5145 13.8183 23.6843L6.70448 27.3693C5.87556 27.7995 4.90498 27.1052 5.06387 26.1938L6.42307 18.3879C6.48624 18.0256 6.36372 17.6577 6.09763 17.4011L0.343047 11.8726C-0.328894 11.2273 0.0424922 10.1046 0.969045 9.9725L8.92131 8.83284C9.28887 8.78001 9.60857 8.5517 9.77321 8.22339L13.3301 1.12125C13.7436 0.292917 14.942 0.292917 15.3574 1.12125Z" fill="black"/>
</svg>
