<svg width="20" height="21" viewBox="0 0 20 21" fill="none" xmlns="http://www.w3.org/2000/svg">
<path d="M4.70508 0.5H5.88164V1.67656H4.70508V0.5Z" fill="#535557"/>
<path d="M9.41211 0.5H10.5887V1.67656H9.41211V0.5Z" fill="#535557"/>
<path d="M14.1172 0.5H15.2937V1.67656H14.1172V0.5Z" fill="#535557"/>
<path d="M14.1172 5.20703H15.2937V6.38359H14.1172V5.20703Z" fill="#535557"/>
<path d="M18.8223 2.85234V4.02852H16.4695V5.20508H15.293V1.67578H16.4695V2.85234H18.8223Z" fill="#535557"/>
<path d="M14.1172 1.67578V5.20508H12.9406V4.02852H11.7645V5.20508H10.5879V1.67578H11.7645V2.85234H12.9406V1.67578H14.1172Z" fill="#535557"/>
<path d="M9.41211 5.20703H10.5887V6.38359H9.41211V5.20703Z" fill="#535557"/>
<path d="M9.41211 1.67578V5.20508H8.23555V4.02852H7.05938V5.20508H5.88281V1.67578H7.05938V2.85234H8.23555V1.67578H9.41211Z" fill="#535557"/>
<path d="M4.70703 5.20703H5.88359V6.38359H4.70703V5.20703Z" fill="#535557"/>
<path d="M4.70508 1.67578V5.20508H3.52852V4.02852H1.17578V2.85234H3.52852V1.67578H4.70508Z" fill="#535557"/>
<path d="M3.5293 9.91016H4.70586V11.0867H3.5293V9.91016Z" fill="#535557"/>
<path d="M3.5293 12.2656H4.70586V13.4418H3.5293V12.2656Z" fill="#535557"/>
<path d="M3.5293 14.6172H4.70586V15.7937H3.5293V14.6172Z" fill="#535557"/>
<path d="M5.88281 14.6172H7.05938V15.7937H5.88281V14.6172Z" fill="#535557"/>
<path d="M5.88281 12.2656H7.05938V13.4418H5.88281V12.2656Z" fill="#535557"/>
<path d="M5.88281 9.91016H7.05938V11.0867H5.88281V9.91016Z" fill="#535557"/>
<path d="M8.23438 9.91016H9.41094V11.0867H8.23438V9.91016Z" fill="#535557"/>
<path d="M8.23438 12.2656H9.41094V13.4418H8.23438V12.2656Z" fill="#535557"/>
<path d="M8.23438 14.6172H9.41094V15.7937H8.23438V14.6172Z" fill="#535557"/>
<path d="M14.1172 13.4414H15.2937V14.618H14.1172V13.4414Z" fill="#535557"/>
<path d="M12.9414 14.6172H14.118V15.7937H12.9414V14.6172Z" fill="#535557"/>
<path d="M12.9414 12.2656H14.118V13.4418H12.9414V12.2656Z" fill="#535557"/>
<path d="M11.7656 13.4414H12.9418V14.618H11.7656V13.4414Z" fill="#535557"/>
<path d="M10.5879 12.2656H11.7645V13.4418H10.5879V12.2656Z" fill="#535557"/>
<path d="M11.7656 11.0879H12.9418V12.2645H11.7656V11.0879Z" fill="#535557"/>
<path d="M12.9414 9.91016H14.118V11.0867H12.9414V9.91016Z" fill="#535557"/>
<path d="M14.1172 11.0879H15.2937V12.2645H14.1172V11.0879Z" fill="#535557"/>
<path d="M15.293 12.2656H16.4695V13.4418H15.293V12.2656Z" fill="#535557"/>
<path d="M18.8234 4.0293V7.55898H1.17656V4.0293H0V18.1469H1.17656V19.3234H2.35313V20.5H17.6469V19.3234H18.8234V18.1469H20V4.0293H18.8234ZM18.8234 16.9707H17.6469V18.1469H2.35313V16.9707H1.17656V8.73516H18.8234V16.9707Z" fill="#535557"/>
</svg>
