<svg xmlns="http://www.w3.org/2000/svg" width="375" height="585" fill="none" viewBox="0 0 375 585"><path fill="url(#a)" d="m303.643 546.861 86.953-167.995a15.003 15.003 0 0 0-.003-13.797L230.473 56.092c-2.66-5.133 1.817-12.195-1.577-16.876-1.483-2.044-6.095-2.784-14.424-2.635-.509.01-1.031.022-1.568.038-3.457.1-7.494.336-12.149.68a14.828 14.828 0 0 0-9.555 4.5l-1.497 1.548a11.915 11.915 0 0 0-3.347 8.08 13.494 13.494 0 0 1-3.525 8.874l-90.012 98.653c-10.897 11.942-13.859 28.911-8.079 43.639a42.154 42.154 0 0 0 2.623 5.48L217.522 436.25a6.75 6.75 0 0 1-2.519 9.208 6.75 6.75 0 0 0-2.518 9.208l53.281 93.406a14.003 14.003 0 0 0 11.32 7.04 13.972 13.972 0 0 0 5.525-.783l21.032-7.468Z"/><path fill="#5869DD" d="M212.904 36.619c-2.59-8.07-4.769-13.039-15.858-16.104-5.746-1.588-18.942 7.363-17.401 19.148.12.917.234 1.774.341 2.579v.002c1.268 9.536 1.56 11.727-.733 19.139l3.578-1.082a13.494 13.494 0 0 0 3.525-8.873 11.915 11.915 0 0 1 3.347-8.081l1.497-1.548a14.828 14.828 0 0 1 9.555-4.5c4.655-.344 8.692-.58 12.149-.68Z"/><path fill="url(#b)" d="m92.819 158.954 90.012-98.653-3.578 1.082-35.544 9.335-1.771 1.94-84.598 92.719c-11.586 12.698-14.202 31.079-6.875 46.406l34.275-9.19c-5.78-14.728-2.818-31.697 8.079-43.639Z"/><path fill="#5869DD" d="m188.697 21.076-20.191 7.026a15.002 15.002 0 0 0-8.333 7.927l-9.074 24.915a15.01 15.01 0 0 1-3.013 4.977l-4.377 4.797 35.544-9.335c2.293-7.412 2.001-9.603.733-19.14v-.001c-.107-.805-.221-1.662-.341-2.58-1.541-11.784 11.655-20.735 17.401-19.147-2.755-.761-5.682-.464-8.349.561Z"/><path fill="url(#c)" fill-rule="evenodd" d="M151.099 60.944Z" clip-rule="evenodd"/><path fill="url(#d)" d="m51.884 214.496 186.413 326.793c7.564 11.866 14.403 16.571 38.789 13.823a14.003 14.003 0 0 1-11.32-7.04l-53.281-93.406a6.75 6.75 0 0 1 2.518-9.208 6.75 6.75 0 0 0 2.519-9.208L87.362 208.073a42.154 42.154 0 0 1-2.621-5.48l-34.276 9.19c.437.916.91 1.821 1.42 2.713Z"/><path stroke="#000" stroke-width="2" d="M212.904 36.619c-2.59-8.07-4.769-13.039-15.858-16.104m15.858 16.104c-3.457.1-7.494.336-12.149.68m12.149-.68c.537-.016 1.059-.029 1.568-.038m-17.426-16.066c-2.755-.761-5.682-.464-8.349.561l-20.191 7.026a15.002 15.002 0 0 0-8.333 7.927l-9.074 24.915m45.947-40.429c-5.746-1.588-18.942 7.363-17.401 19.148.12.917.234 1.774.341 2.579v.002c1.268 9.536 1.56 11.727-.733 19.139m3.578-1.082-90.012 98.653c-10.897 11.942-13.859 28.911-8.079 43.639m98.091-142.291a13.494 13.494 0 0 0 3.525-8.874 11.915 11.915 0 0 1 3.347-8.081l1.497-1.548a14.828 14.828 0 0 1 9.555-4.5M182.831 60.3l-3.578 1.082m21.502-24.085c5.377-.397 9.931-.649 13.717-.717m62.614 518.531c-24.386 2.748-31.225-1.957-38.789-13.823L51.884 214.496a42.176 42.176 0 0 1-1.42-2.713m226.622 343.329a14.003 14.003 0 0 1-11.32-7.04l-53.281-93.406a6.75 6.75 0 0 1 2.518-9.208 6.75 6.75 0 0 0 2.519-9.208L87.362 208.073a42.154 42.154 0 0 1-2.621-5.48m192.345 352.519a13.972 13.972 0 0 0 5.525-.783l21.032-7.468 86.953-167.995a15.003 15.003 0 0 0-.003-13.797L230.473 56.092c-2.66-5.133 1.817-12.195-1.577-16.876-1.483-2.044-6.095-2.784-14.424-2.635M141.938 72.66 57.34 165.377c-11.586 12.698-14.202 31.079-6.875 46.406m91.473-139.124 1.771-1.941m-1.771 1.94 6.148-6.737m31.167-4.538-35.544 9.335M84.74 202.593l-34.275 9.19m93.244-141.065 4.377-4.797m0 0a15.01 15.01 0 0 0 3.013-4.977m-3.013 4.977a15.01 15.01 0 0 0 3.013-4.977"/><path fill="url(#e)" stroke="#000" stroke-width="2" d="M210.5 40.684c6.565-7.196 18.29-5.654 22.772 2.995L399.918 365.25a15 15 0 0 1-.159 14.1l-87.708 160.323c-5.633 10.296-20.374 10.427-26.189.233L96.789 208.448c-9.026-15.823-6.822-35.662 5.456-49.119L210.5 40.684Z"/><path fill="#5869DD" d="M416.161 375.919 291.119 129.214a5.96 5.96 0 0 0-4.803-3.262 5.954 5.954 0 0 0-5.122 2.091l-37.296 43.914-20.957 24.676-51.192 60.276a18 18 0 0 0-2.096 20.247l135.026 248.485c3.405 6.267 11.106 7.899 16.662 4.612l1.56-1.103a12.141 12.141 0 0 0 2.317-2.598l90.058-135.551a15 15 0 0 0 .885-15.082Z"/><path fill="url(#f)" d="M304.679 525.641 169.653 277.156a18 18 0 0 1 2.096-20.247l51.192-60.276-19.049-6.287-51.806 62.787a18 18 0 0 0-1.931 20.052l.007.012 142.279 261.284c3.221 5.916 10.254 7.684 15.695 5.114l13.205-9.342c-5.556 3.287-13.257 1.655-16.662-4.612Z"/><path fill="url(#g)" d="m224.38 165.515-20.488 24.831 19.049 6.287 20.957-24.676-19.518-6.442Z"/><path fill="url(#h)" d="M281.194 128.043a5.954 5.954 0 0 1 5.122-2.091l-12.019-3.863-5.799-1.863c-2.426-1.505-5.79-1.163-7.804 1.278l-1.94 2.352 4.592 8.861a5.997 5.997 0 0 1-.699 6.579l-9.409 11.404a6.004 6.004 0 0 1-4.642 2.181l-14.848 1.281-9.368 11.353 19.518 6.442 37.296-43.914Z"/><path fill="#5869DD" d="m119.098 164.609-7.958 9.645a20.999 20.999 0 0 0-2.231 23.433l41.246 75.498a18 18 0 0 1 1.931-20.052l51.806-62.787 20.488-24.831 9.368-11.353-42.802-78.343c-5.697 4.95-7.057 9.374-8.791 17.888l-36.416 44.136c-16.36-.425-26.059 14.865-26.641 26.766ZM260.694 121.504c2.014-2.441 5.378-2.783 7.804-1.278l5.799 1.863-40.465-77.076c-4.964-3.739-8.435-3.355-13.574-2.037-1.913.49-2.825 2.69-1.846 4.405l7.721 13.536 32.621 62.939 1.94-2.352Z"/><path fill="url(#i)" d="m210.967 75.812-20.021.007 42.802 78.343 14.848-1.281a6.007 6.007 0 0 0 2.555-.564l-5.944-12.043-34.24-64.462Z"/><path fill="#5869DD" d="m226.133 60.917-15.166 14.895 34.24 64.462 5.944 12.043a6.004 6.004 0 0 0 2.087-1.617l9.409-11.404a5.997 5.997 0 0 0 .699-6.579l-4.592-8.861-32.621-62.939Z"/><path stroke="#000" stroke-width="2" d="m152.086 253.133 72.294-87.618m-72.294 87.618 51.806-62.787m-51.806 62.787a18 18 0 0 0-1.931 20.052M322.901 529.15a12.141 12.141 0 0 0 2.317-2.598l90.058-135.551a15 15 0 0 0 .885-15.082L291.119 129.214a5.96 5.96 0 0 0-4.803-3.262m36.585 403.198-1.56 1.103m1.56-1.103c-.496.415-1.018.783-1.56 1.103m-35.025-404.301a5.954 5.954 0 0 0-5.122 2.091l-37.296 43.914m42.418-46.005-12.019-3.863M150.162 273.198l-.007-.013m60.812-197.373-20.021.007m20.021-.007 15.166-14.895m-15.166 14.895 34.24 64.462 5.944 12.043m-25.018-91.4-7.721-13.536c-.979-1.715-.067-3.914 1.846-4.405 5.139-1.318 8.61-1.702 13.574 2.037l40.465 77.076m-48.164-61.172 32.621 62.939m-67.808-48.037c-5.697 4.95-7.057 9.374-8.791 17.888l-36.416 44.136c-16.36-.425-26.059 14.865-26.641 26.766l-7.958 9.645a20.999 20.999 0 0 0-2.231 23.433l41.246 75.498m40.791-197.366 42.802 78.343m0 0 14.848-1.281a6.007 6.007 0 0 0 2.555-.564m-17.403 1.845-9.368 11.353m27.053-12.627-.282-.571m7.603-28.461 4.592 8.861a5.997 5.997 0 0 1-.699 6.579l-9.409 11.404a6.004 6.004 0 0 1-2.087 1.617m7.603-28.461 1.94-2.352c2.014-2.441 5.378-2.783 7.804-1.278l5.799 1.863m-49.917 43.426 19.518 6.442m-19.518-6.442-20.488 24.831m40.006-18.389-20.957 24.676m-19.049-6.287 19.049 6.287m0 0-51.192 60.276a18 18 0 0 0-2.096 20.247l135.026 248.485c3.405 6.267 11.106 7.899 16.662 4.612m0 0-13.205 9.342c-5.441 2.57-12.474.802-15.695-5.114L150.162 273.197l-.007-.012"/><path fill="#000" stroke="#000" stroke-width="2" d="M281.129 143.067c2.769-3.278 7.984-2.673 9.931 1.151l118.78 233.408a11.001 11.001 0 0 1-.621 11.047l-82.575 125.165c-4.571 6.929-14.875 6.492-18.843-.799L180.774 279.636a17.999 17.999 0 0 1 2.06-20.221l98.295-116.348Z"/><path fill="#5869DD" d="M391.361 388.359 282.039 176.628l-64.715 75.614c129.588-6.938 66.919 94.104 80.607 141.309 21.305 37.35 49.425 2.89 47.105 61.386l46.325-66.578Z"/><path fill="url(#j)" d="m194.182 279.281 119.657 220.491 31.197-44.835c2.32-58.496-25.8-24.036-47.105-61.386-13.688-47.205 48.981-148.247-80.607-141.309l-23.142 27.039Z"/><path fill="url(#k)" d="M402.03 386.879 289.17 168.297l-7.131 8.331 109.322 211.731 10.669-1.48Z"/><path fill="#F1EFED" d="m318.062 507.554 83.968-120.675-10.669 1.48-46.325 66.578-31.197 44.835 4.223 7.782Z"/><path stroke="#000" stroke-width="2" d="M402.03 386.879 289.17 168.297l-7.131 8.331M402.03 386.879l-83.968 120.675-4.223-7.782m88.191-112.893-10.669 1.48m0 0L282.039 176.628m109.322 211.731-46.325 66.578m-31.197 44.835L194.182 279.281l23.142-27.039m96.515 247.53 31.197-44.835m-62.997-278.309-64.715 75.614m0 0c129.588-6.938 66.919 94.104 80.607 141.309 21.305 37.35 49.425 2.89 47.105 61.386"/><ellipse cx="327.919" cy="376.37" fill="url(#l)" stroke="#000" stroke-width="2" rx="13.08" ry="7.923" transform="rotate(67.216 327.919 376.37)"/><ellipse cx="213.973" cy="149.832" fill="url(#m)" stroke="#000" stroke-width="2" rx="14.16" ry="8.45" transform="rotate(71.053 213.973 149.832)"/><ellipse cx="152.521" cy="186.523" fill="url(#n)" stroke="#000" stroke-width="2" rx="40.881" ry="26.631" transform="rotate(75.172 152.521 186.523)"/><ellipse cx="194.151" cy="173.314" fill="url(#o)" stroke="#000" stroke-width="2" rx="14.16" ry="9.548" transform="rotate(71.053 194.151 173.314)"/><path fill="#000" d="M148.945 169.168c-1.704.585-3.132 1.693-4.248 3.185l8.99 14.248 2.236-.074 3.224-14.865c-3.238-2.583-6.913-3.623-10.202-2.494ZM167.41 186.147a27.405 27.405 0 0 0-2.345-6.924l-8.704 7.29 11.049-.366Z"/><path fill="#5869DD" d="M165.065 179.223c-1.561-3.142-3.63-5.737-5.918-7.561l-3.224 14.865.438-.014 8.704-7.29Z"/><path fill="#F1EFED" d="M163.536 202.212c3.656-3.084 5.182-9.328 3.874-16.065l-11.049.366-.531.444-.491 2.263 8.197 12.992Z"/><path fill="#D9D9D9" fill-rule="evenodd" d="m154.575 188.008.764 1.212.491-2.263.531-.444-.438.014-2.236.074.888 1.407Z" clip-rule="evenodd"/><path fill="#F1EFED" d="M142.393 186.975c.231 1.143.543 2.298.94 3.455a26.775 26.775 0 0 0 2.33 5.041l8.912-7.463-.888-1.407-11.294.374Z"/><path fill="#5869DD" d="M145.663 195.471c1.865 3.119 4.245 5.563 6.788 7.065l2.888-13.316-.764-1.212-8.912 7.463Z"/><path fill="url(#p)" d="M160.82 203.762a8.448 8.448 0 0 0 2.716-1.55l-8.197-12.992-2.888 13.316c2.749 1.625 5.687 2.146 8.369 1.226Z"/><path fill="url(#q)" d="M144.697 172.353c-2.555 3.417-3.47 8.848-2.304 14.622l11.294-.374-8.99-14.248Z"/><path stroke="#000" stroke-width="2" d="M144.697 172.353c1.116-1.492 2.544-2.6 4.248-3.185 3.289-1.129 6.964-.089 10.202 2.494m-14.45.691c-2.555 3.417-3.47 8.848-2.304 14.622m2.304-14.622 8.99 14.248m9.849 15.611a8.448 8.448 0 0 1-2.716 1.55c-2.682.92-5.62.399-8.369-1.226m11.085-.324c3.656-3.084 5.182-9.328 3.874-16.065m-3.874 16.065-8.197-12.992m3.808-17.558c2.288 1.824 4.357 4.419 5.918 7.561m-5.918-7.561-3.224 14.865m-3.472 16.009c-2.543-1.502-4.923-3.946-6.788-7.065m6.788 7.065 2.888-13.316m12.071-3.073a27.405 27.405 0 0 0-2.345-6.924m2.345 6.924-11.049.366m-13.968.462c.231 1.143.543 2.298.94 3.455a26.775 26.775 0 0 0 2.33 5.041m-3.27-8.496 11.294-.374m-8.024 8.87 8.912-7.463m10.49-8.785-8.704 7.29m-.438.014-2.236.074m2.236-.074.438-.014m-.438.014-.093.43m-2.143-.356.888 1.407m1.786-1.495-.531.444m0 0-.491 2.263m.491-2.263-1.255 1.051m.764 1.212-.764-1.212"/><ellipse cx="155.104" cy="187.146" fill="#000" stroke="#000" stroke-width="2" rx="4.465" ry="3.011" transform="rotate(71.053 155.104 187.146)"/><path fill="#000" fill-rule="evenodd" d="m193.84 96.031 8.671 15.201.743 1.303-.838 1.054-.743-1.303-8.671-15.201.838-1.054Z" clip-rule="evenodd"/><path fill="#000" d="m199.902 116.75 2.514-3.161-.743-1.303-2.514 3.161.743 1.303Z"/><path fill="#F1EFED" d="m190.488 100.246 8.671 15.201 2.514-3.161-8.671-15.201-2.514 3.161Z"/><path stroke="#000" stroke-linejoin="round" stroke-width="2" d="m193.84 96.031 9.414 16.504m-9.414-16.504-3.352 4.215m3.352-4.215 8.671 15.201m-8.671-15.2-.838 1.053m10.252 15.45-3.352 4.215m3.352-4.215-.743-1.303m.743 1.303-.838 1.054m-2.514 3.161-9.414-16.504m9.414 16.504 2.514-3.161m-2.514 3.161-.743-1.303m-8.671-15.201 8.671 15.201m-8.671-15.201 2.514-3.161m0 0 8.671 15.201m.743 1.303-.743-1.303m.838-1.054-.838 1.054m-2.514 3.161 2.514-3.161m-3.227 2.416 2.514-3.161"/><path fill="#F1EFED" d="M171.98 53.244c-4.08-5.5.749-15.202 3.674-19.365l-4.304.527c-2.925 4.163-7.755 13.864-3.675 19.365l4.305-.527Z"/><path fill="#000" d="M167.948 34.822c-2.925 4.162-7.755 13.863-3.675 19.364l3.402-.415c-4.08-5.502.75-15.203 3.675-19.365l-3.402.416Z"/><path stroke="#000" stroke-linejoin="round" stroke-width="2" d="M175.654 33.88c-2.925 4.162-7.754 13.863-3.674 19.364m3.674-19.365-7.706.943m7.706-.943-4.304.527m.63 18.838-7.707.943m7.707-.943-4.305.527m.273-18.95c-2.925 4.163-7.755 13.864-3.675 19.366m3.675-19.365 3.402-.416m-7.077 19.78 3.402-.415m3.675-19.365c-2.925 4.163-7.755 13.864-3.675 19.365"/><path fill="#000" d="M195.727 133.503c-.668 1.509-1.952 2.152-2.875 1.459-.928-.702-1.138-2.475-.47-3.985.678-1.514 1.961-2.156 2.875-1.459.923.693 1.143 2.485.47 3.985ZM189.74 122.857c-.683 1.505-1.99 2.172-2.913 1.479-.928-.702-1.119-2.485-.441-4 .668-1.509 1.975-2.176 2.903-1.474.913.698 1.124 2.495.451 3.995ZM184.06 111.945c-.687 1.519-2.003 2.191-2.941 1.493-.923-.692-1.114-2.475-.432-4.004.683-1.505 1.999-2.177 2.932-1.489.918.707 1.124 2.494.441 4ZM189.719 140.265c-.663 1.495-1.961 2.157-2.884 1.464-.937-.697-1.147-2.47-.484-3.989.663-1.495 1.961-2.157 2.889-1.454.923.692 1.143 2.484.479 3.979ZM183.942 129.329c-.668 1.51-1.975 2.176-2.912 1.479-.933-.688-1.138-2.475-.46-3.989.673-1.501 1.98-2.167 2.912-1.479.928.702 1.133 2.489.46 3.989ZM178.211 118.456c-.697 1.501-2.013 2.173-2.95 1.499-.933-.688-1.138-2.475-.451-3.994.677-1.515 2.003-2.191 2.941-1.494.932.687 1.133 2.489.46 3.989ZM183.998 146.697c-.664 1.495-1.961 2.157-2.894 1.469-.937-.697-1.157-2.465-.493-3.984.654-1.49 1.961-2.156 2.889-1.454.932.688 1.161 2.474.498 3.969ZM178.16 135.806c-.683 1.505-1.99 2.171-2.932 1.489-.937-.697-1.147-2.47-.484-3.989.673-1.5 1.989-2.172 2.927-1.475.932.688 1.147 2.47.489 3.975ZM172.348 124.963c-.683 1.506-2.009 2.182-2.951 1.499-.947-.692-1.142-2.46-.47-3.984.683-1.505 2.009-2.182 2.956-1.49.942.683 1.142 2.461.465 3.975ZM178.276 153.13c-.663 1.495-1.961 2.156-2.903 1.474-.947-.693-1.166-2.461-.512-3.974.663-1.495 1.961-2.157 2.908-1.465.932.688 1.161 2.475.507 3.965ZM172.363 142.278c-.673 1.5-1.99 2.172-2.932 1.489s-1.166-2.46-.498-3.97c.673-1.5 1.989-2.171 2.931-1.488.947.692 1.162 2.474.499 3.969ZM166.494 131.466c-.678 1.514-2.004 2.191-2.951 1.499-.951-.678-1.161-2.451-.489-3.975.683-1.505 2.009-2.182 2.951-1.499.947.692 1.162 2.475.489 3.975ZM84.207 211.962c1.36.907 1.792 2.298.952 3.09-.846.806-2.629.711-4.013-.2-1.36-.908-1.792-2.299-.942-3.094.84-.792 2.642-.704 4.003.204ZM62.748 215.01c1.36.941 1.798 2.353.976 3.162-.837.802-2.633.701-4.013-.235-1.378-.924-1.82-2.346-.973-3.151.836-.803 2.646-.694 4.01.224ZM246.636 535.377c.662 2.082-.168 3.656-1.851 3.495-1.698-.168-3.577-1.99-4.267-4.086-.661-2.082.168-3.656 1.866-3.488 1.683.161 3.577 1.99 4.252 4.079ZM211.628 434.463c.662 2.082-.167 3.656-1.851 3.495-1.697-.168-3.577-1.99-4.267-4.086-.661-2.082.168-3.656 1.866-3.488 1.683.161 3.577 1.99 4.252 4.079Z"/><path fill="#F1EFED" d="M227.981 77.27c.507 2.157-.478 4.444-2.19 5.1-1.72.66-3.601-.608-4.194-2.812-.596-2.213.39-4.5 2.203-5.114 1.816-.606 3.694.652 4.186 2.814"/><path stroke="#000" stroke-width="2" d="M227.981 77.27c.507 2.157-.478 4.444-2.19 5.1-1.72.66-3.601-.608-4.194-2.812-.596-2.213.39-4.5 2.203-5.114 1.816-.606 3.694.652 4.186 2.814"/><path fill="#F1EFED" d="M235.412 91.441c.508 2.157-.478 4.444-2.189 5.101-1.72.66-3.601-.608-4.195-2.812-.596-2.213.39-4.5 2.204-5.114 1.815-.606 3.694.652 4.186 2.814"/><path stroke="#000" stroke-width="2" d="M235.412 91.441c.508 2.157-.478 4.444-2.189 5.101-1.72.66-3.601-.608-4.195-2.812-.596-2.213.39-4.5 2.204-5.114 1.815-.606 3.694.652 4.186 2.814"/><path fill="#F1EFED" d="M242.842 105.605c.508 2.158-.478 4.445-2.19 5.101-1.719.659-3.601-.608-4.194-2.812-.596-2.213.39-4.499 2.203-5.114 1.816-.606 3.695.652 4.186 2.814"/><path stroke="#000" stroke-width="2" d="M242.842 105.605c.508 2.158-.478 4.445-2.19 5.101-1.719.659-3.601-.608-4.194-2.812-.596-2.213.39-4.499 2.203-5.114 1.816-.606 3.695.652 4.186 2.814"/><path fill="#F1EFED" d="M250.274 119.777c.507 2.157-.478 4.444-2.19 5.101-1.72.659-3.601-.608-4.194-2.812-.596-2.213.389-4.5 2.203-5.114 1.816-.606 3.694.652 4.186 2.814"/><path stroke="#000" stroke-width="2" d="M250.274 119.777c.507 2.157-.478 4.444-2.19 5.101-1.72.659-3.601-.608-4.194-2.812-.596-2.213.389-4.5 2.203-5.114 1.816-.606 3.694.652 4.186 2.814"/><path fill="#F1EFED" d="M257.705 133.949c.508 2.157-.478 4.444-2.189 5.101-1.72.659-3.601-.608-4.195-2.812-.596-2.213.39-4.5 2.203-5.114 1.816-.607 3.695.652 4.187 2.814"/><path stroke="#000" stroke-width="2" d="M257.705 133.949c.508 2.157-.478 4.444-2.189 5.101-1.72.659-3.601-.608-4.195-2.812-.596-2.213.39-4.5 2.203-5.114 1.816-.607 3.695.652 4.187 2.814"/><path fill="#000" d="m163.213 167.119 4.026-1.552a1 1 0 0 1 1.357 1.006l-.51 7.002c-.069.958-1.317 1.276-1.837.47l-3.517-5.451a1 1 0 0 1 .481-1.475ZM146.279 207.888l-5.286 2.037a1 1 0 0 1-1.357-1.006l.67-9.193c.069-.957 1.317-1.276 1.837-.469l4.617 7.156a1 1 0 0 1-.481 1.475ZM165.044 211.174l6.293 2.727a1 1 0 0 0 1.397-.954l-.292-8.123c-.03-.848-1.037-1.275-1.668-.708l-6.001 5.397a1 1 0 0 0 .271 1.661ZM136.816 164.474l-.927-6.795a1 1 0 0 1 1.296-1.088l7.743 2.473a1 1 0 0 1 .231 1.798l-6.816 4.321a1 1 0 0 1-1.527-.709Z"/><path fill="url(#r)" stroke="#000" stroke-linejoin="round" stroke-width="2" d="m124.609 328.861 19.951-6.4 47.753 83.714-19.95 6.4-47.754-83.714Z"/><path fill="#000" d="M160.911 371.819c2.059-.362 4.128-.706 6.172-1.094.539-.096.806-.029 1.062.434a123.343 123.343 0 0 0 2.322 4.086c.254.43.142.621-.397.658-.778.063-1.543.195-2.336.174-.727-.025-1.739-.834-1.909-1.414-.069-.239-.135-.489-.134-.726-.003-.108.138-.248.26-.258.108-.003.347.132.415.237.181.243.291.51.436.765.302.529.776.75 1.451.669.243-.02.506-.035.682-.127.145-.074.289-.283.233-.395-.513-.959-1.075-1.915-1.617-2.865-.193-.338-.495-.377-.864-.31-.96.175-1.927.355-2.905.499-.501.074-.51.282-.31.633.595 1.013 1.16 2.018 1.739 3.032.43.769.057 1.126-.981.974-.482-.072-.953-.065-1.43-.114-.949-.102-1.898-.203-2.848-.337-.395-.054-.656-.049-.775.248-.231.562-.519 1.098-.729 1.667-.132.362-.738.505-1.182.217-.069-.045-.083-.189-.057-.263.214-.562.422-1.12.669-1.667.219-.48.139-.62-.585-.892-.596-.226-1.182-.467-1.772-.697-.441-.179-.402-.379-.273-.613.136-.238.278-.345.697-.161.794.35 1.599.677 2.413.973.198.065.571.064.655-.027.791-.873 2.012-1.367 3.093-1.984.151-.077.177-.27.259-.409-.251-.068-.536-.21-.719-.174-2.079.341-4.134.71-6.192 1.073-.193.033-.379.064-.568.104-.348.089-.61.001-.785-.305-.179-.329.013-.438.363-.494 2.147-.371 4.29-.748 6.447-1.117Zm2.718 4.215c.43-.109.523-.289.317-.62-.21-.353-.398-.711-.608-1.065-.308-.526-.571-.629-1.085-.37a14.37 14.37 0 0 0-1.594.968c-.2.14-.266.381-.401.576.314.074.635.162.943.24.07.019.14.038.207.051.736.07 1.485.15 2.225.227a.072.072 0 0 0-.004-.007ZM174.862 388.022c-.247-.434-.504-.854-.727-1.276-.217-.409-.516-.576-1.024-.455-.489.109-.991.21-1.495.294-.425.074-.531.244-.321.598.347.563.677 1.127.962 1.7.096.199.156.511.022.604-.175.125-.578.161-.853.081a130.455 130.455 0 0 1-4.329-1.267c-.717-.217-.957-.206-1.052.312-.152.848-.188 1.723-.27 2.59-.009.089.087.212.036.257-.147.144.287.606-.394.454-.832-.194-.989-.29-.915-.755.178-1.116.343-2.225.555-3.326.078-.34-.184-.546-.512-.705-1.535-.757-2.806-1.765-4.057-2.784-.462-.379.058-.447.223-.634.261-.301.56-.015.732.123.578.448 1.07.954 1.661 1.394.622.466 1.288.889 1.972 1.285.139.081.581.023.655-.086a6.957 6.957 0 0 1 2.413-2.239c.145-.074.181-.323.123-.484-.122-.303.001-.415.324-.473.402-.068.538.125.676.367.325.584.666 1.167.987 1.745.212.386.526.537.996.438.447-.095.917-.177 1.374-.268.49-.094.598-.35.373-.746-.357-.625-.717-1.256-1.084-1.884-.171-.3-.212-.521.233-.589.441-.074.579.168.711.414.336.604.645 1.205.996 1.791.388.666.472.694 1.255.535.264-.058.532-.109.806-.164.352-.082.673-.13.906.278.204.374-.075.449-.415.507-.34.059-.658.156-1.006.185-.604.057-.627.315-.377.723.499.831.976 1.666 1.472 2.491.173.29.238.506-.209.601-.359.069-.541-.013-.695-.297-.238-.447-.5-.89-.751-1.33.007-.004.017-.001.023-.005Zm-4.832-1.259c-.281-.491-.571-.985-.845-1.479-.175-.323-.463-.396-.669-.193a21.38 21.38 0 0 0-1.614 1.647c-.27.315-.14.663.454.857 1.037.33 2.087.653 3.139.966.543.163.524-.063.357-.356l-.822-1.442ZM153.325 369.139c1.8-.309 1.665-.13.866-1.56l-.233-.408c-.159-.264-.352-.543.132-.616.491-.077.667.186.831.49.209.396.454.781.667 1.183.18.346.407.461.858.39 1.273-.194 1.284-.174.698-1.201-.215-.377-.423-.757-.648-1.136-.173-.289-.058-.474.296-.447.199.005.462.184.647.315.117.086.131.23.204.358.357.625.708.72 1.319.363.16-.091.316-.189.507-.256.46-.16.614-.426.387-.854-.143-.265-.126-.444.254-.492.38-.047.55.118.696.373.274.511.575 1.024.86 1.538.204.357.468.477.945.408 1.21-.2 1.221-.181.653-1.176-.109-.191-.221-.373-.32-.561-.141-.292-.525-.639.116-.734.598-.096.645.283.808.553.216.35.43.71.607 1.066.18.345.432.489.862.379.198-.054.422-.063.63-.114.349-.073.56.044.716.318.164.287.021.394-.301.468-1.172.237-1.164.25-.622 1.2.109.191.287.385.303.562a.466.466 0 0 1-.223.441c-.29.131-.548-.009-.706-.3-.204-.373-.432-.742-.64-1.122-.167-.294-.409-.375-.79-.344-1.318.143-1.343.174-.746 1.22.185.325.427.644.546.973.062.168-.1.345-.153.519-.233-.095-.478-.184-.696-.296-.278-.146-.529-.408-.796-.459-.539-.098-1.094-.103-1.636-.132-.384-.018-.508.121-.317.426.065.098.12.21.175.306.173.273.302.529-.172.605-.478.07-.615-.199-.767-.467-.186-.325-.365-.654-.561-.982-.428-.736-.462-.751-1.345-.602-.084.014-.166.035-.254.044-.579.026-.616.275-.35.681.238.372.429.753.654 1.132.167.277.207.482-.194.567-.421.079-.59-.112-.74-.39-.208-.38-.439-.755-.637-1.132-.22-.416-.539-.573-1.048-.468-.626.121-1.271.21-1.894.337-.347.062-.576-.027-.736-.308-.16-.28-.079-.436.284-.483.338-.049.677-.107 1.007-.169l-.003-.006Zm7.975-.847c-.138-.242-.231-.494-.424-.713-.129-.138-.5-.341-.594-.312-.59.184-1.131.425-1.686.657-.039.022-.013.126 0 .194.15.71.667 1.184 1.581 1.254 1.473.099 1.969.255 1.123-1.08ZM154.582 359.816c.516.906 1.01 1.816 1.56 2.72.228.385.134.532-.344.602-1.751.263-3.469.567-5.216.836-1.207.19-1.805-.086-2.383-1.084-.175-.306-.336-.619-.525-.935-.183-.292-.022-.41.302-.467.346-.063.519.092.648.332.145.255.321.518.433.775.222.508.697.567 1.186.533.54-.021.685-.332.498-.69a98.115 98.115 0 0 0-2.19-3.823c-.22-.357-.649-.543-1.144-.43-.407.089-.85.13-1.247.238-.334.098-.544.057-.713-.253-.15-.277-.285-.53.2-.587.374-.044.73-.103 1.086-.163 1.773-.267 3.54-.531 5.292-.821.508-.078.757.033.977.432.498.934 1.038 1.851 1.566 2.776a.39.39 0 0 0 .014.009Zm-2.091.262c.375.657.723 1.312 1.14 1.954.109.175.518.432.655.404a.868.868 0 0 0 .598-.409c.073-.126-.056-.365-.165-.557-.587-1.059-1.198-2.114-1.812-3.176a2.1 2.1 0 0 0-.388-.488c-.292-.274-.698-.405-.978-.212-.149.111-.206.397-.114.589.315.641.708 1.27 1.068 1.902a.022.022 0 0 0-.004-.007Zm-2.072.278c.385.676.734 1.348 1.169 2.005.118.177.546.407.743.396.217-.006.406-.24.489-.423.052-.131-.074-.338-.173-.51a311.34 311.34 0 0 0-1.848-3.24 1.894 1.894 0 0 0-.291-.392c-.265-.271-.581-.438-.977-.314-.386.111-.338.345-.167.628l1.055 1.85Z"/><path fill="#000" d="M171.888 379.566c.291-.056.588-.116.882-.165.647-.115.792-.038 1.069.506.158.307.07.45-.303.511-.673.113-1.339.24-2.011.37-.594.119-.644.24-.244.688.231.257.355.474-.024.597-.38.124-.614-.005-.82-.336-.415-.667-.427-.66-1.247-.505-.549.093-1.091.199-1.633.305-.548.11-.56.312-.097.707.152.133.372.43.337.442-.24.145-.538.247-.896-.039-.083-.071-.243-.098-.293-.171-.586-.731-1.236-.546-1.911-.406-1.012.205-2.026.42-3.07.568-.517.075-1.096.042-1.662.001-.206-.018-.54-.174-.647-.316a9.667 9.667 0 0 1-.855-1.499c-.042-.103.235-.286.426-.353.098-.022.42.141.502.255.742 1.048.736 1.051 2.061.802.774-.145 1.548-.291 2.316-.433.77-.151.817-.44.086-.919-.454-.291-.567-.548-.291-.807.095-.088.463-.112.562-.041a5.4 5.4 0 0 1 .924.817c.361.394.738.593 1.295.47a34.409 34.409 0 0 1 2.387-.441c.592-.092.698-.338.384-.785a9.05 9.05 0 0 1-.437-.647c-.062-.108-.132-.305-.09-.32.247-.074.515-.125.788-.137.066-.004.234.188.276.291.35.882 1.061 1.22 2.119 1.023.039-.006.085-.015.124-.02l-.007-.013ZM155.718 359.726a751.128 751.128 0 0 0-2-3.492c-.157-.274-.282-.524.182-.603.478-.069.61.177.77.457.448.801.923 1.604 1.365 2.409.168.31.364.46.809.392.412-.066.59-.185.373-.551-.359-.615-.699-1.225-1.052-1.843-.145-.255-.253-.49.199-.545.413-.049.537.168.665.407.349.613.698 1.225 1.041 1.841.157.274.341.448.759.379.396-.065.613-.19.402-.56-.413-.71-.837-1.424-1.216-2.146-.084-.163-.084-.46.04-.496.379-.124.497.173.621.389.399.686.791 1.358 1.158 2.045.212.386.52.54.993.448.343-.069.649-.083.853.291.187.342-.056.421-.387.466-.537.07-.582.332-.35.724.483.832.956 1.661 1.432 2.497.124.217.317.495-.124.51-.135.001-.455-.247-.546-.407-.521-.853-.982-1.705-1.472-2.55-.153-.268-.353-.5-.814-.474-.499.031-.581.23-.374.593.436.749.865 1.502 1.291 2.248.138.243.324.509-.104.592-.479.096-.611-.209-.753-.458-.428-.736-.843-1.463-1.265-2.203-.182-.319-.385-.541-.911-.453-.533.093-.431.331-.249.65.537.927 1.055 1.849 1.592 2.777.15.261.322.518-.159.598-.464.079-.622-.153-.782-.433-.655-1.165-1.321-2.332-1.983-3.493l-.004-.006ZM174.201 398.806c-1.399.299-2.808.596-4.207.895-.355.076-.694.21-.96-.256-.244-.443.154-.459.48-.527 2.831-.6 5.658-1.19 8.482-1.803.848-.18.847-.196.453-.901-.156-.275-.303-.546-.466-.817-.173-.273-.135-.43.221-.506.359-.069.563.051.706.316.168.31.382.61.517.922.218.501.572.587 1.11.458.501-.134 1.023-.229 1.538-.337.347-.062.711-.228.953.243.257.479-.223.457-.542.537-.557.124-1.118.241-1.673.354-.427.083-.515.286-.306.623.199.334.439.68.556 1.019.05.148-.096.367-.243.451-.251.126-.507.019-.65-.246-.15-.278-.313-.549-.466-.817-.392-.672-.449-.699-1.235-.529-1.425.297-2.85.611-4.272.915l.004.006ZM176.381 402.449c.988-.217 1.975-.434 2.957-.647.902-.202.932-.27.488-1.048-.073-.127-.159-.264-.239-.404-.153-.268-.096-.436.253-.508.362-.08.54.055.689.316.551.98 1.104 1.949 1.663 2.915.149.262.175.441-.199.528-.381.091-.566-.04-.746-.326-.569-.893-.576-.89-1.655-.655-2.115.471-4.227.933-6.346 1.397-.838.182-1.158.069-1.635-.606-.296-.414-.531-.855-.778-1.289-.067-.131-.153-.327-.078-.404.117-.151.348-.223.533-.329.123.141.279.28.353.424.111.225.136.463.254.684.323.61.694.771 1.402.629 1.037-.22 2.057-.455 3.084-.677ZM150.875 353.764c2.257-.341 4.526-.663 6.776-1.016.565-.094.799.077 1.001.477.146.314.037.435-.392.427a7.581 7.581 0 0 0-1.256.074c-3.717.548-7.425 1.098-11.131 1.666-.435.07-.858.176-1.253.317-.369.126-.613.011-.809-.274-.172-.257-.365-.536.098-.631.117-.033.248-.04.379-.064 2.189-.327 4.388-.651 6.587-.976ZM169.856 394.133c.995-.204 1.99-.408 2.971-.621.153-.029.26-.14.381-.21-.137-.091-.274-.198-.424-.282-.139-.064-.328-.1-.445-.185-.151-.117-.376-.302-.361-.395.059-.253.262-.462.704-.283.593.237 1.17.533 1.777.736.826.273 1.67.518 2.515.705.808.181 1.043.385.735.798a.392.392 0 0 1-.304.106 20.331 20.331 0 0 1-1.342-.3c-.687-.192-1.309-.243-1.961-.091-2.174.488-4.366.927-6.569 1.364-.219.048-.561.058-.735-.054-.412-.247-.322-.595.137-.696.969-.206 1.945-.399 2.917-.599l.004.007Z"/><path fill="#000" d="M175.97 396.478c-1.127.077-2.409.165-3.691.237-.668.035-1.351.027-2.019.061-.381.015-.697-.092-.706-.391-.006-.158.229-.402.43-.406.641-.036 1.31.021 1.978.046.221.001.454.038.66.013 1.095-.118 2.19-.252 3.278-.382.268-.035.626-.121.71.22.043.179-.191.363-.318.528-.024.031-.117.033-.322.074ZM177.844 398.976c.135.042.386.11.627.176-.073.185-.058.464-.232.546-.987.47-2.023.9-3.041 1.346-.284.128-.546.278-.812.421-.276.14-.499.301-.928-.02-.454-.35-.396-.442.046-.618 1.259-.516 2.462-1.084 3.686-1.63.165-.068.35-.115.654-.221ZM176.566 391.827c.069-.133.09-.348.242-.409.142-.064.447-.018.643.056.853.35 1.688.728 2.538 1.088.246.105.573.113.768.247.213.149.347.385.435.598.019.048-.338.226-.456.183a152.699 152.699 0 0 1-3.848-1.482c-.098-.037-.166-.142-.322-.281ZM184.719 400.973c.211.37.415.743.643 1.112.17.284.092.43-.247.505-.352.082-.554-.048-.703-.31-.407-.714-.815-1.429-1.239-2.142-.145-.255-.122-.437.22-.522.374-.087.599.038.75.333.176.339.385.676.582 1.02l-.006.004ZM153.32 352.741c-.879.02-1.748.059-2.629.046-.188-.003-.437-.216-.664-.331.118-.135.191-.38.355-.389a81.124 81.124 0 0 1 3.658.002c.098-.006.33.133.357.21.041.087-.043.236-.148.262-.296.076-.637.102-.948.152.001.016.008.029.013.052l.006-.004ZM182.669 399.268c-.313-.118-.537-.167-.705-.283-.068-.046-.046-.244.016-.33.245-.343.514-.674.811-.987.052-.072.292-.082.394-.039.168.073.424.283.399.314-.267.439-.581.855-.915 1.325ZM156.423 354.522c.051.148.084.206.064.217-.499.285-.998.569-1.529.83a4.42 4.42 0 0 1-.453-.409c-.025-.029.108-.138.195-.179.369-.186.728-.374 1.129-.518.153-.045.415.043.594.059Z"/><path fill="#000" fill-rule="evenodd" d="M134.072 338.303a18.928 18.928 0 0 1-.386-.597c-.912-1.598-1.024-3.308-.332-4.739.687-1.439 2.158-2.474 4.034-2.899 1.898-.426 4.072-.228 6.033.588 1.983.791 3.575 2.128 4.472 3.7.109.192.218.383.306.597-.705.164-1.416.332-2.132.502a4.937 4.937 0 0 0-.297-.602c-.629-1.103-1.751-2.04-3.139-2.595-1.37-.566-2.892-.711-4.223-.401-1.305.296-2.335 1.033-2.822 2.036-.487 1.003-.403 2.199.231 3.311.114.2.237.394.39.583-.713.177-1.424.348-2.135.516ZM139.904 348.526c-.131-.19-.268-.388-.373-.593-.915-1.584-1.045-3.306-.346-4.764.673-1.444 2.11-2.517 3.98-2.973 1.883-.452 4.039-.266 6.013.531 1.955.784 3.551 2.107 4.437 3.662.119.208.22.404.311.605-.707.174-1.412.35-2.116.529a2.91 2.91 0 0 0-.306-.597c-.526-.943-1.445-1.766-2.573-2.332a7.249 7.249 0 0 0-3.616-.769 704.767 704.767 0 0 0 1.973 3.48c-.702.169-1.407.345-2.117.528l-1.987-3.484c-.981.48-1.67 1.23-1.942 2.145-.281.92-.148 1.961.401 2.902.11.214.232.409.377.602-.707.173-1.412.349-2.116.528Z" clip-rule="evenodd"/><path fill="url(#s)" d="m303.422 546.864 86.958-167.993a15.003 15.003 0 0 0-.003-13.797L230.266 56.093c-2.66-5.133 1.818-12.196-1.576-16.876-1.483-2.044-6.095-2.785-14.424-2.636-.509.01-1.031.022-1.568.038-3.457.1-7.494.336-12.149.68a14.826 14.826 0 0 0-9.555 4.5l-1.497 1.547a11.91 11.91 0 0 0-3.347 8.081 13.5 13.5 0 0 1-3.526 8.874L92.609 158.95c-10.897 11.943-13.86 28.911-8.08 43.639a42.09 42.09 0 0 0 2.623 5.48l130.152 228.182a6.75 6.75 0 0 1-2.519 9.207 6.75 6.75 0 0 0-2.519 9.208l53.279 93.408a14.001 14.001 0 0 0 16.845 6.257l21.032-7.467Z"/><path fill="#5869DD" d="M212.698 36.619c-2.59-8.07-4.768-13.039-15.858-16.104-5.746-1.589-18.942 7.362-17.401 19.147.12.917.234 1.774.341 2.579v.002c1.268 9.536 1.559 11.727-.734 19.139l3.578-1.081a13.5 13.5 0 0 0 3.526-8.874 11.91 11.91 0 0 1 3.347-8.081l1.497-1.548a14.826 14.826 0 0 1 9.555-4.5c4.655-.343 8.692-.578 12.149-.68Z"/><path fill="url(#t)" d="m92.61 158.95 90.014-98.65-3.578 1.082-35.544 9.334-1.771 1.941-84.6 92.715c-11.587 12.698-14.203 31.079-6.877 46.407l34.276-9.19c-5.78-14.728-2.818-31.696 8.08-43.639Z"/><path fill="#5869DD" d="M188.491 21.076 168.3 28.1a15.005 15.005 0 0 0-8.333 7.927l-9.075 24.915a15.008 15.008 0 0 1-3.013 4.976l-4.377 4.797 35.544-9.334c2.293-7.412 2.002-9.603.734-19.14v-.001c-.107-.805-.221-1.662-.341-2.58-1.541-11.784 11.655-20.735 17.401-19.146-2.754-.762-5.681-.465-8.349.56Z"/><path fill="url(#u)" fill-rule="evenodd" d="M150.892 60.943Z" clip-rule="evenodd"/><path fill="url(#v)" d="M51.673 214.491 238.076 541.29c7.564 11.867 14.402 16.572 38.789 13.824a14.001 14.001 0 0 1-11.32-7.04l-53.279-93.408a6.75 6.75 0 0 1 2.519-9.208 6.75 6.75 0 0 0 2.519-9.207L87.152 208.069a42.09 42.09 0 0 1-2.622-5.48l-34.276 9.19c.437.915.91 1.82 1.419 2.712Z"/><path stroke="#000" stroke-width="2" d="M212.698 36.619c-2.59-8.07-4.768-13.039-15.858-16.104m15.858 16.104c-3.457.1-7.494.336-12.149.68m12.149-.68c.537-.016 1.059-.028 1.568-.038M196.84 20.515c-2.754-.762-5.681-.465-8.349.56L168.3 28.102a15.005 15.005 0 0 0-8.333 7.927l-9.075 24.915m45.948-40.428c-5.746-1.589-18.942 7.362-17.401 19.147.12.917.234 1.774.341 2.579v.002c1.268 9.536 1.559 11.727-.734 19.139m3.578-1.081L92.609 158.95c-10.897 11.943-13.86 28.911-8.08 43.639m98.095-142.288a13.5 13.5 0 0 0 3.526-8.874 11.91 11.91 0 0 1 3.347-8.081l1.497-1.548a14.826 14.826 0 0 1 9.555-4.5m-17.925 23.003-3.578 1.08m21.503-24.083c5.377-.397 9.931-.648 13.717-.717m62.599 518.533c-24.387 2.748-31.225-1.957-38.789-13.824L51.673 214.491a42.365 42.365 0 0 1-1.42-2.712m226.612 343.335a14.001 14.001 0 0 1-11.32-7.04l-53.279-93.408a6.75 6.75 0 0 1 2.519-9.208 6.75 6.75 0 0 0 2.519-9.207L87.152 208.069a42.09 42.09 0 0 1-2.622-5.48m192.335 352.525a13.974 13.974 0 0 0 5.525-.783l21.032-7.467 86.958-167.993a15.003 15.003 0 0 0-.003-13.797L230.266 56.093c-2.66-5.133 1.818-12.196-1.576-16.876-1.483-2.044-6.095-2.785-14.424-2.636m-72.535 36.076-84.6 92.715c-11.587 12.698-14.203 31.079-6.877 46.407M141.73 72.657l1.771-1.94m-1.771 1.94 6.148-6.738m31.167-4.537-35.544 9.334M84.53 202.59l-34.276 9.19m93.248-141.063 4.377-4.797m0 0a15.008 15.008 0 0 0 3.013-4.976m-3.013 4.976a15.008 15.008 0 0 0 3.013-4.976"/><path fill="url(#w)" stroke="#000" stroke-width="2" d="M210.294 40.684c6.566-7.196 18.291-5.654 22.772 2.995l166.637 321.576a15.001 15.001 0 0 1-.159 14.101l-87.713 160.319c-5.633 10.296-20.374 10.427-26.189.233L96.579 208.445c-9.026-15.824-6.822-35.662 5.457-49.119L210.294 40.684Z"/><path fill="#5869DD" d="M415.946 375.924 290.911 129.216a5.954 5.954 0 0 0-4.802-3.262 5.951 5.951 0 0 0-5.123 2.09l-37.297 43.913-20.958 24.676-51.194 60.275a18 18 0 0 0-2.097 20.246l135.019 248.489c3.405 6.267 11.106 7.9 16.662 4.613l1.56-1.104a12.117 12.117 0 0 0 2.317-2.598l90.062-135.547a15 15 0 0 0 .886-15.083Z"/><path fill="url(#x)" d="M304.459 525.643 169.44 277.154a18 18 0 0 1 2.097-20.246l51.194-60.275-19.049-6.288-51.807 62.785a17.998 17.998 0 0 0-1.925 20.064l142.271 261.288c3.221 5.917 10.254 7.685 15.695 5.115l13.205-9.341c-5.556 3.287-13.257 1.654-16.662-4.613Z"/><path fill="url(#y)" d="m224.171 165.515-20.489 24.83 19.049 6.288 20.958-24.676-19.518-6.442Z"/><path fill="url(#z)" d="M280.986 128.044a5.951 5.951 0 0 1 5.123-2.09l-12.019-3.863-5.8-1.864c-2.426-1.506-5.79-1.163-7.804 1.278l-1.94 2.351 4.592 8.861a6 6 0 0 1-.699 6.58L253.03 150.7a5.996 5.996 0 0 1-4.643 2.181l-14.848 1.281-9.368 11.353 19.518 6.442 37.297-43.913Z"/><path fill="url(#A)" d="m118.889 164.605-7.958 9.645a20.999 20.999 0 0 0-2.232 23.433l41.244 75.499a17.998 17.998 0 0 1 1.932-20.052l51.807-62.785 20.489-24.83 9.368-11.353-42.799-78.344c-5.697 4.95-7.058 9.373-8.792 17.888L145.53 137.84c-16.36-.425-26.059 14.864-26.641 26.765Z"/><path fill="url(#B)" d="M260.486 121.505c2.014-2.441 5.378-2.784 7.804-1.278l5.8 1.864-40.464-77.078c-4.963-3.739-8.434-3.355-13.574-2.037-1.912.49-2.824 2.69-1.846 4.405l7.721 13.536 32.619 62.939 1.94-2.351Z"/><path fill="url(#C)" d="m210.761 75.81-20.021.008 42.799 78.344 14.848-1.281a6.004 6.004 0 0 0 2.555-.564l-5.944-12.043-34.237-64.463Z"/><path fill="url(#D)" d="M225.927 60.917 210.761 75.81l34.237 64.463 5.944 12.043a5.996 5.996 0 0 0 2.088-1.617l9.409-11.403a6 6 0 0 0 .699-6.58l-4.592-8.861-32.619-62.94Z"/><path stroke="#000" stroke-width="2" d="m151.875 253.13 72.296-87.615m-72.296 87.615 51.807-62.785m-51.807 62.785a17.998 17.998 0 0 0-1.932 20.052m172.738 255.97a12.117 12.117 0 0 0 2.317-2.598l90.062-135.547a15 15 0 0 0 .886-15.083L290.911 129.216a5.957 5.957 0 0 0-4.802-3.262m36.572 403.198-1.56 1.104m1.56-1.104c-.496.415-1.017.783-1.56 1.104m-35.012-404.302a5.951 5.951 0 0 0-5.123 2.09l-37.297 43.913m42.42-46.003-12.019-3.863M149.95 273.195l-.007-.013m60.818-197.371-20.021.007m20.021-.007 15.166-14.894M210.761 75.81l34.237 64.463 5.944 12.043m-25.015-91.4-7.721-13.536c-.978-1.716-.066-3.915 1.846-4.405 5.14-1.318 8.611-1.702 13.574 2.037l40.464 77.078m-48.163-61.174 32.619 62.939M190.74 75.818c-5.697 4.95-7.058 9.373-8.792 17.888L145.53 137.84c-16.36-.425-26.059 14.864-26.641 26.765l-7.958 9.645a20.999 20.999 0 0 0-2.232 23.433l41.244 75.499M190.74 75.818l42.799 78.344m0 0 14.848-1.281a6.004 6.004 0 0 0 2.555-.564m-17.403 1.845-9.368 11.353m27.053-12.627-.282-.571m7.604-28.461 4.592 8.861a6 6 0 0 1-.699 6.58L253.03 150.7a5.996 5.996 0 0 1-2.088 1.617m7.604-28.461 1.94-2.351c2.014-2.441 5.378-2.784 7.804-1.278l5.8 1.864m-49.919 43.424 19.518 6.442m-19.518-6.442-20.489 24.83m40.007-18.388-20.958 24.676m-19.049-6.288 19.049 6.288m0 0-51.194 60.275a18 18 0 0 0-2.097 20.246l135.019 248.489c3.405 6.267 11.106 7.9 16.662 4.613m0 0-13.205 9.341c-5.441 2.57-12.474.802-15.695-5.115L149.95 273.194l-.007-.012"/><path fill="#000" stroke="#000" stroke-width="2" d="M280.92 143.075c2.769-3.278 7.984-2.674 9.93 1.151l118.774 233.411a10.999 10.999 0 0 1-.622 11.047l-82.578 125.163c-4.571 6.929-14.876 6.491-18.843-.799L180.56 279.641a18 18 0 0 1 2.061-20.221l98.299-116.345Z"/><path fill="#5869DD" d="M391.144 388.362 281.828 176.628l-64.717 75.612c129.588-6.934 66.916 94.106 80.602 141.311 21.305 37.351 49.426 2.891 47.103 61.388l46.328-66.577Z"/><path fill="url(#E)" d="m193.968 279.278 119.65 220.494 31.198-44.833c2.323-58.497-25.798-24.037-47.103-61.388-13.686-47.205 48.986-148.245-80.602-141.311l-23.143 27.038Z"/><path fill="url(#F)" d="M401.812 386.882 288.959 168.297l-7.131 8.331 109.316 211.734 10.668-1.48Z"/><path fill="#F1EFED" d="m317.841 507.555 83.971-120.673-10.668 1.48-46.328 66.577-31.198 44.833 4.223 7.783Z"/><path stroke="#000" stroke-width="2" d="M401.812 386.882 288.959 168.297l-7.131 8.331m119.984 210.254-83.971 120.673-4.223-7.783m88.194-112.89-10.668 1.48m0 0L281.828 176.628m109.316 211.734-46.328 66.577m-31.198 44.833-119.65-220.494 23.143-27.038m96.507 247.532 31.198-44.833m-62.988-278.311-64.717 75.612m0 0c129.588-6.934 66.916 94.106 80.602 141.311 21.305 37.351 49.426 2.891 47.103 61.388"/><ellipse cx="327.701" cy="376.37" fill="url(#G)" stroke="#000" stroke-width="2" rx="13.08" ry="7.923" transform="rotate(67.218 327.701 376.37)"/><ellipse cx="213.764" cy="149.832" fill="url(#H)" stroke="#000" stroke-width="2" rx="14.16" ry="8.45" transform="rotate(71.055 213.764 149.832)"/><ellipse cx="193.941" cy="173.313" fill="url(#I)" stroke="#000" stroke-width="2" rx="14.16" ry="9.548" transform="rotate(71.055 193.941 173.313)"/><path fill="#000" fill-rule="evenodd" d="m193.633 96.031 8.67 15.201.744 1.303-.839 1.054-.743-1.303-8.67-15.201.838-1.054Z" clip-rule="evenodd"/><path fill="#000" d="m199.694 116.75 2.514-3.161-.743-1.303-2.514 3.161.743 1.303Z"/><path fill="#F1EFED" d="m190.281 100.246 8.67 15.201 2.514-3.161-8.67-15.201-2.514 3.161Z"/><path stroke="#000" stroke-linejoin="round" stroke-width="2" d="m193.633 96.031 9.414 16.504m-9.414-16.504-3.352 4.215m3.352-4.215 8.67 15.201m-8.67-15.2-.838 1.053m10.252 15.45-3.353 4.215m3.353-4.215-.744-1.303m.744 1.303-.839 1.054m-2.514 3.161-9.413-16.504m9.413 16.504 2.514-3.161m-2.514 3.161-.743-1.303m-8.67-15.201 8.67 15.201m-8.67-15.201 2.514-3.161m0 0 8.67 15.201m.743 1.303-.743-1.303m.838-1.054-.838 1.054m-2.514 3.161 2.514-3.161m-3.227 2.416 2.515-3.161"/><path fill="#F1EFED" d="M171.774 53.244c-4.08-5.501.75-15.202 3.675-19.365l-4.305.527c-2.925 4.162-7.755 13.863-3.675 19.364l4.305-.526Z"/><path fill="#000" d="M167.743 34.821c-2.925 4.163-7.755 13.864-3.675 19.365l3.401-.416c-4.08-5.5.75-15.202 3.675-19.364l-3.401.415Z"/><path stroke="#000" stroke-linejoin="round" stroke-width="2" d="M175.449 33.88c-2.925 4.162-7.755 13.863-3.675 19.364m3.675-19.365-7.706.942m7.706-.942-4.305.527m.63 18.838-7.706.942m7.706-.942-4.305.526m.274-18.949c-2.925 4.163-7.755 13.864-3.675 19.365m3.675-19.365 3.401-.415m-7.076 19.78 3.401-.416m3.675-19.364c-2.925 4.162-7.755 13.863-3.675 19.364"/><path fill="#000" d="M195.517 133.503c-.668 1.51-1.952 2.152-2.875 1.459-.928-.702-1.138-2.475-.47-3.984.678-1.515 1.962-2.157 2.875-1.459.923.693 1.143 2.484.47 3.984ZM189.53 122.857c-.682 1.505-1.989 2.172-2.912 1.479-.928-.702-1.119-2.485-.442-4 .668-1.509 1.975-2.176 2.903-1.473.914.697 1.124 2.494.451 3.994ZM183.851 111.945c-.687 1.519-2.004 2.191-2.941 1.493-.923-.692-1.114-2.475-.432-4.004.683-1.505 1.999-2.177 2.932-1.489.918.707 1.124 2.495.441 4ZM189.509 140.265c-.663 1.495-1.961 2.157-2.884 1.464-.937-.697-1.147-2.47-.484-3.989.664-1.495 1.961-2.156 2.889-1.454.923.693 1.143 2.484.479 3.979ZM183.733 129.329c-.668 1.51-1.975 2.176-2.913 1.479-.932-.688-1.137-2.475-.46-3.99.673-1.5 1.98-2.166 2.913-1.478.928.702 1.133 2.489.46 3.989ZM178.002 118.456c-.697 1.501-2.014 2.172-2.951 1.499-.932-.688-1.137-2.475-.45-3.995.677-1.514 2.003-2.191 2.941-1.493.932.687 1.133 2.489.46 3.989ZM183.788 146.697c-.664 1.495-1.961 2.157-2.894 1.469-.937-.697-1.157-2.465-.494-3.984.655-1.49 1.962-2.156 2.89-1.454.932.688 1.161 2.474.498 3.969ZM177.95 135.806c-.683 1.505-1.99 2.171-2.932 1.488-.937-.697-1.147-2.47-.484-3.988.673-1.501 1.99-2.172 2.927-1.475.933.688 1.147 2.47.489 3.975ZM172.138 124.963c-.682 1.505-2.008 2.182-2.95 1.499-.947-.692-1.143-2.461-.47-3.985.682-1.505 2.008-2.181 2.955-1.489.942.683 1.143 2.461.465 3.975ZM178.066 153.129c-.663 1.496-1.961 2.157-2.903 1.474-.947-.692-1.166-2.46-.513-3.974.664-1.495 1.962-2.156 2.908-1.464.933.688 1.162 2.474.508 3.964ZM172.152 142.278c-.673 1.5-1.989 2.171-2.931 1.488-.942-.682-1.166-2.46-.498-3.969.673-1.5 1.989-2.172 2.931-1.489.947.692 1.162 2.475.498 3.97ZM166.284 131.465c-.678 1.515-2.004 2.191-2.95 1.499-.952-.678-1.162-2.451-.489-3.974.682-1.506 2.008-2.182 2.95-1.499.947.692 1.162 2.474.489 3.974ZM83.996 211.954c1.36.908 1.792 2.299.952 3.091-.846.806-2.629.711-4.013-.2-1.36-.908-1.792-2.299-.942-3.094.84-.792 2.642-.704 4.003.203ZM62.537 215.002c1.36.942 1.798 2.353.976 3.162-.837.802-2.633.701-4.014-.234-1.377-.925-1.818-2.347-.972-3.152.836-.802 2.646-.694 4.01.224ZM246.415 535.377c.662 2.082-.168 3.656-1.851 3.495-1.697-.168-3.577-1.99-4.267-4.086-.661-2.082.168-3.656 1.866-3.488 1.683.161 3.577 1.99 4.252 4.079ZM211.412 434.463c.661 2.082-.169 3.656-1.852 3.495-1.697-.168-3.577-1.99-4.267-4.086-.661-2.082.168-3.656 1.866-3.488 1.683.161 3.577 1.99 4.253 4.079Z"/><path fill="#F1EFED" d="M227.771 77.27c.508 2.157-.477 4.444-2.189 5.1-1.72.66-3.601-.608-4.194-2.812-.596-2.213.389-4.5 2.203-5.114 1.816-.606 3.694.652 4.186 2.815"/><path stroke="#000" stroke-width="2" d="M227.771 77.27c.508 2.157-.477 4.444-2.189 5.1-1.72.66-3.601-.608-4.194-2.812-.596-2.213.389-4.5 2.203-5.114 1.816-.606 3.694.652 4.186 2.815"/><path fill="#F1EFED" d="M235.203 91.441c.508 2.158-.478 4.444-2.19 5.101-1.719.659-3.601-.608-4.194-2.812-.596-2.213.39-4.5 2.203-5.114 1.816-.606 3.695.652 4.187 2.814"/><path stroke="#000" stroke-width="2" d="M235.203 91.441c.508 2.158-.478 4.444-2.19 5.101-1.719.659-3.601-.608-4.194-2.812-.596-2.213.39-4.5 2.203-5.114 1.816-.606 3.695.652 4.187 2.814"/><path fill="#F1EFED" d="M242.635 105.613c.508 2.157-.478 4.444-2.19 5.101-1.72.659-3.601-.608-4.194-2.812-.596-2.213.39-4.5 2.203-5.114 1.816-.607 3.695.652 4.186 2.814"/><path stroke="#000" stroke-width="2" d="M242.635 105.613c.508 2.157-.478 4.444-2.19 5.101-1.72.659-3.601-.608-4.194-2.812-.596-2.213.39-4.5 2.203-5.114 1.816-.607 3.695.652 4.186 2.814"/><path fill="#F1EFED" d="M250.066 119.777c.508 2.158-.478 4.444-2.189 5.101-1.72.659-3.601-.608-4.195-2.812-.595-2.213.39-4.5 2.204-5.114 1.816-.606 3.694.652 4.186 2.814"/><path stroke="#000" stroke-width="2" d="M250.066 119.777c.508 2.158-.478 4.444-2.189 5.101-1.72.659-3.601-.608-4.195-2.812-.595-2.213.39-4.5 2.204-5.114 1.816-.606 3.694.652 4.186 2.814"/><path fill="#F1EFED" d="M257.496 133.949c.508 2.157-.478 4.444-2.19 5.101-1.719.659-3.601-.608-4.194-2.812-.596-2.213.39-4.5 2.203-5.114 1.816-.607 3.695.652 4.187 2.814"/><path stroke="#000" stroke-width="2" d="M257.496 133.949c.508 2.157-.478 4.444-2.19 5.101-1.719.659-3.601-.608-4.194-2.812-.596-2.213.39-4.5 2.203-5.114 1.816-.607 3.695.652 4.187 2.814"/><ellipse cx="152.166" cy="187.163" fill="url(#J)" stroke="#000" stroke-width="2" rx="40.881" ry="26.631" transform="rotate(75.174 152.166 187.163)"/><path fill="#000" d="M151.84 172.116c5.945.028 11.432 6.742 12.477 15.194.556 4.285-.124 8.229-1.697 11.115l.004.005c-.905 1.673-2.065 2.906-3.377 3.696a7.268 7.268 0 0 1-3.734 1.074 8.327 8.327 0 0 1-2.023-.26c-2.234-.55-4.507-2.037-6.508-4.464-2.04-2.496-3.446-5.548-4.17-8.689a22.8 22.8 0 0 1-.448-2.596 20.7 20.7 0 0 1-.055-3.931c.206-2.526.908-4.888 2.131-6.816 1.725-2.749 4.34-4.397 7.4-4.328Z"/><path stroke="#000" stroke-width="2" d="M142.364 187.191h.008m-.008 0c.1.882.251 1.749.448 2.596m-.448-2.596a20.7 20.7 0 0 1-.055-3.931m2.131-6.816c1.725-2.749 4.34-4.397 7.4-4.328 5.945.028 11.432 6.742 12.477 15.194.556 4.285-.124 8.229-1.697 11.115m-18.18-21.981c-1.154 1.84-1.909 4.174-2.131 6.816m2.131-6.816c-1.223 1.928-1.925 4.29-2.131 6.816m11.181 19.68c2.029.5 4.026.227 5.757-.814m-5.757.814c-4.802-1.214-9.141-6.552-10.678-13.153m10.678 13.153c-2.234-.55-4.507-2.037-6.508-4.464-2.04-2.496-3.446-5.548-4.17-8.689m10.678 13.153a8.327 8.327 0 0 0 2.023.26 7.268 7.268 0 0 0 3.734-1.074m0 0c1.359-.829 2.503-2.103 3.373-3.701m-3.373 3.701c1.312-.79 2.472-2.023 3.377-3.696l-.004-.005m-20.248-11.234c.095.866.242 1.734.44 2.596m-.44-2.596a20.639 20.639 0 0 1-.063-3.931"/><path fill="url(#K)" d="M146.225 175.382a2917.75 2917.75 0 0 0 8.97 10.969c3.648.018 7.266.008 10.857-.025-1.046-8.453-6.533-15.166-12.478-15.194-3.06-.07-5.675 1.578-7.399 4.328a1.49 1.49 0 0 1 .05-.078Z"/><path fill="#F1EFED" d="M166.052 186.326c-3.591.033-7.209.043-10.857.025 3.046 3.705 6.1 7.402 9.16 11.09 1.573-2.886 2.253-6.83 1.697-11.115Z"/><path fill="#000" d="M155.195 186.351a2917.75 2917.75 0 0 1-8.97-10.969 1.49 1.49 0 0 0-.05.078c-1.155 1.84-1.91 4.173-2.132 6.815l11.152 4.076Z"/><path fill="url(#L)" d="M155.224 201.956c2.029.5 4.026.227 5.757-.815 1.359-.829 2.503-2.102 3.374-3.7-3.06-3.688-6.114-7.385-9.16-11.09l-11.152-4.076a20.65 20.65 0 0 0 .063 3.932c.095.865.242 1.734.441 2.596 1.537 6.6 5.876 11.939 10.677 13.153Z"/><path stroke="#000" stroke-width="2" d="M166.052 186.326c-1.046-8.453-6.533-15.166-12.478-15.194-3.06-.07-5.675 1.578-7.399 4.328m19.877 10.866c-3.591.033-7.209.043-10.857.025m10.857-.025c.556 4.285-.124 8.229-1.697 11.115m-20.256-11.234h.007m-.007 0c.1.882.251 1.749.448 2.596m-.448-2.596a20.631 20.631 0 0 1-.056-3.932m11.152 4.076a2917.75 2917.75 0 0 1-8.97-10.969 1.49 1.49 0 0 0-.05.078m9.02 10.891c3.046 3.705 6.1 7.402 9.16 11.09m-9.16-11.09-11.152-4.076m2.132-6.815c-1.155 1.84-1.91 4.173-2.132 6.815m2.132-6.815c-1.224 1.928-1.925 4.289-2.132 6.815m11.181 19.681c2.029.5 4.026.227 5.757-.815m-5.757.815c-4.801-1.214-9.14-6.553-10.677-13.153m10.677 13.153c-2.234-.551-4.507-2.037-6.508-4.465-2.04-2.495-3.446-5.548-4.169-8.688m10.677 13.153a8.285 8.285 0 0 0 2.024.259 7.246 7.246 0 0 0 3.733-1.074m0 0c1.359-.829 2.503-2.102 3.374-3.7m-3.374 3.7c1.313-.79 2.473-2.022 3.377-3.696l-.003-.004m-20.249-11.234c.095.865.242 1.734.441 2.596m-.441-2.596a20.65 20.65 0 0 1-.063-3.932"/><ellipse cx="155.453" cy="185.975" fill="#000" stroke="#000" stroke-width="2" rx="4.465" ry="3.011" transform="rotate(71.055 155.453 185.975)"/><path fill="#000" d="m162.671 167.938 3.948-1.74a1 1 0 0 1 1.403.941l-.178 7.019c-.025.959-1.256 1.337-1.814.555l-3.77-5.278a1.002 1.002 0 0 1 .411-1.497ZM145.923 208.521l-5.285 2.037a1 1 0 0 1-1.357-1.006l.67-9.193c.069-.957 1.317-1.276 1.837-.469l4.616 7.156a1 1 0 0 1-.481 1.475ZM167.745 209.368l6.013 2.263a.936.936 0 0 0 1.263-.956l-.644-7.588a.937.937 0 0 0-1.593-.586l-5.369 5.325a.937.937 0 0 0 .33 1.542ZM135.007 169.227l-2.709-6.3a1 1 0 0 1 .957-1.394l8.122.314a1 1 0 0 1 .703 1.67l-5.412 5.986a1 1 0 0 1-1.661-.276Z"/><path fill="url(#M)" stroke="#000" stroke-linejoin="round" stroke-width="2" d="m124.394 328.86 19.951-6.399 47.75 83.716-19.95 6.399-47.751-83.716Z"/><path fill="#000" d="M160.694 371.82c2.058-.363 4.127-.706 6.171-1.094.539-.096.807-.029 1.062.434.74 1.37 1.525 2.731 2.322 4.085.254.431.142.621-.397.658-.778.064-1.543.195-2.335.174-.727-.025-1.74-.834-1.909-1.413-.069-.24-.135-.49-.135-.727-.002-.108.139-.248.26-.258.109-.003.347.132.415.237.181.243.291.51.437.765.302.53.775.75 1.45.669.243-.02.506-.035.683-.127.144-.074.288-.283.233-.395-.513-.959-1.075-1.914-1.617-2.865-.193-.338-.495-.377-.865-.31-.96.176-1.926.355-2.905.499-.5.074-.509.282-.309.633.595 1.013 1.16 2.018 1.738 3.032.43.769.057 1.126-.98.974-.482-.072-.954-.065-1.431-.114a84.267 84.267 0 0 1-2.848-.337c-.395-.053-.655-.049-.775.248-.23.562-.518 1.099-.729 1.667-.132.363-.738.505-1.182.217-.068-.045-.083-.189-.057-.263.214-.562.422-1.12.67-1.667.218-.48.138-.62-.585-.892-.596-.226-1.183-.467-1.772-.697-.442-.179-.403-.379-.274-.613.136-.238.279-.345.697-.161.794.35 1.6.677 2.414.974.198.064.57.063.655-.027.791-.874 2.011-1.367 3.093-1.985.151-.077.177-.27.258-.409-.251-.068-.535-.21-.718-.174-2.079.341-4.134.71-6.193 1.073-.192.033-.379.064-.568.104-.348.089-.61.001-.785-.305-.179-.329.013-.438.363-.494 2.147-.371 4.291-.748 6.448-1.116Zm2.718 4.215c.429-.11.522-.29.316-.621-.21-.353-.397-.711-.607-1.065-.309-.525-.571-.629-1.085-.37-.562.295-1.099.618-1.594.969-.201.139-.267.38-.402.575.314.075.636.162.943.24.07.019.141.038.207.051.736.07 1.486.15 2.225.227l-.003-.006ZM174.644 388.023c-.247-.434-.504-.854-.727-1.276-.217-.409-.516-.577-1.024-.456-.489.11-.991.211-1.495.295-.425.073-.531.244-.321.597.347.563.677 1.127.962 1.7.096.199.156.512.022.605-.175.125-.578.161-.853.081a130.477 130.477 0 0 1-4.329-1.268c-.717-.216-.957-.206-1.052.313-.152.848-.188 1.722-.271 2.589-.008.089.088.212.037.258-.147.143.287.606-.394.453-.832-.193-.989-.29-.915-.755.178-1.116.343-2.224.555-3.326.078-.34-.184-.546-.512-.705-1.535-.756-2.805-1.765-4.057-2.784-.462-.379.059-.447.223-.634.261-.301.56-.015.733.123.578.448 1.07.954 1.66 1.395.622.465 1.288.888 1.972 1.284.139.081.581.024.655-.086a6.967 6.967 0 0 1 2.413-2.239c.145-.074.181-.323.123-.484-.122-.302.001-.415.324-.472.402-.069.538.124.676.367.325.584.666 1.167.987 1.744.212.387.526.537.996.438.447-.094.917-.176 1.374-.268.49-.093.598-.35.373-.745-.357-.625-.717-1.257-1.084-1.884-.171-.3-.212-.522.233-.589.441-.075.579.168.711.414.336.603.645 1.204.996 1.79.389.666.472.695 1.256.535.264-.057.531-.108.805-.163.352-.083.673-.13.906.278.204.374-.075.448-.415.507-.34.059-.658.156-1.006.185-.604.057-.626.315-.377.722.499.831.976 1.667 1.472 2.491.173.29.238.507-.209.601-.359.07-.542-.012-.695-.296-.238-.448-.5-.891-.751-1.331.007-.003.017-.001.023-.004Zm-4.832-1.259c-.281-.491-.571-.985-.844-1.48-.176-.323-.464-.395-.67-.193a21.391 21.391 0 0 0-1.614 1.648c-.27.315-.14.663.454.856 1.037.33 2.087.653 3.139.966.543.164.524-.062.357-.356l-.822-1.441ZM153.107 369.139c1.801-.309 1.665-.13.867-1.56l-.233-.408c-.159-.264-.352-.543.132-.616.491-.077.666.186.831.49.209.396.454.781.666 1.183.181.346.408.461.859.39 1.273-.193 1.283-.174.698-1.201-.215-.377-.423-.757-.648-1.136-.174-.289-.058-.474.296-.447.198.005.462.184.647.315.117.086.131.23.204.358.356.625.708.72 1.318.363.16-.091.317-.189.508-.255.46-.161.614-.427.386-.855-.142-.265-.126-.444.254-.491.38-.048.551.117.696.372.275.511.576 1.024.861 1.538.204.357.467.477.945.408 1.21-.2 1.22-.181.653-1.176-.109-.191-.221-.372-.32-.561-.141-.292-.526-.639.116-.734.598-.096.645.283.807.554.217.35.431.709.608 1.065.18.345.432.489.861.379.199-.054.422-.063.631-.114.349-.072.559.044.716.318.164.287.021.394-.302.468-1.171.237-1.164.25-.622 1.2.109.192.288.386.304.563a.464.464 0 0 1-.224.44c-.29.132-.548-.009-.705-.299-.205-.374-.432-.743-.64-1.123-.168-.293-.41-.375-.79-.344-1.319.143-1.343.174-.747 1.22.186.326.427.645.547.974.062.167-.1.344-.154.518-.232-.095-.478-.183-.695-.296-.278-.146-.53-.408-.796-.459-.54-.098-1.094-.103-1.636-.132-.384-.018-.508.121-.317.426.064.098.12.21.174.306.173.273.302.53-.172.606-.478.069-.614-.2-.767-.468-.185-.325-.365-.654-.56-.982-.429-.736-.462-.751-1.345-.602-.085.014-.166.035-.255.044-.579.026-.615.275-.349.681.237.372.429.753.654 1.132.166.277.207.482-.194.567-.422.079-.59-.112-.74-.39-.208-.38-.439-.755-.638-1.132-.22-.416-.538-.573-1.047-.468-.627.121-1.272.21-1.895.337-.346.062-.575-.027-.735-.308-.16-.281-.08-.436.284-.483.337-.049.677-.107 1.007-.169l-.004-.006Zm7.976-.847c-.139-.242-.231-.494-.424-.713-.13-.138-.5-.341-.594-.312-.59.184-1.132.425-1.686.657-.039.022-.014.126 0 .194.15.71.667 1.184 1.581 1.255 1.472.098 1.969.254 1.123-1.081ZM154.364 359.816c.517.906 1.011 1.816 1.56 2.72.229.385.134.532-.344.602-1.75.263-3.468.567-5.215.836-1.207.19-1.806-.086-2.383-1.084-.175-.306-.337-.62-.525-.935-.184-.292-.022-.41.302-.468.346-.062.519.093.647.333.146.255.321.518.434.775.222.508.697.567 1.186.532.54-.02.685-.331.498-.689a98.148 98.148 0 0 0-2.19-3.824c-.22-.356-.649-.542-1.144-.429-.407.089-.85.13-1.247.238-.335.098-.544.057-.713-.253-.15-.278-.285-.53.2-.587.373-.044.73-.104 1.086-.163 1.773-.268 3.54-.532 5.292-.821.507-.078.757.033.977.432.498.933 1.038 1.851 1.566 2.776l.013.009Zm-2.09.262c.375.657.723 1.312 1.14 1.954.108.175.518.432.655.404a.87.87 0 0 0 .598-.409c.073-.126-.056-.365-.165-.557-.587-1.059-1.198-2.114-1.812-3.176a2.1 2.1 0 0 0-.388-.488c-.292-.274-.698-.405-.978-.212-.149.11-.206.397-.114.589.315.641.708 1.27 1.068 1.902a.022.022 0 0 0-.004-.007Zm-2.072.278c.385.676.734 1.348 1.168 2.005.119.177.546.407.744.396.217-.006.406-.24.488-.423.053-.131-.074-.338-.172-.51a311.34 311.34 0 0 0-1.848-3.24 1.894 1.894 0 0 0-.291-.392c-.266-.272-.581-.438-.977-.314-.386.111-.338.345-.168.628l1.056 1.85Z"/><path fill="#000" d="M171.67 379.566c.291-.056.588-.115.882-.164.647-.116.793-.038 1.069.506.158.307.07.45-.302.51-.674.114-1.34.24-2.012.37-.594.119-.644.24-.244.689.231.256.355.473-.024.597-.379.123-.614-.005-.819-.336-.415-.668-.428-.661-1.248-.506-.549.093-1.091.2-1.632.306-.549.109-.561.311-.098.706.152.133.373.43.337.442-.24.145-.538.248-.896-.038-.083-.071-.242-.099-.293-.172-.586-.73-1.236-.546-1.911-.406-1.011.205-2.026.42-3.07.568-.517.075-1.096.042-1.662.001-.205-.018-.54-.174-.647-.316a9.667 9.667 0 0 1-.855-1.499c-.041-.103.236-.286.427-.353.098-.022.42.141.501.255.742 1.048.736 1.052 2.062.803.773-.146 1.547-.291 2.315-.433.77-.152.817-.441.086-.92-.454-.291-.567-.548-.29-.807.094-.087.462-.111.561-.041.35.24.655.523.924.817.361.394.738.594 1.295.47a33.747 33.747 0 0 1 2.388-.44c.592-.093.697-.339.383-.785a9.525 9.525 0 0 1-.437-.647c-.062-.109-.131-.305-.089-.321.246-.073.514-.124.787-.136.066-.004.234.187.276.29.351.882 1.061 1.221 2.119 1.023.04-.005.085-.014.125-.02l-.008-.013ZM155.501 359.726a751.128 751.128 0 0 0-2-3.492c-.157-.274-.282-.524.182-.603.478-.069.609.177.77.457.448.801.923 1.604 1.365 2.409.168.31.364.46.809.392.412-.066.59-.185.373-.551-.359-.615-.699-1.225-1.052-1.843-.145-.255-.253-.49.199-.545.413-.049.537.168.665.407.349.613.698 1.225 1.041 1.841.157.274.341.448.759.379.396-.065.613-.19.402-.559-.414-.711-.837-1.425-1.216-2.147-.084-.163-.084-.46.04-.496.379-.124.497.173.621.39.399.685.791 1.357 1.158 2.044.212.387.52.54.993.448.343-.069.649-.083.853.291.187.342-.056.421-.387.466-.537.07-.583.332-.351.724.483.832.956 1.661 1.433 2.497.124.217.317.496-.124.511-.136.001-.456-.248-.547-.408-.52-.852-.981-1.705-1.471-2.55-.153-.268-.353-.5-.814-.474-.499.031-.581.23-.374.593.436.749.865 1.502 1.291 2.248.138.243.324.509-.104.592-.479.096-.611-.209-.753-.458-.428-.736-.843-1.463-1.265-2.203-.182-.319-.385-.541-.912-.453-.532.093-.43.331-.249.65.538.927 1.056 1.849 1.593 2.777.149.262.321.518-.159.598-.464.079-.622-.153-.782-.433a667.2 667.2 0 0 0-1.984-3.493l-.003-.006ZM173.983 398.806c-1.399.3-2.808.596-4.207.895-.355.076-.695.21-.96-.255-.245-.444.153-.46.48-.528 2.83-.6 5.658-1.19 8.482-1.803.847-.179.847-.195.453-.901-.157-.274-.303-.545-.466-.816-.173-.273-.135-.43.22-.506.36-.07.564.05.707.316.168.309.382.61.517.922.218.501.572.586 1.11.457.5-.133 1.023-.228 1.538-.336.346-.062.71-.228.953.242.257.48-.223.457-.542.538-.557.123-1.118.24-1.673.354-.427.083-.516.286-.306.623.199.334.438.679.555 1.018.051.149-.095.368-.243.452-.25.126-.507.018-.649-.247-.15-.278-.313-.548-.466-.816-.392-.673-.45-.699-1.235-.53-1.426.298-2.85.611-4.272.915l.004.006ZM176.162 402.449c.988-.216 1.976-.433 2.957-.646.903-.202.932-.27.488-1.048-.072-.128-.159-.264-.239-.405-.153-.268-.096-.435.253-.508.362-.079.541.056.69.317.55.98 1.103 1.949 1.663 2.915.149.262.175.441-.2.528-.381.09-.566-.041-.746-.327-.569-.893-.575-.889-1.654-.654-2.115.471-4.228.932-6.347 1.397-.838.182-1.157.068-1.635-.606-.296-.415-.53-.856-.778-1.289-.066-.132-.152-.328-.077-.404.117-.152.347-.224.533-.33.123.142.279.281.352.425.111.224.137.463.254.683.323.611.695.771 1.403.629 1.037-.219 2.056-.454 3.083-.677ZM150.658 353.764c2.257-.341 4.526-.663 6.776-1.016.565-.094.799.077 1.002.477.145.314.036.436-.393.427a7.588 7.588 0 0 0-1.256.074c-3.717.548-7.425 1.098-11.131 1.665a7.184 7.184 0 0 0-1.253.318c-.369.126-.613.011-.809-.274-.172-.257-.365-.536.098-.631.117-.033.248-.04.379-.064 2.189-.327 4.388-.652 6.587-.976ZM169.637 394.133c.995-.204 1.99-.408 2.972-.621.153-.028.259-.14.381-.209-.137-.091-.274-.199-.424-.282-.139-.065-.329-.1-.445-.186-.152-.116-.376-.301-.361-.394.059-.254.262-.463.704-.283.593.236 1.169.533 1.777.736.826.273 1.67.518 2.515.704.807.182 1.043.386.735.798a.392.392 0 0 1-.305.106 19.229 19.229 0 0 1-1.341-.3c-.687-.191-1.309-.242-1.961-.09a269.73 269.73 0 0 1-6.569 1.363c-.219.049-.561.058-.735-.054-.413-.247-.322-.594.137-.696.969-.206 1.945-.399 2.917-.598l.003.006Z"/><path fill="#000" d="M175.752 396.479c-1.128.076-2.409.165-3.691.237-.668.034-1.351.026-2.019.061-.382.014-.697-.093-.707-.392-.005-.158.23-.401.43-.406.642-.036 1.311.022 1.978.047.221.001.454.037.661.012 1.095-.117 2.189-.251 3.277-.381.269-.035.627-.121.711.22.043.178-.191.363-.318.528-.025.031-.117.033-.322.074ZM177.626 398.977c.134.042.385.11.626.175-.072.185-.057.464-.231.547-.988.47-2.023.9-3.042 1.346-.283.127-.546.277-.812.42-.276.141-.498.302-.927-.02-.454-.35-.397-.442.046-.618 1.259-.515 2.462-1.083 3.686-1.629.164-.068.35-.115.654-.221ZM176.348 391.827c.069-.132.09-.347.242-.408.142-.064.447-.019.643.056.853.35 1.687.728 2.538 1.088.246.105.573.113.768.247.213.149.347.385.434.597.019.049-.337.227-.455.184a156.636 156.636 0 0 1-3.848-1.482c-.098-.038-.166-.142-.322-.282ZM184.5 400.974c.211.37.416.743.643 1.112.17.284.092.429-.247.504-.351.083-.553-.047-.702-.309-.408-.714-.815-1.429-1.239-2.142-.145-.255-.122-.438.22-.523.374-.087.599.039.749.333.177.339.386.677.583 1.021l-.007.004ZM153.103 352.741c-.879.02-1.748.059-2.629.046-.188-.003-.437-.216-.664-.331.118-.135.191-.38.355-.389a81.124 81.124 0 0 1 3.658.002c.098-.006.33.133.357.21.041.087-.043.236-.148.262-.296.076-.637.101-.948.152.001.016.008.029.013.052l.006-.004ZM182.45 399.269c-.313-.118-.536-.168-.704-.283-.069-.046-.046-.245.015-.33.246-.343.515-.674.812-.987.052-.072.292-.083.393-.039.169.073.424.282.4.313-.267.44-.581.856-.916 1.326ZM156.206 354.522c.051.148.084.206.064.217-.499.285-.998.569-1.529.83a4.42 4.42 0 0 1-.453-.409c-.025-.029.108-.138.195-.179.369-.186.728-.374 1.13-.518.152-.045.414.043.593.059Z"/><path fill="#000" fill-rule="evenodd" d="M133.857 338.302c-.141-.207-.264-.402-.387-.596-.911-1.599-1.023-3.308-.331-4.739.687-1.439 2.158-2.474 4.034-2.899 1.898-.427 4.072-.228 6.034.588 1.982.791 3.574 2.128 4.471 3.701.109.191.218.382.305.596-.704.164-1.415.332-2.131.502a4.855 4.855 0 0 0-.297-.601c-.629-1.104-1.751-2.041-3.139-2.596-1.37-.566-2.892-.711-4.223-.401-1.305.296-2.335 1.033-2.822 2.036-.487 1.003-.403 2.199.231 3.311.114.199.236.394.39.583-.713.176-1.425.348-2.135.515ZM139.689 348.526a5.31 5.31 0 0 1-.373-.593c-.916-1.585-1.046-3.306-.346-4.764.673-1.444 2.11-2.517 3.98-2.973 1.883-.452 4.039-.266 6.013.531 1.955.784 3.55 2.107 4.437 3.662.119.209.219.405.311.606-.707.173-1.413.349-2.116.528a3.04 3.04 0 0 0-.306-.597c-.527-.943-1.445-1.766-2.574-2.331a7.24 7.24 0 0 0-3.616-.77 915.117 915.117 0 0 0 1.973 3.48c-.701.169-1.406.345-2.116.528l-1.987-3.484c-.981.48-1.67 1.23-1.943 2.145-.281.92-.148 1.961.401 2.902.11.214.233.409.378.602-.707.173-1.413.349-2.116.528Z" clip-rule="evenodd"/><defs><linearGradient id="a" x1="241.191" x2="193.761" y1="-28.831" y2="282.584" gradientUnits="userSpaceOnUse"><stop stop-color="#D6FFBB"/><stop offset="1" stop-color="#5869DD"/></linearGradient><linearGradient id="b" x1="-9.487" x2="175.189" y1="222.956" y2="74.44" gradientUnits="userSpaceOnUse"><stop stop-color="#D6FFBB"/><stop offset="1" stop-color="#5869DD"/></linearGradient><linearGradient id="c" x1="-127.794" x2="530.323" y1="298.006" y2="525.032" gradientUnits="userSpaceOnUse"><stop stop-color="#5869DD"/><stop offset="1" stop-color="#D6FFBB"/></linearGradient><linearGradient id="d" x1="-26.954" x2="187.304" y1="276.092" y2="209.709" gradientUnits="userSpaceOnUse"><stop offset=".193" stop-color="#D6FFBB"/><stop offset="1" stop-color="#5869DD"/></linearGradient><linearGradient id="e" x1="-42.957" x2="215.087" y1="609.296" y2="46.497" gradientUnits="userSpaceOnUse"><stop stop-color="#D6FFBB"/><stop offset="1" stop-color="#5869DD"/></linearGradient><linearGradient id="f" x1="290.782" x2="234.909" y1="1.59" y2="489.935" gradientUnits="userSpaceOnUse"><stop stop-color="#D6FFBB"/><stop offset="1" stop-color="#5869DD"/></linearGradient><linearGradient id="g" x1="361.16" x2="185.864" y1="182.486" y2="146.631" gradientUnits="userSpaceOnUse"><stop stop-color="#D6FFBB"/><stop offset="1" stop-color="#5869DD"/></linearGradient><linearGradient id="h" x1="159.753" x2="341.713" y1="148.286" y2="146.377" gradientUnits="userSpaceOnUse"><stop stop-color="#D6FFBB"/><stop offset="1" stop-color="#5869DD"/></linearGradient><linearGradient id="i" x1="247.951" x2="206.206" y1="53.652" y2="145.964" gradientUnits="userSpaceOnUse"><stop stop-color="#D6FFBB"/><stop offset="1" stop-color="#5869DD"/></linearGradient><linearGradient id="j" x1="109.011" x2="396.195" y1="248.039" y2="355.918" gradientUnits="userSpaceOnUse"><stop stop-color="#D6FFBB"/><stop offset="1" stop-color="#5869DD"/></linearGradient><linearGradient id="k" x1="345.765" x2="317.56" y1="122.199" y2="351.27" gradientUnits="userSpaceOnUse"><stop stop-color="#D6FFBB"/><stop offset="1" stop-color="#5869DD"/></linearGradient><linearGradient id="l" x1="308.476" x2="343.872" y1="369.219" y2="391.115" gradientUnits="userSpaceOnUse"><stop stop-color="#D6FFBB"/><stop offset="1" stop-color="#5869DD"/></linearGradient><linearGradient id="m" x1="190.241" x2="234.501" y1="176.05" y2="147.963" gradientUnits="userSpaceOnUse"><stop stop-color="#D6FFBB"/><stop offset="1" stop-color="#5869DD"/></linearGradient><linearGradient id="n" x1="111.639" x2="193.402" y1="186.523" y2="186.523" gradientUnits="userSpaceOnUse"><stop stop-color="#D6FFBB"/><stop offset="1" stop-color="#5869DD"/></linearGradient><linearGradient id="o" x1="163.83" x2="206.677" y1="186.684" y2="149.913" gradientUnits="userSpaceOnUse"><stop stop-color="#D6FFBB"/><stop offset="1" stop-color="#5869DD"/></linearGradient><linearGradient id="p" x1="148.945" x2="160.82" y1="169.168" y2="203.762" gradientUnits="userSpaceOnUse"><stop stop-color="#D6FFBB"/><stop offset="1" stop-color="#5869DD"/></linearGradient><linearGradient id="q" x1="160.533" x2="137.032" y1="182.959" y2="179.097" gradientUnits="userSpaceOnUse"><stop stop-color="#D6FFBB"/><stop offset="1" stop-color="#5869DD"/></linearGradient><linearGradient id="r" x1="136.63" x2="174.317" y1="302.504" y2="409.947" gradientUnits="userSpaceOnUse"><stop stop-color="#D6FFBB"/><stop offset="1" stop-color="#5869DD"/></linearGradient><linearGradient id="s" x1="240.987" x2="193.548" y1="-28.83" y2="282.584" gradientUnits="userSpaceOnUse"><stop stop-color="#D6FFBB"/><stop offset="1" stop-color="#5869DD"/></linearGradient><linearGradient id="t" x1="14.257" x2="172.254" y1="203.259" y2="74.573" gradientUnits="userSpaceOnUse"><stop stop-color="#D6FFBB"/><stop offset="1" stop-color="#5869DD"/></linearGradient><linearGradient id="u" x1="-128.008" x2="530.103" y1="297.996" y2="525.042" gradientUnits="userSpaceOnUse"><stop stop-color="#5869DD"/><stop offset="1" stop-color="#D6FFBB"/></linearGradient><linearGradient id="v" x1="5.301" x2="199.419" y1="235.997" y2="231.188" gradientUnits="userSpaceOnUse"><stop offset=".193" stop-color="#D6FFBB"/><stop offset="1" stop-color="#5869DD"/></linearGradient><linearGradient id="w" x1="143.887" x2="203.393" y1="660.611" y2="66.593" gradientUnits="userSpaceOnUse"><stop stop-color="#D6FFBB"/><stop offset="1" stop-color="#5869DD"/></linearGradient><linearGradient id="x" x1="290.578" x2="234.69" y1="1.591" y2="489.934" gradientUnits="userSpaceOnUse"><stop stop-color="#D6FFBB"/><stop offset="1" stop-color="#5869DD"/></linearGradient><linearGradient id="y" x1="360.95" x2="185.655" y1="182.489" y2="146.63" gradientUnits="userSpaceOnUse"><stop stop-color="#D6FFBB"/><stop offset="1" stop-color="#5869DD"/></linearGradient><linearGradient id="z" x1="159.545" x2="341.505" y1="148.284" y2="146.38" gradientUnits="userSpaceOnUse"><stop stop-color="#D6FFBB"/><stop offset="1" stop-color="#5869DD"/></linearGradient><linearGradient id="A" x1="151.839" x2="199.846" y1="327.396" y2="83.581" gradientUnits="userSpaceOnUse"><stop stop-color="#D6FFBB"/><stop offset="1" stop-color="#5869DD"/></linearGradient><linearGradient id="B" x1="212.349" x2="244.593" y1="193.3" y2="41.941" gradientUnits="userSpaceOnUse"><stop stop-color="#D6FFBB"/><stop offset="1" stop-color="#5869DD"/></linearGradient><linearGradient id="C" x1="247.745" x2="205.997" y1="53.652" y2="145.964" gradientUnits="userSpaceOnUse"><stop stop-color="#D6FFBB"/><stop offset="1" stop-color="#5869DD"/></linearGradient><linearGradient id="D" x1="268.547" x2="228.7" y1="180.816" y2="62.518" gradientUnits="userSpaceOnUse"><stop stop-color="#D6FFBB"/><stop offset="1" stop-color="#5869DD"/></linearGradient><linearGradient id="E" x1="108.798" x2="395.978" y1="248.034" y2="355.921" gradientUnits="userSpaceOnUse"><stop stop-color="#D6FFBB"/><stop offset="1" stop-color="#5869DD"/></linearGradient><linearGradient id="F" x1="345.555" x2="317.344" y1="122.2" y2="351.27" gradientUnits="userSpaceOnUse"><stop stop-color="#D6FFBB"/><stop offset="1" stop-color="#5869DD"/></linearGradient><linearGradient id="G" x1="308.259" x2="343.654" y1="369.219" y2="391.115" gradientUnits="userSpaceOnUse"><stop stop-color="#D6FFBB"/><stop offset="1" stop-color="#5869DD"/></linearGradient><linearGradient id="H" x1="190.031" x2="234.292" y1="176.05" y2="147.963" gradientUnits="userSpaceOnUse"><stop stop-color="#D6FFBB"/><stop offset="1" stop-color="#5869DD"/></linearGradient><linearGradient id="I" x1="163.621" x2="206.467" y1="186.684" y2="149.913" gradientUnits="userSpaceOnUse"><stop stop-color="#D6FFBB"/><stop offset="1" stop-color="#5869DD"/></linearGradient><linearGradient id="J" x1="107.886" x2="182.622" y1="171.781" y2="190.215" gradientUnits="userSpaceOnUse"><stop stop-color="#D6FFBB"/><stop offset="1" stop-color="#5869DD"/></linearGradient><linearGradient id="K" x1="154.372" x2="159.403" y1="181.47" y2="171.118" gradientUnits="userSpaceOnUse"><stop stop-color="#5869DD"/><stop offset="1" stop-color="#D6FFBB"/></linearGradient><linearGradient id="L" x1="153.61" x2="156.785" y1="204.354" y2="188.728" gradientUnits="userSpaceOnUse"><stop stop-color="#D6FFBB"/><stop offset="1" stop-color="#5869DD"/></linearGradient><linearGradient id="M" x1="136.415" x2="174.1" y1="302.504" y2="409.948" gradientUnits="userSpaceOnUse"><stop stop-color="#D6FFBB"/><stop offset="1" stop-color="#5869DD"/></linearGradient></defs></svg>
