<svg xmlns="http://www.w3.org/2000/svg" width="36" height="33" fill="none" viewBox="0 0 36 33"><path fill="#000" d="M0 3.927h2.001V22.25H0V3.927ZM33.354 3.927h2.002V22.25h-2.002V3.927ZM2.001 22.25h2.002v1.964H2V22.25ZM12.675 15.052h2v1.963h-2v-1.963ZM16.677 15.052h2.001v1.963h-2v-1.963ZM20.68 15.052h2v1.963h-2v-1.963ZM10.673 26.177h2.002v1.963h-2.002v-1.963ZM12.675 28.14h2v1.963h-2V28.14ZM14.676 24.214h2.001v7.853h-2.001v-7.853ZM16.677 24.214h14.676v1.963H16.677v-1.963ZM4.003 0h27.35v1.963H4.003V0ZM2.001 1.963h2.002v1.964H2V1.963ZM31.353 22.25h2.001v1.964h-2.001V22.25ZM31.353 1.963h2.001v1.964h-2.001V1.963ZM4.003 24.214h6.67v1.963h-6.67v-1.963Z"/><path fill="#F1EFED" fill-rule="evenodd" d="M2.001 3.927V22.25h2.002v1.964h6.67v1.963h2.002v1.963h2v-3.926h16.678V22.25h2.001V3.927h-2.001V1.963H4.003v1.964H2Zm12.675 11.125h-2.001v1.963h2v-1.963Zm4.002 0h-2v1.963h2v-1.963Zm4.003 0H20.68v1.963h2v-1.963Z" clip-rule="evenodd"/></svg>
