<svg width="36" height="36" viewBox="0 0 36 36" fill="none" xmlns="http://www.w3.org/2000/svg">
<rect x="8.81738" y="8" width="20.3636" height="19.7273" fill="#F1EFED"/>
<rect x="6.90918" y="9.9104" width="1.90909" height="1.90909" fill="#F1EFED"/>
<rect x="29.1826" y="9.91016" width="1.90909" height="1.90909" fill="#F1EFED"/>
<rect x="29.1826" y="25.8203" width="1.90909" height="1.90909" fill="#F1EFED"/>
<rect x="14.5449" y="27.7266" width="1.90909" height="3.81818" fill="#F1EFED"/>
<rect x="16.4551" y="27.7266" width="1.90909" height="5.72727" fill="#F1EFED"/>
<rect x="29.1826" y="11.8203" width="3.81818" height="14" fill="#F1EFED"/>
<rect x="8.81738" y="8" width="20.3636" height="1.90909" fill="#F1EFED"/>
<rect x="6.90918" y="25.8203" width="1.90909" height="1.90909" fill="#F1EFED"/>
<rect x="8.81738" y="27.7266" width="5.72727" height="1.90909" fill="#F1EFED"/>
<rect x="18.3633" y="27.7266" width="10.8182" height="1.90909" fill="#F1EFED"/>
<rect x="5" y="11.8203" width="3.81818" height="14" fill="#F1EFED"/>
<rect x="6.90918" y="9.90625" width="1.90909" height="1.90909" fill="black"/>
<rect x="29.1816" y="9.90625" width="1.90909" height="1.90909" fill="black"/>
<rect x="29.1816" y="25.8164" width="1.90909" height="1.90909" fill="black"/>
<rect x="14.5449" y="29.6367" width="1.90909" height="1.90909" fill="black"/>
<rect x="11.3633" y="18.8164" width="1.90909" height="1.90909" fill="black"/>
<rect x="17.7275" y="18.8164" width="1.90909" height="1.90909" fill="black"/>
<rect x="24.0908" y="18.8164" width="1.90909" height="1.90909" fill="black"/>
<rect x="16.4551" y="31.5469" width="1.90909" height="1.90909" fill="black"/>
<rect x="18.3633" y="29.6367" width="1.90909" height="1.90909" fill="black"/>
<rect x="31.0908" y="11.8164" width="1.90909" height="14" fill="black"/>
<rect x="8.81836" y="8" width="20.3636" height="1.90909" fill="black"/>
<rect x="6.90918" y="25.8164" width="1.90909" height="1.90909" fill="black"/>
<rect x="8.81836" y="27.7266" width="5.72727" height="1.90909" fill="black"/>
<rect x="18.3633" y="27.7266" width="10.8182" height="1.90909" fill="black"/>
<rect x="5" y="11.8164" width="1.90909" height="14" fill="black"/>
</svg>
