<svg width="34" height="35" viewBox="0 0 34 35" fill="none" xmlns="http://www.w3.org/2000/svg">
<g clip-path="url(#clip0_1360_19794)">
<path d="M17.8441 6.05389C17.9697 5.66732 18.2409 5.41432 18.557 5.29491C18.9772 5.1362 19.4768 5.21344 19.8197 5.52663C19.9654 5.65975 20.0828 5.83551 20.1538 6.0539L22.5431 13.4073C22.7056 13.9076 23.1719 14.2463 23.6979 14.2463L30.359 14.2463H31.4297C31.7783 14.2463 32.0666 14.3785 32.2749 14.5826C32.7694 15.067 32.8131 15.9565 32.1435 16.443L25.8883 20.9876C25.4627 21.2968 25.2846 21.8449 25.4472 22.3452L27.8364 29.6986C28.1999 30.8174 26.9195 31.7477 25.9679 31.0562L19.7127 26.5116C19.2871 26.2024 18.7108 26.2024 18.2852 26.5116L12.03 31.0562C11.4851 31.4522 10.8324 31.3163 10.4422 30.9179C10.151 30.6205 10.0061 30.1768 10.1615 29.6986L10.4753 28.7328L12.5507 22.3452C12.7133 21.8449 12.5352 21.2968 12.1096 20.9876L5.85444 16.443C5.80107 16.4042 5.75224 16.3629 5.7078 16.3194C5.70068 16.3124 5.69367 16.3054 5.68677 16.2983C5.47189 16.0778 5.36614 15.8053 5.35297 15.5317C5.32218 14.8919 5.7978 14.2463 6.56818 14.2463L14.3 14.2463C14.826 14.2463 15.2923 13.9076 15.4548 13.4073L17.8441 6.05389Z" fill="black"/>
<path d="M15.8441 4.05389C16.1406 3.14122 17.2486 2.97311 17.8441 3.54958C17.8533 3.55844 17.8623 3.56748 17.8712 3.5767C17.9931 3.7028 18.0914 3.86187 18.1538 4.0539L18.557 5.29491L20.5431 11.4073C20.7056 11.9076 21.1719 12.2463 21.6979 12.2463L29.4297 12.2463C29.7368 12.2463 29.9971 12.3489 30.1971 12.5128C30.2567 12.5617 30.3109 12.6159 30.3594 12.6746C30.718 13.1076 30.7654 13.7781 30.359 14.2463C30.2976 14.317 30.226 14.3831 30.1435 14.443L23.8883 18.9876C23.4627 19.2968 23.2846 19.8449 23.4472 20.3452L25.8364 27.6986C26.1999 28.8174 24.9195 29.7477 23.9679 29.0562L17.7127 24.5116C17.2871 24.2024 16.7108 24.2024 16.2852 24.5116L10.4753 28.7328L10.03 29.0562C9.50496 29.4377 8.87978 29.3255 8.48588 28.9603C8.46241 28.9386 8.43977 28.9159 8.41802 28.8924C8.14311 28.5955 8.01047 28.1633 8.16146 27.6986L10.5507 20.3452C10.7133 19.8449 10.5352 19.2968 10.1096 18.9876L5.35297 15.5317L3.85444 14.443C3.82135 14.419 3.79 14.3939 3.76037 14.368C3.71611 14.3293 3.67566 14.2887 3.63892 14.2463C2.99275 13.5019 3.49385 12.2463 4.56818 12.2463L12.3 12.2463C12.826 12.2463 13.2923 11.9076 13.4548 11.4073L15.8441 4.05389Z" fill="black"/>
<path d="M18.1538 4.0539L18.557 5.29491C18.9772 5.1362 19.4768 5.21344 19.8197 5.52663L17.8712 3.5767C17.9931 3.7028 18.0914 3.86187 18.1538 4.0539Z" fill="black"/>
<path d="M30.359 14.2463H31.4297C31.7783 14.2463 32.0666 14.3785 32.2749 14.5826L30.3594 12.6746C30.718 13.1076 30.7654 13.7781 30.359 14.2463Z" fill="black"/>
<path d="M5.35297 15.5317L3.85444 14.443C3.82135 14.419 3.79 14.3939 3.76037 14.368L5.68677 16.2983C5.47189 16.0778 5.36614 15.8053 5.35297 15.5317Z" fill="black"/>
<path d="M10.1615 29.6986L10.4753 28.7328L10.03 29.0562C9.50496 29.4377 8.87978 29.3255 8.48588 28.9603L10.4422 30.9179C10.151 30.6205 10.0061 30.1768 10.1615 29.6986Z" fill="black"/>
<path d="M11.0734 19.6167C10.9878 19.2107 10.7556 18.839 10.4035 18.5831L5.87297 15.2915C5.94687 14.9881 6.20627 14.7463 6.56818 14.7463L14.3 14.7463C15.0427 14.7463 15.7009 14.2681 15.9304 13.5618L18.3196 6.2084C18.321 6.20407 18.3225 6.19977 18.3239 6.19551L20.0675 11.5618C20.297 12.2681 20.9552 12.7463 21.6979 12.7463H21.8026L22.0675 13.5618C22.297 14.2681 22.9552 14.7463 23.6979 14.7463L28.8753 14.7463L23.5944 18.5831C22.9936 19.0197 22.7422 19.7934 22.9717 20.4998L25.3609 27.8531C25.5747 28.5112 24.8215 29.0585 24.2617 28.6517L18.0066 24.1071C17.4057 23.6706 16.5922 23.6706 15.9913 24.1071L11.4263 27.4237L13.0262 22.4998C13.2557 21.7934 13.0043 21.0197 12.4035 20.5831L11.0734 19.6167ZM6.56818 13.7463C5.8412 13.7463 5.30549 14.1538 5.0396 14.686L4.14833 14.0385C4.12725 14.0232 4.10766 14.0075 4.08947 13.9916C4.0623 13.9679 4.03808 13.9434 4.01652 13.9186C3.63653 13.4808 3.94491 12.7463 4.56818 12.7463L12.3 12.7463C13.0427 12.7463 13.7009 12.2681 13.9304 11.5618L16.3196 4.2084C16.4901 3.6838 17.1386 3.56247 17.4963 3.90882C17.5015 3.91384 17.5066 3.91897 17.5117 3.92421C17.5799 3.99473 17.639 4.08749 17.6783 4.20841L17.9556 5.06193C17.6949 5.26014 17.4849 5.54127 17.3686 5.89938L14.9793 13.2528C14.8837 13.5471 14.6094 13.7463 14.3 13.7463L6.56818 13.7463ZM19.231 5.75118C19.3241 5.78136 19.4104 5.82994 19.4825 5.8958C19.5636 5.96987 19.6338 6.07138 19.6783 6.20841L21.465 11.7073C21.2573 11.6356 21.0892 11.4701 21.0186 11.2528L19.231 5.75118ZM23.0186 13.2528L22.854 12.7463L29.4297 12.7463C29.6202 12.7463 29.7687 12.8082 29.8801 12.8996C29.9143 12.9275 29.9458 12.959 29.9743 12.9934C30.151 13.2068 30.1953 13.5023 30.0897 13.7463L23.6979 13.7463C23.3885 13.7463 23.1142 13.5471 23.0186 13.2528ZM30.4374 14.8475C30.4817 14.8153 30.5241 14.7815 30.5645 14.7463H31.4297C31.6444 14.7463 31.8079 14.825 31.925 14.9397C32.2296 15.2382 32.2348 15.7586 31.8496 16.0385L25.5944 20.5831C24.9936 21.0197 24.7422 21.7934 24.9717 22.4998L27.3609 29.8531C27.5747 30.5112 26.8215 31.0585 26.2617 30.6517L25.0309 29.7574C25.945 29.5582 26.6589 28.612 26.312 27.5441L23.9227 20.1907C23.8271 19.8964 23.9318 19.574 24.1822 19.3921L30.4374 14.8475ZM17.4188 24.9161L18.6552 25.8144C18.4206 25.8624 18.1939 25.9599 17.9913 26.1071L11.7362 30.6517C11.4183 30.8827 11.0401 30.8138 10.7995 30.5681C10.6273 30.3922 10.5439 30.1395 10.637 29.8531L10.9006 29.0418L16.5791 24.9161C16.8295 24.7342 17.1685 24.7342 17.4188 24.9161ZM12.0752 22.1907L10.05 28.4237L9.73616 28.6517C9.42886 28.875 9.06787 28.8181 8.82581 28.5937C8.81163 28.5805 8.79799 28.5669 8.78494 28.5528L8.41802 28.8924L8.78493 28.5528C8.62314 28.378 8.54633 28.1321 8.63698 27.8531L10.9424 20.7577L11.8157 21.3921C12.0661 21.574 12.1708 21.8964 12.0752 22.1907Z" stroke="black"/>
<path d="M16.3207 4.20878C16.5345 3.55071 17.4655 3.5507 17.6793 4.20878L20.0686 11.5622L20.5441 11.4077L20.0686 11.5622C20.2981 12.2685 20.9563 12.7467 21.699 12.7467L29.4308 12.7467C30.1227 12.7467 30.4104 13.6322 29.8506 14.0389L23.5955 18.5835C22.9946 19.02 22.7432 19.7938 22.9727 20.5001L25.362 27.8535C25.5758 28.5116 24.8226 29.0588 24.2628 28.6521L18.0076 24.1075C17.4068 23.6709 16.5932 23.6709 15.9924 24.1075L9.7372 28.6521C9.17741 29.0588 8.42421 28.5116 8.63803 27.8535L11.0273 20.5001C11.2568 19.7938 11.0054 19.02 10.4045 18.5835L4.14938 14.0389C3.58958 13.6322 3.87728 12.7467 4.56922 12.7467L12.301 12.7467C13.0437 12.7467 13.7019 12.2685 13.9314 11.5622L16.3207 4.20878Z" fill="#F2EA86" stroke="black"/>
</g>
<defs>
<clipPath id="clip0_1360_19794">
<rect width="34" height="34" fill="white" transform="translate(0 0.5)"/>
</clipPath>
</defs>
</svg>
