<svg width="520" height="292" viewBox="0 0 520 292" fill="none" xmlns="http://www.w3.org/2000/svg">
<rect width="520" height="292" rx="16" fill="url(#paint0_linear_303_5939)"/>
<g opacity="0.5">
<path fill-rule="evenodd" clip-rule="evenodd" d="M287.674 214.75C292.244 213.013 299.375 209.197 304.535 205.728C310.71 201.578 319.192 193.663 323.417 188.11C331.005 178.136 334.974 167.992 337.255 152.744C338.789 142.49 338.898 139.887 339.04 110.126C339.19 78.4738 339.327 80.4605 336.819 77.9528C334.399 75.5325 335.831 75.6413 306.354 75.6412C277.884 75.6412 278.881 75.5832 276.529 77.3774C275.928 77.8353 275.061 78.8489 274.602 79.6296L273.768 81.0492L273.684 108.017L273.6 134.984L274.268 136.536C275.052 138.358 277.203 140.389 278.829 140.841C279.495 141.026 285.047 141.152 292.541 141.153L305.134 141.155L305.134 143.098C305.134 147.523 303.873 155.031 302.293 160.006C300.194 166.62 296.991 171.952 292.351 176.558C288.566 180.315 284.183 183.299 278.021 186.314C273.516 188.518 272.84 189.065 271.602 191.51C271.274 192.157 271.055 193.311 271.045 194.452C271.029 196.103 271.235 196.774 272.757 200.031C278.549 212.426 279.022 213.213 281.442 214.447C283.216 215.352 285.764 215.476 287.674 214.75ZM196.291 214.977C198.003 214.66 206.056 210.72 210.417 208.064C223.647 200.007 233.973 189.212 240.016 177.124C244.435 168.285 246.624 159.356 248.165 143.878C248.575 139.764 248.693 133.615 248.803 110.437C248.956 78.4379 249.095 80.4642 246.583 77.9528C244.163 75.5328 245.593 75.6412 216.134 75.6412C187.42 75.6412 188.427 75.5788 186.092 77.5034C185.479 78.0084 184.618 79.1444 184.178 80.0279L183.377 81.6342L183.384 108.381C183.391 134.622 183.403 135.155 184.02 136.52C184.744 138.118 185.847 139.363 187.394 140.327C188.451 140.985 188.783 141.004 201.76 141.155L215.044 141.31L214.95 143.782C214.706 150.167 213.164 157.767 211.023 163.135C208.822 168.655 206.186 172.681 202.185 176.633C198.544 180.229 194.827 182.792 188.992 185.728C183.398 188.542 181.835 189.839 181.202 192.19C180.452 194.973 180.847 196.375 184.535 204.042C186.593 208.321 188.42 211.69 189.125 212.507C190.915 214.583 193.534 215.486 196.291 214.977Z" fill="#8F8E93"/>
</g>
<defs>
<linearGradient id="paint0_linear_303_5939" x1="198.579" y1="374.538" x2="169.417" y2="-99.9458" gradientUnits="userSpaceOnUse">
<stop offset="0.121234" stop-color="#F1EFED"/>
<stop offset="0.488143" stop-color="#DDDDDD" stop-opacity="0.22"/>
<stop offset="1" stop-color="#F1EFED"/>
</linearGradient>
</defs>
</svg>
