<svg width="42" height="42" viewBox="0 0 42 42" fill="none" xmlns="http://www.w3.org/2000/svg">
<path d="M20.9978 -0.00776672C16.8445 -0.00776672 12.7845 1.22383 9.33111 3.53129C5.87775 5.83874 3.1862 9.11842 1.59679 12.9556C0.00738975 16.7927 -0.408471 21.015 0.4018 25.0885C1.21207 29.162 3.21208 32.9038 6.14891 35.8406C9.08575 38.7775 12.8275 40.7775 16.901 41.5877C20.9745 42.398 25.1968 41.9822 29.034 40.3928C32.8711 38.8034 36.1508 36.1118 38.4583 32.6584C40.7657 29.2051 41.9973 25.1451 41.9973 20.9917C41.9973 15.4223 39.7849 10.081 35.8467 6.14285C31.9085 2.20467 26.5672 -0.00776672 20.9978 -0.00776672ZM32.168 22.3342L14.1685 31.334C13.9397 31.4483 13.6856 31.5022 13.4301 31.4907C13.1747 31.4791 12.9264 31.4024 12.709 31.2679C12.4915 31.1334 12.312 30.9455 12.1876 30.7221C12.0632 30.4987 11.9979 30.2472 11.998 29.9915V11.992C11.9982 11.7364 12.0636 11.4851 12.1881 11.2619C12.3127 11.0387 12.4922 10.851 12.7096 10.7167C12.927 10.5824 13.1752 10.5058 13.4305 10.4943C13.6858 10.4828 13.9398 10.5367 14.1685 10.651L32.168 19.6508C32.4169 19.7755 32.6261 19.967 32.7723 20.2038C32.9185 20.4406 32.9959 20.7134 32.9959 20.9917C32.9959 21.2701 32.9185 21.5429 32.7723 21.7797C32.6261 22.0165 32.4169 22.208 32.168 22.3327V22.3342Z" fill="black" fill-opacity="0.3"/>
</svg>
