<svg width="119" height="26" viewBox="0 0 119 26" fill="none" xmlns="http://www.w3.org/2000/svg">
<g clip-path="url(#clip0_37976_22071)">
<path d="M24.115 1.69265C21.2088 -0.122728 17.3866 0.309243 13.9746 2.4527C10.5735 0.309243 6.74866 -0.122728 3.85882 1.69265C-0.731559 4.56061 -1.2893 11.9479 2.61485 18.1923C5.49102 22.7964 9.99664 25.4948 13.9937 25.4456C17.9991 25.4948 22.4965 22.7964 25.3727 18.1923C29.2577 11.9479 28.7027 4.56061 24.115 1.69265ZM4.70363 16.8745C3.90053 15.5986 3.29494 14.2086 2.90739 12.7517C2.56172 11.4865 2.42959 10.1726 2.51643 8.86392C2.69141 6.55642 3.62916 4.76292 5.1602 3.80329C6.69124 2.84365 8.7144 2.78898 10.8688 3.64472C11.1914 3.77321 11.5113 3.91812 11.8284 4.08762C10.6328 5.17934 9.59324 6.4305 8.739 7.80586C6.36863 11.5979 5.64686 15.8165 6.47253 19.1793C5.81293 18.4677 5.22246 17.6951 4.70909 16.8718L4.70363 16.8745ZM25.0528 12.7489C24.663 14.206 24.0556 15.596 23.2511 16.8718C22.7372 17.6956 22.1467 18.4691 21.4876 19.182C22.2258 16.1746 21.7255 12.4728 19.9129 9.00882C19.884 8.95154 19.8434 8.90098 19.7937 8.86044C19.744 8.8199 19.6863 8.79027 19.6244 8.77351C19.5625 8.75674 19.4978 8.75321 19.4344 8.76314C19.3711 8.77306 19.3105 8.79622 19.2567 8.83111L13.6055 12.3607C13.554 12.3928 13.5093 12.4348 13.4739 12.4842C13.4386 12.5336 13.4134 12.5894 13.3996 12.6486C13.3859 12.7078 13.384 12.7691 13.394 12.829C13.404 12.8889 13.4257 12.9462 13.4579 12.9977L14.2781 14.3237C14.3102 14.3753 14.3521 14.42 14.4015 14.4553C14.4509 14.4906 14.5068 14.5159 14.566 14.5296C14.6252 14.5433 14.6864 14.5452 14.7463 14.5352C14.8063 14.5252 14.8636 14.5035 14.9151 14.4714L18.5787 12.183C18.6962 12.5384 18.8165 12.8938 18.904 13.2492C19.2491 14.5126 19.3813 15.8247 19.295 17.1315C19.12 19.439 18.1822 21.2325 16.6512 22.1922C15.8617 22.6745 14.9571 22.9361 14.032 22.9495H13.9145C12.9893 22.9363 12.0847 22.6748 11.2953 22.1922C9.76426 21.2353 8.8347 19.4363 8.64879 17.1315C8.56251 15.8229 8.69463 14.509 9.03975 13.2438C9.83393 10.3165 11.4757 7.68937 13.7586 5.69248C14.7427 4.82904 15.8634 4.13518 17.075 3.63925C19.2239 2.78351 21.2525 2.84092 22.7836 3.79782C24.3146 4.75472 25.2442 6.55096 25.4273 8.85845C25.5193 10.1671 25.3927 11.4819 25.0528 12.7489ZM54.2218 9.99306C53.5211 9.98148 52.8251 10.1091 52.174 10.3685C51.523 10.6279 50.9299 11.0139 50.4292 11.5042C49.9285 11.9945 49.53 12.5794 49.257 13.2248C48.9839 13.8702 48.8417 14.5634 48.8386 15.2642C48.8386 18.1951 51.239 20.4779 54.2109 20.4779C57.1827 20.4779 59.605 18.2005 59.605 15.2642C59.6019 14.5634 59.4597 13.8702 59.1866 13.2248C58.9136 12.5794 58.5151 11.9945 58.0144 11.5042C57.5137 11.0139 56.9206 10.6279 56.2696 10.3685C55.6185 10.1091 54.9225 9.98148 54.2218 9.99306ZM54.2218 17.7221C53.7271 17.7324 53.2407 17.5948 52.8247 17.327C52.4087 17.0592 52.0821 16.6733 51.8867 16.2187C51.6913 15.7642 51.6361 15.2617 51.7281 14.7755C51.82 14.2894 52.055 13.8418 52.4029 13.49C52.7508 13.1382 53.1957 12.8982 53.6808 12.8008C54.1659 12.7034 54.669 12.7531 55.1257 12.9433C55.5824 13.1336 55.972 13.4559 56.2444 13.8688C56.5169 14.2818 56.6598 14.7667 56.6551 15.2615C56.6605 15.5838 56.6015 15.904 56.4815 16.2032C56.3615 16.5024 56.1829 16.7746 55.9563 17.0039C55.7296 17.2331 55.4594 17.4147 55.1615 17.538C54.8637 17.6614 54.5442 17.7239 54.2218 17.7221ZM66.3143 5.94401H60.8463C60.7872 5.94288 60.7285 5.95373 60.6738 5.9759C60.619 5.99807 60.5693 6.0311 60.5277 6.073C60.486 6.1149 60.4533 6.1648 60.4315 6.2197C60.4096 6.27459 60.3991 6.33333 60.4006 6.39238V19.7234C60.3965 19.7842 60.405 19.8453 60.4255 19.9028C60.4461 19.9602 60.4783 20.0128 60.5202 20.0572C60.562 20.1016 60.6126 20.1369 60.6687 20.1608C60.7248 20.1848 60.7853 20.1969 60.8463 20.1963H66.3143C70.6887 20.1963 73.7289 17.2874 73.7289 13.0524C73.7289 8.81744 70.6914 5.94401 66.3143 5.94401ZM66.4455 17.3749H63.4518V8.75182H66.4455C68.8678 8.75182 70.5465 10.5645 70.5465 13.0469C70.5356 15.4884 68.8651 17.3749 66.4455 17.3749ZM84.6157 10.2665H82.5597C82.4457 10.2752 82.3391 10.3259 82.2603 10.4087C82.1815 10.4915 82.1362 10.6006 82.1332 10.7148V11.3245C81.6657 10.5508 80.6076 9.98212 79.2898 9.98212C76.7253 9.98212 74.3249 11.9971 74.3249 15.2123C74.3249 18.4275 76.7062 20.4615 79.2707 20.4615C80.5939 20.4615 81.6711 19.8929 82.1414 19.1191V19.7507C82.1421 19.8636 82.1873 19.9717 82.2671 20.0515C82.3469 20.1313 82.455 20.1765 82.5679 20.1772H84.6239C84.6802 20.1783 84.7361 20.1681 84.7884 20.147C84.8406 20.126 84.8881 20.0946 84.9279 20.0548C84.9678 20.0149 84.9991 19.9675 85.0202 19.9152C85.0412 19.863 85.0515 19.807 85.0504 19.7507V10.7285C85.0522 10.6703 85.0423 10.6123 85.0213 10.5579C85.0003 10.5036 84.9685 10.4541 84.928 10.4122C84.8874 10.3704 84.8389 10.3372 84.7852 10.3145C84.7316 10.2918 84.6739 10.2801 84.6157 10.2801V10.2665ZM79.8339 17.7303C78.4669 17.7303 77.4499 16.6831 77.4499 15.2341C77.4499 13.7851 78.4724 12.738 79.8339 12.738C81.1954 12.738 82.2179 13.7824 82.2179 15.2341C82.2179 16.6859 81.1954 17.7303 79.8339 17.7303ZM96.1531 5.93034H94.0972C94.0398 5.92889 93.9828 5.93879 93.9293 5.95947C93.8759 5.98015 93.827 6.01121 93.7856 6.05086C93.7442 6.0905 93.711 6.13794 93.688 6.19045C93.665 6.24297 93.6526 6.29952 93.6515 6.35685V11.278C93.1785 10.5453 92.1041 9.97392 90.7617 9.97392C88.2163 9.97392 85.8569 11.9889 85.8569 15.2041C85.8569 18.4192 88.2382 20.4533 90.8027 20.4533C92.1259 20.4533 93.1211 19.8847 93.6734 19.1109V19.7425C93.6741 19.8554 93.7193 19.9635 93.7991 20.0433C93.8789 20.1231 93.987 20.1683 94.0999 20.169H96.1559C96.2122 20.1701 96.2681 20.1598 96.3204 20.1388C96.3726 20.1178 96.4201 20.0864 96.4599 20.0466C96.4998 20.0067 96.5311 19.9593 96.5522 19.907C96.5732 19.8548 96.5835 19.7988 96.5824 19.7425V6.34591C96.5839 6.28937 96.5739 6.23311 96.553 6.18054C96.5321 6.12797 96.5008 6.08018 96.4609 6.04005C96.4211 5.99993 96.3735 5.9683 96.321 5.9471C96.2686 5.92589 96.2124 5.91554 96.1559 5.91667L96.1531 5.93034ZM91.3714 17.7549C90.0044 17.7549 89.001 16.6968 89.001 15.2314C89.001 13.766 90.018 12.7079 91.3714 12.7079C92.7247 12.7079 93.7417 13.766 93.7417 15.2314C93.7417 16.6968 92.7274 17.7686 91.3714 17.7686V17.7549ZM107.688 5.93034H105.635C105.577 5.92852 105.52 5.93814 105.466 5.95866C105.412 5.97918 105.363 6.01018 105.321 6.04986C105.28 6.08953 105.246 6.1371 105.223 6.1898C105.2 6.2425 105.187 6.29929 105.186 6.35685V11.278C104.719 10.5453 103.639 9.97392 102.296 9.97392C99.7511 9.97392 97.3916 11.9889 97.3916 15.2041C97.3916 18.4192 99.7729 20.4533 102.337 20.4533C103.661 20.4533 104.656 19.8847 105.208 19.1109V19.7425C105.209 19.8554 105.254 19.9635 105.334 20.0433C105.414 20.1231 105.522 20.1683 105.635 20.169H107.688C107.744 20.1705 107.8 20.1605 107.853 20.1396C107.905 20.1187 107.953 20.0873 107.993 20.0474C108.033 20.0075 108.064 19.9599 108.085 19.9075C108.106 19.855 108.116 19.7989 108.114 19.7425V6.34591C108.116 6.28926 108.107 6.23283 108.086 6.18008C108.065 6.12733 108.034 6.07938 107.994 6.03918C107.954 5.99897 107.906 5.96736 107.854 5.9463C107.801 5.92523 107.745 5.91515 107.688 5.91667V5.93034ZM102.906 17.7549C101.539 17.7549 100.536 16.6968 100.536 15.2314C100.536 13.766 101.553 12.7079 102.906 12.7079C104.259 12.7079 105.276 13.766 105.276 15.2314C105.276 16.6968 104.265 17.7549 102.912 17.7549H102.906ZM118.944 10.9582L115.876 21.4923C115.283 23.365 113.962 24.4832 111.906 24.4832C111.051 24.5085 110.203 24.3116 109.446 23.9118C109.058 23.6904 108.735 23.4881 108.735 23.1627C108.74 22.9821 108.804 22.8081 108.918 22.6679L109.533 21.7493C109.706 21.495 109.831 21.4102 110.017 21.4102C110.164 21.4143 110.305 21.464 110.422 21.5524C110.789 21.8377 111.237 21.9994 111.701 22.0144C112.333 22.0144 112.817 21.8121 113.068 21.0575L113.342 20.1854H112.103C111.977 20.1885 111.853 20.1477 111.754 20.0699C111.654 19.9922 111.584 19.8822 111.556 19.7589L108.822 10.9691C108.721 10.6219 108.822 10.2774 109.323 10.2774H111.485C111.759 10.2774 111.934 10.3676 112.051 10.7449L114.077 17.8232L115.972 10.7449C115.991 10.614 116.057 10.4945 116.158 10.4086C116.258 10.3226 116.386 10.276 116.519 10.2774H118.556C118.963 10.2665 119.086 10.5645 118.944 10.9718V10.9582ZM48.0758 14.0941V19.7124C48.0769 19.7738 48.0656 19.8347 48.0427 19.8916C48.0197 19.9485 47.9855 20.0002 47.9421 20.0436C47.8987 20.0869 47.8471 20.1211 47.7902 20.1441C47.7333 20.1671 47.6723 20.1783 47.611 20.1772H45.9132C45.8518 20.1783 45.7909 20.1671 45.734 20.1441C45.6771 20.1211 45.6254 20.0869 45.5821 20.0436C45.5387 20.0002 45.5045 19.9485 45.4815 19.8916C45.4586 19.8347 45.4473 19.7738 45.4484 19.7124V18.2361C44.3712 19.6031 42.4984 20.4533 40.3796 20.4533C36.4016 20.4533 33.293 17.4596 33.293 13.2C33.293 8.77369 36.6504 5.71982 40.8908 5.71982C44.0213 5.71982 46.5229 7.06495 47.6356 9.77161C47.6671 9.84327 47.6848 9.92028 47.6875 9.99853C47.6875 10.127 47.6028 10.2227 47.3321 10.3184L45.3472 11.0867C45.2269 11.1343 45.093 11.1343 44.9727 11.0867C44.866 11.0236 44.7825 10.9277 44.7348 10.8133C44.024 9.46267 42.7581 8.54405 40.8115 8.54405C38.2853 8.54405 36.4754 10.518 36.4754 13.0743C36.4754 15.554 38.0147 17.5936 40.8826 17.5936C42.3918 17.5936 43.592 16.8827 44.1634 16.1008H42.3754C42.314 16.1019 42.2531 16.0907 42.1962 16.0677C42.1393 16.0447 42.0876 16.0105 42.0443 15.9672C42.0009 15.9238 41.9667 15.8721 41.9437 15.8152C41.9208 15.7583 41.9095 15.6974 41.9106 15.636V14.1214C41.9095 14.06 41.9208 13.9991 41.9437 13.9422C41.9667 13.8853 42.0009 13.8337 42.0443 13.7903C42.0876 13.7469 42.1393 13.7127 42.1962 13.6897C42.2531 13.6668 42.314 13.6555 42.3754 13.6566H47.6192C47.6794 13.6536 47.7396 13.663 47.7961 13.6841C47.8525 13.7052 47.9041 13.7376 47.9476 13.7793C47.9911 13.821 48.0257 13.8712 48.0491 13.9267C48.0726 13.9822 48.0844 14.042 48.084 14.1023L48.0758 14.0941Z" fill="#111111"/>
</g>
<defs>
<clipPath id="clip0_37976_22071">
<rect width="119" height="24.8903" fill="white" transform="translate(0 0.554688)"/>
</clipPath>
</defs>
</svg>

