<svg width="150" height="28" viewBox="0 0 150 28" fill="none" xmlns="http://www.w3.org/2000/svg">
<g clip-path="url(#clip0_37976_22184)">
<path d="M46.2641 14.5483V13.3374H48.4778V22.708C48.4778 25.8735 46.439 27.8172 43.0742 27.8172C41.5688 27.8172 39.9196 27.4076 38.8571 26.6506L39.6562 24.7889C40.6799 25.437 41.8627 25.7901 43.0742 25.8094C45.1351 25.8094 46.2707 24.6738 46.2707 22.8032V21.993C45.5137 22.9603 44.378 23.465 42.9148 23.465C40.6125 23.465 38.2461 21.5303 38.2461 18.2695C38.2461 15.0087 40.6125 13.0762 42.9148 13.0762C44.3714 13.0762 45.507 13.5919 46.2641 14.5483ZM40.5085 18.2695C40.5085 19.963 41.6154 21.393 43.4837 21.393C45.2546 21.393 46.4589 20.036 46.4589 18.2695C46.4589 16.5029 45.2458 15.1459 43.4748 15.1459C41.6154 15.1459 40.5019 16.5672 40.5019 18.2606L40.5085 18.2695Z" fill="#111111"/>
<path d="M58.7118 13.3595L58.1849 15.5356C57.6616 15.2918 57.0909 15.1663 56.5136 15.1681C55.1146 15.1681 54.1162 16.1576 54.1162 17.871V23.4053H51.918V13.3374H54.0984V14.473C54.7625 13.5166 55.7919 13.0761 57.0227 13.0761C57.5989 13.0593 58.1727 13.1556 58.7118 13.3595Z" fill="#111111"/>
<path d="M70.649 18.3758C70.649 21.393 68.3357 23.6753 65.2233 23.6753C62.1108 23.6753 59.8086 21.393 59.8086 18.3758C59.8086 15.3585 62.1108 13.0762 65.2233 13.0762C68.3357 13.0762 70.649 15.3562 70.649 18.3758ZM62.0688 18.3758C62.0688 20.2796 63.4258 21.6033 65.2233 21.6033C67.0208 21.6033 68.3889 20.2751 68.3889 18.3758C68.3889 16.4764 67.0208 15.1459 65.2233 15.1459C63.4258 15.1459 62.071 16.472 62.071 18.3758H62.0688Z" fill="#111111"/>
<path d="M84.2082 21.0371L86.586 13.3379H88.877L85.5428 23.4124H82.9202L80.4274 15.8261L77.9347 23.419H75.3537L72.0195 13.3445H74.3636L76.73 21.0017L79.2119 13.3445H81.7047L84.2082 21.0371Z" fill="#111111"/>
<path d="M98.0514 15.338H94.1924V19.7233C94.1924 21.0803 94.9075 21.605 95.7913 21.605C96.5172 21.5639 97.2179 21.3276 97.821 20.9209L98.6933 22.6786C97.7858 23.3196 96.7045 23.6681 95.5939 23.677C93.3137 23.677 91.9769 22.4462 91.9769 19.7654V15.338H89.9688V13.3456H91.9769V10.293H94.1903V13.3412H98.0493L98.0514 15.338Z" fill="#111111"/>
<path d="M102.938 14.5377C103.746 13.3822 104.988 13.0766 106.009 13.0766C108.406 13.0766 110.099 14.728 110.099 17.0813V23.4124H107.892V17.8184C107.892 16.1249 107.02 15.1797 105.548 15.1797C104.127 15.1797 102.94 16.1161 102.94 17.8361V23.4191H100.727V8.27734H102.94L102.938 14.5377Z" fill="#111111"/>
<path d="M120.456 14.2753V8.26953H123.19V23.4112H120.511V22.2867C120.146 22.7391 119.68 23.1002 119.15 23.3411C118.621 23.5821 118.042 23.6962 117.461 23.6747C114.654 23.6747 112.531 21.3724 112.531 18.3108C112.531 15.2493 114.651 12.947 117.459 12.947C118.827 12.947 119.794 13.485 120.456 14.2753ZM115.336 18.302C115.336 19.8516 116.356 21.1112 117.963 21.1112C119.531 21.1112 120.593 19.9114 120.593 18.302C120.593 16.6926 119.531 15.495 117.963 15.495C116.356 15.5039 115.336 16.7546 115.336 18.3108V18.302Z" fill="#111111"/>
<path d="M136.103 23.412H133.422V22.2875C133.056 22.7399 132.59 23.101 132.061 23.3419C131.531 23.5829 130.953 23.697 130.372 23.6755C127.564 23.6755 125.441 21.3732 125.441 18.3116C125.441 15.2501 127.564 12.9478 130.372 12.9478C130.954 12.9264 131.533 13.0418 132.063 13.2847C132.593 13.5277 133.058 13.8915 133.422 14.3469V13.2202H136.103V23.412ZM128.249 18.3205C128.249 19.8701 129.269 21.1297 130.876 21.1297C132.444 21.1297 133.506 19.9299 133.506 18.3205C133.506 16.7112 132.444 15.5136 130.876 15.5136C129.269 15.5047 128.259 16.7554 128.259 18.3116L128.249 18.3205Z" fill="#111111"/>
<path d="M141.516 27.6593H138.51L142.074 21.2395L137.68 13.2148H140.792L143.588 18.4525L146.302 13.2148H149.308L141.516 27.6593Z" fill="#111111"/>
<path d="M2.02319 17.4805H0.0507812V19.4329H2.02319V17.4805Z" fill="#111111"/>
<path d="M26.6358 17.4805H4.42578V19.4329H26.6358V17.4805Z" fill="#111111"/>
<path d="M1.99585 21.5527H0.0234375V23.5053H1.99585V21.5527Z" fill="#111111"/>
<path d="M26.6085 21.5527H4.39844V23.5053H26.6085V21.5527Z" fill="#111111"/>
<path d="M22.314 13.2667C22.2561 12.3369 22.053 11.4218 21.7119 10.5549L26.1835 7.95825L25.1785 6.26035L20.802 8.82381C20.2455 7.99458 19.5541 7.26428 18.7566 6.66324L21.3488 2.35537L19.6686 1.34593L17.0741 5.65823C16.1717 5.24538 15.2065 4.98649 14.2185 4.89228V0H12.2616V4.91442C11.2855 5.03103 10.3355 5.30854 9.45016 5.7357L6.79372 1.33708L5.11574 2.34873L7.77217 6.77614C7.03474 7.35718 6.39307 8.05043 5.87061 8.83048L1.52289 6.2847L0.528942 7.98258L4.97184 10.5616C4.63375 11.4268 4.43284 12.3395 4.37636 13.2667H0.0507812V15.217H26.6373V13.2667H22.314ZM20.0737 13.2667H6.57013C6.56785 13.252 6.56785 13.2371 6.57013 13.2225C6.61106 12.322 6.83126 11.4389 7.21784 10.6246C7.60445 9.81041 8.14959 9.08155 8.82145 8.4807C9.31281 8.04383 9.86456 7.67997 10.4596 7.4004C11.638 6.84837 12.9505 6.6479 14.24 6.82301C15.5294 6.99813 16.7409 7.54141 17.7294 8.38772C18.4334 8.98857 19.0062 9.72785 19.4122 10.5597C19.8182 11.3914 20.0486 12.2978 20.0892 13.2225C20.0865 13.238 20.0813 13.2529 20.0737 13.2667Z" fill="#111111"/>
</g>
<defs>
<clipPath id="clip0_37976_22184">
<rect width="149.333" height="28" fill="white"/>
</clipPath>
</defs>
</svg>
