<svg width="59" height="44" viewBox="0 0 59 44" fill="none" xmlns="http://www.w3.org/2000/svg">
<path d="M32.2231 43.5135V38.613C32.5663 38.5972 32.8763 38.5709 33.1864 38.5709C36.4493 38.5657 39.7105 38.5709 42.9734 38.5552C43.5829 38.5517 44.1977 38.5009 44.7967 38.3993C45.5498 38.2714 45.9666 37.7898 45.9789 37.0051C45.9894 36.2625 45.6303 35.7826 44.9017 35.6303C44.4779 35.5409 44.0418 35.4761 43.6109 35.4726C41.7474 35.4534 39.8821 35.4726 38.0186 35.4569C36.3284 35.4429 34.7119 35.1714 33.4193 33.9909C32.9849 35.3167 32.7065 36.6881 32.1075 37.9019C30.4121 41.3365 27.5957 43.4032 23.7671 43.6816C20.7914 43.8988 17.7877 43.7254 14.7472 43.7254V30.6369H20.5935V38.6462C23.415 39.212 26.2436 37.2871 26.9249 34.406C27.7867 30.763 25.4099 27.6139 21.6146 27.4563C19.6652 27.3757 17.7124 27.43 15.7612 27.423C15.446 27.423 15.1307 27.423 14.7559 27.423V22.321C14.826 22.2895 14.903 22.2265 14.9784 22.2265C17.7439 22.251 20.5129 22.2125 23.2732 22.3315C26.8321 22.4839 29.5801 24.1443 31.5242 27.1305C31.6171 27.2724 31.7291 27.4037 31.9078 27.6384C32.0497 27.1795 32.1495 26.81 32.2791 26.4527C33.1846 23.9674 35.1042 22.7554 37.5947 22.3788C38.7384 22.2054 39.9154 22.2282 41.0784 22.2212C44.308 22.2019 47.5377 22.2142 50.8426 22.2142V27.6051C49.403 27.6051 47.9843 27.6051 46.5639 27.6051C44.6128 27.6051 42.6599 27.5946 40.7088 27.6139C40.1886 27.6192 39.6684 27.6997 39.1518 27.7715C38.4967 27.8644 38.0974 28.1919 38.1026 28.9205C38.1079 29.6246 38.3584 30.115 39.0957 30.2341C39.5809 30.3111 40.073 30.3777 40.5634 30.3917C42.6284 30.4495 44.7126 30.3286 46.7548 30.5651C50.3925 30.9854 52.1264 33.1257 52.0038 36.8002C51.9741 37.69 51.8234 38.6025 51.5642 39.4537C50.7568 42.1071 49.1227 43.4645 46.3502 43.5275C41.7509 43.6326 37.1464 43.5836 32.5453 43.5958C32.463 43.5958 32.3807 43.5555 32.2248 43.5153L32.2231 43.5135Z" fill="black"/>
<path d="M58.0218 43.8182H55.5961C55.5961 43.4417 55.5961 43.1019 55.5961 42.7621C55.5961 35.5952 55.5926 28.4301 55.6031 21.2632C55.6031 20.7763 55.5523 20.4137 55.0759 20.0985C46.4903 14.408 37.9205 8.69482 29.3454 2.98687C29.2509 2.92381 29.1475 2.87477 29.0074 2.79771C25.7182 4.99052 22.429 7.18507 19.138 9.37613C13.8101 12.9228 8.48575 16.4765 3.1421 20.0021C2.64119 20.3314 2.46079 20.6712 2.46254 21.2632C2.48181 28.4003 2.4748 35.5374 2.4748 42.6746V43.7885H0.015775V42.883C0.015775 35.2502 0.0245328 27.6192 1.26126e-05 19.9864C-0.00173883 19.3629 0.178659 19.0056 0.704092 18.657C9.91843 12.548 19.1223 6.42145 28.3138 0.273882C28.8585 -0.0904178 29.2053 -0.0921693 29.7518 0.273882C38.9416 6.42145 48.1489 12.5427 57.3528 18.6693C57.7381 18.925 58.0708 19.1247 58.0691 19.7254C58.0411 27.5911 58.0498 35.4551 58.0498 43.3208C58.0498 43.4627 58.0323 43.6046 58.0201 43.82L58.0218 43.8182Z" fill="black"/>
<path d="M12.7032 30.6124V43.806H6.88318V30.6124H12.7032Z" fill="black"/>
<path d="M9.80809 28.8452C7.51545 28.8504 5.62915 26.9939 5.61864 24.724C5.60813 22.4506 7.48218 20.5749 9.77306 20.5643C12.0552 20.5556 13.9555 22.4209 13.9695 24.6872C13.9835 26.9413 12.085 28.8399 9.80984 28.8452H9.80809Z" fill="black"/>
</svg>
