<svg width="93" height="30" viewBox="0 0 93 30" fill="none" xmlns="http://www.w3.org/2000/svg">
<g clip-path="url(#clip0_37976_22121)">
<path d="M28.7251 0.637695H0V29.3628H28.7251V0.637695Z" fill="#141414"/>
<path d="M4.71875 21.173V7.64941L11.4799 21.173L18.2423 7.64941L25.0034 21.173H4.71875Z" fill="white"/>
<path d="M37.8061 19.0827V8.27832H35.4883V21.1727H42.9412V19.0827H37.8061Z" fill="#141414"/>
<path d="M45.3464 8.00879C45.0713 8.00919 44.8025 8.09111 44.574 8.2442C44.3455 8.39729 44.1675 8.61469 44.0624 8.86892C43.9574 9.12315 43.9301 9.4028 43.984 9.67254C44.0378 9.94229 44.1704 10.19 44.365 10.3844C44.5596 10.5788 44.8075 10.7112 45.0773 10.7648C45.3471 10.8184 45.6267 10.7908 45.8808 10.6856C46.1349 10.5803 46.3522 10.4021 46.505 10.1734C46.6579 9.94472 46.7396 9.67587 46.7397 9.4008C46.7399 9.21783 46.704 9.03663 46.634 8.86757C46.5641 8.69851 46.4614 8.54492 46.332 8.4156C46.2025 8.28628 46.0488 8.18378 45.8797 8.11398C45.7106 8.04417 45.5293 8.00842 45.3464 8.00879ZM44.2328 11.8492V21.1723H46.4573V11.8492H44.2328Z" fill="#141414"/>
<path d="M55.1518 11.8486L52.4451 17.398L49.7383 11.8486H47.4219L52.4451 21.7646L57.451 11.8486H55.1518Z" fill="#141414"/>
<path d="M66.9432 16.2904C66.9432 14.9583 66.5169 13.8473 65.6458 12.9415C64.7933 12.0344 63.681 11.5908 62.3276 11.5908C60.8995 11.5908 59.7327 12.0344 58.8056 12.9415C57.8971 13.8473 57.4336 15.0316 57.4336 16.5115V16.5861C57.4336 18.0473 57.8971 19.2129 58.8056 20.0827C59.714 20.9512 60.9182 21.3962 62.3835 21.3962C63.9593 21.3962 65.2567 20.8407 66.3131 19.7311L64.9784 18.4363C64.6538 18.778 64.2625 19.0494 63.8288 19.2339C63.3951 19.4183 62.9281 19.5118 62.4568 19.5085C60.8077 19.5085 59.7141 18.5468 59.6395 17.0669H66.9072C66.9246 16.8258 66.9432 16.5675 66.9432 16.2904ZM59.6954 15.5124C59.7243 15.2266 59.8135 14.9502 59.9573 14.7015C60.1011 14.4528 60.296 14.2375 60.5293 14.0698C61.045 13.6758 61.6787 13.4674 62.3276 13.4784C62.9351 13.4655 63.5249 13.6835 63.978 14.0884C64.1959 14.2567 64.3726 14.4724 64.4947 14.7191C64.6168 14.9659 64.6811 15.2372 64.6826 15.5125L59.6954 15.5124Z" fill="#141414"/>
<path d="M73.6804 7.64941L67.2852 21.1725H69.7322L70.8805 18.6749H76.4431L77.5914 21.1725H80.0569L73.6804 7.64941ZM71.7529 16.6768L73.6618 12.4781L75.5706 16.6768H71.7529Z" fill="#141414"/>
<path d="M81.2695 11.8486V21.1717H83.4754V11.8486H81.2695Z" fill="#141414"/>
<path d="M93.0016 13.865V11.8496H90.9436V8.27832H88.719V11.8496H87.5508V13.865H88.719V18.2688C88.719 20.3774 89.7207 21.4324 91.7415 21.4324C92.1272 21.4388 92.5124 21.4013 92.8897 21.3205V19.3411C92.6341 19.3955 92.3731 19.4205 92.1118 19.4157C91.2966 19.4157 90.9436 19.0454 90.9436 18.0277V13.865H93.0016Z" fill="#141414"/>
<path d="M85.4599 11.708L83.7969 13.8655H87.1229L85.4599 11.708Z" fill="#141414"/>
</g>
<defs>
<clipPath id="clip0_37976_22121">
<rect width="93" height="28.7251" fill="white" transform="translate(0 0.637695)"/>
</clipPath>
</defs>
</svg>
