<svg width="73" height="40" viewBox="0 0 73 40" fill="none" xmlns="http://www.w3.org/2000/svg">
<rect width="73" height="36" rx="18" fill="#5869DD"/>
<path d="M12.63 19.1C12.63 18.1667 12.8493 17.3173 13.288 16.552C13.736 15.7773 14.3427 15.1707 15.108 14.732C15.8733 14.284 16.7227 14.06 17.656 14.06C18.3747 14.06 19.0467 14.2 19.672 14.48C20.2973 14.7507 20.834 15.1427 21.282 15.656C21.7393 16.16 22.0753 16.748 22.29 17.42H20.736C20.4467 16.7947 20.036 16.3047 19.504 15.95C18.9813 15.586 18.3653 15.404 17.656 15.404C16.9933 15.404 16.3913 15.5673 15.85 15.894C15.3087 16.2207 14.8793 16.6687 14.562 17.238C14.254 17.798 14.1 18.4187 14.1 19.1C14.1 19.7813 14.254 20.4067 14.562 20.976C14.8793 21.536 15.3087 21.9793 15.85 22.306C16.3913 22.6327 16.9933 22.796 17.656 22.796C18.3653 22.796 18.9813 22.6187 19.504 22.264C20.036 21.9 20.4467 21.4053 20.736 20.78H22.29C22.0753 21.452 21.7393 22.0447 21.282 22.558C20.834 23.062 20.2973 23.454 19.672 23.734C19.0467 24.0047 18.3747 24.14 17.656 24.14C16.7227 24.14 15.8733 23.9207 15.108 23.482C14.3427 23.034 13.736 22.4273 13.288 21.662C12.8493 20.8873 12.63 20.0333 12.63 19.1ZM27.0154 24.14C26.3248 24.14 25.6948 23.9813 25.1254 23.664C24.5561 23.3373 24.1081 22.8987 23.7814 22.348C23.4548 21.788 23.2914 21.172 23.2914 20.5C23.2914 19.828 23.4548 19.2167 23.7814 18.666C24.1081 18.106 24.5561 17.6673 25.1254 17.35C25.6948 17.0233 26.3248 16.86 27.0154 16.86C27.6968 16.86 28.3174 17.0233 28.8774 17.35C29.4468 17.6673 29.8948 18.106 30.2214 18.666C30.5481 19.2167 30.7114 19.828 30.7114 20.5C30.7114 21.172 30.5481 21.788 30.2214 22.348C29.8948 22.8987 29.4468 23.3373 28.8774 23.664C28.3174 23.9813 27.6968 24.14 27.0154 24.14ZM27.0154 22.908C27.4448 22.908 27.8368 22.8053 28.1914 22.6C28.5461 22.3853 28.8261 22.096 29.0314 21.732C29.2368 21.3587 29.3394 20.948 29.3394 20.5C29.3394 20.052 29.2368 19.646 29.0314 19.282C28.8261 18.9087 28.5461 18.6193 28.1914 18.414C27.8368 18.1993 27.4448 18.092 27.0154 18.092C26.5768 18.092 26.1754 18.1993 25.8114 18.414C25.4568 18.6193 25.1768 18.9087 24.9714 19.282C24.7661 19.646 24.6634 20.052 24.6634 20.5C24.6634 20.948 24.7661 21.3587 24.9714 21.732C25.1768 22.096 25.4568 22.3853 25.8114 22.6C26.1754 22.8053 26.5768 22.908 27.0154 22.908ZM36.04 16.86C36.656 16.86 37.216 17.0187 37.72 17.336C38.224 17.644 38.6206 18.0733 38.91 18.624C39.1993 19.1747 39.344 19.8 39.344 20.5C39.344 21.2 39.1993 21.8253 38.91 22.376C38.6206 22.9267 38.224 23.3607 37.72 23.678C37.216 23.986 36.656 24.14 36.04 24.14C35.5733 24.14 35.1346 24.0373 34.724 23.832C34.3133 23.6173 33.9633 23.3233 33.674 22.95V26.38H32.344V17H33.604V18.134C33.9026 17.7327 34.262 17.42 34.682 17.196C35.102 16.972 35.5546 16.86 36.04 16.86ZM35.816 22.908C36.2266 22.908 36.5953 22.8053 36.922 22.6C37.2486 22.3947 37.5053 22.11 37.692 21.746C37.8786 21.3727 37.972 20.9573 37.972 20.5C37.972 20.0427 37.8786 19.632 37.692 19.268C37.5053 18.8947 37.2486 18.6053 36.922 18.4C36.5953 18.1947 36.2266 18.092 35.816 18.092C35.4053 18.092 35.032 18.1947 34.696 18.4C34.36 18.6053 34.0986 18.8947 33.912 19.268C33.7253 19.632 33.632 20.0427 33.632 20.5C33.632 20.9573 33.7253 21.3727 33.912 21.746C34.0986 22.11 34.36 22.3947 34.696 22.6C35.032 22.8053 35.4053 22.908 35.816 22.908ZM42.3152 17V24H40.9852V17H42.3152ZM42.3992 14.2V15.74H40.9152V14.2H42.3992ZM47.5356 16.86C48.2543 16.86 48.8796 17.014 49.4116 17.322C49.9529 17.63 50.3683 18.0687 50.6576 18.638C50.9469 19.198 51.0916 19.856 51.0916 20.612C51.0916 20.808 51.0869 20.9527 51.0776 21.046H45.3376C45.4309 21.5873 45.6829 22.0353 46.0936 22.39C46.5136 22.7353 46.9989 22.908 47.5496 22.908C48.4549 22.908 49.0989 22.5767 49.4816 21.914H50.8536C50.6296 22.5673 50.2143 23.104 49.6076 23.524C49.0009 23.9347 48.3149 24.14 47.5496 24.14C46.8683 24.14 46.2523 23.986 45.7016 23.678C45.1509 23.3607 44.7216 22.9267 44.4136 22.376C44.1056 21.816 43.9516 21.1907 43.9516 20.5C43.9516 19.8093 44.1056 19.1887 44.4136 18.638C44.7216 18.078 45.1463 17.644 45.6876 17.336C46.2383 17.0187 46.8543 16.86 47.5356 16.86ZM47.5076 18.036C46.9569 18.036 46.4809 18.2087 46.0796 18.554C45.6876 18.8993 45.4449 19.3427 45.3516 19.884H49.6496C49.5936 19.324 49.3649 18.876 48.9636 18.54C48.5716 18.204 48.0863 18.036 47.5076 18.036ZM59.1691 14.13V24H57.8391V22.95C57.5497 23.3233 57.1997 23.6173 56.7891 23.832C56.3784 24.0373 55.9397 24.14 55.4731 24.14C54.8571 24.14 54.2971 23.986 53.7931 23.678C53.2891 23.3607 52.8924 22.9267 52.6031 22.376C52.3137 21.8253 52.1691 21.2 52.1691 20.5C52.1691 19.8 52.3137 19.1747 52.6031 18.624C52.8924 18.0733 53.2891 17.644 53.7931 17.336C54.2971 17.0187 54.8571 16.86 55.4731 16.86C55.9584 16.86 56.4111 16.972 56.8311 17.196C57.2511 17.42 57.6104 17.7327 57.9091 18.134V14.13H59.1691ZM55.6971 22.908C56.1077 22.908 56.4811 22.8053 56.8171 22.6C57.1531 22.3947 57.4144 22.11 57.6011 21.746C57.7877 21.3727 57.8811 20.9573 57.8811 20.5C57.8811 20.0427 57.7877 19.632 57.6011 19.268C57.4144 18.8947 57.1531 18.6053 56.8171 18.4C56.4811 18.1947 56.1077 18.092 55.6971 18.092C55.2864 18.092 54.9177 18.1947 54.5911 18.4C54.2644 18.6053 54.0077 18.8947 53.8211 19.268C53.6344 19.632 53.5411 20.0427 53.5411 20.5C53.5411 20.9573 53.6344 21.3727 53.8211 21.746C54.0077 22.11 54.2644 22.3947 54.5911 22.6C54.9177 22.8053 55.2864 22.908 55.6971 22.908Z" fill="#F1EFED"/>
<path d="M37 39.5L33 35.5H41L37 39.5Z" fill="#5869DD"/>
</svg>
