<svg xmlns="http://www.w3.org/2000/svg" width="14" height="14" fill="none" viewBox="0 0 14 14"><path fill="#fff" d="m4.376 8.524 4.147-4.147a.779.779 0 1 1 1.101 1.102L5.477 9.626a.779.779 0 0 1-1.101-1.102Zm8.488-7.387a3.893 3.893 0 0 0-5.5 0l-1.951 1.95a.779.779 0 0 0 1.102 1.101l1.948-1.947a2.333 2.333 0 1 1 3.3 3.3l-1.95 1.946a.779.779 0 0 0 1.1 1.102l1.95-1.948a3.893 3.893 0 0 0-.002-5.502l.003-.002ZM7.487 9.812l-1.948 1.95a2.334 2.334 0 0 1-3.3-3.3l1.948-1.95a.779.779 0 0 0-1.102-1.1L1.14 7.361a3.889 3.889 0 0 0 5.5 5.499l1.948-1.949a.779.779 0 0 0-1.102-1.101l.002.001Z"/></svg>
