<svg width="62" height="62" viewBox="0 0 62 62" fill="none" xmlns="http://www.w3.org/2000/svg">
<path d="M51.6663 32.2917V17.5667C51.6663 13.2263 51.6663 11.0561 50.8216 9.39832C50.0786 7.94007 48.893 6.75447 47.4348 6.01145C45.777 5.16675 43.6067 5.16675 39.2663 5.16675H22.733C18.3926 5.16675 16.2224 5.16675 14.5646 6.01145C13.1063 6.75447 11.9207 7.94007 11.1777 9.39832C10.333 11.0561 10.333 13.2263 10.333 17.5667V44.4334C10.333 48.7738 10.333 50.944 11.1777 52.6018C11.9207 54.0601 13.1063 55.2457 14.5646 55.9887C16.2224 56.8334 18.3925 56.8334 22.7326 56.8334H32.2913M36.1663 28.4167H20.6663M25.833 38.7501H20.6663M41.333 18.0834H20.6663M38.7497 49.0834L46.4997 56.8334M46.4997 56.8334L54.2497 49.0834M46.4997 56.8334V41.3334" stroke="black" stroke-width="2" stroke-linecap="round" stroke-linejoin="round"/>
</svg>
