<svg xmlns="http://www.w3.org/2000/svg" width="98" height="88" fill="none" viewBox="0 0 98 88"><path stroke="#5869DD" stroke-width="4.889" d="M62.3 26.307c.947 1.807 2.736 3 4.737 3.274l27.106 3.714h.001c.646.088 1 .468 1.13.847.126.364.07.768-.316 1.121l-.003.003L75.34 53.285l-.004.003c-1.494 1.378-2.23 3.41-1.857 5.452l4.633 25.44v.002c.074.404-.079.8-.51 1.095a1.564 1.564 0 0 1-1.594.106l-24.24-12.01-.004-.002a6.53 6.53 0 0 0-5.75 0l-.005.002-24.241 12.01-.002.002a1.557 1.557 0 0 1-1.59-.104c-.43-.293-.585-.69-.51-1.1l4.633-25.441c.372-2.042-.363-4.074-1.857-5.452l-.004-.003L2.823 35.266c-.39-.358-.444-.764-.32-1.126.13-.377.483-.756 1.13-.845h.002l27.106-3.714h.001c1.99-.274 3.787-1.463 4.736-3.273v-.001L47.602 3.159l.004-.007c.221-.425.679-.708 1.278-.708.6 0 1.065.284 1.292.716l12.123 23.147Z"/></svg>
