<svg width="20" height="20" viewBox="0 0 20 20" fill="none" xmlns="http://www.w3.org/2000/svg">
<path d="M10.1822 1.94054C11.3947 2.90144 14.394 5.88207 13.6944 11.439C13.6944 11.439 14.4759 10.9727 15.1707 10.1097C15.3312 9.91063 15.6533 9.98716 15.7077 10.237C15.8285 10.7927 15.9749 11.6826 15.9991 12.8082C16.0724 16.2091 13.3913 19.1278 9.98998 19.1337C6.6919 19.1396 4 16.4429 4 13.1318C4 10.2627 5.38873 8.76505 5.92349 6.29693C5.96751 6.09358 6.20101 5.99621 6.37984 6.10262C6.78562 6.34386 7.42722 6.79574 7.84699 7.43784C7.84699 7.43784 9.55389 5.27539 9.68755 2.17289C9.69833 1.92217 9.98561 1.78457 10.1822 1.94054Z" fill="#5869DD"/>
<path d="M13.2409 12.9843C12.7619 13.7032 12.1549 13.8666 12.1549 13.8666C12.4006 10.9172 11.2727 8.75285 10.8081 8.00055C10.7424 7.89399 10.5792 7.92212 10.5526 8.04457C10.1279 10.015 8.98755 11.1093 8.98755 11.1093C8.61646 10.6765 8.26374 10.4993 8.08024 10.4308C8.00809 10.4039 7.93099 10.4436 7.90417 10.5158C7.43572 11.7721 6.55042 12.742 6.34899 14.1863C6.05253 16.3114 7.59649 18.3256 9.73686 18.4743C11.8957 18.6243 13.6936 16.9171 13.6936 14.7901C13.6936 13.9344 13.5799 13.3467 13.4929 13.0225C13.4616 12.9055 13.3079 12.8836 13.2409 12.9843Z" fill="#8D99E8"/>
<path d="M10.0896 12.6566C10.0451 12.5448 9.90303 12.5141 9.82199 12.603C9.33795 13.1346 8.03711 14.6905 8.03711 16.0606C8.03711 17.1451 8.91629 18.0244 10.0008 18.0244C11.0852 18.0244 11.9644 17.1451 11.9644 16.0606C11.9644 15.0294 10.6967 14.184 10.0896 12.6566Z" fill="#D0D5F5"/>
<path fill-rule="evenodd" clip-rule="evenodd" d="M13.197 12.1999C12.9061 12.0097 12.7491 11.6703 12.7925 11.3254C13.3023 7.27637 11.6939 4.74208 10.4671 3.43735C10.2716 4.60921 9.89748 5.6067 9.5374 6.3606C9.29662 6.86474 9.05935 7.2658 8.87956 7.5444C8.78955 7.68389 8.71358 7.79323 8.65829 7.87002C8.63064 7.90844 8.60812 7.93876 8.59155 7.96069L8.57127 7.98727L8.56465 7.99579L8.56227 7.99884L8.5613 8.00006C8.56111 8.00031 8.5605 8.00108 7.84699 7.43784C7.84699 7.43784 8.07785 7.14536 8.37642 6.6212C8.8447 5.79912 9.47951 4.40716 9.65138 2.6799C9.65144 2.67934 9.65149 2.67879 9.65155 2.67823C9.6541 2.65255 9.65655 2.62679 9.65889 2.60096C9.65887 2.6012 9.65891 2.60072 9.65889 2.60096C9.67161 2.46064 9.68132 2.31742 9.68755 2.17289C9.69833 1.92217 9.98561 1.78457 10.1822 1.94054C10.2785 2.01684 10.3861 2.10588 10.5021 2.20794C10.5021 2.20792 10.5022 2.20796 10.5021 2.20794C10.5303 2.23267 10.559 2.25822 10.588 2.28448C10.5894 2.28572 10.5908 2.28695 10.5921 2.28819C11.8418 3.41793 13.9368 5.96165 13.7917 10.2324C13.7785 10.6202 13.7469 11.0224 13.6944 11.439L14.1602 12.2197C13.8617 12.3977 13.4879 12.39 13.197 12.1999ZM14.6818 10.6476C14.1541 11.1647 13.6944 11.439 13.6944 11.439C14.1602 12.2197 14.16 12.2198 14.1602 12.2197L14.1616 12.2188L14.1633 12.2178L14.1677 12.2151L14.1797 12.2078C14.1892 12.202 14.2016 12.1942 14.2167 12.1846C14.247 12.1654 14.2882 12.1386 14.3385 12.1044C14.439 12.0361 14.5769 11.9374 14.7378 11.8095C14.8214 11.743 14.9119 11.668 15.0072 11.5847C15.0488 11.951 15.0804 12.3679 15.0902 12.8277C15.1533 15.7532 12.8476 18.2197 9.98838 18.2247C7.1961 18.2296 4.90902 15.9433 4.90902 13.1318C4.90902 11.8606 5.21183 10.8912 5.60593 9.89979C5.68631 9.69758 5.77303 9.48937 5.86256 9.27441C6.10479 8.69283 6.36762 8.06177 6.58134 7.36608C6.76862 7.53158 6.94719 7.72274 7.08613 7.93527C7.24618 8.1801 7.51425 8.33295 7.80645 8.34599C8.09865 8.35903 8.37928 8.23067 8.5605 8.00108L7.84699 7.43784C7.67107 7.16876 7.4562 6.93308 7.23605 6.73231C6.93088 6.454 6.61557 6.24277 6.37984 6.10262C6.20101 5.99621 5.96751 6.09358 5.92349 6.29693C5.71442 7.26185 5.37483 8.07843 5.03873 8.88663C4.51513 10.1457 4 11.3844 4 13.1318C4 16.4429 6.6919 19.1396 9.98998 19.1337C13.3913 19.1278 16.0724 16.2091 15.9991 12.8082C15.9815 11.9898 15.8993 11.296 15.8093 10.7647C15.8088 10.7615 15.8082 10.7582 15.8077 10.755C15.7987 10.7021 15.7896 10.6508 15.7805 10.6012C15.7805 10.601 15.7806 10.6014 15.7805 10.6012C15.756 10.4677 15.7313 10.3457 15.7077 10.237C15.6533 9.98716 15.3312 9.91063 15.1707 10.1097C15.0853 10.2159 14.9985 10.316 14.9121 10.41C14.912 10.4101 14.9121 10.41 14.9121 10.41C14.8867 10.4376 14.8612 10.4648 14.8359 10.4913C14.835 10.4923 14.8341 10.4933 14.8331 10.4943C14.7823 10.5475 14.7318 10.5986 14.6818 10.6476ZM6.8119 6.48943C6.81181 6.48983 6.81173 6.49023 6.81164 6.49063L6.8119 6.48943Z" fill="black"/>
<path d="M7.84494 1.47875C7.75759 1.65596 7.14632 2.89672 7.13068 3.5497C7.11504 4.20268 6.45178 3.6834 7.07417 2.42068C7.24886 2.06625 8.04025 1.08249 7.84494 1.47875Z" fill="black"/>
<path fill-rule="evenodd" clip-rule="evenodd" d="M6.58631 3.825C6.44578 3.50319 6.47257 2.95766 6.8032 2.28685C6.90689 2.07649 7.16774 1.71915 7.36381 1.47745C7.45961 1.35936 7.56213 1.24102 7.63604 1.17819C7.65147 1.16507 7.69081 1.13201 7.74298 1.1097C7.76499 1.10029 7.83628 1.07148 7.92779 1.0889C8.05435 1.11298 8.13494 1.20598 8.16461 1.29918C8.18674 1.36872 8.17865 1.42808 8.17532 1.44928C8.17091 1.4773 8.16374 1.5011 8.15827 1.51729C8.14717 1.55013 8.13219 1.58317 8.11753 1.6129C8.07466 1.69988 7.90424 2.04586 7.74304 2.44859C7.57618 2.86548 7.44077 3.29198 7.43442 3.55713C7.43191 3.6619 7.4163 3.7638 7.3802 3.85363C7.34596 3.93883 7.27758 4.04947 7.14786 4.10504C7.00183 4.1676 6.85998 4.12667 6.76513 4.0581C6.67783 3.99498 6.62182 3.90634 6.58631 3.825ZM7.14695 3.5929C7.14694 3.59292 7.14663 3.59249 7.14608 3.59152C7.14669 3.59239 7.14696 3.59288 7.14695 3.5929ZM8.02853 1.63996C8.03196 1.63705 8.03152 1.63777 8.02773 1.64065C8.028 1.64041 8.02827 1.64018 8.02853 1.63996Z" fill="black"/>
<path d="M14.6224 7.49595C14.6658 7.58398 14.9893 8.56255 14.873 8.94801C14.7568 9.33348 15.4385 8.52985 15.1294 7.90264C15.0426 7.72659 14.5254 7.29912 14.6224 7.49595Z" fill="black"/>
<path fill-rule="evenodd" clip-rule="evenodd" d="M15.3449 8.94215C15.4799 8.67597 15.6188 8.20798 15.4023 7.76863C15.3584 7.67958 15.2809 7.59127 15.2198 7.52746C15.1515 7.4562 15.0725 7.38401 14.9994 7.32448C14.9358 7.27266 14.8475 7.20599 14.7666 7.17214C14.7455 7.16331 14.702 7.14663 14.6472 7.14295C14.5948 7.13943 14.4616 7.14585 14.3702 7.26962C14.2902 7.37786 14.3084 7.49163 14.3151 7.52528C14.324 7.57022 14.3405 7.60719 14.3517 7.62992C14.3515 7.62945 14.352 7.63081 14.3532 7.63404C14.3587 7.6488 14.3787 7.70246 14.4083 7.7966C14.4411 7.90099 14.4799 8.03647 14.5138 8.18009C14.5479 8.32467 14.5757 8.4717 14.5886 8.60088C14.6023 8.7383 14.5954 8.82295 14.584 8.86053C14.5736 8.89512 14.5637 8.93536 14.5597 8.97746C14.5566 9.00915 14.551 9.09093 14.594 9.17609C14.619 9.22557 14.6623 9.27912 14.7299 9.3148C14.7964 9.34994 14.8625 9.35498 14.9123 9.34981C14.9997 9.34077 15.0617 9.29871 15.0863 9.28094C15.1451 9.23836 15.1939 9.18044 15.23 9.13128C15.2696 9.07722 15.3089 9.013 15.3449 8.94215Z" fill="black"/>
</svg>
