<svg xmlns="http://www.w3.org/2000/svg" width="111" height="105" fill="none" viewBox="0 0 111 105"><path stroke="#5869DD" stroke-width="4" d="M71.365 30.927 57.623 3.306l13.742 27.62Zm0 0a6.367 6.367 0 0 0 4.797 3.458l30.725 4.432h.001m-35.523-7.89 35.523 7.89m0 0c1.959.281 2.694 2.641 1.315 3.97l-.002.002m-1.313-3.972 1.313 3.972m0 0-22.234 21.5-.003.002m22.237-21.502L85.964 64.29m0 0a6.317 6.317 0 0 0-1.835 5.615l5.251 30.355v.001m-3.416-35.97 3.417 35.97m0 0c.323 1.865-1.674 3.377-3.446 2.456L58.46 88.388l-.004-.002m30.926 11.876L58.455 88.386m0 0a6.424 6.424 0 0 0-5.91 0l-.004.002m5.914-.002-5.914.002m0 0-27.478 14.331h-.001M52.54 88.388l-27.48 14.331m0 0c-1.765.923-3.767-.581-3.442-2.457v-.001m3.443 2.458-3.443-2.458m0 0 5.252-30.355v-.001a6.317 6.317 0 0 0-1.835-5.614l-.003-.002M21.62 100.26l3.414-35.972m0 0L2.8 42.789m22.234 21.5L2.8 42.789m0 0c-1.384-1.338-.644-3.691 1.312-3.972h.002m-1.314 3.972 1.314-3.972m0 0 30.725-4.432h.001M4.113 38.817l30.726-4.432m0 0a6.38 6.38 0 0 0 4.795-3.458m-4.795 3.458 4.796-3.459m0 0 13.743-27.62.002-.005M39.636 30.926 53.38 3.301m0 0c.853-1.728 3.37-1.744 4.242.006L53.38 3.3Z"/><path fill="#5869DD" d="m24.431 101.622 30.727-13.966a.583.583 0 0 0 .342-.532V8.305c0-.615-.83-.811-1.105-.26L41.052 34.73a.583.583 0 0 1-.434.316L4.226 40.645a.583.583 0 0 0-.299 1.012l25.127 22.336c.125.11.196.27.196.436v5.519c0 .035-.003.07-.01.104l-5.624 30.935a.583.583 0 0 0 .815.635Z"/><path stroke="#5869DD" stroke-width="2.917" d="M55.5 2.917v8.75m0 0v75.457a.583.583 0 0 1-.342.532l-30.727 13.966a.583.583 0 0 1-.815-.635l5.625-30.935a.579.579 0 0 0 .009-.105V64.43a.584.584 0 0 0-.196-.436L3.927 41.657a.583.583 0 0 1 .299-1.012l36.392-5.6a.583.583 0 0 0 .434-.315L54.395 8.044c.275-.551 1.105-.355 1.105.26v3.363Z"/></svg>
