<svg xmlns="http://www.w3.org/2000/svg" width="166" height="170" fill="none" viewBox="0 0 166 170"><path fill="#000" d="m106.782 128.631-23.38 1.752-10.178 21.13 23.38-1.751 10.178-21.131ZM67.151 70.475l13.213 19.382 23.392-1.751 10.179-21.134-46.784 3.503ZM127.171 86.363l23.395-1.752 10.181-21.137-23.396 1.752-10.18 21.137Z"/><path fill="#F1EFED" d="m124.112 45.83 13.214 19.384 23.396-1.752-13.215-19.385-23.395 1.752Z"/><path fill="#F1EFED" d="m113.934 66.96.008.012h-.007l13.211 19.379 10.18-21.137-13.214-19.385-10.178 21.13ZM100.727 47.586l-70.186 5.257 52.856 77.534 23.388-1.752-.003.006.014-.001-26.432-38.773h-.003L67.145 70.474l46.788-3.504-.002-.003.003-.006-13.207-19.374ZM73.213 151.508l10.177-21.131h.007L30.541 52.843 20.361 73.98l52.852 77.528Z"/><path stroke="#000" stroke-linecap="round" stroke-linejoin="round" stroke-miterlimit="10" stroke-width="2" d="m83.401 130.383 23.381-1.752m-23.38 1.752-10.178 21.13m10.177-21.13-.004-.006M30.541 52.843l70.186-5.257 13.207 19.374M30.541 52.843 20.361 73.98l52.852 77.528M30.54 52.843l52.856 77.534m40.715-84.548 13.214 19.385m-13.214-19.385 23.395-1.752 13.215 19.385-23.396 1.752m-13.214-19.385-10.178 21.13m23.392-1.745-10.18 21.137-13.211-19.379m-7.153 61.659-10.177 21.131-23.381 1.751m33.558-22.882.003-.006-23.388 1.752m23.385-1.746.014-.001-26.432-38.773m-7.14 61.656-.014.001.003-.006m.01.005-.002.007-.008-.012m7.151-61.65L67.151 70.474l46.784-3.503m-33.57 22.885 23.391-1.751 10.179-21.134m-33.57 22.885h-.004L67.145 70.474l46.788-3.504m.002.003.002-.003h-.004m.002.003h.007l-.008-.012m.001.012-.002-.003m.001-.01-.003.007.002.003m-30.536 63.408h-.007l-10.177 21.131m53.958-65.145 23.395-1.752 10.181-21.137-23.396 1.752-10.18 21.137Z"/></svg>
