<svg xmlns="http://www.w3.org/2000/svg" width="433" height="591" fill="none" viewBox="0 0 433 591"><path fill="#000" d="M430.456 22c-3.499 3.598-6.704 7.511-9.445 11.736a.487.487 0 0 0 .138.668.487.487 0 0 0 .668-.139c2.686-4.177 5.825-8.062 9.265-11.652a.443.443 0 0 0-.012-.624.443.443 0 0 0-.624.011h.01ZM414.16 47.167a84.799 84.799 0 0 0-2.405 7.157c-.72 2.415-1.264 4.867-1.796 7.328a.537.537 0 1 0 1.049.234l-.002-.02c.526-2.43 1.053-4.86 1.756-7.252a85.98 85.98 0 0 1 2.346-7.067.516.516 0 0 0-.3-.667.516.516 0 0 0-.667.3l.019-.013ZM408.108 76.6c-.245 5.026-.146 10.056.203 15.064a.59.59 0 0 0 .626.542.59.59 0 0 0 .543-.626c-.363-4.965-.477-9.953-.255-14.925a.574.574 0 0 0-.543-.594.575.575 0 0 0-.595.532l.021.008ZM410.083 106.621c.906 4.954 2.35 9.857 4.613 14.4a.642.642 0 0 0 .856.291.637.637 0 0 0 .29-.856c-2.217-4.418-3.634-9.193-4.549-14.065a.614.614 0 0 0-.72-.49.614.614 0 0 0-.49.72ZM423.243 133.498c3.326 3.797 7.01 7.255 10.9 10.443a.683.683 0 0 0 .966-.097.682.682 0 0 0-.097-.965c-3.854-3.143-7.5-6.535-10.775-10.259a.662.662 0 1 0-.994.878ZM438.461 268.461l-3.714.057c-1.237.032-2.474-.017-3.71-.055a90.317 90.317 0 0 1-7.395-.628.945.945 0 0 0-1.053.815.945.945 0 0 0 .815 1.052c2.503.315 5.022.527 7.548.638 1.257.046 2.534.089 3.79.055l3.785-.056a.931.931 0 0 0-.034-1.862l-.039.005.007-.021ZM409.071 264.896c-4.791-1.294-9.517-2.869-14.184-4.603a.948.948 0 0 0-1.227.565.95.95 0 0 0 .565 1.227c4.708 1.739 9.487 3.327 14.35 4.632a.952.952 0 0 0 1.162-.668.951.951 0 0 0-.667-1.162l.001.009ZM381.001 254.73l-13.799-5.885a.974.974 0 0 0-1.274.511.975.975 0 0 0 .511 1.274l13.807 5.874a.963.963 0 1 0 .755-1.774ZM353.296 243.145c-4.678-1.813-9.41-3.509-14.223-4.972a.993.993 0 0 0-1.235.658.993.993 0 0 0 .658 1.234c4.75 1.451 9.449 3.121 14.094 4.918a.983.983 0 0 0 1.268-.56.975.975 0 0 0-.561-1.268l-.001-.01ZM324.405 234.559c-4.96-.899-10.006-1.453-15.056-1.584a.995.995 0 0 0-1.022.973.988.988 0 0 0 .972 1.021c4.95.134 9.883.673 14.76 1.552a.987.987 0 0 0 1.154-.808.997.997 0 0 0-.798-1.155l-.01.001ZM294.21 233.835c-2.541.386-5.065 1.062-7.446 2.123a23.061 23.061 0 0 0-6.503 4.308.98.98 0 0 0-.039 1.387.978.978 0 0 0 1.387.038 21.053 21.053 0 0 1 5.957-3.933c2.191-.975 4.54-1.597 6.943-1.965a.977.977 0 0 0 .83-1.118.976.976 0 0 0-1.118-.831l-.011-.009ZM272.539 253.506c-1.515 4.88-2.252 9.92-2.762 14.92a.966.966 0 0 0 .856 1.057.97.97 0 0 0 1.056-.866c.508-4.939 1.251-9.858 2.701-14.538a.965.965 0 0 0-.635-1.218.965.965 0 0 0-1.217.635l.001.01ZM268.689 283.419c-.178 2.475-.39 4.994-.492 7.509a147.276 147.276 0 0 0-.134 7.543.946.946 0 0 0 .952.943.945.945 0 0 0 .943-.951c-.015-2.49.031-4.967.146-7.453.096-2.484.306-4.943.499-7.46a.95.95 0 0 0-.882-1.023.95.95 0 0 0-1.023.881l-.009.011ZM268.759 313.533l1.611 14.958a.93.93 0 1 0 1.849-.204l-.005-.039-1.58-14.871-.006-.05a.931.931 0 0 0-1.028-.833.938.938 0 0 0-.833 1.028l-.008.011ZM273.146 343.332c1.25 4.889 2.82 9.674 4.611 14.38a.923.923 0 0 0 1.179.531.923.923 0 0 0 .53-1.18c-1.763-4.649-3.315-9.377-4.534-14.179a.92.92 0 1 0-1.786.448ZM283.59 371.582c2.056 4.57 4.206 9.087 6.317 13.62a.896.896 0 0 0 1.626-.749c-2.103-4.544-4.242-9.063-6.286-13.615a.91.91 0 0 0-1.2-.457.912.912 0 0 0-.457 1.201ZM296.288 398.775l6.149 13.653.004.03c.211.446.73.64 1.168.441a.88.88 0 0 0 .441-1.168l-6.156-13.703a.895.895 0 0 0-1.178-.449.895.895 0 0 0-.45 1.179l.003.02.019-.003ZM308.039 426.29a198.485 198.485 0 0 1 4.696 14.178.866.866 0 0 0 1.067.595.866.866 0 0 0 .595-1.067c-1.384-4.83-2.98-9.592-4.722-14.305a.876.876 0 0 0-1.117-.518.876.876 0 0 0-.519 1.117ZM316.202 454.973l1.173 7.359c.326 2.469.611 4.933.671 7.376a.844.844 0 1 0 1.689-.041c-.064-2.554-.356-5.067-.684-7.556l-1.175-7.45a.846.846 0 0 0-.981-.708.847.847 0 0 0-.708.981l.007.05.008-.011ZM314.67 483.635c-2.485 4.251-5.537 8.184-8.913 11.797a.807.807 0 0 0 .038 1.135c.322.3.835.283 1.135-.039 3.459-3.674 6.602-7.68 9.171-12.063a.827.827 0 0 0-1.423-.842l-.008.012ZM294.75 505.432c-3.913 3.069-8.009 5.889-12.242 8.515a.759.759 0 0 0-.246 1.041.76.76 0 0 0 1.042.246c4.271-2.641 8.435-5.481 12.405-8.567a.783.783 0 0 0-.959-1.235ZM269.176 520.453c-4.642 1.742-9.435 3.111-14.282 4.214a.715.715 0 0 0-.534.847.712.712 0 0 0 .838.536c4.909-1.092 9.762-2.459 14.482-4.222a.728.728 0 0 0-.503-1.365l-.001-.01ZM240.185 527.243l-14.892 1.501-.03.004a.649.649 0 0 0-.581.713.648.648 0 0 0 .712.581l14.967-1.46a.675.675 0 0 0 .608-.746.675.675 0 0 0-.746-.608l-.039.005.001.01ZM210.379 529.076c-4.976-.18-9.939-.645-14.877-1.294a.594.594 0 0 0-.677.523.603.603 0 0 0 .523.677c4.971.675 9.977 1.155 14.997 1.36a.634.634 0 0 0 .657-.602.634.634 0 0 0-.601-.657l-.022-.007ZM180.743 525.33l-14.639-3.162-.01.001a.545.545 0 0 0-.661.42.56.56 0 0 0 .42.661l14.667 3.219a.579.579 0 0 0 .244-1.132l-.02.003-.001-.01ZM151.497 518.728l-14.595-3.44a.517.517 0 0 0-.617.374.518.518 0 0 0 .374.616l14.592 3.491a.54.54 0 0 0 .644-.398.54.54 0 0 0-.398-.643ZM122.261 511.962c-4.904-1.007-9.852-1.887-14.831-2.47a.41.41 0 0 0-.465.374.418.418 0 0 0 .364.466c4.944.619 9.863 1.513 14.74 2.543a.47.47 0 0 0 .558-.356.472.472 0 0 0-.356-.558l-.01.001ZM92.394 508.752c-5.022.158-10.043.79-14.907 2.068a.336.336 0 0 0-.24.405.337.337 0 0 0 .405.239c4.82-1.232 9.785-1.826 14.762-1.948.211-.008.37-.18.372-.392a.388.388 0 0 0-.392-.372ZM64.455 518.082c-3.421 3.73-5.919 8.114-8.701 12.254a.25.25 0 0 0 .065.344c.111.076.269.045.345-.066 2.813-4.133 5.335-8.491 8.717-12.134a.297.297 0 0 0-.014-.412c-.116-.116-.296-.102-.412.014ZM47.345 542.745l-8.352 12.46c-.051.067-.028.165.039.216.067.052.165.029.217-.038l8.419-12.408c.059-.089.042-.218-.057-.275-.098-.058-.217-.042-.275.056l.009-.011ZM30.263 567.398a85.474 85.474 0 0 1-10.516 10.657.065.065 0 0 0-.008.092.065.065 0 0 0 .092.008 85.686 85.686 0 0 0 10.602-10.618c.044-.047.035-.116-.021-.159-.056-.043-.116-.035-.159.021l.01-.001ZM7.596 586.79l-7.194 4.036 7.219-3.999s.017-.023.006-.031c-.002-.01-.023-.018-.031-.006Z"/><path fill="#000" d="m316.695 327.214-32.226 18.605-16.11-9.301v.002l-.005-.003.001-.001 16.113-9.302-32.228-18.607-.017.009-16.097 9.294-16.114-9.303L252.24 290l64.455 37.214Z"/><path fill="#F1EFED" d="M284.473 364.424v-18.602l-.004-.003 32.226-18.605v18.606l-32.222 18.604ZM268.359 355.125V336.52l16.109 9.3v18.605l-16.109-9.3ZM236.114 317.91v18.604l-.002.001-16.111-9.302v-18.606l16.113 9.303ZM236.126 317.91l16.097-9.294v18.597l-16.109 9.301.012-18.604ZM284.468 327.214l-16.113 9.302-16.132-9.303.017-18.587 32.228 18.588Z"/><path stroke="#000" stroke-linecap="round" stroke-linejoin="round" stroke-miterlimit="10" stroke-width="2" d="M316.695 327.214 252.24 290l-32.228 18.607 16.114 9.303m80.569 9.304v18.606l-32.222 18.604m32.222-37.21-32.226 18.605m-.001.001-16.109-9.3m16.109 9.3.001-.001m-.001.001v18.605m0-37.211-32.228-18.607m32.228 18.607-16.109 9.304m16.109-9.304-16.113 9.302m16.113-9.302-32.228-18.588m0-.019-.017.009m.017-.009v.019m-16.114 9.284 16.097-9.294m-16.097 9.294-.012 18.604m-.005.003.003-.002m16.111-9.302 16.114 9.304m-16.114-9.304v-18.597m0 18.597-16.109 9.301m16.109-9.301 16.132 9.303m-16.132-9.303.017-18.587m-.017-.019v.009m16.136 27.902 16.11 9.301m-16.11-9.301v.002m0-.002-.004-.002m16.114 9.303.004.003v18.602m-16.114-27.904-.005-.003.001-.001m.004.004v18.605l16.109 9.3m-32.245-55.809.017.01m32.228 55.799v.002l.005-.003m-.005.001.005.003v-.004m-48.359-27.91V317.91l-16.113-9.303v18.606l16.111 9.302m.002-.001-.002.001m.002-.001v.003l-.002-.002"/></svg>
