<svg xmlns="http://www.w3.org/2000/svg" width="271" height="788" fill="none" viewBox="0 0 271 788"><path fill="#000" d="m6.09 685.312 10.35 7.376-10.35-7.376ZM26.767 700.103l10.362 7.343a.066.066 0 0 0 .045.024.07.07 0 0 0 .048-.013.059.059 0 0 0 .028-.044.063.063 0 0 0-.004-.027.06.06 0 0 0-.014-.022l-10.409-7.306a.051.051 0 0 0-.059-.007.044.044 0 0 0-.007.027c0 .009.004.018.01.025ZM47.603 714.644l10.584 7.027a.114.114 0 0 0 .044.018.092.092 0 0 0 .046 0 .13.13 0 0 0 .043-.017.114.114 0 0 0 .033-.034.114.114 0 0 0 .018-.089.114.114 0 0 0-.018-.043.112.112 0 0 0-.033-.033l-10.607-6.979c-.022-.014-.05-.019-.075-.014a.1.1 0 0 0-.064.042.1.1 0 0 0 .029.122ZM68.925 728.466l10.933 6.494c.04.023.086.029.13.018a.18.18 0 0 0 .107-.077.178.178 0 0 0-.06-.236l-10.947-6.445a.126.126 0 0 0-.053-.019.119.119 0 0 0-.056.004.134.134 0 0 0-.084.071.143.143 0 0 0 .03.19ZM91.044 741.02l11.466 5.521a.206.206 0 0 0 .235-.029.194.194 0 0 0 .049-.068.22.22 0 0 0-.096-.292l-11.458-5.52a.194.194 0 0 0-.257.091.187.187 0 0 0 .061.297ZM114.338 751.247a93.913 93.913 0 0 0 12.241 3.432.255.255 0 0 0 .103.001.258.258 0 0 0 .209-.205.279.279 0 0 0-.213-.314 91.89 91.89 0 0 1-12.225-3.345.245.245 0 0 0-.306.154.252.252 0 0 0 .191.277ZM139.314 755.695a26.368 26.368 0 0 0 12.239-3.542.288.288 0 0 0 .088-.082.297.297 0 0 0 .053-.23.315.315 0 0 0-.466-.218 25.828 25.828 0 0 1-11.915 3.543.282.282 0 0 0-.259.19.27.27 0 0 0-.013.113.297.297 0 0 0 .273.226ZM160.018 742.708a40.286 40.286 0 0 0 3.586-12.25.355.355 0 0 0-.166-.359.341.341 0 0 0-.13-.048.34.34 0 0 0-.271.063.354.354 0 0 0-.138.241 39.965 39.965 0 0 1-3.48 12.057.337.337 0 0 0-.018.255.334.334 0 0 0 .165.196.34.34 0 0 0 .452-.155ZM164.269 717.708c-.103-4.274-.467-8.492-.976-12.708a.411.411 0 0 0-.153-.273.386.386 0 0 0-.143-.072.405.405 0 0 0-.516.444c.528 4.201.901 8.411 1.018 12.627a.39.39 0 0 0 .118.27.379.379 0 0 0 .276.105.369.369 0 0 0 .27-.118.377.377 0 0 0 .106-.275ZM161.547 692.391l-2.145-12.537a.43.43 0 0 0-.181-.29.443.443 0 0 0-.333-.074.44.44 0 0 0-.363.506l2.156 12.522a.425.425 0 0 0 .491.344.412.412 0 0 0 .364-.304.409.409 0 0 0 .011-.167ZM156.901 667.384l-2.836-12.375a.474.474 0 0 0-.858-.146.458.458 0 0 0-.06.352l2.863 12.369a.447.447 0 0 0 .204.285.456.456 0 0 0 .347.057.46.46 0 0 0 .284-.2.467.467 0 0 0 .063-.165.459.459 0 0 0-.007-.177ZM150.945 642.646l-3.347-12.303a.49.49 0 0 0-.227-.301.472.472 0 0 0-.374-.046.475.475 0 0 0-.175.085.51.51 0 0 0-.128.146.505.505 0 0 0-.046.378l3.366 12.288a.478.478 0 0 0 .4.351.468.468 0 0 0 .186-.014.474.474 0 0 0 .345-.584ZM144.049 618.161l-3.712-12.172a.519.519 0 0 0-.244-.354.522.522 0 0 0-.619.055.517.517 0 0 0-.179.392c0 .074.015.147.045.215l3.731 12.149a.512.512 0 0 0 .621.301.51.51 0 0 0 .349-.595l.008.009ZM136.555 593.872l-3.907-12.1a.553.553 0 0 0-1.052.336l3.934 12.086a.544.544 0 0 0 .266.311.543.543 0 0 0 .409.032.549.549 0 0 0 .311-.267.544.544 0 0 0 .031-.408l.008.01ZM128.645 569.683l-3.978-12.074a.576.576 0 0 0-.288-.333.558.558 0 0 0-.439-.028.584.584 0 0 0-.397.504.564.564 0 0 0 .027.223l4.005 12.06a.55.55 0 0 0 .283.332.554.554 0 0 0 .436.028.558.558 0 0 0 .327-.281.548.548 0 0 0 .024-.431ZM120.706 545.541l-3.899-12.1a.6.6 0 0 0-.298-.352.613.613 0 0 0-.46-.038.595.595 0 0 0-.352.299.6.6 0 0 0-.038.46l3.934 12.086a.569.569 0 0 0 .112.199.59.59 0 0 0 .826.064.59.59 0 0 0 .176-.627l-.001.009ZM112.637 521.401l-4.474-11.907a.64.64 0 0 0-.813-.362.64.64 0 0 0-.355.329.639.639 0 0 0-.015.483l4.502 11.876a.606.606 0 0 0 .33.353.627.627 0 0 0 .483.009.61.61 0 0 0 .342-.781ZM103.581 497.636l-4.529-11.87a.66.66 0 0 0-1.236.47l4.554 11.873a.653.653 0 0 0 .332.392.64.64 0 0 0 .735-.117.652.652 0 0 0 .134-.732l.01-.016ZM94.701 473.84l-4.05-12.03a.684.684 0 0 0-.865-.436.697.697 0 0 0-.428.874l4.05 12.039a.672.672 0 0 0 1.24.082.673.673 0 0 0 .035-.514l.018-.015ZM87.058 449.655l-2.97-12.321.004-.042a.708.708 0 0 0-.579-.534.696.696 0 0 0-.276.014.708.708 0 0 0-.528.854l3.022 12.386a.692.692 0 0 0 .569.549.703.703 0 0 0 .529-.13.69.69 0 0 0 .252-.748l-.023-.028ZM81.979 424.858a114.92 114.92 0 0 1-.912-12.59.723.723 0 0 0-1.239-.492.721.721 0 0 0-.204.513c.072 4.265.382 8.523.928 12.754a.72.72 0 0 0 1.406.099.716.716 0 0 0 .02-.284ZM81.79 399.682a67.672 67.672 0 0 1 1.14-6.184 27.26 27.26 0 0 1 2.013-5.84.74.74 0 0 0-.306-1.043.733.733 0 0 0-.847.141.735.735 0 0 0-.165.254 29.081 29.081 0 0 0-2.117 6.162 69.254 69.254 0 0 0-1.162 6.317.729.729 0 1 0 1.448.159l-.003.034ZM93.81 380.106a17.844 17.844 0 0 1 6.07-.238c2.054.266 4.076.734 6.037 1.396a.754.754 0 0 0 .566-.04.742.742 0 0 0-.096-1.367 32.844 32.844 0 0 0-6.328-1.453 19.064 19.064 0 0 0-6.578.276.732.732 0 0 0-.514.311.741.741 0 0 0 .02.867.726.726 0 0 0 .831.248h-.008ZM117.312 386.517c3.648 2.105 7.187 4.429 10.601 6.875a.737.737 0 0 0 .558.131.738.738 0 0 0 .488-.302.737.737 0 0 0 .131-.558.752.752 0 0 0-.302-.488 124.999 124.999 0 0 0-10.738-6.95.745.745 0 0 0-.738 1.292ZM137.971 401.093l9.614 8.259a.76.76 0 0 0 1-.144.77.77 0 0 0 .181-.509.769.769 0 0 0-.201-.501l-9.678-8.3a.755.755 0 0 0-.978 1.146l.062.049ZM157.056 417.833l9.577 8.366c.073.08.162.143.262.185a.754.754 0 0 0 .881-.208.753.753 0 0 0 .062-.903.768.768 0 0 0-.226-.228l-9.549-8.312a.763.763 0 1 0-.978 1.146l-.029-.046ZM176.541 434.251c3.374 2.579 6.844 5.065 10.427 7.376a.774.774 0 1 0 .834-1.306c-3.535-2.281-6.974-4.738-10.325-7.297a.77.77 0 0 0-1.082.145.775.775 0 0 0 .146 1.082ZM198.101 447.943a70.26 70.26 0 0 0 12.005 4.566.79.79 0 0 0 .969-.554.791.791 0 0 0-.554-.969 67.992 67.992 0 0 1-11.763-4.454.785.785 0 0 0-1.045.363.781.781 0 0 0 .362 1.046l.026.002ZM222.947 454.13a16.637 16.637 0 0 0 6.36-1.859 16.12 16.12 0 0 0 5.028-4.334.798.798 0 0 0-.722-1.289.805.805 0 0 0-.534.299 14.501 14.501 0 0 1-4.53 3.911 14.876 14.876 0 0 1-5.753 1.696.792.792 0 1 0 .151 1.576ZM239.388 435.984a69.832 69.832 0 0 0 1.401-12.763.803.803 0 0 0-1.337-.575.798.798 0 0 0-.269.527 69.843 69.843 0 0 1-1.327 12.48.796.796 0 0 0 1.558.333l-.026-.002ZM240.421 410.427l-1.335-12.696a.86.86 0 0 0-.21-.733.844.844 0 0 0-.713-.268.845.845 0 0 0-.755.787.838.838 0 0 0 .065.386l-.005.042 1.329 12.593-.005.051a.8.8 0 0 0 .57.693.813.813 0 0 0 .314.026.846.846 0 0 0 .745-.881ZM237.176 385.149c-.325-2.091-.66-4.165-.968-6.253l-.851-6.309a.848.848 0 0 0-.92-.706.848.848 0 0 0-.706.92l.844 6.291a275.49 275.49 0 0 0 1.013 6.309.846.846 0 0 0 1.613-.249l-.025-.003ZM233.473 360.001l-2.083-12.556a.85.85 0 0 0-.933-.54.845.845 0 0 0-.709.811l2.096 12.524a.846.846 0 0 0 .981.889.848.848 0 0 0 .651-1.153l-.003.025ZM229.184 334.929l-2.259-12.516a.846.846 0 0 0-.983-.671.851.851 0 0 0-.67.976l2.269 12.5a.846.846 0 0 0 1.443.254.85.85 0 0 0 .2-.543ZM224.674 309.904l-2.174-12.515a.843.843 0 0 0-.973-.687.85.85 0 0 0-.695.973l2.188 12.534a.845.845 0 0 0 .959.598.849.849 0 0 0 .701-.885l-.006-.018ZM220.456 284.858l-1.827-12.562a.844.844 0 0 0-.927-.581.85.85 0 0 0-.727.817l1.823 12.596a.865.865 0 0 0 .305.614.856.856 0 0 0 .66.187.87.87 0 0 0 .329-.119.853.853 0 0 0 .377-.916l-.013-.036ZM217.081 259.696l-1.172-12.627a.85.85 0 0 0-.889-.599.85.85 0 0 0-.765.75l1.166 12.686a.848.848 0 0 0 1.663-.159l-.003-.051ZM215.115 234.402l-.259-12.637a.854.854 0 0 0-.165-.728.838.838 0 0 0-.677-.315.843.843 0 0 0-.663.342.857.857 0 0 0-.136.734l.289 12.675a.85.85 0 0 0 .474.949.846.846 0 0 0 1.175-.981l-.038-.039ZM215.2 209.074a37.2 37.2 0 0 1 2.59-12.103.843.843 0 0 0 .177-.741.853.853 0 0 0-.876-.651.844.844 0 0 0-.791.751 38.715 38.715 0 0 0-2.726 12.643.858.858 0 0 0 .086.752.84.84 0 0 0 .282.268.84.84 0 0 0 .755.051.837.837 0 0 0 .495-.572.852.852 0 0 0 .007-.389l.001-.009ZM226.142 189.227a12.31 12.31 0 0 1 5.906.562 23.978 23.978 0 0 1 5.48 2.742.8.8 0 0 0 .925.028.807.807 0 0 0 .201-1.157.821.821 0 0 0-.246-.216 24.95 24.95 0 0 0-5.859-2.927 13.75 13.75 0 0 0-6.658-.629.847.847 0 0 0 .269 1.59l-.018.007ZM246.872 200.845l8.506 9.424a.8.8 0 0 0 1.068-.002.794.794 0 0 0 .106-1.062l-8.519-9.461a.805.805 0 0 0-.552-.262.804.804 0 0 0-.576.207.772.772 0 0 0-.268.546.78.78 0 0 0 .205.572l.03.038ZM263.556 219.956l7.988 9.871a.778.778 0 0 0 1.103.121.762.762 0 0 0 .29-.522.782.782 0 0 0-.17-.573l-7.993-9.897a.791.791 0 0 0-.842-.273.794.794 0 0 0-.533.991.8.8 0 0 0 .149.273l.008.009Z"/><path fill="#F1EFED" d="m182.834 414.171-33.415-20.937 21.29 40.228.038.001 12.087-19.292Z"/><path fill="#F1EFED" d="m149.419 393.234-1.423 39.407 22.713.821-21.29-40.228Z"/><path fill="#F1EFED" d="m170.718 433.478-.009-.016-22.713-.821 33.36 20.902-10.638-20.065Z"/><path fill="#000" d="m181.41 453.578 1.424-39.407-12.087 19.292-.038-.001.009.016 10.638 20.065.054.035Z"/><path stroke="#000" stroke-linecap="round" stroke-linejoin="round" stroke-miterlimit="10" stroke-width="2" d="m147.996 432.641 1.423-39.407m-1.423 39.407 33.36 20.902m-33.36-20.902 22.713.821m-21.29-40.228 33.415 20.937m-33.415-20.937 21.29 40.228m12.125-19.291-1.424 39.407-.054-.035m1.478-39.372-12.087 19.292-.038-.001m10.673 20.131-.026-.05m-10.647-20.081.009.016 10.638 20.065"/><path fill="#F1EFED" d="m230.909 239.96-20.661 43.631 39.035 3.796-18.374-47.427Z"/><path fill="#000" d="m195.978 277.644 20.159 43.14-5.889-37.193-14.27-5.947Z"/><path fill="#F1EFED" d="m210.248 283.591 5.889 37.193 33.146-33.397-39.035-3.796ZM230.909 239.96l-34.931 37.684 14.27 5.947 20.661-43.631Z"/><path stroke="#000" stroke-linejoin="round" stroke-width="2" d="m195.978 277.644 34.931-37.684m-34.931 37.684 20.159 43.14m-20.159-43.14 14.27 5.947m20.661-43.631-20.661 43.631m20.661-43.631 18.374 47.427m-33.146 33.397-5.889-37.193m5.889 37.193 33.146-33.397m-39.035-3.796 39.035 3.796"/></svg>
