<svg xmlns="http://www.w3.org/2000/svg" width="539" height="638" fill="none" viewBox="0 0 539 638"><path fill="#000" d="m78.176 637.249-9.42-11.67s-.01-.04 0-.06c.01-.02.04-.01.06 0l9.35 11.72.01.01ZM59.716 613.614l-8.68-12.24a.118.118 0 0 1 .03-.17c.05-.04.13-.03.17.03l8.61 12.28c.03.04.02.09-.02.11-.04.03-.09.02-.11-.02v.01ZM42.756 588.87l-7.87-12.78a.188.188 0 0 1 .07-.27c.09-.06.22-.03.27.07l7.79 12.81c.05.08.02.18-.05.22-.07.05-.17.02-.22-.05h.01ZM27.496 563.021l-6.83-13.37a.27.27 0 0 1 .12-.37c.14-.07.3-.02.37.12v.01l6.75 13.38c.06.13.01.27-.11.33s-.26.01-.32-.1h.02ZM14.486 535.972l-5.38-14.02c-.07-.18.02-.39.21-.46s.39.02.46.21v.02l5.29 14.01v.02c.07.16-.01.35-.18.41a.322.322 0 0 1-.41-.18l.01-.01ZM4.726 507.568c-1.27-4.85-2.33-9.75-3.13-14.71-.04-.24.12-.46.36-.5.24-.04.46.12.5.36.77 4.93 1.8 9.81 3.04 14.65.05.21-.07.43-.29.48a.394.394 0 0 1-.48-.28ZM.076 477.894c-.19-5.02-.03-10.06.57-15.05.03-.28.29-.48.57-.45.28.03.48.29.45.57-.6 4.94-.78 9.92-.63 14.9 0 .26-.2.48-.46.49-.26 0-.48-.2-.49-.46h-.01ZM3.795 448.087c1.52-4.8 3.55-9.45 6.06-13.82a.556.556 0 1 1 .97.55c-2.48 4.3-4.49 8.86-6 13.59a.53.53 0 1 1-1.01-.33l-.02.01ZM18.715 422.073c3.37-3.75 7.12-7.15 11.13-10.2.26-.2.64-.15.84.11.2.26.15.64-.11.84-3.96 3-7.66 6.34-10.99 10.02-.21.24-.58.25-.81.04a.562.562 0 0 1-.04-.81h-.02ZM42.745 404.023a67.62 67.62 0 0 1 14.31-4.85c.35-.08.69.14.77.49.08.35-.14.69-.49.77a66.425 66.425 0 0 0-14.06 4.71c-.31.14-.68.01-.83-.3a.624.624 0 0 1 .3-.83v.01ZM72.076 397.513c5.04-.06 10.08.36 15.06 1.13.38.06.63.41.58.79-.06.38-.41.63-.79.58-4.91-.77-9.87-1.19-14.83-1.15-.37 0-.67-.29-.67-.66 0-.37.29-.67.66-.67l-.01-.02ZM101.856 401.911c4.83 1.38 9.59 3.01 14.26 4.83.38.15.56.57.42.95a.74.74 0 0 1-.95.42c-4.64-1.82-9.34-3.45-14.12-4.83a.717.717 0 0 1-.49-.88c.11-.38.5-.6.88-.49ZM129.945 412.67l13.46 6.71c.38.19.54.66.35 1.04a.78.78 0 0 1-1.04.35l-.03-.02-13.37-6.71-.03-.02a.763.763 0 0 1-.34-1.01c.19-.37.64-.52 1.01-.34h-.01ZM156.576 426.599l13 7.5a.82.82 0 0 1-.82 1.42l-12.96-7.53h-.01a.813.813 0 0 1-.29-1.1.8.8 0 0 1 1.09-.29h-.01ZM182.536 441.663c4.33 2.48 8.68 4.94 13.05 7.38a.854.854 0 0 1-.83 1.49c-4.36-2.44-8.71-4.91-13.06-7.4a.847.847 0 0 1-.31-1.15c.23-.4.75-.54 1.15-.31v-.01ZM208.645 456.397l13.08 7.33a.87.87 0 0 1-.84 1.52l-13.08-7.35a.866.866 0 0 1-.33-1.17c.23-.41.76-.56 1.17-.33ZM234.856 470.972l13.22 7.07h.01c.43.24.59.77.36 1.2-.23.43-.76.59-1.19.36l-13.23-7.09a.868.868 0 0 1-.36-1.18c.23-.43.76-.59 1.18-.36h.01ZM261.415 484.858l13.49 6.51h.02c.45.23.63.76.42 1.21-.21.45-.75.63-1.2.42l-13.52-6.54a.887.887 0 0 1-.41-1.19c.21-.44.75-.63 1.19-.41h.02-.01ZM288.566 497.481l13.87 5.63h.03c.47.2.69.73.5 1.2a.91.91 0 0 1-1.19.5l-13.92-5.67a.918.918 0 0 1-.5-1.18c.19-.46.72-.68 1.18-.5h.03v.02ZM316.516 508.161l14.299 4.36h.05c.49.16.761.68.621 1.17a.934.934 0 0 1-1.151.62l-14.39-4.4a.923.923 0 0 1-.61-1.15.916.916 0 0 1 1.151-.61h.039l-.009.01ZM345.336 516.071c4.87 1.03 9.77 1.91 14.7 2.61.51.07.87.55.8 1.06-.07.51-.55.87-1.06.8-4.97-.71-9.91-1.6-14.82-2.65a.937.937 0 0 1 .39-1.83l-.01.01ZM374.876 520.237c4.96.33 9.94.46 14.91.38.53 0 .96.41.97.94 0 .53-.41.96-.94.97-5.03.08-10.06-.06-15.07-.4a.95.95 0 0 1-.88-1.01.95.95 0 0 1 1.01-.88ZM404.675 519.722c4.94-.52 9.86-1.25 14.74-2.22a.97.97 0 0 1 1.14.76.97.97 0 0 1-.76 1.14c-4.93.97-9.91 1.71-14.92 2.23-.53.05-1-.33-1.06-.86-.05-.53.33-1 .86-1.06v.01ZM433.897 513.961c2.38-.72 4.76-1.45 7.09-2.28 2.34-.82 4.66-1.71 6.95-2.66a.99.99 0 0 1 1.29.53.99.99 0 0 1-.53 1.29c-2.33.97-4.68 1.87-7.06 2.69-2.38.84-4.78 1.58-7.19 2.3a.978.978 0 0 1-1.22-.66.98.98 0 0 1 .65-1.22h.01l.01.01ZM461.255 502.417c4.28-2.5 8.37-5.31 12.2-8.44a1 1 0 0 1 1.41.14 1 1 0 0 1-.14 1.41c-3.92 3.2-8.1 6.06-12.46 8.6a.99.99 0 0 1-1.36-.36.99.99 0 0 1 .36-1.36l-.01.01ZM484.067 483.657c3.22-3.75 6.08-7.8 8.53-12.08a.984.984 0 0 1 1.71.97c-2.51 4.4-5.44 8.55-8.73 12.4-.36.42-.98.47-1.4.11a.987.987 0 0 1-.11-1.4ZM498.705 458.1a86.42 86.42 0 0 0 3.59-14.38c.09-.53.58-.89 1.11-.8.53.09.89.58.8 1.11-.8 4.99-2.01 9.92-3.66 14.7-.18.51-.73.78-1.24.61a.984.984 0 0 1-.61-1.24h.01ZM503.536 428.932c.05-4.96-.25-9.92-.83-14.85-.06-.52.31-1 .84-1.06a.95.95 0 0 1 1.06.84c.6 5 .9 10.04.86 15.09 0 .53-.44.96-.97.95-.53 0-.96-.44-.95-.97h-.01ZM500.135 399.418a133.53 133.53 0 0 0-4.17-14.29.94.94 0 0 1 1.77-.63c1.68 4.75 3.11 9.58 4.25 14.49a.95.95 0 0 1-1.85.43ZM490.296 371.339c-2.11-4.5-4.42-8.91-6.89-13.24a.922.922 0 0 1 .35-1.26.922.922 0 0 1 1.26.35c2.49 4.36 4.83 8.81 6.97 13.36.22.47.02 1.02-.45 1.24a.928.928 0 0 1-1.24-.45ZM475.615 345.353l-8.37-12.41-.02-.02a.904.904 0 0 1 .25-1.26c.42-.28.98-.17 1.26.24l8.42 12.45c.28.42.17.99-.25 1.28a.93.93 0 0 1-1.28-.25l-.02-.03h.01ZM458.597 320.7l-8.64-12.28a.9.9 0 0 1 .22-1.25.9.9 0 0 1 1.25.22l8.64 12.26c.29.41.19.98-.22 1.27-.41.29-.97.19-1.26-.22h.01ZM441.606 295.919l-7.73-12.92a.888.888 0 0 1 .3-1.21c.42-.25.96-.11 1.21.3l.03.05 7.69 12.82.03.04c.25.42.12.97-.3 1.22a.89.89 0 0 1-1.22-.3h-.01ZM427.077 269.549c-.5-1.16-1.04-2.26-1.51-3.5-.46-1.23-.79-2.52-.9-3.87-.11-1.34.01-2.75.5-4.06.45-1.32 1.26-2.48 2.19-3.45.33-.35.88-.36 1.22-.03.35.33.36.88.03 1.22-.79.84-1.43 1.79-1.8 2.84-.39 1.05-.49 2.19-.4 3.33.09 1.14.39 2.29.8 3.41.42 1.1.97 2.26 1.47 3.38v.03c.2.44 0 .96-.44 1.15a.877.877 0 0 1-1.15-.45h-.01ZM441.346 248.487c4.95-1.06 9.95-1.63 14.87-2.36.46-.07.9.25.97.71.07.46-.25.9-.72.97-4.97.74-9.92 1.31-14.76 2.35-.46.1-.92-.19-1.02-.66-.1-.46.19-.92.66-1.02v.01ZM470.846 243.101l14.67-3.12c.44-.1.88.19.97.63.09.44-.19.88-.63.97l-14.67 3.16c-.46.1-.9-.19-1-.65-.1-.46.19-.9.65-1l.01.01ZM500.105 236.598l14.39-4.07h.05c.41-.13.84.11.96.52.12.41-.12.84-.53.96l-14.47 4.13a.8.8 0 0 1-.99-.55c-.12-.43.12-.87.55-.99l.04-.01v.01ZM528.515 227.414l6.79-3.09c1.14-.5 2.23-1.08 3.32-1.66 1.09-.59 2.15-1.21 3.2-1.87a.732.732 0 1 1 .78 1.24c-1.07.68-2.16 1.32-3.27 1.93-1.11.6-2.23 1.2-3.38 1.7l-6.85 3.14c-.38.17-.83 0-1-.37-.17-.38 0-.83.37-1l.04-.02ZM543.856 156.458c-2.82-4.1-5.85-8.07-9.01-11.92a.6.6 0 0 1 .08-.84.6.6 0 0 1 .84.08c3.19 3.87 6.25 7.85 9.11 11.98.19.28.12.67-.16.86-.28.19-.67.12-.86-.16ZM524.946 133.198l-10.43-10.75-.02-.02a.552.552 0 0 1 .79-.77l10.49 10.76c.22.23.22.59-.01.81a.57.57 0 0 1-.81-.01l-.02-.02h.01ZM503.675 112.126l-11.17-9.97h-.01c-.21-.2-.23-.52-.04-.72.19-.21.51-.23.71-.04l11.22 9.95c.22.19.24.53.04.75-.2.22-.53.24-.75.04l-.01-.01h.01ZM481.075 92.48l-11.66-9.43a.432.432 0 0 1-.06-.61.45.45 0 0 1 .61-.07l11.73 9.38c.2.16.24.46.07.66-.16.2-.46.24-.66.07h-.03ZM457.565 73.858l-12.01-8.98a.353.353 0 0 1-.07-.5c.12-.16.34-.19.49-.07l12.07 8.92c.17.13.21.37.08.55-.13.18-.37.21-.55.08h-.01ZM433.405 56.108l-12.29-8.59a.271.271 0 0 1-.07-.38c.08-.12.26-.15.38-.07l12.34 8.53c.14.1.18.29.08.43-.1.14-.29.18-.43.08h-.01ZM408.696 39.102l-12.54-8.24c-.09-.06-.12-.18-.06-.26.06-.09.18-.11.27-.06l12.58 8.17c.11.07.14.21.07.32-.07.11-.21.14-.32.07ZM383.506 22.812l-12.78-7.85a.113.113 0 0 1-.04-.15c.03-.05.1-.07.15-.04l12.82 7.79c.07.04.09.14.05.21-.04.07-.14.09-.21.05l.01-.01ZM357.806 7.337l-13.11-7.28s-.02-.03-.01-.04c0-.02.03-.02.04-.01l13.16 7.21s.05.06.03.1c-.02.03-.06.05-.1.03l-.01-.01Z"/><path fill="#000" d="M406.22 319.002 394.515 339.2l93.413.151 11.705-20.197-93.413-.152Z"/><path fill="#F1EFED" d="m394.571 298.75 11.639 20.235 93.433.152-.01.017h.039l-11.648-20.252-34.946-60.757-23.363-.038 34.946 60.757-23.363-.038-46.727-.076Z"/><path fill="#F1EFED" d="M429.715 238.107 418 258.321l23.298 40.505 23.363.038-34.946-60.757ZM394.571 298.75l-11.715 20.214 11.63 20.219 11.705-20.198h.019l-11.639-20.235Z"/><path stroke="#000" stroke-linecap="round" stroke-linejoin="round" stroke-miterlimit="10" stroke-width="2" d="m394.571 298.75-11.715 20.214 11.63 20.219m.085-40.433 46.727.076m-46.727-.076 70.09.114m-70.09-.114 11.639 20.235m.01.017L394.515 339.2m11.705-20.198 93.413.152m-93.413-.152-.01-.017m23.505-80.878 23.363.038 34.946 60.757 11.648 20.252h-.039m-69.918-81.047L418 258.321l23.298 40.505m-11.583-60.719 34.946 60.757m-23.363-.038 23.363.038M394.515 339.2l93.413.151 11.705-20.197M394.515 339.2h-.039l.01-.017m.029.017-.01.017-.019-.034m105.147-20.029.01-.017-93.433-.152m0 0h-.019l-11.705 20.198"/></svg>
