<svg xmlns="http://www.w3.org/2000/svg" width="32" height="32" fill="none" viewBox="0 0 32 32"><path fill="#000" d="M32 28.801C32 30.57 30.556 32 28.774 32H3.226C1.446 32 0 30.567 0 28.801V3.2C0 1.433 1.444 0 3.225 0h25.55C30.558 0 32 1.433 32 3.199V28.8Z"/><path fill="#F1EFED" d="M11 8.17c0 1.197-.963 2.168-2.547 2.168C6.963 10.338 6 9.368 6 8.17 6 6.943 6.994 6 8.516 6c1.52 0 2.453.941 2.484 2.17ZM6.124 26V12.048h4.72V26h-4.72ZM13.111 16.675c0-1.707-.054-3.135-.111-4.368h3.667l.195 1.905h.084C17.5 13.316 18.862 12 21.14 12c2.778 0 4.86 1.877 4.86 5.908V26h-4.221v-7.588c0-1.764-.612-2.968-2.14-2.968-1.166 0-1.86.812-2.166 1.596-.111.28-.139.671-.139 1.063V26h-4.223v-9.325Z"/></svg>
