<svg xmlns="http://www.w3.org/2000/svg" width="17" height="18" fill="none" viewBox="0 0 17 18"><path fill="#F80909" d="m10.19 8.293 1.14 1.14v-1.14h-1.14Zm1.85-2.833H9.205v1.346h2.833c1.211 0 2.196.984 2.196 2.196 0 .9-.545 1.678-1.325 2.011l.992.992a3.532 3.532 0 0 0 1.679-3.003 3.543 3.543 0 0 0-3.542-3.542ZM1.413 3.526 3.617 5.73a3.535 3.535 0 0 0-2.203 3.273 3.543 3.543 0 0 0 3.542 3.541h2.833v-1.346H4.956A2.198 2.198 0 0 1 2.76 9.002c0-1.127.857-2.055 1.955-2.175L6.18 8.293h-.517V9.71h1.934l1.608 1.608v1.225h1.225l2.84 2.84 1-.998L2.412 2.527l-.999 1Z"/></svg>
