<svg xmlns="http://www.w3.org/2000/svg" width="31" height="29" fill="none" viewBox="0 0 31 29"><path fill="#000" d="m13.287 16.605-2.482 2.323L.679 9.454l2.482-2.323 10.126 9.474ZM10.783 0 8.248 2.371l2.535 2.373 2.534-2.373L10.783 0ZM13.32 11.92 10.84 9.596 20.964.123l2.483 2.323-10.127 9.473ZM27.996 11.992 25.462 9.62l2.534-2.37 2.535 2.37-2.535 2.372ZM17.837 12.471l2.483-2.322 10.126 9.473-2.483 2.323-10.126-9.474ZM17.805 26.703 20.26 29h.162l2.453-2.296-2.533-2.371-2.536 2.371ZM7.621 26.677 10.103 29l10.126-9.475-2.482-2.322-10.126 9.474ZM0 19.546l2.534 2.37 2.535-2.37-2.535-2.372L0 19.546Z"/></svg>
