<svg width="24" height="25" viewBox="0 0 24 25" fill="none" xmlns="http://www.w3.org/2000/svg">
<path d="M13 14H18V16H13L13 14Z" fill="black"/>
<path d="M13 16L13 20L11 20L11 16L13 16Z" fill="black"/>
<path d="M18 16L18 21L20 21L20 16L18 16Z" fill="black"/>
<path d="M13 20L19 20V22H13L13 20Z" fill="black"/>
<path d="M19 21L21 21V23H19L19 21Z" fill="black"/>
<path d="M10 21.5H3V9.5M3 9.5V5.5H7M3 9.5H19M19 9.5V12.5M19 9.5V5.5H15M7 5.5V2.5M7 5.5H15M15 5.5V2.5" stroke="black" stroke-width="2"/>
</svg>
