<svg xmlns="http://www.w3.org/2000/svg" width="253" height="337" fill="none" viewBox="0 0 253 337"><path fill="#000" d="M83 313c0 1.657-8.507 3-19 3s-19-1.343-19-3v-15h38v15ZM247 334c0 1.657-8.507 3-19 3s-19-1.343-19-3v-15h38v15Z"/><path fill="url(#a)" d="M11.5 110.259C5.408 112.492 1 118.343 1 125.289v19.713c3.804 2.732 5.966 3.075 10 3v-4.705c0-5.772 3.871-10.633 9.221-12.489a14.743 14.743 0 0 1 5.916-.766l3.363.247c-.718-9.8.53-14.098 5.5-19.653l-16.764-1.299a15.947 15.947 0 0 0-6.337.781l-.399.141Z"/><path fill="url(#b)" d="M11 148.002c-4.034.075-6.196-.268-10-3v124c4.812.678 6.778.809 10 0v-121Z"/><path fill="url(#c)" d="M265.753 132.502a18.934 18.934 0 0 0-11.285-4.859l-16.968-1.315c-5.454 5.989-7.563 9.961-9 18.551l5.103.374c3.82.28 7.258 1.762 9.911 4.037 3.38 2.898 5.486 7.083 5.486 11.703v10.509c8.269-3.685 13.376-4.108 23-3v-21.916c0-5.56-2.398-10.596-6.247-14.084Z"/><path fill="url(#d)" d="M249 297.502c9.709 3.363 14.617 2.33 23-1.5v-127.5c-9.624-1.108-14.731-.685-23 3v126Z"/><path fill="url(#e)" d="M29.5 291.495c-.005 6.477 1.268 9.457 5.5 13.772l191 23.963 5.5.69c-4.764-5.019-5.821-8.374-5.5-15.1L29.5 291.495Z"/><path fill="url(#f)" d="M1 284.236c0 9.579 7.13 17.66 16.635 18.853L35 305.267c-4.232-4.315-5.505-7.295-5.5-13.772l-3.89-.462c-8.348-.99-14.61-7.705-14.61-15.664v-6.367c-3.222.809-5.188.678-10 0v15.234Z"/><path fill="#5869DD" d="M270.937 324.502a13.954 13.954 0 0 0 1.063-5.367v-23.133c-8.383 3.83-13.291 4.863-23 1.5v6.865c0 1.586-.333 3.09-.933 4.459-2.05 4.671-7.216 7.757-12.893 7.083l-3.674-.436-5.5-.653c-.321 6.726.736 10.081 5.5 15.1l24.757 3.106c6.464.811 12.347-2.903 14.68-8.524Z"/><path fill="#5869DD" d="M11 275.369c0 7.959 6.262 14.674 14.61 15.664l3.89.462L226 314.82l5.5.653 3.674.436c5.677.674 10.843-2.412 12.893-7.083.6-1.369.933-2.873.933-4.459V160.993c0-4.62-2.106-8.805-5.486-11.703-2.653-2.275-6.091-3.757-9.911-4.037l-5.103-.374-199-14.59-3.363-.247a14.743 14.743 0 0 0-5.916.766c-5.35 1.856-9.221 6.717-9.221 12.489v132.072Z"/><path fill="#000" d="M295.46 107.535c-14.963 11.101-24.033 15.202-40.992 20.108a18.934 18.934 0 0 1 11.285 4.859l32.747-24.485c-.984-.239-2-.402-3.04-.482Z"/><path fill="url(#g)" d="M295.46 107.535 72.23 90.329a15.967 15.967 0 0 0-5.73.593l-54.6 19.196a15.947 15.947 0 0 1 6.336-.781L35 110.636l202.5 15.692 16.968 1.315c16.959-4.906 26.029-9.007 40.992-20.108Z"/><path fill="url(#h)" d="M272 319.135c0 1.909-.379 3.72-1.063 5.367 0 0 28.554-21 30.562-22.5 2.009-1.5 11.501-7 11.501-15.5V126.478c0-8.883-6.12-16.427-14.5-18.461l-32.747 24.485A18.968 18.968 0 0 1 272 146.586v172.549Z"/><path fill="url(#i)" d="M35 110.636c-4.97 5.555-6.218 9.853-5.5 19.653l199 14.59c1.437-8.59 3.546-12.562 9-18.551L35 110.636Z"/><path stroke="#000" stroke-width="2" d="M254.468 127.643c16.959-4.906 26.029-9.007 40.992-20.108m-40.992 20.108a18.934 18.934 0 0 1 11.285 4.859m-11.285-4.859-16.968-1.315m57.96-18.793L72.23 90.329a15.967 15.967 0 0 0-5.73.593l-54.6 19.196m283.56-2.583c1.04.08 2.056.243 3.04.482m-27.563 216.485a13.954 13.954 0 0 0 1.063-5.367v-23.133m-1.063 28.5c-2.333 5.621-8.216 9.335-14.68 8.524L231.5 329.92m39.437-5.418s28.554-21 30.562-22.5c2.009-1.5 11.501-7 11.501-15.5V126.478c0-8.883-6.12-16.427-14.5-18.461m-287 2.242C5.408 112.492 1 118.343 1 125.289v19.713m10.5-34.743.4-.141m-.4.141c.132-.049.265-.096.4-.141m253.853 22.384A18.968 18.968 0 0 1 272 146.586v21.916m-6.247-36 32.747-24.485m-269 22.272-3.363-.247a14.743 14.743 0 0 0-5.916.766c-5.35 1.856-9.221 6.717-9.221 12.489v4.705m18.5-17.713c-.718-9.8.53-14.098 5.5-19.653m-5.5 19.653 199 14.59M35 110.636l-16.764-1.299a15.947 15.947 0 0 0-6.337.781m23.101.518 202.5 15.692M1 145.002c3.804 2.732 5.966 3.075 10 3m-10-3v124m10-121v121m-10 0v15.234c0 9.579 7.13 17.66 16.635 18.853L35 305.267M1 269.002c4.812.678 6.778.809 10 0m0 0v6.367c0 7.959 6.262 14.674 14.61 15.664l3.89.462m0 0c-.005 6.477 1.268 9.457 5.5 13.772m-5.5-13.772L226 314.82m-191-9.553 191 23.963 5.5.69m17.5-32.418v6.865c0 1.586-.333 3.09-.933 4.459-2.05 4.671-7.216 7.757-12.893 7.083l-3.674-.436-5.5-.653m23-17.318c9.709 3.363 14.617 2.33 23-1.5m-23 1.5v-126m23 124.5v-127.5m-43.5-23.623 5.103.374c3.82.28 7.258 1.762 9.911 4.037 3.38 2.898 5.486 7.083 5.486 11.703v10.509m-20.5-26.623c1.437-8.59 3.546-12.562 9-18.551m11.5 45.174c8.269-3.685 13.376-4.108 23-3M226 314.82c-.321 6.726.736 10.081 5.5 15.1"/><path fill="url(#j)" stroke="#000" stroke-width="2" d="M244 283.288V164.33c0-4.372-1.982-8.331-5.164-11.074-2.496-2.152-5.732-3.555-9.327-3.82L137 142.617v157.084l93.987 11.217c5.344.637 10.206-2.283 12.135-6.703.565-1.295.878-2.718.878-4.219v-16.708Z"/><path fill="#000" fill-rule="evenodd" d="M155.5 277c-.179 0-.357.004-.533.013 4.999.269 8.974 4.585 8.974 9.869 0 5.458-4.24 9.883-9.47 9.883-5.132 0-9.311-4.26-9.467-9.575-.002.103-.004.206-.004.31 0 5.799 4.701 10.5 10.5 10.5s10.5-4.701 10.5-10.5c0-.207-.006-.413-.018-.618-.32-5.511-4.89-9.882-10.482-9.882Z" clip-rule="evenodd"/><path fill="url(#k)" d="M154.471 296.765c5.23 0 9.47-4.425 9.47-9.883 0-5.284-3.975-9.6-8.974-9.869a9.096 9.096 0 0 0-.496-.013c-5.231 0-9.471 4.424-9.471 9.882 0 .103.002.206.004.308.156 5.315 4.335 9.575 9.467 9.575Z"/><path stroke="#000" stroke-width="1.8" d="M145.004 287.19c.156 5.315 4.335 9.575 9.467 9.575 5.23 0 9.47-4.425 9.47-9.883 0-5.284-3.975-9.6-8.974-9.869m-9.963 10.177c-.002.103-.004.206-.004.31 0 5.799 4.701 10.5 10.5 10.5s10.5-4.701 10.5-10.5c0-.207-.006-.413-.018-.618-.32-5.511-4.89-9.882-10.482-9.882-.179 0-.357.004-.533.013m-9.963 10.177a15.713 15.713 0 0 1-.004-.308c0-5.458 4.24-9.882 9.471-9.882.166 0 .331.004.496.013"/><path fill="#000" d="m156.822 291.698-1.788-10.296a1.905 1.905 0 0 0-.488-.991c-2.571 3.297-1.395 9.196 2.021 12.626a1.86 1.86 0 0 0 .255-1.339Z"/><path fill="url(#l)" d="M152.384 280.378c-1.433 1.466-2.946 3.871-2.367 7.199.578 3.329 2.813 5.082 4.656 5.979.767.373 1.505.081 1.894-.519-3.416-3.43-4.592-9.329-2.021-12.626-.569-.599-1.491-.719-2.162-.033Z"/><path stroke="#000" stroke-width="1.8" d="M154.546 280.411c.241.253.418.592.488.991l1.788 10.296a1.86 1.86 0 0 1-.255 1.339m-2.021-12.626c-.569-.599-1.491-.719-2.162-.033-1.433 1.466-2.946 3.871-2.367 7.199.578 3.329 2.813 5.082 4.656 5.979.767.373 1.505.081 1.894-.519m-2.021-12.626c-2.571 3.297-1.395 9.196 2.021 12.626"/><path fill="#000" fill-rule="evenodd" d="M189.5 280c-.179 0-.357.004-.533.013 4.999.269 8.974 4.585 8.974 9.869 0 5.458-4.24 9.883-9.47 9.883-5.132 0-9.311-4.26-9.467-9.575-.002.103-.004.206-.004.31 0 5.799 4.701 10.5 10.5 10.5s10.5-4.701 10.5-10.5c0-.207-.006-.413-.018-.618-.32-5.511-4.89-9.882-10.482-9.882Z" clip-rule="evenodd"/><path fill="url(#m)" d="M188.471 299.765c5.23 0 9.47-4.425 9.47-9.883 0-5.284-3.975-9.6-8.974-9.869a9.096 9.096 0 0 0-.496-.013c-5.231 0-9.471 4.424-9.471 9.882 0 .103.002.206.004.308.156 5.315 4.335 9.575 9.467 9.575Z"/><path stroke="#000" stroke-width="1.8" d="M179.004 290.19c.156 5.315 4.335 9.575 9.467 9.575 5.23 0 9.47-4.425 9.47-9.883 0-5.284-3.975-9.6-8.974-9.869m-9.963 10.177c-.002.103-.004.206-.004.31 0 5.799 4.701 10.5 10.5 10.5s10.5-4.701 10.5-10.5c0-.207-.006-.413-.018-.618-.32-5.511-4.89-9.882-10.482-9.882-.179 0-.357.004-.533.013m-9.963 10.177a15.713 15.713 0 0 1-.004-.308c0-5.458 4.24-9.882 9.471-9.882.166 0 .331.004.496.013"/><path fill="#000" d="m186.964 295.94 5.379-8.96a1.91 1.91 0 0 0 .279-1.068c-4.102.813-7.068 6.045-6.726 10.874.413-.12.804-.406 1.068-.846Z"/><path fill="url(#n)" d="M191.008 284.473c-2.043.172-4.76 1.002-6.499 3.899-1.739 2.897-1.194 5.685-.386 7.569.336.783 1.086 1.044 1.773.845-.342-4.829 2.624-10.061 6.726-10.874-.039-.826-.658-1.52-1.614-1.439Z"/><path stroke="#000" stroke-width="1.8" d="M192.622 285.912a1.91 1.91 0 0 1-.279 1.068l-5.379 8.96c-.264.44-.655.726-1.068.846m6.726-10.874c-.039-.826-.658-1.52-1.614-1.439-2.043.172-4.76 1.002-6.499 3.899-1.739 2.897-1.194 5.685-.386 7.569.336.783 1.086 1.044 1.773.845m6.726-10.874c-4.102.813-7.068 6.045-6.726 10.874"/><path fill="#000" fill-rule="evenodd" d="M223.5 284c-.179 0-.357.004-.533.013 4.999.269 8.974 4.585 8.974 9.869 0 5.458-4.24 9.883-9.47 9.883-5.132 0-9.311-4.26-9.467-9.575-.002.103-.004.206-.004.31 0 5.799 4.701 10.5 10.5 10.5s10.5-4.701 10.5-10.5c0-.207-.006-.413-.018-.618-.32-5.511-4.89-9.882-10.482-9.882Z" clip-rule="evenodd"/><path fill="url(#o)" d="M222.471 303.765c5.23 0 9.47-4.425 9.47-9.883 0-5.284-3.975-9.6-8.974-9.869a9.096 9.096 0 0 0-.496-.013c-5.231 0-9.471 4.424-9.471 9.882 0 .103.002.206.004.308.156 5.315 4.335 9.575 9.467 9.575Z"/><path stroke="#000" stroke-width="1.8" d="M213.004 294.19c.156 5.315 4.335 9.575 9.467 9.575 5.23 0 9.47-4.425 9.47-9.883 0-5.284-3.975-9.6-8.974-9.869m-9.963 10.177c-.002.103-.004.206-.004.31 0 5.799 4.701 10.5 10.5 10.5s10.5-4.701 10.5-10.5c0-.207-.006-.413-.018-.618-.32-5.511-4.89-9.882-10.482-9.882-.179 0-.357.004-.533.013m-9.963 10.177a15.713 15.713 0 0 1-.004-.308c0-5.458 4.24-9.882 9.471-9.882.166 0 .331.004.496.013"/><path fill="#000" d="m223.489 299.484.996-10.402a1.9 1.9 0 0 0-.208-1.085c-3.352 2.5-3.776 8.5-1.388 12.711a1.86 1.86 0 0 0 .6-1.224Z"/><path fill="url(#p)" d="M222.2 287.393c-1.769 1.036-3.864 2.955-4.186 6.318-.322 3.363 1.371 5.645 2.911 6.997.641.562 1.43.475 1.964 0-2.388-4.211-1.964-10.211 1.388-12.711-.391-.729-1.248-1.088-2.077-.604Z"/><path stroke="#000" stroke-width="1.8" d="M224.277 287.997a1.9 1.9 0 0 1 .208 1.085l-.996 10.402a1.86 1.86 0 0 1-.6 1.224m1.388-12.711c-.391-.729-1.248-1.088-2.077-.604-1.769 1.036-3.864 2.955-4.186 6.318-.322 3.363 1.371 5.645 2.911 6.997.641.562 1.43.475 1.964 0m1.388-12.711c-3.352 2.5-3.776 8.5-1.388 12.711"/><path fill="#000" d="M24.093 137.493a6.473 6.473 0 0 0-6.933 6.41l58 4.275 7.34-6.521-58.407-4.164ZM17.11 150.813l116 8.82-.06 7.17L92 163.586l-74.94-5.873.05-6.9ZM73.248 169.161l-56.238-4.538-.06 6.9L66 175.599l7.248-6.438ZM101.5 185.661l-84.6-7.228-.05 6.9 77.375 6.79 7.275-6.462ZM43 194.603l-26.2-2.36-.05 6.9 19.146 1.771L43 194.603ZM70 211.109l-53.31-5.056-.05 6.9 46.228 4.492L70 211.109ZM88.653 227.03l-72.063-7.177-.05 6.91 64.96 6.62 7.153-6.353ZM73.079 239.567l-56.599-5.904-.05 6.91L66 245.856l7.079-6.289ZM54.006 251.574l-37.626-4.101-.05 6.91L47 257.797l7.006-6.223ZM101.236 270.946l-84.956-9.663-.06 6.91 77.94 9.039 7.076-6.286ZM89.523 283.778l-73.353-8.685a7.738 7.738 0 0 0 6.81 7.738l59.52 7.186 7.023-6.239Z"/><path fill="url(#q)" d="m133.16 152.453.05-7.18-50.71-3.616-7.34 6.521 58 4.275Z"/><path fill="url(#r)" d="m66 175.599 66.94 5.564.06-7.18-59.752-4.822L66 175.599Z"/><path fill="url(#s)" d="M132.78 202.693 43 194.603l-7.104 6.311 96.834 8.959.05-7.18Z"/><path fill="url(#t)" d="m132.89 188.343-31.39-2.682-7.275 6.462 38.615 3.39.05-7.17Z"/><path fill="url(#u)" d="M132.67 217.053 70 211.109l-7.132 6.336 69.752 6.778.05-7.17Z"/><path fill="url(#v)" d="m81.5 233.383 51.01 5.2.05-7.18-43.907-4.373-7.153 6.353Z"/><path fill="url(#w)" d="m66 245.856 66.4 7.077.06-7.17-59.381-6.196L66 245.856Z"/><path fill="url(#x)" d="m47 257.797 85.29 9.496.06-7.18-78.344-8.539L47 257.797Z"/><path fill="url(#y)" d="m94.16 277.232 38.03 4.411.05-7.17-31.004-3.527-7.076 6.286Z"/><path fill="url(#z)" d="m82.5 290.017 49.58 5.986.05-7.18-42.607-5.045-7.023 6.239Z"/><path stroke="#000" stroke-width="2" d="m17.06 157.713 115.99 9.09m-115.99-9.09.05-6.9 116 8.82-.06 7.17m-115.99-9.09L92 163.586m41.05 3.217L92 163.586m-75.05 7.937 115.99 9.64m-115.99-9.64.06-6.9 56.238 4.538m-56.298 2.362L66 175.599m66.94 5.564.06-7.18-59.752-4.822m59.692 12.002L66 175.599m-49.1 2.834 115.99 9.91m-115.99-9.91-.05 6.9 77.375 6.79M16.9 178.433l84.6 7.228m31.39 2.682-.05 7.17-38.615-3.39m38.665-3.78-31.39-2.682m-84.7 6.582 115.98 10.45M16.8 192.243l-.05 6.9 19.146 1.771M16.8 192.243l26.2 2.36m89.78 8.09-.05 7.18-96.834-8.959m96.884 1.779L43 194.603m-26.31 11.45 115.98 11m-115.98-11-.05 6.9 46.228 4.492M16.69 206.053 70 211.109m62.67 5.944-.05 7.17-69.752-6.778m69.802-.392L70 211.109m62.56 20.294-.05 7.18m.05-7.18-43.907-4.373m43.907 4.373-43.907-4.373m-72.113-.267 115.97 11.82m-115.97-11.82.05-6.91 72.063 7.177m-72.113-.267 64.96 6.62m51.01 5.2-51.01-5.2m-65.07 7.19 115.97 12.36m-115.97-12.36.05-6.91 56.599 5.904m-56.649 1.006L66 245.856m66.4 7.077.06-7.17-59.381-6.196m59.321 13.366L66 245.856m-49.67 8.527 115.96 12.91m-115.96-12.91.05-6.91 37.626 4.101m-37.676 2.809L47 257.797m85.29 9.496.06-7.18-78.344-8.539m78.284 15.719L47 257.797m-30.78 10.396 115.97 13.45m-115.97-13.45.06-6.91 84.956 9.663m-85.016-2.753 77.94 9.039m38.03 4.411.05-7.17-31.004-3.527m30.954 10.697-38.03-4.411m37.92 18.771-109.1-13.172m109.1 13.172.05-7.18-42.607-5.045m42.557 12.225-49.58-5.986m-59.52-7.186a7.738 7.738 0 0 1-6.81-7.738l73.353 8.685m-66.542-.947 59.519 7.186m-7.34-141.839-58-4.275a6.473 6.473 0 0 1 6.933-6.41l58.407 4.164m-7.34 6.521 58 4.275.05-7.18-50.71-3.616m-7.34 6.521 7.34-6.521m9.5 21.929 7.34-6.521M66 175.599l7.248-6.438m.092-.082-.092.082m20.912 23.02.065-.058m7.275-6.462-7.275 6.462m-58.565 9.001.236-.21M43 194.603l-7.104 6.311m26.764 16.715.208-.184M70 211.109l-7.132 6.336M81.5 233.383l7.153-6.353m.187-.167-.188.167M66 245.856l7.079-6.289m.26-.232-.26.232M47 257.797l7.006-6.223m.334-.297-.334.297M82.5 290.017l7.023-6.239m.317-.282-.317.282m4.637-6.546 7.076-6.286m.264-.234-.264.234"/><circle cx="72.5" cy="272.5" r="12.5" fill="url(#A)" stroke="#000" stroke-width="2"/><path fill="#D9D9D9" fill-rule="evenodd" d="m297.499 189.897-.06.009-.032.004.092-.013Z" clip-rule="evenodd"/><path fill="url(#B)" d="M147.499 6c75 0 140 57 142.5 100v67c0 14 3.11 16.551 7.5 16.897 7.197-.383 9.314-3.953 9.499-12.397l-1-76.5c-2.5-43-66.5-100-141.5-100-40.499 0-79 13.234-79 13.234C102.695 8.89 123.27 6 147.5 6Z"/><path fill="url(#C)" d="M147.498 11.5c75 0 134 56.5 136.5 99.5v67c0 6.627 5.373 12 12 12 .478 0 .949-.03 1.409-.09l.032-.004.06-.009c-4.39-.346-7.5-2.897-7.5-16.897v-67c-2.5-43-67.5-100-142.5-100-24.23 0-44.805 2.89-62 8.234-48.861 15.184-70.429 50.18-70.99 94.965l8.062-2.835C23.83 66.819 41.525 33.944 87.5 19.456c16.279-5.13 36.103-7.956 59.999-7.956Z"/><path fill="#5869DD" d="M41.317 99.5C41.51 59.703 53.761 41.81 87.5 19.456c-45.974 14.489-63.67 47.363-64.928 86.908l18.745-6.59.001-.274Z"/><path stroke="#000" stroke-width="2" d="m66.5 90.92-25.184 8.854M85.5 14.234C102.694 8.89 123.269 6 147.499 6c75 0 140 57 142.5 100v67c0 14 3.11 16.551 7.5 16.897m-212-175.663S123.999 1 164.498 1c75 0 139 57 141.5 100l1 76.5c-.185 8.444-2.302 12.014-9.499 12.397m-212-175.663c-48.861 15.184-70.429 50.18-70.99 94.965l8.062-2.835M87.5 19.456c16.279-5.13 36.103-7.956 59.999-7.956 75 0 134 56.5 136.5 99.5v67c0 6.627 5.373 12 12 12 .478 0 .948-.03 1.409-.09M87.499 19.456C53.76 41.81 41.509 59.703 41.317 99.5M87.5 19.456c-45.974 14.489-63.67 47.363-64.928 86.908M297.5 189.897l-.06.009m.06-.009-.092.013m.092-.013-.06.009m0 0-.032.004m.032-.004-.032.004M41.317 99.5v.274m0-.274v.274m0 0-18.746 6.59"/><path fill="url(#D)" d="M188.5 160c-22.92 0-41.5 20.147-41.5 45 0 5.825 1.021 11.391 2.878 16.5 6.07 16.69 21.074 28.5 38.622 28.5 18.069 0 33.442-12.522 39.139-30A48.362 48.362 0 0 0 230 205c0-24.853-18.58-45-41.5-45Z"/><path fill="#5869DD" d="M147 205c0-24.853 18.58-45 41.5-45s41.5 20.147 41.5 45c0 5.26-.832 10.308-2.361 15h8.082A53.393 53.393 0 0 0 238 204.5c0-27.89-21.266-48.5-47.5-48.5S143 176.61 143 204.5c0 6.53 1.166 12.771 3.288 18.5l3.59-1.5C148.021 216.391 147 210.825 147 205Z"/><path fill="#000" d="M227.639 220c-5.697 17.478-21.07 30-39.139 30-17.548 0-32.552-11.81-38.622-28.5l-3.59 1.5c6.943 18.739 24.121 32 44.212 32 21.147 0 39.067-14.693 45.221-35h-8.082Z"/><path stroke="#000" stroke-width="2" d="M227.639 220A48.362 48.362 0 0 0 230 205c0-24.853-18.58-45-41.5-45S147 180.147 147 205c0 5.825 1.021 11.391 2.878 16.5m77.761-1.5c-5.697 17.478-21.07 30-39.139 30-17.548 0-32.552-11.81-38.622-28.5m77.761-1.5h8.082m0 0A53.393 53.393 0 0 0 238 204.5c0-27.89-21.266-48.5-47.5-48.5S143 176.61 143 204.5c0 6.53 1.166 12.771 3.288 18.5m89.433-3c-6.154 20.307-24.074 35-45.221 35-20.091 0-37.269-13.261-44.212-32m0 0 3.59-1.5"/><path fill="#000" d="m216.215 227.106-.427 1.47-.42.315-2.946-3.915.559-.421 2.395 3.183.372-1.253.467.621Zm-6.297-.333a1.99 1.99 0 0 1 1.069-.419c.38-.023.753.064 1.118.263.368.201.703.504 1.007.906.303.403.499.807.588 1.213a2 2 0 0 1-.057 1.147 1.953 1.953 0 0 1-.694.917c-.336.252-.693.39-1.073.413a1.995 1.995 0 0 1-1.118-.263c-.365-.198-.699-.498-1.002-.901-.303-.403-.501-.809-.593-1.218a2.055 2.055 0 0 1 .057-1.147c.13-.355.363-.659.698-.911Zm.392.52c-.347.261-.52.598-.518 1.012-.002.416.172.857.523 1.323.351.466.726.756 1.127.869.397.116.769.044 1.115-.217.347-.261.522-.6.524-1.016-.002-.414-.178-.854-.529-1.32-.351-.466-.724-.757-1.121-.873-.401-.113-.774-.039-1.121.222Zm-4.308 2.427a1.99 1.99 0 0 1 1.069-.419c.38-.023.752.065 1.118.263.368.202.703.504 1.006.907.303.402.5.807.589 1.213.092.409.073.791-.057 1.146a1.96 1.96 0 0 1-.694.917c-.336.253-.694.39-1.073.413-.377.027-.75-.06-1.118-.262-.365-.199-.7-.499-1.003-.902-.303-.402-.5-.809-.592-1.218a2.038 2.038 0 0 1 .057-1.147c.13-.355.362-.658.698-.911Zm.391.52c-.346.261-.519.598-.517 1.012-.002.416.172.857.523 1.323.35.466.726.756 1.127.869.397.116.768.044 1.115-.217s.521-.6.524-1.016c-.002-.413-.178-.853-.529-1.319-.351-.466-.725-.758-1.121-.874-.401-.113-.775-.039-1.122.222ZM176.289 231.276c.336.253.569.556.699.911.127.359.146.741.057 1.147-.092.409-.29.816-.593 1.218-.303.403-.637.703-1.002.902a2.003 2.003 0 0 1-1.118.263 1.955 1.955 0 0 1-1.073-.414 1.951 1.951 0 0 1-.694-.916 1.983 1.983 0 0 1-.057-1.147c.089-.406.285-.81.588-1.213s.639-.705 1.007-.907a2.05 2.05 0 0 1 1.117-.263c.377.027.734.167 1.069.419Zm-.391.52c-.347-.261-.719-.333-1.116-.217-.4.113-.776.403-1.127.869-.35.466-.525.907-.522 1.323-.002.414.171.751.517 1.012.347.261.721.335 1.121.222.397-.116.771-.407 1.122-.874.351-.466.527-.905.528-1.319-.002-.416-.176-.755-.523-1.016ZM221.359 215.121c-.147.403-.374.71-.68.921a1.916 1.916 0 0 1-1.071.338c-.409.019-.846-.056-1.311-.226-.477-.175-.868-.405-1.171-.69a1.943 1.943 0 0 1-.586-.945 1.81 1.81 0 0 1 .072-1.092c.156-.425.405-.751.746-.979.341-.223.71-.322 1.108-.295l-.258.703c-.253.026-.457.101-.611.223-.156.127-.281.32-.376.578a1.237 1.237 0 0 0-.048.743c.065.243.206.461.423.655.216.198.5.359.852.483a1.267 1.267 0 0 1-.309-.724 1.96 1.96 0 0 1 .126-.871c.118-.325.289-.595.513-.811.223-.217.477-.36.761-.43.282-.065.57-.044.864.063a1.62 1.62 0 0 1 1.085 1.374c.036.322-.007.649-.129.982Zm-2.526-.94c-.123.337-.134.639-.033.905.1.27.295.458.584.564a.925.925 0 0 0 .53.037.993.993 0 0 0 .495-.251c.147-.13.26-.302.338-.517.127-.346.136-.656.028-.929-.105-.272-.31-.464-.617-.576a.891.891 0 0 0-.781.056c-.24.141-.422.378-.544.711Zm-3.88 3.777c.144-.395.368-.706.67-.933a2.043 2.043 0 0 1 1.081-.387c.418-.03.864.041 1.337.214.474.174.858.406 1.154.699.3.293.491.624.575.993.088.37.06.753-.084 1.147a1.96 1.96 0 0 1-.677.93 2 2 0 0 1-1.08.387c-.415.032-.859-.038-1.332-.212-.473-.173-.86-.407-1.16-.7a2.054 2.054 0 0 1-.575-.994 1.99 1.99 0 0 1 .091-1.144Zm.611.224c-.149.407-.111.784.116 1.13.224.351.61.626 1.158.827.548.201 1.02.239 1.418.117.396-.119.669-.381.818-.789.15-.408.112-.787-.113-1.137-.226-.346-.612-.62-1.16-.82-.548-.201-1.02-.242-1.416-.124-.398.123-.671.388-.821.796ZM164.327 226.859l-1.43-.546-.281-.443 4.142-2.619.374.592-3.366 2.128 1.217.473-.656.415Zm.844-6.249c.225.355.335.721.331 1.099a2.052 2.052 0 0 1-.353 1.093c-.231.35-.56.66-.986.929-.426.27-.845.432-1.256.488a1.991 1.991 0 0 1-1.139-.15 1.96 1.96 0 0 1-.857-.766 1.97 1.97 0 0 1-.325-1.103c.004-.378.122-.742.353-1.093.228-.348.554-.656.98-.926.426-.269.847-.433 1.263-.491a2.048 2.048 0 0 1 1.138.15c.343.158.627.415.851.77Zm-.55.348c-.232-.367-.554-.567-.966-.599-.415-.036-.869.102-1.362.414-.493.312-.812.663-.958 1.053-.147.386-.105.762.126 1.129.232.367.556.568.97.604.413.032.865-.108 1.358-.419.493-.312.814-.661.962-1.047.145-.39.102-.768-.13-1.135ZM217.339 197.773a1.338 1.338 0 0 1-.324.666 1.142 1.142 0 0 1-.595.342 1.205 1.205 0 0 1-.786-.066 1.498 1.498 0 0 1-.623-.536 2.665 2.665 0 0 1-.388-.916 2.645 2.645 0 0 1-.062-.992c.044-.303.149-.558.316-.765.172-.204.397-.338.674-.404.241-.056.469-.043.685.04.221.082.417.232.589.451.073-.238.195-.432.366-.583.17-.15.371-.253.603-.308.263-.062.512-.046.745.047.238.097.443.262.613.496.17.233.295.52.376.86.08.341.097.654.049.938a1.373 1.373 0 0 1-.329.711c-.165.192-.38.32-.643.382a1.376 1.376 0 0 1-.678-.006 1.244 1.244 0 0 1-.588-.357Zm1.623-1.534c-.077-.327-.211-.569-.401-.725a.737.737 0 0 0-.665-.138.765.765 0 0 0-.548.424c-.1.225-.112.501-.034.828.077.327.21.567.399.718a.757.757 0 0 0 .681.142.73.73 0 0 0 .532-.428c.102-.22.114-.494.036-.821Zm-3.753.886c.085.363.221.634.407.81a.656.656 0 0 0 .639.18.716.716 0 0 0 .532-.456c.101-.245.108-.549.023-.912-.086-.363-.229-.632-.428-.805a.713.713 0 0 0-.68-.17.656.656 0 0 0-.492.446c-.087.242-.087.544-.001.907Zm.492 4.706a1.997 1.997 0 0 1 .046-1.148c.131-.357.361-.663.689-.918.333-.256.745-.441 1.235-.557.491-.116.94-.133 1.347-.052.412.08.755.251 1.027.512.278.261.465.596.561 1.004.097.409.079.792-.052 1.149a1.997 1.997 0 0 1-.69.918c-.328.255-.737.441-1.228.556-.49.116-.942.134-1.354.054a2.045 2.045 0 0 1-1.027-.513 1.99 1.99 0 0 1-.554-1.005Zm.634-.15c.099.422.339.716.718.88.381.17.855.187 1.422.053.568-.134.984-.362 1.249-.683.265-.317.348-.687.249-1.109-.1-.422-.34-.718-.721-.887-.379-.165-.852-.18-1.42-.046s-.984.36-1.25.676c-.265.322-.347.694-.247 1.116ZM160.716 192.543c.402-.329.839-.379 1.309-.152.273.132.476.319.609.559.133.24.192.513.18.818a2.462 2.462 0 0 1-.257.933 2.081 2.081 0 0 1-.567.721 1.872 1.872 0 0 1-.805.38 1.751 1.751 0 0 1-.909-.066l.298-.617c.651.112 1.122-.132 1.412-.733.157-.323.21-.606.161-.847a.741.741 0 0 0-.427-.533.667.667 0 0 0-.573-.021c-.191.074-.365.272-.521.596l-.219.453-.53-.255.22-.454c.122-.252.146-.479.072-.681a.762.762 0 0 0-.404-.451.66.66 0 0 0-.641.008c-.208.107-.386.316-.537.627-.115.24-.148.488-.096.747.047.256.18.478.4.667l-.296.612a1.752 1.752 0 0 1-.584-.656 1.784 1.784 0 0 1-.196-.834c.002-.294.068-.576.198-.844.153-.315.337-.568.554-.759.217-.191.451-.306.703-.344.248-.041.494-.003.737.115.206.1.371.236.494.41.121.167.193.368.215.601Zm3.841-1.978a1.99 1.99 0 0 1-.759.861 2.042 2.042 0 0 1-1.114.278c-.419-.011-.856-.126-1.31-.346-.454-.219-.813-.489-1.078-.809a1.984 1.984 0 0 1-.474-1.045 1.955 1.955 0 0 1 .198-1.133c.182-.378.438-.665.765-.859a2 2 0 0 1 1.114-.278c.415.01.85.124 1.304.343.453.22.815.49 1.084.812.265.32.423.669.474 1.046.047.375-.021.752-.204 1.13Zm-.586-.284c.189-.39.188-.769-.003-1.136-.188-.371-.545-.684-1.07-.938-.525-.254-.992-.339-1.4-.257-.406.079-.703.313-.892.704-.189.391-.189.772-.001 1.143.191.367.549.677 1.074.931s.991.342 1.397.263c.408-.082.706-.319.895-.71ZM160.665 208.513l.656.057-.323 3.717-.593-.051-1.483-2.258a3.303 3.303 0 0 0-.565-.695 1.02 1.02 0 0 0-.609-.271.705.705 0 0 0-.611.242c-.166.178-.261.413-.286.706-.027.307.025.576.154.807.126.227.363.383.712.47l-.063.725a1.658 1.658 0 0 1-.825-.381 1.74 1.74 0 0 1-.498-.739 2.19 2.19 0 0 1-.115-.937c.031-.358.118-.662.262-.912a1.33 1.33 0 0 1 .539-.55c.217-.117.457-.164.722-.141.256.022.484.095.684.22.2.126.386.296.56.513.169.211.371.5.606.867l.841 1.317.235-2.706Zm.959-2.624a1.999 1.999 0 0 1-.403 1.075 2.058 2.058 0 0 1-.942.656c-.396.139-.845.186-1.348.143-.502-.044-.934-.168-1.295-.373a1.989 1.989 0 0 1-.815-.808 1.959 1.959 0 0 1-.219-1.129 1.96 1.96 0 0 1 .41-1.075 2 2 0 0 1 .942-.656c.392-.139.838-.187 1.341-.143.502.043.936.167 1.302.373.362.204.634.474.815.808.177.334.248.71.212 1.129Zm-.649-.057c.038-.432-.098-.786-.407-1.061-.308-.28-.753-.445-1.334-.495-.581-.051-1.048.035-1.4.258-.351.218-.545.543-.583.975-.038.432.098.788.406 1.068.309.275.754.438 1.335.488.581.051 1.047-.033 1.399-.251.352-.222.546-.549.584-.982ZM212.92 181.337l-.534.407-4.873.583-.45-.59 4.921-.566-1.826-2.394.512-.39 2.25 2.95Zm-2.51 4.904a2.002 2.002 0 0 1-.426-1.066c-.025-.38.06-.753.256-1.12.199-.369.499-.707.9-1.012.401-.306.804-.505 1.209-.597a2 2 0 0 1 1.147.05c.36.125.667.354.921.688.255.334.395.691.421 1.071.029.376-.056.749-.256 1.119-.196.366-.494.702-.894 1.008-.401.306-.806.506-1.215.601a2.048 2.048 0 0 1-1.147-.05 1.984 1.984 0 0 1-.916-.692Zm.518-.395c.263.345.601.515 1.015.511.416 0 .856-.178 1.32-.531.464-.354.751-.732.862-1.133.113-.398.038-.769-.225-1.114-.263-.345-.603-.517-1.019-.517-.414.005-.852.184-1.316.537-.464.354-.753.73-.866 1.127-.111.402-.034.775.229 1.12ZM199.163 172.473c.305.162.549.369.732.62.184.251.289.521.315.81.03.291-.029.574-.176.85-.158.297-.37.522-.637.676-.265.149-.559.22-.883.212a2.137 2.137 0 0 1-.945-.266c-.379-.202-.653-.466-.822-.794a2.02 2.02 0 0 1-.193-1.111c.044-.41.182-.833.415-1.27.239-.449.517-.803.835-1.062.324-.261.666-.412 1.026-.453.36-.04.717.034 1.072.222.399.213.686.503.86.871.179.37.227.75.146 1.141l-.661-.352a1.136 1.136 0 0 0-.143-.64c-.1-.169-.272-.319-.515-.448a1.202 1.202 0 0 0-.732-.145 1.34 1.34 0 0 0-.709.32 2.555 2.555 0 0 0-.591.78c.221-.146.472-.214.751-.202.286.009.571.089.855.241Zm-1.31 2.324c.326.173.63.227.914.161.286-.069.505-.249.659-.537a.871.871 0 0 0 .048-.775c-.104-.262-.312-.476-.625-.643-.317-.169-.617-.222-.898-.161a.936.936 0 0 0-.633.504 1 1 0 0 0-.12.523c.014.182.075.355.184.518.112.166.27.303.471.41Zm3.796 2.751a1.987 1.987 0 0 1-.832-.792 2.054 2.054 0 0 1-.234-1.124c.028-.418.16-.85.397-1.295.237-.445.52-.794.85-1.046a1.996 1.996 0 0 1 1.064-.433c.379-.036.753.045 1.124.242.371.197.647.463.828.798.184.33.262.705.234 1.124-.025.415-.156.845-.393 1.289-.237.445-.522.796-.854 1.053-.33.252-.685.396-1.064.432-.376.032-.75-.05-1.12-.248Zm.306-.574c.383.204.761.218 1.135.042.378-.174.705-.519.979-1.034.274-.514.378-.977.311-1.388-.062-.409-.285-.715-.668-.919-.383-.204-.764-.219-1.142-.046-.374.177-.698.522-.972 1.037-.275.515-.38.977-.318 1.385.067.411.292.719.675.923ZM184.237 170.64c.569.021 1.002.193 1.298.517.297.324.436.742.417 1.255-.012.331-.1.62-.263.866a1.565 1.565 0 0 1-.672.564c-.28.125-.602.181-.966.168a2.072 2.072 0 0 1-.86-.214 1.885 1.885 0 0 1-.639-.541 1.756 1.756 0 0 1-.322-.776l.692.026a1.3 1.3 0 0 0 .439.646c.205.152.456.234.755.245.345.012.619-.073.822-.257.207-.184.317-.444.329-.78.012-.326-.081-.589-.279-.788-.194-.198-.47-.304-.829-.317a1.328 1.328 0 0 0-.578.098c-.171.068-.31.166-.417.293l-.749-.027.453-2.625 2.987.109-.023.644-2.476-.09-.233 1.385a1.62 1.62 0 0 1 .522-.296c.208-.077.406-.111.592-.105Zm4.338 3.535a1.991 1.991 0 0 1-1.094-.348 2.048 2.048 0 0 1-.703-.909c-.158-.388-.229-.834-.21-1.338.018-.504.121-.941.307-1.313.186-.376.442-.661.767-.854.324-.199.697-.29 1.116-.275.42.015.785.134 1.094.355.31.217.544.52.702.908.159.385.229.828.211 1.332-.018.504-.121.944-.307 1.32a2.052 2.052 0 0 1-.767.854 1.99 1.99 0 0 1-1.116.268Zm.023-.651c.434.016.78-.137 1.04-.459.264-.322.406-.775.427-1.357.022-.583-.087-1.045-.327-1.385-.235-.34-.57-.518-1.003-.534-.434-.016-.783.137-1.047.459-.259.322-.399.775-.421 1.357-.021.583.086 1.045.321 1.385.24.34.577.518 1.01.534ZM170.861 177.847l-.656.525.743.929-.546.437-.743-.929-2.051 1.639-.454-.569-.085-3.75.82-.655 1.901 2.378.656-.524.415.519Zm-1.618.442-1.595-1.995.075 3.21 1.52-1.215Zm4.402-1.053a1.997 1.997 0 0 1-1.057.45 2.05 2.05 0 0 1-1.124-.23c-.374-.192-.719-.484-1.033-.878-.315-.393-.523-.792-.624-1.195a2.003 2.003 0 0 1 .023-1.148 1.96 1.96 0 0 1 .668-.936 1.957 1.957 0 0 1 1.06-.445c.376-.037.751.039 1.125.23.371.188.714.478 1.029.872.314.394.524.794.628 1.201.101.403.093.785-.024 1.147a1.989 1.989 0 0 1-.671.932Zm-.407-.509c.339-.271.502-.613.488-1.026-.01-.416-.197-.852-.561-1.308-.364-.456-.748-.734-1.152-.836-.4-.104-.77-.021-1.109.25-.339.271-.503.615-.493 1.031.013.413.202.848.567 1.303.364.456.746.736 1.146.84.404.102.775.017 1.114-.254ZM143.55 151.399l-1.048-.037-.08 2.319-.8-.028.195-5.597 2.447.086c.373.013.69.096.952.249.267.148.465.35.595.605.135.251.198.533.187.847a1.627 1.627 0 0 1-.414 1.067c-.261.284-.619.45-1.074.498l1.781 2.408-1.007-.035-1.734-2.382Zm-1.022-.764 1.599.056c.32.011.568-.058.744-.206.181-.154.277-.378.287-.671.01-.293-.07-.52-.24-.681-.165-.166-.408-.254-.727-.265l-1.599-.056-.064 1.823Zm8.41 2.063-3.022-.106-.597 1.26-.871-.03 2.706-5.509.895.031 2.315 5.684-.919-.032-.507-1.298Zm-.286-.747-1.095-2.8-1.296 2.717 2.391.083Zm6.08-2.605-1.999-.07-.169 4.829-.799-.028.168-4.829-1.999-.07.027-.767 4.797.167-.026.768Zm1.638.041-.058 1.671 2.718.095-.026.751-2.718-.095-.059 1.671 2.958.104-.026.751-3.758-.131.196-5.596 3.758.131-.027.751-2.958-.103ZM150.515 268.179c.522.019.971.142 1.346.37.379.228.665.532.857.912.193.376.281.794.265 1.256a2.57 2.57 0 0 1-.352 1.242 2.226 2.226 0 0 1-.919.843c-.39.201-.846.293-1.368.274l-1.679-.058.171-4.897 1.679.058Zm-.148 4.226c.368.013.693-.048.973-.183s.497-.333.651-.594c.159-.265.244-.578.257-.937a1.879 1.879 0 0 0-.191-.945 1.477 1.477 0 0 0-.608-.644 2.039 2.039 0 0 0-.958-.251l-.979-.034-.124 3.554.979.034Zm4.324-3.421-.051 1.462 2.378.083-.023.657-2.378-.083-.051 1.462 2.588.091-.023.657-3.288-.114.171-4.897 3.288.114-.023.658-2.588-.09Zm8.278-.37-2.311 4.823-.903-.032-1.962-4.972.797.028 1.659 4.233 1.951-4.107.769.027ZM183.726 276.16a2.257 2.257 0 0 1-1.082-.304 2.032 2.032 0 0 1-.979-1.842l.101-2.896.699.025-.101 2.896a1.39 1.39 0 0 0 .657 1.242c.215.129.458.198.728.207.271.01.516-.043.734-.156a1.35 1.35 0 0 0 .536-.486c.133-.21.204-.446.213-.707l.101-2.896.7.024-.101 2.897a2.047 2.047 0 0 1-.317 1.046 2.014 2.014 0 0 1-.795.722 2.213 2.213 0 0 1-1.094.228Zm6.529.158-1.462-2.055-1.595 1.948-.846-.03 2.025-2.422-1.77-2.472.86.03 1.376 1.926 1.492-1.825.854.029-1.93 2.307 1.85 2.594-.854-.03Zm1.59.055-.665-.023 2.795-4.805.664.023-2.794 4.805Zm5.312.256a2.257 2.257 0 0 1-1.082-.304 2.037 2.037 0 0 1-.979-1.841l.101-2.897.7.025-.102 2.896a1.39 1.39 0 0 0 .657 1.242c.215.129.458.198.729.207.27.01.515-.043.734-.156.223-.114.401-.276.535-.486.133-.21.205-.446.214-.707l.101-2.896.699.024-.101 2.897a2.034 2.034 0 0 1-1.112 1.768 2.213 2.213 0 0 1-1.094.228Zm4.193-4.827-.171 4.897-.7-.024.171-4.897.7.024ZM216.435 277.558c.017-.466.141-.887.374-1.262.237-.379.551-.671.941-.877.39-.211.818-.308 1.285-.292.359.013.692.095 1 .246.308.146.569.351.784.615.22.26.377.56.473.899l-.777-.027a1.743 1.743 0 0 0-.59-.756 1.573 1.573 0 0 0-.914-.305 1.717 1.717 0 0 0-.911.213 1.792 1.792 0 0 0-.667.65 1.903 1.903 0 0 0-.263.922c-.012.34.054.655.198.945.149.286.356.515.62.687.265.173.563.265.894.277.355.012.666-.066.933-.234.272-.172.486-.412.642-.72l.776.027a2.423 2.423 0 0 1-.535.871 2.337 2.337 0 0 1-.825.56c-.317.124-.655.18-1.014.167a2.508 2.508 0 0 1-1.262-.373 2.504 2.504 0 0 1-.878-.941 2.565 2.565 0 0 1-.284-1.292Zm6.461-1.567-.051 1.462 2.378.083-.023.657-2.378-.083-.051 1.463 2.588.09-.023.658-3.288-.115.171-4.897 3.288.115-.023.657-2.588-.09Zm5.59 4.51a2.623 2.623 0 0 1-1.283-.374 2.48 2.48 0 0 1-.892-.942 2.52 2.52 0 0 1-.291-1.292 2.48 2.48 0 0 1 1.336-2.139 2.56 2.56 0 0 1 1.306-.29c.471.016.898.143 1.282.381.384.233.682.546.892.941.21.391.307.819.291 1.285a2.516 2.516 0 0 1-.38 1.269 2.479 2.479 0 0 1-.956.877c-.399.205-.834.3-1.305.284Zm.023-.672c.336.012.644-.059.925-.213.286-.153.513-.367.681-.641.173-.279.266-.589.278-.929a1.806 1.806 0 0 0-.213-.939 1.748 1.748 0 0 0-.634-.695 1.763 1.763 0 0 0-.908-.277 1.803 1.803 0 0 0-.932.213c-.281.153-.508.37-.681.648a1.863 1.863 0 0 0-.27.923c-.012.34.056.655.205.945a1.803 1.803 0 0 0 1.549.965Z"/><path stroke="#000" stroke-miterlimit="10" stroke-width="1.8" d="m216.64 238.662-3.294-4.959M228.111 220.076l-5.066-2.615M229.985 197.711l-5.598.384M221.763 177.125l-4.736 3.287M205.493 163.43l-2.696 5.371M185.229 160v6.128M165.961 167.664l2.696 5.371M152.432 184.555l4.73 3.287M148.016 206.492l5.592.384M153.82 228.037l5.066-2.615M168.367 243.834l3.295-4.959"/><path fill="#000" d="M206 207c0 13.255-10.297 24-23 24-12.463 0-22.611-10.344-22.989-23.253-.007.25-.011.501-.011.753 0 14.083 11.417 25.5 25.5 25.5s25.5-11.417 25.5-25.5c0-.504-.015-1.004-.043-1.5H206Z"/><path fill="#F1EFED" d="M185.5 183c-.434 0-.866.011-1.296.032C196.347 183.686 206 194.167 206 207h4.957c-.777-13.385-11.877-24-25.457-24Z"/><path fill="url(#E)" d="M183 231c12.703 0 23-10.745 23-24 0-12.833-9.653-23.314-21.796-23.968-.398-.021-.8-.032-1.204-.032-12.703 0-23 10.745-23 24 0 .25.004.499.011.747C160.389 220.656 170.537 231 183 231Z"/><path stroke="#000" stroke-width="2" d="M206 207c0 13.255-10.297 24-23 24-12.463 0-22.611-10.344-22.989-23.253M206 207c0-12.833-9.653-23.314-21.796-23.968M206 207h4.957m-50.946.747c-.007.25-.011.501-.011.753 0 14.083 11.417 25.5 25.5 25.5s25.5-11.417 25.5-25.5c0-.504-.015-1.004-.043-1.5m-50.946.747A26.47 26.47 0 0 1 160 207c0-13.255 10.297-24 23-24 .404 0 .806.011 1.204.032m0 0c.43-.021.862-.032 1.296-.032 13.58 0 24.68 10.615 25.457 24"/><path fill="#5869DD" d="M179.49 181.112c-1.762.455-2.49 2.464-2.49 4.284v45.155c0 1.78.682 3.727 2.373 4.28 1.02.334 2.005.179 3.227-.52-1.566-.798-1.49-11.588-1.425-20.792.013-1.766.025-3.473.025-5.04 0-9.736 0-25.962 1.4-26.825-1.147-.605-2.103-.802-3.11-.542Z"/><path fill="#000" fill-rule="evenodd" d="M184 207.938v23.728c0 1.068-.473 2.114-1.4 2.645-1.566-.798-1.49-11.588-1.425-20.792.013-1.766.025-3.473.025-5.04l2.8-.541Z" clip-rule="evenodd"/><path fill="#F1EFED" d="M184 184.162c0-1.03-.489-2.027-1.4-2.508-1.4.863-1.4 17.089-1.4 26.825l2.8-.541v-23.776Z"/><path stroke="#000" stroke-width="2" d="M182.6 181.654c.911.481 1.4 1.478 1.4 2.508v23.776m-1.4-26.284c-1.147-.605-2.103-.802-3.11-.542-1.762.455-2.49 2.464-2.49 4.284v45.155c0 1.78.682 3.727 2.373 4.28 1.02.334 2.005.179 3.227-.52m0-52.657c-1.4.863-1.4 17.089-1.4 26.825m1.4 25.832c.927-.531 1.4-1.577 1.4-2.645v-23.728m-1.4 26.373c-1.566-.798-1.49-11.588-1.425-20.792.013-1.766.025-3.473.025-5.04m0 0 2.8-.541"/><ellipse cx="180.5" cy="208.5" fill="url(#F)" stroke="#000" stroke-width="2" rx="8.5" ry="9.5"/><path fill="#000" d="M183.206 210.498c-.007.676-.268 1.245-.784 1.708-.507.455-1.177.725-2.01.812l-.012 1.196-1.17-.012.012-1.209c-.796-.103-1.461-.409-1.993-.917-.524-.508-.846-1.165-.968-1.972l1.183.011c.184.592.47 1.024.858 1.296.396.273.919.412 1.569.419.606.006 1.101-.11 1.485-.349.384-.248.578-.571.582-.969a1.04 1.04 0 0 0-.42-.876c-.275-.228-.733-.41-1.373-.547l-.882-.19c-1.834-.383-2.744-1.233-2.731-2.55a2.085 2.085 0 0 1 .771-1.643c.507-.437 1.177-.686 2.01-.747l.01-1.066 1.17.012-.011 1.092c.675.119 1.249.393 1.721.823.472.429.787.987.945 1.673l-1.222-.012a1.796 1.796 0 0 0-.822-.983c-.396-.229-.854-.347-1.374-.352-.598-.006-1.072.106-1.421.337-.349.23-.525.545-.529.944a.975.975 0 0 0 .407.823c.276.211.707.38 1.295.507l.896.165c.977.183 1.689.493 2.136.931.455.429.679.978.672 1.645ZM83 313c0 1.657-8.507 3-19 3s-19-1.343-19-3v-15h38v15ZM247 334c0 1.657-8.507 3-19 3s-19-1.343-19-3v-15h38v15Z"/><path fill="url(#G)" d="M11.5 110.259C5.408 112.492 1 118.343 1 125.289v19.713c3.804 2.732 5.966 3.075 10 3v-4.705c0-5.772 3.871-10.633 9.221-12.489a14.743 14.743 0 0 1 5.916-.766l3.363.247c-.718-9.8.53-14.098 5.5-19.653l-16.764-1.299a15.947 15.947 0 0 0-6.337.781l-.399.141Z"/><path fill="url(#H)" d="M11 148.002c-4.034.075-6.196-.268-10-3v124c4.812.678 6.778.809 10 0v-121Z"/><path fill="url(#I)" d="M265.753 132.502a18.934 18.934 0 0 0-11.285-4.859l-16.968-1.315c-5.454 5.989-7.563 9.961-9 18.551l5.103.374c3.82.28 7.258 1.762 9.911 4.037 3.38 2.898 5.486 7.083 5.486 11.703v10.509c8.269-3.685 13.376-4.108 23-3v-21.916c0-5.56-2.398-10.596-6.247-14.084Z"/><path fill="url(#J)" d="M249 297.502c9.709 3.363 14.617 2.33 23-1.5v-127.5c-9.624-1.108-14.731-.685-23 3v126Z"/><path fill="url(#K)" d="M29.5 291.495c-.005 6.477 1.268 9.457 5.5 13.772l191 23.963 5.5.69c-4.764-5.019-5.821-8.374-5.5-15.1L29.5 291.495Z"/><path fill="url(#L)" d="M1 284.236c0 9.579 7.13 17.66 16.635 18.853L35 305.267c-4.232-4.315-5.505-7.295-5.5-13.772l-3.89-.462c-8.348-.99-14.61-7.705-14.61-15.664v-6.367c-3.222.809-5.188.678-10 0v15.234Z"/><path fill="#5869DD" d="M270.937 324.502a13.954 13.954 0 0 0 1.063-5.367v-23.133c-8.383 3.83-13.291 4.863-23 1.5v6.865c0 1.586-.333 3.09-.933 4.459-2.05 4.671-7.216 7.757-12.893 7.083l-3.674-.436-5.5-.653c-.321 6.726.736 10.081 5.5 15.1l24.757 3.106c6.464.811 12.347-2.903 14.68-8.524Z"/><path fill="#5869DD" d="M11 275.369c0 7.959 6.262 14.674 14.61 15.664l3.89.462L226 314.82l5.5.653 3.674.436c5.677.674 10.843-2.412 12.893-7.083.6-1.369.933-2.873.933-4.459V160.993c0-4.62-2.106-8.805-5.486-11.703-2.653-2.275-6.091-3.757-9.911-4.037l-5.103-.374-199-14.59-3.363-.247a14.743 14.743 0 0 0-5.916.766c-5.35 1.856-9.221 6.717-9.221 12.489v132.072Z"/><path fill="#000" d="M295.46 107.535c-14.963 11.101-24.033 15.202-40.992 20.108a18.934 18.934 0 0 1 11.285 4.859l32.747-24.485c-.984-.239-2-.402-3.04-.482Z"/><path fill="url(#M)" d="M295.46 107.535 72.23 90.329a15.967 15.967 0 0 0-5.73.593l-54.6 19.196a15.947 15.947 0 0 1 6.336-.781L35 110.636l202.5 15.692 16.968 1.315c16.959-4.906 26.029-9.007 40.992-20.108Z"/><path fill="url(#N)" d="M272 319.135c0 1.909-.379 3.72-1.063 5.367 0 0 28.554-21 30.562-22.5 2.009-1.5 11.501-7 11.501-15.5V126.478c0-8.883-6.12-16.427-14.5-18.461l-32.747 24.485A18.968 18.968 0 0 1 272 146.586v172.549Z"/><path fill="url(#O)" d="M35 110.636c-4.97 5.555-6.218 9.853-5.5 19.653l199 14.59c1.437-8.59 3.546-12.562 9-18.551L35 110.636Z"/><path stroke="#000" stroke-width="2" d="M254.468 127.643c16.959-4.906 26.029-9.007 40.992-20.108m-40.992 20.108a18.934 18.934 0 0 1 11.285 4.859m-11.285-4.859-16.968-1.315m57.96-18.793L72.23 90.329a15.967 15.967 0 0 0-5.73.593l-54.6 19.196m283.56-2.583c1.04.08 2.056.243 3.04.482m-27.563 216.485a13.954 13.954 0 0 0 1.063-5.367v-23.133m-1.063 28.5c-2.333 5.621-8.216 9.335-14.68 8.524L231.5 329.92m39.437-5.418s28.554-21 30.562-22.5c2.009-1.5 11.501-7 11.501-15.5V126.478c0-8.883-6.12-16.427-14.5-18.461m-287 2.242C5.408 112.492 1 118.343 1 125.289v19.713m10.5-34.743.4-.141m-.4.141c.132-.049.265-.096.4-.141m253.853 22.384A18.968 18.968 0 0 1 272 146.586v21.916m-6.247-36 32.747-24.485m-269 22.272-3.363-.247a14.743 14.743 0 0 0-5.916.766c-5.35 1.856-9.221 6.717-9.221 12.489v4.705m18.5-17.713c-.718-9.8.53-14.098 5.5-19.653m-5.5 19.653 199 14.59M35 110.636l-16.764-1.299a15.947 15.947 0 0 0-6.337.781m23.101.518 202.5 15.692M1 145.002c3.804 2.732 5.966 3.075 10 3m-10-3v124m10-121v121m-10 0v15.234c0 9.579 7.13 17.66 16.635 18.853L35 305.267M1 269.002c4.812.678 6.778.809 10 0m0 0v6.367c0 7.959 6.262 14.674 14.61 15.664l3.89.462m0 0c-.005 6.477 1.268 9.457 5.5 13.772m-5.5-13.772L226 314.82m-191-9.553 191 23.963 5.5.69m17.5-32.418v6.865c0 1.586-.333 3.09-.933 4.459-2.05 4.671-7.216 7.757-12.893 7.083l-3.674-.436-5.5-.653m23-17.318c9.709 3.363 14.617 2.33 23-1.5m-23 1.5v-126m23 124.5v-127.5m-43.5-23.623 5.103.374c3.82.28 7.258 1.762 9.911 4.037 3.38 2.898 5.486 7.083 5.486 11.703v10.509m-20.5-26.623c1.437-8.59 3.546-12.562 9-18.551m11.5 45.174c8.269-3.685 13.376-4.108 23-3M226 314.82c-.321 6.726.736 10.081 5.5 15.1"/><path fill="url(#P)" stroke="#000" stroke-width="2" d="M244 283.288V164.33c0-4.372-1.982-8.331-5.164-11.074-2.496-2.152-5.732-3.555-9.327-3.82L137 142.617v157.084l93.987 11.217c5.344.637 10.206-2.283 12.135-6.703.565-1.295.878-2.718.878-4.219v-16.708Z"/><path fill="#000" fill-rule="evenodd" d="M155.5 277c-.179 0-.357.004-.533.013 4.999.269 8.974 4.585 8.974 9.869 0 5.458-4.24 9.883-9.47 9.883-5.132 0-9.311-4.26-9.467-9.575-.002.103-.004.206-.004.31 0 5.799 4.701 10.5 10.5 10.5s10.5-4.701 10.5-10.5c0-.207-.006-.413-.018-.618-.32-5.511-4.89-9.882-10.482-9.882Z" clip-rule="evenodd"/><path fill="url(#Q)" d="M154.471 296.765c5.23 0 9.47-4.425 9.47-9.883 0-5.284-3.975-9.6-8.974-9.869a9.096 9.096 0 0 0-.496-.013c-5.231 0-9.471 4.424-9.471 9.882 0 .103.002.206.004.308.156 5.315 4.335 9.575 9.467 9.575Z"/><path stroke="#000" stroke-width="1.8" d="M145.004 287.19c.156 5.315 4.335 9.575 9.467 9.575 5.23 0 9.47-4.425 9.47-9.883 0-5.284-3.975-9.6-8.974-9.869m-9.963 10.177c-.002.103-.004.206-.004.31 0 5.799 4.701 10.5 10.5 10.5s10.5-4.701 10.5-10.5c0-.207-.006-.413-.018-.618-.32-5.511-4.89-9.882-10.482-9.882-.179 0-.357.004-.533.013m-9.963 10.177a15.713 15.713 0 0 1-.004-.308c0-5.458 4.24-9.882 9.471-9.882.166 0 .331.004.496.013"/><path fill="#000" d="m156.822 291.698-1.788-10.296a1.905 1.905 0 0 0-.488-.991c-2.571 3.297-1.395 9.196 2.021 12.626a1.86 1.86 0 0 0 .255-1.339Z"/><path fill="url(#R)" d="M152.384 280.378c-1.433 1.466-2.946 3.871-2.367 7.199.578 3.329 2.813 5.082 4.656 5.979.767.373 1.505.081 1.894-.519-3.416-3.43-4.592-9.329-2.021-12.626-.569-.599-1.491-.719-2.162-.033Z"/><path stroke="#000" stroke-width="1.8" d="M154.546 280.411c.241.253.418.592.488.991l1.788 10.296a1.86 1.86 0 0 1-.255 1.339m-2.021-12.626c-.569-.599-1.491-.719-2.162-.033-1.433 1.466-2.946 3.871-2.367 7.199.578 3.329 2.813 5.082 4.656 5.979.767.373 1.505.081 1.894-.519m-2.021-12.626c-2.571 3.297-1.395 9.196 2.021 12.626"/><path fill="#000" fill-rule="evenodd" d="M189.5 280c-.179 0-.357.004-.533.013 4.999.269 8.974 4.585 8.974 9.869 0 5.458-4.24 9.883-9.47 9.883-5.132 0-9.311-4.26-9.467-9.575-.002.103-.004.206-.004.31 0 5.799 4.701 10.5 10.5 10.5s10.5-4.701 10.5-10.5c0-.207-.006-.413-.018-.618-.32-5.511-4.89-9.882-10.482-9.882Z" clip-rule="evenodd"/><path fill="url(#S)" d="M188.471 299.765c5.23 0 9.47-4.425 9.47-9.883 0-5.284-3.975-9.6-8.974-9.869a9.096 9.096 0 0 0-.496-.013c-5.231 0-9.471 4.424-9.471 9.882 0 .103.002.206.004.308.156 5.315 4.335 9.575 9.467 9.575Z"/><path stroke="#000" stroke-width="1.8" d="M179.004 290.19c.156 5.315 4.335 9.575 9.467 9.575 5.23 0 9.47-4.425 9.47-9.883 0-5.284-3.975-9.6-8.974-9.869m-9.963 10.177c-.002.103-.004.206-.004.31 0 5.799 4.701 10.5 10.5 10.5s10.5-4.701 10.5-10.5c0-.207-.006-.413-.018-.618-.32-5.511-4.89-9.882-10.482-9.882-.179 0-.357.004-.533.013m-9.963 10.177a15.713 15.713 0 0 1-.004-.308c0-5.458 4.24-9.882 9.471-9.882.166 0 .331.004.496.013"/><path fill="#000" d="m186.964 295.94 5.379-8.96a1.91 1.91 0 0 0 .279-1.068c-4.102.813-7.068 6.045-6.726 10.874.413-.12.804-.406 1.068-.846Z"/><path fill="url(#T)" d="M191.008 284.473c-2.043.172-4.76 1.002-6.499 3.899-1.739 2.897-1.194 5.685-.386 7.569.336.783 1.086 1.044 1.773.845-.342-4.829 2.624-10.061 6.726-10.874-.039-.826-.658-1.52-1.614-1.439Z"/><path stroke="#000" stroke-width="1.8" d="M192.622 285.912a1.91 1.91 0 0 1-.279 1.068l-5.379 8.96c-.264.44-.655.726-1.068.846m6.726-10.874c-.039-.826-.658-1.52-1.614-1.439-2.043.172-4.76 1.002-6.499 3.899-1.739 2.897-1.194 5.685-.386 7.569.336.783 1.086 1.044 1.773.845m6.726-10.874c-4.102.813-7.068 6.045-6.726 10.874"/><path fill="#000" fill-rule="evenodd" d="M223.5 284c-.179 0-.357.004-.533.013 4.999.269 8.974 4.585 8.974 9.869 0 5.458-4.24 9.883-9.47 9.883-5.132 0-9.311-4.26-9.467-9.575-.002.103-.004.206-.004.31 0 5.799 4.701 10.5 10.5 10.5s10.5-4.701 10.5-10.5c0-.207-.006-.413-.018-.618-.32-5.511-4.89-9.882-10.482-9.882Z" clip-rule="evenodd"/><path fill="url(#U)" d="M222.471 303.765c5.23 0 9.47-4.425 9.47-9.883 0-5.284-3.975-9.6-8.974-9.869a9.096 9.096 0 0 0-.496-.013c-5.231 0-9.471 4.424-9.471 9.882 0 .103.002.206.004.308.156 5.315 4.335 9.575 9.467 9.575Z"/><path stroke="#000" stroke-width="1.8" d="M213.004 294.19c.156 5.315 4.335 9.575 9.467 9.575 5.23 0 9.47-4.425 9.47-9.883 0-5.284-3.975-9.6-8.974-9.869m-9.963 10.177c-.002.103-.004.206-.004.31 0 5.799 4.701 10.5 10.5 10.5s10.5-4.701 10.5-10.5c0-.207-.006-.413-.018-.618-.32-5.511-4.89-9.882-10.482-9.882-.179 0-.357.004-.533.013m-9.963 10.177a15.713 15.713 0 0 1-.004-.308c0-5.458 4.24-9.882 9.471-9.882.166 0 .331.004.496.013"/><path fill="#000" d="m223.489 299.484.996-10.402a1.9 1.9 0 0 0-.208-1.085c-3.352 2.5-3.776 8.5-1.388 12.711a1.86 1.86 0 0 0 .6-1.224Z"/><path fill="url(#V)" d="M222.2 287.393c-1.769 1.036-3.864 2.955-4.186 6.318-.322 3.363 1.371 5.645 2.911 6.997.641.562 1.43.475 1.964 0-2.388-4.211-1.964-10.211 1.388-12.711-.391-.729-1.248-1.088-2.077-.604Z"/><path stroke="#000" stroke-width="1.8" d="M224.277 287.997a1.9 1.9 0 0 1 .208 1.085l-.996 10.402a1.86 1.86 0 0 1-.6 1.224m1.388-12.711c-.391-.729-1.248-1.088-2.077-.604-1.769 1.036-3.864 2.955-4.186 6.318-.322 3.363 1.371 5.645 2.911 6.997.641.562 1.43.475 1.964 0m1.388-12.711c-3.352 2.5-3.776 8.5-1.388 12.711"/><path fill="#000" d="M24.093 137.493a6.473 6.473 0 0 0-6.933 6.41l58 4.275 7.34-6.521-58.407-4.164ZM17.11 150.813l116 8.82-.06 7.17L92 163.586l-74.94-5.873.05-6.9ZM73.248 169.161l-56.238-4.538-.06 6.9L66 175.599l7.248-6.438ZM101.5 185.661l-84.6-7.228-.05 6.9 77.375 6.79 7.275-6.462ZM43 194.603l-26.2-2.36-.05 6.9 19.146 1.771L43 194.603ZM70 211.109l-53.31-5.056-.05 6.9 46.228 4.492L70 211.109ZM88.653 227.03l-72.063-7.177-.05 6.91 64.96 6.62 7.153-6.353ZM73.079 239.567l-56.599-5.904-.05 6.91L66 245.856l7.079-6.289ZM54.006 251.574l-37.626-4.101-.05 6.91L47 257.797l7.006-6.223ZM101.236 270.946l-84.956-9.663-.06 6.91 77.94 9.039 7.076-6.286ZM89.523 283.778l-73.353-8.685a7.738 7.738 0 0 0 6.81 7.738l59.52 7.186 7.023-6.239Z"/><path fill="url(#W)" d="m133.16 152.453.05-7.18-50.71-3.616-7.34 6.521 58 4.275Z"/><path fill="url(#X)" d="m66 175.599 66.94 5.564.06-7.18-59.752-4.822L66 175.599Z"/><path fill="url(#Y)" d="M132.78 202.693 43 194.603l-7.104 6.311 96.834 8.959.05-7.18Z"/><path fill="url(#Z)" d="m132.89 188.343-31.39-2.682-7.275 6.462 38.615 3.39.05-7.17Z"/><path fill="url(#aa)" d="M132.67 217.053 70 211.109l-7.132 6.336 69.752 6.778.05-7.17Z"/><path fill="url(#ab)" d="m81.5 233.383 51.01 5.2.05-7.18-43.907-4.373-7.153 6.353Z"/><path fill="url(#ac)" d="m66 245.856 66.4 7.077.06-7.17-59.381-6.196L66 245.856Z"/><path fill="url(#ad)" d="m47 257.797 85.29 9.496.06-7.18-78.344-8.539L47 257.797Z"/><path fill="url(#ae)" d="m94.16 277.232 38.03 4.411.05-7.17-31.004-3.527-7.076 6.286Z"/><path fill="url(#af)" d="m82.5 290.017 49.58 5.986.05-7.18-42.607-5.045-7.023 6.239Z"/><path stroke="#000" stroke-width="2" d="m17.06 157.713 115.99 9.09m-115.99-9.09.05-6.9 116 8.82-.06 7.17m-115.99-9.09L92 163.586m41.05 3.217L92 163.586m-75.05 7.937 115.99 9.64m-115.99-9.64.06-6.9 56.238 4.538m-56.298 2.362L66 175.599m66.94 5.564.06-7.18-59.752-4.822m59.692 12.002L66 175.599m-49.1 2.834 115.99 9.91m-115.99-9.91-.05 6.9 77.375 6.79M16.9 178.433l84.6 7.228m31.39 2.682-.05 7.17-38.615-3.39m38.665-3.78-31.39-2.682m-84.7 6.582 115.98 10.45M16.8 192.243l-.05 6.9 19.146 1.771M16.8 192.243l26.2 2.36m89.78 8.09-.05 7.18-96.834-8.959m96.884 1.779L43 194.603m-26.31 11.45 115.98 11m-115.98-11-.05 6.9 46.228 4.492M16.69 206.053 70 211.109m62.67 5.944-.05 7.17-69.752-6.778m69.802-.392L70 211.109m62.56 20.294-.05 7.18m.05-7.18-43.907-4.373m43.907 4.373-43.907-4.373m-72.113-.267 115.97 11.82m-115.97-11.82.05-6.91 72.063 7.177m-72.113-.267 64.96 6.62m51.01 5.2-51.01-5.2m-65.07 7.19 115.97 12.36m-115.97-12.36.05-6.91 56.599 5.904m-56.649 1.006L66 245.856m66.4 7.077.06-7.17-59.381-6.196m59.321 13.366L66 245.856m-49.67 8.527 115.96 12.91m-115.96-12.91.05-6.91 37.626 4.101m-37.676 2.809L47 257.797m85.29 9.496.06-7.18-78.344-8.539m78.284 15.719L47 257.797m-30.78 10.396 115.97 13.45m-115.97-13.45.06-6.91 84.956 9.663m-85.016-2.753 77.94 9.039m38.03 4.411.05-7.17-31.004-3.527m30.954 10.697-38.03-4.411m37.92 18.771-109.1-13.172m109.1 13.172.05-7.18-42.607-5.045m42.557 12.225-49.58-5.986m-59.52-7.186a7.738 7.738 0 0 1-6.81-7.738l73.353 8.685m-66.542-.947 59.519 7.186m-7.34-141.839-58-4.275a6.473 6.473 0 0 1 6.933-6.41l58.407 4.164m-7.34 6.521 58 4.275.05-7.18-50.71-3.616m-7.34 6.521 7.34-6.521m9.5 21.929 7.34-6.521M66 175.599l7.248-6.438m.092-.082-.092.082m20.912 23.02.065-.058m7.275-6.462-7.275 6.462m-58.565 9.001.236-.21M43 194.603l-7.104 6.311m26.764 16.715.208-.184M70 211.109l-7.132 6.336M81.5 233.383l7.153-6.353m.187-.167-.188.167M66 245.856l7.079-6.289m.26-.232-.26.232M47 257.797l7.006-6.223m.334-.297-.334.297M82.5 290.017l7.023-6.239m.317-.282-.317.282m4.637-6.546 7.076-6.286m.264-.234-.264.234"/><circle cx="72.5" cy="272.5" r="12.5" fill="url(#ag)" stroke="#000" stroke-width="2"/><path fill="#D9D9D9" fill-rule="evenodd" d="m297.499 189.897-.06.009-.032.004.092-.013Z" clip-rule="evenodd"/><path fill="url(#ah)" d="M147.499 6c75 0 140 57 142.5 100v67c0 14 3.11 16.551 7.5 16.897 7.197-.383 9.314-3.953 9.499-12.397l-1-76.5c-2.5-43-66.5-100-141.5-100-40.499 0-79 13.234-79 13.234C102.695 8.89 123.27 6 147.5 6Z"/><path fill="url(#ai)" d="M147.498 11.5c75 0 134 56.5 136.5 99.5v67c0 6.627 5.373 12 12 12 .478 0 .949-.03 1.409-.09l.032-.004.06-.009c-4.39-.346-7.5-2.897-7.5-16.897v-67c-2.5-43-67.5-100-142.5-100-24.23 0-44.805 2.89-62 8.234-48.861 15.184-70.429 50.18-70.99 94.965l8.062-2.835C23.83 66.819 41.525 33.944 87.5 19.456c16.279-5.13 36.103-7.956 59.999-7.956Z"/><path fill="#5869DD" d="M41.317 99.5C41.51 59.703 53.761 41.81 87.5 19.456c-45.974 14.489-63.67 47.363-64.928 86.908l18.745-6.59.001-.274Z"/><path stroke="#000" stroke-width="2" d="m66.5 90.92-25.184 8.854M85.5 14.234C102.694 8.89 123.269 6 147.499 6c75 0 140 57 142.5 100v67c0 14 3.11 16.551 7.5 16.897m-212-175.663S123.999 1 164.498 1c75 0 139 57 141.5 100l1 76.5c-.185 8.444-2.302 12.014-9.499 12.397m-212-175.663c-48.861 15.184-70.429 50.18-70.99 94.965l8.062-2.835M87.5 19.456c16.279-5.13 36.103-7.956 59.999-7.956 75 0 134 56.5 136.5 99.5v67c0 6.627 5.373 12 12 12 .478 0 .948-.03 1.409-.09M87.499 19.456C53.76 41.81 41.509 59.703 41.317 99.5M87.5 19.456c-45.974 14.489-63.67 47.363-64.928 86.908M297.5 189.897l-.06.009m.06-.009-.092.013m.092-.013-.06.009m0 0-.032.004m.032-.004-.032.004M41.317 99.5v.274m0-.274v.274m0 0-18.746 6.59"/><path fill="url(#aj)" d="M188.5 160c-22.92 0-41.5 20.147-41.5 45 0 5.825 1.021 11.391 2.878 16.5 6.07 16.69 21.074 28.5 38.622 28.5 18.069 0 33.442-12.522 39.139-30A48.362 48.362 0 0 0 230 205c0-24.853-18.58-45-41.5-45Z"/><path fill="#5869DD" d="M147 205c0-24.853 18.58-45 41.5-45s41.5 20.147 41.5 45c0 5.26-.832 10.308-2.361 15h8.082A53.393 53.393 0 0 0 238 204.5c0-27.89-21.266-48.5-47.5-48.5S143 176.61 143 204.5c0 6.53 1.166 12.771 3.288 18.5l3.59-1.5C148.021 216.391 147 210.825 147 205Z"/><path fill="#000" d="M227.639 220c-5.697 17.478-21.07 30-39.139 30-17.548 0-32.552-11.81-38.622-28.5l-3.59 1.5c6.943 18.739 24.121 32 44.212 32 21.147 0 39.067-14.693 45.221-35h-8.082Z"/><path stroke="#000" stroke-width="2" d="M227.639 220A48.362 48.362 0 0 0 230 205c0-24.853-18.58-45-41.5-45S147 180.147 147 205c0 5.825 1.021 11.391 2.878 16.5m77.761-1.5c-5.697 17.478-21.07 30-39.139 30-17.548 0-32.552-11.81-38.622-28.5m77.761-1.5h8.082m0 0A53.393 53.393 0 0 0 238 204.5c0-27.89-21.266-48.5-47.5-48.5S143 176.61 143 204.5c0 6.53 1.166 12.771 3.288 18.5m89.433-3c-6.154 20.307-24.074 35-45.221 35-20.091 0-37.269-13.261-44.212-32m0 0 3.59-1.5"/><path fill="#000" d="m216.215 227.106-.427 1.47-.42.315-2.946-3.915.559-.421 2.395 3.183.372-1.253.467.621Zm-6.297-.333a1.99 1.99 0 0 1 1.069-.419c.38-.023.753.064 1.118.263.368.201.703.504 1.007.906.303.403.499.807.588 1.213a2 2 0 0 1-.057 1.147 1.953 1.953 0 0 1-.694.917c-.336.252-.693.39-1.073.413a1.995 1.995 0 0 1-1.118-.263c-.365-.198-.699-.498-1.002-.901-.303-.403-.501-.809-.593-1.218a2.055 2.055 0 0 1 .057-1.147c.13-.355.363-.659.698-.911Zm.392.52c-.347.261-.52.598-.518 1.012-.002.416.172.857.523 1.323.351.466.726.756 1.127.869.397.116.769.044 1.115-.217.347-.261.522-.6.524-1.016-.002-.414-.178-.854-.529-1.32-.351-.466-.724-.757-1.121-.873-.401-.113-.774-.039-1.121.222Zm-4.308 2.427a1.99 1.99 0 0 1 1.069-.419c.38-.023.752.065 1.118.263.368.202.703.504 1.006.907.303.402.5.807.589 1.213.092.409.073.791-.057 1.146a1.96 1.96 0 0 1-.694.917c-.336.253-.694.39-1.073.413-.377.027-.75-.06-1.118-.262-.365-.199-.7-.499-1.003-.902-.303-.402-.5-.809-.592-1.218a2.038 2.038 0 0 1 .057-1.147c.13-.355.362-.658.698-.911Zm.391.52c-.346.261-.519.598-.517 1.012-.002.416.172.857.523 1.323.35.466.726.756 1.127.869.397.116.768.044 1.115-.217s.521-.6.524-1.016c-.002-.413-.178-.853-.529-1.319-.351-.466-.725-.758-1.121-.874-.401-.113-.775-.039-1.122.222ZM176.289 231.276c.336.253.569.556.699.911.127.359.146.741.057 1.147-.092.409-.29.816-.593 1.218-.303.403-.637.703-1.002.902a2.003 2.003 0 0 1-1.118.263 1.955 1.955 0 0 1-1.073-.414 1.951 1.951 0 0 1-.694-.916 1.983 1.983 0 0 1-.057-1.147c.089-.406.285-.81.588-1.213s.639-.705 1.007-.907a2.05 2.05 0 0 1 1.117-.263c.377.027.734.167 1.069.419Zm-.391.52c-.347-.261-.719-.333-1.116-.217-.4.113-.776.403-1.127.869-.35.466-.525.907-.522 1.323-.002.414.171.751.517 1.012.347.261.721.335 1.121.222.397-.116.771-.407 1.122-.874.351-.466.527-.905.528-1.319-.002-.416-.176-.755-.523-1.016ZM221.359 215.121c-.147.403-.374.71-.68.921a1.916 1.916 0 0 1-1.071.338c-.409.019-.846-.056-1.311-.226-.477-.175-.868-.405-1.171-.69a1.943 1.943 0 0 1-.586-.945 1.81 1.81 0 0 1 .072-1.092c.156-.425.405-.751.746-.979.341-.223.71-.322 1.108-.295l-.258.703c-.253.026-.457.101-.611.223-.156.127-.281.32-.376.578a1.237 1.237 0 0 0-.048.743c.065.243.206.461.423.655.216.198.5.359.852.483a1.267 1.267 0 0 1-.309-.724 1.96 1.96 0 0 1 .126-.871c.118-.325.289-.595.513-.811.223-.217.477-.36.761-.43.282-.065.57-.044.864.063a1.62 1.62 0 0 1 1.085 1.374c.036.322-.007.649-.129.982Zm-2.526-.94c-.123.337-.134.639-.033.905.1.27.295.458.584.564a.925.925 0 0 0 .53.037.993.993 0 0 0 .495-.251c.147-.13.26-.302.338-.517.127-.346.136-.656.028-.929-.105-.272-.31-.464-.617-.576a.891.891 0 0 0-.781.056c-.24.141-.422.378-.544.711Zm-3.88 3.777c.144-.395.368-.706.67-.933a2.043 2.043 0 0 1 1.081-.387c.418-.03.864.041 1.337.214.474.174.858.406 1.154.699.3.293.491.624.575.993.088.37.06.753-.084 1.147a1.96 1.96 0 0 1-.677.93 2 2 0 0 1-1.08.387c-.415.032-.859-.038-1.332-.212-.473-.173-.86-.407-1.16-.7a2.054 2.054 0 0 1-.575-.994 1.99 1.99 0 0 1 .091-1.144Zm.611.224c-.149.407-.111.784.116 1.13.224.351.61.626 1.158.827.548.201 1.02.239 1.418.117.396-.119.669-.381.818-.789.15-.408.112-.787-.113-1.137-.226-.346-.612-.62-1.16-.82-.548-.201-1.02-.242-1.416-.124-.398.123-.671.388-.821.796ZM164.327 226.859l-1.43-.546-.281-.443 4.142-2.619.374.592-3.366 2.128 1.217.473-.656.415Zm.844-6.249c.225.355.335.721.331 1.099a2.052 2.052 0 0 1-.353 1.093c-.231.35-.56.66-.986.929-.426.27-.845.432-1.256.488a1.991 1.991 0 0 1-1.139-.15 1.96 1.96 0 0 1-.857-.766 1.97 1.97 0 0 1-.325-1.103c.004-.378.122-.742.353-1.093.228-.348.554-.656.98-.926.426-.269.847-.433 1.263-.491a2.048 2.048 0 0 1 1.138.15c.343.158.627.415.851.77Zm-.55.348c-.232-.367-.554-.567-.966-.599-.415-.036-.869.102-1.362.414-.493.312-.812.663-.958 1.053-.147.386-.105.762.126 1.129.232.367.556.568.97.604.413.032.865-.108 1.358-.419.493-.312.814-.661.962-1.047.145-.39.102-.768-.13-1.135ZM217.339 197.773a1.338 1.338 0 0 1-.324.666 1.142 1.142 0 0 1-.595.342 1.205 1.205 0 0 1-.786-.066 1.498 1.498 0 0 1-.623-.536 2.665 2.665 0 0 1-.388-.916 2.645 2.645 0 0 1-.062-.992c.044-.303.149-.558.316-.765.172-.204.397-.338.674-.404.241-.056.469-.043.685.04.221.082.417.232.589.451.073-.238.195-.432.366-.583.17-.15.371-.253.603-.308.263-.062.512-.046.745.047.238.097.443.262.613.496.17.233.295.52.376.86.08.341.097.654.049.938a1.373 1.373 0 0 1-.329.711c-.165.192-.38.32-.643.382a1.376 1.376 0 0 1-.678-.006 1.244 1.244 0 0 1-.588-.357Zm1.623-1.534c-.077-.327-.211-.569-.401-.725a.737.737 0 0 0-.665-.138.765.765 0 0 0-.548.424c-.1.225-.112.501-.034.828.077.327.21.567.399.718a.757.757 0 0 0 .681.142.73.73 0 0 0 .532-.428c.102-.22.114-.494.036-.821Zm-3.753.886c.085.363.221.634.407.81a.656.656 0 0 0 .639.18.716.716 0 0 0 .532-.456c.101-.245.108-.549.023-.912-.086-.363-.229-.632-.428-.805a.713.713 0 0 0-.68-.17.656.656 0 0 0-.492.446c-.087.242-.087.544-.001.907Zm.492 4.706a1.997 1.997 0 0 1 .046-1.148c.131-.357.361-.663.689-.918.333-.256.745-.441 1.235-.557.491-.116.94-.133 1.347-.052.412.08.755.251 1.027.512.278.261.465.596.561 1.004.097.409.079.792-.052 1.149a1.997 1.997 0 0 1-.69.918c-.328.255-.737.441-1.228.556-.49.116-.942.134-1.354.054a2.045 2.045 0 0 1-1.027-.513 1.99 1.99 0 0 1-.554-1.005Zm.634-.15c.099.422.339.716.718.88.381.17.855.187 1.422.053.568-.134.984-.362 1.249-.683.265-.317.348-.687.249-1.109-.1-.422-.34-.718-.721-.887-.379-.165-.852-.18-1.42-.046s-.984.36-1.25.676c-.265.322-.347.694-.247 1.116ZM160.716 192.543c.402-.329.839-.379 1.309-.152.273.132.476.319.609.559.133.24.192.513.18.818a2.462 2.462 0 0 1-.257.933 2.081 2.081 0 0 1-.567.721 1.872 1.872 0 0 1-.805.38 1.751 1.751 0 0 1-.909-.066l.298-.617c.651.112 1.122-.132 1.412-.733.157-.323.21-.606.161-.847a.741.741 0 0 0-.427-.533.667.667 0 0 0-.573-.021c-.191.074-.365.272-.521.596l-.219.453-.53-.255.22-.454c.122-.252.146-.479.072-.681a.762.762 0 0 0-.404-.451.66.66 0 0 0-.641.008c-.208.107-.386.316-.537.627-.115.24-.148.488-.096.747.047.256.18.478.4.667l-.296.612a1.752 1.752 0 0 1-.584-.656 1.784 1.784 0 0 1-.196-.834c.002-.294.068-.576.198-.844.153-.315.337-.568.554-.759.217-.191.451-.306.703-.344.248-.041.494-.003.737.115.206.1.371.236.494.41.121.167.193.368.215.601Zm3.841-1.978a1.99 1.99 0 0 1-.759.861 2.042 2.042 0 0 1-1.114.278c-.419-.011-.856-.126-1.31-.346-.454-.219-.813-.489-1.078-.809a1.984 1.984 0 0 1-.474-1.045 1.955 1.955 0 0 1 .198-1.133c.182-.378.438-.665.765-.859a2 2 0 0 1 1.114-.278c.415.01.85.124 1.304.343.453.22.815.49 1.084.812.265.32.423.669.474 1.046.047.375-.021.752-.204 1.13Zm-.586-.284c.189-.39.188-.769-.003-1.136-.188-.371-.545-.684-1.07-.938-.525-.254-.992-.339-1.4-.257-.406.079-.703.313-.892.704-.189.391-.189.772-.001 1.143.191.367.549.677 1.074.931s.991.342 1.397.263c.408-.082.706-.319.895-.71ZM160.665 208.513l.656.057-.323 3.717-.593-.051-1.483-2.258a3.303 3.303 0 0 0-.565-.695 1.02 1.02 0 0 0-.609-.271.705.705 0 0 0-.611.242c-.166.178-.261.413-.286.706-.027.307.025.576.154.807.126.227.363.383.712.47l-.063.725a1.658 1.658 0 0 1-.825-.381 1.74 1.74 0 0 1-.498-.739 2.19 2.19 0 0 1-.115-.937c.031-.358.118-.662.262-.912a1.33 1.33 0 0 1 .539-.55c.217-.117.457-.164.722-.141.256.022.484.095.684.22.2.126.386.296.56.513.169.211.371.5.606.867l.841 1.317.235-2.706Zm.959-2.624a1.999 1.999 0 0 1-.403 1.075 2.058 2.058 0 0 1-.942.656c-.396.139-.845.186-1.348.143-.502-.044-.934-.168-1.295-.373a1.989 1.989 0 0 1-.815-.808 1.959 1.959 0 0 1-.219-1.129 1.96 1.96 0 0 1 .41-1.075 2 2 0 0 1 .942-.656c.392-.139.838-.187 1.341-.143.502.043.936.167 1.302.373.362.204.634.474.815.808.177.334.248.71.212 1.129Zm-.649-.057c.038-.432-.098-.786-.407-1.061-.308-.28-.753-.445-1.334-.495-.581-.051-1.048.035-1.4.258-.351.218-.545.543-.583.975-.038.432.098.788.406 1.068.309.275.754.438 1.335.488.581.051 1.047-.033 1.399-.251.352-.222.546-.549.584-.982ZM212.92 181.337l-.534.407-4.873.583-.45-.59 4.921-.566-1.826-2.394.512-.39 2.25 2.95Zm-2.51 4.904a2.002 2.002 0 0 1-.426-1.066c-.025-.38.06-.753.256-1.12.199-.369.499-.707.9-1.012.401-.306.804-.505 1.209-.597a2 2 0 0 1 1.147.05c.36.125.667.354.921.688.255.334.395.691.421 1.071.029.376-.056.749-.256 1.119-.196.366-.494.702-.894 1.008-.401.306-.806.506-1.215.601a2.048 2.048 0 0 1-1.147-.05 1.984 1.984 0 0 1-.916-.692Zm.518-.395c.263.345.601.515 1.015.511.416 0 .856-.178 1.32-.531.464-.354.751-.732.862-1.133.113-.398.038-.769-.225-1.114-.263-.345-.603-.517-1.019-.517-.414.005-.852.184-1.316.537-.464.354-.753.73-.866 1.127-.111.402-.034.775.229 1.12ZM199.163 172.473c.305.162.549.369.732.62.184.251.289.521.315.81.03.291-.029.574-.176.85-.158.297-.37.522-.637.676-.265.149-.559.22-.883.212a2.137 2.137 0 0 1-.945-.266c-.379-.202-.653-.466-.822-.794a2.02 2.02 0 0 1-.193-1.111c.044-.41.182-.833.415-1.27.239-.449.517-.803.835-1.062.324-.261.666-.412 1.026-.453.36-.04.717.034 1.072.222.399.213.686.503.86.871.179.37.227.75.146 1.141l-.661-.352a1.136 1.136 0 0 0-.143-.64c-.1-.169-.272-.319-.515-.448a1.202 1.202 0 0 0-.732-.145 1.34 1.34 0 0 0-.709.32 2.555 2.555 0 0 0-.591.78c.221-.146.472-.214.751-.202.286.009.571.089.855.241Zm-1.31 2.324c.326.173.63.227.914.161.286-.069.505-.249.659-.537a.871.871 0 0 0 .048-.775c-.104-.262-.312-.476-.625-.643-.317-.169-.617-.222-.898-.161a.936.936 0 0 0-.633.504 1 1 0 0 0-.12.523c.014.182.075.355.184.518.112.166.27.303.471.41Zm3.796 2.751a1.987 1.987 0 0 1-.832-.792 2.054 2.054 0 0 1-.234-1.124c.028-.418.16-.85.397-1.295.237-.445.52-.794.85-1.046a1.996 1.996 0 0 1 1.064-.433c.379-.036.753.045 1.124.242.371.197.647.463.828.798.184.33.262.705.234 1.124-.025.415-.156.845-.393 1.289-.237.445-.522.796-.854 1.053-.33.252-.685.396-1.064.432-.376.032-.75-.05-1.12-.248Zm.306-.574c.383.204.761.218 1.135.042.378-.174.705-.519.979-1.034.274-.514.378-.977.311-1.388-.062-.409-.285-.715-.668-.919-.383-.204-.764-.219-1.142-.046-.374.177-.698.522-.972 1.037-.275.515-.38.977-.318 1.385.067.411.292.719.675.923ZM184.237 170.64c.569.021 1.002.193 1.298.517.297.324.436.742.417 1.255-.012.331-.1.62-.263.866a1.565 1.565 0 0 1-.672.564c-.28.125-.602.181-.966.168a2.072 2.072 0 0 1-.86-.214 1.885 1.885 0 0 1-.639-.541 1.756 1.756 0 0 1-.322-.776l.692.026a1.3 1.3 0 0 0 .439.646c.205.152.456.234.755.245.345.012.619-.073.822-.257.207-.184.317-.444.329-.78.012-.326-.081-.589-.279-.788-.194-.198-.47-.304-.829-.317a1.328 1.328 0 0 0-.578.098c-.171.068-.31.166-.417.293l-.749-.027.453-2.625 2.987.109-.023.644-2.476-.09-.233 1.385a1.62 1.62 0 0 1 .522-.296c.208-.077.406-.111.592-.105Zm4.338 3.535a1.991 1.991 0 0 1-1.094-.348 2.048 2.048 0 0 1-.703-.909c-.158-.388-.229-.834-.21-1.338.018-.504.121-.941.307-1.313.186-.376.442-.661.767-.854.324-.199.697-.29 1.116-.275.42.015.785.134 1.094.355.31.217.544.52.702.908.159.385.229.828.211 1.332-.018.504-.121.944-.307 1.32a2.052 2.052 0 0 1-.767.854 1.99 1.99 0 0 1-1.116.268Zm.023-.651c.434.016.78-.137 1.04-.459.264-.322.406-.775.427-1.357.022-.583-.087-1.045-.327-1.385-.235-.34-.57-.518-1.003-.534-.434-.016-.783.137-1.047.459-.259.322-.399.775-.421 1.357-.021.583.086 1.045.321 1.385.24.34.577.518 1.01.534ZM170.861 177.847l-.656.525.743.929-.546.437-.743-.929-2.051 1.639-.454-.569-.085-3.75.82-.655 1.901 2.378.656-.524.415.519Zm-1.618.442-1.595-1.995.075 3.21 1.52-1.215Zm4.402-1.053a1.997 1.997 0 0 1-1.057.45 2.05 2.05 0 0 1-1.124-.23c-.374-.192-.719-.484-1.033-.878-.315-.393-.523-.792-.624-1.195a2.003 2.003 0 0 1 .023-1.148 1.96 1.96 0 0 1 .668-.936 1.957 1.957 0 0 1 1.06-.445c.376-.037.751.039 1.125.23.371.188.714.478 1.029.872.314.394.524.794.628 1.201.101.403.093.785-.024 1.147a1.989 1.989 0 0 1-.671.932Zm-.407-.509c.339-.271.502-.613.488-1.026-.01-.416-.197-.852-.561-1.308-.364-.456-.748-.734-1.152-.836-.4-.104-.77-.021-1.109.25-.339.271-.503.615-.493 1.031.013.413.202.848.567 1.303.364.456.746.736 1.146.84.404.102.775.017 1.114-.254ZM143.55 151.399l-1.048-.037-.08 2.319-.8-.028.195-5.597 2.447.086c.373.013.69.096.952.249.267.148.465.35.595.605.135.251.198.533.187.847a1.627 1.627 0 0 1-.414 1.067c-.261.284-.619.45-1.074.498l1.781 2.408-1.007-.035-1.734-2.382Zm-1.022-.764 1.599.056c.32.011.568-.058.744-.206.181-.154.277-.378.287-.671.01-.293-.07-.52-.24-.681-.165-.166-.408-.254-.727-.265l-1.599-.056-.064 1.823Zm8.41 2.063-3.022-.106-.597 1.26-.871-.03 2.706-5.509.895.031 2.315 5.684-.919-.032-.507-1.298Zm-.286-.747-1.095-2.8-1.296 2.717 2.391.083Zm6.08-2.605-1.999-.07-.169 4.829-.799-.028.168-4.829-1.999-.07.027-.767 4.797.167-.026.768Zm1.638.041-.058 1.671 2.718.095-.026.751-2.718-.095-.059 1.671 2.958.104-.026.751-3.758-.131.196-5.596 3.758.131-.027.751-2.958-.103ZM150.515 268.179c.522.019.971.142 1.346.37.379.228.665.532.857.912.193.376.281.794.265 1.256a2.57 2.57 0 0 1-.352 1.242 2.226 2.226 0 0 1-.919.843c-.39.201-.846.293-1.368.274l-1.679-.058.171-4.897 1.679.058Zm-.148 4.226c.368.013.693-.048.973-.183s.497-.333.651-.594c.159-.265.244-.578.257-.937a1.879 1.879 0 0 0-.191-.945 1.477 1.477 0 0 0-.608-.644 2.039 2.039 0 0 0-.958-.251l-.979-.034-.124 3.554.979.034Zm4.324-3.421-.051 1.462 2.378.083-.023.657-2.378-.083-.051 1.462 2.588.091-.023.657-3.288-.114.171-4.897 3.288.114-.023.658-2.588-.09Zm8.278-.37-2.311 4.823-.903-.032-1.962-4.972.797.028 1.659 4.233 1.951-4.107.769.027ZM183.726 276.16a2.257 2.257 0 0 1-1.082-.304 2.032 2.032 0 0 1-.979-1.842l.101-2.896.699.025-.101 2.896a1.39 1.39 0 0 0 .657 1.242c.215.129.458.198.728.207.271.01.516-.043.734-.156a1.35 1.35 0 0 0 .536-.486c.133-.21.204-.446.213-.707l.101-2.896.7.024-.101 2.897a2.047 2.047 0 0 1-.317 1.046 2.014 2.014 0 0 1-.795.722 2.213 2.213 0 0 1-1.094.228Zm6.529.158-1.462-2.055-1.595 1.948-.846-.03 2.025-2.422-1.77-2.472.86.03 1.376 1.926 1.492-1.825.854.029-1.93 2.307 1.85 2.594-.854-.03Zm1.59.055-.665-.023 2.795-4.805.664.023-2.794 4.805Zm5.312.256a2.257 2.257 0 0 1-1.082-.304 2.037 2.037 0 0 1-.979-1.841l.101-2.897.7.025-.102 2.896a1.39 1.39 0 0 0 .657 1.242c.215.129.458.198.729.207.27.01.515-.043.734-.156.223-.114.401-.276.535-.486.133-.21.205-.446.214-.707l.101-2.896.699.024-.101 2.897a2.034 2.034 0 0 1-1.112 1.768 2.213 2.213 0 0 1-1.094.228Zm4.193-4.827-.171 4.897-.7-.024.171-4.897.7.024ZM216.435 277.558c.017-.466.141-.887.374-1.262.237-.379.551-.671.941-.877.39-.211.818-.308 1.285-.292.359.013.692.095 1 .246.308.146.569.351.784.615.22.26.377.56.473.899l-.777-.027a1.743 1.743 0 0 0-.59-.756 1.573 1.573 0 0 0-.914-.305 1.717 1.717 0 0 0-.911.213 1.792 1.792 0 0 0-.667.65 1.903 1.903 0 0 0-.263.922c-.012.34.054.655.198.945.149.286.356.515.62.687.265.173.563.265.894.277.355.012.666-.066.933-.234.272-.172.486-.412.642-.72l.776.027a2.423 2.423 0 0 1-.535.871 2.337 2.337 0 0 1-.825.56c-.317.124-.655.18-1.014.167a2.508 2.508 0 0 1-1.262-.373 2.504 2.504 0 0 1-.878-.941 2.565 2.565 0 0 1-.284-1.292Zm6.461-1.567-.051 1.462 2.378.083-.023.657-2.378-.083-.051 1.463 2.588.09-.023.658-3.288-.115.171-4.897 3.288.115-.023.657-2.588-.09Zm5.59 4.51a2.623 2.623 0 0 1-1.283-.374 2.48 2.48 0 0 1-.892-.942 2.52 2.52 0 0 1-.291-1.292 2.48 2.48 0 0 1 1.336-2.139 2.56 2.56 0 0 1 1.306-.29c.471.016.898.143 1.282.381.384.233.682.546.892.941.21.391.307.819.291 1.285a2.516 2.516 0 0 1-.38 1.269 2.479 2.479 0 0 1-.956.877c-.399.205-.834.3-1.305.284Zm.023-.672c.336.012.644-.059.925-.213.286-.153.513-.367.681-.641.173-.279.266-.589.278-.929a1.806 1.806 0 0 0-.213-.939 1.748 1.748 0 0 0-.634-.695 1.763 1.763 0 0 0-.908-.277 1.803 1.803 0 0 0-.932.213c-.281.153-.508.37-.681.648a1.863 1.863 0 0 0-.27.923c-.012.34.056.655.205.945a1.803 1.803 0 0 0 1.549.965Z"/><path stroke="#000" stroke-miterlimit="10" stroke-width="1.8" d="m216.64 238.662-3.294-4.959M228.111 220.076l-5.066-2.615M229.985 197.711l-5.598.384M221.763 177.125l-4.736 3.287M205.493 163.43l-2.696 5.371M185.229 160v6.128M165.961 167.664l2.696 5.371M152.432 184.555l4.73 3.287M148.016 206.492l5.592.384M153.82 228.037l5.066-2.615M168.367 243.834l3.295-4.959"/><path fill="#000" d="M206 207c0 13.255-10.297 24-23 24-12.463 0-22.611-10.344-22.989-23.253-.007.25-.011.501-.011.753 0 14.083 11.417 25.5 25.5 25.5s25.5-11.417 25.5-25.5c0-.504-.015-1.004-.043-1.5H206Z"/><path fill="#F1EFED" d="M185.5 183c-.434 0-.866.011-1.296.032C196.347 183.686 206 194.167 206 207h4.957c-.777-13.385-11.877-24-25.457-24Z"/><path fill="url(#ak)" d="M183 231c12.703 0 23-10.745 23-24 0-12.833-9.653-23.314-21.796-23.968-.398-.021-.8-.032-1.204-.032-12.703 0-23 10.745-23 24 0 .25.004.499.011.747C160.389 220.656 170.537 231 183 231Z"/><path stroke="#000" stroke-width="2" d="M206 207c0 13.255-10.297 24-23 24-12.463 0-22.611-10.344-22.989-23.253M206 207c0-12.833-9.653-23.314-21.796-23.968M206 207h4.957m-50.946.747c-.007.25-.011.501-.011.753 0 14.083 11.417 25.5 25.5 25.5s25.5-11.417 25.5-25.5c0-.504-.015-1.004-.043-1.5m-50.946.747A26.47 26.47 0 0 1 160 207c0-13.255 10.297-24 23-24 .404 0 .806.011 1.204.032m0 0c.43-.021.862-.032 1.296-.032 13.58 0 24.68 10.615 25.457 24"/><path fill="#5869DD" d="M179.49 181.112c-1.762.455-2.49 2.464-2.49 4.284v45.155c0 1.78.682 3.727 2.373 4.28 1.02.334 2.005.179 3.227-.52-1.566-.798-1.49-11.588-1.425-20.792.013-1.766.025-3.473.025-5.04 0-9.736 0-25.962 1.4-26.825-1.147-.605-2.103-.802-3.11-.542Z"/><path fill="#000" fill-rule="evenodd" d="M184 207.938v23.728c0 1.068-.473 2.114-1.4 2.645-1.566-.798-1.49-11.588-1.425-20.792.013-1.766.025-3.473.025-5.04l2.8-.541Z" clip-rule="evenodd"/><path fill="#F1EFED" d="M184 184.162c0-1.03-.489-2.027-1.4-2.508-1.4.863-1.4 17.089-1.4 26.825l2.8-.541v-23.776Z"/><path stroke="#000" stroke-width="2" d="M182.6 181.654c.911.481 1.4 1.478 1.4 2.508v23.776m-1.4-26.284c-1.147-.605-2.103-.802-3.11-.542-1.762.455-2.49 2.464-2.49 4.284v45.155c0 1.78.682 3.727 2.373 4.28 1.02.334 2.005.179 3.227-.52m0-52.657c-1.4.863-1.4 17.089-1.4 26.825m1.4 25.832c.927-.531 1.4-1.577 1.4-2.645v-23.728m-1.4 26.373c-1.566-.798-1.49-11.588-1.425-20.792.013-1.766.025-3.473.025-5.04m0 0 2.8-.541"/><ellipse cx="180.5" cy="208.5" fill="url(#al)" stroke="#000" stroke-width="2" rx="8.5" ry="9.5"/><path fill="#000" d="M183.206 210.498c-.007.676-.268 1.245-.784 1.708-.507.455-1.177.725-2.01.812l-.012 1.196-1.17-.012.012-1.209c-.796-.103-1.461-.409-1.993-.917-.524-.508-.846-1.165-.968-1.972l1.183.011c.184.592.47 1.024.858 1.296.396.273.919.412 1.569.419.606.006 1.101-.11 1.485-.349.384-.248.578-.571.582-.969a1.04 1.04 0 0 0-.42-.876c-.275-.228-.733-.41-1.373-.547l-.882-.19c-1.834-.383-2.744-1.233-2.731-2.55a2.085 2.085 0 0 1 .771-1.643c.507-.437 1.177-.686 2.01-.747l.01-1.066 1.17.012-.011 1.092c.675.119 1.249.393 1.721.823.472.429.787.987.945 1.673l-1.222-.012a1.796 1.796 0 0 0-.822-.983c-.396-.229-.854-.347-1.374-.352-.598-.006-1.072.106-1.421.337-.349.23-.525.545-.529.944a.975.975 0 0 0 .407.823c.276.211.707.38 1.295.507l.896.165c.977.183 1.689.493 2.136.931.455.429.679.978.672 1.645Z"/><defs><linearGradient id="a" x1="33.999" x2="1.646" y1="153.502" y2="109.031" gradientUnits="userSpaceOnUse"><stop stop-color="#D6FFBB"/><stop offset="1" stop-color="#5869DD"/></linearGradient><linearGradient id="b" x1="76.499" x2="-37.172" y1="191.002" y2="193.751" gradientUnits="userSpaceOnUse"><stop offset=".359" stop-color="#D6FFBB"/><stop offset=".974" stop-color="#5869DD"/></linearGradient><linearGradient id="c" x1="174.499" x2="232.963" y1="208.002" y2="129.887" gradientUnits="userSpaceOnUse"><stop stop-color="#D6FFBB"/><stop offset="1" stop-color="#5869DD"/></linearGradient><linearGradient id="d" x1="194.999" x2="281.001" y1="221.502" y2="255.753" gradientUnits="userSpaceOnUse"><stop stop-color="#D6FFBB"/><stop offset="1" stop-color="#5869DD"/></linearGradient><linearGradient id="e" x1="80.499" x2="121.754" y1="248.002" y2="333.602" gradientUnits="userSpaceOnUse"><stop stop-color="#D6FFBB"/><stop offset="1" stop-color="#5869DD"/></linearGradient><linearGradient id="f" x1="23.999" x2="11.576" y1="267.002" y2="308.745" gradientUnits="userSpaceOnUse"><stop stop-color="#D6FFBB"/><stop offset="1" stop-color="#5869DD"/></linearGradient><linearGradient id="g" x1="57.499" x2="234.499" y1="223.002" y2="90.002" gradientUnits="userSpaceOnUse"><stop stop-color="#D6FFBB"/><stop offset="1" stop-color="#5869DD"/></linearGradient><linearGradient id="h" x1="66.999" x2="287.21" y1="275.002" y2="171.153" gradientUnits="userSpaceOnUse"><stop offset=".478" stop-color="#D6FFBB"/><stop offset="1" stop-color="#5869DD"/></linearGradient><linearGradient id="i" x1="33.499" x2="215.239" y1="206.002" y2="150.382" gradientUnits="userSpaceOnUse"><stop stop-color="#D6FFBB"/><stop offset="1" stop-color="#5869DD"/></linearGradient><linearGradient id="j" x1="104.499" x2="244" y1="170.505" y2="226.811" gradientUnits="userSpaceOnUse"><stop stop-color="#D6FFBB"/><stop offset="1" stop-color="#5869DD"/></linearGradient><linearGradient id="k" x1="144" x2="158.5" y1="277.5" y2="294" gradientUnits="userSpaceOnUse"><stop stop-color="#D6FFBB"/><stop offset="1" stop-color="#5869DD"/></linearGradient><linearGradient id="l" x1="150.865" x2="154.023" y1="285.049" y2="285.221" gradientUnits="userSpaceOnUse"><stop stop-color="#D6FFBB"/><stop offset="1" stop-color="#5869DD"/></linearGradient><linearGradient id="m" x1="178" x2="192.5" y1="280.5" y2="297" gradientUnits="userSpaceOnUse"><stop stop-color="#D6FFBB"/><stop offset="1" stop-color="#5869DD"/></linearGradient><linearGradient id="n" x1="186.804" x2="189.081" y1="287.014" y2="289.208" gradientUnits="userSpaceOnUse"><stop stop-color="#D6FFBB"/><stop offset="1" stop-color="#5869DD"/></linearGradient><linearGradient id="o" x1="212" x2="226.5" y1="284.5" y2="301" gradientUnits="userSpaceOnUse"><stop stop-color="#D6FFBB"/><stop offset="1" stop-color="#5869DD"/></linearGradient><linearGradient id="p" x1="219.501" x2="222.501" y1="291.497" y2="292.497" gradientUnits="userSpaceOnUse"><stop stop-color="#D6FFBB"/><stop offset="1" stop-color="#5869DD"/></linearGradient><linearGradient id="q" x1="16.17" x2="133.21" y1="216.74" y2="216.74" gradientUnits="userSpaceOnUse"><stop stop-color="#D6FFBB"/><stop offset="1" stop-color="#5869DD"/></linearGradient><linearGradient id="r" x1="16.17" x2="133.21" y1="216.74" y2="216.74" gradientUnits="userSpaceOnUse"><stop stop-color="#D6FFBB"/><stop offset="1" stop-color="#5869DD"/></linearGradient><linearGradient id="s" x1="16.17" x2="133.21" y1="216.74" y2="216.74" gradientUnits="userSpaceOnUse"><stop stop-color="#D6FFBB"/><stop offset="1" stop-color="#5869DD"/></linearGradient><linearGradient id="t" x1="16.17" x2="133.21" y1="216.74" y2="216.74" gradientUnits="userSpaceOnUse"><stop stop-color="#D6FFBB"/><stop offset="1" stop-color="#5869DD"/></linearGradient><linearGradient id="u" x1="16.17" x2="133.21" y1="216.74" y2="216.74" gradientUnits="userSpaceOnUse"><stop stop-color="#D6FFBB"/><stop offset="1" stop-color="#5869DD"/></linearGradient><linearGradient id="v" x1="16.17" x2="133.21" y1="216.74" y2="216.74" gradientUnits="userSpaceOnUse"><stop stop-color="#D6FFBB"/><stop offset="1" stop-color="#5869DD"/></linearGradient><linearGradient id="w" x1="16.17" x2="133.21" y1="216.74" y2="216.74" gradientUnits="userSpaceOnUse"><stop stop-color="#D6FFBB"/><stop offset="1" stop-color="#5869DD"/></linearGradient><linearGradient id="x" x1="16.17" x2="133.21" y1="216.74" y2="216.74" gradientUnits="userSpaceOnUse"><stop stop-color="#D6FFBB"/><stop offset="1" stop-color="#5869DD"/></linearGradient><linearGradient id="y" x1="16.17" x2="133.21" y1="216.74" y2="216.74" gradientUnits="userSpaceOnUse"><stop stop-color="#D6FFBB"/><stop offset="1" stop-color="#5869DD"/></linearGradient><linearGradient id="z" x1="16.17" x2="133.21" y1="216.74" y2="216.74" gradientUnits="userSpaceOnUse"><stop stop-color="#D6FFBB"/><stop offset="1" stop-color="#5869DD"/></linearGradient><linearGradient id="A" x1="51.5" x2="85" y1="260" y2="272.5" gradientUnits="userSpaceOnUse"><stop stop-color="#D6FFBB"/><stop offset="1" stop-color="#5869DD"/></linearGradient><linearGradient id="B" x1="14.51" x2="306.998" y1="95.5" y2="95.5" gradientUnits="userSpaceOnUse"><stop stop-color="#D6FFBB"/><stop offset="1" stop-color="#5869DD"/></linearGradient><linearGradient id="C" x1="89.999" x2="150.499" y1="-24" y2="124" gradientUnits="userSpaceOnUse"><stop stop-color="#D6FFBB"/><stop offset="1" stop-color="#5869DD"/></linearGradient><linearGradient id="D" x1="143" x2="238" y1="205.5" y2="205.5" gradientUnits="userSpaceOnUse"><stop stop-color="#D6FFBB"/><stop offset="1" stop-color="#5869DD"/></linearGradient><linearGradient id="E" x1="160" x2="211" y1="208.5" y2="208.5" gradientUnits="userSpaceOnUse"><stop stop-color="#D6FFBB"/><stop offset="1" stop-color="#5869DD"/></linearGradient><linearGradient id="F" x1="172" x2="189" y1="208.5" y2="208.5" gradientUnits="userSpaceOnUse"><stop stop-color="#D6FFBB"/><stop offset="1" stop-color="#5869DD"/></linearGradient><linearGradient id="G" x1="29.5" x2="1.478" y1="142" y2="109.094" gradientUnits="userSpaceOnUse"><stop stop-color="#D6FFBB"/><stop offset="1" stop-color="#5869DD"/></linearGradient><linearGradient id="H" x1="61.5" x2="-36.625" y1="184.5" y2="189.066" gradientUnits="userSpaceOnUse"><stop offset=".359" stop-color="#D6FFBB"/><stop offset=".974" stop-color="#5869DD"/></linearGradient><linearGradient id="I" x1="211" x2="253.677" y1="175" y2="124.142" gradientUnits="userSpaceOnUse"><stop stop-color="#D6FFBB"/><stop offset="1" stop-color="#5869DD"/></linearGradient><linearGradient id="J" x1="194.999" x2="281.001" y1="221.502" y2="255.753" gradientUnits="userSpaceOnUse"><stop stop-color="#D6FFBB"/><stop offset="1" stop-color="#5869DD"/></linearGradient><linearGradient id="K" x1="103" x2="155.411" y1="230.5" y2="339.762" gradientUnits="userSpaceOnUse"><stop stop-color="#D6FFBB"/><stop offset="1" stop-color="#5869DD"/></linearGradient><linearGradient id="L" x1="24.5" x2="4.781" y1="272.5" y2="309.941" gradientUnits="userSpaceOnUse"><stop stop-color="#D6FFBB"/><stop offset="1" stop-color="#5869DD"/></linearGradient><linearGradient id="M" x1="61.5" x2="234.499" y1="186" y2="90.002" gradientUnits="userSpaceOnUse"><stop stop-color="#D6FFBB"/><stop offset="1" stop-color="#5869DD"/></linearGradient><linearGradient id="N" x1="66.999" x2="287.21" y1="275.002" y2="171.153" gradientUnits="userSpaceOnUse"><stop offset=".478" stop-color="#D6FFBB"/><stop offset="1" stop-color="#5869DD"/></linearGradient><linearGradient id="O" x1="33.499" x2="215.239" y1="206.002" y2="150.382" gradientUnits="userSpaceOnUse"><stop stop-color="#D6FFBB"/><stop offset="1" stop-color="#5869DD"/></linearGradient><linearGradient id="P" x1="117" x2="241" y1="165.504" y2="255.504" gradientUnits="userSpaceOnUse"><stop stop-color="#D6FFBB"/><stop offset="1" stop-color="#5869DD"/></linearGradient><linearGradient id="Q" x1="144" x2="158.5" y1="277.5" y2="294" gradientUnits="userSpaceOnUse"><stop stop-color="#D6FFBB"/><stop offset="1" stop-color="#5869DD"/></linearGradient><linearGradient id="R" x1="150.865" x2="154.023" y1="285.049" y2="285.221" gradientUnits="userSpaceOnUse"><stop stop-color="#D6FFBB"/><stop offset="1" stop-color="#5869DD"/></linearGradient><linearGradient id="S" x1="178" x2="192.5" y1="280.5" y2="297" gradientUnits="userSpaceOnUse"><stop stop-color="#D6FFBB"/><stop offset="1" stop-color="#5869DD"/></linearGradient><linearGradient id="T" x1="186.804" x2="189.081" y1="287.014" y2="289.208" gradientUnits="userSpaceOnUse"><stop stop-color="#D6FFBB"/><stop offset="1" stop-color="#5869DD"/></linearGradient><linearGradient id="U" x1="212" x2="226.5" y1="284.5" y2="301" gradientUnits="userSpaceOnUse"><stop stop-color="#D6FFBB"/><stop offset="1" stop-color="#5869DD"/></linearGradient><linearGradient id="V" x1="219.501" x2="222.501" y1="291.497" y2="292.497" gradientUnits="userSpaceOnUse"><stop stop-color="#D6FFBB"/><stop offset="1" stop-color="#5869DD"/></linearGradient><linearGradient id="W" x1="16.17" x2="133.21" y1="216.74" y2="216.74" gradientUnits="userSpaceOnUse"><stop stop-color="#D6FFBB"/><stop offset="1" stop-color="#5869DD"/></linearGradient><linearGradient id="X" x1="16.17" x2="133.21" y1="216.74" y2="216.74" gradientUnits="userSpaceOnUse"><stop stop-color="#D6FFBB"/><stop offset="1" stop-color="#5869DD"/></linearGradient><linearGradient id="Y" x1="16.17" x2="133.21" y1="216.74" y2="216.74" gradientUnits="userSpaceOnUse"><stop stop-color="#D6FFBB"/><stop offset="1" stop-color="#5869DD"/></linearGradient><linearGradient id="Z" x1="16.17" x2="133.21" y1="216.74" y2="216.74" gradientUnits="userSpaceOnUse"><stop stop-color="#D6FFBB"/><stop offset="1" stop-color="#5869DD"/></linearGradient><linearGradient id="aa" x1="16.17" x2="133.21" y1="216.74" y2="216.74" gradientUnits="userSpaceOnUse"><stop stop-color="#D6FFBB"/><stop offset="1" stop-color="#5869DD"/></linearGradient><linearGradient id="ab" x1="16.17" x2="133.21" y1="216.74" y2="216.74" gradientUnits="userSpaceOnUse"><stop stop-color="#D6FFBB"/><stop offset="1" stop-color="#5869DD"/></linearGradient><linearGradient id="ac" x1="16.17" x2="133.21" y1="216.74" y2="216.74" gradientUnits="userSpaceOnUse"><stop stop-color="#D6FFBB"/><stop offset="1" stop-color="#5869DD"/></linearGradient><linearGradient id="ad" x1="16.17" x2="133.21" y1="216.74" y2="216.74" gradientUnits="userSpaceOnUse"><stop stop-color="#D6FFBB"/><stop offset="1" stop-color="#5869DD"/></linearGradient><linearGradient id="ae" x1="16.17" x2="133.21" y1="216.74" y2="216.74" gradientUnits="userSpaceOnUse"><stop stop-color="#D6FFBB"/><stop offset="1" stop-color="#5869DD"/></linearGradient><linearGradient id="af" x1="16.17" x2="133.21" y1="216.74" y2="216.74" gradientUnits="userSpaceOnUse"><stop stop-color="#D6FFBB"/><stop offset="1" stop-color="#5869DD"/></linearGradient><linearGradient id="ag" x1="60" x2="85" y1="272.5" y2="272.5" gradientUnits="userSpaceOnUse"><stop stop-color="#D6FFBB"/><stop offset="1" stop-color="#5869DD"/></linearGradient><linearGradient id="ah" x1="125" x2="362" y1="-5.5" y2="133" gradientUnits="userSpaceOnUse"><stop stop-color="#D6FFBB"/><stop offset="1" stop-color="#5869DD"/></linearGradient><linearGradient id="ai" x1="89.999" x2="150.499" y1="-24" y2="124" gradientUnits="userSpaceOnUse"><stop stop-color="#D6FFBB"/><stop offset="1" stop-color="#5869DD"/></linearGradient><linearGradient id="aj" x1="143" x2="238" y1="205.5" y2="205.5" gradientUnits="userSpaceOnUse"><stop stop-color="#D6FFBB"/><stop offset="1" stop-color="#5869DD"/></linearGradient><linearGradient id="ak" x1="160" x2="211" y1="208.5" y2="208.5" gradientUnits="userSpaceOnUse"><stop stop-color="#D6FFBB"/><stop offset="1" stop-color="#5869DD"/></linearGradient><linearGradient id="al" x1="172" x2="189" y1="208.5" y2="208.5" gradientUnits="userSpaceOnUse"><stop stop-color="#D6FFBB"/><stop offset="1" stop-color="#5869DD"/></linearGradient></defs></svg>
