<svg xmlns="http://www.w3.org/2000/svg" width="299" height="412" fill="none" viewBox="0 0 299 412"><path fill="#000" d="M-.961 358.557c4.999.522 10.025.738 15.05.646a.575.575 0 0 0 .57-.549.56.56 0 0 0-.549-.568c-4.977.115-9.956-.067-14.911-.544a.512.512 0 0 0-.502.265.52.52 0 0 0 .341.75ZM29.113 357.586a56.011 56.011 0 0 0 14.277-4.885.637.637 0 0 0 .33-.382.653.653 0 0 0-.045-.503.658.658 0 0 0-.886-.285 54.49 54.49 0 0 1-13.908 4.848.613.613 0 0 0-.36.677.61.61 0 0 0 .586.495l.006.035ZM55.545 343.573a44.522 44.522 0 0 0 4.68-6.009 47.937 47.937 0 0 0 3.647-6.693.745.745 0 0 0-.14-.845.75.75 0 0 0-.251-.167.774.774 0 0 0-.588-.016.752.752 0 0 0-.424.408 47.45 47.45 0 0 1-3.473 6.484 42.902 42.902 0 0 1-4.493 5.843.695.695 0 0 0-.191.503.686.686 0 0 0 .229.488.71.71 0 0 0 .773.157.7.7 0 0 0 .231-.153ZM65.017 315.686a39.411 39.411 0 0 0-6.84-13.598.848.848 0 0 0-.562-.375.837.837 0 0 0-.657.161.85.85 0 0 0-.178 1.185 38.181 38.181 0 0 1 6.667 13.015.804.804 0 0 0 1.556-.403l.014.015ZM47.94 290.929a144.955 144.955 0 0 0-11.688-9.565.88.88 0 0 0-.98-.043.875.875 0 0 0-.4.545.88.88 0 0 0 .336.922 139.194 139.194 0 0 1 11.55 9.406.869.869 0 0 0 1.176-1.272l.007.007ZM23.838 272.867c-2.125-1.326-4.236-2.667-6.368-3.986l-6.536-3.713a.904.904 0 0 0-1.244.338.904.904 0 0 0-.089.691.912.912 0 0 0 .427.552l6.508 3.685c2.118 1.305 4.23 2.631 6.348 3.95a.903.903 0 0 0 1.18-.323.901.901 0 0 0-.233-1.201l.007.007ZM-1.538 257.079c-.97-.761-1.91-1.535-2.778-2.364a12.468 12.468 0 0 1-2.213-2.658 4.06 4.06 0 0 1-.32-.691 2.615 2.615 0 0 1-.072-.32.619.619 0 0 1-.03-.29 1.11 1.11 0 0 1 .484-.939 7.302 7.302 0 0 1 2.992-1.147 1.002 1.002 0 0 0 .742-1.118.944.944 0 0 0-.743-.737.948.948 0 0 0-.368.002 8.768 8.768 0 0 0-3.897 1.59l-.217.208-.237.229c-.143.17-.27.352-.378.545l-.224.647a2.404 2.404 0 0 0-.062.67c-.023.212-.006.426.052.631.033.199.079.396.137.589.116.337.259.663.428.977a14.57 14.57 0 0 0 2.551 3.095c.946.88 1.935 1.69 2.932 2.479a.94.94 0 0 0 1.304-.159.93.93 0 0 0-.16-1.304l.077.065ZM11.338 247.598l14.995-.508a.997.997 0 0 0 .737-1.001 1.002 1.002 0 0 0-.807-.945l-14.974.544a.996.996 0 0 0-1.261.998.998.998 0 0 0 1.325.913l-.015-.001ZM41.32 246.587c5.011-.247 10.018-.614 15.007-1.201a1.004 1.004 0 0 0 .954-.692.998.998 0 0 0-1.164-1.285c-4.962.615-9.911.927-14.887 1.182a1 1 0 0 0 .097 1.989l-.007.007ZM71.21 242.907a111.395 111.395 0 0 0 14.506-4.258.949.949 0 0 0 .63-.858.936.936 0 0 0-.062-.369 1 1 0 0 0-1.227-.567 109.874 109.874 0 0 1-14.27 4.142.997.997 0 0 0-.98.778 1 1 0 0 0 1.418 1.118l-.014.014ZM99.443 232.169a55.502 55.502 0 0 0 11.805-9.598.935.935 0 0 0-1.095-1.472.927.927 0 0 0-.289.223 53.425 53.425 0 0 1-11.424 9.23.939.939 0 0 0-.32 1.295 1.002 1.002 0 0 0 1.302.314l.021.008ZM119.576 209.829a47.606 47.606 0 0 0 3.705-14.775.905.905 0 0 0-.204-.653.893.893 0 0 0-1.576.493 45.963 45.963 0 0 1-3.588 14.204.926.926 0 0 0-.1.356.911.911 0 0 0 .903.974.92.92 0 0 0 .86-.599ZM122.67 179.891a80.685 80.685 0 0 0-3.957-14.613.859.859 0 0 0-1.57-.057.864.864 0 0 0-.046.643 78.703 78.703 0 0 1 3.856 14.335.88.88 0 0 0 1.738-.287l-.021-.021ZM112.913 151.347l-5.954-13.702a.78.78 0 0 0-1.025-.401.792.792 0 0 0-.401 1.025l5.86 13.792a.852.852 0 0 0 1.075.365.85.85 0 0 0 .479-1.029l-.034-.05ZM102.498 123.487a50.786 50.786 0 0 1-.95-14.706.7.7 0 0 0-.636-.761.702.702 0 0 0-.762.636 52.467 52.467 0 0 0 .878 15.136.75.75 0 0 0 1.47-.291v-.014ZM104.97 94.437a62.713 62.713 0 0 1 7.144-12.978.613.613 0 0 0-.185-.79.61.61 0 0 0-.806.093 64.97 64.97 0 0 0-7.375 13.2.663.663 0 0 0 .359.848.649.649 0 0 0 .848-.359l.015-.014ZM121.725 70.084a132.825 132.825 0 0 1 11.097-9.985.499.499 0 0 0-.251-.894.504.504 0 0 0-.371.104 135.073 135.073 0 0 0-11.231 9.962.562.562 0 0 0 .391.906.56.56 0 0 0 .379-.107l-.014.014ZM144.833 51.16l12.522-8.22a.32.32 0 0 0 .1-.457.334.334 0 0 0-.208-.146.33.33 0 0 0-.25.045l-12.68 8.055a.415.415 0 0 0-.185.262.41.41 0 0 0 .061.315.406.406 0 0 0 .419.19.41.41 0 0 0 .151-.059l.07.015ZM170.233 35.27l13.044-7.404a.15.15 0 0 0 .047-.038.143.143 0 0 0 .033-.115.16.16 0 0 0-.231-.118l-13.139 7.247a.248.248 0 0 0-.091.337.238.238 0 0 0 .33.098l.007-.007ZM196.335 20.475l10.27-6.19-10.339 6.075a.072.072 0 0 0-.044.02.07.07 0 0 0-.021.043c.003.016.01.03.021.042.012.011.026.02.042.023l.071-.013Z"/><path fill="#000" fill-rule="evenodd" d="m117.215 240.838-10.612 21.51 23.934-1.565 10.611-21.51-.077.005-23.837 1.559-.019.001Z" clip-rule="evenodd"/><path fill="#000" fill-rule="evenodd" d="m151.704 217.8-10.612 21.511-.021-.033-13.301-19.912.077-.005 23.857-1.561ZM66.664 202.496l-.009.017-10.603 21.493 13.323 19.944 10.611-21.51-13.312-19.928-.01-.016Z" clip-rule="evenodd"/><path fill="#000" fill-rule="evenodd" d="m69.375 243.95 23.934-1.565 13.322 19.945 10.603-21.493.009-.017-13.323-19.945-23.934 1.565-10.611 21.51Z" clip-rule="evenodd"/><path fill="#000" fill-rule="evenodd" d="m117.234 240.837-.019.001-13.323-19.944-23.934 1.565-13.323-19.945.02-.001.02-.001 13.311 19.928 23.934-1.565 13.323 19.945-.009.017Zm23.837-1.559-13.301-19.912.077-.005 13.301 19.912-.077.005Z" clip-rule="evenodd"/><path fill="#000" fill-rule="evenodd" d="m66.674 202.512-.019.001.009-.017.01.016Z" clip-rule="evenodd"/><path fill="#F1EFED" d="m151.76 217.763-23.934 1.566.021.032-.077.005 13.301 19.912-23.837 1.559.009-.017-13.323-19.945-23.934 1.565-13.312-19.928 23.896-1.563-13.323-19.945 23.933-1.565 13.323 19.945 23.934-1.566 13.323 19.945Z"/><path fill="#000" d="m77.247 181.004 13.323 19.945-23.896 1.563-.01-.016-.009.017-.02.001 10.612-21.51Z"/><path stroke="#000" stroke-linecap="round" stroke-linejoin="round" stroke-miterlimit="10" stroke-width="2" d="m117.215 240.838-13.323-19.944-23.934 1.565-13.323-19.945m50.58 38.324-10.612 21.51 23.934-1.565 10.611-21.51m-23.933 1.565.019-.001m23.914-1.564-13.301-19.912m13.301 19.912-.077.005m-63.824-58.274 23.933-1.565 13.323 19.945 23.934-1.566 13.323 19.945-23.934 1.566.021.032m-50.6-38.357 13.323 19.945-23.896 1.563m10.573-21.508-10.612 21.51m0 0 .02-.001m2.72 41.437-13.323-19.944 10.603-21.493m2.72 41.437 10.611-21.51m-10.611 21.51 23.934-1.565 13.322 19.945 10.603-21.493M79.986 222.44l23.934-1.565 13.323 19.945-.009.017M79.986 222.44l-13.312-19.928m50.56 38.325 23.837-1.559m-74.397-36.766-.01-.016-.009.017m.02-.001-.02.001m74.416 36.765-13.301-19.912.077-.005m13.224 19.917.021.033 10.612-21.511-23.857 1.561"/></svg>
