<svg xmlns="http://www.w3.org/2000/svg" width="902" height="902" fill="none" viewBox="0 0 902 902"><rect width="902" height="902" fill="#D9D9D9" rx="451"/><path fill="#000" d="M519.906 212.643c20.46-5.688 31.872-28.905 25.489-51.857-6.382-22.952-28.143-36.947-48.603-31.259-20.46 5.688-31.872 28.905-25.489 51.857 6.383 22.952 28.143 36.947 48.603 31.259Z"/><path fill="#F2EA86" stroke="#000" stroke-miterlimit="10" stroke-width="2.377" d="M518.988 207.016c20.111-5.59 31.319-28.446 25.033-51.048-6.286-22.603-27.684-36.393-47.795-30.802-20.111 5.59-31.318 28.446-25.033 51.048 6.286 22.603 27.684 36.393 47.795 30.802Z"/><path fill="#000" d="M522.781 169.957a45.38 45.38 0 0 0 4.689-2.531c4.782-3.094 6.939-6.001 6.283-8.533-1.032-3.563-7.315-4.594-15.099-3.844.563-7.689-.562-13.878-4.22-14.815-3.657-.938-7.69 4.032-11.066 10.97-6.471-4.313-12.472-6.376-15.098-3.75-1.876 1.875-1.407 5.438 1.219 10.408.844 1.5 1.782 3 2.813 4.407a45.38 45.38 0 0 0-4.689 2.531c-4.782 3.095-6.939 6.001-6.283 8.533.469 1.688 2.157 2.813 4.689 3.469 3.47.657 6.94.844 10.41.375-.563 7.689.562 13.878 4.22 14.815 3.657.938 7.69-4.032 11.066-10.97a33.551 33.551 0 0 0 9.378 4.594c2.438.657 4.501.469 5.814-.844 1.876-1.875 1.407-5.438-1.219-10.408-.938-1.5-1.876-3-2.907-4.407Zm9.19-10.689c.469 1.594-1.594 4.032-5.533 6.564-1.5.937-3.095 1.875-4.783 2.625a100.281 100.281 0 0 0-4.22-5.063c.469-2.25.75-4.407 1.032-6.564 7.69-.75 12.848.282 13.504 2.438Zm-22.507 13.69c-1.407.375-2.72.75-4.033 1.031-1.031-.843-1.969-1.781-3.001-2.719-1.031-.937-1.969-1.969-2.813-2.907.281-1.312.563-2.625.938-3.938l1.125-3.938c1.313-.469 2.626-.844 3.939-1.219 1.407-.375 2.72-.75 4.032-1.031 1.032.844 1.97 1.781 3.001 2.719 1.032.938 1.97 1.969 2.814 2.907-.282 1.312-.563 2.625-.938 3.938l-1.125 3.938c-1.313.469-2.626.844-3.939 1.219Zm3.282.938c-.562 1.594-1.125 3.094-1.782 4.5-1.219-.843-2.532-1.875-3.845-2.906.938-.188 1.876-.469 2.814-.75l2.813-.844Zm-9.472.562c-1.688.375-3.282.563-4.782.75.187-1.5.375-3.094.656-4.782.657.657 1.313 1.313 1.97 2.063.75.657 1.406 1.313 2.156 1.969Zm-5.157-7.782c-1.126-1.219-2.064-2.438-3.001-3.657 1.406-.657 2.907-1.219 4.501-1.782-.281.938-.563 1.782-.75 2.719-.282.844-.563 1.782-.75 2.72Zm4.313-8.345c.563-1.594 1.126-3.095 1.782-4.501 1.219.844 2.532 1.875 3.845 2.907-.938.187-1.875.468-2.813.75a52.24 52.24 0 0 0-2.814.844Zm9.378-.563c1.688-.375 3.283-.563 4.783-.75-.187 1.5-.375 3.094-.656 4.782-.657-.656-1.313-1.313-1.97-2.063-.75-.656-1.406-1.313-2.157-1.969Zm5.158 7.783c1.126 1.218 2.063 2.437 3.001 3.656-1.406.657-2.907 1.219-4.501 1.782.281-.938.563-1.782.75-2.719.281-.844.563-1.782.75-2.719Zm-3.001-23.629c2.251.562 3.47 5.626 2.814 13.314a90.645 90.645 0 0 0-6.659 1.125c-1.688-1.5-3.469-2.812-5.251-4.125 3.282-6.939 6.846-10.877 9.096-10.314Zm-22.882 15.096c-2.157-4.032-2.719-7.126-1.594-8.345.75-.75 2.157-.844 4.032-.375 3.283 1.031 6.284 2.531 9.097 4.5-.844 1.969-1.688 4.032-2.344 6.189-2.251.75-4.314 1.594-6.284 2.438-1.031-1.313-1.969-2.813-2.907-4.407Zm-7.971 15.94c-.469-1.594 1.594-4.032 5.533-6.564 1.5-.937 3.095-1.875 4.783-2.625a99.839 99.839 0 0 0 4.22 5.063c-.469 2.251-.751 4.407-1.032 6.564-7.69.75-12.848-.281-13.504-2.438Zm18.006 17.347c-2.251-.563-3.47-5.626-2.814-13.315a89.593 89.593 0 0 0 6.659-1.125c1.688 1.5 3.469 2.813 5.251 4.125-3.282 6.939-6.846 10.877-9.096 10.315Zm24.382-6.751c-1.594 1.594-6.752.187-13.129-4.126.844-1.969 1.688-4.032 2.345-6.189 2.25-.75 4.313-1.594 6.283-2.438 1.031 1.407 1.969 3.001 2.907 4.501 2.251 3.938 2.813 7.033 1.594 8.252Z"/><path fill="#000" d="M510.87 165.175c.563 1.875-.563 3.75-2.438 4.312-1.876.563-3.751-.562-4.314-2.437-.563-1.875.563-3.75 2.438-4.313 1.876-.468 3.845.563 4.314 2.438ZM226.816 360.771l3.564 2.907-.187.187-3.47-2.907.093-.187ZM237.129 369.678l6.189 6.563-.281.281-6.189-6.562.281-.282ZM249.039 383.274c1.782 2.438 3.47 4.97 5.064 7.502l-.469.281c-1.594-2.532-3.188-5.063-4.97-7.501l.375-.282ZM258.512 398.746c1.313 2.719 2.532 5.532 3.564 8.345l-.751.281c-1.031-2.813-2.157-5.626-3.47-8.345l.657-.281ZM264.793 415.811a71.068 71.068 0 0 1 1.688 8.908l-.938.094c-.375-3.001-.844-5.908-1.594-8.814l.844-.188ZM267.043 433.814c0 3-.187 6.094-.562 9.095l-1.032-.094c.375-3 .563-6.001.563-9.001h1.031ZM264.982 451.911c-.657 3-1.501 5.907-2.532 8.72l-1.126-.375c.938-2.813 1.782-5.72 2.532-8.626l1.126.281ZM259.076 469.07l-2.063 4.126c-.375.656-.657 1.406-1.032 2.062l-1.125 1.969-1.126-.656 1.126-1.969c.375-.656.656-1.313 1.031-1.969l2.064-4.032 1.125.469ZM249.979 484.822c-1.782 2.438-3.658 4.876-5.627 7.127l-1.032-.938c1.97-2.25 3.845-4.595 5.627-7.032l1.032.843ZM237.975 498.606a104.169 104.169 0 0 1-6.846 6l-.938-1.125a101.468 101.468 0 0 0 6.753-5.906l1.031 1.031ZM223.909 510.045l-7.69 4.969-.844-1.406 7.596-4.782.938 1.219ZM208.249 519.422l-8.159 4.031-.656-1.5 8.065-3.938.75 1.407ZM191.839 527.204l-8.159 3.75-.75-1.5 8.252-3.844.657 1.594ZM182.363 534.799c1.407.375 2.814.469 4.314.657 1.501.094 3.001.187 4.502.187v1.688c-1.501 0-3.001-.093-4.596-.187-1.5-.094-3.094-.282-4.595-.657l.375-1.688ZM200.18 535.362l9.003-.469.093 1.782-9.003.469-.093-1.782ZM218.191 534.143l9.003-.75.188 1.782-9.003.75-.188-1.782ZM236.191 532.455l9.003-1.031.188 1.875-9.003.938-.188-1.782ZM254.195 530.392l9.003-1.031.188 1.875-9.003 1.032-.188-1.876ZM272.109 528.236l9.003-1.125.282 1.969-9.003 1.032-.282-1.876ZM290.117 525.986l9.003-1.126.188 1.876-8.909 1.125-.282-1.875ZM308.031 523.641l9.003-1.125.281 1.876-9.002 1.125-.282-1.876ZM326.035 521.297l8.909-1.125.282 1.782-9.003 1.219-.188-1.876ZM343.945 518.953l9.003-1.219.188 1.782-9.003 1.219-.188-1.782ZM361.859 516.515l9.003-1.219.188 1.782-8.909 1.219-.282-1.782ZM379.863 514.171l8.909-1.219.282 1.594-9.003 1.313-.188-1.688ZM397.777 511.827l9.003-1.219.188 1.501-9.003 1.219-.188-1.501ZM415.781 509.483l8.909-1.219.188 1.407-8.909 1.219-.188-1.407ZM433.691 507.139l9.003-1.126.188 1.313-9.003 1.219-.188-1.406ZM451.699 504.889l9.003-1.126.094 1.219-9.003 1.219-.094-1.312ZM469.609 502.732l9.003-1.032.188 1.032-9.003 1.125-.188-1.125ZM487.617 500.575l9.003-.938.094.938-8.909 1.125-.188-1.125ZM505.621 498.606l9.003-.938.094.938-9.003.938-.094-.938ZM523.629 496.825l9.097-.845v.751l-9.003.938-.094-.844ZM541.727 495.137l9.002-.751.094.844-9.096.751v-.844ZM559.734 493.824l9.097-.469v.75l-9.003.469-.094-.75ZM577.93 492.98h9.003v.657l-9.003.093v-.75ZM596.023 493.355c3.001.281 6.002.656 9.003 1.5l-.187.657c-2.814-.844-5.908-1.219-8.816-1.407v-.75ZM608.967 501.606c-.469.657-.938 1.219-1.407 1.782-.469.562-.938 1.125-1.5 1.687-1.032 1.125-2.063 2.157-3.189 3.282l-.469-.469a51.01 51.01 0 0 0 3.189-3.188c.469-.562 1.031-1.125 1.5-1.687.469-.563.938-1.219 1.407-1.782l.469.375ZM595.838 514.171a131.03 131.03 0 0 1-7.502 5.062l-.375-.562a131.049 131.049 0 0 0 7.502-5.063l.375.563ZM580.456 523.829l-8.065 4.125-.282-.656 7.972-4.125.375.656ZM564.143 531.799l-8.252 3.562-.282-.656 8.253-3.562.281.656ZM547.448 538.738l-8.44 3.281-.281-.75 8.44-3.187.281.656ZM530.475 545.114l-8.533 2.907-.282-.844 8.534-2.907.281.844ZM513.311 550.927l-8.627 2.72-.282-.938 8.628-2.72.281.938ZM496.054 556.366l-8.628 2.626-.375-1.032 8.721-2.532.282.938ZM478.706 561.523l-8.722 2.532-.281-1.126 8.722-2.438.281 1.032ZM461.265 566.492l-8.722 2.438-.281-1.125 8.721-2.438.282 1.125ZM443.819 571.368l-8.721 2.344-.375-1.313 8.815-2.25.281 1.219ZM426.378 576.057l-8.815 2.25-.282-1.313 8.722-2.25.375 1.313ZM408.839 580.651l-8.722 2.251-.375-1.407 8.722-2.251.375 1.407ZM391.308 585.245l-8.722 2.251-.375-1.5 8.721-2.251.376 1.5ZM373.769 589.746l-8.722 2.25-.469-1.594 8.815-2.25.376 1.594ZM356.229 594.247l-8.721 2.25-.469-1.594 8.815-2.25.375 1.594ZM338.788 598.841l-8.815 2.25-.469-1.688 8.815-2.343.469 1.781ZM321.253 603.436l-8.722 2.343-.562-1.875 8.815-2.25.469 1.782ZM303.714 608.124l-8.722 2.344-.469-1.875 8.722-2.344.469 1.875ZM286.272 612.906l-8.721 2.437-.563-1.968 8.816-2.344.468 1.875ZM268.827 617.782l-8.628 2.531-.562-1.875 8.627-2.531.563 1.875ZM251.479 622.939l-8.627 2.625-.657-1.969 8.722-2.625.562 1.969ZM234.222 628.283l-8.628 2.813-.656-1.969 8.627-2.813.657 1.969ZM217.065 634.003l-8.534 2.906-.75-1.968 8.534-3 .75 2.062ZM199.991 640.004c-2.813 1.125-5.533 2.25-8.159 3.657l-1.031-1.969a72.665 72.665 0 0 1 8.346-3.656l.844 1.968ZM184.799 648.443c-.187.281-.281.469-.375.656-.093.188 0 .281 0 .375.094.188.563.656 1.219.938 1.22.656 2.626 1.031 4.033 1.406l-.563 2.156c-1.5-.375-3.001-.844-4.501-1.594-.75-.468-1.594-.843-2.157-1.968a2.62 2.62 0 0 1-.094-1.875c.188-.563.469-.938.657-1.313l1.781 1.219ZM198.496 653.507l8.909 1.125-.281 2.251-9.003-1.125.375-2.251ZM216.406 655.57l9.003.656-.187 2.345-9.003-.751.187-2.25ZM234.41 656.882l9.003.563-.094 2.251-9.096-.563.187-2.251ZM252.418 657.914l9.097.375-.094 2.251-9.097-.375.094-2.251ZM270.516 658.664l9.19.375-.094 2.251-9.19-.375.094-2.251ZM288.768 659.341l-.077 2.25 9.092.311.077-2.249-9.092-.312ZM306.902 659.976l9.003.281-.094 2.251-9.002-.281.093-2.251ZM325.004 660.539l9.003.281v2.157l-9.097-.281.094-2.157ZM343.102 661.008l9.002.282v2.157l-9.096-.188.094-2.251ZM361.203 661.571l9.003.187v2.157l-9.097-.187.094-2.157ZM379.301 662.039l9.003.188v2.157l-9.097-.282.094-2.063ZM397.398 662.508l9.003.282v1.969l-9.096-.188.093-2.063ZM415.5 662.977l9.003.281v1.97l-9.097-.188.094-2.063ZM433.602 663.54l9.002.281v1.876l-9.096-.282.094-1.875ZM451.699 664.102l9.003.375v1.688l-9.097-.187.094-1.876ZM469.797 664.759l9.003.281v1.688l-9.097-.281.094-1.688ZM487.895 665.415l9.002.375v1.594l-9.096-.375.094-1.594ZM506 666.165l9.003.375-.094 1.501-9.003-.375.094-1.501ZM524.098 667.009l9.003.469-.094 1.407-9.003-.375.094-1.501ZM542.195 668.041l9.003.468-.094 1.407-9.002-.563.093-1.312ZM560.203 669.166l9.097.656-.094 1.219-9.097-.563.094-1.312ZM578.301 670.572l9.003.844-.094 1.125-9.003-.75.094-1.219ZM596.305 672.354l9.003 1.125-.094 1.031-9.003-1.031.094-1.125ZM614.313 674.791l8.909 1.688-.188.938-8.909-1.594.188-1.032ZM632.039 678.917c1.407.469 2.814 1.125 4.22 1.875.657.375 1.313.844 1.97 1.313a13.67 13.67 0 0 1 1.781 1.5l-.562.562-1.688-1.406c-.563-.469-1.219-.844-1.876-1.219-1.313-.75-2.719-1.219-4.126-1.781l.281-.844ZM643.946 691.669c.094 1.594-.187 3.094-.656 4.595-.469 1.5-1.125 2.813-1.969 4.125l-.563-.375c1.5-2.531 2.532-5.438 2.438-8.345h.75ZM635.791 707.609c-2.063 2.156-4.314 4.219-6.658 6.188l-.281-.375c2.25-1.969 4.501-4.032 6.564-6.188l.375.375ZM621.909 719.33l-7.503 5.063-.187-.282 7.502-5.156.188.375ZM606.904 729.175l-3.939 2.251-.094-.094 3.845-2.344.188.187Z"/><path fill="#5869DD" d="M480.671 759.837c-90.779-38.913-157.456-67.605-157.644-67.699-.187-.093-.469-.281-.469-.281-9.472-5.438-13.879-14.534-15.38-17.628-1.594-3.469-5.908-12.471-3.938-23.066l.187-.75c.188-.75 124.071-243.791 69.866-310.833-3.188-3.845-9.284-10.127-21.007-14.909-1.219-.094-3.188-.375-4.876-1.688-2.907-2.25-3.376-5.813-3.751-9.095-.282-2.25-.844-8.533 2.532-15.659 0 0 2.532-5.157 10.784-11.814 1.126-.844 2.626-1.969 4.596-1.876.75 0 1.406.282 1.781.375 13.223-13.502 30.291-34.88 39.388-64.979 2.063-6.658 3.47-13.127 4.501-19.128 2.063-.844 4.314-1.594 6.752-2.251 11.066-2.906 21.007-1.594 27.572 0 88.715 37.882 153.704 67.136 171.147 76.138 3.752 1.969 11.066 5.907 16.224 14.065 6.19 9.751 6.19 20.441 5.627 26.817-6.377 27.286-12.754 54.478-19.131 81.763 1.782.188 4.501.844 6.752 2.907 4.408 4.032 3.658 10.689 3.189 14.534-.375 3.657-2.345 13.877-11.254 19.315-2.907 1.782-5.72 2.532-7.596 2.907-23.445 99.673-46.796 199.252-70.241 298.925-.281 2.719-1.219 6.939-4.22 10.783-1.407 1.875-3.751 4.219-14.161 8.158-11.441 4.407-20.35 7.688-31.791 6.094-2.251-.281-4.22-.75-5.439-1.125Z"/><path fill="url(#a)" d="M474.855 757.868c-127.634-55.228-167.396-72.95-173.117-76.138-.281-.187-.469-.281-.469-.281-9.284-5.251-13.692-14.065-15.192-17.159-1.594-3.376-5.908-12.19-3.939-22.41.094-.375.094-.657.188-.75 53.829-247.917 67.99-304.082 96.218-416.507 1.031-4.126 3.563-13.502 11.628-19.128 10.597-7.314 21.945-4.22 23.445-3.751 57.112 25.129 114.224 50.258 171.429 75.294 2.532.844 12.754 4.501 19.038 15.471 5.908 10.314 4.501 20.347 4.032 23.066l-97.718 420.539c-.375 1.782-3.001 12.752-13.786 18.941-9.94 5.72-19.787 3.375-21.757 2.813Z"/><path stroke="#000" stroke-miterlimit="10" stroke-width="2.378" d="M474.855 757.868c-127.634-55.228-167.396-72.949-173.117-76.137a4.812 4.812 0 0 0-.469-.282c-9.284-5.251-13.692-14.065-15.192-17.159-1.594-3.375-5.908-12.189-3.939-22.41.094-.375.094-.656.188-.75 53.829-247.916 67.99-304.082 96.218-416.507 1.031-4.125 3.563-13.502 11.628-19.128 10.597-7.314 21.945-4.219 23.445-3.75 57.112 25.129 114.224 50.258 171.429 75.293 2.532.844 12.754 4.501 19.038 15.472 5.908 10.314 4.501 20.347 4.032 23.066l-97.718 420.539c-.375 1.781-3.001 12.752-13.786 18.94-9.941 5.72-19.787 3.376-21.757 2.813Z"/><path stroke="#000" stroke-miterlimit="10" stroke-width="2.377" d="M606.71 437.002c-29.822 127.896-69.116 296.3-71.554 304.082-.938 3.094-2.814 5.626-2.814 5.626-3.376 4.501-8.065 6.189-14.16 8.158-15.849 4.969-23.727 7.407-32.636 6.001-4.689-.751-8.346-2.063-10.691-3.001M394.484 203.245c4.689-2.532 10.222-3.376 21.288-5.064 8.065-1.219 12.285-1.875 17.256-1.313 6.377.657 11.441 2.626 14.817 4.126 79.806 36.1 138.419 62.729 160.176 71.637 3.938 1.594 14.442 5.814 21.1 16.222 6.377 10.032 6.283 21.472 5.439 28.879-4.314 18.472-10.784 46.508-18.474 79.42"/><path stroke="#000" stroke-miterlimit="10" stroke-width="2.377" d="M528.777 482.479c-53.642-24.004-107.284-47.915-160.832-71.919-.562-.187-2.626-1.125-3.845-3.469a7.841 7.841 0 0 1-.75-4.595l32.542-140.085c.093-.469.656-2.532 2.719-3.751 1.594-1.031 3.283-.938 3.751-.844 12.848 5.626 157.925 69.293 161.958 72.668 1.969 1.594 2.907 3.564 2.907 3.564s.844 1.875.938 4.031c.187 5.251-29.916 130.335-32.167 139.899-.656 3.282-3.938 5.251-7.221 4.501Z"/><path fill="#EDEAE2" stroke="#000" stroke-miterlimit="10" stroke-width="2.377" d="M529.995 478.165c-52.329-23.347-104.752-46.695-157.081-70.043-.563-.187-2.532-1.125-3.751-3.375-1.032-1.969-.844-3.845-.75-4.407l31.603-136.054c.094-.469.657-2.438 2.626-3.657 1.594-.938 3.189-.938 3.658-.844 12.472 5.439 154.267 67.511 158.206 70.793 1.875 1.501 2.813 3.47 2.813 3.47s.844 1.781.938 3.938c.188 5.063-28.978 126.583-31.229 135.866-.656 3.094-3.845 5.063-7.033 4.313Z"/><path stroke="#000" stroke-miterlimit="10" stroke-width="2.377" d="m364.66 566.774-5.908 25.035c-.281 1.031-1.313 1.688-2.251 1.406l-15.098-6.282c-.469-.469-1.125-1.219-1.407-2.25-.281-1.032 0-1.969.094-2.344a7811.711 7811.711 0 0 1 6.19-23.442c-2.251-1.125-4.596-2.156-6.846-3.282M350.879 537.425c2.063-8.626 4.032-17.347 6.096-25.973.281-1.031 1.313-1.688 2.25-1.406l15.099 6.282c.094 0 .094.094.187.094.844.468 1.22 1.781 1.126 2.813v.187c-.094.656-1.219 5.439-5.815 25.036"/><path stroke="#000" stroke-miterlimit="10" stroke-width="2.377" d="M369.918 568.93c-3.47 14.628-6.096 25.317-6.846 27.005-.094.281-.469 1.125-1.313 1.5-1.032.563-2.063.094-2.157.094-5.533-2.25-11.066-4.595-16.505-6.845-.188-.094-.75-.375-1.032-.844-.469-.844-.187-1.969 0-2.625M359.223 509.67c.187-1.031.469-1.969.656-3 .094-.188.281-.656.844-1.031.657-.469 1.407-.375 1.501-.375 5.908 2.531 11.722 5.157 17.63 7.688.282.188.938.563 1.313 1.501.281.656.281 1.312.281 1.594-2.063 8.814-4.126 17.627-6.095 26.348 2.907 1.125 16.88 6.751 18.381 7.595.281.187.562.281.562.281.563.375 1.407.938 1.97 1.875.187.282.844 1.313.75 2.532 0 .469-.094.75-.094.844-1.5 6.47-2.813 12.94-4.408 19.316 0 .187-.093.656-.468 1.031-.751.938-2.157.938-2.626.938-.563 0-1.032-.094-1.876-.282-.938-.281-2.157-.656-3.564-1.312"/><path stroke="#000" stroke-miterlimit="10" stroke-width="2.377" d="M357.914 510.14c2.626-1.219 5.158-2.345 7.784-3.564M375.445 517.454c1.97-1.032 3.939-2.157 5.908-3.189M352.66 444.41l6.19-2.251M390.922 555.241c1.969-.75 3.939-1.407 5.908-2.157M370.008 544.27c1.875-.656 3.845-1.313 5.72-1.969M329.406 527.299c2.439-1.031 4.783-2.063 7.221-3.094M357.82 593.122c1.313 1.125 2.626 2.344 3.939 3.47M346.19 558.897c-11.253-5.251-19.318-9.189-20.444-9.751-.187-.094-.75-.375-1.031-.938-.375-.656-.188-1.313-.188-1.5 1.407-5.907 2.72-11.815 4.127-17.722 0-.094.187-.75.844-1.125.656-.375 1.313-.188 1.5-.188 6.659 3.095 13.317 6.283 19.975 9.377.282-1.313.563-2.626.938-3.938"/><path stroke="#000" stroke-miterlimit="10" stroke-width="2.377" d="M371.045 539.394c-.375 1.688-.75 3.376-1.219 5.063 10.785 5.158 18.568 9.002 19.694 9.471.187.093.75.375 1.031.937.376.657.188 1.313.188 1.501-1.407 5.907-2.72 11.814-4.126 17.721 0 .094-.188.75-.844 1.126-.657.375-1.313.187-1.501.187-6.564-2.907-13.129-5.72-19.6-8.626-.281 1.125-.469 2.156-.75 3.281M348.912 399.121c-2.157-.469-3.564-2.719-3.095-4.876l32.354-139.054c.469-2.157 2.719-3.563 4.876-3.095 2.157.469 3.564 2.72 3.095 4.876l-32.354 139.055c-.469 2.25-2.72 3.656-4.876 3.094ZM377.884 461.944l-.375.938c-1.688 3.938-6.283 5.719-10.222 4.031l-16.036-6.938c-3.939-1.688-5.721-6.282-4.033-10.221l.375-.937c1.688-3.938 6.284-5.72 10.222-4.032l16.037 6.938c3.938 1.688 5.72 6.283 4.032 10.221Z"/><path stroke="#000" stroke-miterlimit="10" stroke-width="2.377" d="M349.848 445.816c.375-.656 1.5-2.625 3.845-3.563 1.313-.562 2.532-.562 2.813-.562.938 0 1.876.187 2.813.656a1372.3 1372.3 0 0 1 17.35 7.408c.937.468 3.376 1.781 4.782 4.594.844 1.782.938 3.282 1.032 3.657 0 .656 0 1.781-.375 3.282-.469 1.5-1.97 6.938-5.814 7.782-1.876.469-4.033-.375-5.627-.937a10.952 10.952 0 0 1-2.063-.938M450.004 487.73l6.189-2.251M475.232 505.17l-.375.937c-1.688 3.938-6.283 5.72-10.222 4.032l-16.037-6.939c-3.938-1.687-5.72-6.282-4.032-10.22l.375-.938c1.688-3.938 6.283-5.719 10.222-4.032l16.036 6.939c3.939 1.688 5.721 6.376 4.033 10.221Z"/><path stroke="#000" stroke-miterlimit="10" stroke-width="2.377" d="M447.188 489.135c.375-.656 1.5-2.625 3.844-3.563 1.313-.562 2.533-.562 2.814-.562a6.17 6.17 0 0 1 2.813.656 1365.975 1365.975 0 0 1 17.349 7.408c.938.468 3.377 1.781 4.783 4.594.844 1.782.938 3.282 1.032 3.657 0 .656 0 1.782-.375 3.282-.469 1.5-1.97 6.938-5.815 7.782-1.875.469-4.032-.375-5.626-.937a10.996 10.996 0 0 1-2.064-.938M500.176 509.577l6.189-2.251M525.31 527.111l-.375.937c-1.688 3.938-6.283 5.72-10.222 4.032l-16.036-6.938c-3.939-1.688-5.721-6.283-4.033-10.221l.375-.938c1.688-3.938 6.283-5.719 10.222-4.031l16.036 6.938c3.939 1.688 5.721 6.283 4.033 10.221Z"/><path stroke="#000" stroke-miterlimit="10" stroke-width="2.377" d="M497.266 510.983c.375-.656 1.5-2.625 3.845-3.563 1.313-.563 2.532-.563 2.813-.563.938 0 1.876.188 2.813.657a1386.97 1386.97 0 0 1 17.35 7.407c.937.469 3.376 1.782 4.782 4.595.844 1.781.938 3.282 1.032 3.657 0 .656 0 1.781-.375 3.281-.469 1.501-1.97 6.939-5.815 7.783-1.875.469-4.032-.375-5.626-.938a10.895 10.895 0 0 1-2.063-.937M547.72 488.198c-2.157-.468-3.563-2.719-3.095-4.875l32.354-139.055c.469-2.156 2.72-3.563 4.877-3.094 2.157.469 3.564 2.719 3.095 4.876l-32.354 139.054c-.469 2.251-2.72 3.657-4.877 3.094Z"/><path fill="#000" d="M579.698 341.643c.562-.188 1.406-.563 2.532-.563.375 0 .844-.094 1.5.094 1.125.187 2.626.938 3.47 2.344 1.219 1.875.75 3.751.656 4.126-24.851 108.111-31.416 135.772-31.978 137.46l-.188.375c-.469 1.125-1.407 2.157-2.532 2.813-.469.281-1.969 1.125-3.845.938-.657-.094-1.219-.282-1.501-.375.845 0 1.876-.188 2.72-.75 1.501-1.032 1.782-3.001 1.876-3.376.75-4.219 30.384-118.614 32.072-138.023.094-.75.188-2.344-.844-3.469-.937-1.407-2.532-1.594-3.938-1.594ZM381.639 251.628c.563-.188 1.5-.563 2.532-.563.375 0 .844-.094 1.501.094 1.125.187 2.625.937 3.469 2.344 1.219 1.875.751 3.75.657 4.126-24.852 108.111-31.416 135.772-31.979 137.46l-.188.375c-.469 1.125-1.406 2.157-2.532 2.813-.469.281-1.969 1.125-3.845.938-.656-.094-1.219-.282-1.5-.375.844 0 1.875-.188 2.72-.751 1.5-1.031 1.781-3 1.875-3.375.563-3.094 13.786-59.823 32.073-138.023.094-.188.375-2.063-.844-3.469-.844-1.313-2.345-1.876-3.939-1.594Z"/><path stroke="#000" stroke-miterlimit="10" stroke-width="2.377" d="M479.918 609.718c.375 6.657 5.627 14.815 11.816 13.971 4.971-.656 8.44-6.938 9.097-11.908 1.031-7.314-3.282-15.003-8.722-16.128-1.313-.281-3.845-.469-6.377 1.032-1.969 1.219-3.094 2.906-3.751 3.938 0 .281-2.344 4.219-2.063 9.095ZM498.487 594.904c-2.626.094-5.158.281-7.784.375"/><path stroke="#000" stroke-miterlimit="10" stroke-width="2.377" d="M498.955 623.502c-2.438 0-4.782.094-7.221.094"/><path stroke="#000" stroke-miterlimit="10" stroke-width="2.377" d="M485.355 596.873c2.157-2.157 4.783-3.657 7.597-3.657 7.69-.094 14.16 10.127 13.035 18.847-.844 5.907-5.345 12.658-11.16 13.127-2.157.188-4.314-.563-6.377-1.875M461.82 565.93c.375 6.657 5.627 14.815 11.817 13.971 4.97-.657 8.44-6.939 9.096-11.908 1.032-7.314-3.282-15.003-8.721-16.128-1.313-.281-3.845-.469-6.377 1.031-1.97 1.219-3.095 2.907-3.752 3.938 0 .282-2.344 4.22-2.063 9.096ZM480.389 551.209c-2.626.094-5.158.281-7.784.375"/><path stroke="#000" stroke-miterlimit="10" stroke-width="2.377" d="M480.858 579.807c-2.439 0-4.783.094-7.221.094"/><path stroke="#000" stroke-miterlimit="10" stroke-width="2.377" d="M467.258 553.084c2.157-2.157 4.783-3.657 7.596-3.657 7.69-.094 14.161 10.127 13.035 18.847-.844 5.907-5.345 12.658-11.159 13.127-2.157.188-4.314-.563-6.377-1.875M389.89 470.758c.376 4.219 3.939 9.376 8.066 8.908 3.282-.376 5.533-4.314 6.001-7.408.657-4.594-2.344-9.47-6.001-10.314-.844-.188-2.626-.281-4.221.562a6.605 6.605 0 0 0-2.438 2.438c-.187.282-1.688 2.813-1.407 5.814Z"/><path stroke="#000" stroke-miterlimit="10" stroke-width="2.377" d="M402.177 461.663c-1.688.094-3.469.094-5.157.187M402.736 479.759h-4.783"/><path stroke="#000" stroke-miterlimit="10" stroke-width="2.377" d="M393.363 462.788c1.407-1.313 3.189-2.251 5.064-2.251 5.158 0 9.566 6.564 8.909 12.002-.468 3.751-3.469 7.877-7.408 8.158-1.501.094-2.907-.375-4.22-1.219M428.34 586.464c.375 6.658 5.627 14.815 11.816 13.972 4.97-.657 8.44-6.939 9.097-11.909 1.031-7.313-3.283-15.002-8.722-16.127-1.313-.282-3.845-.469-6.377 1.031-1.969 1.219-3.095 2.907-3.751 3.938 0 .281-2.344 4.22-2.063 9.095ZM446.909 571.649c-2.626.094-5.158.282-7.784.375"/><path stroke="#000" stroke-miterlimit="10" stroke-width="2.377" d="M447.377 600.248c-2.438 0-4.782.094-7.221.094"/><path stroke="#000" stroke-miterlimit="10" stroke-width="2.377" d="M433.777 573.619c2.157-2.157 4.783-3.657 7.597-3.657 7.689-.094 14.16 10.126 13.035 18.847-.844 5.907-5.346 12.658-11.16 13.127-2.157.187-4.314-.563-6.377-1.875M447 629.784c.375 6.658 5.627 14.815 11.816 13.971 4.971-.656 8.44-6.938 9.097-11.908 1.031-7.314-3.282-15.002-8.722-16.128-1.313-.281-3.845-.468-6.377 1.032-1.969 1.219-3.094 2.907-3.751 3.938 0 .281-2.344 4.219-2.063 9.095ZM465.573 615.063c-2.626.094-5.158.281-7.784.375"/><path stroke="#000" stroke-miterlimit="10" stroke-width="2.377" d="M466.041 643.662c-2.438 0-4.782.093-7.221.093"/><path stroke="#000" stroke-miterlimit="10" stroke-width="2.377" d="M452.441 616.938c2.157-2.156 4.783-3.656 7.597-3.656 7.689-.094 14.16 10.126 13.035 18.847-.844 5.907-5.346 12.658-11.16 13.127-2.157.187-4.314-.563-6.377-1.876M352.383 531.33c-.657-.281-15.849-7.313-18.288-8.157-.187-.094-.656-.188-1.219-.188-1.219.094-2.157 1.032-2.719 1.875l-.282.563c-.375.75-.75 2.063-1.219 3.938M605.209 415.623c-2.344 6.376-2.157 15.284 1.407 16.878 2.532 1.125 6.939-1.969 9.003-4.125.844-.938 1.594-1.97 1.969-2.438.094-.188 1.969-2.72 3.001-5.439 1.5-3.75 3.47-12.096-.563-15.752-.375-.375-1.031-.938-2.063-1.126-4.408-1.219-10.409 5.626-12.754 12.002Z"/><path stroke="#000" stroke-miterlimit="10" stroke-width="2.377" d="M601.74 414.404c-3.095 8.158-2.72 19.879 2.438 22.223 3.657 1.594 9.378-1.501 12.004-3.751 2.063-1.688 3.939-4.407 4.032-4.501.375-.468 1.22-1.781 2.157-3.657 0 0 1.126-2.25 1.782-4.594.469-1.5 4.408-14.534-1.782-19.878-.562-.469-1.5-1.219-2.907-1.594-6.377-1.501-14.536 7.407-17.724 15.752Z"/><path stroke="#000" stroke-miterlimit="10" stroke-width="2.377" d="M620.215 398.933a126.75 126.75 0 0 0-7.409-3.188c-3.47-1.406-5.345-2.062-7.784-2.531h-.093s-.938-.188-1.97 0c-3.563.562-6.377 3.188-6.377 3.188-2.157 1.875-7.408 7.595-9.472 17.628-.844 4.125-2.157 10.689 1.501 15.19.469.562.844.937 1.219 1.219.938.75 1.688 1.125 2.157 1.312 1.407.657 6.002 2.532 12.285 4.876M353.599 325.14c-2.251-.657-3.939-1.219-4.408-1.313-.093 0-.468-.094-.844-.375l-.187-.188c-5.439-4.876-4.783-15.19-2.814-21.566 3.939-13.127 15.287-17.065 15.474-17.065h.75c.563.094 1.219.281 1.782.375"/><path fill="#000" d="M372.821 530.393c-.375 1.031-.75 2.063-.75 3.188v1.312c0 1.126-.469 2.157-.75 3.282-.657 2.063-.844 4.22-1.032 6.47.563.281 1.219-.094 1.782-.375.75-.469 1.407-.844 2.157-1.313.375-.281.844-.562 1.125-.937.375-.375.563-.844.75-1.313 2.251-5.626 3.376-11.627 4.408-17.628.375-2.157.75-4.219 1.125-6.376.094-.656.094-1.5-.468-1.688-.938-.375-3.189 1.219-3.939 1.875-.938.844-1.407 2.063-1.876 3.188-1.219 3.189-1.594 6.845-2.532 10.315ZM388.763 565.742s-.75 1.313-.75 2.438v1.032c0 .844-.751 2.531-.751 2.531-1.031 2.157-.75 4.876-.187 5.064.187.094.375-.281.844-.281.375 0 .563.187.938.375.656.187 1.219.093 1.688 0 0 0 .844-.188 1.688-.844 2.25-1.876 1.219-10.877 4.22-16.128.187-.281 1.407-2.438 1.125-4.97-.094-.937-.281-1.219-.469-1.406-1.125-.938-4.314.375-5.908 2.625-.469.563-.562 1.126-.938 2.157-1.406 3.844-.562 5.626-1.5 7.407ZM361.571 581.401c-.375 1.031-.75 2.063-.75 3.188v1.313c0 1.219-.75 3.281-.75 3.281-.375 1.032-.938 2.532-1.501 4.689.469.656 2.72 3.75 3.845 3.282.375-.188.563-.751.938-1.782.375-1.125.281-1.5.657-2.438.281-.75.562-1.125.75-1.313 1.688-2.625 2.157-10.408 4.407-17.628.469-1.594 1.126-3.281.282-4.407-.938-1.219-3.564-1.781-3.564-1.781s-1.5 2.25-1.875 3.188c-1.126 3.282-1.595 6.939-2.439 10.408ZM605.582 431.751c.75.375 1.97.844 3.376.844 4.127 0 7.034-3.938 8.816-6.47 0 0 5.345-7.313 4.22-16.127-.188-1.688-.938-2.907-.938-2.907a11.328 11.328 0 0 0-1.594-2.063c-.188 0-.376 0-.657-.094.188 1.032 2.345 12.565-5.439 19.879-2.907 2.719-6.096 3.938-8.253 4.5.188.751.375 1.594.469 2.438ZM449.725 584.683c-.937.562-.469 2.156-.844 4.876 0 0 .188 1.219-.844 3.469-1.594 3.469-5.626 5.532-6.752 9.095 3.658-.375 6.377-1.594 7.69-2.813.844-.75 1.407-1.594 1.407-1.594.469-.75.844-1.5 1.313-2.344.562-1.031 1.313-1.969 1.875-3 1.595-3.095 2.251-7.408.938-8.158-.469-.281-.75.187-2.438.375-1.594.188-1.876-.188-2.345.094ZM482.733 564.242c-.844.656-.282 2.157-.375 4.876 0 0 .281 1.219-.563 3.563-1.219 3.657-5.064 6.001-5.908 9.658 3.563-.657 6.189-2.157 7.408-3.47a13.48 13.48 0 0 0 1.313-1.781c.469-.75.75-1.594 1.032-2.438.469-1.032 1.125-2.063 1.594-3.094 1.313-3.188 1.594-7.595.188-8.158-.469-.187-.751.281-2.439.563-1.406.281-1.781 0-2.25.281ZM500.928 608.406c-.844.562-.375 2.063-.656 4.782 0 0 .187 1.219-.75 3.469-1.407 3.469-5.44 5.532-6.471 9.095 3.563-.468 6.377-1.687 7.596-2.906.75-.751 1.407-1.594 1.407-1.594.469-.751.75-1.501 1.219-2.251.562-1.031 1.219-1.875 1.782-2.907 1.5-3.094 1.969-7.313.656-7.97-.469-.281-.75.282-2.438.375-1.594 0-1.876-.375-2.345-.093ZM468.292 629.316c-.938.469-.563 2.063-1.125 4.688 0 0 .093 1.219-1.032 3.376-1.688 3.281-5.908 5.063-7.221 8.532 3.657-.187 6.471-1.125 7.878-2.25.844-.657 1.5-1.5 1.5-1.5.563-.657.938-1.407 1.407-2.157.656-.938 1.406-1.782 1.969-2.813 1.782-2.907 2.626-7.126 1.313-7.876-.469-.282-.75.187-2.438.187-1.501-.094-1.782-.469-2.251-.187ZM373.39 469.445c.281.187.75.281 1.125.375 1.032.188 2.157.375 3.095 0 .469-.188.844-.563 1.219-.938.938-.844 1.782-1.687 2.345-2.719a6.205 6.205 0 0 0 .562-1.875c.657-2.626 1.126-5.439.094-7.876-.187-.469-.562-.844-.938-.844-.281 0-.468.187-.656.281a3.189 3.189 0 0 1-1.876.281c.282 1.125.469 2.251.469 3.376-.093 2.719-1.782 5.063-3.657 7.032-.75.563-3.189 1.969-1.782 2.907ZM469.326 512.108c.281.281.656.469 1.031.563.938.375 1.97.843 3.001.562.469-.094.938-.375 1.313-.656 1.032-.657 2.063-1.219 2.814-2.251.375-.562.656-1.125.938-1.687 1.125-2.438 2.156-5.064 1.594-7.689-.094-.469-.375-.938-.75-1.032-.282 0-.469.094-.751.188-.562.188-1.313.188-1.875-.094 0 1.125.093 2.251-.188 3.376-.563 2.625-2.719 4.688-4.97 6.188-.75.563-3.376 1.313-2.157 2.532ZM519.214 534.143c.281.281.656.375 1.031.563.938.375 2.063.75 3.001.468.469-.093.938-.375 1.313-.656 1.032-.656 2.063-1.313 2.72-2.344a7.122 7.122 0 0 0 .844-1.688c1.031-2.438 1.969-5.157 1.313-7.782-.094-.469-.375-.938-.844-1.032-.282 0-.469.094-.751.188a3.203 3.203 0 0 1-1.875 0c.094 1.125.187 2.25-.094 3.375-.469 2.626-2.532 4.782-4.689 6.376-.563.469-3.188 1.407-1.969 2.532Z"/><path fill="#F2EA86" stroke="#000" stroke-miterlimit="10" stroke-width="2.377" d="M455.035 342.047c17.283-2.435 28.453-24.569 24.949-49.439-3.504-24.87-20.356-43.057-37.639-40.623-17.283 2.435-28.454 24.569-24.949 49.439 3.504 24.87 20.355 43.057 37.639 40.623Z"/><path fill="#000" d="M430.035 257.816c3.658-3.375 9.097-7.126 15.943-7.876 18.568-2.063 38.262 18.847 41.544 40.694 3.001 19.41-7.127 39.1-21.194 48.102-2.251 1.406-4.314 2.438-5.814 3-.282 0-.563-.093-.844-.093-.282-.094-.563-.282-.845-.375a36.122 36.122 0 0 0 7.878-4.876c6.283-5.064 9.19-10.971 10.503-13.596 7.596-15.659 2.814-32.631 1.219-38.257-1.5-5.251-4.22-14.533-12.378-22.878-3.001-3.095-6.846-6.939-12.942-8.627-11.16-3.188-21.007 3.282-23.07 4.782Z"/><path fill="#000" d="M444.48 269.536c-3.751 9.564-7.409 19.129-11.16 28.786 5.721 3.095 11.535 6.095 17.256 9.189 4.501-4.125 9.003-8.251 13.504-12.283-6.471-8.626-13.035-17.159-19.6-25.692Z"/><path fill="#000" d="M435.102 302.073c5.439 7.22 10.784 14.44 16.223 21.66 3.658-7.876 7.315-15.846 10.973-23.723l-11.254 10.408c-5.345-2.719-10.597-5.532-15.942-8.345Z"/><path fill="#F2EA86" stroke="#000" stroke-miterlimit="10" stroke-width="2.377" d="M516.133 416.308c17.407-16.938 21.972-40.476 10.197-52.573-11.776-12.098-35.432-8.174-52.839 8.764-17.407 16.938-21.973 40.476-10.197 52.573 11.775 12.098 35.432 8.174 52.839-8.764Z"/><path fill="#000" d="M514.719 357.489c2.719.468 9.565 2.062 15.286 7.97 5.533 5.719 6.846 12.283 7.314 15.19 3.752 20.722-15.473 38.631-16.505 39.569-12.754 11.533-32.541 17.909-48.484 11.72-2.438-.937-4.408-2.062-5.627-2.813-.187-.281-.281-.468-.469-.75-.093-.281-.093-.562-.187-.844 1.969 1.032 4.689 2.438 8.252 3.376 7.597 1.969 13.786.938 16.599.375 16.506-3 27.009-16.503 30.479-20.91 3.282-4.125 8.909-11.627 10.785-22.691.656-4.032 1.5-9.283-.657-15.096-3.845-10.408-14.536-14.346-16.786-15.096Z"/><path fill="#000" d="M505.805 401.652c2.25-.375 4.501-1.406 6.283-3.188 4.22-4.219 4.501-10.877.938-15.378l4.126-4.125-3.657-3.751-4.127 4.032-2.532-2.532 4.127-4.031-3.658-3.751-4.126 4.032-6.283-6.376-4.689 4.594 4.407 4.407-18.943 18.753-4.408-4.407-4.689 4.595 6.283 6.376-4.126 4.032 3.658 3.751 4.126-4.032 2.532 2.531-4.126 4.032 3.657 3.751 4.126-4.032 1.595 1.594c4.501 4.501 11.816 4.594 16.317.094 3.095-3.001 4.127-7.127 3.189-10.971Zm1.594-14.909a5.038 5.038 0 0 1 0 7.127 5.038 5.038 0 0 1-7.127 0l-6.284-6.283 7.128-7.032 6.283 6.188Zm-16.411 21.191-8.722-8.814 7.127-7.032 6.284 6.282 2.438 2.438a5.037 5.037 0 0 1 0 7.126 5.038 5.038 0 0 1-7.127 0Z"/><path fill="#F2EA86" stroke="#000" stroke-miterlimit="10" stroke-width="2.377" d="M648 173.17c17.958-14.936 24.112-37.145 13.745-49.607-10.367-12.461-33.329-10.455-51.287 4.48-17.959 14.936-24.112 37.146-13.745 49.607 10.367 12.461 33.329 10.455 51.287-4.48Z"/><path fill="#000" d="M651.1 116.757c2.439.468 7.128 1.687 11.348 5.438 0 0 4.407 4.407 6.752 10.689 1.969 5.157 1.219 19.035-7.409 32.537-2.063 3.188-14.254 22.316-36.949 25.223-6.658.844-19.881 2.532-28.415-6.751-10.41-11.252-4.783-28.505-4.502-29.349-.469 4.407-.656 12.752 4.033 20.816 1.031 1.875 2.251 3.469 3.376 4.876 1.782 1.219 4.314 2.625 7.69 3.844 7.127 2.438 13.129 1.876 15.849 1.594 16.036-1.687 27.102-13.783 30.759-17.721 3.47-3.751 9.472-10.408 12.004-20.91.938-3.845 2.157-8.72.469-14.44-3.001-10.314-12.848-14.909-15.005-15.846Z"/><path fill="#000" d="M653.915 144.23v-.094l-.094-.094c-2.907-3-5.815-5.907-8.722-8.907-.093-.094-.187-.094-.375-.094-9.753-.094-19.412-.094-29.165-.188-.188 0-.282 0-.282.282 0 2.906 0 5.719-.093 8.626 0 .188.093.281.281.281l38.168.282c.094-.188.188-.094.282-.094ZM624.28 158.389V157.732c.094-.094.188 0 .282 0 5.157 0 10.222.094 15.379.094h.282l-.094-.094c-2.907-3-5.814-5.907-8.722-8.908-.093-.093-.187-.093-.375-.093H624.186c-2.907 0-5.814 0-8.627-.094-.188 0-.282.094-.282.281 0 2.907 0 5.72-.093 8.627V164.483c0 .094.093.188.187.282 2.907 2.906 5.814 5.907 8.722 8.907 0 0 .093.094.187.094v-.187c-.094-5.251 0-10.221 0-15.19ZM664.766 619.56l19.712-14.43-2.642-24.283-19.713 14.43 2.643 24.283Z"/><path stroke="#000" stroke-linecap="round" stroke-linejoin="round" stroke-miterlimit="10" stroke-width="2" d="m639.739 585.426 2.643 24.284 22.355 9.854-2.643-24.284m-22.355-9.854 22.355 9.854m-22.355-9.854 19.713-14.43 22.355 9.854-19.713 14.43m2.672 24.28 19.712-14.43-2.642-24.283-19.713 14.43 2.643 24.283Z"/><path fill="#000" d="m611.618 701.413-17.178 17.188 18.921 70.504 34.385-34.405-6.304-23.493-17.185 17.194-.004-.015-.023.023-12.612-46.996Z"/><path fill="#F1EFED" d="m611.648 701.384-23.517-6.292-17.207 17.216 23.495 6.286 17.193-17.203.006.022.03-.029ZM553.689 729.531l23.515 6.291-6.309-23.507-17.206 17.216ZM641.465 731.184l-23.516-6.291 6.304 23.493 17.184-17.194.005.015.023-.023Z"/><path fill="#F1EFED" d="m594.44 718.601-2.716-.727-20.829-5.559 6.309 23.507v.002l-23.517-6.292 6.309 23.507 23.516 6.292 6.337 23.503 23.497 6.286.015-.015-18.921-70.504Z"/><path fill="#000" d="m570.923 712.309-.707-.707a1 1 0 0 0 .449 1.673l.258-.966Zm40.725-10.925.707.706a1 1 0 0 0-.449-1.672l-.258.966Zm-23.517-6.292.259-.966a1.002 1.002 0 0 0-.966.259l.707.707Zm6.308 23.507.966-.259a.998.998 0 0 0-.707-.707l-.259.966Zm18.927 70.526-.258.966a1 1 0 0 0 1.224-1.225l-.966.259Zm-23.517-6.291-.965.26a.998.998 0 0 0 .706.705l.259-.965Zm-18.668-71.493a1 1 0 0 0-.517 1.932l.517-1.932Zm-17.494 18.189.258-.966a1.001 1.001 0 0 0-1.224 1.226l.966-.26Zm6.309 23.509-.966.259a.998.998 0 0 0 .707.707l.259-.966Zm23.516 6.292.966-.261a1 1 0 0 0-.707-.705l-.259.966Zm-29.825-29.799-.707-.706a.998.998 0 0 0-.259.965l.966-.259Zm17.208-17.217.258-.966a.998.998 0 0 0-.965.259l.707.707Zm6.309 23.509-.258.966a.999.999 0 0 0 1.224-1.226l-.966.26Zm36.127 53.311-.259.965a1 1 0 0 0 .966-.258l-.707-.707Zm34.415-34.435.708.707a1 1 0 0 0 .258-.966l-.966.259Zm-6.309-23.508.966-.26a.998.998 0 0 0-1.673-.447l.707.707Zm-17.207 17.217-.966.259a1.001 1.001 0 0 0 1.674.447l-.708-.706Zm-12.618-47.018.966-.259a1 1 0 0 0-1.673-.448l.707.707Zm29.853 29.793.707.707a1 1 0 0 0-.449-1.673l-.258.966Zm-23.516-6.291.258-.966a.998.998 0 0 0-1.224 1.225l.966-.259Zm6.308 23.508-.965.259a.998.998 0 0 0 1.673.448l-.708-.707Zm-12.351-47.983-23.516-6.292-.517 1.932 23.517 6.292.516-1.932Zm-59.185 29.372 6.309 23.508 1.932-.518-6.309-23.509-1.932.519Zm7.016 24.215 23.517 6.292.517-1.932-23.517-6.292-.517 1.932Zm10.192-41.431 6.309 23.509 1.932-.519-6.309-23.508-1.932.518Zm7.533 22.284-23.516-6.292-.517 1.932 23.517 6.292.516-1.932Zm64.261-4.64-23.516-6.291-.517 1.932 23.516 6.291.517-1.932Zm-59.176 29.373 6.337 23.503 1.931-.521-6.337-23.503-1.931.521Zm28.364-58.885-17.178 17.188 1.414 1.414 17.179-17.188-1.415-1.414Zm-17.437 18.154 18.921 70.504 1.931-.518-18.92-70.504-1.932.518Zm20.594 70.952 34.386-34.405-1.415-1.414-34.386 34.405 1.415 1.414Zm34.644-35.371-6.305-23.493-1.931.519 6.304 23.492 1.932-.518Zm-7.978-23.94-17.184 17.193 1.415 1.414 17.184-17.194-1.415-1.413Zm-15.511 17.641-.004-.016-1.932.519.005.015 1.931-.518Zm-1.677-.463-.023.023 1.415 1.413.023-.023-1.415-1.413Zm1.65.47-12.612-46.995-1.931.518 12.611 46.996 1.932-.519Zm-8.213-22.997 6.304 23.493 1.932-.519-6.305-23.492-1.931.518Zm25.166 6.762.023-.023-1.415-1.414-.023.024 1.415 1.413Zm.258-.966-.004-.016-1.932.519.005.016 1.931-.519Zm-1.677-.463-17.184 17.194 1.415 1.413 17.184-17.193-1.415-1.414Zm-47.256-11.627 18.921 70.506 1.931-.518-18.921-70.506-1.931.518Zm18.921 70.506.005.02 1.932-.518-.006-.02-1.931.518Zm.189-88.21-.006-.022-1.931.518.006.022 1.931-.518Zm-.258.966.029-.03-1.414-1.413-.03.029 1.415 1.414Zm-24.902-7.735-17.207 17.216 1.415 1.414 17.206-17.216-1.414-1.414Zm-16.758 18.889 23.495 6.286.517-1.932-23.495-6.286-.517 1.932Zm24.461 6.026 17.193-17.202-1.415-1.414-17.193 17.203 1.415 1.413Zm-24.463-6.027.002.001.517-1.932-.002-.001-.517 1.932Zm23.497 6.287.02.005.517-1.932-.02-.005-.517 1.932Zm-23.944-7.959-.001.001 1.414 1.415.001-.002-1.414-1.414Zm-16.787 18.896 23.515 6.291.517-1.932-23.515-6.291-.517 1.932Zm24.739 5.066-6.308-23.507-1.932.518 6.309 23.507 1.931-.518Zm-7.981-23.955-17.207 17.216 1.415 1.414 17.207-17.216-1.415-1.414Zm-15.793 18.631.001-.002-1.415-1.413-.001.002 1.415 1.413Zm-.449-1.674-.001-.001-.516 1.933h.002l.515-1.932Zm23.516 6.291-23.517-6.292-.517 1.932 23.517 6.292.517-1.932Zm12.128 48.943 23.482 6.301.518-1.931-23.482-6.301-.518 1.931Zm5.108-66.164-2.715-.727-.517 1.932 2.716.727.516-1.932Zm-2.716-.727-20.829-5.559-.516 1.932 20.829 5.559.516-1.932Zm-15.744 19.173v.002l1.932-.519-.001-.001-1.931.518Zm-23.517-6.29 6.309 23.507 1.932-.518-6.309-23.507-1.932.518Zm36.87 54.009 23.496 6.286.517-1.932-23.496-6.286-.517 1.932Zm24.462 6.027.015-.015-1.415-1.414-.015.015 1.415 1.414Zm-.429-1.668-.02-.005-.516 1.932.02.005.516-1.932Zm.414 1.683.015-.015-1.414-1.414-.015.015 1.414 1.414Zm-22.572-71.002 2.695.72.516-1.933-2.695-.719-.516 1.932Zm-20.801-5.565 20.801 5.565.517-1.932-20.801-5.565-.517 1.932ZM195.01 360.666l22.414-5.048 13.667-43.865-22.413 5.049-13.668 43.864Z"/><path fill="#F1EFED" d="m161.933 266.136 46.729 50.64-.004.014 22.413-5.049-46.738-50.65-22.4 5.045ZM161.919 266.139l-6.83 21.919 31.152 33.785-6.834 21.932 15.58 16.884 13.667-43.864-15.286-16.575-31.449-34.081Z"/><path fill="#000" d="m155.089 288.058-.954-.298a.997.997 0 0 0 .219.975l.735-.677Zm6.834-21.932.735-.679a1.001 1.001 0 0 0-1.689.381l.954.298Zm46.739 50.65.955.297a1 1 0 0 0-.22-.975l-.735.678Zm-7.788 21.634a1 1 0 1 0 1.909.595l-1.909-.595Zm-7.064-39.177a1 1 0 0 0-1.47 1.356l1.47-1.356Zm-14.403 44.542-.955-.297c-.106.341-.022.713.22.976l.735-.679Zm15.58 16.884-.735.678a.998.998 0 0 0 1.689-.381l-.954-.297Zm13.667-43.864.955.297a1 1 0 0 0-.219-.975l-.736.678Zm-13.644 43.871-.955-.297a1 1 0 0 0 1.175 1.273l-.22-.976Zm22.414-5.048.219.975a.998.998 0 0 0 .735-.678l-.954-.297Zm13.667-43.865.955.298a1 1 0 0 0-1.174-1.273l.219.975Zm-22.413 5.049-.22-.975a1 1 0 0 0-.735.678l.955.297Zm22.393-5.061.22.976a1.001 1.001 0 0 0 .515-1.654l-.735.678Zm-46.738-50.65.735-.678a1.002 1.002 0 0 0-.955-.298l.22.976Zm-22.414 5.048-.22-.975a1.001 1.001 0 0 0-.735.678l.955.297Zm46.739 50.651-.735.678a1 1 0 0 0 .955.297l-.22-.975Zm-22.417 5.053.955.298a1 1 0 0 0-.22-.975l-.735.677Zm-30.197-33.488 6.834-21.932-1.909-.595-6.834 21.932 1.909.595Zm51.663 28.123-6.833 21.932 1.909.595 6.834-21.932-1.91-.595Zm-29.035 27.976 15.58 16.883 1.47-1.356-15.58-16.884-1.47 1.357Zm17.269 16.502 13.668-43.864-1.909-.595-13.668 43.864 1.909.595Zm13.448-44.839-15.579-16.884-1.47 1.356 15.579 16.884 1.47-1.356Zm-14.159 45.525 22.413-5.049-.439-1.951-22.414 5.049.44 1.951Zm23.148-5.727 13.668-43.864-1.909-.595-13.668 43.864 1.909.595Zm12.494-45.137-22.414 5.049.44 1.951 22.413-5.049-.439-1.951Zm-23.149 5.727-13.668 43.864 1.91.595 13.668-43.864-1.91-.595Zm24.083-5.442-46.738-50.65-1.47 1.356 46.738 50.65 1.47-1.356Zm-22.928 6.702 22.413-5.048-.439-1.952-22.414 5.049.44 1.951Zm-23.592 3.781-6.834 21.932 1.91.595 6.834-21.932-1.91-.595Zm-30.932-32.811 31.152 33.786 1.47-1.355-31.151-33.786-1.471 1.355Zm6.844-21.921 46.729 50.64 1.47-1.356-46.729-50.64-1.47 1.356Zm46.509 49.665-.004.014 1.91.594.004-.014-1.91-.594Zm-23.594-56.364-22.4 5.046.44 1.951 22.399-5.046-.439-1.951Zm-22.4 5.046-.014.003.44 1.951.014-.003-.44-1.951Zm-.525 1.643.01.01 1.47-1.356-.01-.011-1.47 1.357Zm-.224-.962-6.829 21.918 1.909.595 6.83-21.918-1.91-.595Zm48.426 50.275-15.287-16.575-1.47 1.356 15.286 16.575 1.471-1.356Zm-15.287-16.575-31.449-34.081-1.47 1.357 31.449 34.08 1.47-1.356Zm-32.915-32.738 31.445 34.094 1.47-1.356-31.445-34.094-1.47 1.356Zm31.445 34.094 15.29 16.57 1.47-1.356-15.29-16.57-1.47 1.356Z"/><defs><linearGradient id="a" x1="210.4" x2="629.388" y1="593.653" y2="389.596" gradientUnits="userSpaceOnUse"><stop stop-color="#D6FFBB"/><stop offset="1" stop-color="#5869DD"/></linearGradient></defs></svg>
