<svg xmlns="http://www.w3.org/2000/svg" width="10" height="13" fill="none" viewBox="0 0 10 13"><path fill="#fff" d="M3.348 8.86c0-.552.108-1.014.324-1.386.228-.372.498-.666.81-.882.312-.216.726-.462 1.242-.738.624-.312 1.092-.606 1.404-.882.312-.288.468-.678.468-1.17 0-.66-.276-1.134-.828-1.422-.552-.288-1.194-.432-1.926-.432-.696 0-1.308.156-1.836.468-.516.3-.846.768-.99 1.404H.18c.108-.768.39-1.422.846-1.962A4.456 4.456 0 0 1 2.754.634 5.765 5.765 0 0 1 4.932.22c.744 0 1.452.126 2.124.378a3.82 3.82 0 0 1 1.674 1.17c.444.516.666 1.152.666 1.908 0 .612-.12 1.128-.36 1.548-.24.408-.528.732-.864.972-.336.24-.774.498-1.314.774-.42.216-.744.396-.972.54a2.168 2.168 0 0 0-.558.54 1.33 1.33 0 0 0-.216.756v.414H3.348v-.36Zm1.908 2.16V13h-1.98v-1.98h1.98Z"/></svg>
