<svg xmlns="http://www.w3.org/2000/svg" width="761" height="362" fill="none" viewBox="0 0 761 362"><path fill="#000" d="M-40.325 161.81c-22.799 77.82 3.906 154.143 59.647 170.473 30.463 8.925 63.293-1.916 90.527-26.286L-40.325 161.81Z"/><path fill="#5869DD" d="M101.882 50.475C46.142 34.145-17.527 83.99-40.325 161.81l150.174 144.187c22.598-20.222 41.342-49.76 51.681-85.05 22.798-77.819-3.907-154.142-59.648-170.472Z"/><path stroke="#000" stroke-width="2" d="M-40.325 161.81c-22.799 77.82 3.906 154.143 59.647 170.473 30.463 8.925 63.293-1.916 90.527-26.286M-40.325 161.81C-17.527 83.991 46.142 34.144 101.882 50.475c55.741 16.33 82.446 92.653 59.648 170.472-10.339 35.29-29.083 64.828-51.681 85.05M-40.325 161.81l150.174 144.187"/><path fill="url(#a)" d="M7.763 322.257c36.389 10.661 77.822-15.014 105.781-60.757 9.393-15.368 17.265-33.001 22.914-52.282 5.736-19.58 8.625-38.966 8.937-57.218.91-53.219-20.089-96.792-56.289-107.397a59.225 59.225 0 0 0-9.157-1.913c-13.051-1.667-26.536.995-39.648 7.279.06-.02.12-.038.18-.056 10.358-3.183 20.727-3.558 30.61-.663 42.485 12.447 59.909 80.626 38.916 152.282C89.014 273.188 37.554 321.186-4.932 308.739c-9.752-2.856-18.183-8.65-25.133-16.747 9.42 14.977 22.21 25.689 37.828 30.265Z"/><path fill="#F1EFED" d="M145.395 152c-.312 18.252-3.201 37.638-8.937 57.218-5.649 19.281-13.521 36.914-22.914 52.282l9.566 6c9.954-15.619 18.208-33.625 23.997-53.383 6.759-23.073 9.399-45.947 8.399-67.117l-10.111 5Z"/><path fill="#000" d="M79.949 42.69a59.225 59.225 0 0 1 9.157 1.913c36.2 10.605 57.199 54.178 56.289 107.397l10.111-5c-2.375-50.298-25.293-90.972-62.307-101.816a68.23 68.23 0 0 0-13.25-2.494ZM7.763 322.257c-15.618-4.576-28.407-15.288-37.828-30.265-6.03-7.027-10.945-15.789-14.638-25.872 9.746 30.62 28.94 53.421 55.265 61.133 39.251 11.499 83.26-13.798 112.548-59.753l-9.566-6c-27.959 45.743-69.392 71.418-105.781 60.757Z"/><path stroke="#000" stroke-width="2" d="M-30.065 291.992c6.95 8.097 15.381 13.891 25.133 16.747 42.486 12.447 93.946-35.551 114.939-107.207C131 129.876 113.576 61.697 71.09 49.25c-9.883-2.895-20.25-2.52-30.608.663m-70.547 242.079c9.42 14.977 22.21 25.689 37.828 30.265 36.389 10.661 77.822-15.014 105.781-60.757m-143.609 30.492c-6.03-7.027-10.945-15.789-14.638-25.872M40.301 49.969C6.192 60.558-27.767 101.566-43.85 156.457c-11.993 40.937-11.447 80.739-.854 109.663M40.301 49.969c13.112-6.284 26.597-8.946 39.648-7.28M40.3 49.97l.18-.056m-.18.056c.06-.02.12-.038.18-.056M79.95 42.69a59.225 59.225 0 0 1 9.157 1.913c36.2 10.605 57.199 54.178 56.289 107.397M79.949 42.69a68.23 68.23 0 0 1 13.25 2.494C130.213 56.028 153.13 96.702 155.506 147M-44.703 266.12c9.746 30.62 28.94 53.421 55.265 61.133 39.251 11.499 83.26-13.798 112.548-59.753M145.395 152c-.312 18.252-3.201 37.638-8.937 57.218-5.649 19.281-13.521 36.914-22.914 52.282M145.395 152l10.111-5m0 0c1 21.17-1.64 44.044-8.399 67.117-5.789 19.758-14.043 37.764-23.997 53.383m-9.566-6 9.566 6"/><path fill="url(#b)" d="M109.822 202.168C88.284 275.684 36.166 325.127-6.588 312.601c-42.753-12.525-59.952-82.276-38.414-155.792 21.538-73.516 73.656-122.96 116.41-110.434.942.276 1.873.58 2.79.911 14.894 5.376 26.478 17.93 34.148 35.21 13.292 29.944 14.832 74.084 1.476 119.672Z"/><path fill="#000" d="M88.834 49.495c.691 2.157-8.234-.189-14.636-2.209 14.894 5.376 26.478 17.93 34.148 35.21-2.004-5.167-6.312-16.3-7.512-19.5-1.2-3.2 13.334-.5 17.5 0-8-4.707-30.3-15.997-29.5-13.5Z"/><path stroke="#000" stroke-width="2" d="M71.408 46.375C28.654 33.85-23.464 83.293-45.002 156.81c-21.538 73.516-4.34 143.267 38.414 155.792 42.754 12.526 94.872-36.917 116.41-110.433 13.356-45.588 11.816-89.728-1.476-119.673m-36.938-36.12c.942.276 1.873.58 2.79.911m-2.79-.91c.836.282 1.782.592 2.79.91m34.148 35.21c-2.004-5.167-6.312-16.3-7.512-19.5-1.2-3.2 13.334-.5 17.5 0-8-4.707-30.3-15.997-29.5-13.5.691 2.156-8.234-.19-14.636-2.21m34.148 35.21c-7.67-17.28-19.254-29.834-34.148-35.21"/><path fill="url(#c)" stroke="#000" stroke-width="2" d="M85.586 193.293c-14.48 49.424-52.01 81.934-83.827 72.613-31.816-9.322-45.87-56.944-31.39-106.369 14.479-49.424 52.01-81.934 83.826-72.613 31.817 9.322 45.871 56.944 31.391 106.369Z"/><ellipse cx="22.187" cy="173.871" fill="url(#d)" stroke="#000" stroke-width="2" rx="39.997" ry="62.132" transform="rotate(16.329 22.187 173.871)"/><path fill="#000" d="M33.518 179.516c-6.981 23.829-23.957 39.896-38.164 36.295l11.91 3.253c13.705 4.015 30.18-10.629 37.773-33.064l-11.519-6.484Z"/><path fill="#F1EFED" d="M20.4 128.186c14.321 4.195 20.194 27.177 13.118 51.33L45.038 186c.341-1.009.665-2.033.969-3.073 7.076-24.153 1.203-47.135-13.118-51.33L20.4 128.186Z"/><path fill="url(#e)" d="M-18.343 164.323c-7.076 24.153-1.203 47.134 13.118 51.33l.58.158c14.206 3.601 31.182-12.466 38.163-36.295 7.076-24.153 1.203-47.135-13.118-51.33-14.32-4.196-31.666 11.983-38.743 36.137Z"/><path stroke="#000" stroke-width="2" d="M33.518 179.516c7.076-24.153 1.203-47.135-13.118-51.33m13.118 51.33L45.038 186m-11.52-6.484c-6.981 23.829-23.957 39.896-38.164 36.295m-.579-.158c-14.32-4.196-20.194-27.177-13.118-51.33 7.076-24.154 24.422-40.333 38.743-36.137m-25.625 87.467.58.158m-.58-.158c.193.056.386.109.58.158M20.4 128.186l12.49 3.411c14.32 4.195 20.193 27.177 13.117 51.33a77.588 77.588 0 0 1-.97 3.073m0 0c-7.593 22.435-24.068 37.079-37.773 33.064l-11.91-3.253"/><path fill="#5869DD" d="M11.602 148.738c3.24.423 5.998 1.767 8.274 4.019 2.33 2.285 3.958 5.214 4.88 8.828.93 3.599 1.028 7.487.25 11.721-.466 2.442-1.186 4.718-2.19 6.86-1.003 2.075-2.243 3.741-3.717 4.946-1.441 1.173-3.004 1.641-4.691 1.379-.954-.137-1.777-.558-2.5-1.233-.67-.723-1.082-1.682-1.213-2.906-.879 1.029-1.993 1.756-3.343 2.182-1.324.436-2.46.565-3.461.436-1.906-.26-3.472-1.06-4.713-2.399-1.199-1.305-1.99-2.999-2.354-5.033-.36-2.088-.232-4.337.369-6.77.587-2.445 1.484-4.572 2.703-6.396 1.237-1.867 2.658-3.277 4.265-4.22 1.643-.946 3.308-1.282 5.012-1.075a5.306 5.306 0 0 1 2.766 1.303 7.08 7.08 0 0 1 1.963 2.536c.166-.825.332-1.649.486-2.472 1.175.16 2.35.319 3.514.48a1480.77 1480.77 0 0 1-3.34 16.702c-.52 2.396-.054 3.668 1.396 3.883 1.165.174 2.188-.688 3.06-2.558.894-1.886 1.556-3.967 2-6.219.644-3.348.598-6.427-.108-9.269-.701-2.803-1.965-5.114-3.756-6.925-1.775-1.787-3.925-2.854-6.46-3.187-2.547-.332-5 .192-7.384 1.575-2.366 1.34-4.457 3.351-6.275 6.032-1.83 2.669-3.182 5.74-4.06 9.24-1.42 5.579-1.254 10.231.545 13.965 1.852 3.753 5.539 6.025 11.039 6.82 2.615.388 5.232.256 7.875-.387a481.886 481.886 0 0 1-1.06 4.66c-2.898.559-5.533.64-7.923.3-4.574-.681-8.128-2.25-10.67-4.666-2.508-2.434-4.018-5.472-4.566-9.111-.494-3.686-.185-7.709.95-12.086 1.124-4.376 2.852-8.233 5.154-11.542 2.274-3.331 4.907-5.817 7.91-7.471 3.034-1.686 6.14-2.326 9.373-1.942Zm-6.866 31.159c1.575.238 3.041-.31 4.39-1.631 1.404-1.355 2.343-3.181 2.841-5.48.465-2.268.352-4.243-.389-5.838-.677-1.657-1.788-2.586-3.323-2.803-1.532-.19-2.971.382-4.336 1.758-1.325 1.318-2.252 3.141-2.78 5.391-.538 2.278-.487 4.235.174 5.868.693 1.601 1.828 2.527 3.423 2.735Z"/><path fill="url(#f)" d="M8.646 147.616c3.239.423 5.997 1.767 8.274 4.02 2.33 2.285 3.958 5.213 4.879 8.827.931 3.599 1.028 7.487.25 11.721-.466 2.442-1.185 4.718-2.19 6.86-1.002 2.075-2.243 3.741-3.716 4.946-1.442 1.173-3.004 1.641-4.692 1.379-.953-.136-1.776-.558-2.5-1.233-.67-.723-1.081-1.682-1.213-2.906-.878 1.029-1.993 1.756-3.343 2.182-1.324.436-2.46.565-3.46.436-1.906-.26-3.473-1.06-4.713-2.399-1.2-1.305-1.99-2.999-2.355-5.033-.36-2.088-.231-4.337.37-6.77.586-2.445 1.484-4.572 2.703-6.396 1.237-1.867 2.658-3.277 4.264-4.219 1.643-.947 3.309-1.283 5.013-1.076a5.306 5.306 0 0 1 2.765 1.303 7.079 7.079 0 0 1 1.963 2.536c.166-.825.332-1.649.486-2.472 1.176.16 2.35.319 3.514.48a1476.34 1476.34 0 0 1-3.34 16.702c-.52 2.396-.054 3.668 1.396 3.883 1.165.174 2.188-.688 3.06-2.558.895-1.886 1.556-3.967 2-6.219.645-3.348.598-6.427-.108-9.269-.7-2.803-1.965-5.114-3.756-6.925-1.775-1.787-3.925-2.854-6.46-3.187-2.546-.332-5 .192-7.384 1.575-2.366 1.34-4.457 3.351-6.274 6.032-1.831 2.669-3.182 5.74-4.061 9.24-1.42 5.579-1.254 10.232.546 13.965 1.851 3.753 5.538 6.026 11.038 6.82 2.616.389 5.232.256 7.876-.387a474.927 474.927 0 0 1-1.06 4.66c-2.898.559-5.534.64-7.924.301-4.573-.681-8.128-2.25-10.67-4.667-2.507-2.434-4.017-5.472-4.566-9.111-.494-3.686-.184-7.709.95-12.086 1.124-4.376 2.852-8.233 5.154-11.542 2.274-3.331 4.908-5.817 7.91-7.471 3.035-1.686 6.14-2.326 9.374-1.942Zm-6.866 31.16c1.574.237 3.04-.311 4.39-1.632 1.404-1.355 2.343-3.181 2.84-5.48.466-2.268.353-4.243-.389-5.837-.676-1.657-1.787-2.587-3.323-2.803-1.531-.191-2.97.381-4.336 1.757-1.324 1.318-2.251 3.142-2.78 5.392-.537 2.278-.487 4.234.174 5.867.694 1.601 1.829 2.527 3.424 2.736Z"/><path stroke="#000" stroke-width="1.5" d="M17.902 160.924c-1.164-.161-2.339-.32-3.514-.48-.154.823-.32 1.647-.486 2.472a7.08 7.08 0 0 0-1.963-2.536 5.306 5.306 0 0 0-2.766-1.303c-1.704-.207-3.37.129-5.012 1.075-1.607.943-3.028 2.353-4.265 4.22-1.219 1.824-2.116 3.951-2.703 6.396-.6 2.433-.73 4.682-.37 6.77.365 2.034 1.156 3.728 2.355 5.033 1.24 1.339 2.807 2.139 4.713 2.399 1.001.129 2.137 0 3.461-.436 1.35-.426 2.464-1.153 3.343-2.182.131 1.224.542 2.183 1.212 2.906.724.675 1.547 1.096 2.5 1.233 1.688.262 3.25-.206 4.692-1.379 1.474-1.205 2.714-2.871 3.716-4.946 1.005-2.142 1.725-4.418 2.19-6.86.779-4.234.682-8.122-.25-11.721-.92-3.614-2.55-6.543-4.879-8.828-2.276-2.252-5.035-3.596-8.274-4.019-3.234-.384-6.339.256-9.373 1.942-3.003 1.654-5.636 4.14-7.91 7.471-2.302 3.309-4.03 7.166-5.154 11.542-1.135 4.377-1.444 8.4-.95 12.086.548 3.639 2.058 6.677 4.566 9.111 2.542 2.416 6.096 3.985 10.67 4.666 2.39.34 5.025.259 7.923-.3m6.528-34.332a1480.77 1480.77 0 0 1-3.34 16.702c-.52 2.396-.054 3.668 1.396 3.883 1.165.174 2.188-.688 3.06-2.558.894-1.886 1.556-3.967 2-6.219.644-3.348.598-6.427-.108-9.269-.701-2.803-1.965-5.114-3.756-6.925-1.775-1.787-3.925-2.854-6.46-3.187-2.547-.332-5 .192-7.384 1.575-2.366 1.34-4.457 3.351-6.275 6.032-1.83 2.669-3.182 5.74-4.06 9.24-1.42 5.579-1.254 10.231.545 13.965 1.852 3.753 5.539 6.025 11.039 6.82 2.615.388 5.232.256 7.875-.387m5.468-29.672-2.957-1.122m-2.51 30.794a481.886 481.886 0 0 1-1.06 4.66m1.06-4.66-2.957-1.122m1.896 5.782-2.956-1.122m6.527-34.332c-1.163-.161-2.338-.32-3.514-.48-.154.823-.32 1.647-.486 2.472a7.079 7.079 0 0 0-1.963-2.536 5.306 5.306 0 0 0-2.765-1.303c-1.704-.207-3.37.129-5.013 1.076-1.606.942-3.027 2.352-4.264 4.219-1.219 1.824-2.117 3.951-2.704 6.396-.6 2.433-.729 4.682-.369 6.77.364 2.034 1.156 3.728 2.355 5.033 1.24 1.339 2.807 2.139 4.712 2.399 1.002.129 2.137 0 3.461-.436 1.35-.426 2.465-1.153 3.343-2.182.132 1.224.543 2.183 1.213 2.906.724.675 1.547 1.097 2.5 1.233 1.688.262 3.25-.206 4.692-1.379 1.473-1.205 2.714-2.871 3.716-4.946 1.005-2.142 1.724-4.418 2.19-6.86.778-4.234.681-8.122-.25-11.721-.921-3.614-2.55-6.542-4.88-8.827-2.276-2.253-5.034-3.597-8.273-4.02-3.234-.384-6.34.256-9.374 1.942-3.002 1.654-5.636 4.14-7.91 7.471-2.302 3.309-4.03 7.166-5.153 11.542-1.135 4.377-1.445 8.4-.95 12.086.548 3.639 2.058 6.677 4.566 9.111 2.541 2.417 6.096 3.986 10.67 4.667 2.39.339 5.025.258 7.923-.301m6.527-34.332a1476.34 1476.34 0 0 1-3.34 16.702c-.52 2.396-.054 3.668 1.396 3.883 1.165.174 2.188-.688 3.06-2.558.895-1.886 1.556-3.967 2-6.219.645-3.348.598-6.427-.108-9.269-.7-2.803-1.965-5.114-3.756-6.925-1.775-1.787-3.925-2.854-6.46-3.187-2.546-.332-5 .192-7.384 1.575-2.366 1.34-4.457 3.351-6.274 6.032-1.831 2.669-3.182 5.74-4.061 9.24-1.42 5.579-1.254 10.232.546 13.965 1.851 3.753 5.538 6.026 11.038 6.82 2.616.389 5.232.256 7.876-.387m0 0a474.927 474.927 0 0 1-1.06 4.66m-3.682-14.237c1.575.238 3.041-.31 4.39-1.631 1.404-1.355 2.343-3.181 2.841-5.48.465-2.268.352-4.243-.389-5.838-.677-1.657-1.788-2.586-3.323-2.803-1.532-.19-2.971.382-4.336 1.758-1.325 1.318-2.252 3.141-2.78 5.391-.538 2.278-.487 4.235.174 5.868.693 1.601 1.828 2.527 3.423 2.735Zm-2.956-1.121c1.574.237 3.04-.311 4.39-1.632 1.404-1.355 2.343-3.181 2.84-5.48.466-2.268.353-4.243-.389-5.837-.676-1.657-1.787-2.587-3.323-2.803-1.531-.191-2.97.381-4.336 1.757-1.324 1.318-2.251 3.142-2.78 5.392-.537 2.278-.487 4.234.174 5.867.694 1.601 1.829 2.527 3.424 2.736Z"/><path fill="url(#g)" stroke="#000" stroke-width="1.5" d="M8.647 147.618c3.239.423 5.998 1.767 8.274 4.02 2.33 2.285 3.958 5.214 4.879 8.827.931 3.599 1.028 7.487.25 11.721-.466 2.442-1.185 4.718-2.19 6.86-1.002 2.075-2.242 3.741-3.716 4.946-1.442 1.173-3.004 1.641-4.692 1.379-.953-.136-1.776-.558-2.5-1.233-.67-.723-1.081-1.682-1.213-2.906-.878 1.029-1.993 1.756-3.343 2.182-1.324.436-2.46.565-3.46.436-1.906-.26-3.473-1.06-4.713-2.399-1.2-1.305-1.99-2.999-2.355-5.033-.36-2.088-.231-4.337.37-6.77.586-2.445 1.484-4.572 2.703-6.396 1.237-1.867 2.658-3.277 4.265-4.219 1.642-.947 3.308-1.283 5.012-1.076a5.306 5.306 0 0 1 2.765 1.303 7.079 7.079 0 0 1 1.963 2.536c.166-.825.332-1.649.486-2.471 1.176.159 2.35.318 3.514.479a1478.55 1478.55 0 0 1-3.34 16.702c-.52 2.396-.054 3.668 1.396 3.883 1.165.174 2.188-.688 3.06-2.558.895-1.886 1.556-3.967 2-6.219.645-3.348.598-6.427-.108-9.269-.7-2.803-1.965-5.114-3.756-6.925-1.775-1.787-3.925-2.854-6.46-3.187-2.546-.332-5 .192-7.384 1.575-2.366 1.34-4.457 3.351-6.274 6.032-1.831 2.669-3.182 5.74-4.061 9.24-1.42 5.579-1.254 10.232.546 13.965 1.851 3.753 5.538 6.026 11.038 6.82 2.096.311 4.193.288 6.303-.064.73-.122 1.385.521 1.222 1.244a559.488 559.488 0 0 1-.71 3.093c-2.897.559-5.533.64-7.923.301-4.573-.681-8.128-2.25-10.67-4.666-2.507-2.435-4.017-5.473-4.566-9.112-.494-3.686-.184-7.709.95-12.086 1.124-4.376 2.853-8.233 5.154-11.542 2.274-3.331 4.908-5.817 7.91-7.471 3.035-1.686 6.14-2.326 9.374-1.942Zm-6.866 31.16c1.574.237 3.04-.311 4.39-1.632 1.404-1.355 2.343-3.181 2.84-5.48.466-2.268.353-4.243-.388-5.837-.677-1.657-1.788-2.587-3.324-2.803-1.531-.191-2.97.381-4.336 1.757-1.324 1.318-2.251 3.142-2.78 5.392-.537 2.278-.487 4.234.174 5.867.694 1.601 1.829 2.527 3.424 2.736Z"/><path fill="#000" d="M46.984 96a7674.61 7674.61 0 0 1-3.51 13.05c-.733.047-1.467.09-2.2.13-1.033-3.407-2.06-6.817-3.08-10.23-1.1 3.54-2.203 7.083-3.31 10.63-.713.04-1.427.083-2.14.13-1.093-4.213-2.183-8.43-3.27-12.65.62-.033 1.24-.07 1.86-.11l2.58 10.51c1.14-3.627 2.277-7.253 3.41-10.88l1.9-.12c1.06 3.493 2.117 6.983 3.17 10.47.947-3.6 1.883-7.207 2.81-10.82.6-.04 1.193-.077 1.78-.11ZM53.814 100.32a932.134 932.134 0 0 1-1.58 3.52l5.06 2.5-.7 1.58c-1.693-.833-3.383-1.667-5.07-2.5a826.762 826.762 0 0 0-1.59 3.52c1.84.9 3.68 1.803 5.52 2.71-.233.527-.47 1.053-.71 1.58-2.34-1.153-4.68-2.3-7.02-3.44 1.78-3.933 3.55-7.86 5.31-11.78 2.327 1.153 4.657 2.307 6.99 3.46-.233.52-.47 1.043-.71 1.57-1.833-.9-3.667-1.807-5.5-2.72ZM66.804 119.76c-.21.61-.56 1.13-1.05 1.59-.56.49-1.15.79-1.78.91-.63.12-1.26.03-1.89-.25-.63-.29-1.2-.8-1.73-1.51l-3.48-4.76c3.373-3.02 6.743-6.04 10.11-9.06l3.48 4.74c.51.68.82 1.38.95 2.08.12.72.08 1.39-.14 2.01-.24.62-.6 1.18-1.13 1.64-.48.44-.99.7-1.53.81-.54.12-1.09.07-1.67-.18.1.73.07 1.39-.14 1.98Zm-3.72.52c.51.08 1.02-.12 1.55-.58.49-.44.76-.95.78-1.5.01-.56-.2-1.15-.67-1.76-.773-1.053-1.547-2.11-2.32-3.17-1.04.927-2.08 1.857-3.12 2.79l2.32 3.16c.46.63.94.98 1.46 1.07v-.01Zm2.91-4.99c.45.61.92.94 1.42 1 .5.07 1.02-.14 1.54-.61.99-.88 1.04-1.93.14-3.16a571.453 571.453 0 0 1-2.33-3.15c-1.027.92-2.057 1.84-3.09 2.76l2.32 3.16ZM67.534 139.73c.15-.9.47-1.7 1-2.41.53-.72 1.21-1.26 2.02-1.62.82-.37 1.63-.49 2.45-.38.82.12 1.55.44 2.19.99.63.54 1.11 1.26 1.41 2.13.31.87.4 1.75.26 2.64-.13.9-.47 1.71-1 2.42-.53.72-1.2 1.25-2.02 1.61-.82.37-1.64.5-2.46.38-.82-.11-1.55-.44-2.2-.98a4.896 4.896 0 0 1-1.41-2.13c-.3-.87-.38-1.76-.24-2.65Zm2.44 3.62c.46.39 1 .63 1.59.7.61.07 1.2-.02 1.8-.29.6-.26 1.1-.66 1.48-1.18a3.805 3.805 0 0 0 .59-3.62c-.22-.62-.56-1.13-1.03-1.51-.46-.38-.99-.61-1.58-.68-.6-.08-1.2.01-1.79.27-.6.27-1.1.67-1.49 1.18-.39.53-.63 1.1-.74 1.75-.12.64-.06 1.26.15 1.88.22.63.55 1.13 1.02 1.5ZM73.774 150.91c-.067-.6-.14-1.203-.22-1.81-1.253.24-2.51.477-3.77.71l-.16-1.39c3.033-.56 6.07-1.123 9.11-1.69.173 1.407.343 2.813.51 4.22.09.64.03 1.22-.14 1.73-.17.5-.44.91-.83 1.24-.37.32-.82.53-1.33.62-.68.13-1.3.02-1.84-.31-.53-.35-.89-.9-1.09-1.66a2304.992 2304.992 0 0 0-3.46 3.93c-.06-.587-.123-1.167-.19-1.74 1.133-1.287 2.27-2.57 3.41-3.85Zm.97-2.03c.113.92.22 1.84.32 2.76.08.55.25.96.55 1.21.29.25.67.33 1.16.23.47-.08.82-.3 1.04-.64.22-.36.3-.81.23-1.36a447.13 447.13 0 0 0-.33-2.75c-.993.18-1.983.363-2.97.55ZM64.104 191.7c.173-.64.343-1.277.51-1.91 3.427.84 6.853 1.677 10.28 2.51a4975.303 4975.303 0 0 1-8.63-8.49l11.76-3.45c-3.38-.833-6.757-1.667-10.13-2.5.167-.633.333-1.263.5-1.89l12.43 3.06c-.24.893-.477 1.783-.71 2.67-3.44 1.007-6.883 2.017-10.33 3.03 2.507 2.473 5.017 4.943 7.53 7.41-.24.867-.477 1.733-.71 2.6-4.173-1.013-8.347-2.03-12.52-3.05.007 0 .013.003.02.01ZM62.324 198.06c.99-.77 2.09-1.23 3.27-1.39 1.18-.15 2.33.03 3.44.53 1.12.5 2.01 1.26 2.67 2.24.66.99 1.02 2.11 1.1 3.34.06 1.25-.17 2.47-.73 3.67a7.98 7.98 0 0 1-2.33 2.97c-1 .76-2.09 1.22-3.29 1.38-1.2.15-2.35-.02-3.48-.53-1.11-.5-2.01-1.25-2.66-2.24a6.371 6.371 0 0 1-1.08-3.34c-.07-1.25.18-2.47.74-3.68.57-1.21 1.34-2.19 2.34-2.96.007 0 .01.003.01.01Zm-1.24 6.3c.06.89.34 1.69.83 2.41.48.72 1.13 1.26 1.95 1.62.81.37 1.66.51 2.53.39.87-.1 1.67-.43 2.39-.95a5.37 5.37 0 0 0 1.67-2.09c.4-.86.57-1.73.5-2.61-.07-.89-.35-1.69-.83-2.41a4.633 4.633 0 0 0-1.95-1.63 4.58 4.58 0 0 0-2.52-.4c-.87.11-1.66.43-2.37.96-.73.53-1.29 1.23-1.69 2.09-.4.86-.57 1.73-.51 2.62ZM55.574 221.86c-.6-.01-1.16-.19-1.7-.55-.58-.4-1-.89-1.25-1.49-.26-.6-.33-1.27-.21-2.01.11-.74.43-1.5.96-2.28 1.173-1.727 2.34-3.447 3.5-5.16 3.547 2.433 7.103 4.867 10.67 7.3a3804.117 3804.117 0 0 1-3.46 5.13c-.5.75-1.07 1.31-1.68 1.67-.62.36-1.25.53-1.87.51-.63-.02-1.22-.21-1.77-.59-.52-.35-.89-.78-1.13-1.29-.23-.52-.31-1.1-.22-1.76-.64.35-1.25.53-1.85.52h.01Zm-1.35-3.62c.04.54.34 1.01.88 1.38.53.36 1.05.46 1.55.29.52-.16.99-.58 1.45-1.26.78-1.147 1.557-2.293 2.33-3.44l-3.28-2.24-2.32 3.44c-.46.68-.67 1.29-.62 1.84 0-.007.003-.01.01-.01Zm5.24 1.3c-.44.66-.64 1.25-.57 1.78.06.53.36.98.91 1.36 1.06.71 2.04.41 2.92-.91.773-1.14 1.543-2.28 2.31-3.42a549.577 549.577 0 0 0-3.27-2.23l-2.3 3.42ZM57.404 230.88c-3.393-2.68-6.783-5.363-10.17-8.05.42-.527.833-1.05 1.24-1.57 3.373 2.68 6.76 5.363 10.16 8.05l-1.23 1.57ZM38.994 235.31l-1.28-1.24c2.14-2.293 4.277-4.587 6.41-6.88 3.107 3.02 6.22 6.03 9.34 9.03-.453.493-.907.983-1.36 1.47-2.693-2.6-5.383-5.2-8.07-7.8a1860.733 1860.733 0 0 1-5.04 5.42ZM40.864 245.39c-.787-1.033-1.57-2.07-2.35-3.11-1.76 1.433-3.517 2.867-5.27 4.3l-1.06-1.4c1.76-1.433 3.517-2.867 5.27-4.3-.78-1.04-1.56-2.077-2.34-3.11-1.907 1.56-3.817 3.117-5.73 4.67a193.34 193.34 0 0 1-1.05-1.4c2.427-1.973 4.853-3.95 7.28-5.93a2282.89 2282.89 0 0 0 7.86 10.41c-2.433 1.98-4.86 3.96-7.28 5.94-.36-.467-.717-.933-1.07-1.4 1.913-1.553 3.823-3.11 5.73-4.67h.01ZM86.334 49.947c12.386 8.193 20.629 10.718 34.878 13.58 1.264.254 2.552-.343 3.204-1.455 13.277-22.668 23.914-27.729 44.918-29.625-1.11-5.366-3.004-10.04-5.497-14-36.503 5-49.377 51.063-76.063 26a89.916 89.916 0 0 0-1.44 5.5Z"/><path fill="#5869DD" d="M87.774 44.447c26.686 25.063 39.56-21 76.063-26-8.811-13.995-25.102-19.071-40.709-14.274a61.885 61.885 0 0 0-9.294 4.116c-11.029 6.484-20.798 18.41-26.06 36.158Z"/><path fill="#000" d="M626.247 315.368c-27.914 6.259-54.354 11.202-79.413 14.613 73.915-2.797 112.372-7.035 177-18.135-31.633 3.733-64.372 4.911-97.587 3.522Z"/><path fill="#5869DD" d="M721.834 295.948c-3.2 0 3-4.667 6.5-7-36.067 10.321-70.048 19.237-102.087 26.42 33.215 1.389 65.954.211 97.587-3.522a553.324 553.324 0 0 0 33-4.898c-1-1.834-3.3-5.7-4.5-6.5-1.5-1-3 1-5 0s3.5-2.5 3-3.5-3.5.5-6 0 17-9.5 15-9-19 5-23.5 6.5 2.5-5.5 2-5.5-12 7-16 7Z"/><path fill="url(#h)" d="M163.837 18.448c2.493 3.96 4.387 8.633 5.497 14 72.063 258.394 183.318 323.965 377.5 297.533 25.059-3.411 51.499-8.354 79.413-14.613-88.197-3.688-179.746-25.479-262.833-65.602-20.572-9.934-39.055-23.765-54.621-40.485-35.517-38.149-56.357-71.135-84.959-145.334-14.907-35.404-58.309-74.453-100.706-59.774 15.607-4.797 31.898.279 40.709 14.275Z"/><path fill="#000" d="m86.334 49.947-.975-.223-.154.676.577.382.552-.835Zm77.503-31.5.846-.532-.846.533Zm564.497 270.501.555.832a1.002 1.002 0 0 0-.83-1.794l.275.962Zm-614.5-280.66-.507-.862.507.863Zm643 298.66.177.984a1 1 0 0 0 .701-1.463l-.878.479Zm-533-243 .933-.36-.005-.014-.006-.015-.922.388Zm528.5 236.5-.555.832.555-.832Zm-205.5 29.533-.135-.991.135.991Zm177-18.135-.117-.993.117.993ZM308.793 209.281l.731-.681-.731.681Zm54.621 40.485-.435.9.435-.9ZM121.212 63.527l-.197.98.197-.98Zm3.204-1.455.863.505-.863-.505Zm-38.634-11.29c12.53 8.287 20.906 10.848 35.233 13.725l.394-1.96c-14.172-2.846-22.28-5.335-34.523-13.434l-1.104 1.669Zm39.497 11.795c6.602-11.271 12.48-18.046 19.228-22.259 6.745-4.21 14.467-5.931 24.917-6.875l-.18-1.991c-10.555.952-18.653 2.71-25.796 7.17-7.142 4.459-13.22 11.548-19.895 22.944l1.726 1.011ZM86.816 44.163a90.832 90.832 0 0 0-1.457 5.561l1.95.447a88.835 88.835 0 0 1 1.424-5.44l-1.917-.568Zm83.497-11.918c-1.133-5.475-3.069-10.262-5.63-14.33l-1.692 1.065c2.424 3.852 4.276 8.413 5.364 13.67l1.958-.405ZM87.09 45.176c6.823 6.408 12.927 8.407 18.85 7.473 5.819-.918 11.255-4.647 16.814-9.151 11.251-9.117 23.32-21.608 41.219-24.06l-.272-1.981c-18.604 2.548-31.224 15.588-42.206 24.487-5.559 4.503-10.627 7.903-15.867 8.73-5.137.81-10.65-.832-17.17-6.956l-1.368 1.458Zm26.237-37.75c-11.275 6.63-21.187 18.78-26.511 36.737l1.917.569c5.2-17.538 14.825-29.242 25.608-35.581l-1.014-1.725Zm109.574 56.881c28.636 74.287 49.536 107.391 85.16 145.655l1.463-1.362c-35.409-38.034-56.189-70.901-84.757-145.012l-1.866.72Zm504.878 223.809c-1.763 1.175-4.239 2.959-5.884 4.47-.414.38-.79.757-1.094 1.113-.291.341-.57.725-.725 1.118-.15.385-.279 1.077.262 1.627.432.439 1.054.504 1.496.504v-2c-.358 0-.242-.082-.07.094.281.285.139.595.174.505.032-.08.138-.262.384-.549.233-.273.546-.59.926-.939 1.53-1.405 3.904-3.121 5.641-4.279l-1.11-1.664Zm-5.945 8.832c1.211 0 2.839-.509 4.487-1.165 1.69-.673 3.549-1.564 5.279-2.444 1.732-.882 3.353-1.763 4.562-2.418.608-.33 1.105-.598 1.464-.784a8.66 8.66 0 0 1 .404-.2l.05-.022a.126.126 0 0 1 .016-.007l-.011.004a.82.82 0 0 1-.251.036v-2c-.213 0-.393.07-.419.08a2.78 2.78 0 0 0-.213.088 12.7 12.7 0 0 0-.494.244c-.381.197-.896.476-1.499.802-1.213.658-2.811 1.526-4.516 2.395-1.708.869-3.505 1.728-5.112 2.368-1.649.656-2.958 1.023-3.747 1.023v2Zm16-7a.977.977 0 0 1-.968-.863.931.931 0 0 1 .065-.466c.023-.051.029-.048-.037.045-.113.158-.307.4-.57.722-.505.621-1.217 1.478-1.802 2.29-.292.406-.57.825-.781 1.216-.192.356-.406.825-.422 1.294-.009.258.039.601.271.91a1.4 1.4 0 0 0 .863.527c.516.103 1.116-.033 1.697-.227l-.632-1.897c-.544.181-.71.155-.674.162a.608.608 0 0 1 .347.237.592.592 0 0 1 .127.358c-.001.024.012-.096.183-.415a9.67 9.67 0 0 1 .645-.996c.54-.751 1.203-1.55 1.729-2.195.253-.311.489-.604.646-.823.068-.095.169-.242.237-.394.016-.036.131-.276.095-.582a1.024 1.024 0 0 0-1.019-.903v2Zm-1.684 5.448c4.458-1.486 21.422-5.977 23.427-6.478l-.486-1.94c-1.995.499-19.031 5.007-23.573 6.521l.632 1.897Zm23.427-6.478c.014-.004.008-.002-.012.001a.963.963 0 0 1-.578-.113.99.99 0 0 1-.286-1.488c.084-.1.16-.142.101-.102a2.681 2.681 0 0 1-.15.094c-.309.182-.872.482-1.63.875-1.48.767-3.693 1.882-5.838 3.001-2.156 1.125-4.328 2.297-5.811 3.227-.721.452-1.36.896-1.741 1.28-.1.102-.208.224-.298.365a1.33 1.33 0 0 0-.22.647 1.14 1.14 0 0 0 .393.927c.224.194.474.265.631.296l.392-1.961c.001 0 .138.024.288.154.197.171.307.43.293.691-.011.201-.09.319-.094.326-.013.019-.008.008.036-.038.2-.201.658-.538 1.383-.993 1.408-.882 3.516-2.022 5.673-3.148 2.167-1.13 4.299-2.203 5.833-2.998a41.52 41.52 0 0 0 1.728-.93c.093-.055.182-.109.258-.162.045-.03.19-.127.306-.266a1.022 1.022 0 0 0 .219-.887 1.01 1.01 0 0 0-.885-.782 1.167 1.167 0 0 0-.309.009c-.062.01-.12.023-.168.035l.486 1.94Zm-15.439 9.01c1.466.294 3.038-.003 4.11-.181.587-.098.99-.157 1.269-.151.324.006.066.086-.077-.201l1.788-.894c-.393-.787-1.213-.895-1.671-.905-.502-.01-1.099.088-1.637.178-1.178.196-2.356.4-3.39.193l-.392 1.961Zm5.302-.533a.646.646 0 0 1 .012-.63s-.056.066-.24.198c-.365.262-.863.529-1.448.873-.272.16-.557.334-.809.515-.242.173-.516.394-.721.662-.201.264-.458.746-.282 1.328.162.536.601.834.935 1.001l.894-1.789c-.166-.083.007-.05.085.208.093.306-.067.498-.042.465a1.59 1.59 0 0 1 .294-.248c.179-.128.402-.266.661-.418.477-.281 1.136-.639 1.599-.971.23-.165.506-.388.703-.665.209-.293.443-.833.147-1.423l-1.788.894Zm-2.553 3.947c1.388.694 2.619.311 3.429.062.917-.283 1.173-.318 1.463-.124l1.11-1.664c-1.21-.807-2.454-.342-3.162-.124-.815.251-1.334.367-1.946.061l-.894 1.789Zm4.892-.062c.16.106.447.389.841.885.374.471.787 1.059 1.203 1.694a54.593 54.593 0 0 1 2.133 3.568l1.756-.958a57.36 57.36 0 0 0-2.217-3.707 25.56 25.56 0 0 0-1.309-1.841c-.407-.512-.857-1.012-1.297-1.305l-1.11 1.664ZM168.371 32.716c36.052 129.272 81.961 210.525 143.322 256.111 61.394 45.61 138.063 55.377 235.276 42.145l-.27-1.982c-96.969 13.2-173.018 3.397-233.813-41.768-60.827-45.19-106.578-125.92-142.589-255.043l-1.926.537Zm555.58 280.123a553.946 553.946 0 0 0 33.06-4.907l-.354-1.968a552.944 552.944 0 0 1-32.94 4.889l.234 1.986ZM546.872 330.98c73.958-2.798 112.459-7.041 177.131-18.149l-.338-1.971c-64.584 11.093-102.997 15.327-176.869 18.122l.076 1.998ZM164.683 17.915C155.607 3.498 138.827-1.7 122.834 3.217l.588 1.912c15.221-4.679 31.023.277 39.569 13.851l1.692-1.065ZM122.801 3.228a62.867 62.867 0 0 0-9.444 4.182l.954 1.757a60.905 60.905 0 0 1 9.144-4.05l-.654-1.89Zm.654 1.89c20.804-7.203 41.921-1.254 59.769 10.986 17.853 12.242 32.308 30.703 39.688 48.231l1.844-.776c-7.527-17.876-22.227-36.642-40.401-49.105-18.179-12.467-39.961-18.702-61.554-11.226l.654 1.89Zm-.621-1.901a44.65 44.65 0 0 0-9.507 4.21l1.014 1.724a42.641 42.641 0 0 1 9.081-4.022l-.588-1.912Zm503.195 311.175c-27.894 6.254-54.305 11.192-79.33 14.598l.27 1.982c25.093-3.416 51.561-8.365 79.497-14.628l-.437-1.952Zm97.688-3.539c-31.578 3.726-64.264 4.903-97.428 3.516l-.083 1.998c33.265 1.392 66.057.212 97.745-3.528l-.234-1.986Zm-360.738-60.187c83.215 40.185 174.899 62.007 263.227 65.701l.083-1.998c-88.066-3.683-179.481-25.443-262.441-65.504l-.869 1.801Zm263.487 65.678c32.063-7.189 66.064-16.11 102.143-26.435l-.55-1.923c-36.054 10.318-70.016 19.229-102.03 26.406l.437 1.952ZM308.061 209.962c15.647 16.808 34.23 30.714 54.918 40.704l.869-1.801c-20.455-9.878-38.839-23.633-54.324-40.265l-1.463 1.362ZM121.015 64.507c1.694.34 3.402-.459 4.264-1.93l-1.726-1.01a2.038 2.038 0 0 1-2.144.98l-.394 1.96Z"/><mask id="j" width="676" height="338" x="85" y="-1" maskUnits="userSpaceOnUse" style="mask-type:alpha"><path fill="#000" d="M86.334 49.947c12.386 8.193 20.629 10.718 34.878 13.58 1.264.254 2.552-.343 3.204-1.455 13.277-22.668 23.914-27.729 44.918-29.625-1.11-5.366-3.004-10.04-5.497-14-36.503 5-49.377 51.063-76.063 26a89.916 89.916 0 0 0-1.44 5.5Z"/><path fill="#5869DD" d="M87.774 44.447c26.686 25.063 39.56-21 76.063-26-8.811-13.995-25.102-19.071-40.709-14.274a61.885 61.885 0 0 0-9.294 4.116c-11.029 6.484-20.798 18.41-26.06 36.158Z"/><path fill="#000" d="M626.247 315.368c-27.914 6.259-54.354 11.202-79.413 14.613 73.915-2.797 112.372-7.035 177-18.135-31.633 3.733-64.372 4.911-97.587 3.522Z"/><path fill="#5869DD" d="M721.834 295.948c-3.2 0 3-4.667 6.5-7-36.067 10.321-70.048 19.237-102.087 26.42 33.215 1.389 65.954.211 97.587-3.522a553.324 553.324 0 0 0 33-4.898c-1-1.834-3.3-5.7-4.5-6.5-1.5-1-3 1-5 0s3.5-2.5 3-3.5-3.5.5-6 0 17-9.5 15-9-19 5-23.5 6.5 2.5-5.5 2-5.5-12 7-16 7Z"/><path fill="url(#i)" d="M163.837 18.448c2.493 3.96 4.387 8.633 5.497 14 72.063 258.394 183.318 323.965 377.5 297.533 25.059-3.411 51.499-8.354 79.413-14.613-88.197-3.688-179.746-25.479-262.833-65.602-20.572-9.934-39.055-23.765-54.621-40.485-35.517-38.149-56.357-71.135-84.959-145.334-14.907-35.404-58.309-74.453-100.706-59.774 15.607-4.797 31.898.279 40.709 14.275Z"/><path fill="#000" d="m86.334 49.947-.975-.223-.154.676.577.382.552-.835Zm77.503-31.5.846-.532-.846.533Zm564.497 270.501.555.832a1.002 1.002 0 0 0-.83-1.794l.275.962Zm-614.5-280.66-.507-.862.507.863Zm643 298.66.177.984a1 1 0 0 0 .701-1.463l-.878.479Zm-533-243 .933-.36-.005-.014-.006-.015-.922.388Zm528.5 236.5-.555.832.555-.832Zm-205.5 29.533-.135-.991.135.991Zm177-18.135-.117-.993.117.993ZM308.793 209.281l.731-.681-.731.681Zm54.621 40.485-.435.9.435-.9ZM121.212 63.527l-.197.98.197-.98Zm3.204-1.455.863.505-.863-.505Zm-38.634-11.29c12.53 8.287 20.906 10.848 35.233 13.725l.394-1.96c-14.172-2.846-22.28-5.335-34.523-13.434l-1.104 1.669Zm39.497 11.795c6.602-11.271 12.48-18.046 19.228-22.259 6.745-4.21 14.467-5.931 24.917-6.875l-.18-1.991c-10.555.952-18.653 2.71-25.796 7.17-7.142 4.459-13.22 11.548-19.895 22.944l1.726 1.011ZM86.816 44.163a90.832 90.832 0 0 0-1.457 5.561l1.95.447a88.835 88.835 0 0 1 1.424-5.44l-1.917-.568Zm83.497-11.918c-1.133-5.475-3.069-10.262-5.63-14.33l-1.692 1.065c2.424 3.852 4.276 8.413 5.364 13.67l1.958-.405ZM87.09 45.176c6.823 6.408 12.927 8.407 18.85 7.473 5.819-.918 11.255-4.647 16.814-9.151 11.251-9.117 23.32-21.608 41.219-24.06l-.272-1.981c-18.604 2.548-31.224 15.588-42.206 24.487-5.559 4.503-10.627 7.903-15.867 8.73-5.137.81-10.65-.832-17.17-6.956l-1.368 1.458Zm26.237-37.75c-11.275 6.63-21.187 18.78-26.511 36.737l1.917.569c5.2-17.538 14.825-29.242 25.608-35.581l-1.014-1.725Zm109.574 56.881c28.636 74.287 49.536 107.391 85.16 145.655l1.463-1.362c-35.409-38.034-56.189-70.901-84.757-145.012l-1.866.72Zm504.878 223.809c-1.763 1.175-4.239 2.959-5.884 4.47-.414.38-.79.757-1.094 1.113-.291.341-.57.725-.725 1.118-.15.385-.279 1.077.262 1.627.432.439 1.054.504 1.496.504v-2c-.358 0-.242-.082-.07.094.281.285.139.595.174.505.032-.08.138-.262.384-.549.233-.273.546-.59.926-.939 1.53-1.405 3.904-3.121 5.641-4.279l-1.11-1.664Zm-5.945 8.832c1.211 0 2.839-.509 4.487-1.165 1.69-.673 3.549-1.564 5.279-2.444 1.732-.882 3.353-1.763 4.562-2.418.608-.33 1.105-.598 1.464-.784a8.66 8.66 0 0 1 .404-.2l.05-.022a.126.126 0 0 1 .016-.007l-.011.004a.82.82 0 0 1-.251.036v-2c-.213 0-.393.07-.419.08a2.78 2.78 0 0 0-.213.088 12.7 12.7 0 0 0-.494.244c-.381.197-.896.476-1.499.802-1.213.658-2.811 1.526-4.516 2.395-1.708.869-3.505 1.728-5.112 2.368-1.649.656-2.958 1.023-3.747 1.023v2Zm16-7a.977.977 0 0 1-.968-.863.931.931 0 0 1 .065-.466c.023-.051.029-.048-.037.045-.113.158-.307.4-.57.722-.505.621-1.217 1.478-1.802 2.29-.292.406-.57.825-.781 1.216-.192.356-.406.825-.422 1.294-.009.258.039.601.271.91a1.4 1.4 0 0 0 .863.527c.516.103 1.116-.033 1.697-.227l-.632-1.897c-.544.181-.71.155-.674.162a.608.608 0 0 1 .347.237.592.592 0 0 1 .127.358c-.001.024.012-.096.183-.415a9.67 9.67 0 0 1 .645-.996c.54-.751 1.203-1.55 1.729-2.195.253-.311.489-.604.646-.823.068-.095.169-.242.237-.394.016-.036.131-.276.095-.582a1.024 1.024 0 0 0-1.019-.903v2Zm-1.684 5.448c4.458-1.486 21.422-5.977 23.427-6.478l-.486-1.94c-1.995.499-19.031 5.007-23.573 6.521l.632 1.897Zm23.427-6.478c.014-.004.008-.002-.012.001a.963.963 0 0 1-.578-.113.99.99 0 0 1-.286-1.488c.084-.1.16-.142.101-.102a2.681 2.681 0 0 1-.15.094c-.309.182-.872.482-1.63.875-1.48.767-3.693 1.882-5.838 3.001-2.156 1.125-4.328 2.297-5.811 3.227-.721.452-1.36.896-1.741 1.28-.1.102-.208.224-.298.365a1.33 1.33 0 0 0-.22.647 1.14 1.14 0 0 0 .393.927c.224.194.474.265.631.296l.392-1.961c.001 0 .138.024.288.154.197.171.307.43.293.691-.011.201-.09.319-.094.326-.013.019-.008.008.036-.038.2-.201.658-.538 1.383-.993 1.408-.882 3.516-2.022 5.673-3.148 2.167-1.13 4.299-2.203 5.833-2.998a41.52 41.52 0 0 0 1.728-.93c.093-.055.182-.109.258-.162.045-.03.19-.127.306-.266a1.022 1.022 0 0 0 .219-.887 1.01 1.01 0 0 0-.885-.782 1.167 1.167 0 0 0-.309.009c-.062.01-.12.023-.168.035l.486 1.94Zm-15.439 9.01c1.466.294 3.038-.003 4.11-.181.587-.098.99-.157 1.269-.151.324.006.066.086-.077-.201l1.788-.894c-.393-.787-1.213-.895-1.671-.905-.502-.01-1.099.088-1.637.178-1.178.196-2.356.4-3.39.193l-.392 1.961Zm5.302-.533a.646.646 0 0 1 .012-.63s-.056.066-.24.198c-.365.262-.863.529-1.448.873-.272.16-.557.334-.809.515-.242.173-.516.394-.721.662-.201.264-.458.746-.282 1.328.162.536.601.834.935 1.001l.894-1.789c-.166-.083.007-.05.085.208.093.306-.067.498-.042.465a1.59 1.59 0 0 1 .294-.248c.179-.128.402-.266.661-.418.477-.281 1.136-.639 1.599-.971.23-.165.506-.388.703-.665.209-.293.443-.833.147-1.423l-1.788.894Zm-2.553 3.947c1.388.694 2.619.311 3.429.062.917-.283 1.173-.318 1.463-.124l1.11-1.664c-1.21-.807-2.454-.342-3.162-.124-.815.251-1.334.367-1.946.061l-.894 1.789Zm4.892-.062c.16.106.447.389.841.885.374.471.787 1.059 1.203 1.694a54.593 54.593 0 0 1 2.133 3.568l1.756-.958a57.36 57.36 0 0 0-2.217-3.707 25.56 25.56 0 0 0-1.309-1.841c-.407-.512-.857-1.012-1.297-1.305l-1.11 1.664ZM168.371 32.716c36.052 129.272 81.961 210.525 143.322 256.111 61.394 45.61 138.063 55.377 235.276 42.145l-.27-1.982c-96.969 13.2-173.018 3.397-233.813-41.768-60.827-45.19-106.578-125.92-142.589-255.043l-1.926.537Zm555.58 280.123a553.946 553.946 0 0 0 33.06-4.907l-.354-1.968a552.944 552.944 0 0 1-32.94 4.889l.234 1.986ZM546.872 330.98c73.958-2.798 112.459-7.041 177.131-18.149l-.338-1.971c-64.584 11.093-102.997 15.327-176.869 18.122l.076 1.998ZM164.683 17.915C155.607 3.498 138.827-1.7 122.834 3.217l.588 1.912c15.221-4.679 31.023.277 39.569 13.851l1.692-1.065ZM122.801 3.228a62.867 62.867 0 0 0-9.444 4.182l.954 1.757a60.905 60.905 0 0 1 9.144-4.05l-.654-1.89Zm.654 1.89c20.804-7.203 41.921-1.254 59.769 10.986 17.853 12.242 32.308 30.703 39.688 48.231l1.844-.776c-7.527-17.876-22.227-36.642-40.401-49.105-18.179-12.467-39.961-18.702-61.554-11.226l.654 1.89Zm-.621-1.901a44.65 44.65 0 0 0-9.507 4.21l1.014 1.724a42.641 42.641 0 0 1 9.081-4.022l-.588-1.912Zm503.195 311.175c-27.894 6.254-54.305 11.192-79.33 14.598l.27 1.982c25.093-3.416 51.561-8.365 79.497-14.628l-.437-1.952Zm97.688-3.539c-31.578 3.726-64.264 4.903-97.428 3.516l-.083 1.998c33.265 1.392 66.057.212 97.745-3.528l-.234-1.986Zm-360.738-60.187c83.215 40.185 174.899 62.007 263.227 65.701l.083-1.998c-88.066-3.683-179.481-25.443-262.441-65.504l-.869 1.801Zm263.487 65.678c32.063-7.189 66.064-16.11 102.143-26.435l-.55-1.923c-36.054 10.318-70.016 19.229-102.03 26.406l.437 1.952ZM308.061 209.962c15.647 16.808 34.23 30.714 54.918 40.704l.869-1.801c-20.455-9.878-38.839-23.633-54.324-40.265l-1.463 1.362ZM121.015 64.507c1.694.34 3.402-.459 4.264-1.93l-1.726-1.01a2.038 2.038 0 0 1-2.144.98l-.394 1.96Z"/></mask><g fill="#000" mask="url(#j)"><path d="M233.423 73.549c-.392-.867-.781-1.73-1.166-2.59-2.979.552-6.006 1.12-9.082 1.706.344.807.688 1.618 1.032 2.431 3.118-.526 6.19-1.04 9.216-1.538v-.01Zm-20.776-17.835c-.41-.727-.104-2.54-.13-3.173 5.069-.988 8.309-1.122 13.823-1.348.532.795 1.054 1.599 1.537 2.414-4.676.63-9.672.836-15.23 2.107.007-.006-.007-.005 0 0Zm15.344 6.762c-.444-.834-.869-1.678-1.352-2.502-2.76.756-5.585 1.537-8.476 2.345.432.772.815 1.572 1.208 2.344 2.932-.755 5.802-1.487 8.609-2.195l.011.008ZM246.674 109.044c-.411-.841-.819-1.682-1.223-2.524-3.1.665-6.223 1.339-9.368 2.023.425.883.858 1.769 1.297 2.657a5820.86 5820.86 0 0 1 9.284-2.155l.01-.001Zm-21.048-20.007c-.301-.882-.594-1.757-.881-2.626 5.709-.614 9.247-2.131 14.693-2.718.299.827.6 1.654.905 2.48-5.457.642-9 2.207-14.707 2.863h-.01Zm16.045 9.038c-.358-.837-.713-1.671-1.064-2.502-3.179.474-6.388.959-9.625 1.453.372.873.745 1.751 1.118 2.636a3287.41 3287.41 0 0 0 9.571-1.587ZM259.945 135.97l-1.468-2.425a1059.626 1059.626 0 0 0-8.343 3.659l1.53 2.514c2.757-1.261 5.517-2.511 8.281-3.748Zm-21.169-12.779c-.493-.911-.989-1.822-1.488-2.733a1711.906 1711.906 0 0 1 15.301-4.616c.443.834.888 1.672 1.332 2.512a1482.693 1482.693 0 0 0-15.145 4.837Zm16.971 4.094a410.85 410.85 0 0 1-1.4-2.482 1676.594 1676.594 0 0 0-8.646 3.191c.491.862.986 1.728 1.484 2.596a841.337 841.337 0 0 1 8.562-3.305ZM275.765 157.995a686.288 686.288 0 0 1-1.677-2.175 5293.108 5293.108 0 0 0-7.581 4.799l1.729 2.245c2.506-1.632 5.016-3.261 7.529-4.887v.018Zm-23.636-7.598c-.562-.812-1.076-1.653-1.619-2.483 4.541-2.375 9.093-4.721 13.655-7.036.511.778 1.003 1.565 1.534 2.333a1189.09 1189.09 0 0 0-13.561 7.186h-.009Zm18.463 1.038a527.07 527.07 0 0 0-1.63-2.239 1634.272 1634.272 0 0 0-7.811 4.454c.554.776 1.115 1.549 1.682 2.319 2.576-1.52 5.162-3.034 7.758-4.543l.001.009ZM316.756 212.041c-.666-.646-1.291-1.294-1.937-1.949a2909.289 2909.289 0 0 0-6.848 5.695c.656.664 1.293 1.348 1.978 1.993a2062.75 2062.75 0 0 1 6.807-5.739Zm-28.583-8.441a709.867 709.867 0 0 1-1.895-2.186c4.132-2.939 8.274-5.87 12.427-8.792a632.6 632.6 0 0 1 1.792 2.063 2304.557 2304.557 0 0 0-12.324 8.924v-.009Zm20.285-.096-1.86-2.006a1644.178 1644.178 0 0 0-7.074 5.45c.631.69 1.264 1.379 1.901 2.068a1933.83 1933.83 0 0 1 7.033-5.512ZM344.467 236.355a314.987 314.987 0 0 1-2.173-1.607c-1.96 2.186-3.919 4.374-5.878 6.566.771.561 1.513 1.141 2.284 1.694l5.767-6.653Zm-29.256-4.905c-.695-.651-1.39-1.299-2.085-1.944 3.762-3.354 7.527-6.709 11.295-10.063l2.015 1.892a5601.248 5601.248 0 0 0-11.235 10.116l.01-.001Zm20.013-2.29c-.702-.573-1.366-1.165-2.059-1.747-2.115 2.059-4.231 4.12-6.346 6.185.723.608 1.427 1.234 2.151 1.833 2.081-2.093 4.166-4.184 6.254-6.271ZM376.325 254.757c-.834-.369-1.668-.729-2.493-1.126l-4.161 7.565c.875.413 1.759.79 2.634 1.185 1.34-2.538 2.684-5.076 4.031-7.615a.244.244 0 0 0-.011-.009Zm-29.693.91a74.583 74.583 0 0 1-2.508-1.569c2.996-3.943 5.995-7.886 8.998-11.829.759.508 1.537.969 2.306 1.44l-8.796 11.958Zm19.043-6.088c-.796-.425-1.612-.84-2.4-1.292a5015.565 5015.565 0 0 0-4.755 7.278c.828.469 1.684.909 2.541 1.359a4936.19 4936.19 0 0 1 4.614-7.345ZM411.977 268.462c-.889-.326-1.778-.648-2.667-.968a3987.762 3987.762 0 0 0-3.269 7.879l2.706.966c1.073-2.626 2.15-5.255 3.229-7.886l.001.009Zm-29.182 4.658c-.903-.355-1.806-.707-2.708-1.056l6.189-13.215c.876.343 1.755.687 2.638 1.031-2.043 4.41-4.082 8.824-6.119 13.24Zm17.615-8.84a826.19 826.19 0 0 0-2.677-.966c-1.153 2.61-2.306 5.217-3.459 7.821.895.325 1.797.65 2.706.975 1.14-2.61 2.283-5.223 3.429-7.839l.001.009ZM448.538 280.094l-2.708-.758a975.56 975.56 0 0 0-2.691 8.003l2.758.774c.881-2.667 1.761-5.337 2.642-8.01l-.001-.009Zm-28.612 6.256c-.915-.306-1.833-.61-2.754-.91l5.21-13.472c.901.295 1.799.596 2.694.903-1.716 4.496-3.43 8.992-5.14 13.488l-.01-.009Zm16.869-9.781-2.711-.83-2.88 7.973c.914.277 1.831.559 2.751.847.94-2.663 1.884-5.324 2.831-7.981 0-.006.003-.009.009-.009ZM485.31 289.704c-.892-.211-1.79-.421-2.695-.632-.721 2.692-1.436 5.384-2.144 8.076.918.21 1.836.423 2.754.639l2.085-8.083Zm-27.661 7.778a78.45 78.45 0 0 1-2.788-.755c1.385-4.551 2.78-9.105 4.184-13.663.91.258 1.799.508 2.718.748a2793.164 2793.164 0 0 0-4.114 13.67Zm15.891-10.624c-.893-.235-1.788-.467-2.687-.696-.775 2.682-1.542 5.37-2.303 8.063l2.746.702 2.244-8.06v-.009ZM521.93 297.206l-2.709-.487a4358.11 4358.11 0 0 1-1.816 8.128c.903.162 1.807.327 2.71.496a7656.61 7656.61 0 0 0 1.815-8.137Zm-26.76 9.22-2.742-.576c1.106-4.596 2.225-9.189 3.358-13.78.891.193 1.792.383 2.702.569-1.119 4.59-2.225 9.186-3.318 13.787Zm15.024-11.372c-.897-.178-1.803-.328-2.711-.514-.635 2.701-1.266 5.408-1.895 8.121.898.187 1.814.327 2.721.514.621-2.713 1.25-5.42 1.885-8.121ZM558.385 303.843c-.952-.064-1.898-.128-2.838-.193-.543 2.68-1.09 5.378-1.638 8.094l2.886.156c.543-2.704 1.073-5.39 1.59-8.057Zm-26.194 9.331c-.915-.138-1.831-.279-2.747-.422 1.006-4.641 2.012-9.27 3.018-13.886.909.132 1.821.267 2.737.404a8340.145 8340.145 0 0 0-3.017 13.913l.009-.009Zm13.979-10.428c-.922-.107-1.846-.212-2.773-.313-.569 2.711-1.144 5.437-1.725 8.179.927.095 1.855.193 2.782.294.582-2.729 1.153-5.446 1.716-8.151v-.009ZM293.756 184.041c-.666-.646-1.291-1.294-1.937-1.949a2909.289 2909.289 0 0 0-6.848 5.695c.656.665 1.292 1.348 1.978 1.993a2062.75 2062.75 0 0 1 6.807-5.739Zm-25.583-9.441a709.867 709.867 0 0 1-1.895-2.186c4.132-2.939 8.274-5.87 12.427-8.792a632.6 632.6 0 0 1 1.792 2.063 2264.89 2264.89 0 0 0-12.324 8.924v-.009Zm17.285.904-1.86-2.006a1644.178 1644.178 0 0 0-7.074 5.45c.631.69 1.264 1.379 1.901 2.068a1933.83 1933.83 0 0 1 7.033-5.512ZM565.184 316.173l.007.001-.009.009.002-.01a443.4 443.4 0 0 1-2.74-.422c1.006-4.64 2.012-9.269 3.018-13.885.909.132 1.821.266 2.737.404a8115.546 8115.546 0 0 0-3.015 13.903ZM179.984 85.955c-.24-.82-.48-1.66-.73-2.49 3.55-.03 7.11-1.04 10.68-1.04.21.77.43 1.54.66 2.31-3.56.06-7.09 1.13-10.62 1.21l.01.01Zm11.72-22.11c-.32-.89-.66-1.81-1.09-2.72-6.82.876-10.63 1.876-17.28 2.88.28.65.55 1.31.79 1.99 5.13 0 10.21-1.494 17.58-2.15Zm-14.84 12.28c-.23-.83-.46-1.66-.7-2.5 3.62.22 7.26-1.55 10.91-1.31.22.77.44 1.55.65 2.32-3.62-.18-7.24 1.65-10.85 1.48l-.01.01ZM191.244 118.425c-.29-.84-.61-1.65-.91-2.48 3.37-.58 6.73-1.17 10.08-1.76.29.79.58 1.57.87 2.37-3.34.62-6.69 1.23-10.04 1.87Zm9.21-23.88c-.24-.76-.49-1.51-.74-2.25-5.92.4-10.83 1.82-16.72 2.25.27.83.53 1.66.8 2.48 5.87-.5 10.77-2 16.67-2.48h-.01Zm-13.14 13.17c-.27-.81-.55-1.64-.82-2.45 3.41-.44 6.81-.86 10.23-1.28.26.78.52 1.57.78 2.36-3.41.46-6.8.91-10.19 1.37ZM204.874 151.755c-.36-.81-.73-1.63-1.09-2.44 3.22-.99 6.43-1.99 9.67-3 .35.8.71 1.58 1.06 2.38-3.2 1.03-6.42 2.05-9.63 3.07 0-.01-.01-.01-.01-.01Zm7.81-25.33c-.31-.76-.63-1.53-.95-2.29a9403.9 9403.9 0 0 1-16.89 3.84c.34.82.67 1.63 1 2.45 5.6-1.32 11.21-2.66 16.84-4Zm-12.46 14.68c-.34-.81-.68-1.64-1.01-2.45 3.25-.87 6.51-1.77 9.78-2.65.34.8.66 1.6.99 2.39-3.27.9-6.52 1.81-9.76 2.71ZM220.854 184.985c-.41-.82-.83-1.64-1.25-2.45 3.07-1.31 6.16-2.63 9.26-3.98.39.8.81 1.6 1.21 2.39-3.07 1.36-6.15 2.7-9.22 4.04Zm5.65-27.15c-.38-.77-.76-1.54-1.13-2.31-5.45 1.95-10.85 3.87-16.23 5.77.39.82.78 1.62 1.19 2.44 5.35-1.94 10.75-3.91 16.17-5.9Zm-11.05 16.53c-.38-.82-.78-1.64-1.17-2.47 3.12-1.21 6.24-2.42 9.38-3.66.38.8.77 1.59 1.16 2.39-3.13 1.26-6.26 2.51-9.37 3.74ZM239.054 217.975c-.46-.82-.92-1.64-1.4-2.44 2.91-1.61 5.82-3.2 8.76-4.82l1.35 2.37c-2.92 1.65-5.83 3.28-8.71 4.89Zm3.52-28.53c-.42-.78-.85-1.55-1.28-2.31-5.19 2.46-10.36 4.91-15.5 7.32.45.8.89 1.61 1.35 2.41 5.11-2.44 10.25-4.92 15.43-7.42Zm-9.67 18.03c-.44-.82-.88-1.63-1.31-2.45 2.96-1.5 5.94-3.01 8.92-4.55.43.81.86 1.6 1.28 2.39-2.97 1.55-5.94 3.08-8.89 4.61ZM263.344 248.505c-.53-.79-1.1-1.55-1.61-2.33 2.72-1.93 5.47-3.83 8.24-5.77.5.77 1.04 1.52 1.58 2.26-2.75 1.95-5.49 3.9-8.21 5.84Zm-2.65-27.69c-.47-.77-.93-1.53-1.4-2.29-4.92 2.95-9.79 5.89-14.64 8.79.5.8.99 1.6 1.47 2.41 4.82-2.94 9.67-5.91 14.57-8.91Zm-6.05 18.33c-.51-.8-1.04-1.59-1.55-2.37 2.78-1.81 5.59-3.62 8.41-5.43.51.75 1.01 1.52 1.51 2.3-2.8 1.84-5.59 3.68-8.37 5.51v-.01ZM475.904 340.295c-1.1.1-2.2.2-3.3.33.55-3.47 1.07-6.94 1.6-10.4l3.26-.33c-.5 3.44-1.03 6.9-1.56 10.4Zm-25.68-13.54c-1.04.04-2.06.09-3.09.13-1.13 5.91-2.29 11.84-3.46 17.77 1.06-.04 2.13-.11 3.2-.17 1.12-5.92 2.23-11.82 3.35-17.72v-.01Zm11.54 14.97c-1.09.12-2.15.14-3.21.2.6-3.47 1.18-6.95 1.77-10.41 1.06-.05 2.1-.07 3.16-.2-.57 3.46-1.14 6.92-1.72 10.39v.02ZM516.584 338.665c-1.19.23-2.37.47-3.54.73-.21-2.96 2.57-5.92 2.35-8.87 1.13-.21 2.25-.4 3.36-.58.27 2.91-2.46 5.82-2.17 8.73v-.01Zm-27.18-11.19c-1.11.18-2.22.35-3.33.51-.52 5.62-1.11 10.33-1.77 16.11 1.19-.24 2.41-.47 3.62-.7.56-5.7 1.04-10.33 1.47-15.91 0-.01 0-.01.01-.01Zm14.52 12.46c-1.23.26-2.47.54-3.68.81.08-3.19.15-6.36.22-9.52 1.15-.23 2.31-.44 3.46-.64 0 3.09.01 6.21 0 9.35ZM295.39 284.666a162.996 162.996 0 0 1-2.475-2.344c3.025-3.028 6.051-6.056 9.079-9.118.803.753 1.606 1.518 2.41 2.259a1380.924 1380.924 0 0 1-9.003 9.204l-.011-.001Zm-4.02-35.378c-.673-.804-1.323-1.607-1.996-2.422-5.342 4.6-10.66 9.178-15.989 13.756.67.861 1.362 1.736 2.042 2.621a5723.67 5723.67 0 0 0 15.954-13.955h-.011Zm-6.425 24.971c-.74-.854-1.504-1.698-2.246-2.506l9.292-8.584c.732.784 1.464 1.58 2.194 2.399-3.065 2.898-6.152 5.794-9.229 8.703l-.011-.012ZM334.899 312.482a451.599 451.599 0 0 0-3.263-1.763c2.543-3.508 5.087-7.038 7.596-10.548 1.034.569 2.069 1.127 3.103 1.708-2.474 3.523-4.95 7.069-7.448 10.603h.012Zm-11.977-33.537c-.855-.663-1.71-1.327-2.576-1.991a2717.101 2717.101 0 0 1-14.729 16.449c.91.725 1.842 1.462 2.764 2.176 4.896-5.53 9.736-11.075 14.541-16.634Zm-1.782 25.504c-1.041-.651-2.023-1.322-3.03-1.971 2.744-3.369 5.477-6.749 8.196-10.096.986.601 1.936 1.224 2.909 1.848-2.676 3.407-5.375 6.813-8.063 10.219h-.012ZM382.639 332.002c-1.242-.372-2.474-.733-3.705-1.116 1.776-3.876 3.528-7.754 5.292-11.642 1.175.345 2.361.691 3.536 1.037-1.72 3.914-3.415 7.818-5.135 11.732l.012-.011Zm-20.001-30.285c-1.063-.478-2.115-.932-3.167-1.41a2557.073 2557.073 0 0 1-11.57 18.624c1.164.53 2.306 1.048 3.458 1.577a4243.604 4243.604 0 0 0 11.279-18.791Zm4.104 24.982c-1.193-.44-2.395-.903-3.6-1.331 2.047-3.768 4.071-7.525 6.096-11.306 1.124.424 2.272.837 3.407 1.261-1.956 3.797-3.936 7.592-5.903 11.376ZM432.393 340.852l-3.664-.209c1.145-4.017 2.314-8.032 3.481-12.024 1.19.079 2.393.148 3.582.228-1.145 4.005-2.254 8-3.388 12.006l-.011-.001Zm-24.369-24.678c-1.146-.24-2.304-.468-3.45-.708a2761.883 2761.883 0 0 0-7.601 20.382c1.225.278 2.464.512 3.712.792a2904.875 2904.875 0 0 1 7.339-20.466Zm8.548 23.113c-1.221-.139-2.442-.29-3.662-.453 1.286-4.043 2.583-8.063 3.879-12.082 1.199.138 2.395.311 3.558.447-1.25 4.022-2.513 8.055-3.775 12.088Z"/></g><path fill="#000" d="M193.6 61.584c-.459-1.108-.592-2.194-.397-3.256.207-1.067.715-2.036 1.524-2.905.821-.874 1.897-1.587 3.227-2.138 1.33-.552 2.589-.806 3.775-.764 1.199.037 2.243.362 3.132.975.902.608 1.582 1.466 2.042 2.574.459 1.109.585 2.197.378 3.264-.195 1.062-.703 2.03-1.524 2.905-.808.87-1.878 1.58-3.208 2.131-1.33.551-2.595.808-3.794.771-1.187-.042-2.231-.367-3.132-.975-.889-.612-1.563-1.473-2.023-2.582Zm1.718-.712c.475 1.145 1.285 1.863 2.43 2.154 1.15.302 2.495.135 4.035-.504 1.54-.638 2.609-1.47 3.208-2.498.604-1.016.668-2.096.193-3.242-.474-1.145-1.287-1.869-2.437-2.172-1.145-.29-2.488-.116-4.027.522-1.54.638-2.612 1.465-3.216 2.48-.598 1.028-.66 2.115-.186 3.26ZM218.208 127.458c-.438-1.117-.55-2.205-.335-3.263.227-1.064.753-2.022 1.578-2.876.838-.859 1.927-1.551 3.267-2.077 1.341-.527 2.604-.757 3.789-.693 1.198.06 2.236.405 3.113 1.034.89.625 1.554 1.496 1.993 2.613.438 1.117.544 2.207.317 3.27-.215 1.059-.741 2.017-1.579 2.876-.825.854-1.908 1.544-3.248 2.07-1.341.526-2.61.759-3.808.7-1.185-.065-2.223-.41-3.113-1.034-.877-.63-1.535-1.503-1.974-2.62Zm1.732-.68c.453 1.154 1.249 1.887 2.389 2.199 1.144.325 2.492.182 4.043-.427 1.552-.609 2.636-1.421 3.254-2.437.623-1.004.708-2.083.255-3.237-.453-1.155-1.251-1.894-2.396-2.218-1.139-.312-2.485-.164-4.036.445-1.551.609-2.639 1.416-3.262 2.419-.618 1.017-.7 2.102-.247 3.256ZM232.338 155.914c-.618-1.028-.908-2.082-.872-3.162.048-1.086.407-2.118 1.079-3.097.684-.986 1.643-1.85 2.877-2.591 1.235-.741 2.442-1.178 3.622-1.311 1.191-.14 2.272.028 3.241.503.982.468 1.781 1.217 2.399 2.246.617 1.029.902 2.086.855 3.172-.036 1.079-.396 2.112-1.08 3.098-.672.979-1.625 1.839-2.859 2.58-1.235.741-2.448 1.182-3.639 1.322-1.18.133-2.261-.035-3.242-.503-.969-.476-1.763-1.228-2.381-2.257Zm1.595-.957c.638 1.063 1.545 1.654 2.72 1.772 1.183.13 2.488-.234 3.917-1.092 1.429-.858 2.364-1.839 2.805-2.943.448-1.094.352-2.172-.286-3.235-.638-1.063-1.548-1.659-2.731-1.789-1.175-.119-2.477.251-3.906 1.109-1.429.858-2.367 1.833-2.815 2.926-.441 1.105-.342 2.189.296 3.252ZM367.666 291.472c-1.218-.508-2.163-1.252-2.835-2.232-.667-.993-1.022-2.142-1.065-3.447-.038-1.319.248-2.71.858-4.172.609-1.461 1.393-2.636 2.352-3.524.963-.901 2.03-1.457 3.199-1.669 1.174-.225 2.371-.084 3.589.424 1.218.509 2.161 1.259 2.827 2.252.672.98 1.027 2.129 1.065 3.448.043 1.305-.24 2.689-.85 4.151-.609 1.462-1.396 2.643-2.36 3.544-.958.888-2.024 1.444-3.199 1.669-1.169.212-2.362.064-3.581-.444Zm.788-1.889c1.259.526 2.447.457 3.566-.205 1.131-.656 2.05-1.83 2.756-3.522.706-1.692.894-3.171.563-4.437-.316-1.26-1.104-2.153-2.363-2.678-1.259-.525-2.454-.46-3.586.196-1.118.662-2.03 1.839-2.736 3.531-.706 1.692-.9 3.169-.584 4.429.33 1.266 1.125 2.161 2.384 2.686ZM298.898 245.909c-.819-.877-1.324-1.847-1.515-2.91-.18-1.072-.044-2.157.408-3.255.462-1.107 1.219-2.152 2.271-3.135 1.053-.983 2.142-1.663 3.268-2.04 1.135-.386 2.227-.448 3.275-.186 1.057.253 1.995.818 2.815 1.695.819.876 1.319 1.851 1.499 2.923.191 1.063.055 2.148-.407 3.255-.452 1.098-1.205 2.138-2.257 3.121-1.052.983-2.146 1.668-3.282 2.054-1.126.377-2.217.439-3.275.186-1.047-.262-1.981-.832-2.8-1.708Zm1.359-1.27c.846.906 1.857 1.294 3.031 1.164 1.183-.12 2.384-.749 3.602-1.887 1.217-1.138 1.926-2.293 2.127-3.466.209-1.162-.11-2.197-.956-3.103-.847-.906-1.862-1.299-3.045-1.178-1.174.13-2.37.764-3.588 1.901-1.218 1.138-1.931 2.288-2.141 3.451-.2 1.173.123 2.212.97 3.118ZM488.865 325.003c-1.125-.185-2.067-.623-2.826-1.313-.757-.703-1.283-1.599-1.579-2.687-.293-1.101-.328-2.327-.106-3.676.223-1.35.649-2.493 1.278-3.429.632-.949 1.418-1.628 2.359-2.037.942-.423 1.976-.541 3.101-.355 1.124.185 2.065.629 2.822 1.332.76.69 1.286 1.585 1.579 2.686.296 1.089.332 2.308.109 3.658-.222 1.35-.649 2.499-1.281 3.447-.629.937-1.415 1.616-2.358 2.038-.94.41-1.973.522-3.098.336Zm.288-1.743c1.162.191 2.148-.102 2.956-.88.822-.776 1.361-1.945 1.619-3.507.257-1.562.122-2.843-.406-3.842-.517-.996-1.356-1.59-2.518-1.782-1.162-.192-2.154.1-2.975.876-.809.778-1.342 1.949-1.6 3.511s-.128 2.841.388 3.838c.528.999 1.373 1.594 2.536 1.786ZM214.273 83.26l3.518 2.597.432 1.436-13.407 4.034-.576-1.915 10.898-3.279-2.991-2.233 2.126-.64ZM253.204 175.813l4.024 1.71.754 1.297-12.105 7.033-1.005-1.729 9.84-5.717-3.427-1.479 1.919-1.115ZM411.414 295.168l4.586-1.449 1.557.546-5.088 14.535-2.077-.727 4.136-11.815-3.921 1.214.807-2.304ZM332.359 259.418l4.372-.005 1.202.898-8.377 11.217-1.603-1.197 6.81-9.118-3.732-.016 1.328-1.779ZM275.629 206.807l4.221 1.137.926 1.181-11.016 8.639-1.235-1.573 8.955-7.023-3.598-.991 1.747-1.37ZM448.843 307.569l4.01-1.742 1.459.347-3.23 13.622-1.946-.462 2.626-11.073-3.432 1.468.513-2.16ZM526.235 318.499l4.01-1.742 1.46.346-3.23 13.622-1.946-.461 2.625-11.073-3.431 1.468.512-2.16Z"/><path fill="#000" fill-rule="evenodd" d="M555.614 325.853c-.266 1.12-.352 2.169-.26 3.147l1.952-.379c-.03-.696.055-1.466.254-2.307.385-1.622 1.03-2.812 1.936-3.57.919-.755 1.982-.989 3.188-.703 1.207.286 2.045.971 2.514 2.055.482 1.088.531 2.442.146 4.064l2.098-.284c.19-1.114.19-2.149 0-3.103-.227-1.178-.715-2.157-1.462-2.937-.743-.793-1.699-1.328-2.867-1.605-1.167-.277-2.261-.228-3.282.147-1.018.361-1.892 1.017-2.625 1.967-.729.937-1.26 2.106-1.592 3.508Z" clip-rule="evenodd"/><defs><linearGradient id="a" x1="-18.666" x2="120.834" y1="95" y2="199" gradientUnits="userSpaceOnUse"><stop stop-color="#D6FFBB"/><stop offset="1" stop-color="#5869DD"/></linearGradient><linearGradient id="b" x1="-69.666" x2="90.834" y1="72.496" y2="255.995" gradientUnits="userSpaceOnUse"><stop stop-color="#D6FFBB"/><stop offset="1" stop-color="#5869DD"/></linearGradient><linearGradient id="c" x1="38.834" x2="49.834" y1="312.499" y2="61.499" gradientUnits="userSpaceOnUse"><stop stop-color="#D6FFBB"/><stop offset="1" stop-color="#5869DD"/></linearGradient><linearGradient id="d" x1="-51.338" x2="-27.909" y1="121.562" y2="266.5" gradientUnits="userSpaceOnUse"><stop stop-color="#D6FFBB"/><stop offset="1" stop-color="#5869DD"/></linearGradient><linearGradient id="e" x1="-21.342" x2="49.006" y1="173.625" y2="173.625" gradientUnits="userSpaceOnUse"><stop stop-color="#D6FFBB"/><stop offset="1" stop-color="#5869DD"/></linearGradient><linearGradient id="f" x1="-6.393" x2="14.89" y1="140.494" y2="182.9" gradientUnits="userSpaceOnUse"><stop stop-color="#D6FFBB"/><stop offset="1" stop-color="#5869DD"/></linearGradient><linearGradient id="g" x1="-6.392" x2="14.891" y1="140.496" y2="182.902" gradientUnits="userSpaceOnUse"><stop stop-color="#D6FFBB"/><stop offset="1" stop-color="#5869DD"/></linearGradient><linearGradient id="h" x1="470.834" x2="336.834" y1="100" y2="364" gradientUnits="userSpaceOnUse"><stop stop-color="#D6FFBB"/><stop offset="1" stop-color="#5869DD"/></linearGradient><linearGradient id="i" x1="470.834" x2="336.834" y1="100" y2="364" gradientUnits="userSpaceOnUse"><stop stop-color="#D6FFBB"/><stop offset="1" stop-color="#5869DD"/></linearGradient></defs></svg>
