<svg width="49" height="48" viewBox="0 0 49 48" fill="none" xmlns="http://www.w3.org/2000/svg">
<path fill-rule="evenodd" clip-rule="evenodd" d="M18.8943 0.658203L19.825 4.54841C18.7985 4.794 17.8029 5.11884 16.8447 5.51619L15.3125 1.82128C16.4639 1.3438 17.6606 0.953366 18.8943 0.658203Z" fill="#96959A"/>
<path fill-rule="evenodd" clip-rule="evenodd" d="M11.9576 3.5332L14.0508 6.94181C13.1558 7.49144 12.3068 8.10987 11.5113 8.78989L8.91211 5.74947C9.86556 4.93439 10.8836 4.19271 11.9576 3.5332Z" fill="#9A999E"/>
<path fill-rule="evenodd" clip-rule="evenodd" d="M6.24947 8.41309L9.28989 11.0123C8.60987 11.8077 7.99144 12.6567 7.44181 13.5518L4.0332 11.4586C4.69271 10.3846 5.43439 9.36653 6.24947 8.41309Z" fill="#A09EA2"/>
<path fill-rule="evenodd" clip-rule="evenodd" d="M2.32128 14.8125L6.01618 16.3447C5.61884 17.3029 5.294 18.2985 5.04841 19.325L1.1582 18.3943C1.45337 17.1606 1.8438 15.9639 2.32128 14.8125Z" fill="#A5A3A7"/>
<path fill-rule="evenodd" clip-rule="evenodd" d="M0.572927 22.1152C0.52461 22.7372 0.5 23.3658 0.5 24.0001C0.5 24.6345 0.52461 25.263 0.572927 25.885L4.56091 25.5752C4.52059 25.0562 4.5 24.531 4.5 24.0001C4.5 23.4693 4.52059 22.944 4.56091 22.4251L0.572927 22.1152Z" fill="#A9A8AB"/>
<path fill-rule="evenodd" clip-rule="evenodd" d="M1.1582 29.6046L5.04841 28.6738C5.294 29.7003 5.61884 30.696 6.01618 31.6542L2.32128 33.1864C1.8438 32.0349 1.45337 30.8383 1.1582 29.6046Z" fill="#AEAEB0"/>
<path fill-rule="evenodd" clip-rule="evenodd" d="M4.0332 36.5414L7.44181 34.4482C7.99144 35.3433 8.60987 36.1923 9.2899 36.9877L6.24947 39.5869C5.43439 38.6335 4.69271 37.6154 4.0332 36.5414Z" fill="#B4B2B4"/>
<path fill-rule="evenodd" clip-rule="evenodd" d="M8.91406 42.2494L11.5133 39.209C12.3087 39.889 13.1577 40.5074 14.0527 41.0571L11.9596 44.4657C10.8856 43.8062 9.86751 43.0645 8.91406 42.2494Z" fill="#B8B7B9"/>
<path fill-rule="evenodd" clip-rule="evenodd" d="M15.3125 46.1793L16.8447 42.4844C17.8029 42.8817 18.7985 43.2066 19.825 43.4522L18.8943 47.3424C17.6606 47.0472 16.4639 46.6568 15.3125 46.1793Z" fill="#BDBBBE"/>
<path fill-rule="evenodd" clip-rule="evenodd" d="M22.6152 47.9274L22.9251 43.9395C23.444 43.9798 23.9693 44.0004 24.5001 44.0004C25.031 44.0004 25.5562 43.9798 26.0752 43.9395L26.385 47.9274C25.763 47.9758 25.1345 48.0004 24.5001 48.0004C23.8658 48.0004 23.2372 47.9758 22.6152 47.9274Z" fill="#C3C1C2"/>
<path fill-rule="evenodd" clip-rule="evenodd" d="M30.1046 47.3424L29.1738 43.4521C30.2003 43.2066 31.196 42.8817 32.1542 42.4844L33.6864 46.1793C32.5349 46.6568 31.3383 47.0472 30.1046 47.3424Z" fill="#C7C6C7"/>
<path fill-rule="evenodd" clip-rule="evenodd" d="M37.0424 44.4667L34.9492 41.058C35.8443 40.5084 36.6932 39.89 37.4887 39.21L40.0879 42.2504C39.1345 43.0655 38.1164 43.8071 37.0424 44.4667Z" fill="#CCCBCB"/>
<path fill-rule="evenodd" clip-rule="evenodd" d="M42.7494 39.5869L39.709 36.9877C40.389 36.1923 41.0074 35.3433 41.5571 34.4482L44.9657 36.5414C44.3062 37.6154 43.5645 38.6335 42.7494 39.5869Z" fill="#D2D0D0"/>
<path fill-rule="evenodd" clip-rule="evenodd" d="M46.6793 33.1864L42.9844 31.6542C43.3817 30.696 43.7066 29.7003 43.9522 28.6738L47.8424 29.6046C47.5472 30.8383 47.1568 32.0349 46.6793 33.1864Z" fill="#D6D4D5"/>
<path fill-rule="evenodd" clip-rule="evenodd" d="M48.4274 25.885L44.4395 25.5752C44.4798 25.0562 44.5004 24.531 44.5004 24.0001C44.5004 23.4693 44.4798 22.944 44.4395 22.4251L48.4274 22.1152C48.4758 22.7372 48.5004 23.3658 48.5004 24.0001C48.5004 24.6345 48.4758 25.263 48.4274 25.885Z" fill="#DBDAD9"/>
<path fill-rule="evenodd" clip-rule="evenodd" d="M47.8424 18.3943L43.9521 19.325C43.7066 18.2985 43.3817 17.3029 42.9844 16.3447L46.6793 14.8125C47.1568 15.9639 47.5472 17.1606 47.8424 18.3943Z" fill="#E0DFDD"/>
<path fill-rule="evenodd" clip-rule="evenodd" d="M44.9657 11.4586L41.5571 13.5518C41.0074 12.6567 40.389 11.8077 39.709 11.0123L42.7494 8.41309C43.5645 9.36653 44.3062 10.3846 44.9657 11.4586Z" fill="#E5E3E1"/>
<path fill-rule="evenodd" clip-rule="evenodd" d="M40.0879 5.74947L37.4887 8.78989C36.6932 8.10987 35.8443 7.49144 34.9492 6.94181L37.0424 3.5332C38.1164 4.19271 39.1345 4.93439 40.0879 5.74947Z" fill="#EAE8E6"/>
<path fill-rule="evenodd" clip-rule="evenodd" d="M33.6864 1.82128L32.1542 5.51618C31.196 5.11884 30.2003 4.794 29.1738 4.54841L30.1046 0.658203C31.3383 0.953366 32.5349 1.3438 33.6864 1.82128Z" fill="#EFEDEB"/>
<path fill-rule="evenodd" clip-rule="evenodd" d="M26.385 0.0729271L26.0752 4.06091C25.5562 4.02059 25.031 4 24.5001 4C23.9693 4 23.444 4.02059 22.9251 4.06091L22.6152 0.0729273C23.2372 0.02461 23.8658 0 24.5001 0C25.1345 0 25.763 0.0246099 26.385 0.0729271Z" fill="#919095"/>
</svg>

