<svg width="340" height="355" viewBox="0 0 340 355" fill="none" xmlns="http://www.w3.org/2000/svg">
<path d="M108.5 320.227C144.496 343.087 164.577 349.774 199.647 353.145C200.134 353.192 200.591 352.878 200.721 352.406C205.174 336.306 215.171 322.851 215.253 318.227L215.191 317.609C215.09 317.206 214.867 316.91 214.5 316.727C197.834 317.912 185.386 316.792 163.5 306.081C156.337 302.575 148.163 298.042 138.5 292.227L108.5 320.227Z" fill="url(#paint0_linear_6600_23520)"/>
<path d="M59 304.727C72.0894 320.431 84.8102 320.915 108.5 320.227L138.5 292.227L143.204 287.837C144.212 286.895 144.433 285.381 143.736 284.19C142.931 282.816 141.216 282.377 139.768 282.942C139.573 283.018 139.384 283.112 139.202 283.224C128.771 289.663 118.59 284.709 114 267.727L59 304.727Z" fill="url(#paint1_linear_6600_23520)"/>
<path d="M211.092 305.936C197.892 306.885 187.741 307.472 172.5 302.066L163.5 306.081C185.386 316.792 197.834 317.912 214.5 316.727C214.867 316.91 215.09 317.206 215.191 317.609L214.291 308.627C214.129 307.012 212.711 305.819 211.092 305.936Z" fill="black"/>
<path d="M114 267.727C118.59 284.709 128.771 289.663 139.202 283.224C139.384 283.112 139.573 283.018 139.768 282.942C131.573 284.668 124.21 278.547 120.5 264.227L114 267.727Z" fill="#5869DD"/>
<path d="M143.204 287.837L138.5 292.227C148.163 298.042 156.337 302.575 163.5 306.081L172.5 302.066C164.519 299.235 155.143 294.762 143.204 287.837Z" fill="#5869DD"/>
<path d="M108.5 320.227C84.8102 320.915 72.0894 320.431 59 304.727L114 267.727M108.5 320.227C144.496 343.087 164.577 349.774 199.647 353.145C200.134 353.192 200.591 352.878 200.721 352.406C205.174 336.306 215.171 322.851 215.253 318.227M108.5 320.227L138.5 292.227M138.5 292.227L143.204 287.837M138.5 292.227C148.163 298.042 156.337 302.575 163.5 306.081M114 267.727C118.59 284.709 128.771 289.663 139.202 283.224C139.384 283.112 139.573 283.018 139.768 282.942M114 267.727L120.5 264.227C124.21 278.547 131.573 284.668 139.768 282.942M143.204 287.837C144.212 286.895 144.433 285.381 143.736 284.19C142.931 282.816 141.216 282.377 139.768 282.942M143.204 287.837C155.143 294.762 164.519 299.235 172.5 302.066M172.5 302.066C187.741 307.472 197.892 306.885 211.092 305.936C212.711 305.819 214.129 307.012 214.291 308.627L215.191 317.609M172.5 302.066L163.5 306.081M163.5 306.081C185.386 316.792 197.834 317.912 214.5 316.727C214.867 316.91 215.09 317.206 215.191 317.609M215.253 318.227C215.257 317.999 215.236 317.793 215.191 317.609M215.253 318.227L215.191 317.609" stroke="black" stroke-width="2"/>
<path d="M-17.0344 240.546C-17.0344 274.496 0.417049 309.523 39.8075 324.073C1.41404 335.389 -40.9685 260.213 -17.0344 240.546Z" fill="#5869DD"/>
<path d="M66.9268 238.391C57.5168 223.592 51.9633 206.435 55.2921 193.364C56.3482 189.217 58.7046 185.487 61.792 182.902C34.4779 200.76 16.23 214.371 -17.0344 240.546C-17.0344 274.496 0.417049 309.523 39.8075 324.073C76.8304 301.195 94.1855 288.928 114.6 268.782C111.367 270.152 107.457 270.545 104.227 269.901C91.4832 267.362 76.9968 254.227 66.9268 238.391Z" fill="url(#paint2_linear_6600_23520)"/>
<path d="M75.7088 179.652C74.4731 179.489 73.3542 179.348 72.304 179.266C69.8328 179.073 67.4313 179.595 65.2368 180.658C64.0719 181.414 62.9242 182.161 61.792 182.902C58.7046 185.487 56.3482 189.217 55.2921 193.364C51.9633 206.435 57.5168 223.592 66.9268 238.391L106.138 233.002L75.7088 179.652Z" fill="#5869DD"/>
<path d="M120.992 260.213C120.967 259.602 120.827 258.983 120.584 258.329L106.138 233.002L66.9268 238.391C76.9968 254.227 91.4832 267.362 104.227 269.901C107.457 270.545 111.367 270.152 114.6 268.782C118.336 267.199 121.166 264.312 120.992 260.213Z" fill="black"/>
<path d="M66.9268 238.391C57.5168 223.592 51.9633 206.435 55.2921 193.364C56.3482 189.217 58.7046 185.487 61.792 182.902M66.9268 238.391C76.9968 254.227 91.4832 267.362 104.227 269.901C107.457 270.545 111.367 270.152 114.6 268.782M66.9268 238.391L106.138 233.002M106.138 233.002L75.7088 179.652C74.4731 179.489 73.3542 179.348 72.304 179.266C69.8328 179.073 67.4313 179.595 65.2368 180.658M106.138 233.002L120.584 258.329C120.827 258.983 120.967 259.602 120.992 260.213C121.166 264.312 118.336 267.199 114.6 268.782M65.2368 180.658C64.0719 181.414 62.9242 182.161 61.792 182.902M65.2368 180.658C64.0167 181.249 62.8606 182.007 61.792 182.902M-17.0344 240.546C-17.0344 274.496 0.417049 309.523 39.8075 324.073M-17.0344 240.546C-40.9685 260.213 1.41404 335.389 39.8075 324.073M-17.0344 240.546C16.23 214.371 34.4779 200.76 61.792 182.902M39.8075 324.073C76.8304 301.195 94.1855 288.928 114.6 268.782" stroke="black" stroke-width="2"/>
<path d="M287.514 230.601C316.04 209.672 307.679 149.791 268.838 96.8521C229.998 43.9133 175.387 17.9642 146.861 38.8931C130.399 50.9714 126.222 76.0234 133.099 105.227C138.138 126.627 149.112 150.255 165.537 172.642C180.917 193.604 198.77 210.335 216.496 221.599C243.537 238.781 270.284 243.243 287.514 230.601Z" fill="url(#paint3_linear_6600_23520)"/>
<path d="M165.537 172.642C149.112 150.255 138.138 126.627 133.099 105.227C110.33 145.644 96.8053 165.227 68.996 185.227C43.4993 209.727 91.4988 271.727 119.496 261.227C153.149 237.951 175.538 231.397 216.496 221.599C198.77 210.335 180.917 193.604 165.537 172.642Z" fill="url(#paint4_linear_6600_23520)"/>
<path d="M133.099 105.227C138.138 126.627 149.112 150.255 165.537 172.642C180.917 193.604 198.77 210.335 216.496 221.599M133.099 105.227C126.222 76.0234 130.399 50.9714 146.861 38.8931C175.387 17.9642 229.998 43.9133 268.838 96.8521C307.679 149.791 316.04 209.672 287.514 230.601C270.284 243.243 243.537 238.781 216.496 221.599M133.099 105.227C110.33 145.644 96.8053 165.227 68.996 185.227C43.4993 209.727 91.4988 271.727 119.496 261.227C153.149 237.951 175.538 231.397 216.496 221.599" stroke="black" stroke-width="2"/>
<path d="M213.5 105.731L160.926 130.231C177.888 155.42 187.427 169.498 210.511 185.232L246.5 145.731C227.5 156.232 200 116.732 213.5 105.731Z" fill="url(#paint5_linear_6600_23520)"/>
<path d="M213.5 105.731C232.5 101.732 254 132.732 246.5 145.731C227.5 156.232 200 116.732 213.5 105.731Z" fill="#5869DD"/>
<path d="M160.926 130.231C166.111 140.692 172.586 151.372 180.268 161.842C188.234 172.7 196.805 182.388 205.552 190.673L210.511 185.232C187.427 169.498 177.888 155.42 160.926 130.231Z" fill="black"/>
<path d="M283.352 217.9C305.595 201.581 295.506 150.024 260.818 102.744C226.129 55.4641 179.977 30.3659 157.734 46.6854C140.416 59.3909 142.697 93.4555 160.926 130.231L213.5 105.731C232.5 101.732 254 132.732 246.5 145.731L210.511 185.232L205.552 190.673C234.893 218.465 266.217 230.472 283.352 217.9Z" fill="url(#paint6_linear_6600_23520)"/>
<path d="M160.926 130.231C166.111 140.692 172.586 151.372 180.268 161.842C188.234 172.7 196.805 182.388 205.552 190.673M160.926 130.231C142.697 93.4555 140.416 59.3909 157.734 46.6854C179.977 30.3659 226.129 55.4641 260.818 102.744C295.506 150.024 305.595 201.581 283.352 217.9C266.217 230.472 234.893 218.465 205.552 190.673M160.926 130.231L213.5 105.731M160.926 130.231C177.888 155.42 187.427 169.498 210.511 185.232M213.5 105.731C232.5 101.732 254 132.732 246.5 145.731M213.5 105.731C200 116.732 227.5 156.232 246.5 145.731M246.5 145.731L210.511 185.232M205.552 190.673L210.511 185.232" stroke="black" stroke-width="2"/>
<path d="M215.998 112.341L228.357 126.226L229.887 123.433L218.239 110.346C217.688 109.728 216.74 109.673 216.121 110.223C215.502 110.774 215.447 111.722 215.998 112.341Z" fill="#F1EFED"/>
<path d="M232.655 117.05L227.469 111.223C226.918 110.604 225.97 110.549 225.351 111.1C224.733 111.65 224.677 112.599 225.228 113.217L231.132 119.85L232.655 117.05Z" fill="#F1EFED"/>
<path d="M216.318 117.682C215.767 117.064 214.819 117.009 214.2 117.559C213.581 118.11 213.526 119.058 214.077 119.677L222.399 129.026L223.922 126.226L216.318 117.682Z" fill="#F1EFED"/>
<path d="M230.72 138.376C231.271 138.995 232.219 139.05 232.838 138.499C233.457 137.948 233.512 137 232.961 136.381L223.922 126.226L222.399 129.026L230.72 138.376Z" fill="black"/>
<path d="M228.357 126.226L239.865 139.156C240.416 139.774 241.364 139.829 241.983 139.279C242.602 138.728 242.657 137.78 242.106 137.161L229.887 123.433L228.357 126.226Z" fill="black"/>
<path d="M242.594 128.215L232.655 117.05L231.132 119.85L240.353 130.21C240.904 130.829 241.852 130.884 242.471 130.333C243.09 129.782 243.145 128.834 242.594 128.215Z" fill="black"/>
<path d="M239.865 139.156L215.998 112.341M239.865 139.156C240.416 139.774 241.364 139.829 241.983 139.279C242.602 138.728 242.657 137.78 242.106 137.161L229.887 123.433M239.865 139.156L228.357 126.226M215.998 112.341C215.447 111.722 215.502 110.774 216.121 110.223C216.74 109.673 217.688 109.728 218.239 110.346L229.887 123.433M215.998 112.341L228.357 126.226M240.353 130.21L225.228 113.217M240.353 130.21C240.904 130.829 241.852 130.884 242.471 130.333C243.09 129.782 243.145 128.834 242.594 128.215M240.353 130.21L231.132 119.85M242.594 128.215L227.469 111.223M242.594 128.215L232.655 117.05M227.469 111.223C226.918 110.604 225.97 110.549 225.351 111.1C224.733 111.65 224.677 112.599 225.228 113.217M227.469 111.223L232.655 117.05M225.228 113.217L231.132 119.85M222.399 129.026L230.72 138.376C231.271 138.995 232.219 139.05 232.838 138.499C233.457 137.948 233.512 137 232.961 136.381L223.922 126.226M222.399 129.026L214.077 119.677C213.526 119.058 213.581 118.11 214.2 117.559C214.819 117.009 215.767 117.064 216.318 117.682L223.922 126.226M222.399 129.026L223.922 126.226M228.357 126.226L229.887 123.433M231.132 119.85L232.655 117.05" stroke="black" stroke-width="1.5"/>
<defs>
<linearGradient id="paint0_linear_6600_23520" x1="59" y1="308.688" x2="215.253" y2="308.688" gradientUnits="userSpaceOnUse">
<stop stop-color="#D6FFBB"/>
<stop offset="1" stop-color="#5869DD"/>
</linearGradient>
<linearGradient id="paint1_linear_6600_23520" x1="59" y1="308.688" x2="215.253" y2="308.688" gradientUnits="userSpaceOnUse">
<stop stop-color="#D6FFBB"/>
<stop offset="1" stop-color="#5869DD"/>
</linearGradient>
<linearGradient id="paint2_linear_6600_23520" x1="19" y1="192.227" x2="61" y2="275.227" gradientUnits="userSpaceOnUse">
<stop stop-color="#D6FFBB"/>
<stop offset="1" stop-color="#5869DD"/>
</linearGradient>
<linearGradient id="paint3_linear_6600_23520" x1="115.499" y1="137.727" x2="235.999" y2="140.727" gradientUnits="userSpaceOnUse">
<stop stop-color="#D6FFBB"/>
<stop offset="1" stop-color="#5869DD"/>
</linearGradient>
<linearGradient id="paint4_linear_6600_23520" x1="93.499" y1="119.227" x2="147.499" y2="238.727" gradientUnits="userSpaceOnUse">
<stop stop-color="#D6FFBB"/>
<stop offset="1" stop-color="#5869DD"/>
</linearGradient>
<linearGradient id="paint5_linear_6600_23520" x1="162" y1="100.732" x2="194" y2="178.732" gradientUnits="userSpaceOnUse">
<stop stop-color="#D6FFBB"/>
<stop offset="1" stop-color="#5869DD"/>
</linearGradient>
<linearGradient id="paint6_linear_6600_23520" x1="267" y1="-5.26844" x2="180.5" y2="152.232" gradientUnits="userSpaceOnUse">
<stop stop-color="#D6FFBB"/>
<stop offset="1" stop-color="#5869DD"/>
</linearGradient>
</defs>
</svg>
