<svg xmlns="http://www.w3.org/2000/svg" width="34" height="35" fill="none" viewBox="0 0 34 35"><path fill="#000" d="M20.355 3.592a13.851 13.851 0 0 0-4.35-.372c-.714.052-1.428.158-2.12.317L13.172.434a17.233 17.233 0 0 1 2.604-.39c1.806-.13 3.605.025 5.347.459l-.77 3.089Z"/><path fill="#000" d="M27.617 8.131a13.98 13.98 0 0 0-5.202-3.85l1.246-2.93a17.175 17.175 0 0 1 6.393 4.731l-2.437 2.05Z" opacity=".9"/><path fill="#000" d="m30.826 16.071-.001-.024a13.708 13.708 0 0 0-1.943-6.146l2.727-1.643A16.862 16.862 0 0 1 34 15.818l-3.174.253Z" opacity=".8"/><path fill="#000" d="m31.463 26.063-2.7-1.687a13.857 13.857 0 0 0 2.047-6.132l3.173.272a17.057 17.057 0 0 1-2.52 7.547Z" opacity=".7"/><path fill="#000" d="m23.406 32.84-1.196-2.95a13.925 13.925 0 0 0 5.26-3.765l2.404 2.086a17.116 17.116 0 0 1-6.468 4.63Z" opacity=".6"/><path fill="#000" d="M18.227 34.041a17.03 17.03 0 0 1-5.323-.452l.765-3.09c1.409.349 2.865.472 4.329.367.721-.052 1.442-.16 2.141-.322l.717 3.102c-.86.198-1.744.331-2.63.395Z" opacity=".5"/><path fill="#000" d="M10.367 32.744a17.176 17.176 0 0 1-6.4-4.72L6.4 25.97a13.978 13.978 0 0 0 5.208 3.841l-1.242 2.932Z" opacity=".4"/><path fill="#000" d="M2.408 25.851a16.867 16.867 0 0 1-2.405-7.583L0 18.22l3.175-.229.005.059a13.696 13.696 0 0 0 1.952 6.153l-2.724 1.647Z" opacity=".3"/><path fill="#000" d="m3.195 15.822-3.172-.277a17.054 17.054 0 0 1 2.532-7.543l2.697 1.69a13.858 13.858 0 0 0-2.057 6.13Z" opacity=".2"/></svg>
