<svg xmlns="http://www.w3.org/2000/svg" fill="none" viewBox="0 0 16 16"><path fill="#F1EFED" d="M2.454 4.828h.007c1.693 0 3.111 1.428 3.16 3.184h.842c.049-1.756 1.467-3.184 3.16-3.184h.012l.012-.001-.019-.72.002-.122h-.006c-1.694 0-3.112-1.428-3.16-3.184H5.62c-.049 1.756-1.466 3.184-3.16 3.184h-.012l.008.66-.002.183Zm11.492 4.196-.025-.713.002-.128h-.008c-1.224 0-2.249-1.034-2.284-2.305h-.842c-.036 1.27-1.06 2.304-2.284 2.305h-.017l.012.647-.004.195h.009c1.224 0 2.248 1.034 2.284 2.305h.842c.035-1.27 1.06-2.305 2.284-2.305h.031Zm-6.458 3.027H7.48c-1.224 0-2.249-1.034-2.284-2.305h-.842c-.035 1.27-1.06 2.305-2.284 2.305h-.016l.011.646-.003.196h.007c1.225 0 2.25 1.034 2.285 2.305h.842c.035-1.27 1.06-2.305 2.284-2.305h.03l-.024-.711.002-.131Z"/></svg>
