<svg xmlns="http://www.w3.org/2000/svg" width="79" height="76" fill="none" viewBox="0 0 79 76"><path fill="#5869DD" d="m42.289 1.749 9.796 19.99a3.116 3.116 0 0 0 2.346 1.716l21.9 3.208c2.552.372 3.575 3.538 1.724 5.349L62.207 47.573a3.154 3.154 0 0 0-.896 2.778l3.743 21.972c.438 2.56-2.235 4.515-4.518 3.31L40.95 65.26a3.11 3.11 0 0 0-2.9 0L18.464 75.632c-2.283 1.211-4.956-.743-4.518-3.309l3.743-21.972a3.154 3.154 0 0 0-.896-2.778L.945 32.012c-1.85-1.817-.828-4.977 1.724-5.349l21.9-3.208a3.125 3.125 0 0 0 2.346-1.715l9.796-19.991c1.134-2.332 4.434-2.332 5.578 0Z"/></svg>
