<svg width="664" height="157" viewBox="0 0 664 157" fill="none" xmlns="http://www.w3.org/2000/svg">
<g clip-path="url(#clip0_37976_22902)">
<mask id="mask0_37976_22902" style="mask-type:alpha" maskUnits="userSpaceOnUse" x="-171" y="-214" width="944" height="596">
<rect width="976.931" height="436.602" rx="218.301" transform="matrix(0.963872 -0.266367 0.085735 0.996318 -188.449 -3.47754)" fill="url(#paint0_linear_37976_22902)"/>
</mask>
<g mask="url(#mask0_37976_22902)">
<g opacity="0.1" filter="url(#filter0_f_37976_22902)">
<path d="M-48 -299H6.2857M-48 -299V-269.889M-48 -299L1472 -299M6.2857 -299H60.5714M6.2857 -299V-269.889M60.5714 -299L114.857 -299M60.5714 -299V-269.889M114.857 -299H169.143M114.857 -299V-269.889M169.143 -299H223.429M169.143 -299V-269.889M223.429 -299H277.714M223.429 -299V-269.889M277.714 -299H332M277.714 -299V-269.889M332 -299L386.286 -299M332 -299V-269.889M386.286 -299H440.571M386.286 -299V-269.889M440.571 -299H494.857M440.571 -299V-269.889M494.857 -299H549.143M494.857 -299V-269.889M549.143 -299L603.428 -299M549.143 -299V-269.889M603.428 -299H657.714M603.428 -299V-269.889M657.714 -299H712M657.714 -299V-269.889M712 -299H766.286M712 -299V-269.889M766.286 -299H820.571M766.286 -299V-269.889M820.571 -299L874.857 -299M820.571 -299V-269.889M874.857 -299H929.143M874.857 -299V-269.889M929.143 -299H983.428M929.143 -299V-269.889M983.428 -299H1037.71M983.428 -299V-269.889M1037.71 -299H1092M1037.71 -299V-269.889M1092 -299L1146.29 -299M1092 -299V-269.889M1146.29 -299H1200.57M1146.29 -299V-269.889M1200.57 -299H1254.86M1200.57 -299V-269.889M1254.86 -299H1309.14M1254.86 -299V-269.889M1309.14 -299H1363.43M1309.14 -299V-269.889M1363.43 -299L1417.71 -299M1363.43 -299V-269.889M1417.71 -299H1472M1417.71 -299V-269.889M1472 -299L1472 -269.889M-48 -269.889L-48 -240.778M-48 -269.889H6.2857M1472 -269.889V-240.778M1472 -269.889L1417.71 -269.889M-48 -240.778V-211.667M-48 -240.778H6.2857M1472 -240.778V-211.667M1472 -240.778L1417.71 -240.778M-48 -211.667L-48 -182.556M-48 -211.667H6.2857M1472 -211.667V-182.556M1472 -211.667L1417.71 -211.667M-48 -182.556V-153.444M-48 -182.556H6.2857M1472 -182.556V-153.444M1472 -182.556L1417.71 -182.556M-48 -153.444L-48 -124.333M-48 -153.444H6.2857M1472 -153.444V-124.333M1472 -153.444L1417.71 -153.444M-48 -124.333V-95.2222M-48 -124.333H6.2857M1472 -124.333V-95.2223M1472 -124.333L1417.71 -124.333M-48 -95.2222L-48 -66.1111M-48 -95.2222H6.2857M1472 -95.2223V-66.1112M1472 -95.2223L1417.71 -95.2223M-48 -66.1111V-37M-48 -66.1111H6.2857M1472 -66.1112V-37M1472 -66.1112L1417.71 -66.1112M-48 -37L-48 -7.88887M-48 -37H6.2857M1472 -37V-7.88894M1472 -37H1417.71M-48 -7.88887V21.2222M-48 -7.88887H6.2857M1472 -7.88894V21.2222M1472 -7.88894H1417.71M-48 21.2222L-48 50.3334M-48 21.2222H6.2857M1472 21.2222V50.3333M1472 21.2222H1417.71M-48 50.3334V79.4444M-48 50.3334H6.2857M1472 50.3333V79.4444M1472 50.3333H1417.71M-48 79.4444L-48 108.556M-48 79.4444H6.2857M1472 79.4444V108.556M1472 79.4444H1417.71M-48 108.556V137.667M-48 108.556H6.2857M1472 108.556V137.667M1472 108.556H1417.71M-48 137.667L-48 166.778M-48 137.667H6.2857M1472 137.667V166.778M1472 137.667H1417.71M-48 166.778V195.889M-48 166.778H6.2857M1472 166.778V195.889M1472 166.778H1417.71M-48 195.889L-48 225H6.2857M-48 195.889H6.2857M1472 195.889V225L1417.71 225M1472 195.889L1417.71 195.889M6.2857 -269.889L6.2857 -240.778M6.2857 -269.889H60.5714M6.2857 -240.778L60.5714 -240.778M6.2857 -240.778V-211.667M60.5714 -240.778V-269.889M60.5714 -240.778H114.857M60.5714 -240.778L60.5714 -211.667M60.5714 -269.889L114.857 -269.889M114.857 -269.889V-240.778M114.857 -269.889L169.143 -269.889M114.857 -240.778L169.143 -240.778M114.857 -240.778V-211.667M169.143 -240.778V-269.889M169.143 -240.778H223.429M169.143 -240.778V-211.667M169.143 -269.889H223.429M223.429 -269.889V-240.778M223.429 -269.889L277.714 -269.889M223.429 -240.778H277.714M223.429 -240.778V-211.667M277.714 -240.778V-269.889M277.714 -240.778L332 -240.778M277.714 -240.778V-211.667M277.714 -269.889L332 -269.889M332 -269.889V-240.778M332 -269.889L386.286 -269.889M332 -240.778L386.286 -240.778M332 -240.778V-211.667M386.286 -240.778V-269.889M386.286 -240.778H440.571M386.286 -240.778V-211.667M386.286 -269.889H440.571M440.571 -269.889V-240.778M440.571 -269.889L494.857 -269.889M440.571 -240.778H494.857M440.571 -240.778V-211.667M494.857 -240.778V-269.889M494.857 -240.778L549.143 -240.778M494.857 -240.778V-211.667M494.857 -269.889H549.143M549.143 -269.889V-240.778M549.143 -269.889L603.428 -269.889M549.143 -240.778V-211.667M549.143 -240.778H603.428M494.857 -211.667H549.143M494.857 -211.667H440.571M494.857 -211.667V-182.556M549.143 -211.667V-182.556M549.143 -211.667L603.428 -211.667M440.571 -211.667H386.286M440.571 -211.667V-182.556M386.286 -211.667V-182.556M386.286 -211.667L332 -211.667M386.286 -182.556H440.571M386.286 -182.556V-153.444M386.286 -182.556L332 -182.556M440.571 -182.556H494.857M440.571 -182.556V-153.444M494.857 -182.556H549.143M494.857 -182.556V-153.444M549.143 -182.556V-153.444M549.143 -182.556L603.428 -182.556M440.571 -153.444H494.857M440.571 -153.444V-124.333M440.571 -153.444L386.286 -153.444M494.857 -153.444L549.143 -153.444M494.857 -153.444V-124.333M6.2857 -211.667L60.5714 -211.667M6.2857 -211.667L6.2857 -182.556M60.5714 -211.667L114.857 -211.667M60.5714 -211.667V-182.556M114.857 -211.667H169.143M114.857 -211.667V-182.556M6.2857 225L6.2857 195.889M6.2857 225H60.5714M6.2857 195.889H60.5714M6.2857 195.889V166.778M60.5714 225V195.889M60.5714 225H114.857M60.5714 195.889L114.857 195.889M60.5714 195.889V166.778M114.857 225V195.889M114.857 225H169.143M114.857 195.889H169.143M114.857 195.889V166.778M169.143 225V195.889M169.143 225L223.429 225M169.143 195.889H223.429M169.143 195.889V166.778M223.429 225V195.889M223.429 225H277.714M223.429 195.889H277.714M223.429 195.889V166.778M277.714 225V195.889M277.714 225H332M277.714 195.889H332M277.714 195.889V166.778M332 225V195.889M332 225H386.286M332 195.889L386.286 195.889M332 195.889V166.778M386.286 225V195.889M386.286 225H440.571M386.286 195.889H440.571M386.286 195.889V166.778M440.571 225V195.889M440.571 225H494.857M440.571 195.889H494.857M440.571 195.889V137.667M494.857 225V195.889M494.857 225H549.143M494.857 195.889H549.143M494.857 195.889L494.857 166.778M549.143 225V195.889M549.143 225H603.428M549.143 195.889L603.428 195.889M549.143 195.889L549.143 166.778M603.428 225V195.889M603.428 225H657.714M603.428 195.889H657.714M603.428 195.889L603.428 166.778M657.714 225V195.889M657.714 225H712M657.714 195.889H712M657.714 195.889L657.714 166.778M712 225V195.889M712 225L766.286 225M712 195.889H766.286M712 195.889L712 166.778M766.286 225V195.889M766.286 225H820.571M766.286 195.889H820.571M766.286 195.889L766.286 166.778M820.571 225V195.889M820.571 225H874.857M820.571 195.889L874.857 195.889M820.571 195.889L820.571 166.778M874.857 225V195.889M874.857 225H929.143M874.857 195.889H929.143M874.857 195.889L874.857 166.778M929.143 225V195.889M929.143 225H983.428M929.143 195.889H983.428M929.143 195.889L929.143 166.778M983.428 225V195.889M983.428 225H1037.71M983.428 195.889H1037.71M983.428 195.889V166.778M1037.71 195.889V225M1037.71 195.889H1092M1037.71 195.889V166.778M1037.71 225H1092M1092 225V195.889M1092 225H1146.29M1092 195.889L1146.29 195.889M1092 195.889V166.778M1146.29 225V195.889M1146.29 225H1200.57M1146.29 195.889H1200.57M1146.29 195.889V166.778M1200.57 225V195.889M1200.57 225L1254.86 225M1200.57 195.889H1254.86M1200.57 195.889V166.778M1254.86 225V195.889M1254.86 225H1309.14M1254.86 195.889H1309.14M1254.86 195.889V166.778M1309.14 225V195.889M1309.14 225H1363.43M1309.14 195.889H1363.43M1309.14 195.889V166.778M1363.43 225V195.889M1363.43 225H1417.71M1363.43 195.889L1417.71 195.889M1363.43 195.889V166.778M1417.71 225V195.889M1417.71 195.889V166.778M332 -37H277.714M332 -37V-7.88887M332 -37L386.286 -37M332 -37L332 -66.1111M277.714 -37V-7.88887M277.714 -37H223.429M277.714 -37L277.714 -66.1111M277.714 -7.88887H332M277.714 -7.88887H223.429M277.714 -7.88887V21.2222M332 -7.88887L386.286 -7.88887M332 -7.88887V21.2222M549.143 -66.1111L494.857 -66.1111M549.143 -66.1111V-37M549.143 -66.1111H603.428M549.143 -66.1111V-95.2222M494.857 -66.1111V-37M494.857 -66.1111L440.571 -66.1111M494.857 -66.1111V-95.2222M494.857 -37H549.143M494.857 -37V-7.88891M494.857 -37H440.571M549.143 -37L603.428 -37M549.143 -37V-7.88891M657.714 21.2222H603.428M657.714 21.2222V50.3333M657.714 21.2222H712M657.714 21.2222V-7.88891M603.428 21.2222V50.3333M603.428 21.2222V-7.88891M603.428 21.2222L549.143 21.2222M603.428 50.3333H657.714M603.428 50.3333V79.4444M603.428 50.3333L494.857 50.3334M657.714 50.3333V79.4444M657.714 50.3333H712M1092 21.2222V-7.88891M1092 21.2222L1037.71 21.2222M1092 21.2222V79.4444M1092 21.2222L1146.29 21.2222M1092 -7.88891H1037.71M1092 -7.88891V-37M1092 -7.88891L1146.29 -7.88891M1037.71 -7.88891V21.2222M1037.71 -7.88891V-37M1037.71 -7.88891H983.428M1037.71 21.2222H983.428M1037.71 21.2222V50.3333M1200.57 -95.2223L1146.29 -95.2223M1200.57 -95.2223V-66.1112M1200.57 -95.2223V-124.333M1200.57 -95.2223H1254.86M1146.29 -95.2223V-66.1112M1146.29 -95.2223H1092M1146.29 -95.2223V-124.333M1146.29 -66.1112L1200.57 -66.1112M1146.29 -66.1112V-37M1146.29 -66.1112H1092M1200.57 -66.1112V-37M1200.57 -66.1112L1309.14 -66.1112M1363.43 -37V-7.88894M1363.43 -37L1417.71 -37M1363.43 -37H1309.14M1363.43 -37V-66.1112M1363.43 -7.88894L1417.71 -7.88894M1363.43 -7.88894V21.2222M1363.43 -7.88894H1309.14M1417.71 -7.88894V-37M1417.71 -7.88894V21.2222M1417.71 -37V-66.1112M1309.14 21.2222V50.3333M1309.14 21.2222H1363.43M1309.14 21.2222V-7.88894M1309.14 21.2222H1254.86M1309.14 50.3333H1363.43M1309.14 50.3333V79.4444M1309.14 50.3333H1254.86M1363.43 50.3333V21.2222M1363.43 50.3333L1417.71 50.3333M1363.43 50.3333V79.4444M1363.43 21.2222L1417.71 21.2222M1092 79.4444H1037.71M1092 79.4444V108.556M1092 79.4444L1146.29 79.4444M1037.71 79.4444V108.556M1037.71 79.4444V50.3333M1037.71 79.4444H983.428M1037.71 108.556H1092M1037.71 108.556V137.667M1037.71 108.556H983.428M1092 108.556V137.667M1092 108.556L1146.29 108.556M1092 137.667H1037.71M1092 137.667V166.778M1092 137.667L1146.29 137.667M1037.71 137.667V166.778M1037.71 137.667H983.428M1037.71 166.778H1092M1037.71 166.778H983.428M1092 166.778L1146.29 166.778M1146.29 137.667V166.778M1146.29 137.667H1200.57M1146.29 137.667V108.556M1146.29 166.778H1200.57M1200.57 166.778V137.667M1200.57 166.778H1254.86M1200.57 137.667V108.556M1200.57 137.667H1254.86M386.286 -124.333L440.571 -124.333M386.286 -124.333V-153.444M386.286 -124.333L332 -124.333M386.286 -124.333V-95.2222M440.571 -124.333V-95.2222M440.571 -124.333H494.857M386.286 -153.444L332 -153.444M549.143 -153.444H603.428M549.143 -153.444V-124.333M603.428 -153.444V-124.333M603.428 -153.444H657.714M603.428 -153.444V-182.556M603.428 -124.333H657.714M603.428 -124.333H549.143M603.428 -124.333V-95.2222M657.714 -124.333V-153.444M657.714 -124.333V-95.2222M657.714 -124.333L712 -124.333M657.714 -153.444V-182.556M657.714 -153.444L712 -153.444M712 -66.1111V-95.2222M712 -66.1111L657.714 -66.1111M712 -66.1111H766.286M712 -66.1111V-37M712 -95.2222L657.714 -95.2222M712 -95.2222V-124.333M712 -95.2222L820.571 -95.2223M657.714 -95.2222V-66.1111M657.714 -95.2222L603.428 -95.2222M657.714 -66.1111V-37M657.714 -66.1111H603.428M766.286 -66.1111V-37M766.286 -66.1111L820.571 -66.1111M766.286 -66.1111V-124.333M766.286 -37H820.571M766.286 -37V-7.88891M766.286 -37H712M820.571 -37V-66.1111M820.571 -37V-7.88891M820.571 -37L874.857 -37M820.571 -66.1111H874.857M820.571 -66.1111V-95.2223M874.857 -153.444V-124.333M874.857 -153.444L929.143 -153.444M874.857 -153.444V-182.556M874.857 -153.444H820.571M874.857 -124.333L929.143 -124.333M874.857 -124.333H820.571M874.857 -124.333V-95.2223M929.143 -124.333V-153.444M929.143 -124.333H983.428M929.143 -124.333V-95.2223M929.143 -153.444V-182.556M929.143 -153.444H983.428M929.143 -182.556L874.857 -182.556M929.143 -182.556V-211.667M929.143 -182.556H983.428M874.857 -182.556H820.571M874.857 -182.556V-211.667M1037.71 -182.556V-153.444M1037.71 -182.556L1092 -182.556M1037.71 -182.556V-211.667M1037.71 -182.556H983.428M1037.71 -153.444L1092 -153.444M1037.71 -153.444V-124.333M1037.71 -153.444H983.428M1092 -153.444V-182.556M1092 -153.444H1146.29M1092 -153.444V-124.333M1092 -182.556L1146.29 -182.556M1092 -182.556V-211.667M1146.29 -182.556V-153.444M1146.29 -182.556H1200.57M1146.29 -182.556V-211.667M1146.29 -153.444L1200.57 -153.444M1146.29 -153.444V-124.333M1200.57 -153.444V-182.556M1200.57 -153.444H1254.86M1200.57 -153.444V-124.333M1200.57 -182.556H1254.86M1200.57 -182.556V-211.667M1254.86 -153.444V-182.556M1254.86 -153.444L1309.14 -153.444M1254.86 -153.444V-124.333M1254.86 -182.556H1309.14M1254.86 -182.556V-240.778M1037.71 -95.2223L1092 -95.2223M1037.71 -95.2223V-124.333M1037.71 -95.2223H983.428M1037.71 -95.2223V-66.1111M1092 -95.2223V-124.333M1092 -95.2223V-66.1112M1092 -124.333L1037.71 -124.333M1092 -124.333H1146.29M1037.71 -124.333H983.428M983.428 -124.333V-95.2223M983.428 -124.333V-153.444M983.428 -95.2223H929.143M983.428 -95.2223V-66.1111M874.857 21.2222H929.143M874.857 21.2222V-7.88891M874.857 21.2222V50.3333M874.857 21.2222L820.571 21.2222M929.143 21.2222V-7.88891M929.143 21.2222V50.3333M929.143 21.2222H983.428M929.143 -7.88891H874.857M929.143 -7.88891H983.428M929.143 -7.88891V-37M874.857 -7.88891L820.571 -7.88891M874.857 -7.88891V-37M874.857 50.3333H929.143M874.857 50.3333L820.571 50.3333M874.857 50.3333V79.4444M929.143 50.3333H983.428M929.143 50.3333V79.4444M766.286 108.556H820.571M766.286 108.556V79.4444M766.286 108.556H712M766.286 108.556V137.667M820.571 108.556V79.4444M820.571 108.556L874.857 108.556M820.571 108.556V137.667M820.571 79.4444H766.286M820.571 79.4444V50.3333M820.571 79.4444L874.857 79.4444M766.286 79.4444H712M766.286 79.4444V50.3333M712 79.4444V108.556M712 79.4444H657.714M712 79.4444V50.3333M712 108.556H657.714M712 108.556V137.667M603.428 79.4444V108.556M603.428 79.4444H657.714M603.428 79.4444L549.143 79.4444M603.428 108.556H657.714M603.428 108.556L549.143 108.556M603.428 108.556V137.667M657.714 108.556V79.4444M657.714 108.556V137.667M494.857 79.4444V108.556M494.857 79.4444H549.143M494.857 79.4444H440.571M494.857 79.4444V50.3334M494.857 108.556H549.143M494.857 108.556V137.667M494.857 108.556H440.571M549.143 108.556V79.4444M549.143 108.556V137.667M549.143 79.4444V21.2222M440.571 137.667H494.857M440.571 137.667V108.556M440.571 137.667H386.286M494.857 137.667H549.143M494.857 137.667V166.778M440.571 108.556H386.286M440.571 108.556V79.4444M549.143 166.778L603.428 166.778M549.143 166.778V137.667M549.143 166.778H494.857M603.428 166.778V137.667M603.428 166.778H657.714M603.428 137.667L549.143 137.667M603.428 137.667H657.714M766.286 166.778V137.667M766.286 166.778H712M766.286 166.778H820.571M766.286 137.667H712M766.286 137.667H820.571M712 137.667V166.778M712 137.667H657.714M712 166.778H657.714M929.143 166.778V137.667M929.143 166.778H874.857M929.143 166.778H983.428M929.143 137.667L874.857 137.667M929.143 137.667V108.556M929.143 137.667H983.428M874.857 137.667V166.778M874.857 137.667V108.556M874.857 137.667L820.571 137.667M874.857 166.778L820.571 166.778M983.428 137.667V108.556M983.428 137.667V166.778M983.428 108.556H929.143M983.428 108.556V79.4444M929.143 108.556H874.857M929.143 108.556V79.4444M820.571 50.3333V21.2222M820.571 50.3333H766.286M874.857 79.4444V108.556M874.857 79.4444H929.143M820.571 137.667V166.778M1146.29 108.556V79.4444M1146.29 108.556H1200.57M1200.57 79.4444H1146.29M1200.57 79.4444V108.556M1200.57 79.4444L1254.86 79.4444M1200.57 79.4444V50.3333M1146.29 79.4444V50.3333M1200.57 108.556H1254.86M1309.14 137.667V108.556M1309.14 137.667H1254.86M1309.14 137.667H1363.43M1309.14 137.667V166.778M1309.14 108.556H1254.86M1309.14 108.556H1363.43M1309.14 108.556V79.4444M1254.86 108.556V137.667M1254.86 108.556V79.4444M1254.86 137.667V166.778M1363.43 137.667V108.556M1363.43 137.667V166.778M1363.43 137.667L1417.71 137.667M1363.43 108.556L1417.71 108.556M1363.43 108.556V79.4444M1363.43 166.778H1309.14M1363.43 166.778L1417.71 166.778M1309.14 166.778H1254.86M1417.71 166.778V137.667M1417.71 137.667V108.556M1417.71 108.556V79.4444M1417.71 79.4444L1363.43 79.4444M1417.71 79.4444V50.3333M1417.71 50.3333V21.2222M1363.43 79.4444H1309.14M1309.14 79.4444H1254.86M1254.86 50.3333V79.4444M1254.86 50.3333H1200.57M1254.86 50.3333V21.2222M657.714 166.778V137.667M712 50.3333V21.2222M712 50.3333H766.286M820.571 21.2222H766.286M820.571 21.2222V-7.88891M712 21.2222H766.286M712 21.2222V-7.88891M766.286 50.3333V21.2222M766.286 21.2222V-7.88891M820.571 -7.88891H766.286M766.286 -7.88891H712M657.714 -7.88891H712M657.714 -7.88891V-37M657.714 -7.88891H603.428M712 -7.88891V-37M712 -37H657.714M603.428 -66.1111V-37M603.428 -66.1111V-95.2222M603.428 -37L657.714 -37M603.428 -37V-7.88891M603.428 -7.88891L549.143 -7.88891M549.143 21.2222V-7.88891M549.143 21.2222H494.857M549.143 -7.88891H494.857M874.857 -37V-66.1111M874.857 -37H929.143M1037.71 -37H983.428M1037.71 -37H1092M1037.71 -37V-66.1111M983.428 -37V-7.88891M983.428 -37V-66.1111M983.428 -37H929.143M983.428 -7.88891V21.2222M1092 -37L1146.29 -37M1092 -37V-66.1112M1146.29 -7.88891V-37M1146.29 -7.88891H1200.57M1146.29 -7.88891V21.2222M1146.29 -37H1200.57M1200.57 -37V-7.88891M1200.57 -37L1254.86 -37M1200.57 -7.88891L1254.86 -7.88894M1200.57 -7.88891V21.2222M1254.86 -7.88894V-37M1254.86 -7.88894H1309.14M1254.86 -7.88894V21.2222M1254.86 -37H1309.14M1254.86 -37V-95.2223M983.428 21.2222V50.3333M332 108.556V137.667M332 108.556L386.286 108.556M332 108.556H277.714M332 108.556V79.4444M332 137.667L386.286 137.667M332 137.667V166.778M332 137.667H277.714M386.286 137.667V108.556M386.286 137.667V166.778M386.286 108.556V79.4444M494.857 166.778H386.286M386.286 166.778L332 166.778M332 166.778H277.714M223.429 166.778H277.714M223.429 166.778H169.143M223.429 166.778V137.667M277.714 166.778V137.667M169.143 166.778H114.857M169.143 166.778V137.667M60.5714 166.778L114.857 166.778M60.5714 166.778H6.2857M60.5714 166.778V137.667M114.857 166.778V137.667M6.2857 166.778L6.2857 137.667M6.2857 137.667V108.556M6.2857 137.667H60.5714M6.2857 108.556L6.2857 79.4444M6.2857 108.556H60.5714M6.2857 79.4444V50.3334M6.2857 79.4444H60.5714M60.5714 50.3334H6.2857M60.5714 50.3334V79.4444M60.5714 50.3334V21.2222M60.5714 50.3334L114.857 50.3334M6.2857 50.3334L6.2857 21.2222M60.5714 79.4444V108.556M60.5714 79.4444L114.857 79.4444M60.5714 21.2222H6.2857M60.5714 21.2222L114.857 21.2222M60.5714 21.2222L60.5714 -7.88887M6.2857 21.2222V-7.88887M114.857 50.3334V21.2222M114.857 50.3334L114.857 79.4444M114.857 50.3334H169.143M114.857 21.2222V-7.88887M114.857 21.2222H169.143M60.5714 -7.88887L114.857 -7.88887M60.5714 -7.88887V-37M60.5714 -7.88887H6.2857M114.857 -7.88887V-37M114.857 -7.88887H169.143M114.857 -37L60.5714 -37M114.857 -37V-66.1111M114.857 -37H169.143M60.5714 -37H6.2857M60.5714 -37V-66.1111M60.5714 -66.1111L6.2857 -66.1111M60.5714 -66.1111V-95.2222M60.5714 -66.1111H114.857M6.2857 -66.1111V-37M6.2857 -66.1111L6.2857 -95.2222M6.2857 -37L6.2857 -7.88887M60.5714 -95.2222L6.2857 -95.2222M60.5714 -95.2222L60.5714 -124.333M60.5714 -95.2222H114.857M6.2857 -95.2222V-124.333M60.5714 -124.333L6.2857 -124.333M60.5714 -124.333V-153.444M60.5714 -124.333H114.857M6.2857 -124.333L6.2857 -153.444M60.5714 -182.556L6.2857 -182.556M60.5714 -182.556V-153.444M60.5714 -182.556L114.857 -182.556M6.2857 -182.556V-153.444M6.2857 -153.444L60.5714 -153.444M60.5714 -153.444H114.857M60.5714 137.667L60.5714 108.556M60.5714 137.667L114.857 137.667M60.5714 108.556L114.857 108.556M169.143 137.667V108.556M169.143 137.667H114.857M169.143 137.667H223.429M169.143 108.556H114.857M169.143 108.556V79.4444M169.143 108.556H223.429M114.857 108.556V137.667M114.857 108.556V79.4444M169.143 79.4444H114.857M169.143 79.4444L169.143 50.3334M169.143 79.4444H223.429M169.143 50.3334H223.429M169.143 50.3334V21.2222M114.857 -95.2222V-66.1111M114.857 -95.2222L169.143 -95.2222M114.857 -95.2222V-124.333M114.857 -66.1111L169.143 -66.1111M169.143 -66.1111V-95.2222M169.143 -66.1111H223.429M169.143 -66.1111V-37M169.143 -95.2222V-124.333M169.143 -95.2222H223.429M114.857 -124.333L169.143 -124.333M114.857 -124.333V-153.444M169.143 -124.333V-153.444M169.143 -124.333H223.429M169.143 -153.444L114.857 -153.444M169.143 -153.444L169.143 -182.556M169.143 -153.444H223.429M114.857 -153.444L114.857 -182.556M169.143 -211.667V-182.556M169.143 -211.667H223.429M114.857 -182.556H169.143M169.143 -182.556H223.429M223.429 -211.667L277.714 -211.667M223.429 -211.667V-182.556M277.714 -211.667V-182.556M277.714 -211.667L332 -211.667M223.429 -153.444L277.714 -153.444M223.429 -153.444V-182.556M223.429 -153.444V-124.333M277.714 -153.444V-182.556M277.714 -153.444V-124.333M277.714 -153.444H332M277.714 -182.556H223.429M277.714 -182.556L332 -182.556M223.429 -95.2222L277.714 -95.2222M223.429 -95.2222V-124.333M223.429 -95.2222V-66.1111M277.714 -95.2222V-124.333M277.714 -95.2222V-66.1111M277.714 -95.2222H332M277.714 -124.333L223.429 -124.333M277.714 -124.333H332M223.429 -37L223.429 -66.1111M223.429 -37V-7.88887M223.429 -37H169.143M277.714 -66.1111L223.429 -66.1111M277.714 -66.1111H332M223.429 -7.88887V21.2222M223.429 -7.88887H169.143M277.714 79.4444V50.3334M277.714 79.4444H223.429M277.714 79.4444V108.556M277.714 79.4444H332M277.714 50.3334H223.429M277.714 50.3334V21.2222M277.714 50.3334H332M223.429 50.3334V79.4444M223.429 50.3334V21.2222M223.429 79.4444V108.556M277.714 108.556L223.429 108.556M277.714 108.556V137.667M223.429 108.556V137.667M223.429 137.667H277.714M277.714 21.2222H223.429M277.714 21.2222H332M223.429 21.2222H169.143M169.143 -7.88887V21.2222M169.143 -7.88887V-37M332 -211.667V-182.556M332 -182.556V-153.444M332 -153.444V-124.333M332 -124.333V-95.2222M386.286 -95.2222H332M386.286 -95.2222V-66.1111M386.286 -95.2222L440.571 -95.2222M332 -95.2222V-66.1111M386.286 -37L386.286 -66.1111M386.286 -37V-7.88887M386.286 -37H440.571M386.286 -66.1111H332M386.286 -66.1111L440.571 -66.1111M386.286 -7.88887V21.2222M386.286 -7.88887H440.571M332 21.2222L386.286 21.2222M332 21.2222V50.3334M386.286 21.2222V50.3334M386.286 21.2222H440.571M332 50.3334L386.286 50.3334M332 50.3334V79.4444M386.286 50.3334V79.4444M386.286 50.3334H440.571M332 79.4444L386.286 79.4444M386.286 79.4444H440.571M440.571 79.4444V50.3334M440.571 50.3334H494.857M440.571 50.3334V21.2222M494.857 50.3334V21.2222M494.857 21.2222L440.571 21.2222M494.857 21.2222V-7.88891M440.571 21.2222V-7.88887M494.857 -7.88891L440.571 -7.88887M440.571 -7.88887V-37M440.571 -37L440.571 -66.1111M440.571 -66.1111V-95.2222M494.857 -95.2222H440.571M494.857 -95.2222V-124.333M494.857 -95.2222L549.143 -95.2222M494.857 -124.333L549.143 -124.333M549.143 -124.333V-95.2222M549.143 -95.2222H603.428M603.428 -182.556V-211.667M603.428 -182.556L657.714 -182.556M603.428 -211.667V-240.778M603.428 -211.667L657.714 -211.667M657.714 -240.778L603.428 -240.778M657.714 -240.778V-211.667M657.714 -240.778H712M657.714 -240.778V-269.889M603.428 -240.778V-269.889M657.714 -211.667H712M657.714 -211.667V-182.556M712 -211.667V-240.778M712 -211.667V-182.556M712 -211.667H766.286M712 -240.778H766.286M712 -240.778V-269.889M657.714 -182.556H712M712 -182.556H766.286M712 -182.556V-153.444M820.571 -124.333V-153.444M820.571 -124.333L766.286 -124.333M820.571 -124.333V-95.2223M820.571 -153.444L766.286 -153.444M820.571 -153.444V-182.556M766.286 -153.444V-124.333M766.286 -153.444V-182.556M766.286 -153.444H712M766.286 -124.333H712M820.571 -182.556L766.286 -182.556M820.571 -182.556V-211.667M766.286 -182.556V-211.667M820.571 -211.667L766.286 -211.667M820.571 -211.667V-240.778M820.571 -211.667H874.857M766.286 -211.667V-240.778M820.571 -269.889L766.286 -269.889M820.571 -269.889V-240.778M820.571 -269.889L874.857 -269.889M766.286 -269.889V-240.778M766.286 -269.889H712M766.286 -240.778L820.571 -240.778M820.571 -240.778H874.857M603.428 -269.889L657.714 -269.889M657.714 -269.889L712 -269.889M712 -153.444V-124.333M1309.14 -37V-7.88894M1309.14 -37V-66.1112M1309.14 -66.1112H1363.43M1309.14 -66.1112V-95.2223M1363.43 -66.1112V-95.2223M1363.43 -66.1112H1417.71M1363.43 -95.2223H1309.14M1363.43 -95.2223V-124.333M1363.43 -95.2223H1417.71M1309.14 -95.2223V-124.333M1309.14 -95.2223L1254.86 -95.2223M1363.43 -124.333H1309.14M1363.43 -124.333V-153.444M1363.43 -124.333H1417.71M1309.14 -124.333V-153.444M1309.14 -124.333L1254.86 -124.333M1363.43 -153.444H1309.14M1363.43 -153.444V-182.556M1363.43 -153.444H1417.71M1309.14 -153.444V-182.556M1363.43 -182.556L1309.14 -182.556M1363.43 -182.556V-211.667M1363.43 -182.556L1417.71 -182.556M1309.14 -182.556V-211.667M1363.43 -211.667L1309.14 -211.667M1363.43 -211.667V-240.778M1363.43 -211.667L1417.71 -211.667M1309.14 -211.667V-240.778M1309.14 -211.667H1200.57M1363.43 -240.778L1309.14 -240.778M1363.43 -240.778V-269.889M1363.43 -240.778L1417.71 -240.778M1309.14 -240.778V-269.889M1309.14 -240.778H1254.86M1363.43 -269.889L1309.14 -269.889M1363.43 -269.889H1417.71M1309.14 -269.889H1254.86M1200.57 50.3333H1146.29M1200.57 50.3333V21.2222M1146.29 50.3333V21.2222M1146.29 50.3333L1037.71 50.3333M1200.57 21.2222H1146.29M1200.57 21.2222H1254.86M1037.71 50.3333L983.428 50.3333M983.428 50.3333V79.4444M929.143 79.4444H983.428M874.857 -66.1111L929.143 -66.1111M874.857 -66.1111V-95.2223M929.143 -66.1111V-95.2223M929.143 -66.1111H983.428M929.143 -66.1111V-37M929.143 -95.2223L874.857 -95.2223M874.857 -95.2223H820.571M983.428 -66.1111H1037.71M929.143 -240.778V-211.667M929.143 -240.778H983.428M929.143 -240.778L874.857 -240.778M929.143 -240.778V-269.889M929.143 -211.667L983.428 -211.667M929.143 -211.667L874.857 -211.667M983.428 -211.667V-240.778M983.428 -211.667H1037.71M983.428 -211.667V-182.556M983.428 -240.778H1037.71M983.428 -240.778V-269.889M1092 -240.778V-269.889M1092 -240.778L1037.71 -240.778M1092 -240.778H1146.29M1092 -240.778V-211.667M1092 -269.889H1037.71M1092 -269.889L1146.29 -269.889M1037.71 -269.889V-240.778M1037.71 -269.889L983.428 -269.889M1037.71 -240.778V-211.667M1146.29 -240.778V-269.889M1146.29 -240.778L1200.57 -240.778M1146.29 -240.778V-211.667M1146.29 -269.889H1200.57M1200.57 -269.889V-240.778M1200.57 -269.889L1254.86 -269.889M1200.57 -240.778L1254.86 -240.778M1200.57 -240.778V-211.667M1254.86 -240.778V-269.889M1146.29 -211.667L1200.57 -211.667M1146.29 -211.667L1092 -211.667M1037.71 -211.667L1092 -211.667M983.428 -182.556V-153.444M874.857 -240.778V-269.889M874.857 -240.778V-211.667M874.857 -269.889H929.143M929.143 -269.889H983.428M1417.71 -269.889V-240.778M1417.71 -240.778V-211.667M1417.71 -211.667V-182.556M1417.71 -153.444V-124.333M1417.71 -153.444V-182.556M1417.71 -124.333V-95.2223M1417.71 -95.2223V-66.1112M1200.57 -124.333H1254.86M1200.57 -124.333L1146.29 -124.333M1254.86 -95.2223V-124.333M1037.71 -66.1111L1092 -66.1112" stroke="#8F8E93"/>
</g>
</g>
<rect opacity="0.2" x="-8" y="-320" width="768" height="476" fill="#8F8E93" fill-opacity="0.3"/>
</g>
<defs>
<filter id="filter0_f_37976_22902" x="-52.5" y="-303.5" width="1529" height="533" filterUnits="userSpaceOnUse" color-interpolation-filters="sRGB">
<feFlood flood-opacity="0" result="BackgroundImageFix"/>
<feBlend mode="normal" in="SourceGraphic" in2="BackgroundImageFix" result="shape"/>
<feGaussianBlur stdDeviation="2" result="effect1_foregroundBlur_37976_22902"/>
</filter>
<linearGradient id="paint0_linear_37976_22902" x1="210.307" y1="119.437" x2="701.662" y2="108.657" gradientUnits="userSpaceOnUse">
<stop stop-color="#D9D9D9" stop-opacity="0"/>
<stop offset="0.273477" stop-color="#D9D9D9"/>
<stop offset="0.680795" stop-color="#D9D9D9"/>
<stop offset="1" stop-color="#D9D9D9" stop-opacity="0"/>
</linearGradient>
<clipPath id="clip0_37976_22902">
<rect width="664" height="157" rx="16" fill="white"/>
</clipPath>
</defs>
</svg>
