<svg xmlns="http://www.w3.org/2000/svg" fill="none" viewBox="0 0 22 22"><path fill="url(#a)" d="M11 .344C4.923.344 0 5.114 0 11c0 5.887 4.923 10.656 11 10.656S22 16.886 22 11C22 5.113 17.077.344 11 .344Zm5.402 7.3-1.805 8.242c-.133.584-.492.726-.993.45l-2.75-1.963-1.327 1.238c-.146.141-.27.262-.554.262l.195-2.712 5.097-4.46c.221-.189-.05-.296-.342-.107l-6.298 3.841-2.715-.82c-.59-.181-.603-.572.124-.847L15.64 6.806c.493-.172.923.116.763.838Z"/><defs><linearGradient id="a" x1="4.5" x2="22" y1="-6" y2="12.5" gradientUnits="userSpaceOnUse"><stop stop-color="#D6FFBB"/><stop offset="1" stop-color="#5869DD"/></linearGradient></defs></svg>
