<svg width="46" height="46" viewBox="0 0 46 46" fill="none" xmlns="http://www.w3.org/2000/svg">
<path d="M21.3815 4.15801C22.6056 2.93717 24.5868 2.93717 25.8109 4.15801L27.0321 5.37586C27.8266 6.16831 28.9841 6.47583 30.0672 6.1823L31.7537 5.72523C33.4324 5.27026 35.1608 6.26831 35.6059 7.94972L36.021 9.51741C36.3118 10.6162 37.1744 11.4715 38.2755 11.7532L39.8903 12.1664C41.5957 12.6027 42.6081 14.3568 42.1328 16.0517L41.7168 17.535C41.4059 18.6435 41.7273 19.8332 42.5541 20.6343L43.6766 21.7219C44.9483 22.9542 44.9483 24.9943 43.6766 26.2266L42.5541 27.3143C41.7273 28.1154 41.4059 29.305 41.7168 30.4135L42.1328 31.8969C42.6081 33.5918 41.5957 35.3459 39.8903 35.7822L38.2755 36.1953C37.1744 36.477 36.3118 37.3324 36.021 38.4311L35.6059 39.9988C35.1608 41.6802 33.4324 42.6783 31.7537 42.2233L30.0672 41.7663C28.9841 41.4727 27.8266 41.7802 27.0321 42.5727L25.8109 43.7905C24.5868 45.0114 22.6056 45.0114 21.3815 43.7905L20.1603 42.5727C19.3658 41.7802 18.2083 41.4727 17.1252 41.7663L15.4387 42.2233C13.76 42.6783 12.0316 41.6802 11.5865 39.9988L11.1714 38.4311C10.8806 37.3324 10.018 36.477 8.91691 36.1953L7.3021 35.7822C5.5967 35.3459 4.58429 33.5918 5.05962 31.8969L5.47561 30.4135C5.78646 29.3051 5.46506 28.1154 4.63831 27.3143L3.51585 26.2266C2.24411 24.9943 2.24411 22.9542 3.51585 21.7219L4.63831 20.6343C5.46506 19.8332 5.78646 18.6435 5.47561 17.535L5.05962 16.0517C4.58429 14.3568 5.5967 12.6027 7.3021 12.1664L8.9169 11.7532C10.018 11.4715 10.8806 10.6162 11.1714 9.51741L11.5865 7.94972C12.0316 6.26831 13.76 5.27026 15.4387 5.72523L17.1252 6.1823C18.2083 6.47584 19.3658 6.16831 20.1603 5.37586L21.3815 4.15801Z" fill="#5869DD" stroke="black"/>
<path d="M20.1901 2.20879C21.4142 0.987951 23.3954 0.98795 24.6195 2.20879L25.8407 3.42665C26.6352 4.21909 27.7926 4.52662 28.8758 4.23308L30.5623 3.77601C32.241 3.32104 33.9694 4.31909 34.4145 6.0005L34.8296 7.56819C35.1204 8.66693 35.983 9.52232 37.0841 9.80402L38.6989 10.2171C40.4043 10.6534 41.4167 12.4075 40.9414 14.1025L40.5254 15.5858C40.2145 16.6943 40.5359 17.8839 41.3627 18.6851L42.4851 19.7727C43.7569 21.005 43.7569 23.0451 42.4851 24.2774L41.3627 25.3651C40.5359 26.1662 40.2145 27.3558 40.5254 28.4643L40.9414 29.9476C41.4167 31.6426 40.4043 33.3967 38.6989 33.833L37.0841 34.2461C35.983 34.5278 35.1204 35.3832 34.8296 36.4819L34.4145 38.0496C33.9694 39.731 32.241 40.7291 30.5623 40.2741L28.8758 39.817C27.7926 39.5235 26.6352 39.831 25.8407 40.6235L24.6195 41.8413C23.3954 43.0622 21.4142 43.0622 20.1901 41.8413L18.9689 40.6235C18.1744 39.831 17.0169 39.5235 15.9338 39.817L14.2473 40.2741C12.5685 40.7291 10.8402 39.731 10.3951 38.0496L9.98004 36.4819C9.68917 35.3832 8.82662 34.5278 7.7255 34.2461L6.11069 33.833C4.4053 33.3967 3.39289 31.6426 3.86821 29.9476L4.2842 28.4643C4.59506 27.3558 4.27365 26.1662 3.4469 25.3651L2.32444 24.2774C1.0527 23.0451 1.0527 21.005 2.32444 19.7727L3.4469 18.6851C4.27365 17.8839 4.59506 16.6943 4.2842 15.5858L3.86821 14.1025C3.39289 12.4075 4.40529 10.6534 6.11069 10.2171L7.7255 9.80402C8.82662 9.52232 9.68917 8.66693 9.98004 7.56819L10.3951 6.0005C10.8402 4.3191 12.5685 3.32104 14.2473 3.77601L15.9338 4.23308C17.0169 4.52662 18.1744 4.21909 18.9689 3.42665L20.1901 2.20879Z" fill="url(#paint0_linear_38377_41666)" stroke="black"/>
<path d="M15.0195 25.1493L20.3847 30.4235L33.8374 17.2986L34.8828 15.2432" stroke="black" stroke-width="2.5" stroke-linejoin="round"/>
<path fill-rule="evenodd" clip-rule="evenodd" d="M35.6294 15.5537L20.9646 29.9699C20.2662 30.6565 19.1339 30.6565 18.4355 29.9699L13.0703 24.6957L15.5995 22.2094L19.7 26.2404L33.1002 13.0674L35.6294 15.5537Z" fill="#F1EFED" stroke="black" stroke-linejoin="round"/>
<defs>
<linearGradient id="paint0_linear_38377_41666" x1="-2.6752" y1="12.3275" x2="60.0507" y2="38.2228" gradientUnits="userSpaceOnUse">
<stop stop-color="#D6FFBB"/>
<stop offset="1" stop-color="#5869DD"/>
</linearGradient>
</defs>
</svg>
