<svg xmlns="http://www.w3.org/2000/svg" width="30" height="24" fill="none" viewBox="0 0 30 24"><path fill="#272C2F" d="M26.266 6.22c.017.25.017.5.017.752 0 7.68-5.847 16.54-16.54 16.54v-.005c-3.158.004-6.25-.9-8.91-2.606a11.672 11.672 0 0 0 8.603-2.41 5.82 5.82 0 0 1-5.43-4.036c.87.168 1.769.133 2.624-.1a5.813 5.813 0 0 1-4.663-5.698v-.074c.808.45 1.713.7 2.638.728a5.82 5.82 0 0 1-1.799-7.762 16.498 16.498 0 0 0 11.98 6.073 5.82 5.82 0 0 1 9.906-5.302A11.665 11.665 0 0 0 28.384.91a5.835 5.835 0 0 1-2.556 3.214 11.56 11.56 0 0 0 3.339-.915 11.808 11.808 0 0 1-2.901 3.011Z"/></svg>
