<svg xmlns="http://www.w3.org/2000/svg" fill="none" viewBox="0 0 22 22"><path fill="url(#a)" d="M11 0C4.923 0 0 4.923 0 11c0 2.42.77 4.648 2.09 6.462L.578 21.45l4.372-1.265A10.883 10.883 0 0 0 11 22c6.078 0 11-4.922 11-11 0-6.077-4.922-11-11-11Zm5.858 15.565-1.183 1.155c-1.238 1.238-4.51-.11-7.398-3.025-2.887-2.888-4.18-6.16-3.024-7.37l1.182-1.183c.44-.44 1.183-.44 1.65 0l1.732 1.733c.605.605.358 1.65-.44 1.898-.55.192-.934.797-.742 1.347.303 1.293 1.98 2.888 3.217 3.19.55.137 1.183-.193 1.348-.742.248-.798 1.293-1.045 1.898-.44l1.732 1.732c.44.468.44 1.21.028 1.705Z"/><defs><linearGradient id="a" x1="0" x2="19" y1="-5.5" y2="15.5" gradientUnits="userSpaceOnUse"><stop stop-color="#D6FFBB"/><stop offset="1" stop-color="#5869DD"/></linearGradient></defs></svg>
