<svg xmlns="http://www.w3.org/2000/svg" width="25" height="25" fill="none" viewBox="0 0 25 25"><path fill="#fff" d="M24.583 22.66H.417a.416.416 0 1 0 0 .834h24.166a.416.416 0 1 0 0-.834ZM2.917 21.66a.432.432 0 0 0 .082-.008l4.121-.833c.017-.004.032-.012.048-.017l.041-.015a.413.413 0 0 0 .123-.082L20.26 7.777c.004-.004.01-.005.013-.009.004-.004.005-.01.009-.013l1.847-1.847c.24-.237.371-.551.371-.887 0-.335-.132-.65-.369-.884l-2.107-2.106c-.472-.478-1.3-.476-1.77-.002L3.457 16.83a.414.414 0 0 0-.082.122l-.015.042c-.006.016-.014.03-.017.047l-.834 4.121a.417.417 0 0 0 .409.5ZM18.845 2.617a.42.42 0 0 1 .589.001l2.11 2.11a.41.41 0 0 1-.002.588l-1.566 1.566-2.698-2.698 1.567-1.567ZM16.69 4.773l2.698 2.698-12.35 12.35-2.698-2.698 12.35-12.35ZM4.005 17.967l2.189 2.189-2.744.555.555-2.744Z"/></svg>
