<svg width="32" height="28" viewBox="0 0 32 28" fill="none" xmlns="http://www.w3.org/2000/svg">
<path d="M20.3345 8.45764L20.3346 8.45787C20.5892 8.93744 21.0708 9.25535 21.6114 9.32834L30.0318 10.468L30.0322 10.468C30.6473 10.5508 30.7812 11.1809 30.4264 11.5017L30.4258 11.5023L24.3323 17.0308L24.3316 17.0314C23.9289 17.3981 23.7321 17.9374 23.8319 18.4786C23.8319 18.4786 23.832 18.4786 23.832 18.4787L25.2712 26.2845L25.2712 26.2848C25.3139 26.5154 25.2129 26.7294 25.0064 26.8691C24.7979 27.0101 24.5115 27.0499 24.2452 26.9201C24.2451 26.9201 24.245 26.92 24.2449 26.92L16.7147 23.2352L16.7139 23.2348C16.227 22.9977 15.648 22.9977 15.1611 23.2348L15.1603 23.2352L7.62957 26.9202L7.62928 26.9204C7.36296 27.0509 7.07682 27.0113 6.86857 26.8705C6.66246 26.7311 6.56094 26.5167 6.60379 26.2846L6.60381 26.2845L8.04304 18.4787C8.04304 18.4786 8.04305 18.4786 8.04306 18.4786C8.14293 17.9374 7.94606 17.3981 7.54341 17.0314L7.54271 17.0308L1.44922 11.5023L1.44915 11.5022C1.09295 11.1791 1.22829 10.5508 1.84283 10.468L1.84318 10.468L10.2638 9.32832L10.264 9.3283C10.8015 9.25533 11.2854 8.93804 11.5404 8.45787L11.5405 8.45764L15.3069 1.3555L15.3076 1.35406C15.5552 0.883623 16.3155 0.87977 16.5682 1.35576L20.3345 8.45764Z" fill="#F1EFED" stroke="#8F8E93"/>
</svg>
