<svg xmlns="http://www.w3.org/2000/svg" width="432" height="39" fill="none"><path fill="#F1EFED" d="M10.94 11.07v10.928h16.392V11.071h-5.464V5.607h-5.463v5.464H10.94zm-10.927 0h5.464V5.607h5.464V.143h16.391v5.464h5.464v5.464h5.464V38.39H27.331V27.462H10.94v10.927H.012V11.07zM43.723.144h10.928v32.782h16.39L71.043.145H81.97v32.783h-5.464v5.464h-27.32v-5.465h-5.463V.144zm54.638 5.464v27.32h10.927v-5.464h5.464V11.072h-5.463V5.608H98.36zM87.434.144h27.319v5.464h5.463v5.464h5.464v16.392h-5.464v5.463h-5.464v5.464H87.433V.144zm81.957.002v5.463h-10.928v27.32h10.927v5.463h-32.783v-5.464h10.928V5.609h-10.927V.145h32.783zm43.71 0V5.61h-10.928v32.783h-10.928V5.61h-10.927V.146h32.783zm87.42.002v5.464h-10.928v32.782h-10.928V5.61H267.74V.147h32.782zm43.71 0v5.464h-10.928v27.319h10.928v5.464h-32.783V32.93h10.928V5.61h-10.928V.149h32.783zm5.463 0h10.928v5.465h5.464v5.463h5.464V5.613h5.463V.149h10.928v38.247h-10.927V22.003h-5.464v5.464h-5.464v-5.464h-5.464v16.391h-10.927V.149zm43.71.001h38.247v5.465h-27.319V16.54h21.855v5.464h-21.855v10.927h27.32l-.002 5.464h-38.246V.149z"/></svg>
