<svg xmlns="http://www.w3.org/2000/svg" width="361" height="192" fill="none"><defs><linearGradient id="a" x1="-.019" x2="1.165" y1=".384" y2="1.091"><stop stop-color="#D6FFBB"/><stop offset="1" stop-color="#5869DD"/></linearGradient><linearGradient id="b" x1="-.081" x2="1.214" y1=".415" y2=".938"><stop stop-color="#D6FFBB"/><stop offset="1" stop-color="#5869DD"/></linearGradient><linearGradient id="c" x1="-.163" x2=".828" y1=".315" y2=".444"><stop stop-color="#D6FFBB"/><stop offset="1" stop-color="#5869DD"/></linearGradient><linearGradient id="d" x1="-21.153" x2="3.755" y1=".21" y2=".21"><stop stop-color="#D6FFBB"/><stop offset="1" stop-color="#5869DD"/></linearGradient><linearGradient id="e" x1="0" x2="1" y1=".657" y2=".657"><stop stop-color="#D6FFBB"/><stop offset="1" stop-color="#5869DD"/></linearGradient><clipPath id="f"><path fill="#fff" d="M95.285 91.142h169.731v86.018H95.285z"/></clipPath></defs><path fill="#000" d="M0 174.562a205.91 205.91 0 0 0 9.393 6.659l-.07.107A187.023 187.023 0 0 1 0 174.562zM19.24 187.188a56.117 56.117 0 0 0 5.185 2.473 19.8 19.8 0 0 0 5.476 1.536v.369a19.873 19.873 0 0 1-5.568-1.598 56.524 56.524 0 0 1-5.185-2.55l.093-.23zM36.063 183.363c.153-1.897.084-3.84.069-5.737a27.824 27.824 0 0 1 .384-5.798l.606.13a27.776 27.776 0 0 0-.43 5.668c0 1.92.046 3.84-.13 5.783l-.5-.046zM44.668 164.171a13.297 13.297 0 0 1 5.798 1.036 30.341 30.341 0 0 1 5.17 2.704l-.446.699a29.573 29.573 0 0 0-5.015-2.665 12.773 12.773 0 0 0-5.446-1.03l-.061-.744zM64.799 174.977c1.459 1.251 2.895 2.534 4.37 3.74.73.602 1.5 1.154 2.304 1.651a25.88 25.88 0 0 0 2.465 1.39l-.438.868c-.871-.44-1.72-.925-2.542-1.452a22.978 22.978 0 0 1-2.365-1.735c-1.49-1.237-2.919-2.519-4.362-3.779l.568-.683zM84.656 182.91a15.564 15.564 0 0 0 4.739-2.872 31.81 31.81 0 0 0 3.894-4.101l.86.706a32.307 32.307 0 0 1-4.063 4.209 16.296 16.296 0 0 1-5.084 3.072l-.346-1.014zM99.977 166.605c1.098-1.582 2.219-3.149 3.425-4.669.607-.768 1.229-1.536 1.874-2.235.33-.369.66-.722 1.006-1.075.346-.354.73-.715.975-.991l.953.814c-.4.43-.707.691-1.045 1.044-.338.354-.653.684-.968 1.03a45.264 45.264 0 0 0-1.843 2.165c-1.19 1.483-2.304 3.072-3.41 4.608l-.967-.691zM115.121 149.494a38.225 38.225 0 0 1 10.983 3.97l-.607 1.183a37.066 37.066 0 0 0-10.591-3.84l.215-1.313zM136.172 159.109a54.143 54.143 0 0 0 10.345 4.693l-.407 1.313a55.518 55.518 0 0 1-10.598-4.823l.66-1.183zM155.961 160.661a57.85 57.85 0 0 0 6.613-9.216l1.213.768a58.807 58.807 0 0 1-6.812 9.454l-1.014-1.006zM168.836 141.699l6.95-9.209 1.16.899-6.95 9.17-1.16-.86zM182.855 123.389l7.12-9.055 1.19.937-7.134 9.039-1.176-.921zM197.059 105.256l3.509-4.562.876-1.137.937-1.128 1.866-2.25 1.122 1.02-1.813 2.182-.899 1.09-.875 1.145-3.51 4.577-1.213-.937zM213.309 88.775c3.4-1.96 7.084-3.38 10.921-4.209l.322 1.429a36.278 36.278 0 0 0-10.491 4.07l-.752-1.29zM235.789 83.214c3.84-.115 7.726 0 11.574.177l-.061 1.413c-3.84-.161-7.681-.269-11.467-.146l-.046-1.444zM258.937 84.45a17.904 17.904 0 0 1 5.583 2.097 19.225 19.225 0 0 1 4.485 3.91l-1.029.906a17.79 17.79 0 0 0-4.17-3.625 16.132 16.132 0 0 0-5.154-1.92l.285-1.367zM276.233 99.42c.681.74 1.288 1.545 1.813 2.403a6.646 6.646 0 0 1 .453 6.144 6.043 6.043 0 0 1-.338.768 1.47 1.47 0 0 1-1.014.768 1.618 1.618 0 0 1-1.144-.291 3.518 3.518 0 0 1-.661-.569l.96-.914c.127.138.269.262.423.369a.605.605 0 0 0 .215.1c-.046 0 0 0 .076-.123.092-.18.174-.365.246-.553a5.71 5.71 0 0 0 .415-2.619 5.581 5.581 0 0 0-.768-2.427 13.787 13.787 0 0 0-1.659-2.181l.983-.876zM270.762 97.745a101.446 101.446 0 0 1-1.813-11.443l1.229-.13a105.619 105.619 0 0 0 1.859 11.289l-1.275.284zM268.578 74.705a62.513 62.513 0 0 1 1.475-11.52l1.067.238a61.6 61.6 0 0 0-1.367 11.32l-1.175-.038zM273.836 52.21a56.786 56.786 0 0 1 6.029-9.915l.768.576a55.089 55.089 0 0 0-5.86 9.807l-.937-.468zM287.66 33.723a84.142 84.142 0 0 1 9.024-7.25l.469.669a84.473 84.473 0 0 0-8.886 7.227l-.607-.646zM306.477 20.36a150.65 150.65 0 0 1 10.314-5.2l.253.546c-3.463 1.643-6.912 3.395-10.206 5.292l-.361-.638zM327.398 10.637l10.799-4.04.115.338-10.737 4.147-.177-.445zM349.164 3.041 360.277 0l.023.1-11.075 3.156-.061-.215zM266.932 177.646v3.902l4.638-3.301-4.638-.601zM279.668 104.327a7.68 7.68 0 0 1 6.816 8.072c.549-6.574 1.715-10.514 4.099-14.18-2.507 2.878-5.559 5.36-10.915 6.108z"/><path fill="#000" d="m83.761 82.477 195.907 21.85L86.435 79.766a9.19 9.19 0 0 0-7.062 2.1l4.388.611z"/><path fill="#5869DD" d="M296.872 98.575v61.472l27.286-48.651a9.738 9.738 0 0 0 1.25-4.373c.939-23.875-3.058-38.229-11.243-45.67l-19.347 31.63c1.389 1.475 2.181 3.461 2.054 5.592z"/><path fill="url(#a)" d="m88.835 66.349 200.938 24.154a8.087 8.087 0 0 1 5.045 2.48l19.347-31.63-193.096-21.497a7.683 7.683 0 0 0-6.098 2.03L88.835 66.349z"/><path fill="url(#b)" d="m286.484 112.399-3.039 53.024c-.234 5.405-3.886 10.142-9.25 9.433L81.79 149.426l-3.623-.478a9.217 9.217 0 0 1-7.946-10.205l5.938-50.898a9.183 9.183 0 0 1 3.214-5.979 9.19 9.19 0 0 1 7.062-2.1l193.233 24.561c5.356-.748 8.408-3.23 10.915-6.108 1.122-1.724 2.512-3.387 4.235-5.236a8.087 8.087 0 0 0-5.045-2.48L88.835 66.349c-4.89 0-14.16 7.667-16.423 14.322-.168.493-.248 1.009-.293 1.527l-5.64 65.001a4.609 4.609 0 0 0 3.998 4.968l24.86 3.224 171.595 22.255 4.638.601 8.582 1.113c2.384 0 4.486-.855 6.332-2.224v-64.737z"/><path fill="url(#c)" d="m83.761 82.477-1.97 50.253a9.216 9.216 0 0 0 8.113 9.512l193.541 23.181 3.039-53.024a7.68 7.68 0 0 0-6.816-8.072L83.761 82.477z"/><path fill="#5869DD" d="m81.79 132.73 1.971-50.253-4.388-.61-4.659 39.97-.87 16.906c-.583 5.001 2.954 10.023 7.945 10.683l192.406 25.43c5.364.709 9.016-4.028 9.25-9.433L89.904 142.242a9.216 9.216 0 0 1-8.114-9.512z"/><path fill="url(#d)" d="M296.872 160.047V98.575c.127-2.13-.665-4.117-2.054-5.592-1.463 1.7-2.754 3.537-4.235 5.236-2.384 3.666-3.55 7.606-4.099 14.18v64.737c5.606-4.156 8.843-13.045 10.388-17.089z"/><path fill="#F1EFED" d="m76.159 87.845-5.938 50.898a9.217 9.217 0 0 0 7.946 10.205l3.622.478c-4.99-.66-8.528-5.682-7.945-10.683l.87-16.906 4.66-39.97a9.183 9.183 0 0 0-3.215 5.978z"/><path fill="#5869DD" d="M95.337 155.391v4.656l171.595 21.501v-3.902L95.337 155.391z"/><path fill="#000" d="m81.79 132.73-.767-.03.768.03zm8.114 9.512-.092.763.092-.763zm189.764-37.915-.085.763.085-.763zm17.204-5.752-.767-.046-.001.023v.023h.768zm-7.099-8.072-.091.762.01.001.081-.763zm24.392-29.15.517-.568-.184-.167-.248-.028-.085.763zm-243.944 77.39-.763-.089.763.089zm5.938-50.898-.763-.089.763.09zm10.276-8.08.097-.761h-.004l-.093.762zm187.76 95.091.101-.761-.101.761zM81.79 149.426l-.101.762.1-.762zm-3.623-.478.1-.762-.1.762zm-11.689-1.749-.765-.067.765.067zm5.64-65-.765-.067.766.066zm.294-1.528-.728-.247.728.247zm-1.935 71.496.098-.762-.098.762zm209.675 27.193-.099.762.049.006h.05v-.768zM73.844 138.743l.763.089.003-.025.001-.025-.767-.039zm5.53-56.877-.496-.587.495.587zm-4.66 39.971-.763-.089-.002.025-.002.024.767.04zm40.257-79.951.525.56-.525-.56zM95.337 155.39l.099-.762-.1.762zm0 4.656h-.768v.678l.672.084.096-.762zm171.595 21.501-.095.762.297.037.244-.174-.446-.625zm0-3.902.099-.762-.099.762zM121.069 39.856l.085-.763-.085.763zm203.089 71.54.67.376-.67-.376zm1.25-4.373-.768-.03.768.03zM82.994 82.447l-1.97 50.253 1.534.06 1.97-50.253-1.534-.06zm6.818 60.558 193.542 23.18.182-1.525-193.541-23.181-.183 1.526zm194.4 22.462 3.039-53.024-1.533-.088-3.04 53.024 1.534.088zm-4.459-61.903L83.846 81.714l-.17 1.527 195.907 21.849.17-1.526zm7.498 8.879a8.447 8.447 0 0 0-7.498-8.879l-.17 1.526a6.913 6.913 0 0 1 6.135 7.265l1.533.088zM81.023 132.7a9.984 9.984 0 0 0 8.79 10.305l.182-1.526a8.447 8.447 0 0 1-7.437-8.719l-1.535-.06zm216.617 27.347V98.575h-1.536v61.472h1.536zm-7.775-70.307L88.927 65.587l-.183 1.524 200.938 24.154.183-1.525zm7.773 8.88c.141-2.353-.736-4.543-2.26-6.163l-1.119 1.053c1.253 1.33 1.96 3.112 1.846 5.02l1.533.09zm-2.261-6.163a8.853 8.853 0 0 0-5.522-2.718l-.163 1.527a7.318 7.318 0 0 1 4.567 2.244l1.118-1.053zm-15.603 12.631c5.595-.782 8.802-3.396 11.388-6.364l-1.158-1.01c-2.428 2.787-5.325 5.138-10.442 5.852l.212 1.522zm11.388-6.364c.756-.867 1.461-1.767 2.15-2.65.694-.887 1.371-1.756 2.088-2.59l-1.164-1.002c-.746.867-1.446 1.766-2.134 2.647-.692.886-1.373 1.754-2.098 2.586l1.158 1.009zm-3.912 13.739c.543-6.502 1.687-10.303 3.977-13.825l-1.288-.838c-2.478 3.811-3.665 7.889-4.22 14.535l1.531.128zm3.977-13.825c1.087-1.671 2.444-3.298 4.153-5.13l-1.123-1.048c-1.738 1.863-3.162 3.564-4.318 5.34l1.288.838zm4.247-5.254 19.347-31.63-1.311-.801-19.347 31.63 1.311.801zm-224.49 45.448 5.938-50.898-1.526-.178-5.938 50.898 1.526.178zm15.354-58.304 193.233 24.561.194-1.524L86.532 79.004l-.194 1.524zm-4.448 68.137-3.622-.479-.201 1.523 3.622.479.201-1.523zm200.788 16.725c-.111 2.549-1.028 4.905-2.502 6.525-1.461 1.604-3.472 2.498-5.88 2.18l-.201 1.522c2.954.391 5.451-.729 7.216-2.668 1.751-1.922 2.777-4.637 2.901-7.493l-1.534-.066zm-213.22-26.736a9.984 9.984 0 0 0 8.609 11.055l.2-1.523a8.448 8.448 0 0 1-7.283-9.354l-1.526-.178zm-2.214 8.611 5.64-65-1.53-.133-5.64 65 1.53.133zm5.895-66.347c1.07-3.145 3.84-6.618 6.999-9.32 1.57-1.344 3.209-2.474 4.739-3.265 1.545-.798 2.913-1.216 3.958-1.216v-1.536c-1.4 0-3.024.54-4.663 1.388-1.654.855-3.391 2.057-5.033 3.462-3.266 2.795-6.262 6.484-7.455 9.993l1.455.494zm-7.426 66.214a5.377 5.377 0 0 0 4.665 5.797l.197-1.524a3.84 3.84 0 0 1-3.331-4.14l-1.53-.133zm230.441 12.641c-.776 2.031-1.955 5.22-3.633 8.42-1.684 3.21-3.83 6.35-6.494 8.326l.915 1.234c2.941-2.181 5.217-5.563 6.939-8.847 1.728-3.295 2.939-6.572 3.708-8.585l-1.435-.548zm-10.127 16.746c-1.742 1.292-3.688 2.073-5.875 2.073v1.536c2.58 0 4.84-.929 6.79-2.375l-.915-1.234zm-.311-64.12v64.737h1.536v-64.737h-1.536zM73.081 138.654c-.627 5.374 3.158 10.813 8.608 11.534l.201-1.523c-4.533-.6-7.823-5.205-7.283-9.833l-1.526-.178zm13.447-59.65a9.959 9.959 0 0 0-7.65 2.275l.99 1.175a8.423 8.423 0 0 1 6.473-1.926l.187-1.525zm-7.26 3.623 4.387.611.212-1.521-4.388-.611-.212 1.521zm-2.346 5.307a8.416 8.416 0 0 1 2.946-5.48l-.99-1.175a9.951 9.951 0 0 0-3.482 6.477l1.526.178zm-2.311 50.848.87-16.906-1.534-.079-.87 16.907 1.534.078zm4-57.005-4.66 39.971 1.526.178 4.66-39.97-1.527-.179zm218.931 78.645 27.286-48.65-1.339-.752-27.287 48.651 1.34.751zM89.36 66.91l26.136-24.463-1.05-1.122L88.31 65.788l1.05 1.122zm6.076 87.719-24.86-3.224-.198 1.524 24.86 3.224.198-1.524zm-.867.762v4.656h1.536v-4.656h-1.536zm.672 5.418 171.596 21.501.191-1.524-171.596-21.501-.19 1.524zm171.79 16.075L95.436 154.629l-.198 1.524 171.596 22.254.197-1.523zm.67 4.664v-3.902h-1.537v3.902h1.537zm12.55-2.949-8.582-1.113-.198 1.523 8.582 1.113.198-1.523zm-8.582-1.113-4.638-.602-.197 1.523 4.637.602.198-1.523zm-4.291 4.687 4.637-3.3-.89-1.251-4.638 3.3.891 1.251zM120.984 40.62 314.08 62.117l.17-1.527-193.096-21.497-.17 1.527zm192.665 21.302c7.913 7.193 11.929 21.229 10.991 45.071l1.535.06c.941-23.909-3.037-38.58-11.493-46.268l-1.033 1.137zM115.496 42.447a6.914 6.914 0 0 1 5.488-1.827l.17-1.527a8.452 8.452 0 0 0-6.708 2.232l1.05 1.122zM72.884 82.265c.042-.488.115-.935.255-1.347l-1.455-.494c-.195.574-.283 1.158-.33 1.708l1.53.133zm201.412 91.83L81.89 148.665l-.201 1.523 192.406 25.429.201-1.522zm50.532-62.323a10.497 10.497 0 0 0 1.347-4.719l-1.535-.06a8.965 8.965 0 0 1-1.151 4.027l1.339.752zM275.186 79.979v4.224l7.872-10.56v-4.225l-7.872 10.56z"/><path fill="#000" d="M275.186 84.203v-4.224l-10.464-1.44 3.148 4.657 7.316 1.007z"/><path fill="#F1EFED" d="M254.258 77.099v4.224l13.612 1.873-3.148-4.658-10.464-1.44z"/><path fill="url(#e)" d="m275.186 79.979 7.872-10.56-20.928-2.88-7.872 10.56 10.464 1.44 10.464 1.44z"/><path fill="#000" d="M254.258 81.323h-.768v.67l.663.09.105-.76zm0-4.224-.616-.46-.152.205v.255h.768zm20.928 7.104-.105.76.45.062.271-.363-.616-.46zm7.872-14.785h.768v-.67l-.663-.09-.105.76zm0 4.224.616.46.152-.205v-.254h-.768zm-20.928-7.104.105-.76-.45-.062-.271.363.616.46zm-7.104 14.785v-4.224h-1.536v4.224h1.536zm20.928 2.88v-4.224h-1.536v4.224h1.536zm-.152-3.765 7.872-10.56-1.231-.919-7.873 10.56 1.232.919zm8.024-6.795v-4.225h-1.536v4.224h1.536zm-8.024 11.019 7.872-10.56-1.231-.919-7.873 10.56 1.232.919zm-13.777-17.363 20.929 2.88.209-1.522-20.928-2.88-.21 1.522zm-7.151 10.258 7.872-10.56-1.232-.918-7.872 10.56 1.232.919zm-.721.302 10.464 1.44.21-1.521-10.464-1.44-.21 1.521zm10.464 1.44 10.464 1.44.21-1.521-10.464-1.44-.21 1.521zm-10.464 2.784 13.612 1.874.21-1.522-13.612-1.873-.21 1.521zm13.612 1.874 7.316 1.007.21-1.522-7.316-1.007-.21 1.522zm-3.679-4.988 3.148 4.657 1.272-.86-3.148-4.657-1.272.86z"/><path fill="#F1EFED" stroke="#000" stroke-width="1.536" d="M95.281 130.03V99.792c0-3.692 3.233-6.55 6.897-6.098l161.439 19.917a6.145 6.145 0 0 1 5.392 6.098v30.239c0 3.692-3.233 6.55-6.897 6.098l-161.439-19.918a6.144 6.144 0 0 1-5.392-6.098z"/><path fill="#000" stroke="#000" stroke-width="1.536" d="M95.281 126.958V96.72c0-3.692 3.233-6.55 6.897-6.098l161.439 19.917a6.145 6.145 0 0 1 5.392 6.098v30.239c0 3.692-3.233 6.55-6.897 6.098l-161.439-19.918a6.144 6.144 0 0 1-5.392-6.098z"/><g clip-path="url(#f)"><path fill="#F1EFED" d="m30.327 17.847-.981 7.617 11.426 1.472.981-7.617-3.809-.491.491-3.808-3.808-.491-.491 3.809-3.809-.491zm-7.617-.981 3.809.49.49-3.808 3.809.49.491-3.808 11.425 1.472-.49 3.808 3.808.491-.49 3.809 3.808.49-2.453 19.043-7.617-.981.981-7.617-11.426-1.472-.981 7.617-7.617-.981 2.453-19.043zm31.45-3.692 7.617.981-2.944 22.852 11.426 1.472 2.944-22.852 7.617.981-2.944 22.852-3.808-.491-.491 3.809-19.043-2.453.491-3.809-3.809-.491 2.944-22.851zm37.595 8.715-2.453 19.043 7.617.981.491-3.808 3.809.49 1.472-11.425-3.809-.491.491-3.809-7.618-.981zm-7.126-4.79 19.043 2.453-.491 3.809 3.809.491-.491 3.808 3.809.491-1.472 11.426-3.809-.491-.49 3.809-3.809-.491-.491 3.809-19.043-2.454 3.435-26.66zm57.129 7.36-.491 3.809-7.617-.982-2.453 19.043 7.617.982-.491 3.808-22.851-2.944.49-3.808 7.618.981 2.453-19.043-7.617-.981.49-3.809 22.852 2.944zm30.469 3.925-.491 3.809-7.617-.981-2.944 22.851-7.617-.981 2.944-22.852-7.618-.981.491-3.809 22.852 2.944zm60.937 7.851-.491 3.808-7.617-.981-2.944 22.852-7.617-.982 2.944-22.851-7.617-.982.491-3.808 22.851 2.944zm30.469 3.925-.491 3.809-7.617-.982-2.453 19.043 7.617.982-.491 3.808-22.851-2.944.49-3.808 7.618.981 2.453-19.043-7.617-.981.49-3.809 22.852 2.944zm3.808.491 7.618.981-.491 3.809 3.809.49-.491 3.809 3.809.491.49-3.809 3.809.491.49-3.809 7.618.981-3.435 26.66-7.617-.981 1.472-11.426-3.809-.49-.49 3.808-3.809-.49.491-3.809-3.809-.491-1.472 11.426-7.617-.981 3.434-26.66zm30.469 3.925 26.66 3.435-.49 3.808-19.043-2.453-.982 7.617 15.235 1.963-.491 3.808-15.234-1.962-.982 7.617 19.043 2.453-.49 3.809-26.66-3.435 3.434-26.66z"/></g></svg>
