<svg width="132" height="42" viewBox="0 0 132 42" fill="none" xmlns="http://www.w3.org/2000/svg">
<path d="M16.3333 17.8711L16.3333 31.9511M23.6667 10.0489L23.6667 24.1289M16.3333 10.0489L16.3333 10M31 24.1289L31 24.08M31 16.3067L31 16.2578M9 25.6933L9 25.6444M9 17.8711L9 17.8222M23.6667 32L23.6667 31.9511" stroke="black" stroke-width="3.5" stroke-linecap="square"/>
<path d="M41 21.0002C41 19.9336 41.2507 18.9629 41.752 18.0882C42.264 17.2029 42.9573 16.5096 43.832 16.0082C44.7067 15.4962 45.6773 15.2402 46.744 15.2402C47.5653 15.2402 48.3333 15.4002 49.048 15.7202C49.7627 16.0296 50.376 16.4776 50.888 17.0642C51.4107 17.6402 51.7947 18.3122 52.04 19.0802H50.264C49.9333 18.3656 49.464 17.8056 48.856 17.4002C48.2587 16.9842 47.5547 16.7762 46.744 16.7762C45.9867 16.7762 45.2987 16.9629 44.68 17.3362C44.0613 17.7096 43.5707 18.2216 43.208 18.8722C42.856 19.5122 42.68 20.2216 42.68 21.0002C42.68 21.7789 42.856 22.4936 43.208 23.1442C43.5707 23.7842 44.0613 24.2909 44.68 24.6642C45.2987 25.0376 45.9867 25.2242 46.744 25.2242C47.5547 25.2242 48.2587 25.0216 48.856 24.6162C49.464 24.2002 49.9333 23.6349 50.264 22.9202H52.04C51.7947 23.6882 51.4107 24.3656 50.888 24.9522C50.376 25.5282 49.7627 25.9762 49.048 26.2962C48.3333 26.6056 47.5653 26.7602 46.744 26.7602C45.6773 26.7602 44.7067 26.5096 43.832 26.0082C42.9573 25.4962 42.264 24.8029 41.752 23.9282C41.2507 23.0429 41 22.0669 41 21.0002Z" fill="black"/>
<path d="M64.4325 20.8402V26.6002H62.9925V24.7122C62.5552 25.3416 61.9898 25.8429 61.2965 26.2162C60.6138 26.5789 59.8352 26.7602 58.9605 26.7602C57.9152 26.7602 56.9605 26.5096 56.0965 26.0082C55.2325 25.4962 54.5498 24.8029 54.0485 23.9282C53.5578 23.0429 53.3125 22.0669 53.3125 21.0002C53.3125 19.9336 53.5632 18.9629 54.0645 18.0882C54.5765 17.2029 55.2698 16.5096 56.1445 16.0082C57.0192 15.4962 57.9898 15.2402 59.0565 15.2402C60.1765 15.2402 61.1845 15.5442 62.0805 16.1522C62.9872 16.7602 63.6378 17.5762 64.0325 18.6002H62.2085C61.8778 18.0349 61.4405 17.5922 60.8965 17.2722C60.3525 16.9416 59.7392 16.7762 59.0565 16.7762C58.2992 16.7762 57.6112 16.9629 56.9925 17.3362C56.3738 17.7096 55.8832 18.2216 55.5205 18.8722C55.1685 19.5122 54.9925 20.2216 54.9925 21.0002C54.9925 21.7789 55.1685 22.4936 55.5205 23.1442C55.8725 23.7842 56.3525 24.2909 56.9605 24.6642C57.5685 25.0376 58.2405 25.2242 58.9765 25.2242C59.9685 25.2242 60.7952 24.9469 61.4565 24.3922C62.1285 23.8269 62.5712 23.1282 62.7845 22.2962H58.8005V20.8402H64.4325Z" fill="black"/>
<path d="M70.9056 26.7602C69.6043 26.7602 68.5056 26.4402 67.6096 25.8002C66.7243 25.1496 66.1856 24.2482 65.9936 23.0962H67.5936C67.8603 23.8322 68.2603 24.3709 68.7936 24.7122C69.3376 25.0536 70.0576 25.2242 70.9536 25.2242C71.8176 25.2242 72.5163 25.0696 73.0496 24.7602C73.583 24.4402 73.8496 24.0296 73.8496 23.5282C73.8496 23.0909 73.6523 22.7389 73.2576 22.4722C72.863 22.1949 72.2123 21.9656 71.3056 21.7842L70.0896 21.5602C68.8203 21.3362 67.871 20.9522 67.2416 20.4082C66.6123 19.8536 66.2976 19.1709 66.2976 18.3602C66.2976 17.7416 66.4843 17.1976 66.8576 16.7282C67.231 16.2589 67.7536 15.8962 68.4256 15.6402C69.0976 15.3736 69.871 15.2402 70.7456 15.2402C71.887 15.2402 72.879 15.5229 73.7216 16.0882C74.5643 16.6429 75.119 17.4269 75.3856 18.4402H73.7056C73.4923 17.8962 73.1083 17.4856 72.5536 17.2082C72.0096 16.9202 71.3803 16.7762 70.6656 16.7762C69.823 16.7762 69.1563 16.9256 68.6656 17.2242C68.1856 17.5122 67.9456 17.9122 67.9456 18.4242C67.9456 18.8402 68.1376 19.1762 68.5216 19.4322C68.9163 19.6882 69.535 19.8909 70.3776 20.0402L71.5936 20.2482C72.9376 20.4722 73.9243 20.8562 74.5536 21.4002C75.183 21.9442 75.4976 22.6429 75.4976 23.4962C75.4976 24.1362 75.3003 24.7016 74.9056 25.1922C74.5216 25.6829 73.983 26.0669 73.2896 26.3442C72.5963 26.6216 71.8016 26.7602 70.9056 26.7602Z" fill="black"/>
<path d="M81.7431 21.0802V22.5202H77.1031V21.0802H81.7431Z" fill="black"/>
<path d="M86.1381 20.0402V24.2642C86.1381 24.6056 86.2181 24.8669 86.3781 25.0482C86.5488 25.2296 86.8368 25.3202 87.2421 25.3202C87.6261 25.3202 87.9515 25.2882 88.2181 25.2242V26.6162C87.9301 26.7122 87.5781 26.7602 87.1621 26.7602C85.4661 26.7602 84.6181 25.9282 84.6181 24.2642V20.0402H83.0181V18.6002H84.6181V16.5202H86.1381V18.6002H88.3781V20.0402H86.1381Z" fill="black"/>
<path d="M93.3579 18.4402C94.1792 18.4402 94.8939 18.6162 95.5019 18.9682C96.1205 19.3202 96.5952 19.8216 96.9259 20.4722C97.2565 21.1122 97.4219 21.8642 97.4219 22.7282C97.4219 22.9522 97.4165 23.1176 97.4059 23.2242H90.8459C90.9525 23.8429 91.2405 24.3549 91.7099 24.7602C92.1899 25.1549 92.7445 25.3522 93.3739 25.3522C94.4085 25.3522 95.1445 24.9736 95.5819 24.2162H97.1499C96.8939 24.9629 96.4192 25.5762 95.7259 26.0562C95.0325 26.5256 94.2485 26.7602 93.3739 26.7602C92.5952 26.7602 91.8912 26.5842 91.2619 26.2322C90.6325 25.8696 90.1419 25.3736 89.7899 24.7442C89.4379 24.1042 89.2619 23.3896 89.2619 22.6002C89.2619 21.8109 89.4379 21.1016 89.7899 20.4722C90.1419 19.8322 90.6272 19.3362 91.2459 18.9842C91.8752 18.6216 92.5792 18.4402 93.3579 18.4402ZM93.3259 19.7842C92.6965 19.7842 92.1525 19.9816 91.6939 20.3762C91.2459 20.7709 90.9685 21.2776 90.8619 21.8962H95.7739C95.7099 21.2562 95.4485 20.7442 94.9899 20.3602C94.5419 19.9762 93.9872 19.7842 93.3259 19.7842Z" fill="black"/>
<path d="M106.621 18.6002V26.6002H105.101V25.4002C104.771 25.8269 104.371 26.1629 103.901 26.4082C103.432 26.6429 102.931 26.7602 102.397 26.7602C101.693 26.7602 101.053 26.5842 100.477 26.2322C99.9012 25.8696 99.4479 25.3736 99.1172 24.7442C98.7866 24.1149 98.6212 23.4002 98.6212 22.6002C98.6212 21.8002 98.7866 21.0856 99.1172 20.4562C99.4479 19.8269 99.9012 19.3362 100.477 18.9842C101.053 18.6216 101.693 18.4402 102.397 18.4402C102.952 18.4402 103.469 18.5682 103.949 18.8242C104.429 19.0802 104.84 19.4376 105.181 19.8962V18.6002H106.621ZM102.653 25.3522C103.123 25.3522 103.549 25.2349 103.933 25.0002C104.317 24.7656 104.616 24.4402 104.829 24.0242C105.043 23.5976 105.149 23.1229 105.149 22.6002C105.149 22.0776 105.043 21.6082 104.829 21.1922C104.616 20.7656 104.317 20.4349 103.933 20.2002C103.549 19.9656 103.123 19.8482 102.653 19.8482C102.184 19.8482 101.763 19.9656 101.389 20.2002C101.016 20.4349 100.723 20.7656 100.509 21.1922C100.296 21.6082 100.189 22.0776 100.189 22.6002C100.189 23.1229 100.296 23.5976 100.509 24.0242C100.723 24.4402 101.016 24.7656 101.389 25.0002C101.763 25.2349 102.184 25.3522 102.653 25.3522Z" fill="black"/>
<path d="M119.025 18.4402C119.665 18.4402 120.236 18.5789 120.737 18.8562C121.249 19.1336 121.649 19.5549 121.937 20.1202C122.236 20.6749 122.385 21.3576 122.385 22.1682V26.6002H120.865V22.2002C120.865 21.4962 120.662 20.9362 120.257 20.5202C119.862 20.1042 119.361 19.8962 118.753 19.8962C118.092 19.8962 117.558 20.1309 117.153 20.6002C116.748 21.0696 116.545 21.6456 116.545 22.3282V26.6002H115.025V22.2002C115.025 21.4962 114.822 20.9362 114.417 20.5202C114.022 20.1042 113.521 19.8962 112.913 19.8962C112.252 19.8962 111.718 20.1309 111.313 20.6002C110.908 21.0696 110.705 21.6456 110.705 22.3282V26.6002H109.185V18.6002H110.625V19.8642C110.913 19.4269 111.281 19.0802 111.729 18.8242C112.188 18.5682 112.673 18.4402 113.185 18.4402C113.814 18.4402 114.38 18.5789 114.881 18.8562C115.393 19.1229 115.788 19.5229 116.065 20.0562C116.374 19.5656 116.79 19.1762 117.313 18.8882C117.846 18.5896 118.417 18.4402 119.025 18.4402Z" fill="black"/>
</svg>
