<svg width="74" height="75" viewBox="0 0 74 75" fill="none" xmlns="http://www.w3.org/2000/svg">
<path d="M46.1704 11.8486C31.3523 11.8486 19.3398 23.8611 19.3398 38.6792H73.001C73.001 23.8611 60.9886 11.8486 46.1704 11.8486Z" fill="#D7DDFF"/>
<path d="M38.1159 30.5425C25.6902 22.4691 9.07242 25.9973 0.999041 38.423L45.9964 67.6593C54.0698 55.2336 50.5416 38.6158 38.1159 30.5425Z" fill="#D7DDFF"/>
<path d="M28.5099 23.0561C15.4682 26.5882 15.1513 41.0564 16.6229 47.8489C18.0946 54.6415 21.0383 58.717 22.7365 59.7359V63.1322H28.5099V59.7359C33.4004 64.6263 43.4536 61.7736 47.8689 59.7359V63.1322H54.3219V54.9811C57.0389 52.8075 58.3974 49.3206 58.737 47.8489H62.8503C63.9549 47.8489 64.8503 46.9535 64.8503 45.8489V36.9431C64.8503 35.8385 63.9549 34.9431 62.8503 34.9431H58.737C56.9753 31.0051 54.9922 27.9525 52.6237 25.7371V16.2637C47.4614 14.9052 44.133 19.116 43.1141 21.3912C39.1096 20.8994 34.329 21.4801 28.5099 23.0561Z" fill="#F1EFED"/>
<path d="M30.2082 27.1316C30.2082 26.7565 30.5123 26.4524 30.8875 26.4524H41.4159C41.7911 26.4524 42.0952 26.7565 42.0952 27.1316C42.0952 27.5068 41.7911 27.8109 41.4159 27.8109H30.8875C30.5123 27.8109 30.2082 27.5068 30.2082 27.1316Z" fill="black"/>
<path d="M16.6229 47.8489C15.1511 41.0564 15.4681 26.5882 28.5098 23.0561C34.3289 21.4801 39.1095 20.8994 43.1141 21.3912C44.1329 19.116 47.4613 14.9052 52.6236 16.2637V25.7371C54.9921 27.9525 56.9752 31.0051 58.7369 34.9431H61.8502C63.5071 34.9431 64.8502 36.2862 64.8502 37.9431V44.8489C64.8502 46.5058 63.5071 47.8489 61.8502 47.8489H58.7369C58.3973 49.3206 57.0388 52.8075 54.3218 54.9811V63.1322H47.8689V59.7359C43.4535 61.7736 33.4003 64.6263 28.5098 59.7359V63.1322H22.7364M41.4159 27.8109H30.8875C30.5123 27.8109 30.2082 27.5068 30.2082 27.1316V27.1316C30.2082 26.7565 30.5123 26.4524 30.8875 26.4524H41.4159C41.7911 26.4524 42.0952 26.7565 42.0952 27.1316V27.1316C42.0952 27.5068 41.7911 27.8109 41.4159 27.8109Z" stroke="black" stroke-width="1.5" stroke-linecap="round" stroke-linejoin="round"/>
<circle cx="31.9048" cy="15.5844" r="8.4907" fill="#F1EFED" stroke="black" stroke-width="1.5"/>
<circle cx="31.9061" cy="15.5843" r="6.45293" fill="#5869DD"/>
<ellipse cx="48.8882" cy="42.4152" rx="3.73591" ry="2.03777" fill="#5869DD"/>
<circle cx="50.5851" cy="36.9811" r="1.35851" fill="black"/>
<path d="M7.79297 56.6793V52.9434H24.7744V56.6793H7.79297Z" fill="#F1EFED" stroke="black" stroke-width="1.5" stroke-linecap="round" stroke-linejoin="round"/>
<path d="M7.79297 64.4908V60.7549H24.7744V64.4908H7.79297Z" fill="#F1EFED" stroke="black" stroke-width="1.5" stroke-linecap="round" stroke-linejoin="round"/>
<path d="M5.75391 60.4151V56.6792H22.7353V60.4151H5.75391Z" fill="#5869DD" stroke="black" stroke-width="1.5" stroke-linecap="round" stroke-linejoin="round"/>
<path d="M16.2832 17.9619C16.4734 19.5647 17.7371 20.8284 19.3399 21.0186C17.7371 21.2087 16.4734 22.4724 16.2832 24.0752C16.093 22.4724 14.8293 21.2087 13.2266 21.0186C14.8293 20.8284 16.093 19.5647 16.2832 17.9619Z" fill="#5869DD"/>
</svg>
