<svg width="74" height="75" viewBox="0 0 74 75" fill="none" xmlns="http://www.w3.org/2000/svg">
<path d="M38.6218 34.3863C47.2487 43.2018 61.7134 43.0368 70.9296 34.0177L39.6888 2.09394C30.4726 11.113 29.9949 25.5708 38.6218 34.3863Z" fill="#D7DDFF"/>
<path d="M43.1159 32.7119C30.6902 24.6385 14.0724 28.1668 5.99904 40.5924L50.9964 69.8287C59.0698 57.403 55.5416 40.7853 43.1159 32.7119Z" fill="#D7DDFF"/>
<path d="M10.0219 16.2719L6.54688 12.7968M13.8831 14.7274V10.094M17.7443 16.2719L21.2194 12.7968" stroke="black" stroke-width="1.5" stroke-linecap="round" stroke-linejoin="round"/>
<path d="M37.4334 53.5806C33.8583 52.091 35.7427 47.8478 37.2668 45.7006C37.3644 45.5631 37.5416 45.5104 37.7007 45.5665L43.6662 47.6719C43.854 47.7382 43.9615 47.9353 43.9073 48.1269C43.1638 50.7549 40.9832 55.0597 37.4334 53.5806Z" fill="#5869DD"/>
<path d="M37.2668 45.7006C35.7427 47.8478 33.8583 52.091 37.4334 53.5806C40.9832 55.0597 43.1638 50.7549 43.9073 48.1269M37.2668 45.7006C37.3644 45.5631 37.5416 45.5104 37.7007 45.5665M37.2668 45.7006V45.7006C37.3642 45.5634 37.542 45.5105 37.7007 45.5665V45.5665M37.7007 45.5665L43.6662 47.6719M43.6662 47.6719C43.854 47.7382 43.9615 47.9353 43.9073 48.1269M43.6662 47.6719V47.6719C43.8532 47.738 43.9613 47.9361 43.9073 48.1269V48.1269" stroke="black" stroke-width="1.5" stroke-linecap="round" stroke-linejoin="round"/>
<path d="M59.5906 38.5149L58.3036 41.2178C52.4526 50.1701 43.009 50.4915 38.9965 48.554C28.6022 43.5348 28.7526 34.3632 30.4818 29.7218L31.4829 26.9005C31.4222 30.6622 33.5696 38.5149 41.3145 42.7622C49.4004 46.2442 56.9736 41.2178 59.5906 38.5149Z" fill="#F1EFED"/>
<path d="M42.1309 12.4301C41.0754 13.4856 41.0754 15.1969 42.1309 16.2524C43.1864 17.308 44.8977 17.308 45.9533 16.2524C47.0088 15.1969 47.0088 13.4856 45.9533 12.4301C44.8977 11.3745 43.1864 11.3745 42.1309 12.4301Z" fill="#5869DD"/>
<path d="M62.2935 20.7535C62.2935 22.2462 61.0834 23.4563 59.5906 23.4563C58.0979 23.4563 56.8878 22.2462 56.8878 20.7535C56.8878 19.2608 58.0979 18.0507 59.5906 18.0507C61.0834 18.0507 62.2935 19.2608 62.2935 20.7535Z" fill="#5869DD"/>
<path d="M61.4822 22.6841L65.5924 24.7798C65.8337 24.9028 65.9332 25.1956 65.8167 25.4402L59.5906 38.5149M59.5906 38.5149L58.3036 41.2178C52.4526 50.1701 43.009 50.4915 38.9965 48.554C28.6022 43.5348 28.7526 34.3632 30.4818 29.7218L31.4829 26.9005M59.5906 38.5149C56.9736 41.2178 49.4004 46.2442 41.3145 42.7622C33.5696 38.5149 31.4222 30.6622 31.4829 26.9005M41.3394 14.3688L36.8458 12.9101C36.6468 12.8455 36.4326 12.9511 36.3627 13.1483L31.4829 26.9005M62.2935 20.7535C62.2935 22.2462 61.0834 23.4563 59.5906 23.4563C58.0979 23.4563 56.8878 22.2462 56.8878 20.7535C56.8878 19.2608 58.0979 18.0507 59.5906 18.0507C61.0834 18.0507 62.2935 19.2608 62.2935 20.7535ZM42.1309 12.4301C41.0754 13.4856 41.0754 15.1969 42.1309 16.2524C43.1864 17.308 44.8977 17.308 45.9533 16.2524C47.0088 15.1969 47.0088 13.4856 45.9533 12.4301C44.8977 11.3745 43.1864 11.3745 42.1309 12.4301Z" stroke="black" stroke-width="1.5" stroke-linecap="round" stroke-linejoin="round"/>
<path d="M5.36712 23.66C7.29574 15.5518 21.582 17.0965 22.3563 22.8881C23.1264 17.0965 37.4169 15.5518 39.3455 23.66C41.5012 32.7231 33.9346 38.78 22.6444 46.6721C22.4725 46.7922 22.2401 46.7922 22.0682 46.6721C10.778 38.78 3.21138 32.7231 5.36712 23.66Z" fill="#F1EFED" stroke="black" stroke-width="1.5" stroke-linecap="round" stroke-linejoin="round"/>
<path d="M19.8122 38.136C14.9214 45.4722 7.68813 60.9942 17.8816 64.392C26.2934 67.1959 33.3552 59.8506 37.1578 53.7255" stroke="black" stroke-width="1.5" stroke-linecap="round" stroke-linejoin="round"/>
<circle cx="22.3531" cy="32.927" r="6.564" fill="#5869DD" stroke="black" stroke-width="1.5"/>
<circle cx="22.354" cy="32.9277" r="3.47506" fill="#F1EFED" stroke="black" stroke-width="1.5"/>
<path d="M30.0567 4.09375C30.2468 5.69653 31.5105 6.96023 33.1133 7.1504C31.5105 7.34057 30.2468 8.60427 30.0567 10.2071C29.8665 8.60427 28.6028 7.34057 27 7.1504C28.6028 6.96023 29.8665 5.69653 30.0567 4.09375Z" fill="#5869DD"/>
<path d="M64.0567 45.0938C64.2468 46.6965 65.5105 47.9602 67.1133 48.1504C65.5105 48.3406 64.2468 49.6043 64.0567 51.2071C63.8665 49.6043 62.6028 48.3406 61 48.1504C62.6028 47.9602 63.8665 46.6965 64.0567 45.0938Z" fill="#5869DD"/>
</svg>
