<svg width="74" height="75" viewBox="0 0 74 75" fill="none" xmlns="http://www.w3.org/2000/svg">
<path d="M46 10.0938C33.8497 10.0938 24 20.3912 24 33.0938H68C68 20.3912 58.1503 10.0938 46 10.0938Z" fill="#D7DDFF"/>
<path d="M38.1159 30.5425C25.6902 22.4691 9.07242 25.9973 0.999041 38.423L45.9964 67.6593C54.0698 55.2336 50.5416 38.6158 38.1159 30.5425Z" fill="#D7DDFF"/>
<path d="M17.95 46.6062L16.0125 50.8687C14.4625 53.9688 15.625 57.4562 21.05 57.4562H52.05L54.7625 53.5812H22.6C21.05 53.5812 19.5 52.8062 21.4375 50.0938L23.7625 46.6062H17.95Z" fill="#5869DD"/>
<path fill-rule="evenodd" clip-rule="evenodd" d="M13.6875 23.7437C15.1083 23.6146 17.95 24.3637 17.95 28.3937V46.6062H23.7625H54.7625L66 19.0938H13.6875V23.7437ZM38.875 28.3937C33.295 28.3937 31.6417 33.3021 31.5125 35.7563H46.2375C46.1083 33.3021 44.455 28.3937 38.875 28.3937Z" fill="#F1EFED"/>
<path d="M6.325 19.0938C5.04094 19.0938 4 20.1347 4 21.4187C4 22.7028 5.04094 23.7437 6.325 23.7437H13.6875V19.0938H6.325Z" fill="#5869DD"/>
<path d="M13.6875 23.7437H6.325C5.04094 23.7437 4 22.7028 4 21.4187V21.4187C4 20.1347 5.04094 19.0938 6.325 19.0938H13.6875M13.6875 23.7437C15.1083 23.6146 17.95 24.3637 17.95 28.3937V46.6062M13.6875 23.7437V19.0938M17.95 46.6062L16.0125 50.8687C14.4625 53.9687 15.625 57.4562 21.05 57.4562M17.95 46.6062H23.7625M13.6875 19.0938H66L54.7625 46.6062H23.7625M21.05 57.4562C27.87 57.4562 44.5583 57.4562 52.05 57.4562M21.05 57.4562H52.05M52.05 57.4562L54.7625 53.5812H22.6C21.05 53.5812 19.5 52.8062 21.4375 50.0937L23.7625 46.6062M31.5125 35.7562C31.6417 33.3021 33.295 28.3937 38.875 28.3937C44.455 28.3937 46.1083 33.3021 46.2375 35.7562H31.5125Z" stroke="black" stroke-width="1.5" stroke-linecap="round" stroke-linejoin="round"/>
<path d="M30.3997 62.7494C28.9524 65.0223 26.3279 65.699 24.599 64.5981C22.8701 63.4972 22.373 60.8328 23.8203 58.5599C25.2676 56.287 27.8922 55.6104 29.621 56.7113C31.3499 57.8122 31.847 60.4765 30.3997 62.7494Z" fill="#F1EFED" stroke="black" stroke-width="1.5"/>
<path d="M46.6731 62.7494C45.2258 65.0223 42.6013 65.699 40.8724 64.5981C39.1436 63.4972 38.6465 60.8328 40.0938 58.5599C41.5411 56.287 44.1656 55.6104 45.8945 56.7113C47.6233 57.8122 48.1204 60.4765 46.6731 62.7494Z" fill="#F1EFED" stroke="black" stroke-width="1.5"/>
<path d="M19.0567 9.09375C19.2468 10.6965 20.5105 11.9602 22.1133 12.1504C20.5105 12.3406 19.2468 13.6043 19.0567 15.2071C18.8665 13.6043 17.6028 12.3406 16 12.1504C17.6028 11.9602 18.8665 10.6965 19.0567 9.09375Z" fill="#5869DD"/>
<path d="M64.0567 45.0938C64.2468 46.6965 65.5105 47.9602 67.1133 48.1504C65.5105 48.3406 64.2468 49.6043 64.0567 51.2071C63.8665 49.6043 62.6028 48.3406 61 48.1504C62.6028 47.9602 63.8665 46.6965 64.0567 45.0938Z" fill="#5869DD"/>
</svg>
