<svg width="74" height="75" viewBox="0 0 74 75" fill="none" xmlns="http://www.w3.org/2000/svg">
<path d="M46 10.0938C33.8497 10.0938 24 20.3912 24 33.0938H68C68 20.3912 58.1503 10.0938 46 10.0938Z" fill="#D7DDFF"/>
<path d="M38.1081 22.5425C25.6824 14.4691 9.06461 17.9973 0.991229 30.423L45.9886 59.6593C54.062 47.2336 50.5337 30.6158 38.1081 22.5425Z" fill="#D7DDFF"/>
<path d="M40.3945 8.93169H43.6124V4.90937H52.0593V8.93169H55.2771V5.71384C55.2771 4.10491 54.6335 2.09375 52.0593 2.09375H43.6124C41.0381 2.09375 40.3945 4.10491 40.3945 5.71384V8.93169Z" fill="#F1EFED"/>
<path d="M43.6124 8.93169H40.3945V5.71384C40.3945 4.10491 41.0381 2.09375 43.6124 2.09375H52.0593C54.6335 2.09375 55.2771 4.10491 55.2771 5.71384V8.93169H52.0593M43.6124 8.93169H47.8358H52.0593M43.6124 8.93169V4.90937H52.0593V8.93169" stroke="black" stroke-width="1.5" stroke-linecap="round" stroke-linejoin="round"/>
<path d="M59.8041 8.5293H47.6348H35.4655C32.4231 8.52945 29.7611 8.93153 29.7611 13.7583L26.7188 53.177C26.7188 56.7971 27.4793 58.406 33.564 58.406H47.6348H61.7056C67.7903 58.406 68.5509 56.7971 68.5509 53.177L65.5085 13.7583C65.5085 8.93153 62.8465 8.52945 59.8041 8.5293Z" fill="#F1EFED" stroke="black" stroke-width="1.5" stroke-linecap="round" stroke-linejoin="round"/>
<circle cx="56.8857" cy="59.6133" r="3.62009" fill="#F1EFED" stroke="black" stroke-width="1.5"/>
<path d="M54.0724 34.6749V38.599C54.0724 38.8752 53.8486 39.099 53.5724 39.099H48.8438C48.3984 39.099 48.1753 39.6376 48.4903 39.9526L57.6434 49.1057C57.9584 49.4207 58.497 49.1976 58.497 48.7522V44.828C58.497 44.5519 58.7208 44.328 58.997 44.328H63.7256C64.171 44.328 64.3941 43.7895 64.0791 43.4745L54.926 34.3213C54.611 34.0063 54.0724 34.2294 54.0724 34.6749Z" fill="#303FA3"/>
<ellipse cx="42.8071" cy="24.2287" rx="6.43571" ry="9.76719" transform="rotate(30 42.8071 24.2287)" fill="#5869DD"/>
<ellipse cx="56.4246" cy="41.4439" rx="1.73292" ry="1.70706" transform="rotate(30 56.4246 41.4439)" fill="#F1EFED"/>
<ellipse cx="56.4246" cy="41.4439" rx="1.73292" ry="1.70706" transform="rotate(30 56.4246 41.4439)" fill="#F1EFED"/>
<ellipse cx="42.8087" cy="24.228" rx="3.98258" ry="6.85089" transform="rotate(30 42.8087 24.228)" stroke="black" stroke-width="1.5"/>
<path d="M33.5585 63.2331V34.6746H30.3406V63.2331H33.5585Z" fill="#5869DD"/>
<path d="M18.6759 34.6746V63.2331H21.8937V34.6746H18.6759Z" fill="#5869DD"/>
<path d="M21.8937 34.6746V63.2331H26.1172H30.3406V34.6746H26.1172H21.8937Z" fill="#F1EFED"/>
<path d="M12.6424 63.2331H18.6759V34.6746H12.6424C12.6424 40.7885 7.54747 42.0489 5 41.9148V55.9929C7.54747 55.8588 12.6424 57.1192 12.6424 63.2331Z" fill="#F1EFED"/>
<path d="M33.5585 63.2331H39.5919C39.5919 57.1192 44.6869 55.8588 47.2343 55.9929V41.9148C44.6869 42.0489 39.5919 40.7885 39.5919 34.6746H33.5585V63.2331Z" fill="#F1EFED"/>
<path fill-rule="evenodd" clip-rule="evenodd" d="M5 63.2331H12.6424C12.6424 57.1192 7.54747 55.8588 5 55.9929V63.2331ZM39.5919 63.2331H47.2343V55.9929C44.6869 55.8588 39.5919 57.1192 39.5919 63.2331ZM47.2343 41.9148V34.6746H39.5919C39.5919 40.7885 44.6869 42.0489 47.2343 41.9148ZM5 34.6746V41.9148C7.54747 42.0489 12.6424 40.7885 12.6424 34.6746H5Z" fill="#5869DD"/>
<path d="M18.6759 34.6746H21.8937V30.6523H30.3406V34.6746H33.5585V31.4568C33.5585 29.8478 32.9149 27.8367 30.3406 27.8367H21.8937C19.3195 27.8367 18.6759 29.8478 18.6759 31.4568V34.6746Z" fill="#F1EFED"/>
<path d="M5 63.2331H18.6759M5 63.2331V41.9148M5 63.2331V55.9929M5 63.2331H12.6424M18.6759 34.6746V63.2331M18.6759 34.6746H21.8937M18.6759 34.6746H12.6424M18.6759 34.6746V31.4568C18.6759 29.8478 19.3195 27.8367 21.8937 27.8367H30.3406C32.9149 27.8367 33.5585 29.8478 33.5585 31.4568V34.6746M18.6759 63.2331H21.8937M18.6759 63.2331H12.6424M21.8937 63.2331V34.6746M21.8937 63.2331H26.1172H30.3406M21.8937 34.6746H26.1172H30.3406M21.8937 34.6746V30.6523H30.3406V34.6746M5 41.9148V34.6746H12.6424M5 41.9148C7.54747 42.0489 12.6424 40.7885 12.6424 34.6746M5 41.9148V55.9929M5 55.9929C7.54747 55.8588 12.6424 57.1192 12.6424 63.2331M47.2343 63.2331H33.5585M47.2343 63.2331V41.9148M47.2343 63.2331V55.9929M47.2343 63.2331H39.5919M33.5585 34.6746V63.2331M33.5585 34.6746H30.3406M33.5585 34.6746H39.5919M33.5585 63.2331H30.3406M33.5585 63.2331H39.5919M30.3406 63.2331V34.6746M47.2343 41.9148V34.6746H39.5919M47.2343 41.9148C44.6869 42.0489 39.5919 40.7885 39.5919 34.6746M47.2343 41.9148V55.9929M47.2343 55.9929C44.6869 55.8588 39.5919 57.1192 39.5919 63.2331" stroke="black" stroke-width="1.5" stroke-linecap="round" stroke-linejoin="round"/>
<path d="M19.0567 9.09375C19.2468 10.6965 20.5105 11.9602 22.1133 12.1504C20.5105 12.3406 19.2468 13.6043 19.0567 15.2071C18.8665 13.6043 17.6028 12.3406 16 12.1504C17.6028 11.9602 18.8665 10.6965 19.0567 9.09375Z" fill="#5869DD"/>
<path d="M13.0567 24.0938C13.2468 25.6965 14.5105 26.9602 16.1133 27.1504C14.5105 27.3406 13.2468 28.6043 13.0567 30.2071C12.8665 28.6043 11.6028 27.3406 10 27.1504C11.6028 26.9602 12.8665 25.6965 13.0567 24.0938Z" fill="#5869DD"/>
</svg>
