<svg width="74" height="75" viewBox="0 0 74 75" fill="none" xmlns="http://www.w3.org/2000/svg">
<path d="M46 10.0938C33.8497 10.0938 24 20.3912 24 33.0938H68C68 20.3912 58.1503 10.0938 46 10.0938Z" fill="#D7DDFF"/>
<path d="M39.1159 27.7119C26.6902 19.6385 10.0724 23.1668 1.99904 35.5924L46.9964 64.8287C55.0698 52.403 51.5416 35.7853 39.1159 27.7119Z" fill="#D7DDFF"/>
<path d="M20.5 51.0938C20.5 48.6085 27.6634 46.5938 36.5 46.5938C45.3366 46.5938 52.5 48.6085 52.5 51.0938V39.5938V34.5938C52.5 32.1085 45.3366 30.0938 36.5 30.0938C27.6634 30.0938 20.5 32.1085 20.5 34.5938V39.5938V51.0938Z" fill="#F1EFED"/>
<path d="M20.5 34.5938C20.5 32.1085 27.6634 30.0938 36.5 30.0938C45.3366 30.0938 52.5 32.1085 52.5 34.5938V39.5938L60 35.7049V29.848L36.5 19.0938L7 32.5938L20.5 39.5938V34.5938Z" fill="#F1EFED"/>
<path d="M60 42.5938C58.8333 42.4271 56.5 43.8937 56.5 47.0938C56.5 50.2938 58.5 51.5938 60 51.5938C61.5 51.5938 63.5 50.2938 63.5 47.0938C63.5 43.8937 61.1667 42.4271 60 42.5938Z" fill="#5869DD"/>
<path d="M36.5 55.5938C45.3366 55.5938 52.5 53.579 52.5 51.0938C52.5 48.6085 45.3366 46.5938 36.5 46.5938C27.6634 46.5938 20.5 48.6085 20.5 51.0938C20.5 53.579 27.6634 55.5938 36.5 55.5938Z" fill="#5869DD"/>
<path d="M66 32.5938L60 29.848V35.7049L66 32.5938Z" fill="#F1EFED"/>
<path d="M52.5 51.0938C52.5 53.579 45.3366 55.5938 36.5 55.5938C27.6634 55.5938 20.5 53.579 20.5 51.0938M52.5 51.0938C52.5 48.6085 45.3366 46.5938 36.5 46.5938C27.6634 46.5938 20.5 48.6085 20.5 51.0938M52.5 51.0938V34.5938M52.5 51.0938V39.5938M20.5 51.0938V39.5938M52.5 34.5938C52.5 32.1085 45.3366 30.0938 36.5 30.0938C27.6634 30.0938 20.5 32.1085 20.5 34.5938V39.5938M52.5 34.5938V39.5938M20.5 39.5938L7 32.5938L36.5 19.0938L60 29.848M52.5 39.5938L60 35.7049M60 29.848L66 32.5938L60 35.7049M60 29.848V35.7049M60 42.5938C58.8333 42.4271 56.5 43.8937 56.5 47.0938C56.5 50.2938 58.5 51.5938 60 51.5938C61.5 51.5938 63.5 50.2938 63.5 47.0938C63.5 43.8937 61.1667 42.4271 60 42.5938ZM60 42.5938V35.7049" stroke="black" stroke-width="1.5"/>
<path d="M17.0567 10.0938C17.2468 11.6965 18.5105 12.9602 20.1133 13.1504C18.5105 13.3406 17.2468 14.6043 17.0567 16.2071C16.8665 14.6043 15.6028 13.3406 14 13.1504C15.6028 12.9602 16.8665 11.6965 17.0567 10.0938Z" fill="#5869DD"/>
<path d="M59.0567 56.0938C59.2468 57.6965 60.5105 58.9602 62.1133 59.1504C60.5105 59.3406 59.2468 60.6043 59.0567 62.2071C58.8665 60.6043 57.6028 59.3406 56 59.1504C57.6028 58.9602 58.8665 57.6965 59.0567 56.0938Z" fill="#5869DD"/>
</svg>
