<svg xmlns="http://www.w3.org/2000/svg" width="32" height="29" fill="none" viewBox="0 0 32 29"><path fill="#000" fill-rule="evenodd" d="M15.667 27.83c8.1 0 14.666-5.969 14.666-13.333 0-2.456-.73-4.757-2.005-6.734L2.32 20.034c2.313 4.6 7.42 7.797 13.347 7.797Z" clip-rule="evenodd"/><path fill="#5869DD" d="M15.667 1.164C7.567 1.164 1 7.134 1 14.497c0 1.976.472 3.85 1.32 5.537l26.008-12.27c-2.546-3.949-7.263-6.6-12.661-6.6Z"/><path stroke="#000" stroke-width="2" d="M28.328 7.763c-2.546-3.948-7.263-6.599-12.661-6.599C7.567 1.164 1 7.134 1 14.497c0 1.976.472 3.85 1.32 5.537m26.008-12.27c1.275 1.976 2.005 4.277 2.005 6.733 0 7.364-6.566 13.334-14.666 13.334-5.928 0-11.034-3.197-13.347-7.797m26.008-12.27L2.32 20.033"/><ellipse cx="13.504" cy="14.497" fill="#F1EFED" stroke="#000" stroke-width="2" rx="12.504" ry="13.333"/></svg>
