<svg width="18" height="18" viewBox="0 0 18 18" fill="none" xmlns="http://www.w3.org/2000/svg">
<path d="M12.5706 15.1999C11.8485 15.8998 11.0602 15.7893 10.3013 15.4578C9.49817 15.1188 8.76139 15.1041 7.91409 15.4578C6.85312 15.9146 6.29316 15.782 5.65953 15.1999C2.06402 11.4939 2.59451 5.8501 6.67629 5.6438C7.67095 5.69538 8.36353 6.18902 8.94559 6.23323C9.81499 6.0564 10.6476 5.54802 11.5759 5.61433C12.6884 5.70274 13.5284 6.14481 14.081 6.94054C11.7822 8.31833 12.3274 11.3465 14.4346 12.1938C14.0147 13.299 13.4694 14.3968 12.5632 15.2073L12.5706 15.1999ZM8.87191 5.59959C8.76139 3.95657 10.095 2.60088 11.6275 2.46826C11.8411 4.36916 9.90341 5.78379 8.87191 5.59959Z" fill="black"/>
</svg>
