<svg width="60" height="60" viewBox="0 0 60 60" fill="none" xmlns="http://www.w3.org/2000/svg">
<rect width="60" height="60" rx="10" fill="#CAC9C7" fill-opacity="0.3"/>
<path fill-rule="evenodd" clip-rule="evenodd" d="M32.8117 37.9057C33.0527 39.8052 36.2836 42.4513 37.869 43.5369L43.8059 43.2284C43.2621 42.4161 43.7078 41.1069 44.0141 40.207C44.0432 40.1215 44.071 40.0397 44.0967 39.9623C44.1219 39.886 44.1494 39.8054 44.1784 39.7201C44.4887 38.8082 44.9825 37.357 44.9779 34.9138C44.974 32.7763 43.9193 32.9232 43.3925 33.2638C43.3432 33.0135 43.2778 32.769 43.1923 32.5421C42.4763 30.6435 41.5726 31.5556 41.2103 32.2489C41.0362 31.9007 40.8099 31.592 40.5182 31.3596C39.329 30.4118 39.0708 31.2993 39.0904 31.8615C38.6759 31.1368 38.0815 30.5929 37.251 30.4758C35.6962 30.2566 36.3031 31.3622 36.9573 32.5541C37.1778 32.9557 37.4036 33.3671 37.5539 33.7409C38.1504 35.2241 37.5638 39.0844 35.483 37.6039C33.4021 36.1234 32.5104 35.5313 32.8117 37.9057Z" fill="#F1EFED"/>
<path d="M44.1088 46.4935C44.2063 45.7017 44.2822 43.9401 43.8059 43.2284L37.869 43.5369L37.8745 46.5051L44.1088 46.4935Z" fill="#E5E3E1"/>
<path d="M37.869 43.5369C36.2836 42.4513 33.0527 39.8052 32.8117 37.9057C32.5104 35.5313 33.4021 36.1234 35.483 37.6039C37.5638 39.0844 38.1504 35.2241 37.5539 33.7409C37.4036 33.3671 37.1778 32.9557 36.9573 32.5541C36.3031 31.3622 35.6962 30.2566 37.251 30.4758C38.0815 30.5929 38.6759 31.1368 39.0904 31.8615M37.869 43.5369L37.8745 46.5051L44.1088 46.4935C44.2063 45.7017 44.2822 43.9401 43.8059 43.2284M37.869 43.5369L43.8059 43.2284M39.9322 35.5169C39.9302 34.4474 39.7134 32.9504 39.0904 31.8615M39.0904 31.8615C39.0708 31.2993 39.329 30.4118 40.5182 31.3596C40.8099 31.592 41.0362 31.9007 41.2103 32.2489M41.7134 35.5136C41.7867 34.7666 41.746 33.3207 41.2103 32.2489M41.2103 32.2489C41.5726 31.5556 42.4763 30.6435 43.1923 32.5421C43.2778 32.769 43.3432 33.0135 43.3925 33.2638M43.4947 35.5103C43.5415 34.991 43.5562 34.0957 43.3925 33.2638M43.3925 33.2638C43.9193 32.9232 44.974 32.7763 44.9779 34.9138C44.9825 37.357 44.4887 38.8082 44.1784 39.7201C44.1494 39.8054 44.1219 39.886 44.0967 39.9623C44.071 40.0397 44.0432 40.1215 44.0141 40.207C43.7078 41.1069 43.2621 42.4161 43.8059 43.2284" stroke="black" stroke-linecap="round" stroke-linejoin="round"/>
<path d="M18.5627 27.5044C17.4742 29.5825 16.069 33.7981 19.1564 34.0356C17.771 35.421 16.1281 38.6668 20.6406 40.5668C26.2812 42.9418 23.0156 34.9262 20.6406 37.3012C18.2656 39.6762 16.1875 46.2074 23.0156 47.098C29.8436 47.9886 31.328 43.5355 30.7343 41.7543C30.1405 39.9731 23.0156 38.7856 25.9843 44.4262C28.953 50.0667 35.7811 51.2542 36.9686 47.6918" stroke="black" stroke-linecap="round" stroke-linejoin="round"/>
<path d="M37.5625 23.3501L40.2344 21.272M38.1562 25.1313L41.125 24.5376M38.4531 27.2094L40.8281 28.1001" stroke="black" stroke-linecap="round" stroke-linejoin="round"/>
<path d="M23.6093 31.3661L28.6562 26.913L31.6249 24.2411L21.2343 14.7412L34.5936 21.5693L43.2029 16.2255L15 10.2881L23.6093 31.3661Z" fill="#E5E3E1"/>
<path d="M34.5936 31.3661V21.5693L21.2343 14.7412L31.6249 24.2411L34.5936 31.3661Z" fill="#F1EFED"/>
<path d="M28.6562 26.913L31.6249 29.1395L34.5936 31.3661L31.6249 24.2411L28.6562 26.913Z" fill="#8F8E93"/>
<path d="M34.5936 31.3661V21.5693M34.5936 31.3661L31.6249 24.2411M34.5936 31.3661L31.6249 29.1395L28.6562 26.913M28.6562 26.913L23.6093 31.3661L15 10.2881L43.2029 16.2255L34.5936 21.5693M28.6562 26.913L31.6249 24.2411M34.5936 21.5693L21.2343 14.7412L31.6249 24.2411" stroke="black" stroke-linecap="round" stroke-linejoin="round"/>
</svg>
