<svg width="18" height="19" viewBox="0 0 18 19" fill="none" xmlns="http://www.w3.org/2000/svg">
<path d="M6.54543 2.25965C5.02564 2.78688 3.71498 3.78758 2.80596 5.11475C1.89694 6.44192 1.43748 8.02563 1.49505 9.63323C1.55263 11.2408 2.12421 12.7876 3.12585 14.0464C4.12748 15.3051 5.50637 16.2095 7.05998 16.6266C8.31952 16.9516 9.63915 16.9659 10.9054 16.6682C12.0525 16.4105 13.1131 15.8594 13.9832 15.0687C14.8888 14.2207 15.5462 13.1418 15.8845 11.9481C16.2524 10.6501 16.3178 9.28501 16.0759 7.95772H9.0029V10.8917H13.0991C13.0172 11.3597 12.8418 11.8063 12.5833 12.2049C12.3248 12.6034 11.9885 12.9458 11.5947 13.2113C11.0945 13.5422 10.5306 13.7648 9.93931 13.8649C9.34626 13.9752 8.73797 13.9752 8.14492 13.8649C7.54385 13.7407 6.97524 13.4926 6.47531 13.1365C5.67218 12.568 5.06913 11.7603 4.75223 10.8287C4.42997 9.87973 4.42997 8.85088 4.75223 7.90187C4.97781 7.23666 5.35071 6.63099 5.84312 6.13006C6.40662 5.54629 7.12002 5.129 7.90507 4.92399C8.69011 4.71898 9.51645 4.73416 10.2934 4.96787C10.9004 5.15419 11.4554 5.47973 11.9143 5.91854C12.3762 5.45905 12.8373 4.99837 13.2975 4.5365C13.5352 4.28814 13.7943 4.05166 14.0284 3.79736C13.3279 3.14553 12.5057 2.63833 11.6089 2.30481C9.9758 1.71182 8.18887 1.69588 6.54543 2.25965Z" fill="white"/>
<path d="M6.54491 2.26023C8.18822 1.69608 9.97515 1.71159 11.6084 2.3042C12.5054 2.63998 13.3272 3.14963 14.0267 3.80388C13.789 4.05818 13.5383 4.29585 13.2958 4.54302C12.8348 5.0033 12.3741 5.462 11.9138 5.91911C11.4549 5.48031 10.8999 5.15477 10.2929 4.96845C9.5162 4.73392 8.68988 4.71786 7.90463 4.92203C7.11938 5.12621 6.40554 5.54272 5.84142 6.12588C5.34901 6.62681 4.9761 7.23248 4.75053 7.89769L2.28711 5.99041C3.16886 4.24185 4.69557 2.90434 6.54491 2.26023Z" fill="#E33629"/>
<path d="M1.63173 7.8792C1.76413 7.22299 1.98395 6.58751 2.28531 5.98975L4.74873 7.90178C4.42647 8.85079 4.42647 9.87963 4.74873 10.8286C3.92798 11.4624 3.10684 12.0994 2.28531 12.7395C1.5309 11.2378 1.30081 9.52683 1.63173 7.8792Z" fill="#F8BD00"/>
<path d="M9.00248 7.95557H16.0754C16.3174 9.28286 16.2519 10.6479 15.8841 11.946C15.5457 13.1397 14.8884 14.2185 13.9828 15.0666C13.1878 14.4463 12.3892 13.8307 11.5942 13.2104C11.9884 12.9445 12.3248 12.6018 12.5833 12.2028C12.8418 11.8038 13.0171 11.3568 13.0987 10.8884H9.00248C9.00129 9.91157 9.00248 8.93357 9.00248 7.95557Z" fill="#587DBD"/>
<path d="M2.28516 12.738C3.10669 12.1042 3.92783 11.4673 4.74857 10.8271C5.06611 11.759 5.67001 12.5667 6.47404 13.1349C6.97552 13.4893 7.54536 13.7354 8.14721 13.8574C8.74026 13.9677 9.34855 13.9677 9.9416 13.8574C10.5329 13.7573 11.0968 13.5347 11.5969 13.2038C12.3919 13.8241 13.1905 14.4397 13.9855 15.06C13.1155 15.8511 12.055 16.4027 10.9077 16.6607C9.64143 16.9584 8.32181 16.9441 7.06226 16.6191C6.06608 16.3531 5.13559 15.8842 4.32909 15.2418C3.47547 14.5641 2.77826 13.71 2.28516 12.738Z" fill="#319F43"/>
</svg>
