<svg width="19" height="19" viewBox="0 0 19 19" fill="none" xmlns="http://www.w3.org/2000/svg">
<path d="M10.7656 10.8276H14.4495V12.3012H10.7656L10.7656 10.8276Z" fill="#535557"/>
<path d="M10.7656 12.3013L10.7656 15.2484L9.29206 15.2484L9.29206 12.3013L10.7656 12.3013Z" fill="#535557"/>
<path d="M14.4512 12.3013L14.4512 15.9852L15.9247 15.9852L15.9247 12.3013L14.4512 12.3013Z" fill="#535557"/>
<path d="M10.7656 15.2485L15.1863 15.2485V16.7221H10.7656L10.7656 15.2485Z" fill="#535557"/>
<path d="M15.1875 15.9854L16.6611 15.9854V17.4589H15.1875L15.1875 15.9854Z" fill="#535557"/>
<path d="M8.55593 16.3539H3.39844V7.51247M3.39844 7.51247V4.56533H6.34557M3.39844 7.51247H15.187M15.187 7.51247V9.72282M15.187 7.51247V4.56533H12.2398M6.34557 4.56533V2.35498M6.34557 4.56533H12.2398M12.2398 4.56533V2.35498" stroke="#535557" stroke-width="1.47357"/>
</svg>
