<svg width="132" height="42" viewBox="0 0 132 42" fill="none" xmlns="http://www.w3.org/2000/svg">
<path d="M18.7968 23.3212L16.0329 25.8846L4.75666 15.4309L7.52057 12.8675L18.7968 23.3212Z" fill="black"/>
<path d="M16.0079 5L13.1854 7.61663L16.0079 10.2343L18.8304 7.61663L16.0079 5Z" fill="black"/>
<path d="M18.8343 18.1525L16.0704 15.5902L27.3466 5.13542L30.1117 7.6988L18.8343 18.1525Z" fill="black"/>
<path d="M35.1775 18.2336L32.355 15.6159L35.1775 13.0003L38 15.6159L35.1775 18.2336Z" fill="black"/>
<path d="M23.8643 18.7607L26.6293 16.1984L37.9055 26.651L35.1405 29.2144L23.8643 18.7607Z" fill="black"/>
<path d="M23.8292 34.4664L26.5621 37H26.7424L29.4742 34.4664L26.6528 31.8498L23.8292 34.4664Z" fill="black"/>
<path d="M12.4874 34.4366L15.2514 37L26.5276 26.5452L23.7636 23.9829L12.4874 34.4366Z" fill="black"/>
<path d="M4 26.5679L6.8225 29.1845L9.64499 26.5679L6.8225 23.9513L4 26.5679Z" fill="black"/>
<path d="M47.72 21.2713C47.72 20.2047 47.9707 19.234 48.472 18.3593C48.984 17.474 49.6773 16.7807 50.552 16.2793C51.4267 15.7673 52.3973 15.5113 53.464 15.5113C54.2853 15.5113 55.0533 15.6713 55.768 15.9913C56.4827 16.3007 57.096 16.7487 57.608 17.3353C58.1307 17.9113 58.5147 18.5833 58.76 19.3513H56.984C56.6533 18.6367 56.184 18.0767 55.576 17.6713C54.9787 17.2553 54.2747 17.0473 53.464 17.0473C52.7067 17.0473 52.0187 17.234 51.4 17.6073C50.7813 17.9807 50.2907 18.4927 49.928 19.1433C49.576 19.7833 49.4 20.4927 49.4 21.2713C49.4 22.05 49.576 22.7647 49.928 23.4153C50.2907 24.0553 50.7813 24.562 51.4 24.9353C52.0187 25.3087 52.7067 25.4953 53.464 25.4953C54.2747 25.4953 54.9787 25.2927 55.576 24.8873C56.184 24.4713 56.6533 23.906 56.984 23.1913H58.76C58.5147 23.9593 58.1307 24.6367 57.608 25.2233C57.096 25.7993 56.4827 26.2473 55.768 26.5673C55.0533 26.8767 54.2853 27.0313 53.464 27.0313C52.3973 27.0313 51.4267 26.7807 50.552 26.2793C49.6773 25.7673 48.984 25.074 48.472 24.1993C47.9707 23.314 47.72 22.338 47.72 21.2713Z" fill="black"/>
<path d="M71.1525 21.1113V26.8713H69.7125V24.9833C69.2752 25.6127 68.7098 26.114 68.0165 26.4873C67.3338 26.85 66.5552 27.0313 65.6805 27.0313C64.6352 27.0313 63.6805 26.7807 62.8165 26.2793C61.9525 25.7673 61.2698 25.074 60.7685 24.1993C60.2778 23.314 60.0325 22.338 60.0325 21.2713C60.0325 20.2047 60.2832 19.234 60.7845 18.3593C61.2965 17.474 61.9898 16.7807 62.8645 16.2793C63.7392 15.7673 64.7098 15.5113 65.7765 15.5113C66.8965 15.5113 67.9045 15.8153 68.8005 16.4233C69.7072 17.0313 70.3578 17.8473 70.7525 18.8713H68.9285C68.5978 18.306 68.1605 17.8633 67.6165 17.5433C67.0725 17.2127 66.4592 17.0473 65.7765 17.0473C65.0192 17.0473 64.3312 17.234 63.7125 17.6073C63.0938 17.9807 62.6032 18.4927 62.2405 19.1433C61.8885 19.7833 61.7125 20.4927 61.7125 21.2713C61.7125 22.05 61.8885 22.7647 62.2405 23.4153C62.5925 24.0553 63.0725 24.562 63.6805 24.9353C64.2885 25.3087 64.9605 25.4953 65.6965 25.4953C66.6885 25.4953 67.5152 25.218 68.1765 24.6633C68.8485 24.098 69.2912 23.3993 69.5045 22.5673H65.5205V21.1113H71.1525Z" fill="black"/>
<path d="M77.6256 27.0313C76.3243 27.0313 75.2256 26.7113 74.3296 26.0713C73.4443 25.4207 72.9056 24.5193 72.7136 23.3673H74.3136C74.5803 24.1033 74.9803 24.642 75.5136 24.9833C76.0576 25.3247 76.7776 25.4953 77.6736 25.4953C78.5376 25.4953 79.2363 25.3407 79.7696 25.0313C80.303 24.7113 80.5696 24.3007 80.5696 23.7993C80.5696 23.362 80.3723 23.01 79.9776 22.7433C79.583 22.466 78.9323 22.2367 78.0256 22.0553L76.8096 21.8313C75.5403 21.6073 74.591 21.2233 73.9616 20.6793C73.3323 20.1247 73.0176 19.442 73.0176 18.6313C73.0176 18.0127 73.2043 17.4687 73.5776 16.9993C73.951 16.53 74.4736 16.1673 75.1456 15.9113C75.8176 15.6447 76.591 15.5113 77.4656 15.5113C78.607 15.5113 79.599 15.794 80.4416 16.3593C81.2843 16.914 81.839 17.698 82.1056 18.7113H80.4256C80.2123 18.1673 79.8283 17.7567 79.2736 17.4793C78.7296 17.1913 78.1003 17.0473 77.3856 17.0473C76.543 17.0473 75.8763 17.1967 75.3856 17.4953C74.9056 17.7833 74.6656 18.1833 74.6656 18.6953C74.6656 19.1113 74.8576 19.4473 75.2416 19.7033C75.6363 19.9593 76.255 20.162 77.0976 20.3113L78.3136 20.5193C79.6576 20.7433 80.6443 21.1273 81.2736 21.6713C81.903 22.2153 82.2176 22.914 82.2176 23.7673C82.2176 24.4073 82.0203 24.9727 81.6256 25.4633C81.2416 25.954 80.703 26.338 80.0096 26.6153C79.3163 26.8927 78.5216 27.0313 77.6256 27.0313Z" fill="black"/>
<path d="M88.4631 21.3513V22.7913H83.8231V21.3513H88.4631Z" fill="black"/>
<path d="M92.8581 20.3113V24.5353C92.8581 24.8767 92.9381 25.138 93.0981 25.3193C93.2688 25.5007 93.5568 25.5913 93.9621 25.5913C94.3461 25.5913 94.6715 25.5593 94.9381 25.4953V26.8873C94.6501 26.9833 94.2981 27.0313 93.8821 27.0313C92.1861 27.0313 91.3381 26.1993 91.3381 24.5353V20.3113H89.7381V18.8713H91.3381V16.7913H92.8581V18.8713H95.0981V20.3113H92.8581Z" fill="black"/>
<path d="M100.078 18.7113C100.899 18.7113 101.614 18.8873 102.222 19.2393C102.841 19.5913 103.315 20.0927 103.646 20.7433C103.977 21.3833 104.142 22.1353 104.142 22.9993C104.142 23.2233 104.137 23.3887 104.126 23.4953H97.5659C97.6725 24.114 97.9605 24.626 98.4299 25.0313C98.9099 25.426 99.4645 25.6233 100.094 25.6233C101.129 25.6233 101.865 25.2447 102.302 24.4873H103.87C103.614 25.234 103.139 25.8473 102.446 26.3273C101.753 26.7967 100.969 27.0313 100.094 27.0313C99.3152 27.0313 98.6112 26.8553 97.9819 26.5033C97.3525 26.1407 96.8619 25.6447 96.5099 25.0153C96.1579 24.3753 95.9819 23.6607 95.9819 22.8713C95.9819 22.082 96.1579 21.3727 96.5099 20.7433C96.8619 20.1033 97.3472 19.6073 97.9659 19.2553C98.5952 18.8927 99.2992 18.7113 100.078 18.7113ZM100.046 20.0553C99.4165 20.0553 98.8725 20.2527 98.4139 20.6473C97.9659 21.042 97.6885 21.5487 97.5819 22.1673H102.494C102.43 21.5273 102.169 21.0153 101.71 20.6313C101.262 20.2473 100.707 20.0553 100.046 20.0553Z" fill="black"/>
<path d="M113.341 18.8713V26.8713H111.821V25.6713C111.491 26.098 111.091 26.434 110.621 26.6793C110.152 26.914 109.651 27.0313 109.117 27.0313C108.413 27.0313 107.773 26.8553 107.197 26.5033C106.621 26.1407 106.168 25.6447 105.837 25.0153C105.507 24.386 105.341 23.6713 105.341 22.8713C105.341 22.0713 105.507 21.3567 105.837 20.7273C106.168 20.098 106.621 19.6073 107.197 19.2553C107.773 18.8927 108.413 18.7113 109.117 18.7113C109.672 18.7113 110.189 18.8393 110.669 19.0953C111.149 19.3513 111.56 19.7087 111.901 20.1673V18.8713H113.341ZM109.373 25.6233C109.843 25.6233 110.269 25.506 110.653 25.2713C111.037 25.0367 111.336 24.7113 111.549 24.2953C111.763 23.8687 111.869 23.394 111.869 22.8713C111.869 22.3487 111.763 21.8793 111.549 21.4633C111.336 21.0367 111.037 20.706 110.653 20.4713C110.269 20.2367 109.843 20.1193 109.373 20.1193C108.904 20.1193 108.483 20.2367 108.109 20.4713C107.736 20.706 107.443 21.0367 107.229 21.4633C107.016 21.8793 106.909 22.3487 106.909 22.8713C106.909 23.394 107.016 23.8687 107.229 24.2953C107.443 24.7113 107.736 25.0367 108.109 25.2713C108.483 25.506 108.904 25.6233 109.373 25.6233Z" fill="black"/>
<path d="M125.745 18.7113C126.385 18.7113 126.956 18.85 127.457 19.1273C127.969 19.4047 128.369 19.826 128.657 20.3913C128.956 20.946 129.105 21.6287 129.105 22.4393V26.8713H127.585V22.4713C127.585 21.7673 127.382 21.2073 126.977 20.7913C126.582 20.3753 126.081 20.1673 125.473 20.1673C124.812 20.1673 124.278 20.402 123.873 20.8713C123.468 21.3407 123.265 21.9167 123.265 22.5993V26.8713H121.745V22.4713C121.745 21.7673 121.542 21.2073 121.137 20.7913C120.742 20.3753 120.241 20.1673 119.633 20.1673C118.972 20.1673 118.438 20.402 118.033 20.8713C117.628 21.3407 117.425 21.9167 117.425 22.5993V26.8713H115.905V18.8713H117.345V20.1353C117.633 19.698 118.001 19.3513 118.449 19.0953C118.908 18.8393 119.393 18.7113 119.905 18.7113C120.534 18.7113 121.1 18.85 121.601 19.1273C122.113 19.394 122.508 19.794 122.785 20.3273C123.094 19.8367 123.51 19.4473 124.033 19.1593C124.566 18.8607 125.137 18.7113 125.745 18.7113Z" fill="black"/>
</svg>
