<svg width="257" height="52" viewBox="0 0 257 52" fill="none" xmlns="http://www.w3.org/2000/svg">
<path d="M23.6242 29.5216L19.2119 33.6514L1.21094 16.8095L5.62316 12.6797L23.6242 29.5216Z" fill="black"/>
<path d="M19.1698 0L14.6641 4.21562L19.1698 8.43296L23.6756 4.21562L19.1698 0Z" fill="black"/>
<path d="M23.6818 21.1866L19.2695 17.0585L37.2705 0.214844L41.6846 4.34468L23.6818 21.1866Z" fill="black"/>
<path d="M49.7714 21.3219L45.2656 17.1045L49.7714 12.8906L54.2771 17.1045L49.7714 21.3219Z" fill="black"/>
<path d="M31.7109 22.1711L36.125 18.043L54.126 34.8832L49.7119 39.013L31.7109 22.1711Z" fill="black"/>
<path d="M31.6562 47.4734L36.019 51.5552H36.3069L40.6678 47.4734L36.1638 43.2578L31.6562 47.4734Z" fill="black"/>
<path d="M13.5508 47.4278L17.963 51.5577L35.964 34.7141L31.5518 30.5859L13.5508 47.4278Z" fill="black"/>
<path d="M0 34.7508L4.50575 38.9664L9.01151 34.7508L4.50575 30.5352L0 34.7508Z" fill="black"/>
<path d="M73.3853 28.0851C73.3853 25.9518 73.8867 24.0104 74.8893 22.2611C75.9133 20.4904 77.3 19.1037 79.0493 18.101C80.7987 17.077 82.74 16.565 84.8734 16.565C86.5161 16.565 88.0521 16.885 89.4814 17.525C90.9107 18.1437 92.1374 19.0397 93.1614 20.2131C94.2068 21.3651 94.9748 22.7091 95.4654 24.2451H91.9134C91.2521 22.8157 90.3134 21.6957 89.0974 20.8851C87.9027 20.0531 86.4947 19.6371 84.8734 19.6371C83.3587 19.6371 81.9827 20.0104 80.7454 20.7571C79.508 21.5037 78.5267 22.5277 77.8013 23.8291C77.0973 25.1091 76.7453 26.5278 76.7453 28.0851C76.7453 29.6424 77.0973 31.0718 77.8013 32.3731C78.5267 33.6531 79.508 34.6665 80.7454 35.4131C81.9827 36.1598 83.3587 36.5331 84.8734 36.5331C86.4947 36.5331 87.9027 36.1278 89.0974 35.3171C90.3134 34.4851 91.2521 33.3545 91.9134 31.9251H95.4654C94.9748 33.4611 94.2068 34.8158 93.1614 35.9891C92.1374 37.1411 90.9107 38.0371 89.4814 38.6772C88.0521 39.2958 86.5161 39.6052 84.8734 39.6052C82.74 39.6052 80.7987 39.1038 79.0493 38.1012C77.3 37.0771 75.9133 35.6905 74.8893 33.9411C73.8867 32.1705 73.3853 30.2184 73.3853 28.0851ZM120.251 27.7651V39.2852H117.371V35.5091C116.496 36.7678 115.365 37.7705 113.979 38.5172C112.613 39.2425 111.056 39.6052 109.307 39.6052C107.216 39.6052 105.306 39.1038 103.578 38.1012C101.85 37.0771 100.485 35.6905 99.4825 33.9411C98.5011 32.1705 98.0104 30.2184 98.0104 28.0851C98.0104 25.9518 98.5118 24.0104 99.5145 22.2611C100.538 20.4904 101.925 19.1037 103.674 18.101C105.424 17.077 107.365 16.565 109.499 16.565C111.739 16.565 113.755 17.173 115.547 18.389C117.36 19.6051 118.661 21.2371 119.451 23.2851H115.803C115.141 22.1544 114.267 21.2691 113.179 20.6291C112.091 19.9677 110.864 19.6371 109.499 19.6371C107.984 19.6371 106.608 20.0104 105.37 20.7571C104.133 21.5037 103.152 22.5277 102.426 23.8291C101.722 25.1091 101.37 26.5278 101.37 28.0851C101.37 29.6424 101.722 31.0718 102.426 32.3731C103.13 33.6531 104.09 34.6665 105.306 35.4131C106.522 36.1598 107.866 36.5331 109.339 36.5331C111.323 36.5331 112.976 35.9785 114.299 34.8691C115.643 33.7385 116.528 32.3411 116.955 30.6771H108.986V27.7651H120.251ZM133.197 39.6052C130.594 39.6052 128.397 38.9652 126.605 37.6851C124.834 36.3838 123.757 34.5811 123.373 32.2771H126.573C127.106 33.7491 127.906 34.8265 128.973 35.5091C130.061 36.1918 131.501 36.5331 133.293 36.5331C135.021 36.5331 136.418 36.2238 137.485 35.6051C138.552 34.9651 139.085 34.1438 139.085 33.1411C139.085 32.2665 138.69 31.5625 137.901 31.0291C137.112 30.4744 135.81 30.0158 133.997 29.6531L131.565 29.2051C129.026 28.7571 127.128 27.9891 125.869 26.9011C124.61 25.7918 123.981 24.4264 123.981 22.8051C123.981 21.5677 124.354 20.4797 125.101 19.5411C125.847 18.6024 126.893 17.877 128.237 17.365C129.581 16.8317 131.128 16.565 132.877 16.565C135.16 16.565 137.144 17.1304 138.829 18.2611C140.514 19.3704 141.624 20.9384 142.157 22.9651H138.797C138.37 21.8771 137.602 21.0557 136.493 20.5011C135.405 19.9251 134.146 19.6371 132.717 19.6371C131.032 19.6371 129.698 19.9357 128.717 20.5331C127.757 21.1091 127.277 21.9091 127.277 22.9331C127.277 23.7651 127.661 24.4371 128.429 24.9491C129.218 25.4611 130.456 25.8664 132.141 26.1651L134.573 26.5811C137.261 27.0291 139.234 27.7971 140.493 28.8851C141.752 29.9731 142.381 31.3704 142.381 33.0771C142.381 34.3571 141.986 35.4878 141.197 36.4691C140.429 37.4505 139.352 38.2185 137.965 38.7732C136.578 39.3278 134.989 39.6052 133.197 39.6052ZM163.841 28.2451V31.1251H154.561V28.2451H163.841ZM181.6 26.1651V34.6131C181.6 35.2958 181.76 35.8185 182.08 36.1811C182.421 36.5438 182.997 36.7251 183.808 36.7251C184.576 36.7251 185.226 36.6611 185.76 36.5331V39.3172C185.184 39.5092 184.48 39.6052 183.648 39.6052C180.256 39.6052 178.56 37.9411 178.56 34.6131V26.1651H175.36V23.2851H178.56V19.1251H181.6V23.2851H186.08V26.1651H181.6ZM196.039 22.9651C197.682 22.9651 199.111 23.3171 200.327 24.0211C201.565 24.7251 202.514 25.7278 203.175 27.0291C203.837 28.3091 204.167 29.8131 204.167 31.5411C204.167 31.9891 204.157 32.3198 204.135 32.5331H191.015C191.228 33.7705 191.804 34.7945 192.743 35.6051C193.703 36.3945 194.813 36.7891 196.071 36.7891C198.141 36.7891 199.613 36.0318 200.487 34.5171H203.623C203.111 36.0105 202.162 37.2371 200.775 38.1972C199.389 39.1358 197.821 39.6052 196.071 39.6052C194.514 39.6052 193.106 39.2532 191.847 38.5492C190.588 37.8238 189.607 36.8318 188.903 35.5731C188.199 34.2931 187.847 32.8638 187.847 31.2851C187.847 29.7064 188.199 28.2878 188.903 27.0291C189.607 25.7491 190.578 24.7571 191.815 24.0531C193.074 23.3277 194.482 22.9651 196.039 22.9651ZM195.975 25.6531C194.717 25.6531 193.629 26.0478 192.711 26.8371C191.815 27.6264 191.26 28.6398 191.047 29.8771H200.871C200.743 28.5971 200.221 27.5731 199.303 26.8051C198.407 26.0371 197.298 25.6531 195.975 25.6531ZM222.566 23.2851V39.2852H219.526V36.8851C218.865 37.7385 218.065 38.4105 217.126 38.9012C216.187 39.3705 215.185 39.6052 214.118 39.6052C212.71 39.6052 211.43 39.2532 210.278 38.5492C209.126 37.8238 208.219 36.8318 207.558 35.5731C206.897 34.3145 206.566 32.8851 206.566 31.2851C206.566 29.6851 206.897 28.2558 207.558 26.9971C208.219 25.7384 209.126 24.7571 210.278 24.0531C211.43 23.3277 212.71 22.9651 214.118 22.9651C215.227 22.9651 216.262 23.2211 217.222 23.7331C218.182 24.2451 219.003 24.9598 219.686 25.8771V23.2851H222.566ZM214.63 36.7891C215.569 36.7891 216.422 36.5545 217.19 36.0851C217.958 35.6158 218.555 34.9651 218.982 34.1331C219.409 33.2798 219.622 32.3305 219.622 31.2851C219.622 30.2398 219.409 29.3011 218.982 28.4691C218.555 27.6158 217.958 26.9544 217.19 26.4851C216.422 26.0158 215.569 25.7811 214.63 25.7811C213.691 25.7811 212.849 26.0158 212.102 26.4851C211.355 26.9544 210.769 27.6158 210.342 28.4691C209.915 29.3011 209.702 30.2398 209.702 31.2851C209.702 32.3305 209.915 33.2798 210.342 34.1331C210.769 34.9651 211.355 35.6158 212.102 36.0851C212.849 36.5545 213.691 36.7891 214.63 36.7891ZM247.374 22.9651C248.654 22.9651 249.795 23.2424 250.798 23.7971C251.822 24.3517 252.622 25.1944 253.198 26.3251C253.795 27.4344 254.094 28.7998 254.094 30.4211V39.2852H251.054V30.4851C251.054 29.0771 250.648 27.9571 249.838 27.1251C249.048 26.2931 248.046 25.8771 246.83 25.8771C245.507 25.8771 244.44 26.3464 243.63 27.2851C242.819 28.2238 242.414 29.3758 242.414 30.7411V39.2852H239.374V30.4851C239.374 29.0771 238.968 27.9571 238.158 27.1251C237.368 26.2931 236.366 25.8771 235.15 25.8771C233.827 25.8771 232.76 26.3464 231.95 27.2851C231.139 28.2238 230.734 29.3758 230.734 30.7411V39.2852H227.694V23.2851H230.574V25.8131C231.15 24.9384 231.886 24.2451 232.782 23.7331C233.699 23.2211 234.67 22.9651 235.694 22.9651C236.952 22.9651 238.083 23.2424 239.086 23.7971C240.11 24.3304 240.899 25.1304 241.454 26.1971C242.072 25.2158 242.904 24.4371 243.95 23.8611C245.016 23.2637 246.158 22.9651 247.374 22.9651Z" fill="black"/>
</svg>
