<svg width="18" height="18" viewBox="0 0 18 18" fill="none" xmlns="http://www.w3.org/2000/svg">
<path d="M10.7754 4.37939V7.40592L11.8341 8.07179C11.8724 8.08 11.9119 8.08 11.9502 8.07179L16.5024 5.00271C16.4991 4.85376 16.4446 4.7105 16.3481 4.59699C16.2516 4.48348 16.119 4.40664 15.9725 4.37939H10.7754Z" fill="#0072C6"/>
<path d="M10.7751 8.53576L11.7405 9.19887C11.7856 9.22651 11.8375 9.24115 11.8905 9.24115C11.9434 9.24115 11.9953 9.22651 12.0405 9.19887C11.8747 9.29889 16.5016 6.22705 16.5016 6.22705V11.7894C16.5136 11.9021 16.5009 12.0161 16.4643 12.1234C16.4277 12.2307 16.3681 12.3287 16.2897 12.4105C16.2113 12.4924 16.1159 12.5561 16.0103 12.5972C15.9047 12.6384 15.7913 12.6559 15.6782 12.6487H10.7745L10.7751 8.53576ZM5.77747 7.14048C5.61709 7.13977 5.45949 7.18243 5.32136 7.26394C5.18323 7.34546 5.0697 7.4628 4.9928 7.60355C4.78285 7.97674 4.68213 8.40146 4.70214 8.82919C4.68032 9.25603 4.78118 9.68018 4.9928 10.0515C5.06934 10.1865 5.18005 10.299 5.31383 10.3776C5.44761 10.4563 5.59972 10.4983 5.7549 10.4996C5.91008 10.5008 6.06284 10.4612 6.19785 10.3846C6.33286 10.3081 6.44535 10.1974 6.52402 10.0637C6.73374 9.69421 6.83254 9.27214 6.8086 8.84798C6.83254 8.41054 6.73704 7.97483 6.53231 7.58752C6.45895 7.45148 6.34992 7.338 6.21694 7.25924C6.08395 7.18048 5.93203 7.13942 5.77747 7.14048Z" fill="#0072C6"/>
<path d="M1.19922 2.84205V14.6824L10.2064 16.5711V1.09863L1.19922 2.84205ZM7.22685 10.764C7.05839 11.0015 6.83436 11.1943 6.57429 11.3253C6.31423 11.4564 6.02604 11.5219 5.73486 11.516C5.45102 11.5211 5.17017 11.4575 4.91617 11.3307C4.66218 11.2039 4.44258 11.0176 4.27603 10.7877C3.88107 10.2362 3.68348 9.56772 3.71515 8.89013C3.68163 8.17931 3.88279 7.47719 4.28763 6.89197C4.45836 6.65 4.68594 6.4537 4.95034 6.32034C5.21475 6.18698 5.50787 6.12065 5.80394 6.12718C6.08569 6.12172 6.36448 6.18541 6.61591 6.31267C6.86735 6.43992 7.08375 6.62687 7.24619 6.85715C7.6372 7.42061 7.83143 8.09731 7.79878 8.78237C7.83336 9.48807 7.63214 10.1852 7.22685 10.764Z" fill="#0072C6"/>
</svg>
