<svg width="60" height="60" viewBox="0 0 60 60" fill="none" xmlns="http://www.w3.org/2000/svg">
<rect width="60" height="60" rx="10" fill="#CAC9C7" fill-opacity="0.3"/>
<path d="M40.9258 35.6562L43.6384 33.5464M41.5286 37.4646L44.5426 36.8618M41.83 39.5744L44.2412 40.4786" stroke="black" stroke-linecap="round" stroke-linejoin="round"/>
<path d="M14.8615 17.4097C17.2138 23.993 21.9251 23.2756 23.2605 21.9153C24.5959 20.555 22.3747 13.5661 18.6492 18.8575C14.9237 24.149 17.0077 30.8696 20.7767 30.2956" stroke="black" stroke-linecap="round" stroke-linejoin="round"/>
<path d="M28.9337 15.2707L44.3466 20.0603L46.6587 20.7788L47.4971 18.0809L27.459 11.854L26.6206 14.5519L28.9337 15.2707Z" fill="#E5E3E1"/>
<path fill-rule="evenodd" clip-rule="evenodd" d="M28.9319 15.2783C28.0051 17.8074 27.2701 23.8892 31.7445 27.984L30.7865 31.0668C24.7794 31.9044 21.938 37.3312 21.2682 39.9401L36.6811 44.7297C37.6078 42.2006 38.3426 36.1193 33.8683 32.0245L34.8263 28.9417C40.8334 28.104 43.6749 22.6768 44.3448 20.0679L28.9319 15.2783Z" fill="#F1EFED"/>
<path d="M36.6811 44.7297L21.2682 39.9401L18.9551 39.2213L18.1167 41.9192L28.1357 45.0326L38.1548 48.1461L38.9932 45.4482L36.6811 44.7297Z" fill="#E5E3E1"/>
<path d="M21.2682 39.9401C21.938 37.3312 24.7794 31.9044 30.7865 31.0668L31.7445 27.984C27.2701 23.8892 28.0051 17.8074 28.9319 15.2783L44.3448 20.0679C43.6749 22.6768 40.8334 28.104 34.8263 28.9417L33.8683 32.0245C38.3426 36.1193 37.6078 42.2006 36.6811 44.7297M21.2682 39.9401L36.6811 44.7297M21.2682 39.9401L18.9551 39.2213L18.1167 41.9192L28.1357 45.0326L38.1548 48.1461L38.9932 45.4482L36.6811 44.7297M28.9337 15.2707L44.3466 20.0603L46.6587 20.7788L47.4971 18.0809L27.459 11.854L26.6206 14.5519L28.9337 15.2707Z" stroke="black" stroke-linecap="round" stroke-linejoin="round"/>
<path d="M32.8765 27.0597C29.4437 23.9646 29.5435 20.1081 30.0225 18.5667C30.7046 18.6378 32.4064 19.054 33.7562 20.1495C35.106 21.2451 38.7164 23.6781 40.3528 24.7577C36.8699 27.0127 34.0684 28.1343 32.8765 27.0597Z" fill="#8F8E93"/>
<path d="M30.7125 35.8338L23.7968 38.6043L35.3572 42.1967L31.9517 36.2642C31.7036 35.832 31.1751 35.6485 30.7125 35.8338Z" fill="#8F8E93"/>
</svg>
