<svg width="60" height="60" viewBox="0 0 60 60" fill="none" xmlns="http://www.w3.org/2000/svg">
<rect width="60" height="60" rx="10" fill="#D0D5F5"/>
<path d="M31.7527 24.8174C26.4954 28.5413 27.3727 33.5793 28.4677 36.5913C29.5627 39.6032 31.9724 43.5462 41.6108 42.889C42.1584 43.6192 43.7461 45.0805 47.9081 43.9852L45.9823 41.4237C47.9081 38.4117 49.5514 33.5793 48.7295 29.4723C47.7072 24.3639 38.3243 20.1625 31.7527 24.8174Z" fill="#F1EFED"/>
<path d="M11.2082 26.0848C9.83896 34.8486 15.5892 38.6803 17.7797 39.228C18.1448 40.4134 18.656 43.0032 17.7797 43.8794C19.6052 43.423 23.3108 42.0722 23.5299 40.3197C24.6251 40.6871 27.3085 40.9832 29.28 39.228C24.899 30.9026 29.8275 24.4436 34.7563 23.0755C30.3753 11.0215 12.9834 14.7224 11.2082 26.0848Z" fill="#F1EFED"/>
<path d="M34.7563 23.0755C30.3753 11.0215 12.9834 14.7224 11.2082 26.0848C9.83896 34.8486 15.5892 38.6803 17.7797 39.228C18.1448 40.4134 18.656 43.0032 17.7797 43.8794C19.6052 43.423 23.3108 42.0722 23.5299 40.3197C24.6251 40.6871 27.3085 40.9832 29.28 39.228" stroke="black" stroke-linecap="round" stroke-linejoin="round"/>
<path d="M47.9081 37.4137C48.2732 36.3182 49.5515 33.5793 48.7296 29.4723C47.7073 24.3639 38.3244 20.1625 31.7528 24.8174C26.4955 28.5413 27.3728 33.5793 28.4678 36.5913C29.5628 39.6032 31.9725 43.5462 41.6108 42.889C42.1585 43.6192 43.7462 45.0805 47.9082 43.9852L46.2653 41.7947" stroke="black" stroke-linecap="round" stroke-linejoin="round"/>
<circle cx="38.5888" cy="33.7544" r="4.92869" fill="#5869DD"/>
<path d="M40.5056 29.2123C39.9164 28.9633 39.2687 28.8257 38.5888 28.8257C35.8668 28.8257 33.6602 31.0323 33.6602 33.7544C33.6602 36.4764 35.8668 38.6831 38.5888 38.6831C41.3109 38.6831 43.5175 36.4764 43.5175 33.7544C43.5175 32.9675 43.3331 32.2237 43.0052 31.5638" stroke="black" stroke-linecap="round"/>
<path d="M36.9473 34.3011L38.864 35.3964C39.1378 34.6662 39.8497 33.0963 40.5069 32.6582" stroke="#F1EFED" stroke-linecap="round" stroke-linejoin="round"/>
<path d="M19.9688 24.575C21.3165 23.2387 24.2607 21.3679 25.2559 24.575C26.4999 28.5837 21.2128 29.2004 20.9018 31.0506M20.2798 33.2092C20.3893 32.9919 20.4041 33.2527 20.5908 32.672L20.2798 33.2092Z" stroke="black" stroke-linecap="round" stroke-linejoin="round"/>
</svg>
