<svg width="19" height="18" viewBox="0 0 19 18" fill="none" xmlns="http://www.w3.org/2000/svg">
<g clip-path="url(#clip0_4267_6213)">
<rect x="3.65625" y="0.98877" width="11.276" height="1.4095" fill="#535557"/>
<rect x="3.65625" y="15.7876" width="11.276" height="1.4095" fill="#535557"/>
<rect x="4.36133" y="2.39893" width="1.4095" height="3.52375" fill="#535557"/>
<rect x="12.8164" y="2.39893" width="1.4095" height="3.52375" fill="#535557"/>
<rect x="5.76953" y="5.92188" width="1.4095" height="1.4095" fill="#535557"/>
<rect x="7.17969" y="7.33203" width="1.4095" height="1.4095" fill="#535557"/>
<rect x="5.76953" y="14.3804" width="1.4095" height="1.4095" fill="#535557"/>
<rect x="7.17969" y="14.3804" width="1.4095" height="1.4095" fill="#535557"/>
<rect x="8.58984" y="14.3804" width="1.4095" height="1.4095" fill="#535557"/>
<rect x="10" y="14.3804" width="1.4095" height="1.4095" fill="#535557"/>
<rect x="11.4082" y="14.3804" width="1.4095" height="1.4095" fill="#535557"/>
<rect x="7.17969" y="12.9702" width="1.4095" height="1.4095" fill="#535557"/>
<rect x="8.58984" y="12.9702" width="1.4095" height="1.4095" fill="#535557"/>
<rect x="10" y="12.9702" width="1.4095" height="1.4095" fill="#535557"/>
<rect x="8.58984" y="11.5601" width="1.4095" height="1.4095" fill="#535557"/>
<rect x="10" y="7.33203" width="1.4095" height="1.4095" fill="#535557"/>
<rect x="11.4082" y="5.92188" width="1.4095" height="1.4095" fill="#535557"/>
<rect x="7.17969" y="8.74219" width="1.4095" height="1.4095" fill="#535557"/>
<rect width="1.4095" height="1.4095" transform="matrix(-1 0 0 1 11.4082 8.74219)" fill="#535557"/>
<rect x="5.76953" y="10.1494" width="1.4095" height="1.4095" fill="#535557"/>
<rect width="1.4095" height="1.4095" transform="matrix(-1 0 0 1 12.8164 10.1494)" fill="#535557"/>
<rect x="4.36133" y="11.5601" width="1.4095" height="1.4095" fill="#535557"/>
<rect width="1.4095" height="1.4095" transform="matrix(-1 0 0 1 14.2266 11.5601)" fill="#535557"/>
<rect x="4.36133" y="12.9702" width="1.4095" height="1.4095" fill="#535557"/>
<rect width="1.4095" height="1.4095" transform="matrix(-1 0 0 1 14.2266 12.9702)" fill="#535557"/>
<rect x="4.36133" y="14.3804" width="1.4095" height="1.4095" fill="#535557"/>
<rect width="1.4095" height="1.4095" transform="matrix(-1 0 0 1 14.2266 14.3804)" fill="#535557"/>
</g>
<defs>
<clipPath id="clip0_4267_6213">
<rect width="17.6828" height="17.6828" fill="white" transform="translate(0.451172 0.251465)"/>
</clipPath>
</defs>
</svg>
