<svg width="18" height="19" viewBox="0 0 18 19" fill="none" xmlns="http://www.w3.org/2000/svg">
<g clip-path="url(#clip0_4267_6511)">
<path d="M7.73333 5.60105L5.77544 10.5457L3.84138 5.60105H0.523438L4.17846 14.2052L2.84638 17.3069H6.09871L10.9653 5.60105H7.73333ZM11.3735 10.2908C10.9758 10.2908 10.5871 10.4087 10.2564 10.6297C9.92574 10.8506 9.66802 11.1646 9.51583 11.5321C9.36364 11.8995 9.32382 12.3038 9.40141 12.6938C9.47899 13.0838 9.6705 13.4421 9.9517 13.7233C10.2329 14.0045 10.5912 14.196 10.9812 14.2736C11.3713 14.3512 11.7756 14.3114 12.143 14.1592C12.5104 14.007 12.8244 13.7493 13.0454 13.4186C13.2663 13.088 13.3842 12.6992 13.3842 12.3015C13.3842 12.0375 13.3322 11.776 13.2312 11.5321C13.1301 11.2881 12.982 11.0664 12.7953 10.8797C12.6086 10.693 12.3869 10.5449 12.143 10.4439C11.899 10.3428 11.6376 10.2908 11.3735 10.2908ZM13.6377 1.83447L10.4258 9.5524H14.0449L17.2441 1.83447H13.6377Z" fill="#5F01D1"/>
</g>
<defs>
<clipPath id="clip0_4267_6511">
<rect width="17.6828" height="17.6828" fill="white" transform="translate(0.0078125 0.729492)"/>
</clipPath>
</defs>
</svg>
