<svg xmlns="http://www.w3.org/2000/svg" width="403" height="206" fill="none" viewBox="0 0 403 206"><path fill="#000" d="m44.128 8.41-7.895 2.352 7.895-2.352ZM14.102 49.42a30.901 30.901 0 0 0-2.989 2.823c-.466.5-.917 1.022-1.34 1.56-.423.54-.797 1.1-1.198 1.649a.045.045 0 0 1-.051.011.045.045 0 0 1-.015-.011.05.05 0 0 1-.01-.055.05.05 0 0 1 .01-.016c.401-.55.792-1.1 1.204-1.649.412-.549.879-1.06 1.351-1.56a30.398 30.398 0 0 1 2.996-2.821.038.038 0 0 1 .03 0 .036.036 0 0 1 .012.008.044.044 0 0 1 0 .06ZM6.257 63.171c.11.671.379 1.306.785 1.851.425.532.961.963 1.572 1.264a7.594 7.594 0 0 0 1.933.632c.67.132 1.357.198 2.033.302a.066.066 0 0 1 .06.077.071.071 0 0 1-.082.06c-.68-.104-1.362-.175-2.043-.307a7.58 7.58 0 0 1-1.962-.648 4.587 4.587 0 0 1-1.61-1.297 4.394 4.394 0 0 1-.807-1.907.055.055 0 0 1 .05-.065.06.06 0 0 1 .07.038ZM20.8 39.61l8.241-.336a.082.082 0 0 1 .094.083.093.093 0 0 1-.088.093l-8.241.319a.075.075 0 0 1-.058-.02.076.076 0 0 1-.024-.057.083.083 0 0 1 .077-.083ZM37.249 38.654l2.054-.148c.687-.06 1.374-.082 2.06-.093l4.127-.11a.11.11 0 0 1 .11.11.105.105 0 0 1-.064.101.107.107 0 0 1-.04.008l-4.11.1c-.687 0-1.374.032-2.055.093l-2.055.137a.098.098 0 0 1-.098-.05.099.099 0 0 1-.012-.038.104.104 0 0 1 .083-.11ZM53.726 38.698l8.208.73a.133.133 0 0 1 .09.047.129.129 0 0 1-.112.212l-8.203-.747a.127.127 0 0 1-.115-.132.12.12 0 0 1 .132-.11ZM70.146 40.033c2.745.138 5.495.138 8.24 0a.154.154 0 0 1 .16.143.154.154 0 0 1-.143.16c-2.747.137-5.494.104-8.24-.033a.142.142 0 0 1-.133-.149.132.132 0 0 1 .116-.12ZM86.567 39.22l8.159-1.154a.17.17 0 0 1 .05.335l-8.17 1.137a.166.166 0 0 1-.181-.137.16.16 0 0 1 .077-.162.16.16 0 0 1 .06-.02h.005ZM102.868 36.863l8.186-.989a.18.18 0 0 1 .209.165c.006.05-.008.1-.038.141a.194.194 0 0 1-.127.073l-8.175.967a.18.18 0 0 1-.135-.033.177.177 0 0 1-.068-.12.186.186 0 0 1 .148-.203ZM119.29 35.347c1.379 0 2.747-.033 4.126 0h4.125a.208.208 0 0 1 .209.209.212.212 0 0 1-.214.208l-4.12-.027h-4.115a.205.205 0 0 1-.209-.193.204.204 0 0 1 .061-.136.206.206 0 0 1 .137-.061ZM135.782 35.495l8.241.308a.235.235 0 0 1 .16.075.236.236 0 0 1 .047.078.245.245 0 0 1-.007.176.221.221 0 0 1-.128.12.225.225 0 0 1-.088.013l-8.241-.33a.228.228 0 0 1-.084-.02.23.23 0 0 1-.069-.052.223.223 0 0 1-.056-.159.216.216 0 0 1 .225-.209ZM152.259 36.314l8.213.753a.259.259 0 0 1 .168.092.26.26 0 0 1 .057.183.24.24 0 0 1-.089.17.248.248 0 0 1-.185.055l-8.203-.775a.241.241 0 0 1-.131-.422.235.235 0 0 1 .17-.056ZM168.653 38.126l8.137 1.396a.276.276 0 0 1 .18.113.28.28 0 0 1 .048.208.285.285 0 0 1-.114.18.279.279 0 0 1-.208.048l-8.12-1.428a.262.262 0 0 1-.149-.114.263.263 0 0 1 .237-.403h-.011ZM184.866 41.181l2.016.423 2.033.368 4.054.731a.276.276 0 0 1 .182.118.274.274 0 0 1 .044.212.298.298 0 0 1-.039.104.285.285 0 0 1-.291.126l-4.06-.736-2.033-.373-2.016-.424a.28.28 0 0 1-.174-.43.28.28 0 0 1 .176-.119.275.275 0 0 1 .108 0ZM200.974 44.797a19.983 19.983 0 0 1 3.752 1.84 9.476 9.476 0 0 1 3.022 2.94.297.297 0 0 1-.428.393.287.287 0 0 1-.078-.086 8.828 8.828 0 0 0-2.835-2.747 19.394 19.394 0 0 0-3.637-1.791.293.293 0 0 1 .204-.55ZM208.424 57.86a10.322 10.322 0 0 1-2.088 3.66 15.253 15.253 0 0 1-3.203 2.708.31.31 0 0 1-.466-.325.297.297 0 0 1 .136-.192 14.386 14.386 0 0 0 3.077-2.593 9.725 9.725 0 0 0 1.983-3.44.293.293 0 0 1 .149-.175.301.301 0 0 1 .23-.016.302.302 0 0 1 .182.374ZM195.661 67.828l-7.57 3.258a.32.32 0 0 1-.253-.588l7.571-3.241a.303.303 0 0 1 .238-.003.315.315 0 0 1 .168.168.311.311 0 0 1-.154.406ZM180.514 74.282l-7.603 3.192a.334.334 0 0 1-.36-.072.331.331 0 0 1-.072-.36.333.333 0 0 1 .179-.178l7.603-3.176a.326.326 0 0 1 .395.183.327.327 0 0 1-.142.41ZM165.307 80.677l-7.576 3.242a.34.34 0 0 1-.45-.176.344.344 0 0 1 .066-.374.335.335 0 0 1 .11-.077l7.581-3.23a.334.334 0 0 1 .367.067.34.34 0 0 1-.098.548ZM150.181 87.215l-7.51 3.385a.351.351 0 1 1-.285-.643l7.526-3.379a.346.346 0 0 1 .28.632l-.011.005ZM135.211 94.09l-7.39 3.625a.363.363 0 1 1-.318-.648l7.411-3.62a.357.357 0 1 1 .313.642h-.016ZM120.515 101.511l-7.175 4.022a.38.38 0 0 1-.511-.148.375.375 0 0 1 .143-.506l7.208-4.027a.37.37 0 0 1 .5.137.377.377 0 0 1-.143.506l-.022.016ZM106.345 109.866a104.02 104.02 0 0 0-6.686 4.763.39.39 0 0 1-.289.084.376.376 0 0 1-.26-.149.382.382 0 0 1 .065-.55 103.195 103.195 0 0 1 6.741-4.791.387.387 0 0 1 .287-.054.382.382 0 0 1 .131.692l.011.005ZM92.062 117.992c-.693.104-1.385.187-2.088.231-.346 0-.698.033-1.055 0H88.496a.96.96 0 0 1-.225-.044l-.143-.088a.427.427 0 0 1-.126-.385.454.454 0 0 1 .17-.241.469.469 0 0 1 .104-.061l.127-.027H88.83c1.412-.083 2.78-.05 4.16 0a.393.393 0 0 1 .395.395.398.398 0 0 1-.245.366c-.047.02-.099.03-.15.03-1.369-.028-2.748-.055-4.083 0H88.567l.077-.044a.352.352 0 0 0 .121-.258.386.386 0 0 0-.11-.363c-.148-.104-.099-.06-.115-.071-.017-.011 0 0 .033 0h.352c.324 0 .664 0 1-.028a20.49 20.49 0 0 0 2.01-.22.394.394 0 0 1 .448.327.392.392 0 0 1-.327.448l.006.033ZM101.227 117.475l8.24-.137a.402.402 0 0 1 .407.406.413.413 0 0 1-.119.288.402.402 0 0 1-.288.119l-8.24.132a.407.407 0 0 1 0-.808ZM117.68 116.997l8.241-.412a.43.43 0 0 1 .163.023.411.411 0 0 1 .277.378.408.408 0 0 1-.396.434l-8.241.406a.416.416 0 0 1-.038-.829h-.006ZM134.151 116.218l8.241-.187a.437.437 0 0 1 .385.432.436.436 0 0 1-.385.431l-8.241.17a.417.417 0 0 1-.399-.255.41.41 0 0 1-.035-.162.42.42 0 0 1 .266-.401.421.421 0 0 1 .168-.028ZM150.654 116.157l8.241.258a.446.446 0 0 1 0 .885l-8.241-.269a.442.442 0 0 1-.278-.73.442.442 0 0 1 .278-.144ZM167.131 116.717l8.269.34a.464.464 0 0 1 .172.039.459.459 0 0 1 .235.254.448.448 0 0 1-.446.608l-8.241-.351a.428.428 0 0 1-.311-.141.436.436 0 0 1-.117-.321.449.449 0 0 1 .439-.428ZM183.636 117.438l8.241.423a.466.466 0 0 1 .412.305.454.454 0 0 1-.016.353.455.455 0 0 1-.262.238.451.451 0 0 1-.178.027l-8.241-.434a.469.469 0 0 1-.316-.149.454.454 0 0 1 .031-.645.457.457 0 0 1 .329-.118ZM200.1 118.338l8.241.549a.475.475 0 0 1 .322.158.466.466 0 0 1-.382.776l-8.241-.549a.466.466 0 0 1-.252-.799.468.468 0 0 1 .312-.13v-.005ZM216.548 119.514l8.241.714a.465.465 0 0 1 .341.157.469.469 0 0 1 .063.54.458.458 0 0 1-.295.232.456.456 0 0 1-.191.01l-8.208-.714a.466.466 0 0 1-.426-.508.47.47 0 0 1 .508-.426l-.033-.005ZM232.976 121.058l8.186 1.065a.484.484 0 0 1 .324.186.473.473 0 0 1 .088.364.48.48 0 0 1-.55.412l-8.158-1.066a.473.473 0 0 1 .126-.939l-.016-.022ZM249.309 123.601l8.021 1.94a.478.478 0 0 1 .138.876.476.476 0 0 1-.363.057l-7.994-1.939a.482.482 0 0 1-.284-.218.484.484 0 0 1-.052-.355.474.474 0 0 1 .209-.291.472.472 0 0 1 .353-.064l-.028-.006ZM265.269 127.87a63.386 63.386 0 0 1 7.691 3.115.484.484 0 0 1-.055.889.453.453 0 0 1-.186.024.462.462 0 0 1-.182-.05 63.045 63.045 0 0 0-7.581-3.066.486.486 0 0 1-.261-.596.487.487 0 0 1 .568-.316h.006ZM279.993 135.491a17.892 17.892 0 0 1 2.851 3.115 12.74 12.74 0 0 1 1.863 3.846.5.5 0 0 1 .015.189.502.502 0 0 1-.182.324.505.505 0 0 1-.168.086.496.496 0 0 1-.513-.167.467.467 0 0 1-.086-.169 11.714 11.714 0 0 0-1.72-3.543 16.706 16.706 0 0 0-2.697-2.95.475.475 0 0 1-.144-.518.494.494 0 0 1 .427-.33.491.491 0 0 1 .354.117ZM283.097 150.675a25.655 25.655 0 0 1-5.582 6.241.492.492 0 0 1-.627-.758 24.517 24.517 0 0 0 5.368-5.988.482.482 0 0 1 .886.143c.03.125.01.257-.056.368l.011-.006ZM270.39 161.234a89.507 89.507 0 0 1-7.57 3.363.493.493 0 0 1-.61-.652.495.495 0 0 1 .247-.266c2.544-1 5.049-2.104 7.494-3.296a.496.496 0 0 1 .542.068.511.511 0 0 1 .168.337.499.499 0 0 1-.271.474v-.028ZM255.018 167.35l-7.945 2.28a.503.503 0 0 1-.537-.712.498.498 0 0 1 .263-.244l7.9-2.264a.503.503 0 0 1 .537.712.5.5 0 0 1-.262.244l.044-.016ZM239.058 171.613c-1.335.308-2.67.627-4.016.923l-4.038.874a.522.522 0 0 1-.379-.07.505.505 0 0 1 .17-.914l4.016-.862 4.01-.923a.494.494 0 0 1 .599.373.5.5 0 0 1-.362.599ZM222.877 174.887l-8.169 1.215a.51.51 0 0 1-.55-.429.5.5 0 0 1 .423-.549l8.137-1.22c.13-.013.26.024.362.105a.5.5 0 0 1 .099.693.505.505 0 0 1-.318.202l.016-.017ZM206.511 177.025l-8.241.752a.5.5 0 0 1-.496-.269.503.503 0 0 1-.035-.387.5.5 0 0 1 .248-.298.505.505 0 0 1 .19-.057l8.197-.741a.506.506 0 0 1 .437.829.51.51 0 0 1-.344.182l.044-.011ZM190.063 178.364l-8.241.445a.507.507 0 0 1-.489-.29.514.514 0 0 1 .241-.682.5.5 0 0 1 .193-.049l8.241-.445a.512.512 0 1 1 .055 1.021ZM173.592 179.14l-8.241.225a.515.515 0 1 1 0-1.033l8.241-.22a.523.523 0 0 1 .381.134.514.514 0 0 1 .169.366.551.551 0 0 1-.55.528ZM157.105 179.502l-8.241.071a.547.547 0 0 1-.378-.522.548.548 0 0 1 .378-.522l8.241-.06a.515.515 0 1 1 0 1.033ZM140.617 179.58l-8.241-.05a.542.542 0 0 1-.494-.077.552.552 0 0 1-.167-.694.547.547 0 0 1 .661-.273l8.241.05a.556.556 0 0 1 .494.077.555.555 0 0 1 .167.695.56.56 0 0 1-.405.293.556.556 0 0 1-.256-.021ZM124.13 179.441l-8.241-.121a.547.547 0 0 1-.286-.857.547.547 0 0 1 .286-.197l8.241.126a.546.546 0 0 1 .653.277.549.549 0 0 1-.653.772ZM107.654 179.172l-8.241-.171a.547.547 0 0 1 0-1.065l8.241.175a.555.555 0 0 1 .478.094.543.543 0 0 1 .158.68.538.538 0 0 1-.386.296.555.555 0 0 1-.25-.009ZM91.171 178.815l-8.24-.192a.557.557 0 0 1-.47-.112.551.551 0 0 1 .249-.965.557.557 0 0 1 .248.011l8.24.192a.554.554 0 0 1 .416.533.547.547 0 0 1-.416.533h-.027ZM74.695 178.431l-8.24-.193a.55.55 0 0 1 .027-1.098l8.24.197a.552.552 0 0 1 .465.966.56.56 0 0 1-.465.106l-.026.022ZM58.219 178.058l-8.24-.165a.55.55 0 0 1 0-1.099l8.24.17a.55.55 0 0 1 .55.55.551.551 0 0 1-.55.544ZM41.743 177.75l-8.24-.121a.55.55 0 0 1 0-1.099l8.24.127a.55.55 0 0 1 0 1.098v-.005ZM25.266 177.531l-8.241-.055a.55.55 0 0 1 0-1.099l8.24.06a.55.55 0 0 1 .55.55.55.55 0 0 1-.55.544ZM8.79 205.458l-8.24.033a.55.55 0 0 1 0-1.099l8.24-.038a.549.549 0 1 1 0 1.098v.006Z"/><path fill="#000" fill-rule="evenodd" d="M45.92 43.273c2.099 9.926 30.251 15.408 62.879 12.244 11.965-1.16 22.87-3.323 31.78-6.085 10.937-3.39 18.868-7.685 22.063-12.144 1.301-1.814 1.818-3.655 1.433-5.474l-62.88-12.244c-7.085.687-13.799 1.725-19.946 3.032-10.41 2.211-19.196 5.19-25.419 8.534-7.026 3.776-10.783 8.015-9.91 12.137Z" clip-rule="evenodd"/><path fill="#F1EFED" d="M101.195 19.57c32.628-3.164 60.78 2.318 62.88 12.244l-62.88-12.244Z"/><path fill="#000" d="m55.83 31.136.31.48-.31-.48Zm84.749 18.296-.22-.516.22.516Zm-59.33-26.83.174.528-.174-.528Zm81.393 14.686-.47-.338.47.338ZM108.685 54.98c-16.274 1.578-31.411.998-42.72-1.205-5.659-1.101-10.326-2.603-13.692-4.42-3.38-1.826-5.336-3.906-5.807-6.134l-1.094.106c.579 2.734 2.929 5.062 6.439 6.957 3.523 1.903 8.326 3.436 14.047 4.55 11.449 2.229 26.702 2.807 43.055 1.221l-.228-1.075Zm-7.376-34.871c16.274-1.579 31.412-.998 42.721 1.204 5.658 1.102 10.325 2.603 13.691 4.421 3.379 1.825 5.336 3.905 5.807 6.134l1.094-.106c-.579-2.735-2.929-5.062-6.438-6.958-3.523-1.903-8.327-3.435-14.048-4.55-11.449-2.228-26.702-2.806-43.055-1.22l.228 1.075ZM46.466 43.22c-.391-1.85.24-3.795 1.896-5.78 1.655-1.983 4.293-3.953 7.778-5.825l-.62-.958c-3.541 1.904-6.295 3.942-8.056 6.052-1.761 2.11-2.572 4.346-2.092 6.617l1.094-.106Zm93.893 5.696c-8.872 2.75-19.741 4.906-31.674 6.063l.228 1.075c11.996-1.163 22.938-3.331 31.886-6.106l-.44-1.032Zm-84.22-17.3c6.168-3.314 14.904-6.28 25.284-8.486l-.349-1.057c-10.438 2.218-19.276 5.211-25.553 8.584l.619.958Zm25.284-8.486c6.127-1.302 12.82-2.337 19.886-3.022l-.228-1.076c-7.104.69-13.838 1.73-20.007 3.041l.349 1.057Zm82.105 8.737c.346 1.634-.105 3.339-1.356 5.083l.941.677c1.351-1.885 1.933-3.863 1.509-5.866l-1.094.106Zm-1.356 5.083c-1.54 2.148-4.252 4.295-7.972 6.334-3.712 2.035-8.396 3.944-13.841 5.632l.44 1.032c5.492-1.702 10.242-3.636 14.028-5.71 3.779-2.071 6.63-4.301 8.286-6.611l-.941-.677Zm1.956-5.665-62.88-12.244-.106 1.058 62.88 12.244.106-1.058Z"/><path fill="#000" fill-rule="evenodd" d="M73.06 131.088c1.014 11.365 34.604 19.582 75.026 18.353 20.506-.624 38.831-3.558 51.778-7.783 12.575-4.103 20.077-9.422 19.577-15.022l-32.649-15.9a171.915 171.915 0 0 0-6.797-.973c-10.625-1.309-22.758-1.87-35.579-1.48-40.422 1.229-72.369 11.439-71.355 22.805Z" clip-rule="evenodd"/><path fill="#F1EFED" d="M186.792 110.736c19.169 3.151 32.028 8.934 32.649 15.9l-32.649-15.9Z"/><path fill="#000" d="m199.864 141.658-.199-.521.199.521Zm-19.869-31.895.036-.543-.036.543Zm6.797.973.059-.54-.059.54Zm-38.755 38.158c-20.175.613-38.625-1.132-52.14-4.438-6.76-1.654-12.255-3.691-16.106-5.997-3.874-2.32-5.953-4.828-6.181-7.388l-1.099.033c.279 3.123 2.779 5.904 6.751 8.284 3.995 2.392 9.615 4.463 16.43 6.131 13.64 3.336 32.196 5.085 52.443 4.469l-.098-1.094ZM73.61 131.071c-.229-2.56 1.393-5.18 4.833-7.722 3.42-2.528 8.523-4.887 14.953-6.943 12.853-4.107 30.893-6.962 51.069-7.576l-.098-1.094c-20.246.616-38.391 3.48-51.363 7.626-6.483 2.072-11.704 4.473-15.251 7.095-3.529 2.607-5.52 5.525-5.242 8.647l1.099-.033Zm145.282-4.418c.225 2.523-1.346 5.104-4.685 7.612-3.322 2.495-8.281 4.829-14.542 6.872l.398 1.042c6.313-2.06 11.393-4.437 14.841-7.027 3.431-2.577 5.361-5.455 5.087-8.532l-1.099.033Zm-19.227 14.484c-12.887 4.205-31.158 7.134-51.628 7.757l.098 1.094c20.541-.625 38.92-3.564 51.928-7.809l-.398-1.042Zm-55.2-32.307c12.795-.389 24.9.171 35.494 1.477l.072-1.087c-10.655-1.314-22.817-1.875-35.664-1.484l.098 1.094Zm35.494 1.477c2.335.287 4.596.611 6.774.969l.118-1.08a173.09 173.09 0 0 0-6.82-.976l-.072 1.087Zm6.774.969c9.559 1.571 17.506 3.793 23.125 6.471 2.81 1.338 5.01 2.779 6.539 4.286 1.525 1.505 2.355 3.05 2.495 4.62l1.099-.033c-.171-1.914-1.181-3.703-2.84-5.341-1.657-1.634-3.985-3.143-6.864-4.515-5.758-2.743-13.825-4.988-23.436-6.568l-.118 1.08Zm32.928 14.871-32.649-15.899-.439.977 32.649 15.9.439-.978Z"/><path fill="#000" fill-rule="evenodd" d="M310.16 89.18c46.24 1.677 84.248-3.715 84.892-12.044.645-8.328-36.318-16.44-82.559-18.118-9.685-.351-19.009-.392-27.703-.161L227.601 71.49c.63 8.177 37.114 16.04 82.559 17.689Z" clip-rule="evenodd"/><path fill="#F1EFED" d="M227.601 71.061a2.803 2.803 0 0 0 0 .43l57.189-12.634c-32.819.871-56.68 5.62-57.189 12.204Z"/><path fill="#000" d="m227.601 71.491-.549.064.549-.064Zm166.902 5.625c-.063.82-.591 1.683-1.718 2.574-1.125.889-2.781 1.75-4.943 2.566-4.319 1.629-10.528 3.024-18.193 4.112-15.321 2.173-36.349 3.102-59.447 2.264l-.084 1.095c23.142.84 44.238-.089 59.642-2.274 7.698-1.092 14.001-2.502 18.435-4.174 2.215-.835 3.995-1.748 5.253-2.741 1.255-.992 2.056-2.12 2.153-3.382l-1.098-.04Zm-82.052-17.55c23.098.838 43.864 3.283 58.764 6.553 7.455 1.635 13.414 3.472 17.457 5.404 2.024.968 3.538 1.945 4.519 2.91.984.967 1.376 1.863 1.312 2.683l1.098.04c.098-1.262-.525-2.441-1.62-3.518-1.097-1.08-2.726-2.116-4.8-3.106-4.151-1.984-10.201-3.842-17.687-5.484-14.981-3.288-35.816-5.738-58.958-6.577l-.085 1.095Zm-2.249 29.066c-22.7-.824-43.149-3.2-57.99-6.385-7.424-1.593-13.422-3.385-17.591-5.275-2.086-.946-3.69-1.905-4.783-2.86-1.1-.96-1.625-1.861-1.688-2.685l-1.098.128c.094 1.22.848 2.353 2.041 3.395 1.2 1.047 2.905 2.056 5.038 3.023 4.269 1.935 10.351 3.746 17.807 5.346 14.92 3.203 35.435 5.583 58.18 6.408l.084-1.095ZM228.15 71.427a2.218 2.218 0 0 1 0-.346l-1.098-.04a3.387 3.387 0 0 0 0 .514l1.098-.128Zm0-.346c.05-.649.389-1.322 1.09-2.019.703-.7 1.744-1.396 3.124-2.073 2.758-1.354 6.76-2.58 11.807-3.636 10.086-2.11 24.219-3.513 40.611-3.948l.015-1.096c-16.427.436-30.633 1.843-40.81 3.972-5.084 1.063-9.193 2.313-12.078 3.729-1.442.707-2.605 1.47-3.432 2.293-.83.826-1.348 1.742-1.425 2.739l1.098.04Zm56.632-11.676c8.683-.231 17.995-.19 27.669.161l.085-1.095c-9.696-.352-19.032-.393-27.739-.162l-.015 1.096Zm-57.083 12.621 57.189-12.634-.197-1.07-57.188 12.634.196 1.07Z"/><ellipse fill="#F1EFED" stroke="#000" stroke-linejoin="round" stroke-width="1.099" rx="58.473" ry="18.885" transform="matrix(.97374 -.22764 .4108 .91173 102.349 30.529)"/><ellipse fill="#F1EFED" stroke="#000" stroke-linejoin="round" stroke-width="1.099" rx="70.683" ry="22.549" transform="matrix(.98037 -.19716 .50795 .86139 138.315 118.185)"/><ellipse fill="#F1EFED" stroke="#000" stroke-linejoin="round" stroke-width="1.099" rx="82.629" ry="20.437" transform="matrix(.98684 .16168 -.32983 .94404 314.717 63.276)"/><path fill="#000" d="M78.854 128.468a4.314 4.314 0 0 1 .185-2.248c.266-.719.69-1.32 1.272-1.802a4.243 4.243 0 0 1 2.055-.939 4.18 4.18 0 0 1 1.764.062c.567.137 1.078.39 1.53.758.46.36.83.807 1.11 1.344l-1.314.226a2.976 2.976 0 0 0-1.254-1.062c-.495-.232-1.042-.296-1.64-.192a2.94 2.94 0 0 0-1.455.676 3.06 3.06 0 0 0-.892 1.323 3.257 3.257 0 0 0-.12 1.64c.1.576.321 1.082.664 1.518.35.426.777.738 1.282.936a2.934 2.934 0 0 0 1.597.15c.599-.103 1.093-.342 1.483-.718.397-.385.671-.863.825-1.433l1.312-.226a4.166 4.166 0 0 1-.592 1.648 4.017 4.017 0 0 1-1.189 1.228 4.304 4.304 0 0 1-1.644.637 4.313 4.313 0 0 1-2.248-.185 4.29 4.29 0 0 1-1.802-1.272 4.38 4.38 0 0 1-.929-2.069Zm12.712-4.139a2.89 2.89 0 0 1 1.39.077c.437.136.806.393 1.106.771.3.371.5.855.604 1.455l.565 3.275-1.124.194-.56-3.252c-.09-.52-.315-.908-.675-1.162-.36-.255-.774-.342-1.239-.262a1.606 1.606 0 0 0-.82.397 1.781 1.781 0 0 0-.499.781c-.094.3-.114.612-.058.935l.54 3.134-1.123.193-1.437-8.337 1.064-.183.555 3.216c.18-.315.422-.584.725-.807.302-.222.631-.364.986-.425Zm8.007-1.38c.19-.033.369-.052.539-.057l.189 1.1a3.489 3.489 0 0 0-.682.069 1.82 1.82 0 0 0-.882.395 1.737 1.737 0 0 0-.569 1.645l.553 3.205-1.124.193-1.019-5.912 1.064-.184.157.911c.167-.354.404-.65.712-.89a2.32 2.32 0 0 1 1.062-.475Zm5.626 5.362c-.583.1-1.138.058-1.665-.127a3.11 3.11 0 0 1-1.327-.916 3.081 3.081 0 0 1-.683-1.49 3.018 3.018 0 0 1 .147-1.62 3 3 0 0 1 .943-1.307 3.205 3.205 0 0 1 1.525-.69 3.119 3.119 0 0 1 1.645.143 3 3 0 0 1 1.326.916c.356.418.583.91.681 1.478.098.568.05 1.112-.145 1.632-.195.513-.51.949-.943 1.308a3.184 3.184 0 0 1-1.504.673Zm-.179-1.041c.363-.062.679-.206.948-.431.269-.233.463-.518.584-.856.119-.345.146-.707.08-1.085a2.084 2.084 0 0 0-.437-.984 1.897 1.897 0 0 0-.836-.611 1.911 1.911 0 0 0-1.04-.101 1.995 1.995 0 0 0-.97.447 1.91 1.91 0 0 0-.584.856c-.12.337-.148.695-.082 1.074.065.378.211.71.439.995.227.278.505.482.836.611.337.121.691.149 1.062.085Zm11.461-7.236a2.603 2.603 0 0 1 1.318.09c.414.139.763.4 1.048.781.291.372.489.857.592 1.456l.565 3.276-1.124.194-.56-3.252c-.09-.521-.311-.909-.664-1.164-.344-.258-.741-.347-1.191-.27-.489.084-.853.326-1.093.724-.24.399-.316.85-.229 1.355l.544 3.157-1.123.194-.561-3.252c-.089-.521-.311-.909-.663-1.164-.345-.258-.742-.347-1.191-.27-.489.084-.853.326-1.093.724-.24.399-.316.85-.229 1.355l.544 3.157-1.123.194-1.02-5.913 1.065-.183.161.934c.157-.36.385-.663.683-.909a2.207 2.207 0 0 1 1.027-.47c.465-.08.901-.05 1.307.092a2.05 2.05 0 0 1 1.028.736c.166-.402.424-.743.773-1.023a2.602 2.602 0 0 1 1.209-.549Zm7.339-1.265c.607-.105 1.157-.065 1.652.117.502.182.916.492 1.244.93.326.431.544.966.654 1.605.028.165.045.288.051.368l-4.848.836c.157.444.435.785.834 1.025.405.231.84.306 1.305.226.765-.132 1.261-.506 1.487-1.121l1.159-.2c-.094.585-.366 1.098-.818 1.541a3.063 3.063 0 0 1-1.648.82c-.576.1-1.119.059-1.629-.121a2.902 2.902 0 0 1-1.277-.912 3.282 3.282 0 0 1-.664-1.517c-.1-.584-.06-1.13.12-1.64.178-.518.474-.947.886-1.286a3.114 3.114 0 0 1 1.492-.671Zm.147.998c-.465.08-.842.295-1.13.645a1.902 1.902 0 0 0-.422 1.229l3.631-.625c-.129-.465-.388-.81-.775-1.036-.38-.226-.815-.298-1.304-.213Zm11.209-2.955c.608-.105 1.158-.066 1.652.117a2.64 2.64 0 0 1 1.244.93c.326.431.544.965.654 1.604.029.166.046.288.052.369l-4.849.835c.158.444.436.786.835 1.026.405.23.84.305 1.305.225.765-.132 1.26-.505 1.487-1.121l1.159-.2c-.094.585-.367 1.099-.818 1.542a3.08 3.08 0 0 1-1.649.82 3.19 3.19 0 0 1-1.628-.121 2.897 2.897 0 0 1-1.277-.913 3.282 3.282 0 0 1-.664-1.517c-.1-.583-.061-1.13.119-1.64.179-.518.474-.946.887-1.285a3.106 3.106 0 0 1 1.491-.671Zm.148.997c-.465.08-.842.295-1.131.645a1.902 1.902 0 0 0-.421 1.23l3.63-.626c-.128-.465-.387-.81-.775-1.035-.38-.227-.814-.298-1.303-.214Zm9.59 3.534-2.1-1.939-1.341 2.532-1.36.235 1.848-3.412-2.772-2.517 1.395-.241 1.985 1.838 1.22-2.39 1.395-.241-1.763 3.263 2.889 2.632-1.396.24Zm3.693-5.629.538 3.122c.044.252.136.435.278.549.149.112.373.143.673.091.284-.049.52-.114.709-.195l.177 1.028c-.2.108-.454.188-.762.241-1.253.217-1.986-.29-2.198-1.52l-.538-3.122-1.183.204-.183-1.065 1.182-.203-.265-1.538 1.124-.193.265 1.537 1.655-.286.184 1.065-1.656.285Zm5.724-2.204c.607-.105 1.157-.066 1.652.117.502.181.916.491 1.244.93.326.431.544.966.654 1.604.028.166.045.289.051.369l-4.848.836c.157.443.435.785.834 1.025.405.23.84.306 1.305.226.765-.132 1.261-.506 1.487-1.121l1.159-.2c-.094.584-.367 1.098-.818 1.541a3.07 3.07 0 0 1-1.648.82 3.193 3.193 0 0 1-1.629-.121 2.902 2.902 0 0 1-1.277-.912 3.282 3.282 0 0 1-.664-1.518c-.1-.583-.06-1.13.12-1.64.178-.518.474-.946.886-1.285a3.114 3.114 0 0 1 1.492-.671Zm.147.997c-.465.08-.842.296-1.13.646a1.9 1.9 0 0 0-.422 1.229l3.631-.626c-.129-.464-.388-.81-.775-1.035-.38-.227-.815-.298-1.304-.214Zm7.824-2.371a2.698 2.698 0 0 1 1.342.085c.422.139.779.398 1.072.777.299.371.5.856.604 1.455l.564 3.276-1.123.193-.561-3.252c-.089-.52-.315-.907-.675-1.162-.36-.254-.773-.342-1.238-.261a1.651 1.651 0 0 0-1.336 1.155c-.086.299-.101.61-.046.934l.545 3.157-1.124.194-1.019-5.913 1.064-.184.163.946c.165-.361.401-.665.707-.913a2.249 2.249 0 0 1 1.061-.487Zm8.05 4.944c-.741.128-1.397.063-1.97-.196a2.056 2.056 0 0 1-1.127-1.316l1.123-.193c.161.321.394.541.698.659.311.109.695.124 1.152.045.426-.074.758-.2.995-.379.235-.186.334-.39.296-.611a.607.607 0 0 0-.362-.473c-.196-.104-.542-.155-1.036-.15l-.695-.003c-1.462-.007-2.27-.456-2.424-1.347-.089-.521.067-.978.47-1.372.402-.402.973-.667 1.714-.795.67-.115 1.269-.056 1.796.178.526.226.9.604 1.121 1.134l-1.194.206c-.136-.221-.348-.371-.638-.451a2.006 2.006 0 0 0-.922-.048c-.409.071-.726.19-.948.359-.217.159-.306.345-.27.558.033.189.151.331.354.426.202.087.509.127.922.121h.706c.827-.005 1.433.118 1.817.369.383.242.616.608.701 1.096.089.521-.07.983-.48 1.386-.403.394-1.002.66-1.799.797Zm4.611-7.005 1.019 5.913-1.123.194-1.019-5.913 1.123-.194Zm-.337-2.377.224 1.301-1.253.216-.224-1.301 1.253-.216Zm6.472 7.53a3.269 3.269 0 0 1-1.666-.127 3.117 3.117 0 0 1-1.327-.916 3.091 3.091 0 0 1-.683-1.489 3.04 3.04 0 0 1 .147-1.621c.195-.521.509-.956.944-1.307a3.19 3.19 0 0 1 1.525-.689 3.104 3.104 0 0 1 1.644.142c.527.186.97.491 1.327.916.356.418.583.911.681 1.478.098.568.05 1.112-.145 1.632-.196.513-.51.949-.943 1.308a3.184 3.184 0 0 1-1.504.673Zm-.179-1.041c.362-.062.678-.206.948-.431.268-.233.463-.518.583-.856.119-.345.146-.707.081-1.085a2.093 2.093 0 0 0-.437-.984 1.897 1.897 0 0 0-.836-.611 1.914 1.914 0 0 0-1.041-.101c-.37.064-.693.213-.97.448a1.9 1.9 0 0 0-.583.855c-.12.337-.148.695-.083 1.074.066.378.212.71.44.996.226.277.505.481.836.61.337.121.691.149 1.062.085Zm7.203-6.502a2.71 2.71 0 0 1 1.342.085 2.21 2.21 0 0 1 1.072.778c.299.37.5.855.604 1.454l.564 3.276-1.123.194-.561-3.252c-.089-.521-.315-.908-.675-1.163-.36-.254-.773-.341-1.238-.261a1.66 1.66 0 0 0-1.336 1.156c-.086.299-.101.61-.046.933l.545 3.157-1.124.194-1.019-5.913 1.064-.183.163.946c.165-.361.401-.666.707-.914a2.258 2.258 0 0 1 1.061-.487Zm8.05 4.945c-.741.127-1.397.062-1.97-.197a2.055 2.055 0 0 1-1.127-1.315l1.123-.194c.161.321.394.541.698.659.311.109.695.124 1.152.045.426-.073.758-.199.995-.378.235-.187.334-.391.296-.612a.608.608 0 0 0-.362-.473c-.196-.104-.542-.154-1.036-.15l-.695-.002c-1.462-.008-2.27-.457-2.424-1.348-.089-.52.067-.978.47-1.372.402-.402.973-.667 1.714-.794.67-.116 1.269-.057 1.796.177.526.226.9.604 1.121 1.134l-1.194.206c-.136-.22-.348-.37-.638-.45a1.979 1.979 0 0 0-.922-.048c-.409.07-.726.19-.948.358-.217.159-.306.345-.27.558.033.189.151.331.354.426.202.087.509.127.922.121h.706c.827-.004 1.433.118 1.817.369.383.242.616.608.701 1.097.089.52-.07.982-.48 1.385-.403.395-1.002.66-1.799.798ZM247.383 51.988a4.97 4.97 0 0 1 1.303-1.962 5.445 5.445 0 0 1 2.072-1.215 4.91 4.91 0 0 1 2.352-.19c.608.098 1.136.303 1.583.615.45.304.789.694 1.018 1.17.239.468.351.988.336 1.56l-1.315-.215c-.061-.543-.265-.995-.612-1.354-.335-.365-.803-.596-1.403-.694a3.409 3.409 0 0 0-1.671.146 3.991 3.991 0 0 0-1.483.905 3.735 3.735 0 0 0-.936 1.437c-.2.549-.253 1.074-.159 1.575.105.495.338.91.701 1.249.362.337.824.552 1.384.643.6.098 1.173.04 1.719-.174a3.986 3.986 0 0 0 1.477-1.026l1.315.214a5.296 5.296 0 0 1-1.373 1.294 5.219 5.219 0 0 1-1.707.725 4.851 4.851 0 0 1-1.824.05c-.79-.129-1.444-.422-1.963-.881a3.227 3.227 0 0 1-1.007-1.717c-.145-.685-.08-1.403.193-2.155Zm16.068.824-2.048 5.64-1.066-.174.327-.902a3.351 3.351 0 0 1-1.123.605 2.601 2.601 0 0 1-1.2.092c-.481-.079-.88-.247-1.196-.506a1.746 1.746 0 0 1-.592-1.028c-.077-.434-.011-.937.197-1.509l1.135-3.124 1.125.183-1.127 3.102c-.18.496-.17.916.032 1.26.201.343.535.552 1.001.628.339.056.663.029.97-.08.318-.116.592-.295.822-.536.237-.24.412-.514.524-.822l1.094-3.012 1.125.183Zm2.484 6.497c-.742-.12-1.31-.389-1.703-.803-.383-.42-.505-.934-.368-1.541l1.125.183c-.015.34.087.612.306.814.23.197.573.333 1.031.407.427.07.793.062 1.1-.024.31-.093.503-.244.58-.455.076-.21.046-.39-.092-.54-.128-.157-.418-.312-.873-.465l-.634-.223c-1.334-.472-1.846-1.133-1.538-1.982.181-.496.554-.858 1.122-1.084.57-.234 1.226-.29 1.968-.17.671.11 1.189.354 1.553.731.368.37.519.83.454 1.376l-1.196-.194c-.013-.241-.132-.444-.357-.608a1.779 1.779 0 0 0-.818-.336c-.411-.067-.76-.06-1.049.02-.278.074-.454.213-.527.416-.066.18-.03.346.108.495.141.143.402.277.782.403l.646.224c.759.26 1.251.562 1.476.91.228.34.258.742.088 1.208-.18.497-.559.861-1.137 1.093-.567.227-1.25.275-2.047.145Zm7.677-3.767-1.082 2.977c-.087.24-.095.435-.023.582.08.148.27.247.57.296.285.046.534.063.747.05l-.356.98a2.77 2.77 0 0 1-.819-.025c-1.255-.204-1.67-.893-1.244-2.066l1.082-2.977-1.184-.193.368-1.015 1.185.192.533-1.466 1.125.183-.533 1.467 1.658.27-.369 1.015-1.658-.27Zm4.334 5.722c-.584-.095-1.071-.31-1.459-.643a2.348 2.348 0 0 1-.752-1.246c-.113-.496-.07-1.014.126-1.556a3.502 3.502 0 0 1 .952-1.41c.44-.406.947-.698 1.522-.875a3.69 3.69 0 0 1 1.742-.134c.577.093 1.054.31 1.432.65.389.335.639.75.752 1.246.115.489.074 1.004-.122 1.545a3.582 3.582 0 0 1-.956 1.421c-.437.399-.945.69-1.522.875a3.67 3.67 0 0 1-1.715.127Zm.361-.992c.363.06.725.03 1.085-.086.363-.124.684-.319.965-.584.283-.272.49-.589.621-.95.131-.36.163-.702.096-1.024a1.433 1.433 0 0 0-.457-.815 1.675 1.675 0 0 0-.9-.42 2.31 2.31 0 0 0-1.113.093c-.36.116-.682.31-.965.583-.28.265-.486.578-.617.94a1.91 1.91 0 0 0-.1 1.034c.067.322.219.593.456.815.248.216.558.354.929.414Zm14.131-2.86c.474.077.86.244 1.161.5.308.257.496.602.564 1.035.079.427.015.926-.193 1.498l-1.135 3.124-1.125-.183 1.127-3.102c.18-.496.174-.915-.02-1.257-.186-.341-.503-.548-.954-.622a1.837 1.837 0 0 0-1.364.304c-.42.282-.718.663-.893 1.145l-1.094 3.011-1.125-.183 1.127-3.102c.18-.496.173-.915-.02-1.257-.186-.341-.504-.548-.954-.621a1.837 1.837 0 0 0-1.364.303 2.28 2.28 0 0 0-.893 1.145l-1.094 3.011-1.125-.183 2.049-5.64 1.066.174-.324.891a3.151 3.151 0 0 1 1.084-.6 2.552 2.552 0 0 1 1.176-.095c.466.076.849.242 1.149.498.31.25.5.579.569.988a3.298 3.298 0 0 1 1.223-.673 2.99 2.99 0 0 1 1.382-.11Zm12.503-.234c.884.144 1.587.441 2.109.893.53.452.859 1.007.988 1.666.131.65.062 1.348-.209 2.092a5.03 5.03 0 0 1-1.254 1.934 4.992 4.992 0 0 1-2.017 1.165c-.773.24-1.602.289-2.486.145l-2.842-.463 2.868-7.895 2.843.463Zm-2.476 6.812a4.006 4.006 0 0 0 1.762-.084 3.329 3.329 0 0 0 1.427-.819 3.79 3.79 0 0 0 .932-1.46c.21-.58.267-1.104.17-1.574a1.91 1.91 0 0 0-.701-1.177c-.382-.309-.884-.514-1.508-.616l-1.658-.27-2.082 5.73 1.658.27Zm10.595-3.22c.608.098 1.092.308 1.452.63a2 2 0 0 1 .668 1.232c.081.49.011 1.04-.21 1.65a4.623 4.623 0 0 1-.139.347l-4.856-.79c-.08.449.002.844.246 1.187.254.336.614.542 1.08.617.766.125 1.408-.053 1.926-.534l1.16.189c-.38.495-.889.87-1.525 1.125a3.602 3.602 0 0 1-1.921.213c-.577-.094-1.053-.303-1.429-.627a2.184 2.184 0 0 1-.708-1.226c-.097-.494-.044-1.019.158-1.575a3.692 3.692 0 0 1 .936-1.436 3.68 3.68 0 0 1 1.459-.874 3.596 3.596 0 0 1 1.703-.129Zm-.368.943a2.172 2.172 0 0 0-1.36.22 2.383 2.383 0 0 0-1.005.971l3.636.592c.117-.458.054-.85-.187-1.177-.233-.325-.595-.527-1.084-.606Zm5.343 6.078c-.742-.121-1.31-.389-1.703-.803-.383-.42-.505-.934-.368-1.541l1.125.183c-.015.34.087.611.306.814.23.197.573.333 1.031.407.427.07.793.062 1.1-.024.31-.093.503-.245.58-.455.076-.21.046-.39-.092-.54-.128-.157-.418-.312-.873-.465l-.634-.223c-1.334-.472-1.846-1.133-1.538-1.982.181-.497.554-.858 1.122-1.084.57-.234 1.226-.29 1.968-.17.671.11 1.189.353 1.554.731.367.37.518.83.453 1.376l-1.196-.194c-.013-.241-.132-.444-.357-.608a1.779 1.779 0 0 0-.818-.336c-.411-.067-.76-.06-1.049.02-.278.074-.454.213-.527.416-.066.18-.03.345.108.495.141.143.402.277.782.402l.646.225c.759.26 1.251.562 1.476.91.228.34.258.742.088 1.208-.18.496-.559.86-1.137 1.093-.567.227-1.25.275-2.047.145Zm7.468-1.675-1.08.588-.688 1.895-1.125-.183 2.888-7.951 1.126.183-1.75 4.816 3.669-2.055 1.493.243-3.422 1.856 1.621 3.824-1.504-.245-1.228-2.971Zm7.487-.908-1.082 2.978c-.087.24-.095.434-.023.581.08.149.27.248.57.296.284.047.533.063.747.05l-.357.981c-.237.034-.51.025-.818-.025-1.256-.205-1.67-.893-1.244-2.066l1.082-2.978-1.185-.193.369-1.015 1.185.193.532-1.466 1.125.183-.532 1.466 1.658.27-.369 1.015-1.658-.27Zm4.334 5.723c-.584-.095-1.071-.31-1.46-.644a2.354 2.354 0 0 1-.752-1.245c-.112-.496-.07-1.015.127-1.556a3.51 3.51 0 0 1 .951-1.41c.44-.406.948-.698 1.522-.875a3.697 3.697 0 0 1 1.743-.135c.576.094 1.054.311 1.432.651.388.335.639.75.751 1.246.116.488.075 1.003-.122 1.545a3.568 3.568 0 0 1-.955 1.421 4.08 4.08 0 0 1-1.522.875 3.67 3.67 0 0 1-1.715.127Zm.361-.992c.363.059.724.03 1.085-.087.362-.124.684-.318.964-.583.283-.273.49-.59.621-.95.132-.361.164-.702.096-1.024a1.426 1.426 0 0 0-.456-.815 1.678 1.678 0 0 0-.901-.421 2.31 2.31 0 0 0-1.113.093c-.36.117-.681.311-.964.584a2.396 2.396 0 0 0-.617.939 1.901 1.901 0 0 0-.1 1.035c.067.321.219.593.456.815.248.215.557.353.929.414Zm9.973-3.537c.521.085.949.29 1.282.615.336.317.546.718.63 1.201.083.484.023 1.007-.182 1.571a3.891 3.891 0 0 1-.916 1.452 3.744 3.744 0 0 1-1.388.885 3.148 3.148 0 0 1-1.557.14 2.224 2.224 0 0 1-1.023-.429 2.05 2.05 0 0 1-.63-.855l-1.004 2.763-1.125-.183 2.745-7.556 1.066.173-.332.914a3.624 3.624 0 0 1 1.187-.608 2.8 2.8 0 0 1 1.247-.083Zm-1.96 4.841c.348.057.69.025 1.026-.096.337-.12.637-.314.902-.582.267-.275.467-.596.601-.965.134-.368.175-.712.124-1.03a1.373 1.373 0 0 0-.397-.806c-.217-.21-.499-.344-.846-.4a2.099 2.099 0 0 0-1.038.093c-.344.12-.65.317-.917.592a2.595 2.595 0 0 0-.597.953c-.134.369-.177.716-.128 1.043.051.319.189.584.413.796.224.212.51.346.857.402Zm15.972-2.44-2.049 5.639-1.125-.183.307-.846c-.354.26-.736.45-1.146.566a2.842 2.842 0 0 1-1.203.066c-.522-.084-.95-.286-1.287-.603a2.16 2.16 0 0 1-.625-1.213c-.084-.483-.023-1.007.182-1.571.205-.564.51-1.048.916-1.452a3.625 3.625 0 0 1 1.384-.873 3.084 3.084 0 0 1 1.56-.153c.411.067.761.22 1.051.458.29.239.502.54.637.904l.332-.913 1.066.173Zm-4.666 4.28c.347.057.693.026 1.037-.093.345-.12.649-.313.914-.58.267-.275.467-.597.601-.965.134-.369.175-.712.124-1.031a1.351 1.351 0 0 0-.409-.808 1.588 1.588 0 0 0-.858-.402 2.031 2.031 0 0 0-1.026.096c-.336.12-.638.318-.905.593a2.598 2.598 0 0 0-.598.954c-.133.368-.176.716-.127 1.042.051.32.185.584.401.794.216.21.498.344.846.4Zm10.324-3.479c.521.085.949.29 1.282.615.336.317.546.718.63 1.201.083.484.023 1.008-.182 1.572a3.892 3.892 0 0 1-.916 1.451 3.746 3.746 0 0 1-1.388.885 3.15 3.15 0 0 1-1.557.14 2.225 2.225 0 0 1-1.023-.428 2.05 2.05 0 0 1-.63-.856l-1.004 2.764-1.125-.184 2.745-7.556 1.066.173-.332.914c.37-.282.766-.485 1.187-.607.421-.123.836-.15 1.247-.084Zm-1.96 4.841c.348.057.69.025 1.026-.095.337-.12.637-.315.902-.582.267-.275.467-.597.601-.966.134-.368.175-.712.124-1.03a1.369 1.369 0 0 0-.398-.806c-.216-.21-.498-.344-.845-.4a2.1 2.1 0 0 0-1.038.093 2.33 2.33 0 0 0-.917.592 2.599 2.599 0 0 0-.598.954c-.133.368-.176.716-.127 1.042.051.32.189.584.413.796.224.212.51.346.857.402Zm9.839-3.558c.521.085.949.29 1.282.615.336.317.546.718.63 1.201.083.484.023 1.007-.182 1.571a3.892 3.892 0 0 1-.916 1.452 3.744 3.744 0 0 1-1.388.885 3.15 3.15 0 0 1-1.557.14 2.225 2.225 0 0 1-1.023-.429 2.058 2.058 0 0 1-.63-.855l-1.004 2.763-1.125-.183 2.745-7.557 1.066.174-.332.914a3.624 3.624 0 0 1 1.187-.608 2.8 2.8 0 0 1 1.247-.083Zm-1.96 4.841c.348.057.69.025 1.026-.096.337-.12.637-.314.902-.582.267-.275.467-.596.601-.965.134-.368.175-.712.124-1.03a1.373 1.373 0 0 0-.397-.806c-.217-.21-.499-.344-.846-.4a2.1 2.1 0 0 0-1.038.093 2.33 2.33 0 0 0-.917.592 2.597 2.597 0 0 0-.597.953c-.134.369-.177.716-.128 1.043.051.319.189.584.413.796.224.212.51.346.857.402Zm6.724 2.146c-.742-.12-1.31-.388-1.703-.803-.382-.42-.505-.934-.368-1.541l1.125.183c-.015.34.087.612.306.815.23.196.574.332 1.032.406.426.07.793.062 1.1-.024.309-.093.502-.244.579-.455.076-.21.046-.39-.092-.54-.127-.157-.418-.311-.873-.465l-.634-.223c-1.334-.472-1.846-1.133-1.537-1.982.18-.496.554-.858 1.121-1.084.57-.234 1.226-.29 1.968-.17.671.11 1.189.354 1.554.731.367.37.518.83.453 1.377l-1.196-.195c-.013-.241-.132-.444-.356-.608a1.783 1.783 0 0 0-.819-.336c-.411-.067-.76-.06-1.049.02-.278.075-.453.213-.527.416-.066.18-.03.346.108.496.141.142.402.276.783.402l.646.224c.759.26 1.251.562 1.476.91.227.34.257.742.087 1.208-.18.497-.559.861-1.137 1.094-.567.226-1.25.274-2.047.144ZM67.823 38.053c.428.117.776.314 1.043.59.265.268.443.606.534 1.011.1.445.084.867-.048 1.266a2.2 2.2 0 0 1-.718 1.022c-.352.292-.806.5-1.36.625l-3.676.825-1.84-8.196 3.665-.823c.53-.119 1.01-.124 1.436-.014.426.109.774.31 1.045.601.278.29.464.646.559 1.068.088.39.08.757-.024 1.1a2.017 2.017 0 0 1-.616.925Zm-1.654-.084c.468-.105.795-.293.98-.564.19-.28.24-.632.144-1.053-.18-.804-.742-1.1-1.687-.888l-2.435.546.562 2.506 2.435-.547Zm.805 3.534c.484-.109.826-.3 1.027-.575.2-.275.254-.623.16-1.044-.092-.406-.285-.683-.58-.83-.298-.154-.688-.177-1.172-.069l-2.447.55.565 2.517 2.447-.55Zm6.638-6.631c.188-.042.366-.07.535-.083l.245 1.089c-.148 0-.374.034-.678.103a1.81 1.81 0 0 0-.86.439 1.734 1.734 0 0 0-.487 1.67l.712 3.174-1.112.25-1.314-5.855 1.054-.236.202.901c.149-.361.37-.67.666-.924.301-.265.647-.44 1.037-.528Zm5.888 5.074a3.271 3.271 0 0 1-1.67-.044 3.119 3.119 0 0 1-1.371-.848 3.088 3.088 0 0 1-.757-1.454 3.024 3.024 0 0 1 .066-1.625 3 3 0 0 1 .877-1.353c.415-.38.91-.635 1.488-.765a3.11 3.11 0 0 1 1.65.06 3 3 0 0 1 1.37.849c.377.399.629.88.755 1.442a3.086 3.086 0 0 1-.063 1.637c-.17.522-.462.973-.877 1.353-.409.37-.898.62-1.468.748Zm-.231-1.03c.359-.081.667-.24.925-.48.257-.245.437-.54.54-.883.102-.35.11-.713.026-1.088a2.088 2.088 0 0 0-.486-.96 1.895 1.895 0 0 0-.865-.569 1.91 1.91 0 0 0-1.044-.049 1.995 1.995 0 0 0-.947.496 1.896 1.896 0 0 0-.54.883 2.087 2.087 0 0 0-.028 1.077c.084.374.247.699.489.972.24.266.528.456.865.569.343.103.698.114 1.065.031Zm12.216-7.933-.466 6.254-1.358.305-2.463-4.182-.487 4.844-1.323.297-3.083-5.457 1.206-.271 2.289 4.332.498-4.958 1.23-.275 2.543 4.262.22-4.883 1.194-.268Zm4.987 5.153c-.734.165-1.393.132-1.977-.097a2.056 2.056 0 0 1-1.193-1.258l1.113-.25c.177.313.42.521.73.624.316.093.7.089 1.153-.013.422-.095.746-.237.974-.428.226-.198.315-.406.266-.625a.609.609 0 0 0-.385-.455c-.202-.094-.55-.127-1.043-.098l-.694.033c-1.46.066-2.29-.343-2.488-1.225-.116-.515.017-.98.4-1.393.381-.422.938-.715 1.672-.88.664-.149 1.265-.12 1.803.087.537.2.929.559 1.176 1.077l-1.182.265c-.147-.213-.366-.352-.66-.417a1.984 1.984 0 0 0-.923-.002c-.406.09-.715.226-.93.405-.207.17-.288.36-.24.57.042.188.167.324.374.409.206.076.515.101.927.075l.706-.036c.825-.046 1.436.047 1.833.278.394.223.646.576.754 1.06.116.515-.02.984-.41 1.408-.382.414-.968.71-1.756.886Zm5.643-7.662c.601-.135 1.153-.123 1.656.034.51.156.94.445 1.289.867.347.414.592.937.733 1.57.037.163.061.285.07.365l-4.8 1.078c.179.435.474.762.884.982.416.21.855.263 1.315.16.757-.17 1.234-.568 1.429-1.194l1.148-.258c-.065.589-.311 1.115-.74 1.58a3.07 3.07 0 0 1-1.606.902 3.188 3.188 0 0 1-1.632-.04 2.9 2.9 0 0 1-1.321-.847 3.28 3.28 0 0 1-.739-1.482 3.214 3.214 0 0 1 .037-1.644c.152-.526.426-.969.821-1.328a3.113 3.113 0 0 1 1.456-.745Zm.198.989a1.817 1.817 0 0 0-1.098.701 1.905 1.905 0 0 0-.359 1.25l3.595-.808c-.152-.457-.427-.79-.826-.995-.391-.207-.829-.257-1.312-.148Zm7.695-2.76a3.82 3.82 0 0 1 .534-.084l.245 1.09c-.148 0-.374.034-.678.102-.343.078-.63.224-.861.44-.222.213-.378.47-.467.768-.082.29-.089.59-.019.903l.713 3.172-1.113.25-1.314-5.854 1.054-.237.202.902c.149-.361.371-.67.666-.924a2.32 2.32 0 0 1 1.038-.528Zm11.508-2.46 1.314 5.854-1.112.25-.197-.879c-.172.367-.41.678-.713.935a2.486 2.486 0 0 1-1.042.505 2.709 2.709 0 0 1-1.492-.071 2.864 2.864 0 0 1-1.24-.866c-.345-.406-.584-.902-.715-1.487-.131-.586-.128-1.136.011-1.65.138-.516.39-.95.753-1.301a2.65 2.65 0 0 1 1.316-.714 2.436 2.436 0 0 1 1.199.026c.393.109.752.303 1.077.582l-.212-.948 1.053-.237Zm-1.794 5.592a1.802 1.802 0 0 0 1.374-1.329 2.353 2.353 0 0 0 0-1.095 2.287 2.287 0 0 0-.465-.977 1.788 1.788 0 0 0-1.813-.627 1.746 1.746 0 0 0-.868.466 1.818 1.818 0 0 0-.481.87c-.087.34-.088.7-.003 1.083.086.383.242.712.468.99.225.269.493.459.805.57.312.11.639.126.983.05Zm7.321-6.956a2.646 2.646 0 0 1 1.494.083c.479.163.892.447 1.237.854.345.406.584.902.715 1.487.132.585.128 1.136-.011 1.65a2.858 2.858 0 0 1-.75 1.313 2.711 2.711 0 0 1-1.319.702c-.39.087-.776.084-1.158-.011a2.725 2.725 0 0 1-1.044-.54l.644 2.868-1.112.25-1.761-7.845 1.054-.237.213.949c.174-.392.416-.72.725-.987a2.436 2.436 0 0 1 1.073-.536Zm.948 5.1c.343-.077.632-.232.867-.465.234-.233.396-.52.483-.859a2.34 2.34 0 0 0 .001-1.094 2.277 2.277 0 0 0-.466-.978 1.741 1.741 0 0 0-1.789-.631 1.78 1.78 0 0 0-1.372 1.341c-.088.339-.089.7-.003 1.082.086.383.242.713.468.99a1.807 1.807 0 0 0 1.811.614Zm6.841-6.848a2.646 2.646 0 0 1 1.494.082c.479.163.892.448 1.237.854.345.407.584.902.715 1.488.132.585.128 1.135-.011 1.65a2.857 2.857 0 0 1-.75 1.312 2.712 2.712 0 0 1-1.319.702c-.39.088-.776.084-1.158-.01a2.725 2.725 0 0 1-1.044-.54l.644 2.868-1.112.25-1.761-7.845 1.054-.237.213.949c.174-.392.416-.721.725-.987a2.435 2.435 0 0 1 1.073-.536Zm.948 5.1c.343-.077.632-.232.867-.465.234-.233.396-.52.484-.86a2.353 2.353 0 0 0 0-1.094 2.277 2.277 0 0 0-.466-.978 1.741 1.741 0 0 0-1.789-.631 1.781 1.781 0 0 0-1.372 1.341c-.088.34-.089.7-.003 1.083s.242.712.468.99a1.807 1.807 0 0 0 1.811.614Zm7.234-.542c-.734.165-1.393.133-1.977-.097a2.057 2.057 0 0 1-1.193-1.257l1.113-.25c.177.313.42.52.73.623.316.093.7.089 1.153-.013.422-.094.746-.237.974-.427.226-.199.315-.407.266-.626a.61.61 0 0 0-.385-.454c-.202-.095-.549-.127-1.043-.098l-.694.032c-1.461.066-2.29-.342-2.488-1.224-.116-.516.017-.98.4-1.394.381-.422.938-.715 1.672-.88.664-.148 1.265-.12 1.803.088.537.2.929.558 1.176 1.076l-1.182.266c-.146-.213-.366-.353-.66-.418a1.984 1.984 0 0 0-.923-.002c-.405.091-.715.226-.929.405-.208.17-.289.36-.241.571.042.188.167.323.374.408.206.077.515.102.927.075l.705-.035c.826-.046 1.438.046 1.834.277.394.223.646.576.754 1.06.116.515-.021.985-.409 1.408-.383.414-.969.71-1.757.886Z"/></svg>
