<svg xmlns="http://www.w3.org/2000/svg" width="1706" height="492" fill="none" viewBox="0 0 1706 492"><path fill="url(#a)" fill-rule="evenodd" d="M1516.2 4.07 1414.5 114.21v18.826H1327v-6h81.5v-15.173l.8-.862L1511.8 0l4.4 4.07Zm-70.33 135.715h65.63v-95h-17l-71.04 75.572v19.428h22.41ZM1327 293.509h67v-33.723h-67v33.723Zm62.77 82.276H1305.5v-19.428h33.71v-48.572h50.56v68Zm33.69 16.862h-16.68v-33.723h16.68v33.723ZM1535 463.285h-67v-24.25h67v24.25Zm39-156h-168v24h168v-24Zm-13-47.5h114v15.5h-114v-15.5Zm-204.27 160.75h-23v15.5h23v-15.5Zm49.27-160.75h125v22.5h-125v-22.5Zm171-99.5h-247v17h250v23h-250v13h250v24h-253v-6h247v-12h-250v-25h250v-11h-250v-29h253v6Zm-34 99.5v36.5h-139v-6h133v-30.5h6Zm-216-8.5h250v-6h-250v6Zm327 95.5h-250v-6h250v6Zm-195 60.5v6.016h247v6h-247v5.484h91.5v6H1459v32.5h-132v-6h126v-5h-126v-6h126v-45h97.5v6H1459Zm48-31.5h-55v-6h55v6Zm-55 14h55v-6h-55v6Zm-31.91 30h28.54l-14.09 17H1406l14.09-17Zm-21.4 2.071c.08-.01.17-.012.25-.007l.26.016c.08.005.16.017.24.035l.26.059c.08.017.15.04.22.068l.26.103a3.724 3.724 0 0 1 .18.085l.26.145c.04.028.09.058.14.091l.26.185c.03.028.07.057.11.087l.25.225c.03.025.06.052.09.079l.26.262.06.069.26.297c.01.019.03.039.05.059l.25.33.02.016c0 .011.01.022.02.033l.26.359.03.041.26.385c0 .011.01.022.02.033l.26.408v.014l.01.013.26.427.01.02.26.443.01.014.26.454v.01l.26.461v.004l.26.464v.001l.25.458.01.006.25.442v.011l.25.431.25.418.24.395.24.368.23.336.24.327c.49.666.35 1.605-.31 2.098a1.5 1.5 0 0 1-2.1-.312l-.26-.349-.01-.02-.02-.023-.26-.376c-.01-.012-.02-.024-.02-.036l-.26-.4-.01-.017-.01-.012-.26-.42-.01-.023-.26-.437-.01-.017-.26-.45v-.011l-.26-.46v-.005l-.26-.465v-.001l-.26-.461v-.004l-.25-.448-.01-.01-.25-.437-.24-.426-.25-.404-.24-.379-.23-.348-.23-.314-.21-.276-.21-.233-.18-.188-.16-.141-.13-.095-.1-.055-.06-.023-.03-.006-.01.001-.04.009-.07.031-.11.066-.14.108-.17.155-.19.202-.2.245-.22.288-.23.324-.24.358-.24.386-.24.411-.25.431-.25.443-.01.007-.25.453v.003l-.26.462v.003l-.26.463v.008l-.26.457-.01.012-.25.447-.01.019-.26.432-.02.025-.26.415v.012l-.02.018-.25.394a1.26 1.26 0 0 0-.03.038l-.26.368-.03.046-.26.34c-.01.019-.03.037-.04.055l-.26.309-.03.03-.03.035-.26.274-.03.036c-.02.013-.03.027-.04.04l-.26.238c-.03.029-.07.057-.1.084l-.26.199c-.03.019-.05.038-.08.055-.02.012-.03.024-.05.035l-.26.159-.09.05a.502.502 0 0 1-.08.038l-.26.117c-.06.03-.13.055-.2.075l-.26.074c-.03.009-.06.016-.09.023l-.08.016-.07.009-.26.03c-.08.01-.16.012-.25.008l-.26-.014a1.848 1.848 0 0 1-.13-.012l-.06-.011a.275.275 0 0 1-.05-.011l-.26-.057a1.314 1.314 0 0 1-.22-.067l-.26-.1a2.088 2.088 0 0 1-.18-.085l-.26-.143a.14.14 0 0 0-.04-.023c-.03-.021-.07-.044-.1-.068l-.26-.184a.767.767 0 0 1-.11-.087l-.26-.224c-.01-.011-.02-.022-.04-.033-.01-.015-.03-.03-.04-.046l-.26-.26c-.02-.023-.05-.046-.07-.07l-.25-.295c-.02-.02-.04-.039-.05-.06l-.26-.328-.01-.01-.03-.04-.26-.357-.03-.042-.25-.384-.03-.033-.25-.407-.01-.018-.01-.009-.26-.427-.01-.02-.26-.442-.01-.015-.26-.454v-.009l-.26-.462v-.004l-.26-.464v-.001l-.25-.458-.01-.005-.25-.449-.25-.438-.25-.418-.24-.396-.24-.369-.23-.338-.22-.301-.21-.262-.2-.219-.18-.172-.15-.126-.12-.081-.09-.042-.04-.016-.02-.003h-.01l-.01.002-.05.016-.08.041-.12.079-.15.124-.18.17-.19.217-.22.26-.22.3-.23.336-.24.367-.24.395-.25.418-.25.437-.25.448v.003l-.25.46-.01.001-.25.465-.01.004-.25.461-.01.009-.26.455-.01.014-.25.443-.02.02-.25.427-.01.013-.01.014-.26.408c0 .011-.01.022-.02.033l-.26.385-.01.021-.02.02-.25.359a.187.187 0 0 0-.04.049l-.26.33c-.01.01-.01.019-.02.029l-.03.03-.26.297-.06.069-.26.262c-.02.027-.05.053-.08.079l-.26.225a.763.763 0 0 1-.11.086l-.26.186a.965.965 0 0 1-.14.091l-.26.145c-.06.032-.12.061-.18.085l-.26.103c-.07.028-.14.05-.21.067l-.26.06c-.08.018-.16.03-.25.035l-.25.015c-.09.006-.17.003-.26-.006l-.26-.028a1.561 1.561 0 0 1-.24-.046l-.25-.072c-.07-.02-.14-.045-.21-.074l-.26-.115c-.06-.026-.11-.056-.17-.089l-.26-.156a1.172 1.172 0 0 1-.13-.091l-.26-.197c-.02-.014-.03-.029-.05-.044-.02-.013-.03-.027-.05-.041l-.26-.236c-.02-.024-.05-.05-.07-.076l-.26-.273c-.01-.012-.03-.025-.04-.038 0-.009-.01-.018-.02-.027l-.26-.307c0-.008-.01-.016-.02-.024-.01-.011-.01-.021-.02-.032l-.26-.339c-.01-.015-.02-.031-.04-.046l-.25-.367c-.01-.007-.01-.014-.02-.021l-.01-.018-.26-.392-.01-.013-.01-.018-.26-.414-.01-.025-.26-.432-.01-.018-.26-.447v-.013l-.26-.457-.01-.007-.26-.463v-.003l-.25-.463-.01-.002-.25-.457-.25-.448-.25-.431-.25-.412-.24-.388-.23-.359-.23-.325-.22-.289-.21-.248-.19-.203-.17-.157-.14-.11-.11-.068-.07-.032-.04-.01-.01-.001h-.01l-.13.03a1.501 1.501 0 0 1-.66-2.928l.26-.058c.08-.018.17-.029.25-.033l.26-.014c.08-.004.17-.002.25.008l.26.03c.08.01.16.026.24.048l.25.073c.07.021.14.046.21.076l.26.116c.06.026.11.056.17.089l.25.159c.05.027.09.057.13.09l.26.199c.04.026.07.055.1.084l.26.238c.03.024.05.049.08.075l.26.275c.02.021.03.043.05.065l.26.308c.02.018.03.037.05.056l.25.34c.01.007.01.014.02.021.01.008.01.016.02.025l.26.368.01.019.01.019.26.394c.01.01.01.02.02.03l.26.415.01.024.26.433.01.018.26.448.01.012.25.457.01.008.26.463v.002l.25.463.01.003.25.456.25.447.25.431.25.411.24.386.23.358.23.324.22.287.21.246.19.202.17.155.14.108.11.065.07.032.03.009.01.001h.01l.02-.006.06-.023.1-.055.13-.095.17-.141.18-.188.2-.234.22-.275.22-.314.24-.348.24-.379.24-.404.25-.426.25-.442.25-.453.01-.004.25-.461v-.001l.26-.465v-.006l.26-.459.01-.011.26-.45.01-.017.25-.437.02-.023.26-.42v-.011l.01-.018.26-.4c.01-.008.01-.015.02-.023l.01-.013.25-.376.02-.02.02-.024.25-.348a.185.185 0 0 0 .04-.053l.26-.318.06-.062.25-.284.03-.028c.01-.016.03-.03.04-.045l.26-.248a.71.71 0 0 1 .1-.083l.25-.21c.03-.02.05-.039.08-.057.01-.011.03-.022.04-.032l.26-.171c.05-.033.11-.063.16-.09l.26-.129c.06-.031.13-.058.19-.08l.26-.087c.08-.025.15-.044.23-.057l.26-.042c.08-.014.17-.021.25-.021l.26.001c.08 0 .17.008.25.022l.26.045c.07.013.15.033.22.058l.26.088c.07.023.13.05.2.082l.25.13c.04.017.07.035.1.055l.06.036.26.172c.02.016.04.033.07.05.01.013.03.026.05.039l.25.212.06.045c.01.012.02.024.04.037l.25.25c.02.013.03.027.05.042.01.01.02.02.02.03l.26.286.06.062.25.319a.17.17 0 0 1 .04.052l.26.35.01.011c.01.011.02.021.02.032l.26.377c.01.012.02.024.02.036l.26.401c.01.009.01.019.02.028l.26.421.01.023.26.438.01.016.26.451v.011l.26.459.01.006.25.464v.001l.26.461v.004l.26.453.25.442.24.424.25.404.24.377.23.347.23.312.21.274.2.232.19.186.16.139.13.093.09.053.06.022.03.006.01-.001.04-.01.07-.033.11-.067.14-.11.17-.157.2-.203.2-.248.22-.289.23-.326.24-.358.24-.388.24-.412.25-.432.25-.443.01-.007.25-.454v-.002l.26-.463v-.003l.26-.463v-.008l.26-.456.01-.013.26-.447.01-.018.25-.432.02-.025.26-.414.01-.013.01-.018.26-.392c0-.013.01-.026.02-.039l.26-.367.03-.047.26-.338c.02-.019.03-.038.05-.056l.25-.307c.01-.006.01-.012.02-.018.01-.016.03-.032.04-.048l.26-.272c.03-.027.05-.052.08-.076l.26-.236c.03-.03.06-.058.1-.085l.26-.197a.855.855 0 0 1 .13-.091l.26-.156c.05-.034.11-.063.17-.089l.25-.115c.06-.025.12-.047.18-.065l.03-.009.26-.072c.08-.022.16-.037.24-.046l.26-.028Z" clip-rule="evenodd"/><path fill="url(#b)" fill-rule="evenodd" d="M551.371 180.035h282.978v17H548.371v23h285.978v13H548.371v24h288.978v-6H554.371v-12h285.978v-25H554.371v-11h285.978v-29H551.371v6Zm164.723 122.5H846.5v15.5H716.094v-15.5Zm-214.37 47.5h228.805v24H501.724v-24Zm229.241-20.25h-26.31v15.5h26.31v-15.5Zm-229.241-27.25h170.242v22.5H501.724v-22.5Zm335.625-11.5H551.371v-6h285.978v6Zm-335.625 114h231.529v-6H501.724v6Zm185.499-102.5v36.5H499v-6h182.223v-30.5h6Zm-185.499 119.5h231.529v-6H501.724v6Zm231.529 16H501.724v-6h231.529v6Zm27.454-90H846.5v26h-34.317v65h-51.476v-91Z" clip-rule="evenodd"/><path stroke="url(#c)" stroke-width="6" d="M3 439.035h250v23H3v17h250"/><path stroke="url(#d)" stroke-width="6" d="M1302.5 453.035h-382v17h382"/><path fill="url(#e)" fill-rule="evenodd" d="M153 136.318h56v23.5h-43l-13-13v-10.5Zm-90.523 37.278h45.5v4h-45.5a2 2 0 0 0-2 2v8a2 2 0 0 0 2 2h45.5v4h-43v4h45a2 2 0 0 0 2-2v-8a2 2 0 0 0-2-2h-45.5v-4h45.5a2 2 0 0 0 2-2v-8a2 2 0 0 0-2-2h-47.5v4Zm134.815-3.491c.084-.01.169-.012.253-.007l.258.016c.083.005.165.017.246.035l.258.059c.074.017.147.04.217.068l.259.103c.062.024.122.053.18.085l.258.145c.049.028.097.058.142.091l.259.185c.037.028.074.057.109.087l.258.225c.029.025.057.052.084.079l.258.262.016.016.008.009.014.015.026.029.258.297.048.059.258.33a.897.897 0 0 1 .037.049l.259.359.028.041.258.385.01.016.011.017.259.408.008.014.008.013.258.427.012.02.258.443.008.014.258.454.006.01.258.461.002.004.258.464v.001l.254.458.004.006.248.442.007.011.247.431.246.419.243.394.237.368.231.336.242.327a1.5 1.5 0 0 1-2.411 1.786l-.258-.349-.031-.043-.258-.376-.024-.036-.258-.4-.011-.017-.007-.012-.258-.42-.014-.023-.258-.437-.009-.017-.259-.45-.006-.011-.258-.46-.003-.005-.258-.465-.001-.001-.256-.461-.002-.004-.251-.448-.005-.009-.249-.438-.248-.426-.244-.404-.24-.379-.233-.348-.226-.314-.215-.276-.203-.233-.185-.188-.162-.141-.132-.095-.098-.055-.058-.023-.026-.006h-.007l-.01.001-.035.009-.069.031-.108.066-.142.108-.17.155-.19.202-.207.245-.219.288-.228.324-.235.358-.241.386-.245.411-.25.431-.25.443-.004.007-.253.453-.001.003-.257.462-.001.003-.258.463-.004.008-.258.457-.008.012-.258.447-.01.019-.259.433-.014.024-.258.415-.02.03-.258.394-.026.038-.258.368-.01.014a.889.889 0 0 1-.024.032l-.258.34-.019.025a.376.376 0 0 0-.025.031l-.258.308-.058.065-.259.274a1.09 1.09 0 0 1-.076.076l-.258.238a2.018 2.018 0 0 1-.1.084l-.258.199a1.448 1.448 0 0 1-.131.09l-.258.159a1.49 1.49 0 0 1-.168.088l-.258.117a1.49 1.49 0 0 1-.206.075l-.258.074a1.593 1.593 0 0 1-.238.048l-.258.03c-.084.01-.169.012-.253.008l-.258-.014a1.456 1.456 0 0 1-.246-.034l-.259-.057a1.577 1.577 0 0 1-.219-.067l-.258-.1a1.768 1.768 0 0 1-.182-.085l-.258-.143a1.828 1.828 0 0 1-.144-.091l-.258-.184a1.514 1.514 0 0 1-.111-.087l-.258-.224a1.56 1.56 0 0 1-.085-.079l-.258-.26a2.123 2.123 0 0 1-.064-.07l-.258-.295-.019-.022-.018-.023-.012-.015-.258-.328-.038-.05-.258-.357-.015-.022-.013-.02-.258-.384-.013-.019-.009-.014-.258-.407-.006-.009-.011-.018-.258-.427-.012-.02-.258-.442-.009-.015-.258-.454-.005-.009-.258-.461-.003-.005-.257-.464-.001-.001-.254-.458-.003-.005-.252-.449-.251-.438-.247-.418-.242-.396-.238-.369-.231-.338-.222-.301-.212-.262-.197-.219-.178-.172-.153-.126-.122-.081-.084-.042-.047-.016-.017-.003h-.006l-.016.002-.045.016-.083.041-.12.079-.152.124-.177.17-.196.217-.211.26-.223.3-.23.336-.238.367-.242.395-.247.419-.25.436-.252.448-.001.003-.256.46-.001.001-.258.465-.002.004-.258.461-.005.009-.258.455-.009.014-.258.443-.012.02-.258.427-.016.027-.258.408a.63.63 0 0 1-.022.033l-.258.385a.591.591 0 0 1-.028.041l-.258.359-.016.021-.021.028-.258.33-.049.059-.258.297-.018.021-.028.029-.017.019-.258.262a2.7 2.7 0 0 1-.055.053l-.029.026-.258.225c-.035.03-.072.059-.11.087l-.258.185a1.506 1.506 0 0 1-.143.091l-.258.145a1.479 1.479 0 0 1-.18.085l-.258.103c-.071.028-.144.05-.218.067l-.258.06c-.08.018-.163.03-.245.035l-.258.015c-.085.006-.17.003-.254-.006l-.258-.028a1.483 1.483 0 0 1-.239-.046l-.258-.072a1.642 1.642 0 0 1-.207-.074l-.258-.115a1.428 1.428 0 0 1-.169-.089l-.259-.156a1.632 1.632 0 0 1-.132-.091l-.258-.197a1.375 1.375 0 0 1-.101-.085l-.259-.236a1.836 1.836 0 0 1-.077-.076l-.258-.272-.012-.014-.009-.009-.038-.043-.258-.307a1.204 1.204 0 0 1-.044-.056l-.259-.339-.019-.026-.015-.02-.258-.367-.026-.039-.258-.392-.011-.016-.009-.015-.258-.414-.015-.025-.258-.432-.011-.018-.258-.447-.007-.013-.259-.457-.004-.007-.258-.463-.001-.003-.257-.463-.002-.002-.254-.457-.253-.448-.249-.431-.246-.412-.241-.388-.235-.359-.229-.325-.219-.289-.207-.248-.192-.203-.17-.157-.143-.11-.11-.068-.071-.032-.036-.01-.011-.001h-.006l-.137.03a1.5 1.5 0 1 1-.651-2.928l.258-.058c.081-.018.163-.029.246-.033l.258-.014c.085-.004.17-.002.254.008l.258.03c.08.01.16.026.238.048l.258.073c.07.021.139.046.206.076l.258.116c.057.026.113.056.167.089l.258.159c.045.027.089.057.131.09l.258.199c.035.026.068.055.1.084l.259.238.026.025.025.025.025.025.258.275.058.065.258.308.044.056.259.34.009.012.014.019.01.015.258.368.026.038.258.394a.52.52 0 0 1 .02.03l.258.415.015.024.258.433.011.018.258.448.007.012.258.457.004.008.258.463.002.002.256.463.002.003.254.456.253.447.249.431.245.411.241.386.235.358.229.324.218.287.207.246.191.202.169.155.142.108.108.065.07.032.034.009.01.001h.007l.026-.006.059-.023.097-.055.133-.095.162-.141.185-.188.202-.234.216-.275.226-.314.233-.348.239-.379.244-.404.249-.426.251-.442.253-.453.003-.004.256-.461v-.001l.258-.465.003-.006.259-.459.006-.011.258-.45.01-.017.258-.437.013-.023.258-.42a.736.736 0 0 1 .018-.029l.259-.4.023-.036.259-.376.031-.044.258-.348.041-.053.258-.318c.017-.021.035-.042.054-.062l.258-.284c.022-.025.046-.05.07-.073l.258-.248c.03-.029.061-.056.093-.083l.258-.21c.039-.032.079-.061.121-.089l.259-.17a1.35 1.35 0 0 1 .156-.091l.258-.129c.063-.031.128-.058.195-.08l.258-.087c.075-.025.152-.044.23-.057l.258-.042a1.51 1.51 0 0 1 .251-.021l.258.001c.084.001.168.008.25.022l.259.045c.077.013.154.033.228.058l.258.088c.066.023.131.05.193.082l.259.13c.053.027.104.058.154.091l.258.172c.042.028.082.057.12.089l.258.212c.032.026.063.053.092.082l.258.25c.024.023.047.047.07.072l.258.286.013.014.01.012.017.02.013.016.258.319.04.052.259.35.013.018a.369.369 0 0 1 .017.025l.259.377.023.036.258.401.018.028.258.422.014.022.258.438.009.016.258.451.006.011.259.459.003.006.258.464v.001l.256.461.002.004.254.453.251.442.248.424.244.404.239.377.233.347.225.312.216.274.202.232.184.186.161.139.131.093.095.053.058.022.024.006h.007l.011-.001.035-.01.072-.033.109-.067.143-.11.171-.157.191-.203.207-.248.22-.289.228-.326.236-.358.241-.388.245-.412.25-.431.25-.444.004-.007.253-.454.001-.002.257-.463.002-.003.258-.463.004-.008.258-.456.007-.013.259-.447.01-.018.259-.432.014-.025.259-.414.019-.031.259-.392.026-.039.258-.367.019-.027.015-.019.258-.339.045-.056.258-.307.017-.019a.888.888 0 0 1 .042-.047l.258-.272c.025-.027.05-.052.077-.076l.258-.236a1.64 1.64 0 0 1 .102-.085l.258-.197c.042-.033.086-.063.132-.091l.258-.156c.055-.033.111-.063.169-.089l.258-.115c.067-.03.137-.054.207-.074l.259-.072c.078-.022.158-.037.239-.046l.258-.028Zm12.026 68.268h-66.5v2h66.5v-2Zm-143.25 68.662h66.5v2h-66.5v-2Zm89.25 7.5v2h-66.5v-2h66.5Zm-22.75 7.5h-66.5v2h66.5v-2Zm-29.634 7.002.065-.002h.026l.036.001.258.008c.042.001.084.004.126.009l.258.029c.04.005.081.011.121.019l.258.051c.038.008.075.017.113.027l.258.073.027.008a.494.494 0 0 1 .036.011l.04.013.258.093c.031.011.061.024.091.037l.259.112.08.038.258.131.015.008.014.007.04.022.258.149c.02.011.04.023.059.036l.258.164.049.033.258.18a.603.603 0 0 1 .041.029l.258.193.021.016.012.009.259.204.026.021.258.214.02.017.258.221.014.013.259.227.009.008.258.231.004.003.257.232.001.001.251.226.006.005.247.219.244.214.239.202.233.19.226.175.218.159.236.159a1.5 1.5 0 1 1-1.678 2.487l-.258-.174-.044-.031-.258-.188-.036-.027-.258-.2a.566.566 0 0 1-.028-.023l-.259-.21-.022-.019-.258-.218-.016-.014-.259-.225-.011-.01-.258-.23-.006-.005-.258-.232-.001-.001-.254-.229-.004-.004-.245-.219-.009-.008-.242-.213-.241-.206-.235-.195-.229-.18-.221-.165-.213-.149-.204-.13-.195-.112-.183-.093-.172-.075-.161-.058-.151-.042-.141-.028-.134-.016-.132-.004-.132.008-.136.019-.144.031-.153.047-.164.063-.176.08-.186.099-.198.117-.207.136-.215.153-.224.17-.23.185-.237.198-.243.21-.244.216-.004.003-.252.226-.002.002-.256.23-.002.003-.258.231-.008.007-.258.228-.012.011-.258.224-.019.015-.258.217-.013.011-.01.008-.259.208-.019.015-.012.009-.258.196-.012.01-.026.019-.258.184-.046.031-.258.17-.033.021-.023.014-.258.154a1.618 1.618 0 0 1-.066.037l-.258.137a2.01 2.01 0 0 1-.076.038l-.258.119-.033.014a1.165 1.165 0 0 1-.055.023l-.258.099a1.741 1.741 0 0 1-.1.035l-.258.079-.021.006-.019.006a1.628 1.628 0 0 1-.07.017l-.257.058a1.59 1.59 0 0 1-.119.022l-.258.037c-.041.006-.083.01-.125.012l-.258.015a1.347 1.347 0 0 1-.127.003l-.258-.007a1.327 1.327 0 0 1-.126-.009l-.258-.029a68.053 68.053 0 0 1-.05-.006l-.071-.012-.258-.05-.03-.007-.038-.008-.029-.008-.017-.004-.258-.072-.018-.005-.02-.006-.021-.006-.044-.015-.258-.092a1.514 1.514 0 0 1-.092-.036l-.258-.112a6.99 6.99 0 0 1-.047-.021l-.02-.01-.014-.007-.258-.13a5.022 5.022 0 0 1-.07-.038l-.258-.148-.013-.007-.016-.009-.02-.012-.01-.007-.258-.164a4.271 4.271 0 0 1-.05-.033l-.258-.179a4.856 4.856 0 0 1-.041-.03l-.258-.192-.012-.009-.022-.016-.258-.204a6.136 6.136 0 0 1-.026-.021l-.258-.214-.02-.017-.259-.221-.014-.012-.259-.227-.009-.009-.258-.23-.004-.004-.258-.232v-.001l-.252-.226-.006-.005-.247-.22-.245-.214-.239-.202-.233-.191-.226-.175-.219-.16-.21-.142-.201-.125-.19-.105-.18-.087-.17-.069-.156-.053-.147-.037-.139-.024-.133-.011h-.131l-.133.011-.139.023-.146.036-.157.052-.168.068-.18.087-.19.105-.2.123-.21.142-.219.159-.226.175-.232.189-.24.203-.244.213-.25.222-.254.229-.258.232-.004.004-.258.23-.009.009-.258.227-.014.012-.259.221-.02.017-.258.214-.026.021-.258.204-.033.026-.258.192-.023.016-.018.014-.258.179a4.218 4.218 0 0 1-.05.033l-.258.165-.058.035-.258.149a1.69 1.69 0 0 1-.07.037l-.258.131a1.249 1.249 0 0 1-.08.038l-.258.113a1.5 1.5 0 0 1-.092.036l-.258.093a1.809 1.809 0 0 1-.103.033l-.258.072c-.037.01-.075.019-.113.027l-.258.051-.065.012-.056.007-.258.03a2.64 2.64 0 0 1-.126.009l-.258.008c-.042.001-.085 0-.127-.002l-.258-.014a1.736 1.736 0 0 1-.125-.012l-.258-.036a1.598 1.598 0 0 1-.119-.022l-.258-.057a1.404 1.404 0 0 1-.11-.029l-.258-.078a18.662 18.662 0 0 1-.056-.018l-.021-.008-.023-.008-.258-.099a1.419 1.419 0 0 1-.088-.037l-.258-.118a2.033 2.033 0 0 1-.077-.038l-.258-.136a1.637 1.637 0 0 1-.066-.037l-.259-.154a1.24 1.24 0 0 1-.055-.035l-.259-.169-.022-.014-.024-.018-.258-.183-.039-.028-.258-.197-.03-.024-.26-.207-.012-.01-.011-.01-.259-.216-.018-.015-.258-.224-.013-.011-.258-.228-.008-.007-.258-.231-.002-.003-.256-.23-.002-.002-.252-.226-.249-.22-.243-.211-.237-.198-.23-.186-.224-.17-.216-.154-.208-.137-.197-.118-.188-.099-.176-.081-.164-.064-.154-.047-.144-.032-.137-.02-.132-.008-.13.004-.196.022A1.5 1.5 0 0 1 68 329.08l.258-.029c.042-.004.084-.007.126-.008l.259-.007c.042-.001.084-.001.127.002l.258.015c.041.002.083.007.124.012l.258.037c.04.006.08.013.119.022l.258.058c.037.009.074.018.11.03l.258.079c.033.01.067.021.1.034l.257.099c.03.012.06.024.088.038l.258.118.077.038.258.137.065.037.258.154.056.035.258.17.046.032.259.184a.806.806 0 0 1 .038.028l.258.197.03.024.259.207a.363.363 0 0 1 .024.02l.258.216.018.016.258.223.013.011.258.229.007.006.258.232.003.002.255.23.003.002.252.226.248.22.242.209.237.199.23.185.224.169.216.154.207.135.197.118.187.098.175.081.165.062.153.047.143.032.137.019.132.007.131-.004.135-.015.14-.028.151-.043.161-.057.172-.075.184-.094.194-.112.204-.13.214-.148.22-.165.23-.181.235-.195.24-.206.247-.217.25-.223.004-.004.254-.229.259-.233.006-.005.258-.229.01-.01.259-.225.016-.014.259-.219.022-.019.258-.21.012-.01.017-.013.258-.2.01-.007.026-.02.258-.187a.917.917 0 0 1 .044-.031l.258-.174a1.18 1.18 0 0 1 .052-.034l.259-.159.062-.037.258-.142.073-.038.259-.124c.028-.013.056-.026.084-.037l.258-.105.096-.036.258-.085c.036-.012.071-.022.107-.031l.258-.064.038-.009.026-.006.052-.01.259-.043c.04-.006.081-.012.123-.015l.258-.021c.042-.004.084-.006.127-.006l.258.001c.042 0 .084.002.126.005l.259.023c.04.003.082.009.122.016l.259.044c.038.006.077.014.115.024l.259.065c.035.01.07.02.106.032l.258.086c.032.01.064.022.095.035l.259.106c.028.012.056.024.084.038l.258.125.073.037.258.143.062.037.258.159.052.034.258.175.044.03.258.189c.012.009.024.017.035.027l.259.2.013.01.015.013.258.21.022.019.258.219.016.014.259.225.01.009.259.23.005.005.258.232.001.001.254.229.004.004.25.222.246.217.24.206.235.194.229.18.22.164.213.148.204.13.194.111.183.092.172.074.16.058.15.041.141.027.135.015.131.004.132-.008.136-.019.144-.033.154-.047.165-.063.176-.081.187-.1.198-.118.207-.136.216-.154.224-.171.23-.185.238-.199.243-.21.248-.22.252-.226.002-.002.256-.231.003-.002.258-.232.008-.007.258-.228.013-.011.258-.223.018-.016.258-.216.01-.008.014-.012.259-.207.03-.024.259-.196.01-.008.028-.02.258-.184.047-.032.258-.169.056-.035.258-.153a.558.558 0 0 1 .033-.019l.011-.006.022-.012.258-.137.077-.038.258-.118.028-.012.061-.025.258-.098c.033-.013.066-.024.099-.034l.259-.079c.036-.011.073-.02.11-.029l.258-.057c.039-.009.079-.016.119-.021l.258-.036a1.3 1.3 0 0 1 .124-.012l.259-.015Zm-15.025 52.346H77.727v-32.75l43.182.75h83v3h-83l-33 29Zm7.5 8.717H42.726v4h54.318l.584-.574 16.499-16.217-2.803-2.853L95.408 390.1Zm-14.34-161.477H118.067l4 4.771H99.457l-9.889 9.229h-23.5l15-14Zm35.681 51.804h23.5l15 14h-23.5l-9.888-9.229-5.112-4.771Zm-7 0h-23.5l5.112 4.771 9.888 9.229h23.5l-15-14Zm-54 0h23.5l15 14h-23.5l-9.888-9.229-5.112-4.771ZM131 247.035H75v10.5l13 13h43v-23.5Zm74.269-49.75h-34.704v-4h36.704a2 2 0 0 1 2 2v8a2 2 0 0 1-2 2h-46.002l-5 4h51.002a2 2 0 0 1 2 2v8a2 2 0 0 1-2 2H51.971v-4h153.298v-4h-54.704a2 2 0 0 1-1.249-3.562l10-8a2.002 2.002 0 0 1 1.249-.438h44.704v-4Zm-77.177 1.061a5 5 0 1 0-.001-10.001 5 5 0 0 0 .001 10.001Zm17.462 72.689h-9.12v-4h9.75a2 2 0 0 1 1.146.361l35.234 24.639h27.437v4h-28.067c-.41 0-.811-.126-1.147-.361l-35.233-24.639Zm-19.599-104.128 21.932-23.25-2.909-2.744-21.933 23.25 2.91 2.744Zm-4.391 195.628h92.937v35.5h-71.362l-21.575-19.638v-15.862Zm88.436 39.5H75v4.5h135v-4.5Z" clip-rule="evenodd"/><path fill="url(#f)" fill-rule="evenodd" d="M913 138.264h-23.5l-17.5 17.75h23.5l12.388-12.979H1025.5v-4.771H913Zm-45.303 93.771h45.5v4h-45.5a2 2 0 0 0-2 2v8a2 2 0 0 0 2 2h45.5v4h-43a2 2 0 0 0-.894 3.789l19 9.5c.278.139.584.211.894.211h63c.36 0 .712-.097 1.021-.28l16-9.5-2.042-3.44-15.528 9.22h-61.979l-11-5.5h36.528a2 2 0 0 0 2-2v-8a2 2 0 0 0-2-2h-45.5v-4h45.5a2 2 0 0 0 2-2v-8a2 2 0 0 0-2-2h-47.5v4Zm-4 177.595h39.5l20-24.935h-59.5v24.935Zm48.434-125.938h-47.217v24.935h71.124l-23.907-24.935Zm117.369-31.157h-36.217l-23.907 16h60.124v-16Zm-90.5-66.5h86v-4.771h-67.612l-9.888-9.229H924l15 14Zm51.203 223.595h-23.5l-15-14h23.5l9.888 9.229h37.609v4.771h-32.497ZM957.5 306.535h67v4.771h-48.612L966 320.535h-23.5l15-14Zm-83-139.5h-10.317v36.283H874.5v-36.283Zm4 0h10.317v36.283H878.5v-36.283Zm24.635 0h-10.318v36.283h10.318v-36.283Zm14.813 36.283v-23.533l-10.317-9.5v33.033h10.317Zm-5.828 207.717 18.486-22.201-2.831-2.292-18.486 22.201 2.831 2.292Zm39.062-19.354-10.924-13.119-1.672 1.355 10.923 13.118 1.673-1.354Zm-1.205-45.863 14.223 9.441-1.215 1.776-14.222-9.44 1.214-1.777Zm-86.544-22.533h102.5v4.25h-102.5v-4.25Zm72.606-9.75h-72.5v2.75h72.5v-2.75Zm17.824-19.5h72.497v2.75h-72.497v-2.75Zm56.337-7.875h-42.497v2.75h42.497v-2.75Zm-57.7-8.75h72.5v2.75h-72.5v-2.75Zm-1.317 51.375h-87.75v7.75h87.75v-7.75Zm-86.683 43.25h91.933l16.5 21h-16.5l-14.5-16.25H864.5v-4.75Zm71.072-117c6.835 0 12.375-1.119 12.375-2.5s-5.54-2.5-12.375-2.5c-6.834 0-12.375 1.119-12.375 2.5s5.541 2.5 12.375 2.5Zm32.131 80.25a5 5 0 1 1-10 0 5 5 0 0 1 10 0Zm-47.203 26.75a5 5 0 1 0 0-10 5 5 0 0 0 0 10Zm-46 61a5 5 0 1 1-10 0 5 5 0 0 1 10 0Zm9.584-147.91-19.169-14v14h19.169Zm54.1-82.59h87.316v5.5h-87.316v-5.5Zm88.176 157.758h-47.315v2.5h47.315v-2.5Z" clip-rule="evenodd"/><path stroke="#8F8E93" stroke-linejoin="round" stroke-width="2" d="M861 381.035v-41.5m0 41.5h71.5l31.5 32h71m-174-32v31.5m0-252 26-26.5h148m-174 26.5h45l30 28.5h99m-174-28.5v47.25m174 37.75h-40.5m-58.5 0h58.5m0 0-41 24.5H887l-26-15m0 0v66m0-66v-47.25m174 93.75h-81.5l-17.5 19.5h-75m0 0v18.5m174 17.5h-58.5l-26-17.5H861m665.8 138.5H906v-65.5h-45m0 0v44.5H272.804v33h-224M861 207.785h26"/><path fill="#000" d="M1041.7 128.271c-3.23-.015-5.87 2.599-5.89 5.838a5.869 5.869 0 0 0 5.84 5.891 5.86 5.86 0 0 0 5.89-5.838c.02-3.239-2.6-5.876-5.84-5.891Z"/><path fill="#F0EFED" stroke="#000" stroke-width=".977" d="M1029.49 131.84a5.376 5.376 0 0 1 10.75.049 5.376 5.376 0 0 1-10.75-.049Z"/><path fill="#000" d="M1041.7 184.271c-3.23-.015-5.87 2.599-5.89 5.838a5.869 5.869 0 0 0 5.84 5.891 5.86 5.86 0 0 0 5.89-5.838c.02-3.239-2.6-5.876-5.84-5.891Z"/><path fill="#F0EFED" stroke="#000" stroke-width=".977" d="M1029.49 187.84a5.376 5.376 0 0 1 10.75.049 5.376 5.376 0 0 1-10.75-.049Z"/><path fill="#000" d="M1041.7 240.271c-3.23-.015-5.87 2.599-5.89 5.838a5.869 5.869 0 0 0 5.84 5.891 5.86 5.86 0 0 0 5.89-5.838c.02-3.239-2.6-5.876-5.84-5.891Z"/><path fill="#F0EFED" stroke="#000" stroke-width=".977" d="M1029.49 243.84a5.376 5.376 0 0 1 10.75.049 5.376 5.376 0 0 1-10.75-.049Z"/><path fill="#000" d="M1041.7 296.271c-3.23-.015-5.87 2.599-5.89 5.838a5.869 5.869 0 0 0 5.84 5.891 5.86 5.86 0 0 0 5.89-5.838c.02-3.239-2.6-5.876-5.84-5.891Z"/><path fill="#F0EFED" stroke="#000" stroke-width=".977" d="M1029.49 299.84a5.376 5.376 0 0 1 10.75.049 5.376 5.376 0 0 1-10.75-.049Z"/><path fill="#000" d="M1041.7 353.438c-3.23-.015-5.87 2.599-5.89 5.838a5.869 5.869 0 0 0 5.84 5.891 5.86 5.86 0 0 0 5.89-5.838c.02-3.239-2.6-5.876-5.84-5.891Z"/><path fill="#F0EFED" stroke="#000" stroke-width=".977" d="M1029.49 357.007a5.376 5.376 0 0 1 10.75.049 5.376 5.376 0 0 1-10.75-.049Z"/><path fill="#000" d="M1041.7 408.271c-3.23-.015-5.87 2.599-5.89 5.838a5.869 5.869 0 0 0 5.84 5.891 5.86 5.86 0 0 0 5.89-5.838c.02-3.239-2.6-5.876-5.84-5.891Z"/><path fill="#F0EFED" stroke="#000" stroke-width=".977" d="M1029.49 411.84a5.376 5.376 0 0 1 10.75.049 5.376 5.376 0 0 1-10.75-.049Z"/><path fill="#8F8E93" d="M46 163.764h-1a1 1 0 0 1 1-1v1Zm0 220.5-.727.687a.998.998 0 0 1-.273-.687h1Zm75-27.5-.689-.725c.186-.176.433-.275.689-.275v1Zm-30 28.5.689.725a1 1 0 0 1-.711.275l.022-1Zm47.5-109.5v-1c.181 0 .358.049.513.142l-.513.858Zm-66.5 0-.474-.88a.994.994 0 0 1 .474-.12v1Zm66.5-31.5v1a1 1 0 0 1-.744-.332l.744-.668Zm-17.5-19.5.013-1c.28.004.545.124.731.332l-.744.668Zm40.5-37-.558-.829a.992.992 0 0 1 .558-.171v1Zm-26 17.5.558.83a.999.999 0 0 1-.558.17v-1Zm13.5-73.5-.713-.701c.188-.191.445-.299.713-.299v1Zm-31.5 32 .713.702a1 1 0 0 1-.713.298v-1Zm-55.5 247h10v2H62v-2Zm9.273 1.687-26-27.5 1.454-1.374 26 27.5-1.454 1.374Zm148.727.313H72v-2h148v2Zm0-55h-99v-2h99v2Zm-98.311-.275-30 28.5-1.378-1.45 30-28.5 1.378 1.45Zm-30.711 28.775-45-1 .044-2 45 1-.044 2Zm129.022-85h-40.5v-2H220v2Zm-40.5 0H121v-2h58.5v2Zm-.513-.141-41-24.5 1.026-1.717 41 24.5-1.026 1.717ZM138.5 276.764H72v-2h66.5v2ZM45 384.264v-94.5h2v94.5h-2Zm27.474-107.619-26 14-.948-1.761 26-14 .948 1.761ZM220 245.264h-81.5v-2H220v2Zm-82.244-.332-17.5-19.5 1.488-1.336 17.5 19.5-1.488 1.336Zm-16.769-19.168-75-1 .026-2 75 1-.026 2Zm99.013-37h-58.5v-2H220v2Zm-57.942-.17-26 17.5-1.116-1.659 26-17.5 1.116 1.659ZM47 163.764v41.5h-2v-41.5h2Zm88.5 42.5H46v-2h89.5v2Zm84.5-73.5h-71v-2h71v2Zm-70.287-.298-31.5 32-1.426-1.403 31.5-32 1.426 1.403ZM117.5 164.764H46v-2h71.5v2Zm-70.5 40.5v5.25h-2v-5.25h2Zm0 5.25v13.25h-2v-13.25h2Zm0 13.25v58.5h-2v-58.5h2Zm0 58.5v7.5h-2v-7.5h2Z"/><path fill="#000" d="M226.38 128.271a5.864 5.864 0 1 0-.053 11.729 5.864 5.864 0 0 0 .053-11.729Z"/><path fill="#F0EFED" stroke="#000" stroke-width=".977" d="M214.164 131.84a5.375 5.375 0 1 1 10.75.048 5.375 5.375 0 0 1-10.75-.048Z"/><path fill="#000" d="M226.38 184.271a5.864 5.864 0 1 0-.053 11.729 5.864 5.864 0 0 0 .053-11.729Z"/><path fill="#F0EFED" stroke="#000" stroke-width=".977" d="M214.164 187.84a5.375 5.375 0 1 1 10.75.048 5.375 5.375 0 0 1-10.75-.048Z"/><path fill="#000" d="M226.38 240.271a5.864 5.864 0 1 0-.053 11.729 5.864 5.864 0 0 0 .053-11.729Z"/><path fill="#F0EFED" stroke="#000" stroke-width=".977" d="M214.164 243.84a5.375 5.375 0 1 1 10.75.048 5.375 5.375 0 0 1-10.75-.048Z"/><path fill="#000" d="M226.38 296.271a5.864 5.864 0 1 0-.053 11.729 5.864 5.864 0 0 0 .053-11.729Z"/><path fill="#F0EFED" stroke="#000" stroke-width=".977" d="M214.164 299.84a5.375 5.375 0 1 1 10.75.048 5.375 5.375 0 0 1-10.75-.048Z"/><path fill="#000" d="M226.38 353.438a5.864 5.864 0 1 0-.053 11.729 5.864 5.864 0 0 0 .053-11.729Z"/><path fill="#F0EFED" stroke="#000" stroke-width=".977" d="M214.164 357.007a5.375 5.375 0 1 1 10.75.048 5.375 5.375 0 0 1-10.75-.048Z"/><path fill="#000" d="M226.38 408.271a5.864 5.864 0 1 0-.053 11.729 5.864 5.864 0 0 0 .053-11.729Z"/><path fill="#F0EFED" stroke="#000" stroke-width=".977" d="M214.164 411.84a5.375 5.375 0 1 1 10.75.048 5.375 5.375 0 0 1-10.75-.048Z"/><defs><linearGradient id="a" x1="1575.19" x2="1191.21" y1="744.753" y2="-102.073" gradientUnits="userSpaceOnUse"><stop offset=".121" stop-color="#F1EFED"/><stop offset=".488" stop-color="#DDD" stop-opacity=".22"/><stop offset="1" stop-color="#F1EFED"/></linearGradient><linearGradient id="b" x1="773" x2="595.884" y1="516.035" y2="68.372" gradientUnits="userSpaceOnUse"><stop offset=".121" stop-color="#F1EFED"/><stop offset=".488" stop-color="#DDD" stop-opacity=".22"/><stop offset="1" stop-color="#F1EFED"/></linearGradient><linearGradient id="c" x1="78.916" x2="76.201" y1="493.324" y2="439.436" gradientUnits="userSpaceOnUse"><stop stop-color="#F1EFED"/><stop offset=".535" stop-color="#DDD" stop-opacity=".22"/><stop offset="1" stop-color="#F1EFED"/></linearGradient><linearGradient id="d" x1="1036.5" x2="1036.18" y1="476.108" y2="453.152" gradientUnits="userSpaceOnUse"><stop stop-color="#F1EFED"/><stop offset=".535" stop-color="#DDD" stop-opacity=".22"/><stop offset="1" stop-color="#F1EFED"/></linearGradient><linearGradient id="e" x1="94.888" x2="-50.27" y1="503.064" y2="209.999" gradientUnits="userSpaceOnUse"><stop stop-color="#F1EFED"/><stop offset=".535" stop-color="#DDD" stop-opacity=".22"/><stop offset="1" stop-color="#F1EFED"/></linearGradient><linearGradient id="f" x1="913.861" x2="748.693" y1="531.55" y2="230.919" gradientUnits="userSpaceOnUse"><stop stop-color="#F1EFED"/><stop offset=".535" stop-color="#DDD" stop-opacity=".22"/><stop offset="1" stop-color="#F1EFED"/></linearGradient></defs></svg>
