<svg xmlns="http://www.w3.org/2000/svg" width="356" height="360" fill="none" viewBox="0 0 356 360"><path fill="#000" d="m359.782 1.93-10.06.362a.671.671 0 1 1-.047-1.308l10.06-.368a.67.67 0 1 1 .047 1.341V1.93ZM339.695 2.76l-10.059.584a.675.675 0 0 1-.58-.091.666.666 0 0 1-.285-.512.669.669 0 0 1 .791-.698l10.06-.59a.67.67 0 0 1 .67.617.669.669 0 0 1-.61.67l.013.02ZM319.63 4.062l-10.06.832a.671.671 0 1 1-.108-1.288l10.06-.845a.672.672 0 1 1 .108 1.301ZM299.577 5.72l-10.06.75a.675.675 0 0 1-.535-.608.672.672 0 0 1 .441-.68l10.06-.75a.671.671 0 0 1 .1 1.287h-.006ZM279.503 7.168l-10.059.725a.672.672 0 1 1-.094-1.274l10.06-.725a.665.665 0 0 1 .605.053.68.68 0 0 1 .314.52.677.677 0 0 1-.235.56.67.67 0 0 1-.591.141ZM259.445 8.643l-10.027.805a.635.635 0 0 1-.644-.587.641.641 0 0 1 .544-.68l10.06-.819a.636.636 0 0 1 .562 1.06.633.633 0 0 1-.462.208l-.033.013ZM239.426 10.36l-9.992 1.053a.635.635 0 0 1-.5-.107.643.643 0 0 1-.257-.443.636.636 0 0 1 .367-.641.628.628 0 0 1 .255-.056l10.013-1.06a.628.628 0 0 1 .694.56.615.615 0 0 1-.136.463.627.627 0 0 1-.424.231h-.02ZM219.447 12.66l-9.932 1.489a.672.672 0 0 1-.711-.523.632.632 0 0 1 .53-.711l9.972-1.495a.623.623 0 1 1 .182 1.233l-.041.007ZM199.642 15.953l-9.798 2.18a.622.622 0 0 1-.641-.248.613.613 0 0 1 .151-.862.623.623 0 0 1 .221-.097l9.846-2.2a.625.625 0 0 1 .744.47.626.626 0 0 1-.476.744l-.047.013ZM180.167 20.769l-9.517 3.152h-.034a.617.617 0 0 1-.598-1.05.604.604 0 0 1 .209-.117l9.584-3.186a.616.616 0 0 1 .778.39.63.63 0 0 1-.031.473.607.607 0 0 1-.358.31l-.033.028ZM161.085 27.113l-9.556 3.098a.607.607 0 0 1-.796-.626.598.598 0 0 1 .42-.534l9.577-3.112a.625.625 0 0 1 .778.395.616.616 0 0 1-.396.772l-.027.006ZM142.086 33.606a157.115 157.115 0 0 0-9.228 3.896.603.603 0 0 1-.805-.295.601.601 0 0 1 .295-.805 157.129 157.129 0 0 1 9.302-3.93.607.607 0 0 1 .659.148.598.598 0 0 1 .126.2.602.602 0 0 1-.349.786ZM123.952 42.055a88.26 88.26 0 0 0-8.404 5.406.599.599 0 0 1-.694.014.614.614 0 0 1-.171-.175.58.58 0 0 1-.114-.446.6.6 0 0 1 .241-.392 89.635 89.635 0 0 1 8.511-5.48.61.61 0 0 1 .67.044.607.607 0 0 1 .111.847.607.607 0 0 1-.177.156l.027.026ZM107.937 53.886a53.64 53.64 0 0 0-6.412 7.585.59.59 0 0 1-.383.25.6.6 0 0 1-.448-.096.6.6 0 0 1-.154-.832 54.092 54.092 0 0 1 6.552-7.759.603.603 0 0 1 .852 0 .61.61 0 0 1 0 .852h-.007ZM96.811 70.19a44.406 44.406 0 0 0-2.682 9.544.59.59 0 0 1-.67.49.59.59 0 0 1-.49-.671 45.279 45.279 0 0 1 2.682-9.805.604.604 0 0 1 .778-.33.604.604 0 0 1 .329.779l.053-.007ZM93.591 89.645c.068 1.658.206 3.313.416 4.963.201 1.65.477 3.279.805 4.922a.577.577 0 0 1-.463.671.585.585 0 0 1-.67-.463 68.65 68.65 0 0 1-.825-4.996 60.16 60.16 0 0 1-.423-5.064.59.59 0 1 1 1.18-.047l-.02.014ZM96.1 109.671c-.02.493-.128.979-.316 1.435a1.866 1.866 0 0 1-.583.717c-.262.18-.569.28-.886.289-.49.008-.978-.07-1.442-.228-.422-.134-.825-.282-1.22-.423a16.105 16.105 0 0 0-4.695-1.18.585.585 0 0 1-.55-.617.59.59 0 0 1 .624-.55c1.727.163 3.42.583 5.023 1.247.396.141.785.289 1.16.403.33.114.677.175 1.026.181.275 0 .343-.087.483-.335.126-.326.196-.671.208-1.02a.594.594 0 0 1 .85-.481.579.579 0 0 1 .291.341.583.583 0 0 1 .026.227v-.006ZM78.467 113.935a26.64 26.64 0 0 0-3.152 3.77c-.476.67-.925 1.341-1.341 2.072a19.95 19.95 0 0 0-1.147 2.133v.067a.583.583 0 0 1-.778.261.582.582 0 0 1-.262-.771 21.28 21.28 0 0 1 1.234-2.294 40.06 40.06 0 0 1 1.395-2.132 27.832 27.832 0 0 1 3.293-3.937.573.573 0 0 1 .631-.126.572.572 0 0 1 .313.313.582.582 0 0 1-.126.631l-.06.013ZM72.74 131.387a41.58 41.58 0 0 0 4.105 9.007.577.577 0 0 1-.644.845.565.565 0 0 1-.349-.268 42.927 42.927 0 0 1-4.218-9.255.57.57 0 0 1 .382-.718.568.568 0 0 1 .614.188c.048.06.083.128.104.201h.006ZM82.358 148.737l6.036 7.995a.568.568 0 0 1-.114.798.572.572 0 0 1-.798-.108l-6.076-8.048a.575.575 0 0 1 .107-.804.574.574 0 0 1 .805.114l.04.053ZM94.631 164.664l6.116 8.008a.547.547 0 0 1 .117.416.545.545 0 0 1-.217.375.563.563 0 0 1-.791-.107l-6.103-7.981a.565.565 0 0 1 .1-.798.576.576 0 0 1 .798.107l-.02-.02ZM106.434 181.002a52.032 52.032 0 0 1 4.561 9.074.549.549 0 0 1-.144.594.544.544 0 0 1-.185.11.549.549 0 0 1-.671-.328 50.81 50.81 0 0 0-4.48-8.866.566.566 0 0 1 .182-.772.563.563 0 0 1 .771.181l-.034.007ZM112.422 200.143c.006 3.328.284 6.65.832 9.932a.536.536 0 0 1-1.06.168 62.843 62.843 0 0 1-.865-10.1.543.543 0 1 1 1.087 0h.006ZM115.454 219.819c.912 3.213 2.012 6.378 3.152 9.51a.521.521 0 0 1-.309.671.526.526 0 0 1-.4-.013.53.53 0 0 1-.27-.296 126.87 126.87 0 0 1-3.192-9.583.527.527 0 0 1 .368-.671.522.522 0 0 1 .671.362l-.02.02ZM122.369 238.632l2.012 4.594c.342.764.671 1.542 1.04 2.287l1.079 2.246a.509.509 0 0 1-.241.671.513.513 0 0 1-.671-.241l-1.1-2.281c-.382-.757-.704-1.529-1.046-2.293l-2.012-4.608a.514.514 0 0 1 .658-.678.508.508 0 0 1 .281.269v.034ZM131.745 256.25a64.66 64.66 0 0 0 6.533 7.531.504.504 0 0 1 0 .704.5.5 0 0 1-.671 0 65.526 65.526 0 0 1-6.64-7.645.496.496 0 0 1 .101-.671.5.5 0 0 1 .671.101l.006-.02ZM145.781 270.4l4.024 2.998 2.012 1.502c.671.497 1.341 1.006 2.012 1.489a.471.471 0 0 1 .202.31.48.48 0 0 1-.216.493.465.465 0 0 1-.364.065.475.475 0 0 1-.172-.076c-.67-.477-1.341-1-2.012-1.496l-2.012-1.502-4.024-3.012a.485.485 0 0 1-.1-.67.481.481 0 0 1 .67-.101h-.02ZM161.816 282.559l7.692 6.505a.47.47 0 0 1 .054.671.483.483 0 0 1-.324.168.48.48 0 0 1-.347-.115l-7.679-6.478a.475.475 0 0 1-.06-.671.482.482 0 0 1 .67-.054l-.006-.026ZM177.161 295.577l7.887 6.19a.455.455 0 0 1 .074.637.444.444 0 0 1-.3.167.445.445 0 0 1-.33-.093l-7.948-6.21a.465.465 0 0 1-.08-.671.457.457 0 0 1 .318-.185.455.455 0 0 1 .353.105l.026.06ZM193.405 307.279a79.374 79.374 0 0 0 4.386 2.401c1.482.751 3.011 1.449 4.527 2.18a.444.444 0 0 1 .22.25.446.446 0 0 1-.012.333.445.445 0 0 1-.59.208c-1.509-.724-3.032-1.422-4.541-2.179a79.675 79.675 0 0 1-4.44-2.421.443.443 0 0 1 .112-.816.449.449 0 0 1 .338.044ZM211.365 316.233l9.047 4.399a.432.432 0 0 1 .201.57.41.41 0 0 1-.244.217.42.42 0 0 1-.326-.022l-9.054-4.359a.419.419 0 0 1-.134-.102.426.426 0 0 1-.067-.475.434.434 0 0 1 .577-.201v-.027ZM229.507 324.952l9.201 4.024a.41.41 0 0 1 .257.223.415.415 0 0 1-.247.57.421.421 0 0 1-.338-.035l-9.235-4.024a.425.425 0 0 1-.182-.538.429.429 0 0 1 .213-.217.426.426 0 0 1 .304-.017l.027.014ZM248.063 332.617a153.271 153.271 0 0 0 9.537 3.105.403.403 0 0 1 .203.635.392.392 0 0 1-.425.13 151.363 151.363 0 0 1-9.59-3.112.394.394 0 0 1-.134-.082.389.389 0 0 1-.131-.279.414.414 0 0 1 .105-.29.4.4 0 0 1 .435-.107ZM267.333 338.225l9.785 2.314a.377.377 0 0 1 .24.171.415.415 0 0 1 .053.141.404.404 0 0 1-.005.151.386.386 0 0 1-.463.288l-9.798-2.307a.399.399 0 0 1-.249-.463.398.398 0 0 1 .43-.302l.007.007ZM286.928 342.745l9.839 2.059a.375.375 0 0 1 .123.676.36.36 0 0 1-.277.048l-9.852-2.052a.39.39 0 0 1-.136-.057.396.396 0 0 1-.103-.105.383.383 0 0 1 .109-.522.38.38 0 0 1 .284-.054l.013.007ZM306.639 346.701l9.912 1.724a.367.367 0 0 1 .295.415.361.361 0 0 1-.416.289l-9.939-1.71a.368.368 0 0 1-.292-.281.351.351 0 0 1 .049-.274.357.357 0 0 1 .228-.16.382.382 0 0 1 .143-.003h.02ZM326.484 349.88l9.979 1.227a.342.342 0 0 1 .295.382.336.336 0 0 1-.128.229.337.337 0 0 1-.254.067l-9.993-1.208a.347.347 0 0 1-.308-.389.356.356 0 0 1 .389-.301l.02-.007ZM346.469 352.033l10.06.671a.335.335 0 0 1 .312.359.335.335 0 0 1-.359.312l-10.06-.671a.34.34 0 0 1-.227-.114.338.338 0 0 1-.081-.241.327.327 0 0 1 .355-.316Z"/><path fill="#F1EFED" d="M56.983 76.222h208.814v197.832H56.983z"/><path fill="#000" d="M40.274 322.688a3.354 3.354 0 0 0 3.354 3.353h17.469a3.354 3.354 0 0 0 3.353-3.353V184.232l-24.176 24.282v114.174Z"/><path stroke="#000" stroke-linejoin="round" stroke-width="1.341" d="M64.45 184.232V89.969a3.353 3.353 0 0 0-3.353-3.353h-17.47a3.353 3.353 0 0 0-3.353 3.353v118.545m24.176-24.282v138.456a3.354 3.354 0 0 1-3.353 3.353h-17.47a3.354 3.354 0 0 1-3.353-3.353V208.514m24.176-24.282-24.176 24.282"/><path fill="#000" d="M210.115 148.879h-58.824l58.824 9.504 58.825 9.505v-19.009h-20.052a.776.776 0 0 1-.371 0h-38.402Z"/><path fill="#5869DD" d="M268.94 148.879v-60.25h-11.172v60.25h11.172ZM151.291 148.879l7.855-9.269s.524-4.908-4.467-6.357c1.797-1.457 1.797-3.611.872-5.401a8.503 8.503 0 0 0-.071-.132c-.946-1.727-2.753-3.084-4.61-3.084-.812-1.109-.919-2.713-1.022-4.271-.116-1.739-.228-3.42-1.314-4.285-.758-.604-2.637-.353-4.371-.122-1.296.173-2.511.335-3.119.122a29.037 29.037 0 0 1-.301-.106c-1.886-.664-4.656-1.641-6.534-.941-.911.34-1.382 1.4-1.872 2.504-.461 1.037-.94 2.114-1.818 2.667-.834.525-1.802.307-2.746.095-1.648-.371-3.224-.726-3.89 2.911-.295.98-.183 2.513-.081 3.931.066.897.127 1.748.081 2.385a11.468 11.468 0 0 0-1.247 3.727c-1.198 7.753 5.265 15.626 5.265 15.626h23.39Z"/><path fill="#000" d="M60.61 148.879h24.351l1.745-4.635h-11.87l11.87-13.904H79.026l2.678-3.125c-2.274-1.884-5.69-2.551-10.707-1.177-5.292 1.449-8.53 3.96-10.386 6.84v16.001Z"/><path fill="url(#a)" d="M79.026 148.879H60.611v178.169H268.94v-159.16l-58.825-9.505-58.824-9.504H79.026Z"/><path fill="#000" d="M122.315 144.244h-7.68v4.635h13.266s-6.463-7.873-5.265-15.626l-5.012-.188-5.012-.187 4.852 5.683 4.851 5.683Z"/><path fill="#000" d="M114.635 144.244h7.68l-4.851-5.683-18.888 2.102-7.331 8.216h23.39v-4.635Z"/><path fill="#000" fill-rule="evenodd" d="m190.353 135.869-21.432 13.01h26.357s.096-.025.214-.121c.521-.423 1.482-2.24-3.356-9.505-.868-1.303-1.441-2.416-1.783-3.384ZM248.517 148.879h-9.252l13.17-19.353c-.413 10.221-1.552 18.854-3.547 19.353h-.371Z" clip-rule="evenodd"/><path fill="url(#b)" d="M91.245 88.63H69.818l1.178 37.408c5.017-1.374 8.434-.707 10.708 1.177l9.54-11.135H79.027l12.219-15.329h-8.728l8.728-12.122Z"/><path fill="url(#c)" d="M159.67 130.34h7.331l-7.855 9.27-7.855 9.269h17.63l21.432-13.01c-1.997-5.65 3.878-6.359 4.925-11.233 0 0-1.42-5.989 1.21-8.556 2.63-2.566 10.032-.496 10.032-.496l-14.907-11.981h9.077l-12.83-11.23-12.83 11.23h9.077l-8.553 6.238-.524.382-8.029 5.857h11.171l-4.625 3.565-4.626 3.565-9.251 7.13Z"/><path fill="url(#d)" d="m114.635 100.751-8.728-12.122H91.245l-8.728 12.122h8.728L79.026 116.08h12.219l-9.541 11.135-2.678 3.125h7.68l-11.87 13.904h11.87l-1.745 4.635h6.284l7.33-8.216 18.889-2.102-4.852-5.683-2.166-2.538h7.68l-12.219-14.26h12.219l-12.219-15.329h8.728Z"/><path fill="#5869DD" d="M225.622 148.879h13.643l13.17-19.353c2.397-10.248-2.636-21.529-9.371-27.328-1.978-1.704-4.104-2.935-6.231-3.527-1.696-.472-3.82-.539-5.946-.116-3.035.604-6.074 2.206-7.882 5.048-1.232 1.936-1.304 4.447-1.394 7.612-.053 1.873-.113 3.975-.424 6.322.461 1.037.939 2.114 1.818 2.667.833.525 1.801.307 2.745.095 1.648-.371 3.225-.726 3.89 2.911.295.98.184 2.513.081 3.931-.065.897-.127 1.748-.081 2.385a11.468 11.468 0 0 1 1.247 3.727c.508 3.284-.359 6.59-1.528 9.309-1.589 3.701-3.737 6.317-3.737 6.317Z"/><path fill="url(#e)" d="M202.232 148.879h23.39s2.148-2.616 3.737-6.317c1.169-2.719 2.036-6.025 1.528-9.309a11.468 11.468 0 0 0-1.247-3.727c-.046-.637.016-1.488.081-2.385.103-1.418.214-2.951-.081-3.931-.665-3.637-2.242-3.282-3.89-2.911-.944.212-1.912.43-2.745-.095-.879-.553-1.357-1.63-1.818-2.667-.491-1.104-.961-2.164-1.873-2.504-1.269-.473-4.352-3.818-9.199-.029-1.624.158-2.984.365-3.595.58 0 0-7.402-2.07-10.032.496-2.63 2.567-1.21 8.556-1.21 8.556-1.047 4.874-6.922 5.583-4.925 11.233.342.968.915 2.081 1.783 3.384 4.838 7.265 3.877 9.082 3.356 9.505-.118.096-.214.121-.214.121h6.954Z"/><path fill="#000" d="M257.768 88.63h-15.093l.389 13.568c6.735 5.799 11.768 17.08 9.371 27.328-.413 10.221-1.552 18.854-3.547 19.353h8.88v-60.25Z"/><path fill="url(#f)" d="m141.044 116.08-3.84-37.846-6.685 5.52-13.055 22.299 14.873-10.227-17.702 27.384h9.248c.666-3.637 2.242-3.282 3.89-2.911.944.212 1.912.43 2.746-.095.878-.553 1.357-1.63 1.818-2.667.49-1.104.961-2.164 1.872-2.504 1.878-.7 4.648.277 6.534.941l.301.106Z"/><path fill="#000" fill-rule="evenodd" d="m137.204 78.234-6.685 10.395v-4.875l6.685-5.52Zm-13.402 48.907-6.178 5.924 5.012.188c.194-1.257.59-2.511 1.247-3.727.046-.637-.015-1.488-.081-2.385Z" clip-rule="evenodd"/><path fill="#5869DD" d="m105.907 88.63 8.728 12.121h-8.728l12.219 15.329h-12.219l12.219 14.26h-7.68l2.166 2.538 5.012.187 6.178-5.924c-.102-1.418-.214-2.951.081-3.931h-9.248l17.702-27.384-14.873 10.227 13.055-22.299v4.875H105.907Z"/><path fill="#000" fill-rule="evenodd" d="m154.679 83.754 4.991 4.875h-4.19l-.801-4.875Z" clip-rule="evenodd"/><path fill="#5869DD" fill-rule="evenodd" d="M167.001 130.34h-7.331l9.251-7.13 4.626-3.565 4.625-3.565h-11.171l8.029-5.857-11.608-10.364h9.077L159.67 88.63h-4.748l.558 11.23v27.861l.071.132c.925 1.79.925 3.944-.872 5.401 4.991 1.449 4.467 6.357 4.467 6.357l7.855-9.27Z" clip-rule="evenodd"/><path fill="#5869DD" d="M219.314 115.033c.912.34 1.382 1.4 1.873 2.504.311-2.347.371-4.449.424-6.322.09-3.165.162-5.676 1.394-7.612l-8.613-14.974-7.872 26.955c.611-.215 1.971-.422 3.595-.58 4.847-3.789 7.93-.444 9.199.029Z"/><path fill="#000" d="M221.81 88.63h-7.418l8.613 14.973c1.808-2.842 4.847-4.444 7.882-5.047l-.235-9.927H221.81Z"/><path fill="#000" fill-rule="evenodd" d="M148.534 116.08c1.086.865 1.198 2.546 1.314 4.285.103 1.558.21 3.162 1.022 4.271l4.61-22.634v-2.143l-.558-11.23h.558l-.801-4.875.243 4.875h-3.631l-7.044-5.197-.084 32.526c1.734-.231 3.613-.482 4.371.122Z" clip-rule="evenodd"/><path fill="#000" d="M60.61 88.63v-.671c-.37 0-.67.3-.67.67h.67Zm208.33 0h.67c0-.37-.3-.671-.67-.671v.67Zm-101.939 41.71.511.434a.67.67 0 0 0-.511-1.104v.67Zm-7.331 0-.41-.531a.67.67 0 0 0 .41 1.202v-.671Zm18.502-14.26.41.531a.67.67 0 0 0-.41-1.201v.67Zm-11.171 0-.395-.542a.671.671 0 0 0 .395 1.213v-.671Zm17.106-12.477.395.541a.67.67 0 0 0-.395-1.212v.671Zm-9.077 0-.441-.505a.67.67 0 0 0 .441 1.175v-.67Zm20.248 21.033.656.141a.668.668 0 0 0-.003-.295l-.653.154Zm-3.142 14.617-.558.372.558-.372Zm29.051-21.716-.613.272.613-.272Zm-106.552-16.786v.67a.67.67 0 0 0 .544-1.062l-.544.392Zm-8.728 0v-.671a.67.67 0 0 0-.524 1.089l.524-.418Zm12.219 15.329v.671a.67.67 0 0 0 .524-1.089l-.524.418Zm-12.219 0v-.67a.67.67 0 0 0-.509 1.107l.509-.437Zm12.219 14.26v.671a.67.67 0 0 0 .509-1.107l-.509.436Zm-7.68 0v-.67a.67.67 0 0 0-.51 1.106l.51-.436Zm11.869 13.904v.671a.67.67 0 0 0 .51-1.106l-.51.435Zm-7.68 0v-.671a.672.672 0 0 0-.671.671h.671Zm44.511-4.634.512.433-.512-.433Zm-24.937-24.577-.234-.628.234.628Zm14.325 1.047.418-.524-.418.524Zm2.757-27.45-.398.54a.67.67 0 0 0 .398.13v-.67Zm-27.408 34.58.642.193a.842.842 0 0 0 .018-.072l-.66-.121Zm-41.366-22.459-.544-.392a.67.67 0 0 0 .544 1.062v-.67Zm8.728 0 .524.418a.67.67 0 0 0-.524-1.089v.671ZM79.026 116.08l-.524-.418a.67.67 0 0 0 .524 1.089v-.671Zm12.219 0 .51.437a.671.671 0 0 0-.51-1.107v.67Zm-12.219 14.26-.51-.436a.671.671 0 0 0 .51 1.107v-.671Zm7.68 0 .51.436a.67.67 0 0 0-.51-1.106v.67Zm-11.87 13.904-.51-.435a.67.67 0 0 0 .51 1.106v-.671Zm76.034-19.608-.541.397a.67.67 0 0 0 .541.274v-.671Zm18.051-1.426-.409-.531.409.531Zm-14.242 10.043-.422-.522a.673.673 0 0 0 .235 1.166l.187-.644Zm-13.635-17.173-.222.633.222-.633Zm-3.84-37.846.398-.54a.67.67 0 0 0-.825.023l.427.517Zm-6.685 41.97.357.567-.357-.567Zm-6.636 9.322.59.318a.67.67 0 0 0 .079-.27l-.669-.048Zm-37.177 14.718.628.236a.67.67 0 0 0-.628-.907v.671Zm86.841-24.599-.41-.531.41.531Zm32.973-4.061-.181.646a.671.671 0 0 0 .404-.013l-.223-.633Zm-14.907-11.981v-.671a.672.672 0 0 0-.42 1.193l.42-.522Zm9.077 0v.67a.67.67 0 0 0 .441-1.175l-.441.505Zm-12.83-11.23.442-.505a.671.671 0 0 0-.884 0l.442.505ZM60.61 327.048h-.67c0 .371.3.671.67.671v-.671Zm208.33 0v.671c.37 0 .67-.3.67-.671h-.67Zm-58.825-168.665-.107.662.107-.662Zm-97.503-25.505-.51.436.51-.436Zm-14.036 7.785-.075-.667a.676.676 0 0 0-.426.22l.5.447Zm42.167-24.689.223-.632-.223.632Zm-8.406 1.563.613.272-.613-.272Zm-4.564 2.762.147-.655-.147.655Zm-3.971 6.842.669-.049-.669.049Zm95.512-12.108.235-.628-.235.628Zm10.326 8.177-.659.121a.58.58 0 0 0 .017.072l.642-.193Zm-6.635-3.006-.358.567.358-.567Zm6.635 9.322-.669.048a.67.67 0 0 0 .079.27l.59-.318Zm1.247 3.727.663-.103-.663.103Zm-5.137-12.954-.147-.655.147.655Zm3.971 6.842-.669-.049.669.049Zm-.362 15.421-.616-.264.616.264Zm7.474-43.891-.18.646.18-.646Zm-26.718 16.333.065.668a.678.678 0 0 0 .349-.14l-.414-.528Zm11.496-3.789.67.019-.67-.019Zm-91.092-22.586v.671a.67.67 0 0 0 .564-.308l-.564-.363Zm-13.055 17.424-.579-.338a.67.67 0 0 0 .959.891l-.38-.553Zm14.873-10.227.563.364a.672.672 0 0 0-.943-.917l.38.553Zm-17.702 27.384-.563-.364a.668.668 0 0 0 .563 1.035v-.671Zm15.884-39.456-.427-.517a.668.668 0 0 0-.152.178l.579.339Zm16.321 16.105-.603-.293a.673.673 0 0 0 .603.964v-.67Zm16.582 0v-.67a.67.67 0 0 0-.446 1.171l.446-.5Zm9.077 0v.671a.67.67 0 0 0 .442-1.175l-.442.504Zm3.055 9.982.395.542-.395-.542Zm-20.074-9.982h.671l-.001-.033-.67.033Zm-.801-16.105.469-.48a.67.67 0 0 0-1.072.186l.603.294Zm-4.831 36.611.669-.044-.669.044Zm-5.601-36.933.399-.54-.399.54Zm124.022 5.197v60.25h1.341v-60.25h-1.341ZM167.001 129.67h-7.331v1.341h7.331v-1.341Zm11.171-14.26h-11.171v1.341h11.171v-1.341Zm5.935-12.478h-9.077v1.341h9.077v-1.341Zm26.008 45.276h-14.837v1.341h14.837v-1.341Zm17.979 0h-6.109v1.341h6.109v-1.341ZM105.363 89.021l8.728 12.122 1.088-.784-8.727-12.121-1.089.783Zm9.272 11.059h-8.728v1.341h8.728v-1.341Zm-9.252 1.089 12.219 15.329 1.048-.836-12.218-15.329-1.049.836Zm12.743 14.241h-12.219v1.341h12.219v-1.341Zm-12.728 1.107 12.219 14.26 1.018-.873-12.218-14.26-1.019.873Zm12.728 13.153h-7.68v1.341h7.68v-1.341Zm4.189 13.903h-7.68v1.342h7.68v-1.342Zm-8.351.671v4.635h1.342v-4.635h-1.342ZM79.026 89.3h26.881V87.96h-26.88V89.3Zm0 58.908H60.611v1.341h18.415v-1.341ZM192.136 89.3h17.979V87.96h-17.979V89.3Zm-40.333 60.012 7.855-9.269-1.024-.867-7.855 9.269 1.024.867Zm7.855-9.269 7.854-9.269-1.023-.867-7.855 9.269 1.024.867Zm-8.367 8.165h-23.39v1.341h23.39v-1.341Zm-23.39 0h-13.266v1.341h13.266v-1.341ZM105.907 89.3h22.692V87.96h-22.692V89.3Zm-20.946 58.908h-5.935v1.341h5.935v-1.341Zm5.74-59.97-8.728 12.121 1.088.784 8.728-12.122-1.088-.783Zm-8.184 13.183h8.728v-1.341h-8.728v1.341Zm8.203-1.088-12.218 15.329 1.049.836 12.218-15.329-1.049-.836Zm-11.694 16.418h12.219v-1.341H79.026v1.341Zm7.17 13.154-11.87 13.904 1.02.871 11.87-13.904-1.02-.871Zm4.54-14.261-9.541 11.135 1.018.872 9.541-11.134-1.019-.873Zm-9.541 11.135-2.678 3.125 1.018.873 2.678-3.126-1.018-.872Zm.937-.08c-2.502-2.072-6.171-2.716-11.313-1.308l.355 1.294c4.892-1.34 8.055-.649 10.102 1.047l.856-1.033Zm-3.106 4.312h5.058v-1.341h-5.058v1.341Zm5.058 0h2.622v-1.341h-2.623v1.341Zm75.586-41.71h32.466v-1.342H159.67V89.3Zm.409 41.571 9.251-7.13-.818-1.063-9.252 7.13.819 1.063Zm108.861 17.336h-11.172v1.341h11.172v-1.341ZM248.517 89.3h9.251V87.96h-9.251V89.3Zm9.251 0h11.172V87.96h-11.172V89.3Zm.671 59.579v-60.25h-1.341v60.25h1.341ZM60.611 89.3h9.207V87.96h-9.207V89.3Zm9.207 0h9.208V87.96h-9.208V89.3Zm-.67-.65 1.178 37.409 1.34-.042-1.177-37.409-1.34.043Zm89.998 50.96.667.07v-.003l.001-.005.001-.017.005-.053a6.68 6.68 0 0 0-.001-.822 7.532 7.532 0 0 0-.402-2.027c-.552-1.578-1.814-3.349-4.55-4.144l-.375 1.288c2.254.654 3.226 2.061 3.659 3.299a6.2 6.2 0 0 1 .331 2.31.29.29 0 0 1-.003.029v.005c0 .001 0 .001 0 0v-.001l.667.071ZM155.48 89.3h4.19V87.96h-4.19V89.3Zm-13.769 26.713-3.84-37.846-1.334.135 3.84 37.846 1.334-.135Zm-66.874 28.902h11.87v-1.342h-11.87v1.342Zm11.242-.907-1.746 4.634 1.255.473 1.746-4.635-1.255-.472ZM218.669 89.3h3.141V87.96h-3.141V89.3Zm3.141 0h6.284V87.96h-6.284V89.3Zm.175 58.908h-4.451v1.341h4.451v-1.341Zm-4.451 0h-7.419v1.341h7.419v-1.341Zm-48.204-24.466 4.626-3.566-.819-1.062-4.625 3.565.818 1.063Zm4.626-3.566 4.626-3.565-.819-1.062-4.626 3.565.819 1.062Zm23.001-3.616c.516-.503 1.314-.821 2.312-.977.989-.155 2.101-.141 3.161-.045a24.438 24.438 0 0 1 3.834.672l.058.016.014.003.003.001.181-.646c.181-.645.18-.645.18-.646h-.002l-.005-.001-.018-.005a23.915 23.915 0 0 0-1.215-.287 25.53 25.53 0 0 0-2.909-.443c-1.119-.101-2.351-.123-3.49.055-1.129.178-2.242.564-3.041 1.343l.937.96Zm9.983-1.498-14.907-11.982-.84 1.045 14.907 11.982.84-1.045Zm-15.327-10.789h9.077v-1.341h-9.077v1.341Zm9.518-1.175-12.829-11.23-.884 1.01 12.83 11.229.883-1.009Zm-25.659 1.009 12.83-11.23-.884-1.009-12.829 11.23.883 1.009Zm19.806 20.529.653-.154v-.002a.04.04 0 0 1-.003-.01l-.01-.045a15.06 15.06 0 0 1-.157-.866 16.602 16.602 0 0 1-.193-2.248c-.026-1.793.287-3.676 1.389-4.751l-.937-.96c-1.528 1.492-1.82 3.887-1.793 5.73a17.826 17.826 0 0 0 .338 3.175c.018.089.032.159.043.207l.013.056a.157.157 0 0 0 .003.016l.001.005.001.001v.001l.652-.155Zm72.991 24.243v19.009h1.341v-19.009h-1.341Zm-10.501-.671h-8.88v1.341h8.88v-1.341Zm-9.043.02a.098.098 0 0 1-.051-.001l-.314 1.304c.229.055.462.055.69-.002l-.325-1.301Zm.163-.02h-.371v1.341h.371v-1.341Zm-92.82-20.81c-1.027-1.874-3.027-3.432-5.198-3.432v1.341c1.544 0 3.156 1.155 4.022 2.735l1.176-.644Zm-50.161-39.44H91.245V89.3h14.662V87.96Zm48.985 40.084.063.118 1.192-.616a6.777 6.777 0 0 0-.079-.146l-1.176.644Zm.063.118c.83 1.607.775 3.378-.698 4.571l.845 1.043c2.121-1.719 2.065-4.256 1.045-6.23l-1.192.616Zm1.192-.616c-1.005-1.943-3.052-3.578-5.277-3.578v1.341c1.584 0 3.239 1.216 4.085 2.853l1.192-.616ZM91.245 87.959H79.026V89.3h12.219V87.96Zm-31.305.67v44.249h1.341V88.63h-1.34Zm1.234 44.613c1.751-2.717 4.838-5.144 10-6.557l-.355-1.294c-5.42 1.485-8.811 4.081-10.772 7.124l1.127.727Zm-1.127-.727c-1.925 2.987-2.427 6.333-2.206 9.328.22 2.986 1.164 5.672 2.195 7.382l1.149-.693c-.917-1.521-1.8-4-2.007-6.788-.205-2.781.267-5.819 1.996-8.502l-1.127-.727Zm1.234 16.364v-16.001H59.94v16.001h1.341Zm-1.341 0v178.169h1.341V148.879H59.94Zm.67 178.84h208.33v-1.342H60.61v1.342Zm209-.671v-159.16h-1.341v159.16h1.341Zm-.563-159.822-58.825-9.505-.214 1.324 58.825 9.505.214-1.324Zm-58.825-9.505-58.824-9.504-.214 1.324 58.824 9.504.214-1.324Zm-14.944-9.513h-26.357v1.341h26.357v-1.341Zm-26.357 0h-17.63v1.341h17.63v-1.341Zm25.702-23.713c-.475 2.21-2.008 3.427-3.446 5.017-.695.768-1.355 1.627-1.685 2.708-.336 1.099-.309 2.351.229 3.872l1.265-.447c-.461-1.303-.449-2.258-.212-3.033.243-.794.742-1.476 1.398-2.201 1.262-1.395 3.19-2.97 3.762-5.634l-1.311-.282Zm-4.902 11.597c.366 1.035.969 2.198 1.857 3.533l1.117-.744c-.848-1.272-1.391-2.335-1.709-3.236l-1.265.447Zm-20.452 13.36 21.432-13.01-.696-1.146-21.432 13.009.696 1.147Zm79.781.077c.464-.116.819-.444 1.087-.809.272-.372.508-.852.716-1.401.417-1.1.768-2.595 1.063-4.36.593-3.539.982-8.284 1.189-13.406l-1.341-.054c-.205 5.099-.592 9.78-1.171 13.238-.29 1.733-.624 3.129-.995 4.107-.185.49-.37.847-.543 1.082-.178.243-.295.293-.33.302l.325 1.301Zm-.533-1.321h-9.252v1.341h9.252v-1.341Zm3.363-19.06-13.169 19.353 1.109.755 13.169-19.353-1.109-.755Zm-141.944 1.628 2.166 2.538 1.02-.871-2.166-2.538-1.02.871Zm13.357-1.569a12.165 12.165 0 0 0-1.32 3.943l1.326.205a10.811 10.811 0 0 1 1.174-3.511l-1.18-.637Zm-1.32 3.943c-.63 4.079.756 8.136 2.246 11.122a31.251 31.251 0 0 0 2.137 3.634c.3.439.555.786.735 1.024.09.119.162.211.211.274l.058.073a.558.558 0 0 1 .02.025l.002.001v.001l.519-.425.518-.426h.001-.001l-.002-.003a2.401 2.401 0 0 1-.062-.077c-.044-.057-.11-.141-.195-.253-.168-.222-.41-.551-.696-.971a29.886 29.886 0 0 1-2.045-3.475c-1.441-2.889-2.688-6.644-2.12-10.319l-1.326-.205Zm-9.871.164 4.852 5.683 1.02-.871-4.852-5.683-1.02.871Zm4.852 5.683 4.851 5.683 1.02-.871-4.851-5.683-1.02.871Zm-18.304 2.332 18.888-2.101-.148-1.333-18.889 2.101.149 1.333Zm15.985 6.879h-23.39v1.341h23.39v-1.341Zm-23.39 0H84.96v1.341h6.284v-1.341Zm6.83-7.992-7.33 8.216 1 .893 7.331-8.216-1-.893Zm43.191-24.769a356.7 356.7 0 0 0-.3-.105l-.446 1.265.302.106.444-1.266Zm-.3-.105c-.937-.33-2.143-.757-3.358-1.007-1.2-.247-2.514-.347-3.633.07l.469 1.257c.758-.283 1.767-.245 2.893-.013 1.112.229 2.234.623 3.183.958l.446-1.265Zm-6.991-.937c-.642.24-1.087.719-1.42 1.225-.329.5-.592 1.095-.831 1.634l1.226.545c.25-.565.468-1.051.725-1.442.253-.384.499-.605.769-.705l-.469-1.257Zm-2.251 2.859c-.234.527-.452 1.014-.712 1.437-.257.42-.531.734-.85.935l.714 1.135c.559-.351.963-.852 1.28-1.368.314-.513.567-1.083.794-1.594l-1.226-.545Zm-1.562 2.372c-.56.352-1.233.235-2.242.008l-.294 1.309c.879.198 2.142.516 3.25-.182l-.714-1.135Zm-2.242.008c-.401-.09-.859-.194-1.307-.227-.457-.034-.956.002-1.437.227-.992.464-1.61 1.574-1.953 3.446l1.32.241c.323-1.765.826-2.296 1.201-2.472.202-.094.448-.128.771-.104.331.024.688.103 1.111.198l.294-1.309Zm-4.679 3.373c-.177.588-.222 1.297-.218 1.998.004.709.06 1.47.111 2.174l1.337-.097c-.051-.714-.103-1.428-.107-2.084-.003-.665.043-1.213.161-1.605l-1.284-.386Zm-.107 4.172c.066.916.122 1.711.08 2.288l1.338.097c.051-.696-.017-1.604-.081-2.482l-1.337.097Zm116.131 21.019h-5.585v1.341h5.585v-1.341Zm-5.585 0h-5.586v1.341h5.586v-1.341Zm-31.448 1.341h23.39v-1.341h-23.39v1.341Zm26.818-19.705a10.811 10.811 0 0 1 1.174 3.511l1.326-.205a12.142 12.142 0 0 0-1.32-3.943l-1.18.637Zm-9.97-14.182c.269.1.515.321.768.705.257.391.475.877.726 1.442l1.226-.545c-.24-.539-.502-1.134-.831-1.634-.333-.506-.778-.985-1.42-1.225l-.469 1.257Zm1.494 2.147c.227.511.479 1.081.794 1.594.316.516.721 1.017 1.279 1.368l.715-1.135c-.32-.201-.594-.515-.851-.935-.26-.423-.477-.91-.711-1.437l-1.226.545Zm2.073 2.962c1.109.698 2.371.38 3.251.182l-.295-1.309c-1.009.227-1.682.344-2.241-.008l-.715 1.135Zm3.251.182c.422-.095.78-.174 1.111-.198.323-.024.569.01.771.104.375.175.878.707 1.201 2.472l1.319-.241c-.343-1.872-.961-2.982-1.952-3.446-.482-.225-.98-.261-1.437-.227-.449.033-.907.137-1.308.227l.295 1.309Zm3.1 2.45c.118.392.165.94.161 1.605-.004.656-.055 1.37-.107 2.084l1.338.097c.051-.704.106-1.465.11-2.174.004-.701-.041-1.41-.217-1.998l-1.285.386Zm.054 3.689c-.064.878-.131 1.786-.081 2.482l1.338-.097c-.042-.577.014-1.372.081-2.288l-1.338-.097Zm1.172 6.263c.481 3.11-.337 6.28-1.481 8.943l1.233.529c1.192-2.777 2.109-6.218 1.574-9.677l-1.326.205Zm-1.481 8.943a29.06 29.06 0 0 1-3.298 5.713 14.537 14.537 0 0 1-.321.417l-.016.02-.003.005h-.001l.518.426.519.425.001-.001.001-.002a.043.043 0 0 0 .006-.007l.021-.026.075-.095a27.765 27.765 0 0 0 1.21-1.696 30.471 30.471 0 0 0 2.521-4.65l-1.233-.529ZM233.21 89.3h3.623V87.96h-3.623V89.3Zm-26.467 26.917c.521-.184 1.8-.386 3.437-.545l-.129-1.335c-1.611.156-3.054.368-3.754.615l.446 1.265Zm3.786-.685c2.266-1.772 4.031-1.827 5.349-1.465.685.188 1.281.498 1.804.806.279.166.481.295.726.442.214.13.449.264.672.347l.469-1.257a3.035 3.035 0 0 1-.45-.239c-.186-.112-.471-.292-.735-.447-.564-.334-1.279-.712-2.13-.946-1.752-.481-3.952-.315-6.532 1.703l.827 1.056Zm-8.297 34.017h7.883v-1.341h-7.883v1.341Zm19.753 0h3.637v-1.341h-3.637v1.341Zm-26.916-1.311c-.012.009-.018.011-.013.009a.213.213 0 0 0 .017-.007l.017-.005a.126.126 0 0 1 .016-.005h.003l.002-.001h.001l.166.65.167.649h.003l.003-.001.008-.002a.084.084 0 0 1 .017-.005l.041-.014a1.386 1.386 0 0 0 .398-.228l-.846-1.04Zm.209 1.311h6.954v-1.341h-6.954v1.341Zm-.115-1.375-.214.12.659 1.169.213-.121-.658-1.168Zm-3.585-8.549c2.403 3.608 3.317 5.794 3.589 7.085.136.639.106 1.024.051 1.24-.052.205-.131.273-.149.288l.846 1.04c.523-.425.895-1.283.565-2.846-.326-1.54-1.351-3.894-3.785-7.551l-1.117.744Zm34.044 9.924h2.472v-1.341h-2.472v1.341Zm-3.77-31.924c.316-2.386.376-4.52.429-6.391l-1.34-.038c-.054 1.874-.113 3.944-.419 6.252l1.33.177Zm.429-6.391c.092-3.225.178-5.524 1.289-7.271l-1.131-.72c-1.352 2.124-1.41 4.849-1.498 7.953l1.34.038Zm30.807 18.444c2.463-10.532-2.697-22.056-9.586-27.989l-.875 1.017c6.579 5.666 11.485 16.703 9.154 26.667l1.307.305Zm-9.586-27.989c-2.034-1.751-4.245-3.04-6.489-3.664l-.36 1.292c2.01.56 4.05 1.733 5.974 3.389l.875-1.017ZM236.833 89.3h5.842V87.96h-5.842V89.3Zm5.842 0h5.842V87.96h-5.842V89.3Zm1.06 12.878-.39-13.568-1.34.039.389 13.568 1.341-.039ZM128.599 89.3h1.92V87.96h-1.92V89.3Zm2.484-.308 6.685-10.395-1.128-.725-6.685 10.395 1.128.725Zm-13.239 17.614 14.873-10.227-.76-1.106-14.873 10.228.76 1.105Zm13.929-11.144-17.701 27.384 1.126.728L132.9 96.19l-1.127-.728Zm-17.138 28.419h9.248v-1.341h-9.248v1.341Zm-2.048 9.667 5.012.188.05-1.341-5.012-.187-.05 1.34Zm5.012.188 5.012.187.05-1.341-5.012-.187-.05 1.341Zm.489-.187 6.179-5.924-.929-.968-6.178 5.924.928.968Zm13.102-44.92v-4.875h-1.342v4.875h1.342Zm-1.25-5.214-13.055 22.3 1.158.677 13.055-22.3-1.158-.677Zm1.006.856 6.685-5.52-.854-1.034-6.685 5.52.854 1.034Zm32.476 16.259h9.077v-1.341h-9.077v1.341Zm9.519-1.175-12.83-11.23-.883 1.01 12.83 11.229.883-1.01Zm3.008 11.028 8.553-6.239-.79-1.083-8.553 6.239.79 1.083Zm-8.553 6.239 8.029-5.857-.79-1.083-8.029 5.856.79 1.084Zm8.029-5.857.524-.382-.79-1.083-.524.382.79 1.083Zm-12.449-10.405 11.608 10.364.893-1.001-11.608-10.364-.893 1.001Zm-8.166-.5v2.142h1.341v-2.143h-1.341Zm-.599-15.626 4.99 4.875.937-.96-4.99-4.875-.937.96Zm1.931 4.287-.801-4.876-1.323.218.801 4.875 1.323-.217Zm-8.699 11.632 7.839-16.106-1.206-.587-7.839 16.106 1.206.587Zm7.38 1.715-4.61 22.634 1.314.268 4.61-22.634-1.314-.268Zm.657-2.68h-8.64v1.342h8.64v-1.341Zm.671 28.532v-25.718h-1.341v25.718h1.341Zm-.671-39.761h-.558V89.3h.558V87.96Zm-1.228.704.559 11.23 1.339-.067-.558-11.23-1.34.067Zm1.34-.067-.243-4.875-1.339.066.242 4.876 1.34-.067Zm-4.301.704h3.631V87.96h-3.631V89.3Zm85.722 8.725c-1.81-.504-4.041-.568-6.257-.127l.262 1.315c2.037-.405 4.053-.337 5.635.104l.36-1.292Zm-6.257-.127c-3.16.629-6.385 2.307-8.317 5.345l1.131.72c1.684-2.647 4.539-4.17 7.448-4.75l-.262-1.315Zm-2.662-8.598h2.558V87.96h-2.558V89.3Zm2.558 0h2.558V87.96h-2.558V89.3Zm.906 9.24-.235-9.926-1.341.031.235 9.926 1.341-.031Zm-21.443-9.24h4.277V87.96h-4.277V89.3Zm4.277 0h4.277V87.96h-4.277V89.3Zm-.644-.858-7.872 26.954 1.288.376 7.872-26.955-1.288-.375Zm.063.522 8.612 14.973 1.163-.669-8.613-14.973-1.162.669Zm-63.294 31.357c-.057-.855-.116-1.771-.31-2.582-.196-.818-.547-1.619-1.255-2.183l-.836 1.049c.378.301.625.772.786 1.446.163.68.218 1.475.276 2.359l1.339-.089Zm-1.565-4.765c-.309-.246-.687-.373-1.054-.441a5.957 5.957 0 0 0-1.197-.08c-.827.017-1.77.144-2.627.258l.177 1.33c.878-.117 1.741-.231 2.477-.247.366-.007.676.011.924.057.253.047.393.115.464.172l.836-1.049Zm-4.878-.263c-.654.088-1.258.168-1.773.202-.54.035-.873.009-1.035-.048l-.444 1.266c.445.156 1.024.156 1.567.12a28.792 28.792 0 0 0 1.862-.21l-.177-1.33Zm7.337 8.947c-.324-.443-.528-1.013-.659-1.697-.132-.687-.183-1.435-.235-2.222l-1.339.089c.052.77.106 1.603.256 2.386.151.784.407 1.571.895 2.237l1.082-.793Zm-14.605-45.466 7.043 5.198.797-1.08-7.044-5.197-.796 1.079Zm7.043 5.198 7.044 5.197.796-1.08-7.043-5.197-.797 1.08Zm.984 31.988.085-32.526-1.341-.004-.085 32.526 1.341.004Z"/><path fill="#F1EFED" fill-rule="evenodd" d="M168.996 176.15c0-.741-.6-1.341-1.341-1.341h-7.075l3.626 8.195h3.449c.741 0 1.341-.601 1.341-1.341v-5.513Z" clip-rule="evenodd"/><path fill="#000" d="M153.504 174.809c-.74 0-1.341.6-1.341 1.341v5.513c0 .74.601 1.341 1.341 1.341h10.702l-3.626-8.195h-7.076Z"/><path fill="#000" d="M168.393 176.15v5.513h1.207v-5.513h-1.207Zm-15.626 5.513v-5.513h-1.208v5.513h1.208Zm14.888.737h-3.449v1.208h3.449V182.4Zm-3.449 0h-10.702v1.208h10.702V182.4Zm-10.702-6.988h7.076v-1.207h-7.076v1.207Zm7.076 0h7.075v-1.207h-7.075v1.207Zm4.178 7.348-3.626-8.196-1.104.489 3.626 8.195 1.104-.488Zm-13.199-1.097c0 1.074.871 1.945 1.945 1.945V182.4a.737.737 0 0 1-.737-.737h-1.208Zm16.834 0a.738.738 0 0 1-.738.737v1.208a1.945 1.945 0 0 0 1.945-1.945h-1.207Zm1.207-5.513a1.945 1.945 0 0 0-1.945-1.945v1.207c.407 0 .738.33.738.738h1.207Zm-16.833 0c0-.408.33-.738.737-.738v-1.207a1.945 1.945 0 0 0-1.945 1.945h1.208Z"/><path fill="#5869DD" fill-rule="evenodd" d="M172.062 182.93c0-.741-.601-1.341-1.342-1.341h-3.545l4.887 8.195v-6.854Z" clip-rule="evenodd"/><path fill="#000" d="M155.229 188.443c0 .741.6 1.341 1.341 1.341h15.492l-4.887-8.195H156.57c-.741 0-1.341.6-1.341 1.341v5.513Z"/><path fill="#000" d="M172.062 189.784v.604c.333 0 .603-.27.603-.604h-.603Zm-.604-6.854v6.854h1.207v-6.854h-1.207Zm.604 6.251H156.57v1.207h15.492v-1.207Zm-16.23-.738v-5.513h-1.207v5.513h1.207Zm.738-6.251h10.605v-1.207H156.57v1.207Zm10.605 0h3.545v-1.207h-3.545v1.207Zm-.518-.294 4.886 8.195 1.037-.618-4.886-8.195-1.037.618Zm-10.087 7.283a.738.738 0 0 1-.738-.738h-1.207c0 1.074.871 1.945 1.945 1.945v-1.207Zm16.095-6.251c0-1.074-.87-1.945-1.945-1.945v1.207c.408 0 .738.331.738.738h1.207Zm-16.833 0c0-.407.33-.738.738-.738v-1.207a1.945 1.945 0 0 0-1.945 1.945h1.207ZM266.98 269.445l39.1-6.036-39.1-68.387-5.462 77.271 5.462-2.848ZM212.696 250.743l-27.648-6.581-4.656 11.063 40.266 21.754-7.962-26.236ZM188.477 236.014l21.286 5.066-2.566-8.455-14.266-7.194-4.454 10.583ZM202.744 182.26c17.421 6.389 28.21 8.13 49.224 8.096-5.783-1.903-9.169-2.946-10.941-5.542-10.774 1.397-21.067 1.183-38.283-2.554Z"/><path fill="#5869DD" d="m202.744 182.26 39.799 99.927 18.975-9.894 5.462-77.271-7.68-13.433c-6.919 1.332-12.661 2.497-18.273 3.225 1.772 2.596 5.158 3.639 10.941 5.542-21.014.034-31.803-1.707-49.224-8.096Z"/><path fill="#F1EFED" d="m207.197 232.625-7.245-23.875-7.021 16.681 14.266 7.194Z"/><path fill="url(#g)" fill-rule="evenodd" d="m242.543 282.187-39.799-99.927-39.099 81.149 12.091 2.878 4.656-11.062 4.656-11.063 27.648 6.581 7.962 26.236 21.885 5.208Zm-32.78-41.107-21.286-5.066 4.454-10.583 7.021-16.681 7.245 23.875 2.566 8.455Z" clip-rule="evenodd"/><path fill="#000" d="m163.645 263.409-.605-.291a.671.671 0 0 0 .449.943l.156-.652Zm78.898 18.778-.156.653a.673.673 0 0 0 .466-.058l-.31-.595Zm-39.799-99.927.143-.656a.672.672 0 0 0-.747.364l.604.292Zm64.236 87.185-.102-.663a.66.66 0 0 0-.208.068l.31.595Zm39.1-6.036.102.663a.673.673 0 0 0 .48-.996l-.582.333Zm-46.78-81.82.582-.333a.672.672 0 0 0-.709-.326l.127.659Zm-59.348 27.161.641-.194a.67.67 0 0 0-1.26-.066l.619.26Zm67.028-13.728.582-.333-.582.333Zm-81.932 49.14.155-.652a.67.67 0 0 0-.773.392l.618.26Zm27.648 6.581.642-.195a.673.673 0 0 0-.487-.458l-.155.653Zm-2.933-9.663-.155.652a.67.67 0 0 0 .797-.847l-.642.195Zm-21.286-5.066-.618-.261a.674.674 0 0 0 .463.913l.155-.652Zm-12.741 30.273-.155.652a.672.672 0 0 0 .774-.392l-.619-.26Zm44.922 10.692-.319.59a.652.652 0 0 0 .164.062l.155-.652Zm-13.461-44.354.642-.195-.642.195Zm44.771-42.269.001.671a.67.67 0 0 0 .209-1.308l-.21.637Zm-8.802 91.583-39.799-99.928-1.246.497 39.798 99.928 1.247-.497Zm-41.026-99.971-39.1 81.15 1.209.582 39.1-81.149-1.209-.583Zm64.942 88.14 39.1-6.036-.204-1.326-39.1 6.036.204 1.326Zm-24.229 12.674 18.975-9.894-.62-1.19-18.976 9.895.621 1.189Zm18.975-9.894 5.462-2.848-.62-1.19-5.462 2.848.62 1.19Zm44.834-9.812-39.1-68.387-1.164.666 39.1 68.387 1.164-.666Zm-39.1-68.387-7.68-13.433-1.165.666 7.681 13.433 1.164-.666Zm-5.375 77.651 5.462-77.271-1.338-.094-5.462 77.271 1.338.094Zm-77.294-27.525 27.647 6.58.311-1.305-27.648-6.58-.31 1.305Zm3.429-8.149 21.286 5.066.31-1.305-21.285-5.066-.311 1.305Zm-24.833 27.395 12.092 2.878.311-1.304-12.092-2.878-.311 1.304Zm57.014 13.57 21.884 5.209.311-1.305-21.885-5.209-.31 1.305Zm.797-.847-7.962-26.236-1.284.389 7.962 26.237 1.284-.39Zm-36.87-32.882-4.656 11.062 1.236.521 4.656-11.063-1.236-.52Zm-4.656 11.062-4.656 11.063 1.237.52 4.655-11.062-1.236-.521Zm41.203 21.425-40.266-21.754-.638 1.18 40.266 21.754.638-1.18Zm-10.572-35.504-2.566-8.455-1.284.39 2.566 8.455 1.284-.39Zm-2.566-8.455-7.246-23.874-1.283.389 7.245 23.875 1.284-.39Zm-8.506-23.94-7.02 16.681 1.237.52 7.02-16.68-1.237-.521Zm-7.02 16.681-4.454 10.582 1.237.521 4.454-10.583-1.237-.52Zm15.186 6.855-14.266-7.194-.604 1.198 14.266 7.194.604-1.198Zm-4.986-49.137c17.505 6.421 28.375 8.172 49.456 8.138l-.002-1.341c-20.946.033-31.656-1.697-48.992-8.056l-.462 1.259Zm56.66-1.959c-6.931 1.335-12.646 2.494-18.232 3.219l.172 1.33c5.638-.731 11.406-1.902 18.313-3.232l-.253-1.317Zm-18.232 3.219c-10.686 1.385-20.901 1.179-38.054-2.545l-.285 1.311c17.277 3.751 27.649 3.973 38.511 2.564l-.172-1.33Zm11.237 5.57c-2.91-.958-5.157-1.68-6.904-2.484-1.735-.797-2.903-1.642-3.693-2.799l-1.108.756c.982 1.438 2.393 2.413 4.24 3.262 1.835.843 4.172 1.594 7.046 2.539l.419-1.274ZM140.143 157.574l-21.487 42.296 14.294-2.725 8.124-17.794 8.189 14.683 9.681-1.846-18.801-34.614Z"/><path fill="#5869DD" d="m167.219 190.61-28.691-54.121-34.242 66.121 14.37-2.74 21.487-42.296 18.801 34.614 8.275-1.578Z"/><path fill="#000" fill-rule="evenodd" d="m61.294 192.188 18.312-38.698c-5.838 11.855-12.621 20.882-22.547 34.092l-2.274 3.028 6.509 1.578Z" clip-rule="evenodd"/><path fill="url(#h)" d="m104.286 202.61 34.242-66.121c-19.24-.881-30.014 1.501-49.148-8.292-3.23 10.363-6.338 18.317-9.774 25.293l-18.312 38.698 42.992 10.422Z"/><path fill="#000" d="m138.528 136.489.593-.314a.673.673 0 0 0-.562-.356l-.031.67Zm28.691 54.121.126.659a.67.67 0 0 0 .467-.973l-.593.314Zm-62.933 12-.158.652a.68.68 0 0 0 .284.007l-.126-.659ZM89.38 128.197l.306-.597a.67.67 0 0 0-.946.398l.64.199ZM54.785 190.61l-.536-.402a.67.67 0 0 0 .378 1.054l.158-.652Zm85.358-33.036.589-.32a.672.672 0 0 0-1.187.016l.598.304Zm.931 21.777.586-.327a.67.67 0 0 0-1.196.048l.61.279Zm-22.418 20.519.126.659-.126-.659Zm14.294-2.725.125.658a.67.67 0 0 0 .485-.38l-.61-.278Zm16.313-3.111-.586.327a.672.672 0 0 0 .711.332l-.125-.659Zm9.681-1.846.126.659-.126-.659Zm-101.885-4.606.536.403-.536-.403Zm80.877-50.779 28.691 54.122 1.185-.629-28.691-54.121-1.185.628Zm-33.054 66.115 34.242-66.12-1.191-.617-34.243 66.12 1.192.617Zm33.677-67.099c-19.346-.885-29.907 1.489-48.873-8.219l-.611 1.194c19.301 9.879 30.287 7.489 49.422 8.365l.062-1.34Zm-19.305 64.355 21.487-42.296-1.196-.608-21.487 42.296 1.196.608Zm-14.842 3.095 14.37-2.74-.251-1.318-14.371 2.74.252 1.318Zm14.37-2.74 14.293-2.726-.251-1.317-14.293 2.725.251 1.318Zm14.778-3.106 8.124-17.794-1.22-.557-8.124 17.794 1.22.557Zm6.929-17.745 8.188 14.683 1.172-.653-8.189-14.684-1.171.654Zm8.899 15.015 9.682-1.846-.251-1.318-9.682 1.846.251 1.318Zm9.682-1.846 8.275-1.578-.251-1.317-8.275 1.577.251 1.318Zm-19.517-34.953 18.802 34.614 1.179-.64-18.802-34.614-1.179.64Zm-84.926 33.368 6.509 1.578.316-1.304-6.509-1.577-.316 1.303Zm6.509 1.578 42.992 10.422.316-1.304-42.992-10.422-.316 1.304Zm27.604-64.842c-3.222 10.338-6.319 18.259-9.735 25.196l1.203.593c3.455-7.015 6.576-15.004 9.813-25.39l-1.281-.399ZM61.9 192.475l18.312-38.698-1.212-.574-18.312 38.698 1.212.574Zm17.105-39.281c-5.807 11.789-12.55 20.767-22.482 33.985l1.072.806c9.92-13.202 16.742-22.279 22.613-34.198l-1.203-.593Zm-22.482 33.985-2.274 3.029 1.073.805 2.273-3.028-1.072-.806ZM288.576 322.688a3.353 3.353 0 0 1-3.353 3.353h-16.771a3.353 3.353 0 0 1-3.353-3.353V184.232l23.477 24.282v114.174Z"/><path stroke="#000" stroke-linejoin="round" stroke-width="1.341" d="M265.099 184.232V89.969a3.353 3.353 0 0 1 3.353-3.353h16.771a3.353 3.353 0 0 1 3.353 3.353v118.545m-23.477-24.282v138.456a3.353 3.353 0 0 0 3.353 3.353h16.771a3.353 3.353 0 0 0 3.353-3.353V208.514m-23.477-24.282 23.477 24.282"/><path fill="url(#i)" stroke="#000" stroke-linejoin="round" stroke-width="1.341" d="M37.481 342.473H291.63v16.766H37.481z"/><path fill="#5869DD" fill-rule="evenodd" d="M91.552 342.472h200.079l-28.627-19.449H139.03l-8.411 7.322-39.067 12.127Z" clip-rule="evenodd"/><path fill="#000" d="M37.481 342.472h54.071l39.067-12.127-35.55-3.688-39.738 3.688-17.85 12.127Z"/><path fill="#F1EFED" d="M139.03 323.023H66.108l-10.777 7.322 39.739-3.688 35.549 3.688 8.411-7.322Z"/><path fill="#000" d="m37.481 342.472-.376-.554a.67.67 0 0 0 .376 1.225v-.671Zm254.15 0v.671a.672.672 0 0 0 .377-1.225l-.377.554Zm-28.627-19.449.377-.554a.668.668 0 0 0-.377-.116v.67Zm-196.896 0v-.67a.667.667 0 0 0-.377.116l.377.554Zm-10.777 7.322-.377-.554.377.554Zm75.288 0 .199.641a.675.675 0 0 0 .241-.135l-.44-.506Zm-35.55-3.688.07-.667a.64.64 0 0 0-.131-.001l.062.668Zm196.939 15.261-28.627-19.449-.754 1.109 28.627 19.449.754-1.109Zm-29.004-19.565H139.03v1.341h123.974v-1.341Zm-123.974 0H66.108v1.341h72.922v-1.341Zm-101.549 20.79h54.071v-1.341h-54.07v1.341Zm54.071 0h200.079v-1.341H91.552v1.341Zm-25.82-20.674-10.778 7.322.754 1.109 10.777-7.322-.754-1.109Zm-10.778 7.322-17.85 12.127.754 1.109 17.85-12.127-.754-1.109Zm83.636-7.273-8.411 7.321.88 1.012 8.412-7.322-.881-1.011Zm-8.17 7.187-39.067 12.127.398 1.281 39.067-12.127-.398-1.281Zm-75.027 1.308 39.739-3.688-.124-1.336-39.739 3.689.124 1.335Zm39.608-3.689 35.549 3.688.138-1.334-35.549-3.688-.138 1.334Z"/><path fill="url(#j)" stroke="#000" stroke-linejoin="round" stroke-width="1.341" d="M60.61 70.856h212.746V84.94H60.61z"/><path fill="#000" stroke="#000" stroke-linejoin="round" stroke-width="1.341" d="M64.014 313.642h201.085v11.394H64.014zM64.014 78.904h201.085v9.725H64.014z"/><ellipse cx="63.578" cy="283.288" fill="#000" rx="2.967" ry="2.85"/><ellipse cx="63.578" cy="288.989" fill="#000" rx="2.967" ry="2.85"/><ellipse cx="63.578" cy="294.688" fill="#000" rx="2.967" ry="2.85"/><ellipse cx="63.578" cy="300.389" fill="#000" rx="2.967" ry="2.85"/><ellipse cx="63.578" cy="306.09" fill="#000" rx="2.967" ry="2.85"/><ellipse cx="63.578" cy="311.792" fill="#000" rx="2.967" ry="2.85"/><ellipse cx="63.578" cy="317.492" fill="#000" rx="2.967" ry="2.85"/><ellipse cx="63.578" cy="323.192" fill="#000" rx="2.967" ry="2.85"/><ellipse cx="63.578" cy="82.09" fill="#000" rx="2.967" ry="2.85"/><ellipse cx="63.578" cy="87.791" fill="#000" rx="2.967" ry="2.85"/><ellipse cx="63.578" cy="93.49" fill="#000" rx="2.967" ry="2.85"/><ellipse cx="63.578" cy="99.191" fill="#000" rx="2.967" ry="2.85"/><ellipse cx="63.578" cy="104.891" fill="#000" rx="2.967" ry="2.85"/><ellipse cx="63.578" cy="110.592" fill="#000" rx="2.967" ry="2.85"/><ellipse cx="63.578" cy="116.294" fill="#000" rx="2.967" ry="2.85"/><ellipse cx="63.578" cy="121.994" fill="#000" rx="2.967" ry="2.85"/><ellipse fill="#000" rx="2.967" ry="2.85" transform="matrix(-1 0 0 1 265.971 283.287)"/><ellipse fill="#000" rx="2.967" ry="2.85" transform="matrix(-1 0 0 1 265.971 288.988)"/><ellipse fill="#000" rx="2.967" ry="2.85" transform="matrix(-1 0 0 1 265.971 294.687)"/><ellipse fill="#000" rx="2.967" ry="2.85" transform="matrix(-1 0 0 1 265.971 300.388)"/><ellipse fill="#000" rx="2.967" ry="2.85" transform="matrix(-1 0 0 1 265.971 306.09)"/><ellipse fill="#000" rx="2.967" ry="2.85" transform="matrix(-1 0 0 1 265.971 311.791)"/><ellipse fill="#000" rx="2.967" ry="2.85" transform="matrix(-1 0 0 1 265.971 317.491)"/><ellipse fill="#000" rx="2.967" ry="2.85" transform="matrix(-1 0 0 1 265.971 323.191)"/><ellipse fill="#000" rx="2.967" ry="2.85" transform="matrix(-1 0 0 1 265.971 82.09)"/><ellipse fill="#000" rx="2.967" ry="2.85" transform="matrix(-1 0 0 1 265.971 87.79)"/><ellipse fill="#000" rx="2.967" ry="2.85" transform="matrix(-1 0 0 1 265.971 93.49)"/><ellipse fill="#000" rx="2.967" ry="2.85" transform="matrix(-1 0 0 1 265.971 99.191)"/><ellipse fill="#000" rx="2.967" ry="2.85" transform="matrix(-1 0 0 1 265.971 104.891)"/><ellipse fill="#000" rx="2.967" ry="2.85" transform="matrix(-1 0 0 1 265.971 110.592)"/><ellipse fill="#000" rx="2.967" ry="2.85" transform="matrix(-1 0 0 1 265.971 116.294)"/><ellipse fill="#000" rx="2.967" ry="2.85" transform="matrix(-1 0 0 1 265.971 121.994)"/><path fill="url(#k)" stroke="#000" stroke-linejoin="round" stroke-width="1.341" d="m265.795 70.857 46.47-42.801c1.719-1.584 4.5-.364 4.5 1.973v324.289c0 2.124-2.351 3.406-4.137 2.255l-46.833-30.195V70.858Z"/><path fill="#5869DD" fill-rule="evenodd" d="M314.147 357.06V28.395c0-.467.485-.79.941-.629l13.023 4.635v200.108L314.147 357.06Z" clip-rule="evenodd"/><path fill="#000" d="m328.111 350.103-13.964 6.957 13.964-124.551v117.594Z"/><path fill="#000" d="m328.111 32.401.225-.632a.671.671 0 0 1 .446.632h-.671Zm0 317.702h.671a.671.671 0 0 1-.372.6l-.299-.6Zm-13.964 6.957.299.6a.673.673 0 0 1-.97-.6h.671Zm.941-329.294.225-.631-.225.631Zm13.322 322.937-13.964 6.957-.598-1.201 13.964-6.957.598 1.201Zm.372-318.302v200.108h-1.341V32.401h1.341Zm0 200.108v117.594h-1.341V232.509h1.341Zm-15.301 124.476 13.964-124.551 1.333.15-13.964 124.55-1.333-.149Zm14.405-323.952-13.023-4.635.45-1.263 13.023 4.634-.45 1.264Zm-13.023-4.635a.048.048 0 0 0-.044.004l-.004.004.002-.006.001-.005h-1.342c0-.969.981-1.565 1.837-1.26l-.45 1.263Zm-.045-.003V357.06h-1.342V28.395h1.342Zm-1.342 0v-.013h1.342v.013h-1.342Zm1.791-1.276.046.016-.45 1.263-.045-.016.449-1.264Zm-1.791 1.263c0-.927.918-1.574 1.791-1.264l-.449 1.264h-1.342Z"/><path fill="#F1EFED" d="m290.644 321.327 17.865 10.416V44.031l-17.865 16.317-17.866 16.317v234.246l17.866 10.416Z"/><path fill="#000" d="M308.509 331.743h.67a.672.672 0 0 1-1.008.58l.338-.58Zm-35.731-20.832-.337.58a.673.673 0 0 1-.333-.58h.67Zm0-234.246h-.67a.67.67 0 0 1 .218-.495l.452.495Zm35.731-32.634-.452-.495a.67.67 0 0 1 1.122.495h-.67Zm-7.103 77.91.294.602-.294-.602Zm6.765 210.382-17.865-10.416.675-1.159 17.866 10.416-.676 1.159Zm-17.865-10.416-17.865-10.416.675-1.159 17.865 10.416-.675 1.159ZM272.326 76.17l17.865-16.317.905.99-17.865 16.318-.905-.99Zm17.865-16.317 17.866-16.317.904.99-17.865 16.317-.905-.99Zm18.988-15.822v74.443h-1.341V44.031h1.341Zm-37.071 266.88v-175h1.341v175h-1.341Zm0-175V76.665h1.341v59.246h-1.341Zm36.695-16.834-7.103 3.466-.588-1.205 7.103-3.467.588 1.206Zm-18.83 202.25V213.061h1.341v108.266h-1.341ZM301.7 122.543l-10.762 5.252-.589-1.205 10.763-5.252.588 1.205Zm-10.386 4.65v85.868h-1.341v-85.868h1.341Zm-1.341 0V60.348h1.341v66.845h-1.341Zm.965.602-17.865 8.719-.589-1.205 17.865-8.719.589 1.205Zm18.241-9.321v62.395h-1.341v-62.395h1.341Zm0 62.395v150.874h-1.341V180.869h1.341Z"/><path fill="#5869DD" d="m16.846 28.056 46.47 42.801v255.521l-46.834 30.195c-1.785 1.151-4.136-.131-4.136-2.255V30.029c0-2.337 2.78-3.556 4.5-1.973Z"/><path fill="#000" d="M63.315 70.857h.67a.67.67 0 0 0-.215-.493l-.455.493Zm-46.47-42.801.455-.493-.454.493Zm-.363 328.517.363.564-.363-.564Zm46.833-30.195.364.563a.67.67 0 0 0 .307-.563h-.67Zm.455-256.014L17.3 27.563l-.909.986 46.47 42.801.909-.986ZM16.845 357.137l46.834-30.196-.727-1.127-46.833 30.195.726 1.128Zm47.14-30.759V70.858h-1.34v255.52h1.34ZM11.676 30.029v315.822h1.341V30.029h-1.341Zm0 315.822v8.467h1.341v-8.467h-1.341Zm4.444 10.158c-1.34.863-3.103-.098-3.103-1.691h-1.341c0 2.655 2.939 4.257 5.17 2.819l-.726-1.128ZM17.3 27.563c-2.149-1.98-5.625-.455-5.625 2.466h1.341c0-1.753 2.086-2.667 3.375-1.48l.91-.986Z"/><path fill="url(#l)" stroke="#000" stroke-linejoin="round" stroke-width="1.341" d="M.999 350.103V32.401l13.069-4.65a.67.67 0 0 1 .895.631v327.594a.671.671 0 0 1-.97.601L1 350.103Z"/><path fill="#000" d="M56.332 310.911V183.552l-8.933 132.567 8.933-5.208Z"/><path fill="#F1EFED" d="M38.467 127.193v194.134l8.932-5.208 8.933-132.567v-47.641l-10.325-5.039-7.54-3.679ZM20.602 331.743l17.865-10.416V127.193l-17.865-8.719v213.269ZM38.467 60.348 20.602 44.031v74.443l17.865 8.719V60.348Z"/><path fill="#F1EFED" d="M56.332 76.665 38.467 60.348v66.845l7.54 3.679 10.325 5.039V76.665Z"/><path fill="#000" d="M56.332 76.665h.67a.67.67 0 0 0-.218-.495l-.452.495Zm-35.73-32.634.452-.495a.67.67 0 0 0-1.123.495h.67Zm0 287.712h-.671a.672.672 0 0 0 1.008.58l-.337-.58Zm35.73-20.832.338.58a.672.672 0 0 0 .332-.58h-.67ZM46.007 130.872l-.294.603.294-.603Zm1.392 185.247.338.58-.338-.58Zm-26.46 16.204 17.865-10.416-.675-1.159-17.865 10.416.675 1.159ZM56.784 76.17 38.92 59.853l-.905.99L55.88 77.162l.904-.99ZM38.92 59.853 21.054 43.536l-.905.99 17.865 16.317.905-.99ZM19.931 44.031v74.443h1.341V44.031h-1.341Zm0 74.443v213.269h1.341V118.474h-1.341Zm37.072 17.437V76.665H55.66v59.246h1.341Zm-11.29-4.436 10.325 5.039.588-1.205-10.325-5.039-.588 1.205Zm11.29 179.436V183.552H55.66v127.359h1.341Zm0-127.359v-47.641H55.66v47.641h1.341ZM38.803 321.907l8.933-5.208-.675-1.159-8.933 5.208.675 1.159Zm8.933-5.208 8.933-5.208-.676-1.159-8.932 5.208.675 1.159Zm.331-.535 8.933-132.567-1.338-.09-8.933 132.567 1.338.09ZM37.796 127.193v194.134h1.341V127.193h-1.34Zm8.505 3.077-7.54-3.68-.588 1.205 7.54 3.68.588-1.205Zm-25.994-11.193 17.866 8.718.588-1.205-17.865-8.719-.589 1.206Zm18.83 8.116V60.348h-1.34v66.845h1.34Z"/><path fill="#5869DD" stroke="#000" stroke-linejoin="round" stroke-width="1.341" d="M71.607 299.635c0 11.019 8.949 19.952 19.987 19.952l3.84-7.042c-11.038 0-17.805-4.947-17.805-12.91 0-7.964 6.767-10.898 17.805-10.898l-3.84-4.695c-9.077 0-19.987 4.574-19.987 15.593Z"/><path fill="url(#m)" d="M142.214 274.736c0 2.021-2.132 3.878-5.698 5.342-4.766 1.956-12.093 3.209-20.31 3.209-1.598 0-3.162-.047-4.681-.138-5.179-.309-9.825-1.123-13.447-2.281-4.86-1.554-7.88-3.727-7.88-6.132v54.156c0 4.723 11.644 8.551 26.008 8.551 14.364 0 26.008-3.828 26.008-8.551v-54.156Z"/><path fill="#5869DD" d="M116.206 266.186c-14.364 0-26.009 3.828-26.009 8.55 0 2.405 3.02 4.578 7.881 6.132 3.499-6.831 18.397-8.375 29.308-5.38 3.703 1.017 6.947 2.557 9.13 4.59 3.566-1.464 5.698-3.321 5.698-5.342 0-4.722-11.644-8.55-26.008-8.55Z"/><path fill="#F1EFED" d="M116.206 283.287c8.217 0 15.544-1.253 20.31-3.209-2.183-2.033-5.427-3.573-9.13-4.59l-15.861 7.661c1.519.091 3.083.138 4.681.138Z"/><path fill="#000" d="M127.386 275.488c-10.911-2.995-25.809-1.451-29.308 5.38 3.622 1.158 8.268 1.972 13.447 2.281l15.861-7.661Z"/><path fill="#000" d="m111.525 283.149-.04.67.04-.67Zm-20.657-8.413c0-.883.544-1.834 1.785-2.798 1.232-.958 3.057-1.85 5.371-2.611 4.623-1.52 11.051-2.471 18.182-2.471v-1.341c-7.234 0-13.81.963-18.6 2.538-2.392.786-4.376 1.737-5.776 2.826-1.392 1.081-2.303 2.379-2.303 3.857h1.34Zm25.338-7.88c7.13 0 13.559.951 18.181 2.471 2.315.761 4.139 1.653 5.372 2.611 1.24.964 1.784 1.915 1.784 2.798h1.342c0-1.478-.912-2.776-2.303-3.857-1.4-1.089-3.384-2.04-5.776-2.826-4.791-1.575-11.367-2.538-18.6-2.538v1.341Zm25.337 62.036c0 .883-.544 1.834-1.784 2.799-1.233.958-3.057 1.849-5.372 2.61-4.622 1.52-11.051 2.471-18.181 2.471v1.342c7.233 0 13.809-.963 18.6-2.539 2.392-.786 4.376-1.737 5.776-2.825 1.391-1.082 2.303-2.38 2.303-3.858h-1.342Zm-25.337 7.88c-7.131 0-13.559-.951-18.182-2.471-2.314-.761-4.14-1.652-5.371-2.61-1.241-.965-1.785-1.916-1.785-2.799h-1.341c0 1.478.911 2.776 2.302 3.858 1.4 1.088 3.385 2.039 5.777 2.825 4.79 1.576 11.366 2.539 18.6 2.539v-1.342Zm-25.338-7.88v-54.156h-1.341v54.156h1.34Zm50.675-54.156v54.156h1.342v-54.156h-1.342Zm-43.26 5.493c-2.393-.764-4.284-1.667-5.562-2.641-1.288-.982-1.853-1.952-1.853-2.852h-1.341c0 1.506.945 2.824 2.381 3.919 1.447 1.102 3.497 2.063 5.966 2.852l.408-1.278Zm43.26-5.493c0 .757-.396 1.56-1.295 2.387-.898.826-2.244 1.619-3.986 2.335l.509 1.24c1.823-.748 3.326-1.615 4.385-2.588 1.059-.973 1.729-2.109 1.729-3.374h-1.342Zm-5.281 4.722c-4.659 1.912-11.892 3.159-20.056 3.159v1.341c8.27 0 15.691-1.259 20.565-3.26l-.509-1.24Zm-37.587 1.716c.79-1.544 2.25-2.835 4.231-3.853 1.978-1.017 4.436-1.74 7.151-2.165 5.431-.851 11.787-.494 17.152.979l.355-1.293c-5.547-1.523-12.095-1.892-17.715-1.011-2.811.44-5.416 1.197-7.556 2.297-2.138 1.099-3.853 2.562-4.812 4.434l1.194.612Zm28.534-5.039c3.646 1.001 6.776 2.502 8.85 4.434l.914-.982c-2.292-2.135-5.65-3.713-9.409-4.745l-.355 1.293Zm-11.003 6.482a77.84 77.84 0 0 1-4.641-.137l-.08 1.339c1.532.091 3.11.139 4.721.139v-1.341Zm-4.641-.137c-5.138-.307-9.726-1.114-13.283-2.251l-.408 1.278c3.688 1.179 8.39 2 13.611 2.312l.08-1.339Zm15.53-7.595-15.861 7.66.583 1.208 15.861-7.661-.583-1.207Z"/><ellipse stroke="#000" stroke-linejoin="round" stroke-width="1.006" rx="14.189" ry="5.4" transform="translate(118.257 305.677) skewX(.056)"/><ellipse stroke="#000" stroke-linejoin="round" stroke-width="1.006" rx="13.802" ry="5.554" transform="matrix(.56629 -.8242 .84029 .54213 118.155 305.278)"/><ellipse stroke="#000" stroke-linejoin="round" stroke-width="1.006" rx="13.802" ry="5.554" transform="matrix(-.56661 -.824 -.8405 .54183 118.349 305.28)"/><ellipse fill="#000" stroke="#000" stroke-linejoin="round" stroke-width="1.006" rx="2.41" ry="2.314" transform="translate(118.256 305.672) skewX(.056)"/><path stroke="#000" stroke-linecap="round" stroke-linejoin="round" stroke-width="1.207" d="M94.688 224.627c-5.681 4.739-16.548 16.611-14.565 26.188 2.478 11.972 24.57 13.209 23.498 23.238"/><path stroke="#000" stroke-linecap="round" stroke-linejoin="round" stroke-width="1.207" d="M96.872 252.736c4.356.629 12.816 4.232 11.803 13.617-1.012 9.384 3.635 12.557 6.085 12.97"/><rect width="30.642" height="4.195" fill="#000" stroke="#000" stroke-linejoin="round" stroke-width="1.207" rx="1.341" transform="matrix(.98987 -.14194 .15358 .98814 110.396 241.413)"/><rect width="30.634" height="4.197" fill="#5869DD" stroke="#000" stroke-linejoin="round" stroke-width="1.207" rx="1.341" transform="matrix(.9868 .16197 -.17515 .98454 111.137 237.063)"/><path fill="#000" fill-rule="evenodd" d="M122.838 241.423h-1.133c-.954 0-1.603.968-1.241 1.85l.994 2.423c.207.503.697.832 1.241.832h3.186l-3.047-5.105Z" clip-rule="evenodd"/><path fill="#F1EFED" d="M129.072 246.528a1.34 1.34 0 0 0 1.24-.832l.994-2.423a1.34 1.34 0 0 0-1.24-1.85h-7.228l3.047 5.105h3.187Z"/><path fill="#000" d="m130.312 245.696-.558-.229.558.229Zm.994-2.423-.558-.229.558.229Zm-.558-.229-.994 2.423 1.117.458.994-2.423-1.117-.458Zm-8.731 2.423-.994-2.423-1.117.458.994 2.423 1.117-.458Zm7.055.458h-3.187v1.207h3.187v-1.207Zm-3.187 0h-3.186v1.207h3.186v-1.207Zm-4.18-3.899h1.133v-1.207h-1.133v1.207Zm1.133 0h7.228v-1.207h-7.228v1.207Zm3.566 4.193-3.048-5.106-1.036.619 3.047 5.106 1.037-.619Zm-5.504-.294a1.944 1.944 0 0 0 1.799 1.207v-1.207a.737.737 0 0 1-.682-.458l-1.117.458Zm8.854-.458a.738.738 0 0 1-.682.458v1.207c.789 0 1.499-.477 1.799-1.207l-1.117-.458Zm2.111-1.965a1.945 1.945 0 0 0-1.799-2.683v1.207c.524 0 .881.533.682 1.018l1.117.458Zm-10.842-.458a.738.738 0 0 1 .682-1.018v-1.207a1.945 1.945 0 0 0-1.799 2.683l1.117-.458Z"/><path fill="#000" d="m116.791 234.649-1.688-14.007 11.556-4.055a6.035 6.035 0 0 1 3.997 0l11.556 4.055-1.688 14.007a6.035 6.035 0 0 1-3.237 4.648l-5.874 3.014a6.04 6.04 0 0 1-5.511 0l-5.874-3.014a6.035 6.035 0 0 1-3.237-4.648Z"/><path fill="url(#n)" d="m114.3 237.125-1.989-16.483 13.131-4.601c.287-.1.599-.1.887 0l13.131 4.601-1.99 16.483c-.053.443-.323.83-.72 1.033l-10.253 5.253a1.34 1.34 0 0 1-1.223 0l-10.254-5.253a1.34 1.34 0 0 1-.72-1.033Z"/><path stroke="#000" stroke-linejoin="round" stroke-width="1.207" d="m112.311 220.642 1.989 16.483c.054.443.323.83.72 1.033l10.254 5.253a1.34 1.34 0 0 0 1.223 0l10.253-5.253c.397-.203.667-.59.72-1.033l1.99-16.483m-27.149 0 13.131-4.601c.287-.1.599-.1.887 0l13.131 4.601m-27.149 0 13.442 1.328c.088.009.176.009.264 0l13.443-1.328"/><ellipse cx="125.885" cy="216.082" fill="#000" rx="2.887" ry="2.18"/><defs><linearGradient id="a" x1="-49.794" x2="75.046" y1="251.256" y2="443.286" gradientUnits="userSpaceOnUse"><stop stop-color="#D6FFBB"/><stop offset="1" stop-color="#5869DD"/></linearGradient><linearGradient id="b" x1="61.221" x2="269.21" y1="75.99" y2="202.196" gradientUnits="userSpaceOnUse"><stop stop-color="#D6FFBB"/><stop offset=".181" stop-color="#5869DD"/></linearGradient><linearGradient id="c" x1="160.327" x2="199.436" y1="96.943" y2="106" gradientUnits="userSpaceOnUse"><stop stop-color="#D6FFBB"/><stop offset="1" stop-color="#5869DD"/></linearGradient><linearGradient id="d" x1="80.381" x2="144.681" y1="132.988" y2="100.218" gradientUnits="userSpaceOnUse"><stop stop-color="#D6FFBB"/><stop offset="1" stop-color="#5869DD"/></linearGradient><linearGradient id="e" x1="192.444" x2="225.663" y1="110.591" y2="134.312" gradientUnits="userSpaceOnUse"><stop stop-color="#D6FFBB"/><stop offset="1" stop-color="#5869DD"/></linearGradient><linearGradient id="f" x1="100.28" x2="144.966" y1="104.642" y2="102.204" gradientUnits="userSpaceOnUse"><stop stop-color="#D6FFBB"/><stop offset="1" stop-color="#5869DD"/></linearGradient><linearGradient id="g" x1="174.33" x2="241.489" y1="207.197" y2="238.032" gradientUnits="userSpaceOnUse"><stop stop-color="#D6FFBB"/><stop offset="1" stop-color="#5869DD"/></linearGradient><linearGradient id="h" x1="71.694" x2="132.791" y1="138.789" y2="170.95" gradientUnits="userSpaceOnUse"><stop stop-color="#D6FFBB"/><stop offset="1" stop-color="#5869DD"/></linearGradient><linearGradient id="i" x1="-.92" x2="209.087" y1="378.214" y2="357.663" gradientUnits="userSpaceOnUse"><stop stop-color="#D6FFBB"/><stop offset="1" stop-color="#5869DD"/></linearGradient><linearGradient id="j" x1="96.69" x2="106.46" y1="96.495" y2="36.305" gradientUnits="userSpaceOnUse"><stop stop-color="#5869DD"/><stop offset="1" stop-color="#D6FFBB"/></linearGradient><linearGradient id="k" x1="308.121" x2="217.289" y1="634.381" y2="628.75" gradientUnits="userSpaceOnUse"><stop stop-color="#5869DD"/><stop offset="1" stop-color="#D6FFBB"/></linearGradient><linearGradient id="l" x1="-32.341" x2="57.681" y1="199.149" y2="191.671" gradientUnits="userSpaceOnUse"><stop stop-color="#D6FFBB"/><stop offset="1" stop-color="#5869DD"/></linearGradient><linearGradient id="m" x1="99.019" x2="184.496" y1="395.91" y2="370.462" gradientUnits="userSpaceOnUse"><stop stop-color="#5869DD"/><stop offset="1" stop-color="#D6FFBB"/></linearGradient><linearGradient id="n" x1="112.311" x2="139.46" y1="229.805" y2="229.805" gradientUnits="userSpaceOnUse"><stop stop-color="#D6FFBB"/><stop offset="1" stop-color="#5869DD"/></linearGradient></defs></svg>
