<svg xmlns="http://www.w3.org/2000/svg" width="1314" height="932" fill="none" viewBox="0 0 1314 932"><path fill="#000" d="m660.284 15.308-14.37 4.28 14.37-4.28ZM605.634 38.988a56.14 56.14 0 0 0-5.44 5.14c-.85.91-1.67 1.86-2.44 2.84-.77.98-1.45 2-2.18 3a.083.083 0 0 1-.093.02.07.07 0 0 1-.027-.02.086.086 0 0 1-.028-.065.086.086 0 0 1 .028-.065c.73-1 1.44-2 2.19-3s1.6-1.93 2.46-2.84a55.16 55.16 0 0 1 5.452-5.135.073.073 0 0 1 .055 0 .085.085 0 0 1 .023.015.08.08 0 0 1 .021.055.08.08 0 0 1-.021.055ZM591.354 64.018c.2 1.222.69 2.378 1.43 3.37a8.428 8.428 0 0 0 2.86 2.3c1.116.54 2.3.926 3.52 1.15 1.22.24 2.47.36 3.7.55a.12.12 0 0 1 .11.14.139.139 0 0 1-.017.049.132.132 0 0 1-.133.061c-1.24-.19-2.48-.32-3.72-.56a13.806 13.806 0 0 1-3.57-1.18 8.341 8.341 0 0 1-2.93-2.36 8.008 8.008 0 0 1-1.47-3.47.1.1 0 0 1 0-.042.093.093 0 0 1 .018-.038.091.091 0 0 1 .032-.028.098.098 0 0 1 .04-.012.11.11 0 0 1 .13.07ZM617.824 72.098l15-.61a.146.146 0 0 1 .063.005.147.147 0 0 1 .094.083c.008.02.013.04.013.062a.17.17 0 0 1-.047.117.168.168 0 0 1-.113.053l-15 .58a.141.141 0 0 1-.139-.084.15.15 0 0 1 .129-.206ZM647.764 70.358l3.74-.27c1.25-.11 2.5-.15 3.75-.17l7.51-.2c.053 0 .104.021.141.059a.198.198 0 0 1 .059.141.196.196 0 0 1-.052.14.19.19 0 0 1-.138.06l-7.48.18c-1.25 0-2.5.06-3.74.17l-3.74.25a.183.183 0 0 1-.134-.038.181.181 0 0 1-.066-.122.19.19 0 0 1 .15-.2ZM677.754 70.438l14.94 1.33a.24.24 0 0 1 .22.26.24.24 0 0 1-.26.21l-14.93-1.36a.23.23 0 0 1-.21-.24.218.218 0 0 1 .24-.2ZM707.644 72.868c4.997.251 10.003.251 15 0a.28.28 0 0 1 .29.26.277.277 0 0 1-.072.198.278.278 0 0 1-.188.092c-5 .25-10 .19-15-.06a.262.262 0 0 1-.175-.086.262.262 0 0 1-.065-.184.239.239 0 0 1 .21-.22ZM737.534 71.388l14.85-2.1a.31.31 0 0 1 .09.61l-14.87 2.07a.299.299 0 0 1-.33-.25.276.276 0 0 1 .006-.114.284.284 0 0 1 .244-.216h.01ZM767.204 67.098l14.9-1.8a.326.326 0 0 1 .255.067.334.334 0 0 1 .125.233.352.352 0 0 1-.3.39l-14.88 1.76a.322.322 0 0 1-.33-.157.335.335 0 0 1 .023-.36.34.34 0 0 1 .207-.133ZM797.094 64.338c2.51 0 5-.06 7.51 0h7.51a.38.38 0 0 1 .38.38.386.386 0 0 1-.39.38l-7.5-.05h-7.49a.37.37 0 0 1-.38-.35.384.384 0 0 1 .36-.36ZM827.114 64.608l15 .56a.42.42 0 0 1 .4.44.42.42 0 0 1-.27.376.406.406 0 0 1-.16.024l-15-.6a.403.403 0 0 1-.358-.265.407.407 0 0 1-.022-.155.392.392 0 0 1 .257-.357.39.39 0 0 1 .153-.023ZM857.103 66.098l14.95 1.37a.469.469 0 0 1 .36.672.458.458 0 0 1-.272.223.448.448 0 0 1-.178.015l-14.93-1.41a.441.441 0 0 1-.39-.48.43.43 0 0 1 .46-.39ZM886.944 69.398l14.81 2.54a.504.504 0 0 1 .415.585.503.503 0 0 1-.585.415l-14.78-2.6a.478.478 0 0 1-.338-.541.48.48 0 0 1 .498-.399h-.02ZM916.454 74.958l3.67.77 3.7.67 7.38 1.33a.516.516 0 0 1 .33.214.503.503 0 0 1 .08.386.502.502 0 0 1-.211.337.517.517 0 0 1-.389.083l-7.39-1.34-3.7-.68-3.67-.77a.51.51 0 0 1-.39-.6.504.504 0 0 1 .393-.4.5.5 0 0 1 .197 0ZM945.773 81.538a36.346 36.346 0 0 1 6.83 3.35 17.232 17.232 0 0 1 5.5 5.35.543.543 0 0 1-.588.807.53.53 0 0 1-.332-.247 16.083 16.083 0 0 0-5.16-5 35.37 35.37 0 0 0-6.62-3.26.536.536 0 0 1-.315-.685.534.534 0 0 1 .685-.315ZM959.334 105.318a18.763 18.763 0 0 1-3.8 6.66 27.714 27.714 0 0 1-5.83 4.93.562.562 0 0 1-.847-.591.557.557 0 0 1 .247-.349 26.157 26.157 0 0 0 5.6-4.72 17.695 17.695 0 0 0 3.61-6.26.538.538 0 0 1 .478-.378.544.544 0 0 1 .212.028.55.55 0 0 1 .33.68ZM936.104 123.458l-13.78 5.93a.584.584 0 0 1-.771-.751.582.582 0 0 1 .311-.319l13.78-5.9a.573.573 0 0 1 .433-.005.553.553 0 0 1 .307.305.569.569 0 0 1-.28.74ZM908.534 135.208l-13.84 5.81a.605.605 0 0 1-.655-.13.611.611 0 0 1-.176-.425.605.605 0 0 1 .371-.555l13.84-5.78a.594.594 0 0 1 .718.332.593.593 0 0 1-.258.748ZM880.854 146.848l-13.79 5.9a.61.61 0 0 1-.237.052.609.609 0 0 1-.444-.173.616.616 0 0 1-.191-.436.609.609 0 0 1 .173-.444.616.616 0 0 1 .199-.139l13.8-5.88a.6.6 0 0 1 .8.32.623.623 0 0 1-.31.8ZM853.324 158.748l-13.67 6.16a.643.643 0 0 1-.857-.815.641.641 0 0 1 .337-.355l13.7-6.15a.63.63 0 0 1 .51 1.15l-.02.01ZM826.073 171.258l-13.45 6.6a.648.648 0 0 1-.527.069.648.648 0 0 1-.407-.342.652.652 0 0 1-.023-.531.668.668 0 0 1 .377-.376l13.49-6.59a.66.66 0 0 1 .717.098.643.643 0 0 1 .218.448.666.666 0 0 1-.162.471.647.647 0 0 1-.203.153h-.03ZM799.324 184.768l-13.06 7.32a.69.69 0 0 1-.93-.27.675.675 0 0 1-.059-.513.674.674 0 0 1 .319-.407l13.12-7.33a.667.667 0 0 1 .969.763.682.682 0 0 1-.319.407l-.04.03ZM773.534 199.978c-4.16 2.74-8.24 5.61-12.17 8.67a.69.69 0 0 1-.526.152.714.714 0 0 1-.265-.087.711.711 0 0 1-.209-.185.68.68 0 0 1-.157-.526.688.688 0 0 1 .277-.474c4-3.08 8.08-6 12.27-8.72a.694.694 0 0 1 .76 1.16l.02.01ZM747.534 214.768c-1.26.19-2.52.34-3.8.42-.63 0-1.27.06-1.92 0h-.77a1.682 1.682 0 0 1-.41-.08l-.26-.16a.782.782 0 0 1-.23-.7.823.823 0 0 1 .31-.44.818.818 0 0 1 .19-.11l.23-.05h.78c2.57-.15 5.06-.09 7.57 0a.722.722 0 0 1 .509 1.229.711.711 0 0 1-.509.211c-2.49-.05-5-.1-7.43 0h-.62l.14-.08a.636.636 0 0 0 .22-.47.704.704 0 0 0-.2-.66c-.27-.19-.18-.11-.21-.13-.03-.02 0 0 .06 0h.64c.59 0 1.21 0 1.82-.05a37.9 37.9 0 0 0 3.66-.4.711.711 0 1 1 .22 1.41l.01.06ZM764.214 213.828l15-.25a.744.744 0 0 1 .523.217.732.732 0 0 1 .217.523.723.723 0 0 1-.057.283.735.735 0 0 1-.683.457l-15 .24a.737.737 0 0 1-.654-.735.74.74 0 0 1 .654-.735ZM794.164 212.958l15-.75a.766.766 0 0 1 .553.198.767.767 0 0 1 .247.532.751.751 0 0 1-.72.79l-15 .74a.76.76 0 0 1-.07-1.51h-.01ZM824.144 211.538l15-.34a.788.788 0 0 1 .5 1.311.788.788 0 0 1-.5.259l-15 .31a.764.764 0 0 1-.554-.215.77.77 0 0 1-.236-.545.745.745 0 0 1 .226-.561.757.757 0 0 1 .564-.219ZM854.183 211.428l15 .47a.813.813 0 0 1 .72.805.808.808 0 0 1-.72.805l-15-.49a.8.8 0 0 1 0-1.59ZM884.174 212.448l15.05.62a.822.822 0 0 1 .574.258.818.818 0 0 1 .141.906.816.816 0 0 1-.785.476l-15-.64a.8.8 0 0 1-.78-.84.819.819 0 0 1 .8-.78ZM914.215 213.758l15 .77a.837.837 0 0 1 .751.556.834.834 0 0 1-.226.906.833.833 0 0 1-.605.218l-15-.79a.84.84 0 0 1-.575-.271.828.828 0 0 1 .056-1.174.831.831 0 0 1 .599-.215ZM944.183 215.398l15 1a.851.851 0 0 1-.11 1.7l-15-1a.849.849 0 0 1-.459-1.454.85.85 0 0 1 .569-.236v-.01ZM974.124 217.538l15 1.3a.868.868 0 0 1 .62.287.844.844 0 0 1 .216.648.852.852 0 0 1-.325.601.862.862 0 0 1-.661.174l-14.94-1.3a.852.852 0 0 1-.473-1.504.856.856 0 0 1 .623-.196l-.06-.01ZM1004.02 220.348l14.9 1.94c.12.013.23.05.33.108.11.059.19.137.26.231.07.093.12.2.15.314.03.114.03.232.01.347a.774.774 0 0 1-.11.328.854.854 0 0 1-.89.422l-14.85-1.94a.787.787 0 0 1-.31-.109.856.856 0 0 1-.41-.525 1.26 1.26 0 0 1-.02-.336c.02-.112.06-.22.11-.318a.942.942 0 0 1 .23-.253.86.86 0 0 1 .63-.169l-.03-.04ZM1033.75 224.978l14.6 3.53c.23.054.42.196.55.394a.88.88 0 0 1-.29 1.202.896.896 0 0 1-.67.104l-14.55-3.53a.862.862 0 0 1-.51-.398.859.859 0 0 1-.1-.645c.06-.219.19-.41.38-.53a.863.863 0 0 1 .64-.117l-.05-.01ZM1062.8 232.748c4.79 1.582 9.47 3.476 14 5.67.21.103.37.284.44.503a.86.86 0 0 1-.04.667.954.954 0 0 1-.2.275.904.904 0 0 1-.3.173.827.827 0 0 1-.34.044.91.91 0 0 1-.33-.092 114.082 114.082 0 0 0-13.8-5.58.839.839 0 0 1-.44-.45.869.869 0 0 1-.03-.634.876.876 0 0 1 .4-.488c.2-.106.42-.138.63-.088h.01ZM1089.6 246.618a32.466 32.466 0 0 1 5.19 5.67 22.923 22.923 0 0 1 3.39 7c.04.112.05.229.03.344a.94.94 0 0 1-.1.328.98.98 0 0 1-.23.262.825.825 0 0 1-.31.156.9.9 0 0 1-.67-.079.874.874 0 0 1-.26-.224 1.107 1.107 0 0 1-.16-.307 21.281 21.281 0 0 0-3.13-6.45 30.027 30.027 0 0 0-4.91-5.37.948.948 0 0 1-.21-.27.941.941 0 0 1-.09-.331.982.982 0 0 1 .04-.341c.04-.11.1-.211.17-.298a.918.918 0 0 1 .61-.302.86.86 0 0 1 .64.212ZM1095.25 274.258a46.574 46.574 0 0 1-10.16 11.36.873.873 0 0 1-.65.201.915.915 0 0 1-.61-.321.91.91 0 0 1-.2-.655.938.938 0 0 1 .32-.605 44.43 44.43 0 0 0 9.77-10.9.81.81 0 0 1 .24-.255c.09-.069.2-.118.31-.145a.883.883 0 0 1 .67.11c.2.126.34.323.4.551.05.228.01.468-.11.669l.02-.01ZM1072.12 293.478c-4.5 2.254-9.09 4.293-13.78 6.12a.877.877 0 0 1-.65-.045.925.925 0 0 1-.46-.482.938.938 0 0 1 0-.66.948.948 0 0 1 .45-.483c4.63-1.82 9.19-3.83 13.64-6a.926.926 0 0 1 .69-.048c.11.037.21.096.3.172a.83.83 0 0 1 .21.276c.06.105.09.22.1.337 0 .117-.01.235-.05.346a.878.878 0 0 1-.45.517v-.05ZM1044.14 304.608l-14.46 4.15a.905.905 0 0 1-.97-1.295.862.862 0 0 1 .47-.445l14.38-4.12c.23-.04.45.004.65.123a.9.9 0 0 1 .39.521.917.917 0 0 1-.54 1.096l.08-.03ZM1015.09 312.368c-2.43.56-4.86 1.14-7.31 1.68l-7.35 1.59a.878.878 0 0 1-.35.005.91.91 0 0 1-.604-1.398.918.918 0 0 1 .574-.397l7.31-1.57 7.3-1.68a.91.91 0 0 1 .95.355c.07.098.12.208.14.325.06.232.02.476-.1.68a.945.945 0 0 1-.56.41ZM985.643 318.328l-14.87 2.21a.921.921 0 0 1-1-.78.91.91 0 0 1 .77-1l14.81-2.22a.918.918 0 0 1 1.004.785.921.921 0 0 1-.744 1.035l.03-.03ZM955.853 322.218l-15 1.37a.927.927 0 0 1-.903-.489.935.935 0 0 1-.065-.704.914.914 0 0 1 .452-.544.912.912 0 0 1 .346-.103l14.92-1.35a.923.923 0 0 1 .17 1.84l.08-.02ZM925.915 324.658l-15 .81a.935.935 0 0 1-.743-1.552.942.942 0 0 1 .643-.308l15-.81a.94.94 0 0 1 .672.237.942.942 0 0 1 .308.643.937.937 0 0 1-.528.89.916.916 0 0 1-.352.09ZM895.934 326.068l-15 .41a.94.94 0 1 1 0-1.88l15-.4a.935.935 0 0 1 .693.243.942.942 0 0 1 .307.667.998.998 0 0 1-1 .96ZM865.924 326.728l-15 .13a1.007 1.007 0 0 1-.498-.363 1.005 1.005 0 0 1 0-1.173c.124-.171.298-.298.498-.364l15-.11c.249 0 .488.099.665.275a.943.943 0 0 1 0 1.33.943.943 0 0 1-.665.275ZM835.914 326.868l-15-.09a.995.995 0 0 1-.899-.14 1.001 1.001 0 0 1 .899-1.76l15 .09a1.009 1.009 0 0 1 .898.14 1.002 1.002 0 0 1 .305 1.265.994.994 0 0 1-.737.533.995.995 0 0 1-.466-.038ZM805.904 326.618l-15-.22a.999.999 0 0 1 0-1.92l15 .23a1.004 1.004 0 0 1 1.189.504 1.008 1.008 0 0 1 0 .902 1.006 1.006 0 0 1-1.189.504ZM775.913 326.128l-15-.31a.997.997 0 0 1-.757-.97 1.001 1.001 0 0 1 .757-.97l15 .32a1 1 0 1 1 0 1.93ZM745.914 325.478l-15-.35a1.005 1.005 0 0 1-1.127-.561.999.999 0 0 1 .023-.877.993.993 0 0 1 .705-.521c.149-.028.303-.021.449.019l15 .35a.997.997 0 0 1 .757.97.999.999 0 0 1-.757.97h-.05ZM715.924 324.778l-15-.35a.999.999 0 0 1-.95-1 1 1 0 0 1 1-1l15 .36c.146-.033.298-.033.445 0a1.012 1.012 0 0 1 .678.541 1.006 1.006 0 0 1 0 .868 1 1 0 0 1-1.123.541l-.05.04ZM685.934 324.098l-15-.3a.997.997 0 0 1-.707-1.707.996.996 0 0 1 .707-.293l15 .31a1 1 0 0 1 1 1 1.004 1.004 0 0 1-1 .99ZM655.943 323.538l-15-.22a1 1 0 1 1 0-2l15 .23a1 1 0 1 1 0 2v-.01ZM625.953 323.138l-15-.1a1 1 0 1 1 0-2l15 .11a.997.997 0 0 1 1 1 1.003 1.003 0 0 1-1 .99ZM595.964 323.008l-15 .06a.997.997 0 0 1-1-1 .997.997 0 0 1 1-1l15-.07a1 1 0 1 1 0 2v.01ZM565.974 323.218l-15 .28a.997.997 0 0 1-.707-1.707.996.996 0 0 1 .707-.293l15-.27a1 1 0 1 1 0 2v-.01ZM535.994 323.888l-15 .54a1.009 1.009 0 0 1-.851-.164 1.012 1.012 0 0 1-.403-.767 1.01 1.01 0 0 1 .347-.794 1.001 1.001 0 0 1 .837-.225l15-.55a1 1 0 0 1 .07 2v-.04ZM506.043 325.128l-15 .87a.995.995 0 0 1-.863-.136 1.011 1.011 0 0 1-.426-.764 1 1 0 0 1 1.179-1.04l15-.88a1.002 1.002 0 0 1 1 .92 1 1 0 0 1-.91 1l.02.03ZM476.124 327.068l-15 1.24a1 1 0 1 1-.16-1.92l15-1.26a1 1 0 1 1 .16 1.94ZM446.223 329.538l-15 1.12a1.002 1.002 0 0 1-.638-1.524.998.998 0 0 1 .498-.396l15-1.12a1.001 1.001 0 0 1 .15 1.92h-.01ZM416.293 331.698l-15 1.08a1.004 1.004 0 0 1-.902-.079.995.995 0 0 1-.468-.775.993.993 0 0 1 .765-1.046.988.988 0 0 1 .465 0l15-1.08a.994.994 0 0 1 .903.079 1.008 1.008 0 0 1 .468.775.993.993 0 0 1-.35.836 1.005 1.005 0 0 1-.881.21ZM386.384 333.898l-14.95 1.2a.948.948 0 0 1-.756-1.542.951.951 0 0 1 .606-.348l15-1.22a.944.944 0 0 1 .729.198.944.944 0 0 1 .306 1.05.939.939 0 0 1-.508.559.962.962 0 0 1-.377.083l-.05.02ZM356.534 336.458l-14.9 1.57a.932.932 0 0 1-.746-.16.938.938 0 0 1 .165-1.616.944.944 0 0 1 .381-.084l14.93-1.58a.937.937 0 0 1 .925.485.936.936 0 0 1-.375 1.276.94.94 0 0 1-.35.109h-.03ZM326.744 339.888l-14.81 2.22a1.003 1.003 0 0 1-1.06-.78.94.94 0 0 1 .79-1.06l14.87-2.23a.926.926 0 0 1 .948.437.927.927 0 0 1-.33 1.285.933.933 0 0 1-.348.118l-.06.01ZM297.214 344.798l-14.61 3.25a.91.91 0 0 1-.696-.121.934.934 0 0 1-.26-.249.936.936 0 0 1-.023-1.025.908.908 0 0 1 .579-.405l14.68-3.28a.929.929 0 0 1 .985 1.403.925.925 0 0 1-.585.407l-.07.02ZM268.174 351.978l-14.19 4.7h-.05a.92.92 0 0 1-.893-1.564.907.907 0 0 1 .313-.176l14.29-4.75a.918.918 0 0 1 1.16.58.926.926 0 0 1-.267.991.914.914 0 0 1-.313.179l-.05.04ZM239.724 361.438l-14.25 4.62a.907.907 0 0 1-.969-.271.902.902 0 0 1-.171-.309.901.901 0 0 1 .58-1.15l14.28-4.64a.93.93 0 0 1 1.16.59.923.923 0 0 1-.59 1.15l-.04.01ZM211.394 371.118c-4.65 1.8-9.24 3.72-13.76 5.81a.888.888 0 0 1-.692.03.888.888 0 0 1-.508-.47.903.903 0 0 1-.03-.692.908.908 0 0 1 .47-.508c4.56-2.11 9.19-4.05 13.87-5.86a.895.895 0 0 1 .982.22.905.905 0 0 1 .188.3.9.9 0 0 1-.52 1.17ZM184.353 383.718a131.694 131.694 0 0 0-12.53 8.06.888.888 0 0 1-.697.159.897.897 0 0 1-.593-.399.885.885 0 0 1-.049-.994.897.897 0 0 1 .239-.256 133.76 133.76 0 0 1 12.69-8.17.92.92 0 0 1 .333-.113.911.911 0 0 1 .897.443.902.902 0 0 1-.33 1.23l.04.04ZM160.474 401.358a79.846 79.846 0 0 0-9.56 11.31.886.886 0 0 1-.573.373.873.873 0 0 1-.667-.143.896.896 0 0 1-.23-1.24 80.744 80.744 0 0 1 9.77-11.57.898.898 0 0 1 1.27 0 .913.913 0 0 1 0 1.27h-.01ZM143.884 425.668a66.22 66.22 0 0 0-4 14.23.879.879 0 0 1-1 .73.88.88 0 0 1-.73-1 67.55 67.55 0 0 1 4-14.62.906.906 0 0 1 .48-.482.904.904 0 0 1 .68-.008.899.899 0 0 1 .49 1.16l.08-.01ZM139.083 454.678a86.2 86.2 0 0 0 .62 7.4c.3 2.46.71 4.89 1.2 7.34a.858.858 0 0 1-.69 1 .872.872 0 0 1-1-.69c-.49-2.45-.92-4.95-1.23-7.45-.31-2.5-.53-5-.63-7.55a.893.893 0 0 1 .23-.634.87.87 0 0 1 .61-.286.88.88 0 0 1 .92.85l-.03.02ZM142.824 484.538a6.3 6.3 0 0 1-.47 2.14 2.788 2.788 0 0 1-.87 1.07c-.39.267-.848.416-1.32.43a6.334 6.334 0 0 1-2.15-.34c-.63-.2-1.23-.42-1.82-.63a24.004 24.004 0 0 0-7-1.76.857.857 0 0 1-.601-.29.86.86 0 0 1-.219-.63.876.876 0 0 1 .93-.82c2.575.242 5.1.869 7.49 1.86.59.21 1.17.43 1.73.6a4.95 4.95 0 0 0 1.53.27c.41 0 .51-.13.72-.5.186-.486.291-1 .31-1.52a.89.89 0 0 1 .94-.81.858.858 0 0 1 .595.304.854.854 0 0 1 .205.636v-.01ZM116.533 490.898a39.715 39.715 0 0 0-4.7 5.62c-.71 1-1.38 2-2 3.09a30.192 30.192 0 0 0-1.71 3.18v.1a.867.867 0 0 1-1.16.39.871.871 0 0 1-.39-1.15 31.59 31.59 0 0 1 1.84-3.42 59.82 59.82 0 0 1 2.08-3.18 41.509 41.509 0 0 1 4.91-5.87.873.873 0 0 1 .61-.254.873.873 0 0 1 .61.254.857.857 0 0 1 0 1.22l-.09.02ZM107.994 516.918a61.98 61.98 0 0 0 6.12 13.43.86.86 0 0 1-.96 1.26.842.842 0 0 1-.52-.4 63.986 63.986 0 0 1-6.29-13.8.855.855 0 0 1 .06-.654.862.862 0 0 1 .51-.416c.108-.034.222-.045.335-.034a.843.843 0 0 1 .735.614h.01ZM122.334 542.788l9 11.92a.85.85 0 0 1-.17 1.19.851.851 0 0 1-1.19-.16l-9.06-12a.86.86 0 0 1 .16-1.2.858.858 0 0 1 1.2.17l.06.08ZM140.634 566.538l9.12 11.94a.832.832 0 0 1-.445 1.325.844.844 0 0 1-.885-.305l-9.1-11.9a.836.836 0 0 1 .15-1.19.859.859 0 0 1 1.19.16l-.03-.03ZM158.234 590.898a77.52 77.52 0 0 1 6.8 13.53.815.815 0 0 1-.215.886.802.802 0 0 1-.275.164.82.82 0 0 1-1-.49 75.991 75.991 0 0 0-6.68-13.22.839.839 0 0 1 .27-1.15.838.838 0 0 1 1.15.27l-.05.01ZM167.163 619.438a90.95 90.95 0 0 0 1.24 14.81.799.799 0 0 1-1.58.25 93.708 93.708 0 0 1-1.29-15.06c0-.215.086-.421.237-.573a.814.814 0 0 1 1.146 0 .81.81 0 0 1 .237.573h.01ZM171.683 648.778c1.36 4.79 3 9.51 4.7 14.18a.781.781 0 0 1-1.056.98.768.768 0 0 1-.404-.44c-1.76-4.69-3.37-9.45-4.76-14.29a.782.782 0 0 1 .062-.617.783.783 0 0 1 .488-.383.778.778 0 0 1 1 .54l-.03.03ZM181.994 676.828l3 6.85c.51 1.14 1 2.3 1.55 3.41l1.61 3.35a.761.761 0 0 1-.36 1 .758.758 0 0 1-1-.36l-1.64-3.4c-.57-1.13-1.05-2.28-1.56-3.42l-3-6.87a.769.769 0 0 1 .4-1 .764.764 0 0 1 .581-.012.764.764 0 0 1 .419.402v.05ZM195.974 703.098a96.36 96.36 0 0 0 9.74 11.23.748.748 0 0 1 0 1.05.74.74 0 0 1-1 0 97.692 97.692 0 0 1-9.9-11.4.743.743 0 0 1 .15-1 .75.75 0 0 1 1 .15l.01-.03ZM216.904 724.198l6 4.47 3 2.24c1 .74 2 1.5 3 2.22a.712.712 0 0 1 .18 1 .699.699 0 0 1-.462.301.718.718 0 0 1-.538-.121c-1-.71-2-1.49-3-2.23l-3-2.24-6-4.49a.72.72 0 0 1-.15-1 .72.72 0 0 1 1-.15h-.03ZM240.813 742.328l11.47 9.7a.695.695 0 0 1 .218.759.682.682 0 0 1-.138.241.7.7 0 0 1-1 .08l-11.45-9.66a.714.714 0 0 1-.09-1 .72.72 0 0 1 1-.08l-.01-.04ZM263.694 761.738l11.76 9.23a.681.681 0 0 1 .11.95.667.667 0 0 1-.94.11l-11.85-9.26a.698.698 0 0 1-.253-.753.68.68 0 0 1 .133-.247.698.698 0 0 1 .753-.253.68.68 0 0 1 .247.133l.04.09ZM287.914 779.188c2.14 1.26 4.33 2.46 6.54 3.58s4.49 2.16 6.75 3.25a.672.672 0 0 1 .31.87.66.66 0 0 1-.88.31c-2.25-1.08-4.52-2.12-6.77-3.25a117.59 117.59 0 0 1-6.62-3.61.67.67 0 0 1-.311-.405.665.665 0 0 1 .981-.745ZM314.694 792.538l13.49 6.56a.642.642 0 0 1 .3.85.637.637 0 0 1-.611.356.623.623 0 0 1-.239-.066l-13.5-6.5a.637.637 0 0 1-.363-.617.63.63 0 0 1 .214-.443.64.64 0 0 1 .709-.1v-.04ZM341.744 805.538l13.72 6a.625.625 0 0 1 .383.333.611.611 0 0 1 .006.507.614.614 0 0 1-.633.37.61.61 0 0 1-.246-.08l-13.77-6a.629.629 0 0 1 .5-1.15l.04.02ZM369.413 816.968c4.69 1.69 9.43 3.25 14.22 4.63a.598.598 0 0 1 .124 1.095.58.58 0 0 1-.454.045c-4.82-1.38-9.58-2.94-14.3-4.64a.602.602 0 0 1-.238-.97.576.576 0 0 1 .189-.139.588.588 0 0 1 .459-.021ZM398.144 825.328l14.59 3.45a.573.573 0 0 1 .358.256.57.57 0 0 1 .072.434.584.584 0 0 1-.466.437.563.563 0 0 1-.224-.007l-14.61-3.44a.59.59 0 0 1 .27-1.14l.01.01ZM427.364 832.068l14.67 3.07a.558.558 0 0 1 .42.66.55.55 0 0 1-.236.347.539.539 0 0 1-.414.073l-14.69-3.06a.557.557 0 0 1-.437-.446.557.557 0 0 1 .244-.574.558.558 0 0 1 .423-.08l.02.01ZM456.754 837.968l14.78 2.57a.55.55 0 0 1 .44.62.536.536 0 0 1-.62.43l-14.82-2.55a.54.54 0 0 1-.435-.418.54.54 0 0 1 .625-.652h.03ZM486.344 842.708l14.88 1.83a.507.507 0 0 1 .44.57.493.493 0 0 1-.191.341.5.5 0 0 1-.379.099l-14.9-1.8a.506.506 0 0 1-.351-.194.524.524 0 0 1-.109-.386.533.533 0 0 1 .58-.45l.03-.01ZM516.144 845.918l15 1a.504.504 0 0 1 .465.535.5.5 0 0 1-.535.465l-15-1a.501.501 0 0 1-.46-.53.506.506 0 0 1 .165-.348.482.482 0 0 1 .365-.122ZM546.074 847.538l15 .33a.452.452 0 0 1 .43.46.443.443 0 0 1-.45.43l-15-.3a.46.46 0 1 1 0-.92h.02ZM576.053 847.968l15-.17a.396.396 0 0 1 .289.114.383.383 0 0 1 .121.286.388.388 0 0 1-.243.382.4.4 0 0 1-.157.028l-15 .21a.442.442 0 0 1-.307-.119.426.426 0 0 1-.133-.301c0-.112.044-.22.122-.301a.435.435 0 0 1 .298-.129h.01ZM606.033 847.428l15-.5a.37.37 0 0 1 0 .74l-15 .54a.39.39 0 0 1-.41-.37.398.398 0 0 1 .107-.282.397.397 0 0 1 .273-.128h.03ZM636.014 846.318l15-.66a.323.323 0 0 1 .35.32.318.318 0 0 1-.018.13.315.315 0 0 1-.174.19.312.312 0 0 1-.128.03l-15 .7a.358.358 0 0 1-.37-.34.359.359 0 0 1 .092-.257.35.35 0 0 1 .248-.113ZM666.003 845.268l15 .06a.308.308 0 0 1 .3.3.3.3 0 0 1-.3.3h-15a.321.321 0 0 1-.346-.45.316.316 0 0 1 .208-.174.321.321 0 0 1 .138-.006v-.03ZM696.014 845.808l15 .85a.26.26 0 1 1 0 .52l-15-.81a.28.28 0 0 1-.198-.478.284.284 0 0 1 .198-.082ZM725.954 847.808l15 1.06a.234.234 0 0 1 .193.046.23.23 0 0 1 .062.08.228.228 0 0 1-.153.323.234.234 0 0 1-.102.001l-15-1a.25.25 0 0 1 0-.49v-.02ZM755.873 850.028l14.91 1.69a.173.173 0 0 1 .071.018.197.197 0 0 1 .058.045.222.222 0 0 1 .035.064.181.181 0 0 1 .006.073.203.203 0 0 1-.069.129.19.19 0 0 1-.141.041l-14.9-1.65a.206.206 0 0 1-.136-.079.21.21 0 0 1-.044-.151.21.21 0 0 1 .23-.18h-.02ZM785.534 854.338a139.764 139.764 0 0 1 14.48 4 .152.152 0 0 1 .1.074.148.148 0 0 1-.023.177.133.133 0 0 1-.053.035.147.147 0 0 1-.124-.006 141.646 141.646 0 0 0-14.38-3.94.185.185 0 0 1-.107-.079.182.182 0 0 1-.023-.131.176.176 0 0 1 .073-.106c.038-.024.083-.033.127-.024h-.07ZM814.073 863.648l13.66 6.2a.117.117 0 0 1 .038.024.12.12 0 0 1 .025.038.132.132 0 0 1 .008.044.136.136 0 0 1-.035.082.11.11 0 0 1-.082.033.11.11 0 0 1-.044-.011l-13.66-6.17a.136.136 0 0 1-.071-.076.139.139 0 0 1 .001-.104.139.139 0 0 1 .18-.06h-.02ZM840.994 876.878c4.34 2.49 8.61 5.11 12.77 7.88a.067.067 0 0 1 .019.025c.005.009.007.02.007.03a.067.067 0 0 1-.007.031.063.063 0 0 1-.019.024.082.082 0 0 1-.025.02.078.078 0 0 1-.03.007.082.082 0 0 1-.031-.007.068.068 0 0 1-.024-.02c-4.16-2.76-8.42-5.373-12.78-7.84a.1.1 0 0 1-.035-.059.1.1 0 0 1 .013-.068.104.104 0 0 1 .053-.044.102.102 0 0 1 .069.001l.02.02ZM865.893 893.588a68.972 68.972 0 0 1 10.57 10.62v.06c0 .01 0 0-.06 0a68.292 68.292 0 0 0-10.59-10.57.075.075 0 0 1-.015-.02.07.07 0 0 1-.005-.025c0-.008.002-.017.005-.025a.095.095 0 0 1 .015-.02.06.06 0 0 1 .04-.015c.015 0 .029.005.04.015v-.02ZM884.223 917.018c2.05 4.554 3.82 9.23 5.3 14a122.76 122.76 0 0 0-5.33-14h.03Z"/><path fill="#F1EFED" d="M84.5 434.663h311.357v294.983H84.5z"/><path fill="#000" d="M59.586 802.163a5 5 0 0 0 5 5h26.048a5 5 0 0 0 5-5V595.715l-36.048 36.207v170.241Z"/><path stroke="#000" stroke-linejoin="round" stroke-width="2" d="M95.634 595.715V455.163a5 5 0 0 0-5-5H64.586a5 5 0 0 0-5 5v176.759m36.048-36.207v206.448a5 5 0 0 1-5 5H64.586a5 5 0 0 1-5-5V631.922m36.048-36.207-36.048 36.207"/><path fill="#000" d="M312.83 542.999H225.119l87.711 14.172 87.712 14.172v-28.344h-29.899a1.15 1.15 0 0 1-.553 0h-57.26Z"/><path fill="#5869DD" d="M400.542 542.999v-89.836h-16.657v89.836h16.657ZM225.119 542.999l11.712-13.821s.781-7.317-6.66-9.479c2.679-2.171 2.679-5.383 1.299-8.052a7.432 7.432 0 0 0-.105-.197c-1.411-2.576-4.104-4.598-6.874-4.598-1.211-1.654-1.37-4.046-1.525-6.368-.172-2.594-.339-5.1-1.958-6.39-1.131-.9-3.932-.527-6.518-.182-1.932.258-3.744.499-4.65.182l-.45-.158c-2.811-.991-6.942-2.447-9.741-1.403-1.359.507-2.062 2.087-2.793 3.733-.687 1.547-1.4 3.152-2.71 3.977-1.243.782-2.686.458-4.094.141-2.458-.553-4.808-1.082-5.801 4.342-.439 1.461-.273 3.746-.12 5.86.097 1.337.189 2.606.12 3.556a17.14 17.14 0 0 0-1.859 5.557c-1.786 11.561 7.85 23.3 7.85 23.3h34.877Z"/><path fill="#000" d="M89.907 542.999h36.309l2.602-6.911H111.12l17.698-20.731h-11.452l3.993-4.66c-3.391-2.809-8.485-3.804-15.965-1.756-7.89 2.161-12.72 5.906-15.487 10.2v23.858Z"/><path fill="url(#a)" d="M117.366 542.999H89.907v265.664h310.635v-237.32l-87.712-14.172-87.711-14.172H117.366Z"/><path fill="#000" d="M181.914 536.088h-11.452v6.911h19.78s-9.636-11.739-7.85-23.3l-7.473-.279-7.473-.279 7.234 8.474 7.234 8.473Z"/><path fill="#000" d="M170.462 536.088h11.452l-7.234-8.473-28.164 3.134-10.931 12.25h34.877v-6.911Z"/><path fill="#000" fill-rule="evenodd" d="m283.363 523.601-31.957 19.398h39.301s.143-.036.319-.18c.776-.631 2.209-3.34-5.004-14.173-1.294-1.943-2.148-3.602-2.659-5.045ZM370.09 542.999h-13.795l19.636-28.857c-.615 15.241-2.313 28.113-5.288 28.857h-.553Z" clip-rule="evenodd"/><path fill="url(#b)" d="M135.585 453.163h-31.948l1.757 55.778c7.48-2.048 12.574-1.053 15.965 1.756l14.226-16.603h-18.219l18.219-22.858h-13.013l13.013-18.073Z"/><path fill="url(#c)" d="M237.612 515.357h10.931l-11.712 13.821-11.712 13.821h26.287l31.957-19.398c-2.977-8.424 5.782-9.483 7.344-16.749 0 0-2.117-8.931 1.804-12.758 3.922-3.827 14.958-.739 14.958-.739l-22.227-17.866h13.534l-19.13-16.744-19.13 16.744h13.534l-12.753 9.303-.781.569-11.973 8.733h16.658l-6.898 5.316-6.897 5.316-13.794 10.631Z"/><path fill="url(#d)" d="m170.462 471.236-13.014-18.073h-21.863l-13.013 18.073h13.013l-18.219 22.858h18.219l-14.226 16.603-3.993 4.66h11.452l-17.698 20.731h17.698l-2.602 6.911h9.369l10.931-12.25 28.164-3.134-7.234-8.474-3.231-3.784h11.452l-18.219-21.263h18.219l-18.219-22.858h13.014Z"/><path fill="#5869DD" d="M335.952 542.999h20.343l19.636-28.857c3.575-15.28-3.93-32.101-13.971-40.748-2.951-2.541-6.12-4.376-9.292-5.259-2.529-.704-5.695-.803-8.865-.172-4.525.901-9.058 3.289-11.754 7.526-1.837 2.887-1.943 6.632-2.078 11.35-.079 2.793-.169 5.927-.632 9.427.687 1.547 1.4 3.152 2.71 3.977 1.243.782 2.686.458 4.094.141 2.458-.553 4.808-1.082 5.8 4.342.44 1.461.274 3.746.121 5.86-.097 1.337-.189 2.606-.121 3.556a17.118 17.118 0 0 1 1.86 5.557c.756 4.897-.537 9.827-2.279 13.882-2.37 5.518-5.572 9.418-5.572 9.418Z"/><path fill="url(#e)" d="M301.076 542.999h34.876s3.202-3.9 5.572-9.418c1.742-4.055 3.035-8.985 2.279-13.882a17.118 17.118 0 0 0-1.86-5.557c-.068-.95.024-2.219.121-3.556.153-2.114.319-4.399-.121-5.86-.992-5.424-3.342-4.895-5.8-4.342-1.408.317-2.851.641-4.094-.141-1.31-.825-2.023-2.43-2.71-3.977-.732-1.646-1.434-3.226-2.793-3.733-1.892-.706-6.49-5.694-13.716-.044-2.422.236-4.45.545-5.361.866 0 0-11.036-3.088-14.958.739-3.921 3.827-1.804 12.758-1.804 12.758-1.562 7.266-10.321 8.325-7.344 16.749.511 1.443 1.365 3.102 2.659 5.045 7.213 10.833 5.78 13.542 5.004 14.173-.176.144-.319.18-.319.18h10.369Z"/><path fill="#000" d="M383.885 453.163h-22.506l.581 20.231c10.041 8.647 17.546 25.468 13.971 40.748-.615 15.241-2.313 28.113-5.288 28.857h13.242v-89.836Z"/><path fill="url(#f)" d="m209.84 494.094-5.726-56.431-9.968 8.23-19.466 33.25 22.176-15.25-26.394 40.833h13.789c.993-5.424 3.343-4.895 5.801-4.342 1.408.317 2.851.641 4.094-.141 1.31-.825 2.023-2.43 2.71-3.977.731-1.646 1.434-3.226 2.793-3.733 2.799-1.044 6.93.412 9.741 1.403l.45.158Z"/><path fill="#000" fill-rule="evenodd" d="m204.114 437.663-9.968 15.5v-7.27l9.968-8.23Zm-19.983 72.923-9.212 8.834 7.473.279a17.14 17.14 0 0 1 1.859-5.557c.069-.95-.023-2.219-.12-3.556Z" clip-rule="evenodd"/><path fill="#5869DD" d="m157.448 453.163 13.014 18.073h-13.014l18.219 22.858h-18.219l18.219 21.263h-11.452l3.231 3.784 7.473.279 9.212-8.834c-.153-2.114-.319-4.399.12-5.86h-13.789l26.394-40.833-22.176 15.25 19.466-33.25v7.27h-36.698Z"/><path fill="#000" fill-rule="evenodd" d="m230.171 445.893 7.441 7.27h-6.247l-1.194-7.27Z" clip-rule="evenodd"/><path fill="#5869DD" fill-rule="evenodd" d="M248.543 515.357h-10.931l13.794-10.631 6.897-5.316 6.898-5.316h-16.658l11.973-8.733-17.308-15.454h13.534l-19.13-16.744h-7.079l.832 16.744v41.543c.036.065.071.131.105.197 1.38 2.669 1.38 5.881-1.299 8.052 7.441 2.162 6.66 9.479 6.66 9.479l11.712-13.821Z" clip-rule="evenodd"/><path fill="#5869DD" d="M326.546 492.533c1.359.507 2.061 2.087 2.793 3.733.463-3.5.553-6.634.632-9.427.135-4.718.241-8.463 2.078-11.35l-12.842-22.326-11.738 40.192c.911-.321 2.939-.63 5.361-.866 7.226-5.65 11.824-.662 13.716.044Z"/><path fill="#000" d="M330.269 453.163h-11.062l12.842 22.326c2.696-4.237 7.229-6.625 11.754-7.526l-.351-14.8h-13.183Z"/><path fill="#000" fill-rule="evenodd" d="M221.008 494.094c1.619 1.29 1.786 3.796 1.958 6.39.155 2.322.314 4.714 1.525 6.368l6.874-33.75v-3.195l-.832-16.744h.832l-1.194-7.27.362 7.27h-5.414l-10.503-7.75-.126 48.499c2.586-.345 5.387-.718 6.518.182Z" clip-rule="evenodd"/><path fill="#000" d="M89.908 453.163v-1a1 1 0 0 0-1 1h1Zm310.634 0h1a1 1 0 0 0-1-1v1Zm-151.999 62.194.763.647a1.002 1.002 0 0 0-.763-1.647v1Zm-10.931 0-.611-.792a1 1 0 0 0 .611 1.792v-1Zm27.589-21.263.61.792a1 1 0 0 0-.61-1.792v1Zm-16.658 0-.589-.808a1 1 0 0 0 .589 1.808v-1Zm25.507-18.605.589.808a1 1 0 0 0-.589-1.808v1Zm-13.534 0-.659-.752a1 1 0 0 0 .659 1.752v-1Zm30.191 31.363.978.21a.995.995 0 0 0-.005-.441l-.973.231Zm-4.685 21.794-.832.555.832-.555Zm43.317-32.38-.914.406.914-.406Zm-158.877-25.03v1a1 1 0 0 0 .811-1.584l-.811.584Zm-13.014 0v-1a1 1 0 0 0-.782 1.624l.782-.624Zm18.219 22.858v1a1 1 0 0 0 .782-1.623l-.782.623Zm-18.219 0v-1a1 1 0 0 0-.759 1.651l.759-.651Zm18.219 21.263v1a1 1 0 0 0 .76-1.651l-.76.651Zm-11.452 0v-1a1.001 1.001 0 0 0-.76 1.649l.76-.649Zm17.699 20.731v1a1 1 0 0 0 .76-1.649l-.76.649Zm-11.452 0v-1a1 1 0 0 0-1 1h1Zm66.369-6.91.763.647-.763-.647Zm-37.182-36.645-.35-.937.35.937Zm21.359 1.561.623-.782-.623.782Zm4.111-40.931-.594.805a1 1 0 0 0 .594.195v-1Zm-40.868 51.563.958.287a.981.981 0 0 0 .026-.107l-.984-.18Zm-61.679-33.49-.812-.584a1 1 0 0 0 .812 1.584v-1Zm13.013 0 .782.624a1 1 0 0 0-.782-1.624v1Zm-18.219 22.858-.782-.623a1.002 1.002 0 0 0 .782 1.623v-1Zm18.219 0 .76.651a1.001 1.001 0 0 0-.76-1.651v1Zm-18.219 21.263-.759-.651a1.001 1.001 0 0 0 .759 1.651v-1Zm11.452 0 .761.649a.999.999 0 0 0-.761-1.649v1Zm-17.698 20.731-.761-.649a1 1 0 0 0 .761 1.649v-1Zm113.371-29.236-.807.591a1 1 0 0 0 .807.409v-1Zm26.915-2.126-.61-.792.61.792Zm-21.235 14.973-.629-.777a.999.999 0 0 0 .35 1.738l.279-.961Zm-20.331-25.605-.331.944.331-.944Zm-5.726-56.431.593-.805a1 1 0 0 0-1.23.034l.637.771Zm-9.968 62.58.533.846-.533-.846Zm-9.895 13.899.88.475a.98.98 0 0 0 .118-.402l-.998-.073Zm-55.433 21.946.936.353a1.002 1.002 0 0 0-.936-1.353v1Zm129.485-36.678-.61-.792.61.792Zm49.166-6.055-.269.963c.198.055.408.048.602-.02l-.333-.943Zm-22.227-17.866v-1a1 1 0 0 0-.627 1.78l.627-.78Zm13.534 0v1a1 1 0 0 0 .658-1.752l-.658.752Zm-19.13-16.744.658-.753a1 1 0 0 0-1.317 0l.659.753ZM89.908 808.663h-1a1 1 0 0 0 1 1v-1Zm310.634 0v1a1 1 0 0 0 1-1h-1ZM312.83 557.171l-.159.987.159-.987Zm-145.384-38.03-.761.65.761-.65Zm-20.93 11.608-.11-.994a1 1 0 0 0-.636.328l.746.666Zm62.874-36.813.333-.943-.333.943Zm-12.534 2.33.914.406-.914-.406Zm-6.804 4.118.219-.976-.219.976Zm-5.921 10.202.998-.072-.998.072Zm142.415-18.053.35-.937-.35.937Zm15.397 12.193-.983.18a.794.794 0 0 0 .026.107l.957-.287Zm-9.894-4.483-.533.846.533-.846Zm9.894 13.899-.997.073a.98.98 0 0 0 .118.402l.879-.475Zm1.86 5.557.988-.152-.988.152Zm-7.66-19.315-.219-.976.219.976Zm5.921 10.202-.998-.072.998.072Zm-.54 22.995-.918-.395.918.395Zm11.144-65.446-.268.964.268-.964Zm-39.838 24.354.097.996c.189-.019.37-.091.519-.208l-.616-.788Zm17.141-5.65 1 .029-1-.029Zm-135.825-33.676v1a1 1 0 0 0 .841-.459l-.841-.541Zm-19.466 25.98-.863-.505a1 1 0 0 0 1.429 1.329l-.566-.824Zm22.176-15.25.84.543a1 1 0 0 0-1.406-1.367l.566.824Zm-26.394 40.833-.84-.543a1 1 0 0 0 .84 1.543v-1Zm23.684-58.833-.637-.771c-.09.075-.167.165-.226.266l.863.505Zm24.336 24.014-.899-.437a1 1 0 0 0 .899 1.437v-1Zm24.726 0v-1a1 1 0 0 0-.666 1.746l.666-.746Zm13.534 0v1a1 1 0 0 0 .658-1.752l-.658.752Zm4.555 14.885.589.808-.589-.808Zm-29.932-14.885h1l-.001-.049-.999.049Zm-1.194-24.014.699-.715a.998.998 0 0 0-1.598.278l.899.437Zm-7.205 54.591.998-.067-.998.067Zm-8.35-55.071.594-.805-.594.805Zm184.926 7.75v89.836h2v-89.836h-2Zm-150.999 61.194h-10.931v2h10.931v-2Zm16.658-21.263h-16.658v2h16.658v-2Zm8.849-18.605h-13.534v2h13.534v-2Zm38.78 67.51h-22.123v2h22.123v-2Zm26.808 0h-9.11v2h9.11v-2Zm-183.001-88.252 13.013 18.074 1.623-1.169-13.013-18.073-1.623 1.168Zm13.825 16.489h-13.014v2h13.014v-2Zm-13.796 1.624 18.219 22.857 1.564-1.246-18.219-22.858-1.564 1.247Zm19.001 21.234h-18.219v2h18.219v-2Zm-18.978 1.651 18.219 21.263 1.519-1.302-18.219-21.263-1.519 1.302Zm18.978 19.612h-11.452v2h11.452v-2Zm6.247 20.731h-11.452v2h11.452v-2Zm-12.452 1v6.911h2v-6.911h-2Zm-52.096-81.925h40.082v-2h-40.082v2Zm0 87.836H89.907v2h27.459v-2Zm168.656-87.836h26.808v-2h-26.808v2Zm-60.14 89.482 11.712-13.82-1.526-1.293-11.712 13.82 1.526 1.293Zm11.712-13.82 11.712-13.821-1.526-1.293-11.712 13.821 1.526 1.293Zm-12.475 12.174h-34.877v2h34.877v-2Zm-34.877 0h-19.78v2h19.78v-2Zm-32.794-87.836h33.836v-2h-33.836v2Zm-31.232 87.836h-8.85v2h8.85v-2Zm8.558-89.42-13.014 18.073 1.623 1.169 13.014-18.074-1.623-1.168Zm-12.202 19.657h13.013v-2h-13.013v2Zm12.231-1.623-18.219 22.858 1.564 1.246 18.219-22.857-1.564-1.247Zm-17.437 24.481h18.219v-2h-18.219v2Zm10.692 19.614-17.699 20.731 1.521 1.299 17.699-20.732-1.521-1.298Zm6.768-21.265L120.6 510.046l1.519 1.302 14.226-16.603-1.519-1.302ZM120.6 510.046l-3.993 4.66 1.519 1.302 3.993-4.66-1.519-1.302Zm1.397-.119c-3.73-3.09-9.202-4.05-16.868-1.95l.529 1.929c7.294-1.998 12.011-.967 15.063 1.561l1.276-1.54Zm-4.631 6.43h7.541v-2h-7.541v2Zm7.541 0h3.911v-2h-3.911v2Zm112.705-62.194h48.41v-2h-48.41v2Zm.61 61.986 13.795-10.631-1.221-1.584-13.795 10.631 1.221 1.584Zm162.32 25.85h-16.657v2h16.657v-2Zm-30.452-87.836h13.795v-2H370.09v2Zm13.795 0h16.657v-2h-16.657v2Zm1 88.836v-89.836h-2v89.836h2ZM89.908 454.163h13.729v-2h-13.73v2Zm13.729 0h13.729v-2h-13.729v2Zm-.999-.968 1.756 55.778 1.999-.063-1.756-55.778-1.999.063Zm134.193 75.983c.994.106.994.106.995.105v-.004l.001-.008.002-.024.006-.08c.005-.066.011-.158.015-.274a11.24 11.24 0 0 0-.615-3.974c-.823-2.353-2.705-4.995-6.785-6.18l-.558 1.921c3.361.976 4.809 3.073 5.456 4.92a9.317 9.317 0 0 1 .503 3.246 5.27 5.27 0 0 1-.01.197l-.004.044-.001.008.001-.001v-.001l.994.105Zm-5.466-75.015h6.247v-2h-6.247v2Zm-20.53 39.83-5.726-56.431-1.99.202 5.726 56.431 1.99-.202Zm-99.715 43.095h17.698v-2H111.12v2Zm16.763-1.352-2.603 6.91 1.871.705 2.603-6.91-1.871-.705Zm197.701-81.573h4.685v-2h-4.685v2Zm4.685 0h9.369v-2h-9.369v2Zm.259 87.836h-6.636v2h6.636v-2Zm-6.636 0H312.83v2h11.062v-2Zm-71.875-36.481 6.897-5.316-1.221-1.584-6.897 5.316 1.221 1.584Zm6.897-5.316 6.897-5.316-1.221-1.584-6.897 5.316 1.221 1.584Zm34.296-5.392c.769-.751 1.959-1.225 3.448-1.458 1.474-.231 3.132-.209 4.713-.067a36.584 36.584 0 0 1 5.828 1.033h.001l.269-.963.269-.963-.001-.001h-.002l-.008-.002a.345.345 0 0 0-.027-.008l-.1-.027-.371-.095a38.78 38.78 0 0 0-5.678-.966c-1.669-.15-3.506-.183-5.203.083-1.684.264-3.344.84-4.535 2.002l1.397 1.432Zm14.886-2.235-22.228-17.865-1.253 1.559 22.228 17.865 1.253-1.559Zm-22.854-16.086h13.534v-2h-13.534v2Zm14.192-1.752-19.13-16.745-1.317 1.505 19.13 16.745 1.317-1.505Zm-38.26 1.505 19.13-16.745-1.317-1.505-19.13 16.745 1.317 1.505Zm29.533 30.61.973-.23v-.003l-.004-.016-.015-.067c-.013-.06-.033-.152-.056-.271a24.87 24.87 0 0 1-.466-4.371c-.039-2.673.428-5.481 2.071-7.084l-1.397-1.432c-2.279 2.224-2.714 5.795-2.674 8.545a26.862 26.862 0 0 0 .587 5.126l.006.023.001.007.001.002v.001l.973-.23Zm108.835 36.147v28.344h2v-28.344h-2Zm-15.657-1h-13.242v2h13.242v-2Zm-13.485.03a.148.148 0 0 1-.075-.002l-.469 1.944c.341.082.689.083 1.029-.002l-.485-1.94Zm.243-.03h-.553v2h.553v-2Zm-138.401-31.03c-1.531-2.794-4.513-5.117-7.751-5.117v2c2.302 0 4.706 1.722 5.997 4.079l1.754-.962Zm-74.794-58.806h-21.863v2h21.863v-2Zm73.04 59.767.094.176 1.777-.918a11.65 11.65 0 0 0-.117-.219l-1.754.961Zm.094.176c1.238 2.396 1.155 5.037-1.04 6.816l1.259 1.554c3.162-2.563 3.079-6.345 1.558-9.288l-1.777.918Zm1.777-.918c-1.498-2.897-4.55-5.336-7.868-5.336v2c2.362 0 4.829 1.813 6.091 4.254l1.777-.918Zm-96.774-59.025h-18.219v2h18.219v-2Zm-46.677 1v65.978h2v-65.978h-2Zm1.84 66.52c2.61-4.051 7.213-7.669 14.91-9.777l-.529-1.929c-8.082 2.214-13.138 6.085-16.062 10.623l1.681 1.083Zm-1.681-1.083c-2.87 4.453-3.62 9.443-3.29 13.908.33 4.453 1.736 8.457 3.274 11.007l1.713-1.033c-1.368-2.267-2.685-5.965-2.992-10.122-.306-4.146.397-8.675 2.976-12.677l-1.681-1.083Zm1.84 24.399v-23.858h-2v23.858h2Zm-2 0v265.664h2V542.999h-2Zm1 266.664h310.635v-2H89.908v2Zm311.635-1v-237.32h-2v237.32h2Zm-.841-238.307-87.711-14.172-.319 1.974 87.711 14.172.319-1.974Zm-87.711-14.172-87.712-14.172-.319 1.974 87.712 14.172.319-1.974Zm-22.283-14.185h-39.301v2h39.301v-2Zm-39.301 0h-26.287v2h26.287v-2Zm38.324-35.357c-.709 3.295-2.995 5.109-5.139 7.479-1.035 1.146-2.02 2.427-2.512 4.038-.501 1.639-.46 3.506.342 5.775l1.885-.667c-.687-1.943-.668-3.367-.315-4.523.362-1.184 1.106-2.2 2.084-3.281 1.881-2.081 4.756-4.429 5.61-8.401l-1.955-.42Zm-7.309 17.292c.545 1.543 1.444 3.277 2.769 5.267l1.665-1.109c-1.264-1.898-2.074-3.482-2.549-4.825l-1.885.667Zm-30.496 19.92 31.957-19.399-1.037-1.709-31.958 19.398 1.038 1.71Zm118.96.115c.692-.173 1.221-.662 1.62-1.207.407-.554.758-1.27 1.068-2.088.621-1.64 1.145-3.87 1.585-6.502.884-5.276 1.464-12.352 1.772-19.99l-1.998-.08c-.307 7.603-.883 14.584-1.746 19.74-.433 2.584-.931 4.664-1.483 6.123-.278.731-.552 1.262-.81 1.614-.266.362-.441.437-.493.45l.485 1.94Zm-.795-1.97h-13.795v2h13.795v-2Zm5.015-28.419-19.637 28.856 1.654 1.126 19.636-28.857-1.653-1.125Zm-211.65 2.426 3.23 3.785 1.521-1.299-3.23-3.784-1.521 1.298Zm19.917-2.339a18.103 18.103 0 0 0-1.968 5.88l1.977.305a16.126 16.126 0 0 1 1.75-5.235l-1.759-.95Zm-1.968 5.88c-.94 6.081 1.127 12.131 3.349 16.584a46.407 46.407 0 0 0 3.186 5.417c.448.656.827 1.172 1.095 1.527.135.178.242.315.316.409l.086.108.024.029.006.009.002.002.001.001.773-.634c.773-.635.774-.634.774-.634l-.001-.001a.027.027 0 0 1-.004-.005l-.017-.021a23.018 23.018 0 0 1-.365-.47 37.585 37.585 0 0 1-1.039-1.448 44.646 44.646 0 0 1-3.048-5.182c-2.149-4.307-4.008-9.907-3.161-15.386l-1.977-.305Zm-14.719.244 7.234 8.473 1.521-1.298-7.234-8.474-1.521 1.299Zm7.234 8.473 7.234 8.474 1.521-1.299-7.234-8.473-1.521 1.298Zm-27.292 3.478 28.163-3.133-.221-1.988-28.163 3.134.221 1.987Zm23.835 10.257h-34.877v2h34.877v-2Zm-34.877 0h-9.369v2h9.369v-2Zm10.185-11.916-10.931 12.25 1.493 1.332 10.93-12.251-1.492-1.331Zm64.4-36.933-.447-.157-.665 1.886.451.159.661-1.888Zm-.447-.157c-1.396-.492-3.195-1.128-5.006-1.501-1.789-.369-3.75-.518-5.418.104l.699 1.874c1.131-.422 2.636-.365 4.315-.019 1.657.341 3.33.929 4.745 1.428l.665-1.886Zm-10.424-1.397c-.958.358-1.621 1.072-2.117 1.827-.491.746-.882 1.633-1.239 2.436l1.827.813c.374-.842.699-1.568 1.082-2.15.378-.573.745-.902 1.146-1.052l-.699-1.874Zm-3.356 4.263c-.35.786-.674 1.512-1.061 2.143-.384.627-.792 1.094-1.269 1.394l1.066 1.693c.833-.524 1.436-1.272 1.908-2.041.469-.764.845-1.615 1.183-2.376l-1.827-.813Zm-2.33 3.537c-.834.525-1.837.351-3.342.012l-.439 1.952c1.312.295 3.194.769 4.847-.271l-1.066-1.693Zm-3.342.012c-.598-.134-1.281-.29-1.95-.339-.681-.05-1.424.003-2.142.339-1.479.691-2.4 2.346-2.911 5.138l1.967.36c.482-2.632 1.232-3.425 1.791-3.686.301-.141.668-.191 1.149-.156.494.036 1.027.154 1.657.296l.439-1.952Zm-6.977 5.03c-.264.876-.331 1.934-.325 2.979.006 1.057.089 2.192.165 3.242l1.995-.145c-.078-1.065-.154-2.13-.16-3.109-.005-.991.064-1.807.24-2.392l-1.915-.575Zm-.16 6.221c.099 1.365.183 2.55.12 3.411l1.995.145c.075-1.039-.025-2.392-.12-3.701l-1.995.145Zm173.161 31.34h-8.328v2h8.328v-2Zm-8.328 0h-8.329v2h8.329v-2Zm-46.891 2h34.876v-2h-34.876v2Zm39.988-29.382a16.126 16.126 0 0 1 1.75 5.235l1.977-.305a18.103 18.103 0 0 0-1.968-5.88l-1.759.95Zm-14.867-21.147c.401.15.768.479 1.145 1.052.383.582.709 1.308 1.083 2.15l1.827-.813c-.357-.803-.748-1.69-1.239-2.436-.496-.755-1.159-1.469-2.117-1.827l-.699 1.874Zm2.228 3.202c.338.761.714 1.612 1.183 2.376.472.769 1.075 1.517 1.908 2.041l1.066-1.693c-.477-.3-.885-.767-1.269-1.394-.387-.631-.711-1.357-1.061-2.143l-1.827.813Zm3.091 4.417c1.653 1.04 3.535.566 4.847.271l-.439-1.952c-1.505.339-2.509.513-3.342-.012l-1.066 1.693Zm4.847.271c.63-.142 1.163-.26 1.657-.296.481-.035.848.015 1.149.156.559.261 1.309 1.054 1.791 3.686l1.967-.36c-.511-2.792-1.433-4.447-2.911-5.138-.718-.336-1.461-.389-2.142-.339-.669.049-1.352.205-1.95.339l.439 1.952Zm4.623 3.653c.176.585.245 1.401.24 2.392-.006.979-.083 2.044-.16 3.109l1.995.145c.076-1.05.159-2.185.165-3.242.006-1.045-.061-2.103-.325-2.979l-1.915.575Zm.08 5.501c-.095 1.309-.195 2.662-.12 3.701l1.995-.145c-.063-.861.021-2.046.12-3.411l-1.995-.145Zm1.748 9.338c.717 4.637-.503 9.365-2.208 13.334l1.837.79c1.779-4.142 3.145-9.272 2.348-14.429l-1.977.305Zm-2.208 13.334a43.213 43.213 0 0 1-3.592 6.623 39.584 39.584 0 0 1-1.326 1.896c-.163.219-.292.387-.38.498l-.099.125a.334.334 0 0 1-.024.029l-.005.007-.001.001s.001-.001.773.634l.774.634.001-.001.002-.003a.073.073 0 0 1 .009-.011l.031-.038.112-.142a26.8 26.8 0 0 0 .41-.537c.348-.465.833-1.141 1.394-1.992 1.119-1.699 2.544-4.106 3.758-6.933l-1.837-.79Zm6.66-79.023h5.402v-2h-5.402v2Zm-39.464 40.135c.777-.274 2.683-.576 5.125-.813l-.193-1.991c-2.402.234-4.553.55-5.597.918l.665 1.886Zm5.644-1.021c3.38-2.642 6.012-2.725 7.977-2.185 1.021.28 1.91.742 2.689 1.203.417.246.717.439 1.083.659.32.192.669.392 1.002.516l.699-1.874c-.141-.052-.349-.163-.671-.356-.276-.167-.702-.435-1.095-.667-.842-.497-1.908-1.061-3.177-1.41-2.612-.718-5.892-.469-9.739 2.539l1.232 1.575Zm-12.37 50.722h11.754v-2h-11.754v2Zm29.452 0h5.424v-2h-5.424v2Zm-40.133-1.955c-.018.014-.026.017-.019.013l.025-.01.025-.008.016-.004a.069.069 0 0 1 .008-.003l.005-.001h.002l.002-.001.248.969.248.969h.001l.001-.001h.003l.005-.002.011-.003.026-.007.061-.02a2.077 2.077 0 0 0 .594-.34l-1.262-1.551Zm.312 1.955h10.369v-2h-10.369v2Zm-.172-2.051-.319.18.982 1.742.319-.18-.982-1.742Zm-5.345-12.747c3.583 5.38 4.945 8.64 5.352 10.564.201.954.157 1.527.075 1.849-.078.305-.195.408-.222.43l1.262 1.551c.779-.634 1.334-1.914.842-4.244-.486-2.296-2.014-5.807-5.644-11.259l-1.665 1.109Zm50.762 14.798h3.686v-2h-3.686v2Zm-5.622-47.602c.471-3.557.561-6.739.641-9.529l-1.999-.057c-.08 2.795-.169 5.882-.625 9.323l1.983.263Zm.641-9.529c.137-4.809.264-8.237 1.922-10.842l-1.688-1.074c-2.015 3.168-2.102 7.231-2.233 11.859l1.999.057Zm45.934 27.502c3.674-15.705-4.02-32.888-14.293-41.734l-1.305 1.516c9.811 8.448 17.126 24.906 13.651 39.762l1.947.456Zm-14.293-41.734c-3.033-2.611-6.33-4.532-9.676-5.464l-.536 1.927c2.997.834 6.039 2.583 8.907 5.053l1.305-1.516Zm-9.944-18.473h8.711v-2h-8.711v2Zm8.711 0h8.711v-2h-8.711v2Zm1.58 19.202-.58-20.231-1.999.058.58 20.231 1.999-.058Zm-171.675-19.202h2.862v-2h-2.862v2Zm3.703-.459 9.968-15.5-1.682-1.082-9.968 15.5 1.682 1.082Zm-19.741 26.263 22.177-15.25-1.133-1.648-22.177 15.25 1.133 1.648Zm20.771-16.617-26.395 40.833 1.68 1.085 26.394-40.832-1.679-1.086Zm-25.555 42.376h13.789v-2h-13.789v2Zm-3.054 14.415 7.474.279.074-1.999-7.473-.279-.075 1.999Zm7.474.279 7.473.279.075-1.999-7.474-.279-.074 1.999Zm.729-.278 9.212-8.834-1.384-1.443-9.212 8.834 1.384 1.443Zm19.535-66.979v-7.27h-2v7.27h2Zm-1.863-7.775-19.466 33.25 1.726 1.011 19.466-33.25-1.726-1.011Zm1.5 1.276 9.967-8.23-1.273-1.542-9.968 8.23 1.274 1.542Zm48.425 24.243h13.534v-2h-13.534v2Zm14.192-1.752-19.13-16.744-1.317 1.504 19.13 16.745 1.317-1.505Zm4.486 16.445 12.753-9.303-1.178-1.616-12.754 9.303 1.179 1.616Zm-12.753 9.302 11.972-8.733-1.179-1.616-11.972 8.733 1.179 1.616Zm11.972-8.733.781-.569-1.179-1.616-.781.569 1.179 1.616Zm-18.563-15.516 17.308 15.454 1.332-1.492-17.308-15.453-1.332 1.491Zm-12.177-.746v3.195h2v-3.195h-2Zm-.893-23.298 7.441 7.269 1.398-1.43-7.441-7.27-1.398 1.431Zm2.88 6.392-1.194-7.27-1.974.324 1.195 7.27 1.973-.324Zm-12.971 17.344 11.689-24.014-1.798-.875-11.689 24.014 1.798.875Zm11.004 2.557-6.874 33.75 1.96.399 6.874-33.75-1.96-.399Zm.98-3.995h-12.883v2h12.883v-2Zm1 42.543v-38.348h-2v38.348h2Zm-1-59.287h-.832v2h.832v-2Zm-1.831 1.05.833 16.744 1.997-.099-.833-16.745-1.997.1Zm1.997-.1-.361-7.269-1.998.099.362 7.27 1.997-.1Zm-6.412 1.05h5.414v-2h-5.414v2Zm127.817 13.009c-2.698-.751-6.025-.847-9.329-.189l.391 1.961c3.037-.604 6.043-.502 8.402.155l.536-1.927Zm-9.329-.189c-4.711.937-9.52 3.44-12.402 7.969l1.688 1.074c2.51-3.946 6.767-6.218 11.105-7.082l-.391-1.961Zm-3.969-12.82h3.814v-2h-3.814v2Zm3.814 0h3.814v-2h-3.814v2Zm1.35 13.777-.35-14.801-1.999.048.35 14.8 1.999-.047Zm-31.972-13.777h6.377v-2h-6.377v2Zm6.377 0h6.377v-2h-6.377v2Zm-.96-1.28-11.738 40.192 1.92.56 11.738-40.192-1.92-.56Zm.093.779 12.842 22.326 1.734-.998-12.842-22.326-1.734.998Zm-94.376 46.755c-.085-1.275-.173-2.64-.462-3.849-.291-1.22-.816-2.415-1.871-3.256l-1.246 1.564c.563.449.932 1.152 1.172 2.156.242 1.014.324 2.2.412 3.518l1.995-.133Zm-2.333-7.105c-.46-.366-1.025-.556-1.572-.658-.554-.103-1.166-.13-1.785-.118-1.232.026-2.639.214-3.917.385l.265 1.982c1.308-.174 2.595-.345 3.693-.367.546-.011 1.008.015 1.378.084.377.071.586.172.692.256l1.246-1.564Zm-7.274-.391c-.975.13-1.875.25-2.642.3-.806.053-1.302.014-1.545-.071l-.661 1.888c.663.232 1.526.232 2.336.179.848-.056 1.82-.186 2.777-.314l-.265-1.982Zm10.941 13.34c-.484-.66-.787-1.511-.983-2.531-.197-1.024-.273-2.139-.351-3.313l-1.995.133c.076 1.148.157 2.391.381 3.557.225 1.17.607 2.343 1.334 3.336l1.614-1.182Zm-21.778-67.793 10.502 7.75 1.188-1.61-10.503-7.75-1.187 1.61Zm10.502 7.75 10.503 7.75 1.188-1.61-10.503-7.75-1.188 1.61Zm1.468 47.697.126-48.499-2-.006-.126 48.5 2 .005Z"/><path fill="#F1EFED" fill-rule="evenodd" d="M251.519 583.663a2 2 0 0 0-2-2H238.97l5.407 12.22h5.142a2 2 0 0 0 2-2v-8.22Z" clip-rule="evenodd"/><path fill="#000" d="M228.42 581.663a2 2 0 0 0-2 2v8.22a2 2 0 0 0 2 2h15.957l-5.407-12.22h-10.55Z"/><path fill="#000" d="M250.619 583.663v8.22h1.8v-8.22h-1.8Zm-23.299 8.22v-8.22h-1.8v8.22h1.8Zm22.199 1.1h-5.142v1.8h5.142v-1.8Zm-5.142 0H228.42v1.8h15.957v-1.8Zm-15.957-10.42h10.55v-1.8h-10.55v1.8Zm10.55 0h10.549v-1.8H238.97v1.8Zm6.23 10.956-5.407-12.22-1.646.728 5.406 12.22 1.647-.728Zm-19.68-1.636a2.9 2.9 0 0 0 2.9 2.9v-1.8a1.1 1.1 0 0 1-1.1-1.1h-1.8Zm25.099 0a1.1 1.1 0 0 1-1.1 1.1v1.8a2.9 2.9 0 0 0 2.9-2.9h-1.8Zm1.8-8.22a2.9 2.9 0 0 0-2.9-2.9v1.8a1.1 1.1 0 0 1 1.1 1.1h1.8Zm-25.099 0a1.1 1.1 0 0 1 1.1-1.1v-1.8a2.9 2.9 0 0 0-2.9 2.9h1.8Z"/><path fill="#5869DD" fill-rule="evenodd" d="M256.091 593.773a2 2 0 0 0-2-2h-5.286l7.286 12.22v-10.22Z" clip-rule="evenodd"/><path fill="#000" d="M230.991 601.993a2 2 0 0 0 2 2h23.1l-7.286-12.22h-15.814a2 2 0 0 0-2 2v8.22Z"/><path fill="#000" d="M256.091 603.993v.9a.9.9 0 0 0 .9-.9h-.9Zm-.9-10.22v10.22h1.8v-10.22h-1.8Zm.9 9.32h-23.1v1.8h23.1v-1.8Zm-24.2-1.1v-8.22h-1.8v8.22h1.8Zm1.1-9.32h15.814v-1.8h-15.814v1.8Zm15.814 0h5.286v-1.8h-5.286v1.8Zm-.773-.439 7.286 12.22 1.546-.922-7.286-12.22-1.546.922Zm-15.041 10.859a1.1 1.1 0 0 1-1.1-1.1h-1.8a2.9 2.9 0 0 0 2.9 2.9v-1.8Zm24-9.32a2.9 2.9 0 0 0-2.9-2.9v1.8a1.1 1.1 0 0 1 1.1 1.1h1.8Zm-25.1 0a1.1 1.1 0 0 1 1.1-1.1v-1.8a2.9 2.9 0 0 0-2.9 2.9h1.8ZM397.622 722.773l58.301-9-58.301-101.97-8.145 115.217 8.145-4.247ZM316.68 694.886l-41.225-9.811-6.942 16.494 60.04 32.437-11.873-39.12ZM280.569 672.924l31.738 7.554-3.826-12.607-21.271-10.726-6.641 15.779ZM301.842 592.773c25.975 9.527 42.063 12.123 73.396 12.073-8.622-2.839-13.672-4.393-16.314-8.265-16.065 2.084-31.413 1.765-57.082-3.808Z"/><path fill="#5869DD" d="m301.842 592.773 59.342 149 28.293-14.753 8.145-115.217-11.452-20.03c-10.316 1.986-18.879 3.723-27.246 4.808 2.642 3.872 7.692 5.426 16.314 8.265-31.333.05-47.421-2.546-73.396-12.073Z"/><path fill="#F1EFED" d="m308.481 667.871-10.803-35.598-10.468 24.872 21.271 10.726Z"/><path fill="url(#g)" fill-rule="evenodd" d="m361.184 741.773-59.342-149-58.301 121 18.03 4.291 6.942-16.495 6.942-16.494 41.225 9.811 11.873 39.12 32.631 7.767Zm-48.877-61.295-31.738-7.554 6.641-15.779 10.468-24.872 10.803 35.598 3.826 12.607Z" clip-rule="evenodd"/><path fill="#000" d="m243.541 713.773-.901-.434a1.002 1.002 0 0 0 .669 1.407l.232-.973Zm117.643 28-.232.973c.234.055.481.025.694-.086l-.462-.887Zm-59.342-149 .212-.977a1 1 0 0 0-1.113.543l.901.434Zm95.78 130-.153-.988a.998.998 0 0 0-.31.101l.463.887Zm58.301-9 .152.988a.999.999 0 0 0 .716-1.484l-.868.496Zm-69.753-122 .868-.496a.999.999 0 0 0-1.057-.486l.189.982Zm-88.492 40.5.956-.29a1 1 0 0 0-1.878-.098l.922.388Zm99.944-20.47.868-.497-.868.497Zm-122.167 73.272.232-.973a1 1 0 0 0-1.154.585l.922.388Zm41.225 9.811.957-.29a.998.998 0 0 0-.725-.682l-.232.972Zm-4.373-14.408-.231.973a1.001 1.001 0 0 0 1.188-1.263l-.957.29Zm-31.738-7.554-.922-.388a1.001 1.001 0 0 0 .69 1.361l.232-.973Zm-18.998 45.14-.232.973a1 1 0 0 0 1.154-.585l-.922-.388Zm66.982 15.942-.476.88a.975.975 0 0 0 .244.093l.232-.973Zm-20.072-66.135.957-.29-.957.29Zm66.757-63.025.002 1a1 1 0 0 0 .311-1.95l-.313.95Zm-13.125 136.557-59.342-149-1.858.74 59.342 149 1.858-.74Zm-61.172-149.064-58.301 121 1.802.868 58.301-121-1.802-.868Zm96.833 131.422 58.301-9-.305-1.976-58.301 9 .305 1.976Zm-36.128 18.899 28.294-14.754-.925-1.773-28.294 14.753.925 1.774Zm28.294-14.754 8.144-4.246-.925-1.774-8.144 4.247.925 1.773Zm66.851-14.629L398.49 611.306l-1.736.993 58.301 101.97 1.736-.992ZM398.49 611.306l-11.452-20.029-1.736.992 11.452 20.03 1.736-.993Zm-8.015 115.784 8.144-115.217-1.995-.141-8.144 115.217 1.995.141Zm-115.251-41.043 41.225 9.812.463-1.945-41.225-9.812-.463 1.945Zm5.113-12.15 31.739 7.554.463-1.945-31.739-7.554-.463 1.945Zm-37.028 40.849 18.03 4.291.464-1.946-18.03-4.291-.464 1.946Zm85.012 20.233 32.631 7.767.463-1.946-32.631-7.766-.463 1.945Zm1.189-1.263-11.873-39.12-1.914.581 11.873 39.12 1.914-.581Zm-54.977-49.029-6.942 16.494 1.844.776 6.942-16.495-1.844-.775Zm-6.942 16.494-6.942 16.495 1.844.776 6.942-16.495-1.844-.776Zm61.437 31.946-60.04-32.437-.95 1.759 60.039 32.437.951-1.759Zm-15.764-52.939-3.826-12.607-1.914.581 3.827 12.607 1.913-.581Zm-3.826-12.607-10.804-35.598-1.913.58 10.803 35.599 1.914-.581Zm-12.682-35.696-10.468 24.872 1.844.775 10.467-24.871-1.843-.776Zm-10.468 24.872-6.641 15.779 1.843.776 6.642-15.78-1.844-.775Zm22.644 10.222-21.272-10.727-.9 1.785 21.271 10.727.901-1.785Zm-7.434-73.267c26.101 9.574 42.308 12.184 73.742 12.134l-.003-2c-31.233.05-47.202-2.531-73.051-12.012l-.688 1.878Zm84.483-2.921c-10.334 1.989-18.857 3.719-27.186 4.799l.257 1.983c8.407-1.09 17.008-2.835 27.307-4.818l-.378-1.964Zm-27.186 4.799c-15.932 2.066-31.163 1.758-56.741-3.794l-.424 1.954c25.761 5.593 41.226 5.924 57.422 3.823l-.257-1.983Zm16.756 8.306c-4.338-1.428-7.689-2.506-10.295-3.704-2.586-1.188-4.328-2.448-5.506-4.174l-1.652 1.127c1.464 2.145 3.568 3.598 6.323 4.864 2.735 1.257 6.22 2.376 10.505 3.787l.625-1.9ZM208.497 555.966l-32.038 63.066 21.313-4.063 12.114-26.532 12.21 21.894 14.436-2.753-28.035-51.612Z"/><path fill="#5869DD" d="m248.87 605.226-42.78-80.699-51.058 98.591 21.427-4.086 32.038-63.066 28.035 51.612 12.338-2.352Z"/><path fill="#000" fill-rule="evenodd" d="m90.928 607.578 27.305-57.701c-8.706 17.675-18.82 31.136-33.62 50.833a6450.086 6450.086 0 0 0-3.39 4.516l9.705 2.352Z" clip-rule="evenodd"/><path fill="url(#h)" d="m155.032 623.118 51.058-98.591c-28.689-1.313-44.753 2.238-73.283-12.364-4.816 15.451-9.451 27.312-14.574 37.714l-27.305 57.701 64.104 15.54Z"/><path fill="#000" d="m206.09 524.527.883-.468a1 1 0 0 0-.838-.531l-.045.999Zm42.78 80.699.188.982a.998.998 0 0 0 .696-1.451l-.884.469Zm-93.838 17.892-.235.972a1 1 0 0 0 .422.01l-.187-.982Zm-22.225-110.955.455-.89a1.002 1.002 0 0 0-1.41.593l.955.297Zm-51.584 93.063-.8-.6a1 1 0 0 0 .564 1.572l.236-.972Zm127.274-49.26.879-.477a1 1 0 0 0-1.771.024l.892.453Zm1.389 32.471.874-.487a1.001 1.001 0 0 0-1.783.072l.909.415Zm-33.427 30.595.187.983-.187-.983Zm21.313-4.063.187.982a.998.998 0 0 0 .722-.567l-.909-.415Zm24.324-4.638-.873.487a.999.999 0 0 0 1.06.495l-.187-.982Zm14.436-2.753.187.983-.187-.983ZM84.613 600.71l.8.601-.8-.601Zm120.593-75.714 42.781 80.698 1.767-.937-42.781-80.698-1.767.937Zm-49.286 98.582 51.058-98.591-1.776-.92-51.058 98.591 1.776.92Zm50.215-100.05c-28.846-1.321-44.592 2.22-72.873-12.255l-.911 1.78c28.78 14.73 45.161 11.167 73.693 12.473l.091-1.998Zm-28.784 95.957 32.038-63.066-1.784-.906-32.037 63.066 1.783.906Zm-22.132 4.615 21.427-4.085-.374-1.965-21.427 4.085.374 1.965Zm21.427-4.085 21.313-4.064-.374-1.965-21.313 4.064.374 1.965Zm22.035-4.631 12.115-26.532-1.819-.83-12.115 26.531 1.819.831Zm10.332-26.46 12.21 21.894 1.746-.974-12.209-21.894-1.747.974Zm13.27 22.389 14.436-2.752-.375-1.965-14.435 2.753.374 1.964Zm14.436-2.752 12.339-2.353-.375-1.965-12.339 2.353.375 1.965Zm-29.101-52.118 28.035 51.613 1.757-.955-28.034-51.612-1.758.954Zm-126.63 49.755 9.704 2.352.472-1.943-9.706-2.353-.47 1.944Zm9.704 2.352 64.105 15.54.471-1.944-64.105-15.539-.47 1.943Zm41.16-96.684c-4.805 15.415-9.422 27.225-14.516 37.569l1.794.884c5.151-10.46 9.805-22.372 14.631-37.858l-1.909-.595Zm-40.02 96.14 27.305-57.701-1.808-.856-27.305 57.702 1.808.855Zm25.504-58.571c-8.658 17.578-18.713 30.965-33.522 50.675l1.599 1.201c14.791-19.685 24.963-33.219 33.717-50.992l-1.794-.884ZM83.814 600.11c-1.104 1.469-2.234 2.973-3.391 4.516l1.6 1.2 3.39-4.515-1.6-1.201ZM429.822 802.163a5 5 0 0 1-5 5h-25.006a5 5 0 0 1-5-5V595.715l35.006 36.207v170.241Z"/><path stroke="#000" stroke-linejoin="round" stroke-width="2" d="M394.816 595.715V455.163a5 5 0 0 1 5-5h25.006a5 5 0 0 1 5 5v176.759m-35.006-36.207v206.448a5 5 0 0 0 5 5h25.006a5 5 0 0 0 5-5V631.922m-35.006-36.207 35.006 36.207"/><path fill="url(#i)" stroke="#000" stroke-linejoin="round" stroke-width="2" d="M55.421 831.663h378.955v25H55.421z"/><path fill="#5869DD" fill-rule="evenodd" d="M136.044 831.663h298.332l-42.684-29H206.838l-12.542 10.918-58.252 18.082Z" clip-rule="evenodd"/><path fill="#000" d="M55.42 831.663h80.624l58.252-18.082-53.007-5.5-59.253 5.5-26.615 18.082Z"/><path fill="#F1EFED" d="M206.838 802.663H98.105l-16.069 10.918 59.253-5.5 53.007 5.5 12.542-10.918Z"/><path fill="#000" d="m55.42 831.663-.561-.827a1 1 0 0 0 .562 1.827v-1Zm378.956 0v1a1 1 0 0 0 .562-1.827l-.562.827Zm-42.684-29 .562-.827a.999.999 0 0 0-.562-.173v1Zm-293.587 0v-1c-.2 0-.396.06-.562.173l.562.827Zm-16.069 10.918-.562-.828.562.828Zm112.26 0 .297.955c.132-.042.255-.11.36-.201l-.657-.754Zm-53.007-5.5.104-.995a.988.988 0 0 0-.196-.001l.092.996Zm293.649 22.755-42.684-29-1.124 1.654 42.684 29 1.124-1.654Zm-43.246-29.173H206.838v2h184.854v-2Zm-184.854 0H98.105v2h108.733v-2Zm-151.417 31h80.623v-2H55.421v2Zm80.623 0h298.332v-2H136.044v2Zm-38.5-30.827-16.07 10.917 1.124 1.655 16.07-10.918-1.125-1.654Zm-16.07 10.917L54.86 830.836l1.124 1.654 26.615-18.082-1.124-1.655Zm124.707-10.844-12.541 10.917 1.313 1.509 12.542-10.918-1.314-1.508ZM194 812.626l-58.252 18.082.593 1.91 58.252-18.082-.593-1.91Zm-111.871 1.95 59.253-5.5-.185-1.991-59.253 5.5.185 1.991Zm59.057-5.501 53.007 5.5.206-1.989-53.006-5.5-.207 1.989Z"/><path fill="url(#j)" stroke="#000" stroke-linejoin="round" stroke-width="2" d="M89.907 426.663h317.22v21H89.907z"/><path fill="#000" stroke="#000" stroke-linejoin="round" stroke-width="2" d="M94.982 788.673h299.833v16.99H94.982zM94.982 438.663h299.833v14.5H94.982z"/><ellipse cx="94.332" cy="743.413" fill="#000" rx="4.425" ry="4.25"/><ellipse cx="94.332" cy="751.913" fill="#000" rx="4.425" ry="4.25"/><ellipse cx="94.332" cy="760.413" fill="#000" rx="4.425" ry="4.25"/><ellipse cx="94.332" cy="768.913" fill="#000" rx="4.425" ry="4.25"/><ellipse cx="94.332" cy="777.413" fill="#000" rx="4.425" ry="4.25"/><ellipse cx="94.332" cy="785.913" fill="#000" rx="4.425" ry="4.25"/><ellipse cx="94.332" cy="794.413" fill="#000" rx="4.425" ry="4.25"/><ellipse cx="94.332" cy="802.913" fill="#000" rx="4.425" ry="4.25"/><ellipse cx="94.332" cy="443.413" fill="#000" rx="4.425" ry="4.25"/><ellipse cx="94.332" cy="451.913" fill="#000" rx="4.425" ry="4.25"/><ellipse cx="94.332" cy="460.413" fill="#000" rx="4.425" ry="4.25"/><ellipse cx="94.332" cy="468.913" fill="#000" rx="4.425" ry="4.25"/><ellipse cx="94.332" cy="477.413" fill="#000" rx="4.425" ry="4.25"/><ellipse cx="94.332" cy="485.913" fill="#000" rx="4.425" ry="4.25"/><ellipse cx="94.332" cy="494.413" fill="#000" rx="4.425" ry="4.25"/><ellipse cx="94.332" cy="502.913" fill="#000" rx="4.425" ry="4.25"/><ellipse fill="#000" rx="4.425" ry="4.25" transform="matrix(-1 0 0 1 396.116 743.413)"/><ellipse fill="#000" rx="4.425" ry="4.25" transform="matrix(-1 0 0 1 396.116 751.913)"/><ellipse fill="#000" rx="4.425" ry="4.25" transform="matrix(-1 0 0 1 396.116 760.413)"/><ellipse fill="#000" rx="4.425" ry="4.25" transform="matrix(-1 0 0 1 396.116 768.913)"/><ellipse fill="#000" rx="4.425" ry="4.25" transform="matrix(-1 0 0 1 396.116 777.413)"/><ellipse fill="#000" rx="4.425" ry="4.25" transform="matrix(-1 0 0 1 396.116 785.913)"/><ellipse fill="#000" rx="4.425" ry="4.25" transform="matrix(-1 0 0 1 396.116 794.413)"/><ellipse fill="#000" rx="4.425" ry="4.25" transform="matrix(-1 0 0 1 396.116 802.913)"/><ellipse fill="#000" rx="4.425" ry="4.25" transform="matrix(-1 0 0 1 396.116 443.413)"/><ellipse fill="#000" rx="4.425" ry="4.25" transform="matrix(-1 0 0 1 396.116 451.913)"/><ellipse fill="#000" rx="4.425" ry="4.25" transform="matrix(-1 0 0 1 396.116 460.413)"/><ellipse fill="#000" rx="4.425" ry="4.25" transform="matrix(-1 0 0 1 396.116 468.913)"/><ellipse fill="#000" rx="4.425" ry="4.25" transform="matrix(-1 0 0 1 396.116 477.413)"/><ellipse fill="#000" rx="4.425" ry="4.25" transform="matrix(-1 0 0 1 396.116 485.913)"/><ellipse fill="#000" rx="4.425" ry="4.25" transform="matrix(-1 0 0 1 396.116 494.413)"/><ellipse fill="#000" rx="4.425" ry="4.25" transform="matrix(-1 0 0 1 396.116 502.913)"/><path fill="url(#k)" stroke="#000" stroke-linejoin="round" stroke-width="2" d="m395.856 426.663 69.29-63.82c2.563-2.361 6.709-.542 6.709 2.942v483.54c0 3.167-3.505 5.078-6.167 3.362l-69.832-45.024v-381Z"/><path fill="#5869DD" fill-rule="evenodd" d="M467.952 853.413V363.35c0-.697.723-1.18 1.402-.938l19.419 6.911v298.376l-20.821 185.714Z" clip-rule="evenodd"/><path fill="#000" d="m488.773 843.04-20.821 10.373 20.821-185.714V843.04Z"/><path fill="#000" d="m488.773 369.323.336-.942a1 1 0 0 1 .664.942h-1Zm0 473.717h1a1 1 0 0 1-.554.895l-.446-.895Zm-20.821 10.373.446.895a.998.998 0 0 1-1.446-.895h1Zm1.402-491.001.336-.942-.336.942Zm-.067-.024.335-.942-.335.942Zm19.932 481.547-20.821 10.373-.892-1.79 20.822-10.373.891 1.79Zm.554-474.612v298.376h-2V369.323h2Zm0 298.376V843.04h-2V667.699h2Zm-22.815 185.603 20.822-185.714 1.987.223-20.822 185.714-1.987-.223Zm21.48-483.037-19.419-6.911.671-1.884 19.419 6.911-.671 1.884Zm-19.419-6.911a.07.07 0 0 0-.036-.004.057.057 0 0 0-.029.011c-.008.005-.009.008-.007.005l.004-.009.001-.007h-2c0-1.445 1.462-2.334 2.738-1.88l-.671 1.884Zm-.067-.004v490.063h-2V363.35h2Zm-2 0v-.02h2v.02h-2Zm2.67-1.904.068.024-.671 1.884-.067-.024.67-1.884Zm-2.67 1.884a2 2 0 0 1 2.67-1.884l-.67 1.884h-2Z"/><path fill="#F1EFED" d="m432.906 800.132 26.638 15.531v-429l-26.638 24.33-26.639 24.33v349.278l26.639 15.531Z"/><path fill="#000" d="M459.544 815.663h1a.998.998 0 0 1-1.504.864l.504-.864Zm-53.277-31.062-.503.864a.999.999 0 0 1-.497-.864h1Zm0-349.278h-1a1 1 0 0 1 .326-.738l.674.738Zm53.277-48.66-.674-.738a1 1 0 0 1 1.674.738h-1Zm-10.591 116.169.438.898-.438-.898Zm10.087 313.695-26.638-15.531 1.007-1.728 26.639 15.531-1.008 1.728Zm-26.638-15.531-26.638-15.531 1.007-1.728 26.638 15.531-1.007 1.728Zm-26.809-366.411 26.638-24.33 1.349 1.476-26.638 24.33-1.349-1.476Zm26.638-24.33 26.639-24.33 1.348 1.476-26.638 24.33-1.349-1.476Zm28.313-23.592v111h-2v-111h2Zm-55.277 397.938V523.663h2v260.938h-2Zm0-260.938v-88.34h2v88.34h-2Zm54.716-25.101-10.592 5.168-.877-1.797 10.591-5.169.878 1.798Zm-28.077 301.57V638.699h2v161.433h-2Zm17.485-296.402-16.047 7.832-.877-1.798 16.047-7.831.877 1.797Zm-15.485 6.933v128.036h-2V510.663h2Zm-2 0v-99.67h2v99.67h-2Zm1.438.899-26.638 13-.877-1.798 26.638-13 .877 1.798Zm27.2-13.899v93.036h-2v-93.036h2Zm0 93.036v224.964h-2V590.699h2Z"/><path fill="#5869DD" d="m24.652 362.843 69.29 63.82v381L24.11 852.687c-2.662 1.716-6.168-.195-6.168-3.362V365.785c0-3.484 4.147-5.303 6.71-2.942Z"/><path fill="#000" d="M93.942 426.663h1a1 1 0 0 0-.323-.735l-.677.735Zm-69.29-63.82.678-.735-.678.735Zm-.542 489.844-.542-.841.542.841Zm69.832-45.024.542.841c.285-.185.458-.501.458-.841h-1Zm.677-381.735-69.29-63.82-1.354 1.471 69.29 63.82 1.354-1.471ZM24.652 853.527l69.832-45.023-1.084-1.681-69.832 45.023 1.084 1.681Zm70.29-45.864v-381h-2v381h2Zm-78-441.878v470.914h2V365.785h-2Zm0 470.914v12.626h2v-12.626h-2Zm6.626 15.147c-1.996 1.287-4.626-.146-4.626-2.521h-2c0 3.959 4.383 6.347 7.71 4.202l-1.084-1.681Zm1.762-489.738c-3.204-2.951-8.388-.679-8.388 3.677h2c0-2.613 3.11-3.977 5.033-2.206l1.355-1.471Z"/><path fill="url(#l)" stroke="#000" stroke-linejoin="round" stroke-width="2" d="M1.024 843.04V369.323l19.487-6.935a1 1 0 0 1 1.335.942v488.468a1 1 0 0 1-1.446.895L1.024 843.04Z"/><path fill="#000" d="M83.53 784.601V594.699L70.212 792.367l13.32-7.766Z"/><path fill="#F1EFED" d="M56.892 510.663v289.469l13.32-7.765L83.53 594.699v-71.036l-15.396-7.513-11.243-5.487Z"/><path fill="#F1EFED" d="m30.254 815.663 26.638-15.531V510.663l-26.638-13v318Z"/><path fill="#F1EFED" d="m56.892 410.993-26.638-24.33v111l26.638 13v-99.67Z"/><path fill="#F1EFED" d="m83.53 435.323-26.638-24.33v99.67l11.243 5.487 15.395 7.513v-88.34Z"/><path fill="#000" d="M83.53 435.323h1a.998.998 0 0 0-.325-.738l-.674.738Zm-53.276-48.66.674-.738a.998.998 0 0 0-1.674.738h1Zm0 429h-1a1 1 0 0 0 1.504.864l-.504-.864Zm53.276-31.062.504.864a1 1 0 0 0 .496-.864h-1ZM68.136 516.15l-.439.899.44-.899Zm2.076 276.217.504.863-.504-.863Zm-39.453 24.16 26.638-15.531-1.008-1.728-26.638 15.531 1.008 1.728Zm53.447-381.942-26.638-24.33-1.35 1.476 26.64 24.33 1.348-1.476Zm-26.638-24.33-26.639-24.33-1.349 1.476 26.639 24.33 1.349-1.476Zm-28.313-23.592v111h2v-111h-2Zm0 111v318h2v-318h-2Zm55.276 26v-88.34h-2v88.34h2Zm-16.834-6.614 15.396 7.513.877-1.798-15.395-7.513-.877 1.798Zm16.835 267.552V594.699h-2v189.902h2Zm0-189.902v-71.036h-2v71.036h2ZM57.395 800.996l13.319-7.766-1.007-1.727-13.32 7.765 1.008 1.728Zm13.319-7.766 13.32-7.765-1.008-1.728-13.32 7.766 1.008 1.727Zm.494-.796 13.32-197.668-1.996-.134-13.32 197.667 1.996.135ZM55.892 510.663v289.469h2V510.663h-2Zm12.682 4.588-11.243-5.487-.877 1.798 11.242 5.487.878-1.798Zm-38.759-16.689 26.639 13 .877-1.798-26.639-13-.877 1.798Zm28.077 12.101v-99.67h-2v99.67h2Z"/><path fill="#5869DD" stroke="#000" stroke-linejoin="round" stroke-width="2" d="M106.305 767.788c0 16.431 13.342 29.75 29.801 29.75l5.726-10.5c-16.459 0-26.548-7.376-26.548-19.25 0-11.874 10.089-16.25 26.548-16.25l-5.726-7c-13.534 0-29.801 6.82-29.801 23.25Z"/><path fill="url(#m)" d="M211.584 730.663c0 3.013-3.179 5.783-8.495 7.965-7.107 2.917-18.033 4.785-30.285 4.785-2.383 0-4.715-.071-6.979-.206-7.723-.461-14.649-1.675-20.051-3.401-7.248-2.317-11.751-5.557-11.751-9.143v80.75c0 7.042 17.363 12.75 38.781 12.75s38.78-5.708 38.78-12.75v-80.75Z"/><path fill="#5869DD" d="M172.804 717.913c-21.418 0-38.781 5.708-38.781 12.75 0 3.586 4.503 6.826 11.751 9.143 5.218-10.186 27.432-12.488 43.701-8.022 5.522 1.516 10.358 3.812 13.614 6.844 5.316-2.182 8.495-4.952 8.495-7.965 0-7.042-17.362-12.75-38.78-12.75Z"/><path fill="#F1EFED" d="M172.804 743.413c12.252 0 23.178-1.868 30.285-4.785-3.256-3.032-8.092-5.328-13.614-6.844l-23.65 11.423c2.264.135 4.596.206 6.979.206Z"/><path fill="#000" d="M189.475 731.784c-16.269-4.466-38.483-2.164-43.701 8.022 5.402 1.726 12.328 2.94 20.051 3.401l23.65-11.423Z"/><path fill="#000" d="m165.825 743.207-.06.998.06-.998Zm-30.802-12.544c0-1.317.812-2.735 2.662-4.173 1.837-1.428 4.558-2.758 8.009-3.893 6.893-2.266 16.477-3.684 27.11-3.684v-2c-10.785 0-20.591 1.436-27.734 3.784-3.567 1.173-6.525 2.591-8.613 4.214-2.074 1.612-3.434 3.548-3.434 5.752h2Zm37.781-11.75c10.632 0 20.217 1.418 27.11 3.684 3.451 1.135 6.172 2.465 8.009 3.893 1.85 1.438 2.661 2.856 2.661 4.173h2c0-2.204-1.359-4.14-3.433-5.752-2.088-1.623-5.046-3.041-8.613-4.214-7.143-2.348-16.949-3.784-27.734-3.784v2Zm37.78 92.5c0 1.317-.811 2.735-2.661 4.173-1.837 1.428-4.558 2.758-8.009 3.893-6.893 2.266-16.478 3.684-27.11 3.684v2c10.785 0 20.591-1.436 27.734-3.784 3.567-1.173 6.525-2.591 8.613-4.214 2.074-1.612 3.433-3.548 3.433-5.752h-2Zm-37.78 11.75c-10.633 0-20.217-1.418-27.11-3.684-3.451-1.135-6.172-2.465-8.009-3.893-1.85-1.438-2.662-2.856-2.662-4.173h-2c0 2.204 1.36 4.14 3.434 5.752 2.088 1.623 5.046 3.041 8.613 4.214 7.143 2.348 16.949 3.784 27.734 3.784v-2Zm-37.781-11.75v-80.75h-2v80.75h2Zm75.561-80.75v80.75h2v-80.75h-2Zm-64.505 8.19c-3.567-1.14-6.386-2.486-8.292-3.938-1.921-1.464-2.764-2.911-2.764-4.252h-2c0 2.245 1.409 4.211 3.552 5.843 2.157 1.644 5.214 3.076 8.895 4.252l.609-1.905Zm64.505-8.19c0 1.128-.591 2.326-1.931 3.558-1.34 1.232-3.346 2.415-5.944 3.482l.759 1.85c2.719-1.116 4.96-2.408 6.539-3.86 1.579-1.451 2.577-3.144 2.577-5.03h-2Zm-7.875 7.04c-6.947 2.851-17.732 4.71-29.905 4.71v2c12.331 0 23.397-1.877 30.664-4.86l-.759-1.85Zm-56.045 2.559c1.179-2.302 3.356-4.227 6.309-5.745 2.95-1.517 6.615-2.595 10.662-3.229 8.099-1.268 17.577-.735 25.575 1.461l.53-1.929c-8.271-2.271-18.034-2.82-26.414-1.507-4.192.656-8.076 1.784-11.267 3.425-3.188 1.639-5.745 3.821-7.175 6.612l1.78.912Zm42.546-7.513c5.438 1.493 10.104 3.73 13.197 6.611l1.363-1.464c-3.417-3.183-8.424-5.537-14.03-7.076l-.53 1.929Zm-16.406 9.664c-2.363 0-4.675-.07-6.919-.204l-.12 1.996c2.284.137 4.637.208 7.039.208v-2Zm-6.919-.204c-7.662-.458-14.502-1.66-19.806-3.356l-.609 1.905c5.499 1.758 12.51 2.982 20.295 3.447l.12-1.996Zm23.155-11.325-23.65 11.423.87 1.801 23.65-11.423-.87-1.801Z"/><ellipse stroke="#000" stroke-linejoin="round" stroke-width="1.5" rx="21.157" ry="8.052" transform="translate(175.863 776.797) skewX(.056)"/><ellipse stroke="#000" stroke-linejoin="round" stroke-width="1.5" rx="20.579" ry="8.282" transform="matrix(.56629 -.8242 .84029 .54213 175.711 776.202)"/><ellipse stroke="#000" stroke-linejoin="round" stroke-width="1.5" rx="20.579" ry="8.282" transform="matrix(-.56661 -.824 -.8405 .54183 176.001 776.203)"/><ellipse fill="#000" stroke="#000" stroke-linejoin="round" stroke-width="1.5" rx="3.593" ry="3.451" transform="translate(175.862 776.788) skewX(.056)"/><path stroke="#000" stroke-linecap="round" stroke-linejoin="round" stroke-width="1.8" d="M140.72 655.946c-8.471 7.067-24.675 24.769-21.718 39.05 3.696 17.85 36.636 19.695 35.037 34.65"/><path stroke="#000" stroke-linecap="round" stroke-linejoin="round" stroke-width="1.8" d="M143.976 697.859c6.496.938 19.11 6.31 17.6 20.304-1.51 13.993 5.419 18.724 9.073 19.34"/><rect width="45.69" height="6.256" fill="#000" stroke="#000" stroke-linejoin="round" stroke-width="1.8" rx="2" transform="matrix(.98987 -.14194 .15358 .98814 164.144 680.976)"/><rect width="45.678" height="6.257" fill="#5869DD" stroke="#000" stroke-linejoin="round" stroke-width="1.8" rx="2" transform="matrix(.9868 .16197 -.17515 .98454 165.248 674.491)"/><path fill="#000" fill-rule="evenodd" d="M182.694 680.992h-1.689a2 2 0 0 0-1.85 2.759l1.482 3.612a2 2 0 0 0 1.85 1.241h4.751l-4.544-7.612Z" clip-rule="evenodd"/><path fill="#F1EFED" d="M191.989 688.604a2 2 0 0 0 1.85-1.241l1.482-3.612a2 2 0 0 0-1.85-2.759h-10.777l4.544 7.612h4.751Z"/><path fill="#000" d="m193.839 687.363.833.342-.833-.342Zm1.482-3.612-.833-.342.833.342Zm-.833-.342-1.482 3.613 1.666.683 1.482-3.613-1.666-.683Zm-13.019 3.613-1.482-3.613-1.665.683 1.482 3.613 1.665-.683Zm10.52.682h-4.751v1.8h4.751v-1.8Zm-4.751 0h-4.751v1.8h4.751v-1.8Zm-6.233-5.812h1.689v-1.8h-1.689v1.8Zm1.689 0h10.777v-1.8h-10.777v1.8Zm5.317 6.251-4.544-7.613-1.546.923 4.544 7.612 1.546-.922Zm-8.207-.438a2.9 2.9 0 0 0 2.683 1.799v-1.8a1.1 1.1 0 0 1-1.018-.682l-1.665.683Zm13.202-.683a1.098 1.098 0 0 1-1.017.682v1.8a2.901 2.901 0 0 0 2.683-1.799l-1.666-.683Zm3.148-2.93c.783-1.908-.621-4-2.683-4v1.8a1.1 1.1 0 0 1 1.017 1.517l1.666.683Zm-16.167-.683a1.1 1.1 0 0 1 1.018-1.517v-1.8c-2.063 0-3.466 2.092-2.683 4l1.665-.683Z"/><path fill="#000" d="m173.679 670.891-2.518-20.886 17.232-6.046a8.996 8.996 0 0 1 5.959 0l17.232 6.046-2.517 20.886a8.999 8.999 0 0 1-4.828 6.93l-8.758 4.494a9.002 9.002 0 0 1-8.217 0l-8.758-4.494a8.995 8.995 0 0 1-4.827-6.93Z"/><path fill="url(#n)" d="m169.964 674.583-2.967-24.578 19.579-6.86c.429-.15.895-.15 1.323 0l19.579 6.86-2.966 24.578a2 2 0 0 1-1.074 1.54l-15.288 7.832a1.996 1.996 0 0 1-1.824 0l-15.289-7.832a1.998 1.998 0 0 1-1.073-1.54Z"/><path stroke="#000" stroke-linejoin="round" stroke-width="1.8" d="m166.997 650.005 2.967 24.578c.079.66.482 1.237 1.073 1.54l15.289 7.832a1.996 1.996 0 0 0 1.824 0l15.288-7.832a2 2 0 0 0 1.074-1.54l2.966-24.578m-40.481 0 19.579-6.86c.429-.15.895-.15 1.323 0l19.579 6.86m-40.481 0 20.044 1.981c.131.013.263.013.393 0l20.044-1.981"/><ellipse cx="187.238" cy="643.206" fill="#000" rx="4.304" ry="3.25"/><path fill="#000" fill-rule="evenodd" d="M663.545 78.765c3.822 18.068 55.065 28.046 114.454 22.287 21.778-2.112 41.627-6.047 57.845-11.075 19.907-6.171 34.343-13.99 40.16-22.104 2.368-3.303 3.307-6.655 2.607-9.965L764.158 35.622c-12.896 1.25-25.116 3.14-36.306 5.518-18.947 4.026-34.941 9.45-46.267 15.535-12.789 6.872-19.626 14.589-18.04 22.09Z" clip-rule="evenodd"/><path fill="#F1EFED" d="M764.158 35.622c59.389-5.76 110.631 4.219 114.453 22.286L764.158 35.622Z"/><path fill="#000" d="m681.585 56.675.564.871-.564-.871Zm154.259 33.302-.401-.94.401.94ZM727.852 41.14l.316.962-.316-.962Zm148.152 26.733-.856-.616.856.616Zm-98.212 32.2c-29.623 2.873-57.176 1.816-77.761-2.192-10.299-2.006-18.794-4.739-24.921-8.048-6.15-3.322-9.711-7.108-10.569-11.164l-1.991.193c1.053 4.977 5.33 9.214 11.719 12.664 6.412 3.464 15.156 6.253 25.569 8.28 20.839 4.059 48.602 5.111 78.368 2.224l-.414-1.957Zm-13.427-63.472c29.623-2.873 57.175-1.816 77.76 2.192 10.299 2.006 18.795 4.739 24.921 8.047 6.151 3.322 9.712 7.108 10.57 11.165l1.991-.193c-1.053-4.977-5.331-9.214-11.719-12.664-6.413-3.464-15.156-6.253-25.569-8.281-20.839-4.058-48.602-5.11-78.368-2.223l.414 1.956Zm-99.824 42.068c-.713-3.368.436-6.908 3.451-10.52 3.013-3.61 7.814-7.194 14.157-10.603l-1.127-1.743c-6.447 3.464-11.459 7.174-14.665 11.016-3.205 3.84-4.681 7.91-3.807 12.043l1.991-.193Zm170.902 10.368c-16.148 5.006-35.931 8.93-57.651 11.036l.414 1.957c21.835-2.118 41.751-6.064 58.039-11.114l-.802-1.879Zm-153.294-31.49c11.225-6.032 27.127-11.431 46.019-15.445l-.633-1.923c-19.001 4.037-35.086 9.484-46.513 15.624l1.127 1.743Zm46.019-15.445c11.153-2.37 23.336-4.254 36.197-5.502l-.414-1.956c-12.932 1.254-25.189 3.15-36.416 5.535l.633 1.923Zm149.448 15.903c.629 2.974-.192 6.077-2.468 9.252l1.711 1.232c2.46-3.43 3.519-7.03 2.748-10.677l-1.991.193Zm-2.468 9.252c-2.803 3.91-7.74 7.818-14.51 11.529-6.758 3.703-15.284 7.179-25.195 10.251l.802 1.88c9.996-3.1 18.641-6.618 25.532-10.395 6.879-3.77 12.068-7.828 15.082-12.033l-1.711-1.232Zm3.56-10.312L764.254 34.66l-.193 1.926 114.454 22.287.193-1.927Z"/><path fill="#000" fill-rule="evenodd" d="M712.947 238.603c1.845 20.687 62.985 35.644 136.561 33.406 37.324-1.135 70.679-6.477 94.245-14.166 22.889-7.468 36.544-17.15 35.635-27.343l-59.427-28.94c-3.98-.654-8.11-1.246-12.373-1.772-19.339-2.384-41.424-3.404-64.76-2.694-73.576 2.237-131.725 20.822-129.881 41.509Z" clip-rule="evenodd"/><path fill="#F1EFED" d="M919.961 201.56c34.891 5.734 58.297 16.261 59.427 28.94l-59.427-28.94Z"/><path fill="#000" d="m943.753 257.843-.362-.948.362.948Zm-36.165-58.055.067-.989-.067.989Zm12.373 1.772.107-.983-.107.983Zm-70.542 69.453c-36.723 1.117-70.306-2.06-94.904-8.077-12.307-3.011-22.307-6.718-29.318-10.917-7.05-4.222-10.834-8.786-11.25-13.447l-1.999.061c.507 5.683 5.056 10.747 12.288 15.077 7.271 4.354 17.501 8.125 29.907 11.16 24.826 6.073 58.601 9.256 95.454 8.135l-.178-1.992Zm-135.472-32.441c-.416-4.66 2.537-9.429 8.798-14.056 6.226-4.601 15.512-8.895 27.217-12.636 23.396-7.477 56.232-12.673 92.955-13.79l-.178-1.992c-36.853 1.121-69.879 6.335-93.491 13.881-11.799 3.771-21.303 8.142-27.76 12.914-6.422 4.745-10.047 10.057-9.54 15.74l1.999-.061Zm264.442-8.041c.409 4.592-2.45 9.289-8.528 13.855-6.046 4.542-15.073 8.79-26.47 12.509l.725 1.897c11.492-3.75 20.737-8.076 27.013-12.791 6.245-4.691 9.758-9.93 9.259-15.531l-1.999.061Zm-34.998 26.364c-23.455 7.652-56.713 12.985-93.972 14.118l.178 1.992c37.389-1.137 70.841-6.488 94.519-14.213l-.725-1.897ZM842.917 198.09c23.289-.708 45.323.31 64.605 2.687l.133-1.978c-19.396-2.391-41.533-3.412-64.916-2.701l.178 1.992Zm64.605 2.687a309.79 309.79 0 0 1 12.332 1.766l.214-1.966a312.54 312.54 0 0 0-12.413-1.778l-.133 1.978Zm12.332 1.766c17.397 2.859 31.863 6.904 42.09 11.776 5.115 2.437 9.121 5.059 11.902 7.803 2.776 2.738 4.288 5.552 4.543 8.409l1.999-.061c-.311-3.483-2.148-6.74-5.169-9.721-3.016-2.975-7.254-5.721-12.494-8.217-10.481-4.994-25.163-9.08-42.657-11.955l-.214 1.966Zm59.933 27.067-59.427-28.94-.798 1.78 59.428 28.94.797-1.78Z"/><path fill="#000" fill-rule="evenodd" d="M1144.51 162.322c84.17 3.054 153.35-6.761 154.52-21.921 1.18-15.159-66.1-29.924-150.27-32.978-17.63-.639-34.6-.714-50.42-.294l-104.098 22.997c1.147 14.883 67.558 29.196 150.268 32.196Z" clip-rule="evenodd"/><path fill="#F1EFED" d="M994.242 129.344c-.02.261-.02.522 0 .782l104.098-22.997c-59.74 1.587-103.171 10.231-104.098 22.215Z"/><path fill="#000" d="m994.242 130.126-1 .117 1-.117Zm303.798 10.239c-.12 1.493-1.08 3.063-3.13 4.685-2.05 1.617-5.06 3.186-9 4.67-7.86 2.965-19.16 5.505-33.11 7.484-27.89 3.956-66.17 5.647-108.21 4.121l-.15 1.994c42.12 1.529 80.52-.162 108.56-4.139 14.01-1.988 25.48-4.554 33.55-7.597 4.03-1.52 7.27-3.181 9.56-4.99 2.29-1.805 3.75-3.858 3.92-6.155l-1.99-.073Zm-149.36-31.945c42.05 1.526 79.85 5.975 106.97 11.927 13.57 2.978 24.41 6.321 31.77 9.838 3.69 1.761 6.44 3.539 8.23 5.296 1.79 1.761 2.5 3.392 2.39 4.884l1.99.073c.18-2.298-.95-4.444-2.94-6.405-2-1.964-4.97-3.85-8.74-5.653-7.56-3.611-18.57-6.992-32.2-9.982-27.26-5.984-65.19-10.444-107.31-11.972l-.16 1.994Zm-4.09 52.905c-41.32-1.499-78.54-5.822-105.55-11.621-13.52-2.9-24.43-6.161-32.02-9.601-3.8-1.722-6.72-3.468-8.707-5.205-2.002-1.748-2.956-3.389-3.072-4.888l-1.999.233c.172 2.222 1.544 4.283 3.716 6.178 2.184 1.907 5.292 3.743 9.172 5.504 7.77 3.522 18.84 6.818 32.41 9.731 27.16 5.829 64.5 10.162 105.9 11.663l.15-1.994ZM995.241 130.01a4.127 4.127 0 0 1 0-.629l-1.999-.073a6.08 6.08 0 0 0 0 .935l1.999-.233Zm0-.629c.091-1.183.709-2.407 1.984-3.676 1.28-1.275 3.175-2.541 5.685-3.773 5.02-2.465 12.31-4.697 21.49-6.619 18.36-3.84 44.09-6.394 73.92-7.187l.03-1.994c-29.9.794-55.76 3.355-74.28 7.229-9.26 1.936-16.74 4.211-21.99 6.788-2.621 1.288-4.738 2.676-6.244 4.174-1.511 1.504-2.453 3.171-2.594 4.985l1.999.073Zm103.079-21.255c15.81-.419 32.76-.344 50.36.294l.16-1.994c-17.65-.64-34.64-.715-50.49-.294l-.03 1.994ZM994.421 131.1l104.089-22.997-.35-1.947-104.097 22.997.358 1.947Z"/><ellipse fill="#F1EFED" stroke="#000" stroke-linejoin="round" stroke-width="2" rx="106.432" ry="34.374" transform="matrix(.97374 -.22764 .4108 .91173 766.258 55.568)"/><ellipse fill="#F1EFED" stroke="#000" stroke-linejoin="round" stroke-width="2" rx="128.657" ry="41.043" transform="matrix(.98037 -.19716 .50795 .86139 831.724 215.12)"/><ellipse fill="#F1EFED" stroke="#000" stroke-linejoin="round" stroke-width="2" rx="150.4" ry="37.199" transform="matrix(.98684 .16168 -.32983 .94404 1152.81 115.174)"/><path fill="#000" d="M745.179 232c-.226-1.179-.155-2.304.213-3.377.378-1.087.997-2 1.857-2.739.858-.751 1.876-1.24 3.054-1.466a6.275 6.275 0 0 1 2.648.042c.855.19 1.628.555 2.318 1.094a6.104 6.104 0 0 1 1.7 1.983l-1.962.377c-.517-.72-1.154-1.239-1.912-1.558-.748-.333-1.57-.413-2.466-.241a4.403 4.403 0 0 0-2.161 1.056 4.588 4.588 0 0 0-1.301 2.009 4.888 4.888 0 0 0-.132 2.463 4.981 4.981 0 0 0 1.038 2.257 4.621 4.621 0 0 0 1.948 1.367 4.4 4.4 0 0 0 2.4.181c.895-.171 1.63-.545 2.204-1.119.584-.589.982-1.313 1.196-2.172l1.962-.377c-.108.9-.389 1.73-.842 2.489a6.025 6.025 0 0 1-1.748 1.875 6.447 6.447 0 0 1-2.447 1.002c-1.178.226-2.304.155-3.376-.214a6.439 6.439 0 0 1-2.74-1.857c-.741-.872-1.225-1.897-1.451-3.075Zm18.947-6.569c.742-.143 1.437-.118 2.085.076.66.191 1.221.566 1.683 1.125.459.547.775 1.268.947 2.164l.939 4.897-1.679.322-.933-4.861c-.149-.778-.498-1.353-1.046-1.724-.547-.371-1.169-.49-1.864-.357a2.405 2.405 0 0 0-1.22.619 2.664 2.664 0 0 0-.725 1.184 2.957 2.957 0 0 0-.061 1.405l.899 4.684-1.679.322-2.392-12.462 1.591-.305.923 4.808a3.901 3.901 0 0 1 1.065-1.231 3.44 3.44 0 0 1 1.467-.666Zm11.969-2.298c.283-.054.552-.087.806-.1l.315 1.644c-.221-.006-.561.035-1.021.123-.518.1-.955.306-1.311.618a2.613 2.613 0 0 0-.736 1.131 2.7 2.7 0 0 0-.07 1.352l.919 4.79-1.679.323-1.697-8.839 1.591-.305.262 1.361a3.624 3.624 0 0 1 1.041-1.355c.464-.382.991-.63 1.58-.743Zm8.59 7.882a4.897 4.897 0 0 1-2.502-.143 4.675 4.675 0 0 1-2.016-1.336 4.633 4.633 0 0 1-1.066-2.214 4.535 4.535 0 0 1 .174-2.435 4.5 4.5 0 0 1 1.378-1.987 4.79 4.79 0 0 1 2.268-1.077 4.674 4.674 0 0 1 2.47.167 4.512 4.512 0 0 1 2.016 1.336c.546.617.9 1.349 1.063 2.197a4.63 4.63 0 0 1-.171 2.453 4.679 4.679 0 0 1-1.378 1.987 4.774 4.774 0 0 1-2.236 1.052Zm-.298-1.555a2.964 2.964 0 0 0 1.41-.674c.396-.357.679-.79.85-1.3a3.224 3.224 0 0 0 .09-1.63 3.114 3.114 0 0 0-.684-1.463 2.84 2.84 0 0 0-1.271-.893 2.866 2.866 0 0 0-1.563-.121 2.99 2.99 0 0 0-1.442.698 2.84 2.84 0 0 0-.85 1.3 3.135 3.135 0 0 0-.094 1.612c.109.566.338 1.059.688 1.481.347.41.771.707 1.271.893a3.1 3.1 0 0 0 1.595.097Zm16.982-11.178c.707-.136 1.367-.103 1.98.097.624.197 1.155.578 1.594 1.142.447.549.757 1.272.929 2.167l.94 4.897-1.68.322-.933-4.861c-.149-.778-.492-1.353-1.028-1.727-.524-.376-1.122-.5-1.794-.371-.73.141-1.27.513-1.618 1.118-.348.604-.45 1.283-.305 2.038l.905 4.719-1.679.323-.933-4.861c-.149-.778-.492-1.354-1.028-1.728-.524-.376-1.122-.499-1.794-.37-.731.14-1.27.512-1.618 1.117-.349.604-.45 1.284-.306 2.038l.906 4.72-1.679.322-1.697-8.838 1.591-.306.268 1.397a3.612 3.612 0 0 1 1-1.383 3.292 3.292 0 0 1 1.527-.733c.695-.134 1.349-.101 1.962.099a3.088 3.088 0 0 1 1.562 1.075 3.795 3.795 0 0 1 1.132-1.555 3.874 3.874 0 0 1 1.796-.858Zm10.971-2.106c.907-.174 1.734-.131 2.48.129a3.97 3.97 0 0 1 1.893 1.36c.501.637.843 1.433 1.026 2.387.048.248.077.431.088.551l-7.248 1.392a2.855 2.855 0 0 0 1.28 1.513 2.86 2.86 0 0 0 1.964.302c1.143-.22 1.876-.794 2.199-1.724l1.732-.332c-.124.879-.519 1.657-1.183 2.335-.666.665-1.483 1.091-2.449 1.276-.861.165-1.676.12-2.446-.135a4.352 4.352 0 0 1-1.941-1.332c-.525-.633-.871-1.385-1.038-2.257-.168-.872-.124-1.693.132-2.463a4.225 4.225 0 0 1 1.293-1.953c.618-.534 1.357-.883 2.218-1.049Zm.249 1.492c-.695.134-1.254.467-1.677 1-.411.531-.61 1.15-.597 1.856l5.427-1.042c-.207-.693-.604-1.203-1.192-1.53-.576-.33-1.23-.424-1.961-.284Zm16.727-4.75c.908-.174 1.735-.131 2.481.129a3.966 3.966 0 0 1 1.892 1.359c.501.637.843 1.433 1.027 2.388.047.247.076.431.087.551l-7.248 1.391a2.855 2.855 0 0 0 1.281 1.514 2.86 2.86 0 0 0 1.964.301c1.143-.219 1.876-.794 2.198-1.723l1.733-.333c-.125.88-.519 1.658-1.184 2.335-.666.666-1.482 1.091-2.449 1.277-.86.165-1.675.12-2.445-.136a4.347 4.347 0 0 1-1.942-1.332c-.525-.632-.871-1.384-1.038-2.256-.167-.872-.123-1.693.132-2.463a4.225 4.225 0 0 1 1.293-1.953c.619-.534 1.358-.884 2.218-1.049Zm.25 1.492c-.695.133-1.255.466-1.678 1-.411.531-.61 1.149-.597 1.856l5.427-1.042c-.206-.694-.603-1.204-1.192-1.531-.576-.329-1.23-.424-1.96-.283Zm14.483 5.028-3.204-2.849-1.94 3.836-2.033.39 2.674-5.168-4.229-3.698 2.086-.4 3.029 2.699 1.762-3.618 2.085-.401-2.551 4.944 4.407 3.864-2.086.401Zm5.378-8.547.896 4.666c.073.378.216.649.432.816.227.164.564.203 1.012.117a4.774 4.774 0 0 0 1.058-.313l.295 1.538c-.298.167-.677.295-1.136.383-1.874.36-2.987-.38-3.34-2.218l-.896-4.667-1.768.339-.305-1.591 1.768-.339-.441-2.298 1.679-.322.441 2.298 2.475-.475.305 1.591-2.475.475Zm8.522-3.469c.907-.174 1.734-.131 2.48.129a3.97 3.97 0 0 1 1.893 1.36c.501.637.843 1.432 1.026 2.387.047.247.077.431.087.551l-7.247 1.391a2.858 2.858 0 0 0 1.28 1.514 2.855 2.855 0 0 0 1.964.301c1.143-.219 1.876-.793 2.199-1.723l1.732-.332c-.125.879-.519 1.657-1.183 2.335-.667.665-1.483 1.091-2.449 1.276-.861.165-1.676.12-2.446-.135a4.369 4.369 0 0 1-1.942-1.332c-.524-.633-.87-1.385-1.038-2.257-.167-.872-.123-1.693.132-2.463a4.234 4.234 0 0 1 1.294-1.953c.618-.534 1.357-.884 2.218-1.049Zm.249 1.492a2.722 2.722 0 0 0-1.677 1c-.412.531-.611 1.15-.597 1.856l5.427-1.042c-.207-.693-.604-1.204-1.192-1.531-.577-.329-1.23-.423-1.961-.283Zm11.667-3.779c.718-.138 1.39-.108 2.015.09.636.196 1.179.574 1.629 1.135.459.547.775 1.269.947 2.164l.94 4.897-1.68.322-.933-4.861c-.149-.778-.498-1.352-1.046-1.724-.547-.371-1.169-.49-1.864-.357-.507.098-.931.307-1.272.63a2.476 2.476 0 0 0-.698 1.141 3.091 3.091 0 0 0-.042 1.402l.906 4.719-1.68.323-1.696-8.839 1.591-.305.271 1.414a3.718 3.718 0 0 1 1.035-1.39 3.369 3.369 0 0 1 1.577-.761Zm12.213 7.187c-1.108.212-2.094.133-2.96-.239-.856-.385-1.432-1.032-1.729-1.941l1.68-.322c.25.478.605.8 1.065.969.47.154 1.046.165 1.73.034.636-.122 1.13-.32 1.48-.595.348-.287.491-.596.427-.926a.91.91 0 0 0-.555-.699c-.298-.151-.818-.216-1.559-.196l-1.042.017c-2.193.03-3.418-.621-3.674-1.953-.149-.778.073-1.468.666-2.07.591-.615 1.44-1.028 2.548-1.241 1.001-.192 1.901-.121 2.699.215.795.324 1.366.88 1.713 1.669l-1.785.343c-.21-.327-.533-.546-.97-.657a2.963 2.963 0 0 0-1.383-.046c-.613.117-1.084.305-1.413.564-.32.245-.449.526-.388.844.054.283.235.493.542.629.305.125.767.177 1.387.156l1.059-.02c1.24-.03 2.152.137 2.735.501.581.353.942.895 1.082 1.625.149.778-.077 1.476-.68 2.092-.593.603-1.485 1.018-2.675 1.247Zm6.716-10.637 1.696 8.839-1.679.322-1.697-8.838 1.68-.323Zm-.573-3.556.374 1.945-1.874.36-.373-1.945 1.873-.36Zm9.92 11.11a4.919 4.919 0 0 1-2.502-.143 4.683 4.683 0 0 1-2.016-1.336 4.632 4.632 0 0 1-1.066-2.215 4.532 4.532 0 0 1 .174-2.434 4.503 4.503 0 0 1 1.378-1.988 4.809 4.809 0 0 1 2.268-1.077 4.664 4.664 0 0 1 2.47.168 4.512 4.512 0 0 1 2.016 1.336c.545.616.9 1.348 1.063 2.197a4.626 4.626 0 0 1-.171 2.452 4.673 4.673 0 0 1-1.378 1.987 4.766 4.766 0 0 1-2.236 1.053Zm-.298-1.556a2.964 2.964 0 0 0 1.41-.674 3.01 3.01 0 0 0 .85-1.299 3.228 3.228 0 0 0 .09-1.631 3.124 3.124 0 0 0-.684-1.463 2.831 2.831 0 0 0-1.271-.892 2.866 2.866 0 0 0-1.563-.122 2.99 2.99 0 0 0-1.442.698 2.851 2.851 0 0 0-.85 1.3 3.14 3.14 0 0 0-.094 1.613 3.24 3.24 0 0 0 .688 1.481c.347.409.771.707 1.271.892a3.1 3.1 0 0 0 1.595.097Zm10.618-9.956c.719-.138 1.391-.108 2.015.09.636.195 1.18.574 1.629 1.135.46.547.775 1.269.947 2.164l.94 4.897-1.679.322-.933-4.861c-.15-.778-.498-1.352-1.046-1.724-.548-.371-1.169-.49-1.865-.357-.506.098-.93.307-1.272.629a2.477 2.477 0 0 0-.697 1.142 3.101 3.101 0 0 0-.043 1.401l.906 4.72-1.679.323-1.697-8.839 1.591-.305.272 1.414a3.727 3.727 0 0 1 1.034-1.39 3.373 3.373 0 0 1 1.577-.761Zm12.214 7.187c-1.108.212-2.095.133-2.96-.239-.856-.385-1.432-1.032-1.729-1.941l1.679-.322c.251.477.606.8 1.066.968.47.155 1.046.166 1.73.035.636-.122 1.129-.321 1.48-.596.348-.286.49-.595.427-.925a.915.915 0 0 0-.556-.7c-.298-.15-.817-.215-1.559-.195l-1.041.016c-2.194.03-3.418-.62-3.674-1.952-.149-.778.073-1.468.666-2.071.59-.614 1.44-1.028 2.547-1.24 1.002-.192 1.902-.121 2.699.215.796.324 1.367.88 1.714 1.669l-1.786.343c-.209-.327-.532-.546-.969-.657a2.963 2.963 0 0 0-1.383-.046c-.613.117-1.084.305-1.413.564-.32.245-.449.526-.388.844.054.283.235.493.542.629.305.125.767.177 1.386.156l1.059-.02c1.241-.031 2.153.136 2.736.501.581.353.942.895 1.082 1.625.149.778-.078 1.475-.68 2.092-.593.603-1.485 1.018-2.675 1.247ZM1049.97 99.084c.38-1.14 1-2.139 1.87-2.998a8.11 8.11 0 0 1 3.06-1.913 7.32 7.32 0 0 1 3.51-.387c.92.122 1.72.407 2.4.855a4.35 4.35 0 0 1 1.58 1.71c.38.692.57 1.467.57 2.324l-1.98-.264c-.11-.813-.44-1.48-.97-2.004-.52-.533-1.23-.86-2.14-.98a5.12 5.12 0 0 0-2.5.29c-.82.308-1.55.781-2.18 1.422a5.54 5.54 0 0 0-1.34 2.195c-.28.831-.34 1.621-.17 2.368.17.737.54 1.351 1.1 1.842.56.491 1.26.793 2.1.905.91.121 1.77.009 2.57-.335a5.93 5.93 0 0 0 2.17-1.602l1.98.264a7.836 7.836 0 0 1-2 1.999c-.77.539-1.62.926-2.53 1.162-.9.224-1.81.275-2.73.153-1.19-.159-2.18-.571-2.98-1.237a4.852 4.852 0 0 1-1.58-2.53c-.25-1.02-.18-2.1.19-3.24Zm24.13.541-2.83 8.544-1.6-.214.45-1.367c-.49.423-1.04.741-1.66.956-.6.206-1.2.269-1.79.189-.73-.097-1.33-.332-1.82-.706-.47-.372-.78-.877-.93-1.516-.14-.648-.06-1.405.23-2.271l1.56-4.733 1.7.226-1.56 4.699c-.24.752-.21 1.381.11 1.887.31.506.82.806 1.52.9.52.068 1 .013 1.46-.164.47-.187.87-.466 1.2-.838.35-.37.6-.788.76-1.255l1.51-4.563 1.69.226Zm4 9.634c-1.11-.149-1.98-.526-2.58-1.13-.59-.615-.8-1.38-.62-2.295l1.69.226c0 .51.16.913.5 1.207.35.285.87.474 1.56.566.64.086 1.19.058 1.65-.084.46-.152.74-.388.85-.707.1-.319.05-.588-.16-.807-.2-.228-.64-.448-1.33-.659l-.96-.306c-2.02-.65-2.82-1.619-2.39-2.906.25-.752.79-1.31 1.63-1.674.85-.375 1.83-.488 2.95-.338 1.01.134 1.79.477 2.36 1.028.56.54.81 1.221.74 2.044l-1.81-.241c-.03-.361-.21-.659-.56-.895-.34-.248-.75-.404-1.24-.469-.62-.083-1.14-.057-1.57.076-.41.123-.67.338-.77.646-.09.273-.03.519.18.738.22.208.62.397 1.19.569l.98.309c1.15.356 1.9.789 2.25 1.3.36.499.42 1.102.19 1.809-.25.751-.81 1.314-1.66 1.688-.84.363-1.86.465-3.07.305Zm11.35-5.981-1.49 4.512c-.12.364-.12.655-.01.873.13.219.42.358.87.419.43.057.8.071 1.12.042l-.49 1.487c-.36.06-.77.058-1.23-.003-1.89-.253-2.54-1.267-1.95-3.044l1.49-4.512-1.79-.238.51-1.538 1.79.238.73-2.221 1.7.226-.74 2.221 2.5.334-.51 1.538-2.5-.334Zm6.75 8.394c-.88-.118-1.62-.418-2.22-.902a3.583 3.583 0 0 1-1.18-1.835c-.19-.739-.15-1.519.12-2.339.28-.82.73-1.539 1.37-2.155a5.868 5.868 0 0 1 2.24-1.378 5.562 5.562 0 0 1 2.61-.277c.87.116 1.59.421 2.18.915a3.43 3.43 0 0 1 1.18 1.834c.19.728.15 1.502-.12 2.322a5.37 5.37 0 0 1-1.37 2.172 6.122 6.122 0 0 1-2.25 1.378c-.84.292-1.69.381-2.56.265Zm.5-1.504a3.42 3.42 0 0 0 1.62-.176 3.93 3.93 0 0 0 1.42-.917c.41-.42.71-.904.89-1.451.18-.547.22-1.06.1-1.539a2.133 2.133 0 0 0-.72-1.202c-.36-.323-.82-.52-1.37-.593a3.442 3.442 0 0 0-1.66.188 3.66 3.66 0 0 0-1.42.917 3.59 3.59 0 0 0-.89 1.434c-.18.547-.21 1.066-.1 1.556.11.479.35.88.72 1.202.38.313.85.506 1.41.581Zm21.06-4.899c.71.095 1.3.328 1.76.699.48.372.77.882.89 1.529.14.636.07 1.388-.22 2.253l-1.57 4.734-1.69-.226 1.55-4.699c.25-.752.22-1.381-.08-1.885-.29-.503-.78-.8-1.46-.89-.73-.099-1.41.073-2.03.514a3.406 3.406 0 0 0-1.29 1.755l-1.51 4.562-1.69-.226 1.55-4.699c.25-.752.22-1.38-.08-1.885-.3-.503-.78-.799-1.46-.89-.74-.098-1.41.073-2.03.514a3.406 3.406 0 0 0-1.29 1.755l-1.51 4.563-1.7-.226 2.83-8.544 1.61.214-.45 1.35c.48-.424 1.01-.74 1.6-.947.6-.205 1.19-.269 1.76-.193.7.093 1.28.325 1.74.696.48.361.78.847.9 1.458a4.992 4.992 0 0 1 1.8-1.062c.7-.24 1.39-.314 2.07-.224Zm18.74-.891c1.33.177 2.4.593 3.2 1.247.81.656 1.33 1.475 1.55 2.456.23.97.15 2.018-.22 3.146a7.459 7.459 0 0 1-1.8 2.954 7.47 7.47 0 0 1-2.97 1.834c-1.15.394-2.39.502-3.72.324l-4.28-.571 3.96-11.961 4.28.571Zm-3.42 10.321c.94.125 1.82.058 2.64-.201.82-.26 1.52-.69 2.1-1.29.6-.61 1.05-1.354 1.34-2.231.29-.877.35-1.666.18-2.366a2.841 2.841 0 0 0-1.1-1.735c-.58-.446-1.35-.732-2.29-.858l-2.49-.333-2.88 8.681 2.5.333Zm15.75-5.287c.91.122 1.65.416 2.2.883.57.468.92 1.074 1.06 1.818.14.733.06 1.56-.25 2.483-.08.239-.14.415-.19.527l-7.32-.975c-.1.676.04 1.266.42 1.769.4.493.95.786 1.65.879 1.15.154 2.11-.141 2.86-.884l1.75.233c-.55.759-1.29 1.344-2.24 1.753-.94.398-1.89.532-2.87.402-.87-.116-1.59-.408-2.17-.878a3.29 3.29 0 0 1-1.11-1.808c-.17-.736-.11-1.525.17-2.368a5.49 5.49 0 0 1 1.34-2.194 5.485 5.485 0 0 1 2.15-1.373 5.397 5.397 0 0 1 2.55-.267Zm-.51 1.431a3.247 3.247 0 0 0-2.03.389c-.64.355-1.13.855-1.47 1.5l5.48.73c.15-.693.04-1.278-.33-1.757-.37-.476-.92-.764-1.65-.862Zm8.27 8.882c-1.12-.149-1.98-.525-2.59-1.13-.59-.614-.8-1.379-.62-2.295l1.7.226c-.01.511.15.913.49 1.208.35.285.88.473 1.57.565.64.086 1.19.058 1.64-.083.46-.153.75-.389.85-.708.11-.318.05-.587-.16-.806-.2-.229-.64-.448-1.33-.659l-.96-.306c-2.02-.651-2.81-1.619-2.39-2.907.25-.751.8-1.309 1.64-1.673.84-.375 1.82-.488 2.94-.339 1.01.135 1.8.478 2.36 1.029.57.539.81 1.22.74 2.043l-1.8-.24c-.03-.361-.22-.659-.56-.896-.34-.247-.76-.404-1.24-.469-.62-.082-1.15-.057-1.58.076-.41.124-.67.339-.77.647-.09.273-.03.519.19.738.21.207.61.397 1.19.569l.97.309c1.15.355 1.9.788 2.26 1.299.35.5.41 1.103.18 1.809-.25.752-.8 1.315-1.66 1.688-.84.364-1.86.466-3.06.305Zm11.12-2.834-1.59.93-.95 2.87-1.69-.226 3.98-12.047 1.7.226-2.42 7.297 5.42-3.239 2.24.3-5.05 2.93 2.6 5.664-2.27-.303-1.97-4.402Zm11.19-1.684-1.49 4.511c-.12.365-.13.656-.01.873.12.219.41.359.87.419.42.057.8.072 1.12.043l-.49 1.487c-.36.059-.77.058-1.23-.004-1.89-.252-2.55-1.267-1.96-3.044l1.5-4.511-1.79-.238.51-1.538 1.78.238.74-2.221 1.7.226-.74 2.221 2.5.333-.51 1.538-2.5-.333Zm6.75 8.393c-.88-.117-1.62-.418-2.22-.902a3.518 3.518 0 0 1-1.18-1.834c-.19-.739-.15-1.519.12-2.339.27-.821.73-1.539 1.37-2.156a5.866 5.866 0 0 1 2.24-1.377 5.549 5.549 0 0 1 2.61-.277c.87.116 1.59.42 2.17.914.6.484.99 1.096 1.18 1.835.2.728.16 1.502-.11 2.322a5.37 5.37 0 0 1-1.37 2.172 6.122 6.122 0 0 1-2.25 1.378c-.84.292-1.7.38-2.56.264Zm.49-1.503c.55.073 1.09.014 1.63-.176a3.943 3.943 0 0 0 1.42-.917c.41-.421.71-.905.89-1.451.18-.547.21-1.06.1-1.539a2.135 2.135 0 0 0-.72-1.203c-.37-.322-.82-.52-1.37-.593a3.455 3.455 0 0 0-1.66.189c-.54.19-1.01.496-1.43.917-.4.409-.7.887-.88 1.434-.18.547-.22 1.065-.11 1.556.12.479.36.88.72 1.202.39.313.86.506 1.41.581Zm14.81-5.734c.78.104 1.43.393 1.94.866.52.462.85 1.053 1 1.775.15.721.08 1.509-.2 2.363-.29.855-.72 1.593-1.32 2.216a5.6 5.6 0 0 1-2.04 1.387c-.77.29-1.54.383-2.33.278a3.351 3.351 0 0 1-1.55-.599c-.44-.332-.76-.75-.98-1.255l-1.39 4.186-1.69-.226 3.79-11.449 1.6.215-.45 1.384c.54-.439 1.12-.76 1.75-.962a4.199 4.199 0 0 1 1.87-.179Zm-2.73 7.344c.52.069 1.03.007 1.53-.188s.94-.499 1.33-.912c.39-.424.67-.915.86-1.473.18-.558.23-1.075.14-1.551-.09-.488-.3-.885-.63-1.191-.34-.306-.76-.494-1.29-.564a3.146 3.146 0 0 0-1.55.186c-.51.193-.96.502-1.35.926a3.9 3.9 0 0 0-.85 1.456c-.19.559-.24 1.081-.15 1.569.09.476.31.868.65 1.175.35.308.78.497 1.31.567Zm23.84-4.35-2.83 8.544-1.69-.226.42-1.282c-.52.407-1.08.706-1.7.898-.6.181-1.2.232-1.8.153-.78-.105-1.43-.388-1.95-.85a3.169 3.169 0 0 1-.99-1.791c-.15-.722-.08-1.51.2-2.364.29-.854.72-1.593 1.31-2.216.6-.623 1.27-1.08 2.04-1.37.77-.301 1.55-.4 2.33-.295.62.082 1.16.296 1.6.641.44.344.78.787.99 1.328l.46-1.384 1.61.214Zm-6.81 6.621c.52.07 1.04.008 1.55-.186.51-.193.96-.496 1.34-.909.39-.424.68-.915.86-1.473.19-.558.23-1.075.14-1.551-.08-.488-.3-.885-.64-1.193-.35-.308-.78-.497-1.31-.566a3.023 3.023 0 0 0-1.53.188c-.5.195-.94.504-1.33.928-.39.413-.67.898-.86 1.456-.18.558-.23 1.081-.14 1.569.09.476.3.867.63 1.173.33.306.76.494 1.29.564Zm15.33-5.664c.78.105 1.43.394 1.95.867.51.461.85 1.053.99 1.774.15.721.08 1.509-.2 2.364-.29.854-.72 1.593-1.31 2.216a5.722 5.722 0 0 1-2.05 1.387c-.76.29-1.54.383-2.33.278a3.341 3.341 0 0 1-1.55-.6c-.43-.331-.76-.75-.98-1.255l-1.39 4.187-1.69-.226 3.79-11.449 1.61.214-.46 1.384a5.338 5.338 0 0 1 1.75-.961 4.228 4.228 0 0 1 1.87-.18Zm-2.73 7.344c.52.07 1.03.007 1.53-.188s.94-.499 1.33-.911c.39-.424.67-.915.86-1.473.18-.559.23-1.076.14-1.552-.09-.487-.3-.884-.63-1.19-.34-.306-.76-.494-1.29-.564a3.134 3.134 0 0 0-1.55.186c-.51.193-.96.502-1.35.926-.38.412-.67.898-.85 1.456-.19.558-.24 1.081-.15 1.568.09.476.31.868.65 1.176.35.308.78.496 1.31.566Zm14.6-5.761c.78.105 1.43.394 1.94.867.52.461.85 1.053 1 1.774.15.721.08 1.509-.2 2.364-.29.854-.72 1.593-1.32 2.216a5.6 5.6 0 0 1-2.04 1.387c-.76.29-1.54.383-2.33.278a3.341 3.341 0 0 1-1.55-.6c-.44-.331-.76-.75-.98-1.255l-1.39 4.187-1.69-.226 3.79-11.449 1.6.214-.45 1.384a5.36 5.36 0 0 1 1.75-.962 4.213 4.213 0 0 1 1.87-.179Zm-2.73 7.344c.52.07 1.03.007 1.53-.188s.94-.499 1.33-.911c.39-.424.67-.915.86-1.474.18-.558.23-1.075.14-1.551-.09-.487-.3-.884-.63-1.19-.34-.306-.76-.494-1.29-.564a3.145 3.145 0 0 0-1.55.185c-.51.194-.96.503-1.35.927-.38.412-.67.898-.85 1.456-.19.558-.24 1.081-.15 1.568.09.476.31.868.65 1.176.35.308.78.496 1.31.566Zm10.17 2.927c-1.12-.149-1.98-.526-2.59-1.13-.59-.614-.8-1.379-.62-2.295l1.7.226c-.01.51.16.913.49 1.208.36.285.88.473 1.57.565.64.086 1.19.058 1.65-.083.46-.153.74-.389.84-.708.11-.319.06-.588-.16-.806-.19-.229-.64-.449-1.33-.659l-.96-.307c-2.02-.65-2.81-1.619-2.39-2.906.25-.752.8-1.31 1.64-1.673.84-.375 1.82-.488 2.94-.339 1.01.135 1.8.478 2.36 1.028.57.54.82 1.221.74 2.044l-1.8-.24c-.03-.361-.22-.66-.56-.896-.34-.248-.76-.404-1.24-.469-.62-.082-1.15-.057-1.57.076-.42.123-.68.339-.78.646-.09.274-.03.52.19.739.21.207.61.397 1.19.569l.98.309c1.14.355 1.9.788 2.25 1.299.35.5.42 1.103.18 1.809-.25.752-.8 1.314-1.66 1.688-.84.364-1.86.465-3.06.305ZM711.884 67.649c.642.175 1.163.47 1.564.885.398.402.665.908.802 1.517.149.667.125 1.3-.073 1.898-.188.583-.547 1.094-1.076 1.533-.529.438-1.209.75-2.04.937l-5.515 1.238-2.759-12.294 5.497-1.234c.796-.178 1.514-.186 2.153-.022.64.164 1.162.465 1.568.903.417.435.697.968.839 1.6.131.586.12 1.136-.036 1.65-.155.515-.463.978-.924 1.389Zm-2.482-.126c.703-.157 1.193-.44 1.471-.846.286-.421.359-.948.217-1.58-.271-1.206-1.115-1.65-2.531-1.332l-3.653.82.843 3.758 3.653-.82Zm1.208 5.3c.726-.163 1.24-.45 1.541-.862.301-.412.381-.934.239-1.566-.137-.61-.427-1.024-.87-1.244-.445-.232-1.031-.267-1.757-.104l-3.671.824.848 3.776 3.67-.824Zm9.958-9.946c.281-.063.549-.105.802-.125l.367 1.634c-.221 0-.56.052-1.017.154a2.72 2.72 0 0 0-1.291.659c-.334.32-.567.705-.7 1.153a2.7 2.7 0 0 0-.029 1.353l1.069 4.76-1.669.374-1.971-8.781 1.581-.355.303 1.352a3.632 3.632 0 0 1 .999-1.386 3.48 3.48 0 0 1 1.556-.792Zm8.832 7.61a4.905 4.905 0 0 1-2.505-.064 4.675 4.675 0 0 1-2.057-1.273 4.624 4.624 0 0 1-1.135-2.18 4.535 4.535 0 0 1 .098-2.439 4.5 4.5 0 0 1 1.316-2.03 4.79 4.79 0 0 1 2.233-1.146 4.664 4.664 0 0 1 2.474.09 4.5 4.5 0 0 1 2.056 1.273c.565.599.942 1.32 1.131 2.162a4.634 4.634 0 0 1-.094 2.457 4.673 4.673 0 0 1-1.316 2.03 4.77 4.77 0 0 1-2.201 1.12Zm-.347-1.545a2.964 2.964 0 0 0 1.388-.717c.385-.37.655-.811.81-1.326a3.24 3.24 0 0 0 .039-1.632 3.13 3.13 0 0 0-.729-1.441 2.848 2.848 0 0 0-1.298-.853 2.865 2.865 0 0 0-1.566-.073 2.988 2.988 0 0 0-1.42.743 2.85 2.85 0 0 0-.81 1.326 3.134 3.134 0 0 0-.043 1.615c.126.561.371 1.048.733 1.458.36.4.793.683 1.299.853.514.155 1.046.17 1.597.047Zm18.324-11.898-.698 9.38-2.038.458-3.695-6.273-.731 7.266-1.984.446-4.623-8.186 1.809-.406 3.432 6.498.748-7.437 1.844-.413 3.815 6.393.33-7.324 1.791-.402Zm7.481 7.73c-1.101.246-2.09.198-2.966-.147-.868-.358-1.464-.987-1.789-1.886l1.669-.374c.265.47.63.78 1.095.935.474.14 1.051.133 1.73-.02.632-.142 1.119-.355 1.461-.641.339-.298.472-.61.398-.938a.914.914 0 0 0-.577-.682c-.303-.142-.824-.19-1.565-.147l-1.04.049c-2.192.098-3.436-.514-3.733-1.837-.173-.773.027-1.47.601-2.09.571-.633 1.407-1.073 2.508-1.32.995-.223 1.896-.18 2.704.131a3.077 3.077 0 0 1 1.765 1.615l-1.774.398c-.22-.32-.549-.529-.99-.627a2.975 2.975 0 0 0-1.384-.003c-.609.137-1.074.34-1.394.609-.312.254-.433.54-.362.855.063.281.25.485.562.612.309.116.772.153 1.39.113l1.058-.053c1.239-.07 2.156.07 2.75.416.592.334.969.864 1.132 1.59.173.773-.031 1.477-.614 2.112-.574.62-1.453 1.064-2.635 1.33Zm8.464-11.493c.902-.203 1.73-.186 2.484.05.766.235 1.41.668 1.933 1.3.521.622.888 1.407 1.101 2.355.055.246.09.429.104.549l-7.2 1.616a2.854 2.854 0 0 0 1.326 1.473 2.864 2.864 0 0 0 1.973.24c1.136-.255 1.85-.852 2.144-1.791l1.721-.386c-.097.882-.467 1.672-1.11 2.37-.645.686-1.448 1.137-2.408 1.352-.855.192-1.671.172-2.449-.059a4.35 4.35 0 0 1-1.982-1.27c-.544-.616-.913-1.358-1.108-2.224-.194-.866-.176-1.688.055-2.466.229-.79.64-1.453 1.232-1.992.601-.553 1.33-.926 2.184-1.117Zm.296 1.483c-.691.155-1.239.505-1.645 1.052-.395.543-.574 1.168-.539 1.873l5.392-1.21c-.228-.687-.641-1.184-1.239-1.493-.587-.311-1.243-.385-1.969-.222Zm11.543-4.14c.281-.064.549-.105.802-.126l.367 1.634c-.221 0-.56.052-1.017.154a2.719 2.719 0 0 0-1.291.66c-.334.32-.567.704-.7 1.152a2.7 2.7 0 0 0-.029 1.354l1.069 4.76-1.669.374-1.971-8.782 1.581-.355.303 1.353a3.632 3.632 0 0 1 .999-1.387 3.48 3.48 0 0 1 1.556-.792Zm17.263-3.691 1.971 8.781-1.668.375-.296-1.317a4.086 4.086 0 0 1-1.069 1.402 3.732 3.732 0 0 1-1.564.757 4.062 4.062 0 0 1-2.238-.107 4.299 4.299 0 0 1-1.859-1.298c-.518-.61-.876-1.353-1.073-2.231-.197-.878-.192-1.704.016-2.476a4.17 4.17 0 0 1 1.13-1.95 3.973 3.973 0 0 1 1.974-1.071 3.653 3.653 0 0 1 1.798.04c.59.162 1.129.453 1.617.872l-.32-1.422 1.581-.355Zm-2.692 8.39a2.704 2.704 0 0 0 2.061-1.995c.129-.52.129-1.068.001-1.642a3.431 3.431 0 0 0-.698-1.466 2.683 2.683 0 0 0-1.228-.868 2.708 2.708 0 0 0-1.492-.071 2.617 2.617 0 0 0-1.301.697c-.352.35-.592.785-.721 1.306a3.414 3.414 0 0 0-.005 1.624c.129.574.363 1.069.702 1.485.337.404.739.689 1.207.854.467.166.959.19 1.474.075Zm10.982-10.435a3.97 3.97 0 0 1 2.241.124 4.166 4.166 0 0 1 1.856 1.28c.518.61.875 1.354 1.072 2.232.197.878.192 1.703-.016 2.475a4.297 4.297 0 0 1-1.126 1.969 4.063 4.063 0 0 1-1.978 1.052 3.729 3.729 0 0 1-1.737-.015 4.085 4.085 0 0 1-1.566-.811l.966 4.303-1.668.374-2.642-11.767 1.581-.355.319 1.423a4.154 4.154 0 0 1 1.089-1.48c.463-.4 1-.668 1.609-.804Zm1.422 7.65a2.615 2.615 0 0 0 1.3-.698c.352-.35.594-.779.726-1.288a3.53 3.53 0 0 0 0-1.642 3.42 3.42 0 0 0-.698-1.467 2.72 2.72 0 0 0-1.21-.872 2.618 2.618 0 0 0-1.475-.075 2.675 2.675 0 0 0-2.057 2.011 3.414 3.414 0 0 0-.004 1.625c.128.574.362 1.069.702 1.485a2.695 2.695 0 0 0 2.716.921Zm10.261-10.273a3.973 3.973 0 0 1 2.242.124 4.164 4.164 0 0 1 1.855 1.281c.518.61.876 1.353 1.073 2.231.197.878.192 1.704-.016 2.476a4.298 4.298 0 0 1-1.127 1.968 4.057 4.057 0 0 1-1.977 1.053 3.734 3.734 0 0 1-1.738-.016 4.089 4.089 0 0 1-1.565-.81l.966 4.302-1.669.375-2.641-11.767 1.58-.355.32 1.422a4.14 4.14 0 0 1 1.088-1.48c.464-.4 1-.667 1.609-.804Zm1.422 7.65a2.617 2.617 0 0 0 1.301-.697 2.74 2.74 0 0 0 .725-1.288c.129-.521.129-1.069.001-1.642a3.43 3.43 0 0 0-.698-1.467 2.723 2.723 0 0 0-1.211-.872 2.616 2.616 0 0 0-1.474-.075 2.674 2.674 0 0 0-2.057 2.011 3.413 3.413 0 0 0-.005 1.625c.129.574.363 1.068.702 1.484.337.404.745.688 1.224.85.48.164.977.187 1.492.072Zm10.852-.812c-1.101.247-2.09.199-2.966-.146-.868-.358-1.464-.987-1.789-1.886l1.669-.374c.265.469.63.78 1.095.934.474.14 1.051.134 1.73-.019.632-.142 1.119-.355 1.461-.641.339-.298.472-.61.398-.938a.914.914 0 0 0-.577-.682c-.303-.142-.824-.19-1.565-.147l-1.04.049c-2.192.098-3.436-.514-3.733-1.837-.173-.773.027-1.47.601-2.09.571-.633 1.407-1.073 2.508-1.32.995-.223 1.896-.18 2.704.13a3.076 3.076 0 0 1 1.765 1.616l-1.774.398c-.22-.32-.549-.529-.99-.627a2.974 2.974 0 0 0-1.384-.003c-.609.137-1.074.34-1.394.609-.312.254-.433.54-.362.855.063.282.25.485.562.612.309.116.772.153 1.39.113l1.058-.053c1.239-.07 2.156.07 2.75.415.592.335.969.865 1.132 1.591.173.773-.031 1.477-.614 2.112-.574.62-1.453 1.064-2.635 1.33Z"/><defs><linearGradient id="a" x1="-74.715" x2="111.432" y1="695.651" y2="981.982" gradientUnits="userSpaceOnUse"><stop stop-color="#D6FFBB"/><stop offset="1" stop-color="#5869DD"/></linearGradient><linearGradient id="b" x1="90.818" x2="400.945" y1="434.316" y2="622.499" gradientUnits="userSpaceOnUse"><stop stop-color="#D6FFBB"/><stop offset=".181" stop-color="#5869DD"/></linearGradient><linearGradient id="c" x1="238.591" x2="296.907" y1="465.559" y2="479.064" gradientUnits="userSpaceOnUse"><stop stop-color="#D6FFBB"/><stop offset="1" stop-color="#5869DD"/></linearGradient><linearGradient id="d" x1="119.387" x2="215.262" y1="519.304" y2="470.442" gradientUnits="userSpaceOnUse"><stop stop-color="#D6FFBB"/><stop offset="1" stop-color="#5869DD"/></linearGradient><linearGradient id="e" x1="286.481" x2="336.014" y1="485.909" y2="521.278" gradientUnits="userSpaceOnUse"><stop stop-color="#D6FFBB"/><stop offset="1" stop-color="#5869DD"/></linearGradient><linearGradient id="f" x1="149.058" x2="215.688" y1="477.038" y2="473.403" gradientUnits="userSpaceOnUse"><stop stop-color="#D6FFBB"/><stop offset="1" stop-color="#5869DD"/></linearGradient><linearGradient id="g" x1="259.475" x2="359.613" y1="629.956" y2="675.934" gradientUnits="userSpaceOnUse"><stop stop-color="#D6FFBB"/><stop offset="1" stop-color="#5869DD"/></linearGradient><linearGradient id="h" x1="106.434" x2="197.536" y1="527.956" y2="575.911" gradientUnits="userSpaceOnUse"><stop stop-color="#D6FFBB"/><stop offset="1" stop-color="#5869DD"/></linearGradient><linearGradient id="i" x1="-1.839" x2="311.298" y1="884.956" y2="854.313" gradientUnits="userSpaceOnUse"><stop stop-color="#D6FFBB"/><stop offset="1" stop-color="#5869DD"/></linearGradient><linearGradient id="j" x1="143.705" x2="158.272" y1="464.894" y2="375.146" gradientUnits="userSpaceOnUse"><stop stop-color="#5869DD"/><stop offset="1" stop-color="#D6FFBB"/></linearGradient><linearGradient id="k" x1="458.967" x2="323.53" y1="1266.92" y2="1258.52" gradientUnits="userSpaceOnUse"><stop stop-color="#5869DD"/><stop offset="1" stop-color="#D6FFBB"/></linearGradient><linearGradient id="l" x1="-48.688" x2="85.541" y1="617.956" y2="606.806" gradientUnits="userSpaceOnUse"><stop stop-color="#D6FFBB"/><stop offset="1" stop-color="#5869DD"/></linearGradient><linearGradient id="m" x1="147.177" x2="274.631" y1="911.343" y2="873.397" gradientUnits="userSpaceOnUse"><stop stop-color="#5869DD"/><stop offset="1" stop-color="#D6FFBB"/></linearGradient><linearGradient id="n" x1="166.997" x2="207.478" y1="663.668" y2="663.668" gradientUnits="userSpaceOnUse"><stop stop-color="#D6FFBB"/><stop offset="1" stop-color="#5869DD"/></linearGradient></defs></svg>
