<svg xmlns="http://www.w3.org/2000/svg" width="111" height="322" fill="none" viewBox="0 0 111 322"><g clip-path="url(#a)"><path fill="#8F8E93" d="M-85.21 35.203h-.86c0-.474.385-.859.86-.859v.86Zm0 189.364-.625.59a.86.86 0 0 1-.235-.59h.86Zm64.408-23.617-.591-.623a.861.861 0 0 1 .591-.236v.859Zm-25.763 24.476.591.622a.86.86 0 0 1-.61.236l.019-.858Zm40.792-94.038v-.859c.155 0 .308.042.44.122l-.44.737Zm-57.11 0-.406-.756a.852.852 0 0 1 .407-.103v.859Zm57.11-27.052v.859a.86.86 0 0 1-.639-.285l.64-.574ZM-20.802 87.59l.012-.86c.24.004.467.107.628.286l-.64.573ZM13.98 55.814l-.479-.712a.859.859 0 0 1 .48-.147v.86ZM-8.349 70.843l.48.712a.859.859 0 0 1-.48.147v-.859ZM3.245 7.722l-.612-.603a.859.859 0 0 1 .612-.256v.859Zm-27.052 27.481.612.603a.859.859 0 0 1-.612.256v-.859ZM-71.47 247.325h8.588v1.717h-8.588v-1.717Zm7.964 1.449-22.329-23.617 1.248-1.18 22.329 23.617-1.248 1.18Zm127.725.268H-62.882v-1.717h127.1v1.717Zm0-47.233h-85.02v-1.718h85.02v1.718Zm-84.429-.236-25.764 24.475-1.183-1.245 25.764-24.476 1.183 1.246Zm-26.374 24.711-38.646-.859.038-1.717 38.646.859-.038 1.717Zm110.803-72.997H29.438v-1.718h34.78v1.718Zm-34.781 0h-50.24v-1.718h50.24v1.718Zm-.44-.122-35.211-21.04.88-1.474 35.211 21.04-.88 1.474Zm-34.77-20.918h-57.11v-1.718h57.11v1.718Zm-80.298 92.32v-81.156h1.718v81.156h-1.718Zm23.595-92.423-22.329 12.023-.814-1.512 22.328-12.023.815 1.512Zm126.694-26.949H-5.773v-1.718H64.22v1.718Zm-70.63-.285-15.03-16.747 1.279-1.147 15.028 16.746-1.278 1.148Zm-14.402-16.462-64.41-.859.023-1.717 64.41.859-.023 1.717Zm85.032-31.775h-50.24v-1.718h50.24v1.718Zm-49.76-.146L-7.87 71.555l-.959-1.424L13.5 55.1l.96 1.426Zm-98.811-21.324v35.64h-1.718v-35.64h1.718ZM-8.35 71.702h-76.862v-1.718h76.862v1.718ZM64.219 8.58H3.245V6.863h60.974v1.718ZM3.857 8.324l-27.052 27.482-1.224-1.205L2.633 7.119l1.224 1.205Zm-27.664 27.738h-61.404v-1.718h61.404v1.718Zm-60.545 34.781v4.509h-1.718v-4.509h1.718Zm0 4.509V86.73h-1.718V75.35h1.718Zm0 11.379v50.239h-1.718V86.73h1.718Zm0 50.239v6.441h-1.718v-6.441h1.718Z"/><path fill="#000" d="M69.89 4.947A5.027 5.027 0 1 0 69.843 15a5.027 5.027 0 0 0 .045-10.053Z"/><path fill="#F0EFED" stroke="#000" stroke-width=".838" d="M59.419 8.006a4.608 4.608 0 1 1 9.215.042 4.608 4.608 0 0 1-9.215-.042Z"/><path fill="#000" d="M69.89 52.947A5.027 5.027 0 1 0 69.843 63a5.027 5.027 0 0 0 .045-10.053Z"/><path fill="#F0EFED" stroke="#000" stroke-width=".838" d="M59.419 56.006a4.608 4.608 0 1 1 9.216.042 4.608 4.608 0 0 1-9.216-.042Z"/><path fill="#000" d="M69.89 100.947A5.026 5.026 0 1 0 69.843 111a5.027 5.027 0 1 0 .045-10.053Z"/><path fill="#F0EFED" stroke="#000" stroke-width=".838" d="M59.419 104.006a4.608 4.608 0 1 1 9.216.042 4.608 4.608 0 0 1-9.216-.042Z"/><path fill="#000" d="M69.89 148.947A5.026 5.026 0 1 0 69.843 159a5.027 5.027 0 1 0 .045-10.053Z"/><path fill="#F0EFED" stroke="#000" stroke-width=".838" d="M59.419 152.006a4.608 4.608 0 1 1 9.215.041 4.608 4.608 0 0 1-9.215-.041Z"/><path fill="#000" d="M69.89 197.947A5.026 5.026 0 1 0 69.843 208a5.027 5.027 0 1 0 .045-10.053Z"/><path fill="#F0EFED" stroke="#000" stroke-width=".838" d="M59.419 201.006a4.608 4.608 0 1 1 9.215.041 4.608 4.608 0 0 1-9.215-.041Z"/><path fill="#000" d="M69.89 244.947A5.026 5.026 0 1 0 69.843 255a5.027 5.027 0 1 0 .045-10.053Z"/><path fill="#F0EFED" stroke="#000" stroke-width=".838" d="M59.419 248.006a4.608 4.608 0 1 1 9.215.041 4.608 4.608 0 0 1-9.215-.041Z"/></g><defs><clipPath id="a"><path fill="#fff" d="M0 0h111v322H0z"/></clipPath></defs></svg>
