<svg width="38" height="38" viewBox="0 0 38 38" fill="none" xmlns="http://www.w3.org/2000/svg">
<path d="M27.773 29.7218H29.7225V31.6707H27.773V29.7218Z" fill="black"/>
<path d="M21.9251 29.7218H23.874V31.6707H21.9251V29.7218Z" fill="black"/>
<path d="M16.0765 27.7723H21.925L21.9251 29.7218L16.0765 29.7218V27.7723Z" fill="black"/>
<path d="M14.1277 29.7218L16.0765 29.7218L16.0766 31.6707H14.1277V29.7218Z" fill="black"/>
<path d="M8.27925 29.7218H10.2288V31.6707H8.27925V29.7218Z" fill="black"/>
<path d="M31.6714 18.0254H33.6209V25.8228H31.6714V18.0254Z" fill="black"/>
<path d="M6.33031 25.8228H8.27916L8.27925 29.7218L6.33031 29.7218V25.8228Z" fill="black"/>
<path d="M10.2288 31.6707H14.1277L14.1277 33.6201H10.2287L10.2288 31.6707Z" fill="black"/>
<path d="M14.1277 33.6201L23.874 33.6201V35.5696H14.1277L14.1277 33.6201Z" fill="black"/>
<path d="M29.7224 25.8228L31.6714 25.8228L31.6713 29.7218L29.7225 29.7218L29.7224 25.8228Z" fill="black"/>
<path d="M23.874 31.6707H27.773L27.773 33.6201L23.874 33.6201L23.874 31.6707Z" fill="black"/>
<path d="M8.27925 19.9749H12.1783V21.9244H8.27925V19.9749Z" fill="black"/>
<path d="M18.0261 21.9244V23.8732H16.0766V25.8227H14.1278V23.8732H12.1783L12.1783 21.9244L18.0261 21.9244Z" fill="black"/>
<path d="M25.8234 21.9244V23.8732H23.8739V25.8227H21.9251V23.8732H19.9756V21.9244H25.8234Z" fill="black"/>
<path d="M25.8234 19.9749H29.7224V21.9244L25.8234 21.9244L25.8234 19.9749Z" fill="black"/>
<path d="M31.6713 12.1775L31.6714 18.0254L27.773 18.0254V14.127H25.8235V10.228H23.874V14.127H21.9251V19.9749H19.9756V18.0254H18.0261V16.0759H16.0766V12.1775H14.1277V18.0254H12.1782V16.0759H10.2287V14.127H8.27922V18.0254H6.33036L6.33031 25.8228L4.38086 25.8228V14.127H6.33036V10.228H8.27922V8.27853H10.2287V10.228H12.1782V6.32967H14.1277V4.38017H16.0766V6.32967H18.0261V8.27853H19.9756V4.38017H21.9251V2.43066H23.874V4.38017H25.8235V6.32967H27.773V8.27853H29.7225V12.1775H31.6713Z" fill="black"/>
</svg>
