<svg width="43" height="49" viewBox="0 0 43 49" fill="none" xmlns="http://www.w3.org/2000/svg">
<path d="M33.9962 39.7733H36.7733V42.5496H33.9962V39.7733Z" fill="black"/>
<path d="M25.6657 39.7733H28.4419V42.5496H25.6657V39.7733Z" fill="black"/>
<path d="M17.3342 36.9962H25.6656L25.6657 39.7733L17.3342 39.7733V36.9962Z" fill="black"/>
<path d="M14.5581 39.7733L17.3342 39.7733L17.3343 42.5496H14.5581V39.7733Z" fill="black"/>
<path d="M6.22672 39.7733H9.00385V42.5496H6.22672V39.7733Z" fill="black"/>
<path d="M39.5495 23.1115H42.3267V34.2191H39.5495V23.1115Z" fill="black"/>
<path d="M3.45039 34.2191H6.2266L6.22672 39.7733L3.45039 39.7733V34.2191Z" fill="black"/>
<path d="M9.00385 42.5496H14.5581L14.558 45.3266H9.00378L9.00385 42.5496Z" fill="black"/>
<path d="M14.558 45.3266L28.4419 45.3266V48.1038H14.5581L14.558 45.3266Z" fill="black"/>
<path d="M36.7732 34.2191L39.5495 34.2191L39.5494 39.7733L36.7733 39.7733L36.7732 34.2191Z" fill="black"/>
<path d="M28.4419 42.5496H33.9962L33.9961 45.3266L28.4419 45.3266L28.4419 42.5496Z" fill="black"/>
<path d="M6.22672 25.8885H11.781V28.6657H6.22672V25.8885Z" fill="black"/>
<path d="M20.1115 28.6657V31.4419H17.3343V34.219H14.5581V31.4419H11.781L11.781 28.6657L20.1115 28.6657Z" fill="black"/>
<path d="M31.219 28.6657V31.4419H28.4418V34.219H25.6656V31.4419H22.8885V28.6657H31.219Z" fill="black"/>
<path d="M31.2189 25.8885H36.7732V28.6657L31.219 28.6657L31.2189 25.8885Z" fill="black"/>
<path d="M39.5495 14.781L39.5495 23.1115L33.9961 23.1114V17.5581H31.219V12.0038H28.4419V17.5581H25.6657V25.8886H22.8885V23.1114H20.1114V20.3343H17.3343V14.781H14.5581V23.1114H11.7809V20.3343H9.00381V17.5581H6.22668V23.1114H3.45047L3.45039 34.2191L0.67334 34.219V17.5581H3.45047V12.0038H6.22668V9.22671H9.00381V12.0038H11.7809V6.4505H14.5581V3.67337H17.3343V6.4505H20.1114V9.22671H22.8885V3.67337H25.6657V0.89624H28.4419V3.67337H31.219V6.4505H33.9961V9.22671H36.7733V14.781H39.5495Z" fill="black"/>
</svg>
