<svg width="38" height="38" viewBox="0 0 38 38" fill="none" xmlns="http://www.w3.org/2000/svg">
<path d="M15.1956 23.5641H12.913V25.8467H15.1956V23.5641Z" fill="black"/>
<path d="M25.0867 19.758H22.8041V25.8449H25.0867V19.758Z" fill="black"/>
<path d="M15.1956 12.1501H12.913V17.4762H15.1956V12.1501Z" fill="black"/>
<path d="M22.8044 17.4771H15.1957V19.7596H22.8044V17.4771Z" fill="black"/>
<path d="M19.7607 9.8675V6.824H17.4781V9.8675H15.1955L15.1956 12.1501L22.8042 12.1501V9.8675H19.7607Z" fill="black"/>
<path d="M25.087 12.1501L22.8042 12.1501L22.8044 14.4327H25.087V12.1501Z" fill="black"/>
<path d="M15.1955 25.8461V28.1287H17.4781V31.1722H19.7607V28.1287H22.8042V25.8461H15.1955Z" fill="black"/>
<path d="M8.34808 6.06406H6.06549V8.34665H8.34808V6.06406Z" fill="black"/>
<path d="M12.9135 3.78105H8.34824L8.34808 6.06406L12.9135 6.06364V3.78105Z" fill="black"/>
<path d="M25.0874 1.49805H12.9134L12.9135 3.78105L25.0874 3.78064V1.49805Z" fill="black"/>
<path d="M31.9352 6.06305H29.6527V8.34565H31.9352V6.06305Z" fill="black"/>
<path d="M29.6524 3.78105L25.0874 3.78064L25.0871 6.06364H29.6524V3.78105Z" fill="black"/>
<path d="M34.2175 8.34606H31.9349V12.9113H34.2175V8.34606Z" fill="black"/>
<path d="M36.5 12.9131H34.2174V25.087H36.5V12.9131Z" fill="black"/>
<path d="M34.2175 25.0842H31.9349V29.6494H34.2175V25.0842Z" fill="black"/>
<path d="M3.78259 12.9079H1.5V25.0819H3.78259V12.9079Z" fill="black"/>
<path d="M6.0652 8.34304H3.78261L3.78259 12.9079L6.0652 12.9083V8.34304Z" fill="black"/>
<path d="M6.06522 25.082L3.78259 25.0819L3.78263 29.6472H6.06522V25.082Z" fill="black"/>
<path d="M8.34798 29.647L6.06522 29.6472L6.06538 31.9296H8.34798V29.647Z" fill="black"/>
<path d="M25.0874 34.2191H12.9135V36.5017H25.0874V34.2191Z" fill="black"/>
<path d="M29.6525 31.9351H25.0873V34.2177H29.6525V31.9351Z" fill="black"/>
<path d="M12.9135 31.9351H8.34824V34.2177H12.9135V31.9351Z" fill="black"/>
<path d="M31.935 29.6501H29.6524V31.9327H31.935V29.6501Z" fill="black"/>
</svg>
