<svg width="36" height="36" viewBox="0 0 36 36" fill="none" xmlns="http://www.w3.org/2000/svg">
<path d="M2.78258 2.78303H0.5V24.0873H2.78258V2.78303Z" fill="black"/>
<path d="M33.2172 0.5H2.78243L2.78258 2.78303L33.2172 2.78258V0.5Z" fill="black"/>
<path d="M35.5 2.78303L33.2172 2.78258L33.2174 24.0873H35.5V2.78303Z" fill="black"/>
<path d="M13.4347 30.9369H11.1521V33.2195H13.4347V30.9369Z" fill="black"/>
<path d="M15.717 28.652H13.4344V30.9345H15.717V28.652Z" fill="black"/>
<path d="M18 26.367H15.7174V28.6496H18V26.367Z" fill="black"/>
<path d="M33.2175 24.086H18.0001V26.3686H33.2175V24.086Z" fill="black"/>
<path d="M11.913 11.152H7.3478V15.7172H11.913V11.152Z" fill="black"/>
<path d="M20.2826 11.152H15.7174V15.7172H20.2826V11.152Z" fill="black"/>
<path d="M28.6521 11.152H24.0869V15.7172H28.6521V11.152Z" fill="black"/>
<path d="M8.86961 33.2165V24.086H2.78263V26.3687H6.58703V35.4991H11.1522V33.2165H8.86961Z" fill="black"/>
</svg>
