<svg width="47" height="47" viewBox="0 0 47 47" fill="none" xmlns="http://www.w3.org/2000/svg">
<path d="M28.4275 12.6594H18.5725V15.6159H28.4275V12.6594Z" fill="black"/>
<path d="M28.4275 31.3841H18.5725V34.3406H28.4275V31.3841Z" fill="black"/>
<path d="M34.3405 18.5725H31.384V28.4276H34.3405V18.5725Z" fill="black"/>
<path d="M15.6159 18.5725H12.6594V28.4276H15.6159V18.5725Z" fill="black"/>
<path d="M18.5725 15.616H15.616V18.5725H18.5725V15.616Z" fill="black"/>
<path d="M31.384 15.616H28.4275V18.5725H31.384V15.616Z" fill="black"/>
<path d="M18.5725 28.4276H15.616V31.3841H18.5725V28.4276Z" fill="black"/>
<path d="M31.384 28.4276H28.4275V31.3841H31.384V28.4276Z" fill="black"/>
<path d="M17.5869 3.78987V6.74645H11.6739V9.70295H20.5435V3.78987H17.5869Z" fill="black"/>
<path d="M6.7463 6.74645H3.78981V11.674H6.7463V6.74645Z" fill="black"/>
<path d="M11.6739 3.78987H6.74639V6.74636L11.6739 6.74645V3.78987Z" fill="black"/>
<path d="M40.2536 3.78987H35.326V6.74636H40.2536V3.78987Z" fill="black"/>
<path d="M43.2101 6.74645L40.2536 6.74636V11.674H43.2101V6.74645Z" fill="black"/>
<path d="M29.4131 6.74645V3.78987H26.4565V9.70295H35.326V6.74636L29.4131 6.74645Z" fill="black"/>
<path d="M26.4566 0.833374H20.5435V3.78987H26.4566V0.833374Z" fill="black"/>
<path d="M3.78981 26.4565V29.4131H6.74639V35.3261H9.70289V26.4565H3.78981Z" fill="black"/>
<path d="M6.74639 35.3261H3.78981V40.2536H6.7463L6.74639 35.3261Z" fill="black"/>
<path d="M11.6739 40.2536H6.7463L6.74639 43.2101H11.6739V40.2536Z" fill="black"/>
<path d="M26.4565 37.2971V43.2102H29.4131V40.2536H35.326V37.2971H26.4565Z" fill="black"/>
<path d="M37.2971 26.4565V35.3261H40.2536V29.4131H43.2102V26.4565H37.2971Z" fill="black"/>
<path d="M43.2101 35.3261H40.2536V40.2536H43.2101V35.3261Z" fill="black"/>
<path d="M40.2536 40.2536H35.326V43.2101H40.2536V40.2536Z" fill="black"/>
<path d="M11.6739 37.2971V40.2536H17.5869V43.2102H20.5435V37.2971H11.6739Z" fill="black"/>
<path d="M26.4566 43.2102H20.5435V46.1667H26.4566V43.2102Z" fill="black"/>
<path d="M40.2536 17.587V11.674H37.2971V20.5436L43.2102 20.5435V17.587H40.2536Z" fill="black"/>
<path d="M46.1666 20.5435H43.2102V26.4566H46.1666V20.5435Z" fill="black"/>
<path d="M3.78981 20.5435H0.833313V26.4566H3.78981V20.5435Z" fill="black"/>
<path d="M6.7463 11.674L6.74639 17.587H3.78981V20.5435H9.70289V11.674H6.7463Z" fill="black"/>
</svg>
