<svg width="49" height="45" viewBox="0 0 49 45" fill="none" xmlns="http://www.w3.org/2000/svg">
<path d="M4.84969 4.81757H8.77973V8.74761H4.84969V4.81757Z" fill="black"/>
<path d="M20.5701 0.885742H24.5001V4.81579H20.5701V0.885742Z" fill="black"/>
<path d="M16.6401 0.885742H20.5701V4.81579H16.6401V0.885742Z" fill="black"/>
<path d="M20.5701 28.397H24.5001V32.3271H20.5701V28.397Z" fill="black"/>
<path d="M40.2202 40.1841H44.1503V44.1142H40.2202V40.1841Z" fill="black"/>
<path d="M36.2905 36.2575H40.2205V40.1875H36.2905V36.2575Z" fill="black"/>
<path d="M32.36 32.3238H36.29V36.2538H32.36V32.3238Z" fill="black"/>
<path d="M40.2205 36.2575H44.1503V40.1875H40.2205V36.2575Z" fill="black"/>
<path d="M44.1503 40.1841H48.08V44.1142H44.1503V40.1841Z" fill="black"/>
<path d="M36.29 32.3238H40.2204V36.2538H36.29V32.3238Z" fill="black"/>
<path d="M32.36 28.397H36.2901V32.3271H32.36V28.397Z" fill="black"/>
<path d="M28.4301 28.397H32.36V32.3271H28.4301V28.397Z" fill="black"/>
<path d="M16.6401 28.397H20.5701V32.3271H16.6401V28.397Z" fill="black"/>
<path d="M12.7099 0.885742H16.6401V4.81579H12.7099V0.885742Z" fill="black"/>
<path d="M8.78019 0.885742H12.7099V4.81579H8.78019V0.885742Z" fill="black"/>
<path d="M4.84969 24.4668H8.77973V28.3969H4.84969V24.4668Z" fill="black"/>
<path d="M12.7099 28.397H16.6401V32.3271H12.7099V28.397Z" fill="black"/>
<path d="M8.77973 28.3969L12.7099 28.397V32.3271H8.78012L8.77973 28.3969Z" fill="black"/>
<path d="M0.920145 20.5349H4.85019V24.4649H0.920145V20.5349Z" fill="black"/>
<path d="M0.920044 16.6065H4.85009V20.5365H0.920044V16.6065Z" fill="black"/>
<path d="M0.920145 12.6744H4.85019V16.6045H0.920145V12.6744Z" fill="black"/>
<path d="M28.4301 28.397H24.5001L24.5 24.467H28.4301V28.397Z" fill="black"/>
<path d="M28.4301 8.74601H24.5L24.5001 4.81579L28.4301 4.81596V8.74601Z" fill="black"/>
<path d="M32.36 16.6065H28.43V12.6764H32.36V16.6065Z" fill="black"/>
<path d="M0.920145 8.74601H4.85019V12.6761H0.920145V8.74601Z" fill="black"/>
<path d="M32.36 12.6744H28.43V8.7444H32.36V12.6744Z" fill="black"/>
<path d="M32.36 20.5349H28.43V16.6048H32.36V20.5349Z" fill="black"/>
<path d="M32.36 24.4668L28.4301 24.467L28.43 20.5368H32.36V24.4668Z" fill="black"/>
</svg>
