<svg width="47" height="47" viewBox="0 0 47 47" fill="none" xmlns="http://www.w3.org/2000/svg">
<path d="M43.2113 17.5907V14.634H40.2546V3.79278H37.2979V38.2877H40.2546V27.4464H43.2113V24.4897H40.2546V17.5907H43.2113Z" fill="black"/>
<path d="M37.2979 0.833374H31.3845V3.79005H37.2979V0.833374Z" fill="black"/>
<path d="M37.2979 38.2829H31.3845V41.2395H37.2979V38.2829Z" fill="black"/>
<path d="M28.4279 6.74681H22.5145V9.70348H28.4279V6.74681Z" fill="black"/>
<path d="M28.4281 32.3691H22.5146V35.3258H28.4281V32.3691Z" fill="black"/>
<path d="M22.5144 12.6578V9.70109H6.74537V12.6578H11.6732V29.4125H6.74537V43.2104H9.70204V32.3691H15.6155V43.2104H18.5721V32.3691H22.5146L22.5144 29.4125H14.6299V12.6578H22.5144Z" fill="black"/>
<path d="M3.78864 15.6148H0.83197V26.4561H3.78864V15.6148Z" fill="black"/>
<path d="M31.3844 3.79278H28.4278V6.74945H31.3844V3.79278Z" fill="black"/>
<path d="M31.3845 35.3281H28.4278V38.2848H31.3845V35.3281Z" fill="black"/>
<path d="M15.6155 43.2104H9.70204L9.7021 46.1667H15.6155L15.6155 43.2104Z" fill="black"/>
<path d="M6.74532 12.6601H3.78864V15.6168H6.74532V12.6601Z" fill="black"/>
<path d="M6.74538 26.4608H3.78871V29.4175H6.74538V26.4608Z" fill="black"/>
<path d="M46.168 17.588H43.2114V24.4869H46.168V17.588Z" fill="black"/>
</svg>
