<svg width="38" height="38" viewBox="0 0 38 38" fill="none" xmlns="http://www.w3.org/2000/svg">
<path d="M4.26364 5.73793H7.21117V8.68547H4.26364V5.73793Z" fill="black"/>
<path d="M16.0539 2.78906H19.0015V5.7366H16.0539V2.78906Z" fill="black"/>
<path d="M13.1065 2.78906H16.0539V5.7366H13.1065V2.78906Z" fill="black"/>
<path d="M16.0539 23.4225H19.0015V26.3701H16.0539V23.4225Z" fill="black"/>
<path d="M30.7915 32.2629H33.7391V35.2104H30.7915V32.2629Z" fill="black"/>
<path d="M27.8442 29.3179H30.7918V32.2654H27.8442V29.3179Z" fill="black"/>
<path d="M24.8964 26.3676H27.8439V29.3151H24.8964V26.3676Z" fill="black"/>
<path d="M30.7918 29.3179H33.7391V32.2654H30.7918V29.3179Z" fill="black"/>
<path d="M33.7391 32.2629H36.6864V35.2104H33.7391V32.2629Z" fill="black"/>
<path d="M27.8439 26.3676H30.7917V29.3151H27.8439V26.3676Z" fill="black"/>
<path d="M24.8964 23.4225H27.8439V26.3701H24.8964V23.4225Z" fill="black"/>
<path d="M21.9489 23.4225H24.8964V26.3701H21.9489V23.4225Z" fill="black"/>
<path d="M13.1064 23.4225H16.0539V26.3701H13.1064V23.4225Z" fill="black"/>
<path d="M10.1588 2.78906H13.1065V5.7366H10.1588V2.78906Z" fill="black"/>
<path d="M7.21152 2.78906H10.1588V5.7366H7.21152V2.78906Z" fill="black"/>
<path d="M4.26364 20.4749H7.21117V23.4224H4.26364V20.4749Z" fill="black"/>
<path d="M10.1588 23.4225H13.1064V26.3701H10.1588V23.4225Z" fill="black"/>
<path d="M7.21117 23.4224L10.1588 23.4225V26.3701H7.21146L7.21117 23.4224Z" fill="black"/>
<path d="M1.31648 17.5259H4.26402V20.4734H1.31648V17.5259Z" fill="black"/>
<path d="M1.31641 14.5796H4.26394V17.5271H1.31641V14.5796Z" fill="black"/>
<path d="M1.31648 11.6306H4.26402V14.5781H1.31648V11.6306Z" fill="black"/>
<path d="M21.9489 23.4225H19.0015L19.0014 20.475H21.9489V23.4225Z" fill="black"/>
<path d="M21.9489 8.68426H19.0014L19.0015 5.7366L21.9489 5.73673V8.68426Z" fill="black"/>
<path d="M24.8964 14.5796H21.9488V11.6321H24.8964V14.5796Z" fill="black"/>
<path d="M1.31648 8.68426H4.26402V11.6318H1.31648V8.68426Z" fill="black"/>
<path d="M24.8964 11.6306H21.9489V8.68305H24.8964V11.6306Z" fill="black"/>
<path d="M24.8964 17.5259H21.9489V14.5784H24.8964V17.5259Z" fill="black"/>
<path d="M24.8964 20.4749L21.9489 20.475L21.9489 17.5273H24.8964V20.4749Z" fill="black"/>
</svg>
