<svg width="47" height="47" viewBox="0 0 47 47" fill="none" xmlns="http://www.w3.org/2000/svg">
<path d="M3.21007 3.21127H0.166626V31.617H3.21007V3.21127Z" fill="black"/>
<path d="M43.7895 0.167236H3.20987L3.21007 3.21127L43.7895 3.21068V0.167236Z" fill="black"/>
<path d="M46.8333 3.21127L43.7895 3.21068L43.7898 31.617H46.8333V3.21127Z" fill="black"/>
<path d="M17.4129 40.7498H14.3695V43.7933H17.4129V40.7498Z" fill="black"/>
<path d="M20.456 37.7032H17.4125V40.7466H20.456V37.7032Z" fill="black"/>
<path d="M23.5 34.6565H20.4566V37.7H23.5V34.6565Z" fill="black"/>
<path d="M43.79 31.6153H23.5001V34.6587H43.79V31.6153Z" fill="black"/>
<path d="M15.384 14.3699H9.29703V20.4569H15.384V14.3699Z" fill="black"/>
<path d="M26.5435 14.3699H20.4565V20.4569H26.5435V14.3699Z" fill="black"/>
<path d="M37.7028 14.3699H31.6158V20.4569H37.7028V14.3699Z" fill="black"/>
<path d="M11.3261 43.7893V31.6153H3.21014V34.6588H8.28267V46.8327H14.3696V43.7893H11.3261Z" fill="black"/>
</svg>
