<svg width="48" height="48" viewBox="0 0 48 48" fill="none" xmlns="http://www.w3.org/2000/svg">
<path d="M34.1862 41.6747L13.9539 29.8L27.3953 29.8915L27.4061 29.8724L27.4117 29.8821L34.1859 41.6364L34.1862 41.6747Z" fill="black"/>
<path d="M13.8135 6.32513L34.0457 18.2L27.4061 29.8724L13.8135 6.32513Z" fill="#F1EFED"/>
<path d="M13.9539 29.8L13.8135 6.32513L27.4061 29.8724L27.3953 29.8915L13.9539 29.8Z" fill="#F1EFED"/>
<path d="M27.4117 29.8821L27.4061 29.8724L34.0457 18.2L34.1859 41.6364L27.4117 29.8821Z" fill="#F1EFED"/>
<path d="M34.0457 18.2L13.8135 6.32513M34.0457 18.2L34.1859 41.6364M34.0457 18.2L27.4061 29.8724M13.8135 6.32513L13.9539 29.8M13.8135 6.32513L27.4061 29.8724M13.9539 29.8L34.1862 41.6747L34.1859 41.6364M13.9539 29.8L27.3953 29.8915L27.4061 29.8724M34.2026 41.6653L34.1859 41.6364M27.4061 29.8724L27.4117 29.8821L34.1859 41.6364" stroke="black" stroke-width="1.6" stroke-miterlimit="10" stroke-linecap="round" stroke-linejoin="round"/>
</svg>
