<svg xmlns="http://www.w3.org/2000/svg" width="49" height="48" fill="none" viewBox="0 0 49 48"><path fill="#000" d="m29.118 40.614 12.065-12.136-4.441-16.617-12.065 12.136 4.44 16.617Z"/><path fill="#F1EFED" d="m8.15 19.522 16.507 4.48 12.065-12.135-16.507-4.481L8.15 19.522ZM8.15 19.522l4.442 16.617 16.506 4.48-4.441-16.616-16.507-4.48Z"/><path stroke="#000" stroke-linecap="round" stroke-linejoin="round" stroke-miterlimit="10" stroke-width="1.6" d="m8.15 19.522 4.442 16.617 16.506 4.48-4.441-16.616M8.15 19.523l16.507 4.48M8.15 19.523 20.215 7.385l16.507 4.48-12.065 12.137m4.46 16.611 12.066-12.136-4.441-16.617-12.065 12.136 4.44 16.617Z"/></svg>
