<svg xmlns="http://www.w3.org/2000/svg" width="49" height="48" fill="none" viewBox="0 0 49 48"><path fill="#000" stroke="#000" stroke-width="1.904" d="m37.546 34.955.015-.031.017-.03c1.19-2.069 1.296-4.197.325-5.762a4.267 4.267 0 0 0-.285-.406l-.062-.078-.045-.089c-.1-.2-.21-.398-.33-.593L27.079 11.672l-13.98 8.65 10.1 16.292-.81.502.81-.502c.12.194.248.38.384.56l.06.08.042.09c.07.148.149.294.237.435.97 1.566 2.926 2.42 5.31 2.278l.035-.002h.035a7.287 7.287 0 0 0 3.944-1.096l1.56-.966a7.274 7.274 0 0 0 2.74-3.038Z"/><path fill="#F1EFED" stroke="#000" stroke-width="1.904" d="M16.886 11.078c-2.029 1.273-3.518 2.907-4.308 4.475-.8 1.585-.821 2.945-.254 3.873.568.928 1.78 1.514 3.538 1.495 1.738-.018 3.846-.64 5.875-1.912 2.029-1.273 3.518-2.907 4.308-4.475.8-1.586.821-2.945.254-3.873-.567-.928-1.78-1.514-3.537-1.495-1.739.018-3.846.64-5.876 1.912Z"/></svg>
