<svg xmlns="http://www.w3.org/2000/svg" width="193" height="78" fill="none" viewBox="0 0 193 78"><path fill="#000" d="M19.832 22.138a219.547 219.547 0 0 0 10.928 9.775.606.606 0 0 1 .11.86.643.643 0 0 1-.441.225.662.662 0 0 1-.474-.147c-3.735-3.21-7.331-6.575-10.808-10.036a.483.483 0 0 1-.147-.343.473.473 0 0 1 .492-.472c.127.002.25.051.34.138ZM41.157 41.096c3.99 2.918 8.086 5.671 12.32 8.168.11.05.21.123.292.216a.947.947 0 0 1 .123 1.055.89.89 0 0 1-.235.284.821.821 0 0 1-1.012.017 129.277 129.277 0 0 1-12.387-8.404.853.853 0 0 1-.11-1.09.78.78 0 0 1 .467-.323.75.75 0 0 1 .552.087l-.01-.01ZM66.174 55.057a134.716 134.716 0 0 0 13.195 5.079.958.958 0 0 1 .526.479c.11.224.135.484.068.727a.975.975 0 0 1-.453.546.903.903 0 0 1-.687.076 134.438 134.438 0 0 1-13.3-5.227.867.867 0 0 1-.278-.202.95.95 0 0 1-.174-.994.897.897 0 0 1 .46-.47.84.84 0 0 1 .643-.014ZM93.256 64.04l14.124 3.263c.216.07.397.215.507.405.11.19.141.414.087.625a.87.87 0 0 1-.377.518.947.947 0 0 1-.644.14l-14.222-3.2a.97.97 0 0 1-.586-.41.892.892 0 0 1-.123-.683.932.932 0 0 1 .43-.56c.214-.126.47-.168.716-.117h.049l.039.018ZM121.996 71.007l14.325 2.337a.788.788 0 0 1 .525.332.833.833 0 0 1 .144.617.831.831 0 0 1-.642.69.79.79 0 0 1-.327 0l-14.286-2.228a.858.858 0 0 1-.562-.346.903.903 0 0 1-.165-.653.904.904 0 0 1 .338-.576.852.852 0 0 1 .631-.173h.019ZM149.868 75l14.649 1.133c.139.01.268.065.358.153.09.088.134.201.123.316a.416.416 0 0 1-.186.295.605.605 0 0 1-.383.102l-14.727-.81a.808.808 0 0 1-.277-.04.705.705 0 0 1-.234-.129.545.545 0 0 1-.149-.196.469.469 0 0 1 .036-.452.6.6 0 0 1 .179-.178.74.74 0 0 1 .252-.103.82.82 0 0 1 .281-.01l.078-.081ZM178.321 77l14.601.794c.019 0 .038.01.052.029a.143.143 0 0 1 .026.074.143.143 0 0 1-.026.074.065.065 0 0 1-.052.029h-14.601a.219.219 0 0 1-.124-.033.332.332 0 0 1-.106-.105.547.547 0 0 1-.069-.16.689.689 0 0 1-.022-.187.672.672 0 0 1 .094-.344.351.351 0 0 1 .104-.105.231.231 0 0 1 .123-.037V77ZM0 0a1245.02 1245.02 0 0 1 9.914 11.516.258.258 0 0 1 .086.197.27.27 0 0 1-.086.196.247.247 0 0 1-.187.091.247.247 0 0 1-.187-.09C6.33 7.945 3.15 3.976 0 0Z"/></svg>
