<svg xmlns="http://www.w3.org/2000/svg" width="37" height="43" fill="none" viewBox="0 0 37 43"><path fill="#5869DD" d="M18.047 18.932h-2.094v2.15h2.094v-2.15Z"/><path fill="#5869DD" d="M16.055 18.932h-2.094v2.15h2.094v-2.15Z"/><path fill="#5869DD" d="M14.063 18.932h-2.094v2.15h2.094v-2.15Z"/><path fill="#5869DD" d="M12.063 18.932H9.969v2.15h2.094v-2.15Z"/><path fill="#5869DD" d="M10.07 18.932H7.978v2.15h2.094v-2.15ZM10.07 7.969H7.978v2.15h2.094v-2.15Z"/><path fill="#5869DD" d="M12.063 7.969H9.969v2.15h2.094v-2.15Z"/><path fill="#5869DD" d="M14.063 7.969h-2.094v2.15h2.094v-2.15Z"/><path fill="#5869DD" d="M16.055 7.969h-2.094v2.15h2.094v-2.15Z"/><path fill="#5869DD" d="M18.047 7.969h-2.094v2.15h2.094v-2.15ZM22.04 17.934h-2.095v2.15h2.094v-2.15Z"/><path fill="#5869DD" d="M24.032 17.934h-2.095v2.15h2.095v-2.15Z"/><path fill="#5869DD" d="M26.032 17.934h-2.095v2.15h2.095v-2.15Z"/><path fill="#5869DD" d="M26.032 16.937h-2.095v2.15h2.095v-2.15Z"/><path fill="#5869DD" d="M24.032 16.937h-2.095v2.15h2.095v-2.15Z"/><path fill="#5869DD" d="M22.04 16.937h-2.095v2.15h2.094v-2.15ZM28.024 11.956H25.93v2.15h2.094v-2.15ZM28.024 17.934H25.93v2.15h2.094v-2.15Z"/><path fill="#5869DD" d="M30.016 17.934h-2.094v2.15h2.094v-2.15ZM22.04 7.969h-2.095v2.15h2.094v-2.15Z"/><path fill="#5869DD" d="M24.032 7.969h-2.095v2.15h2.095v-2.15Z"/><path fill="#5869DD" d="M26.032 7.969h-2.095v2.15h2.095v-2.15Z"/><path fill="#5869DD" d="M28.024 7.969H25.93v2.15h2.094v-2.15Z"/><path fill="#5869DD" d="M30.016 7.969h-2.094v2.15h2.094v-2.15Z"/><path fill="#000" d="M21.047 18.932h-2.094v2.15h2.094v-2.15Z"/><path fill="#000" d="M21.047 20.924h-2.094v2.15h2.094v-2.15Z"/><path fill="#000" d="M21.047 22.915h-2.094v2.15h2.094v-2.15Z"/><path fill="#000" d="M21.047 24.908h-2.094v2.15h2.094v-2.15Z"/><path fill="#000" d="M21.047 26.9h-2.094v2.15h2.094V26.9Z"/><path fill="#000" d="M21.047 28.893h-2.094v2.15h2.094v-2.15Z"/><path fill="#000" d="M21.047 30.886h-2.094v2.15h2.094v-2.15Z"/><path fill="#000" d="M21.047 32.879h-2.094v2.15h2.094v-2.15Z"/><path fill="url(#a)" d="M11.265 19.884H9.17v2.151h2.094v-2.15Z"/><path fill="url(#b)" d="M19.64 19.884h-2.095v2.151h2.094v-2.15Z"/><path fill="url(#c)" d="M17.545 19.884h-2.094v2.151h2.094v-2.15Z"/><path fill="url(#d)" d="M15.451 19.884H13.36v2.151h2.092v-2.15Z"/><path fill="url(#e)" d="M13.359 19.884h-2.094v2.151h2.094v-2.15Z"/><path fill="url(#f)" d="M9.17 19.884H7.079v2.151h2.093v-2.15Z"/><path fill="url(#g)" d="M7.078 19.884H4.984v2.151h2.094v-2.15Z"/><path fill="url(#h)" d="M21.733 19.888H19.64v2.151h2.094v-2.15Z"/><path fill="url(#i)" d="M23.83 19.884h-2.094v2.151h2.094v-2.15Z"/><path fill="url(#j)" d="M25.924 19.884H23.83v2.151h2.095v-2.15Z"/><path fill="url(#k)" d="M28.022 19.888h-2.094v2.151h2.094v-2.15Z"/><path fill="url(#l)" d="M30.117 19.884h-2.094v2.151h2.094v-2.15Z"/><path fill="#000" d="M7.086 21.922H4.992v2.15h2.094v-2.15Z"/><path fill="#000" d="M9.078 21.922H6.984v2.15h2.094v-2.15Z"/><path fill="#000" d="M11.078 21.922H8.984v2.15h2.094v-2.15Z"/><path fill="#000" d="M13.07 21.922h-2.093v2.15h2.094v-2.15Z"/><path fill="#000" d="M15.063 21.922h-2.094v2.15h2.094v-2.15Z"/><path fill="#000" d="M17.063 21.922h-2.094v2.15h2.094v-2.15Z"/><path fill="#000" d="M19.055 21.922h-2.094v2.15h2.094v-2.15Z"/><path fill="#000" d="M21.047 21.922h-2.094v2.15h2.094v-2.15Z"/><path fill="#000" d="M23.04 21.922h-2.095v2.15h2.094v-2.15Z"/><path fill="#000" d="M25.04 21.922h-2.095v2.15h2.094v-2.15Z"/><path fill="#000" d="M27.032 21.922h-2.095v2.15h2.095v-2.15Z"/><path fill="#000" d="M29.024 21.922H26.93v2.15h2.094v-2.15Z"/><path fill="#000" d="M31.024 21.922H28.93v2.15h2.094v-2.15Z"/><path fill="#8F8E93" d="M37 0h-2.094v2.15H37V0Z"/><path fill="#8F8E93" d="M37 1.993h-2.094v2.15H37v-2.15Z"/><path fill="#8F8E93" d="M37 3.985h-2.094v2.15H37v-2.15Z"/><path fill="#8F8E93" d="M37 5.978h-2.094v2.15H37v-2.15Z"/><path fill="#8F8E93" d="M37 7.971h-2.094v2.15H37V7.97Z"/><path fill="#8F8E93" d="M37 9.964h-2.094v2.15H37v-2.15Z"/><path fill="#8F8E93" d="M37 11.956h-2.094v2.15H37v-2.15Z"/><path fill="#8F8E93" d="M37 13.949h-2.094v2.15H37v-2.15Z"/><path fill="#8F8E93" d="M37 15.942h-2.094v2.15H37v-2.15Z"/><path fill="#8F8E93" d="M37 17.934h-2.094v2.15H37v-2.15Z"/><path fill="#8F8E93" d="M37 19.927h-2.094v2.15H37v-2.15Z"/><path fill="#8F8E93" d="M37 21.92h-2.094v2.15H37v-2.15Z"/><path fill="#8F8E93" d="M37 23.913h-2.094v2.15H37v-2.15Z"/><path fill="#8F8E93" d="M37 25.905h-2.094v2.15H37v-2.15Z"/><path fill="#8F8E93" d="M37 27.898h-2.094v2.15H37v-2.15Z"/><path fill="#8F8E93" d="M37 29.89h-2.094v2.15H37v-2.15Z"/><path fill="#8F8E93" d="M37 31.883h-2.094v2.15H37v-2.15Z"/><path fill="#8F8E93" d="M37 33.876h-2.094v2.15H37v-2.15Z"/><path fill="#8F8E93" d="M37 35.869h-2.094v2.15H37v-2.15Z"/><path fill="#8F8E93" d="M37 37.861h-2.094v2.15H37v-2.15Z"/><path fill="#8F8E93" d="M37 39.854h-2.094v2.15H37v-2.15Z"/><path fill="#8F8E93" d="M37 40.85h-2.094V43H37v-2.15Z"/><path fill="#5869DD" d="M10.07 8.966H7.978v2.15h2.094v-2.15Z"/><path fill="#5869DD" d="M12.063 8.966H9.969v2.15h2.094v-2.15Z"/><path fill="#5869DD" d="M14.063 8.966h-2.094v2.15h2.094v-2.15Z"/><path fill="#5869DD" d="M16.055 8.966h-2.094v2.15h2.094v-2.15Z"/><path fill="#5869DD" d="M18.047 8.966h-2.094v2.15h2.094v-2.15ZM23.04 8.967h-2.095v2.15h2.094v-2.15ZM27.024 8.967H24.93v2.15h2.094v-2.15ZM10.07 10.96H7.978v2.15h2.094v-2.15Z"/><path fill="#5869DD" d="M10.07 12.953H7.978v2.15h2.094v-2.15Z"/><path fill="#5869DD" d="M10.07 14.945H7.978v2.15h2.094v-2.15Z"/><path fill="#5869DD" d="M10.07 16.938H7.978v2.15h2.094v-2.15Z"/><path fill="#5869DD" d="M12.07 16.938H9.978v2.15h2.094v-2.15Z"/><path fill="#5869DD" d="M14.063 16.938h-2.094v2.15h2.094v-2.15ZM23.04 23.913h-2.095v2.15h2.094v-2.15Z"/><path fill="#5869DD" d="M23.04 25.905h-2.095v2.15h2.094v-2.15ZM23.04 29.89h-2.095v2.15h2.094v-2.15Z"/><path fill="#5869DD" d="M23.04 31.883h-2.095v2.15h2.094v-2.15Z"/><path fill="#5869DD" d="M23.04 33.876h-2.095v2.15h2.094v-2.15ZM25.032 23.913h-2.095v2.15h2.095v-2.15ZM18.047 23.913h-2.094v2.15h2.094v-2.15Z"/><path fill="#5869DD" d="M18.047 25.905h-2.094v2.15h2.094v-2.15Z"/><path fill="#5869DD" d="M18.047 26.902h-2.094v2.15h2.094v-2.15ZM18.047 30.887h-2.094v2.15h2.094v-2.15Z"/><path fill="#5869DD" d="M18.047 32.88h-2.094v2.15h2.094v-2.15Z"/><path fill="#5869DD" d="M16.055 32.88h-2.094v2.15h2.094v-2.15Z"/><path fill="#5869DD" d="M14.063 32.88h-2.094v2.15h2.094v-2.15Z"/><path fill="#5869DD" d="M12.07 32.88H9.978v2.15h2.094v-2.15Z"/><path fill="#5869DD" d="M10.07 32.88H7.978v2.15h2.094v-2.15Z"/><path fill="#5869DD" d="M12.07 31.883H9.978v2.15h2.094v-2.15Z"/><path fill="#5869DD" d="M14.063 31.883h-2.094v2.15h2.094v-2.15Z"/><path fill="#5869DD" d="M16.055 31.883h-2.094v2.15h2.094v-2.15ZM16.055 25.905h-2.094v2.15h2.094v-2.15Z"/><path fill="#5869DD" d="M14.063 27.898h-2.094v2.15h2.094v-2.15ZM16.055 23.913h-2.094v2.15h2.094v-2.15Z"/><path fill="#5869DD" d="M14.063 23.913h-2.094v2.15h2.094v-2.15Z"/><path fill="#5869DD" d="M12.07 23.913H9.978v2.15h2.094v-2.15ZM25.032 25.905h-2.095v2.15h2.095v-2.15Z"/><path fill="#5869DD" d="M25.032 27.898h-2.095v2.15h2.095v-2.15Z"/><path fill="#5869DD" d="M25.032 29.89h-2.095v2.15h2.095v-2.15Z"/><path fill="#5869DD" d="M25.032 31.883h-2.095v2.15h2.095v-2.15Z"/><path fill="#5869DD" d="M25.032 33.876h-2.095v2.15h2.095v-2.15ZM27.024 23.913H24.93v2.15h2.094v-2.15Z"/><path fill="#5869DD" d="M27.024 25.905H24.93v2.15h2.094v-2.15Z"/><path fill="#5869DD" d="M27.024 27.898H24.93v2.15h2.094v-2.15Z"/><path fill="#5869DD" d="M27.024 29.89H24.93v2.15h2.094v-2.15Z"/><path fill="#5869DD" d="M27.024 31.883H24.93v2.15h2.094v-2.15Z"/><path fill="#5869DD" d="M27.024 33.876H24.93v2.15h2.094v-2.15ZM29.024 23.913H26.93v2.15h2.094v-2.15Z"/><path fill="#5869DD" d="M29.024 25.905H26.93v2.15h2.094v-2.15Z"/><path fill="#5869DD" d="M29.024 27.898H26.93v2.15h2.094v-2.15Z"/><path fill="#5869DD" d="M29.024 29.89H26.93v2.15h2.094v-2.15Z"/><path fill="#5869DD" d="M29.024 31.883H26.93v2.15h2.094v-2.15Z"/><path fill="#5869DD" d="M29.024 33.876H26.93v2.15h2.094v-2.15ZM31.016 23.913h-2.094v2.15h2.094v-2.15Z"/><path fill="#5869DD" d="M31.016 25.905h-2.094v2.15h2.094v-2.15Z"/><path fill="#5869DD" d="M31.016 27.898h-2.094v2.15h2.094v-2.15Z"/><path fill="#5869DD" d="M31.016 29.89h-2.094v2.15h2.094v-2.15Z"/><path fill="#5869DD" d="M31.016 31.883h-2.094v2.15h2.094v-2.15Z"/><path fill="#5869DD" d="M31.016 33.876h-2.094v2.15h2.094v-2.15ZM12.07 10.96H9.978v2.15h2.094v-2.15Z"/><path fill="#5869DD" d="M14.063 10.96h-2.094v2.15h2.094v-2.15Z"/><path fill="#5869DD" d="M14.063 12.953h-2.094v2.15h2.094v-2.15ZM18.047 10.96h-2.094v2.15h2.094v-2.15ZM23.04 10.96h-2.095v2.15h2.094v-2.15ZM24.032 14.945h-2.095v2.15h2.095v-2.15Z"/><path fill="#5869DD" d="M16.055 10.96h-2.094v2.15h2.094v-2.15Z"/><path fill="#F1EFED" d="M18.055 12.952h-2.094v2.15h2.094v-2.15Z"/><path fill="#F1EFED" d="M18.055 11.956h-2.094v2.15h2.094v-2.15ZM18.055 14.945h-2.094v2.15h2.094v-2.15ZM22.04 12.952h-2.095v2.15h2.094v-2.15Z"/><path fill="#F1EFED" d="M22.04 11.956h-2.095v2.15h2.094v-2.15ZM22.04 14.945h-2.095v2.15h2.094v-2.15Z"/><path fill="#F1EFED" d="M24.04 11.955h-2.095v2.15h2.094v-2.15Z"/><path fill="#F1EFED" d="M24.04 10.959h-2.095v2.15h2.094v-2.15ZM24.04 13.948h-2.095v2.15h2.094v-2.15ZM30.016 10.959h-2.094v2.149h2.094v-2.15Z"/><path fill="#F1EFED" d="M30.016 9.962h-2.094v2.15h2.094v-2.15ZM30.016 12.951h-2.094v2.15h2.094v-2.15Z"/><path fill="#F1EFED" d="M30.016 14.944h-2.094v2.15h2.094v-2.15Z"/><path fill="#F1EFED" d="M30.016 15.94h-2.094v2.15h2.094v-2.15Z"/><path fill="#F1EFED" d="M28.024 13.947H25.93v2.15h2.094v-2.15Z"/><path fill="#F1EFED" d="M26.032 13.947h-2.095v2.15h2.095v-2.15ZM26.032 10.959h-2.095v2.149h2.095v-2.15Z"/><path fill="#F1EFED" d="M28.024 10.959H25.93v2.149h2.094v-2.15Z"/><path fill="#F1EFED" d="M29.024 9.962H26.93v2.15h2.094v-2.15ZM25.032 9.962h-2.095v2.15h2.095v-2.15Z"/><path fill="#5869DD" d="M12.07 14.945H9.978v2.15h2.094v-2.15Z"/><path fill="#5869DD" d="M14.063 14.945h-2.094v2.15h2.094v-2.15Z"/><path fill="#5869DD" d="M16.055 14.945h-2.094v2.15h2.094v-2.15Z"/><path fill="#5869DD" d="M16.055 16.938h-2.094v2.15h2.094v-2.15Z"/><path fill="#5869DD" d="M18.047 16.938h-2.094v2.15h2.094v-2.15Z"/><path fill="#8F8E93" d="M32.016 4.982h-2.094v2.15h2.094v-2.15Z"/><path fill="#8F8E93" d="M32.016 6.974h-2.094v2.15h2.094v-2.15Z"/><path fill="#8F8E93" d="M32.016 8.967h-2.094v2.15h2.094v-2.15Z"/><path fill="#8F8E93" d="M32.016 10.96h-2.094v2.15h2.094v-2.15Z"/><path fill="#8F8E93" d="M32.016 12.953h-2.094v2.15h2.094v-2.15ZM25.032 14.945h-2.095v2.15h2.095v-2.15Z"/><path fill="#8F8E93" d="M27.024 14.945H24.93v2.15h2.094v-2.15Z"/><path fill="#8F8E93" d="M28.024 15.942H25.93v2.15h2.094v-2.15ZM32.016 14.945h-2.094v2.15h2.094v-2.15Z"/><path fill="#8F8E93" d="M32.016 16.938h-2.094v2.15h2.094v-2.15Z"/><path fill="#8F8E93" d="M32.016 18.93h-2.094v2.15h2.094v-2.15Z"/><path fill="#8F8E93" d="M32.016 20.923h-2.094v2.15h2.094v-2.15Z"/><path fill="#F1EFED" d="M4.094.997H2v2.15h2.094V.996Z"/><path fill="#F1EFED" d="M6.086.997H3.992v2.15h2.094V.996Z"/><path fill="#F1EFED" d="M8.086.997H5.992v2.15h2.094V.996Z"/><path fill="#F1EFED" d="M10.078.997H7.984v2.15h2.094V.996Z"/><path fill="#F1EFED" d="M12.07.997H9.978v2.15h2.094V.996Z"/><path fill="#F1EFED" d="M14.07.997h-2.093v2.15h2.094V.996Z"/><path fill="#F1EFED" d="M16.063.997h-2.094v2.15h2.094V.996Z"/><path fill="#F1EFED" d="M18.055.997h-2.094v2.15h2.094V.996Z"/><path fill="#F1EFED" d="M20.047.997h-2.094v2.15h2.094V.996Z"/><path fill="#F1EFED" d="M22.047.997h-2.094v2.15h2.094V.996Z"/><path fill="#F1EFED" d="M24.04.997h-2.095v2.15h2.094V.996Z"/><path fill="#F1EFED" d="M26.032.997h-2.095v2.15h2.095V.996Z"/><path fill="#F1EFED" d="M28.032.997h-2.095v2.15h2.095V.996Z"/><path fill="#F1EFED" d="M30.024.997H27.93v2.15h2.094V.996ZM32.118.997h-2.094v2.15h2.094V.996ZM34.212.997h-2.094v2.15h2.094V.996ZM35.012.998l-.8-.001v2.15h.8V.998Z"/><path fill="#8F8E93" d="M32.016 22.916h-2.094v2.15h2.094v-2.15Z"/><path fill="#8F8E93" d="M32.016 24.909h-2.094v2.15h2.094v-2.15Z"/><path fill="#8F8E93" d="M32.016 26.902h-2.094v2.15h2.094v-2.15Z"/><path fill="#8F8E93" d="M32.016 28.894h-2.094v2.15h2.094v-2.15Z"/><path fill="#8F8E93" d="M32.016 30.887h-2.094v2.15h2.094v-2.15Z"/><path fill="#8F8E93" d="M32.016 32.88h-2.094v2.15h2.094v-2.15Z"/><path fill="#8F8E93" d="M32.016 34.872h-2.094v2.15h2.094v-2.15ZM9.078 34.872H6.984v2.15h2.094v-2.15Z"/><path fill="#8F8E93" d="M11.07 34.872H8.978v2.15h2.094v-2.15Z"/><path fill="#8F8E93" d="M13.063 34.872h-2.094v2.15h2.094v-2.15Z"/><path fill="#8F8E93" d="M15.063 34.872h-2.094v2.15h2.094v-2.15Z"/><path fill="#8F8E93" d="M17.055 34.872h-2.094v2.15h2.094v-2.15Z"/><path fill="#8F8E93" d="M19.047 34.872h-2.094v2.15h2.094v-2.15Z"/><path fill="#8F8E93" d="M21.04 34.872h-2.095v2.15h2.094v-2.15Z"/><path fill="#8F8E93" d="M23.04 34.872h-2.095v2.15h2.094v-2.15Z"/><path fill="#8F8E93" d="M25.032 34.872h-2.095v2.15h2.095v-2.15Z"/><path fill="#F1EFED" d="M18.047 28.894h-2.094v2.15h2.094v-2.15Z"/><path fill="#8F8E93" d="M27.024 34.872H24.93v2.15h2.094v-2.15Z"/><path fill="#8F8E93" d="M29.024 34.872H26.93v2.15h2.094v-2.15Z"/><path fill="#8F8E93" d="M31.016 34.872h-2.094v2.15h2.094v-2.15Z"/><path fill="#000" d="M21.047 6.976h-2.094v2.15h2.094v-2.15Z"/><path fill="#000" d="M21.047 8.969h-2.094v2.15h2.094v-2.15Z"/><path fill="#000" d="M21.047 10.962h-2.094v2.15h2.094v-2.15Z"/><path fill="#000" d="M21.047 12.954h-2.094v2.15h2.094v-2.15Z"/><path fill="#000" d="M21.047 14.947h-2.094v2.15h2.094v-2.15Z"/><path fill="#000" d="M21.047 16.94h-2.094v2.15h2.094v-2.15Z"/><path fill="url(#m)" d="M17.477 25.361v2.092h2.153v-2.092h-2.153Z"/><path fill="url(#n)" d="M17.477 16.995v2.092h2.153v-2.092h-2.153Z"/><path fill="url(#o)" d="M17.477 19.087v2.092h2.153v-2.092h-2.153Z"/><path fill="url(#p)" d="M17.477 21.179v2.09h2.153v-2.09h-2.153Z"/><path fill="url(#q)" d="M17.477 23.27v2.091h2.153V23.27h-2.153Z"/><path fill="url(#r)" d="M17.477 27.453v2.09h2.153v-2.09h-2.153Z"/><path fill="url(#s)" d="M17.477 29.544v2.077h2.153v-2.077h-2.153Z"/><path fill="url(#t)" d="M17.48 14.903v2.092h2.154v-2.092H17.48Z"/><path fill="url(#u)" d="M17.477 12.808V14.9h2.153v-2.092h-2.153Z"/><path fill="url(#v)" d="M17.477 10.716v2.092h2.153v-2.092h-2.153Z"/><path fill="url(#w)" d="M17.48 8.62v2.092h2.154V8.62H17.48Z"/><path fill="url(#x)" d="M17.477 6.527V8.62h2.153V6.527h-2.153Z"/><path fill="url(#y)" d="M17.477 31.621v1.327h2.153V31.62h-2.153Z"/><path fill="url(#z)" d="M17.477 32.948v1.924h2.153v-1.924h-2.153Z"/><path fill="#8F8E93" d="M2.094 40.85H0V43h2.094v-2.15ZM2.094 36.863H0v2.15h2.094v-2.15Z"/><path fill="#8F8E93" d="M2.094 39H0v2.15h2.094V39ZM2.094 34.872H0v2.15h2.094v-2.15Z"/><path fill="#8F8E93" d="M2.094 32.88H0v2.15h2.094v-2.15Z"/><path fill="#8F8E93" d="M2.094 30.887H0v2.15h2.094v-2.15Z"/><path fill="#8F8E93" d="M2.094 28.894H0v2.15h2.094v-2.15Z"/><path fill="#8F8E93" d="M2.094 26.902H0v2.15h2.094v-2.15Z"/><path fill="#8F8E93" d="M2.094 24.909H0v2.15h2.094v-2.15Z"/><path fill="#8F8E93" d="M2.094 22.916H0v2.15h2.094v-2.15Z"/><path fill="#8F8E93" d="M2.094 20.923H0v2.15h2.094v-2.15Z"/><path fill="#8F8E93" d="M2.094 18.93H0v2.15h2.094v-2.15Z"/><path fill="#8F8E93" d="M2.094 16.938H0v2.15h2.094v-2.15Z"/><path fill="#8F8E93" d="M2.094 14.945H0v2.15h2.094v-2.15Z"/><path fill="#8F8E93" d="M2.094 12.953H0v2.15h2.094v-2.15Z"/><path fill="#8F8E93" d="M2.094 10.96H0v2.15h2.094v-2.15Z"/><path fill="#8F8E93" d="M2.094 8.967H0v2.15h2.094v-2.15Z"/><path fill="#8F8E93" d="M2.094 6.974H0v2.15h2.094v-2.15Z"/><path fill="#8F8E93" d="M2.094 4.982H0v2.15h2.094v-2.15Z"/><path fill="#8F8E93" d="M2.094 2.989H0v2.15h2.094v-2.15Z"/><path fill="#8F8E93" d="M1.995.996H0v2.15h1.995V.996Z"/><path fill="#C0BFC0" d="M2.094 0H0v2.15h2.094V0Z"/><path fill="#C0BFC0" d="M4.086 0H1.992v2.15h2.094V0Z"/><path fill="#C0BFC0" d="M6.086 0H3.992v2.15h2.094V0Z"/><path fill="#C0BFC0" d="M8.078 0H5.984v2.15h2.094V0Z"/><path fill="#C0BFC0" d="M10.07 0H7.978v2.15h2.094V0Z"/><path fill="#C0BFC0" d="M12.07 0H9.978v2.15h2.094V0Z"/><path fill="#C0BFC0" d="M14.063 0h-2.094v2.15h2.094V0Z"/><path fill="#C0BFC0" d="M16.055 0h-2.094v2.15h2.094V0Z"/><path fill="#C0BFC0" d="M18.047 0h-2.094v2.15h2.094V0Z"/><path fill="#C0BFC0" d="M20.047 0h-2.094v2.15h2.094V0Z"/><path fill="#C0BFC0" d="M22.04 0h-2.095v2.15h2.094V0Z"/><path fill="#C0BFC0" d="M24.032 0h-2.095v2.15h2.095V0Z"/><path fill="#C0BFC0" d="M26.032 0h-2.095v2.15h2.095V0Z"/><path fill="#C0BFC0" d="M28.024 0H25.93v2.15h2.094V0Z"/><path fill="#C0BFC0" d="M30.016 0h-2.094v2.15h2.094V0Z"/><path fill="#C0BFC0" d="M32.016 0h-2.094v2.15h2.094V0Z"/><path fill="#C0BFC0" d="M34.008 0h-2.094v2.15h2.094V0Z"/><path fill="#C0BFC0" d="M36 0h-2.094v2.15H36V0Z"/><path fill="#8F8E93" d="M4.086 40.85H1.992V43h2.094v-2.15Z"/><path fill="#8F8E93" d="M6.086 40.85H3.992V43h2.094v-2.15Z"/><path fill="#8F8E93" d="M8.078 40.85H5.984V43h2.094v-2.15Z"/><path fill="#8F8E93" d="M10.07 40.85H7.978V43h2.094v-2.15Z"/><path fill="#8F8E93" d="M12.07 40.85H9.978V43h2.094v-2.15Z"/><path fill="#8F8E93" d="M14.063 40.85h-2.094V43h2.094v-2.15Z"/><path fill="#8F8E93" d="M16.055 40.85h-2.094V43h2.094v-2.15Z"/><path fill="#8F8E93" d="M18.047 40.85h-2.094V43h2.094v-2.15Z"/><path fill="#8F8E93" d="M20.047 40.85h-2.094V43h2.094v-2.15Z"/><path fill="#8F8E93" d="M22.04 40.85h-2.095V43h2.094v-2.15Z"/><path fill="#8F8E93" d="M24.032 40.85h-2.095V43h2.095v-2.15Z"/><path fill="#8F8E93" d="M26.032 40.85h-2.095V43h2.095v-2.15Z"/><path fill="#8F8E93" d="M28.024 40.85H25.93V43h2.094v-2.15Z"/><path fill="#8F8E93" d="M30.016 40.85h-2.094V43h2.094v-2.15Z"/><path fill="#8F8E93" d="M32.016 40.85h-2.094V43h2.094v-2.15Z"/><path fill="#8F8E93" d="M34.008 40.85h-2.094V43h2.094v-2.15Z"/><path fill="#8F8E93" d="M36 40.85h-2.094V43H36v-2.15Z"/><path fill="#F1EFED" d="M7.078 36.863H4.984v2.15h2.094v-2.15Z"/><path fill="#F1EFED" d="M6.094 37H4v2.15h2.094V37Z"/><path fill="#F1EFED" d="M6.094 35H4v2.15h2.094V35Z"/><path fill="#F1EFED" d="M6.094 33H4v2.15h2.094V33Z"/><path fill="#F1EFED" d="M6.094 31H4v2.15h2.094V31Z"/><path fill="#F1EFED" d="M6.094 29H4v2.15h2.094V29Z"/><path fill="#F1EFED" d="M6.094 27H4v2.15h2.094V27Z"/><path fill="#F1EFED" d="M6.094 25H4v2.15h2.094V25Z"/><path fill="#F1EFED" d="M6.094 23H4v2.15h2.094V23Z"/><path fill="#F1EFED" d="M6.094 21H4v2.15h2.094V21Z"/><path fill="#F1EFED" d="M6.094 19H4v2.15h2.094V19Z"/><path fill="#F1EFED" d="M6.094 17H4v2.15h2.094V17Z"/><path fill="#F1EFED" d="M6.094 15H4v2.15h2.094V15Z"/><path fill="#F1EFED" d="M6.094 13H4v2.15h2.094V13Z"/><path fill="#F1EFED" d="M6.094 11H4v2.15h2.094V11Z"/><path fill="#F1EFED" d="M6.094 9H4v2.15h2.094V9Z"/><path fill="#F1EFED" d="M6.094 7H4v2.15h2.094V7Z"/><path fill="#F1EFED" d="M6.094 5H4v2.15h2.094V5ZM9.078 36.865H6.984v2.15h2.094v-2.15Z"/><path fill="#F1EFED" d="M11.07 36.865H8.978v2.15h2.094v-2.15Z"/><path fill="#F1EFED" d="M13.063 36.865h-2.094v2.15h2.094v-2.15Z"/><path fill="#F1EFED" d="M15.063 36.865h-2.094v2.15h2.094v-2.15Z"/><path fill="#F1EFED" d="M17.055 36.865h-2.094v2.15h2.094v-2.15Z"/><path fill="#F1EFED" d="M19.047 36.865h-2.094v2.15h2.094v-2.15Z"/><path fill="#F1EFED" d="M21.04 36.865h-2.095v2.15h2.094v-2.15Z"/><path fill="#F1EFED" d="M23.04 36.865h-2.095v2.15h2.094v-2.15Z"/><path fill="#F1EFED" d="M25.032 36.865h-2.095v2.15h2.095v-2.15Z"/><path fill="#C0BFC0" d="M8.078 28.893H5.984v2.15h2.094v-2.15Z"/><path fill="#C0BFC0" d="M8.078 27.896H5.984v2.15h2.094v-2.15Z"/><path fill="#C0BFC0" d="M8.078 25.904H5.984v2.15h2.094v-2.15Z"/><path fill="#C0BFC0" d="M8.078 23.91H5.984v2.15h2.094v-2.15ZM8.078 30.885H5.984v2.15h2.094v-2.15Z"/><path fill="#C0BFC0" d="M8.078 32.878H5.984v2.15h2.094v-2.15Z"/><path fill="#F1EFED" d="M27.024 36.865H24.93v2.15h2.094v-2.15Z"/><path fill="#F1EFED" d="M29.024 36.865H26.93v2.15h2.094v-2.15Z"/><path fill="#F1EFED" d="M31.016 36.865h-2.094v2.15h2.094v-2.15Z"/><path fill="#F1EFED" d="M33.008 36.865h-2.094v2.15h2.094v-2.15Z"/><path fill="#C0BFC0" d="M35.008 36.865h-2.094v2.15h2.094v-2.15Z"/><path fill="#C0BFC0" d="M35.008 34.872h-2.094v2.15h2.094v-2.15Z"/><path fill="#C0BFC0" d="M35.008 32.88h-2.094v2.15h2.094v-2.15Z"/><path fill="#C0BFC0" d="M35.008 30.887h-2.094v2.15h2.094v-2.15Z"/><path fill="#C0BFC0" d="M35.008 28.894h-2.094v2.15h2.094v-2.15Z"/><path fill="#C0BFC0" d="M35.008 26.902h-2.094v2.15h2.094v-2.15Z"/><path fill="#C0BFC0" d="M35.008 24.909h-2.094v2.15h2.094v-2.15Z"/><path fill="#C0BFC0" d="M35.008 22.916h-2.094v2.15h2.094v-2.15Z"/><path fill="#C0BFC0" d="M35.008 20.923h-2.094v2.15h2.094v-2.15Z"/><path fill="#C0BFC0" d="M35.008 18.93h-2.094v2.15h2.094v-2.15Z"/><path fill="#C0BFC0" d="M35.008 16.938h-2.094v2.15h2.094v-2.15Z"/><path fill="#C0BFC0" d="M35.008 14.945h-2.094v2.15h2.094v-2.15Z"/><path fill="#C0BFC0" d="M35.008 12.953h-2.094v2.15h2.094v-2.15Z"/><path fill="#C0BFC0" d="M35.008 10.96h-2.094v2.15h2.094v-2.15Z"/><path fill="#C0BFC0" d="M35.008 8.967h-2.094v2.15h2.094v-2.15Z"/><path fill="#C0BFC0" d="M35.008 6.974h-2.094v2.15h2.094v-2.15Z"/><path fill="#C0BFC0" d="M35.008 4.982h-2.094v2.15h2.094v-2.15Z"/><path fill="#C0BFC0" d="M35.008 2.989h-2.094v2.15h2.094v-2.15Z"/><path fill="#C0BFC0" d="M33.008 2.989h-2.094v2.15h2.094v-2.15Z"/><path fill="#C0BFC0" d="M31.016 2.989h-2.094v2.15h2.094v-2.15Z"/><path fill="#C0BFC0" d="M29.024 2.989H26.93v2.15h2.094v-2.15Z"/><path fill="#C0BFC0" d="M27.024 2.989H24.93v2.15h2.094v-2.15Z"/><path fill="#C0BFC0" d="M25.032 2.989h-2.095v2.15h2.095v-2.15Z"/><path fill="#C0BFC0" d="M23.04 2.989h-2.095v2.15h2.094v-2.15Z"/><path fill="#C0BFC0" d="M21.04 2.989h-2.095v2.15h2.094v-2.15Z"/><path fill="#C0BFC0" d="M19.047 2.989h-2.094v2.15h2.094v-2.15Z"/><path fill="#C0BFC0" d="M17.055 2.989h-2.094v2.15h2.094v-2.15Z"/><path fill="#C0BFC0" d="M15.063 2.989h-2.094v2.15h2.094v-2.15Z"/><path fill="#C0BFC0" d="M13.063 2.989h-2.094v2.15h2.094v-2.15Z"/><path fill="#C0BFC0" d="M11.07 2.989H8.978v2.15h2.094v-2.15Z"/><path fill="#C0BFC0" d="M9.078 2.989H6.984v2.15h2.094v-2.15Z"/><path fill="#C0BFC0" d="M7.078 2.989H4.984v2.15h2.094v-2.15Z"/><path fill="#C0BFC0" d="M5.086 2.989H2.992v2.15h2.094v-2.15Z"/><path fill="#C0BFC0" d="M4.086 2.989H1.992v2.15h2.094v-2.15Z"/><path fill="#C0BFC0" d="M4.086 4.982H1.992v2.15h2.094v-2.15Z"/><path fill="#C0BFC0" d="M4.086 6.974H1.992v2.15h2.094v-2.15Z"/><path fill="#C0BFC0" d="M4.086 8.967H1.992v2.15h2.094v-2.15Z"/><path fill="#C0BFC0" d="M4.086 10.96H1.992v2.15h2.094v-2.15Z"/><path fill="#C0BFC0" d="M4.086 12.953H1.992v2.15h2.094v-2.15Z"/><path fill="#C0BFC0" d="M4.086 14.945H1.992v2.15h2.094v-2.15Z"/><path fill="#C0BFC0" d="M4.086 16.938H1.992v2.15h2.094v-2.15Z"/><path fill="#C0BFC0" d="M4.086 18.93H1.992v2.15h2.094v-2.15Z"/><path fill="#C0BFC0" d="M4.086 20.923H1.992v2.15h2.094v-2.15Z"/><path fill="#C0BFC0" d="M4.086 22.916H1.992v2.15h2.094v-2.15Z"/><path fill="#C0BFC0" d="M4.086 24.909H1.992v2.15h2.094v-2.15Z"/><path fill="#C0BFC0" d="M4.086 26.902H1.992v2.15h2.094v-2.15Z"/><path fill="#C0BFC0" d="M4.086 28.894H1.992v2.15h2.094v-2.15Z"/><path fill="#C0BFC0" d="M4.086 30.887H1.992v2.15h2.094v-2.15Z"/><path fill="#C0BFC0" d="M4.086 32.88H1.992v2.15h2.094v-2.15Z"/><path fill="#C0BFC0" d="M4.086 34.872H1.992v2.15h2.094v-2.15Z"/><path fill="#C0BFC0" d="M4.086 36.865H1.992v2.15h2.094v-2.15ZM24.032 13.949h-2.095v2.15h2.095v-2.15Z"/><path fill="#C0BFC0" d="M26.032 11.956h-2.095v2.15h2.095v-2.15Z"/><path fill="#F1EFED" d="M12.07 12.953H9.978v2.15h2.094v-2.15ZM23.04 27.898h-2.095v2.15h2.094v-2.15ZM10.07 23.913H7.978v2.15h2.094v-2.15Z"/><path fill="#F1EFED" d="M10.07 25.905H7.978v2.15h2.094v-2.15Z"/><path fill="#F1EFED" d="M12.07 25.905H9.978v2.15h2.094v-2.15Z"/><path fill="#F1EFED" d="M12.07 27.898H9.978v2.15h2.094v-2.15Z"/><path fill="#F1EFED" d="M10.07 27.898H7.978v2.15h2.094v-2.15Z"/><path fill="#F1EFED" d="M10.07 29.89H7.978v2.15h2.094v-2.15Z"/><path fill="#F1EFED" d="M10.07 30.887H7.978v2.15h2.094v-2.15Z"/><path fill="#F1EFED" d="M12.07 29.89H9.978v2.15h2.094v-2.15Z"/><path fill="#F1EFED" d="M14.063 29.89h-2.094v2.15h2.094v-2.15Z"/><path fill="#F1EFED" d="M14.063 28.894h-2.094v2.15h2.094v-2.15Z"/><path fill="#F1EFED" d="M16.055 28.894h-2.094v2.15h2.094v-2.15Z"/><path fill="#F1EFED" d="M16.055 27.898h-2.094v2.15h2.094v-2.15Z"/><path fill="#F1EFED" d="M14.063 25.905h-2.094v2.15h2.094v-2.15ZM16.055 29.89h-2.094v2.15h2.094v-2.15ZM15.063 12.953h-2.094v2.15h2.094v-2.15Z"/><path fill="#F1EFED" d="M16.055 12.953h-2.094v2.15h2.094v-2.15Z"/><path fill="#000" d="M7.078 6.974H4.984v2.15h2.094v-2.15Z"/><path fill="#000" d="M7.078 8.967H4.984v2.15h2.094v-2.15Z"/><path fill="#000" d="M7.078 10.96H4.984v2.15h2.094v-2.15Z"/><path fill="#000" d="M7.078 12.953H4.984v2.15h2.094v-2.15Z"/><path fill="#000" d="M7.078 14.945H4.984v2.15h2.094v-2.15Z"/><path fill="#000" d="M7.078 16.938H4.984v2.15h2.094v-2.15Z"/><path fill="#000" d="M7.078 18.93H4.984v2.15h2.094v-2.15Z"/><path fill="#000" d="M7.078 20.923H4.984v2.15h2.094v-2.15Z"/><path fill="#000" d="M7.078 22.916H4.984v2.15h2.094v-2.15Z"/><path fill="#000" d="M7.078 24.909H4.984v2.15h2.094v-2.15Z"/><path fill="#000" d="M7.078 26.902H4.984v2.15h2.094v-2.15Z"/><path fill="#000" d="M7.078 28.894H4.984v2.15h2.094v-2.15Z"/><path fill="#000" d="M7.078 30.887H4.984v2.15h2.094v-2.15Z"/><path fill="#000" d="M7.078 32.88H4.984v2.15h2.094v-2.15Z"/><path fill="#000" d="M7.078 34.872H4.984v2.15h2.094v-2.15Z"/><path fill="#C0BFC0" d="M10.07 28.894H7.978v2.15h2.094v-2.15Z"/><path fill="#8F8E93" d="M13.063 30.887h-2.094v2.15h2.094v-2.15Z"/><path fill="#8F8E93" d="M15.063 29.89h-2.094v2.15h2.094v-2.15Z"/><path fill="#000" d="M7.086 4.983H4.992v2.15h2.094v-2.15Z"/><path fill="#000" d="M9.078 4.983H6.984v2.15h2.094v-2.15Z"/><path fill="#000" d="M11.078 4.983H8.984v2.15h2.094v-2.15Z"/><path fill="#000" d="M13.07 4.983h-2.093v2.15h2.094v-2.15Z"/><path fill="#000" d="M15.063 4.983h-2.094v2.15h2.094v-2.15Z"/><path fill="#000" d="M17.063 4.983h-2.094v2.15h2.094v-2.15Z"/><path fill="#000" d="M19.055 4.983h-2.094v2.15h2.094v-2.15Z"/><path fill="#000" d="M21.047 4.983h-2.094v2.15h2.094v-2.15Z"/><path fill="#000" d="M23.04 4.983h-2.095v2.15h2.094v-2.15Z"/><path fill="#000" d="M25.04 4.983h-2.095v2.15h2.094v-2.15Z"/><path fill="#000" d="M27.032 4.983h-2.095v2.15h2.095v-2.15Z"/><path fill="#000" d="M29.024 4.983H26.93v2.15h2.094v-2.15Z"/><path fill="#000" d="M31.024 4.983H28.93v2.15h2.094v-2.15Z"/><defs><linearGradient id="a" x1="4.984" x2="30.117" y1="20.962" y2="20.962" gradientUnits="userSpaceOnUse"><stop stop-color="#D6FFBB"/><stop offset="1" stop-color="#5869DD"/></linearGradient><linearGradient id="b" x1="4.984" x2="30.117" y1="20.962" y2="20.962" gradientUnits="userSpaceOnUse"><stop stop-color="#D6FFBB"/><stop offset="1" stop-color="#5869DD"/></linearGradient><linearGradient id="c" x1="4.984" x2="30.117" y1="20.962" y2="20.962" gradientUnits="userSpaceOnUse"><stop stop-color="#D6FFBB"/><stop offset="1" stop-color="#5869DD"/></linearGradient><linearGradient id="d" x1="4.984" x2="30.117" y1="20.962" y2="20.962" gradientUnits="userSpaceOnUse"><stop stop-color="#D6FFBB"/><stop offset="1" stop-color="#5869DD"/></linearGradient><linearGradient id="e" x1="4.984" x2="30.117" y1="20.962" y2="20.962" gradientUnits="userSpaceOnUse"><stop stop-color="#D6FFBB"/><stop offset="1" stop-color="#5869DD"/></linearGradient><linearGradient id="f" x1="4.984" x2="30.117" y1="20.962" y2="20.962" gradientUnits="userSpaceOnUse"><stop stop-color="#D6FFBB"/><stop offset="1" stop-color="#5869DD"/></linearGradient><linearGradient id="g" x1="4.984" x2="30.117" y1="20.962" y2="20.962" gradientUnits="userSpaceOnUse"><stop stop-color="#D6FFBB"/><stop offset="1" stop-color="#5869DD"/></linearGradient><linearGradient id="h" x1="4.984" x2="30.117" y1="20.962" y2="20.962" gradientUnits="userSpaceOnUse"><stop stop-color="#D6FFBB"/><stop offset="1" stop-color="#5869DD"/></linearGradient><linearGradient id="i" x1="4.984" x2="30.117" y1="20.962" y2="20.962" gradientUnits="userSpaceOnUse"><stop stop-color="#D6FFBB"/><stop offset="1" stop-color="#5869DD"/></linearGradient><linearGradient id="j" x1="4.984" x2="30.117" y1="20.962" y2="20.962" gradientUnits="userSpaceOnUse"><stop stop-color="#D6FFBB"/><stop offset="1" stop-color="#5869DD"/></linearGradient><linearGradient id="k" x1="4.984" x2="30.117" y1="20.962" y2="20.962" gradientUnits="userSpaceOnUse"><stop stop-color="#D6FFBB"/><stop offset="1" stop-color="#5869DD"/></linearGradient><linearGradient id="l" x1="4.984" x2="30.117" y1="20.962" y2="20.962" gradientUnits="userSpaceOnUse"><stop stop-color="#D6FFBB"/><stop offset="1" stop-color="#5869DD"/></linearGradient><linearGradient id="m" x1="18.555" x2="18.555" y1="34.872" y2="6.527" gradientUnits="userSpaceOnUse"><stop stop-color="#D6FFBB"/><stop offset="1" stop-color="#5869DD"/></linearGradient><linearGradient id="n" x1="18.555" x2="18.555" y1="34.872" y2="6.527" gradientUnits="userSpaceOnUse"><stop stop-color="#D6FFBB"/><stop offset="1" stop-color="#5869DD"/></linearGradient><linearGradient id="o" x1="18.555" x2="18.555" y1="34.872" y2="6.527" gradientUnits="userSpaceOnUse"><stop stop-color="#D6FFBB"/><stop offset="1" stop-color="#5869DD"/></linearGradient><linearGradient id="p" x1="18.555" x2="18.555" y1="34.872" y2="6.527" gradientUnits="userSpaceOnUse"><stop stop-color="#D6FFBB"/><stop offset="1" stop-color="#5869DD"/></linearGradient><linearGradient id="q" x1="18.555" x2="18.555" y1="34.872" y2="6.527" gradientUnits="userSpaceOnUse"><stop stop-color="#D6FFBB"/><stop offset="1" stop-color="#5869DD"/></linearGradient><linearGradient id="r" x1="18.555" x2="18.555" y1="34.872" y2="6.527" gradientUnits="userSpaceOnUse"><stop stop-color="#D6FFBB"/><stop offset="1" stop-color="#5869DD"/></linearGradient><linearGradient id="s" x1="18.555" x2="18.555" y1="34.872" y2="6.527" gradientUnits="userSpaceOnUse"><stop stop-color="#D6FFBB"/><stop offset="1" stop-color="#5869DD"/></linearGradient><linearGradient id="t" x1="18.555" x2="18.555" y1="34.872" y2="6.527" gradientUnits="userSpaceOnUse"><stop stop-color="#D6FFBB"/><stop offset="1" stop-color="#5869DD"/></linearGradient><linearGradient id="u" x1="18.555" x2="18.555" y1="34.872" y2="6.527" gradientUnits="userSpaceOnUse"><stop stop-color="#D6FFBB"/><stop offset="1" stop-color="#5869DD"/></linearGradient><linearGradient id="v" x1="18.555" x2="18.555" y1="34.872" y2="6.527" gradientUnits="userSpaceOnUse"><stop stop-color="#D6FFBB"/><stop offset="1" stop-color="#5869DD"/></linearGradient><linearGradient id="w" x1="18.555" x2="18.555" y1="34.872" y2="6.527" gradientUnits="userSpaceOnUse"><stop stop-color="#D6FFBB"/><stop offset="1" stop-color="#5869DD"/></linearGradient><linearGradient id="x" x1="18.555" x2="18.555" y1="34.872" y2="6.527" gradientUnits="userSpaceOnUse"><stop stop-color="#D6FFBB"/><stop offset="1" stop-color="#5869DD"/></linearGradient><linearGradient id="y" x1="18.555" x2="18.555" y1="34.872" y2="6.527" gradientUnits="userSpaceOnUse"><stop stop-color="#D6FFBB"/><stop offset="1" stop-color="#5869DD"/></linearGradient><linearGradient id="z" x1="18.555" x2="18.555" y1="34.872" y2="6.527" gradientUnits="userSpaceOnUse"><stop stop-color="#D6FFBB"/><stop offset="1" stop-color="#5869DD"/></linearGradient></defs></svg>
