<svg xmlns="http://www.w3.org/2000/svg" width="1547" height="608" fill="none" viewBox="0 0 1547 608"><path stroke="#8F8E93" stroke-width="2" d="M230.469 121h-225v98m461 71h-49m-49 0h49m0 0-38 28h-107l-31-28h-63v-71h-173m0 0v201m0 0h84m-84 0v97h461l52 40m-229-137h-200m0 0v-38l44.5-19 44.5-19m666 173h-87l-52 40h-187m0 0h-97v50h247"/><path fill="#000" d="M238.782 116a7.747 7.747 0 1 0-.07 15.494 7.747 7.747 0 0 0 .07-15.494Z"/><path fill="#F0EFED" stroke="#000" stroke-width="1.291" d="M222.646 120.714a7.1 7.1 0 0 1 7.133-7.068 7.1 7.1 0 1 1-7.133 7.068Z"/><path fill="#000" d="M474.782 285a7.747 7.747 0 1 0-.07 15.494 7.747 7.747 0 0 0 .07-15.494Z"/><path fill="#F0EFED" stroke="#000" stroke-width="1.291" d="M458.646 289.714a7.1 7.1 0 0 1 7.133-7.068 7.1 7.1 0 1 1-7.133 7.068Z"/><path fill="#000" d="M852.782 512a7.747 7.747 0 1 0-.07 15.494 7.747 7.747 0 0 0 .07-15.494Z"/><path fill="#F0EFED" stroke="#000" stroke-width="1.291" d="M836.646 516.714a7.1 7.1 0 0 1 7.133-7.068 7.1 7.1 0 1 1-7.133 7.068Z"/><g stroke="#8F8E93" opacity=".2"><path fill="#8F8E93" d="m1407.24 63.415.43.76.44-.756 1.8-3.102v-.002a3.533 3.533 0 0 1 4.83-1.299c1.7.969 2.27 3.132 1.3 4.834v.001l-17.29 29.932-.44.75H1411.69c1.81 0 3.24 1.06 4.02 2.53.74 1.391.88 3.102.23 4.535h-36.36a3.518 3.518 0 0 1-3.53-3.532 3.518 3.518 0 0 1 3.53-3.533H1390.15l.15-.25 13.16-22.81.14-.25-.14-.25-4.11-7.133a3.538 3.538 0 1 1 6.13-3.535l1.76 3.11Zm-19.43 49.312v.002c-.97 1.695-3.13 2.271-4.83 1.298-1.7-.968-2.27-3.131-1.3-4.834l2.78-4.812c1.48-.429 2.79-.457 3.96-.12 1.13.325 2.16.998 3.09 2.049l-3.7 6.417Zm37.27-18.422.15.25h10.78c1.96 0 3.53 1.571 3.53 3.533a3.518 3.518 0 0 1-3.53 3.532h-6.7l.44.75 3.93 6.823c.97 1.7.4 3.843-1.3 4.836a3.55 3.55 0 0 1-4.84-1.303c-3.68-6.389-6.86-11.883-9.51-16.486-2.13-3.675-3.92-6.782-5.39-9.325v-.001c-3.03-5.234-1.18-10.453.87-12.615 2.23 3.82 5.3 9.153 9.25 15.99.74 1.286 1.52 2.624 2.32 4.016Z"/><path fill="#8F8E93" stroke-width="3" d="M1052.88 38.145c0-.348.03-.653.08-.919l26.26 26.264-26.26 26.28a4.853 4.853 0 0 1-.08-.912V38.145ZM1101.14 61.491l.01.003c1.33.748 1.64 1.529 1.64 1.996 0 .47-.32 1.257-1.65 2.017l-10.42 5.925-7.93-7.934 7.93-7.933 10.42 5.926Z"/><path stroke-width="3" d="M1055.2 91.438 1081 65.62l7.23 7.23-31.77 18.086c-.48.265-.9.422-1.26.5Z"/><path fill="#F1EFED" stroke-width="3" d="m1081 61.377-25.81-25.804c.36.078.78.237 1.26.511v.002l31.78 18.062-7.23 7.23ZM1078.6 221.262h-47.35l8.46-54.127v-.001a.124.124 0 0 1 .09-.093c.05-.008.1.015.12.058l.01.01v.01l9.09 16.396 1.31 2.372 1.31-2.373 3.54-6.41.01-.014.01-.013c.02-.037.05-.06.1-.06.04 0 .08.023.1.059v.001l23.2 44.185Z"/><path stroke-width="3" d="m1051.38 183.222-20.76 39.54"/><path fill="#8F8E93" stroke-width="3" d="m1031.96 222.421 40.77-40.843c.03-.03.08-.039.11-.027.04.013.07.046.08.086v.003l6.52 40.322-22.62 12.574v.002a3.335 3.335 0 0 1-3.25.001v-.001l-21.61-12.117Z"/><path fill="#F1EFED" stroke-width="3" d="M1239.42 233.962c.25-.186.56-.289.88-.299h17.38l-19.49 57.75c-.11.316-.31.591-.59.786-.27.195-.59.3-.93.3h-15.11a1.56 1.56 0 0 1-1.29-.663 1.477 1.477 0 0 1-.28-.693c-.04-.25-.02-.505.06-.744l18.78-55.65v-.001c.11-.316.31-.591.59-.786Z"/><path fill="#F1EFED" stroke-width="3" d="M1274.04 292.499h-15.33c-.41 0-.8-.155-1.1-.433l-19.65-18.34h29.54l6.54 18.773Zm-36.27-18.773Z"/><path fill="#8F8E93" stroke-width="3" d="m1263.73 234.746 18.78 55.652v.001c.08.239.11.494.07.744-.04.25-.14.488-.28.693-.15.205-.34.373-.57.488-.22.116-.47.176-.73.176h-17.33c.11-.294.19-.6.23-.913.11-.721.04-1.457-.19-2.148l-18.78-55.652c-.02-.042-.03-.083-.04-.124h17.33c.33 0 .66.105.93.299l.87-1.219-.87 1.219c.27.194.47.468.58.784Z"/><path fill="#8F8E93" d="m1401.58 252.041.46-1.876c1.63-6.666.53-14.874-3.51-22.599l.44-.232-.44.232a.53.53 0 0 0-.77-.211l-12.74 7.967a.545.545 0 0 0-.17.748l1.87 2.991c.16.254.49.331.74.173v-.001l8.26-5.163.53-.332.21.591c.28.805.53 1.616.74 2.435l-.48.127 4.86 15.15Zm0 0 1.31-1.418a35.541 35.541 0 0 0 4.03-5.288l-.42-.264m-4.92 6.97 4.92-6.97m0 0c1.85-2.965 3.21-6.094 4.05-9.303l.49.127c.8-3.071 1.11-6.077.89-8.934-.4-5.314-2.57-9.539-6.19-11.805-3.63-2.266-8.37-2.367-13.32-.398-2.66 1.059-5.22 2.65-7.63 4.722-2.55 2.199-4.79 4.839-6.67 7.843-1.87 3.005-3.26 6.181-4.12 9.441-.8 3.071-1.11 6.077-.89 8.934.4 5.314 2.57 9.538 6.19 11.804 1.81 1.131 3.9 1.724 6.16 1.788h.01m21.03-14.219-21.03 14.219m.28 0h-.09.09Zm0 0c2.26-.065 4.35-.657 6.15-1.787l-6.15 1.787Zm-.28 0h.01m-.01 0h.01m0 0h.11-.11Zm-25.31-23.395c.86 3.26 2.24 6.436 4.12 9.44 1.2 1.92 2.55 3.688 4.03 5.289l1.31 1.418-.46-1.876c-1.83-7.448-.24-16.82 5.05-25.287l-.43-.265.43.265c1.99-3.195 4.33-5.974 6.88-8.285l.53-.482-.63-.332c-.73-.379-1.47-.724-2.22-1.022-4.94-1.969-9.69-1.868-13.31.398-3.62 2.266-5.79 6.491-6.19 11.805-.22 2.857.08 5.863.89 8.934Zm25.16-22.935.27.168.27-.168c7.57-4.774 15.98-5.677 22.31-1.715 5 3.13 7.85 8.749 8.34 15.369.5 6.619-1.35 14.203-5.69 21.166-6.42 10.28-16.41 16.234-25.22 16.124v-.001l-.01.001c-8.81.11-18.8-5.844-25.22-16.124-4.34-6.963-6.2-14.547-5.7-21.166.5-6.62 3.34-12.239 8.35-15.369 6.33-3.961 14.73-3.057 22.3 1.715ZM1326.02 373.805v.003c13.09 7.594 29.23 12.191 45.92 12.191 11.27 0 23.65-2.345 35.03-7.16l.02-.005c.64-.293 1.15-.063 1.37.247.11.157.15.342.11.536-.04.193-.18.442-.52.692-9.99 7.382-24.55 11.32-37.08 11.32-17.55 0-33.36-6.49-45.31-17.274-.16-.152-.22-.288-.24-.377-.01-.089.01-.156.05-.201.04-.063.24-.213.65.028Z"/><path fill="#8F8E93" d="M1400.58 375.027v.001a.579.579 0 0 1-.27-.014c0-.022.01-.062.05-.121.05-.094.15-.217.33-.343 2.77-1.944 6.46-2.655 9.64-2.701 1.59-.022 3.02.121 4.11.349.55.114 1 .247 1.34.385.36.144.53.271.59.339.05.067.13.254.18.628.05.359.07.826.04 1.383-.06 1.111-.29 2.531-.73 4.056-.88 3.061-2.54 6.461-5.14 8.644v.002c-.16.138-.3.207-.4.234a.33.33 0 0 1-.12.015c-.01-.036-.01-.121.05-.265.61-1.518 1.61-4.009 2.3-6.33.34-1.158.61-2.295.7-3.258.05-.481.06-.936.01-1.337-.05-.396-.17-.779-.41-1.08-.23-.301-.57-.511-.95-.663a5.794 5.794 0 0 0-1.29-.34c-.96-.153-2.12-.188-3.32-.159-2.41.058-5.07.376-6.71.575Z"/><path fill="#8F8E93" stroke-width="2" d="m1097.68 392.128 9.5-8.445-9.5-8.444v16.889Zm34.2-34.201c-1.69-1.689-4.85-3.8-10.13-3.8-5.7 0-11.61 1.478-15.84 2.956v-24.068h-8.44v36.524l5.91-2.745s9.71-4.433 18.16-4.433c4.22 0 5.27 2.322 5.27 4.433v25.334h8.45v-25.334c.21-.633.21-5.278-3.38-8.867Zm-11.19-11.189h8.45c3.8-4.434 5.7-8.867 6.33-13.723h-8.44c-.85 4.856-2.96 9.289-6.34 13.723Z"/><path stroke-width="3" d="M1205.6 129.776a23.978 23.978 0 0 1 5.29-8.364 23.863 23.863 0 0 1 10.25-6.216 23.922 23.922 0 0 1 11.99-.453c3.71.815 7.18 2.504 10.1 4.923l-.12 1.086-4.85 4.841h-.8a15.6 15.6 0 0 0-20.65 1.671c-.17.089-.3.189-.39.265a3.38 3.38 0 0 0-.49.529c-.01.006-.01.012-.02.018l-10.31 1.7Z"/><path fill="#8F8E93" stroke-width="3" d="m1251.14 131.828.14.538.46.312a16.87 16.87 0 0 1 6.47 8.383 16.945 16.945 0 0 1 .19 10.583 16.863 16.863 0 0 1-6.16 8.611 16.83 16.83 0 0 1-10.07 3.244h-13.51l-.53-.529v-7.228l.54-.543h13.49a8.555 8.555 0 0 0 7.9-11.833 8.622 8.622 0 0 0-1.85-2.776 8.605 8.605 0 0 0-4.55-2.374v-.026c.04-2.356-.45-4.691-1.44-6.83a15.53 15.53 0 0 0-3.07-4.415l5.79-5.791c2.96 2.95 5.1 6.629 6.2 10.674Z"/><path stroke-width="3" d="M1213.9 163.42c-3.34.015-6.61-.97-9.37-2.817l.14-.583 5.13-5.096 1.12-.346c.95.358 1.96.542 2.98.542h12.62v8.3h-12.62Z"/><path fill="#8F8E93" stroke-width="3" d="M1204.14 132.959a16.835 16.835 0 0 1 9.77-3.196 16.862 16.862 0 0 1 12.6 5.601l-5.88 5.881a8.799 8.799 0 0 0-1.44-1.434 8.588 8.588 0 0 0-3.74-1.677 8.535 8.535 0 0 0-4.08.25 8.597 8.597 0 0 0-3.51 2.118c-.97.979-1.7 2.18-2.11 3.502a8.448 8.448 0 0 0-.25 4.086 8.591 8.591 0 0 0 1.67 3.733 8.66 8.66 0 0 0 1.44 1.443l-5.88 5.878a16.82 16.82 0 0 1-4.84-7.619c-1.03-3.36-.97-6.956.15-10.284a16.831 16.831 0 0 1 6.1-8.282Z"/></g><path stroke="url(#a)" stroke-width="2" d="M793.469 161h149l60.001-82h19m84 14v63h59m204-92h-15v55h-20V1h-22.78v118h-22.78V1h-22.77v92h-22.78V1h-22.78v72h-22.78V1h-22.78v92l-22.77-20V1h-22.78v40l-23-20h-23M771.469 199v28h220v29h41.001m96-33v33h-96m0 0v101h-23 40m140-77h-25m-115 77h20v-56m-20 56v45h25m90-122h-95v21m95-21v-73h123.44m0 0h35.56v128h58v-34m-93.56-94v-67h121.56m-121.56 231h-45.55m0 0h-45.56v-52l-22.78-18h-104.55m172.89 70v-52M1537.47 1h-143v28h59v35h26v76h-70m0 0v21l-46 9"/><g opacity=".5"><path fill="url(#b)" d="M793.469 171h150v9.045h-150V171Z"/><path fill="url(#c)" d="M1433.92 152.985v86.738h9.04v-86.738h-9.04Z"/><path fill="url(#d)" d="M1308.07 149.615h66.36v-4.365h-66.36v4.365Z"/><path fill="url(#e)" d="M793.469 214.5h200v5.279h-200V214.5Z"/><path fill="url(#f)" d="M1424.47 261v-10.5h52.95V261h-52.95Z"/><path fill="url(#g)" d="M1477.42 152.985h5.28V261h-5.28V152.985Z"/><path fill="url(#h)" d="M948.869 200.458v-38.822l55.541-78.641 2.69 1.833-55.545 76.808v38.822h-2.686Z"/><path fill="url(#i)" d="m1004.41 82.995 2.69 1.833h14.37v-1.833h-17.06Z"/><path fill="url(#j)" d="M951.555 171v29.458h35.414L1010.47 171h-58.915Z"/><path fill="url(#k)" d="M1111.44 122.22v29.458h35.41l23.5-29.458h-58.91Z"/><path fill="url(#l)" d="M1108.75 151.678h2.69V93.856h-2.69v57.822Z"/><path fill="url(#m)" d="M793.469 185.105h150V202h-150v-16.895Z"/><path fill="url(#n)" d="M1068.58 273.201h69.51v2.299h-69.51v-2.299Z"/><path fill="url(#o)" d="M1068.58 267.322h69.51v3.277h-69.51v-3.277Z"/><path fill="url(#p)" d="M1068.58 259.25h69.51v5.47h-69.51v-5.47Z"/><path fill="url(#q)" d="M1132.47 259.25h5.62v-35.5h-5.62v35.5Z"/><path fill="url(#r)" d="M1448.02 152.985v86.738h16.9v-86.738h-16.9Z"/><path fill="url(#s)" d="M953.219 161.75h64.251l-6 7.5h-58.251v-7.5Z"/><path fill="url(#t)" d="M1045.72 260.901v55.25l-7.5-10v-45.25h7.5Z"/><path fill="url(#u)" fill-rule="evenodd" d="m1003.7 94.001 3.77-5.501h15.75l-3.66 5.501h-15.86Zm-.86 1.25h15.89l-4.65 7h-16.04l4.8-7ZM992.383 110.5l4.8-7h16.067l-4.65 7h-16.217Zm-5.657 8.25 4.8-7h16.244l-4.65 7h-16.394Zm-5.657 8.25 4.8-7h16.421l-4.646 7h-16.575Zm-5.657 8.25 4.8-7h16.602l-4.65 7h-16.752Zm-5.657 8.25 4.8-7h16.778l-4.65 7h-16.928Zm-5.657 8.249 4.8-7h16.955l-4.65 7h-17.105Zm-.857 1.25h17.132l-3.654 5.501h-17.25l3.772-5.501Z" clip-rule="evenodd"/><path fill="url(#v)" fill-rule="evenodd" d="m1000.24 127 4.8-7h16.43l-4.65 7h-16.58Zm-5.653 8.25 4.8-7h16.603l-4.65 7h-16.753Zm-5.657 8.25 4.8-7h16.78l-4.65 7h-16.93Zm-5.657 8.249 4.8-7h16.957l-4.65 7h-17.107Zm-.857 1.25h17.132l-3.654 5.501h-17.25l3.772-5.501Z" clip-rule="evenodd"/><path fill="url(#w)" d="M997.697 215.82 1041 251.901h-43.303V215.82Z"/><path fill="url(#x)" d="m1293.42 160.25 29.3 39.081h-29.3V160.25Z"/><path fill="url(#y)" d="m1038.22 314.975 25.75 36.08h-25.75v-36.08Z"/><path fill="url(#z)" d="m1122.62 215.82-21.65 36.081h21.65V215.82Z"/><path fill="url(#A)" fill-rule="evenodd" d="m1181.6 297.721 23.37 18.8V328h31v13.5h-31v9.5h31v13h-32v-2h30v-9h-31v-13.5h31V330h-31v-12.521l-22.63-18.2 1.26-1.558Z" clip-rule="evenodd"/><path fill="url(#B)" d="M1452.97 69.5h23v3.75h-23V69.5Z"/><path fill="url(#C)" d="M1452.97 76.25h23V80h-23v-3.75Z"/><path fill="url(#D)" d="M1452.97 83h23v3.75h-23V83Z"/><path fill="url(#E)" d="M1452.97 89.75h23v3.75h-23v-3.75Z"/><path fill="url(#F)" d="M1452.97 96.5h23v3.75h-23V96.5Z"/><path fill="url(#G)" d="M1452.97 103.25h23V107h-23v-3.75Z"/><path fill="url(#H)" d="M1452.97 110h23v3.75h-23V110Z"/><path fill="url(#I)" d="M1452.97 116.75h23v3.75h-23v-3.75Z"/><path fill="url(#J)" d="M1452.97 123.5h23v3.75h-23v-3.75Z"/><path fill="url(#K)" d="M1452.97 130.25h23V134h-23v-3.75Z"/><path fill="url(#L)" d="M1034.61 80.53a4 4 0 1 1-7.999 0 4 4 0 0 1 7.999 0Z"/><path fill="url(#M)" d="M1177.94 156.985a4 4 0 1 1-8 0 4 4 0 0 1 8 0Z"/><path fill="url(#N)" d="M1132.62 211.253a4 4 0 1 1-8 0 4 4 0 0 1 8 0Z"/><path fill="url(#O)" d="M1085.09 402a4 4 0 1 1-8 0 4 4 0 0 1 8 0Z"/><path fill="url(#P)" d="M1247.12 310.975a4 4 0 1 1-8 0 4 4 0 0 1 8 0Z"/><path fill="url(#Q)" d="M1385.6 294a4 4 0 1 1-8 0 4 4 0 0 1 8 0Z"/><path fill="url(#R)" d="M1379.55 63.487a4 4 0 1 1-7.999.001 4 4 0 0 1 7.999 0Z"/><path fill="url(#S)" d="M1075.55 21.987a4 4 0 1 1-7.999.001 4 4 0 0 1 7.999 0Z"/><path fill="url(#T)" d="M1170.97 213.5h25.5l-10 15V274h-15.5v-60.5Z"/><path fill="url(#U)" fill-rule="evenodd" d="M1269.53 185.571c.08-.01.17-.012.25-.007l.26.016c.08.005.17.017.25.035l.25.06c.08.017.15.039.22.067l.26.103c.06.024.12.053.18.085l.26.145c.05.028.1.058.14.091l.26.185c.04.028.07.057.11.087l.26.225c.03.026.05.052.08.079l.26.262.06.069.26.297c.02.019.03.039.05.059l.26.33.03.049.26.359.03.041.26.385c.01.011.01.022.02.033l.26.408c0 .005 0 .01.01.014v.013l.26.427.01.02.26.443.01.014.26.464.26.465.26.465.26.458v.006l.25.442.01.011.24.431.25.419.24.395.24.367.23.336.24.327a1.5 1.5 0 1 1-2.41 1.786l-.26-.348-.03-.044-.26-.376c0-.012-.01-.024-.02-.036l-.26-.4c0-.006-.01-.011-.01-.017 0-.004 0-.008-.01-.012l-.25-.42-.02-.023-.26-.437-.01-.017-.26-.461-.26-.459v-.006l-.26-.465v-.001l-.26-.461v-.004l-.25-.448v-.009l-.25-.438-.25-.426-.25-.404-.23-.379-.24-.348-.22-.314-.22-.275-.2-.234-.19-.188-.16-.141-.13-.095-.1-.055-.06-.023-.02-.006h-.01l-.01.001-.03.009-.07.031-.11.066-.14.108-.17.155-.19.202-.21.246-.22.287-.23.324-.23.358-.24.386-.25.411-.25.431-.25.443v.007l-.26.456-.26.465-.26.471-.26.457v.012l-.26.447-.01.019-.26.433-.01.024-.26.415c-.01.01-.02.02-.02.03l-.26.394-.03.038-.25.368c-.02.016-.03.031-.04.046l-.26.34c-.01.019-.03.037-.04.056l-.26.308-.06.065-.25.275c-.03.026-.05.051-.08.075l-.26.238a.714.714 0 0 1-.1.084l-.26.199a.851.851 0 0 1-.13.09l-.26.159c-.05.033-.11.062-.16.088l-.26.117c-.07.03-.14.055-.21.075l-.26.074c-.07.022-.15.038-.23.048l-.26.03c-.09.01-.17.012-.26.008l-.25-.014a1.396 1.396 0 0 1-.25-.034l-.26-.057a1.538 1.538 0 0 1-.22-.067l-.26-.1a1.827 1.827 0 0 1-.18-.085l-.26-.143c-.04-.028-.09-.058-.14-.091l-.26-.184c-.04-.027-.07-.056-.11-.087l-.26-.224c-.03-.025-.05-.051-.08-.079l-.26-.26-.06-.07-.26-.295c-.02-.02-.03-.039-.05-.059l-.26-.329c-.01-.016-.02-.033-.04-.049l-.25-.358-.03-.041-.26-.385c-.01-.011-.02-.022-.02-.033l-.26-.407c-.01-.009-.01-.018-.02-.027l-.26-.427-.01-.02-.26-.442v-.015l-.27-.463-.26-.461v-.005l-.51-.923v-.005l-.26-.449-.25-.437-.24-.419-.25-.396-.23-.369-.23-.338-.23-.301-.21-.262-.2-.218-.17-.173-.16-.126-.12-.081-.08-.042-.05-.016-.02-.003-.02.002-.04.016-.09.041-.12.079-.15.124-.17.17-.2.217-.21.26-.22.3-.24.336-.23.367-.25.395-.24.419-.25.436-.25.448-.52.933-.27.471-.25.454-.01.014-.26.443-.01.02-.26.427c-.01.009-.01.018-.02.027l-.25.408-.03.033-.25.385-.03.041-.26.359a.16.16 0 0 1-.04.049l-.26.33c-.01.02-.03.04-.04.059l-.26.297a.417.417 0 0 1-.07.069l-.25.262a6.36 6.36 0 0 1-.09.079l-.26.225a.844.844 0 0 1-.11.087l-.25.185a2.4 2.4 0 0 1-.15.091l-.25.145c-.06.032-.12.061-.18.085l-.26.103c-.07.028-.15.05-.22.067l-.26.06c-.08.018-.16.03-.24.035l-.26.016c-.09.005-.17.003-.26-.007l-.25-.028a1.561 1.561 0 0 1-.24-.046l-.26-.072c-.07-.02-.14-.044-.21-.074l-.26-.115c-.05-.026-.11-.056-.16-.089l-.26-.156c-.05-.028-.09-.058-.14-.091l-.25-.197a.656.656 0 0 1-.1-.085l-.26-.236a.449.449 0 0 1-.08-.076l-.26-.272-.06-.066-.25-.307a.232.232 0 0 1-.05-.056l-.26-.339a1.84 1.84 0 0 1-.03-.046l-.26-.367-.03-.039-.25-.392c-.01-.01-.02-.021-.02-.031l-.26-.414-.02-.025-.26-.432-.01-.018-.25-.447-.01-.013-.26-.464-.26-.466-.26-.463-.26-.459-.25-.448-.25-.431-.24-.412-.24-.388-.24-.358-.23-.326-.22-.289-.21-.248-.19-.203-.17-.157-.14-.11-.11-.068-.07-.032-.04-.01-.01-.001-.14.03a1.5 1.5 0 1 1-.65-2.928l.26-.057c.08-.018.16-.03.24-.034l.26-.014c.08-.004.17-.002.25.008l.26.03c.08.01.16.026.24.048l.26.074c.07.02.14.045.2.075l.26.117c.06.026.11.055.17.088l.26.159c.04.027.09.058.13.09l.26.199c.03.027.06.055.1.084l.25.238c.03.024.06.049.08.075l.26.275.06.065.25.308c.02.019.03.037.05.056l.26.34.03.046.26.368.03.038.25.394c.01.01.02.02.02.03l.26.415.02.024.25.433.01.019.26.447.01.012.26.465.26.465.26.463.25.46.26.446.25.431.24.411.24.386.24.358.23.324.21.287.21.246.19.202.17.155.14.108.11.066.07.031.03.009.02.001.03-.006.06-.023.09-.055.14-.095.16-.141.18-.188.21-.234.21-.275.23-.314.23-.348.24-.379.24-.404.25-.426.25-.442.26-.453v-.004l.52-.933.26-.47.26-.45.01-.017.26-.437.01-.023.26-.42c.01-.01.01-.019.02-.029l.26-.4c0-.012.01-.024.02-.036l.26-.376.03-.044.26-.348a.185.185 0 0 1 .04-.053l.26-.317a.239.239 0 0 1 .05-.063l.26-.284a.432.432 0 0 1 .07-.073l.26-.248c.03-.029.06-.056.09-.082l.26-.211c.04-.032.08-.061.12-.089l.26-.17c.05-.034.1-.064.15-.091l.26-.128c.06-.032.13-.059.2-.081l.25-.086c.08-.026.16-.045.23-.058l.26-.042c.08-.014.17-.021.25-.021l.26.001c.08.001.17.008.25.022l.26.045c.08.013.15.033.23.058l.26.088c.06.023.13.05.19.082l.26.131c.05.027.1.057.15.09l.26.172c.04.028.08.057.12.089l.26.212c.03.026.06.053.09.082l.26.25c.02.023.05.047.07.072l.26.286c.01.02.03.041.05.062l.26.319c.01.017.02.034.04.052l.26.35.03.043.25.377.03.036.26.401c0 .009.01.019.01.028l.26.422.02.022.25.438.01.016.27.462.26.465.51.926.01.004.25.453.25.442.25.425.24.403.24.377.23.347.23.312.21.274.21.232.18.186.16.139.13.093.1.053.06.023.02.005h.01l.01-.001.03-.01.07-.032.11-.068.15-.11.17-.157.19-.203.21-.248.22-.289.22-.325.24-.359.24-.388.25-.412.25-.431.25-.444v-.007l.25-.454.26-.468.26-.47.26-.457.01-.013.26-.447.01-.018.26-.432.01-.025.26-.414c.01-.01.01-.021.02-.031l.26-.392c.01-.013.02-.026.02-.039l.26-.367c.01-.016.03-.031.04-.046l.25-.339c.02-.019.03-.038.05-.056l.26-.307.06-.066.25-.272c.03-.027.06-.052.08-.076l.26-.236c.03-.03.07-.058.1-.085l.26-.197c.04-.033.09-.063.13-.091l.26-.156c.05-.033.11-.063.17-.089l.26-.115c.06-.029.13-.054.2-.074l.26-.072c.08-.022.16-.037.24-.046l.26-.028Z" clip-rule="evenodd"/><path fill="url(#V)" fill-rule="evenodd" d="M1111.56 286.373c.06-.003.11-.004.16-.002l.26.009c.05.002.1.007.16.014l.25.037c.05.007.1.016.15.028l.26.064c.04.011.09.024.13.039l.26.09c.04.014.08.03.12.047l.26.115c.03.015.07.032.1.05l.26.14c.03.015.06.032.08.05l.26.163c.03.015.05.031.07.048l.26.184.06.045.26.204c.02.013.03.027.05.04l.26.223c.01.011.02.023.04.035l.25.239c.01.009.03.019.04.029l.25.253.03.025.26.264.01.02.26.274.02.014.26.29.26.291.51.569.01.006.25.273.24.266.24.252.24.237.23.219.22.198.23.198c.64.531.72 1.477.19 2.113-.53.635-1.48.72-2.11.188l-.26-.216a.132.132 0 0 1-.04-.037l-.26-.233c-.01-.01-.02-.021-.04-.031l-.25-.248-.03-.027-.26-.26-.02-.021-.26-.271-.01-.016-.26-.28-.01-.01-.26-.285v-.006l-.52-.573v-.004l-.25-.273-.01-.009-.24-.265-.24-.258-.24-.243-.23-.226-.22-.206-.22-.185-.2-.161-.19-.138-.18-.112-.17-.089-.14-.066-.14-.046-.11-.029-.11-.015-.1-.003-.1.006-.11.019-.12.034-.14.051-.15.072-.17.096-.18.12-.2.144-.21.169-.22.191-.22.212-.23.231-.24.248-.25.261-.24.269-.01.008-.25.277v.002l-.25.286-.27.297-.26.283-.01.013-.26.277-.02.017-.25.268-.03.023-.25.257-.03.028-.26.244c-.01.011-.03.022-.04.033l-.26.228c-.01.013-.03.026-.04.039l-.26.21-.06.043-.25.191c-.03.017-.05.033-.07.048l-.26.17c-.03.017-.05.034-.08.05l-.26.147a.663.663 0 0 1-.1.051l-.25.123a1.5 1.5 0 0 1-.12.048l-.26.098c-.04.017-.08.031-.12.043l-.26.072c-.05.013-.1.024-.15.033l-.25.045c-.05.009-.11.016-.16.019l-.25.019c-.06.004-.11.005-.16.003l-.26-.008c-.05-.002-.1-.006-.16-.013l-.25-.036a1.58 1.58 0 0 1-.15-.028l-.26-.062c-.04-.011-.09-.024-.13-.039l-.26-.089a1.487 1.487 0 0 1-.12-.047l-.26-.114c-.03-.015-.07-.032-.1-.05l-.26-.138a2.05 2.05 0 0 1-.09-.051l-.26-.161c-.02-.016-.04-.032-.07-.049l-.26-.183-.06-.045-.25-.203c-.02-.014-.04-.027-.05-.041l-.26-.222c-.02-.011-.03-.023-.04-.035l-.26-.238-.03-.03-.26-.252c-.01-.008-.02-.017-.02-.025l-.26-.264-.02-.02-.26-.274-.01-.014-.27-.29-.26-.286v-.004l-.51-.57-.01-.006-.24-.273-.25-.267-.24-.253-.24-.237-.22-.22-.22-.199-.22-.177-.2-.154-.18-.129-.18-.105-.16-.08-.14-.059-.13-.04-.11-.024-.1-.011h-.1l-.11.01-.11.024-.13.039-.14.058-.16.08-.17.103-.19.128-.2.153-.21.176-.22.198-.23.219-.23.237-.24.252-.25.266-.25.276-.51.576-.27.295-.26.282-.01.014-.26.274-.02.019-.26.265c0 .009-.01.017-.02.025l-.26.253-.03.029-.26.239c-.01.012-.02.024-.04.035l-.26.223c-.01.013-.03.027-.04.04l-.26.204-.06.045-.26.184c-.02.017-.05.033-.07.048l-.26.163c-.03.018-.06.034-.09.05l-.26.14a.582.582 0 0 1-.1.05l-.26.115a.713.713 0 0 1-.11.047l-.26.09c-.05.015-.09.028-.14.039l-.25.064c-.05.011-.1.021-.15.028l-.26.037c-.05.007-.1.012-.15.014l-.26.009c-.06.002-.11.001-.16-.002l-.26-.018c-.05-.003-.1-.009-.15-.018l-.26-.045a.967.967 0 0 1-.14-.032l-.26-.071a.904.904 0 0 1-.13-.042l-.26-.097a.822.822 0 0 1-.11-.048l-.26-.123c-.03-.015-.07-.032-.1-.05l-.26-.146c-.02-.016-.05-.033-.08-.051l-.26-.169c-.02-.015-.04-.031-.07-.047l-.25-.19a2.288 2.288 0 0 1-.06-.044l-.26-.209c-.01-.013-.03-.026-.04-.039l-.26-.228c-.01-.01-.03-.022-.04-.033l-.26-.243-.03-.028-.25-.257-.03-.023-.25-.268-.02-.017-.26-.277-.01-.013-.27-.29-.26-.29-.25-.286-.26-.283-.25-.274-.24-.262-.24-.248-.23-.232-.23-.213-.22-.192-.2-.169-.2-.146-.18-.121-.17-.096-.16-.073-.13-.052-.12-.035-.11-.019-.11-.007-.1.003-.18.025a1.498 1.498 0 0 1-1.69-1.281 1.502 1.502 0 0 1 1.28-1.691l.26-.036c.05-.007.1-.011.16-.013l.25-.008c.06-.002.11-.001.16.003l.26.018c.05.004.1.01.15.019l.26.046c.05.009.1.02.14.033l.26.072c.05.012.09.026.13.042l.26.099c.04.014.07.03.11.048l.26.123c.03.016.06.033.1.051l.25.147.09.05.25.17a.37.37 0 0 1 .07.047l.26.192c.02.013.04.028.06.043l.25.21c.02.013.03.026.05.039l.26.228.03.033.26.244.03.028.26.257c.01.007.01.015.02.023l.26.268.02.017.25.277.02.013.26.29.26.29.26.286v.002l.25.281.25.273.24.261.24.248.24.231.22.212.22.191.2.169.2.144.18.12.17.096.15.072.14.051.12.034.11.018.1.007.11-.003.1-.016.12-.028.13-.046.15-.066.16-.089.18-.112.2-.138.2-.161.21-.185.23-.206.23-.226.23-.243.25-.258.24-.27.25-.277.01-.004.52-.579.26-.285.01-.011.25-.279.02-.016.26-.271.02-.021.25-.26.03-.027.26-.248.03-.031.26-.233c.02-.013.03-.025.04-.037l.26-.216.06-.042.25-.197c.02-.016.05-.031.07-.046l.26-.176c.02-.018.05-.034.07-.05l.26-.154.09-.051.26-.13c.04-.018.07-.034.11-.049l.26-.106c.04-.017.08-.032.12-.045l.26-.079c.05-.015.09-.027.14-.036l.26-.054c.05-.01.1-.018.15-.023l.26-.027c.05-.005.1-.008.15-.008l.26.001c.05 0 .11.003.16.009l.26.027c.05.006.1.014.15.024l.26.055c.04.01.09.022.13.036l.26.081c.04.013.09.028.13.045l.25.107a.71.71 0 0 1 .11.049l.26.132c.03.015.06.032.09.05l.26.155c.03.016.05.032.08.05l.25.177c.03.015.05.03.07.046l.26.198c.01.013.03.027.05.041l.26.217c.01.012.02.024.04.037l.26.233.03.032.26.248c.01.009.02.018.02.026l.26.261.02.021.26.272.02.016.25.279.01.011.27.29.51.573v.004l.25.277.25.269.24.257.24.243.23.225.22.205.22.184.2.161.19.136.18.112.16.087.15.065.13.045.12.028.11.015.1.003.1-.007.11-.02.12-.034.14-.052.15-.073.17-.096.19-.121.19-.146.21-.169.22-.193.22-.213.24-.231.23-.248.25-.263.25-.273.25-.281v-.002l.26-.286v-.003l.27-.294.25-.284.02-.012.25-.277.02-.017.26-.268c.01-.008.01-.016.02-.023l.26-.257.03-.028.26-.243.03-.034.26-.227c.02-.013.03-.026.05-.039l.25-.209.06-.044.26-.19a.37.37 0 0 1 .07-.048l.26-.169a.482.482 0 0 1 .08-.05l.26-.146.09-.051.26-.122.12-.048.25-.097.13-.042.26-.071c.05-.013.1-.024.14-.032l.26-.045c.05-.009.1-.015.16-.018l.25-.018Z" clip-rule="evenodd"/><path fill="url(#W)" fill-rule="evenodd" d="M1153.87 294.866c.05.004.1.005.16.003l.25-.01c.06-.002.11-.007.16-.014l.26-.037a.99.99 0 0 0 .14-.028l.26-.064c.05-.011.09-.024.14-.039l.25-.09c.04-.014.08-.029.12-.047l.26-.115a.582.582 0 0 0 .1-.05l.26-.139.09-.051.26-.162c.02-.016.04-.032.07-.049l.26-.184.06-.045.25-.204a.194.194 0 0 0 .05-.04l.26-.223c.01-.011.03-.023.04-.035l.26-.238.03-.03.26-.253c0-.008.01-.016.02-.024l.26-.265.02-.019.26-.275.01-.014.27-.29.26-.29.51-.569v-.006l.25-.274.25-.265.24-.253.23-.237.23-.218.22-.199.24-.197c.63-.532.71-1.478.18-2.113a1.496 1.496 0 0 0-2.11-.189l-.26.216c-.01.012-.03.024-.04.037l-.26.233-.03.032-.26.247-.03.027-.26.261-.02.021-.25.271-.02.016-.26.279-.01.011-.26.284v.006l-.51.573-.01.004-.24.273-.01.009-.25.265-.24.258-.24.243-.23.226-.22.206-.21.185-.21.162-.19.137-.18.113-.16.088-.15.066-.13.046-.12.029-.11.015-.1.004-.1-.007-.11-.019-.12-.034-.14-.051-.15-.072-.17-.096-.18-.119-.2-.145-.2-.168-.22-.192-.23-.212-.23-.231-.24-.247-.24-.262-.25-.269v-.008l-.25-.277-.01-.002-.25-.286-.27-.297-.26-.283-.01-.012-.26-.277-.01-.018-.26-.268c-.01-.008-.02-.015-.02-.023l-.26-.257-.03-.028-.26-.243-.03-.034-.26-.228c-.02-.013-.03-.026-.05-.038l-.26-.211c-.01-.015-.03-.029-.05-.043l-.26-.191a.37.37 0 0 0-.07-.048l-.26-.169a.379.379 0 0 0-.08-.05l-.26-.148a1.348 1.348 0 0 0-.09-.05l-.26-.124c-.04-.017-.08-.033-.11-.048l-.26-.098c-.04-.016-.09-.031-.13-.043l-.26-.072c-.05-.013-.09-.024-.14-.033l-.26-.045c-.05-.009-.1-.016-.15-.019l-.26-.019a1.424 1.424 0 0 0-.16-.003l-.26.008c-.05.002-.1.007-.15.014l-.26.035c-.05.007-.1.016-.15.028l-.26.062c-.04.011-.09.025-.13.04l-.26.088c-.04.014-.08.03-.12.047l-.26.114c-.03.015-.07.032-.1.05l-.26.138a.425.425 0 0 0-.08.051l-.26.162c-.03.015-.05.031-.08.048l-.25.183-.06.045-.26.204c-.02.013-.03.026-.05.04l-.26.222c-.01.011-.03.023-.04.035l-.26.238-.03.03-.26.252c0 .009-.01.017-.02.025l-.26.264-.02.02-.26.274-.01.014-.27.291-.25.286-.01.004-.51.569v.006l-.25.274-.25.266-.24.253-.23.237-.23.22-.22.199-.21.178-.2.153-.19.129-.17.105-.16.081-.15.058-.12.04-.12.024-.1.011-.1.001-.11-.011-.11-.023-.12-.039-.15-.058-.15-.08-.18-.104-.19-.128-.2-.152-.21-.177-.22-.198-.22-.219-.24-.237-.24-.252-.24-.266-.25-.276-.52-.576-.27-.295-.26-.282-.01-.014-.26-.274-.02-.019-.25-.265-.03-.024-.26-.253-.03-.03-.26-.239-.03-.035-.26-.222c-.02-.014-.03-.027-.05-.04l-.26-.205-.06-.044-.26-.185c-.02-.016-.04-.033-.07-.048l-.26-.163c-.03-.017-.05-.034-.08-.05l-.26-.139c-.04-.018-.07-.035-.1-.051l-.26-.115a1.982 1.982 0 0 0-.12-.047l-.26-.089c-.04-.016-.09-.029-.13-.04l-.26-.063c-.05-.012-.1-.022-.15-.029l-.26-.036c-.05-.008-.1-.012-.15-.014l-.26-.01c-.05-.002-.1-.001-.16.002l-.26.018c-.05.003-.1.01-.15.018l-.26.045a2.59 2.59 0 0 0-.14.032l-.26.071c-.04.012-.09.026-.13.042l-.26.097c-.03.015-.07.031-.11.049l-.26.122c-.03.016-.06.032-.1.05l-.25.147c-.03.016-.06.032-.09.05l-.25.169c-.03.015-.05.031-.07.047l-.26.19-.06.044-.25.21a.192.192 0 0 0-.05.038l-.26.228c-.01.011-.02.022-.04.033l-.25.243-.03.029-.26.256c-.01.008-.02.015-.02.023l-.26.268-.02.018-.26.276-.01.013-.26.29-.26.29-.26.286-.25.283-.25.274-.25.262-.24.248-.23.232-.22.213-.22.192-.21.169-.2.146-.18.121-.17.096-.15.074-.14.052-.12.034-.11.019-.1.008-.1-.004-.19-.025a1.504 1.504 0 0 0-1.69 1.282c-.11.82.46 1.577 1.28 1.69l.26.036c.05.007.11.011.16.013l.26.009c.05.001.1 0 .15-.003l.26-.019c.05-.004.1-.01.16-.019l.25-.046c.05-.008.1-.019.15-.032l.25-.073a.904.904 0 0 0 .13-.042l.26-.098a.71.71 0 0 0 .11-.049l.26-.123a.663.663 0 0 0 .1-.051l.26-.147c.03-.016.05-.032.08-.05l.26-.17c.02-.015.04-.031.07-.047l.25-.191.06-.044.26-.21c.01-.013.03-.025.04-.039l.26-.228c.01-.011.03-.022.04-.033l.26-.244c0-.009.01-.018.02-.028l.26-.257c.01-.007.02-.015.02-.022l.26-.269.02-.017.26-.277.01-.012.26-.291.26-.29.26-.285v-.003l.25-.28.25-.273.25-.262.24-.248.23-.231.22-.212.22-.191.21-.168.19-.145.19-.12.17-.095.15-.073.13-.051.13-.033.11-.019.1-.007.1.004.11.015.11.029.13.045.15.066.17.089.18.113.19.137.2.162.22.184.22.207.23.225.24.243.24.258.25.27.25.278v.004l.52.578.26.285.01.011.26.279.01.016.26.271.02.021.26.261c.01.009.02.017.02.026l.26.248c.01.011.03.021.04.032l.26.233c.01.012.02.024.04.037l.26.215c.01.015.03.029.05.042l.26.197c.02.016.04.032.06.046l.26.177c.02.017.05.033.08.049l.25.154c.03.018.07.035.1.051l.25.13c.04.018.08.035.11.05l.26.105c.04.017.08.032.13.045l.25.08c.05.014.1.026.14.036l.26.053c.05.01.1.018.15.023l.26.027c.05.005.1.008.16.008l.25-.001c.06 0 .11-.003.16-.008l.26-.028a1.3 1.3 0 0 0 .15-.024l.26-.055c.04-.009.09-.022.14-.036l.26-.081c.04-.013.08-.028.12-.045l.26-.106c.03-.015.07-.032.1-.05l.26-.131.09-.051.26-.155c.03-.016.05-.032.08-.049l.26-.177.06-.047.26-.197c.02-.014.03-.028.05-.042l.26-.217c.01-.012.03-.024.04-.036l.26-.234.03-.031.26-.249.03-.026.26-.261.02-.021.25-.272.02-.015.26-.28.01-.01.26-.291.51-.572.01-.004.25-.278.24-.269.25-.257.23-.242.23-.226.23-.205.21-.184.2-.16.2-.137.17-.111.17-.088.15-.065.13-.045.11-.028.11-.015.1-.003.1.007.11.02.13.034.13.052.16.073.16.097.19.121.19.145.21.17.22.192.23.213.23.232.24.248.24.262.25.273.25.281.01.003.25.286v.002l.27.295.26.283.01.012.26.277.01.018.26.268c.01.007.02.015.02.022l.26.257.03.028.26.243c.01.012.02.023.04.034l.25.227c.02.013.03.026.05.039l.26.21c.02.015.04.029.05.043l.26.19c.02.017.05.033.07.048l.26.169c.03.017.05.034.08.05l.26.146c.03.018.06.035.1.051l.25.122c.04.018.08.034.12.048l.26.097c.04.016.08.03.13.043l.25.071c.05.013.1.023.15.032l.26.044c.05.009.1.015.15.019l.26.017Z" clip-rule="evenodd"/><path fill="url(#X)" d="M1521.81 298v41.513h-76.2v-29.652h-50.8V298h127Z"/><path fill="url(#Y)" d="M1161.9 161.75v19.145h-35.14V167.22h-23.43v-5.47h58.57Z"/><path fill="url(#Z)" d="M1546.81 6.231v31.513h-76.2V18.092h-70.8V6.23h147Z"/><path fill="url(#aa)" fill-rule="evenodd" d="M1297.97 155.48v-10.23h-3v11.27l32.82 41.658 2.36-1.856-32.18-40.842Z" clip-rule="evenodd"/><path fill="url(#ab)" fill-rule="evenodd" d="M1398.47 155.244V144.5h3v13.256l-37.74 6.721-.52-2.954 35.26-6.279Z" clip-rule="evenodd"/><path fill="url(#ac)" d="M1354.1 1.533h9.37v46.756h-9.37V1.533Z"/><path fill="url(#ad)" d="M1338.6 1.533h9.37v113h-9.37v-113Z"/><path fill="url(#ae)" d="M1369.47 12.033h5.36v36.256h-5.36V12.033Z"/><path fill="url(#af)" d="M1294.47 211.663h22V243.5h-22v-31.837Z"/><path fill="url(#ag)" d="M1305.93 211.663h10.54V336h-10.54V211.663Z"/><path fill="url(#ah)" d="M1224.97 211.663h80.5v3h-80.5v-3Z"/><path fill="url(#ai)" d="M1240.58 217.663h64.89v3h-64.89v-3Z"/><path fill="url(#aj)" d="M1254.97 223.663h50.5v3h-50.5v-3Z"/><path fill="url(#ak)" d="M1248.39 365.331h2.69v-44.822h-2.69v44.822Z"/><path fill="url(#al)" d="M1251.08 335.873v29.458h10.41l17.5-29.458h-27.91Z"/><path fill="url(#am)" d="m1265.99 365.331 17.5-29.458h4.5l-17.5 29.458h-4.5Z"/><path fill="url(#an)" d="m1275.24 365.331 17.5-29.458h5.25l-17.5 29.458h-5.25Z"/><path fill="url(#ao)" fill-rule="evenodd" d="M1334.97 322.5V210h-3v115.5h41V304h-3v18.5h-35Z" clip-rule="evenodd"/><path fill="url(#ap)" fill-rule="evenodd" d="M1342.1 315.475V216h-3v102.475h27.61V305.26h-3v10.215h-21.61Z" clip-rule="evenodd"/><path fill="url(#aq)" fill-rule="evenodd" d="M1160.97 207.5v66.522l-1.5 1.478h-10.75l-1.04-2.548 10.29-9.665V207.5h3Z" clip-rule="evenodd"/><path fill="url(#ar)" fill-rule="evenodd" d="m1173.47 306.25 16.89 17.25v47.022l-1.5 1.478h-10.75l-1.03-2.548 10.28-9.665V323.5l-16.89-17.25h3Z" clip-rule="evenodd"/><path fill="url(#as)" fill-rule="evenodd" d="M1161.47 308.5h-87.25v-3h87.25v3Z" clip-rule="evenodd"/><path fill="url(#at)" fill-rule="evenodd" d="M1161.47 311.449h-87.25v-.949h87.25v.949Z" clip-rule="evenodd"/></g><path fill="url(#au)" d="M67.468 229.003v95h17l76.044-75.571v-19.429H67.468Z"/><path fill="url(#av)" d="M33.259 530.282V583.5h30.09l134.597-42.335v-10.883H33.259Z"/><path fill="url(#aw)" d="M458.205 332v95h-17l-76.044-75.572V332h93.044Z"/><path fill="url(#ax)" d="M518.756 537.05v-40.1h27l66.044 31.899v8.201h-93.044Z"/><path fill="url(#ay)" d="M202.726 284v-45.881h6.766l28.277 36.498V284h-35.043Z"/><path fill="url(#az)" d="M61.946 432.5h229V448h-229v-15.5Z"/><path fill="url(#aA)" d="M213.63 530.282h229l14 15.5h-243v-15.5Z"/><path fill="url(#aB)" d="M61.946 454h229v3.5h-229V454Z"/><path fill="url(#aC)" fill-rule="evenodd" d="M200.946 469.85v36.5h-139v-6h133v-30.5h6Z" clip-rule="evenodd"/><path fill="url(#aD)" d="M61.946 469.85h125v22.5h-125v-22.5Z"/><path fill="url(#aE)" d="M182.124 316.502h55.645v-18.72h-55.645v18.72Z"/><path fill="url(#aF)" d="M67.468 410.65h15.041v-71.23H67.469v71.23Z"/><path fill="url(#aG)" d="M351.172 432.5h15.042v-58.23l-15.042-19v77.23Z"/><path fill="url(#aH)" d="M374.214 432.5h15.042v-42.23l-15.042-19v61.23Z"/><path fill="url(#aI)" d="M328.13 432.5h15.042v-80.23l-15.042-19v99.23Z"/><path fill="url(#aJ)" d="m84.98 366.089 3.244 7.42 77.987-34.089-3.243-7.42-77.987 34.089Z"/><path fill="url(#aK)" d="M417.745 300.5h28.538l-14.093 17h-28.539l14.094-17Z"/><path fill="url(#aL)" d="M758.929 521.782h28.539l-14.093 17h-28.539l14.093-17Z"/><path fill="url(#aM)" d="M278.633 312.5h28.539l-14.093-17H264.54l14.093 17Z"/><path fill="url(#aN)" d="M171.264 393.65h-28.539l16.094 17h28.538l-8.046-8.5-8.047-8.5Z"/><path fill="url(#aO)" d="m187.357 410.65-8.046-8.5h83.415l-4 8.5h-71.369Z"/><path fill="url(#aP)" fill-rule="evenodd" d="M196.468 281h-6v-73.284H0v-26.142h218.937v-8.888H0v-22.639h218.937v-9.763H3v-6h221.937v21.763H6v10.639h218.937v20.888H6v14.142h190.468V281Z" clip-rule="evenodd"/><path fill="url(#aQ)" fill-rule="evenodd" d="M651.468 599.5H430.531v-4h216.937v-5.917H428.531V574.5h198.937V568H430.531v-4h200.937v14.5H432.531v7.083h218.937V599.5Z" clip-rule="evenodd"/><path fill="url(#aR)" fill-rule="evenodd" d="M688.756 549.516h-170v-6h170v6Z" clip-rule="evenodd"/><path fill="url(#aS)" fill-rule="evenodd" d="M823.468 527.782h-60v-6h60v6Z" clip-rule="evenodd"/><path fill="url(#aT)" fill-rule="evenodd" d="M374.214 306.5h-91.042v6h91.042v-6Z" clip-rule="evenodd"/><path fill="url(#aU)" fill-rule="evenodd" d="M394.468 445h62.288v62h-132v-6h126v-50h-56.288v-6Z" clip-rule="evenodd"/><path fill="url(#aV)" fill-rule="evenodd" d="M229.468 468.5h227.288V496h-132v-6h126v-15.5H229.468v-6Z" clip-rule="evenodd"/><path fill="url(#aW)" fill-rule="evenodd" d="M270.909 489.865c.141-.016.282-.019.423-.011l.377.023c.138.008.275.028.409.059l.378.087c.123.028.244.066.362.112l.378.15c.103.041.203.089.3.143l.377.211c.082.046.161.097.238.152l.377.271c.063.045.124.094.183.145l.377.329c.048.042.095.085.139.131l.378.383c.036.037.072.075.106.115l.377.434c.028.032.054.065.081.098l.377.482.061.082.378.525.047.068.377.563.036.055.377.597.027.043.378.625.019.033.378.648.014.023.377.664.008.016.381.681.749 1.347.005.01.367.652.364.636.358.607.351.572.343.531.331.483.351.473a2.5 2.5 0 1 1-4.018 2.976l-.377-.509a1.92 1.92 0 0 1-.052-.073l-.377-.549-.019-.028-.021-.032-.377-.585a.333.333 0 0 1-.016-.024l-.014-.024-.378-.614a.086.086 0 0 0-.01-.016l-.012-.021-.377-.64-.016-.027-.378-.659-.01-.018-.377-.672-.006-.009-.752-1.354-.003-.006-.37-.661-.366-.644-.36-.619-.354-.586-.346-.547-.336-.501-.324-.45-.306-.391-.285-.328-.255-.26-.217-.189-.168-.121-.108-.06-.027.012-.127.077-.183.14-.229.21-.265.279-.292.347-.312.409-.327.466-.339.515-.348.559-.357.596-.362.627-.364.644-.007.013-.368.66-.763 1.373-.378.669-.012.021-.377.653-.018.03-.377.633-.012.021-.013.019-.377.607-.033.051-.377.575-.043.063-.377.538a1.411 1.411 0 0 1-.057.078l-.377.496a3.319 3.319 0 0 1-.073.093l-.378.45a2.02 2.02 0 0 1-.096.109l-.378.401a2.515 2.515 0 0 1-.127.126l-.377.347c-.054.05-.11.097-.167.141l-.378.291c-.07.054-.142.104-.218.15l-.377.232c-.09.055-.183.104-.279.148l-.377.17c-.111.05-.226.092-.343.126l-.377.107c-.13.037-.263.064-.397.08l-.377.044c-.14.016-.281.02-.422.013l-.378-.02a2.465 2.465 0 0 1-.41-.056l-.377-.084a2.561 2.561 0 0 1-.365-.111l-.378-.147a2.61 2.61 0 0 1-.303-.142l-.377-.209a2.48 2.48 0 0 1-.24-.151l-.377-.269a2.625 2.625 0 0 1-.185-.145l-.377-.327a2.2 2.2 0 0 1-.141-.132l-.378-.381c-.037-.037-.072-.076-.107-.115l-.377-.432a3.912 3.912 0 0 1-.082-.099l-.377-.48a2.556 2.556 0 0 1-.062-.083l-.377-.523a1.045 1.045 0 0 1-.048-.068l-.377-.562-.037-.055-.377-.596-.027-.044-.378-.623-.02-.034-.377-.647-.014-.024-.377-.663-.009-.016-.377-.674-.004-.008-.749-1.347-.005-.01-.367-.653-.365-.637-.358-.608-.352-.574-.342-.532-.333-.485-.318-.431-.3-.371-.275-.305-.244-.237-.202-.166-.149-.099-.066-.033-.061.03-.147.097-.2.163-.242.233-.275.303-.299.368-.317.428-.332.483-.342.531-.351.572-.359.607-.364.635-.366.653-.006.01-.748 1.347-.004.006-.377.675-.009.015-.377.664-.014.024-.377.648-.02.033-.377.625-.027.043-.377.597-.036.055-.378.563a1.637 1.637 0 0 1-.047.068l-.377.525-.062.082-.377.482a2.474 2.474 0 0 1-.081.098l-.377.434a2.29 2.29 0 0 1-.106.115l-.377.383a2.448 2.448 0 0 1-.139.131l-.378.329a2.378 2.378 0 0 1-.183.145l-.377.271a2.26 2.26 0 0 1-.237.151l-.378.212a2.5 2.5 0 0 1-.3.143l-.377.15a2.54 2.54 0 0 1-.363.112l-.377.087c-.135.031-.271.05-.409.059l-.377.022a2.49 2.49 0 0 1-.423-.01l-.377-.041a2.544 2.544 0 0 1-.398-.077l-.378-.105a2.488 2.488 0 0 1-.345-.124l-.377-.168a2.516 2.516 0 0 1-.282-.147l-.377-.229a2.778 2.778 0 0 1-.221-.151l-.377-.288a2.538 2.538 0 0 1-.169-.142l-.377-.345a1.917 1.917 0 0 1-.129-.126l-.377-.399a2.008 2.008 0 0 1-.098-.109l-.377-.449a1.692 1.692 0 0 1-.075-.093l-.377-.495a1.114 1.114 0 0 1-.057-.078l-.378-.536-.043-.064-.377-.574a.733.733 0 0 1-.033-.051l-.378-.606-.025-.04-.377-.632-.018-.031-.377-.652-.012-.022-.378-.667-.007-.013-1.128-2.028-.368-.652-.363-.628-.356-.597-.349-.561-.339-.518-.328-.467-.313-.412-.293-.349-.266-.283-.231-.213-.185-.143-.13-.079-.043-.02-.127.029a2.5 2.5 0 0 1-1.086-4.881l.378-.084c.135-.03.272-.049.41-.056l.377-.02c.141-.008.282-.003.423.013l.377.044c.134.016.267.042.396.079l.378.108c.117.034.231.076.342.126l.378.17c.096.044.189.093.279.148l.377.232c.075.046.148.096.218.15l.377.291c.058.044.114.091.167.141l.378.347c.044.04.086.082.127.126l.377.401c.033.035.066.071.097.108l.377.451c.025.03.05.061.074.093l.377.496.056.077.378.539.043.063.377.575.033.051.377.607.024.04.378.633.018.03.377.653.012.021.384.681 1.128 2.027.368.651.362.627.356.596.349.559.339.515.327.466.312.409.292.347.264.279.23.21.183.14.127.077.027.012.107-.06.168-.121.217-.189.256-.26.284-.328.307-.391.323-.45.336-.501.346-.547.354-.586.361-.619.366-.644.369-.661.004-.007.757-1.363.377-.671.011-.018.377-.659.016-.027.377-.64.023-.037.377-.615.03-.047.378-.585.039-.06.378-.549a1.92 1.92 0 0 1 .052-.073l.377-.509.068-.088.377-.465a2.91 2.91 0 0 1 .09-.104l.377-.415c.038-.042.077-.082.117-.121l.378-.364c.049-.047.101-.093.154-.136l.377-.308c.065-.053.133-.102.203-.149l.377-.249c.084-.055.171-.105.26-.15l.378-.188c.104-.053.213-.098.324-.135l.377-.126c.125-.042.253-.073.383-.095l.378-.063c.138-.023.278-.034.418-.033l.377.001c.14 0 .28.013.418.037l.377.065c.13.022.257.055.381.097l.377.129c.111.038.218.083.322.136l.378.191c.088.045.174.095.257.15l.378.252c.069.046.135.095.199.148l.378.31c.053.043.103.089.152.136l.378.366c.04.038.078.078.116.12l.377.418c.03.033.06.068.088.103l.378.466.067.088.377.511c.018.023.035.048.052.072l.377.551c.013.02.027.039.039.059l.378.586.029.048.378.616.022.036.377.641.016.027.377.659.01.018.383.681.751 1.353.004.007.369.659.366.644.36.617.354.584.346.546.335.499.323.448.306.388.283.325.254.257.215.186.166.118.102.057.031-.014.129-.079.186-.143.231-.213.266-.283.292-.349.313-.412.328-.468.34-.517.348-.561.357-.597.362-.628.365-.646.007-.012.745-1.341.38-.681.007-.013.377-.667.012-.022.378-.652.018-.031.377-.632.025-.04.377-.606.033-.051.377-.574.044-.064.377-.536.057-.078.377-.495c.025-.032.049-.063.075-.093l.377-.449c.032-.037.064-.074.098-.109l.377-.399c.042-.044.085-.086.129-.126l.377-.345c.055-.05.111-.097.169-.142l.378-.288c.07-.054.144-.105.22-.151l.377-.229c.091-.055.185-.104.282-.147l.377-.168c.112-.05.228-.091.346-.124l.377-.105c.13-.036.264-.062.398-.077l.377-.041Z" clip-rule="evenodd"/><path fill="url(#aX)" fill-rule="evenodd" d="M301.093 358.115a2.49 2.49 0 0 1 .423-.011l.377.023c.138.008.274.028.409.059l.377.087c.124.028.245.066.363.112l.377.15a2.5 2.5 0 0 1 .3.143l.378.211c.082.046.161.097.237.152l.377.271c.064.045.125.094.183.145l.378.329c.048.042.094.085.139.131l.377.383c.037.037.072.075.106.115l.377.434c.028.032.055.065.081.098l.377.482c.022.027.042.054.062.082l.377.525.047.068.378.563.036.055.377.597.027.043.377.625.02.033.377.648.014.023.377.664.009.016.381.681.748 1.347.006.01.366.652.365.636.358.607.351.572.342.531.332.483.351.473a2.5 2.5 0 1 1-4.018 2.976l-.377-.509a1.92 1.92 0 0 1-.052-.073l-.378-.549a.275.275 0 0 0-.019-.028l-.02-.032-.378-.585-.015-.024-.015-.024-.377-.614-.01-.016-.012-.021-.378-.64-.016-.027-.377-.659-.01-.018-.378-.672-.005-.009-.752-1.354-.004-.006-.369-.661-.366-.644-.361-.619-.354-.586-.346-.547-.336-.501-.323-.45-.306-.391-.285-.328-.255-.26-.218-.189-.168-.121-.107-.06-.027.012-.127.077-.183.14-.23.21-.264.279-.292.347-.312.409-.327.466-.339.515-.349.559-.356.596-.362.627-.364.644-.007.013-.368.66-.764 1.373-.377.669-.012.021-.377.653-.018.03-.377.633-.013.021-.012.019-.377.607-.033.051-.377.575-.043.063-.378.539-.056.077-.377.496c-.024.032-.049.062-.074.093l-.377.45a2.035 2.035 0 0 1-.097.109l-.377.401a2.515 2.515 0 0 1-.127.126l-.378.347a2.04 2.04 0 0 1-.167.141l-.377.291c-.07.054-.143.104-.218.15l-.377.232c-.09.055-.183.104-.279.148l-.378.17c-.111.05-.225.092-.342.126l-.378.107a2.526 2.526 0 0 1-.396.08l-.377.044a2.493 2.493 0 0 1-.423.013l-.377-.02a2.465 2.465 0 0 1-.41-.056l-.378-.084a2.601 2.601 0 0 1-.365-.111l-.377-.147a2.61 2.61 0 0 1-.303-.142l-.377-.209a2.48 2.48 0 0 1-.24-.151l-.377-.269a2.625 2.625 0 0 1-.185-.145l-.378-.327a2.901 2.901 0 0 1-.141-.132l-.377-.381a2.312 2.312 0 0 1-.107-.115l-.377-.432c-.028-.033-.056-.065-.082-.099l-.377-.48c-.022-.027-.042-.055-.063-.083l-.377-.523-.048-.068-.377-.562-.036-.055-.377-.596-.028-.044-.377-.623-.02-.034-.377-.647-.015-.024-.377-.663-.009-.016-.377-.674-.004-.008-.748-1.347-.006-.01-.367-.653-.364-.637-.358-.608-.352-.574-.343-.532-.332-.485-.318-.431-.3-.371-.276-.305-.244-.237-.201-.165-.15-.1-.066-.033-.06.03-.147.097-.2.163-.242.233-.275.303-.299.368-.318.428-.331.483-.343.531-.351.572-.358.607-.364.635-.367.653-.005.01-.748 1.347-.004.006-.377.675-.009.015-.377.664-.014.024-.377.648a.58.58 0 0 0-.02.033l-.378.625a.508.508 0 0 1-.027.043l-.377.597-.036.055-.377.563a1.637 1.637 0 0 1-.047.068l-.377.525-.062.082-.377.482a2.474 2.474 0 0 1-.081.098l-.377.434c-.034.039-.07.078-.106.115l-.377.383a2.466 2.466 0 0 1-.14.131l-.377.329c-.059.051-.12.1-.183.145l-.377.271a2.274 2.274 0 0 1-.238.151l-.377.212a2.574 2.574 0 0 1-.3.143l-.378.15a2.527 2.527 0 0 1-.362.112l-.378.087c-.134.031-.271.05-.408.059l-.378.022a2.478 2.478 0 0 1-.422-.01l-.378-.041a2.59 2.59 0 0 1-.398-.077l-.377-.105a2.501 2.501 0 0 1-.346-.124l-.377-.168a2.418 2.418 0 0 1-.281-.147l-.378-.229a2.761 2.761 0 0 1-.22-.151l-.377-.288a2.556 2.556 0 0 1-.17-.142l-.377-.345a2.171 2.171 0 0 1-.128-.126l-.378-.399a3.442 3.442 0 0 1-.098-.109l-.377-.449a2.322 2.322 0 0 1-.074-.093l-.378-.495a2.636 2.636 0 0 1-.057-.078l-.377-.536-.043-.064-.378-.574-.033-.051-.377-.606-.025-.04-.377-.632-.018-.031-.378-.652-.012-.022-.377-.667-.007-.013-1.129-2.028-.368-.652-.362-.628-.356-.597-.349-.561-.34-.518-.328-.467-.312-.412-.293-.349-.266-.283-.231-.213-.186-.143-.129-.079-.043-.02-.128.029a2.5 2.5 0 0 1-1.085-4.881l.377-.084c.135-.03.273-.049.411-.056l.377-.02c.141-.008.282-.003.422.013l.377.044c.135.016.267.042.397.079l.377.108c.117.034.232.076.343.126l.377.17c.096.044.189.093.279.148l.377.232c.076.046.149.096.219.15l.377.291c.058.044.113.091.167.141l.377.347c.044.04.087.082.127.126l.378.401c.033.035.065.071.096.108l.378.451c.025.03.05.061.073.093l.378.496.056.077.377.539.043.063.378.575.032.051.378.607.024.04.377.633.018.03.377.653.012.021.385.681 1.128 2.027.367.651.363.627.356.596.348.559.339.515.328.466.311.409.292.347.265.279.229.21.184.14.127.077.026.012.108-.06.168-.121.217-.189.255-.26.285-.328.307-.391.323-.45.336-.501.346-.547.354-.586.36-.619.366-.644.37-.661.004-.007.757-1.363.377-.671.011-.018.377-.659.016-.027.377-.64.022-.037.378-.615.03-.047.377-.585.04-.06.377-.549.052-.073.378-.509a1.88 1.88 0 0 1 .068-.088l.377-.465a4.43 4.43 0 0 1 .089-.104l.378-.415c.037-.042.077-.082.117-.121l.377-.364c.05-.047.101-.093.155-.136l.377-.308c.065-.053.132-.102.202-.149l.377-.249c.084-.055.171-.105.261-.15l.377-.188c.105-.053.213-.098.325-.135l.377-.126c.125-.042.253-.073.383-.095l.377-.063c.138-.023.278-.034.419-.033l.377.001c.14 0 .28.013.418.037l.377.065c.129.022.257.055.381.097l.377.129c.11.038.218.083.322.136l.377.191c.089.045.175.095.258.15l.377.252a2.4 2.4 0 0 1 .2.148l.377.31c.053.043.104.089.153.136l.377.366c.04.038.079.078.116.12l.378.418c.03.033.059.068.088.103l.377.466.068.088.377.511.051.072.378.551.039.059.377.586.03.048.377.616a.695.695 0 0 1 .022.036l.378.641.015.027.378.659.01.018.383.681.751 1.353.004.007.369.659.366.644.36.617.354.584.345.546.336.499.322.448.306.389.284.324.254.257.215.186.166.118.102.057.03-.014.13-.079.185-.143.231-.213.266-.283.293-.349.313-.412.328-.468.339-.517.349-.561.356-.597.363-.628.364-.646.007-.012.746-1.341.379-.681.007-.013.378-.667.012-.022.377-.652.018-.031.377-.632.025-.04.378-.606a.733.733 0 0 1 .033-.051l.377-.574a2.44 2.44 0 0 1 .044-.064l.377-.536c.018-.027.037-.053.057-.078l.377-.495c.024-.032.049-.063.075-.093l.377-.449c.031-.037.064-.074.098-.109l.377-.399c.041-.044.084-.086.129-.126l.377-.345c.054-.05.111-.097.169-.142l.377-.288c.071-.054.145-.104.221-.151l.377-.229c.091-.055.185-.104.282-.147l.377-.168c.112-.05.227-.091.345-.124l.378-.105c.13-.036.263-.062.398-.077l.377-.041Z" clip-rule="evenodd"/><path fill="url(#aY)" d="M310.446 500.85c0 4.694-4.365 8.5-9.75 8.5-5.384 0-9.75-3.806-9.75-8.5 0-4.695 4.366-8.5 9.75-8.5 5.385 0 9.75 3.805 9.75 8.5Z"/><path fill="url(#aZ)" d="M310.446 339.42c0 4.694-4.365 8.5-9.75 8.5-5.384 0-9.75-3.806-9.75-8.5 0-4.695 4.366-8.5 9.75-8.5 5.385 0 9.75 3.805 9.75 8.5Z"/><path fill="url(#ba)" d="M389.256 273.718c0 4.695-4.365 8.5-9.75 8.5s-9.75-3.805-9.75-8.5c0-4.694 4.365-8.5 9.75-8.5s9.75 3.806 9.75 8.5Z"/><path fill="url(#bb)" d="M97.468 413v-27.5h34.5l19 27.5h-53.5Z"/><path fill="url(#bc)" d="m514.505 532-40.478-35.05h40.478V532Z"/><defs><linearGradient id="a" x1="1004.08" x2="917.164" y1="545.248" y2="17.97" gradientUnits="userSpaceOnUse"><stop stop-color="#F1EFED"/><stop offset=".535" stop-color="#DDD" stop-opacity=".22"/><stop offset="1" stop-color="#F1EFED"/></linearGradient><linearGradient id="b" x1="1328.47" x2="1132.51" y1="583" y2="-199.178" gradientUnits="userSpaceOnUse"><stop offset=".121" stop-color="#F1EFED"/><stop offset=".488" stop-color="#DDD" stop-opacity=".22"/><stop offset=".898" stop-color="#F1EFED"/></linearGradient><linearGradient id="c" x1="1328.47" x2="1132.51" y1="583" y2="-199.178" gradientUnits="userSpaceOnUse"><stop offset=".121" stop-color="#F1EFED"/><stop offset=".488" stop-color="#DDD" stop-opacity=".22"/><stop offset=".898" stop-color="#F1EFED"/></linearGradient><linearGradient id="d" x1="1328.47" x2="1132.51" y1="583" y2="-199.178" gradientUnits="userSpaceOnUse"><stop offset=".121" stop-color="#F1EFED"/><stop offset=".488" stop-color="#DDD" stop-opacity=".22"/><stop offset=".898" stop-color="#F1EFED"/></linearGradient><linearGradient id="e" x1="1328.47" x2="1132.51" y1="583" y2="-199.178" gradientUnits="userSpaceOnUse"><stop offset=".121" stop-color="#F1EFED"/><stop offset=".488" stop-color="#DDD" stop-opacity=".22"/><stop offset=".898" stop-color="#F1EFED"/></linearGradient><linearGradient id="f" x1="1328.47" x2="1132.51" y1="583" y2="-199.178" gradientUnits="userSpaceOnUse"><stop offset=".121" stop-color="#F1EFED"/><stop offset=".488" stop-color="#DDD" stop-opacity=".22"/><stop offset=".898" stop-color="#F1EFED"/></linearGradient><linearGradient id="g" x1="1328.47" x2="1132.51" y1="583" y2="-199.178" gradientUnits="userSpaceOnUse"><stop offset=".121" stop-color="#F1EFED"/><stop offset=".488" stop-color="#DDD" stop-opacity=".22"/><stop offset=".898" stop-color="#F1EFED"/></linearGradient><linearGradient id="h" x1="1328.47" x2="1132.51" y1="583" y2="-199.178" gradientUnits="userSpaceOnUse"><stop offset=".121" stop-color="#F1EFED"/><stop offset=".488" stop-color="#DDD" stop-opacity=".22"/><stop offset=".898" stop-color="#F1EFED"/></linearGradient><linearGradient id="i" x1="1328.47" x2="1132.51" y1="583" y2="-199.178" gradientUnits="userSpaceOnUse"><stop offset=".121" stop-color="#F1EFED"/><stop offset=".488" stop-color="#DDD" stop-opacity=".22"/><stop offset=".898" stop-color="#F1EFED"/></linearGradient><linearGradient id="j" x1="1328.47" x2="1132.51" y1="583" y2="-199.178" gradientUnits="userSpaceOnUse"><stop offset=".121" stop-color="#F1EFED"/><stop offset=".488" stop-color="#DDD" stop-opacity=".22"/><stop offset=".898" stop-color="#F1EFED"/></linearGradient><linearGradient id="k" x1="1328.47" x2="1132.51" y1="583" y2="-199.178" gradientUnits="userSpaceOnUse"><stop offset=".121" stop-color="#F1EFED"/><stop offset=".488" stop-color="#DDD" stop-opacity=".22"/><stop offset=".898" stop-color="#F1EFED"/></linearGradient><linearGradient id="l" x1="1328.47" x2="1132.51" y1="583" y2="-199.178" gradientUnits="userSpaceOnUse"><stop offset=".121" stop-color="#F1EFED"/><stop offset=".488" stop-color="#DDD" stop-opacity=".22"/><stop offset=".898" stop-color="#F1EFED"/></linearGradient><linearGradient id="m" x1="1328.47" x2="1132.51" y1="583" y2="-199.178" gradientUnits="userSpaceOnUse"><stop offset=".121" stop-color="#F1EFED"/><stop offset=".488" stop-color="#DDD" stop-opacity=".22"/><stop offset=".898" stop-color="#F1EFED"/></linearGradient><linearGradient id="n" x1="1328.47" x2="1132.51" y1="583" y2="-199.178" gradientUnits="userSpaceOnUse"><stop offset=".121" stop-color="#F1EFED"/><stop offset=".488" stop-color="#DDD" stop-opacity=".22"/><stop offset=".898" stop-color="#F1EFED"/></linearGradient><linearGradient id="o" x1="1328.47" x2="1132.51" y1="583" y2="-199.178" gradientUnits="userSpaceOnUse"><stop offset=".121" stop-color="#F1EFED"/><stop offset=".488" stop-color="#DDD" stop-opacity=".22"/><stop offset=".898" stop-color="#F1EFED"/></linearGradient><linearGradient id="p" x1="1328.47" x2="1132.51" y1="583" y2="-199.178" gradientUnits="userSpaceOnUse"><stop offset=".121" stop-color="#F1EFED"/><stop offset=".488" stop-color="#DDD" stop-opacity=".22"/><stop offset=".898" stop-color="#F1EFED"/></linearGradient><linearGradient id="q" x1="1328.47" x2="1132.51" y1="583" y2="-199.178" gradientUnits="userSpaceOnUse"><stop offset=".121" stop-color="#F1EFED"/><stop offset=".488" stop-color="#DDD" stop-opacity=".22"/><stop offset=".898" stop-color="#F1EFED"/></linearGradient><linearGradient id="r" x1="1328.47" x2="1132.51" y1="583" y2="-199.178" gradientUnits="userSpaceOnUse"><stop offset=".121" stop-color="#F1EFED"/><stop offset=".488" stop-color="#DDD" stop-opacity=".22"/><stop offset=".898" stop-color="#F1EFED"/></linearGradient><linearGradient id="s" x1="1328.47" x2="1132.51" y1="583" y2="-199.178" gradientUnits="userSpaceOnUse"><stop offset=".121" stop-color="#F1EFED"/><stop offset=".488" stop-color="#DDD" stop-opacity=".22"/><stop offset=".898" stop-color="#F1EFED"/></linearGradient><linearGradient id="t" x1="1328.47" x2="1132.51" y1="583" y2="-199.178" gradientUnits="userSpaceOnUse"><stop offset=".121" stop-color="#F1EFED"/><stop offset=".488" stop-color="#DDD" stop-opacity=".22"/><stop offset=".898" stop-color="#F1EFED"/></linearGradient><linearGradient id="u" x1="1328.47" x2="1132.51" y1="583" y2="-199.178" gradientUnits="userSpaceOnUse"><stop offset=".121" stop-color="#F1EFED"/><stop offset=".488" stop-color="#DDD" stop-opacity=".22"/><stop offset=".898" stop-color="#F1EFED"/></linearGradient><linearGradient id="v" x1="1328.47" x2="1132.51" y1="583" y2="-199.178" gradientUnits="userSpaceOnUse"><stop offset=".121" stop-color="#F1EFED"/><stop offset=".488" stop-color="#DDD" stop-opacity=".22"/><stop offset=".898" stop-color="#F1EFED"/></linearGradient><linearGradient id="w" x1="1328.47" x2="1132.51" y1="583" y2="-199.178" gradientUnits="userSpaceOnUse"><stop offset=".121" stop-color="#F1EFED"/><stop offset=".488" stop-color="#DDD" stop-opacity=".22"/><stop offset=".898" stop-color="#F1EFED"/></linearGradient><linearGradient id="x" x1="1328.47" x2="1132.51" y1="583" y2="-199.178" gradientUnits="userSpaceOnUse"><stop offset=".121" stop-color="#F1EFED"/><stop offset=".488" stop-color="#DDD" stop-opacity=".22"/><stop offset=".898" stop-color="#F1EFED"/></linearGradient><linearGradient id="y" x1="1328.47" x2="1132.51" y1="583" y2="-199.178" gradientUnits="userSpaceOnUse"><stop offset=".121" stop-color="#F1EFED"/><stop offset=".488" stop-color="#DDD" stop-opacity=".22"/><stop offset=".898" stop-color="#F1EFED"/></linearGradient><linearGradient id="z" x1="1328.47" x2="1132.51" y1="583" y2="-199.178" gradientUnits="userSpaceOnUse"><stop offset=".121" stop-color="#F1EFED"/><stop offset=".488" stop-color="#DDD" stop-opacity=".22"/><stop offset=".898" stop-color="#F1EFED"/></linearGradient><linearGradient id="A" x1="1328.47" x2="1132.51" y1="583" y2="-199.178" gradientUnits="userSpaceOnUse"><stop offset=".121" stop-color="#F1EFED"/><stop offset=".488" stop-color="#DDD" stop-opacity=".22"/><stop offset=".898" stop-color="#F1EFED"/></linearGradient><linearGradient id="B" x1="1328.47" x2="1132.51" y1="583" y2="-199.178" gradientUnits="userSpaceOnUse"><stop offset=".121" stop-color="#F1EFED"/><stop offset=".488" stop-color="#DDD" stop-opacity=".22"/><stop offset=".898" stop-color="#F1EFED"/></linearGradient><linearGradient id="C" x1="1328.47" x2="1132.51" y1="583" y2="-199.178" gradientUnits="userSpaceOnUse"><stop offset=".121" stop-color="#F1EFED"/><stop offset=".488" stop-color="#DDD" stop-opacity=".22"/><stop offset=".898" stop-color="#F1EFED"/></linearGradient><linearGradient id="D" x1="1328.47" x2="1132.51" y1="583" y2="-199.178" gradientUnits="userSpaceOnUse"><stop offset=".121" stop-color="#F1EFED"/><stop offset=".488" stop-color="#DDD" stop-opacity=".22"/><stop offset=".898" stop-color="#F1EFED"/></linearGradient><linearGradient id="E" x1="1328.47" x2="1132.51" y1="583" y2="-199.178" gradientUnits="userSpaceOnUse"><stop offset=".121" stop-color="#F1EFED"/><stop offset=".488" stop-color="#DDD" stop-opacity=".22"/><stop offset=".898" stop-color="#F1EFED"/></linearGradient><linearGradient id="F" x1="1328.47" x2="1132.51" y1="583" y2="-199.178" gradientUnits="userSpaceOnUse"><stop offset=".121" stop-color="#F1EFED"/><stop offset=".488" stop-color="#DDD" stop-opacity=".22"/><stop offset=".898" stop-color="#F1EFED"/></linearGradient><linearGradient id="G" x1="1328.47" x2="1132.51" y1="583" y2="-199.178" gradientUnits="userSpaceOnUse"><stop offset=".121" stop-color="#F1EFED"/><stop offset=".488" stop-color="#DDD" stop-opacity=".22"/><stop offset=".898" stop-color="#F1EFED"/></linearGradient><linearGradient id="H" x1="1328.47" x2="1132.51" y1="583" y2="-199.178" gradientUnits="userSpaceOnUse"><stop offset=".121" stop-color="#F1EFED"/><stop offset=".488" stop-color="#DDD" stop-opacity=".22"/><stop offset=".898" stop-color="#F1EFED"/></linearGradient><linearGradient id="I" x1="1328.47" x2="1132.51" y1="583" y2="-199.178" gradientUnits="userSpaceOnUse"><stop offset=".121" stop-color="#F1EFED"/><stop offset=".488" stop-color="#DDD" stop-opacity=".22"/><stop offset=".898" stop-color="#F1EFED"/></linearGradient><linearGradient id="J" x1="1328.47" x2="1132.51" y1="583" y2="-199.178" gradientUnits="userSpaceOnUse"><stop offset=".121" stop-color="#F1EFED"/><stop offset=".488" stop-color="#DDD" stop-opacity=".22"/><stop offset=".898" stop-color="#F1EFED"/></linearGradient><linearGradient id="K" x1="1328.47" x2="1132.51" y1="583" y2="-199.178" gradientUnits="userSpaceOnUse"><stop offset=".121" stop-color="#F1EFED"/><stop offset=".488" stop-color="#DDD" stop-opacity=".22"/><stop offset=".898" stop-color="#F1EFED"/></linearGradient><linearGradient id="L" x1="1328.47" x2="1132.51" y1="583" y2="-199.178" gradientUnits="userSpaceOnUse"><stop offset=".121" stop-color="#F1EFED"/><stop offset=".488" stop-color="#DDD" stop-opacity=".22"/><stop offset=".898" stop-color="#F1EFED"/></linearGradient><linearGradient id="M" x1="1328.47" x2="1132.51" y1="583" y2="-199.178" gradientUnits="userSpaceOnUse"><stop offset=".121" stop-color="#F1EFED"/><stop offset=".488" stop-color="#DDD" stop-opacity=".22"/><stop offset=".898" stop-color="#F1EFED"/></linearGradient><linearGradient id="N" x1="1328.47" x2="1132.51" y1="583" y2="-199.178" gradientUnits="userSpaceOnUse"><stop offset=".121" stop-color="#F1EFED"/><stop offset=".488" stop-color="#DDD" stop-opacity=".22"/><stop offset=".898" stop-color="#F1EFED"/></linearGradient><linearGradient id="O" x1="1328.47" x2="1132.51" y1="583" y2="-199.178" gradientUnits="userSpaceOnUse"><stop offset=".121" stop-color="#F1EFED"/><stop offset=".488" stop-color="#DDD" stop-opacity=".22"/><stop offset=".898" stop-color="#F1EFED"/></linearGradient><linearGradient id="P" x1="1328.47" x2="1132.51" y1="583" y2="-199.178" gradientUnits="userSpaceOnUse"><stop offset=".121" stop-color="#F1EFED"/><stop offset=".488" stop-color="#DDD" stop-opacity=".22"/><stop offset=".898" stop-color="#F1EFED"/></linearGradient><linearGradient id="Q" x1="1328.47" x2="1132.51" y1="583" y2="-199.178" gradientUnits="userSpaceOnUse"><stop offset=".121" stop-color="#F1EFED"/><stop offset=".488" stop-color="#DDD" stop-opacity=".22"/><stop offset=".898" stop-color="#F1EFED"/></linearGradient><linearGradient id="R" x1="1328.47" x2="1132.51" y1="583" y2="-199.178" gradientUnits="userSpaceOnUse"><stop offset=".121" stop-color="#F1EFED"/><stop offset=".488" stop-color="#DDD" stop-opacity=".22"/><stop offset=".898" stop-color="#F1EFED"/></linearGradient><linearGradient id="S" x1="1328.47" x2="1132.51" y1="583" y2="-199.178" gradientUnits="userSpaceOnUse"><stop offset=".121" stop-color="#F1EFED"/><stop offset=".488" stop-color="#DDD" stop-opacity=".22"/><stop offset=".898" stop-color="#F1EFED"/></linearGradient><linearGradient id="T" x1="1328.47" x2="1132.51" y1="583" y2="-199.178" gradientUnits="userSpaceOnUse"><stop offset=".121" stop-color="#F1EFED"/><stop offset=".488" stop-color="#DDD" stop-opacity=".22"/><stop offset=".898" stop-color="#F1EFED"/></linearGradient><linearGradient id="U" x1="1328.47" x2="1132.51" y1="583" y2="-199.178" gradientUnits="userSpaceOnUse"><stop offset=".121" stop-color="#F1EFED"/><stop offset=".488" stop-color="#DDD" stop-opacity=".22"/><stop offset=".898" stop-color="#F1EFED"/></linearGradient><linearGradient id="V" x1="1328.47" x2="1132.51" y1="583" y2="-199.178" gradientUnits="userSpaceOnUse"><stop offset=".121" stop-color="#F1EFED"/><stop offset=".488" stop-color="#DDD" stop-opacity=".22"/><stop offset=".898" stop-color="#F1EFED"/></linearGradient><linearGradient id="W" x1="1328.47" x2="1132.51" y1="583" y2="-199.178" gradientUnits="userSpaceOnUse"><stop offset=".121" stop-color="#F1EFED"/><stop offset=".488" stop-color="#DDD" stop-opacity=".22"/><stop offset=".898" stop-color="#F1EFED"/></linearGradient><linearGradient id="X" x1="1328.47" x2="1132.51" y1="583" y2="-199.178" gradientUnits="userSpaceOnUse"><stop offset=".121" stop-color="#F1EFED"/><stop offset=".488" stop-color="#DDD" stop-opacity=".22"/><stop offset=".898" stop-color="#F1EFED"/></linearGradient><linearGradient id="Y" x1="1328.47" x2="1132.51" y1="583" y2="-199.178" gradientUnits="userSpaceOnUse"><stop offset=".121" stop-color="#F1EFED"/><stop offset=".488" stop-color="#DDD" stop-opacity=".22"/><stop offset=".898" stop-color="#F1EFED"/></linearGradient><linearGradient id="Z" x1="1328.47" x2="1132.51" y1="583" y2="-199.178" gradientUnits="userSpaceOnUse"><stop offset=".121" stop-color="#F1EFED"/><stop offset=".488" stop-color="#DDD" stop-opacity=".22"/><stop offset=".898" stop-color="#F1EFED"/></linearGradient><linearGradient id="aa" x1="1328.47" x2="1132.51" y1="583" y2="-199.178" gradientUnits="userSpaceOnUse"><stop offset=".121" stop-color="#F1EFED"/><stop offset=".488" stop-color="#DDD" stop-opacity=".22"/><stop offset=".898" stop-color="#F1EFED"/></linearGradient><linearGradient id="ab" x1="1328.47" x2="1132.51" y1="583" y2="-199.178" gradientUnits="userSpaceOnUse"><stop offset=".121" stop-color="#F1EFED"/><stop offset=".488" stop-color="#DDD" stop-opacity=".22"/><stop offset=".898" stop-color="#F1EFED"/></linearGradient><linearGradient id="ac" x1="1328.47" x2="1132.51" y1="583" y2="-199.178" gradientUnits="userSpaceOnUse"><stop offset=".121" stop-color="#F1EFED"/><stop offset=".488" stop-color="#DDD" stop-opacity=".22"/><stop offset=".898" stop-color="#F1EFED"/></linearGradient><linearGradient id="ad" x1="1328.47" x2="1132.51" y1="583" y2="-199.178" gradientUnits="userSpaceOnUse"><stop offset=".121" stop-color="#F1EFED"/><stop offset=".488" stop-color="#DDD" stop-opacity=".22"/><stop offset=".898" stop-color="#F1EFED"/></linearGradient><linearGradient id="ae" x1="1328.47" x2="1132.51" y1="583" y2="-199.178" gradientUnits="userSpaceOnUse"><stop offset=".121" stop-color="#F1EFED"/><stop offset=".488" stop-color="#DDD" stop-opacity=".22"/><stop offset=".898" stop-color="#F1EFED"/></linearGradient><linearGradient id="af" x1="1328.47" x2="1132.51" y1="583" y2="-199.178" gradientUnits="userSpaceOnUse"><stop offset=".121" stop-color="#F1EFED"/><stop offset=".488" stop-color="#DDD" stop-opacity=".22"/><stop offset=".898" stop-color="#F1EFED"/></linearGradient><linearGradient id="ag" x1="1328.47" x2="1132.51" y1="583" y2="-199.178" gradientUnits="userSpaceOnUse"><stop offset=".121" stop-color="#F1EFED"/><stop offset=".488" stop-color="#DDD" stop-opacity=".22"/><stop offset=".898" stop-color="#F1EFED"/></linearGradient><linearGradient id="ah" x1="1328.47" x2="1132.51" y1="583" y2="-199.178" gradientUnits="userSpaceOnUse"><stop offset=".121" stop-color="#F1EFED"/><stop offset=".488" stop-color="#DDD" stop-opacity=".22"/><stop offset=".898" stop-color="#F1EFED"/></linearGradient><linearGradient id="ai" x1="1328.47" x2="1132.51" y1="583" y2="-199.178" gradientUnits="userSpaceOnUse"><stop offset=".121" stop-color="#F1EFED"/><stop offset=".488" stop-color="#DDD" stop-opacity=".22"/><stop offset=".898" stop-color="#F1EFED"/></linearGradient><linearGradient id="aj" x1="1328.47" x2="1132.51" y1="583" y2="-199.178" gradientUnits="userSpaceOnUse"><stop offset=".121" stop-color="#F1EFED"/><stop offset=".488" stop-color="#DDD" stop-opacity=".22"/><stop offset=".898" stop-color="#F1EFED"/></linearGradient><linearGradient id="ak" x1="1328.47" x2="1132.51" y1="583" y2="-199.178" gradientUnits="userSpaceOnUse"><stop offset=".121" stop-color="#F1EFED"/><stop offset=".488" stop-color="#DDD" stop-opacity=".22"/><stop offset=".898" stop-color="#F1EFED"/></linearGradient><linearGradient id="al" x1="1328.47" x2="1132.51" y1="583" y2="-199.178" gradientUnits="userSpaceOnUse"><stop offset=".121" stop-color="#F1EFED"/><stop offset=".488" stop-color="#DDD" stop-opacity=".22"/><stop offset=".898" stop-color="#F1EFED"/></linearGradient><linearGradient id="am" x1="1328.47" x2="1132.51" y1="583" y2="-199.178" gradientUnits="userSpaceOnUse"><stop offset=".121" stop-color="#F1EFED"/><stop offset=".488" stop-color="#DDD" stop-opacity=".22"/><stop offset=".898" stop-color="#F1EFED"/></linearGradient><linearGradient id="an" x1="1328.47" x2="1132.51" y1="583" y2="-199.178" gradientUnits="userSpaceOnUse"><stop offset=".121" stop-color="#F1EFED"/><stop offset=".488" stop-color="#DDD" stop-opacity=".22"/><stop offset=".898" stop-color="#F1EFED"/></linearGradient><linearGradient id="ao" x1="1328.47" x2="1132.51" y1="583" y2="-199.178" gradientUnits="userSpaceOnUse"><stop offset=".121" stop-color="#F1EFED"/><stop offset=".488" stop-color="#DDD" stop-opacity=".22"/><stop offset=".898" stop-color="#F1EFED"/></linearGradient><linearGradient id="ap" x1="1328.47" x2="1132.51" y1="583" y2="-199.178" gradientUnits="userSpaceOnUse"><stop offset=".121" stop-color="#F1EFED"/><stop offset=".488" stop-color="#DDD" stop-opacity=".22"/><stop offset=".898" stop-color="#F1EFED"/></linearGradient><linearGradient id="aq" x1="1328.47" x2="1132.51" y1="583" y2="-199.178" gradientUnits="userSpaceOnUse"><stop offset=".121" stop-color="#F1EFED"/><stop offset=".488" stop-color="#DDD" stop-opacity=".22"/><stop offset=".898" stop-color="#F1EFED"/></linearGradient><linearGradient id="ar" x1="1328.47" x2="1132.51" y1="583" y2="-199.178" gradientUnits="userSpaceOnUse"><stop offset=".121" stop-color="#F1EFED"/><stop offset=".488" stop-color="#DDD" stop-opacity=".22"/><stop offset=".898" stop-color="#F1EFED"/></linearGradient><linearGradient id="as" x1="1328.47" x2="1132.51" y1="583" y2="-199.178" gradientUnits="userSpaceOnUse"><stop offset=".121" stop-color="#F1EFED"/><stop offset=".488" stop-color="#DDD" stop-opacity=".22"/><stop offset=".898" stop-color="#F1EFED"/></linearGradient><linearGradient id="at" x1="1328.47" x2="1132.51" y1="583" y2="-199.178" gradientUnits="userSpaceOnUse"><stop offset=".121" stop-color="#F1EFED"/><stop offset=".488" stop-color="#DDD" stop-opacity=".22"/><stop offset=".898" stop-color="#F1EFED"/></linearGradient><linearGradient id="au" x1="314.468" x2="267.728" y1="731" y2="-24.916" gradientUnits="userSpaceOnUse"><stop offset=".121" stop-color="#F1EFED"/><stop offset=".488" stop-color="#DDD" stop-opacity=".22"/><stop offset="1" stop-color="#F1EFED"/></linearGradient><linearGradient id="av" x1="314.468" x2="267.728" y1="731" y2="-24.916" gradientUnits="userSpaceOnUse"><stop offset=".121" stop-color="#F1EFED"/><stop offset=".488" stop-color="#DDD" stop-opacity=".22"/><stop offset="1" stop-color="#F1EFED"/></linearGradient><linearGradient id="aw" x1="314.468" x2="267.728" y1="731" y2="-24.916" gradientUnits="userSpaceOnUse"><stop offset=".121" stop-color="#F1EFED"/><stop offset=".488" stop-color="#DDD" stop-opacity=".22"/><stop offset="1" stop-color="#F1EFED"/></linearGradient><linearGradient id="ax" x1="314.468" x2="267.728" y1="731" y2="-24.916" gradientUnits="userSpaceOnUse"><stop offset=".121" stop-color="#F1EFED"/><stop offset=".488" stop-color="#DDD" stop-opacity=".22"/><stop offset="1" stop-color="#F1EFED"/></linearGradient><linearGradient id="ay" x1="314.468" x2="267.728" y1="731" y2="-24.916" gradientUnits="userSpaceOnUse"><stop offset=".121" stop-color="#F1EFED"/><stop offset=".488" stop-color="#DDD" stop-opacity=".22"/><stop offset="1" stop-color="#F1EFED"/></linearGradient><linearGradient id="az" x1="314.468" x2="267.728" y1="731" y2="-24.916" gradientUnits="userSpaceOnUse"><stop offset=".121" stop-color="#F1EFED"/><stop offset=".488" stop-color="#DDD" stop-opacity=".22"/><stop offset="1" stop-color="#F1EFED"/></linearGradient><linearGradient id="aA" x1="314.468" x2="267.728" y1="731" y2="-24.916" gradientUnits="userSpaceOnUse"><stop offset=".121" stop-color="#F1EFED"/><stop offset=".488" stop-color="#DDD" stop-opacity=".22"/><stop offset="1" stop-color="#F1EFED"/></linearGradient><linearGradient id="aB" x1="314.468" x2="267.728" y1="731" y2="-24.916" gradientUnits="userSpaceOnUse"><stop offset=".121" stop-color="#F1EFED"/><stop offset=".488" stop-color="#DDD" stop-opacity=".22"/><stop offset="1" stop-color="#F1EFED"/></linearGradient><linearGradient id="aC" x1="314.468" x2="267.728" y1="731" y2="-24.916" gradientUnits="userSpaceOnUse"><stop offset=".121" stop-color="#F1EFED"/><stop offset=".488" stop-color="#DDD" stop-opacity=".22"/><stop offset="1" stop-color="#F1EFED"/></linearGradient><linearGradient id="aD" x1="314.468" x2="267.728" y1="731" y2="-24.916" gradientUnits="userSpaceOnUse"><stop offset=".121" stop-color="#F1EFED"/><stop offset=".488" stop-color="#DDD" stop-opacity=".22"/><stop offset="1" stop-color="#F1EFED"/></linearGradient><linearGradient id="aE" x1="314.468" x2="267.728" y1="731" y2="-24.916" gradientUnits="userSpaceOnUse"><stop offset=".121" stop-color="#F1EFED"/><stop offset=".488" stop-color="#DDD" stop-opacity=".22"/><stop offset="1" stop-color="#F1EFED"/></linearGradient><linearGradient id="aF" x1="314.468" x2="267.728" y1="731" y2="-24.916" gradientUnits="userSpaceOnUse"><stop offset=".121" stop-color="#F1EFED"/><stop offset=".488" stop-color="#DDD" stop-opacity=".22"/><stop offset="1" stop-color="#F1EFED"/></linearGradient><linearGradient id="aG" x1="314.468" x2="267.728" y1="731" y2="-24.916" gradientUnits="userSpaceOnUse"><stop offset=".121" stop-color="#F1EFED"/><stop offset=".488" stop-color="#DDD" stop-opacity=".22"/><stop offset="1" stop-color="#F1EFED"/></linearGradient><linearGradient id="aH" x1="314.468" x2="267.728" y1="731" y2="-24.916" gradientUnits="userSpaceOnUse"><stop offset=".121" stop-color="#F1EFED"/><stop offset=".488" stop-color="#DDD" stop-opacity=".22"/><stop offset="1" stop-color="#F1EFED"/></linearGradient><linearGradient id="aI" x1="314.468" x2="267.728" y1="731" y2="-24.916" gradientUnits="userSpaceOnUse"><stop offset=".121" stop-color="#F1EFED"/><stop offset=".488" stop-color="#DDD" stop-opacity=".22"/><stop offset="1" stop-color="#F1EFED"/></linearGradient><linearGradient id="aJ" x1="314.468" x2="267.728" y1="731" y2="-24.916" gradientUnits="userSpaceOnUse"><stop offset=".121" stop-color="#F1EFED"/><stop offset=".488" stop-color="#DDD" stop-opacity=".22"/><stop offset="1" stop-color="#F1EFED"/></linearGradient><linearGradient id="aK" x1="314.468" x2="267.728" y1="731" y2="-24.916" gradientUnits="userSpaceOnUse"><stop offset=".121" stop-color="#F1EFED"/><stop offset=".488" stop-color="#DDD" stop-opacity=".22"/><stop offset="1" stop-color="#F1EFED"/></linearGradient><linearGradient id="aL" x1="314.468" x2="267.728" y1="731" y2="-24.916" gradientUnits="userSpaceOnUse"><stop offset=".121" stop-color="#F1EFED"/><stop offset=".488" stop-color="#DDD" stop-opacity=".22"/><stop offset="1" stop-color="#F1EFED"/></linearGradient><linearGradient id="aM" x1="314.468" x2="267.728" y1="731" y2="-24.916" gradientUnits="userSpaceOnUse"><stop offset=".121" stop-color="#F1EFED"/><stop offset=".488" stop-color="#DDD" stop-opacity=".22"/><stop offset="1" stop-color="#F1EFED"/></linearGradient><linearGradient id="aN" x1="314.468" x2="267.728" y1="731" y2="-24.916" gradientUnits="userSpaceOnUse"><stop offset=".121" stop-color="#F1EFED"/><stop offset=".488" stop-color="#DDD" stop-opacity=".22"/><stop offset="1" stop-color="#F1EFED"/></linearGradient><linearGradient id="aO" x1="314.468" x2="267.728" y1="731" y2="-24.916" gradientUnits="userSpaceOnUse"><stop offset=".121" stop-color="#F1EFED"/><stop offset=".488" stop-color="#DDD" stop-opacity=".22"/><stop offset="1" stop-color="#F1EFED"/></linearGradient><linearGradient id="aP" x1="314.468" x2="267.728" y1="731" y2="-24.916" gradientUnits="userSpaceOnUse"><stop offset=".121" stop-color="#F1EFED"/><stop offset=".488" stop-color="#DDD" stop-opacity=".22"/><stop offset="1" stop-color="#F1EFED"/></linearGradient><linearGradient id="aQ" x1="314.468" x2="267.728" y1="731" y2="-24.916" gradientUnits="userSpaceOnUse"><stop offset=".121" stop-color="#F1EFED"/><stop offset=".488" stop-color="#DDD" stop-opacity=".22"/><stop offset="1" stop-color="#F1EFED"/></linearGradient><linearGradient id="aR" x1="314.468" x2="267.728" y1="731" y2="-24.916" gradientUnits="userSpaceOnUse"><stop offset=".121" stop-color="#F1EFED"/><stop offset=".488" stop-color="#DDD" stop-opacity=".22"/><stop offset="1" stop-color="#F1EFED"/></linearGradient><linearGradient id="aS" x1="314.468" x2="267.728" y1="731" y2="-24.916" gradientUnits="userSpaceOnUse"><stop offset=".121" stop-color="#F1EFED"/><stop offset=".488" stop-color="#DDD" stop-opacity=".22"/><stop offset="1" stop-color="#F1EFED"/></linearGradient><linearGradient id="aT" x1="314.468" x2="267.728" y1="731" y2="-24.916" gradientUnits="userSpaceOnUse"><stop offset=".121" stop-color="#F1EFED"/><stop offset=".488" stop-color="#DDD" stop-opacity=".22"/><stop offset="1" stop-color="#F1EFED"/></linearGradient><linearGradient id="aU" x1="314.468" x2="267.728" y1="731" y2="-24.916" gradientUnits="userSpaceOnUse"><stop offset=".121" stop-color="#F1EFED"/><stop offset=".488" stop-color="#DDD" stop-opacity=".22"/><stop offset="1" stop-color="#F1EFED"/></linearGradient><linearGradient id="aV" x1="314.468" x2="267.728" y1="731" y2="-24.916" gradientUnits="userSpaceOnUse"><stop offset=".121" stop-color="#F1EFED"/><stop offset=".488" stop-color="#DDD" stop-opacity=".22"/><stop offset="1" stop-color="#F1EFED"/></linearGradient><linearGradient id="aW" x1="314.468" x2="267.728" y1="731" y2="-24.916" gradientUnits="userSpaceOnUse"><stop offset=".121" stop-color="#F1EFED"/><stop offset=".488" stop-color="#DDD" stop-opacity=".22"/><stop offset="1" stop-color="#F1EFED"/></linearGradient><linearGradient id="aX" x1="314.468" x2="267.728" y1="731" y2="-24.916" gradientUnits="userSpaceOnUse"><stop offset=".121" stop-color="#F1EFED"/><stop offset=".488" stop-color="#DDD" stop-opacity=".22"/><stop offset="1" stop-color="#F1EFED"/></linearGradient><linearGradient id="aY" x1="314.468" x2="267.728" y1="731" y2="-24.916" gradientUnits="userSpaceOnUse"><stop offset=".121" stop-color="#F1EFED"/><stop offset=".488" stop-color="#DDD" stop-opacity=".22"/><stop offset="1" stop-color="#F1EFED"/></linearGradient><linearGradient id="aZ" x1="314.468" x2="267.728" y1="731" y2="-24.916" gradientUnits="userSpaceOnUse"><stop offset=".121" stop-color="#F1EFED"/><stop offset=".488" stop-color="#DDD" stop-opacity=".22"/><stop offset="1" stop-color="#F1EFED"/></linearGradient><linearGradient id="ba" x1="314.468" x2="267.728" y1="731" y2="-24.916" gradientUnits="userSpaceOnUse"><stop offset=".121" stop-color="#F1EFED"/><stop offset=".488" stop-color="#DDD" stop-opacity=".22"/><stop offset="1" stop-color="#F1EFED"/></linearGradient><linearGradient id="bb" x1="314.468" x2="267.728" y1="731" y2="-24.916" gradientUnits="userSpaceOnUse"><stop offset=".121" stop-color="#F1EFED"/><stop offset=".488" stop-color="#DDD" stop-opacity=".22"/><stop offset="1" stop-color="#F1EFED"/></linearGradient><linearGradient id="bc" x1="314.468" x2="267.728" y1="731" y2="-24.916" gradientUnits="userSpaceOnUse"><stop offset=".121" stop-color="#F1EFED"/><stop offset=".488" stop-color="#DDD" stop-opacity=".22"/><stop offset="1" stop-color="#F1EFED"/></linearGradient></defs></svg>
