<svg xmlns="http://www.w3.org/2000/svg" width="585" height="707" fill="none" viewBox="0 0 585 707"><g clip-path="url(#a)"><g stroke="#8F8E93" opacity=".2"><path fill="#8F8E93" stroke-width=".911" d="m505.336 9.678.392.693.399-.689 1.635-2.824.001-.002c.883-1.544 2.854-2.069 4.406-1.183 1.544.882 2.069 2.851 1.184 4.401h-.001L497.595 37.33l-.395.683h12.187c1.65 0 2.951.965 3.665 2.303.675 1.267.8 2.825.21 4.13h-33.13a3.205 3.205 0 0 1-3.219-3.217 3.205 3.205 0 0 1 3.219-3.216h9.631l.131-.228 11.993-20.77.131-.227-.131-.227-3.744-6.495h-.001a3.224 3.224 0 0 1 5.59-3.219l1.604 2.832Zm-17.705 44.9-.001.002c-.882 1.543-2.854 2.068-4.406 1.182-1.544-.882-2.069-2.85-1.183-4.4v-.002l2.533-4.38c1.349-.391 2.547-.417 3.612-.11 1.026.295 1.964.909 2.817 1.865l-3.372 5.843Zm33.96-16.773.131.227h9.823a3.205 3.205 0 0 1 3.219 3.217 3.205 3.205 0 0 1-3.219 3.216H525.446l.394.683 3.583 6.212h.001a3.224 3.224 0 1 1-5.591 3.217c-3.357-5.817-6.248-10.819-8.671-15.01-1.934-3.346-3.57-6.176-4.906-8.492l-.001-.001c-2.765-4.766-1.081-9.517.793-11.485 2.027 3.478 4.833 8.336 8.432 14.563l2.111 3.653Z"/><path fill="#8F8E93" stroke-width="2.734" d="M182.429-13.33c0-.317.025-.594.068-.836L206.43 9.748l-23.933 23.928a4.67 4.67 0 0 1-.068-.83V-13.33ZM226.406 7.928l.005.003c1.21.681 1.495 1.392 1.495 1.816 0 .427-.288 1.144-1.5 1.835l-.001.001-9.495 5.395-7.224-7.223 7.224-7.223 9.496 5.396Z"/><path stroke-width="2.734" d="m184.544 35.192 23.509-23.505 6.584 6.582-28.948 16.464a4.239 4.239 0 0 1-1.145.459Z"/><path fill="#F1EFED" stroke-width="2.734" d="m185.679-15.203 28.957 16.445-6.583 6.582-23.522-23.494c.329.072.71.217 1.145.466l.003.002ZM205.869 153.403h-43.147l7.708-49.282a.102.102 0 0 1 .191-.032l.005.009.005.009 8.279 14.929 1.197 2.159 1.194-2.16 3.227-5.837.007-.012.006-.012a.102.102 0 0 1 .091-.054c.038 0 .073.021.09.054l21.147 40.229Z"/><path stroke-width="2.734" d="m181.064 118.77-18.923 36.002"/><path fill="#8F8E93" stroke-width="2.734" d="m163.367 154.459 37.152-37.187a.1.1 0 0 1 .102-.025l.416-1.302-.416 1.302a.103.103 0 0 1 .07.078l.001.002 5.937 36.713-20.608 11.449-.002.001a3.043 3.043 0 0 1-2.965.001v-.001l-19.687-11.031Z"/><path fill="#F1EFED" stroke-width="2.734" d="M352.407 164.968c.236-.169.516-.264.805-.272h15.835l-17.76 52.581a1.444 1.444 0 0 1-.53.715 1.448 1.448 0 0 1-.848.273h-13.772a1.452 1.452 0 0 1-1.178-.603 1.451 1.451 0 0 1-.196-1.307l17.115-50.671a1.45 1.45 0 0 1 .529-.716Z"/><path fill="#F1EFED" stroke-width="2.734" d="M383.954 218.263h-13.966c-.372 0-.73-.141-1.002-.394l-17.903-16.697h26.916l5.955 17.091Zm-33.046-17.091h.002-.002Z"/><path fill="#8F8E93" stroke-width="2.734" d="M374.565 165.68v.001l17.115 50.673a1.453 1.453 0 0 1-.196 1.307l1.11.797-1.11-.797a1.444 1.444 0 0 1-1.178.604h-15.797a4.12 4.12 0 0 0 .213-.829l-1.352-.203 1.352.203a4.166 4.166 0 0 0-.174-1.957l-17.115-50.673a2.446 2.446 0 0 0-.039-.111h15.796a1.454 1.454 0 0 1 1.375.985Z"/><path fill="#8F8E93" stroke-width=".911" d="m500.173 181.429.419-1.709c1.489-6.069.487-13.543-3.196-20.576l.403-.211-.403.211a.485.485 0 0 0-.702-.192l-11.605 7.254a.494.494 0 0 0-.157.68l1.702 2.724a.493.493 0 0 0 .679.157l7.522-4.702.484-.302.187.539c.256.732.486 1.471.681 2.216l-.44.116c.724 2.753.993 5.44.801 7.985l3.625 5.81Zm0 0 1.196-1.291a32.016 32.016 0 0 0 3.672-4.815c1.709-2.735 2.972-5.627 3.752-8.596m-8.62 14.702 8.62-14.702m0 0c.736-2.796 1.012-5.533.815-8.135m-.815 8.135-23.297 21.303m0 0-.011-.001c-2.057-.058-3.962-.598-5.608-1.627-3.302-2.063-5.279-5.91-5.644-10.749-.196-2.601.08-5.338.815-8.135.78-2.968 2.043-5.86 3.752-8.596 1.709-2.735 3.754-5.139 6.08-7.142m.616 36.25.012-.001m-.012.001.012-.001m-.628-36.249.297.346m-.297-.346.297.346m-.297-.346c2.19-1.886 4.528-3.334 6.952-4.298 4.508-1.793 8.831-1.702 12.133.362 3.301 2.063 5.278 5.91 5.643 10.748m-24.431-6.466c-2.289 1.971-4.304 4.339-5.99 7.038m5.99-7.038-5.99 7.038m30.421-.572-.454.035.454-.035Zm-30.421.572c-1.686 2.699-2.93 5.548-3.698 8.47-.724 2.753-.994 5.44-.802 7.985l4.5-16.455Zm6.321 28.865h.052l.046.001-.098-.001Zm-6.105-40.547c-4.507-1.793-8.831-1.702-12.132.362-3.301 2.063-5.279 5.91-5.644 10.748-.196 2.602.08 5.339.815 8.135.78 2.969 2.044 5.861 3.753 8.596a32.024 32.024 0 0 0 3.672 4.816l1.196 1.292-.419-1.71c-1.664-6.781-.219-15.315 4.597-23.024l-.386-.241.386.241c1.817-2.908 3.952-5.439 6.274-7.543l.484-.44-.58-.302a21.755 21.755 0 0 0-2.016-.93Zm0 0-.168.423m.168-.423-.168.423m0 0c.517.206 1.03.437 1.54.69l-13.262-.365c3.144-1.966 7.307-2.081 11.722-.325Zm12.124 38.497c3.301-2.063 5.278-5.91 5.643-10.749l-11.328 12.377h.004a.445.445 0 0 1 .052 0h.011l.011-.001c2.056-.058 3.961-.598 5.607-1.627Zm-5.986-40.558.243.153.243-.153c6.9-4.346 14.559-5.168 20.329-1.561 4.561 2.85 7.151 7.966 7.606 13.993.454 6.028-1.233 12.933-5.194 19.273-5.847 9.36-14.952 14.781-22.976 14.681h-.012c-8.025.1-17.129-5.321-22.977-14.681-3.961-6.34-5.648-13.245-5.193-19.272.455-6.028 3.045-11.143 7.605-13.994l-.242-.386.242.386c5.77-3.606 13.427-2.783 20.326 1.561ZM431.321 292.302l.004.002c11.927 6.915 26.633 11.101 41.845 11.101 10.268 0 21.543-2.136 31.921-6.52l.011-.005c.586-.266 1.055-.057 1.251.226a.615.615 0 0 1 .101.487c-.038.176-.162.402-.469.63-9.108 6.722-22.376 10.307-33.794 10.307-15.994 0-30.401-5.909-41.283-15.728-.153-.139-.205-.262-.218-.344a.231.231 0 0 1 .039-.182c.043-.057.223-.194.592.026Z"/><path fill="#8F8E93" stroke-width=".911" d="M510.447 293.947c-.214-.274-.525-.465-.863-.604a5.44 5.44 0 0 0-1.18-.309c-.871-.139-1.932-.171-3.028-.145-2.196.053-4.616.343-6.11.524h-.001a.52.52 0 0 1-.246-.012.331.331 0 0 1 .042-.11c.049-.085.142-.197.301-.312 2.525-1.77 5.895-2.418 8.79-2.459 1.443-.02 2.748.11 3.745.317.5.104.912.225 1.222.351.323.131.479.246.531.309.047.06.123.231.171.572.046.326.06.751.033 1.258-.054 1.012-.268 2.305-.665 3.693-.798 2.787-2.315 5.884-4.68 7.871l-.002.002a.99.99 0 0 1-.369.213.3.3 0 0 1-.109.013.516.516 0 0 1 .049-.24c.559-1.382 1.469-3.651 2.091-5.764.311-1.055.556-2.09.646-2.967.045-.438.053-.852.004-1.217-.048-.361-.155-.71-.372-.984Z"/><path fill="#8F8E93" stroke-width="1.822" d="m223.251 308.984 8.657-7.689-8.657-7.689v15.378Zm31.165-31.141c-1.539-1.538-4.425-3.46-9.234-3.46-5.194 0-10.581 1.346-14.428 2.691V255.16h-7.695v33.256l5.386-2.499s8.849-4.037 16.545-4.037c3.847 0 4.809 2.114 4.809 4.037v23.067h7.695v-23.067c.192-.577.192-4.806-3.078-8.074Zm-10.196-10.188h7.695c3.463-4.037 5.194-8.074 5.771-12.495h-7.695c-.769 4.421-2.693 8.458-5.771 12.495Z"/><path stroke-width="2.734" d="M321.598 70.104a21.76 21.76 0 0 1 14.161-13.273 21.792 21.792 0 0 1 20.127 4.07l-.114.987-4.412 4.408h-.734a14.221 14.221 0 0 0-18.815 1.522c-.152.08-.272.172-.353.24-.192.162-.35.35-.454.482l-.012.016-9.394 1.548Z"/><path fill="#8F8E93" stroke-width="2.734" d="m363.086 71.974.133.49.421.284a15.345 15.345 0 0 1-8.726 28.062h-12.308l-.481-.482v-6.58l.487-.494h12.291a7.802 7.802 0 0 0 7.204-4.81 7.789 7.789 0 0 0-5.837-10.656v-.022a14.2 14.2 0 0 0-4.103-10.24l5.276-5.271a21.807 21.807 0 0 1 5.643 9.719Z"/><path stroke-width="2.734" d="M329.161 100.738h-.006a15.274 15.274 0 0 1-8.54-2.564l.133-.53 4.676-4.64 1.015-.314a7.77 7.77 0 0 0 2.722.493h11.496v7.555h-11.496Z"/><path fill="#8F8E93" stroke-width="2.734" d="M320.259 73.004a15.37 15.37 0 0 1 8.907-2.91 15.356 15.356 0 0 1 11.479 5.098l-5.358 5.355a7.799 7.799 0 0 0-13.788 6.233 7.784 7.784 0 0 0 2.833 4.713l-5.356 5.351a15.338 15.338 0 0 1 1.283-23.84Z"/></g><path stroke="url(#b)" stroke-width="1.822" d="M-53.953 99.796H81.82l54.673-74.72h17.314m76.543 12.757V95.24h53.762m185.891-83.833h-13.669v50.118H438.11V-46h-20.756V61.525h-20.756V-46h-20.756v83.833h-20.755V-46h-20.756v65.608h-20.756V-46H292.82v83.833l-20.756-18.225V-46h-20.756v36.45L230.35-27.777h-20.958M-74 134.424v25.514h200.47v26.426h37.36m87.478-30.071v30.071H163.83m0 0v92.034h-20.958 36.449m127.572-70.165h-22.781m-104.791 70.165h18.225v-51.029m-18.225 51.029v41.005h22.781m82.01-111.17h-86.566v19.136m86.566-19.136v-66.519h112.486m0 0h32.399V258.35h52.852v-30.982m-85.251-85.655V80.661h110.765M396.598 291.154h-41.511m0 0h-41.512V243.77l-20.755-16.402h-95.274m157.541 63.786V243.77M624-46H493.695v25.514h53.762v31.893h23.692v69.254h-63.786m0 0v19.135l-41.917 8.201"/><g stroke="#8F8E93" opacity=".2"><path fill="#8F8E93" stroke-width="1.048" d="m289.485 384.951.451.796.458-.792 1.882-3.249.001-.003c1.016-1.775 3.284-2.379 5.069-1.36 1.776 1.015 2.381 3.28 1.362 5.063l-.001.001-18.127 31.353-.455.787h14.02c1.899 0 3.395 1.109 4.216 2.65.777 1.457.92 3.249.243 4.75h-38.115a3.687 3.687 0 0 1-3.703-3.7c0-2.054 1.646-3.7 3.703-3.7h11.08l.151-.262 13.797-23.894.151-.262-.151-.262-4.307-7.472h-.001a3.708 3.708 0 0 1 1.364-5.064 3.715 3.715 0 0 1 5.067 1.362l.002.003 1.843 3.255Zm-20.368 51.654-.001.001c-1.016 1.776-3.284 2.38-5.069 1.36-1.777-1.014-2.381-3.279-1.361-5.062v-.001l2.914-5.04c1.552-.45 2.929-.479 4.155-.126 1.18.34 2.26 1.046 3.241 2.145l-3.879 6.723Zm39.068-19.297.151.262h11.301a3.688 3.688 0 0 1 3.703 3.7c0 2.054-1.647 3.7-3.703 3.7h-7.017l.454.786 4.122 7.147a3.71 3.71 0 0 1-1.363 5.065 3.718 3.718 0 0 1-5.069-1.364c-3.862-6.694-7.189-12.448-9.976-17.271-2.225-3.849-4.107-7.103-5.643-9.767l-.001-.001c-3.181-5.483-1.243-10.949.912-13.213 2.331 4 5.559 9.586 9.697 16.747l2.432 4.209Z"/><path fill="#F1EFED" stroke-width="3.145" d="M113.552 563.597c.271-.194.593-.303.926-.313h18.217l-20.432 60.491a1.674 1.674 0 0 1-.609.823l.917 1.278-.917-1.278a1.674 1.674 0 0 1-.976.314H94.835a1.68 1.68 0 0 1-.762-.183l-.662 1.29.662-1.29a1.668 1.668 0 0 1-.82-2.014v-.001l19.69-58.293a1.67 1.67 0 0 1 .609-.824Z"/><path fill="#F1EFED" stroke-width="3.145" d="M149.847 624.911H133.78a1.69 1.69 0 0 1-1.153-.454l-20.596-19.209h30.965l6.851 19.663Zm-38.017-19.663h.002-.002Z"/><path fill="#8F8E93" stroke-width="3.145" d="m139.043 564.417 19.69 58.296a1.675 1.675 0 0 1-.225 1.504 1.673 1.673 0 0 1-1.356.695h-18.173a4.804 4.804 0 0 0 .045-3.205l-19.69-58.296a3.253 3.253 0 0 0-.045-.128h18.173a1.671 1.671 0 0 1 1.581 1.134Z"/><path fill="#8F8E93" stroke-width="1.048" d="m283.548 582.537.482-1.967c1.713-6.982.56-15.58-3.678-23.671l.465-.243-.465.243a.555.555 0 0 0-.806-.221l-13.351 8.345a.569.569 0 0 0-.181.783l1.958 3.133a.567.567 0 0 0 .782.181l8.652-5.409.557-.348.216.62c.294.842.558 1.692.784 2.55l-.507.133c.832 3.167 1.142 6.258.921 9.186l4.171 6.685Zm0 0 1.376-1.486a36.932 36.932 0 0 0 4.224-5.539c1.966-3.147 3.419-6.474 4.317-9.889m-9.917 16.914 9.41-17.047m1.444-9.226c-.42-5.566-2.695-9.992-6.493-12.365-3.798-2.374-8.771-2.48-13.957-.417-2.788 1.109-5.479 2.775-7.998 4.945-2.676 2.304-5.028 5.069-6.994 8.217-1.966 3.147-3.419 6.474-4.317 9.889-.846 3.217-1.163 6.366-.937 9.359.419 5.566 2.694 9.991 6.492 12.365 1.894 1.184 4.086 1.805 6.452 1.872l.013.001.013-.001.113.001h.043l.04-.001h.023l.037.001h.013l.012-.001c2.365-.067 4.557-.688 6.45-1.872 3.798-2.374 6.073-6.799 6.493-12.365l13.979-19.589m.523-.039-.523.039m.523-.039-.523.039m.523-.039c.226 2.993-.091 6.142-.937 9.359m.414-9.32c.222 2.929-.089 6.02-.921 9.187m.507.133-.507-.133m.507.133-.507-.133m-8.419 15.205-.384-.356c.208-.225.413-.452.616-.683-.07.35-.148.696-.232 1.039Zm0 0 .509.125c.075-.305.145-.613.209-.924-.236.271-.475.537-.718.799Zm-6.855-16.54.278.445-.104.065-.174-.51Zm0 0-.495.173.039.112.456-.285Zm-37.543 1.468c.897 3.415 2.351 6.742 4.317 9.889a36.947 36.947 0 0 0 4.225 5.54l1.376 1.486-.483-1.967c-1.914-7.801-.251-17.618 5.289-26.487l-.445-.278.445.278c2.09-3.346 4.547-6.258 7.217-8.678l.558-.506-.667-.348a25.303 25.303 0 0 0-2.319-1.07c-5.186-2.063-10.16-1.957-13.958.417-3.798 2.373-6.073 6.799-6.493 12.365-.225 2.993.092 6.142.938 9.359Zm26.38-24.024.28.175.279-.175c7.938-5 16.749-5.947 23.388-1.797 5.247 3.279 8.226 9.165 8.749 16.099.523 6.933-1.418 14.877-5.974 22.171-6.727 10.768-17.202 17.005-26.433 16.889h-.013c-9.232.116-19.707-6.121-26.434-16.889-4.557-7.294-6.498-15.238-5.974-22.171.523-6.934 3.502-12.819 8.749-16.099 6.638-4.149 15.446-3.202 23.383 1.797ZM247.862 680.659c-.176-.159-.236-.302-.251-.395a.266.266 0 0 1 .044-.21c.05-.066.257-.223.682.03l.005.003c13.721 7.955 30.639 12.77 48.139 12.77 11.812 0 24.784-2.457 36.722-7.5h.001l.012-.006c.674-.306 1.215-.065 1.44.26a.706.706 0 0 1 .116.56c-.043.203-.187.463-.54.725-10.478 7.733-25.742 11.857-38.877 11.857-18.401 0-34.975-6.798-47.493-18.094Zm0 0-.351.389.351-.389Z"/><path fill="#8F8E93" stroke-width="1.048" d="M336.643 694.553c.643-1.59 1.689-4.2 2.405-6.63.358-1.214.639-2.405.743-3.414.052-.504.061-.98.005-1.4-.055-.415-.179-.817-.428-1.132-.246-.315-.604-.536-.993-.695a6.222 6.222 0 0 0-1.358-.355c-1.002-.161-2.222-.197-3.483-.167-2.527.061-5.31.394-7.029.603h-.002a.613.613 0 0 1-.282-.014.37.37 0 0 1 .048-.126 1.2 1.2 0 0 1 .346-.36c2.904-2.036 6.781-2.781 10.112-2.828 1.66-.024 3.162.126 4.309.364.574.12 1.049.259 1.405.404.372.151.551.283.612.356m-6.41 15.394-.001.001-.486-.197.487.195v.001Zm0 0a.613.613 0 0 0-.058.277m0 0-.02-.004a.056.056 0 0 1 .021.018c.002.003.003.004.002 0a.161.161 0 0 1-.003-.014Zm0 0a.352.352 0 0 0 .127-.016c.106-.028.254-.1.424-.245l.002-.002c2.721-2.286 4.466-5.849 5.384-9.055.457-1.597.703-3.084.765-4.248a7.75 7.75 0 0 0-.038-1.448c-.056-.392-.142-.588-.196-.657m0 0 .002.002.405-.332-.409.327.002.003Z"/><path fill="#8F8E93" stroke-width="2.097" d="m-35.029 729.276 9.96-8.846-9.96-8.845v17.691ZM.824 693.451c-1.77-1.77-5.09-3.981-10.623-3.981-5.975 0-12.172 1.548-16.598 3.096v-25.211h-8.853v38.259l6.197-2.875s10.18-4.644 19.033-4.644c4.426 0 5.533 2.432 5.533 4.644v26.537h8.852v-26.537c.222-.664.222-5.529-3.54-9.288Zm-11.73-11.721h8.853c3.984-4.644 5.976-9.288 6.64-14.375h-8.853c-.885 5.087-3.098 9.731-6.64 14.375Z"/><path stroke-width="3.145" d="M78.106 454.46a25.053 25.053 0 0 1 16.29-15.27 25.07 25.07 0 0 1 23.155 4.682l-.131 1.136-5.075 5.071h-.846a16.358 16.358 0 0 0-21.644 1.75 2.304 2.304 0 0 0-.406.277 3.843 3.843 0 0 0-.537.573l-10.806 1.781Z"/><path fill="#8F8E93" stroke-width="3.145" d="m125.84 456.613.153.564.483.326a17.649 17.649 0 0 1 .524 28.885 17.683 17.683 0 0 1-10.563 3.398H102.279l-.554-.553v-7.571l.56-.568h14.14a8.984 8.984 0 0 0 6.343-2.625 8.973 8.973 0 0 0 2.628-6.34 8.962 8.962 0 0 0-7.398-8.827v-.026a16.327 16.327 0 0 0-4.72-11.779l6.07-6.065a25.086 25.086 0 0 1 6.492 11.181Z"/><path stroke-width="3.145" d="M86.813 489.703h-.007a17.58 17.58 0 0 1-9.825-2.951l.153-.609 5.38-5.338 1.168-.362c1 .374 2.06.567 3.13.567h13.226v8.693H86.813Z"/><path fill="#8F8E93" stroke-width="3.145" d="M76.57 457.796a17.674 17.674 0 0 1 10.247-3.348 17.65 17.65 0 0 1 13.206 5.865l-6.165 6.16a8.983 8.983 0 0 0-9.709-2.998 8.98 8.98 0 0 0-5.891 5.888 8.962 8.962 0 0 0 2.998 9.703l-6.162 6.157a17.656 17.656 0 0 1-4.918-18.753 17.657 17.657 0 0 1 6.394-8.674Z"/></g><g opacity=".5"><path fill="url(#c)" d="M-52.582 85.678H38.9v5.517h-91.482v-5.517Z"/><path fill="url(#d)" d="M338.014 74.692v52.899h5.516v-52.9h-5.516Z"/><path fill="url(#e)" d="M261.26 72.636h40.474v-2.662H261.26v2.662Z"/><path fill="url(#f)" d="M-52.582 112.208H69.393v3.219H-52.582v-3.219Z"/><path fill="url(#g)" d="M332.25 140.567v-6.403h32.293v6.403H332.25Z"/><path fill="url(#h)" d="M364.543 74.692h3.22v65.875h-3.22V74.692Z"/><path fill="url(#i)" d="M42.193 103.644V79.967l33.872-47.96 1.639 1.117L43.83 79.967v23.677h-1.638Z"/><path fill="url(#j)" d="m76.065 32.006 1.639 1.118h8.766v-1.118H76.065Z"/><path fill="url(#k)" d="M43.831 85.678v17.966H65.43l14.332-17.966h-35.93Z"/><path fill="url(#l)" d="M141.342 55.929v17.965h21.598l14.332-17.965h-35.93Z"/><path fill="url(#m)" d="M139.703 73.894h1.639V38.63h-1.639v35.264Z"/><path fill="url(#n)" d="M-52.582 94.28H38.9v10.305h-91.482V94.281Z"/><path fill="url(#o)" d="M115.199 148.008h42.396v1.402h-42.396v-1.402Z"/><path fill="url(#p)" d="M115.199 144.423h42.396v1.998h-42.396v-1.998Z"/><path fill="url(#q)" d="M115.199 139.5h42.396v3.336h-42.396V139.5Z"/><path fill="url(#r)" d="M154.166 139.5h3.429v-21.651h-3.429V139.5Z"/><path fill="url(#s)" d="M346.616 74.692v52.899h10.304v-52.9h-10.304Z"/><path fill="url(#t)" d="M44.846 80.037H84.03l-3.659 4.574H44.846v-4.574Z"/><path fill="url(#u)" d="M101.26 140.507v33.695l-4.574-6.098v-27.597h4.574Z"/><path fill="url(#v)" fill-rule="evenodd" d="m75.631 38.718 2.3-3.355h9.606l-2.229 3.355h-9.677Zm-.523.763h9.694l-2.836 4.269h-9.785l2.927-4.27Zm-6.377 9.3 2.927-4.269h9.802l-2.836 4.27h-9.893Zm-3.45 5.031 2.927-4.269h9.91l-2.836 4.27H65.28Zm-3.45 5.032 2.927-4.27h10.017l-2.836 4.27H61.831Zm-3.45 5.031 2.927-4.269h10.125l-2.836 4.27H58.381Zm-3.45 5.031 2.927-4.269h10.233l-2.836 4.27H54.931Zm-3.45 5.032 2.927-4.27h10.34l-2.835 4.27H51.48Zm-.523.762h10.449l-2.23 3.355h-10.52l2.301-3.355Z" clip-rule="evenodd"/><path fill="url(#w)" fill-rule="evenodd" d="m73.525 58.844 2.927-4.27H86.47l-2.836 4.27H73.525Zm-3.45 5.031 2.927-4.269h10.126l-2.837 4.27H70.076Zm-3.45 5.031 2.927-4.269h10.233l-2.836 4.27H66.625Zm-3.45 5.032 2.927-4.27h10.341l-2.836 4.27H63.175Zm-.523.762h10.449l-2.229 3.355h-10.52l2.3-3.355Z" clip-rule="evenodd"/><path fill="url(#x)" d="m71.972 113.013 26.409 22.005H71.972v-22.005Z"/><path fill="url(#y)" d="m252.325 79.122 17.87 23.835h-17.87V79.122Z"/><path fill="url(#z)" d="m96.686 173.485 15.704 22.005H96.686v-22.005Z"/><path fill="url(#A)" d="m148.158 113.013-13.204 22.005h13.204v-22.005Z"/><path fill="url(#B)" fill-rule="evenodd" d="m184.127 162.962 14.255 11.466v7.001h18.906v8.233h-18.906v5.794h18.906v7.928h-19.516v-1.219h18.296v-5.489h-18.906v-8.234h18.906v-5.793h-18.906v-7.637l-13.799-11.099.764-.951Z" clip-rule="evenodd"/><path fill="url(#C)" d="M349.632 23.776h14.027v2.287h-14.027v-2.287Z"/><path fill="url(#D)" d="M349.632 27.892h14.027v2.288h-14.027v-2.288Z"/><path fill="url(#E)" d="M349.632 32.01h14.027v2.286h-14.027V32.01Z"/><path fill="url(#F)" d="M349.632 36.126h14.027v2.287h-14.027v-2.287Z"/><path fill="url(#G)" d="M349.632 40.242h14.027v2.288h-14.027v-2.288Z"/><path fill="url(#H)" d="M349.632 44.36h14.027v2.286h-14.027V44.36Z"/><path fill="url(#I)" d="M349.632 48.476h14.027v2.287h-14.027v-2.287Z"/><path fill="url(#J)" d="M349.632 52.593h14.027v2.287h-14.027v-2.288Z"/><path fill="url(#K)" d="M349.632 56.71h14.027v2.286h-14.027V56.71Z"/><path fill="url(#L)" d="M349.632 60.826h14.027v2.287h-14.027v-2.287Z"/><path fill="url(#M)" d="M94.487 30.502a2.44 2.44 0 1 1-4.879 0 2.44 2.44 0 0 1 4.88 0Z"/><path fill="url(#N)" d="M181.896 77.131a2.44 2.44 0 1 1-4.879 0 2.44 2.44 0 0 1 4.879 0Z"/><path fill="url(#O)" d="M154.257 110.228a2.439 2.439 0 1 1-4.878 0 2.439 2.439 0 0 1 4.878 0Z"/><path fill="url(#P)" d="M125.268 226.56a2.439 2.439 0 1 1-4.878 0 2.439 2.439 0 0 1 4.878 0Z"/><path fill="url(#Q)" d="M224.088 171.046a2.44 2.44 0 1 1-4.88-.002 2.44 2.44 0 0 1 4.88.002Z"/><path fill="url(#R)" d="M308.547 160.693a2.44 2.44 0 1 1-4.88 0 2.44 2.44 0 0 1 4.88 0Z"/><path fill="url(#S)" d="M304.856 20.109a2.44 2.44 0 1 1-4.88-.001 2.44 2.44 0 0 1 4.88 0Z"/><path fill="url(#T)" d="M119.455-5.201a2.44 2.44 0 1 1-4.879 0 2.44 2.44 0 0 1 4.879 0Z"/><path fill="url(#U)" d="M177.646 111.598h15.552l-6.099 9.148v27.75h-9.453v-36.898Z"/><path fill="url(#V)" fill-rule="evenodd" d="M237.756 94.565a.913.913 0 0 1 .155-.004l.157.01c.051.002.101.01.15.02l.157.037c.046.01.09.024.133.041l.158.063a.923.923 0 0 1 .109.052l.158.088c.03.017.059.035.087.056l.157.113a.868.868 0 0 1 .067.053l.158.137.051.048.157.16.039.042.157.181.03.036.157.201.023.03.157.22a.342.342 0 0 1 .017.024l.158.235.013.02.157.25.006.008.004.007.158.26.007.013.157.27.005.009.161.282.159.284.157.283v.001l.155.28.002.003.152.27.004.006.15.263.151.255.148.241.144.224.141.205.148.2a.914.914 0 0 1-1.47 1.089l-.158-.213-.019-.026-.157-.23a.42.42 0 0 1-.015-.022l-.157-.243-.007-.011-.004-.007-.158-.257-.008-.013-.157-.267-.006-.01-.161-.281-.158-.28-.002-.004-.157-.283-.001-.001-.156-.281-.001-.003-.153-.273-.003-.006-.152-.267-.151-.26-.149-.246-.146-.23-.142-.213-.138-.192-.132-.168-.123-.142-.113-.115-.099-.086-.081-.058-.059-.033-.036-.014-.015-.004h-.011l-.021.006-.042.02-.066.04-.087.065-.103.095-.116.123-.126.15-.134.175-.139.198-.144.218-.146.235-.15.25-.152.264-.153.27-.002.004-.155.278-.157.284-.16.287-.158.279-.004.008-.158.272-.006.011-.158.264-.008.015-.158.253-.012.019-.157.24-.016.023-.158.224-.02.029-.158.207a.401.401 0 0 1-.027.034l-.157.188a1.251 1.251 0 0 1-.035.04l-.158.167a.998.998 0 0 1-.046.046l-.158.145a.749.749 0 0 1-.061.051l-.157.122c-.026.02-.053.038-.08.055l-.158.096a.77.77 0 0 1-.102.055l-.157.071a1.175 1.175 0 0 1-.125.046l-.158.045a1.006 1.006 0 0 1-.145.029l-.157.018a.893.893 0 0 1-.155.005l-.157-.009a.856.856 0 0 1-.151-.02l-.157-.035a.938.938 0 0 1-.134-.041l-.157-.061a.933.933 0 0 1-.111-.052l-.157-.087a.728.728 0 0 1-.088-.056l-.158-.112a.678.678 0 0 1-.067-.053l-.158-.136a1.193 1.193 0 0 1-.051-.048l-.158-.159-.039-.043-.157-.18a.477.477 0 0 1-.03-.036l-.158-.2-.022-.031-.158-.218-.017-.025-.158-.234-.013-.021-.157-.248-.01-.016-.158-.26-.007-.013-.158-.27-.005-.008-.161-.283-.157-.281-.001-.003-.313-.563-.002-.003-.154-.274-.152-.267-.151-.255-.148-.242-.145-.225-.141-.206-.135-.183-.13-.16-.12-.133-.108-.106-.094-.076-.074-.05-.051-.026-.029-.01-.01-.001h-.004l-.01.002-.027.009-.051.025-.073.048-.092.076-.108.104-.12.132-.129.158-.136.183-.14.205-.145.224-.148.241-.15.255-.153.267-.153.273-.316.569-.161.287-.157.277-.005.008-.158.271-.007.012-.157.26a.372.372 0 0 0-.01.016l-.158.249-.013.021-.157.235-.018.024-.157.219a.237.237 0 0 1-.023.03l-.157.201c-.01.013-.019.025-.03.036l-.157.182a.5.5 0 0 1-.039.041l-.157.16a1.123 1.123 0 0 1-.051.048l-.158.138a1.176 1.176 0 0 1-.066.053l-.158.113a.98.98 0 0 1-.087.055l-.157.088a.926.926 0 0 1-.11.053l-.158.062a1.013 1.013 0 0 1-.132.042l-.158.036a.938.938 0 0 1-.149.021l-.158.01a.99.99 0 0 1-.154-.004l-.158-.017a1.044 1.044 0 0 1-.146-.028l-.157-.044a.95.95 0 0 1-.126-.046l-.158-.07a1.01 1.01 0 0 1-.103-.054l-.157-.095a1.15 1.15 0 0 1-.081-.055l-.157-.121a.764.764 0 0 1-.062-.051l-.158-.144a1.042 1.042 0 0 1-.047-.047l-.157-.166-.036-.04-.157-.187-.028-.034-.157-.207-.021-.028-.157-.224a.333.333 0 0 1-.016-.024l-.158-.239a.315.315 0 0 1-.012-.019l-.157-.252-.009-.015-.158-.264-.006-.011-.158-.272-.004-.008-.16-.283-.159-.285-.156-.282-.157-.28-.154-.273-.152-.263-.149-.251-.147-.237-.144-.219-.139-.198-.134-.176-.127-.151-.116-.124-.104-.096-.087-.067-.067-.041-.044-.02-.022-.006-.006-.001h-.004l-.084.019a.914.914 0 0 1-.397-1.786l.158-.035a.901.901 0 0 1 .15-.021l.157-.008a.92.92 0 0 1 .155.005l.157.018a.897.897 0 0 1 .145.029l.158.045a.864.864 0 0 1 .125.046l.158.071a.922.922 0 0 1 .102.054l.157.097a.914.914 0 0 1 .08.055l.157.121a.838.838 0 0 1 .062.052l.157.145c.016.014.032.03.047.046l.157.167a.774.774 0 0 1 .035.04l.158.188.027.034.157.207.021.028.157.225a.301.301 0 0 1 .016.023l.157.24.012.019.158.252.009.015.157.264.007.011.157.273.005.008.16.283.158.284.156.282.156.28.154.273.152.263.15.25.147.236.143.218.139.198.134.175.126.15.116.123.104.094.086.066.066.04.043.019.02.006.007.001.004-.001.016-.003.035-.014.06-.034.081-.058.098-.086.113-.115.124-.142.131-.168.138-.191.142-.213.146-.23.149-.247.151-.26.154-.27.154-.276.002-.002.316-.569.161-.287.157-.275.006-.01.157-.266.009-.014.157-.257.011-.017.158-.244a.237.237 0 0 1 .014-.022l.158-.229a.364.364 0 0 1 .019-.027l.157-.212a.535.535 0 0 1 .025-.032l.157-.194.033-.038.158-.174a.596.596 0 0 1 .043-.044l.157-.152.056-.05.158-.128a.901.901 0 0 1 .074-.054l.157-.104a.933.933 0 0 1 .096-.055l.157-.079a.863.863 0 0 1 .119-.049l.157-.053a.936.936 0 0 1 .14-.035l.158-.026a.91.91 0 0 1 .153-.012h.157c.052 0 .103.005.153.014l.158.027c.047.009.094.02.139.036l.157.054a.89.89 0 0 1 .118.05l.158.079a.942.942 0 0 1 .094.055l.157.105c.026.017.05.035.074.054l.157.13c.019.015.038.032.056.05l.157.152a.939.939 0 0 1 .043.044l.157.174a.75.75 0 0 1 .032.038l.158.195c.008.01.017.02.025.032l.157.213.019.026.157.23.015.022.157.244.011.018.157.257.008.013.158.267.006.01.161.282.159.284.314.564.001.003.155.276.153.27.151.259.149.246.146.23.142.211.137.19.132.168.123.141.112.113.098.085.08.057.059.032.035.014.014.003.004.001.007-.001.022-.006.043-.02.067-.041.088-.067.103-.096.117-.124.127-.151.133-.176.14-.199.143-.219.147-.236.15-.251.152-.264.153-.27.002-.005.155-.276.158-.285.16-.288.157-.278.005-.008.157-.272.007-.012.157-.263.009-.015.158-.253.012-.019.157-.239.016-.023.158-.224a.406.406 0 0 1 .02-.029l.158-.206a2.54 2.54 0 0 1 .027-.034l.158-.187a.778.778 0 0 1 .035-.04l.158-.167a.977.977 0 0 1 .047-.046l.157-.144.062-.052.158-.12c.026-.02.053-.038.08-.055l.158-.096a.853.853 0 0 1 .103-.054l.157-.07a.887.887 0 0 1 .127-.045l.157-.044a.929.929 0 0 1 .146-.028l.157-.017Z" clip-rule="evenodd"/><path fill="url(#W)" fill-rule="evenodd" d="M141.417 156.042c.032-.002.064-.003.096-.002l.158.006a.747.747 0 0 1 .094.009l.158.022c.03.004.06.01.089.017l.158.039c.027.007.055.015.081.024l.158.055c.024.008.048.018.072.028l.158.071a.708.708 0 0 1 .062.03l.157.085.053.031.157.099c.015.01.03.019.044.03l.158.112.036.027.158.125.029.024.158.136.024.021.157.146.019.018.157.154.015.015.158.162.011.011.157.168.008.008.163.177.159.177.312.347.003.004.151.167.15.162.146.154.144.144.138.134.135.121.144.12a.916.916 0 0 1-1.174 1.404l-.157-.132-.026-.022-.158-.143a.36.36 0 0 1-.021-.019l-.157-.151-.016-.016-.158-.159-.012-.013-.158-.165-.009-.01-.157-.17-.006-.007-.158-.173-.003-.004-.313-.349-.002-.003-.151-.166-.005-.006-.148-.162-.148-.157-.144-.148-.141-.138-.136-.126-.131-.112-.124-.099-.118-.084-.109-.068-.1-.054-.09-.041-.08-.027-.072-.018-.065-.009-.062-.003-.062.005-.067.011-.074.021-.083.031-.093.044-.103.058-.112.073-.119.088-.127.103-.132.117-.138.129-.141.141-.146.151-.149.159-.149.165-.005.004-.151.169-.002.002-.156.174-.163.181-.157.173-.007.007-.157.169-.011.011-.157.163a.093.093 0 0 1-.014.014l-.157.157-.018.017-.157.149-.022.02-.158.139-.027.024-.158.128a.436.436 0 0 1-.034.026l-.157.117-.041.029-.158.103-.049.031-.158.09-.059.031-.157.075c-.023.011-.046.02-.069.029l-.158.06a.792.792 0 0 1-.078.026l-.158.044a.91.91 0 0 1-.087.02l-.158.028c-.03.005-.062.009-.093.012l-.157.011c-.032.002-.064.003-.096.002l-.158-.005a1.014 1.014 0 0 1-.095-.008l-.157-.022a.95.95 0 0 1-.09-.017l-.157-.038a1.132 1.132 0 0 1-.083-.024l-.157-.054c-.025-.008-.049-.018-.073-.028l-.157-.07c-.021-.009-.042-.02-.063-.031l-.157-.084a.919.919 0 0 1-.053-.031l-.158-.098-.044-.03-.158-.112-.036-.027-.158-.124-.029-.025-.158-.135a.48.48 0 0 1-.024-.022l-.157-.145-.02-.018-.157-.154-.015-.015-.158-.161-.011-.012-.157-.167-.008-.009-.163-.177-.157-.174-.003-.003-.311-.347-.003-.004-.152-.167-.15-.162-.146-.154-.144-.145-.139-.134-.134-.122-.129-.108-.122-.093-.115-.079-.106-.064-.097-.049-.087-.036-.077-.024-.069-.015-.064-.007h-.061l-.064.007-.069.014-.077.024-.086.035-.096.049-.106.063-.115.078-.122.093-.128.107-.134.122-.139.133-.143.144-.147.154-.15.162-.152.169-.315.351-.163.18-.157.172-.008.008-.158.168-.011.011-.157.162-.015.015-.158.154a.332.332 0 0 1-.019.018l-.157.146-.024.021-.157.136-.03.024-.157.125a1.186 1.186 0 0 1-.037.027l-.157.112-.044.03-.158.099a.891.891 0 0 1-.052.031l-.158.085a.708.708 0 0 1-.062.03l-.158.071a.769.769 0 0 1-.072.028l-.157.055a1.106 1.106 0 0 1-.082.024l-.157.039a.95.95 0 0 1-.09.017l-.157.022a.763.763 0 0 1-.095.009l-.158.006a.77.77 0 0 1-.096-.002l-.157-.01a.755.755 0 0 1-.094-.012l-.157-.027a.86.86 0 0 1-.088-.019l-.157-.044a1.037 1.037 0 0 1-.079-.025l-.158-.06a.676.676 0 0 1-.069-.029l-.157-.075a.671.671 0 0 1-.06-.03l-.157-.09a.509.509 0 0 1-.05-.03l-.158-.103-.041-.029-.158-.116-.034-.027-.157-.128-.028-.023-.158-.139-.022-.02-.158-.149a.137.137 0 0 1-.017-.017l-.158-.156a.093.093 0 0 0-.014-.014l-.157-.164-.01-.01-.158-.169-.007-.008-.161-.177-.159-.177-.156-.174-.156-.173-.152-.167-.149-.159-.145-.152-.142-.141-.138-.13-.132-.117-.127-.104-.12-.088-.112-.074-.103-.059-.094-.045-.083-.031-.075-.021-.067-.012-.062-.005-.062.002-.11.016a.915.915 0 0 1-.25-1.813l.158-.022a.993.993 0 0 1 .094-.008l.158-.005c.032-.001.064 0 .096.002l.157.011c.032.003.063.007.094.012l.157.028c.03.005.059.012.087.02l.158.044a.81.81 0 0 1 .079.026l.157.06c.023.009.046.018.069.029l.157.075.059.031.158.09.05.031.157.103a.603.603 0 0 1 .041.029l.158.117a.769.769 0 0 1 .034.026l.157.128.028.024.157.139.022.02.158.149a.137.137 0 0 1 .017.017l.158.157.013.014.158.163.01.011.157.169.007.007.162.178.158.176.156.174.002.002.154.171.152.167.149.159.145.151.142.141.137.129.133.117.126.103.12.088.111.073.103.058.093.044.083.031.074.021.067.011.062.005.062-.003.065-.009.072-.018.08-.027.09-.041.1-.054.11-.068.117-.084.125-.099.13-.112.136-.126.141-.138.144-.148.148-.157.151-.165.153-.169.002-.003.317-.353.157-.173.006-.007.157-.17.01-.01.157-.165.013-.013.157-.159.016-.016.158-.151a.36.36 0 0 1 .021-.019l.157-.143.026-.022.157-.132.032-.025.158-.12.039-.029.157-.107a.615.615 0 0 1 .047-.03l.158-.094.056-.031.158-.08.066-.03.157-.064a.977.977 0 0 1 .076-.027l.157-.049a.885.885 0 0 1 .085-.022l.158-.032a.706.706 0 0 1 .092-.015l.157-.016c.032-.003.064-.005.096-.005l.157.001c.032 0 .064.001.096.005l.157.017a.927.927 0 0 1 .092.014l.157.034a.815.815 0 0 1 .085.022l.157.049a.692.692 0 0 1 .076.028l.157.065a.784.784 0 0 1 .066.03l.157.08.056.031.158.094.046.03.158.109a.946.946 0 0 1 .039.028l.157.12.032.026.157.132.026.022.157.143.021.019.157.151a.25.25 0 0 0 .017.016l.157.16.012.012.158.166.009.009.157.171.006.006.161.178.313.349.002.002.153.169.15.165.148.156.144.148.141.137.136.126.13.112.124.098.118.083.108.068.1.053.09.04.08.027.071.018.065.009.062.002.062-.005.067-.012.074-.021.084-.031.093-.045.104-.059.112-.074.12-.088.126-.104.133-.117.137-.13.142-.141.146-.152.149-.159.152-.167.154-.172.001-.001.157-.174.001-.002.161-.18.158-.172.007-.008.157-.169.011-.01.157-.164.014-.014.157-.156.018-.017.157-.149.023-.02.157-.139a.566.566 0 0 1 .028-.023l.158-.128a1.01 1.01 0 0 1 .034-.027l.157-.116.042-.029.157-.103c.017-.01.033-.021.05-.03l.158-.09a.654.654 0 0 1 .059-.03l.158-.075a.593.593 0 0 1 .069-.029l.158-.06c.026-.009.052-.018.079-.025l.157-.044a.86.86 0 0 1 .088-.019l.157-.027a.732.732 0 0 1 .094-.012l.157-.01Z" clip-rule="evenodd"/><path fill="url(#X)" fill-rule="evenodd" d="M167.217 161.221a.77.77 0 0 0 .096.002l.157-.006a.986.986 0 0 0 .095-.008l.157-.023a.893.893 0 0 0 .09-.017l.157-.039c.028-.007.055-.015.082-.024l.158-.055c.024-.008.048-.018.072-.028l.157-.07.063-.031.157-.085a.919.919 0 0 0 .053-.031l.157-.099a.427.427 0 0 0 .044-.03l.158-.112.036-.027.157-.125.03-.024.157-.136.024-.021.158-.146.019-.018.157-.154.015-.015.157-.162.012-.011.157-.168.008-.008.163-.177.159-.177.311-.347.004-.004.151-.167.15-.162.146-.154.143-.144.139-.133.134-.121.145-.121a.915.915 0 0 0-1.174-1.404l-.158.132-.026.023-.157.142-.021.019-.157.151-.017.016-.157.159-.013.013-.157.165-.009.01-.158.17-.006.007-.157.174-.003.003-.313.349-.003.003-.15.166-.005.006-.148.162-.148.157-.145.148-.14.138-.136.126-.131.112-.125.099-.117.084-.109.068-.1.054-.09.041-.081.028-.071.017-.065.009-.062.003-.063-.004-.066-.012-.074-.02-.084-.032-.093-.044-.102-.058-.112-.073-.12-.088-.126-.103-.132-.117-.138-.129-.142-.141-.145-.151-.149-.159-.15-.165-.004-.004-.152-.169-.001-.002-.156-.174-.163-.181-.157-.173-.007-.007-.158-.169-.01-.011-.157-.163-.014-.014-.157-.157-.018-.017-.157-.149-.022-.02-.158-.139a.697.697 0 0 0-.028-.024l-.157-.128-.034-.026-.157-.117-.042-.029-.157-.103a.838.838 0 0 0-.05-.031l-.157-.09a1.673 1.673 0 0 0-.059-.031l-.158-.075a.713.713 0 0 0-.069-.029l-.157-.06a.73.73 0 0 0-.079-.026l-.157-.044a.91.91 0 0 0-.087-.02l-.158-.028a.982.982 0 0 0-.093-.011l-.158-.012a1.025 1.025 0 0 0-.096-.002l-.157.005a.745.745 0 0 0-.095.009l-.157.021a.843.843 0 0 0-.09.017l-.158.038a1.268 1.268 0 0 0-.082.024l-.157.054a.924.924 0 0 0-.073.029l-.157.069a.923.923 0 0 0-.063.031l-.158.084-.053.031-.157.098-.044.03-.158.112-.036.027-.158.124-.03.025-.157.135a.48.48 0 0 0-.024.022l-.158.145-.019.018-.157.154-.015.015-.158.161-.011.012-.158.167-.008.009-.162.177-.158.174-.002.003-.311.347-.004.004-.151.167-.15.162-.147.155-.143.144-.139.134-.134.122-.129.108-.122.094-.115.078-.106.064-.097.049-.087.036-.077.024-.069.015-.064.007h-.062l-.063-.006-.069-.015-.077-.024-.086-.035-.097-.049-.105-.063-.115-.078-.122-.093-.128-.107-.135-.121-.138-.134-.144-.144-.146-.154-.15-.162-.153-.169-.315-.351-.162-.18-.158-.172-.008-.008-.157-.167-.011-.012-.158-.162-.014-.015-.158-.154-.019-.018-.157-.146-.024-.021-.158-.136a.74.74 0 0 0-.029-.024l-.158-.125-.036-.027-.157-.112-.044-.03-.158-.099a.919.919 0 0 0-.053-.031l-.157-.085a.708.708 0 0 0-.062-.03l-.158-.071c-.024-.01-.048-.02-.072-.028l-.158-.055a1.08 1.08 0 0 0-.081-.024l-.158-.039a.874.874 0 0 0-.089-.017l-.158-.022a.747.747 0 0 0-.094-.009l-.158-.006c-.032-.001-.064 0-.096.002l-.157.01a.965.965 0 0 0-.094.012l-.157.027a.86.86 0 0 0-.088.019l-.157.044c-.027.007-.053.016-.079.025l-.158.06c-.023.009-.046.018-.069.029l-.158.075a.663.663 0 0 0-.059.031l-.158.089c-.017.009-.033.02-.05.03l-.157.103-.042.029-.157.116a1.01 1.01 0 0 0-.034.027l-.158.128a.566.566 0 0 0-.028.023l-.157.139-.023.02-.157.149a.281.281 0 0 0-.018.017l-.157.156-.014.014-.157.164-.011.01-.157.169-.007.008-.162.177-.158.177-.157.174-.155.173-.152.167-.149.16-.146.151-.141.141-.138.13-.133.117-.126.104-.12.089-.112.073-.103.059-.094.045-.084.031-.074.021-.067.012-.062.005-.062-.002-.11-.016a.915.915 0 0 0-.25 1.813l.157.022c.032.004.063.007.095.008l.158.005c.032.001.064 0 .096-.002l.157-.011c.031-.003.063-.007.093-.012l.158-.028a.91.91 0 0 0 .087-.02l.158-.044a.792.792 0 0 0 .078-.026l.158-.06a.676.676 0 0 0 .069-.029l.157-.075.059-.031.158-.09.049-.03.158-.104.041-.029.157-.116.034-.027.158-.128.027-.024.158-.139.022-.02.157-.149.018-.017.157-.157.014-.013.158-.164.01-.011.157-.169.007-.007.161-.177.159-.177.156-.174.002-.002.154-.171.151-.166.149-.16.146-.151.141-.141.138-.129.132-.117.127-.103.119-.088.112-.073.103-.058.093-.044.083-.031.074-.021.067-.011.062-.005.062.003.065.009.072.018.08.028.09.04.1.054.109.068.118.084.124.099.131.112.136.126.141.138.144.148.148.157.151.165.153.169.002.003.316.353.158.173.006.007.157.17.009.01.158.165.012.013.158.159.016.016.158.151.02.02.158.142.026.022.157.132a.698.698 0 0 0 .032.025l.158.12c.012.01.025.02.039.029l.157.107a.466.466 0 0 0 .047.03l.158.094.056.031.157.08a.963.963 0 0 0 .066.03l.158.064c.025.01.05.019.076.027l.157.049a.815.815 0 0 0 .085.022l.158.033c.03.006.061.011.091.014l.158.016c.032.003.064.005.096.005l.157-.001a.772.772 0 0 0 .096-.005l.157-.017a.974.974 0 0 0 .092-.014l.157-.034a.815.815 0 0 0 .085-.022l.157-.049a.977.977 0 0 0 .076-.027l.157-.066a.963.963 0 0 0 .066-.03l.157-.08.056-.031.157-.094.047-.03.158-.108.038-.028.158-.121a.388.388 0 0 0 .031-.026l.158-.132a.507.507 0 0 0 .026-.022l.157-.143.021-.019.157-.151.016-.016.158-.159.012-.013.158-.166.008-.009.158-.171.006-.006.16-.177.313-.35.003-.002.152-.169.151-.164.148-.157.144-.148.141-.137.135-.126.131-.112.124-.098.117-.083.109-.068.1-.053.089-.04.08-.027.072-.018.065-.008.061-.002.063.004.067.012.074.021.084.031.093.045.103.059.112.074.12.088.127.104.133.117.137.13.142.141.146.152.149.159.152.167.154.172.001.001.156.174.002.002.161.18.158.172.007.008.157.169.01.01.158.164.014.014.157.156a.281.281 0 0 0 .018.017l.157.149.023.02.157.139a.311.311 0 0 0 .028.023l.157.128.035.027.157.116c.014.01.027.02.042.029l.157.103a.509.509 0 0 0 .05.03l.158.09.059.031.157.074a.607.607 0 0 0 .07.029l.157.06a1.2 1.2 0 0 0 .079.025l.158.044a.902.902 0 0 0 .087.019l.158.028a.982.982 0 0 0 .093.011l.158.01Z" clip-rule="evenodd"/><path fill="url(#Y)" d="M391.615 163.133v25.317h-46.472v-18.084h-30.982v-7.233h77.454Z"/><path fill="url(#Z)" d="M172.117 80.037v11.676h-21.432v-8.34h-14.288v-3.336h35.72Z"/><path fill="url(#aa)" d="M406.862-14.81V4.409h-46.473V-7.577H317.21v-7.233h89.652Z"/><path fill="url(#ab)" fill-rule="evenodd" d="M255.101 76.213v-6.239h-1.83v6.873l20.017 25.407 1.437-1.133-19.624-24.908Z" clip-rule="evenodd"/><path fill="url(#ac)" fill-rule="evenodd" d="M316.393 76.069v-6.552h1.83V77.6L295.208 81.7l-.321-1.801 21.506-3.83Z" clip-rule="evenodd"/><path fill="url(#ad)" d="M289.336-17.676h5.712V10.84h-5.712v-28.516Z"/><path fill="url(#ae)" d="M279.883-17.676h5.712V51.24h-5.712v-68.916Z"/><path fill="url(#af)" d="M298.707-11.272h3.272V10.84h-3.272v-22.112Z"/><path fill="url(#ag)" d="M252.966 110.478h13.417v19.416h-13.417v-19.416Z"/><path fill="url(#ah)" d="M259.954 110.478h6.429v75.83h-6.429v-75.83Z"/><path fill="url(#ai)" d="M210.58 110.478h49.095v1.829H210.58v-1.829Z"/><path fill="url(#aj)" d="M220.099 114.137h39.576v1.83h-39.576v-1.83Z"/><path fill="url(#ak)" d="M228.876 117.796h30.799v1.83h-30.799v-1.83Z"/><path fill="url(#al)" d="M224.864 204.196h1.638V176.86h-1.638v27.336Z"/><path fill="url(#am)" d="M226.502 186.231v17.965h6.351l10.673-17.966-17.024.001Z"/><path fill="url(#an)" d="m235.597 204.196 10.673-17.965h2.745l-10.673 17.965h-2.745Z"/><path fill="url(#ao)" d="m241.239 204.196 10.673-17.965h3.202l-10.673 17.965h-3.202Z"/><path fill="url(#ap)" fill-rule="evenodd" d="M277.666 178.075v-68.611h-1.829v70.44h25.004v-13.112h-1.829v11.283h-21.346Z" clip-rule="evenodd"/><path fill="url(#aq)" fill-rule="evenodd" d="M282.018 173.79v-60.667h-1.83v62.497h16.834v-8.06h-1.83v6.23h-13.174Z" clip-rule="evenodd"/><path fill="url(#ar)" fill-rule="evenodd" d="M171.548 107.939v40.57l-.915.901h-6.556l-.632-1.554 6.273-5.894v-34.023h1.83Z" clip-rule="evenodd"/><path fill="url(#as)" fill-rule="evenodd" d="m179.171 168.164 10.302 10.521v28.677l-.914.902h-6.557l-.631-1.555 6.273-5.894v-22.13l-10.303-10.521h1.83Z" clip-rule="evenodd"/><path fill="url(#at)" fill-rule="evenodd" d="M171.853 169.536h-53.212v-1.829h53.212v1.829Z" clip-rule="evenodd"/><path fill="url(#au)" fill-rule="evenodd" d="M171.853 171.335h-53.212v-.579h53.212v.579Z" clip-rule="evenodd"/></g><path stroke="#8F8E93" d="M-12 35.5h32.016M-12 236.5h32.016M-12 511.5h32.016"/><path fill="#000" d="M36.782 31a7.747 7.747 0 1 0-.07 15.493A7.747 7.747 0 0 0 36.781 31Z"/><path fill="#F0EFED" stroke="#000" stroke-width="1.291" d="M20.646 35.714a7.101 7.101 0 1 1 14.202.065 7.101 7.101 0 0 1-14.202-.065Z"/><path fill="#000" d="M36.782 232a7.747 7.747 0 1 0-.07 15.493 7.747 7.747 0 0 0 .07-15.493Z"/><path fill="#F0EFED" stroke="#000" stroke-width="1.291" d="M20.646 236.714a7.1 7.1 0 1 1 14.201.065 7.1 7.1 0 0 1-14.201-.065Z"/><path fill="#000" d="M36.782 507a7.747 7.747 0 1 0-.07 15.493 7.747 7.747 0 0 0 .07-15.493Z"/><path fill="#F0EFED" stroke="#000" stroke-width="1.291" d="M20.646 511.714a7.1 7.1 0 1 1 14.201.065 7.1 7.1 0 0 1-14.201-.065Z"/></g><defs><linearGradient id="b" x1="137.958" x2="58.762" y1="449.934" y2="-30.537" gradientUnits="userSpaceOnUse"><stop stop-color="#F1EFED"/><stop offset=".535" stop-color="#DDD" stop-opacity=".22"/><stop offset="1" stop-color="#F1EFED"/></linearGradient><linearGradient id="c" x1="273.702" x2="154.194" y1="336.947" y2="-140.084" gradientUnits="userSpaceOnUse"><stop offset=".121" stop-color="#F1EFED"/><stop offset=".488" stop-color="#DDD" stop-opacity=".22"/><stop offset=".898" stop-color="#F1EFED"/></linearGradient><linearGradient id="d" x1="273.702" x2="154.194" y1="336.947" y2="-140.084" gradientUnits="userSpaceOnUse"><stop offset=".121" stop-color="#F1EFED"/><stop offset=".488" stop-color="#DDD" stop-opacity=".22"/><stop offset=".898" stop-color="#F1EFED"/></linearGradient><linearGradient id="e" x1="273.702" x2="154.194" y1="336.947" y2="-140.084" gradientUnits="userSpaceOnUse"><stop offset=".121" stop-color="#F1EFED"/><stop offset=".488" stop-color="#DDD" stop-opacity=".22"/><stop offset=".898" stop-color="#F1EFED"/></linearGradient><linearGradient id="f" x1="273.702" x2="154.194" y1="336.947" y2="-140.084" gradientUnits="userSpaceOnUse"><stop offset=".121" stop-color="#F1EFED"/><stop offset=".488" stop-color="#DDD" stop-opacity=".22"/><stop offset=".898" stop-color="#F1EFED"/></linearGradient><linearGradient id="g" x1="273.702" x2="154.194" y1="336.947" y2="-140.084" gradientUnits="userSpaceOnUse"><stop offset=".121" stop-color="#F1EFED"/><stop offset=".488" stop-color="#DDD" stop-opacity=".22"/><stop offset=".898" stop-color="#F1EFED"/></linearGradient><linearGradient id="h" x1="273.702" x2="154.194" y1="336.947" y2="-140.084" gradientUnits="userSpaceOnUse"><stop offset=".121" stop-color="#F1EFED"/><stop offset=".488" stop-color="#DDD" stop-opacity=".22"/><stop offset=".898" stop-color="#F1EFED"/></linearGradient><linearGradient id="i" x1="273.702" x2="154.194" y1="336.947" y2="-140.084" gradientUnits="userSpaceOnUse"><stop offset=".121" stop-color="#F1EFED"/><stop offset=".488" stop-color="#DDD" stop-opacity=".22"/><stop offset=".898" stop-color="#F1EFED"/></linearGradient><linearGradient id="j" x1="273.702" x2="154.194" y1="336.947" y2="-140.084" gradientUnits="userSpaceOnUse"><stop offset=".121" stop-color="#F1EFED"/><stop offset=".488" stop-color="#DDD" stop-opacity=".22"/><stop offset=".898" stop-color="#F1EFED"/></linearGradient><linearGradient id="k" x1="273.702" x2="154.194" y1="336.947" y2="-140.084" gradientUnits="userSpaceOnUse"><stop offset=".121" stop-color="#F1EFED"/><stop offset=".488" stop-color="#DDD" stop-opacity=".22"/><stop offset=".898" stop-color="#F1EFED"/></linearGradient><linearGradient id="l" x1="273.702" x2="154.194" y1="336.947" y2="-140.084" gradientUnits="userSpaceOnUse"><stop offset=".121" stop-color="#F1EFED"/><stop offset=".488" stop-color="#DDD" stop-opacity=".22"/><stop offset=".898" stop-color="#F1EFED"/></linearGradient><linearGradient id="m" x1="273.702" x2="154.194" y1="336.947" y2="-140.084" gradientUnits="userSpaceOnUse"><stop offset=".121" stop-color="#F1EFED"/><stop offset=".488" stop-color="#DDD" stop-opacity=".22"/><stop offset=".898" stop-color="#F1EFED"/></linearGradient><linearGradient id="n" x1="273.702" x2="154.194" y1="336.947" y2="-140.084" gradientUnits="userSpaceOnUse"><stop offset=".121" stop-color="#F1EFED"/><stop offset=".488" stop-color="#DDD" stop-opacity=".22"/><stop offset=".898" stop-color="#F1EFED"/></linearGradient><linearGradient id="o" x1="273.702" x2="154.194" y1="336.947" y2="-140.084" gradientUnits="userSpaceOnUse"><stop offset=".121" stop-color="#F1EFED"/><stop offset=".488" stop-color="#DDD" stop-opacity=".22"/><stop offset=".898" stop-color="#F1EFED"/></linearGradient><linearGradient id="p" x1="273.702" x2="154.194" y1="336.947" y2="-140.084" gradientUnits="userSpaceOnUse"><stop offset=".121" stop-color="#F1EFED"/><stop offset=".488" stop-color="#DDD" stop-opacity=".22"/><stop offset=".898" stop-color="#F1EFED"/></linearGradient><linearGradient id="q" x1="273.702" x2="154.194" y1="336.947" y2="-140.084" gradientUnits="userSpaceOnUse"><stop offset=".121" stop-color="#F1EFED"/><stop offset=".488" stop-color="#DDD" stop-opacity=".22"/><stop offset=".898" stop-color="#F1EFED"/></linearGradient><linearGradient id="r" x1="273.702" x2="154.194" y1="336.947" y2="-140.084" gradientUnits="userSpaceOnUse"><stop offset=".121" stop-color="#F1EFED"/><stop offset=".488" stop-color="#DDD" stop-opacity=".22"/><stop offset=".898" stop-color="#F1EFED"/></linearGradient><linearGradient id="s" x1="273.702" x2="154.194" y1="336.947" y2="-140.084" gradientUnits="userSpaceOnUse"><stop offset=".121" stop-color="#F1EFED"/><stop offset=".488" stop-color="#DDD" stop-opacity=".22"/><stop offset=".898" stop-color="#F1EFED"/></linearGradient><linearGradient id="t" x1="273.702" x2="154.194" y1="336.947" y2="-140.084" gradientUnits="userSpaceOnUse"><stop offset=".121" stop-color="#F1EFED"/><stop offset=".488" stop-color="#DDD" stop-opacity=".22"/><stop offset=".898" stop-color="#F1EFED"/></linearGradient><linearGradient id="u" x1="273.702" x2="154.194" y1="336.947" y2="-140.084" gradientUnits="userSpaceOnUse"><stop offset=".121" stop-color="#F1EFED"/><stop offset=".488" stop-color="#DDD" stop-opacity=".22"/><stop offset=".898" stop-color="#F1EFED"/></linearGradient><linearGradient id="v" x1="273.702" x2="154.194" y1="336.947" y2="-140.084" gradientUnits="userSpaceOnUse"><stop offset=".121" stop-color="#F1EFED"/><stop offset=".488" stop-color="#DDD" stop-opacity=".22"/><stop offset=".898" stop-color="#F1EFED"/></linearGradient><linearGradient id="w" x1="273.702" x2="154.194" y1="336.947" y2="-140.084" gradientUnits="userSpaceOnUse"><stop offset=".121" stop-color="#F1EFED"/><stop offset=".488" stop-color="#DDD" stop-opacity=".22"/><stop offset=".898" stop-color="#F1EFED"/></linearGradient><linearGradient id="x" x1="273.702" x2="154.194" y1="336.947" y2="-140.084" gradientUnits="userSpaceOnUse"><stop offset=".121" stop-color="#F1EFED"/><stop offset=".488" stop-color="#DDD" stop-opacity=".22"/><stop offset=".898" stop-color="#F1EFED"/></linearGradient><linearGradient id="y" x1="273.702" x2="154.194" y1="336.947" y2="-140.084" gradientUnits="userSpaceOnUse"><stop offset=".121" stop-color="#F1EFED"/><stop offset=".488" stop-color="#DDD" stop-opacity=".22"/><stop offset=".898" stop-color="#F1EFED"/></linearGradient><linearGradient id="z" x1="273.702" x2="154.194" y1="336.947" y2="-140.084" gradientUnits="userSpaceOnUse"><stop offset=".121" stop-color="#F1EFED"/><stop offset=".488" stop-color="#DDD" stop-opacity=".22"/><stop offset=".898" stop-color="#F1EFED"/></linearGradient><linearGradient id="A" x1="273.702" x2="154.194" y1="336.947" y2="-140.084" gradientUnits="userSpaceOnUse"><stop offset=".121" stop-color="#F1EFED"/><stop offset=".488" stop-color="#DDD" stop-opacity=".22"/><stop offset=".898" stop-color="#F1EFED"/></linearGradient><linearGradient id="B" x1="273.702" x2="154.194" y1="336.947" y2="-140.084" gradientUnits="userSpaceOnUse"><stop offset=".121" stop-color="#F1EFED"/><stop offset=".488" stop-color="#DDD" stop-opacity=".22"/><stop offset=".898" stop-color="#F1EFED"/></linearGradient><linearGradient id="C" x1="273.702" x2="154.194" y1="336.947" y2="-140.084" gradientUnits="userSpaceOnUse"><stop offset=".121" stop-color="#F1EFED"/><stop offset=".488" stop-color="#DDD" stop-opacity=".22"/><stop offset=".898" stop-color="#F1EFED"/></linearGradient><linearGradient id="D" x1="273.702" x2="154.194" y1="336.947" y2="-140.084" gradientUnits="userSpaceOnUse"><stop offset=".121" stop-color="#F1EFED"/><stop offset=".488" stop-color="#DDD" stop-opacity=".22"/><stop offset=".898" stop-color="#F1EFED"/></linearGradient><linearGradient id="E" x1="273.702" x2="154.194" y1="336.947" y2="-140.084" gradientUnits="userSpaceOnUse"><stop offset=".121" stop-color="#F1EFED"/><stop offset=".488" stop-color="#DDD" stop-opacity=".22"/><stop offset=".898" stop-color="#F1EFED"/></linearGradient><linearGradient id="F" x1="273.702" x2="154.194" y1="336.947" y2="-140.084" gradientUnits="userSpaceOnUse"><stop offset=".121" stop-color="#F1EFED"/><stop offset=".488" stop-color="#DDD" stop-opacity=".22"/><stop offset=".898" stop-color="#F1EFED"/></linearGradient><linearGradient id="G" x1="273.702" x2="154.194" y1="336.947" y2="-140.084" gradientUnits="userSpaceOnUse"><stop offset=".121" stop-color="#F1EFED"/><stop offset=".488" stop-color="#DDD" stop-opacity=".22"/><stop offset=".898" stop-color="#F1EFED"/></linearGradient><linearGradient id="H" x1="273.702" x2="154.194" y1="336.947" y2="-140.084" gradientUnits="userSpaceOnUse"><stop offset=".121" stop-color="#F1EFED"/><stop offset=".488" stop-color="#DDD" stop-opacity=".22"/><stop offset=".898" stop-color="#F1EFED"/></linearGradient><linearGradient id="I" x1="273.702" x2="154.194" y1="336.947" y2="-140.084" gradientUnits="userSpaceOnUse"><stop offset=".121" stop-color="#F1EFED"/><stop offset=".488" stop-color="#DDD" stop-opacity=".22"/><stop offset=".898" stop-color="#F1EFED"/></linearGradient><linearGradient id="J" x1="273.702" x2="154.194" y1="336.947" y2="-140.084" gradientUnits="userSpaceOnUse"><stop offset=".121" stop-color="#F1EFED"/><stop offset=".488" stop-color="#DDD" stop-opacity=".22"/><stop offset=".898" stop-color="#F1EFED"/></linearGradient><linearGradient id="K" x1="273.702" x2="154.194" y1="336.947" y2="-140.084" gradientUnits="userSpaceOnUse"><stop offset=".121" stop-color="#F1EFED"/><stop offset=".488" stop-color="#DDD" stop-opacity=".22"/><stop offset=".898" stop-color="#F1EFED"/></linearGradient><linearGradient id="L" x1="273.702" x2="154.194" y1="336.947" y2="-140.084" gradientUnits="userSpaceOnUse"><stop offset=".121" stop-color="#F1EFED"/><stop offset=".488" stop-color="#DDD" stop-opacity=".22"/><stop offset=".898" stop-color="#F1EFED"/></linearGradient><linearGradient id="M" x1="273.702" x2="154.194" y1="336.947" y2="-140.084" gradientUnits="userSpaceOnUse"><stop offset=".121" stop-color="#F1EFED"/><stop offset=".488" stop-color="#DDD" stop-opacity=".22"/><stop offset=".898" stop-color="#F1EFED"/></linearGradient><linearGradient id="N" x1="273.702" x2="154.194" y1="336.947" y2="-140.084" gradientUnits="userSpaceOnUse"><stop offset=".121" stop-color="#F1EFED"/><stop offset=".488" stop-color="#DDD" stop-opacity=".22"/><stop offset=".898" stop-color="#F1EFED"/></linearGradient><linearGradient id="O" x1="273.702" x2="154.194" y1="336.947" y2="-140.084" gradientUnits="userSpaceOnUse"><stop offset=".121" stop-color="#F1EFED"/><stop offset=".488" stop-color="#DDD" stop-opacity=".22"/><stop offset=".898" stop-color="#F1EFED"/></linearGradient><linearGradient id="P" x1="273.702" x2="154.194" y1="336.947" y2="-140.084" gradientUnits="userSpaceOnUse"><stop offset=".121" stop-color="#F1EFED"/><stop offset=".488" stop-color="#DDD" stop-opacity=".22"/><stop offset=".898" stop-color="#F1EFED"/></linearGradient><linearGradient id="Q" x1="273.702" x2="154.194" y1="336.947" y2="-140.084" gradientUnits="userSpaceOnUse"><stop offset=".121" stop-color="#F1EFED"/><stop offset=".488" stop-color="#DDD" stop-opacity=".22"/><stop offset=".898" stop-color="#F1EFED"/></linearGradient><linearGradient id="R" x1="273.702" x2="154.194" y1="336.947" y2="-140.084" gradientUnits="userSpaceOnUse"><stop offset=".121" stop-color="#F1EFED"/><stop offset=".488" stop-color="#DDD" stop-opacity=".22"/><stop offset=".898" stop-color="#F1EFED"/></linearGradient><linearGradient id="S" x1="273.702" x2="154.194" y1="336.947" y2="-140.084" gradientUnits="userSpaceOnUse"><stop offset=".121" stop-color="#F1EFED"/><stop offset=".488" stop-color="#DDD" stop-opacity=".22"/><stop offset=".898" stop-color="#F1EFED"/></linearGradient><linearGradient id="T" x1="273.702" x2="154.194" y1="336.947" y2="-140.084" gradientUnits="userSpaceOnUse"><stop offset=".121" stop-color="#F1EFED"/><stop offset=".488" stop-color="#DDD" stop-opacity=".22"/><stop offset=".898" stop-color="#F1EFED"/></linearGradient><linearGradient id="U" x1="273.702" x2="154.194" y1="336.947" y2="-140.084" gradientUnits="userSpaceOnUse"><stop offset=".121" stop-color="#F1EFED"/><stop offset=".488" stop-color="#DDD" stop-opacity=".22"/><stop offset=".898" stop-color="#F1EFED"/></linearGradient><linearGradient id="V" x1="273.702" x2="154.194" y1="336.947" y2="-140.084" gradientUnits="userSpaceOnUse"><stop offset=".121" stop-color="#F1EFED"/><stop offset=".488" stop-color="#DDD" stop-opacity=".22"/><stop offset=".898" stop-color="#F1EFED"/></linearGradient><linearGradient id="W" x1="273.702" x2="154.194" y1="336.947" y2="-140.084" gradientUnits="userSpaceOnUse"><stop offset=".121" stop-color="#F1EFED"/><stop offset=".488" stop-color="#DDD" stop-opacity=".22"/><stop offset=".898" stop-color="#F1EFED"/></linearGradient><linearGradient id="X" x1="273.702" x2="154.194" y1="336.947" y2="-140.084" gradientUnits="userSpaceOnUse"><stop offset=".121" stop-color="#F1EFED"/><stop offset=".488" stop-color="#DDD" stop-opacity=".22"/><stop offset=".898" stop-color="#F1EFED"/></linearGradient><linearGradient id="Y" x1="273.702" x2="154.194" y1="336.947" y2="-140.084" gradientUnits="userSpaceOnUse"><stop offset=".121" stop-color="#F1EFED"/><stop offset=".488" stop-color="#DDD" stop-opacity=".22"/><stop offset=".898" stop-color="#F1EFED"/></linearGradient><linearGradient id="Z" x1="273.702" x2="154.194" y1="336.947" y2="-140.084" gradientUnits="userSpaceOnUse"><stop offset=".121" stop-color="#F1EFED"/><stop offset=".488" stop-color="#DDD" stop-opacity=".22"/><stop offset=".898" stop-color="#F1EFED"/></linearGradient><linearGradient id="aa" x1="273.702" x2="154.194" y1="336.947" y2="-140.084" gradientUnits="userSpaceOnUse"><stop offset=".121" stop-color="#F1EFED"/><stop offset=".488" stop-color="#DDD" stop-opacity=".22"/><stop offset=".898" stop-color="#F1EFED"/></linearGradient><linearGradient id="ab" x1="273.702" x2="154.194" y1="336.947" y2="-140.084" gradientUnits="userSpaceOnUse"><stop offset=".121" stop-color="#F1EFED"/><stop offset=".488" stop-color="#DDD" stop-opacity=".22"/><stop offset=".898" stop-color="#F1EFED"/></linearGradient><linearGradient id="ac" x1="273.702" x2="154.194" y1="336.947" y2="-140.084" gradientUnits="userSpaceOnUse"><stop offset=".121" stop-color="#F1EFED"/><stop offset=".488" stop-color="#DDD" stop-opacity=".22"/><stop offset=".898" stop-color="#F1EFED"/></linearGradient><linearGradient id="ad" x1="273.702" x2="154.194" y1="336.947" y2="-140.084" gradientUnits="userSpaceOnUse"><stop offset=".121" stop-color="#F1EFED"/><stop offset=".488" stop-color="#DDD" stop-opacity=".22"/><stop offset=".898" stop-color="#F1EFED"/></linearGradient><linearGradient id="ae" x1="273.702" x2="154.194" y1="336.947" y2="-140.084" gradientUnits="userSpaceOnUse"><stop offset=".121" stop-color="#F1EFED"/><stop offset=".488" stop-color="#DDD" stop-opacity=".22"/><stop offset=".898" stop-color="#F1EFED"/></linearGradient><linearGradient id="af" x1="273.702" x2="154.194" y1="336.947" y2="-140.084" gradientUnits="userSpaceOnUse"><stop offset=".121" stop-color="#F1EFED"/><stop offset=".488" stop-color="#DDD" stop-opacity=".22"/><stop offset=".898" stop-color="#F1EFED"/></linearGradient><linearGradient id="ag" x1="273.702" x2="154.194" y1="336.947" y2="-140.084" gradientUnits="userSpaceOnUse"><stop offset=".121" stop-color="#F1EFED"/><stop offset=".488" stop-color="#DDD" stop-opacity=".22"/><stop offset=".898" stop-color="#F1EFED"/></linearGradient><linearGradient id="ah" x1="273.702" x2="154.194" y1="336.947" y2="-140.084" gradientUnits="userSpaceOnUse"><stop offset=".121" stop-color="#F1EFED"/><stop offset=".488" stop-color="#DDD" stop-opacity=".22"/><stop offset=".898" stop-color="#F1EFED"/></linearGradient><linearGradient id="ai" x1="273.702" x2="154.194" y1="336.947" y2="-140.084" gradientUnits="userSpaceOnUse"><stop offset=".121" stop-color="#F1EFED"/><stop offset=".488" stop-color="#DDD" stop-opacity=".22"/><stop offset=".898" stop-color="#F1EFED"/></linearGradient><linearGradient id="aj" x1="273.702" x2="154.194" y1="336.947" y2="-140.084" gradientUnits="userSpaceOnUse"><stop offset=".121" stop-color="#F1EFED"/><stop offset=".488" stop-color="#DDD" stop-opacity=".22"/><stop offset=".898" stop-color="#F1EFED"/></linearGradient><linearGradient id="ak" x1="273.702" x2="154.194" y1="336.947" y2="-140.084" gradientUnits="userSpaceOnUse"><stop offset=".121" stop-color="#F1EFED"/><stop offset=".488" stop-color="#DDD" stop-opacity=".22"/><stop offset=".898" stop-color="#F1EFED"/></linearGradient><linearGradient id="al" x1="273.702" x2="154.194" y1="336.947" y2="-140.084" gradientUnits="userSpaceOnUse"><stop offset=".121" stop-color="#F1EFED"/><stop offset=".488" stop-color="#DDD" stop-opacity=".22"/><stop offset=".898" stop-color="#F1EFED"/></linearGradient><linearGradient id="am" x1="273.702" x2="154.194" y1="336.947" y2="-140.084" gradientUnits="userSpaceOnUse"><stop offset=".121" stop-color="#F1EFED"/><stop offset=".488" stop-color="#DDD" stop-opacity=".22"/><stop offset=".898" stop-color="#F1EFED"/></linearGradient><linearGradient id="an" x1="273.702" x2="154.194" y1="336.947" y2="-140.084" gradientUnits="userSpaceOnUse"><stop offset=".121" stop-color="#F1EFED"/><stop offset=".488" stop-color="#DDD" stop-opacity=".22"/><stop offset=".898" stop-color="#F1EFED"/></linearGradient><linearGradient id="ao" x1="273.702" x2="154.194" y1="336.947" y2="-140.084" gradientUnits="userSpaceOnUse"><stop offset=".121" stop-color="#F1EFED"/><stop offset=".488" stop-color="#DDD" stop-opacity=".22"/><stop offset=".898" stop-color="#F1EFED"/></linearGradient><linearGradient id="ap" x1="273.702" x2="154.194" y1="336.947" y2="-140.084" gradientUnits="userSpaceOnUse"><stop offset=".121" stop-color="#F1EFED"/><stop offset=".488" stop-color="#DDD" stop-opacity=".22"/><stop offset=".898" stop-color="#F1EFED"/></linearGradient><linearGradient id="aq" x1="273.702" x2="154.194" y1="336.947" y2="-140.084" gradientUnits="userSpaceOnUse"><stop offset=".121" stop-color="#F1EFED"/><stop offset=".488" stop-color="#DDD" stop-opacity=".22"/><stop offset=".898" stop-color="#F1EFED"/></linearGradient><linearGradient id="ar" x1="273.702" x2="154.194" y1="336.947" y2="-140.084" gradientUnits="userSpaceOnUse"><stop offset=".121" stop-color="#F1EFED"/><stop offset=".488" stop-color="#DDD" stop-opacity=".22"/><stop offset=".898" stop-color="#F1EFED"/></linearGradient><linearGradient id="as" x1="273.702" x2="154.194" y1="336.947" y2="-140.084" gradientUnits="userSpaceOnUse"><stop offset=".121" stop-color="#F1EFED"/><stop offset=".488" stop-color="#DDD" stop-opacity=".22"/><stop offset=".898" stop-color="#F1EFED"/></linearGradient><linearGradient id="at" x1="273.702" x2="154.194" y1="336.947" y2="-140.084" gradientUnits="userSpaceOnUse"><stop offset=".121" stop-color="#F1EFED"/><stop offset=".488" stop-color="#DDD" stop-opacity=".22"/><stop offset=".898" stop-color="#F1EFED"/></linearGradient><linearGradient id="au" x1="273.702" x2="154.194" y1="336.947" y2="-140.084" gradientUnits="userSpaceOnUse"><stop offset=".121" stop-color="#F1EFED"/><stop offset=".488" stop-color="#DDD" stop-opacity=".22"/><stop offset=".898" stop-color="#F1EFED"/></linearGradient><clipPath id="a"><path fill="#fff" d="M0 0h585v707H0z"/></clipPath></defs></svg>
