<svg xmlns="http://www.w3.org/2000/svg" width="194" height="78" fill="none" viewBox="0 0 194 78"><path fill="#000" d="M20.83 22.138a219.505 219.505 0 0 0 10.928 9.775.606.606 0 0 1 .11.86.641.641 0 0 1-.441.225.662.662 0 0 1-.474-.147c-3.735-3.21-7.331-6.575-10.808-10.036a.483.483 0 0 1-.147-.343.473.473 0 0 1 .492-.472c.127.002.25.051.34.138ZM42.155 41.096c3.99 2.918 8.086 5.671 12.32 8.168.11.05.21.123.292.216a.947.947 0 0 1 .123 1.055.892.892 0 0 1-.235.284.821.821 0 0 1-1.012.017 129.263 129.263 0 0 1-12.387-8.404.853.853 0 0 1-.11-1.09.78.78 0 0 1 .467-.323.75.75 0 0 1 .552.087l-.01-.01ZM67.172 55.057a134.714 134.714 0 0 0 13.196 5.079.957.957 0 0 1 .525.479c.11.224.135.484.068.727a.975.975 0 0 1-.453.546.903.903 0 0 1-.687.076 134.44 134.44 0 0 1-13.3-5.227.868.868 0 0 1-.278-.202.948.948 0 0 1-.174-.994.898.898 0 0 1 .46-.47.84.84 0 0 1 .643-.014ZM94.254 64.04l14.124 3.263c.216.07.397.215.507.405.11.19.141.414.087.625a.87.87 0 0 1-.377.518.947.947 0 0 1-.644.14l-14.222-3.2a.969.969 0 0 1-.586-.41.892.892 0 0 1-.123-.683.932.932 0 0 1 .43-.56 1.01 1.01 0 0 1 .716-.117h.049l.039.018ZM122.994 71.007l14.325 2.337a.788.788 0 0 1 .525.332.833.833 0 0 1 .144.617.841.841 0 0 1-.341.558.805.805 0 0 1-.628.132l-14.286-2.228a.858.858 0 0 1-.562-.346.908.908 0 0 1-.165-.653.904.904 0 0 1 .338-.576.853.853 0 0 1 .631-.173h.019ZM150.866 75l14.649 1.133c.139.01.268.065.358.153.09.088.134.201.123.316a.418.418 0 0 1-.185.295.61.61 0 0 1-.384.102l-14.727-.81a.808.808 0 0 1-.277-.04.705.705 0 0 1-.234-.129.545.545 0 0 1-.149-.196.457.457 0 0 1-.04-.23.484.484 0 0 1 .076-.222.6.6 0 0 1 .179-.178.748.748 0 0 1 .252-.103.822.822 0 0 1 .281-.01l.078-.081ZM179.319 77l14.601.794c.019 0 .038.01.052.029a.143.143 0 0 1 .026.074.143.143 0 0 1-.026.074.065.065 0 0 1-.052.029h-14.601a.219.219 0 0 1-.124-.033.332.332 0 0 1-.106-.105.547.547 0 0 1-.069-.16.689.689 0 0 1-.022-.187c0-.064.009-.127.025-.186a.54.54 0 0 1 .069-.157.363.363 0 0 1 .104-.106.231.231 0 0 1 .123-.037V77ZM.998 0a1245.28 1245.28 0 0 1 9.914 11.516.259.259 0 0 1 .086.197.271.271 0 0 1-.086.196.247.247 0 0 1-.187.091.247.247 0 0 1-.187-.09C7.328 7.945 4.148 3.976.998 0Z"/></svg>
