<svg xmlns="http://www.w3.org/2000/svg" width="119" height="50" fill="none" viewBox="0 0 119 50"><path fill="#000" d="M.998 50c3.743-3.006 7.554-5.944 11.335-8.912a.41.41 0 0 1 .65.219.423.423 0 0 1-.144.44C8.877 44.512 4.971 47.295.998 50ZM24.284 31.745l12.406-7.617a.851.851 0 0 1 1.182.288.877.877 0 0 1-.285 1.194h-.048l-12.492 7.287a.68.68 0 0 1-.965-.264.69.69 0 0 1 .202-.888ZM49.529 17.08a166.527 166.527 0 0 1 13.363-6.068c.218-.036.44.01.63.13.19.12.337.306.414.528.078.222.083.466.013.69a1.03 1.03 0 0 1-.393.547c-4.49 1.843-8.9 3.845-13.229 6.006a.9.9 0 0 1-.718.023.992.992 0 0 1-.532-.52 1.11 1.11 0 0 1-.02-.764c.083-.249.252-.453.472-.572ZM76.56 6.297c4.512-1.28 9.07-2.378 13.676-3.294a.684.684 0 0 1 .48.14c.138.105.233.259.268.432a.74.74 0 0 1-.08.507.704.704 0 0 1-.388.323 193.622 193.622 0 0 0-13.48 3.573.827.827 0 0 1-.617-.097.87.87 0 0 1-.385-.505.898.898 0 0 1 .053-.64.857.857 0 0 1 .463-.43l.01-.009ZM104.363.997c4.856-.52 9.713-.891 14.569-.997.014 0 .027.005.038.015.011.01.018.023.02.038a.07.07 0 0 1 .008.032.07.07 0 0 1-.008.032c-4.856.498-9.712 1.06-14.452 1.877a.426.426 0 0 1-.348-.091.53.53 0 0 1-.186-.333.544.544 0 0 1 .084-.376.462.462 0 0 1 .304-.197h-.029Z"/></svg>
