<svg xmlns="http://www.w3.org/2000/svg" width="270" height="208" fill="none" viewBox="0 0 270 208"><path fill="#000" d="M0 0h270v208H0V0Z"/><path fill="#F1EFED" d="M203.89 119.463c-9.417 34.708-47.674 55.832-85.451 47.176-37.761-8.653-60.749-43.809-51.327-78.516 9.413-34.712 47.67-55.838 85.435-47.184 37.774 8.653 60.76 43.813 51.343 78.524Z"/><path fill="#000" d="M135.498 39C96.57 39 65 68.008 65 103.781c0 7.15 1.261 14.027 3.59 20.462h21.085V69.737l45.825 42.108 45.823-42.108v54.505h21.085A59.927 59.927 0 0 0 206 103.78C205.999 68.007 174.429 39 135.498 39Z"/><path fill="#000" d="m124.898 121.966-19.999-18.378v34.297H75.194C87.57 156.541 109.92 169 135.434 169c25.513 0 47.866-12.459 60.241-31.115H165.97v-34.297l-19.999 18.377-10.536 9.681-10.536-9.681-.001.001ZM71 22h135v46H71z"/><ellipse cx="223.5" cy="65.5" fill="#000" rx="42.5" ry="38.5"/><ellipse cx="223" cy="103.5" fill="#000" rx="29" ry="29.5"/><ellipse cx="46.5" cy="71.5" fill="#000" rx="42.5" ry="38.5"/><ellipse cx="44" cy="106.5" fill="#000" rx="29" ry="29.5"/><path fill="#000" d="M71 138h159v40H71z"/></svg>
