<svg xmlns="http://www.w3.org/2000/svg" width="270" height="208" fill="none" viewBox="0 0 270 208"><path fill="#000" d="M0 0h270v208H0V0Z"/><path fill="#F1EFED" d="M114.03 103.667a6.432 6.432 0 0 0 1.612 4.642 6.407 6.407 0 0 0 4.413 2.142h.349a6.402 6.402 0 0 0 5.868-3.878 6.427 6.427 0 0 0-1.227-6.939 6.38 6.38 0 0 0-6.84-1.619 6.395 6.395 0 0 0-2.941 2.199 6.426 6.426 0 0 0-1.252 3.457l.018-.004Zm-23.85-1.624a2.06 2.06 0 0 0-1.975 1.168 2.078 2.078 0 0 0 .32 2.278 2.064 2.064 0 0 0 3.602-1.26 2.07 2.07 0 0 0-1.946-2.186Zm23.445-35.587a2.08 2.08 0 0 0 .681-3.128 2.067 2.067 0 0 0-3.679 1.026 2.08 2.08 0 0 0 .702 1.826 2.07 2.07 0 0 0 2.296.276Zm6.489 11.349a3.199 3.199 0 0 0 1.747-3.097 3.208 3.208 0 0 0-2.185-2.803 3.188 3.188 0 0 0-3.42.95 3.211 3.211 0 0 0 .334 4.517 3.18 3.18 0 0 0 2.322.767 3.19 3.19 0 0 0 1.202-.334Zm-21.838 7.802a2.626 2.626 0 0 0 3.886-1.214 2.646 2.646 0 0 0-.594-2.871 2.627 2.627 0 0 0-4.046.434 2.644 2.644 0 0 0 .754 3.651Zm3.89 15.267a3.19 3.19 0 0 0-3.057 1.807 3.207 3.207 0 0 0 2.076 4.491 3.192 3.192 0 0 0 3.351-1.172 3.205 3.205 0 0 0-2.37-5.126Zm-3.543 21.536a2.634 2.634 0 0 0-1.437 2.552 2.643 2.643 0 0 0 1.802 2.308 2.632 2.632 0 0 0 3.434-2.185 2.642 2.642 0 0 0-1.789-2.827 2.634 2.634 0 0 0-2.01.152Zm12.419-28.154a3.754 3.754 0 0 0 5.548-1.741 3.77 3.77 0 0 0-2.785-5.116 3.754 3.754 0 0 0-3.846 1.636 3.77 3.77 0 0 0 1.083 5.221Zm39.396-16.706a3.188 3.188 0 0 0 3.552-.038 3.206 3.206 0 0 0 1.324-3.305 3.207 3.207 0 0 0-2.538-2.492 3.19 3.19 0 0 0-3.268 1.397 3.215 3.215 0 0 0 .036 3.564c.238.348.541.645.894.875Zm6.553-11.307a2.065 2.065 0 0 0 3.053-.959 2.081 2.081 0 0 0-.47-2.257 2.067 2.067 0 0 0-3.474 1.905c.112.538.433 1.01.891 1.311Zm-6.05 31.32a6.378 6.378 0 0 0-4.624 1.615 6.416 6.416 0 0 0-2.13 4.42 6.42 6.42 0 0 0 1.611 4.636 6.388 6.388 0 0 0 4.409 2.135h.37a6.38 6.38 0 0 0 3.477-1.032 6.41 6.41 0 0 0 2.358-2.761 6.43 6.43 0 0 0-1.068-6.89 6.315 6.315 0 0 0-4.403-2.123Zm-28.726-3.747a6.382 6.382 0 0 0 2.357 2.58 6.359 6.359 0 0 0 3.36.948 6.388 6.388 0 0 0 5.453-3.056 6.422 6.422 0 0 0 .258-6.257 6.387 6.387 0 0 0-2.363-2.566 6.359 6.359 0 0 0-3.355-.938 6.383 6.383 0 0 0-3.113.817 6.428 6.428 0 0 0-2.597 8.472Zm50.15-8.216a2.633 2.633 0 0 0 1.439-2.551 2.64 2.64 0 0 0-1.799-2.31 2.626 2.626 0 0 0-2.818.782 2.642 2.642 0 0 0 1.168 4.228c.664.22 1.386.166 2.01-.149Zm-16.218 2.044a3.764 3.764 0 0 0-1.581 1.51 3.78 3.78 0 0 0 .308 4.177 3.76 3.76 0 0 0 3.968 1.314 3.774 3.774 0 0 0 .176-7.215 3.749 3.749 0 0 0-2.871.214Zm-20.892-22.372a2.624 2.624 0 0 0 2.52-1.488 2.643 2.643 0 0 0-1.712-3.7 2.626 2.626 0 0 0-2.761.968 2.642 2.642 0 0 0 .14 3.344 2.63 2.63 0 0 0 1.813.876Zm-.03 16.607a3.755 3.755 0 0 0 3.598-2.128 3.774 3.774 0 0 0-2.446-5.286 3.75 3.75 0 0 0-3.944 1.38 3.777 3.777 0 0 0 .198 4.78 3.762 3.762 0 0 0 2.594 1.254Zm-20.374 38.483a3.765 3.765 0 0 0 2.057-3.646 3.772 3.772 0 0 0-2.573-3.301 3.76 3.76 0 0 0-4.91 3.123 3.78 3.78 0 0 0 .376 2.156 3.757 3.757 0 0 0 5.05 1.668Zm22.805-32.984a6.422 6.422 0 0 0 .638 7.851 6.384 6.384 0 0 0 7.748 1.307 6.41 6.41 0 0 0 2.817-3.06 6.426 6.426 0 0 0-1.919-7.638 6.387 6.387 0 0 0-6.971-.588 6.41 6.41 0 0 0-2.313 2.128Zm11.12 26.818a6.407 6.407 0 0 0-2.243-2.501 6.383 6.383 0 0 0-6.468-.275 6.407 6.407 0 0 0-3.394 5.527 6.425 6.425 0 0 0 .811 3.263 6.399 6.399 0 0 0 5.584 3.285 6.45 6.45 0 0 0 2.879-.701 6.41 6.41 0 0 0 3.187-3.713 6.43 6.43 0 0 0-.356-4.885Zm11.177-.454a3.754 3.754 0 0 0-5.549 1.737 3.78 3.78 0 0 0 .848 4.102 3.752 3.752 0 0 0 4.105.784 3.767 3.767 0 0 0 2.212-4.236 3.78 3.78 0 0 0-1.616-2.387Zm12.245-9.629a3.202 3.202 0 0 0-3.634-3.352 3.187 3.187 0 0 0-1.682.782 3.21 3.21 0 0 0 .203 4.946c.504.381 1.11.604 1.74.641a3.193 3.193 0 0 0 2.309-.809 3.21 3.21 0 0 0 1.064-2.208Zm8.852-2.283a2.058 2.058 0 0 0-1.167.282 2.077 2.077 0 0 0 .529 3.796 2.063 2.063 0 0 0 2.171-.758c.246-.328.39-.721.414-1.131a2.085 2.085 0 0 0-.522-1.498 2.07 2.07 0 0 0-1.425-.691Zm-8.336 20.57a2.63 2.63 0 0 0-2.923.026 2.641 2.641 0 0 0 .99 4.773 2.626 2.626 0 0 0 2.692-1.145c.189-.29.32-.614.385-.955a2.636 2.636 0 0 0-1.144-2.699Zm-58.713 19.363a2.06 2.06 0 0 0-2.299.019 2.074 2.074 0 0 0 1.971 3.625 2.074 2.074 0 0 0 .904-3.077 2.073 2.073 0 0 0-.576-.567Zm43.365-.22a2.08 2.08 0 0 0-.699 3.13 2.065 2.065 0 0 0 3.197.076 2.082 2.082 0 0 0-.217-2.926 2.067 2.067 0 0 0-1.504-.497 2.066 2.066 0 0 0-.777.217Zm-24.028-20.927a6.427 6.427 0 0 0-.639-7.852 6.382 6.382 0 0 0-7.749-1.305 6.408 6.408 0 0 0-2.816 3.061 6.428 6.428 0 0 0-.347 4.15 6.41 6.41 0 0 0 2.269 3.488 6.384 6.384 0 0 0 3.927 1.355 6.347 6.347 0 0 0 3.045-.765 6.388 6.388 0 0 0 2.31-2.132Zm-12.784 9.837a3.189 3.189 0 0 0-4.711 1.482 3.201 3.201 0 0 0 2.367 4.344 3.197 3.197 0 0 0 3.721-3.8 3.204 3.204 0 0 0-1.377-2.026Zm14.912 12.275a2.632 2.632 0 0 0-2.755 3 2.637 2.637 0 0 0 1.946 2.188 2.621 2.621 0 0 0 2.76-.965 2.642 2.642 0 0 0-.956-3.965 2.614 2.614 0 0 0-.995-.258Zm.031-16.6a3.762 3.762 0 0 0-3.953 4.279 3.772 3.772 0 0 0 2.778 3.133 3.753 3.753 0 0 0 3.949-1.378 3.778 3.778 0 0 0-.191-4.777 3.756 3.756 0 0 0-2.583-1.257Zm15.379 4.068a3.215 3.215 0 0 0-1.066 4.842 3.194 3.194 0 0 0 5.688-1.608 3.22 3.22 0 0 0-1.098-2.815 3.187 3.187 0 0 0-2.325-.759 3.182 3.182 0 0 0-1.199.34Z"/></svg>
