<svg xmlns="http://www.w3.org/2000/svg" width="270" height="208" fill="none" viewBox="0 0 270 208"><path fill="#000" d="M0 0h270v208H0V0Z"/><path fill="#F1EFED" d="M104.114 126.125c.569-.655 1.34-1.023 2.145-1.023h74.221c1.352 0 2.029 1.884 1.072 2.985l-14.666 16.889c-.569.656-1.34 1.024-2.145 1.024h-74.22c-1.353 0-2.03-1.884-1.073-2.986l14.666-16.889Zm0-63.102c.569-.655 1.34-1.023 2.145-1.023h74.221c1.352 0 2.029 1.884 1.072 2.986l-14.666 16.889c-.569.655-1.34 1.023-2.145 1.023h-74.22c-1.353 0-2.03-1.884-1.073-2.986l14.666-16.889Zm62.772 31.346c-.569-.655-1.34-1.023-2.145-1.023h-74.22c-1.353 0-2.03 1.884-1.073 2.985l14.666 16.89c.569.655 1.34 1.023 2.145 1.023h74.221c1.352 0 2.029-1.885 1.072-2.986l-14.666-16.889Z"/></svg>
