<svg xmlns="http://www.w3.org/2000/svg" width="270" height="208" fill="none" viewBox="0 0 270 208"><path fill="#000" d="M0 0h270v208H0V0Z"/><path fill="#000" d="M243.678 129.159c-14.827 55.714-75.062 89.621-134.54 75.727-59.454-13.89-95.647-70.322-80.813-126.033 14.82-55.721 75.054-89.631 134.515-75.74 59.475 13.89 95.665 70.328 80.838 126.046Z"/><path fill="#F1EFED" d="m116.576 96.023 19.42-19.42 19.43 19.43 11.299-11.3L135.996 54l-30.719 30.722 11.299 11.301Zm-7.977 7.978-11.3-11.3L86 104.002l11.3 11.3 11.3-11.301Zm7.976 7.976 19.42 19.42 19.429-19.43 11.306 11.295-.006.006L135.995 154l-30.72-30.722-.016-.016 11.316-11.285Zm58.125 3.325 11.3-11.301-11.3-11.3-11.3 11.301 11.3 11.3Z"/><path fill="#F1EFED" d="M147.458 104.001h.005l-11.466-11.468-8.474 8.475h-.001l-.973.974-2.008 2.008-.016.016.016.017 11.456 11.457 11.466-11.467.005-.007-.01-.005Z"/></svg>
