<svg xmlns="http://www.w3.org/2000/svg" width="270" height="208" fill="none" viewBox="0 0 270 208"><path fill="#000" d="M0 0h270v208H0V0Z"/><path fill="#F1EFED" d="M177.778 94.202c1.768-10.508-7.233-16.156-19.541-19.925l3.992-14.233-9.748-2.16-3.887 13.859a451.905 451.905 0 0 0-7.81-1.634l3.915-13.95L134.956 54l-3.996 14.229c-2.121-.43-4.203-.854-6.225-1.3l.012-.045-13.444-2.983-2.594 9.254s7.233 1.473 7.081 1.564c3.948.876 4.661 3.198 4.542 5.04l-4.548 16.215c.272.061.625.15 1.013.288-.324-.071-.671-.15-1.03-.227l-6.375 22.716c-.483 1.066-1.707 2.665-4.467 2.058.097.126-7.085-1.572-7.085-1.572L93 129.155l12.686 2.811c2.36.525 4.673 1.076 6.949 1.594l-4.034 14.397 9.737 2.159 3.996-14.244c2.66.642 5.242 1.234 7.768 1.792l-3.981 14.177 9.748 2.159 4.035-14.37c16.622 2.796 29.122 1.669 34.384-11.694 4.24-10.76-.211-16.966-8.957-21.013 6.369-1.305 11.167-5.029 12.447-12.721Zm-22.273 27.759c-3.013 10.76-23.395 4.943-30.003 3.485l5.353-19.073c6.608 1.466 27.798 4.368 24.65 15.588Zm3.015-27.915c-2.749 9.787-19.713 4.815-25.216 3.596l4.853-17.299c5.503 1.22 23.226 3.494 20.363 13.703Z"/></svg>
