<svg xmlns="http://www.w3.org/2000/svg" width="636" height="703" fill="none" viewBox="0 0 636 703"><path fill="#000" d="M63.336 368.074a127.102 127.102 0 0 1 7.369 11.902c.008.006 0 .036-.014.039-.005.009-.036.001-.039-.013a129.217 129.217 0 0 0-7.316-11.928Zm13.49 24.488a178.645 178.645 0 0 1 5.02 13.077c.017.047-.008.102-.049.111-.047.017-.103-.008-.111-.049a182.32 182.32 0 0 0-4.957-13.083c-.014-.033.003-.058.027-.077.034-.014.059.002.078.027l-.008-.006Zm9.143 26.461 3.476 13.571c.023.074-.032.158-.115.175a.145.145 0 0 1-.176-.115l-3.412-13.576s.015-.134.084-.148c.061-.02.128.024.148.085l-.005.008Zm6.536 27.227 2.903 13.696a.205.205 0 1 1-.401.084l-2.834-13.711a.175.175 0 0 1 .137-.209c.097-.02.189.04.21.137l-.015.003Zm5.875 27.382 3.279 13.597a.268.268 0 0 1-.2.323.267.267 0 0 1-.323-.2l-3.23-13.636c-.026-.124.048-.255.18-.275.134-.021.256.048.277.181l.017.01Zm7.118 27.051a202.05 202.05 0 0 0 4.638 13.185.323.323 0 1 1-.6.24 196.288 196.288 0 0 1-4.6-13.243c-.054-.155.042-.319.197-.373a.289.289 0 0 1 .365.191Zm10.321 25.944 3.313 6.144c.52 1.047 1.174 2.002 1.802 2.976l1.886 2.924.025.016c.104.188.053.43-.126.539a.385.385 0 0 1-.531-.121l-1.894-2.965c-.632-.988-1.296-1.962-1.812-3.018l-3.307-6.188a.357.357 0 0 1 .146-.478.358.358 0 0 1 .478.146l.017.011.003.014Zm16.326 22.332a62.463 62.463 0 0 0 11.395 7.917.446.446 0 0 1 .182.598.447.447 0 0 1-.598.182 63.578 63.578 0 0 1-11.52-8.072.41.41 0 0 1-.035-.585.41.41 0 0 1 .585-.035l-.009-.005Zm24.208 13.232a72.142 72.142 0 0 0 13.627 2.673.509.509 0 0 1 .453.548.51.51 0 0 1-.548.454 72.272 72.272 0 0 1-13.797-2.76.483.483 0 0 1-.318-.591.482.482 0 0 1 .591-.318l-.008-.006Zm27.51 2.731a74.005 74.005 0 0 0 13.649-2.54.536.536 0 0 1 .66.362.536.536 0 0 1-.361.66 74.875 74.875 0 0 1-13.843 2.543.515.515 0 0 1-.561-.476.522.522 0 0 1 .467-.566l-.011.017Zm26.541-7.643A66.386 66.386 0 0 0 222 549.685a.564.564 0 0 1 .796.08c.202.24.16.595-.08.796a68.062 68.062 0 0 1-11.814 7.691.556.556 0 0 1-.742-.236.554.554 0 0 1 .236-.743l.008.006Zm21.37-17.425a65.447 65.447 0 0 0 7.471-11.663.604.604 0 0 1 1.08.541 67.13 67.13 0 0 1-7.633 11.856.578.578 0 0 1-.821.084.578.578 0 0 1-.083-.821l-.014.003Zm12.438-24.597c1.254-4.464 2.11-9.033 2.634-13.641a.633.633 0 0 1 1.257.144c-.539 4.669-1.426 9.302-2.71 13.829a.614.614 0 1 1-1.181-.332Zm3.279-27.532c-.076-4.642-.432-9.277-.993-13.891a.667.667 0 1 1 1.324-.159c.562 4.65.907 9.337.972 14.032a.653.653 0 0 1-.635.66.654.654 0 0 1-.66-.636l-.008-.006Zm-3.327-27.634a183.549 183.549 0 0 0-3.451-13.518.708.708 0 0 1 .476-.871.708.708 0 0 1 .872.476c1.317 4.5 2.463 9.043 3.438 13.629a.684.684 0 0 1-.532.811.684.684 0 0 1-.812-.532l.009.005Zm129.232-41.652 5.26 12.911.026.052a.949.949 0 1 1-1.759.712l-5.297-13.018a.936.936 0 0 1 .518-1.227.936.936 0 0 1 1.227.518l.025.052Zm11.342 25.442a181.29 181.29 0 0 0 6.987 12.047.963.963 0 0 1-.295 1.325.963.963 0 0 1-1.325-.295 189.251 189.251 0 0 1-7.044-12.179.965.965 0 0 1 .396-1.296.962.962 0 0 1 1.295.396l-.014.002Zm14.879 23.515c1.418 1.851 2.79 3.696 4.312 5.424a85.352 85.352 0 0 0 4.75 5.029.971.971 0 0 1 .018 1.376.97.97 0 0 1-1.375.018 90.054 90.054 0 0 1-4.854-5.145c-1.56-1.777-2.981-3.678-4.392-5.537a.966.966 0 0 1 .181-1.352.966.966 0 0 1 1.352.182l.017.011-.009-.006Zm19.609 19.464a112.656 112.656 0 0 0 11.586 7.625.983.983 0 0 1 .365 1.339.983.983 0 0 1-1.34.365 114.485 114.485 0 0 1-11.776-7.772.97.97 0 0 1-.19-1.369.969.969 0 0 1 1.368-.191l-.013.003Zm24.045 13.679c4.284 1.71 8.707 3.081 13.218 3.971.542.104.89.631.777 1.167a.982.982 0 0 1-1.167.777c-4.656-.925-9.181-2.339-13.56-4.087a.998.998 0 0 1-.556-1.286 1 1 0 0 1 1.286-.556l.002.014Zm26.873 4.959c4.552-.302 9.043-1.351 13.17-3.248a.99.99 0 0 1 1.321.484.993.993 0 0 1-.484 1.321c-4.362 2.018-9.107 3.127-13.867 3.437a1.003 1.003 0 0 1-1.067-.927 1.003 1.003 0 0 1 .927-1.067Zm24.13-11.203c.745-.863 1.521-1.681 2.249-2.591.731-.895 1.454-1.797 2.166-2.717a124.807 124.807 0 0 0 4.091-5.616.984.984 0 1 1 1.619 1.122 126.826 126.826 0 0 1-4.145 5.7c-.717.929-1.443 1.852-2.193 2.759-.728.91-1.562 1.798-2.343 2.697a.991.991 0 0 1-1.395.102.992.992 0 0 1-.102-1.395l.044-.066.009.005Zm15.81-22.75a142.08 142.08 0 0 0 6.109-12.485.98.98 0 0 1 1.28-.511.98.98 0 0 1 .512 1.28 142.937 142.937 0 0 1-6.188 12.66.976.976 0 0 1-1.329.384.976.976 0 0 1-.384-1.328Zm10.915-25.517c1.362-4.428 2.472-8.927 3.267-13.476a.954.954 0 0 1 1.109-.779.954.954 0 0 1 .78 1.109c-.806 4.638-1.934 9.22-3.31 13.723a.973.973 0 0 1-1.21.642.972.972 0 0 1-.641-1.21l.005-.009Zm4.618-27.26c.074-4.616-.262-9.226-1.095-13.755a.947.947 0 1 1 1.864-.343c.867 4.658 1.21 9.404 1.137 14.128a.955.955 0 0 1-.975.939.955.955 0 0 1-.939-.975l.008.006Zm-5.174-26.878a182.122 182.122 0 0 0-5.979-12.581.946.946 0 0 1 .393-1.273.938.938 0 0 1 1.273.392 188.787 188.787 0 0 1 6.054 12.703.939.939 0 0 1-.492 1.243.94.94 0 0 1-1.244-.493l-.005.009Zm-12.954-24.611c-2.5-3.9-5.194-7.688-8.102-11.295a.926.926 0 0 1 .14-1.307.926.926 0 0 1 1.307.14c2.956 3.661 5.689 7.499 8.229 11.449a.93.93 0 0 1-1.568 1.005l-.006.008Zm-17.511-21.471c-3.377-3.148-7.007-6.019-10.922-8.456a.919.919 0 0 1-.292-1.268.918.918 0 0 1 1.268-.293c4.024 2.508 7.749 5.454 11.203 8.665.369.35.395.929.049 1.312a.924.924 0 0 1-1.312.048l.006-.008Zm-23.365-14.267-3.321-.863c-.556-.137-1.109-.297-1.662-.42l-1.7-.326a67.028 67.028 0 0 0-6.848-.845.912.912 0 0 1-.851-.964.914.914 0 0 1 .965-.851 66.03 66.03 0 0 1 7.04.863l1.744.331c.575.126 1.15.289 1.723.437l3.457.892c.489.13.778.619.657 1.113a.907.907 0 0 1-1.113.657l-.091-.024Zm-27.264-1.701a47.488 47.488 0 0 0-12.972 4.406.899.899 0 0 1-1.207-.384.9.9 0 0 1 .385-1.207c4.228-2.178 8.784-3.71 13.449-4.585a.899.899 0 0 1 .337 1.764l.008.006Zm-24.124 12.343c-3.33 3.162-6.229 6.761-8.686 10.651a.89.89 0 0 1-1.221.276.891.891 0 0 1-.275-1.221c2.527-3.999 5.515-7.732 8.96-10.998a.88.88 0 0 1 1.257.036.884.884 0 0 1-.035 1.256Zm-14.8 23.021-1.118 3.273c-.386 1.098-.738 2.182-1.013 3.294a38.39 38.39 0 0 0-1.112 6.745.867.867 0 0 1-.937.809.865.865 0 0 1-.808-.937c.168-2.39.566-4.747 1.162-7.059.285-1.165.651-2.288 1.04-3.409l1.145-3.35a.878.878 0 1 1 1.663.564l-.019.048-.003.022Zm-1.476 26.754c1.488 4.313 3.828 8.312 6.664 11.919a.852.852 0 0 1-.146 1.207.854.854 0 0 1-1.208-.146c-2.939-3.723-5.386-7.887-6.948-12.416a.874.874 0 0 1 .535-1.108.874.874 0 0 1 1.108.536l-.005.008Zm16.431 21.64c3.586 2.903 7.443 5.481 11.446 7.82a.867.867 0 0 1 .309 1.171.865.865 0 0 1-1.171.308c-4.067-2.369-7.992-4.991-11.664-7.962a.86.86 0 0 1 1.08-1.337Zm23.837 14.11a151.21 151.21 0 0 0 12.99 4.994c.442.146.67.619.529 1.052a.827.827 0 0 1-1.053.53 146.466 146.466 0 0 1-13.148-5.026.834.834 0 0 1-.432-1.109c.194-.423.686-.626 1.109-.432l.005-.009Zm26.395 8.75c2.259.513 4.542.971 6.825 1.356 1.144.188 2.288.377 3.44.498l3.448.396h.036a.804.804 0 0 1 .705.894.794.794 0 0 1-.879.702l-3.512-.39c-1.174-.124-2.332-.31-3.498-.501a128.24 128.24 0 0 1-6.919-1.357.82.82 0 0 1-.615-.978.818.818 0 0 1 .978-.614l-.009-.006Zm27.557 2.366c4.607-.35 9.189-1.1 13.676-2.234a.77.77 0 0 1 .931.55.761.761 0 0 1-.551.931 81.094 81.094 0 0 1-13.928 2.308.79.79 0 0 1-.843-.72.781.781 0 0 1 .72-.843l-.005.008Zm26.762-6.775a89.242 89.242 0 0 0 12.196-6.614.728.728 0 0 1 1.014.222.742.742 0 0 1-.214 1.02 89.043 89.043 0 0 1-12.384 6.754.757.757 0 0 1-.996-.378.757.757 0 0 1 .378-.996l.006-.008Zm23.298-14.971c3.509-3.033 6.81-6.297 9.93-9.74a.7.7 0 0 1 .987-.046.715.715 0 0 1 .054.992 115.391 115.391 0 0 1-10.022 9.882.73.73 0 0 1-1.019-.07.724.724 0 0 1 .065-1.01l.005-.008Zm18.667-20.561a143.586 143.586 0 0 0 7.59-11.68.663.663 0 0 1 .911-.24c.321.186.426.59.24.911a143.771 143.771 0 0 1-7.628 11.811.683.683 0 0 1-.951.154.682.682 0 0 1-.154-.95l-.008-.006Zm13.231-24.309a54.326 54.326 0 0 0 2.421-13.589.635.635 0 0 1 1.268.055 56.255 56.255 0 0 1-2.441 13.911.654.654 0 0 1-.812.435.659.659 0 0 1-.436-.812Zm1.428-27.371c-.858-4.545-2.208-8.995-3.918-13.298a.606.606 0 0 1 .335-.785.606.606 0 0 1 .785.336c1.743 4.361 3.13 8.882 4.019 13.508a.616.616 0 0 1-1.208.236l-.013.003Zm-10.027-25.789a125.81 125.81 0 0 0-7.666-11.631.58.58 0 0 1 .116-.797.58.58 0 0 1 .797.116c2.79 3.768 5.398 7.668 7.764 11.719a.572.572 0 0 1-.211.795.571.571 0 0 1-.794-.21l-.006.008Zm-16.864-22.022c-3.407-3.156-7.062-6.044-10.794-8.815a.535.535 0 0 1-.111-.742.534.534 0 0 1 .743-.111c3.762 2.779 7.456 5.68 10.905 8.863a.545.545 0 0 1 .03.774.544.544 0 0 1-.773.031Zm-22.211-16.881-11.517-7.985a.503.503 0 0 1-.13-.696.503.503 0 0 1 .696-.13l.008.006 11.517 7.949a.516.516 0 0 1-.574.856Zm-22.673-16.501c-3.597-2.994-7.049-6.191-10.176-9.701a.44.44 0 0 1 .037-.622.428.428 0 0 1 .621.037c3.102 3.458 6.528 6.603 10.12 9.569a.471.471 0 0 1 .066.665.471.471 0 0 1-.665.066l-.003-.014Zm-18.222-21.247c-2.142-4.192-3.601-8.749-4.191-13.429a.383.383 0 1 1 .76-.1c.6 4.591 2.044 9.043 4.169 13.152a.411.411 0 1 1-.729.382l-.009-.005Zm-4.055-27.475c.672-4.654 1.937-9.206 3.677-13.555.059-.164.253-.24.417-.18.164.06.24.253.181.417-1.71 4.32-2.941 8.823-3.576 13.418a.36.36 0 0 1-.4.299.361.361 0 0 1-.299-.399Zm10.313-25.948a64.661 64.661 0 0 1 9.132-10.657.259.259 0 0 1 .372.016.26.26 0 0 1-.017.372 64.24 64.24 0 0 0-9.005 10.609.299.299 0 0 1-.41.078.3.3 0 0 1-.078-.41l.006-.008Zm20.397-19.005c4.077-2.313 8.446-4.123 12.989-5.269a.204.204 0 0 1 .247.151.205.205 0 0 1-.15.248c-4.504 1.159-8.831 2.961-12.864 5.279-.11.059-.255.024-.314-.086-.059-.111-.024-.255.087-.314l.005-.009Zm26.934-6.656c2.336.122 4.665.418 6.965.886 1.147.238 2.289.485 3.398.854l3.361 1.021c.078.027.123.104.096.182-.027.078-.105.123-.182.096l-.009-.006-3.349-1.001c-1.101-.364-2.249-.602-3.388-.835a45.384 45.384 0 0 0-6.92-.844.178.178 0 0 1-.168-.182.178.178 0 0 1 .182-.168l.014-.003Zm26.309 8.884c3.97 2.461 7.73 5.262 11.308 8.267.042.027.04.086.009.113-.03.028-.085.04-.113.01-3.581-2.983-7.343-5.762-11.316-8.201-.051-.033-.073-.108-.04-.158.032-.05.107-.073.157-.04l-.005.009Zm21.571 17.78 9.586 10.199s.006.028 0 .036c-.005.009-.027.006-.036.001l-9.627-10.155s-.026-.053-.001-.072c.017-.025.053-.025.072-.001l.006-.008Z"/><g opacity=".3"><path fill="#787878" d="M124 452.779h285.987V303.096l-142.993 33.031L124 369.157v83.622Z"/><path fill="#AFAFAF" d="M409.987 227H124v142.157l142.994-33.03 142.993-33.031V227Z"/></g><path fill="#000" d="M202.339 474.106h-16.448l-7.002 68.47 23.45-68.47Zm32.53-34.973h-16.448l-7.416 40.494 2.339 50.553 21.525-91.047Zm-35.317 149.385c-3.386.858-5.238.943-8.223-1.461l-1.352 7.381a3.981 3.981 0 0 0 7.79 1.633l1.785-7.553Zm-63.025 44.155-3.323 10.674a5.287 5.287 0 0 0 10.049 3.284l3.56-10.396c-5.021-.18-7.127-1.135-10.286-3.562ZM409.985 473.68h-15.497l5.959 23.593 25.855 45.346-13.572-60.892-2.745-8.047Z"/><path fill="#000" d="M414.687 439.25h-16.448l11.746 34.43h.951l1.794 8.047 3.669 10.756 24.433 35.876-26.145-89.109Zm47.245 161.021c-2.576 2.586-4.418 2.775-7.875 2.604l2.547 7.467a3.975 3.975 0 0 0 7.578-2.403l-2.25-7.668Zm-11.758 49.447c-3.972 2.458-6.457 3.268-10.494 2.9l2.899 11.48a5.272 5.272 0 0 0 10.257-2.438l-2.662-11.942Z"/><path fill="#5869DD" d="M439.68 652.618c4.037.368 6.522-.442 10.494-2.9l-23.872-107.099-25.855-45.346 39.233 155.345Zm14.377-49.743c3.457.171 5.299-.018 7.875-2.604l-21.1-71.912-24.433-35.876 37.658 110.392ZM185.891 474.106l-49.364 158.567c3.159 2.427 5.265 3.382 10.286 3.562l32.076-93.659 7.002-68.47Zm5.438 112.951c2.985 2.404 4.837 2.319 8.223 1.461l13.792-58.338-2.339-50.553-19.676 107.43Z"/><path stroke="#000" stroke-width="2" d="m185.891 474.106-49.364 158.567m49.364-158.567h16.448l-23.45 68.47m7.002-68.47-7.002 68.47m-42.362 90.097-3.323 10.674a5.287 5.287 0 0 0 10.049 3.284l3.56-10.396m-10.286-3.562c3.159 2.427 5.265 3.382 10.286 3.562m0 0 32.076-93.659m271.285 107.142c-3.972 2.458-6.457 3.268-10.494 2.9m10.494-2.9-23.872-107.099m23.872 107.099 2.662 11.942a5.272 5.272 0 0 1-10.257 2.438l-2.899-11.48m0 0-39.233-155.345m0 0-5.959-23.593h15.497m-9.538 23.593 25.855 45.346m0 0-13.572-60.892m49.202 118.544c-2.576 2.586-4.418 2.775-7.875 2.604m7.875-2.604-21.1-71.912m21.1 71.912 2.25 7.668a3.976 3.976 0 0 1-7.578 2.403l-2.547-7.467m0 0-37.658-110.392m0 0 24.433 35.876m-24.433-35.876-3.669-10.756m28.102 46.632-26.145-89.109h-16.448l11.746 34.43M191.329 587.057c2.985 2.404 4.837 2.319 8.223 1.461m-8.223-1.461 19.676-107.43m-19.676 107.43-1.352 7.381a3.981 3.981 0 0 0 7.79 1.633l1.785-7.553m0 0 13.792-58.338m-2.339-50.553 7.416-40.494h16.448l-21.525 91.047m-2.339-50.553 2.339 50.553m196.641-56.5 2.745 8.047m-2.745-8.047h.951l1.794 8.047"/><path fill="#5869DD" stroke="#000" stroke-width="2" d="M431.204 239.284 532.198 72.623l-91.019 166.661h-9.975Z"/><circle cx="532.998" cy="70.508" r="5.347" fill="#5869DD" stroke="#000" stroke-width="2"/><path fill="#5869DD" stroke="#000" stroke-width="2" d="M374.646 246.351 273.653 79.69l91.019 166.661h9.974Z"/><circle cx="273.653" cy="79.689" r="5.347" fill="#5869DD" stroke="#000" stroke-width="2"/><path fill="#000" fill-rule="evenodd" d="M151.249 246.853c76.224-4.795 123.696-4.294 200.37-.322a16.903 16.903 0 0 1 10.885 4.727 16.766 16.766 0 0 1 5.08 10.671c5.201 61.435 5.02 101.551.033 162.759a16.809 16.809 0 0 1-5.719 11.324 16.921 16.921 0 0 1-11.282 4.185c-75.78-.565-122.342-1.545-197.866-4.78a19.894 19.894 0 0 1-13.502-6.091 19.717 19.717 0 0 1-5.398-11.493c-6.32-56.275-7.484-94.508-.963-153.53a19.537 19.537 0 0 1 5.145-11.205 19.738 19.738 0 0 1 13.217-6.245Zm190.035 7.634c-64.534-3.301-107.83-3.887-169.451-.449-16.887.942-30.402 14.373-31.345 31.26-2.305 41.308-2.084 72.234.054 111.723.936 17.279 14.945 30.933 32.236 31.632 60.808 2.457 103.839 3.275 167.424 3.758 9.368.071 17.245-7.082 17.993-16.421 4.35-54.293 4.503-90.672-.034-145.194-.74-8.891-7.967-15.853-16.877-16.309Z" clip-rule="evenodd"/><path fill="url(#a)" d="m370.087 236.154-241.115.651a8.974 8.974 0 0 0-6.499 2.8l15.559 13.493a19.738 19.738 0 0 1 13.217-6.245c76.224-4.795 123.696-4.294 200.37-.322a16.903 16.903 0 0 1 10.885 4.727l13.671-12.754a8.967 8.967 0 0 0-6.088-2.35Z"/><path fill="url(#b)" d="M379.111 442.599V245.154a8.973 8.973 0 0 0-2.936-6.65l-13.671 12.754a16.766 16.766 0 0 1 5.08 10.671c5.201 61.435 5.02 101.551.033 162.759a16.809 16.809 0 0 1-5.719 11.324l14.194 13.313a8.975 8.975 0 0 0 3.019-6.726Z"/><path fill="url(#c)" d="M119.997 245.805v190.94c0 2.234.815 4.282 2.167 5.858l17.084-13.277a19.717 19.717 0 0 1-5.398-11.493c-6.32-56.275-7.484-94.508-.963-153.53a19.537 19.537 0 0 1 5.145-11.205l-15.559-13.493a8.966 8.966 0 0 0-2.476 6.2Z"/><path fill="url(#d)" d="m128.778 445.742 241.115 5.854a8.966 8.966 0 0 0 6.199-2.271l-14.194-13.313a16.921 16.921 0 0 1-11.282 4.185c-75.78-.565-122.342-1.545-197.866-4.78a19.894 19.894 0 0 1-13.502-6.091l-17.084 13.277a8.98 8.98 0 0 0 6.614 3.139Z"/><path fill="url(#e)" fill-rule="evenodd" d="m120.341 223.203 342.658-.93a12.987 12.987 0 0 1 10.832 5.758 12.937 12.937 0 0 1 2.203 7.242v232.119c0 7.304-6.014 13.174-13.315 12.997l-11.684-.286-136.077-3.323-172.517-4.213-22.381-.547c-7.054-.171-12.684-5.939-12.684-12.996V236.203c0-7.166 5.799-12.98 12.965-13Zm8.631 13.602 241.115-.651a8.967 8.967 0 0 1 6.088 2.35 8.973 8.973 0 0 1 2.936 6.65v197.445a8.975 8.975 0 0 1-3.019 6.726 8.966 8.966 0 0 1-6.199 2.271l-241.115-5.854a8.98 8.98 0 0 1-6.614-3.139 8.969 8.969 0 0 1-2.167-5.858v-190.94c0-2.403.941-4.586 2.476-6.2a8.974 8.974 0 0 1 6.499-2.8Z" clip-rule="evenodd"/><path fill="#000" d="m476.034 467.392 4.207-8.392a34.996 34.996 0 0 0 3.712-15.685V339.263l-7.919 4.567v123.562Zm-30.905 21.154 5.906-8.443-136.077-3.323 7.6 7.844 122.571 3.922Z"/><path fill="#5869DD" d="M142.441 472.567v7.293l180.117 4.764-7.6-7.844-172.517-4.213Zm331.39-244.536a12.937 12.937 0 0 1 2.203 7.242V343.83l7.919-4.567v-83.197a43 43 0 0 0-7.7-24.554l-2.422-3.481Z"/><path stroke="#000" stroke-width="2" d="M476.034 467.392c0 7.304-6.014 13.174-13.315 12.997l-11.684-.286m24.999-12.711 4.207-8.392a34.996 34.996 0 0 0 3.712-15.685V339.263m-7.919 128.129V343.83m-353.87 98.773a8.98 8.98 0 0 0 6.614 3.139l241.115 5.854a8.966 8.966 0 0 0 6.199-2.271m-253.928-6.722a8.969 8.969 0 0 1-2.167-5.858v-190.94c0-2.403.941-4.586 2.476-6.2m-.309 202.998 17.084-13.277m-16.775-189.721a8.974 8.974 0 0 1 6.499-2.8l241.115-.651a8.967 8.967 0 0 1 6.088 2.35m-253.702 1.101 15.559 13.493m238.06 196.227a8.975 8.975 0 0 0 3.019-6.726V245.154a8.973 8.973 0 0 0-2.936-6.65m-.083 210.821-14.194-13.313m14.277-197.508-13.671 12.754M139.248 429.326a19.894 19.894 0 0 0 13.502 6.091c75.524 3.235 122.086 4.215 197.866 4.78a16.921 16.921 0 0 0 11.282-4.185m-222.65-6.686a19.717 19.717 0 0 1-5.398-11.493c-6.32-56.275-7.484-94.508-.963-153.53a19.537 19.537 0 0 1 5.145-11.205m223.866 182.914a16.809 16.809 0 0 0 5.719-11.324c4.987-61.208 5.168-101.324-.033-162.759a16.766 16.766 0 0 0-5.08-10.671m-224.472 1.84a19.738 19.738 0 0 1 13.217-6.245c76.224-4.795 123.696-4.294 200.37-.322a16.903 16.903 0 0 1 10.885 4.727M142.441 472.567l-22.381-.547c-7.054-.171-12.684-5.939-12.684-12.996V236.203c0-7.166 5.799-12.98 12.965-13l342.658-.93a12.987 12.987 0 0 1 10.595 5.416M142.441 472.567v7.293l180.117 4.764m-180.117-12.057 172.517 4.213m136.077 3.323-5.906 8.443-122.571-3.922m128.477-4.521-136.077-3.323m158.636-249.091.237.342m-.237-.342c.081.113.16.227.237.342M314.958 476.78l7.6 7.844M476.034 343.83V235.273c0-2.681-.812-5.173-2.203-7.242m2.203 115.799 7.919-4.567m0 0v-83.197a43 43 0 0 0-7.7-24.554l-2.422-3.481M172.778 428.653c60.808 2.457 103.839 3.275 167.424 3.758 9.368.071 17.245-7.082 17.993-16.421 4.35-54.293 4.503-90.672-.034-145.194-.74-8.891-7.967-15.853-16.877-16.309-64.534-3.301-107.83-3.887-169.451-.449-16.887.942-30.402 14.373-31.345 31.26-2.305 41.308-2.084 72.234.054 111.723.936 17.279 14.945 30.933 32.236 31.632Z"/><path fill="#000" fill-rule="evenodd" d="M401.909 460.657a7.867 7.867 0 0 0-.314-.112c2.857 1.259 4.268 4.517 3.159 7.426-1.145 3.003-4.544 4.497-7.592 3.335-2.99-1.14-4.532-4.412-3.507-7.373a8.597 8.597 0 0 0-.068.17c-1.216 3.192.537 6.823 3.916 8.111 3.379 1.288 7.105-.255 8.321-3.446.044-.114.084-.229.12-.344.97-3.104-.777-6.525-4.035-7.767Z" clip-rule="evenodd"/><path fill="url(#f)" d="M397.162 471.306c3.048 1.162 6.447-.332 7.592-3.335 1.109-2.909-.302-6.167-3.159-7.426a6.58 6.58 0 0 0-.286-.117c-3.048-1.162-6.447.331-7.592 3.335-.022.057-.042.114-.062.17-1.025 2.961.517 6.233 3.507 7.373Z"/><path stroke="#000" stroke-width=".886" d="M393.655 463.933c-1.025 2.961.517 6.233 3.507 7.373 3.048 1.162 6.447-.332 7.592-3.335 1.109-2.909-.302-6.167-3.159-7.426m-7.94 3.388a8.597 8.597 0 0 0-.068.17c-1.216 3.192.537 6.823 3.916 8.111 3.379 1.288 7.105-.255 8.321-3.446.044-.114.084-.229.12-.344.97-3.104-.777-6.525-4.035-7.767a7.867 7.867 0 0 0-.314-.112m-7.94 3.388c.02-.056.04-.113.062-.17 1.145-3.004 4.544-4.497 7.592-3.335.097.037.192.076.286.117"/><path fill="#000" d="m398.881 469.079 4.17-4.532c.162-.176.253-.383.279-.59-2.555-.074-4.886 2.596-5.18 5.474.261-.014.526-.13.731-.352Z"/><path fill="url(#g)" d="M402.507 462.897c-1.249-.174-2.544-.361-3.892 1.104-1.348 1.465-1.737 3.483-1.446 4.696a.931.931 0 0 0 .981.734c.294-2.878 2.625-5.548 5.18-5.474a.931.931 0 0 0-.823-1.06Z"/><path stroke="#000" stroke-width=".886" d="M403.33 463.957a1.067 1.067 0 0 1-.279.59l-4.17 4.532c-.205.222-.47.338-.731.352m5.18-5.474a.931.931 0 0 0-.823-1.06c-1.249-.174-2.544-.361-3.892 1.104-1.348 1.465-1.737 3.483-1.446 4.696a.931.931 0 0 0 .981.734m5.18-5.474c-2.555-.074-4.886 2.596-5.18 5.474"/><path fill="#000" fill-rule="evenodd" d="M421.284 461.297a6.537 6.537 0 0 0-.314-.111c2.857 1.259 4.268 4.517 3.159 7.425-1.145 3.004-4.544 4.497-7.592 3.335-2.99-1.139-4.532-4.412-3.507-7.372a8.597 8.597 0 0 0-.068.17c-1.216 3.191.537 6.823 3.916 8.111 3.379 1.288 7.105-.255 8.321-3.447.044-.114.084-.228.12-.343.97-3.105-.777-6.526-4.035-7.768Z" clip-rule="evenodd"/><path fill="url(#h)" d="M416.537 471.946c3.048 1.162 6.447-.331 7.592-3.335 1.109-2.908-.302-6.166-3.159-7.425a5.523 5.523 0 0 0-.286-.117c-3.048-1.162-6.447.331-7.592 3.335a4.913 4.913 0 0 0-.062.17c-1.025 2.96.517 6.233 3.507 7.372Z"/><path stroke="#000" stroke-width=".886" d="M413.03 464.574c-1.025 2.96.517 6.233 3.507 7.372 3.048 1.162 6.447-.331 7.592-3.335 1.109-2.908-.302-6.166-3.159-7.425m-7.94 3.388a8.597 8.597 0 0 0-.068.17c-1.216 3.191.537 6.823 3.916 8.111 3.379 1.288 7.105-.255 8.321-3.447.044-.114.084-.228.12-.343.97-3.105-.777-6.526-4.035-7.768a6.537 6.537 0 0 0-.314-.111m-7.94 3.388c.02-.057.04-.114.062-.17 1.145-3.004 4.544-4.497 7.592-3.335.097.036.192.076.286.117"/><path fill="#000" d="m416.255 468.709 5.991-1.427c.233-.056.424-.176.561-.333-2.078-1.49-5.503-.578-7.355 1.644.225.134.509.186.803.116Z"/><path fill="url(#i)" d="M422.717 465.609c-.939-.841-1.908-1.721-3.845-1.259-1.936.461-3.387 1.917-3.823 3.086a.933.933 0 0 0 .403 1.157c1.852-2.222 5.277-3.134 7.355-1.644a.932.932 0 0 0-.09-1.34Z"/><path stroke="#000" stroke-width=".886" d="M422.807 466.949a1.068 1.068 0 0 1-.561.333l-5.991 1.427c-.294.07-.578.018-.803-.116m7.355-1.644a.932.932 0 0 0-.09-1.34c-.939-.841-1.908-1.721-3.845-1.259-1.936.461-3.387 1.917-3.823 3.086a.933.933 0 0 0 .403 1.157m7.355-1.644c-2.078-1.49-5.503-.578-7.355 1.644"/><path fill="#000" fill-rule="evenodd" d="M440.664 461.688a6.14 6.14 0 0 0-.313-.111c2.857 1.258 4.268 4.516 3.159 7.425-1.145 3.004-4.544 4.497-7.592 3.335-2.99-1.14-4.532-4.412-3.507-7.372a4.964 4.964 0 0 0-.068.169c-1.217 3.192.537 6.823 3.916 8.112 3.379 1.288 7.105-.255 8.321-3.447.044-.114.083-.229.119-.344.97-3.104-.776-6.525-4.035-7.767Z" clip-rule="evenodd"/><path fill="url(#j)" d="M435.918 472.337c3.048 1.162 6.447-.331 7.592-3.335 1.109-2.909-.302-6.167-3.159-7.425a5.534 5.534 0 0 0-.286-.118c-3.048-1.162-6.447.332-7.592 3.335a3.91 3.91 0 0 0-.062.171c-1.025 2.96.517 6.232 3.507 7.372Z"/><path stroke="#000" stroke-width=".886" d="M432.411 464.965c-1.025 2.96.517 6.232 3.507 7.372 3.048 1.162 6.447-.331 7.592-3.335 1.109-2.909-.302-6.167-3.159-7.425m-7.94 3.388a4.964 4.964 0 0 0-.068.169c-1.217 3.192.537 6.823 3.916 8.112 3.379 1.288 7.105-.255 8.321-3.447.044-.114.083-.229.119-.344.97-3.104-.776-6.525-4.035-7.767a6.14 6.14 0 0 0-.313-.111m-7.94 3.388a3.91 3.91 0 0 1 .062-.171c1.145-3.003 4.544-4.497 7.592-3.335.097.037.192.076.286.118"/><path fill="#000" d="m440.009 469.696-.407-6.146a1.069 1.069 0 0 0-.235-.608c-1.816 1.8-1.488 5.329.393 7.527.17-.2.269-.472.249-.773Z"/><path fill="url(#k)" d="M438.031 462.807c-.986.785-2.015 1.594-1.883 3.581.132 1.986 1.325 3.659 2.405 4.284a.931.931 0 0 0 1.207-.203c-1.881-2.198-2.209-5.727-.393-7.527a.932.932 0 0 0-1.336-.135Z"/><path stroke="#000" stroke-width=".886" d="M439.367 462.942c.132.162.219.37.235.608l.407 6.146c.02.301-.079.573-.249.773m-.393-7.527a.932.932 0 0 0-1.336-.135c-.986.785-2.015 1.594-1.883 3.581.132 1.986 1.325 3.659 2.405 4.284a.931.931 0 0 0 1.207-.203m-.393-7.527c-1.816 1.8-1.488 5.329.393 7.527"/><path fill="url(#l)" d="M394.873 243.845v121.332h68.47V243.845h-68.47Z"/><path fill="url(#m)" d="m459.29 236.129-66.946.894a3.987 3.987 0 0 0-2.757 1.153l5.286 5.669h68.47v-3.716a4 4 0 0 0-4.053-4Z"/><path fill="url(#n)" d="M388.397 241.022V371.74l6.476-6.563V243.845l-5.286-5.669a3.988 3.988 0 0 0-1.19 2.846Z"/><path fill="url(#o)" d="m394.873 365.177-6.476 6.563h74.946v-6.563h-68.47Z"/><path fill="url(#p)" d="m463.343 379.528-74.946-.214v7.351l74.946.44v-7.577Z"/><path fill="url(#q)" d="m463.343 394.675-74.946-.662v7.346l74.946.897v-7.581Z"/><path fill="url(#r)" d="m463.343 409.83-74.946-1.126v7.342l74.946 1.359v-7.575Z"/><path fill="url(#s)" d="m463.343 424.993-74.946-1.606v7.338l74.946 1.849v-7.581Z"/><path fill="url(#t)" d="m463.343 440.166-74.946-2.105v7.343l74.946 2.348v-7.586Z"/><path fill="#000" fill-rule="evenodd" d="M388.397 371.74h74.946v3.787h-74.946v-3.787Zm0 14.925 74.946.44v3.785l-74.946-.551v-3.674Zm0 14.694 74.946.897v3.787l-74.946-1.011v-3.673Zm0 14.687 74.946 1.359v3.794l-74.946-1.483v-3.67Zm0 14.679 74.946 1.849v3.796l-74.946-1.977v-3.668Zm0 17.763 74.946 2.68v-3.416l-74.946-2.348v3.084Z" clip-rule="evenodd"/><path fill="#5869DD" d="m388.397 379.314 74.946.214v-4.001h-74.946v3.787Zm0 14.699 74.946.662v-3.785l-74.946-.551v3.674Zm0 14.691 74.946 1.126v-3.787l-74.946-1.011v3.672Zm0 14.683 74.946 1.606v-3.794l-74.946-1.483v3.671Zm0 14.674 74.946 2.105v-3.796l-74.946-1.977v3.668Zm3.84 14.424 66.946 2.68a4 4 0 0 0 4.16-3.997l-74.946-2.68a4 4 0 0 0 3.84 3.997Z"/><path stroke="#000" stroke-width="2" d="M388.397 448.488a4 4 0 0 0 3.84 3.997l66.946 2.68a4 4 0 0 0 4.16-3.997m-74.946-2.68v-3.084m0 3.084 74.946 2.68m-74.946-79.428V241.022c0-1.113.455-2.12 1.19-2.846m-1.19 133.564 6.476-6.563m-6.476 6.563h74.946m-74.946 0v3.787m74.946 75.641v-3.416m-73.756-209.576a3.987 3.987 0 0 1 2.757-1.153l66.946-.894a4 4 0 0 1 4.053 4v3.716m-73.756-5.669 5.286 5.669m0 0v121.332m0-121.332h68.47m-68.47 121.332h68.47m0-121.332v121.332m0 0v6.563m0 0v3.787m-74.946 3.787 74.946.214m-74.946-.214v7.351m0-7.351v-3.787m74.946 4.001v7.577m0-7.577v-4.001m-74.946 11.138 74.946.44m-74.946-.44v3.674m74.946-3.234v3.785m-74.946 3.123 74.946.662m-74.946-.662v7.346m0-7.346v-3.674m74.946 4.336v7.581m0-7.581v-3.785m-74.946 10.469 74.946.897m-74.946-.897v3.673m74.946-2.776v3.787m-74.946 2.661 74.946 1.126m-74.946-1.126v7.342m0-7.342v-3.672m74.946 4.798v7.575m0-7.575v-3.787m-74.946 10.003 74.946 1.359m-74.946-1.359v3.67m74.946-2.311v3.794m-74.946 2.188 74.946 1.606m-74.946-1.606v7.338m0-7.338v-3.671m74.946 5.277v7.581m0-7.581v-3.794m-74.946 9.526 74.946 1.849m-74.946-1.849v3.668m74.946-1.819v3.796m-74.946 1.691 74.946 2.105m-74.946-2.105v7.343m0-7.343v-3.668m74.946 5.773v7.586m0-7.586v-3.796m-74.946 9.034 74.946 2.348m-74.946-72.225h74.946m0 15.363-74.946-.551m0 14.693 74.946 1.011m-74.946 13.673 74.946 1.483m-74.946 13.194 74.946 1.977"/><circle cx="428.936" cy="275.6" r="22.077" fill="#000" stroke="#000" stroke-width="1.7"/><circle cx="427.894" cy="274.558" r="21.035" fill="url(#u)" stroke="#000" stroke-width="1.7"/><path fill="#000" d="M428.936 284.343a9.62 9.62 0 0 0 9.377-11.777l-16.171 8.968a9.59 9.59 0 0 0 6.794 2.809Z"/><path fill="url(#v)" d="M416.749 281.482a2.66 2.66 0 0 0 3.618 1.037l1.775-.985 16.171-8.968 1.774-.983a2.663 2.663 0 0 0-2.582-4.655l-1.775.984-16.171 8.968-1.774.984a2.661 2.661 0 0 0-1.036 3.618Z"/><path fill="#5869DD" d="M428.936 265.104c-5.313 0-9.62 4.307-9.62 9.619 0 .742.084 1.464.243 2.157l16.171-8.968a9.595 9.595 0 0 0-6.794-2.808Z"/><path stroke="#000" stroke-width="1.7" d="M438.313 272.566a9.62 9.62 0 0 1-9.377 11.777 9.59 9.59 0 0 1-6.794-2.809m16.171-8.968-16.171 8.968m16.171-8.968 1.774-.983a2.663 2.663 0 0 0-2.582-4.655l-1.775.984m-13.588 13.622-1.775.985a2.661 2.661 0 0 1-2.582-4.655l1.774-.984m0 0a9.636 9.636 0 0 1-.243-2.157c0-5.312 4.307-9.619 9.62-9.619a9.595 9.595 0 0 1 6.794 2.808m-16.171 8.968 16.171-8.968"/><circle cx="428.936" cy="333.334" r="22.077" fill="#000" stroke="#000" stroke-width="1.7"/><circle cx="427.894" cy="332.293" r="21.035" fill="url(#w)" stroke="#000" stroke-width="1.7"/><path fill="#000" d="M435.274 339.695c3.997-3.5 4.399-9.578.898-13.575a9.594 9.594 0 0 0-1.604-1.462l-6.255 17.4a9.584 9.584 0 0 0 6.961-2.363Z"/><path fill="#5869DD" d="M422.597 325.222c-3.996 3.501-4.398 9.579-.898 13.575a9.64 9.64 0 0 0 1.604 1.463l6.255-17.401a9.592 9.592 0 0 0-6.961 2.363Z"/><path fill="url(#x)" d="M424.221 345.573a2.662 2.662 0 0 0 3.405-1.604l.687-1.911 6.255-17.4.687-1.909a2.662 2.662 0 0 0-5.01-1.801l-.687 1.911-6.255 17.401-.686 1.908a2.661 2.661 0 0 0 1.604 3.405Z"/><path stroke="#000" stroke-width="1.7" d="M434.568 324.658a9.594 9.594 0 0 1 1.604 1.462c3.501 3.997 3.099 10.075-.898 13.575a9.584 9.584 0 0 1-6.961 2.363m6.255-17.4-6.255 17.4m6.255-17.4.687-1.909a2.662 2.662 0 0 0-5.01-1.801l-.687 1.911m-1.245 19.199-.687 1.911a2.662 2.662 0 0 1-5.009-1.801l.686-1.908m0 0a9.64 9.64 0 0 1-1.604-1.463c-3.5-3.996-3.098-10.074.898-13.575a9.592 9.592 0 0 1 6.961-2.363m-6.255 17.401 6.255-17.401"/><defs><linearGradient id="a" x1="-21.963" x2="629.713" y1="355.41" y2="355.41" gradientUnits="userSpaceOnUse"><stop stop-color="#5869DD"/><stop offset="1" stop-color="#D6FFBB"/></linearGradient><linearGradient id="b" x1="-21.963" x2="629.713" y1="355.41" y2="355.41" gradientUnits="userSpaceOnUse"><stop stop-color="#5869DD"/><stop offset="1" stop-color="#D6FFBB"/></linearGradient><linearGradient id="c" x1="-21.963" x2="629.713" y1="355.41" y2="355.41" gradientUnits="userSpaceOnUse"><stop stop-color="#5869DD"/><stop offset="1" stop-color="#D6FFBB"/></linearGradient><linearGradient id="d" x1="-21.963" x2="629.713" y1="355.41" y2="355.41" gradientUnits="userSpaceOnUse"><stop stop-color="#5869DD"/><stop offset="1" stop-color="#D6FFBB"/></linearGradient><linearGradient id="e" x1="35.734" x2="455.562" y1="131.283" y2="427.978" gradientUnits="userSpaceOnUse"><stop stop-color="#D6FFBB"/><stop offset="1" stop-color="#5869DD"/></linearGradient><linearGradient id="f" x1="385.405" x2="404.273" y1="455.715" y2="471.686" gradientUnits="userSpaceOnUse"><stop stop-color="#D6FFBB"/><stop offset="1" stop-color="#5869DD"/></linearGradient><linearGradient id="g" x1="398.615" x2="400.864" y1="462.87" y2="465.468" gradientUnits="userSpaceOnUse"><stop stop-color="#D6FFBB"/><stop offset="1" stop-color="#5869DD"/></linearGradient><linearGradient id="h" x1="404.78" x2="423.648" y1="456.356" y2="472.327" gradientUnits="userSpaceOnUse"><stop stop-color="#D6FFBB"/><stop offset="1" stop-color="#5869DD"/></linearGradient><linearGradient id="i" x1="419.505" x2="419.917" y1="463.412" y2="466.823" gradientUnits="userSpaceOnUse"><stop stop-color="#D6FFBB"/><stop offset="1" stop-color="#5869DD"/></linearGradient><linearGradient id="j" x1="424.161" x2="443.028" y1="456.746" y2="472.718" gradientUnits="userSpaceOnUse"><stop stop-color="#D6FFBB"/><stop offset="1" stop-color="#5869DD"/></linearGradient><linearGradient id="k" x1="435.329" x2="438.761" y1="465.608" y2="465.77" gradientUnits="userSpaceOnUse"><stop stop-color="#D6FFBB"/><stop offset="1" stop-color="#5869DD"/></linearGradient><linearGradient id="l" x1="393.887" x2="501.652" y1="296.63" y2="278.67" gradientUnits="userSpaceOnUse"><stop stop-color="#5869DD"/><stop offset="1" stop-color="#D6FFBB"/></linearGradient><linearGradient id="m" x1="343.252" x2="478.059" y1="263.488" y2="279.928" gradientUnits="userSpaceOnUse"><stop stop-color="#D6FFBB"/><stop offset=".799" stop-color="#5869DD"/></linearGradient><linearGradient id="n" x1="343.252" x2="478.059" y1="263.488" y2="279.928" gradientUnits="userSpaceOnUse"><stop stop-color="#D6FFBB"/><stop offset=".799" stop-color="#5869DD"/></linearGradient><linearGradient id="o" x1="343.252" x2="478.059" y1="263.488" y2="279.928" gradientUnits="userSpaceOnUse"><stop stop-color="#D6FFBB"/><stop offset=".799" stop-color="#5869DD"/></linearGradient><linearGradient id="p" x1="436.512" x2="341.52" y1="421.109" y2="355.83" gradientUnits="userSpaceOnUse"><stop stop-color="#5869DD"/><stop offset="1" stop-color="#D6FFBB"/></linearGradient><linearGradient id="q" x1="436.512" x2="341.52" y1="421.109" y2="355.83" gradientUnits="userSpaceOnUse"><stop stop-color="#5869DD"/><stop offset="1" stop-color="#D6FFBB"/></linearGradient><linearGradient id="r" x1="436.512" x2="341.52" y1="421.109" y2="355.83" gradientUnits="userSpaceOnUse"><stop stop-color="#5869DD"/><stop offset="1" stop-color="#D6FFBB"/></linearGradient><linearGradient id="s" x1="436.512" x2="341.52" y1="421.109" y2="355.83" gradientUnits="userSpaceOnUse"><stop stop-color="#5869DD"/><stop offset="1" stop-color="#D6FFBB"/></linearGradient><linearGradient id="t" x1="436.512" x2="341.52" y1="421.109" y2="355.83" gradientUnits="userSpaceOnUse"><stop stop-color="#5869DD"/><stop offset="1" stop-color="#D6FFBB"/></linearGradient><linearGradient id="u" x1="401.312" x2="439.506" y1="237.216" y2="292.385" gradientUnits="userSpaceOnUse"><stop stop-color="#D6FFBB"/><stop offset="1" stop-color="#5869DD"/></linearGradient><linearGradient id="v" x1="398.369" x2="441.458" y1="279.9" y2="274.723" gradientUnits="userSpaceOnUse"><stop stop-color="#D6FFBB"/><stop offset="1" stop-color="#5869DD"/></linearGradient><linearGradient id="w" x1="389.062" x2="436.913" y1="317.458" y2="344.802" gradientUnits="userSpaceOnUse"><stop stop-color="#D6FFBB"/><stop offset="1" stop-color="#5869DD"/></linearGradient><linearGradient id="x" x1="403.181" x2="440.718" y1="337.964" y2="332.459" gradientUnits="userSpaceOnUse"><stop stop-color="#D6FFBB"/><stop offset="1" stop-color="#5869DD"/></linearGradient></defs></svg>
