<svg width="688" height="709" viewBox="0 0 688 709" fill="none" xmlns="http://www.w3.org/2000/svg">
<path d="M236.863 677.022H342.551V609.58" stroke="black" stroke-width="2" stroke-linecap="round" stroke-dasharray="6 6"/>
<path d="M614.594 655.774V682.094L676.69 736.788V712.114L614.594 655.774Z" fill="black"/>
<path d="M706.711 670.99L676.69 685.383V707.179L706.711 694.431V670.99Z" fill="black"/>
<path d="M706.711 670.99L614.594 655.774L676.69 712.114V707.179V685.383L706.711 670.99Z" fill="url(#paint0_linear_5720_2935)"/>
<path d="M614.594 655.774V682.094L676.69 736.788V712.114M614.594 655.774L706.711 670.99M614.594 655.774L676.69 712.114M706.711 670.99L676.69 685.383V707.179M706.711 670.99V694.431L676.69 707.179M676.69 712.114V707.179" stroke="black" stroke-width="2" stroke-linecap="round"/>
<path d="M236.836 668.621V684.556L199.241 717.671V702.732L236.836 668.621Z" fill="black"/>
<path d="M181.066 677.834L199.241 686.548V699.744L181.066 692.026V677.834Z" fill="black"/>
<path d="M181.066 677.834L236.836 668.621L199.241 702.732V699.744V686.548L181.066 677.834Z" fill="url(#paint1_linear_5720_2935)"/>
<path d="M181.066 677.834L236.836 668.621L199.241 702.732V699.744V686.548L181.066 677.834Z" fill="url(#paint2_linear_5720_2935)"/>
<path d="M236.836 668.621V684.556L199.241 717.671V702.732M236.836 668.621L181.066 677.834M236.836 668.621L199.241 702.732M181.066 677.834L199.241 686.548V699.744M181.066 677.834V692.026L199.241 699.744M199.241 702.732V699.744" stroke="black" stroke-width="2" stroke-linecap="round"/>
<path d="M604.877 436.842L586.371 470.563L616.803 457.404H712.501C724.651 457.404 734.501 447.554 734.501 435.404V402.502C734.501 390.352 724.651 380.502 712.501 380.502H626.877C614.726 380.502 604.877 390.352 604.877 402.502V436.842Z" fill="#D0D5F5"/>
<path d="M604.877 436.842L586.371 470.563L616.803 457.404H712.501C724.651 457.404 734.501 447.554 734.501 435.404V402.502C734.501 390.352 724.651 380.502 712.501 380.502H626.877C614.726 380.502 604.877 390.352 604.877 402.502V436.842Z" fill="#F1EFED"/>
<path d="M604.877 436.842L586.371 470.563L616.803 457.404H712.501C724.651 457.404 734.501 447.554 734.501 435.404V402.502C734.501 390.352 724.651 380.502 712.501 380.502H626.877C614.726 380.502 604.877 390.352 604.877 402.502V436.842Z" fill="url(#paint3_linear_5720_2935)" fill-opacity="0.2"/>
<path d="M604.877 436.842L586.371 470.563L616.803 457.404H712.501C724.651 457.404 734.501 447.554 734.501 435.404V402.502C734.501 390.352 724.651 380.502 712.501 380.502H626.877C614.726 380.502 604.877 390.352 604.877 402.502V436.842Z" fill="url(#paint4_radial_5720_2935)" fill-opacity="0.5"/>
<path d="M604.877 436.842L586.371 470.563L616.803 457.404H712.501C724.651 457.404 734.501 447.554 734.501 435.404V402.502C734.501 390.352 724.651 380.502 712.501 380.502H626.877C614.726 380.502 604.877 390.352 604.877 402.502V436.842Z" fill="url(#paint5_radial_5720_2935)" fill-opacity="0.05"/>
<path d="M604.877 436.842L586.371 470.563L616.803 457.404H712.501C724.651 457.404 734.501 447.554 734.501 435.404V402.502C734.501 390.352 724.651 380.502 712.501 380.502H626.877C614.726 380.502 604.877 390.352 604.877 402.502V436.842Z" fill="url(#paint6_linear_5720_2935)"/>
<path d="M631.607 403.943H694.115M630.373 416.691H651.346M656.281 416.691H683.834M630.373 430.673H694.115M586.371 470.563L604.877 436.842V402.502C604.877 390.352 614.726 380.502 626.877 380.502H712.501C724.651 380.502 734.501 390.352 734.501 402.502V435.404C734.501 447.554 724.651 457.404 712.501 457.404H616.803L586.371 470.563Z" stroke="black" stroke-width="2" stroke-linecap="round"/>
<path d="M594.529 280.74L593.975 280.274L593.36 280.655C585.92 285.253 577.151 287.907 567.76 287.907C540.83 287.907 519 266.077 519 239.148C519 212.219 540.83 190.388 567.76 190.388C594.689 190.388 616.519 212.219 616.519 239.148C616.519 250.749 612.469 261.402 605.704 269.773L605.457 270.079L605.484 270.47L606.902 291.149L594.529 280.74Z" fill="url(#paint7_linear_5720_2935)" stroke="black" stroke-width="2"/>
<path d="M554.272 251.394V232.888L545.636 242.141L554.272 251.394Z" fill="#F1EFED"/>
<path d="M554.272 232.888H537L545.636 242.141L554.272 232.888Z" fill="#F1EFED"/>
<path d="M537 251.394H554.272L545.636 242.141L537 251.394Z" fill="#F1EFED"/>
<path d="M537 232.888V251.394L545.636 242.141L537 232.888Z" fill="#F1EFED"/>
<path d="M562.497 235.356H599.919M562.497 244.403H581.825M537 232.888V251.394M537 232.888H554.272M537 232.888L545.636 242.141M537 251.394H554.272M537 251.394L545.636 242.141M554.272 251.394V232.888M554.272 251.394L545.636 242.141M554.272 232.888L545.636 242.141" stroke="black" stroke-width="2" stroke-linecap="round"/>
<path fill-rule="evenodd" clip-rule="evenodd" d="M225.347 512.817H189.569V567.101H225.347V512.817Z" fill="black"/>
<path fill-rule="evenodd" clip-rule="evenodd" d="M320.455 586.84C322.664 586.84 324.455 585.049 324.455 582.84V484.853H173.531V582.84C173.531 585.049 175.322 586.84 177.531 586.84H320.455ZM225.347 512.817H189.569V567.101H225.347V512.817Z" fill="black"/>
<path d="M324.455 478.161C324.455 475.952 322.664 474.161 320.455 474.161H177.531C175.322 474.161 173.531 475.952 173.531 478.161V484.853H324.455V478.161Z" fill="black"/>
<path d="M189.569 512.817H225.347M189.569 512.817V567.101M189.569 512.817L225.347 567.101M225.347 512.817V567.101M225.347 512.817L189.569 567.101M225.347 567.101H189.569M244.264 520.631H300.603M300.603 534.613H244.264M244.264 550.24H270.994M173.531 484.853V582.84C173.531 585.049 175.322 586.84 177.531 586.84H320.455C322.664 586.84 324.455 585.049 324.455 582.84V484.853M173.531 484.853V478.161C173.531 475.952 175.322 474.161 177.531 474.161H320.455C322.664 474.161 324.455 475.952 324.455 478.161V484.853M173.531 484.853H324.455" stroke="black" stroke-width="2" stroke-linecap="round"/>
<path fill-rule="evenodd" clip-rule="evenodd" d="M228.23 509.51H192.452V563.793H228.23V509.51Z" fill="#F1EFED"/>
<path fill-rule="evenodd" clip-rule="evenodd" d="M323.338 583.532C325.547 583.532 327.338 581.741 327.338 579.532V481.546H176.414V579.532C176.414 581.741 178.205 583.532 180.414 583.532H323.338ZM228.23 509.51H192.452V563.793H228.23V509.51Z" fill="#F1EFED"/>
<path fill-rule="evenodd" clip-rule="evenodd" d="M323.338 583.532C325.547 583.532 327.338 581.741 327.338 579.532V481.546H176.414V579.532C176.414 581.741 178.205 583.532 180.414 583.532H323.338ZM228.23 509.51H192.452V563.793H228.23V509.51Z" fill="url(#paint8_linear_5720_2935)" fill-opacity="0.15"/>
<path fill-rule="evenodd" clip-rule="evenodd" d="M323.338 583.532C325.547 583.532 327.338 581.741 327.338 579.532V481.546H176.414V579.532C176.414 581.741 178.205 583.532 180.414 583.532H323.338ZM228.23 509.51H192.452V563.793H228.23V509.51Z" fill="url(#paint9_linear_5720_2935)"/>
<path d="M327.338 474.854C327.338 472.644 325.547 470.854 323.338 470.854H180.414C178.205 470.854 176.414 472.644 176.414 474.854V481.546H327.338V474.854Z" fill="#F1EFED"/>
<path d="M192.452 509.51H228.23M192.452 509.51V563.793M192.452 509.51L228.23 563.793M228.23 509.51V563.793M228.23 509.51L192.452 563.793M228.23 563.793H192.452M247.147 517.323H303.486M303.486 531.305H247.147M247.147 546.932H273.877M176.414 481.546V579.532C176.414 581.741 178.205 583.532 180.414 583.532H323.338C325.547 583.532 327.338 581.741 327.338 579.532V481.546M176.414 481.546V474.854C176.414 472.644 178.205 470.854 180.414 470.854H323.338C325.547 470.854 327.338 472.644 327.338 474.854V481.546M176.414 481.546H327.338" stroke="black" stroke-width="2" stroke-linecap="round"/>
<circle cx="182.172" cy="475.789" r="1.64495" fill="black"/>
<circle cx="187.93" cy="475.789" r="1.64495" fill="black"/>
<circle cx="193.688" cy="475.789" r="1.64495" fill="black"/>
<path d="M297.316 515.146V643.452H477.849V515.146H297.316Z" fill="url(#paint10_linear_5720_2935)" stroke="black" stroke-width="2" stroke-linecap="round"/>
<path d="M478.674 608.116H477.674V609.116V630.235H310.656V515.444H320.348H321.348V514.444V502.285H492.456L490.034 608.116H478.674Z" fill="black" stroke="black" stroke-width="2" stroke-linecap="round"/>
<path d="M316.234 497.052V625.358H496.767V497.052H316.234Z" fill="#A8B1ED" stroke="black" stroke-width="2" stroke-linecap="round"/>
<path d="M496.767 590.022H495.767V591.022V610.497H332.039V497.35H352.466H353.466V496.35V484.191H510.624L516.274 590.022H496.767Z" fill="black" stroke="black" stroke-width="2" stroke-linecap="round"/>
<path d="M341.004 476.49V604.796H517.33V476.49H341.004Z" fill="url(#paint11_linear_5720_2935)" stroke="black" stroke-width="2" stroke-linecap="round"/>
<path d="M517.33 569.46H516.33V570.46V589.935H358.359V476.789H364.762H365.762V475.789V463.629H536.892V569.46H517.33Z" fill="black" stroke="black" stroke-width="2" stroke-linecap="round"/>
<path d="M363.938 583.533V455.227H544.47V583.533H363.938Z" fill="url(#paint12_linear_5720_2935)"/>
<path d="M363.938 583.533V455.227M363.938 583.533H544.47M363.938 583.533L432.614 515.551M363.938 455.227H544.47M363.938 455.227L432.614 515.551M544.47 455.227V583.533M544.47 455.227L476.741 516.09M544.47 583.533L476.741 516.09M476.741 516.09L455.232 535.418L432.614 515.551" stroke="black" stroke-width="2" stroke-linecap="round"/>
<path d="M544.883 523.081H650.571V455.638M415 16.3882H240M240 16.3882L255 1.38818M240 16.3882L255 31.3882" stroke="black" stroke-width="2" stroke-linecap="round" stroke-dasharray="6 6"/>
<path d="M541.499 279.388L421.922 425.206V456.46" stroke="black" stroke-width="2" stroke-linecap="round" stroke-dasharray="6 6"/>
<path d="M614.793 669.481H509.105V602.038" stroke="black" stroke-width="2" stroke-linecap="round" stroke-dasharray="6 6"/>
<path d="M232.342 581.887L232.342 630.824L299.785 630.824M176.335 495.197L83.074 495.197L83.0739 438.75L-47.0007 438.75M-47.0007 438.75L-37.885 429.634M-47.0007 438.75L-37.885 447.865" stroke="black" stroke-width="2" stroke-linecap="round" stroke-dasharray="6 6"/>
<circle cx="650.157" cy="521.847" r="2.28989" fill="#F1EFED" stroke="black" stroke-width="2"/>
<circle cx="3.28989" cy="3.28989" r="2.28989" transform="matrix(1 0 0 -1 419 427.968)" fill="#F1EFED" stroke="black" stroke-width="2"/>
<circle cx="3.28989" cy="3.28989" r="2.28989" transform="matrix(1 0 0 -1 412 20.4678)" fill="#F1EFED" stroke="black" stroke-width="2"/>
<circle cx="3.28989" cy="3.28989" r="2.28989" transform="matrix(-1 0 0 1 512.805 664.958)" fill="#F1EFED" stroke="black" stroke-width="2"/>
<circle cx="3.28989" cy="3.28989" r="2.28989" transform="matrix(-1 0 0 1 345.578 639.144)" fill="#F1EFED" stroke="black" stroke-width="2"/>
<circle cx="3.28989" cy="3.28989" r="2.28989" transform="matrix(-1 0 0 1 345.578 673.413)" fill="#F1EFED" stroke="black" stroke-width="2"/>
<circle cx="3.28989" cy="3.28989" r="2.28989" transform="matrix(-1 0 0 1 240.758 674.084)" fill="#F1EFED" stroke="black" stroke-width="2"/>
<circle cx="233.577" cy="630.413" r="2.28989" transform="rotate(90 233.577 630.413)" fill="#F1EFED" stroke="black" stroke-width="2"/>
<circle cx="544.884" cy="523.492" r="2.28989" fill="#F1EFED" stroke="black" stroke-width="2"/>
<circle cx="3.28989" cy="3.28989" r="2.28989" transform="matrix(1 0 0 -1 538 282.968)" fill="#F1EFED" stroke="black" stroke-width="2"/>
<circle cx="3.28989" cy="3.28989" r="2.28989" transform="matrix(-1 0 0 1 618.082 666.602)" fill="#F1EFED" stroke="black" stroke-width="2"/>
<circle cx="232.343" cy="583.411" r="2.28989" transform="rotate(90 232.343 583.411)" fill="#F1EFED" stroke="black" stroke-width="2"/>
<circle cx="176.823" cy="494.981" r="2.28989" transform="rotate(90 176.823 494.981)" fill="#F1EFED" stroke="black" stroke-width="2"/>
<circle cx="82.8585" cy="494.981" r="2.28989" transform="rotate(90 82.8585 494.981)" fill="#F1EFED" stroke="black" stroke-width="2"/>
<circle cx="82.8585" cy="439.585" r="2.28989" transform="rotate(90 82.8585 439.585)" fill="#F1EFED" stroke="black" stroke-width="2"/>
<circle cx="650.981" cy="457.694" r="2.28989" fill="#F1EFED" stroke="black" stroke-width="2"/>
<circle cx="3.28989" cy="3.28989" r="2.28989" transform="matrix(1 0 0 -1 419.043 457.694)" fill="#F1EFED" stroke="black" stroke-width="2"/>
<circle cx="3.28989" cy="3.28989" r="2.28989" transform="matrix(-1 0 0 1 511.984 600.804)" fill="#F1EFED" stroke="black" stroke-width="2"/>
<circle cx="297.73" cy="631.236" r="2.28989" transform="rotate(90 297.73 631.236)" fill="#F1EFED" stroke="black" stroke-width="2"/>
<path d="M668.519 592.475L679.58 581.053L670.782 583.563L670.771 583.552L670.769 583.559L668.512 592.45L668.519 592.475Z" fill="black"/>
<path d="M679.58 581.053L675.308 565.739L670.771 583.552L670.782 583.563L679.58 581.053Z" fill="#F1EFED"/>
<path d="M675.308 565.739L664.246 577.16L670.771 583.552L675.308 565.739Z" fill="#F1EFED"/>
<path d="M670.769 583.559L670.771 583.552L664.246 577.16L668.512 592.45L670.769 583.559Z" fill="#F1EFED"/>
<path d="M664.246 577.16L675.308 565.739M664.246 577.16L668.512 592.45M664.246 577.16L670.771 583.552M675.308 565.739L679.58 581.053M675.308 565.739L670.771 583.552M679.58 581.053L668.519 592.475L668.512 592.45M679.58 581.053L670.782 583.563L670.771 583.552M668.506 592.471L668.512 592.45M670.771 583.552L670.769 583.559L668.512 592.45" stroke="black" stroke-width="2" stroke-miterlimit="10" stroke-linecap="round" stroke-linejoin="round"/>
<path d="M536.152 424.055L560.899 398.503L541.215 404.117L541.191 404.094L541.187 404.11L536.137 423.999L536.152 424.055Z" fill="black"/>
<path d="M560.899 398.503L551.34 364.242L541.191 404.094L541.215 404.117L560.899 398.503Z" fill="#F1EFED"/>
<path d="M551.34 364.242L526.594 389.795L541.191 404.094L551.34 364.242Z" fill="#F1EFED"/>
<path d="M541.187 404.11L541.191 404.094L526.594 389.795L536.137 423.999L541.187 404.11Z" fill="#F1EFED"/>
<path d="M526.594 389.795L551.34 364.242M526.594 389.795L536.137 423.999M526.594 389.795L541.191 404.094M551.34 364.242L560.899 398.503M551.34 364.242L541.191 404.094M560.899 398.503L536.152 424.055L536.137 423.999M560.899 398.503L541.215 404.117L541.191 404.094M536.124 424.048L536.137 423.999M541.191 404.094L541.187 404.11L536.137 423.999" stroke="black" stroke-width="2" stroke-miterlimit="10" stroke-linecap="round" stroke-linejoin="round"/>
<path d="M119.649 629.568L143.075 605.379L124.441 610.694L124.419 610.672L124.415 610.687L119.634 629.515L119.649 629.568Z" fill="black"/>
<path d="M143.075 605.379L134.026 572.946L124.419 610.672L124.441 610.694L143.075 605.379Z" fill="#F1EFED"/>
<path d="M134.026 572.946L110.6 597.135L124.419 610.672L134.026 572.946Z" fill="#F1EFED"/>
<path d="M124.415 610.687L124.419 610.672L110.6 597.135L119.634 629.515L124.415 610.687Z" fill="#F1EFED"/>
<path d="M110.6 597.135L134.026 572.946M110.6 597.135L119.634 629.515M110.6 597.135L124.419 610.672M134.026 572.946L143.075 605.379M134.026 572.946L124.419 610.672M143.075 605.379L119.649 629.568L119.634 629.515M143.075 605.379L124.441 610.694L124.419 610.672M119.622 629.561L119.634 629.515M124.419 610.672L124.415 610.687L119.634 629.515" stroke="black" stroke-width="2" stroke-miterlimit="10" stroke-linecap="round" stroke-linejoin="round"/>
<path d="M138.626 460.611L128.635 448.757L133.907 434.178L143.899 446.033L138.626 460.611Z" fill="black"/>
<path d="M159.18 443.315L153.908 457.894L138.644 460.618L143.916 446.039L159.18 443.315Z" fill="#F1EFED"/>
<path d="M159.18 443.315L143.916 446.039L133.925 434.184L149.189 431.46L159.18 443.315Z" fill="#F1EFED"/>
<path d="M159.18 443.315L153.908 457.894L138.644 460.618L143.916 446.039M159.18 443.315L143.916 446.039M159.18 443.315L149.189 431.46L133.925 434.184L143.916 446.039M138.626 460.611L128.635 448.757L133.907 434.178L143.899 446.033L138.626 460.611Z" stroke="black" stroke-width="2" stroke-miterlimit="10" stroke-linecap="round" stroke-linejoin="round"/>
<path d="M634.626 56.6114L624.635 44.7566L629.907 30.1777L639.899 42.0325L634.626 56.6114Z" fill="black"/>
<path d="M655.18 39.3148L649.908 53.8937L634.644 56.6177L639.916 42.0389L655.18 39.3148Z" fill="#F1EFED"/>
<path d="M655.18 39.3148L639.916 42.0389L629.925 30.184L645.189 27.46L655.18 39.3148Z" fill="#F1EFED"/>
<path d="M655.18 39.3148L649.908 53.8937L634.644 56.6177L639.916 42.0389M655.18 39.3148L639.916 42.0389M655.18 39.3148L645.189 27.46L629.925 30.184L639.916 42.0389M634.626 56.6114L624.635 44.7566L629.907 30.1777L639.899 42.0325L634.626 56.6114Z" stroke="black" stroke-width="2" stroke-miterlimit="10" stroke-linecap="round" stroke-linejoin="round"/>
<path d="M542.18 717.706L537.335 711.957L539.892 704.888L544.737 710.636L542.18 717.706Z" fill="black"/>
<path d="M552.147 709.319L549.591 716.388L542.189 717.709L544.746 710.64L552.147 709.319Z" fill="#F1EFED"/>
<path d="M552.147 709.319L544.746 710.64L539.9 704.891L547.302 703.57L552.147 709.319Z" fill="#F1EFED"/>
<path d="M552.147 709.319L549.591 716.388L542.189 717.709L544.746 710.64M552.147 709.319L544.746 710.64M552.147 709.319L547.302 703.57L539.9 704.891L544.746 710.64M542.18 717.706L537.335 711.957L539.892 704.888L544.737 710.636L542.18 717.706Z" stroke="black" stroke-width="2" stroke-miterlimit="10" stroke-linecap="round" stroke-linejoin="round"/>
<path d="M605.825 395.463L600.98 389.715L603.536 382.645L608.382 388.394L605.825 395.463Z" fill="black"/>
<path d="M615.792 387.076L613.235 394.146L605.833 395.467L608.39 388.397L615.792 387.076Z" fill="#F1EFED"/>
<path d="M615.792 387.076L608.39 388.397L603.545 382.648L610.947 381.327L615.792 387.076Z" fill="#F1EFED"/>
<path d="M615.792 387.076L613.235 394.146L605.833 395.467L608.39 388.397M615.792 387.076L608.39 388.397M615.792 387.076L610.947 381.327L603.545 382.648L608.39 388.397M605.825 395.463L600.98 389.715L603.536 382.645L608.382 388.394L605.825 395.463Z" stroke="black" stroke-width="2" stroke-miterlimit="10" stroke-linecap="round" stroke-linejoin="round"/>
<path d="M318.149 650.057L313.304 644.308L315.861 637.238L320.706 642.987L318.149 650.057Z" fill="black"/>
<path d="M328.116 641.669L325.559 648.739L318.158 650.06L320.714 642.99L328.116 641.669Z" fill="#F1EFED"/>
<path d="M328.116 641.669L320.714 642.99L315.869 637.241L323.271 635.92L328.116 641.669Z" fill="#F1EFED"/>
<path d="M328.116 641.669L325.559 648.739L318.158 650.06L320.714 642.99M328.116 641.669L320.714 642.99M328.116 641.669L323.271 635.92L315.869 637.241L320.714 642.99M318.149 650.057L313.304 644.308L315.861 637.238L320.706 642.987L318.149 650.057Z" stroke="black" stroke-width="2" stroke-miterlimit="10" stroke-linecap="round" stroke-linejoin="round"/>
<path d="M429.219 692.921C428.533 695.663 428.561 701.146 434.154 701.146C441.145 701.146 434.565 692.921 440.734 692.921C446.902 692.921 442.79 701.146 447.314 701.146C451.837 701.146 448.959 692.921 455.127 692.921C461.296 692.921 458.828 699.912 462.941 699.912C466.231 699.912 467.327 695.252 467.464 692.921" stroke="black" stroke-width="2" stroke-linecap="round"/>
<path d="M252.305 425.03C251.619 427.772 251.647 433.255 257.24 433.255C264.231 433.255 257.651 425.03 263.82 425.03C269.988 425.03 265.876 433.255 270.4 433.255C274.923 433.255 272.045 425.03 278.213 425.03C284.382 425.03 281.914 432.021 286.027 432.021C289.317 432.021 290.413 427.36 290.55 425.03" stroke="black" stroke-width="2" stroke-linecap="round"/>
<path d="M595.464 592.991L581.482 619.721L577.781 618.487L578.192 620.544L582.716 622.189L596.287 595.458L595.464 592.991Z" fill="black"/>
<path d="M591.763 590.935L577.781 618.487L581.482 619.721L595.464 592.991L591.763 590.935Z" fill="#F1EFED"/>
<path d="M577.781 618.487L591.763 590.935L595.464 592.991M577.781 618.487L581.482 619.721L595.464 592.991M577.781 618.487L578.192 620.544L582.716 622.189L596.287 595.458L595.464 592.991" stroke="black" stroke-width="2" stroke-linecap="round"/>
<path d="M347.253 399.944L333.271 426.675L329.57 425.441L329.982 427.497L334.505 429.142L348.076 402.412L347.253 399.944Z" fill="black"/>
<path d="M343.552 397.888L329.57 425.441L333.271 426.675L347.253 399.944L343.552 397.888Z" fill="#F1EFED"/>
<path d="M329.57 425.441L343.552 397.888L347.253 399.944M329.57 425.441L333.271 426.675L347.253 399.944M329.57 425.441L329.982 427.497L334.505 429.142L348.076 402.412L347.253 399.944" stroke="black" stroke-width="2" stroke-linecap="round"/>
<path d="M383.422 700.829L394.949 674.707L394.949 671.502L383.422 695.828L374.119 680.45L372.805 683.623L383.422 700.829Z" fill="black"/>
<path d="M394.949 671.502L374.119 680.45L383.422 695.828L394.949 671.502Z" fill="#F1EFED"/>
<path d="M374.119 680.45L394.949 671.502M374.119 680.45L372.805 683.623L383.422 700.829L394.949 674.707L394.949 671.502M374.119 680.45L383.422 695.828L394.949 671.502" stroke="black" stroke-width="2" stroke-linecap="round"/>
<defs>
<linearGradient id="paint0_linear_5720_2935" x1="630.216" y1="803.261" x2="765.84" y2="740.367" gradientUnits="userSpaceOnUse">
<stop stop-color="#CDD2F2"/>
<stop offset="1" stop-color="#5869DD"/>
</linearGradient>
<linearGradient id="paint1_linear_5720_2935" x1="227.378" y1="757.918" x2="145.267" y2="719.842" gradientUnits="userSpaceOnUse">
<stop stop-color="#CDD2F2"/>
<stop offset="1" stop-color="#5869DD"/>
</linearGradient>
<linearGradient id="paint2_linear_5720_2935" x1="228.309" y1="717.478" x2="146.581" y2="698.104" gradientUnits="userSpaceOnUse">
<stop stop-color="#CDD2F2"/>
<stop offset="1" stop-color="#D6FFBB"/>
</linearGradient>
<linearGradient id="paint3_linear_5720_2935" x1="591.068" y1="432.312" x2="706.371" y2="435.372" gradientUnits="userSpaceOnUse">
<stop stop-color="#5869DD" stop-opacity="0.5"/>
<stop offset="1" stop-color="#5869DD"/>
</linearGradient>
<radialGradient id="paint4_radial_5720_2935" cx="0" cy="0" r="1" gradientUnits="userSpaceOnUse" gradientTransform="translate(601.197 401.323) rotate(30.6797) scale(24.1986 40.1173)">
<stop offset="0.227212" stop-color="#F1EFED"/>
<stop offset="1" stop-color="#F1EFED" stop-opacity="0"/>
</radialGradient>
<radialGradient id="paint5_radial_5720_2935" cx="0" cy="0" r="1" gradientUnits="userSpaceOnUse" gradientTransform="translate(690.982 431.827) rotate(141.291) scale(31.7447 45.0564)">
<stop offset="0.227212" stop-color="#5869DD"/>
<stop offset="1" stop-color="#5869DD" stop-opacity="0"/>
</radialGradient>
<linearGradient id="paint6_linear_5720_2935" x1="604.731" y1="470.207" x2="777.26" y2="422.246" gradientUnits="userSpaceOnUse">
<stop stop-color="#CDD2F2"/>
<stop offset="1" stop-color="#D6FFBB"/>
</linearGradient>
<linearGradient id="paint7_linear_5720_2935" x1="533.216" y1="293.02" x2="681.36" y2="263.476" gradientUnits="userSpaceOnUse">
<stop stop-color="#CDD2F2"/>
<stop offset="1" stop-color="#D6FFBB"/>
</linearGradient>
<linearGradient id="paint8_linear_5720_2935" x1="245.395" y1="583.532" x2="273.628" y2="478.038" gradientUnits="userSpaceOnUse">
<stop stop-color="#5869DD"/>
<stop offset="1" stop-color="#5869DD" stop-opacity="0.3"/>
</linearGradient>
<linearGradient id="paint9_linear_5720_2935" x1="311.3" y1="480.312" x2="176.414" y2="574.074" gradientUnits="userSpaceOnUse">
<stop stop-color="#A8B1ED" stop-opacity="0"/>
<stop offset="1" stop-color="#A8B1ED"/>
</linearGradient>
<linearGradient id="paint10_linear_5720_2935" x1="297.316" y1="579.299" x2="477.849" y2="579.299" gradientUnits="userSpaceOnUse">
<stop stop-color="#E3FFD1"/>
<stop offset="1" stop-color="#A8B1ED"/>
</linearGradient>
<linearGradient id="paint11_linear_5720_2935" x1="341.004" y1="540.643" x2="517.33" y2="540.643" gradientUnits="userSpaceOnUse">
<stop stop-color="#E3FFD1"/>
<stop offset="1" stop-color="#A8B1ED"/>
</linearGradient>
<linearGradient id="paint12_linear_5720_2935" x1="377.097" y1="578.598" x2="541.18" y2="464.274" gradientUnits="userSpaceOnUse">
<stop stop-color="#D7DDFF"/>
<stop offset="1" stop-color="#8691E2"/>
</linearGradient>
</defs>
</svg>
