<svg width="25" height="24" viewBox="0 0 25 24" fill="none" xmlns="http://www.w3.org/2000/svg">
<path d="M9.45084 17.1429V10.2029H7.11622V17.1429H9.45104H9.45084ZM8.28394 9.2555C9.09791 9.2555 9.60466 8.72255 9.60466 8.05656C9.58936 7.37546 9.09791 6.85742 8.29944 6.85742C7.50036 6.85742 6.97852 7.37546 6.97852 8.05656C6.97852 8.72255 7.48506 9.2555 8.26864 9.2555H8.28373H8.28394ZM10.743 17.1429H13.0774V13.2678C13.0774 13.0605 13.0927 12.8529 13.1543 12.705C13.323 12.2903 13.7072 11.8612 14.3522 11.8612C15.1968 11.8612 15.5349 12.4976 15.5349 13.4306V17.1429H17.8693V13.1637C17.8693 11.0321 16.7177 10.0402 15.1817 10.0402C13.9224 10.0402 13.3694 10.7356 13.0621 11.2093H13.0776V10.2031H10.7432C10.7736 10.8542 10.743 17.1431 10.743 17.1431V17.1429Z" fill="#6A6B70"/>
</svg>
