<svg width="25" height="24" viewBox="0 0 25 24" fill="none" xmlns="http://www.w3.org/2000/svg">
<path d="M11.2932 12.604C11.5523 12.9508 11.8829 13.2377 12.2626 13.4454C12.6422 13.653 13.0621 13.7765 13.4936 13.8074C13.9251 13.8383 14.3582 13.776 14.7636 13.6247C15.1689 13.4733 15.537 13.2365 15.8429 12.9302L17.6531 11.1181C18.2027 10.5485 18.5068 9.78567 18.4999 8.99382C18.493 8.20197 18.1757 7.4445 17.6163 6.88456C17.057 6.32461 16.3002 6.007 15.5092 6.00011C14.7181 5.99323 13.956 6.29764 13.387 6.84777L12.3491 7.88063M13.7068 11.396C13.4477 11.0492 13.1171 10.7623 12.7374 10.5546C12.3578 10.347 11.9379 10.2235 11.5064 10.1926C11.0749 10.1617 10.6418 10.224 10.2364 10.3753C9.83107 10.5267 9.46299 10.7635 9.15713 11.0698L7.34692 12.8819C6.79734 13.4514 6.49324 14.2143 6.50011 15.0062C6.50699 15.798 6.82429 16.5555 7.38367 17.1154C7.94305 17.6754 8.69976 17.993 9.49081 17.9999C10.2819 18.0068 11.044 17.7024 11.613 17.1522L12.6448 16.1194" stroke="#6A6B70" stroke-width="1.5" stroke-linecap="round" stroke-linejoin="round"/>
</svg>
