<svg width="18" height="18" viewBox="0 0 18 18" fill="none" xmlns="http://www.w3.org/2000/svg">
<path fill-rule="evenodd" clip-rule="evenodd" d="M3.75017 6.54375V4.54575C3.73765 3.70473 4.40916 3.01275 5.25017 3H12.7502C13.5912 3.01275 14.2627 3.70473 14.2502 4.54575V6.54375C14.2508 6.74763 14.1719 6.94373 14.0304 7.0905L10.7199 9.75C10.5784 9.89677 10.4996 10.0929 10.5002 10.2967V14.2035C10.5018 14.4931 10.3418 14.7595 10.0854 14.8942L8.58542 15.6667C8.34975 15.7846 8.0695 15.7702 7.84719 15.6287C7.62489 15.4872 7.49315 15.2394 7.50017 14.976V10.2967C7.50075 10.0929 7.42194 9.89677 7.28042 9.75L3.96992 7.08975C3.82859 6.94317 3.74979 6.74737 3.75017 6.54375Z" stroke="#6A6B70" stroke-width="1.5" stroke-linecap="round" stroke-linejoin="round"/>
</svg>
