<svg width="343" height="282" viewBox="0 0 343 282" fill="none" xmlns="http://www.w3.org/2000/svg">
<path d="M76.9746 203.795H139.845V163.676" stroke="black" stroke-linecap="round" stroke-dasharray="6 6"/>
<path d="M301.672 191.155V206.812L338.611 239.347V224.67L301.672 191.155Z" fill="black"/>
<path d="M356.469 200.207L338.611 208.769V221.734L356.469 214.151V200.207Z" fill="black"/>
<path d="M356.469 200.207L301.672 191.155L338.611 224.67V221.734V208.769L356.469 200.207Z" fill="url(#paint0_linear_5154_5353)"/>
<path d="M301.672 191.155V206.812L338.611 239.347V224.67M301.672 191.155L356.469 200.207M301.672 191.155L338.611 224.67M356.469 200.207L338.611 208.769V221.734M356.469 200.207V214.151L338.611 221.734M338.611 224.67V221.734" stroke="black" stroke-linecap="round"/>
<path d="M76.957 198.798V208.277L54.5933 227.976V219.089L76.957 198.798Z" fill="black"/>
<path d="M43.7817 204.278L54.5933 209.462V217.312L43.7817 212.72V204.278Z" fill="black"/>
<path d="M43.7817 204.278L76.957 198.798L54.5933 219.089V217.312V209.462L43.7817 204.278Z" fill="url(#paint1_linear_5154_5353)"/>
<path d="M43.7817 204.278L76.957 198.798L54.5933 219.089V217.312V209.462L43.7817 204.278Z" fill="url(#paint2_linear_5154_5353)"/>
<path d="M76.957 198.798V208.277L54.5933 227.976V219.089M76.957 198.798L43.7817 204.278M76.957 198.798L54.5933 219.089M43.7817 204.278L54.5933 209.462V217.312M43.7817 204.278V212.72L54.5933 217.312M54.5933 219.089V217.312" stroke="black" stroke-linecap="round"/>
<path d="M295.891 60.9206L284.883 80.9802L302.985 73.1521H351C363.15 73.1521 373 63.3024 373 51.1521V49.4062C373 37.256 363.15 27.4062 351 27.4062H317.891C305.741 27.4062 295.891 37.256 295.891 49.4062V60.9206Z" fill="#D0D5F5"/>
<path d="M295.891 60.9206L284.883 80.9802L302.985 73.1521H351C363.15 73.1521 373 63.3024 373 51.1521V49.4062C373 37.256 363.15 27.4062 351 27.4062H317.891C305.741 27.4062 295.891 37.256 295.891 49.4062V60.9206Z" fill="#F1EFED"/>
<path d="M295.891 60.9206L284.883 80.9802L302.985 73.1521H351C363.15 73.1521 373 63.3024 373 51.1521V49.4062C373 37.256 363.15 27.4062 351 27.4062H317.891C305.741 27.4062 295.891 37.256 295.891 49.4062V60.9206Z" fill="url(#paint3_linear_5154_5353)" fill-opacity="0.2"/>
<path d="M295.891 60.9206L284.883 80.9802L302.985 73.1521H351C363.15 73.1521 373 63.3024 373 51.1521V49.4062C373 37.256 363.15 27.4062 351 27.4062H317.891C305.741 27.4062 295.891 37.256 295.891 49.4062V60.9206Z" fill="url(#paint4_radial_5154_5353)" fill-opacity="0.5"/>
<path d="M295.891 60.9206L284.883 80.9802L302.985 73.1521H351C363.15 73.1521 373 63.3024 373 51.1521V49.4062C373 37.256 363.15 27.4062 351 27.4062H317.891C305.741 27.4062 295.891 37.256 295.891 49.4062V60.9206Z" fill="url(#paint5_radial_5154_5353)" fill-opacity="0.05"/>
<path d="M295.891 60.9206L284.883 80.9802L302.985 73.1521H351C363.15 73.1521 373 63.3024 373 51.1521V49.4062C373 37.256 363.15 27.4062 351 27.4062H317.891C305.741 27.4062 295.891 37.256 295.891 49.4062V60.9206Z" fill="url(#paint6_linear_5154_5353)"/>
<path d="M311.792 41.3502H348.976M311.058 48.9337H323.534M326.47 48.9337H342.86M311.058 57.2511H348.976M284.883 80.9802L295.891 60.9206V49.4062C295.891 37.256 305.741 27.4062 317.891 27.4062H351C363.15 27.4062 373 37.256 373 49.4062V51.1521C373 63.3024 363.15 73.1521 351 73.1521H302.985L284.883 80.9802Z" stroke="black" stroke-linecap="round"/>
<path d="M117.301 51.4145L117.024 51.1816L116.717 51.3718C112.276 54.1164 107.043 55.7005 101.438 55.7005C85.3665 55.7005 72.3379 42.6719 72.3379 26.6002C72.3379 10.5286 85.3665 -2.5 101.438 -2.5C117.51 -2.5 130.538 10.5286 130.538 26.6002C130.538 33.5241 128.121 39.882 124.083 44.8779L123.96 45.0305L123.974 45.2263L124.832 57.7505L117.301 51.4145Z" fill="url(#paint7_linear_5154_5353)" stroke="black"/>
<path d="M93.3643 33.8316V22.8232L88.2271 28.3274L93.3643 33.8316Z" fill="#F1EFED"/>
<path d="M93.3643 22.8232H83.0898L88.2271 28.3274L93.3643 22.8232Z" fill="#F1EFED"/>
<path d="M83.0898 33.8316H93.3643L88.2271 28.3274L83.0898 33.8316Z" fill="#F1EFED"/>
<path d="M83.0898 22.8232V33.8316L88.2271 28.3274L83.0898 22.8232Z" fill="#F1EFED"/>
<path d="M98.2569 24.291H120.518M98.2569 29.6729H109.755M83.0898 22.8232V33.8316M83.0898 22.8232H93.3643M83.0898 22.8232L88.2271 28.3274M83.0898 33.8316H93.3643M83.0898 33.8316L88.2271 28.3274M93.3643 33.8316V22.8232M93.3643 33.8316L88.2271 28.3274M93.3643 22.8232L88.2271 28.3274" stroke="black" stroke-linecap="round"/>
<path fill-rule="evenodd" clip-rule="evenodd" d="M70.1222 106.115H48.8394V138.406H70.1222V106.115Z" fill="black"/>
<path fill-rule="evenodd" clip-rule="evenodd" d="M125.078 150.149C127.287 150.149 129.078 148.358 129.078 146.149V89.4803H39.2988V146.149C39.2988 148.358 41.0897 150.149 43.2988 150.149H125.078ZM70.1222 106.115H48.8394V138.406H70.1222V106.115Z" fill="black"/>
<path d="M129.078 87.1199C129.078 84.9107 127.287 83.1199 125.078 83.1199H43.2988C41.0897 83.1199 39.2988 84.9107 39.2988 87.1199V89.4803H129.078V87.1199Z" fill="black"/>
<path d="M48.8394 106.115H70.1222M48.8394 106.115V138.406M48.8394 106.115L70.1222 138.406M70.1222 106.115V138.406M70.1222 106.115L48.8394 138.406M70.1222 138.406H48.8394M81.3752 110.763H114.89M114.89 119.081H81.3752M81.3752 128.376H97.2762M39.2988 89.4803V146.149C39.2988 148.358 41.0897 150.149 43.2988 150.149H125.078C127.287 150.149 129.078 148.358 129.078 146.149V89.4803M39.2988 89.4803V87.1199C39.2988 84.9107 41.0897 83.1199 43.2988 83.1199H125.078C127.287 83.1199 129.078 84.9107 129.078 87.1199V89.4803M39.2988 89.4803H129.078" stroke="black" stroke-linecap="round"/>
<path fill-rule="evenodd" clip-rule="evenodd" d="M71.8371 104.148H50.5542V136.439H71.8371V104.148Z" fill="#F1EFED"/>
<path fill-rule="evenodd" clip-rule="evenodd" d="M126.793 148.181C129.002 148.181 130.793 146.391 130.793 144.181V87.5132H41.0137V144.181C41.0137 146.391 42.8045 148.181 45.0137 148.181H126.793ZM71.8371 104.148H50.5542V136.439H71.8371V104.148Z" fill="#F1EFED"/>
<path fill-rule="evenodd" clip-rule="evenodd" d="M126.793 148.181C129.002 148.181 130.793 146.391 130.793 144.181V87.5132H41.0137V144.181C41.0137 146.391 42.8045 148.181 45.0137 148.181H126.793ZM71.8371 104.148H50.5542V136.439H71.8371V104.148Z" fill="url(#paint8_linear_5154_5353)" fill-opacity="0.15"/>
<path fill-rule="evenodd" clip-rule="evenodd" d="M126.793 148.181C129.002 148.181 130.793 146.391 130.793 144.181V87.5132H41.0137V144.181C41.0137 146.391 42.8045 148.181 45.0137 148.181H126.793ZM71.8371 104.148H50.5542V136.439H71.8371V104.148Z" fill="url(#paint9_linear_5154_5353)"/>
<path d="M130.793 85.1528C130.793 82.9437 129.002 81.1528 126.793 81.1528H45.0137C42.8045 81.1528 41.0137 82.9437 41.0137 85.1528V87.5132H130.793V85.1528Z" fill="#F1EFED"/>
<path d="M50.5542 104.148H71.8371M50.5542 104.148V136.439M50.5542 104.148L71.8371 136.439M71.8371 104.148V136.439M71.8371 104.148L50.5542 136.439M71.8371 136.439H50.5542M83.09 108.796H116.604M116.604 117.113H83.09M83.09 126.409H98.991M41.0137 87.5132V144.181C41.0137 146.391 42.8045 148.181 45.0137 148.181H126.793C129.002 148.181 130.793 146.391 130.793 144.181V87.5132M41.0137 87.5132V85.1528C41.0137 82.9437 42.8045 81.1528 45.0137 81.1528H126.793C129.002 81.1528 130.793 82.9437 130.793 85.1528V87.5132M41.0137 87.5132H130.793" stroke="black" stroke-linecap="round"/>
<circle cx="44.4395" cy="84.0884" r="0.97852" fill="black"/>
<circle cx="47.8633" cy="84.0884" r="0.97852" fill="black"/>
<circle cx="51.2891" cy="84.0884" r="0.97852" fill="black"/>
<path d="M112.934 107.501V183.826H220.326V107.501H112.934Z" fill="url(#paint10_linear_5154_5353)" stroke="black" stroke-linecap="round"/>
<path d="M220.816 162.9H220.316V163.4V176.058H120.773V107.584H126.634H127.134V107.084V99.7554H229.112L227.667 162.9H220.816Z" fill="black" stroke="black" stroke-linecap="round"/>
<path d="M124.188 96.7368V173.061H231.58V96.7368H124.188Z" fill="#A8B1ED" stroke="black" stroke-linecap="round"/>
<path d="M231.58 152.137H231.08V152.637V164.317H133.494V96.8201H145.74H146.24V96.3201V88.9919H239.913L243.284 152.137H231.58Z" fill="black" stroke="black" stroke-linecap="round"/>
<path d="M138.922 84.5054V160.83H243.812V84.5054H138.922Z" fill="url(#paint11_linear_5154_5353)" stroke="black" stroke-linecap="round"/>
<path d="M243.813 139.905H243.313V140.405V152.085H149.152V84.5884H153.056H153.556V84.0884V76.7603H255.545V139.905H243.813Z" fill="black" stroke="black" stroke-linecap="round"/>
<path d="M152.566 148.182V71.8569H259.959V148.182H152.566Z" fill="url(#paint12_linear_5154_5353)"/>
<path d="M152.566 148.182V71.8569M152.566 148.182H259.959M152.566 148.182L193.42 107.742M152.566 71.8569H259.959M152.566 71.8569L193.42 107.742M259.959 71.8569V148.182M259.959 71.8569L219.669 108.062M259.959 148.182L219.669 108.062M219.669 108.062L206.874 119.56L193.42 107.742" stroke="black" stroke-linecap="round"/>
<path d="M260.203 112.221H323.073V72.1016" stroke="black" stroke-linecap="round" stroke-dasharray="6 6"/>
<path d="M128.346 33.9388L187.057 53.9984V72.5903" stroke="black" stroke-linecap="round" stroke-dasharray="6 6"/>
<path d="M301.789 199.309H238.919V159.19M254.999 148V271H171.999M171.999 271L181.999 261M171.999 271L181.999 281" stroke="black" stroke-linecap="round" stroke-dasharray="6 6"/>
<path d="M74.283 147.203L74.283 176.314L114.402 176.314" stroke="black" stroke-linecap="round" stroke-dasharray="6 6"/>
<circle cx="322.828" cy="111.487" r="1.45704" fill="#F1EFED" stroke="black"/>
<circle cx="1.95704" cy="1.95704" r="1.45704" transform="matrix(1 0 0 -1 184.857 56.6897)" fill="#F1EFED" stroke="black"/>
<circle cx="1.95704" cy="1.95704" r="1.45704" transform="matrix(-1 0 0 1 241.121 196.618)" fill="#F1EFED" stroke="black"/>
<circle cx="1.95704" cy="1.95704" r="1.45704" transform="matrix(-1 0 0 1 141.645 181.263)" fill="#F1EFED" stroke="black"/>
<circle cx="1.95704" cy="1.95704" r="1.45704" transform="matrix(-1 0 0 1 141.645 201.648)" fill="#F1EFED" stroke="black"/>
<circle cx="1.95704" cy="1.95704" r="1.45704" transform="matrix(-1 0 0 1 79.2891 202.047)" fill="#F1EFED" stroke="black"/>
<circle cx="75.0176" cy="176.069" r="1.45704" transform="rotate(90 75.0176 176.069)" fill="#F1EFED" stroke="black"/>
<circle cx="260.203" cy="112.465" r="1.45704" fill="#F1EFED" stroke="black"/>
<circle cx="1.95704" cy="1.95704" r="1.45704" transform="matrix(1 0 0 -1 127.123 36.1411)" fill="#F1EFED" stroke="black"/>
<circle cx="1.95704" cy="1.95704" r="1.45704" transform="matrix(-1 0 0 1 303.746 197.597)" fill="#F1EFED" stroke="black"/>
<circle cx="74.2832" cy="148.109" r="1.45704" transform="rotate(90 74.2832 148.109)" fill="#F1EFED" stroke="black"/>
<circle cx="254.957" cy="270.957" r="1.45704" transform="rotate(90 254.957 270.957)" fill="#F1EFED" stroke="black"/>
<circle cx="254.957" cy="147.957" r="1.45704" transform="rotate(90 254.957 147.957)" fill="#F1EFED" stroke="black"/>
<circle cx="323.316" cy="73.3247" r="1.45704" fill="#F1EFED" stroke="black"/>
<circle cx="1.95704" cy="1.95704" r="1.45704" transform="matrix(1 0 0 -1 185.346 73.3247)" fill="#F1EFED" stroke="black"/>
<circle cx="1.95704" cy="1.95704" r="1.45704" transform="matrix(-1 0 0 1 240.633 158.456)" fill="#F1EFED" stroke="black"/>
<circle cx="113.18" cy="176.559" r="1.45704" transform="rotate(90 113.18 176.559)" fill="#F1EFED" stroke="black"/>
<path d="M333.749 153.501L340.329 146.707L335.095 148.2L335.089 148.193L335.088 148.198L333.745 153.486L333.749 153.501Z" fill="black"/>
<path d="M340.329 146.707L337.787 137.597L335.089 148.193L335.095 148.2L340.329 146.707Z" fill="#F1EFED"/>
<path d="M337.787 137.597L331.207 144.391L335.089 148.193L337.787 137.597Z" fill="#F1EFED"/>
<path d="M335.088 148.198L335.089 148.193L331.207 144.391L333.745 153.486L335.088 148.198Z" fill="#F1EFED"/>
<path d="M331.207 144.391L337.787 137.597M331.207 144.391L333.745 153.486M331.207 144.391L335.089 148.193M337.787 137.597L340.329 146.707M337.787 137.597L335.089 148.193M340.329 146.707L333.749 153.501L333.745 153.486M340.329 146.707L335.095 148.2L335.089 148.193M333.742 153.499L333.745 153.486M335.089 148.193L335.088 148.198L333.745 153.486" stroke="black" stroke-miterlimit="10" stroke-linecap="round" stroke-linejoin="round"/>
<path d="M228.558 51.7348L235.138 44.9405L229.904 46.4334L229.897 46.4272L229.896 46.4315L228.553 51.7199L228.558 51.7348Z" fill="black"/>
<path d="M235.138 44.9405L232.596 35.8306L229.897 46.4272L229.904 46.4334L235.138 44.9405Z" fill="#F1EFED"/>
<path d="M232.596 35.8306L226.016 42.625L229.897 46.4272L232.596 35.8306Z" fill="#F1EFED"/>
<path d="M229.896 46.4315L229.897 46.4272L226.016 42.625L228.553 51.7199L229.896 46.4315Z" fill="#F1EFED"/>
<path d="M226.016 42.625L232.596 35.8306M226.016 42.625L228.553 51.7199M226.016 42.625L229.897 46.4272M232.596 35.8306L235.138 44.9405M232.596 35.8306L229.897 46.4272M235.138 44.9405L228.558 51.7348L228.553 51.7199M235.138 44.9405L229.904 46.4334L229.897 46.4272M228.55 51.7329L228.553 51.7199M229.897 46.4272L229.896 46.4315L228.553 51.7199" stroke="black" stroke-miterlimit="10" stroke-linecap="round" stroke-linejoin="round"/>
<path d="M7.24503 175.566L21.1804 161.177L10.0959 164.339L10.0825 164.326L10.0801 164.335L7.23623 175.535L7.24503 175.566Z" fill="black"/>
<path d="M21.1804 161.177L15.7977 141.884L10.0825 164.326L10.0959 164.339L21.1804 161.177Z" fill="#F1EFED"/>
<path d="M15.7977 141.884L1.86236 156.273L10.0825 164.326L15.7977 141.884Z" fill="#F1EFED"/>
<path d="M10.0801 164.335L10.0825 164.326L1.86236 156.273L7.23623 175.535L10.0801 164.335Z" fill="#F1EFED"/>
<path d="M1.86236 156.273L15.7977 141.884M1.86236 156.273L7.23623 175.535M1.86236 156.273L10.0825 164.326M15.7977 141.884L21.1804 161.177M15.7977 141.884L10.0825 164.326M21.1804 161.177L7.24503 175.566L7.23623 175.535M21.1804 161.177L10.0959 164.339L10.0825 164.326M7.22924 175.562L7.23623 175.535M10.0825 164.326L10.0801 164.335L7.23623 175.535" stroke="black" stroke-miterlimit="10" stroke-linecap="round" stroke-linejoin="round"/>
<path d="M54.2401 70.1674L51.3579 66.7477L52.8788 62.5422L55.761 65.9619L54.2401 70.1674Z" fill="black"/>
<path d="M60.1692 65.178L58.6483 69.3835L54.2452 70.1693L55.7661 65.9637L60.1692 65.178Z" fill="#F1EFED"/>
<path d="M60.1692 65.178L55.7661 65.9637L52.8839 62.544L57.287 61.7582L60.1692 65.178Z" fill="#F1EFED"/>
<path d="M60.1692 65.178L58.6483 69.3835L54.2452 70.1693L55.7661 65.9637M60.1692 65.178L55.7661 65.9637M60.1692 65.178L57.287 61.7582L52.8839 62.544L55.7661 65.9637M54.2401 70.1674L51.3579 66.7477L52.8788 62.5422L55.761 65.9619L54.2401 70.1674Z" stroke="black" stroke-miterlimit="10" stroke-linecap="round" stroke-linejoin="round"/>
<path d="M288.596 237.997L285.713 234.577L287.234 230.372L290.117 233.792L288.596 237.997Z" fill="black"/>
<path d="M294.525 233.008L293.004 237.213L288.601 237.999L290.122 233.793L294.525 233.008Z" fill="#F1EFED"/>
<path d="M294.525 233.008L290.122 233.793L287.239 230.374L291.642 229.588L294.525 233.008Z" fill="#F1EFED"/>
<path d="M294.525 233.008L293.004 237.213L288.601 237.999L290.122 233.793M294.525 233.008L290.122 233.793M294.525 233.008L291.642 229.588L287.239 230.374L290.122 233.793M288.596 237.997L285.713 234.577L287.234 230.372L290.117 233.792L288.596 237.997Z" stroke="black" stroke-miterlimit="10" stroke-linecap="round" stroke-linejoin="round"/>
<path d="M296.457 36.3056L293.575 32.8859L295.096 28.6804L297.978 32.1001L296.457 36.3056Z" fill="black"/>
<path d="M302.386 31.3161L300.865 35.5216L296.462 36.3074L297.983 32.1019L302.386 31.3161Z" fill="#F1EFED"/>
<path d="M302.386 31.3161L297.983 32.1019L295.101 28.6822L299.504 27.8964L302.386 31.3161Z" fill="#F1EFED"/>
<path d="M302.386 31.3161L300.865 35.5216L296.462 36.3074L297.983 32.1019M302.386 31.3161L297.983 32.1019M302.386 31.3161L299.504 27.8964L295.101 28.6822L297.983 32.1019M296.457 36.3056L293.575 32.8859L295.096 28.6804L297.978 32.1001L296.457 36.3056Z" stroke="black" stroke-miterlimit="10" stroke-linecap="round" stroke-linejoin="round"/>
<path d="M125.328 187.754L122.446 184.334L123.967 180.129L126.849 183.549L125.328 187.754Z" fill="black"/>
<path d="M131.257 182.765L129.736 186.97L125.333 187.756L126.854 183.55L131.257 182.765Z" fill="#F1EFED"/>
<path d="M131.257 182.765L126.854 183.55L123.972 180.131L128.375 179.345L131.257 182.765Z" fill="#F1EFED"/>
<path d="M131.257 182.765L129.736 186.97L125.333 187.756L126.854 183.55M131.257 182.765L126.854 183.55M131.257 182.765L128.375 179.345L123.972 180.131L126.854 183.55M125.328 187.754L122.446 184.334L123.967 180.129L126.849 183.549L125.328 187.754Z" stroke="black" stroke-miterlimit="10" stroke-linecap="round" stroke-linejoin="round"/>
<path d="M191.398 213.253C190.99 214.884 191.007 218.146 194.334 218.146C198.492 218.146 194.579 213.253 198.248 213.253C201.917 213.253 199.471 218.146 202.162 218.146C204.853 218.146 203.141 213.253 206.81 213.253C210.48 213.253 209.012 217.412 211.458 217.412C213.415 217.412 214.067 214.639 214.149 213.253" stroke="black" stroke-linecap="round"/>
<path d="M32.3884 39.0761C31.9806 40.707 31.997 43.9688 35.3239 43.9688C39.4826 43.9688 35.5688 39.0761 39.2382 39.0761C42.9077 39.0761 40.4614 43.9688 43.1523 43.9688C45.8433 43.9688 44.1308 39.0761 47.8003 39.0761C51.4697 39.0761 50.002 43.2349 52.4483 43.2349C54.4053 43.2349 55.0577 40.4624 55.1392 39.0761" stroke="black" stroke-linecap="round"/>
<path d="M290.293 153.808L281.975 169.709L279.773 168.975L280.018 170.198L282.709 171.176L290.782 155.275L290.293 153.808Z" fill="black"/>
<path d="M288.091 152.584L279.773 168.975L281.975 169.709L290.293 153.808L288.091 152.584Z" fill="#F1EFED"/>
<path d="M279.773 168.975L288.091 152.584L290.293 153.808M279.773 168.975L281.975 169.709L290.293 153.808M279.773 168.975L280.018 170.198L282.709 171.176L290.782 155.275L290.293 153.808" stroke="black" stroke-linecap="round"/>
<path d="M76.9742 24.1538L68.6567 40.0548L66.4551 39.3209L66.6997 40.544L69.3906 41.5226L77.4634 25.6216L76.9742 24.1538Z" fill="black"/>
<path d="M74.7725 22.9307L66.4551 39.3209L68.6567 40.0548L76.9742 24.1538L74.7725 22.9307Z" fill="#F1EFED"/>
<path d="M66.4551 39.3209L74.7725 22.9307L76.9742 24.1538M66.4551 39.3209L68.6567 40.0548L76.9742 24.1538M66.4551 39.3209L66.6997 40.544L69.3906 41.5226L77.4634 25.6216L76.9742 24.1538" stroke="black" stroke-linecap="round"/>
<path d="M164.154 217.957L171.011 202.418L171.011 200.511L164.154 214.982L158.62 205.834L157.838 207.722L164.154 217.957Z" fill="black"/>
<path d="M171.011 200.511L158.62 205.834L164.154 214.982L171.011 200.511Z" fill="#F1EFED"/>
<path d="M158.62 205.834L171.011 200.511M158.62 205.834L157.838 207.722L164.154 217.957L171.011 202.418L171.011 200.511M158.62 205.834L164.154 214.982L171.011 200.511" stroke="black" stroke-linecap="round"/>
<defs>
<linearGradient id="paint0_linear_5154_5353" x1="310.965" y1="278.89" x2="391.643" y2="241.476" gradientUnits="userSpaceOnUse">
<stop stop-color="#CDD2F2"/>
<stop offset="1" stop-color="#5869DD"/>
</linearGradient>
<linearGradient id="paint1_linear_5154_5353" x1="71.3308" y1="251.917" x2="22.4858" y2="229.267" gradientUnits="userSpaceOnUse">
<stop stop-color="#CDD2F2"/>
<stop offset="1" stop-color="#5869DD"/>
</linearGradient>
<linearGradient id="paint2_linear_5154_5353" x1="71.8848" y1="227.861" x2="23.2679" y2="216.336" gradientUnits="userSpaceOnUse">
<stop stop-color="#CDD2F2"/>
<stop offset="1" stop-color="#D6FFBB"/>
</linearGradient>
<linearGradient id="paint3_linear_5154_5353" x1="287.677" y1="58.2257" x2="356.266" y2="60.0461" gradientUnits="userSpaceOnUse">
<stop stop-color="#5869DD" stop-opacity="0.5"/>
<stop offset="1" stop-color="#5869DD"/>
</linearGradient>
<radialGradient id="paint4_radial_5154_5353" cx="0" cy="0" r="1" gradientUnits="userSpaceOnUse" gradientTransform="translate(293.702 39.7916) rotate(30.6797) scale(14.3949 23.8644)">
<stop offset="0.227212" stop-color="#F1EFED"/>
<stop offset="1" stop-color="#F1EFED" stop-opacity="0"/>
</radialGradient>
<radialGradient id="paint5_radial_5154_5353" cx="0" cy="0" r="1" gradientUnits="userSpaceOnUse" gradientTransform="translate(347.112 57.9377) rotate(141.291) scale(18.8838 26.8025)">
<stop offset="0.227212" stop-color="#5869DD"/>
<stop offset="1" stop-color="#5869DD" stop-opacity="0"/>
</radialGradient>
<linearGradient id="paint6_linear_5154_5353" x1="295.804" y1="80.7685" x2="398.436" y2="52.2381" gradientUnits="userSpaceOnUse">
<stop stop-color="#CDD2F2"/>
<stop offset="1" stop-color="#D6FFBB"/>
</linearGradient>
<linearGradient id="paint7_linear_5154_5353" x1="80.8892" y1="58.6468" x2="169.015" y2="41.0722" gradientUnits="userSpaceOnUse">
<stop stop-color="#CDD2F2"/>
<stop offset="1" stop-color="#D6FFBB"/>
</linearGradient>
<linearGradient id="paint8_linear_5154_5353" x1="82.0477" y1="148.181" x2="98.843" y2="85.4267" gradientUnits="userSpaceOnUse">
<stop stop-color="#5869DD"/>
<stop offset="1" stop-color="#5869DD" stop-opacity="0.3"/>
</linearGradient>
<linearGradient id="paint9_linear_5154_5353" x1="121.252" y1="86.7793" x2="41.0137" y2="142.555" gradientUnits="userSpaceOnUse">
<stop stop-color="#A8B1ED" stop-opacity="0"/>
<stop offset="1" stop-color="#A8B1ED"/>
</linearGradient>
<linearGradient id="paint10_linear_5154_5353" x1="112.934" y1="145.663" x2="220.326" y2="145.663" gradientUnits="userSpaceOnUse">
<stop stop-color="#E3FFD1"/>
<stop offset="1" stop-color="#A8B1ED"/>
</linearGradient>
<linearGradient id="paint11_linear_5154_5353" x1="138.922" y1="122.668" x2="243.812" y2="122.668" gradientUnits="userSpaceOnUse">
<stop stop-color="#E3FFD1"/>
<stop offset="1" stop-color="#A8B1ED"/>
</linearGradient>
<linearGradient id="paint12_linear_5154_5353" x1="160.395" y1="145.246" x2="258.002" y2="77.2388" gradientUnits="userSpaceOnUse">
<stop stop-color="#D7DDFF"/>
<stop offset="1" stop-color="#8691E2"/>
</linearGradient>
</defs>
</svg>
