<svg width="1490" height="664" viewBox="0 0 1490 664" fill="none" xmlns="http://www.w3.org/2000/svg">
<path d="M542.5 595.333H743.5V467.333" stroke="black" stroke-width="2.66667" stroke-linecap="round" stroke-dasharray="8 8"/>
<path d="M1260.5 555.333V605.363L1378.47 709.333V662.429L1260.5 555.333Z" fill="black"/>
<path d="M1435.5 584.257L1378.47 611.617V653.049L1435.5 628.815V584.257Z" fill="black"/>
<path d="M1435.5 584.257L1260.5 555.333L1378.47 662.429V653.049V611.617L1435.5 584.257Z" fill="url(#paint0_linear_5223_9188)"/>
<path d="M1260.5 555.333V605.363L1378.47 709.333V662.429M1260.5 555.333L1435.5 584.257M1260.5 555.333L1378.47 662.429M1435.5 584.257L1378.47 611.617V653.049M1435.5 584.257V628.815L1378.47 653.049M1378.47 662.429V653.049" stroke="black" stroke-width="2.66667" stroke-linecap="round"/>
<path d="M542.5 579.333V609.546L471.045 672.333V644.008L542.5 579.333Z" fill="black"/>
<path d="M436.5 596.8L471.045 613.323V638.343L436.5 623.709V596.8Z" fill="black"/>
<path d="M436.5 596.8L542.5 579.333L471.045 644.008V638.343V613.323L436.5 596.8Z" fill="url(#paint1_linear_5223_9188)"/>
<path d="M436.5 596.8L542.5 579.333L471.045 644.008V638.343V613.323L436.5 596.8Z" fill="url(#paint2_linear_5223_9188)"/>
<path d="M542.5 579.333V609.546L471.045 672.333V644.008M542.5 579.333L436.5 596.8M542.5 579.333L471.045 644.008M436.5 596.8L471.045 613.323V638.343M436.5 596.8V623.709L471.045 638.343M471.045 644.008V638.343" stroke="black" stroke-width="2.66667" stroke-linecap="round"/>
<path d="M1241.73 138.306L1206.5 202.333L1264.43 177.347H1459.17C1475.37 177.347 1488.5 164.214 1488.5 148.013V60.6663C1488.5 44.466 1475.37 31.333 1459.17 31.333H1271.06C1254.86 31.333 1241.73 44.466 1241.73 60.6663V138.306Z" fill="#D0D5F5"/>
<path d="M1241.73 138.306L1206.5 202.333L1264.43 177.347H1459.17C1475.37 177.347 1488.5 164.214 1488.5 148.013V60.6663C1488.5 44.466 1475.37 31.333 1459.17 31.333H1271.06C1254.86 31.333 1241.73 44.466 1241.73 60.6663V138.306Z" fill="#F1EFED"/>
<path d="M1241.73 138.306L1206.5 202.333L1264.43 177.347H1459.17C1475.37 177.347 1488.5 164.214 1488.5 148.013V60.6663C1488.5 44.466 1475.37 31.333 1459.17 31.333H1271.06C1254.86 31.333 1241.73 44.466 1241.73 60.6663V138.306Z" fill="url(#paint3_linear_5223_9188)" fill-opacity="0.2"/>
<path d="M1241.73 138.306L1206.5 202.333L1264.43 177.347H1459.17C1475.37 177.347 1488.5 164.214 1488.5 148.013V60.6663C1488.5 44.466 1475.37 31.333 1459.17 31.333H1271.06C1254.86 31.333 1241.73 44.466 1241.73 60.6663V138.306Z" fill="url(#paint4_radial_5223_9188)" fill-opacity="0.5"/>
<path d="M1241.73 138.306L1206.5 202.333L1264.43 177.347H1459.17C1475.37 177.347 1488.5 164.214 1488.5 148.013V60.6663C1488.5 44.466 1475.37 31.333 1459.17 31.333H1271.06C1254.86 31.333 1241.73 44.466 1241.73 60.6663V138.306Z" fill="url(#paint5_radial_5223_9188)" fill-opacity="0.05"/>
<path d="M1241.73 138.306L1206.5 202.333L1264.43 177.347H1459.17C1475.37 177.347 1488.5 164.214 1488.5 148.013V60.6663C1488.5 44.466 1475.37 31.333 1459.17 31.333H1271.06C1254.86 31.333 1241.73 44.466 1241.73 60.6663V138.306Z" fill="url(#paint6_linear_5223_9188)"/>
<path d="M1292.62 75.8399H1411.62M1290.27 100.045H1330.2M1339.59 100.045H1392.04M1290.27 126.593H1411.62M1206.5 202.333L1241.73 138.306V60.6663C1241.73 44.466 1254.86 31.333 1271.06 31.333H1459.17C1475.37 31.333 1488.5 44.466 1488.5 60.6663V148.013C1488.5 164.214 1475.37 177.347 1459.17 177.347H1264.43L1206.5 202.333Z" stroke="black" stroke-width="2.66667" stroke-linecap="round"/>
<path d="M670.476 108.618L669.737 107.995L668.914 108.504C654.698 117.309 637.943 122.391 620 122.391C568.548 122.391 526.833 80.5938 526.833 29.0287C526.833 -22.5365 568.548 -64.3337 620 -64.3337C671.452 -64.3337 713.167 -22.5365 713.167 29.0287C713.167 51.2431 705.426 71.6419 692.5 87.6699L692.172 88.0766L692.208 88.5979L694.992 129.287L670.476 108.618Z" fill="url(#paint7_linear_5223_9188)" stroke="black" stroke-width="2.66667"/>
<path d="M594.441 68.333V33.333L577.971 50.833L594.441 68.333Z" fill="#F1EFED"/>
<path d="M594.441 33.333H561.5L577.971 50.833L594.441 33.333Z" fill="#F1EFED"/>
<path d="M561.5 68.333H594.441L577.971 50.833L561.5 68.333Z" fill="#F1EFED"/>
<path d="M561.5 33.333V68.333L577.971 50.833L561.5 33.333Z" fill="#F1EFED"/>
<path d="M610.127 37.9997H681.5M610.127 55.1108H646.99M561.5 33.333V68.333M561.5 33.333H594.441M561.5 33.333L577.971 50.833M561.5 68.333H594.441M561.5 68.333L577.971 50.833M594.441 68.333V33.333M594.441 68.333L577.971 50.833M594.441 33.333L577.971 50.833" stroke="black" stroke-width="2.66667" stroke-linecap="round"/>
<path fill-rule="evenodd" clip-rule="evenodd" d="M520.034 283.092H451.999V386.669H520.034V283.092Z" fill="black"/>
<path fill-rule="evenodd" clip-rule="evenodd" d="M703.167 424.333C706.112 424.333 708.5 421.945 708.5 419V229.734H421.5V419C421.5 421.945 423.888 424.333 426.833 424.333H703.167ZM520.034 283.092H451.999V386.669H520.034V283.092Z" fill="black"/>
<path d="M708.5 214.666C708.5 211.721 706.112 209.333 703.167 209.333H426.833C423.888 209.333 421.5 211.721 421.5 214.666V229.734H708.5V214.666Z" fill="black"/>
<path d="M451.999 283.092H520.034M451.999 283.092V386.669M451.999 283.092L520.034 386.669M520.034 283.092V386.669M520.034 283.092L451.999 386.669M520.034 386.669H451.999M556.007 298.001H663.143M663.143 324.68H556.007M556.007 354.497H606.838M421.5 229.734V419C421.5 421.945 423.888 424.333 426.833 424.333H703.167C706.112 424.333 708.5 421.945 708.5 419V229.734M421.5 229.734V214.666C421.5 211.721 423.888 209.333 426.833 209.333H703.167C706.112 209.333 708.5 211.721 708.5 214.666V229.734M421.5 229.734H708.5" stroke="black" stroke-width="2.66667" stroke-linecap="round"/>
<path fill-rule="evenodd" clip-rule="evenodd" d="M525.034 277.092H456.999V380.669H525.034V277.092Z" fill="#F1EFED"/>
<path fill-rule="evenodd" clip-rule="evenodd" d="M708.167 418.333C711.112 418.333 713.5 415.945 713.5 413V223.734H426.5V413C426.5 415.945 428.888 418.333 431.833 418.333H708.167ZM525.034 277.092H456.999V380.669H525.034V277.092Z" fill="#F1EFED"/>
<path fill-rule="evenodd" clip-rule="evenodd" d="M708.167 418.333C711.112 418.333 713.5 415.945 713.5 413V223.734H426.5V413C426.5 415.945 428.888 418.333 431.833 418.333H708.167ZM525.034 277.092H456.999V380.669H525.034V277.092Z" fill="url(#paint8_linear_5223_9188)" fill-opacity="0.15"/>
<path fill-rule="evenodd" clip-rule="evenodd" d="M708.167 418.333C711.112 418.333 713.5 415.945 713.5 413V223.734H426.5V413C426.5 415.945 428.888 418.333 431.833 418.333H708.167ZM525.034 277.092H456.999V380.669H525.034V277.092Z" fill="url(#paint9_linear_5223_9188)"/>
<path d="M713.5 208.666C713.5 205.721 711.112 203.333 708.167 203.333H431.833C428.888 203.333 426.5 205.721 426.5 208.666V223.734H713.5V208.666Z" fill="#F1EFED"/>
<path d="M456.999 277.092H525.034M456.999 277.092V380.669M456.999 277.092L525.034 380.669M525.034 277.092V380.669M525.034 277.092L456.999 380.669M525.034 380.669H456.999M561.007 292.001H668.143M668.143 318.68H561.007M561.007 348.497H611.838M426.5 223.734V413C426.5 415.945 428.888 418.333 431.833 418.333H708.167C711.112 418.333 713.5 415.945 713.5 413V223.734M426.5 223.734V208.666C426.5 205.721 428.888 203.333 431.833 203.333H708.167C711.112 203.333 713.5 205.721 713.5 208.666V223.734M426.5 223.734H713.5" stroke="black" stroke-width="2.66667" stroke-linecap="round"/>
<circle cx="437.5" cy="212.333" r="3" fill="black"/>
<circle cx="448.5" cy="212.333" r="3" fill="black"/>
<circle cx="459.5" cy="212.333" r="3" fill="black"/>
<path d="M657.5 287.333V531.333H1000.5V287.333H657.5Z" fill="url(#paint10_linear_5223_9188)" stroke="black" stroke-width="2.66667" stroke-linecap="round"/>
<path d="M1002.31 464.956H1000.98V466.29V507H681.833V287.679H700.858H702.191V286.346V262.666H1029.14L1024.5 464.956H1002.31Z" fill="black" stroke="black" stroke-width="2.66667" stroke-linecap="round"/>
<path d="M693.5 253.333V497.333H1036.5V253.333H693.5Z" fill="#A8B1ED" stroke="black" stroke-width="2.66667" stroke-linecap="round"/>
<path d="M1036.43 431.063H1035.09V432.396V470H722.833V253.692H762.216H763.549V252.359V228.666H1063.3L1074.09 431.063H1036.43Z" fill="black" stroke="black" stroke-width="2.66667" stroke-linecap="round"/>
<path d="M740.5 214.333V458.333H1075.5V214.333H740.5Z" fill="url(#paint11_linear_5223_9188)" stroke="black" stroke-width="2.66667" stroke-linecap="round"/>
<path d="M1075.43 391.063H1074.1V392.396V430H772.833V213.692H785.564H786.897V212.359V188.666H1113.17V391.063H1075.43Z" fill="black" stroke="black" stroke-width="2.66667" stroke-linecap="round"/>
<path d="M783.5 417.333V173.333H1126.5V417.333H783.5Z" fill="url(#paint12_linear_5223_9188)"/>
<path d="M783.5 417.333V173.333M783.5 417.333H1126.5M783.5 417.333L913.981 288.051M783.5 173.333H1126.5M783.5 173.333L913.981 288.051M1126.5 173.333V417.333M1126.5 173.333L997.818 289.077M1126.5 417.333L997.818 289.077M997.818 289.077L956.953 325.833L913.981 288.051" stroke="black" stroke-width="2.66667" stroke-linecap="round"/>
<path d="M1127.5 302.333H1328.5V174.333" stroke="black" stroke-width="2.66667" stroke-linecap="round" stroke-dasharray="8 8"/>
<path d="M706.5 52.333L894.5 116.687V176.333" stroke="black" stroke-width="2.66667" stroke-linecap="round" stroke-dasharray="8 8"/>
<path d="M1260.5 581.333H1059.5V453.333" stroke="black" stroke-width="2.66667" stroke-linecap="round" stroke-dasharray="8 8"/>
<path d="M533.338 415.173L533.338 508.333L661.5 508.333M426.907 250.144L249.682 250.144L249.682 142.686L2.49998 142.686M2.49998 142.686L19.8227 125.333M2.49998 142.686L19.8227 160.04" stroke="black" stroke-width="2.66667" stroke-linecap="round" stroke-dasharray="8 8"/>
<circle cx="1328" cy="300.833" r="5.16667" fill="#F1EFED" stroke="black" stroke-width="2.66667"/>
<circle cx="6.5" cy="6.5" r="5.16667" transform="matrix(1 0 0 -1 887.5 125.333)" fill="#F1EFED" stroke="black" stroke-width="2.66667"/>
<circle cx="6.5" cy="6.5" r="5.16667" transform="matrix(-1 0 0 1 1066.5 572.333)" fill="#F1EFED" stroke="black" stroke-width="2.66667"/>
<circle cx="6.5" cy="6.5" r="5.16667" transform="matrix(-1 0 0 1 748.5 523.333)" fill="#F1EFED" stroke="black" stroke-width="2.66667"/>
<circle cx="6.5" cy="6.5" r="5.16667" transform="matrix(-1 0 0 1 748.5 588.333)" fill="#F1EFED" stroke="black" stroke-width="2.66667"/>
<circle cx="6.5" cy="6.5" r="5.16667" transform="matrix(-1 0 0 1 549.5 590.333)" fill="#F1EFED" stroke="black" stroke-width="2.66667"/>
<circle cx="536" cy="506.833" r="5.16667" transform="rotate(90 536 506.833)" fill="#F1EFED" stroke="black" stroke-width="2.66667"/>
<circle cx="1128" cy="303.833" r="5.16667" fill="#F1EFED" stroke="black" stroke-width="2.66667"/>
<circle cx="6.5" cy="6.5" r="5.16667" transform="matrix(1 0 0 -1 702.5 59.333)" fill="#F1EFED" stroke="black" stroke-width="2.66667"/>
<circle cx="6.5" cy="6.5" r="5.16667" transform="matrix(-1 0 0 1 1267.5 575.333)" fill="#F1EFED" stroke="black" stroke-width="2.66667"/>
<circle cx="533" cy="417.833" r="5.16667" transform="rotate(90 533 417.833)" fill="#F1EFED" stroke="black" stroke-width="2.66667"/>
<circle cx="428" cy="249.833" r="5.16667" transform="rotate(90 428 249.833)" fill="#F1EFED" stroke="black" stroke-width="2.66667"/>
<circle cx="249" cy="249.833" r="5.16667" transform="rotate(90 249 249.833)" fill="#F1EFED" stroke="black" stroke-width="2.66667"/>
<circle cx="249" cy="143.833" r="5.16667" transform="rotate(90 249 143.833)" fill="#F1EFED" stroke="black" stroke-width="2.66667"/>
<circle cx="1330" cy="178.833" r="5.16667" fill="#F1EFED" stroke="black" stroke-width="2.66667"/>
<circle cx="6.5" cy="6.5" r="5.16667" transform="matrix(1 0 0 -1 888.5 178.333)" fill="#F1EFED" stroke="black" stroke-width="2.66667"/>
<circle cx="6.5" cy="6.5" r="5.16667" transform="matrix(-1 0 0 1 1065.5 450.333)" fill="#F1EFED" stroke="black" stroke-width="2.66667"/>
<circle cx="658" cy="508.833" r="5.16667" transform="rotate(90 658 508.833)" fill="#F1EFED" stroke="black" stroke-width="2.66667"/>
<path d="M1363.25 434.428L1384.18 412.92L1367.51 417.627L1367.49 417.608L1367.49 417.621L1363.23 434.381L1363.25 434.428Z" fill="black"/>
<path d="M1384.18 412.92L1376.04 384.026L1367.49 417.608L1367.51 417.627L1384.18 412.92Z" fill="#F1EFED"/>
<path d="M1376.04 384.026L1355.1 405.534L1367.49 417.608L1376.04 384.026Z" fill="#F1EFED"/>
<path d="M1367.49 417.621L1367.49 417.608L1355.1 405.534L1363.23 434.381L1367.49 417.621Z" fill="#F1EFED"/>
<path d="M1355.1 405.534L1376.04 384.026M1355.1 405.534L1363.23 434.381M1355.1 405.534L1367.49 417.608M1376.04 384.026L1384.18 412.92M1376.04 384.026L1367.49 417.608M1384.18 412.92L1363.25 434.428L1363.23 434.381M1384.18 412.92L1367.51 417.627L1367.49 417.608M1363.22 434.422L1363.23 434.381M1367.49 417.608L1367.49 417.621L1363.23 434.381" stroke="black" stroke-width="2.66667" stroke-miterlimit="10" stroke-linecap="round" stroke-linejoin="round"/>
<path d="M1026.25 108.428L1047.18 86.9199L1030.51 91.6275L1030.49 91.6077L1030.49 91.6214L1026.23 108.381L1026.25 108.428Z" fill="black"/>
<path d="M1047.18 86.9199L1039.04 58.0258L1030.49 91.6077L1030.51 91.6275L1047.18 86.9199Z" fill="#F1EFED"/>
<path d="M1039.04 58.0258L1018.1 79.5342L1030.49 91.6077L1039.04 58.0258Z" fill="#F1EFED"/>
<path d="M1030.49 91.6214L1030.49 91.6077L1018.1 79.5342L1026.23 108.381L1030.49 91.6214Z" fill="#F1EFED"/>
<path d="M1018.1 79.5342L1039.04 58.0258M1018.1 79.5342L1026.23 108.381M1018.1 79.5342L1030.49 91.6077M1039.04 58.0258L1047.18 86.9199M1039.04 58.0258L1030.49 91.6077M1047.18 86.9199L1026.25 108.428L1026.23 108.381M1047.18 86.9199L1030.51 91.6275L1030.49 91.6077M1026.22 108.422L1026.23 108.381M1030.49 91.6077L1030.49 91.6214L1026.23 108.381" stroke="black" stroke-width="2.66667" stroke-miterlimit="10" stroke-linecap="round" stroke-linejoin="round"/>
<path d="M319.213 504.801L363.879 458.884L328.313 468.938L328.27 468.895L328.263 468.925L319.184 504.7L319.213 504.801Z" fill="black"/>
<path d="M363.879 458.884L346.515 397.211L328.27 468.895L328.313 468.938L363.879 458.884Z" fill="#F1EFED"/>
<path d="M346.515 397.211L301.849 443.128L328.27 468.895L346.515 397.211Z" fill="#F1EFED"/>
<path d="M328.263 468.925L328.27 468.895L301.849 443.128L319.184 504.7L328.263 468.925Z" fill="#F1EFED"/>
<path d="M301.849 443.128L346.515 397.211M301.849 443.128L319.184 504.7M301.849 443.128L328.27 468.895M346.515 397.211L363.879 458.884M346.515 397.211L328.27 468.895M363.879 458.884L319.213 504.801L319.184 504.7M363.879 458.884L328.313 468.938L328.27 468.895M319.162 504.788L319.184 504.7M328.27 468.895L328.263 468.925L319.184 504.7" stroke="black" stroke-width="2.66667" stroke-miterlimit="10" stroke-linecap="round" stroke-linejoin="round"/>
<path d="M468.88 168.351L459.598 157.283L464.527 143.647L473.809 154.714L468.88 168.351Z" fill="black"/>
<path d="M488.036 152.151L483.107 165.788L468.897 168.357L473.825 154.72L488.036 152.151Z" fill="#F1EFED"/>
<path d="M488.036 152.151L473.825 154.72L464.543 143.653L478.754 141.084L488.036 152.151Z" fill="#F1EFED"/>
<path d="M488.036 152.151L483.107 165.788L468.897 168.357L473.825 154.72M488.036 152.151L473.825 154.72M488.036 152.151L478.754 141.084L464.543 143.653L473.825 154.72M468.88 168.351L459.598 157.283L464.527 143.647L473.809 154.714L468.88 168.351Z" stroke="black" stroke-width="2.66667" stroke-miterlimit="10" stroke-linecap="round" stroke-linejoin="round"/>
<path d="M1121.88 673.351L1112.6 662.283L1117.53 648.647L1126.81 659.714L1121.88 673.351Z" fill="black"/>
<path d="M1141.04 657.151L1136.11 670.788L1121.9 673.357L1126.83 659.72L1141.04 657.151Z" fill="#F1EFED"/>
<path d="M1141.04 657.151L1126.83 659.72L1117.54 648.653L1131.75 646.084L1141.04 657.151Z" fill="#F1EFED"/>
<path d="M1141.04 657.151L1136.11 670.788L1121.9 673.357L1126.83 659.72M1141.04 657.151L1126.83 659.72M1141.04 657.151L1131.75 646.084L1117.54 648.653L1126.83 659.72M1121.88 673.351L1112.6 662.283L1117.53 648.647L1126.81 659.714L1121.88 673.351Z" stroke="black" stroke-width="2.66667" stroke-miterlimit="10" stroke-linecap="round" stroke-linejoin="round"/>
<path d="M1242.88 60.3511L1233.6 49.2833L1238.53 35.6467L1247.81 46.7144L1242.88 60.3511Z" fill="black"/>
<path d="M1262.04 44.1514L1257.11 57.788L1242.9 60.357L1247.83 46.7203L1262.04 44.1514Z" fill="#F1EFED"/>
<path d="M1262.04 44.1514L1247.83 46.7203L1238.54 35.6526L1252.75 33.0836L1262.04 44.1514Z" fill="#F1EFED"/>
<path d="M1262.04 44.1514L1257.11 57.788L1242.9 60.357L1247.83 46.7203M1262.04 44.1514L1247.83 46.7203M1262.04 44.1514L1252.75 33.0836L1238.54 35.6526L1247.83 46.7203M1242.88 60.3511L1233.6 49.2833L1238.53 35.6467L1247.81 46.7144L1242.88 60.3511Z" stroke="black" stroke-width="2.66667" stroke-miterlimit="10" stroke-linecap="round" stroke-linejoin="round"/>
<path d="M696.88 544.351L687.598 533.283L692.527 519.647L701.809 530.714L696.88 544.351Z" fill="black"/>
<path d="M716.036 528.151L711.107 541.788L696.897 544.357L701.825 530.72L716.036 528.151Z" fill="#F1EFED"/>
<path d="M716.036 528.151L701.825 530.72L692.543 519.653L706.754 517.084L716.036 528.151Z" fill="#F1EFED"/>
<path d="M716.036 528.151L711.107 541.788L696.897 544.357L701.825 530.72M716.036 528.151L701.825 530.72M716.036 528.151L706.754 517.084L692.543 519.653L701.825 530.72M696.88 544.351L687.598 533.283L692.527 519.647L701.809 530.714L696.88 544.351Z" stroke="black" stroke-width="2.66667" stroke-miterlimit="10" stroke-linecap="round" stroke-linejoin="round"/>
<path d="M908.077 625.333C906.779 630.666 906.831 641.333 917.422 641.333C930.66 641.333 918.201 625.333 929.882 625.333C941.563 625.333 933.776 641.333 942.342 641.333C950.908 641.333 945.457 625.333 957.138 625.333C968.819 625.333 964.147 638.933 971.934 638.933C978.164 638.933 980.24 629.866 980.5 625.333" stroke="black" stroke-width="2.66667" stroke-linecap="round"/>
<path d="M400.077 68.333C398.779 73.6663 398.831 84.333 409.422 84.333C422.66 84.333 410.201 68.333 421.882 68.333C433.563 68.333 425.776 84.333 434.342 84.333C442.908 84.333 437.457 68.333 449.138 68.333C460.819 68.333 456.147 81.933 463.934 81.933C470.164 81.933 472.24 72.8663 472.5 68.333" stroke="black" stroke-width="2.66667" stroke-linecap="round"/>
<path d="M1223.94 436.215L1197.5 486.675L1190.5 484.346L1191.28 488.228L1199.83 491.333L1225.5 440.872L1223.94 436.215Z" fill="black"/>
<path d="M1216.94 432.333L1190.5 484.346L1197.5 486.675L1223.94 436.215L1216.94 432.333Z" fill="#F1EFED"/>
<path d="M1190.5 484.346L1216.94 432.333L1223.94 436.215M1190.5 484.346L1197.5 486.675L1223.94 436.215M1190.5 484.346L1191.28 488.228L1199.83 491.333L1225.5 440.872L1223.94 436.215" stroke="black" stroke-width="2.66667" stroke-linecap="round"/>
<path d="M541.944 21.2146L515.5 71.6751L508.5 69.3462L509.278 73.2277L517.833 76.333L543.5 25.8725L541.944 21.2146Z" fill="black"/>
<path d="M534.944 17.333L508.5 69.3462L515.5 71.6751L541.944 21.2146L534.944 17.333Z" fill="#F1EFED"/>
<path d="M508.5 69.3462L534.944 17.333L541.944 21.2146M508.5 69.3462L515.5 71.6751L541.944 21.2146M508.5 69.3462L509.278 73.2277L517.833 76.333L543.5 25.8725L541.944 21.2146" stroke="black" stroke-width="2.66667" stroke-linecap="round"/>
<path d="M821.139 641.257L843.173 591.238L843.153 585.091L821.108 631.668L803.099 602.121L800.587 608.198L821.139 641.257Z" fill="black"/>
<path d="M843.153 585.091L803.099 602.121L821.108 631.668L843.153 585.091Z" fill="#F1EFED"/>
<path d="M803.099 602.121L843.153 585.091M803.099 602.121L800.587 608.198L821.139 641.257L843.173 591.238L843.153 585.091M803.099 602.121L821.108 631.668L843.153 585.091" stroke="black" stroke-width="2.66667" stroke-linecap="round"/>
<defs>
<linearGradient id="paint0_linear_5223_9188" x1="1290.18" y1="835.692" x2="1547.89" y2="716.255" gradientUnits="userSpaceOnUse">
<stop stop-color="#CDD2F2"/>
<stop offset="1" stop-color="#5869DD"/>
</linearGradient>
<linearGradient id="paint1_linear_5223_9188" x1="524.523" y1="748.641" x2="368.592" y2="676.156" gradientUnits="userSpaceOnUse">
<stop stop-color="#CDD2F2"/>
<stop offset="1" stop-color="#5869DD"/>
</linearGradient>
<linearGradient id="paint2_linear_5223_9188" x1="526.293" y1="671.965" x2="370.996" y2="635.061" gradientUnits="userSpaceOnUse">
<stop stop-color="#CDD2F2"/>
<stop offset="1" stop-color="#D6FFBB"/>
</linearGradient>
<linearGradient id="paint3_linear_5223_9188" x1="1215.44" y1="129.704" x2="1434.95" y2="135.545" gradientUnits="userSpaceOnUse">
<stop stop-color="#5869DD" stop-opacity="0.5"/>
<stop offset="1" stop-color="#5869DD"/>
</linearGradient>
<radialGradient id="paint4_radial_5223_9188" cx="0" cy="0" r="1" gradientUnits="userSpaceOnUse" gradientTransform="translate(1234.72 70.8653) rotate(30.6133) scale(46.0362 76.2237)">
<stop offset="0.227212" stop-color="#F1EFED"/>
<stop offset="1" stop-color="#F1EFED" stop-opacity="0"/>
</radialGradient>
<radialGradient id="paint5_radial_5223_9188" cx="0" cy="0" r="1" gradientUnits="userSpaceOnUse" gradientTransform="translate(1405.65 128.785) rotate(141.365) scale(60.3713 85.6377)">
<stop offset="0.227212" stop-color="#5869DD"/>
<stop offset="1" stop-color="#5869DD" stop-opacity="0"/>
</radialGradient>
<linearGradient id="paint6_linear_5223_9188" x1="1241.45" y1="201.657" x2="1569.78" y2="110.145" gradientUnits="userSpaceOnUse">
<stop stop-color="#CDD2F2"/>
<stop offset="1" stop-color="#D6FFBB"/>
</linearGradient>
<linearGradient id="paint7_linear_5223_9188" x1="554.397" y1="131.55" x2="835.787" y2="75.5497" gradientUnits="userSpaceOnUse">
<stop stop-color="#CDD2F2"/>
<stop offset="1" stop-color="#D6FFBB"/>
</linearGradient>
<linearGradient id="paint8_linear_5223_9188" x1="557.675" y1="418.333" x2="611.705" y2="217.133" gradientUnits="userSpaceOnUse">
<stop stop-color="#5869DD"/>
<stop offset="1" stop-color="#5869DD" stop-opacity="0.3"/>
</linearGradient>
<linearGradient id="paint9_linear_5223_9188" x1="683.001" y1="221.38" x2="425.934" y2="399.469" gradientUnits="userSpaceOnUse">
<stop stop-color="#A8B1ED" stop-opacity="0"/>
<stop offset="1" stop-color="#A8B1ED"/>
</linearGradient>
<linearGradient id="paint10_linear_5223_9188" x1="657.5" y1="409.333" x2="1000.5" y2="409.333" gradientUnits="userSpaceOnUse">
<stop stop-color="#E3FFD1"/>
<stop offset="1" stop-color="#A8B1ED"/>
</linearGradient>
<linearGradient id="paint11_linear_5223_9188" x1="740.5" y1="336.333" x2="1075.5" y2="336.333" gradientUnits="userSpaceOnUse">
<stop stop-color="#E3FFD1"/>
<stop offset="1" stop-color="#A8B1ED"/>
</linearGradient>
<linearGradient id="paint12_linear_5223_9188" x1="808.502" y1="407.948" x2="1120.44" y2="190.811" gradientUnits="userSpaceOnUse">
<stop stop-color="#D7DDFF"/>
<stop offset="1" stop-color="#8691E2"/>
</linearGradient>
</defs>
</svg>
