<svg width="688" height="717" viewBox="0 0 688 717" fill="none" xmlns="http://www.w3.org/2000/svg">
<path d="M237.363 654.134H343.051V586.691" stroke="black" stroke-width="2" stroke-linecap="round" stroke-dasharray="6 6"/>
<path d="M615.094 632.886V659.205L677.19 713.9V689.226L615.094 632.886Z" fill="black"/>
<path d="M707.211 648.102L677.19 662.495V684.291L707.211 671.542V648.102Z" fill="black"/>
<path d="M707.211 648.102L615.094 632.886L677.19 689.226V684.291V662.495L707.211 648.102Z" fill="url(#paint0_linear_5244_10575)"/>
<path d="M615.094 632.886V659.205L677.19 713.9V689.226M615.094 632.886L707.211 648.102M615.094 632.886L677.19 689.226M707.211 648.102L677.19 662.495V684.291M707.211 648.102V671.542L677.19 684.291M677.19 689.226V684.291" stroke="black" stroke-width="2" stroke-linecap="round"/>
<path d="M237.336 645.733V661.668L199.741 694.783V679.844L237.336 645.733Z" fill="black"/>
<path d="M181.566 654.945L199.741 663.66V676.856L181.566 669.138V654.945Z" fill="black"/>
<path d="M181.566 654.945L237.336 645.733L199.741 679.844V676.856V663.66L181.566 654.945Z" fill="url(#paint1_linear_5244_10575)"/>
<path d="M181.566 654.945L237.336 645.733L199.741 679.844V676.856V663.66L181.566 654.945Z" fill="url(#paint2_linear_5244_10575)"/>
<path d="M237.336 645.733V661.668L199.741 694.783V679.844M237.336 645.733L181.566 654.945M237.336 645.733L199.741 679.844M181.566 654.945L199.741 663.66V676.856M181.566 654.945V669.138L199.741 676.856M199.741 679.844V676.856" stroke="black" stroke-width="2" stroke-linecap="round"/>
<path d="M605.377 413.954L586.871 447.675L617.303 434.516H713.001C725.151 434.516 735.001 424.666 735.001 412.516V379.614C735.001 367.464 725.151 357.614 713.001 357.614H627.377C615.226 357.614 605.377 367.464 605.377 379.614V413.954Z" fill="#D0D5F5"/>
<path d="M605.377 413.954L586.871 447.675L617.303 434.516H713.001C725.151 434.516 735.001 424.666 735.001 412.516V379.614C735.001 367.464 725.151 357.614 713.001 357.614H627.377C615.226 357.614 605.377 367.464 605.377 379.614V413.954Z" fill="#F1EFED"/>
<path d="M605.377 413.954L586.871 447.675L617.303 434.516H713.001C725.151 434.516 735.001 424.666 735.001 412.516V379.614C735.001 367.464 725.151 357.614 713.001 357.614H627.377C615.226 357.614 605.377 367.464 605.377 379.614V413.954Z" fill="url(#paint3_linear_5244_10575)" fill-opacity="0.2"/>
<path d="M605.377 413.954L586.871 447.675L617.303 434.516H713.001C725.151 434.516 735.001 424.666 735.001 412.516V379.614C735.001 367.464 725.151 357.614 713.001 357.614H627.377C615.226 357.614 605.377 367.464 605.377 379.614V413.954Z" fill="url(#paint4_radial_5244_10575)" fill-opacity="0.5"/>
<path d="M605.377 413.954L586.871 447.675L617.303 434.516H713.001C725.151 434.516 735.001 424.666 735.001 412.516V379.614C735.001 367.464 725.151 357.614 713.001 357.614H627.377C615.226 357.614 605.377 367.464 605.377 379.614V413.954Z" fill="url(#paint5_radial_5244_10575)" fill-opacity="0.05"/>
<path d="M605.377 413.954L586.871 447.675L617.303 434.516H713.001C725.151 434.516 735.001 424.666 735.001 412.516V379.614C735.001 367.464 725.151 357.614 713.001 357.614H627.377C615.226 357.614 605.377 367.464 605.377 379.614V413.954Z" fill="url(#paint6_linear_5244_10575)"/>
<path d="M632.107 381.055H694.615M630.873 393.803H651.846M656.781 393.803H684.334M630.873 407.785H694.615M586.871 447.675L605.377 413.954V379.614C605.377 367.464 615.226 357.614 627.377 357.614H713.001C725.151 357.614 735.001 367.464 735.001 379.614V412.516C735.001 424.666 725.151 434.516 713.001 434.516H617.303L586.871 447.675Z" stroke="black" stroke-width="2" stroke-linecap="round"/>
<path d="M595.029 257.852L594.475 257.386L593.86 257.766C586.42 262.365 577.651 265.019 568.26 265.019C541.33 265.019 519.5 243.189 519.5 216.26C519.5 189.33 541.33 167.5 568.26 167.5C595.189 167.5 617.019 189.33 617.019 216.26C617.019 227.861 612.969 238.514 606.204 246.885L605.957 247.19L605.984 247.582L607.402 268.261L595.029 257.852Z" fill="url(#paint7_linear_5244_10575)" stroke="black" stroke-width="2"/>
<path d="M554.772 228.506V210L546.136 219.253L554.772 228.506Z" fill="#F1EFED"/>
<path d="M554.772 210H537.5L546.136 219.253L554.772 210Z" fill="#F1EFED"/>
<path d="M537.5 228.506H554.772L546.136 219.253L537.5 228.506Z" fill="#F1EFED"/>
<path d="M537.5 210V228.506L546.136 219.253L537.5 210Z" fill="#F1EFED"/>
<path d="M562.997 212.467H600.419M562.997 221.515H582.325M537.5 210V228.506M537.5 210H554.772M537.5 210L546.136 219.253M537.5 228.506H554.772M537.5 228.506L546.136 219.253M554.772 228.506V210M554.772 228.506L546.136 219.253M554.772 210L546.136 219.253" stroke="black" stroke-width="2" stroke-linecap="round"/>
<path fill-rule="evenodd" clip-rule="evenodd" d="M225.847 489.929H190.069V544.212H225.847V489.929Z" fill="black"/>
<path fill-rule="evenodd" clip-rule="evenodd" d="M320.955 563.952C323.164 563.952 324.955 562.161 324.955 559.952V461.965H174.031V559.952C174.031 562.161 175.822 563.952 178.031 563.952H320.955ZM225.847 489.929H190.069V544.212H225.847V489.929Z" fill="black"/>
<path d="M324.955 455.273C324.955 453.064 323.164 451.273 320.955 451.273H178.031C175.822 451.273 174.031 453.064 174.031 455.273V461.965H324.955V455.273Z" fill="black"/>
<path d="M190.069 489.929H225.847M190.069 489.929V544.212M190.069 489.929L225.847 544.212M225.847 489.929V544.212M225.847 489.929L190.069 544.212M225.847 544.212H190.069M244.764 497.742H301.103M301.103 511.724H244.764M244.764 527.351H271.494M174.031 461.965V559.952C174.031 562.161 175.822 563.952 178.031 563.952H320.955C323.164 563.952 324.955 562.161 324.955 559.952V461.965M174.031 461.965V455.273C174.031 453.064 175.822 451.273 178.031 451.273H320.955C323.164 451.273 324.955 453.064 324.955 455.273V461.965M174.031 461.965H324.955" stroke="black" stroke-width="2" stroke-linecap="round"/>
<path fill-rule="evenodd" clip-rule="evenodd" d="M228.73 486.622H192.952V540.905H228.73V486.622Z" fill="#F1EFED"/>
<path fill-rule="evenodd" clip-rule="evenodd" d="M323.838 560.644C326.047 560.644 327.838 558.853 327.838 556.644V458.657H176.914V556.644C176.914 558.853 178.705 560.644 180.914 560.644H323.838ZM228.73 486.622H192.952V540.905H228.73V486.622Z" fill="#F1EFED"/>
<path fill-rule="evenodd" clip-rule="evenodd" d="M323.838 560.644C326.047 560.644 327.838 558.853 327.838 556.644V458.657H176.914V556.644C176.914 558.853 178.705 560.644 180.914 560.644H323.838ZM228.73 486.622H192.952V540.905H228.73V486.622Z" fill="url(#paint8_linear_5244_10575)" fill-opacity="0.15"/>
<path fill-rule="evenodd" clip-rule="evenodd" d="M323.838 560.644C326.047 560.644 327.838 558.853 327.838 556.644V458.657H176.914V556.644C176.914 558.853 178.705 560.644 180.914 560.644H323.838ZM228.73 486.622H192.952V540.905H228.73V486.622Z" fill="url(#paint9_linear_5244_10575)"/>
<path d="M327.838 451.965C327.838 449.756 326.047 447.965 323.838 447.965H180.914C178.705 447.965 176.914 449.756 176.914 451.965V458.657H327.838V451.965Z" fill="#F1EFED"/>
<path d="M192.952 486.622H228.73M192.952 486.622V540.905M192.952 486.622L228.73 540.905M228.73 486.622V540.905M228.73 486.622L192.952 540.905M228.73 540.905H192.952M247.647 494.435H303.986M303.986 508.417H247.647M247.647 524.044H274.377M176.914 458.657V556.644C176.914 558.853 178.705 560.644 180.914 560.644H323.838C326.047 560.644 327.838 558.853 327.838 556.644V458.657M176.914 458.657V451.965C176.914 449.756 178.705 447.965 180.914 447.965H323.838C326.047 447.965 327.838 449.756 327.838 451.965V458.657M176.914 458.657H327.838" stroke="black" stroke-width="2" stroke-linecap="round"/>
<circle cx="182.672" cy="452.9" r="1.64495" fill="black"/>
<circle cx="188.43" cy="452.901" r="1.64495" fill="black"/>
<circle cx="194.188" cy="452.901" r="1.64495" fill="black"/>
<path d="M297.816 492.258V620.564H478.349V492.258H297.816Z" fill="url(#paint10_linear_5244_10575)" stroke="black" stroke-width="2" stroke-linecap="round"/>
<path d="M479.174 585.228H478.174V586.228V607.347H311.156V492.556H320.848H321.848V491.556V479.396H492.956L490.534 585.228H479.174Z" fill="black" stroke="black" stroke-width="2" stroke-linecap="round"/>
<path d="M316.734 474.164V602.469H497.267V474.164H316.734Z" fill="#A8B1ED" stroke="black" stroke-width="2" stroke-linecap="round"/>
<path d="M497.267 567.134H496.267V568.134V587.609H332.539V474.462H352.966H353.966V473.462V461.303H511.124L516.774 567.134H497.267Z" fill="black" stroke="black" stroke-width="2" stroke-linecap="round"/>
<path d="M341.504 453.602V581.907H517.83V453.602H341.504Z" fill="url(#paint11_linear_5244_10575)" stroke="black" stroke-width="2" stroke-linecap="round"/>
<path d="M517.83 546.572H516.83V547.572V567.047H358.859V453.901H365.262H366.262V452.901V440.741H537.392V546.572H517.83Z" fill="black" stroke="black" stroke-width="2" stroke-linecap="round"/>
<path d="M364.438 560.645V432.339H544.97V560.645H364.438Z" fill="url(#paint12_linear_5244_10575)"/>
<path d="M364.438 560.645V432.339M364.438 560.645H544.97M364.438 560.645L433.114 492.663M364.438 432.339H544.97M364.438 432.339L433.114 492.663M544.97 432.339V560.645M544.97 432.339L477.241 493.202M544.97 560.645L477.241 493.202M477.241 493.202L455.732 512.53L433.114 492.663" stroke="black" stroke-width="2" stroke-linecap="round"/>
<path d="M545.383 500.192H651.071V432.75M415.5 44.5H240.5M240.5 44.5L255.5 29.5M240.5 44.5L255.5 59.5" stroke="black" stroke-width="2" stroke-linecap="round" stroke-dasharray="6 6"/>
<path d="M541.999 256.5L422.422 402.318V433.572" stroke="black" stroke-width="2" stroke-linecap="round" stroke-dasharray="6 6"/>
<path d="M615.293 646.593H509.605V579.15" stroke="black" stroke-width="2" stroke-linecap="round" stroke-dasharray="6 6"/>
<path d="M232.842 558.999L232.842 607.936L300.285 607.936M176.835 472.309L83.574 472.309L83.5739 415.861L-46.5007 415.861M-46.5007 415.861L-37.385 406.746M-46.5007 415.861L-37.385 424.977" stroke="black" stroke-width="2" stroke-linecap="round" stroke-dasharray="6 6"/>
<circle cx="650.657" cy="498.959" r="2.28989" fill="#F1EFED" stroke="black" stroke-width="2"/>
<circle cx="3.28989" cy="3.28989" r="2.28989" transform="matrix(1 0 0 -1 419.5 405.08)" fill="#F1EFED" stroke="black" stroke-width="2"/>
<circle cx="3.28989" cy="3.28989" r="2.28989" transform="matrix(1 0 0 -1 412.5 47.5796)" fill="#F1EFED" stroke="black" stroke-width="2"/>
<circle cx="3.28989" cy="3.28989" r="2.28989" transform="matrix(-1 0 0 1 513.305 642.069)" fill="#F1EFED" stroke="black" stroke-width="2"/>
<circle cx="3.28989" cy="3.28989" r="2.28989" transform="matrix(-1 0 0 1 346.078 616.256)" fill="#F1EFED" stroke="black" stroke-width="2"/>
<circle cx="3.28989" cy="3.28989" r="2.28989" transform="matrix(-1 0 0 1 346.078 650.524)" fill="#F1EFED" stroke="black" stroke-width="2"/>
<circle cx="3.28989" cy="3.28989" r="2.28989" transform="matrix(-1 0 0 1 241.258 651.196)" fill="#F1EFED" stroke="black" stroke-width="2"/>
<circle cx="234.077" cy="607.525" r="2.28989" transform="rotate(90 234.077 607.525)" fill="#F1EFED" stroke="black" stroke-width="2"/>
<circle cx="545.384" cy="500.603" r="2.28989" fill="#F1EFED" stroke="black" stroke-width="2"/>
<circle cx="3.28989" cy="3.28989" r="2.28989" transform="matrix(1 0 0 -1 538.5 260.08)" fill="#F1EFED" stroke="black" stroke-width="2"/>
<circle cx="3.28989" cy="3.28989" r="2.28989" transform="matrix(-1 0 0 1 618.582 643.714)" fill="#F1EFED" stroke="black" stroke-width="2"/>
<circle cx="232.843" cy="560.523" r="2.28989" transform="rotate(90 232.843 560.523)" fill="#F1EFED" stroke="black" stroke-width="2"/>
<circle cx="177.323" cy="472.093" r="2.28989" transform="rotate(90 177.323 472.093)" fill="#F1EFED" stroke="black" stroke-width="2"/>
<circle cx="83.3585" cy="472.093" r="2.28989" transform="rotate(90 83.3585 472.093)" fill="#F1EFED" stroke="black" stroke-width="2"/>
<circle cx="83.3585" cy="416.697" r="2.28989" transform="rotate(90 83.3585 416.697)" fill="#F1EFED" stroke="black" stroke-width="2"/>
<circle cx="651.481" cy="434.806" r="2.28989" fill="#F1EFED" stroke="black" stroke-width="2"/>
<circle cx="3.28989" cy="3.28989" r="2.28989" transform="matrix(1 0 0 -1 419.543 434.806)" fill="#F1EFED" stroke="black" stroke-width="2"/>
<circle cx="3.28989" cy="3.28989" r="2.28989" transform="matrix(-1 0 0 1 512.484 577.916)" fill="#F1EFED" stroke="black" stroke-width="2"/>
<circle cx="298.23" cy="608.348" r="2.28989" transform="rotate(90 298.23 608.348)" fill="#F1EFED" stroke="black" stroke-width="2"/>
<path d="M669.019 569.586L680.08 558.165L671.282 560.674L671.271 560.664L671.269 560.671L669.012 569.561L669.019 569.586Z" fill="black"/>
<path d="M680.08 558.165L675.808 542.851L671.271 560.664L671.282 560.674L680.08 558.165Z" fill="#F1EFED"/>
<path d="M675.808 542.851L664.746 554.272L671.271 560.664L675.808 542.851Z" fill="#F1EFED"/>
<path d="M671.269 560.671L671.271 560.664L664.746 554.272L669.012 569.561L671.269 560.671Z" fill="#F1EFED"/>
<path d="M664.746 554.272L675.808 542.851M664.746 554.272L669.012 569.561M664.746 554.272L671.271 560.664M675.808 542.851L680.08 558.165M675.808 542.851L671.271 560.664M680.08 558.165L669.019 569.586L669.012 569.561M680.08 558.165L671.282 560.674L671.271 560.664M669.006 569.583L669.012 569.561M671.271 560.664L671.269 560.671L669.012 569.561" stroke="black" stroke-width="2" stroke-miterlimit="10" stroke-linecap="round" stroke-linejoin="round"/>
<path d="M536.652 401.167L561.399 375.615L541.715 381.229L541.691 381.206L541.687 381.222L536.637 401.111L536.652 401.167Z" fill="black"/>
<path d="M561.399 375.615L551.84 341.354L541.691 381.206L541.715 381.229L561.399 375.615Z" fill="#F1EFED"/>
<path d="M551.84 341.354L527.094 366.906L541.691 381.206L551.84 341.354Z" fill="#F1EFED"/>
<path d="M541.687 381.222L541.691 381.206L527.094 366.906L536.637 401.111L541.687 381.222Z" fill="#F1EFED"/>
<path d="M527.094 366.906L551.84 341.354M527.094 366.906L536.637 401.111M527.094 366.906L541.691 381.206M551.84 341.354L561.399 375.615M551.84 341.354L541.691 381.206M561.399 375.615L536.652 401.167L536.637 401.111M561.399 375.615L541.715 381.229L541.691 381.206M536.624 401.16L536.637 401.111M541.691 381.206L541.687 381.222L536.637 401.111" stroke="black" stroke-width="2" stroke-miterlimit="10" stroke-linecap="round" stroke-linejoin="round"/>
<path d="M120.149 606.68L143.575 582.491L124.941 587.806L124.919 587.784L124.915 587.799L120.134 606.627L120.149 606.68Z" fill="black"/>
<path d="M143.575 582.491L134.526 550.058L124.919 587.784L124.941 587.806L143.575 582.491Z" fill="#F1EFED"/>
<path d="M134.526 550.058L111.1 574.247L124.919 587.784L134.526 550.058Z" fill="#F1EFED"/>
<path d="M124.915 587.799L124.919 587.784L111.1 574.247L120.134 606.627L124.915 587.799Z" fill="#F1EFED"/>
<path d="M111.1 574.247L134.526 550.058M111.1 574.247L120.134 606.627M111.1 574.247L124.919 587.784M134.526 550.058L143.575 582.491M134.526 550.058L124.919 587.784M143.575 582.491L120.149 606.68L120.134 606.627M143.575 582.491L124.941 587.806L124.919 587.784M120.122 606.673L120.134 606.627M124.919 587.784L124.915 587.799L120.134 606.627" stroke="black" stroke-width="2" stroke-miterlimit="10" stroke-linecap="round" stroke-linejoin="round"/>
<path d="M139.126 437.723L129.135 425.868L134.407 411.29L144.399 423.144L139.126 437.723Z" fill="black"/>
<path d="M159.68 420.427L154.408 435.006L139.144 437.73L144.416 423.151L159.68 420.427Z" fill="#F1EFED"/>
<path d="M159.68 420.427L144.416 423.151L134.425 411.296L149.689 408.572L159.68 420.427Z" fill="#F1EFED"/>
<path d="M159.68 420.427L154.408 435.006L139.144 437.73L144.416 423.151M159.68 420.427L144.416 423.151M159.68 420.427L149.689 408.572L134.425 411.296L144.416 423.151M139.126 437.723L129.135 425.868L134.407 411.29L144.399 423.144L139.126 437.723Z" stroke="black" stroke-width="2" stroke-miterlimit="10" stroke-linecap="round" stroke-linejoin="round"/>
<path d="M635.126 33.7232L625.135 21.8684L630.407 7.28951L640.399 19.1443L635.126 33.7232Z" fill="black"/>
<path d="M655.68 16.4266L650.408 31.0055L635.144 33.7296L640.416 19.1507L655.68 16.4266Z" fill="#F1EFED"/>
<path d="M655.68 16.4266L640.416 19.1507L630.425 7.29586L645.689 4.57182L655.68 16.4266Z" fill="#F1EFED"/>
<path d="M655.68 16.4266L650.408 31.0055L635.144 33.7296L640.416 19.1507M655.68 16.4266L640.416 19.1507M655.68 16.4266L645.689 4.57182L630.425 7.29586L640.416 19.1507M635.126 33.7232L625.135 21.8684L630.407 7.28951L640.399 19.1443L635.126 33.7232Z" stroke="black" stroke-width="2" stroke-miterlimit="10" stroke-linecap="round" stroke-linejoin="round"/>
<path d="M542.68 694.818L537.835 689.069L540.392 682L545.237 687.748L542.68 694.818Z" fill="black"/>
<path d="M552.647 686.43L550.091 693.5L542.689 694.821L545.246 687.751L552.647 686.43Z" fill="#F1EFED"/>
<path d="M552.647 686.43L545.246 687.751L540.4 682.003L547.802 680.682L552.647 686.43Z" fill="#F1EFED"/>
<path d="M552.647 686.43L550.091 693.5L542.689 694.821L545.246 687.751M552.647 686.43L545.246 687.751M552.647 686.43L547.802 680.682L540.4 682.003L545.246 687.751M542.68 694.818L537.835 689.069L540.392 682L545.237 687.748L542.68 694.818Z" stroke="black" stroke-width="2" stroke-miterlimit="10" stroke-linecap="round" stroke-linejoin="round"/>
<path d="M606.325 372.575L601.48 366.827L604.036 359.757L608.882 365.506L606.325 372.575Z" fill="black"/>
<path d="M616.292 364.188L613.735 371.257L606.333 372.578L608.89 365.509L616.292 364.188Z" fill="#F1EFED"/>
<path d="M616.292 364.188L608.89 365.509L604.045 359.76L611.447 358.439L616.292 364.188Z" fill="#F1EFED"/>
<path d="M616.292 364.188L613.735 371.257L606.333 372.578L608.89 365.509M616.292 364.188L608.89 365.509M616.292 364.188L611.447 358.439L604.045 359.76L608.89 365.509M606.325 372.575L601.48 366.827L604.036 359.757L608.882 365.506L606.325 372.575Z" stroke="black" stroke-width="2" stroke-miterlimit="10" stroke-linecap="round" stroke-linejoin="round"/>
<path d="M318.649 627.169L313.804 621.42L316.361 614.35L321.206 620.099L318.649 627.169Z" fill="black"/>
<path d="M328.616 618.781L326.059 625.851L318.658 627.172L321.214 620.102L328.616 618.781Z" fill="#F1EFED"/>
<path d="M328.616 618.781L321.214 620.102L316.369 614.353L323.771 613.032L328.616 618.781Z" fill="#F1EFED"/>
<path d="M328.616 618.781L326.059 625.851L318.658 627.172L321.214 620.102M328.616 618.781L321.214 620.102M328.616 618.781L323.771 613.032L316.369 614.353L321.214 620.102M318.649 627.169L313.804 621.42L316.361 614.35L321.206 620.099L318.649 627.169Z" stroke="black" stroke-width="2" stroke-miterlimit="10" stroke-linecap="round" stroke-linejoin="round"/>
<path d="M429.719 670.033C429.033 672.775 429.061 678.258 434.654 678.258C441.645 678.258 435.065 670.033 441.234 670.033C447.402 670.033 443.29 678.258 447.814 678.258C452.337 678.258 449.459 670.033 455.627 670.033C461.796 670.033 459.328 677.024 463.441 677.024C466.731 677.024 467.827 672.363 467.964 670.033" stroke="black" stroke-width="2" stroke-linecap="round"/>
<path d="M252.805 402.142C252.119 404.884 252.147 410.367 257.74 410.367C264.731 410.367 258.151 402.142 264.32 402.142C270.488 402.142 266.376 410.367 270.9 410.367C275.423 410.367 272.545 402.142 278.713 402.142C284.882 402.142 282.414 409.133 286.527 409.133C289.817 409.133 290.913 404.472 291.05 402.142" stroke="black" stroke-width="2" stroke-linecap="round"/>
<path d="M595.964 570.103L581.982 596.833L578.281 595.599L578.692 597.655L583.216 599.3L596.787 572.57L595.964 570.103Z" fill="black"/>
<path d="M592.263 568.046L578.281 595.599L581.982 596.833L595.964 570.103L592.263 568.046Z" fill="#F1EFED"/>
<path d="M578.281 595.599L592.263 568.046L595.964 570.103M578.281 595.599L581.982 596.833L595.964 570.103M578.281 595.599L578.692 597.655L583.216 599.3L596.787 572.57L595.964 570.103" stroke="black" stroke-width="2" stroke-linecap="round"/>
<path d="M327.753 377.056L313.771 403.787L310.07 402.553L310.482 404.609L315.005 406.254L328.576 379.524L327.753 377.056Z" fill="black"/>
<path d="M324.052 375L310.07 402.553L313.771 403.787L327.753 377.056L324.052 375Z" fill="#F1EFED"/>
<path d="M310.07 402.553L324.052 375L327.753 377.056M310.07 402.553L313.771 403.787L327.753 377.056M310.07 402.553L310.482 404.609L315.005 406.254L328.576 379.524L327.753 377.056" stroke="black" stroke-width="2" stroke-linecap="round"/>
<path d="M383.922 677.941L395.449 651.819L395.449 648.613L383.922 672.94L374.619 657.562L373.305 660.735L383.922 677.941Z" fill="black"/>
<path d="M395.449 648.613L374.619 657.562L383.922 672.94L395.449 648.613Z" fill="#F1EFED"/>
<path d="M374.619 657.562L395.449 648.613M374.619 657.562L373.305 660.735L383.922 677.941L395.449 651.819L395.449 648.613M374.619 657.562L383.922 672.94L395.449 648.613" stroke="black" stroke-width="2" stroke-linecap="round"/>
<defs>
<linearGradient id="paint0_linear_5244_10575" x1="630.716" y1="780.373" x2="766.34" y2="717.478" gradientUnits="userSpaceOnUse">
<stop stop-color="#CDD2F2"/>
<stop offset="1" stop-color="#5869DD"/>
</linearGradient>
<linearGradient id="paint1_linear_5244_10575" x1="227.878" y1="735.03" x2="145.767" y2="696.954" gradientUnits="userSpaceOnUse">
<stop stop-color="#CDD2F2"/>
<stop offset="1" stop-color="#5869DD"/>
</linearGradient>
<linearGradient id="paint2_linear_5244_10575" x1="228.809" y1="694.589" x2="147.081" y2="675.216" gradientUnits="userSpaceOnUse">
<stop stop-color="#CDD2F2"/>
<stop offset="1" stop-color="#D6FFBB"/>
</linearGradient>
<linearGradient id="paint3_linear_5244_10575" x1="591.568" y1="409.423" x2="706.871" y2="412.484" gradientUnits="userSpaceOnUse">
<stop stop-color="#5869DD" stop-opacity="0.5"/>
<stop offset="1" stop-color="#5869DD"/>
</linearGradient>
<radialGradient id="paint4_radial_5244_10575" cx="0" cy="0" r="1" gradientUnits="userSpaceOnUse" gradientTransform="translate(601.697 378.435) rotate(30.6797) scale(24.1986 40.1173)">
<stop offset="0.227212" stop-color="#F1EFED"/>
<stop offset="1" stop-color="#F1EFED" stop-opacity="0"/>
</radialGradient>
<radialGradient id="paint5_radial_5244_10575" cx="0" cy="0" r="1" gradientUnits="userSpaceOnUse" gradientTransform="translate(691.482 408.939) rotate(141.291) scale(31.7447 45.0564)">
<stop offset="0.227212" stop-color="#5869DD"/>
<stop offset="1" stop-color="#5869DD" stop-opacity="0"/>
</radialGradient>
<linearGradient id="paint6_linear_5244_10575" x1="605.231" y1="447.319" x2="777.76" y2="399.358" gradientUnits="userSpaceOnUse">
<stop stop-color="#CDD2F2"/>
<stop offset="1" stop-color="#D6FFBB"/>
</linearGradient>
<linearGradient id="paint7_linear_5244_10575" x1="533.716" y1="270.132" x2="681.86" y2="240.588" gradientUnits="userSpaceOnUse">
<stop stop-color="#CDD2F2"/>
<stop offset="1" stop-color="#D6FFBB"/>
</linearGradient>
<linearGradient id="paint8_linear_5244_10575" x1="245.895" y1="560.644" x2="274.128" y2="455.15" gradientUnits="userSpaceOnUse">
<stop stop-color="#5869DD"/>
<stop offset="1" stop-color="#5869DD" stop-opacity="0.3"/>
</linearGradient>
<linearGradient id="paint9_linear_5244_10575" x1="311.8" y1="457.424" x2="176.914" y2="551.186" gradientUnits="userSpaceOnUse">
<stop stop-color="#A8B1ED" stop-opacity="0"/>
<stop offset="1" stop-color="#A8B1ED"/>
</linearGradient>
<linearGradient id="paint10_linear_5244_10575" x1="297.816" y1="556.411" x2="478.349" y2="556.411" gradientUnits="userSpaceOnUse">
<stop stop-color="#E3FFD1"/>
<stop offset="1" stop-color="#A8B1ED"/>
</linearGradient>
<linearGradient id="paint11_linear_5244_10575" x1="341.504" y1="517.754" x2="517.83" y2="517.754" gradientUnits="userSpaceOnUse">
<stop stop-color="#E3FFD1"/>
<stop offset="1" stop-color="#A8B1ED"/>
</linearGradient>
<linearGradient id="paint12_linear_5244_10575" x1="377.597" y1="555.71" x2="541.68" y2="441.386" gradientUnits="userSpaceOnUse">
<stop stop-color="#D7DDFF"/>
<stop offset="1" stop-color="#8691E2"/>
</linearGradient>
</defs>
</svg>
