<svg width="1340" height="498" viewBox="0 0 1340 498" fill="none" xmlns="http://www.w3.org/2000/svg">
<path opacity="0.05" d="M0.5 -32L54.7857 -32M0.5 -32L0.5 -1.5M0.5 -32L1520.5 -32M54.7857 -32L109.071 -32M54.7857 -32L54.7857 -1.5M109.071 -32L163.357 -32M109.071 -32V-1.5M163.357 -32L217.643 -32M163.357 -32V-1.5M217.643 -32L271.929 -32M217.643 -32V-1.5M271.929 -32L326.214 -32M271.929 -32V-1.5M326.214 -32L380.5 -32M326.214 -32V-1.50001M380.5 -32L434.786 -32M380.5 -32V-1.50001M434.786 -32L489.071 -32M434.786 -32V-1.50001M489.071 -32L543.357 -32M489.071 -32V-1.50001M543.357 -32L597.643 -32M543.357 -32V-1.50001M597.643 -32L651.928 -32M597.643 -32V-1.50001M651.928 -32L706.214 -32M651.928 -32V-1.50001M706.214 -32L760.5 -32M706.214 -32V-1.50002M760.5 -32L814.786 -32M760.5 -32V-1.50002M814.786 -32L869.071 -32M814.786 -32V-1.50002M869.071 -32L923.357 -32M869.071 -32V-1.50002M923.357 -32L977.643 -32M923.357 -32V-1.50002M977.643 -32L1031.93 -32M977.643 -32V-1.50002M1031.93 -32L1086.21 -32M1031.93 -32V-1.50002M1086.21 -32L1140.5 -32M1086.21 -32V-1.50003M1140.5 -32L1194.79 -32M1140.5 -32V-1.50003M1194.79 -32L1249.07 -32M1194.79 -32V-1.50003M1249.07 -32L1303.36 -32M1249.07 -32V-1.50003M1303.36 -32L1357.64 -32M1303.36 -32V-1.50003M1357.64 -32L1411.93 -32M1357.64 -32V-1.50003M1411.93 -32L1466.21 -32M1411.93 -32V-1.50004M1466.21 -32L1520.5 -32M1466.21 -32V-1.50004M1520.5 -32L1520.5 -1.50004M0.5 -1.5L0.5 29M0.5 -1.5L54.7857 -1.5M1520.5 -1.50004V29M1520.5 -1.50004L1466.21 -1.50004M0.5 29L0.5 59.5M0.5 29L54.7857 29M1520.5 29V59.5M1520.5 29L1466.21 29M0.5 59.5L0.5 90M0.5 59.5L54.7857 59.5M1520.5 59.5V90M1520.5 59.5L1466.21 59.5M0.5 90L0.5 120.5M0.5 90L54.7857 90M1520.5 90V120.5M1520.5 90L1466.21 90M0.5 120.5L0.5 151M0.5 120.5H54.7857M1520.5 120.5V151M1520.5 120.5H1466.21M0.5 151L0.5 181.5M0.5 151H54.7857M1520.5 151V181.5M1520.5 151H1466.21M0.5 181.5L0.5 212M0.5 181.5H54.7857M1520.5 181.5V212M1520.5 181.5H1466.21M0.5 212L0.5 242.5M0.5 212H54.7857M1520.5 212V242.5M1520.5 212H1466.21M0.5 242.5L0.5 273M0.5 242.5H54.7857M1520.5 242.5V273M1520.5 242.5L1466.21 242.5M0.5 273L0.5 303.5M0.5 273H54.7857M1520.5 273V303.5M1520.5 273L1466.21 273M0.5 303.5L0.5 334M0.5 303.5H54.7857M1520.5 303.5V334M1520.5 303.5L1466.21 303.5M0.5 334L0.5 364.5M0.5 334H54.7857M1520.5 334V364.5M1520.5 334L1466.21 334M0.5 364.5L0.5 395M0.5 364.5H54.7857M1520.5 364.5V395M1520.5 364.5L1466.21 364.5M0.5 395L0.5 425.5M0.5 395H54.7857M1520.5 395V425.5M1520.5 395L1466.21 395M0.5 425.5L0.5 456M0.5 425.5H54.7857M1520.5 425.5V456M1520.5 425.5L1466.21 425.5M0.5 456L0.5 486.5M0.5 456H54.7857M1520.5 456V486.5M1520.5 456L1466.21 456M0.5 486.5L0.5 517H54.7857M0.5 486.5H54.7857M1520.5 486.5V517L1466.21 517M1520.5 486.5L1466.21 486.5M54.7857 -1.5V29M54.7857 -1.5L109.071 -1.5M54.7857 29L109.071 29M54.7857 29L54.7857 59.5M109.071 29L109.071 -1.5M109.071 29L163.357 29M109.071 29V59.5M109.071 -1.5L163.357 -1.5M163.357 -1.5V29M163.357 -1.5L217.643 -1.5M163.357 29L217.643 29M163.357 29V59.5M217.643 29V-1.5M217.643 29L271.929 29M217.643 29V59.5M217.643 -1.5L271.929 -1.5M271.929 -1.5V29M271.929 -1.5L326.214 -1.50001M271.929 29L326.214 29M271.929 29V59.5M326.214 29V-1.50001M326.214 29L380.5 29M326.214 29V59.5M326.214 -1.50001L380.5 -1.50001M380.5 -1.50001V29M380.5 -1.50001L434.786 -1.50001M380.5 29L434.786 29M380.5 29V59.5M434.786 29V-1.50001M434.786 29L489.071 29M434.786 29V59.5M434.786 -1.50001L489.071 -1.50001M489.071 -1.50001V29M489.071 -1.50001L543.357 -1.50001M489.071 29L543.357 29M489.071 29V59.5M543.357 29V-1.50001M543.357 29L597.643 29M543.357 29V59.5M543.357 -1.50001L597.643 -1.50001M597.643 -1.50001V29M597.643 -1.50001L651.928 -1.50001M597.643 29V59.5M597.643 29L651.928 29M543.357 59.5L597.643 59.5M543.357 59.5L489.071 59.5M543.357 59.5V90M597.643 59.5V90M597.643 59.5L651.928 59.5M489.071 59.5H434.786M489.071 59.5V90M434.786 59.5V90M434.786 59.5L380.5 59.5M434.786 90H489.071M434.786 90V120.5M434.786 90L380.5 90M489.071 90L543.357 90M489.071 90V120.5M543.357 90L597.643 90M543.357 90V120.5M597.643 90V120.5M597.643 90L651.928 90M489.071 120.5H543.357M489.071 120.5V151M489.071 120.5L434.786 120.5M543.357 120.5H597.643M543.357 120.5V151M54.7857 59.5L109.071 59.5M54.7857 59.5V90M109.071 59.5H163.357M109.071 59.5V90M163.357 59.5L217.643 59.5M163.357 59.5L163.357 90M54.7857 517V486.5M54.7857 517H109.071M54.7857 486.5H109.071M54.7857 486.5L54.7857 456M109.071 517L109.071 486.5M109.071 517H163.357M109.071 486.5H163.357M109.071 486.5V456M163.357 517V486.5M163.357 517H217.643M163.357 486.5H217.643M163.357 486.5V456M217.643 517V486.5M217.643 517L271.929 517M217.643 486.5L271.929 486.5M217.643 486.5V456M271.929 517V486.5M271.929 517H326.214M271.929 486.5H326.214M271.929 486.5V456M326.214 517V486.5M326.214 517H380.5M326.214 486.5H380.5M326.214 486.5V456M380.5 517V486.5M380.5 517H434.786M380.5 486.5H434.786M380.5 486.5V456M434.786 517V486.5M434.786 517H489.071M434.786 486.5H489.071M434.786 486.5V456M489.071 517V486.5M489.071 517H543.357M489.071 486.5H543.357M489.071 486.5V425.5M543.357 517V486.5M543.357 517H597.643M543.357 486.5H597.643M543.357 486.5V456M597.643 517V486.5M597.643 517H651.928M597.643 486.5H651.928M597.643 486.5V456M651.928 517V486.5M651.928 517H706.214M651.928 486.5H706.214M651.928 486.5V456M706.214 517V486.5M706.214 517H760.5M706.214 486.5H760.5M706.214 486.5V456M760.5 517V486.5M760.5 517L814.786 517M760.5 486.5L814.786 486.5M760.5 486.5V456M814.786 517V486.5M814.786 517H869.071M814.786 486.5H869.071M814.786 486.5V456M869.071 517V486.5M869.071 517H923.357M869.071 486.5H923.357M869.071 486.5V456M923.357 517V486.5M923.357 517H977.643M923.357 486.5H977.643M923.357 486.5V456M977.643 517V486.5M977.643 517H1031.93M977.643 486.5H1031.93M977.643 486.5V456M1031.93 517V486.5M1031.93 517H1086.21M1031.93 486.5H1086.21M1031.93 486.5V456M1086.21 486.5V517M1086.21 486.5H1140.5M1086.21 486.5V456M1086.21 517H1140.5M1140.5 517V486.5M1140.5 517H1194.79M1140.5 486.5H1194.79M1140.5 486.5V456M1194.79 517V486.5M1194.79 517H1249.07M1194.79 486.5H1249.07M1194.79 486.5V456M1249.07 517V486.5M1249.07 517H1303.36M1249.07 486.5H1303.36M1249.07 486.5V456M1303.36 517V486.5M1303.36 517L1357.64 517M1303.36 486.5L1357.64 486.5M1303.36 486.5V456M1357.64 517V486.5M1357.64 517H1411.93M1357.64 486.5H1411.93M1357.64 486.5V456M1411.93 517V486.5M1411.93 517H1466.21M1411.93 486.5H1466.21M1411.93 486.5V456M1466.21 517V486.5M1466.21 486.5V456M380.5 242.5H326.214M380.5 242.5V273M380.5 242.5L434.786 242.5M380.5 242.5V212M326.214 242.5V273M326.214 242.5H271.929M326.214 242.5V212M326.214 273H380.5M326.214 273H271.929M326.214 273V303.5M380.5 273L434.786 273M380.5 273V303.5M597.643 212H543.357M597.643 212V242.5M597.643 212L651.928 212M597.643 212V181.5M543.357 212V242.5M543.357 212L489.071 212M543.357 212V181.5M543.357 242.5H597.643M543.357 242.5V273M543.357 242.5H489.071M597.643 242.5H651.928M597.643 242.5V273M706.214 303.5L651.928 303.5M706.214 303.5V334M706.214 303.5H760.5M706.214 303.5V273M651.928 303.5V334M651.928 303.5V273M651.928 303.5H597.643M651.928 334L706.214 334M651.928 334V364.5M651.928 334L543.357 334M706.214 334V364.5M706.214 334H760.5M1140.5 303.5V273M1140.5 303.5L1086.21 303.5M1140.5 303.5V364.5M1140.5 303.5H1194.79M1140.5 273H1086.21M1140.5 273V242.5M1140.5 273H1194.79M1086.21 273V303.5M1086.21 273V242.5M1086.21 273H1031.93M1086.21 303.5H1031.93M1086.21 303.5V334M1249.07 181.5H1194.79M1249.07 181.5V212M1249.07 181.5V151M1249.07 181.5L1303.36 181.5M1194.79 181.5V212M1194.79 181.5H1140.5M1194.79 181.5V151M1194.79 212H1249.07M1194.79 212V242.5M1194.79 212H1140.5M1249.07 212V242.5M1249.07 212L1357.64 212M1411.93 242.5V273M1411.93 242.5H1466.21M1411.93 242.5H1357.64M1411.93 242.5V212M1411.93 273H1466.21M1411.93 273V303.5M1411.93 273H1357.64M1466.21 273V242.5M1466.21 273V303.5M1466.21 242.5V212M1357.64 303.5V334M1357.64 303.5H1411.93M1357.64 303.5V273M1357.64 303.5H1303.36M1357.64 334H1411.93M1357.64 334V364.5M1357.64 334H1303.36M1411.93 334V303.5M1411.93 334H1466.21M1411.93 334V364.5M1411.93 303.5H1466.21M1140.5 364.5H1086.21M1140.5 364.5V395M1140.5 364.5H1194.79M1086.21 364.5V395M1086.21 364.5V334M1086.21 364.5H1031.93M1086.21 395H1140.5M1086.21 395V425.5M1086.21 395H1031.93M1140.5 395V425.5M1140.5 395H1194.79M1140.5 425.5H1086.21M1140.5 425.5V456M1140.5 425.5H1194.79M1086.21 425.5V456M1086.21 425.5H1031.93M1086.21 456H1140.5M1086.21 456H1031.93M1140.5 456H1194.79M1194.79 425.5V456M1194.79 425.5L1249.07 425.5M1194.79 425.5V395M1194.79 456L1249.07 456M1249.07 456V425.5M1249.07 456H1303.36M1249.07 425.5V395M1249.07 425.5H1303.36M434.786 151L489.071 151M434.786 151V120.5M434.786 151L380.5 151M434.786 151V181.5M489.071 151V181.5M489.071 151H543.357M434.786 120.5L380.5 120.5M597.643 120.5L651.928 120.5M597.643 120.5V151M651.928 120.5V151M651.928 120.5H706.214M651.928 120.5V90M651.928 151H706.214M651.928 151L597.643 151M651.928 151V181.5M706.214 151V120.5M706.214 151V181.5M706.214 151L760.5 151M706.214 120.5V90M706.214 120.5L760.5 120.5M760.5 212V181.5M760.5 212L706.214 212M760.5 212H814.786M760.5 212V242.5M760.5 181.5L706.214 181.5M760.5 181.5V151M760.5 181.5L869.071 181.5M706.214 181.5V212M706.214 181.5L651.928 181.5M706.214 212V242.5M706.214 212H651.928M814.786 212V242.5M814.786 212L869.071 212M814.786 212V151M814.786 242.5H869.071M814.786 242.5V273M814.786 242.5H760.5M869.071 242.5V212M869.071 242.5V273M869.071 242.5H923.357M869.071 212H923.357M869.071 212V181.5M923.357 120.5V151M923.357 120.5H977.643M923.357 120.5V90M923.357 120.5H869.071M923.357 151H977.643M923.357 151H869.071M923.357 151V181.5M977.643 151V120.5M977.643 151L1031.93 151M977.643 151V181.5M977.643 120.5V90M977.643 120.5L1031.93 120.5M977.643 90L923.357 90M977.643 90V59.5M977.643 90H1031.93M923.357 90L869.071 90M923.357 90V59.5M1086.21 90V120.5M1086.21 90L1140.5 90M1086.21 90V59.5M1086.21 90L1031.93 90M1086.21 120.5L1140.5 120.5M1086.21 120.5V151M1086.21 120.5H1031.93M1140.5 120.5V90M1140.5 120.5H1194.79M1140.5 120.5V151M1140.5 90L1194.79 90M1140.5 90V59.5M1194.79 90V120.5M1194.79 90L1249.07 90M1194.79 90V59.5M1194.79 120.5H1249.07M1194.79 120.5V151M1249.07 120.5V90M1249.07 120.5L1303.36 120.5M1249.07 120.5V151M1249.07 90L1303.36 90M1249.07 90V59.5M1303.36 120.5V90M1303.36 120.5H1357.64M1303.36 120.5V151M1303.36 90H1357.64M1303.36 90V29M1086.21 181.5L1140.5 181.5M1086.21 181.5V151M1086.21 181.5H1031.93M1086.21 181.5V212M1140.5 181.5V151M1140.5 181.5V212M1140.5 151L1086.21 151M1140.5 151H1194.79M1086.21 151H1031.93M1031.93 151V181.5M1031.93 151V120.5M1031.93 181.5L977.643 181.5M1031.93 181.5V212M923.357 303.5L977.643 303.5M923.357 303.5V273M923.357 303.5V334M923.357 303.5H869.071M977.643 303.5V273M977.643 303.5V334M977.643 303.5H1031.93M977.643 273L923.357 273M977.643 273H1031.93M977.643 273V242.5M923.357 273H869.071M923.357 273V242.5M923.357 334L977.643 334M923.357 334H869.071M923.357 334V364.5M977.643 334H1031.93M977.643 334V364.5M814.786 395H869.071M814.786 395V364.5M814.786 395H760.5M814.786 395V425.5M869.071 395V364.5M869.071 395H923.357M869.071 395V425.5M869.071 364.5H814.786M869.071 364.5V334M869.071 364.5H923.357M814.786 364.5H760.5M814.786 364.5V334M760.5 364.5V395M760.5 364.5H706.214M760.5 364.5V334M760.5 395H706.214M760.5 395V425.5M651.928 364.5V395M651.928 364.5L706.214 364.5M651.928 364.5H597.643M651.928 395L706.214 395M651.928 395H597.643M651.928 395V425.5M706.214 395V364.5M706.214 395V425.5M543.357 364.5V395M543.357 364.5H597.643M543.357 364.5H489.071M543.357 364.5V334M543.357 395H597.643M543.357 395V425.5M543.357 395H489.071M597.643 395V364.5M597.643 395V425.5M597.643 364.5V303.5M489.071 425.5H543.357M489.071 425.5V395M489.071 425.5H434.786M543.357 425.5H597.643M543.357 425.5L543.357 456M489.071 395H434.786M489.071 395V364.5M597.643 456H651.928M597.643 456L597.643 425.5M597.643 456H543.357M651.928 456L651.928 425.5M651.928 456L706.214 456M651.928 425.5H597.643M651.928 425.5L706.214 425.5M814.786 456L814.786 425.5M814.786 456H760.5M814.786 456H869.071M814.786 425.5H760.5M814.786 425.5H869.071M760.5 425.5L760.5 456M760.5 425.5H706.214M760.5 456H706.214M977.643 456L977.643 425.5M977.643 456L923.357 456M977.643 456H1031.93M977.643 425.5L923.357 425.5M977.643 425.5V395M977.643 425.5H1031.93M923.357 425.5L923.357 456M923.357 425.5V395M923.357 425.5H869.071M923.357 456H869.071M1031.93 425.5V395M1031.93 425.5V456M1031.93 395H977.643M1031.93 395V364.5M977.643 395L923.357 395M977.643 395V364.5M869.071 334V303.5M869.071 334H814.786M923.357 364.5V395M923.357 364.5L977.643 364.5M869.071 425.5L869.071 456M1194.79 395V364.5M1194.79 395L1249.07 395M1249.07 364.5L1194.79 364.5M1249.07 364.5V395M1249.07 364.5L1303.36 364.5M1249.07 364.5V334M1194.79 364.5V334M1249.07 395H1303.36M1357.64 425.5V395M1357.64 425.5H1303.36M1357.64 425.5H1411.93M1357.64 425.5V456M1357.64 395H1303.36M1357.64 395H1411.93M1357.64 395V364.5M1303.36 395V425.5M1303.36 395V364.5M1303.36 425.5V456M1411.93 425.5V395M1411.93 425.5V456M1411.93 425.5H1466.21M1411.93 395H1466.21M1411.93 395V364.5M1411.93 456H1357.64M1411.93 456H1466.21M1357.64 456H1303.36M1466.21 456V425.5M1466.21 425.5V395M1466.21 395V364.5M1466.21 364.5H1411.93M1466.21 364.5V334M1466.21 334V303.5M1411.93 364.5H1357.64M1357.64 364.5H1303.36M1303.36 334V364.5M1303.36 334H1249.07M1303.36 334V303.5M706.214 456L706.214 425.5M760.5 334V303.5M760.5 334H814.786M869.071 303.5H814.786M869.071 303.5V273M760.5 303.5H814.786M760.5 303.5V273M814.786 334V303.5M814.786 303.5V273M869.071 273H814.786M814.786 273H760.5M706.214 273H760.5M706.214 273V242.5M706.214 273L651.928 273M760.5 273V242.5M760.5 242.5H706.214M651.928 212V242.5M651.928 212V181.5M651.928 242.5L706.214 242.5M651.928 242.5V273M651.928 273H597.643M597.643 303.5V273M597.643 303.5H543.357M597.643 273H543.357M923.357 242.5V212M923.357 242.5L977.643 242.5M1086.21 242.5H1031.93M1086.21 242.5H1140.5M1086.21 242.5V212M1031.93 242.5V273M1031.93 242.5V212M1031.93 242.5H977.643M1031.93 273V303.5M1140.5 242.5H1194.79M1140.5 242.5V212M1194.79 273V242.5M1194.79 273L1249.07 273M1194.79 273V303.5M1194.79 242.5L1249.07 242.5M1249.07 242.5V273M1249.07 242.5L1303.36 242.5M1249.07 273L1303.36 273M1249.07 273V303.5M1303.36 273V242.5M1303.36 273H1357.64M1303.36 273V303.5M1303.36 242.5H1357.64M1303.36 242.5V181.5M1031.93 303.5V334M380.5 395V425.5M380.5 395L434.786 395M380.5 395H326.214M380.5 395V364.5M380.5 425.5L434.786 425.5M380.5 425.5V456M380.5 425.5H326.214M434.786 425.5V395M434.786 425.5V456M434.786 395V364.5M543.357 456H434.786M434.786 456L380.5 456M380.5 456H326.214M271.929 456H326.214M271.929 456H217.643M271.929 456V425.5M326.214 456V425.5M217.643 456H163.357M217.643 456V425.5M109.071 456L163.357 456M109.071 456H54.7857M109.071 456V425.5M163.357 456V425.5M54.7857 456V425.5M54.7857 425.5L54.7857 395M54.7857 425.5H109.071M54.7857 395V364.5M54.7857 395H109.071M54.7857 364.5L54.7857 334M54.7857 364.5H109.071M109.071 334H54.7857M109.071 334V364.5M109.071 334V303.5M109.071 334L163.357 334M54.7857 334V303.5M109.071 364.5L109.071 395M109.071 364.5L163.357 364.5M109.071 303.5H54.7857M109.071 303.5L163.357 303.5M109.071 303.5V273M54.7857 303.5L54.7857 273M163.357 334L163.357 303.5M163.357 334V364.5M163.357 334H217.643M163.357 303.5V273M163.357 303.5H217.643M109.071 273L163.357 273M109.071 273L109.071 242.5M109.071 273H54.7857M163.357 273V242.5M163.357 273H217.643M163.357 242.5L109.071 242.5M163.357 242.5V212M163.357 242.5H217.643M109.071 242.5H54.7857M109.071 242.5V212M109.071 212L54.7857 212M109.071 212V181.5M109.071 212H163.357M54.7857 212L54.7857 242.5M54.7857 212V181.5M54.7857 242.5V273M109.071 181.5L54.7857 181.5M109.071 181.5V151M109.071 181.5H163.357M54.7857 181.5L54.7857 151M109.071 151L54.7857 151M109.071 151L109.071 120.5M109.071 151H163.357M54.7857 151V120.5M109.071 90L54.7857 90M109.071 90V120.5M109.071 90H163.357M54.7857 90L54.7857 120.5M54.7857 120.5L109.071 120.5M109.071 120.5H163.357M109.071 425.5V395M109.071 425.5L163.357 425.5M109.071 395L163.357 395M217.643 425.5V395M217.643 425.5H163.357M217.643 425.5H271.929M217.643 395H163.357M217.643 395V364.5M217.643 395H271.929M163.357 395V425.5M163.357 395V364.5M217.643 364.5H163.357M217.643 364.5V334M217.643 364.5H271.929M217.643 334H271.929M217.643 334L217.643 303.5M163.357 181.5V212M163.357 181.5L217.643 181.5M163.357 181.5V151M163.357 212L217.643 212M217.643 212V181.5M217.643 212H271.929M217.643 212V242.5M217.643 181.5V151M217.643 181.5H271.929M163.357 151L217.643 151M163.357 151V120.5M217.643 151V120.5M217.643 151H271.929M217.643 120.5L163.357 120.5M217.643 120.5V90M217.643 120.5H271.929M163.357 120.5V90M217.643 59.5L217.643 90M217.643 59.5L271.929 59.5M163.357 90L217.643 90M217.643 90L271.929 90M271.929 59.5L326.214 59.5M271.929 59.5V90M326.214 59.5V90M326.214 59.5L380.5 59.5M271.929 120.5H326.214M271.929 120.5V90M271.929 120.5V151M326.214 120.5V90M326.214 120.5V151M326.214 120.5L380.5 120.5M326.214 90L271.929 90M326.214 90L380.5 90M271.929 181.5H326.214M271.929 181.5V151M271.929 181.5L271.929 212M326.214 181.5V151M326.214 181.5L326.214 212M326.214 181.5L380.5 181.5M326.214 151H271.929M326.214 151L380.5 151M271.929 242.5V212M271.929 242.5V273M271.929 242.5H217.643M326.214 212H271.929M326.214 212L380.5 212M271.929 273V303.5M271.929 273H217.643M326.214 364.5V334M326.214 364.5H271.929M326.214 364.5V395M326.214 364.5H380.5M326.214 334H271.929M326.214 334V303.5M326.214 334H380.5M271.929 334V364.5M271.929 334V303.5M271.929 364.5V395M326.214 395L271.929 395M326.214 395V425.5M271.929 395V425.5M271.929 425.5H326.214M326.214 303.5H271.929M326.214 303.5H380.5M271.929 303.5H217.643M217.643 273V303.5M217.643 273V242.5M380.5 59.5V90M380.5 90V120.5M380.5 120.5V151M380.5 151V181.5M434.786 181.5H380.5M434.786 181.5L434.786 212M434.786 181.5L489.071 181.5M380.5 181.5L380.5 212M434.786 242.5V212M434.786 242.5V273M434.786 242.5H489.071M434.786 212H380.5M434.786 212L489.071 212M434.786 273V303.5M434.786 273H489.071M380.5 303.5L434.786 303.5M380.5 303.5V334M434.786 303.5V334M434.786 303.5H489.071M380.5 334L434.786 334M380.5 334V364.5M434.786 334V364.5M434.786 334H489.071M380.5 364.5L434.786 364.5M434.786 364.5H489.071M489.071 364.5V334M489.071 334H543.357M489.071 334V303.5M543.357 334V303.5M543.357 303.5L489.071 303.5M543.357 303.5V273M489.071 303.5V273M543.357 273L489.071 273M489.071 273V242.5M489.071 242.5V212M489.071 212L489.071 181.5M543.357 181.5H489.071M543.357 181.5V151M543.357 181.5H597.643M543.357 151H597.643M597.643 151V181.5M597.643 181.5L651.928 181.5M651.928 90V59.5M651.928 90L706.214 90M651.928 59.5V29M651.928 59.5L706.214 59.5M706.214 29L651.928 29M706.214 29V59.5M706.214 29L760.5 29M706.214 29V-1.50002M651.928 29V-1.50001M706.214 59.5H760.5M706.214 59.5V90M760.5 59.5V29M760.5 59.5V90M760.5 59.5L814.786 59.5M760.5 29L814.786 29M760.5 29V-1.50002M706.214 90H760.5M760.5 90L814.786 90M760.5 90V120.5M869.071 151V120.5M869.071 151L814.786 151M869.071 151V181.5M869.071 120.5L814.786 120.5M869.071 120.5V90M814.786 120.5V151M814.786 120.5V90M814.786 120.5H760.5M814.786 151H760.5M869.071 90L814.786 90M869.071 90V59.5M814.786 90V59.5M869.071 59.5L814.786 59.5M869.071 59.5V29M869.071 59.5L923.357 59.5M814.786 59.5V29M869.071 -1.50002L814.786 -1.50002M869.071 -1.50002V29M869.071 -1.50002L923.357 -1.50002M814.786 -1.50002V29M814.786 -1.50002L760.5 -1.50002M814.786 29L869.071 29M869.071 29L923.357 29M651.928 -1.50001L706.214 -1.50002M706.214 -1.50002L760.5 -1.50002M760.5 120.5V151M1357.64 242.5V273M1357.64 242.5V212M1357.64 212L1411.93 212M1357.64 212V181.5M1411.93 212V181.5M1411.93 212H1466.21M1411.93 181.5L1357.64 181.5M1411.93 181.5V151M1411.93 181.5H1466.21M1357.64 181.5V151M1357.64 181.5H1303.36M1411.93 151L1357.64 151M1411.93 151V120.5M1411.93 151H1466.21M1357.64 151V120.5M1357.64 151H1303.36M1411.93 120.5L1357.64 120.5M1411.93 120.5V90M1411.93 120.5H1466.21M1357.64 120.5V90M1411.93 90L1357.64 90M1411.93 90V59.5M1411.93 90L1466.21 90M1357.64 90V59.5M1411.93 59.5L1357.64 59.5M1411.93 59.5V29M1411.93 59.5L1466.21 59.5M1357.64 59.5V29M1357.64 59.5L1249.07 59.5M1411.93 29L1357.64 29M1411.93 29V-1.50004M1411.93 29L1466.21 29M1357.64 29V-1.50003M1357.64 29L1303.36 29M1411.93 -1.50004L1357.64 -1.50003M1411.93 -1.50004L1466.21 -1.50004M1357.64 -1.50003L1303.36 -1.50003M1249.07 334L1194.79 334M1249.07 334V303.5M1194.79 334V303.5M1194.79 334H1086.21M1249.07 303.5L1194.79 303.5M1249.07 303.5H1303.36M1086.21 334L1031.93 334M1031.93 334V364.5M977.643 364.5H1031.93M923.357 212H977.643M923.357 212V181.5M977.643 212V181.5M977.643 212L1031.93 212M977.643 212V242.5M977.643 181.5H923.357M923.357 181.5H869.071M1031.93 212H1086.21M977.643 29V59.5M977.643 29L1031.93 29M977.643 29L923.357 29M977.643 29V-1.50002M977.643 59.5L1031.93 59.5M977.643 59.5L923.357 59.5M1031.93 59.5V29M1031.93 59.5L1086.21 59.5M1031.93 59.5V90M1031.93 29L1086.21 29M1031.93 29V-1.50002M1140.5 29V-1.50003M1140.5 29L1086.21 29M1140.5 29L1194.79 29M1140.5 29V59.5M1140.5 -1.50003L1086.21 -1.50003M1140.5 -1.50003L1194.79 -1.50003M1086.21 -1.50003V29M1086.21 -1.50003L1031.93 -1.50002M1086.21 29V59.5M1194.79 29V-1.50003M1194.79 29L1249.07 29M1194.79 29V59.5M1194.79 -1.50003L1249.07 -1.50003M1249.07 -1.50003V29M1249.07 -1.50003L1303.36 -1.50003M1249.07 29L1303.36 29M1249.07 29V59.5M1303.36 29V-1.50003M1194.79 59.5L1249.07 59.5M1194.79 59.5L1140.5 59.5M1086.21 59.5L1140.5 59.5M1031.93 90V120.5M923.357 29V-1.50002M923.357 29V59.5M923.357 -1.50002L977.643 -1.50002M977.643 -1.50002L1031.93 -1.50002M1466.21 -1.50004V29M1466.21 29V59.5M1466.21 59.5V90M1466.21 120.5V151M1466.21 120.5V90M1466.21 151V181.5M1466.21 181.5V212M1249.07 151L1303.36 151M1249.07 151H1194.79M1303.36 181.5V151M1086.21 212L1140.5 212" stroke="#4757C1"/>
</svg>
