<svg width="43" height="43" viewBox="0 0 43 43" fill="none" xmlns="http://www.w3.org/2000/svg">
<path d="M42.9999 38.5684C42.9999 40.9253 41.0742 42.8333 38.6993 42.8333H4.63392C2.259 42.8333 0.333252 40.9228 0.333252 38.5684V4.43161C0.333252 2.07718 2.259 0.166656 4.63392 0.166656H38.6993C41.0767 0.166656 42.9999 2.07718 42.9999 4.43161V38.5684Z" fill="black"/>
<path fill-rule="evenodd" clip-rule="evenodd" d="M22.5629 8.85419C23.9275 8.83334 25.2816 8.84375 26.6357 8.83334C26.719 10.4271 27.2919 12.0521 28.4585 13.177C29.6251 14.3333 31.2709 14.8645 32.875 15.0416V19.2395C31.3751 19.1874 29.8647 18.8749 28.5002 18.2291C27.9064 17.9582 27.3544 17.6145 26.8127 17.2603C26.8023 20.3019 26.8232 23.3436 26.7919 26.3748C26.7086 27.8331 26.2294 29.281 25.3857 30.4789C24.0212 32.4789 21.6567 33.7809 19.2297 33.8226C17.7402 33.9059 16.2507 33.4997 14.9799 32.7497C12.8759 31.5102 11.3967 29.2393 11.178 26.8019C11.1572 26.281 11.1468 25.7602 11.1676 25.2498C11.3551 23.2707 12.3342 21.3748 13.855 20.0832C15.5841 18.5832 18.0006 17.8645 20.2609 18.2916C20.2818 19.8332 20.2193 21.3748 20.2193 22.9165C19.1881 22.5832 17.9798 22.6769 17.0736 23.3019C16.4174 23.729 15.9174 24.3852 15.657 25.1248C15.4382 25.6561 15.5007 26.2394 15.5112 26.8019C15.7612 28.5102 17.4069 29.9477 19.1568 29.7914C20.3235 29.781 21.438 29.1039 22.0422 28.1143C22.24 27.7706 22.4588 27.4164 22.4692 27.0102C22.5734 25.1456 22.5317 23.2915 22.5421 21.4269C22.5525 17.2291 22.5317 13.0416 22.5629 8.85419Z" fill="#F1EFED"/>
</svg>
