<svg xmlns="http://www.w3.org/2000/svg" width="625" height="414" fill="none" viewBox="0 0 625 414"><path fill="#000" d="m64.59 163.088-3.672 14.541 3.671-14.541ZM57.192 192.162l-3.63 14.54a.08.08 0 0 0 .028.106.063.063 0 0 0 .03.013c.01.002.02.002.03-.001a.073.073 0 0 0 .047-.04l3.568-14.576a.06.06 0 0 0-.018-.068.05.05 0 0 0-.032.004.046.046 0 0 0-.023.022ZM50.137 221.315l-3.187 14.65a.14.14 0 0 0 .108.168.145.145 0 0 0 .106-.019.142.142 0 0 0 .062-.089l3.123-14.653a.12.12 0 0 0-.09-.141.12.12 0 0 0-.122.084ZM44.098 250.685l-2.451 14.804a.21.21 0 0 0 .166.234.206.206 0 0 0 .15-.036.211.211 0 0 0 .085-.13l2.391-14.798a.161.161 0 0 0-.08-.17.158.158 0 0 0-.064-.019.17.17 0 0 0-.197.115ZM39.773 280.379l-1.153 14.972a.245.245 0 0 0 .054.185.238.238 0 0 0 .174.085.258.258 0 0 0 .28-.23l1.155-14.963a.231.231 0 0 0-.21-.244.237.237 0 0 0-.103-.014.227.227 0 0 0-.168.11.218.218 0 0 0-.03.099ZM38.518 310.367c.154 5.004.647 9.992 1.475 14.929a.309.309 0 0 0 .359.256.33.33 0 0 0 .253-.369 108.601 108.601 0 0 1-1.564-14.873.29.29 0 0 0-.301-.272.302.302 0 0 0-.222.329ZM44.343 339.743a31.115 31.115 0 0 0 9.141 11.936.36.36 0 0 0 .508-.075.369.369 0 0 0-.064-.51 30.466 30.466 0 0 1-9.005-11.58.333.333 0 0 0-.32-.202.323.323 0 0 0-.129.033.347.347 0 0 0-.131.398ZM67.497 356.923a47.558 47.558 0 0 0 15.004-1.31.423.423 0 0 0 .321-.5.41.41 0 0 0-.51-.319 47.162 47.162 0 0 1-14.746 1.344.402.402 0 0 0-.433.355.4.4 0 0 0 .364.43ZM96.798 350.874c4.655-1.945 9.135-4.154 13.552-6.521a.48.48 0 0 0 .078-.8.503.503 0 0 0-.166-.089c-.061-.018-.125-.024-.188-.018a.497.497 0 0 0-.18.056c-4.393 2.382-8.861 4.598-13.445 6.534a.445.445 0 0 0-.247.246.444.444 0 0 0 .003.348.46.46 0 0 0 .245.246.451.451 0 0 0 .348-.002ZM123.454 337.036l12.864-7.734a.54.54 0 0 0 .153-.137.54.54 0 0 0 .088-.186.529.529 0 0 0-.774-.58l-12.841 7.739a.497.497 0 0 0-.168.687.508.508 0 0 0 .294.251c.063.019.13.026.196.019a.498.498 0 0 0 .188-.059ZM148.962 321.204l12.388-8.424a.564.564 0 0 0 .144-.774.564.564 0 0 0-.352-.232.556.556 0 0 0-.412.085l-12.371 8.451a.533.533 0 0 0-.139.752.541.541 0 0 0 .341.226.52.52 0 0 0 .401-.084ZM173.614 304.052l12.09-8.955a.567.567 0 0 0 .124-.81.582.582 0 0 0-.82-.121l-12.065 8.969a.561.561 0 0 0-.119.788.556.556 0 0 0 .79.129ZM197.567 285.957l11.791-9.3a.614.614 0 0 0 .158-.912.616.616 0 0 0-.707-.193.616.616 0 0 0-.218.141l-11.756 9.311a.6.6 0 0 0 .739.94l-.007.013ZM221.058 267.309l11.627-9.483a.653.653 0 0 0-.343-1.154.65.65 0 0 0-.478.142l-11.6 9.507a.635.635 0 0 0-.203.671.624.624 0 0 0 .306.373.636.636 0 0 0 .698-.068l-.007.012ZM244.251 248.242l11.567-9.55a.68.68 0 0 0 .169-.205.69.69 0 0 0 .046-.519.667.667 0 0 0-.129-.231.686.686 0 0 0-.724-.22.68.68 0 0 0-.234.125l-11.54 9.574a.659.659 0 0 0-.088.945.65.65 0 0 0 .933.081ZM267.394 229.17l11.63-9.473a.725.725 0 0 0 .233-.756.714.714 0 0 0-1.131-.349l-11.6 9.507a.692.692 0 0 0 .878 1.069l-.01.002ZM290.477 209.938l11.171-10.023a.751.751 0 0 0-.464-1.298.727.727 0 0 0-.538.19l-11.124 10.042a.735.735 0 0 0-.203.801.727.727 0 0 0 .647.472.717.717 0 0 0 .511-.184ZM312.726 189.802l11.108-10.068a.781.781 0 0 0-1.047-1.158l-11.099 10.097a.758.758 0 0 0 .457 1.359.773.773 0 0 0 .559-.234l.022.004ZM335.072 169.829l11.489-9.612a.811.811 0 0 0 .109-1.137.823.823 0 0 0-1.145-.096l-11.498 9.614a.798.798 0 0 0 .441 1.4.799.799 0 0 0 .58-.183l.024.014ZM358.391 151.052l12.271-8.549.049-.013a.826.826 0 0 0 .345-.538.838.838 0 0 0-.679-.973.84.84 0 0 0-.627.134l-12.321 8.634a.831.831 0 0 0-.362.531.823.823 0 0 0 1.007.953.807.807 0 0 0 .295-.142l.022-.037ZM383.472 134.833a135.73 135.73 0 0 1 13.449-6.401.852.852 0 1 0-.641-1.577 135.517 135.517 0 0 0-13.623 6.488.851.851 0 0 0 .161 1.554.832.832 0 0 0 .654-.064ZM411.061 123.836a80.02 80.02 0 0 1 7.286-1.399 32.168 32.168 0 0 1 7.284-.291.864.864 0 0 0 .68-.169.86.86 0 0 0 .292-.97.871.871 0 0 0-.825-.588 34.348 34.348 0 0 0-7.682.314 81.453 81.453 0 0 0-7.443 1.432.856.856 0 0 0-.608 1.053.861.861 0 0 0 1.054.608l-.038.01ZM437.739 128.655a21.03 21.03 0 0 1 2.864 6.571 37.225 37.225 0 0 1 1.054 7.235.883.883 0 0 0 .287.605.866.866 0 0 0 .63.225.86.86 0 0 0 .605-.286.869.869 0 0 0 .226-.631 38.668 38.668 0 0 0-1.116-7.58 22.475 22.475 0 0 0-3.123-7.113.88.88 0 0 0-.563-.431.866.866 0 0 0-.945.394.881.881 0 0 0 .084 1.02l-.003-.009ZM440.773 157.234c-.75 4.913-1.787 9.8-3.013 14.603a.886.886 0 0 0 1.564.751.895.895 0 0 0 .149-.311 147.662 147.662 0 0 0 3.037-14.785.88.88 0 0 0-1.737-.258ZM433.603 186.211l-4.958 14.11a.904.904 0 0 0 .588 1.037.898.898 0 0 0 1.101-.455l4.975-14.198a.885.885 0 0 0-.062-.658.885.885 0 0 0-1.159-.404.896.896 0 0 0-.458.478l-.027.09ZM423.389 214.363l-5.091 14.115a.9.9 0 1 0 1.689.581l5.043-14.061a.906.906 0 0 0 .045-.752.9.9 0 0 0-1.724.168l.038-.051ZM413.686 242.822c-1.388 4.815-2.634 9.696-3.638 14.625a.916.916 0 0 0 .718 1.076.916.916 0 0 0 1.076-.719c.991-4.864 2.218-9.698 3.594-14.48a.908.908 0 0 0-.623-1.126.91.91 0 0 0-1.127.624ZM407.886 272.399a83.041 83.041 0 0 0 .129 15.156.93.93 0 1 0 1.852-.197 80.153 80.153 0 0 1-.147-14.841.924.924 0 0 0-1.842-.147l.008.029ZM411.729 302.348a19.638 19.638 0 0 0 4.771 6.194 19.008 19.008 0 0 0 6.92 3.669.947.947 0 0 0 1.178-.627.94.94 0 0 0-.627-1.177 17.107 17.107 0 0 1-6.242-3.303 17.572 17.572 0 0 1-4.331-5.598.934.934 0 0 0-1.669.842ZM438.729 312.664a82.465 82.465 0 0 0 14.631-3.933.948.948 0 0 0 .519-1.191.948.948 0 0 0-1.155-.595 82.283 82.283 0 0 1-14.289 3.892.937.937 0 0 0-.758 1.076.935.935 0 0 0 .37.606.945.945 0 0 0 .69.174l-.008-.029ZM467.273 302.837l13.385-6.911a1.008 1.008 0 0 0 .816-.995 1.01 1.01 0 0 0-.414-.798.994.994 0 0 0-.887-.143 1 1 0 0 0-.397.237l-.048.013-13.274 6.86-.058.016a.95.95 0 0 0-.476.554.945.945 0 0 0 .064.727 1.005 1.005 0 0 0 1.289.44ZM493.663 288.421c2.159-1.253 4.295-2.511 6.459-3.745l6.571-3.64a1 1 0 0 0 .382-1.314 1.002 1.002 0 0 0-1.315-.382l-6.553 3.625a326.151 326.151 0 0 0-6.502 3.819 1.001 1.001 0 0 0 .966 1.666l-.008-.029ZM519.726 273.569l12.91-7.674a1.002 1.002 0 0 0 .194-1.256.996.996 0 0 0-1.196-.432l-12.869 7.674a1.006 1.006 0 0 0-.63.596 1 1 0 0 0 1.62 1.085l-.029.007ZM545.452 258.095l12.791-7.85a.997.997 0 0 0 .316-1.368 1.001 1.001 0 0 0-1.359-.318l-12.769 7.853a1.002 1.002 0 0 0-.193 1.269 1.004 1.004 0 0 0 1.214.414ZM571.024 242.418l12.827-7.755a1 1 0 0 0-1.03-1.712l-12.841 7.78a1.003 1.003 0 0 0-.247 1.31 1.002 1.002 0 0 0 1.274.392l.017-.015ZM596.757 227.056l13.027-7.395a.999.999 0 0 0-.968-1.717l-13.066 7.405a1.002 1.002 0 0 0-.467 1.403.991.991 0 0 0 .647.485.991.991 0 0 0 .794-.151l.033-.03ZM622.977 212.538l13.379-6.702a1.003 1.003 0 0 0 .278-1.234 1.003 1.003 0 0 0-1.153-.519l-13.446 6.72a1.002 1.002 0 0 0 .202 1.723c.217.093.46.106.685.037l.055-.025Z"/></svg>
