<svg xmlns="http://www.w3.org/2000/svg" width="25" height="25" fill="none" viewBox="0 0 25 25"><path fill="#F1EFED" d="M19.998 3.023H1v18.998h18.998V3.023Z"/><path fill="#5869DD" d="M19.998 3.023v18.998L21.977 24V5.002l-1.98-1.979Z"/><path fill="#000" d="M19.998 22.021H1L2.979 24h18.998l-1.98-1.979Z"/><path stroke="#000" stroke-width=".792" d="M19.998 3.023H1v18.998M19.998 3.023v18.998m0-18.998 1.979 1.98V24m-1.98-1.979H1m18.998 0L21.977 24M1 22.021 2.979 24h18.998"/><g clip-path="url(#a)"><path fill="url(#b)" fill-rule="evenodd" stroke="#000" stroke-linejoin="round" stroke-width="1.297" d="M24.128 3.192 10.505 16.685c-.648.643-1.7.643-2.35 0L3.173 11.75l2.35-2.327 3.809 3.772L21.779.864l2.35 2.328Z" clip-rule="evenodd"/></g><defs><linearGradient id="b" x1="3.172" x2="24.128" y1="9.016" y2="9.016" gradientUnits="userSpaceOnUse"><stop stop-color="#D6FFBB"/><stop offset="1" stop-color="#5869DD"/></linearGradient><clipPath id="a"><path fill="#fff" d="M2.297 0H25v18.162H2.297z"/></clipPath></defs></svg>
