<svg xmlns="http://www.w3.org/2000/svg" width="56" height="56" fill="none" viewBox="0 0 56 56"><path fill="#000" d="m33.563 48.767 15.082-15.17-5.552-20.77-15.081 15.17 5.551 20.77Z"/><path fill="#F1EFED" d="m7.354 22.403 20.633 5.6 15.081-15.17-20.633-5.6-15.081 15.17Z"/><path fill="#F1EFED" d="m7.354 22.403 5.551 20.77 20.634 5.601-5.552-20.77-20.633-5.601Z"/><path stroke="#000" stroke-linecap="round" stroke-linejoin="round" stroke-miterlimit="10" stroke-width="2" d="m7.354 22.403 5.551 20.77 20.634 5.601-5.552-20.77M7.354 22.402l20.633 5.6m-20.633-5.6 15.081-15.17 20.633 5.6-15.081 15.17m5.576 20.764 15.082-15.17-5.552-20.77-15.081 15.17 5.551 20.77Z"/></svg>
