<svg xmlns="http://www.w3.org/2000/svg" fill="none" viewBox="0 0 408 204"><path stroke="#8F8E93" stroke-width="2" d="M172 1H-53v98m0 19V99m461 71h-49m-49 0h49m0 0-38 28H214l-31-28h-63V99H-53"/><path fill="url(#a)" d="M8.468 109.001v95h17l76.044-75.572v-19.428H8.468Z"/><path fill="url(#b)" d="M143.726 163.997v-45.881h6.766l28.277 36.498v9.383h-35.043Z"/><path fill="url(#c)" d="M123.124 196.499h55.645v-18.72h-55.645v18.72Z"/><path fill="url(#d)" d="M358.745 180.497h28.538l-14.093 17h-28.539l14.094-17Z"/><path fill="url(#e)" d="M219.633 192.497h28.539l-14.093-17H205.54l14.093 17Z"/><path fill="url(#f)" fill-rule="evenodd" d="M137.468 160.997h-6V87.714H-59V61.572h218.937v-8.888H-59v-22.64h218.937v-9.763H-56v-6h221.937v21.764H-53v10.639h218.937v20.888H-53v14.142h190.468v79.283Z" clip-rule="evenodd"/><path fill="url(#g)" fill-rule="evenodd" d="M315.214 186.497h-91.042v6h91.042v-6Z" clip-rule="evenodd"/><path fill="url(#h)" d="M330.256 153.716c0 4.694-4.365 8.5-9.75 8.5s-9.75-3.806-9.75-8.5c0-4.695 4.365-8.5 9.75-8.5s9.75 3.805 9.75 8.5Z"/><defs><linearGradient id="a" x1="255.468" x2="208.728" y1="610.998" y2="-144.918" gradientUnits="userSpaceOnUse"><stop offset=".121" stop-color="#F1EFED"/><stop offset=".488" stop-color="#DDD" stop-opacity=".22"/><stop offset="1" stop-color="#F1EFED"/></linearGradient><linearGradient id="b" x1="255.468" x2="208.728" y1="610.998" y2="-144.918" gradientUnits="userSpaceOnUse"><stop offset=".121" stop-color="#F1EFED"/><stop offset=".488" stop-color="#DDD" stop-opacity=".22"/><stop offset="1" stop-color="#F1EFED"/></linearGradient><linearGradient id="c" x1="255.468" x2="208.728" y1="610.998" y2="-144.918" gradientUnits="userSpaceOnUse"><stop offset=".121" stop-color="#F1EFED"/><stop offset=".488" stop-color="#DDD" stop-opacity=".22"/><stop offset="1" stop-color="#F1EFED"/></linearGradient><linearGradient id="d" x1="255.468" x2="208.728" y1="610.998" y2="-144.918" gradientUnits="userSpaceOnUse"><stop offset=".121" stop-color="#F1EFED"/><stop offset=".488" stop-color="#DDD" stop-opacity=".22"/><stop offset="1" stop-color="#F1EFED"/></linearGradient><linearGradient id="e" x1="255.468" x2="208.728" y1="610.998" y2="-144.918" gradientUnits="userSpaceOnUse"><stop offset=".121" stop-color="#F1EFED"/><stop offset=".488" stop-color="#DDD" stop-opacity=".22"/><stop offset="1" stop-color="#F1EFED"/></linearGradient><linearGradient id="f" x1="255.468" x2="208.728" y1="610.998" y2="-144.918" gradientUnits="userSpaceOnUse"><stop offset=".121" stop-color="#F1EFED"/><stop offset=".488" stop-color="#DDD" stop-opacity=".22"/><stop offset="1" stop-color="#F1EFED"/></linearGradient><linearGradient id="g" x1="255.468" x2="208.728" y1="610.998" y2="-144.918" gradientUnits="userSpaceOnUse"><stop offset=".121" stop-color="#F1EFED"/><stop offset=".488" stop-color="#DDD" stop-opacity=".22"/><stop offset="1" stop-color="#F1EFED"/></linearGradient><linearGradient id="h" x1="255.468" x2="208.728" y1="610.998" y2="-144.918" gradientUnits="userSpaceOnUse"><stop offset=".121" stop-color="#F1EFED"/><stop offset=".488" stop-color="#DDD" stop-opacity=".22"/><stop offset="1" stop-color="#F1EFED"/></linearGradient></defs></svg>
