<svg xmlns="http://www.w3.org/2000/svg" fill="none" viewBox="0 0 375 223"><g clip-path="url(#a)"><path fill="url(#b)" fill-rule="evenodd" d="M510.414 222.734H337.557l17.856-24.092h155.001v24.092Zm-207.621-77.859h34.551v-16.597h-35.401l.85 16.597Zm21.401-50.86h208.321V68.318H324.194v25.699Zm23.564 21.68h-23.955V99.099h23.955v16.596Zm29.757 29.18h155v-24.092h-155v24.092ZM31.351 211.594h257.376v-13.098H28.351v-24.093h263.376v6H34.351v12.093h260.376v25.098H31.351v-6Zm280.617-54.196h175.344v6H311.968v-6Zm220.547-122.07H321.714v6h210.801v-6ZM363.359 144.875v-38.87H535v6H369.359v32.87h-6Zm169.156-127.75H321.714v6h210.801v-6ZM321.714 0h210.801v6H321.714V0ZM-742.524 46.484h-14.48l3.15 4.771 6.093 9.23h14.48l-9.243-14Zm18.797 0h-14.48l3.15 4.771 6.092 9.23h14.48l-9.242-14Zm2.5 173.451v-42.826h13.488l16.698 16.906v25.92h-30.186Zm43.203-59.302v10.203h7.441v-6.175l-4.116-4.028h-3.325Zm11.696 10.203v-10.203h3.324l4.116 4.028v6.175h-7.44Zm11.687-10.203v10.203h7.44v-6.175l-4.116-4.028h-3.324Zm-39.364 5.103-.194-.228v.228h-32.832v-1.611h31.656l15.982-18.796 1.37 1.611-15.982 18.796Zm-24.876-98.03c-.1-.005-.2-.003-.3.005l-.269.02a2.48 2.48 0 0 0-.283.039l-.268.052a2.329 2.329 0 0 0-.246.062l-.268.084a2.18 2.18 0 0 0-.201.074l-.268.114a1.895 1.895 0 0 0-.157.076l-.268.144a1.783 1.783 0 0 0-.121.07l-.268.173c-.032.02-.062.041-.091.063l-.269.2a1.23 1.23 0 0 0-.069.054l-.269.225-.053.046-.268.248a1.175 1.175 0 0 0-.041.038l-.268.269-.012.012-.019.02-.269.286-.009.01-.014.016-.269.303-.017.02-.269.316-.012.015-.269.327-.008.01-.269.334-.005.007-.27.34-.53.67-.005.007-.26.323-.257.313-.254.3-.248.28-.242.258-.233.234-.222.206-.208.175-.19.14-.164.107-.132.072-.092.04-.022.006-.073-.028-.117-.059-.153-.093-.181-.128-.202-.163-.217-.194-.23-.224-.239-.25-.245-.272-.252-.292-.256-.309-.261-.322-.262-.33-.003-.003-.534-.676-.273-.341-.007-.01-.268-.329-.011-.013-.269-.32-.016-.019-.268-.308-.013-.014-.008-.01-.268-.292-.014-.015-.014-.015-.269-.275-.02-.02-.016-.017-.269-.255-.03-.028-.018-.016-.268-.233a1.172 1.172 0 0 0-.063-.052l-.268-.209a1.632 1.632 0 0 0-.083-.06l-.268-.182a1.634 1.634 0 0 0-.109-.068l-.268-.155a1.813 1.813 0 0 0-.143-.075l-.268-.125a2.093 2.093 0 0 0-.183-.076l-.269-.095a2.21 2.21 0 0 0-.229-.068l-.268-.064a2.397 2.397 0 0 0-.271-.049l-.268-.032a2.516 2.516 0 0 0-.297-.019h-.269c-.1 0-.199.005-.298.016l-.268.032a2.24 2.24 0 0 0-.272.047l-.269.063a2.294 2.294 0 0 0-.231.068l-.268.094a1.985 1.985 0 0 0-.185.075l-.269.124a1.93 1.93 0 0 0-.143.075l-.269.153a2.03 2.03 0 0 0-.11.069l-.268.181-.084.06-.268.209a1.809 1.809 0 0 0-.064.052l-.268.232a.82.82 0 0 0-.048.044l-.269.254-.013.014-.009.009-.015.014-.268.275-.015.015-.014.015-.268.292-.008.01-.013.014-.269.307-.016.019-.268.32-.011.013-.269.33-.007.009-.269.335-.538.682-.003.003-.263.33-.26.323-.257.309-.251.293-.247.273-.239.251-.23.225-.218.196-.202.163-.182.13-.154.095-.12.06-.076.03-.019-.005-.091-.039-.13-.07-.163-.105-.189-.14-.207-.173-.222-.205-.233-.232-.241-.258-.248-.28-.253-.298-.258-.313-.261-.325-.803-1.014-.273-.34-.009-.01-.268-.328-.013-.015-.268-.316-.018-.02-.268-.303-.008-.01-.015-.016-.269-.287-.03-.032-.269-.27a1.132 1.132 0 0 0-.04-.038l-.268-.248a1.486 1.486 0 0 0-.053-.046l-.268-.226a1.325 1.325 0 0 0-.069-.054l-.268-.2a1.387 1.387 0 0 0-.091-.063l-.268-.174a1.733 1.733 0 0 0-.119-.07l-.268-.146a1.905 1.905 0 0 0-.156-.075l-.268-.116a2.15 2.15 0 0 0-.198-.074l-.269-.085a2.257 2.257 0 0 0-.244-.063l-.268-.054a2.456 2.456 0 0 0-.282-.04l-.268-.021a2.75 2.75 0 0 0-.301-.007l-.268.01a2.51 2.51 0 0 0-.292.028l-.268.042c-.959.15-1.564.818-1.35 1.492.213.673 1.163 1.098 2.122.948l.09-.014.031.01.092.04.132.071.164.107.19.14.208.176.222.206.233.233.242.259.248.28.254.3.258.313.261.326.803 1.014.005.006.269.334.008.01.269.327.012.016.269.315.018.02.268.303.023.026.269.287.031.032.268.268.041.039.268.247.053.047.269.224c.022.019.045.037.069.055l.269.2.091.063.268.172c.039.025.079.048.121.07l.268.145c.05.027.103.052.157.075l.268.115c.065.027.132.052.201.073l.268.084c.08.025.162.046.246.062l.268.053c.093.018.188.03.283.038l.269.021c.1.008.2.01.3.005l.269-.011c.098-.004.195-.014.291-.03l.268-.043a2.41 2.41 0 0 0 .258-.056l.269-.075c.073-.02.144-.044.213-.072l.269-.105a2.18 2.18 0 0 0 .169-.076l.268-.136a1.85 1.85 0 0 0 .13-.072l.268-.165c.035-.02.068-.042.1-.065l.268-.192a1.37 1.37 0 0 0 .075-.057l.269-.217.021-.018.036-.031.268-.241.023-.02.021-.021.269-.263.033-.033.269-.282.01-.01.015-.017.268-.299.02-.022.268-.312.014-.017.269-.323.009-.012.269-.332.006-.008.268-.337.003-.004.532-.673.004-.005.261-.326.259-.318.255-.303.25-.287.243-.265.236-.241.226-.215.213-.184.195-.15.172-.117.143-.082.104-.048.043-.016.047.017.106.05.144.083.173.118.197.153.213.185.226.215.237.243.243.266.25.287.256.304.259.318.261.327.003.005.533.674.003.003.268.337.006.008.269.332.01.012.268.323.015.017.268.312.019.022.269.298.013.014.013.014.268.28a.842.842 0 0 0 .034.035l.268.261.02.019.009.008.016.014.268.24.019.017.039.033.268.216c.025.02.05.039.077.058l.268.19c.032.023.066.045.1.066l.269.163c.042.026.086.05.131.073l.269.134c.055.028.112.053.17.076l.269.104c.069.027.141.051.215.071l.269.074c.084.023.171.042.26.055l.268.042c.096.015.194.025.292.028l.268.01c.1.004.201.002.301-.006l.268-.022c.095-.008.19-.021.282-.04l.268-.054a2.28 2.28 0 0 0 .244-.063l.269-.085a2.18 2.18 0 0 0 .198-.074l.268-.115c.054-.024.106-.049.156-.076l.268-.145c.041-.022.081-.046.119-.07l.268-.174a1.72 1.72 0 0 0 .091-.063l.268-.2a.665.665 0 0 0 .069-.055l.268-.225a.435.435 0 0 0 .033-.029l.02-.017.268-.249.014-.012.026-.026.269-.27.03-.031.269-.287.012-.014.011-.012.268-.303.009-.01.009-.01.268-.317.013-.015.268-.327.009-.01.268-.334.543-.687.262-.33.005-.006.259-.323.258-.313.253-.298.248-.28.241-.257.233-.233.222-.204.207-.174.189-.14.163-.104.13-.07.091-.04.018-.005.077.03.12.06.154.095.182.13.202.164.218.196.23.225.239.25.246.274.252.293.257.309.26.322.263.33.003.004.534.676.004.005.269.336.007.01.269.328.011.014.268.32.009.01.007.008.269.308.01.011.011.013.268.292.015.016.014.014.268.274.015.015.011.011.011.011.269.255c.584.554 1.698.67 2.487.26.789-.411.955-1.194.371-1.749l-.25-.236-.236-.242-.243-.265-.25-.286-.255-.304-.259-.317-.261-.326-.004-.005-.532-.674-.271-.34-.006-.008-.269-.332-.009-.012-.269-.324-.014-.016-.268-.313-.02-.022-.268-.298-.011-.012-.015-.015-.268-.282a5.348 5.348 0 0 0-.033-.034l-.269-.262a.407.407 0 0 0-.023-.023l-.021-.018-.268-.241-.021-.019-.022-.018-.014-.012-.269-.218a1.478 1.478 0 0 0-.075-.057l-.269-.191-.054-.038a2.765 2.765 0 0 0-.045-.028l-.268-.164a1.85 1.85 0 0 0-.13-.073l-.269-.135a1.97 1.97 0 0 0-.168-.076l-.269-.106a2.208 2.208 0 0 0-.213-.071l-.269-.075a2.388 2.388 0 0 0-.258-.057l-.268-.043a2.516 2.516 0 0 0-.291-.03l-.269-.01Zm-25.705 32.905v49.873h7.866l15.492-19.265v-30.608h-23.358Zm-2.695 62.889 11.326 10.75v53.805h4.251V171.86l-12.907-12.251-2.67 3.891Zm422.648 43.27v-6.386h-353.391v-13.721h353.391v-5.917h-353.391v-3.637h356.807v13.19h-353.39v6.448h353.39v13.659h-353.39v7.571h124.656v3.637h-128.073V206.77h353.391ZM-696.126 83.941v5.917h39.626v13.721h-52.396v-3.636h48.98v-6.448h-39.626v-13.19h31.137v3.636h-27.721ZM9.424 98.484H-6.754l3.52-6.214 6.806-12.02H19.75L9.424 98.483Zm-225.621 113.5h16.178l12.027-15.235h-16.178l-12.027 15.235Zm37.905 0h-16.178l12.027-15.235h16.177l-12.026 15.235Zm5.556 0h16.178l12.027-15.235h-16.178l-12.027 15.235Zm37.912 0h-16.177l12.027-15.235h16.177l-12.027 15.235Zm5.557 0h16.178l12.027-15.235h-16.178l-12.027 15.235Zm60.142 0h-38.408l12.027-15.235h26.381v15.235Zm57.557-113.5h-16.178l3.519-6.214 6.807-12.02h16.178l-10.326 18.234Zm-48.485 91.078h16.178v-12.157h-16.178v12.157Zm.42-35.25v-42.825h30.18v-.003h40.91v3.824h-40.904v22.099l-16.698 16.905h-13.488Zm1.696 10.383h44.949v1.612h-44.95v-1.612Zm-12.967 51.5h-146.987v1.612h146.987v-1.612Zm-151.244 4.617H-70.91v1.612h-151.238v-1.612Zm151.238 4.61h-156.34v1.611h156.34v-1.611Zm64.19-12.415c.1-.007.2-.009.3-.005l.269.012a1.98 1.98 0 0 1 .29.029l.27.043a2.492 2.492 0 0 1 .257.057l.269.075c.073.02.144.044.213.071l.269.106c.058.023.114.048.169.075l.268.136c.045.023.088.047.13.072l.269.165.014.009.02.012.02.013.012.009.033.022.268.192.075.057.269.218.022.018.013.011.013.012.01.008.268.24.043.041.269.263a.695.695 0 0 1 .033.034l.269.281.025.028.269.298.003.004.016.018.268.312.014.017.269.324.01.012.268.332.006.007.271.341.532.673.004.005.261.327.26.317.254.304.25.286.243.265.236.242.25.236c.584.555.419 1.338-.37 1.749-.79.411-1.904.294-2.488-.261l-.269-.254a.798.798 0 0 1-.037-.037l-.268-.274-.014-.014-.014-.016-.269-.292-.01-.013-.011-.011-.269-.308-.007-.008-.009-.01-.268-.32-.011-.014-.269-.329-.007-.009-.269-.336-.003-.005-.535-.676-.003-.004-.263-.33-.26-.322-.257-.309-.251-.293-.246-.274-.24-.251-.23-.225-.218-.195-.202-.164-.182-.13-.154-.094-.12-.061-.076-.03-.02.006-.09.038-.13.07-.163.105-.189.14-.207.174-.222.204-.233.233-.241.258-.248.279-.253.298-.258.313-.259.323-.005.006-.261.33-.544.687-.268.334-.009.01-.268.327-.013.015-.268.316-.009.011-.008.009-.269.304-.023.025-.269.288-.03.032-.269.269-.04.038-.268.248a.446.446 0 0 1-.025.023l-.01.009-.018.015-.268.225-.017.015-.009.006c-.014.011-.028.023-.043.033l-.268.201-.09.063-.269.173a1.594 1.594 0 0 1-.119.071l-.268.145c-.05.027-.102.052-.155.075l-.269.116c-.064.028-.13.052-.198.074l-.268.085c-.08.025-.161.046-.244.063l-.269.054-.08.015-.068.01-.074.009-.06.006-.268.022c-.1.008-.2.01-.3.006l-.269-.01a2.36 2.36 0 0 1-.292-.028l-.268-.042a3.143 3.143 0 0 1-.1-.017l-.055-.012-.06-.014-.045-.012-.268-.074a2.133 2.133 0 0 1-.216-.071l-.268-.104a1.868 1.868 0 0 1-.171-.076l-.268-.134a1.77 1.77 0 0 1-.132-.073l-.268-.163a1.608 1.608 0 0 1-.1-.066l-.27-.191a.797.797 0 0 1-.042-.031l-.033-.026-.269-.216a1.271 1.271 0 0 1-.058-.05l-.268-.24a.953.953 0 0 1-.044-.041l-.269-.262a.68.68 0 0 1-.034-.034l-.268-.281a1.607 1.607 0 0 1-.026-.027l-.268-.298-.012-.013-.008-.009-.268-.312-.015-.017-.268-.323-.01-.012-.268-.332-.007-.008-.268-.337-.003-.003-.532-.674-.004-.005-.261-.327-.26-.318-.254-.304-.25-.287-.244-.266-.237-.243-.226-.215-.213-.186-.196-.152-.174-.118-.143-.083-.107-.05-.047-.017-.043.016-.104.048-.143.081-.172.117-.195.151-.213.184-.226.215-.236.241-.243.265-.25.286-.255.304-.259.318-.26.326-.005.005-.532.673-.003.004-.268.337-.006.008-.268.332-.01.012-.269.323-.014.017-.268.312-.008.009-.011.013-.269.298a.493.493 0 0 1-.025.028l-.269.281a.718.718 0 0 1-.033.034l-.269.263-.013.013-.03.028-.269.241-.057.049-.269.217c-.024.02-.049.039-.075.057l-.268.192a.842.842 0 0 1-.043.029.726.726 0 0 1-.056.036l-.269.165c-.042.025-.085.05-.13.072l-.268.136a2.18 2.18 0 0 1-.17.076l-.268.105a2.42 2.42 0 0 1-.213.072l-.269.075a2.41 2.41 0 0 1-.258.056l-.268.043a2.342 2.342 0 0 1-.291.03l-.268.011a2.756 2.756 0 0 1-.158.002l-.059-.002a2.362 2.362 0 0 1-.084-.005l-.268-.021a2.584 2.584 0 0 1-.284-.038l-.268-.053a2.196 2.196 0 0 1-.246-.062l-.268-.084a2.122 2.122 0 0 1-.2-.073l-.269-.115a1.434 1.434 0 0 1-.13-.061l-.027-.014-.268-.144a1.757 1.757 0 0 1-.075-.043l-.028-.017-.017-.011-.269-.173-.012-.008-.027-.017a1.952 1.952 0 0 1-.026-.018l-.026-.02-.269-.199a1.53 1.53 0 0 1-.07-.055l-.268-.224-.021-.018-.032-.029-.268-.247-.022-.021-.019-.018-.268-.268-.014-.014-.017-.018-.268-.287-.01-.01-.014-.016-.268-.302-.018-.021-.268-.316-.013-.015-.268-.326-.01-.011-.268-.334-.005-.006-.803-1.014-.261-.326-.258-.314-.254-.299-.248-.28-.241-.259-.234-.234-.222-.205-.208-.175-.19-.142-.164-.106-.132-.071-.092-.04-.03-.01-.091.014c-.959.15-1.91-.275-2.122-.949-.213-.673.391-1.341 1.35-1.491l.268-.042c.096-.015.194-.024.292-.028l.268-.01.112-.002c.063.001.126.004.189.009l.268.022c.096.008.19.021.282.039l.269.054a3.153 3.153 0 0 1 .243.063l.269.085.116.04.042.017.04.017.269.116a1.19 1.19 0 0 1 .155.075l.268.145.02.011a1.161 1.161 0 0 1 .1.06l.267.174c.032.02.062.041.09.062l.27.201.068.054.269.226.013.011.014.012.01.008.015.015.268.248.02.02.02.019.269.269.016.017.014.015.269.287.023.026.269.303.017.02.268.316.013.015.268.327.009.011.273.34.803 1.014.261.325.258.313.253.298.248.28.241.258.233.232.222.205.208.173.188.14.163.105.13.07.09.038.02.006.077-.03.119-.06.154-.095.182-.13.202-.163.219-.196.23-.225.239-.251.246-.273.252-.293.256-.31.26-.322.263-.33.003-.003.538-.682.269-.336.007-.009.269-.329.011-.014.268-.319.016-.019.269-.307.021-.024.269-.293a.6.6 0 0 1 .028-.029l.268-.275.037-.037.269-.254.03-.027.018-.017.269-.232c.02-.018.041-.035.063-.052l.269-.208a1.37 1.37 0 0 1 .083-.061l.269-.181c.035-.024.071-.047.11-.069l.268-.153a1.285 1.285 0 0 1 .143-.075l.269-.124c.06-.028.121-.053.185-.075l.269-.095c.074-.026.151-.048.23-.067l.269-.063a2.321 2.321 0 0 1 .272-.047l.269-.032c.098-.011.198-.017.297-.017l.269.001c.1 0 .199.006.297.018l.268.033c.092.011.183.027.271.049l.268.064c.079.019.155.042.23.068l.268.095.062.024c.041.016.082.033.121.052l.269.125c.049.023.096.048.142.074l.268.155c.038.022.074.045.109.069l.268.182a3.396 3.396 0 0 1 .083.06l.268.209a.594.594 0 0 1 .063.052l.268.233.048.044.269.255.017.017.01.009.01.011.268.275.012.013.016.017.268.293.011.012.01.011.269.308.015.019.269.32.01.013.27.33.007.009.272.34.534.677.003.003.263.33.26.322.256.308.252.293.246.272.238.25.23.224.217.194.202.163.18.128.154.093.118.059.072.028.022-.007.092-.039.132-.072.165-.106.189-.142.208-.174.222-.206.234-.234.241-.259.248-.28.254-.299.258-.314.259-.322.005-.007.53-.67.27-.341.005-.006.269-.334.008-.01.269-.327.013-.015.268-.316.018-.02.268-.303.01-.01.014-.016.268-.286.012-.013.019-.019.268-.269.024-.022.017-.017.268-.247.014-.013.04-.034.268-.224c.022-.019.045-.037.07-.055l.268-.199.017-.012.012-.009.012-.009.05-.033.269-.173a1.72 1.72 0 0 1 .12-.07l.268-.145.026-.013.029-.015.05-.024.052-.023.268-.114a2.484 2.484 0 0 1 .2-.074l.27-.084c.079-.025.161-.046.245-.062l.268-.053c.093-.018.188-.031.284-.038l.268-.021Zm-47.55 10.727c2.759 0 4.995-2.63 4.995-5.875 0-3.244-2.236-5.875-4.995-5.875-2.76 0-4.996 2.631-4.996 5.875 0 3.245 2.237 5.875 4.996 5.875Zm366.246-49.328H487.32v6H311.976v-6Zm-422.05-138.36h-3v45.002h-89.684v6h89.684v5h-89.684v6h95.684v-32.5h77.354v-6h-77.354v-5.484h209.573v-6h-209.573v-6.016h77.354v-6h-80.354Zm10.197 62h56.97v-24.25h-56.97v24.252Zm-22.374 42.266h14.18v-19.723h-14.18v19.723Zm-158.791 82.11h42.995v-48h-42.995v28.571h-28.662v19.429h28.662Zm142.581-40.344h-51.869v-26.723l23.383-29h28.486v55.723Zm57.742-28.687h-20.339v-35.086H-201.11v-6h119.044v.179h1.347v40.907Zm-238.172 69.031h-212.578v-6h212.578v6Zm193.774-55.242h46.767v-6h-46.767v6Zm46.767 14h-46.767v-6h46.767v6Z" clip-rule="evenodd" opacity=".25"/><path stroke="#8F8E93" stroke-linejoin="round" stroke-width="2" d="M31.497 20h-45.5l-19 18h-31.536m0 116.351V38m0 154.949V38"/><path stroke="#8F8E93" stroke-width="2" d="m299 202.625-188.377.001-25.327-23.227m0 0H-63.71l.363-21.986H.55l11.088-16.632h52.67m20.988 38.618H158.5"/></g><defs><linearGradient id="b" x1="469.997" x2="472.349" y1="228.055" y2="-11.434" gradientUnits="userSpaceOnUse"><stop stop-color="#F1EFED"/><stop offset=".503" stop-color="#A9A5A4" stop-opacity=".07"/><stop offset="1" stop-color="#F1EFED"/></linearGradient><clipPath id="a"><path fill="#fff" d="M0 0h375v223H0z"/></clipPath></defs></svg>
