<svg xmlns="http://www.w3.org/2000/svg" width="56" height="56" fill="none" viewBox="-7 -7 56 56"><path fill="#F1EFED" d="M9.725 4.749C7.345 6.248 5.65 8.14 4.778 9.879c-.897 1.782-.775 3.007-.367 3.678.409.67 1.433 1.327 3.4 1.305 1.919-.022 4.34-.722 6.719-2.221 2.379-1.5 4.073-3.393 4.947-5.13.896-1.783.774-3.008.366-3.679-.409-.67-1.432-1.327-3.4-1.304-1.919.022-4.339.721-6.718 2.22Z"/><path fill="#000" fill-rule="evenodd" d="M31.794 38.477a10.285 10.285 0 0 0 3.87-4.294c1.635-2.843 1.897-5.988.387-8.423a6.518 6.518 0 0 0-.437-.62 10.41 10.41 0 0 0-.467-.838L21.857 2.564C19.845-.74 13.86-.67 8.486 2.716c-5.373 3.386-8.1 8.808-6.09 12.11l.022.034 13.229 21.508c.17.274.35.538.542.79.106.228.227.45.361.667 1.51 2.435 4.445 3.603 7.72 3.407a10.3 10.3 0 0 0 5.573-1.549l1.95-1.206ZM4.778 9.879c.873-1.738 2.567-3.631 4.947-5.13 2.379-1.5 4.8-2.2 6.718-2.221 1.968-.023 2.991.634 3.4 1.304.408.671.53 1.896-.366 3.679-.874 1.737-2.568 3.63-4.947 5.13-2.38 1.5-4.8 2.199-6.719 2.22-1.967.023-2.991-.633-3.4-1.304-.408-.67-.53-1.896.367-3.678Z" clip-rule="evenodd"/></svg>
