<svg xmlns="http://www.w3.org/2000/svg" width="676" height="242" fill="none" viewBox="0 0 676 242"><path fill="#000" d="m610.141 241.91 7.32-13.09-7.32 13.09ZM624.831 215.752l7.28-13.1a.08.08 0 0 0 0-.11.067.067 0 0 0-.025-.019.063.063 0 0 0-.03-.007.067.067 0 0 0-.031.007.063.063 0 0 0-.024.019l-7.23 13.15a.06.06 0 0 0 0 .07.06.06 0 0 0 .032.006.057.057 0 0 0 .028-.016ZM639.209 189.44l6.88-13.32a.136.136 0 0 0-.017-.155.133.133 0 0 0-.096-.05.124.124 0 0 0-.054.006.144.144 0 0 0-.083.069l-6.82 13.34a.118.118 0 0 0-.007.09.12.12 0 0 0 .057.07.119.119 0 0 0 .079 0 .12.12 0 0 0 .061-.05ZM652.664 162.642l6.21-13.66a.213.213 0 0 0 .004-.155.213.213 0 0 0-.104-.115.213.213 0 0 0-.155-.004.213.213 0 0 0-.115.104l-6.15 13.67a.16.16 0 0 0 .09.22.172.172 0 0 0 .22-.06ZM664.548 135.089l5-14.16a.232.232 0 0 0 .018-.097.229.229 0 0 0-.082-.175.235.235 0 0 0-.086-.048.259.259 0 0 0-.33.15l-5 14.15a.23.23 0 0 0 .14.29.226.226 0 0 0 .199.032.215.215 0 0 0 .141-.142ZM673.548 106.453a110.773 110.773 0 0 0 2.45-14.8.292.292 0 0 0-.011-.121.314.314 0 0 0-.269-.22.33.33 0 0 0-.34.29 108.587 108.587 0 0 1-2.35 14.771.291.291 0 0 0 .22.34.305.305 0 0 0 .2-.074.294.294 0 0 0 .1-.186ZM675.546 76.57a31.109 31.109 0 0 0-5.73-13.9.363.363 0 0 0-.242-.136.362.362 0 0 0-.268.077.372.372 0 0 0-.07.51 30.457 30.457 0 0 1 5.69 13.52.332.332 0 0 0 .257.278c.044.01.089.01.133.002a.347.347 0 0 0 .23-.35ZM657.647 53.959a47.528 47.528 0 0 0-14.83-2.63.418.418 0 0 0-.44.4.408.408 0 0 0 .41.44c4.966.07 9.89.924 14.59 2.53a.4.4 0 0 0 .51-.23.402.402 0 0 0-.24-.51ZM627.778 52.2c-5 .67-9.9 1.64-14.78 2.78a.489.489 0 0 0-.301.215.486.486 0 0 0 .156.666.48.48 0 0 0 .365.059c4.86-1.16 9.75-2.14 14.68-2.82a.45.45 0 0 0 .39-.51.44.44 0 0 0-.173-.302.442.442 0 0 0-.337-.088ZM598.442 58.655l-14.43 4.13a.521.521 0 0 0-.36.65.523.523 0 0 0 .64.36l14.41-4.14a.5.5 0 0 0 .34-.62.496.496 0 0 0-.402-.389.495.495 0 0 0-.198.01ZM569.699 67.32l-14.15 4.92a.56.56 0 0 0-.231.895.537.537 0 0 0 .378.184.55.55 0 0 0 .213-.03l14.14-4.95a.543.543 0 0 0 .36-.48.53.53 0 0 0-.03-.21.529.529 0 0 0-.68-.33ZM541.445 77.484l-14 5.51a.57.57 0 0 0-.33.75.578.578 0 0 0 .535.372.577.577 0 0 0 .225-.042l13.98-5.53a.554.554 0 0 0 .313-.298.555.555 0 0 0 .007-.432.562.562 0 0 0-.511-.369.563.563 0 0 0-.219.039ZM513.617 88.724l-13.8 5.92a.624.624 0 0 0-.44.586.616.616 0 0 0 .93.544l13.77-5.94a.6.6 0 0 0-.47-1.1l.01-.01ZM486.092 100.648l-13.69 6.14a.651.651 0 1 0 .53 1.19l13.67-6.17a.646.646 0 0 0 .33-.353.627.627 0 0 0-.159-.683.629.629 0 0 0-.691-.114l.01-.01ZM458.743 113.035l-13.65 6.22a.677.677 0 0 0-.355.381.666.666 0 0 0 .025.519.673.673 0 0 0 .379.357.69.69 0 0 0 .521-.017l13.63-6.25a.666.666 0 0 0 .33-.89.648.648 0 0 0-.629-.385.64.64 0 0 0-.251.065ZM431.44 125.46l-13.69 6.13a.714.714 0 0 0-.422.669.72.72 0 0 0 .457.646.715.715 0 0 0 .545-.015l13.67-6.17a.698.698 0 0 0 .406-.652.702.702 0 0 0-.218-.482.675.675 0 0 0-.495-.187.683.683 0 0 0-.263.061h.01ZM404.156 138.031l-13.39 6.78a.754.754 0 0 0-.142 1.231.73.73 0 0 0 .542.178.72.72 0 0 0 .28-.079l13.35-6.81a.727.727 0 0 0 .404-.721.723.723 0 0 0-1.044-.579ZM377.444 151.709l-13.34 6.84a.783.783 0 0 0-.34 1.05.781.781 0 0 0 1.05.34l13.34-6.87a.762.762 0 0 0 .38-1.046.772.772 0 0 0-.778-.407.762.762 0 0 0-.292.103l-.02-.01ZM350.679 165.195l-13.59 6.3a.809.809 0 0 0-.4 1.07.82.82 0 0 0 1.08.39l13.6-6.3a.794.794 0 1 0-.67-1.44l-.02-.02ZM323.284 177.263l-14.07 5.07h-.05a.834.834 0 0 0-.551.748.84.84 0 0 0 .051.322.84.84 0 0 0 1.07.51l14.14-5.14a.82.82 0 0 0 .522-1.061.819.819 0 0 0-1.082-.479l-.03.03ZM294.856 186.414a135.78 135.78 0 0 1-14.65 2.69.854.854 0 0 0-.74.95.854.854 0 0 0 .95.74 135.54 135.54 0 0 0 14.84-2.73.852.852 0 0 0-.065-1.662.84.84 0 0 0-.335.012ZM265.356 189.879c-2.47-.07-4.94-.24-7.4-.54a32.202 32.202 0 0 1-7.11-1.61.868.868 0 0 0-1.137 1.192.87.87 0 0 0 .547.438 34.303 34.303 0 0 0 7.5 1.69c2.506.3 5.026.483 7.56.55a.86.86 0 0 0 0-1.72h.04ZM240.844 178.293a21.049 21.049 0 0 1-1.06-7.09c.048-2.443.336-4.874.86-7.26a.875.875 0 0 0-1.71-.37 38.657 38.657 0 0 0-.89 7.61 22.468 22.468 0 0 0 1.17 7.68.86.86 0 0 0 .431.562.865.865 0 0 0 .706.055.875.875 0 0 0 .493-1.197v.01ZM245.334 149.905c2-4.55 4.27-9 6.7-13.32a.881.881 0 0 0-.335-1.205.881.881 0 0 0-1.205.335 147.622 147.622 0 0 0-6.77 13.49.88.88 0 0 0 1.61.7ZM259.777 123.804l8.45-12.34a.895.895 0 0 0-.299-1.153.896.896 0 0 0-1.181.153l-8.49 12.42a.887.887 0 0 0 .258 1.2.894.894 0 0 0 1.212-.2l.05-.08ZM276.952 99.255l8.58-12.31a.898.898 0 0 0 .088-1.064.908.908 0 0 0-.613-.415.903.903 0 0 0-.955.48l-8.52 12.27a.907.907 0 0 0-.116 1.08.906.906 0 0 0 .623.423.9.9 0 0 0 .963-.504l-.05.04ZM293.709 74.289c2.59-4.29 5.06-8.68 7.31-13.18a.915.915 0 0 0-1.64-.81c-2.22 4.44-4.66 8.79-7.23 13.05a.91.91 0 1 0 1.56.94ZM306.987 47.239a82.985 82.985 0 0 0 3.81-14.67.93.93 0 1 0-1.84-.29 80.052 80.052 0 0 1-3.71 14.37.925.925 0 0 0 1.74.62v-.03ZM311.047 17.305a19.634 19.634 0 0 0-3-7.22 18.997 18.997 0 0 0-5.73-5.34.943.943 0 1 0-1 1.6 17.109 17.109 0 0 1 5.17 4.81 17.55 17.55 0 0 1 2.73 6.53.934.934 0 1 0 1.83-.38ZM287.646.349a82.43 82.43 0 0 0-15.15 0 .949.949 0 0 0 .15 1.89 82.33 82.33 0 0 1 14.81-.05.94.94 0 0 0 .19-1.87v.03ZM257.534 2.426l-14.72 3.2a.997.997 0 0 0-.832.34 1.001 1.001 0 0 0 1.242 1.53h.05l14.6-3.18h.06a.935.935 0 0 0 .739-.757.933.933 0 0 0-.009-.373.997.997 0 0 0-1.13-.76ZM228.307 9.49c-2.41.65-4.8 1.31-7.21 1.94l-7.29 1.81a1.002 1.002 0 0 0-.71 1.17.997.997 0 0 0 1.17.71l7.27-1.799c2.42-.63 4.85-1.31 7.27-2a.997.997 0 0 0 .456-1.12 1 1 0 0 0-.956-.74v.03ZM199.284 17.072l-14.46 4.06a1 1 0 0 0 .53 1.89l14.42-4.07a1 1 0 1 0-.52-1.88h.03ZM170.426 25.334l-14.39 4.26a.997.997 0 0 0-.66 1.24 1.002 1.002 0 0 0 1.23.66l14.37-4.27a1 1 0 0 0-.55-1.89ZM141.656 33.837l-14.4 4.16a.998.998 0 0 0 .55 1.92l14.42-4.18a1 1 0 0 0-.55-1.91l-.02.01ZM112.816 42.008l-14.5 3.76a1 1 0 0 0 .49 1.91l14.54-3.76a1.003 1.003 0 0 0 .815-1.234 1.012 1.012 0 0 0-.499-.637 1.001 1.001 0 0 0-.806-.06l-.04.02ZM83.734 49.198l-14.66 3a1 1 0 0 0 .39 1.92l14.73-3a1 1 0 0 0-.4-1.93l-.06.01ZM54.325 54.763l-14.79 1.93a1 1 0 1 0 .25 1.92l14.83-1.97a1 1 0 1 0-.25-1.93l-.04.05ZM27.602 58.732l-14.79 1.93a1 1 0 1 0 .25 1.92l14.83-1.97a1 1 0 1 0-.25-1.93l-.04.05ZM1.685 62.079l-14.866 1.22a1 1 0 1 0 .158 1.93L1.884 63.97a1 1 0 1 0-.157-1.94l-.042.048Z"/></svg>
