<svg width="154" height="149" viewBox="0 0 154 149" fill="none" xmlns="http://www.w3.org/2000/svg">
<path opacity="0.3" d="M76.2585 147.791L1.5 104.442L76.2585 60.3135L150.498 104.442L76.2585 147.791Z" fill="#8F8E93"/>
<path d="M76.2585 135.363L1.5 92.013L76.2585 47.8848L150.498 92.013L76.2585 135.363Z" fill="url(#paint0_linear_5902_6523)"/>
<path d="M1.5 92.5322L76.2585 135.882L150.498 92.5322" stroke="black" stroke-width="1.5" stroke-linecap="round"/>
<path d="M36.7816 55.4644V67.2253V70.6229L28.6797 82.3837V97.0194M52.2014 61.2142V101.462M60.3033 115.314V101.462L76.2458 82.3837V74.2818M68.4052 69.5775V110.61M60.3033 78.7248V64.0891V32.2041M84.3477 69.5775V80.0315L92.1882 91.2697V106.167M92.1882 64.0891V72.975L108.131 101.462V115.314M100.29 101.462V59.9074M123.812 59.9074V74.2818L131.914 86.8267V101.462" stroke="#C3C9F3" stroke-width="1.5"/>
<path d="M36.7816 55.4644V67.2253V70.6229L28.6797 82.3837V97.0194M52.2014 61.2142V101.462M60.3033 78.7248V64.0891V32.2041M84.3477 69.5775V80.0315L92.1882 91.2697V106.167M100.29 101.462V59.9074M123.812 59.9074V74.2818L131.914 86.8267V101.462" stroke="#5869DD" stroke-width="1.5"/>
<path d="M76.2585 103.478L1.5 60.1283L76.2585 16L150.498 60.1283L76.2585 103.478Z" fill="url(#paint1_linear_5902_6523)"/>
<path d="M76.2585 103.478L1.5 60.1283L76.2585 16L150.498 60.1283L76.2585 103.478Z" fill="url(#paint2_linear_5902_6523)"/>
<path d="M1.5 60.6475L76.2585 103.997L150.498 60.6475" stroke="#C3C9F3" stroke-width="1.5" stroke-linecap="round"/>
<path d="M76.1056 74.4887L44.8828 56.3838L76.1056 37.9536L107.112 56.3838L76.1056 74.4887Z" fill="#5869DD"/>
<path d="M44.8828 56.6006L76.1056 74.7055L107.112 56.6006" stroke="#F1EFED" stroke-width="1.5" stroke-linecap="round"/>
<ellipse cx="36.7794" cy="55.2021" rx="1.30676" ry="1.04541" fill="#5869DD"/>
<ellipse cx="60.3029" cy="32.2036" rx="1.30676" ry="1.04541" fill="#5869DD"/>
<path d="M125 59.9067C125 60.4841 124.415 60.9521 123.693 60.9521C122.972 60.9521 122.386 60.4841 122.386 59.9067C122.386 59.3294 122.972 58.8613 123.693 58.8613C124.415 58.8613 125 59.3294 125 59.9067Z" fill="#5869DD"/>
<path d="M133.48 100.692C133.48 101.27 132.778 101.738 131.912 101.738C131.046 101.738 130.344 101.27 130.344 100.692C130.344 100.115 131.046 99.6469 131.912 99.6469C132.778 99.6469 133.48 100.115 133.48 100.692Z" fill="#5869DD"/>
<ellipse cx="100.291" cy="101.201" rx="1.56811" ry="1.04541" fill="#5869DD"/>
<path d="M93.7573 106.413C93.7573 106.991 93.0553 107.459 92.1892 107.459C91.3232 107.459 90.6211 106.991 90.6211 106.413C90.6211 105.836 91.3232 105.368 92.1892 105.368C93.0553 105.368 93.7573 105.836 93.7573 106.413Z" fill="#5869DD"/>
<path d="M53.7729 101.723C53.7729 102.301 53.0709 102.769 52.2048 102.769C51.3388 102.769 50.6367 102.301 50.6367 101.723C50.6367 101.146 51.3388 100.678 52.2048 100.678C53.0709 100.678 53.7729 101.146 53.7729 101.723Z" fill="#5869DD"/>
<path d="M69.9761 110.609C69.9761 111.187 69.274 111.655 68.408 111.655C67.5419 111.655 66.8398 111.187 66.8398 110.609C66.8398 110.032 67.5419 109.564 68.408 109.564C69.274 109.564 69.9761 110.032 69.9761 110.609Z" fill="#C3C9F3"/>
<path d="M61.8745 115.24C61.8745 115.817 61.1724 116.285 60.3064 116.285C59.4403 116.285 58.7383 115.817 58.7383 115.24C58.7383 114.662 59.4403 114.194 60.3064 114.194C61.1724 114.194 61.8745 114.662 61.8745 115.24Z" fill="#C3C9F3"/>
<path d="M30.2456 97.5416C30.2456 98.119 29.5435 98.587 28.6775 98.587C27.8114 98.587 27.1094 98.119 27.1094 97.5416C27.1094 96.9642 27.8114 96.4962 28.6775 96.4962C29.5435 96.4962 30.2456 96.9642 30.2456 97.5416Z" fill="#5869DD"/>
<path d="M87.2087 61.3973C89.6264 58.14 87.9398 52.9209 85.2534 50.3931L76.7027 55.3298L87.2087 61.3973Z" fill="black"/>
<path d="M60.3417 56.6864C60.7465 56.929 61.2029 57.1872 61.7048 57.4551C62.0406 57.6342 62.3998 57.8159 62.7803 57.9985C64.3265 58.7404 66.2252 59.4975 68.3323 60.1625L76.7027 55.3298L64.3441 48.1945L64.3222 48.1867C65.8468 49.5942 67.167 53.2421 60.3417 56.6864Z" fill="black"/>
<path d="M68.3323 60.1625C74.0482 61.9663 81.2982 63.0921 87.2087 61.3973L76.7027 55.3298L68.3323 60.1625Z" fill="#F1EFED"/>
<path d="M85.2534 50.3931C83.2532 48.5109 80.8866 46.9138 79.0442 45.8885C73.0963 49.8174 66.7977 49.0714 64.3441 48.1945L76.7027 55.3298L85.2534 50.3931Z" fill="#F1EFED"/>
<path d="M64.2998 48.1786C64.3072 48.1813 64.3147 48.184 64.3222 48.1867M87.2087 61.3973C81.2982 63.0921 74.0482 61.9663 68.3323 60.1625M87.2087 61.3973C89.6264 58.14 87.9398 52.9209 85.2534 50.3931M87.2087 61.3973L76.7027 55.3298M64.3222 48.1867C65.8468 49.5942 67.167 53.2421 60.3417 56.6864C60.7465 56.929 61.2029 57.1872 61.7048 57.4551C62.0406 57.6342 62.3998 57.8159 62.7803 57.9985C64.3265 58.7404 66.2252 59.4975 68.3323 60.1625M64.3222 48.1867C64.3175 48.1823 64.3128 48.178 64.3081 48.1738L64.3441 48.1945M64.3222 48.1867C64.3294 48.1893 64.3367 48.1919 64.3441 48.1945M64.3222 48.1867L64.3441 48.1945M68.3323 60.1625L76.7027 55.3298M85.2534 50.3931C83.2532 48.5109 80.8866 46.9138 79.0442 45.8885C73.0963 49.8174 66.7977 49.0714 64.3441 48.1945M85.2534 50.3931L76.7027 55.3298M64.3441 48.1945L76.7027 55.3298" stroke="black" stroke-width="1.5"/>
<defs>
<linearGradient id="paint0_linear_5902_6523" x1="1.5" y1="91.4939" x2="150.498" y2="91.4939" gradientUnits="userSpaceOnUse">
<stop stop-color="#5869DD"/>
<stop offset="1" stop-color="#F1EFED"/>
</linearGradient>
<linearGradient id="paint1_linear_5902_6523" x1="1.5" y1="59.6091" x2="150.498" y2="59.6091" gradientUnits="userSpaceOnUse">
<stop stop-color="#D0D5F5"/>
<stop offset="1" stop-color="#F1EFED" stop-opacity="0"/>
</linearGradient>
<linearGradient id="paint2_linear_5902_6523" x1="1.5" y1="59.6091" x2="70.7583" y2="59.6091" gradientUnits="userSpaceOnUse">
<stop stop-color="#D0D5F5"/>
<stop offset="1" stop-color="#F1EFED" stop-opacity="0"/>
</linearGradient>
</defs>
</svg>
