<svg width="151" height="148" viewBox="0 0 151 148" fill="none" xmlns="http://www.w3.org/2000/svg">
<path opacity="0.3" d="M75.7596 147.479L1 104.129L75.7596 60L150 104.129L75.7596 147.479Z" fill="#8F8E93"/>
<path d="M75.7596 135.05L1 91.7002L75.7596 47.5713L150 91.7002L75.7596 135.05Z" fill="url(#paint0_linear_5902_6564)"/>
<path d="M1 92.2192L75.7596 135.569L150 92.2192" stroke="black" stroke-width="1.5" stroke-linecap="round"/>
<path opacity="0.2" d="M53.4338 67.2993L31.6289 80.538L97.3031 118.437L119.368 105.458L53.4338 67.2993Z" fill="#202650"/>
<path d="M114.18 98.1899L48.2461 59.5122V9.93206V5L114.18 42.899V48.0906V98.1899Z" fill="#4A58BA"/>
<path d="M105.875 102.343L39.9414 63.6655V14.0854V9.15332L105.875 47.0523V52.2439V102.343Z" fill="#7381E2"/>
<path fill-rule="evenodd" clip-rule="evenodd" d="M31.6328 68.0786L97.5666 106.756V56.657L31.6328 18.4985V68.0786Z" fill="#5869DD"/>
<path d="M97.5666 51.4654L31.6328 13.5664V18.4985L97.5666 56.657V51.4654Z" fill="black"/>
<path d="M31.6328 18.4985V13.5664L97.5666 51.4654V56.657M31.6328 18.4985V68.0786L97.5666 106.756V56.657M31.6328 18.4985L97.5666 56.657" stroke="black" stroke-width="1.5" stroke-linecap="round"/>
<path d="M34.707 24.6519L44.5711 30.4186M51.5799 34.516L47.4265 32.0879" stroke="#F1EFED" stroke-width="1.5" stroke-linecap="round"/>
<path d="M79.8564 76.392L77.9441 75.2879V80.1761L76.4844 79.3333V67.5342L80.9513 70.1131C81.6325 70.5064 82.2164 70.9953 82.703 71.5796C83.1993 72.1583 83.574 72.7848 83.827 73.459C84.0897 74.1277 84.2211 74.7935 84.2211 75.4565C84.2211 76.3442 83.9924 76.9707 83.535 77.3359C83.0776 77.6899 82.4353 77.6955 81.6081 77.3527L85.0094 84.2552L83.1701 83.1933L79.8564 76.392ZM77.9441 73.754L80.8637 75.4396C81.4476 75.7767 81.8952 75.8722 82.2067 75.7261C82.5278 75.5744 82.6884 75.1896 82.6884 74.5715C82.6884 73.9535 82.5278 73.3888 82.2067 72.8775C81.8952 72.3606 81.4476 71.9336 80.8637 71.5965L77.9441 69.9109V73.754Z" fill="#F1EFED"/>
<path d="M71.4591 64.6317C72.1403 65.025 72.7242 65.5138 73.2108 66.0982C73.7071 66.6769 74.0818 67.3034 74.3348 67.9776C74.5976 68.6462 74.7289 69.312 74.7289 69.975C74.7289 70.638 74.5976 71.1577 74.3348 71.5342C74.0818 71.905 73.7071 72.0989 73.2108 72.1157C72.7242 72.1269 72.1403 71.9359 71.4591 71.5426L68.452 69.8065V74.6947L66.9922 73.8519V62.0527L71.4591 64.6317ZM71.4153 69.9497C71.9992 70.2868 72.442 70.3852 72.7437 70.2447C73.0453 70.093 73.1962 69.7081 73.1962 69.0901C73.1962 68.472 73.0453 67.9186 72.7437 67.4298C72.442 66.9409 71.9992 66.528 71.4153 66.1909L68.452 64.48V68.2389L71.4153 69.9497Z" fill="#F1EFED"/>
<path d="M59.6909 57.8367C60.7809 58.466 61.7249 59.2694 62.5229 60.2471C63.3306 61.2303 63.9486 62.2951 64.3768 63.4413C64.805 64.5762 65.0191 65.7 65.0191 66.8124C65.0191 67.9249 64.805 68.8071 64.3768 69.4588C63.9486 70.0993 63.3306 70.4449 62.5229 70.4955C61.7249 70.5516 60.7809 70.2651 59.6909 69.6358L56.1875 67.6131V55.814L59.6909 57.8367ZM59.6909 68.0176C60.4597 68.4615 61.1312 68.675 61.7054 68.6582C62.2796 68.6413 62.7175 68.3997 63.0192 67.9334C63.3306 67.4614 63.4863 66.7928 63.4863 65.9275C63.4863 65.0622 63.3306 64.2194 63.0192 63.3991C62.7175 62.5732 62.2796 61.8203 61.7054 61.1404C61.1312 60.4606 60.4597 59.8987 59.6909 59.4548L57.6473 58.2749V66.8377L59.6909 68.0176Z" fill="#F1EFED"/>
<path d="M53.8563 60.1999V66.268L52.5425 65.5095V63.5205C52.1435 63.9531 51.6277 64.1835 50.9952 64.2116C50.3723 64.234 49.6619 64.0149 48.8639 63.5542C47.9102 63.0036 47.0392 62.2366 46.2509 61.2534C45.4627 60.2589 44.8398 59.1688 44.3824 57.9833C43.9348 56.7922 43.7109 55.6347 43.7109 54.511C43.7109 53.3873 43.9396 52.4967 44.397 51.8393C44.8642 51.1763 45.4967 50.8111 46.2947 50.7437C47.0927 50.665 47.9783 50.9066 48.9515 51.4685C49.9733 52.0585 50.893 52.9097 51.7104 54.0222C52.5376 55.1403 53.1313 56.3427 53.4914 57.6293L51.8272 56.6686C51.5255 55.8988 51.1265 55.2021 50.6302 54.5784C50.1339 53.9435 49.5743 53.4463 48.9515 53.0867C48.2605 52.6877 47.6328 52.522 47.0684 52.5894C46.504 52.6568 46.0563 52.9378 45.7254 53.4322C45.4043 53.921 45.2437 54.5756 45.2437 55.3959C45.2437 56.2163 45.4043 57.0619 45.7254 57.9327C46.0466 58.7924 46.4845 59.579 47.0392 60.2926C47.5939 61.0061 48.207 61.5568 48.8785 61.9445C49.7836 62.467 50.5378 62.6103 51.1411 62.3743C51.7542 62.1327 52.1581 61.6298 52.3527 60.8657L48.7179 58.7671V57.2332L53.8563 60.1999Z" fill="#F1EFED"/>
<defs>
<linearGradient id="paint0_linear_5902_6564" x1="0.999999" y1="91.181" x2="150" y2="91.181" gradientUnits="userSpaceOnUse">
<stop stop-color="#D0D5F5"/>
<stop offset="1" stop-color="#F1EFED"/>
</linearGradient>
</defs>
</svg>
