<svg width="28" height="27" viewBox="0 0 28 27" fill="none" xmlns="http://www.w3.org/2000/svg">
<path d="M16.9592 21.5708C11.6362 23.7852 6.6509 22.8945 4.75505 22.5557C4.70833 22.5474 4.66348 22.5394 4.62055 22.5317C4.52627 22.0183 4.47865 21.5439 4.47482 21.1055C4.47107 20.6756 4.50945 20.2803 4.58726 19.917C4.16217 20.7093 3.63951 22.9121 4.012 24.4334C9.97817 24.9881 21.8363 24.806 23.4303 16.819C23.3686 17.091 23.2278 17.387 23.0004 17.7022C22.9341 17.7941 22.8605 17.8876 22.7793 17.9827C22.6944 18.082 22.6012 18.1831 22.4996 18.2856C21.5139 19.2802 19.7319 20.4172 16.9592 21.5708Z" fill="black"/>
<path fill-rule="evenodd" clip-rule="evenodd" d="M20.7126 16.1639C21.5636 15.4759 22.245 14.9251 22.7793 14.9251C23.19 14.9251 23.4121 15.0761 23.5212 15.2985C23.5761 15.4105 23.6024 15.5406 23.6096 15.6786C23.6269 16.0077 23.5359 16.3817 23.4676 16.6627C23.4539 16.7189 23.4411 16.7714 23.4303 16.819C23.3686 17.091 23.2278 17.387 23.0004 17.7022C22.9341 17.7941 22.8605 17.8876 22.7793 17.9827C22.6944 18.082 22.6012 18.1831 22.4996 18.2856C21.5139 19.2802 19.7319 20.4172 16.9592 21.5708C11.6362 23.7852 6.6509 22.8945 4.75505 22.5557C4.70833 22.5474 4.66348 22.5394 4.62055 22.5317C4.52627 22.0183 4.47865 21.5439 4.47482 21.1055C4.47107 20.6756 4.50945 20.2803 4.58726 19.917C5.0178 17.9066 6.6556 16.8738 9.04336 16.3514C9.04336 16.3514 14.9795 15.1635 16.7929 15.6786C16.4845 15.6786 15.2398 16.2488 15.0537 16.819C14.9047 17.2752 15.8603 17.6427 16.3567 17.7694C16.3567 17.7694 13.1576 19.0529 11.3251 19.1404C10.9437 19.1586 10.5689 19.1765 10.2079 19.2038C11.1391 19.4416 14.1655 19.4416 16.9592 18.4907C18.4706 17.9763 19.7095 16.9748 20.7126 16.1639Z" fill="#F1EFED"/>
<path d="M16.3567 17.7694C16.3567 17.7694 18.2125 16.8268 17.1915 15.8759C17.1023 15.7929 16.9665 15.7279 16.7929 15.6786C16.4845 15.6786 15.2398 16.2488 15.0537 16.819C14.9047 17.2752 15.8603 17.6427 16.3567 17.7694Z" fill="#F1EFED"/>
<path d="M16.3567 17.7694C16.3567 17.7694 18.2125 16.8268 17.1915 15.8759C17.1023 15.7929 16.9665 15.7279 16.7929 15.6786M16.3567 17.7694C16.3567 17.7694 13.1576 19.0529 11.3251 19.1404C10.9437 19.1586 10.5689 19.1765 10.2079 19.2038C11.1391 19.4416 14.1655 19.4416 16.9592 18.4907C18.4706 17.9763 19.7095 16.9748 20.7126 16.1639C21.5636 15.4759 22.245 14.9251 22.7793 14.9251C23.19 14.9251 23.4121 15.0761 23.5212 15.2985M16.3567 17.7694C15.8603 17.6427 14.9047 17.2752 15.0537 16.819C15.2398 16.2488 16.4845 15.6786 16.7929 15.6786M23.4303 16.819C21.8363 24.806 9.97817 24.9881 4.012 24.4334C3.63951 22.9121 4.16217 20.7093 4.58726 19.917M23.4303 16.819C23.3686 17.091 23.2278 17.387 23.0004 17.7022M23.4303 16.819C23.4411 16.7714 23.4539 16.7189 23.4676 16.6627C23.5359 16.3817 23.6269 16.0077 23.6096 15.6786C23.6024 15.5406 23.5761 15.4105 23.5212 15.2985M4.58726 19.917C5.0178 17.9066 6.6556 16.8738 9.04336 16.3514C9.04336 16.3514 14.9795 15.1635 16.7929 15.6786M4.58726 19.917C4.50945 20.2803 4.47107 20.6756 4.47482 21.1055C4.47865 21.5439 4.52627 22.0183 4.62055 22.5317C4.66348 22.5394 4.70833 22.5474 4.75505 22.5557C6.6509 22.8945 11.6362 23.7852 16.9592 21.5708C19.7319 20.4172 21.5139 19.2802 22.4996 18.2856C22.6012 18.1831 22.6944 18.082 22.7793 17.9827C22.8605 17.8876 22.9341 17.7941 23.0004 17.7022M23.5212 15.2985C23.2553 15.7511 22.7788 16.8654 23.0004 17.7022" stroke="black" stroke-width="0.60184" stroke-linecap="round" stroke-linejoin="round"/>
<path d="M12.2423 8.95056C12.2423 9.61961 10.5697 11.4595 9.7334 11.4595C10.5697 11.4595 12.2423 13.2994 12.2423 13.9684C12.2423 13.2994 13.915 11.4595 14.7513 11.4595C13.915 11.4595 12.2423 9.61961 12.2423 8.95056Z" fill="#D6FFBB"/>
<path d="M16.8808 4.68463C16.8808 5.24217 15.487 6.77541 14.79 6.77541C15.487 6.77541 16.8808 8.30866 16.8808 8.8662C16.8808 8.30866 18.2747 6.77541 18.9716 6.77541C18.2747 6.77541 16.8808 5.24217 16.8808 4.68463Z" fill="#D6FFBB"/>
<path d="M10.1914 2.17566C10.1914 2.7332 8.79751 4.26644 8.10059 4.26644C8.79751 4.26644 10.1914 5.79968 10.1914 6.35723C10.1914 5.79968 11.5852 4.26644 12.2822 4.26644C11.5852 4.26644 10.1914 2.7332 10.1914 2.17566Z" fill="#D6FFBB"/>
</svg>
