<svg width="20" height="21" viewBox="0 0 20 21" fill="none" xmlns="http://www.w3.org/2000/svg">
<path d="M12.4008 16.6106C8.42077 18.2664 4.69326 17.6004 3.27572 17.3471C3.24078 17.3408 3.20725 17.3348 3.17515 17.3291C3.10466 16.9452 3.06905 16.5905 3.06619 16.2627C3.06339 15.9412 3.09208 15.6457 3.15026 15.374C2.83242 15.9665 2.44162 17.6135 2.72013 18.751C7.18108 19.1657 16.0474 19.0296 17.2393 13.0577C17.1932 13.261 17.0879 13.4824 16.9179 13.7181C16.8683 13.7868 16.8133 13.8567 16.7525 13.9277C16.6891 14.002 16.6194 14.0776 16.5434 14.1543C15.8064 14.8979 14.474 15.7481 12.4008 16.6106Z" fill="black"/>
<path fill-rule="evenodd" clip-rule="evenodd" d="M15.2073 12.5678C15.8436 12.0535 16.3531 11.6416 16.7525 11.6416C17.0596 11.6416 17.2257 11.7545 17.3073 11.9208C17.3484 12.0045 17.368 12.1018 17.3734 12.205C17.3863 12.451 17.3183 12.7307 17.2672 12.9408C17.257 12.9828 17.2474 13.0221 17.2393 13.0577C17.1932 13.261 17.0879 13.4824 16.9179 13.7181C16.8683 13.7868 16.8133 13.8567 16.7525 13.9277C16.6891 14.002 16.6194 14.0776 16.5434 14.1543C15.8064 14.8979 14.474 15.7481 12.4008 16.6106C8.42077 18.2664 4.69326 17.6004 3.27572 17.3471C3.24078 17.3408 3.20725 17.3348 3.17515 17.3291C3.10466 16.9452 3.06905 16.5905 3.06619 16.2627C3.06339 15.9412 3.09208 15.6457 3.15026 15.374C3.47218 13.8708 4.69677 13.0986 6.48211 12.708C6.48211 12.708 10.9206 11.8198 12.2765 12.205C12.0459 12.205 11.1152 12.6313 10.976 13.0577C10.8647 13.3988 11.5792 13.6735 11.9503 13.7683C11.9503 13.7683 9.55838 14.728 8.18821 14.7934C7.90299 14.807 7.62274 14.8204 7.35281 14.8408C8.04909 15.0186 10.312 15.0186 12.4008 14.3076C13.5309 13.923 14.4572 13.1742 15.2073 12.5678Z" fill="#F1EFED"/>
<path d="M11.9503 13.7683C11.9503 13.7683 13.3379 13.0635 12.5745 12.3525C12.5078 12.2904 12.4063 12.2419 12.2765 12.205C12.0459 12.205 11.1152 12.6313 10.976 13.0577C10.8647 13.3988 11.5792 13.6735 11.9503 13.7683Z" fill="#F1EFED"/>
<path d="M11.9503 13.7683C11.9503 13.7683 13.3379 13.0635 12.5745 12.3525C12.5078 12.2904 12.4063 12.2419 12.2765 12.205M11.9503 13.7683C11.9503 13.7683 9.55838 14.728 8.18821 14.7934C7.90299 14.807 7.62274 14.8204 7.35281 14.8408C8.04909 15.0186 10.312 15.0186 12.4008 14.3076C13.5309 13.923 14.4572 13.1742 15.2073 12.5678C15.8436 12.0535 16.3531 11.6416 16.7525 11.6416C17.0596 11.6416 17.2257 11.7545 17.3073 11.9208M11.9503 13.7683C11.5792 13.6735 10.8647 13.3988 10.976 13.0577C11.1152 12.6313 12.0459 12.205 12.2765 12.205M17.2393 13.0577C16.0474 19.0296 7.18108 19.1657 2.72013 18.751C2.44162 17.6135 2.83242 15.9665 3.15026 15.374M17.2393 13.0577C17.1932 13.261 17.0879 13.4824 16.9179 13.7181M17.2393 13.0577C17.2474 13.0221 17.257 12.9828 17.2672 12.9408C17.3183 12.7307 17.3863 12.451 17.3734 12.205C17.368 12.1018 17.3484 12.0045 17.3073 11.9208M3.15026 15.374C3.47218 13.8708 4.69677 13.0986 6.48211 12.708C6.48211 12.708 10.9206 11.8198 12.2765 12.205M3.15026 15.374C3.09208 15.6457 3.06339 15.9412 3.06619 16.2627C3.06905 16.5905 3.10466 16.9452 3.17515 17.3291C3.20725 17.3348 3.24078 17.3408 3.27572 17.3471C4.69326 17.6004 8.42077 18.2664 12.4008 16.6106C14.474 15.7481 15.8064 14.8979 16.5434 14.1543C16.6194 14.0776 16.6891 14.002 16.7525 13.9277C16.8133 13.8567 16.8683 13.7868 16.9179 13.7181M17.3073 11.9208C17.1084 12.2592 16.7522 13.0924 16.9179 13.7181" stroke="black" stroke-width="0.45" stroke-linecap="round" stroke-linejoin="round"/>
<path d="M8.87412 7.17432C8.87412 7.67457 7.62349 9.05027 6.99817 9.05027C7.62349 9.05027 8.87412 10.426 8.87412 10.9262C8.87412 10.426 10.1248 9.05027 10.7501 9.05027C10.1248 9.05027 8.87412 7.67457 8.87412 7.17432Z" fill="#5869DD"/>
<path d="M12.3417 3.98462C12.3417 4.4015 11.2995 5.54791 10.7784 5.54791C11.2995 5.54791 12.3417 6.69433 12.3417 7.1112C12.3417 6.69433 13.3839 5.54791 13.905 5.54791C13.3839 5.54791 12.3417 4.4015 12.3417 3.98462Z" fill="#5869DD"/>
<path d="M7.3399 2.10864C7.3399 2.52552 6.29771 3.67193 5.77661 3.67193C6.29771 3.67193 7.3399 4.81835 7.3399 5.23523C7.3399 4.81835 8.3821 3.67193 8.9032 3.67193C8.3821 3.67193 7.3399 2.52552 7.3399 2.10864Z" fill="#5869DD"/>
</svg>
