<svg width="80" height="80" viewBox="0 0 80 80" fill="none" xmlns="http://www.w3.org/2000/svg">
<path d="M67.5731 61.7014L64.3309 64.9436C63.857 65.4176 63.0885 65.4175 62.6145 64.9436L55.6534 57.9824C55.1794 57.5085 54.4109 57.5085 53.9369 57.9824L50.4882 61.4312C49.7509 62.1685 48.4883 61.6941 48.419 60.6537L47.4495 46.1117C47.4007 45.379 48.0086 44.7711 48.7413 44.82L63.2832 45.7894C64.3237 45.8588 64.798 47.1213 64.0607 47.8587L60.612 51.3074C60.138 51.7814 60.138 52.5499 60.612 53.0238L67.5731 59.985C68.0471 60.4589 68.0471 61.2274 67.5731 61.7014Z" fill="black"/>
<path d="M5.36914 41.3095C12.3817 45.108 29.3871 49.7245 41.3083 37.8032M41.3083 37.8032C53.2296 25.8819 53.2881 12.9672 51.8271 8M41.3083 37.8032L58.8397 23.7782M41.3083 37.8032L21.1473 52.7049" stroke="black" stroke-width="1.82056" stroke-linecap="round" stroke-linejoin="round"/>
<circle cx="39.5539" cy="39.5559" r="6.13596" fill="#5869DD"/>
<circle cx="58.8408" cy="23.7774" r="4.38283" fill="#5869DD"/>
<circle cx="20.2725" cy="53.5811" r="4.38283" fill="#5869DD"/>
</svg>
