<svg width="80" height="80" viewBox="0 0 80 80" fill="none" xmlns="http://www.w3.org/2000/svg">
<path d="M75.406 66.3996H10.8037V21.0537H75.406V29.7502V66.3996Z" fill="#5869DD"/>
<path d="M50.2432 39.5869L57.393 46.7368L50.2432 53.8866" stroke="#5869DD" stroke-width="1.92" stroke-linecap="round" stroke-linejoin="round"/>
<path d="M35.34 39.5874L28.1901 46.7373L35.34 53.8871M44.2773 37.2041L40.1066 56.8662" stroke="#5869DD" stroke-width="1.92" stroke-linecap="round" stroke-linejoin="round"/>
<circle cx="15.7785" cy="29.7502" r="1.24235" fill="black"/>
<circle cx="20.7443" cy="29.7502" r="1.24235" fill="black"/>
<circle cx="25.7101" cy="29.7502" r="1.24235" fill="black"/>
<path d="M69.1961 58.9455H4.59375V13.5996H69.1961V22.2961V58.9455Z" fill="#F1EFED"/>
<path d="M28 22.2961L69.1961 22.2961M69.1961 22.2961V58.9455H4.59375V13.5996H69.1961V22.2961Z" stroke="black" stroke-width="1.92" stroke-linecap="round" stroke-linejoin="round"/>
<path d="M42.8145 33.3496L48.7969 39.3321L42.8145 45.3145" stroke="#5869DD" stroke-width="1.92" stroke-linecap="round" stroke-linejoin="round"/>
<path d="M30.3481 33.3496L24.3657 39.3321L30.3481 45.3145M37.8262 31.3555L34.3364 47.8072" stroke="#5869DD" stroke-width="1.92" stroke-linecap="round" stroke-linejoin="round"/>
<circle cx="11.1672" cy="22.2961" r="1.24235" fill="black"/>
<circle cx="16.1359" cy="22.2961" r="1.24235" fill="black"/>
<circle cx="21.0988" cy="22.2961" r="1.24235" fill="black"/>
</svg>
