<svg width="80" height="80" viewBox="0 0 80 80" fill="none" xmlns="http://www.w3.org/2000/svg">
<path d="M5.01855 8H68.3479V59.8762H36.6832H5.01855V8Z" fill="#F1EFED"/>
<path d="M36.6832 59.8762H68.3479V8H5.01855V59.8762H36.6832ZM36.6832 59.8762V71.9972M36.6832 71.9972L49.323 72M36.6832 71.9972H25.3016" stroke="black" stroke-width="2" stroke-linecap="round" stroke-linejoin="round"/>
<path d="M58.8654 28.2119C57.8455 30.5699 52.1189 34.6122 43.033 34.6122C40.6658 60.2135 53.4667 69.3086 58.8654 69.3086C61.5515 69.3086 78.3939 61.5609 74.3608 34.6122C64.6593 34.6122 60.2035 30.5699 58.8654 28.2119Z" fill="#5869DD" stroke="black" stroke-width="2" stroke-linecap="round" stroke-linejoin="round"/>
<path d="M58.8603 58.5293C56.0397 58.5293 49.3516 54.5926 50.5884 43.5115C53.3813 40.4289 63.7201 39.9397 66.9562 43.5115C69.0633 55.1758 60.2637 58.5293 58.8603 58.5293Z" fill="#F1EFED" stroke="black" stroke-width="2" stroke-linecap="round" stroke-linejoin="round"/>
<path d="M55.1504 49.4082L58.4019 52.4667L62.5613 45.7295" stroke="black" stroke-width="2" stroke-linecap="round" stroke-linejoin="round"/>
<path d="M14.4541 18.8652H59.93M14.4541 30.2317H41.0659M14.4541 40.2508H37.6973M14.4541 50.2699H25.9073" stroke="black" stroke-width="2" stroke-linecap="round" stroke-linejoin="round"/>
</svg>
