<svg xmlns="http://www.w3.org/2000/svg" width="350" height="142" fill="none" viewBox="0 0 350 142"><g clip-path="url(#a)"><path fill="#F1EFED" d="M33.09 87.554c.075 8.797 6.541 15.564 16.767 17.443l2.782.527-.15 16.315-.226 16.241-24.662.602c-13.61.376-24.887.451-25.188.15-.3-.301-.526-12.105-.526-26.316 0-18.947.225-26.09.902-26.767.902-.902 12.255-1.88 23.76-2.03l6.54-.075v3.91ZM114.594 108.982c.225.376-3.609 6.542-8.421 13.76l-8.797 13.082-13.384.226-13.383.15 4.661-6.917c5.715-8.571 13.309-18.722 14.812-20 .68-.528 6.676-.867 12.569-.941a184.55 184.55 0 0 1 3.998-.007c4.237.04 7.686.245 7.945.647Z"/><path fill="#000" d="M80.759 107.704c3.083.075 3.459.226 1.955.677-2.406.752-20.075.902-22.557.225-.796-.232-1.226-.376-1.245-.51-.024-.17.61-.323 1.997-.617 1.429-.226 5.64-.376 9.324-.151 3.684.151 8.42.301 10.526.376Z"/><path fill="#F1EFED" d="M179.556 109.659c4.361.301 6.166.752 5.865 1.353-.15.527-3.985 6.166-8.421 12.632l-8.121 11.804h-13.383c-7.368 0-13.383-.15-13.383-.3 0-.226 1.954-2.857 4.36-5.865 2.406-3.007 6.391-8.346 8.797-11.88 2.406-3.534 4.888-6.842 5.564-7.368 1.203-.978 8.797-1.203 18.722-.376ZM250.383 111.012c0 .226-1.954 3.158-4.36 6.542-2.482 3.458-6.015 8.646-8.046 11.654-2.631 4.06-4.135 5.639-5.939 6.165-2.707.752-24.512.677-24.512-.15 0-.677 3.985-6.241 12.181-16.917l5.94-7.67h12.406c6.767 0 12.33.151 12.33.376ZM316.549 112.817c0 .902-15.564 21.955-17.143 23.158-1.203.977-23.459 1.504-23.459.526 0-.451 11.579-17.519 14.888-21.955l1.804-2.406h11.955c7.068 0 11.955.301 11.955.677ZM347 125.9c.301 2.556.376 5.714.226 6.917l-.226 2.256-20.225.225c-13.008.075-20.527-.075-21.053-.601-.526-.527 5.564-.752 18.947-.752h19.7v-4.06c0-4.737.676-8.722 1.503-8.722.376 0 .828 2.105 1.128 4.737Z"/><path fill="#000" d="M80.759 107.704c3.083.075 3.459.226 1.955.677l19.937-.039a184.55 184.55 0 0 1 3.998-.007l14.859-.631h-40.75ZM52.639 105.524l6.273 2.572c-.024-.17.61-.323 1.997-.617l-8.27-1.955Z"/><path fill="#000" fill-rule="evenodd" d="M12.94 82.742c-8.948.376-11.655.751-12.181 1.579-.827 1.203-1.053 50.225-.301 53.985.451 2.18.526 2.255 6.316 2.706l5.865.527 2.857-.301c.751-.301 9.699-.602 19.774-.827 10.075-.226 18.647-.677 19.173-1.053.451-.376 1.354-.902 1.955-1.128 1.429-.601 251.805.076 267.595.677l11.579.451 1.654-.526 12.782-.752v-27.561h-12.5c-3.008.151-9.068-.033-12-.183l-38.5-.527h-23s-9.715.451-9.414 0l-36.086-.752c-2.557.677-26.5-.538-26.5-.538l-35.5-.5c-.301.527-33.647.211-35-.315l-14.859.631c4.237.04 7.686.245 7.945.647.225.376-3.609 6.542-8.421 13.76l-8.797 13.082-13.384.226-13.383.15 4.661-6.917c5.715-8.571 13.309-18.722 14.812-20 .68-.528 6.676-.867 12.569-.941l-19.937.039c-2.406.752-20.075.902-22.557.225-.796-.232-1.226-.376-1.245-.51l-6.273-2.572-.15 16.315-.226 16.241-24.662.602c-13.61.376-24.887.451-25.188.15-.3-.301-.526-12.105-.526-26.316 0-18.947.225-26.09.902-26.767.902-.902 12.255-1.88 23.76-2.03l6.54-.075 1.88-.677c-.376-.977-1.88-.977-22.03-.225Zm166.616 26.917c4.361.301 6.166.752 5.865 1.353-.15.527-3.985 6.166-8.421 12.632l-8.121 11.804h-13.383c-7.368 0-13.383-.15-13.383-.3 0-.226 1.954-2.857 4.36-5.865 2.406-3.007 6.391-8.346 8.797-11.88 2.406-3.534 4.888-6.842 5.564-7.368 1.203-.978 8.797-1.203 18.722-.376Zm70.827 1.353c0 .226-1.954 3.158-4.36 6.542-2.482 3.458-6.015 8.646-8.046 11.654-2.631 4.06-4.135 5.639-5.939 6.165-2.707.752-24.512.677-24.512-.15 0-.677 3.985-6.241 12.181-16.917l5.94-7.67h12.406c6.767 0 12.33.151 12.33.376Zm66.166 1.805c0 .902-15.564 21.955-17.143 23.158-1.203.977-23.459 1.504-23.459.526 0-.451 11.579-17.519 14.888-21.955l1.804-2.406h11.955c7.068 0 11.955.301 11.955.677ZM347 125.9c.301 2.556.376 5.714.226 6.917l-.226 2.256-20.225.225c-13.008.075-20.527-.075-21.053-.601-.526-.527 5.564-.752 18.947-.752h19.7v-4.06c0-4.737.676-8.722 1.503-8.722.376 0 .828 2.105 1.128 4.737Z" clip-rule="evenodd"/><path fill="#000" d="M15.196 93.716c-4.135 1.804-5.037 5.338-2.03 8.271 3.835 3.909 10.15 1.127 10.15-4.436 0-1.43-.375-2.858-.751-3.083-2.18-1.354-5.188-1.654-7.369-.752Zm5.264 1.654c2.857 2.632.676 6.993-3.534 6.993-1.278 0-2.707-.376-3.233-.903-2.256-2.255.3-7.368 3.759-7.368.902 0 2.256.526 3.008 1.278Z"/><path fill="#000" d="M20.46 95.37c2.857 2.632.676 6.993-3.534 6.993-1.278 0-2.707-.376-3.233-.903-2.256-2.255.3-7.368 3.759-7.368.902 0 2.256.526 3.008 1.278ZM4.066 106.494c0 4.135.076 5.714.226 3.534.15-2.181.15-5.564 0-7.519s-.226-.15-.226 3.985ZM32.865 99.96c-1.053 1.579 8.12 8.421 11.278 8.421 3.083 0 4.737 2.105 4.812 6.24l.15 3.91.752-4.436c.677-3.985.602-4.586-.676-5.489-.752-.526-2.18-.977-3.233-.977-3.309 0-9.7-3.459-11.279-6.015-.752-1.353-1.579-2.105-1.804-1.654ZM36.096 115.368c-1.053.526-2.556 2.181-3.308 3.609-1.279 2.331-1.354 3.008-.527 4.963 2.481 6.09 12.106 3.834 12.106-2.858 0-2.33-2.557-5.564-4.888-6.24-.827-.226-2.33 0-3.383.526Zm6.24 2.932c1.279 1.73 1.43 2.406.677 3.91-1.203 2.632-4.285 4.511-6.541 3.91-3.76-.977-4.286-5.639-.978-8.722 2.18-2.03 4.963-1.654 6.843.902Z"/><path fill="#000" d="M42.337 118.3c1.278 1.73 1.428 2.406.676 3.91-1.203 2.632-4.285 4.511-6.541 3.91-3.76-.977-4.286-5.639-.978-8.722 2.18-2.03 4.963-1.654 6.843.902ZM3.766 126.8c0 4.962.3 7.895.902 8.496.526.526 2.256.902 3.91.827l3.082-.075-2.556-.601c-1.353-.301-2.782-1.053-3.158-1.655-.376-.526-.677-3.533-.677-6.616 0-3.083-.376-6.166-.751-6.767-.527-.752-.752 1.278-.752 6.391Z"/><path fill="#F1EFED" d="M100.018 85.474c2.142 2.373 14.795 18.346 14.802 18.797.004.226-5.783.465-12.774.573l-12.78.196-7.675-10.033c-4.22-5.5-7.676-10.184-7.68-10.41-.003-.225 5.483-.46 12.249-.564 11.803-.182 12.33-.115 13.858 1.44ZM169.131 85.915c3.057 3.186 14.857 17.443 14.865 17.969.009.602-19.538.902-22.479.346-1.81-.348-4.252-2.642-11.213-10.355l-8.801-9.941 25.336-.39 2.292 2.371ZM242.107 93.064l7.307 10.641-5.03.529c-8.332.955-19.009 1.044-20.525.24-1.137-.584-11.166-12.16-17.838-20.63-.537-.669 2.317-.938 14.045-1.119l14.735-.226 7.306 10.565ZM296.997 83.046c2.96 1.76 18.597 21.07 17.401 21.54-.523.233-5.859.391-11.876.333l-10.904-.058-9.641-10.755c-5.279-5.935-9.569-11.058-9.576-11.509-.02-1.278 22.319-.944 24.596.45ZM344.922 84.64c.839.74.85 6.379.043 7.67-.293.53-.914-.738-1.397-2.836l-.885-3.746-18.422.057c-10.076.08-18.876-.085-19.481-.302-.982-.285-.984-.436-.017-1.127 1.339-.923 39.167-.678 40.159.284ZM345.575 97.715c.016 1.052-.272 1.884-.648 1.89-.902.013-1.763-2.154-1.175-3.066.731-1.364 1.794-.704 1.823 1.176Z"/><path fill="#000" fill-rule="evenodd" d="M348.699 80.822c.458.445.895 9.311 1.14 25.249l-10.556.08s-1.852-.115-7.867-.022c-6.014.092-8.417.28-5.409.309l-39.253.002-5.825-.041-26.525-.966-36.535.712-4.408.079-22.219-.571-34.742-.068s-2.572-.156-4.221-.232c-11.965-.55-30.665.618-30.665.618l-15.16.263c-1.283.007-2.638.031-3.997.069l-18.834-.358-3.066.056s-6.845-.12-10.53-.214c-3.688-.169-7.05.283-8.475.53a20.74 20.74 0 0 1-2.833.412l-5.618.841-4.226.626c-10.253-1.722-16.081-12.815-16.291-21.61l-.06-3.91 1.868-.705c.313.748 24.375.678 116.021-.58 116.831-1.647 196.838-1.825 198.286-.569ZM114.82 104.271c-.007-.451-12.66-16.424-14.802-18.797-1.528-1.556-2.055-1.623-13.858-1.441-6.766.104-12.252.338-12.249.564.004.226 3.46 4.91 7.68 10.41l7.674 10.033 12.781-.196c6.991-.108 12.778-.347 12.774-.573Zm69.176-.387c-.008-.526-11.808-14.782-14.865-17.969l-2.292-2.371-25.336.39 8.801 9.94c6.961 7.714 9.403 10.008 11.213 10.356 2.941.556 22.488.256 22.479-.346Zm65.418-.179-7.307-10.64-7.306-10.566-14.735.226c-11.728.18-14.582.45-14.045 1.119 6.672 8.47 16.701 20.046 17.838 20.63 1.516.804 12.193.715 20.525-.24l5.03-.529Zm64.984.881c1.196-.47-14.441-19.78-17.401-21.54-2.277-1.394-24.616-1.727-24.596-.449.007.451 4.297 5.574 9.576 11.509l9.641 10.755 10.904.058c6.017.058 11.353-.1 11.876-.333Zm30.567-12.276c.807-1.291.796-6.93-.043-7.67-.992-.962-38.82-1.207-40.159-.284-.967.691-.965.842.017 1.127.605.217 9.405.382 19.481.302l18.422-.057.885 3.746c.483 2.098 1.104 3.367 1.397 2.836Zm-.038 7.294c.376-.005.664-.837.648-1.89-.029-1.879-1.092-2.54-1.823-1.174-.588.91.273 3.078 1.175 3.064Z" clip-rule="evenodd"/><g clip-path="url(#b)"><path fill="#F2EA86" stroke="#000" stroke-miterlimit="10" stroke-width="1.7" d="M328.915 172.078c7.779-2.163 12.332-10.222 10.17-18-2.163-7.778-10.222-12.33-18-10.167-7.779 2.164-12.332 10.222-10.17 18 2.163 7.778 10.222 12.33 18 10.167Z"/></g></g><defs><clipPath id="a"><path fill="#fff" d="M0 0h350v142H0z"/></clipPath><clipPath id="b"><path fill="#fff" d="M307 140h36v36h-36z"/></clipPath></defs></svg>
