<svg xmlns="http://www.w3.org/2000/svg" width="350" height="142" fill="none" viewBox="0 0 350 142"><g clip-path="url(#a)"><path fill="#F1EFED" d="M96.893 69.944c2.683 1.738 19.039 13.891 19.163 14.325.062.217-5.466 1.946-12.191 3.86L91.57 91.625l-10.009-7.705c-5.5-4.22-10.05-7.85-10.112-8.068-.062-.216 5.176-1.863 11.685-3.715 11.354-3.23 11.88-3.302 13.759-2.195ZM163.765 52.482c3.777 2.287 18.865 13.003 19.009 13.51.164.578-18.638 5.927-21.623 6.151-1.839.132-4.791-1.451-13.512-7.1l-11.073-7.325 24.371-6.933 2.828 1.697ZM236.105 40.5l9.812 8.387-4.722 1.812c-7.801 3.08-18.091 5.929-19.763 5.545-1.25-.27-13.933-8.856-22.57-15.31-.692-.508 1.995-1.506 13.277-4.716l14.174-4.033 9.792 8.315ZM286.532 16.617c3.314.933 23.416 15.538 22.383 16.302-.445.36-5.559 1.894-11.386 3.395l-10.547 2.766-12.096-7.893c-6.636-4.366-12.105-8.204-12.229-8.638-.349-1.23 21.314-6.69 23.875-5.932ZM333.236 5.752c1.002.497 2.472 5.942 2.027 7.397-.146.59-1.074-.476-2.084-2.377l-1.824-3.39-17.78 4.824c-9.711 2.685-18.255 4.803-18.895 4.75-1.022-.021-1.064-.166-.309-1.085 1.055-1.238 37.658-10.791 38.865-10.119ZM337.25 18.212c.288 1.013.225 1.89-.136 1.994-.868.247-2.26-1.625-1.929-2.657.353-1.507 1.551-1.145 2.065.663Z"/><path fill="#000" fill-rule="evenodd" d="M335.896 1.087c.557.31 3.274 8.762 7.636 24.093l-10.175 2.81s-1.819.368-7.605 2.014c-5.785 1.646-8.058 2.45-5.145 1.699l-37.915 10.161-5.637 1.469-25.871 5.932-35.106 10.144-4.237 1.216-21.61 5.2-33.576 8.926s-2.525.514-4.137.868c-11.7 2.566-29.46 8.534-29.46 8.534l-14.576 4.177c-1.237.34-2.539.713-3.843 1.102L86.355 93.96l-2.947.848s-6.643 1.656-10.228 2.52c-3.605.79-6.735 2.096-8.048 2.704-1.253.663-2.63 1.131-2.63 1.131l-5.21 2.267-3.919 1.698c-10.35.991-18.85-8.216-21.329-16.657l-1.07-3.76 1.623-1.166c.495.641 23.72-5.653 111.916-30.59C256.937 21.129 334.172.25 335.896 1.088ZM116.056 84.27c-.124-.434-16.48-12.587-19.163-14.326-1.879-1.107-2.405-1.035-13.76 2.195-6.508 1.852-11.746 3.498-11.684 3.715.061.217 4.612 3.848 10.112 8.068l10.01 7.705 12.294-3.498c6.725-1.913 12.253-3.642 12.191-3.859Zm66.718-18.278c-.144-.506-15.232-11.222-19.009-13.51l-2.828-1.696-24.371 6.934 11.073 7.324c8.721 5.649 11.673 7.232 13.512 7.1 2.985-.224 21.787-5.573 21.623-6.152Zm63.143-17.104-9.812-8.387-9.792-8.315-14.174 4.033c-11.282 3.21-13.969 4.208-13.277 4.715 8.637 6.455 21.32 15.041 22.57 15.31 1.672.385 11.962-2.464 19.763-5.544l4.722-1.812Zm62.998-15.968c1.033-.764-19.069-15.37-22.383-16.302-2.561-.757-24.224 4.703-23.875 5.932.124.434 5.593 4.272 12.229 8.637l12.096 7.894 10.547-2.766c5.827-1.501 10.941-3.035 11.386-3.395Zm26.348-19.77c.445-1.455-1.025-6.9-2.027-7.397-1.207-.672-37.81 8.881-38.865 10.12-.755.918-.713 1.063.309 1.084.64.053 9.184-2.065 18.895-4.75l17.78-4.824 1.824 3.39c1.01 1.901 1.938 2.966 2.084 2.377Zm1.851 7.057c.361-.103.424-.981.136-1.994-.514-1.808-1.712-2.17-2.065-.663-.331 1.032 1.061 2.904 1.929 2.657Z" clip-rule="evenodd"/><path fill="#F1EFED" d="M33.09 88.179c.075 8.797 6.541 15.564 16.767 17.443l2.782.527-.15 16.315-.226 16.241-24.662.602c-13.61.376-24.887.451-25.188.15-.3-.301-.526-12.105-.526-26.316 0-18.947.225-26.09.902-26.767.902-.902 12.255-1.88 23.76-2.03l6.54-.075v3.91ZM114.594 109.607c.225.376-3.609 6.542-8.421 13.76l-8.797 13.082-13.384.226-13.383.15 4.661-6.917c5.715-8.571 13.309-18.722 14.812-20 .68-.528 6.676-.867 12.569-.941a184.55 184.55 0 0 1 3.998-.007c4.237.04 7.686.245 7.945.647Z"/><path fill="#000" d="M80.759 108.329c3.083.075 3.459.226 1.955.677-2.406.752-20.075.902-22.557.225-.796-.232-1.226-.376-1.245-.51-.024-.17.61-.323 1.997-.617 1.429-.226 5.64-.376 9.324-.151 3.684.151 8.42.301 10.526.376Z"/><path fill="#F1EFED" d="M179.556 110.284c4.361.301 6.166.752 5.865 1.353-.15.527-3.985 6.166-8.421 12.632l-8.121 11.804h-13.383c-7.368 0-13.383-.15-13.383-.3 0-.226 1.954-2.857 4.36-5.865 2.406-3.007 6.391-8.346 8.797-11.88 2.406-3.534 4.888-6.842 5.564-7.368 1.203-.978 8.797-1.203 18.722-.376ZM250.383 111.637c0 .226-1.954 3.158-4.36 6.542-2.482 3.458-6.015 8.646-8.046 11.654-2.631 4.06-4.135 5.639-5.939 6.165-2.707.752-24.512.677-24.512-.15 0-.677 3.985-6.241 12.181-16.917l5.94-7.67h12.406c6.767 0 12.33.151 12.33.376ZM316.549 113.442c0 .902-15.564 21.955-17.143 23.158-1.203.977-23.459 1.504-23.459.526 0-.451 11.579-17.519 14.888-21.955l1.804-2.406h11.955c7.068 0 11.955.301 11.955.677ZM347 126.525c.301 2.556.376 5.714.226 6.917l-.226 2.256-20.225.225c-13.008.075-20.527-.075-21.053-.601-.526-.527 5.564-.752 18.947-.752h19.7v-4.06c0-4.737.676-8.722 1.503-8.722.376 0 .828 2.105 1.128 4.737Z"/><path fill="#000" d="M80.759 108.329c3.083.075 3.459.226 1.955.677l19.937-.039a184.55 184.55 0 0 1 3.998-.007l14.859-.631h-40.75ZM52.639 106.149l6.273 2.572c-.024-.17.61-.323 1.997-.617l-8.27-1.955Z"/><path fill="#000" fill-rule="evenodd" d="M12.94 83.367c-8.948.376-11.655.751-12.181 1.579-.827 1.203-1.053 50.225-.301 53.985.451 2.18.526 2.255 6.316 2.706l5.865.527 2.857-.301c.751-.301 9.699-.602 19.774-.827 10.075-.226 18.647-.677 19.173-1.053.451-.376 1.354-.902 1.955-1.128 1.429-.601 251.805.076 267.595.677l11.579.451 1.654-.526 12.782-.752v-27.561h-12.5c-3.008.151-9.068-.033-12-.183l-38.5-.527h-23s-9.715.451-9.414 0l-36.086-.752c-2.557.677-26.5-.538-26.5-.538l-35.5-.5c-.301.527-33.647.211-35-.315l-14.859.631c4.237.04 7.686.245 7.945.647.225.376-3.609 6.542-8.421 13.76l-8.797 13.082-13.384.226-13.383.15 4.661-6.917c5.715-8.571 13.309-18.722 14.812-20 .68-.528 6.676-.867 12.569-.941l-19.937.039c-2.406.752-20.075.902-22.557.225-.796-.232-1.226-.376-1.245-.51l-6.273-2.572-.15 16.315-.226 16.241-24.662.602c-13.61.376-24.887.451-25.188.15-.3-.301-.526-12.105-.526-26.316 0-18.947.225-26.09.902-26.767.902-.902 12.255-1.88 23.76-2.03l6.54-.075 1.88-.677c-.376-.977-1.88-.977-22.03-.225Zm166.616 26.917c4.361.301 6.166.752 5.865 1.353-.15.527-3.985 6.166-8.421 12.632l-8.121 11.804h-13.383c-7.368 0-13.383-.15-13.383-.3 0-.226 1.954-2.857 4.36-5.865 2.406-3.007 6.391-8.346 8.797-11.88 2.406-3.534 4.888-6.842 5.564-7.368 1.203-.978 8.797-1.203 18.722-.376Zm70.827 1.353c0 .226-1.954 3.158-4.36 6.542-2.482 3.458-6.015 8.646-8.046 11.654-2.631 4.06-4.135 5.639-5.939 6.165-2.707.752-24.512.677-24.512-.15 0-.677 3.985-6.241 12.181-16.917l5.94-7.67h12.406c6.767 0 12.33.151 12.33.376Zm66.166 1.805c0 .902-15.564 21.955-17.143 23.158-1.203.977-23.459 1.504-23.459.526 0-.451 11.579-17.519 14.888-21.955l1.804-2.406h11.955c7.068 0 11.955.301 11.955.677ZM347 126.525c.301 2.556.376 5.714.226 6.917l-.226 2.256-20.225.225c-13.008.075-20.527-.075-21.053-.601-.526-.527 5.564-.752 18.947-.752h19.7v-4.06c0-4.737.676-8.722 1.503-8.722.376 0 .828 2.105 1.128 4.737Z" clip-rule="evenodd"/><path fill="#000" d="M15.196 94.34c-4.135 1.805-5.037 5.34-2.03 8.272 3.835 3.909 10.15 1.127 10.15-4.436 0-1.43-.375-2.858-.751-3.083-2.18-1.354-5.188-1.654-7.369-.752Zm5.264 1.655c2.857 2.632.676 6.993-3.534 6.993-1.278 0-2.707-.376-3.233-.903-2.256-2.255.3-7.368 3.759-7.368.902 0 2.256.526 3.008 1.278Z"/><path fill="#000" d="M20.46 95.995c2.857 2.632.676 6.993-3.534 6.993-1.278 0-2.707-.376-3.233-.903-2.256-2.255.3-7.368 3.759-7.368.902 0 2.256.526 3.008 1.278ZM4.066 107.119c0 4.135.076 5.714.226 3.534.15-2.181.15-5.564 0-7.519s-.226-.15-.226 3.985ZM32.865 100.585c-1.053 1.579 8.12 8.421 11.278 8.421 3.083 0 4.737 2.105 4.812 6.24l.15 3.91.752-4.436c.677-3.985.602-4.586-.676-5.489-.752-.526-2.18-.977-3.233-.977-3.309 0-9.7-3.459-11.279-6.015-.752-1.353-1.579-2.105-1.804-1.654ZM36.096 115.993c-1.053.527-2.556 2.181-3.308 3.609-1.279 2.331-1.354 3.008-.527 4.963 2.481 6.09 12.106 3.834 12.106-2.858 0-2.33-2.557-5.563-4.888-6.24-.827-.226-2.33 0-3.383.526Zm6.24 2.933c1.279 1.729 1.43 2.406.677 3.909-1.203 2.632-4.285 4.512-6.541 3.91-3.76-.977-4.286-5.639-.978-8.722 2.18-2.03 4.963-1.654 6.843.903Z"/><path fill="#000" d="M42.337 118.926c1.278 1.729 1.428 2.406.676 3.909-1.203 2.632-4.285 4.512-6.541 3.91-3.76-.977-4.286-5.639-.978-8.722 2.18-2.03 4.963-1.654 6.843.903ZM3.766 127.425c0 4.962.3 7.895.902 8.496.526.527 2.256.903 3.91.827l3.082-.075-2.556-.601c-1.353-.301-2.782-1.053-3.158-1.654-.376-.527-.677-3.534-.677-6.617s-.376-6.165-.751-6.767c-.527-.752-.752 1.278-.752 6.391Z"/><g clip-path="url(#b)"><path fill="#F2EA86" stroke="#000" stroke-miterlimit="10" stroke-width="1.7" d="M328.915 169.078c7.779-2.163 12.332-10.222 10.17-18-2.163-7.778-10.222-12.33-18-10.167-7.779 2.164-12.332 10.222-10.17 18 2.163 7.778 10.222 12.33 18 10.167Z"/></g></g><defs><clipPath id="a"><path fill="#fff" d="M0 0h350v142H0z"/></clipPath><clipPath id="b"><path fill="#fff" d="M307 137h36v36h-36z"/></clipPath></defs></svg>
