<svg xmlns="http://www.w3.org/2000/svg" width="429" height="364" fill="none" viewBox="0 0 429 364"><path fill="#000" d="M48.36 41.28c1.92-4.63 4.78-8.82 8.13-12.53.01-.02.04-.02.06 0 .02.01.02.04 0 .06-3.36 3.69-6.24 7.86-8.19 12.48v-.01ZM67.78 18.9c4.1-2.88 8.45-5.38 12.96-7.56.06-.03.13 0 .16.06s0 .13-.06.16c-4.51 2.15-8.87 4.62-12.97 7.47-.04.03-.09.02-.11-.02-.02-.04-.02-.09.02-.11ZM94.658 5.748c4.76-1.56 9.62-2.82 14.53-3.76.11-.02.21.05.23.16.02.11-.05.21-.16.23-4.91.92-9.76 2.15-14.51 3.68-.08.03-.17-.02-.2-.1s.02-.17.1-.2l.01-.01ZM124.097.138c5-.26 10.04-.17 15.02.42.15.02.26.16.24.31a.28.28 0 0 1-.31.24c-4.95-.6-9.95-.73-14.93-.49-.13 0-.24-.09-.25-.23 0-.13.09-.24.23-.25ZM153.76 3.983c4.7 1.77 9.19 4.27 12.94 7.67.15.13.16.36.03.5-.13.15-.36.16-.5.03-3.66-3.35-8.05-5.83-12.69-7.6a.314.314 0 0 1-.18-.41c.06-.16.25-.25.41-.18l-.01-.01ZM175.141 24.098c1.76 4.76 2.38 9.87 2.23 14.9 0 .24-.21.43-.45.42a.43.43 0 0 1-.42-.45c.17-4.95-.41-9.95-2.1-14.6-.08-.21.03-.43.24-.51a.4.4 0 0 1 .51.24h-.01ZM175.028 53.889c-1.31 4.86-3.04 9.59-5.04 14.19-.11.26-.41.38-.67.26a.498.498 0 0 1-.26-.67c1.99-4.57 3.73-9.24 5.05-14.04.07-.25.33-.4.59-.33.25.07.4.33.33.58v.01ZM163.308 81.556a217.47 217.47 0 0 1-7.75 12.88c-.17.26-.51.33-.77.16a.552.552 0 0 1-.16-.77c2.72-4.18 5.32-8.44 7.75-12.8a.53.53 0 0 1 .72-.21c.25.14.35.47.21.72v.02ZM128.599 130.528l-9.67 11.49c-.23.27-.63.31-.91.08a.648.648 0 0 1-.08-.91l.01-.02 9.69-11.43h.01c.22-.27.61-.31.87-.08.26.22.3.61.07.87h.01ZM108.919 153.215l-10.4 10.85c-.26.27-.7.28-.97.02a.691.691 0 0 1-.02-.97l.02-.02 10.39-10.78.02-.02c.25-.26.68-.27.94-.02.26.25.27.67.02.94ZM87.668 174.483l-11.4 9.82a.73.73 0 0 1-1.03-.08.73.73 0 0 1 .08-1.03l.04-.03 11.37-9.73.03-.03c.3-.25.75-.22 1 .08s.22.74-.08 1h-.01ZM64.19 193.284c-4.15 2.83-8.45 5.46-12.91 7.8a.779.779 0 0 1-.72-1.38c4.41-2.29 8.66-4.88 12.78-7.67.35-.23.81-.14 1.05.2.23.35.14.81-.2 1.05ZM37.31 206.909c-4.84 1.45-9.92 2.37-15.06 2.14-.45-.02-.8-.4-.78-.86.02-.45.4-.8.86-.78 4.88.24 9.79-.63 14.52-2.03.42-.13.87.11 1 .53.13.42-.11.87-.54 1ZM7.84 203.995a21.2 21.2 0 0 1-5.07-5.89c-1.31-2.25-2.22-4.71-2.75-7.24a.854.854 0 0 1 1.67-.35c.49 2.37 1.34 4.66 2.55 6.73 1.21 2.08 2.79 3.93 4.66 5.42.36.29.42.82.13 1.19-.29.36-.82.42-1.19.13v.01ZM.79 175.634c1.32-4.92 3.39-9.6 5.92-13.98.24-.41.77-.56 1.18-.32.41.24.56.77.32 1.18-2.47 4.27-4.49 8.81-5.76 13.55-.12.46-.59.73-1.05.61a.857.857 0 0 1-.61-1.05v.01ZM15.641 149.415c3.37-3.77 7.08-7.22 11.05-10.35.38-.3.94-.24 1.24.15.3.38.24.94-.15 1.24-3.89 3.06-7.53 6.44-10.83 10.13a.87.87 0 1 1-1.3-1.16l-.01-.01ZM39.267 130.676c4.39-2.47 8.96-4.63 13.65-6.48a.892.892 0 1 1 .66 1.66c-4.61 1.82-9.11 3.94-13.44 6.37-.43.24-.97.09-1.21-.34a.887.887 0 0 1 .34-1.21ZM67.27 119.496c4.87-1.28 9.8-2.3 14.77-3.07.5-.08.96.26 1.04.76.08.5-.26.96-.76 1.04-4.91.76-9.79 1.76-14.59 3.02a.895.895 0 0 1-1.1-.64c-.12-.48.16-.98.64-1.1v-.01ZM97.018 114.802c5.02-.33 10.04-.44 15.06-.38.51 0 .92.43.91.94 0 .51-.43.92-.94.91-4.98-.07-9.96.04-14.92.36a.91.91 0 0 1-.97-.86.91.91 0 0 1 .86-.97ZM156.931 119.269l14.7 3.2c.51.11.84.62.73 1.14-.11.51-.62.84-1.14.73h-.04l-14.61-3.2h-.04a.965.965 0 0 1-.72-1.14.95.95 0 0 1 1.13-.72l-.01-.01ZM186.169 126.339c4.81 1.43 9.58 3.03 14.28 4.85.5.19.75.75.55 1.25-.19.5-.75.75-1.25.55-4.63-1.8-9.36-3.38-14.13-4.81a.967.967 0 0 1-.65-1.2c.15-.51.69-.8 1.2-.65v.01ZM214.229 137.37c4.47 2.34 8.8 4.98 12.84 8.04.43.33.52.95.19 1.38-.33.43-.95.52-1.38.19-3.93-2.99-8.17-5.58-12.56-7.88a.976.976 0 0 1-.41-1.32c.25-.48.84-.66 1.32-.41ZM238.019 155.981c3.16 4.01 5.69 8.55 7.26 13.44.17.53-.12 1.09-.64 1.26-.52.17-1.09-.12-1.26-.64-1.48-4.65-3.89-8.98-6.91-12.83a.989.989 0 0 1 .17-1.39.989.989 0 0 1 1.39.17l-.01-.01ZM247.149 184.591c-.28 5.11-1.39 10.12-3.01 14.92-.17.52-.73.79-1.25.62a.984.984 0 0 1-.62-1.25c1.57-4.67 2.63-9.51 2.89-14.4a.996.996 0 1 1 1.99.11ZM237.94 213.337c-2.45 4.42-5.21 8.64-8.17 12.71a.973.973 0 0 1-1.57-1.15c2.92-4.02 5.63-8.19 8.03-12.52.26-.47.86-.64 1.33-.38.47.26.64.86.38 1.33v.01ZM220.34 237.831c-3.31 3.78-6.76 7.44-10.31 10.98a.96.96 0 0 1-1.35 0 .96.96 0 0 1 0-1.35c3.52-3.52 6.94-7.14 10.21-10.89a.965.965 0 0 1 1.45 1.27v-.01ZM199.049 259.105l-11.5 9.7c-.4.34-.99.28-1.33-.11-.34-.39-.28-.99.11-1.33l.03-.03 11.42-9.65.04-.03a.95.95 0 0 1 1.23 1.45ZM175.588 277.938l-10.21 7.12.41-.79.08 2.57v.02c.02.51-.38.94-.9.96a.928.928 0 0 1-.96-.9l-.09-2.6a.9.9 0 0 1 .38-.77l.03-.02 10.15-7.08.03-.02a.931.931 0 0 1 1.3.23.94.94 0 0 1-.23 1.3l.01-.02ZM167.349 301.639c.78 4.9 1.83 9.76 3.22 14.52.14.48-.14.99-.62 1.13a.916.916 0 0 1-1.13-.62c-1.41-4.84-2.49-9.77-3.28-14.74a.916.916 0 1 1 1.81-.29ZM175.78 330.057c2.12 4.47 4.64 8.74 7.66 12.63.3.39.23.95-.16 1.26-.39.31-.95.23-1.26-.16-3.12-4.01-5.71-8.39-7.88-12.96a.918.918 0 0 1 .43-1.21c.45-.21.99-.02 1.21.43v.01ZM193.987 352.886c4 2.83 8.49 4.96 13.21 6.28a.883.883 0 0 1-.48 1.7 44.623 44.623 0 0 1-13.76-6.52c-.4-.28-.5-.84-.22-1.24s.84-.5 1.24-.22h.01ZM221.778 360.892c4.93-.12 9.84-.87 14.64-2.04.47-.11.93.17 1.05.64.11.47-.17.93-.64 1.05-4.9 1.2-9.93 1.97-15.01 2.11a.886.886 0 0 1-.9-.85c-.01-.48.37-.88.85-.9l.01-.01ZM250.55 354.211c4.6-1.87 9.09-4.02 13.48-6.36.42-.22.93-.07 1.15.35.22.42.07.93-.35 1.15-4.43 2.37-8.97 4.55-13.63 6.45a.858.858 0 0 1-1.12-.47c-.18-.44.03-.94.47-1.12ZM276.908 340.291l6.21-4.17 3.1-2.08c1.04-.69 2.04-1.44 3.06-2.15h.02a.82.82 0 0 1 1.15.19c.26.37.17.89-.2 1.15-1.02.72-2.02 1.48-3.07 2.17l-3.12 2.1-6.24 4.21a.84.84 0 0 1-1.17-.23.84.84 0 0 1 .23-1.17l.03-.02ZM301.2 322.857c3.89-3.12 7.69-6.35 11.35-9.73.32-.29.81-.27 1.1.04.29.32.27.81-.04 1.1-3.68 3.42-7.49 6.69-11.4 9.84-.35.28-.85.22-1.13-.12a.808.808 0 0 1 .12-1.13ZM323.04 302.517c3.31-3.71 6.41-7.61 9.14-11.75.22-.34.68-.43 1.02-.21.34.22.43.68.21 1.02-2.77 4.22-5.9 8.18-9.23 11.95-.28.31-.76.34-1.07.06a.769.769 0 0 1-.07-1.07ZM338.901 277.594c1.63-4.64 2.53-9.57 2.08-14.45a.68.68 0 0 1 .62-.75c.38-.04.72.24.75.62.49 5.12-.44 10.26-2.11 15.05-.13.37-.54.57-.91.44a.718.718 0 0 1-.44-.91h.01ZM335.548 249.837c-3.09-3.78-7.25-6.63-11.78-8.53a.652.652 0 0 1-.35-.84c.14-.33.51-.48.84-.35 4.69 1.95 9.04 4.9 12.31 8.87.23.28.19.71-.09.94-.28.23-.71.19-.94-.09h.01ZM309.401 238.304c-4.92-.1-9.88.67-14.47 2.44a.602.602 0 1 1-.44-1.12c4.75-1.85 9.86-2.66 14.93-2.57.34 0 .62.29.61.63 0 .34-.29.62-.63.61v.01ZM283 249.089a26.965 26.965 0 0 0-3.91 6.19c-1.01 2.23-1.75 4.61-2.3 7.01a.55.55 0 0 1-.66.42.56.56 0 0 1-.42-.67c.56-2.47 1.31-4.9 2.35-7.23 1.05-2.32 2.42-4.51 4.05-6.47.2-.24.57-.28.81-.07.24.2.28.57.07.81l.01.01ZM275.877 277.04c.42 4.94 1.48 9.82 3.01 14.54a.5.5 0 0 1-.33.64.5.5 0 0 1-.64-.33c-1.57-4.78-2.66-9.73-3.11-14.76-.03-.29.19-.55.48-.58.29-.03.55.19.58.48l.01.01ZM284.818 305.226c2.38 4.37 5.12 8.54 8.16 12.48.15.19.11.47-.08.62-.19.15-.47.11-.61-.08a95.461 95.461 0 0 1-8.31-12.56.48.48 0 0 1 .84-.46ZM302.92 328.851c3.57 3.47 7.39 6.7 11.39 9.67.16.12.19.34.07.5-.12.16-.34.19-.5.08-4.05-2.96-7.9-6.19-11.52-9.67a.395.395 0 1 1 .55-.57l.01-.01ZM326.871 346.62c4.35 2.44 8.85 4.61 13.47 6.5a.276.276 0 1 1-.21.51c-4.64-1.88-9.18-4.04-13.57-6.46-.15-.09-.21-.28-.12-.43.09-.15.28-.21.43-.12ZM354.481 358.007c4.8 1.36 9.68 2.45 14.6 3.28.11.02.18.12.16.23-.02.11-.12.18-.23.16-4.94-.81-9.84-1.88-14.67-3.21a.244.244 0 0 1-.17-.29c.04-.13.17-.2.29-.17h.02ZM383.961 363.039c4.98.34 9.98.43 14.98.31.07 0 .12.05.12.12 0 .07-.05.12-.12.12-5 .15-10.01.08-15.01-.23-.09 0-.15-.08-.15-.17 0-.09.08-.15.17-.15h.01ZM413.888 362.324c4.97-.55 9.91-1.3 14.83-2.23.02 0 .04.01.05.03 0 .02-.01.04-.03.05-4.91.96-9.85 1.73-14.82 2.31-.04 0-.08-.03-.09-.07 0-.04.03-.08.07-.09h-.01Z"/><path fill="#5869DD" d="M414.518 152.182c.386-5.047-.898-7.702-6.497-11.429a4.938 4.938 0 0 0-2.123-.772l-63.5 36.309 1.989 4.637 70.131-28.745Z"/><path fill="url(#a)" d="M353.712 135.997 323 170.264l9.948 15.314 11.439-4.651-1.989-4.637 63.5-36.309-46.802-5.93c-2.034-.258-4.068.477-5.384 1.946Z"/><path fill="#5869DD" fill-rule="evenodd" d="m355.827 220.8-3.012-4.637L418 223.118c-.967 4.973-2.31 6.788-6.466 7.882l-55.707-10.2Z" clip-rule="evenodd"/><path fill="url(#b)" d="m418 223.118-3.482-70.936-70.131 28.745-11.439 4.651 19.867 30.585L418 223.118Z"/><path stroke="#000" stroke-linejoin="round" stroke-width="2" d="m405.898 139.981-46.802-5.93c-2.034-.258-4.068.477-5.384 1.946L323 170.264l9.948 15.314m72.95-45.597a4.938 4.938 0 0 1 2.123.772c5.599 3.727 6.883 6.382 6.497 11.429m-8.62-12.201-63.5 36.309 1.989 4.637m70.131-28.745L418 223.118m-3.482-70.936-70.131 28.745M418 223.118c-.967 4.973-2.31 6.788-6.466 7.882l-55.707-10.2-3.012-4.637M418 223.118l-65.185-6.955m-8.428-35.236-11.439 4.651m19.867 30.585-19.867-30.585"/><path fill="url(#c)" fill-rule="evenodd" d="M318.662 193.459a424.963 424.963 0 0 1-.573-4.393c-.6-7.142-.259-12.91 2.91-16.038 1.545-1.526 3.763-2.424 6.873-2.548 8.813-.352 13.667 5.769 16.496 15.016 1.184 3.868 2.014 8.283 2.631 13 .328 4.934 3.23 12.838 2.5 15.994l-37.905-3.985c-.47-1.296 1.614-4.361 3.691-7.415 1.95-2.867 3.893-5.724 3.713-7.102-.112-.855-.225-1.698-.336-2.529Z" clip-rule="evenodd"/><path fill="#000" d="M349.499 214.49c.955-4.126.611-13.826 0-18.498.066.509-.487.758-1.09 1.03-.698.315-1.464.66-1.41 1.474.328 4.934 3.23 12.838 2.5 15.994ZM325.499 167.04c-8.891 2.398-8.805 10.733-7.41 22.026-.6-7.142-.259-12.91 2.91-16.038l4.5-5.988Z"/><path fill="#F1EFED" fill-rule="evenodd" d="M346.999 183.331c-2.984-10.344-8.354-17.925-18.5-16.835-1.098.118-2.096.3-3 .544l-4.5 5.988c1.545-1.526 3.763-2.424 6.873-2.548 8.813-.352 13.667 5.769 16.496 15.016l2.631-2.165Z" clip-rule="evenodd"/><path fill="#000" d="M348.409 197.022c.603-.272 1.156-.521 1.09-1.03-.577-4.403-1.366-8.732-2.5-12.661l-2.631 2.165c1.184 3.868 2.014 8.283 2.631 13-.054-.814.712-1.159 1.41-1.474Z"/><path stroke="#000" stroke-width="2" d="M349.499 195.992c.611 4.672.955 14.372 0 18.498m0-18.498c.066.509-.487.758-1.09 1.03-.698.315-1.464.66-1.41 1.474m2.5-2.504c-.577-4.403-1.366-8.732-2.5-12.661m2.5 31.159-37.905-3.985c-.47-1.296 1.614-4.361 3.691-7.415 1.95-2.867 3.893-5.724 3.713-7.102-.112-.855-.225-1.698-.336-2.529a424.963 424.963 0 0 1-.573-4.393m31.41 25.424c.73-3.156-2.172-11.06-2.5-15.994m0 0c-.617-4.717-1.447-9.132-2.631-13m-24.997 14.484c-.505-3.856-.998-7.538-1.282-10.914m0 0c-1.395-11.293-1.481-19.628 7.41-22.026m-7.41 22.026c-.6-7.142-.259-12.91 2.91-16.038m4.5-5.988a19.535 19.535 0 0 1 3-.544c10.146-1.09 15.516 6.491 18.5 16.835m-21.5-16.291-4.5 5.988m0 0c1.545-1.526 3.763-2.424 6.873-2.548 8.813-.352 13.667 5.769 16.496 15.016m2.631-2.165-2.631 2.165"/><path fill="#D9D9D9" d="M314.094 191.733c-1.396-4.709-4.039-8.272-6.006-8.17a1.721 1.721 0 0 0-.204.024c-1.985.376-2.421 4.631-.975 9.506 1.446 4.874 3.608 10.282 5.592 9.907 1.985-.376 3.039-6.393 1.593-11.267Z"/><path fill="#000" d="M331.637 180.749c2.091-.396 4.958 3.235 6.404 8.109 1.445 4.874.438 10.326-1.652 10.722L312.501 203c1.985-.376 3.039-6.393 1.593-11.267-1.396-4.709-4.039-8.272-6.006-8.17l23.549-2.814Z"/><path stroke="#000" stroke-width="2" d="M307.884 183.587c-1.985.376-2.421 4.631-.975 9.506 1.446 4.874 3.608 10.282 5.592 9.907m-4.617-19.413.204-.024m-.204.024c.067-.012.135-.02.204-.024M312.501 203c1.985-.376 3.039-6.393 1.593-11.267-1.396-4.709-4.039-8.272-6.006-8.17M312.501 203l23.888-3.42c2.09-.396 3.097-5.848 1.652-10.722-1.446-4.874-4.313-8.505-6.404-8.109l-23.549 2.814"/><path fill="#5869DD" fill-rule="evenodd" d="M306.74 250.802c13.462-2.009 23.964-12.583 27.941-26.304l-64.671 3c6.338 15.693 21.097 25.636 36.73 23.304Z" clip-rule="evenodd"/><path fill="url(#d)" d="M296.434 172.049c-19.017 2.838-32.127 22.768-29.281 44.515a44.632 44.632 0 0 0 2.857 10.934l64.671-3c1.641-5.661 2.171-11.858 1.34-18.211-2.846-21.746-15.521-37.829-39.587-34.238Z"/><path stroke="#000" stroke-width="2" d="M334.681 224.498c1.641-5.661 2.171-11.858 1.34-18.211-2.846-21.746-15.521-37.829-39.587-34.238-19.017 2.838-32.127 22.768-29.281 44.515a44.632 44.632 0 0 0 2.857 10.934m64.671-3c-3.977 13.721-14.479 24.295-27.941 26.304-15.633 2.332-30.392-7.611-36.73-23.304m64.671-3-64.671 3"/><ellipse cx="30.973" cy="34.881" fill="#000" stroke="#000" stroke-width="2" rx="30.973" ry="34.881" transform="matrix(.99534 -.09645 .08469 .9964 258 179.977)"/><path fill="#5869DD" d="M179.5 331.5 169 196l-41-9 10.167 131.204L179.5 331.5Z"/><path fill="url(#e)" d="M311 166.5 169 196l10.5 135.5 141.528-35.589L311 166.5Z"/><path fill="url(#f)" d="m169 196 142-29.5-41-9L128 187l41 9Z"/><path stroke="#000" stroke-linejoin="round" stroke-width="2" d="M179.5 331.5 169 196m10.5 135.5-41.333-13.296L128 187m51.5 144.5 141.528-35.589L311 166.5m0 0L169 196m142-29.5-41-9L128 187m41 9-41-9"/><path fill="#000" fill-rule="evenodd" d="M154.042 315.508 154 315.5l.042.008Z" clip-rule="evenodd"/><path fill="#000" d="m174.233 321.316-1.767-29.287-13.733-3.014L141.5 285.5l2 8 10.5 22 .042.008c1.718.372 16.49 6.486 20.191 5.808Z"/><path stroke="#000" stroke-linejoin="round" stroke-width="2" d="m154 315.5-10.5-22-2-8 17.233 3.515 13.733 3.014 1.767 29.287c-3.701.678-18.473-5.436-20.191-5.808M154 315.5l.042.008M154 315.5l.042.008M166.5 318l-12.458-2.492"/><path fill="#000" d="m184.016 206.47 8.426 108.736 4.74-5.97-3.833-49.466-5.347-18.268-3.986-35.032ZM192.442 315.206l113.574-28.559-5.5-3.395-103.334 25.984-4.74 5.97Z"/><path fill="#F1EFED" d="m306.016 286.647-8.048-103.85-4.774 5.969 7.322 94.486 5.5 3.395Z"/><path fill="#5869DD" d="M297.968 182.797 184.016 206.47l5.5 3.834 103.678-21.538 4.774-5.969Z"/><path fill="#5869DD" d="m197.182 309.236-7.666-98.932-5.5-3.834 3.986 35.032 5.347 18.268 3.833 49.466Z"/><path stroke="#000" stroke-linejoin="round" stroke-width="2" d="m192.442 315.206-8.426-108.736m8.426 108.736 113.574-28.559m-113.574 28.559 4.74-5.97m100.786-126.439L184.016 206.47m113.952-23.673 8.048 103.85m-8.048-103.85-4.774 5.969M184.016 206.47l5.5 3.834m-5.5-3.834 3.986 35.032 5.347 18.268 3.833 49.466m108.834-22.589-5.5-3.395m-103.334 25.984-7.666-98.932m7.666 98.932 103.334-25.984m-7.322-94.486-103.678 21.538m103.678-21.538 7.322 94.486"/><path fill="#F1EFED" fill-rule="evenodd" d="m277.597 261.82 1.399 18.054 3.936-.99L281.547 261l-3.95.82Z" clip-rule="evenodd"/><path fill="#000" d="m275 262.36 1.59 20.514 6.524-1.641-.182-2.349-3.936.99-1.399-18.054-2.597.54Z"/><path stroke="#000" stroke-linejoin="round" stroke-width="2" d="m277.597 261.82 1.399 18.054 3.936-.99m-5.335-17.064 3.95-.82 1.385 17.884m-5.335-17.064-2.597.54 1.59 20.514 6.524-1.641-.182-2.349"/><path fill="url(#g)" stroke="#000" stroke-linejoin="round" stroke-width="2" d="m170.501 320.801-1.768-29.287-28.022-6.014 2.053 26.5 27.737 8.801Z"/><path fill="#000" d="M202 216c0 1.657-1.567 3-3.5 3s-3.5-1.343-3.5-3 1.567-3 3.5-3 3.5 1 3.5 3ZM208 299c0 1.657-1.567 3-3.5 3s-3.5-1.343-3.5-3 1.567-3 3.5-3 3.5 1 3.5 3ZM147 308.5a1.5 1.5 0 1 1-1.5-1.5c.828 0 1.5.5 1.5 1.5ZM167 315.5a1.5 1.5 0 1 1-1.5-1.5c.828 0 1.5.5 1.5 1.5ZM166 295.5a1.5 1.5 0 1 1-1.5-1.5c.828 0 1.5.5 1.5 1.5ZM146 290.5a1.5 1.5 0 1 1-1.5-1.5c.828 0 1.5.5 1.5 1.5ZM290 195.5a2.5 2.5 0 1 1-2.5-2.5c1.381 0 2.5.417 2.5 2.5ZM296 277.5a2.5 2.5 0 1 1-2.5-2.5c1.381 0 2.5.417 2.5 2.5ZM137.977 179.24l41 9-1.412-18.213 15.412-23.527-4.148-5.874-14.482 29.401-36.37 9.213Z"/><path fill="url(#h)" d="M242.977 148.986c-55.72-54.121-48.42-63.595-54.148-8.36l4.148 5.874-15.412 23.527 1.412 18.213 87.666-18.213-1.087-14.026-22.579-7.015Z"/><path stroke="#000" stroke-linejoin="round" stroke-width="2" d="m178.977 188.24-41-9 36.37-9.213 14.482-29.401m-9.852 47.614 87.666-18.213-1.087-14.026m-86.579 32.239-1.412-18.213 15.412-23.527m-4.148-5.874c5.728-55.235-1.572-45.761 54.148 8.36l22.579 7.015m-76.727-15.375 4.148 5.874m72.579 9.501-30.58-9.5-19.999-26.079-18-22.422-4 48.5"/><path fill="#000" fill-rule="evenodd" d="M67.477 118c5 41.971 26.003 70.985 78.502 68.974-23.003-8.637-39.995-21.783-50.511-36.974-3.121-4.508-5.672-9.196-7.64-14-9.247-9.29-13.809-20.051-14.603-31-.31-4.274-.046-8.577.737-12.832 4.23-22.98 23.605-44.57 49.515-52.761-34.281 5.7-60.361 41.979-56 78.593Z" clip-rule="evenodd"/><path fill="#5869DD" d="M138.978 38.963a57.077 57.077 0 0 0-15.501.444C97.817 47.518 78.568 68.772 74.089 91.5l5.477 18.019L83.047 112c.041-27.493 18.57-55.248 55.931-73.037Z"/><path fill="#000" d="M73.225 105c.794 10.949 5.356 21.71 14.603 31-3.196-7.802-4.793-15.89-4.78-24l-3.482-2.481L74.089 91.5c-.044.222-.086.445-.127.668-.783 4.255-1.047 8.558-.737 12.832Z"/><path stroke="#000" stroke-linejoin="round" stroke-width="2" d="M87.828 136c1.968 4.804 4.519 9.492 7.64 14 10.516 15.191 27.508 28.337 50.511 36.974C93.48 188.985 72.476 159.971 67.477 118c-4.361-36.614 21.719-72.893 56-78.593M87.828 136c-9.247-9.29-13.809-20.051-14.603-31-.31-4.274-.046-8.577.737-12.832M87.828 136c-3.196-7.802-4.793-15.89-4.78-24m40.429-72.593a57.077 57.077 0 0 1 15.501-.444c-37.361 17.79-55.89 45.544-55.93 73.037m40.429-72.593C97.817 47.518 78.568 68.772 74.089 91.5m49.388-52.093c-25.91 8.19-45.285 29.782-49.515 52.76M83.047 112l-3.481-2.481L74.089 91.5m0 0c-.044.222-.086.445-.127.668"/><path fill="#000" stroke="#000" stroke-linejoin="round" stroke-width="2" d="m203.977 142.36 1.589 20.514 6.525-1.641L210.523 141l-6.546 1.36Z"/><path fill="#000" d="M251.977 18c-31.798 0-58.344 24.02-64.603 56-.916 4.68 3.377 9.53 3.377 14.5 0 9.325-3.079 18.227-.001 26.374h5.964c-2.934-8.147-4.55-17.049-4.55-26.374 0-12.945 3.113-25.074 8.546-35.5 10.671-20.479 30.291-34.385 52.851-34.98a63.257 63.257 0 0 0-1.584-.02Z"/><path fill="#5869DD" fill-rule="evenodd" d="M200.71 53c10.671-20.479 30.291-34.385 52.851-34.98 35.719.899 59.416 32.11 59.416 70.48 0 2.024.051 3.892.099 5.66.173 6.381.311 11.461-2.099 17.84C323.153 10.89 236.824-1.716 205.746 78.5L200.71 53Z" clip-rule="evenodd"/><path fill="#000" d="M192.164 88.5c0 9.325 1.616 18.227 4.55 26.374 1.828-13.729 4.955-25.85 9.032-36.374L200.71 53c-5.433 10.426-8.546 22.555-8.546 35.5Z"/><path stroke="#000" stroke-width="2" d="M312.977 88.5c0-38.936-23.164-70.5-57.906-70.5-.505 0-1.008.007-1.51.02m59.416 70.48c0-38.37-23.697-69.581-59.416-70.48m59.416 70.48c0 2.024.051 3.892.099 5.66.173 6.381.311 11.461-2.099 17.84C323.153 10.89 236.824-1.716 205.746 78.5m47.815-60.48a63.257 63.257 0 0 0-1.584-.02c-31.798 0-58.344 24.02-64.603 56-.916 4.68 3.377 9.53 3.377 14.5 0 9.325-3.079 18.227-.001 26.374h5.964m56.847-96.854c-22.56.595-42.18 14.501-52.851 34.98m-3.996 61.874c-2.934-8.147-4.55-17.049-4.55-26.374 0-12.945 3.113-25.074 8.546-35.5m-3.996 61.874c1.828-13.729 4.955-25.85 9.032-36.374M200.71 53l5.036 25.5"/><path fill="#000" d="M232.649 123.524c3.702-2.155 15.904-16.838 12.08-23.408-8.165 17.724-13.85 22.828-26.444 20.884 6.231 7.228 12.3 3.726 14.364 2.524ZM269.477 139.5c0-4.694-4.5-28.5-11.5-28.5-.652 0-1.26.206-1.827.584 7.327 9.416 12.061 31.071 4.827 36.303 9.756-.8 8.5-5.641 8.5-8.387ZM299.17 124.327c10.313-9.641 4.325-16.097 2.456-18.097-2.15-2.3-11.917-7.569-19.149-8.14 16.458 11.005 24.209 17.477 12.5 28.787 1.471-.504 2.917-1.358 4.193-2.55ZM260.977 101c4.97 0 9-3.806 9-8.5s-4.03-8.5-9-8.5c8.5 5.7 7 13.843-3 16.516a9.44 9.44 0 0 0 3 .484ZM253.477 62.5c1.339 3.781 3.134 6.5 5.5 6.5 4.57 0 7.009-10.149 8.151-18.5-5.431 15.83-8.595 18.165-14.57 9 .28 1.049.585 2.057.919 3ZM243.463 81.043c2.22-2.075 1.929-5.688.514-9.603-.981 7.416-4.502 9.429-14.5 10.316 5.365 1.588 11.012 2.067 13.986-.713Z"/><path fill="url(#i)" fill-rule="evenodd" d="M315.477 90.5c0 38.936-24.587 68.5-58 68.5-33.414 0-57-29.564-57-68.5s23.586-70.5 57-70.5c33.413 0 58 31.564 58 70.5Zm-45.5 2c0 4.694-4.03 8.5-9 8.5a9.44 9.44 0 0 1-3-.484c-3.496-1.166-6-4.315-6-8.016 0-4.694 4.029-8.5 9-8.5 4.97 0 9 3.806 9 8.5Zm-11-60.5c9 0 9 3.806 9 8.5 0 1.63-.241 5.56-.849 10-1.142 8.351-3.581 18.5-8.151 18.5-2.366 0-4.161-2.719-5.5-6.5a39.633 39.633 0 0 1-.919-3c-1.914-7.194-2.581-16.288-2.581-19 0-4.694 4.029-8.5 9-8.5Zm-1 116c-4.971 0-9-3.806-9-8.5 0-4.258 1.645-24.235 7.173-27.916.567-.378 1.175-.584 1.827-.584 7 0 11.5 23.806 11.5 28.5 0 2.746 1.256 7.587-8.5 8.387-.903.074-1.9.113-3 .113Zm40.949-92.62c11.405 10.661 5.42 17.12 3.551 19.12-1.762 1.884-8.821 5.59-15.5 6.988-2.288.478-4.53.686-6.5.457-1.832-.212-3.427-.802-4.604-1.902-5.851-5.47 5.741-21.618 9.38-25.84.181-.21.342-.39.481-.538 1.902-2.035 5.064-2.422 8.243-1.323 1.408.488 2.82 1.266 4.127 2.323.279.226.553.464.822.715Zm2.7 50.85c1.869 2 7.857 8.456-2.456 18.097-1.276 1.192-2.722 2.046-4.193 2.55-3.077 1.053-6.265.575-8.243-1.542-2.925-3.129-16.171-20.48-10.617-25.671 1.472-1.376 3.751-1.781 6.36-1.575 7.232.572 16.999 5.841 19.149 8.141Zm-86.073 10.871c-2.715-4.665-1.916-10.193 1.786-12.348 3.701-2.155 23.565-11.206 27.39-4.637 3.824 6.57-8.378 21.253-12.08 23.408-2.064 1.202-8.133 4.704-14.364-2.524-.911-1.057-1.826-2.343-2.732-3.899Zm1.306-41.601c-1.869-2-7.855-8.459 3.551-19.12 4.361-4.076 10.267-4.844 13.192-1.715 1.65 1.766 6.534 8.11 9.372 14.335.374.82.712 1.636 1.003 2.44 1.415 3.916 1.706 7.528-.514 9.603-2.974 2.78-8.621 2.301-13.986.713a47.226 47.226 0 0 1-6.5-2.48c-2.922-1.366-5.216-2.81-6.118-3.776Z" clip-rule="evenodd"/><path fill="#000" d="M302.477 74.5c1.869-2 7.854-8.459-3.551-19.12a15.47 15.47 0 0 0-.822-.715c-1.307-1.057-2.719-1.835-4.127-2.323 2.912 3.421 5.073 6.395 6.233 9.158 2.845 6.776-.334 12.28-13.233 19.988 6.679-1.398 13.738-5.104 15.5-6.988Z"/><path fill="#000" d="M293.977 52.342c-3.179-1.099-6.341-.712-8.243 1.323-.139.148-.3.328-.481.538 7.793-.577 10.408 2.18 14.957 7.297-1.16-2.763-3.321-5.737-6.233-9.158Z"/><path stroke="#000" stroke-width="2" d="M260.977 84c-4.971 0-9 3.806-9 8.5 0 3.701 2.504 6.85 6 8.016m3-16.516c4.97 0 9 3.806 9 8.5s-4.03 8.5-9 8.5a9.44 9.44 0 0 1-3-.484m3-16.516c8.5 5.7 7 13.843-3 16.516m-13.248-.4c-3.825-6.57-23.689 2.482-27.39 4.637-3.702 2.155-4.501 7.683-1.786 12.348.906 1.556 1.821 2.842 2.732 3.899m26.444-20.884c3.824 6.57-8.378 21.253-12.08 23.408-2.064 1.202-8.133 4.704-14.364-2.524m26.444-20.884c-8.165 17.724-13.85 22.828-26.444 20.884m25.178-39.957c2.22-2.075 1.929-5.688.514-9.603m-.514 9.603c2.676-2.501 1.703-7.237-.489-12.043m.489 12.043c-2.974 2.78-8.621 2.301-13.986.713m14.5-10.316c-.981 7.416-4.502 9.429-14.5 10.316m14.5-10.316a32.628 32.628 0 0 0-1.003-2.44m24.154-18.5c-1.142 8.351-3.581 18.5-8.151 18.5-2.366 0-4.161-2.719-5.5-6.5a39.633 39.633 0 0 1-.919-3m14.57-9c.608-4.44.849-8.37.849-10 0-4.694 0-8.5-9-8.5-4.971 0-9 3.806-9 8.5 0 2.712.667 11.806 2.581 19m14.57-9c-5.431 15.83-8.595 18.165-14.57 9m3.592 52.084c-5.528 3.681-7.173 23.658-7.173 27.916 0 4.694 4.029 8.5 9 8.5 1.1 0 2.097-.039 3-.113m-4.827-36.303c.567-.378 1.175-.584 1.827-.584 7 0 11.5 23.806 11.5 28.5 0 2.746 1.256 7.587-8.5 8.387m-4.827-36.303c7.327 9.416 12.061 31.071 4.827 36.303m34-21.01c1.471-.504 2.917-1.358 4.193-2.55 10.313-9.641 4.325-16.097 2.456-18.097-2.15-2.3-11.917-7.569-19.149-8.14m12.5 28.787c-3.077 1.053-6.265.575-8.243-1.542-2.925-3.129-16.171-20.48-10.617-25.671 1.472-1.376 3.751-1.781 6.36-1.575m12.5 28.788c11.709-11.31 3.958-17.782-12.5-28.788M242.974 69c-2.838-6.225-7.722-12.57-9.372-14.335-2.925-3.129-8.831-2.361-13.192 1.715-11.406 10.661-5.42 17.12-3.551 19.12.902.966 3.196 2.41 6.118 3.776 1.961.918 4.204 1.8 6.5 2.48m64.5-29.414c1.408.488 2.82 1.266 4.127 2.323.279.226.553.464.822.715 11.405 10.661 5.42 17.12 3.551 19.12-1.762 1.884-8.821 5.59-15.5 6.988m7-29.146c-3.179-1.099-6.341-.712-8.243 1.323-.139.148-.3.328-.481.538m8.724-1.86c2.912 3.42 5.073 6.394 6.233 9.157m-13.233 19.988c-2.288.478-4.53.686-6.5.457-1.832-.212-3.427-.802-4.604-1.902-5.851-5.47 5.741-21.618 9.38-25.84m1.724 27.285c12.899-7.708 16.078-13.212 13.233-19.988m-14.957-7.297c7.793-.577 10.408 2.18 14.957 7.297m15.267 29c0 38.936-24.587 68.5-58 68.5-33.414 0-57-29.564-57-68.5s23.586-70.5 57-70.5c33.413 0 58 31.564 58 70.5Z"/><path fill="#000" d="M114.387 149.972c3.96-2.31 17.011-18.05 12.92-25.092-8.733 18.999-14.813 24.47-28.284 22.386 6.665 7.749 13.157 3.994 15.364 2.706ZM153.777 167.097c0-5.032-4.813-30.55-12.3-30.55-.697 0-1.348.221-1.954.626 7.836 10.093 12.9 33.306 5.162 38.914 10.436-.858 9.092-6.046 9.092-8.99ZM185.535 150.832c11.031-10.334 4.626-17.255 2.627-19.398-2.299-2.465-12.746-8.114-20.481-8.727 17.603 11.797 25.894 18.736 13.369 30.859 1.574-.54 3.121-1.456 4.485-2.734ZM144.685 125.827c5.317 0 9.626-4.079 9.626-9.111 0-5.032-4.309-9.112-9.626-9.112 9.092 6.11 7.487 14.839-3.208 17.705 1.003.336 2.083.518 3.208.518ZM136.664 84.558c1.432 4.053 3.352 6.967 5.882 6.967 4.889 0 7.497-10.879 8.719-19.83-5.809 16.968-9.193 19.47-15.583 9.647.298 1.124.625 2.205.982 3.216ZM125.953 104.434c2.374-2.224 2.063-6.096.55-10.293-1.049 7.95-4.815 10.107-15.509 11.058 5.739 1.702 11.778 2.215 14.959-.765Z"/><path fill="url(#j)" fill-rule="evenodd" d="M201.977 114.572c0 41.737-26.298 73.428-62.035 73.428-29.948 0-60.965-31.691-60.965-73.428C78.977 72.835 104.204 39 139.942 39c35.737 0 62.035 33.835 62.035 75.572Zm-47.666 2.144c0 5.032-4.309 9.111-9.626 9.111-1.125 0-2.205-.182-3.208-.518-3.739-1.251-6.418-4.626-6.418-8.593 0-5.032 4.31-9.112 9.626-9.112 5.317 0 9.626 4.08 9.626 9.112Zm-11.765-64.853c9.626 0 9.626 4.08 9.626 9.112 0 1.746-.257 5.96-.907 10.72-1.222 8.951-3.83 19.83-8.719 19.83-2.53 0-4.45-2.914-5.882-6.968a41.988 41.988 0 0 1-.982-3.215c-2.048-7.712-2.762-17.46-2.762-20.367 0-5.032 4.31-9.112 9.626-9.112Zm-1.069 124.346c-5.317 0-9.627-4.08-9.627-9.112 0-4.564 1.76-25.979 7.673-29.924.606-.405 1.257-.626 1.954-.626 7.487 0 12.3 25.518 12.3 30.55 0 2.944 1.344 8.132-9.092 8.99a39.41 39.41 0 0 1-3.208.122Zm43.797-99.284c12.199 11.428 5.797 18.352 3.798 20.496-1.883 2.02-9.434 5.992-16.578 7.49-2.446.513-4.845.736-6.952.491-1.959-.228-3.666-.86-4.924-2.04-6.258-5.862 6.14-23.173 10.033-27.698.193-.225.366-.418.514-.577 2.034-2.181 5.416-2.596 8.816-1.418 1.507.522 3.017 1.357 4.414 2.49.299.242.592.497.879.766Zm2.888 54.509c1.999 2.143 8.404 9.064-2.627 19.398-1.364 1.278-2.911 2.194-4.485 2.734-3.29 1.129-6.7.616-8.816-1.653-3.128-3.354-17.295-21.954-11.356-27.518 1.575-1.475 4.013-1.909 6.803-1.688 7.735.613 18.182 6.262 20.481 8.727Zm-92.06 11.653c-2.904-5-2.05-10.927 1.91-13.237 3.959-2.31 25.205-12.012 29.295-4.97 4.091 7.042-8.96 22.782-12.92 25.092-2.207 1.288-8.699 5.043-15.364-2.706-.974-1.133-1.952-2.511-2.92-4.179ZM97.5 98.493c-2-2.144-8.401-9.068 3.797-20.496 4.665-4.37 10.982-5.192 14.11-1.838 1.765 1.893 6.989 8.694 10.025 15.366.399.878.761 1.754 1.072 2.616 1.513 4.197 1.824 8.069-.55 10.293-3.181 2.98-9.22 2.467-14.959.765a50.613 50.613 0 0 1-6.952-2.658c-3.125-1.465-5.578-3.013-6.543-4.048Z" clip-rule="evenodd"/><path fill="#000" d="M189.072 97.42c1.999-2.143 8.401-9.067-3.798-20.495-.287-.269-.58-.524-.879-.766-1.397-1.133-2.907-1.968-4.414-2.49 3.115 3.667 5.426 6.855 6.667 9.817 3.043 7.263-.357 13.163-14.154 21.425 7.144-1.498 14.695-5.47 16.578-7.49Z"/><path fill="#000" d="M179.981 73.67c-3.4-1.179-6.782-.764-8.816 1.417-.148.159-.321.352-.514.577 8.335-.619 11.131 2.336 15.997 7.822-1.241-2.962-3.552-6.15-6.667-9.817Z"/><path stroke="#000" stroke-width="2" d="M144.685 107.604c-5.316 0-9.626 4.08-9.626 9.112 0 3.967 2.679 7.342 6.418 8.593m3.208-17.705c5.317 0 9.626 4.08 9.626 9.112s-4.309 9.111-9.626 9.111c-1.125 0-2.205-.182-3.208-.518m3.208-17.705c9.092 6.11 7.487 14.839-3.208 17.705m-14.17-.429c-4.09-7.042-25.336 2.66-29.295 4.97-3.96 2.31-4.814 8.237-1.91 13.237.97 1.668 1.947 3.046 2.921 4.179m28.284-22.386c4.091 7.042-8.961 22.782-12.92 25.092-2.207 1.288-8.699 5.043-15.364-2.706m28.284-22.386c-8.733 18.999-14.813 24.47-28.284 22.386m26.93-42.832c2.374-2.224 2.063-6.096.55-10.293m-.55 10.293c2.862-2.681 1.822-7.757-.522-12.909m.522 12.909c-3.181 2.98-9.22 2.467-14.959.765m15.509-11.058c-1.049 7.95-4.815 10.107-15.509 11.058m15.509-11.058a35.327 35.327 0 0 0-1.072-2.616m25.834-19.83c-1.222 8.951-3.83 19.83-8.719 19.83-2.53 0-4.45-2.914-5.882-6.968a41.988 41.988 0 0 1-.982-3.215m15.583-9.648c.65-4.758.907-8.973.907-10.72 0-5.031 0-9.11-9.626-9.11-5.316 0-9.626 4.079-9.626 9.11 0 2.908.714 12.656 2.762 20.368m15.583-9.648c-5.809 16.969-9.193 19.472-15.583 9.648m3.841 55.831c-5.913 3.945-7.673 25.36-7.673 29.924 0 5.032 4.31 9.112 9.627 9.112a39.41 39.41 0 0 0 3.208-.122m-5.162-38.914c.606-.405 1.257-.626 1.954-.626 7.487 0 12.3 25.518 12.3 30.55 0 2.944 1.344 8.132-9.092 8.99m-5.162-38.914c7.836 10.093 12.9 33.306 5.162 38.914m36.365-22.521c1.574-.54 3.121-1.456 4.485-2.734 11.031-10.334 4.626-17.255 2.627-19.398-2.299-2.465-12.746-8.114-20.481-8.727m13.369 30.859c-3.29 1.129-6.7.616-8.816-1.653-3.128-3.354-17.295-21.954-11.356-27.518 1.575-1.475 4.013-1.909 6.803-1.688m13.369 30.859c12.525-12.123 4.234-19.062-13.369-30.859m-42.25-31.182c-3.036-6.672-8.26-13.473-10.025-15.366-3.128-3.354-9.445-2.531-14.11 1.838-12.198 11.428-5.797 18.352-3.797 20.496.965 1.035 3.418 2.583 6.543 4.048a50.613 50.613 0 0 0 6.952 2.658m68.987-31.53c1.507.522 3.017 1.357 4.414 2.49.299.242.592.497.879.766 12.199 11.428 5.797 18.352 3.798 20.496-1.883 2.02-9.434 5.992-16.578 7.49m7.487-31.242c-3.4-1.178-6.782-.763-8.816 1.418-.148.159-.321.352-.514.577m9.33-1.995c3.115 3.667 5.426 6.855 6.667 9.817m-14.154 21.425c-2.446.513-4.845.736-6.952.491-1.959-.228-3.666-.86-4.924-2.04-6.258-5.862 6.14-23.173 10.033-27.698m1.843 29.247c13.797-8.262 17.197-14.162 14.154-21.425m-15.997-7.822c8.335-.619 11.131 2.336 15.997 7.822m15.329 31.086c0 41.737-26.298 73.428-62.035 73.428-29.948 0-60.965-31.691-60.965-73.428C78.977 72.835 104.204 39 139.942 39c35.737 0 62.035 33.835 62.035 75.572Z"/><path fill="#000" d="M189.977 181c0 1.657-1.567 3-3.5 3s-3.5-1.343-3.5-3 1.567-3 3.5-3 3.5 1 3.5 3ZM262.977 165.5a2.5 2.5 0 1 1-2.5-2.5c1.38 0 2.5.417 2.5 2.5Z"/><circle cx="226.477" cy="164.5" r="5.5" fill="#000" stroke="#000" stroke-width="1.5"/><circle cx="228.477" cy="164.5" r="4.5" fill="#5869DD" stroke="#000" stroke-width="1.5"/><path fill="#000" d="M331.365 239.129c3.942-1.215 5.938-8.285 4.476-16.209-1.52-8.232-6.195-14.269-10.444-13.485-4.248.785-6.46 8.093-4.941 16.324 1.519 8.232 6.195 14.269 10.443 13.485l.466-.115Z"/><path fill="url(#k)" d="M325.397 209.435c4.249-.784 8.924 5.253 10.444 13.485 1.462 7.924-.534 14.994-4.476 16.209l17.638-4.332.518-.127c3.328-1.026 5.374-5.807 5.291-11.75a27.197 27.197 0 0 0-.454-4.523c-1.52-8.231-6.38-14.234-10.857-13.408l-18.104 4.446Z"/><path fill="#F1EFED" d="M352.721 233.884c4.477-.826 6.874-8.169 5.355-16.4-1.52-8.231-6.38-14.234-10.857-13.408l-3.718.913c4.477-.826 9.337 5.177 10.857 13.408.286 1.552.433 3.072.454 4.523.083 5.943-1.963 10.724-5.291 11.75l3.2-.786Z"/><path stroke="#000" stroke-width="2" d="M347.219 204.076c4.477-.826 9.337 5.177 10.857 13.408 1.519 8.231-.878 15.574-5.355 16.4l-3.2.786m-2.302-30.594-21.822 5.359m21.822-5.359-3.718.913m-12.602 34.255c-4.248.784-8.924-5.253-10.443-13.485-1.519-8.231.693-15.539 4.941-16.324m5.502 29.809.466-.115m-.466.115c.158-.03.314-.068.466-.115m-5.968-29.694c4.249-.784 8.924 5.253 10.444 13.485 1.462 7.924-.534 14.994-4.476 16.209m-5.968-29.694 18.104-4.446m5.502 29.808a4.55 4.55 0 0 0 .518-.127m-.518.127-17.638 4.332m17.638-4.332.518-.127m-6.02-29.681c4.477-.826 9.337 5.177 10.857 13.408.286 1.552.433 3.072.454 4.523.083 5.943-1.963 10.724-5.291 11.75m-18.156 4.459 18.156-4.459"/><path fill="#D9D9D9" d="M308.597 229.952c.383 4.214-.682 7.891-2.396 8.415-.06.018-.121.033-.182.043-1.82.31-3.617-2.975-4.013-7.336-.396-4.362.758-8.149 2.578-8.459 1.82-.309 3.617 2.975 4.013 7.337Z"/><path fill="#5869DD" d="M327.252 233.373c1.918-.327 3.151-4.127 2.755-8.489-.396-4.361-2.272-7.632-4.19-7.306l-21.233 5.037c1.82-.309 3.617 2.975 4.013 7.337.383 4.214-.682 7.891-2.396 8.415l21.051-4.994Z"/><path stroke="#000" stroke-width="2" d="M306.019 238.41c-1.82.31-3.617-2.975-4.013-7.336-.396-4.362.758-8.149 2.578-8.459m1.435 15.795.182-.043m-.182.043c.061-.01.122-.025.182-.043m-1.617-15.752c1.82-.309 3.617 2.975 4.013 7.337.383 4.214-.682 7.891-2.396 8.415m-1.617-15.752 21.233-5.037c1.918-.326 3.794 2.945 4.19 7.306.396 4.362-.837 8.162-2.755 8.489l-21.051 4.994"/><path fill="#000" d="m164.5 246.499 1 19.5 10 6.5-1-21.5-10-4.5ZM201.5 236.999l10 3.5c3.78-.238 4.57-1.019 7-3.5l-9.998-3.499-.002-.001c-2.43 2.481-3.22 3.262-7 3.5Z"/><path fill="#5869DD" d="m164.5 246.499 10 4.5 37-10.5-10-3.5-37 9.5ZM218.5 236.999l95.497-21.499L304 212l-95.498 21.5 9.998 3.499Z"/><path fill="url(#l)" d="m174.5 250.999 1 21.5 37-10.5 30.5 2.5 72.917-16.416L314 215.501l-.003-.001-95.497 21.499c-2.43 2.481-3.22 3.262-7 3.5l-37 10.5Z"/><path stroke="#000" stroke-linejoin="round" stroke-width="2" d="m164.5 246.499 1 19.5 10 6.5m-11-26 10 4.5m-10-4.5 37-9.5m-26 35.5-1-21.5m1 21.5 37-10.5 30.5 2.5 72.917-16.416M174.5 250.999l37-10.5m0 0-10-3.5m10 3.5c3.78-.238 4.57-1.019 7-3.5m-17 0c3.78-.238 4.57-1.019 7-3.5l.002.001m9.998 3.499-9.998-3.499m9.998 3.499 95.497-21.499m-105.497 18h.002m107.415 14.583L314 215.499l-.003.001m1.92 32.583L314 215.501l-.003-.001m-105.495 18L304 212l9.997 3.5"/><path fill="#000" d="m145.804 272.15 11.943-2.834c1.312-.4 2.168-2.631 2.325-5.545l-11.832 2.807c-.193 2.922-1.124 5.171-2.436 5.572Z"/><path fill="#5869DD" d="M144.187 256.399c1.82-.31-5.584 3.008-5.188 7.37.09.988-1.5 5.547 9.241 2.809l11.832-2.807c.049-.893.031-1.85-.058-2.839-.397-4.361-2.193-7.646-4.013-7.336l-11.814 2.803Z"/><path fill="#F1EFED" d="M166.855 267.156c1.918-.327 3.151-4.127 2.755-8.489-.396-4.361-2.272-7.632-4.19-7.306l-9.419 2.235c1.82-.31 3.616 2.975 4.013 7.336.089.989.107 1.946.058 2.839-.157 2.914-1.013 5.145-2.325 5.545l9.108-2.16Z"/><path stroke="#000" stroke-width="2" d="M166.855 267.156c1.918-.327 3.151-4.127 2.755-8.489-.396-4.361-2.272-7.632-4.19-7.306m1.435 15.795-21.051 4.994m21.051-4.994-9.108 2.16m7.673-17.955-21.233 5.038m21.233-5.038-9.419 2.235m-11.814 2.803c1.82-.31-5.584 3.008-5.188 7.37.09.988-1.5 5.547 9.241 2.809m-4.053-10.179 11.814-2.803m-10.197 18.554-.182.043c.061-.01.122-.025.182-.043Zm0 0c1.312-.401 2.243-2.65 2.436-5.572m-2.436 5.572 11.943-2.834m-1.746-15.72c1.82-.31 3.616 2.975 4.013 7.336.089.989.107 1.946.058 2.839m-2.325 5.545c1.312-.4 2.168-2.631 2.325-5.545m0 0-11.832 2.807"/><path fill="url(#m)" d="M138.133 263.83c-1.218-6.909-3.949-11.058-6.157-13.237-.718-.71-1.428-1.046-2.089-.929 2.762-.699 13.338-2.684 18.046 15.249 2.17 13.3-9.023 16.679-11.676 17.719 2.28-1.344 3.382-10.264 1.876-18.802Z"/><path fill="#000" fill-rule="evenodd" d="M131.976 250.593c2.208 2.179 4.939 6.328 6.157 13.237 1.506 8.538.404 17.458-1.876 18.802-.166.097-.34.163-.522.195 0 0 .189-.065.522-.195-5.413-6.455-8.274-30.757-4.281-32.039Zm0 0c-.718-.71-1.428-1.046-2.089-.929 0 0 .807.317 2.089.929Z" clip-rule="evenodd"/><path fill="#F1EFED" d="M127.931 267.106c-1.615-9.158-.739-16.967 1.956-17.442 0 0 .807.317 2.089.929-3.993 1.282-1.132 25.584 4.281 32.039-.333.13-.522.195-.522.195-2.695.475-6.189-6.563-7.804-15.721Z"/><path stroke="#000" stroke-width="2" d="M129.887 249.664c-2.695.475-3.571 8.284-1.956 17.442 1.615 9.158 5.109 16.196 7.804 15.721m-5.848-33.163s.807.317 2.089.929m-2.089-.929c.661-.117 1.371.219 2.089.929m-2.089-.929c2.762-.699 13.338-2.684 18.046 15.249 2.17 13.3-9.023 16.679-11.676 17.719m-.522.195s.189-.065.522-.195m-.522.195c.182-.032.356-.098.522-.195m-4.281-32.039c2.208 2.179 4.939 6.328 6.157 13.237 1.506 8.538.404 17.458-1.876 18.802m-4.281-32.039c-3.993 1.282-1.132 25.584 4.281 32.039"/><ellipse cx="201" cy="254.5" fill="#000" stroke="#000" stroke-width="1.6" rx="4" ry="4.5"/><ellipse cx="202.5" cy="254.5" fill="url(#n)" stroke="#000" stroke-width="1.6" rx="3.5" ry="4.5"/><path fill="#000" stroke="#000" stroke-linejoin="round" stroke-width="2" d="M145.169 222c-1.561 0-5.669-13.963.001-13.963 0 0 7.285-.909 7.806 6.301.52 7.21-7.807 7.662-7.807 7.662Z"/><path fill="#5869DD" stroke="#000" stroke-linejoin="round" stroke-width="2" d="M147.5 209.5h-5l-.5 9h5.5c3-2.5 2-8.5 0-9Z"/><path fill="#000" d="M137.162 215.718c.97 4.875 1.843 8.772 5.189 8.144-1.937-1.67-4.829-14.354-3.512-17.654-3.444.647-2.688 4.436-1.75 9.142l.073.368Z"/><path fill="url(#o)" d="M142.351 223.862c3.346-.628 2.647-4.635 1.677-9.51l-.073-.367c-.933-4.704-1.672-8.424-5.116-7.777-1.317 3.3 1.575 15.984 3.512 17.654Z"/><path stroke="#000" stroke-width="1.5" d="M144.028 214.352c.97 4.875 1.669 8.882-1.677 9.51m1.677-9.51-.073-.367m.073.367-.073-.367m-1.604 9.877c-3.346.628-4.219-3.269-5.189-8.144m5.189 8.144c-1.937-1.67-4.829-14.354-3.512-17.654m-1.677 9.51a39.914 39.914 0 0 0-.073-.368m.073.368-.073-.368m1.75-9.142c3.444-.647 4.183 3.073 5.116 7.777m-5.116-7.777c-3.444.647-2.688 4.436-1.75 9.142"/><ellipse cx="158.163" cy="304.621" stroke="#000" stroke-width="1.6" rx="5" ry="6.5" transform="rotate(-1.454 158.163 304.621)"/><ellipse cx="157.163" cy="304.621" fill="url(#p)" stroke="#000" stroke-width="1.6" rx="5" ry="6.5" transform="rotate(-1.454 157.163 304.621)"/><path stroke="#000" d="M153.838 304.75c-.059-2.343 1.34-4.279 3.126-4.324.456-.012.892.101 1.291.314m-4.417 4.01c1.527 1 2.429 1.536 6.321 1.25m-6.321-1.25c.046 1.8.939 3.317 2.161 3.903m4.16-2.653c.107-.444.159-.92.147-1.414-.045-1.746-.886-3.224-2.051-3.846m1.904 5.26c-.401 1.662-1.57 2.875-2.979 2.911a2.582 2.582 0 0 1-1.181-.258m2.256-7.913c-3.108 2.22-3.115 4.135-2.256 7.913"/><path fill="#000" d="M181 266.5a1.5 1.5 0 1 1-1.5-1.5c.828 0 1.5.5 1.5 1.5ZM180 254.5a1.5 1.5 0 1 1-1.5-1.5c.828 0 1.5.5 1.5 1.5ZM310 221.5a1.5 1.5 0 1 1-1.5-1.5c.828 0 1.5.5 1.5 1.5ZM313 244.5a1.5 1.5 0 1 1-1.5-1.5c.828 0 1.5.5 1.5 1.5Z"/><ellipse cx="295" cy="236.5" fill="#5869DD" stroke="#000" stroke-width="2" rx="13" ry="13.5"/><path fill="#000" d="M308 236c0 6.627-4.701 12-10.5 12a9.318 9.318 0 0 1-3.5-.683 10.283 10.283 0 0 1-3.445-2.317 12.058 12.058 0 0 1-2.603-4 13.417 13.417 0 0 1-.952-5c0-1.784.341-3.478.952-5a12.058 12.058 0 0 1 2.603-4c1.851-1.867 4.282-3 6.945-3 5.799 0 10.5 5.373 10.5 12Z"/><path stroke="#000" stroke-width="2" d="M287 236c0-1.784.341-3.478.952-5m-.952 5 .952-5m-.952 5-5 1m5-1c0 1.784.341 3.478.952 5m0-10L284 229.5m3.952 1.5a12.058 12.058 0 0 1 2.603-4m-7.055 16 4.452-2m0 0a12.058 12.058 0 0 0 2.603 4m-4.055 2 4.055-2m0 0a10.283 10.283 0 0 0 3.445 2.317m-1.5 2.183 1.5-2.183m0 0a9.318 9.318 0 0 0 3.5.683c5.799 0 10.5-5.373 10.5-12s-4.701-12-10.5-12c-2.663 0-5.094 1.133-6.945 3m0 0-2.603-2"/><ellipse cx="297.5" cy="236.5" fill="url(#q)" rx="9.5" ry="10.5"/><ellipse cx="264.508" cy="243.5" fill="#5869DD" stroke="#000" rx="7.742" ry="8.839" transform="rotate(5.167 264.508 243.5)"/><ellipse cx="265.043" cy="243.724" fill="#000" rx="6.423" ry="7.175" transform="rotate(5.167 265.043 243.724)"/><path fill="url(#r)" stroke="#000" stroke-linecap="round" stroke-linejoin="round" d="M263.5 249.997c-1.977-.372-2.418-.99-2.5-2.5 3.262-3.706 4.407-5.188 6-9.5 1.514-.156 2.163.304 3 2-1.378 4.739-3.015 6.676-6.5 10Z"/><defs><linearGradient id="a" x1="385.67" x2="353.072" y1="117.409" y2="178.727" gradientUnits="userSpaceOnUse"><stop stop-color="#D6FFBB"/><stop offset="1" stop-color="#5869DD"/></linearGradient><linearGradient id="b" x1="477.686" x2="381.508" y1="128.072" y2="218.229" gradientUnits="userSpaceOnUse"><stop stop-color="#D6FFBB"/><stop offset="1" stop-color="#5869DD"/></linearGradient><linearGradient id="c" x1="352.397" x2="337.163" y1="117.12" y2="188.114" gradientUnits="userSpaceOnUse"><stop stop-color="#D6FFBB"/><stop offset="1" stop-color="#5869DD"/></linearGradient><linearGradient id="d" x1="344.5" x2="324.455" y1="92.998" y2="206.637" gradientUnits="userSpaceOnUse"><stop stop-color="#D6FFBB"/><stop offset="1" stop-color="#5869DD"/></linearGradient><linearGradient id="e" x1="381" x2="167" y1="90.5" y2="300" gradientUnits="userSpaceOnUse"><stop stop-color="#D6FFBB"/><stop offset="1" stop-color="#5869DD"/></linearGradient><linearGradient id="f" x1="218.5" x2="181" y1="273.5" y2="176" gradientUnits="userSpaceOnUse"><stop stop-color="#D6FFBB"/><stop offset="1" stop-color="#5869DD"/></linearGradient><linearGradient id="g" x1="111.5" x2="164.5" y1="270.5" y2="315" gradientUnits="userSpaceOnUse"><stop stop-color="#D6FFBB"/><stop offset="1" stop-color="#5869DD"/></linearGradient><linearGradient id="h" x1="266.699" x2="187.808" y1="188.141" y2="124.72" gradientUnits="userSpaceOnUse"><stop stop-color="#D6FFBB"/><stop offset="1" stop-color="#5869DD"/></linearGradient><linearGradient id="i" x1="321.477" x2="188.477" y1="166.5" y2="9.5" gradientUnits="userSpaceOnUse"><stop stop-color="#D6FFBB"/><stop offset="1" stop-color="#5869DD"/></linearGradient><linearGradient id="j" x1="208.394" x2="65.774" y1="196.04" y2="28.057" gradientUnits="userSpaceOnUse"><stop stop-color="#D6FFBB"/><stop offset="1" stop-color="#5869DD"/></linearGradient><linearGradient id="k" x1="319.977" x2="358.532" y1="221.656" y2="221.656" gradientUnits="userSpaceOnUse"><stop stop-color="#D6FFBB"/><stop offset="1" stop-color="#5869DD"/></linearGradient><linearGradient id="l" x1="354.5" x2="173.748" y1="155.504" y2="282.366" gradientUnits="userSpaceOnUse"><stop stop-color="#D6FFBB"/><stop offset="1" stop-color="#5869DD"/></linearGradient><linearGradient id="m" x1="121.5" x2="152" y1="234.496" y2="264.996" gradientUnits="userSpaceOnUse"><stop stop-color="#D6FFBB"/><stop offset="1" stop-color="#5869DD"/></linearGradient><linearGradient id="n" x1="234" x2="193.991" y1="264.143" y2="252.269" gradientUnits="userSpaceOnUse"><stop stop-color="#D6FFBB"/><stop offset="1" stop-color="#5869DD"/></linearGradient><linearGradient id="o" x1="137.162" x2="144.028" y1="215.718" y2="214.352" gradientUnits="userSpaceOnUse"><stop stop-color="#D6FFBB"/><stop offset="1" stop-color="#5869DD"/></linearGradient><linearGradient id="p" x1="140.275" x2="162.163" y1="293.564" y2="304.621" gradientUnits="userSpaceOnUse"><stop stop-color="#D6FFBB"/><stop offset="1" stop-color="#5869DD"/></linearGradient><linearGradient id="q" x1="313.5" x2="285" y1="240" y2="236" gradientUnits="userSpaceOnUse"><stop stop-color="#D6FFBB"/><stop offset="1" stop-color="#5869DD"/></linearGradient><linearGradient id="r" x1="265" x2="263" y1="229.498" y2="248.498" gradientUnits="userSpaceOnUse"><stop stop-color="#D6FFBB"/><stop offset="1" stop-color="#5869DD"/></linearGradient></defs></svg>
