<svg  height="22" viewBox="0 0 123 22" fill="none" xmlns="http://www.w3.org/2000/svg">
<path opacity="0.4" d="M16 21.5V18.5H19V15.5H22V12.5H25V9.5H22V6.5H19V3.5H16V0.5H22V3.5H25V6.5H28V9.5H31V12.5H28V15.5H25V18.5H22V21.5H16Z" fill="#F1EFED"/>
<path opacity="0.6" d="M54 21.5V18.5H57V15.5H60V12.5H63V9.5H60V6.5H57V3.5H54V0.5H60V3.5H63V6.5H66V9.5H69V12.5H66V15.5H63V18.5H60V21.5H54Z" fill="#F1EFED"/>
<path d="M92 21.5V18.5H95V15.5H98V12.5H101V9.5H98V6.5H95V3.5H92V0.5H98V3.5H101V6.5H104V9.5H107V12.5H104V15.5H101V18.5H98V21.5H92Z" fill="#F1EFED"/>
</svg>
