<svg xmlns="http://www.w3.org/2000/svg" width="20" height="20" fill="none" viewBox="0 0 20 20"><path fill="#000" stroke="#F1EFED" stroke-width=".375" d="m14.526 12.799-.095.13.114.113.132-.133-.133.133.002.001.002.003.012.011.044.045.17.169.602.603 1.83 1.83 1.83 1.83.603.602.096.096-1.503 1.503-5.19-5.19-.114-.114-.13.095a7.884 7.884 0 0 1-4.673 1.537C3.749 16.063.187 12.5.187 8.125.188 3.749 3.75.187 8.125.187c4.376 0 7.937 3.562 7.937 7.938 0 1.748-.574 3.36-1.536 4.674ZM2.313 8.125a5.819 5.819 0 0 0 5.812 5.813 5.819 5.819 0 0 0 5.813-5.813 5.819 5.819 0 0 0-5.813-5.812 5.819 5.819 0 0 0-5.812 5.812Z"/></svg>
