<svg width="292" height="292" viewBox="0 0 292 292" fill="none" xmlns="http://www.w3.org/2000/svg">
<g clip-path="url(#clip0_3229_75349)">
<rect width="292" height="292" rx="16" fill="#F1EFED"/>
<rect width="292" height="292" rx="16" fill="url(#paint0_linear_3229_75349)" fill-opacity="0.1"/>
<rect width="292" height="292" rx="16" fill="url(#paint1_radial_3229_75349)" fill-opacity="0.5"/>
<rect width="292" height="292" rx="16" fill="url(#paint2_radial_3229_75349)" fill-opacity="0.05"/>
<mask id="mask0_3229_75349" style="mask-type:alpha" maskUnits="userSpaceOnUse" x="0" y="0" width="292" height="292">
<rect width="292" height="292" rx="16" fill="#D9D9D9"/>
</mask>
<g mask="url(#mask0_3229_75349)">
<g opacity="0.5">
<path d="M168.892 68H123.583C109.555 68 98.5989 80.1603 100.082 94.1177L104.304 134.018H188.17L192.392 94.1177C193.875 80.1603 182.919 68 168.892 68Z" fill="black"/>
<path d="M246.128 249.569C220.882 275.739 185.465 291.999 146.245 291.999C107.025 291.999 71.591 275.721 46.363 249.551L48.7532 240.148C52.3647 225.981 63.5131 214.989 77.7322 211.605L101.495 205.935C106.99 204.626 111.875 201.747 115.644 197.787C118.994 194.298 121.436 189.953 122.692 185.103L124.542 177.898L125.048 175.961L125.082 175.804L127.438 166.645L128.153 163.906H164.355L167.042 174.374L167.286 175.316L167.426 175.839L167.461 175.961L167.966 177.915L169.816 185.086C172.485 195.414 180.633 203.44 191.014 205.917L214.776 211.587C228.978 214.989 240.143 225.981 243.737 240.13L246.128 249.551V249.569Z" fill="#F1EFED" stroke="black"/>
<path d="M246.128 249.567C222.086 274.481 188.815 300.427 151.828 301.875C149.979 301.962 148.112 301.997 146.245 301.997C144.379 301.997 142.512 301.962 140.662 301.892C136.528 301.718 132.445 301.386 128.415 300.863C96.3478 296.746 67.7003 271.689 46.363 249.549L48.7532 240.146C52.3647 225.979 63.5131 214.987 77.7322 211.585L101.495 205.915C103.641 205.409 105.682 204.659 107.601 203.699C116.063 212.719 127.665 218.773 140.662 220.134C142.494 220.326 144.361 220.431 146.245 220.431C148.13 220.431 149.996 220.326 151.828 220.134C164.826 218.773 176.428 212.719 184.89 203.699C186.809 204.642 188.85 205.409 190.996 205.915L214.758 211.585C228.978 214.987 240.126 225.979 243.737 240.146L246.128 249.567Z" fill="white" stroke="black"/>
<path opacity="0.2" d="M167.413 175.822C164.342 189.308 156.02 198.973 146.25 198.973C136.48 198.973 128.14 189.273 125.07 175.787L127.425 166.627L128.14 163.888H164.342L167.029 174.356L167.273 175.298L167.413 175.822Z" fill="#8F8E93"/>
<path d="M105.746 124.511C87.7234 104.29 99.7442 153.734 109.724 147.942C127.258 137.788 105.746 124.511 105.746 124.511Z" fill="#F1EFED" stroke="black"/>
<path d="M186.721 124.511C204.744 104.29 192.723 153.734 182.743 147.942C165.209 137.788 186.721 124.511 186.721 124.511Z" fill="#F1EFED" stroke="black"/>
<path d="M188.179 109.924C188.179 111.46 188.092 112.96 187.935 114.461C187.76 116.345 186.644 126.726 184.62 138.066C182.369 150.628 178.967 164.358 174.361 168.964C171.953 171.372 169.773 173.675 167.644 175.751C165.725 177.635 163.823 179.345 161.817 180.775C158.921 182.852 155.815 184.387 151.994 185.155C150.25 185.503 148.348 185.695 146.254 185.695C139.171 185.695 134.269 183.549 129.837 180.147C128.145 178.839 126.522 177.356 124.865 175.751C122.754 173.675 120.573 171.372 118.165 168.964C114.746 165.544 111.989 157.153 109.878 147.923C109.128 144.696 108.465 141.363 107.889 138.101L107.575 136.321C105.551 124.492 104.539 114.146 104.539 114.146C104.417 112.768 104.33 111.355 104.33 109.924C104.33 109.558 104.33 109.192 104.33 108.825C104.417 105.528 104.888 102.318 105.691 99.247L105.796 98.8283C110.471 81.8003 125.598 69.0991 143.847 68.0698C144.632 68.0174 145.434 68 146.237 68C149.447 68 152.57 68.3664 155.554 69.0468C174.222 73.2689 188.161 89.9654 188.161 109.924H188.179Z" fill="#F1EFED" stroke="black"/>
<path d="M126.288 144.799C117.913 144.799 111.109 137.995 111.109 129.62C111.109 121.246 117.913 114.442 126.288 114.442C134.662 114.442 141.466 121.246 141.466 129.62C141.466 137.995 134.662 144.799 126.288 144.799ZM126.288 116.029C118.803 116.029 112.697 122.118 112.697 129.62C112.697 137.122 118.786 143.211 126.288 143.211C133.79 143.211 139.879 137.122 139.879 129.62C139.879 122.118 133.79 116.029 126.288 116.029Z" fill="#5869DD"/>
<path d="M166.213 144.799C157.839 144.799 151.035 137.995 151.035 129.62C151.035 121.246 157.839 114.442 166.213 114.442C174.588 114.442 181.392 121.246 181.392 129.62C181.392 137.995 174.588 144.799 166.213 144.799ZM166.213 116.029C158.729 116.029 152.622 122.118 152.622 129.62C152.622 137.122 158.711 143.211 166.213 143.211C173.715 143.211 179.804 137.122 179.804 129.62C179.804 122.118 173.715 116.029 166.213 116.029Z" fill="#5869DD"/>
<path d="M152.632 129.618H151.044C151.044 126.984 148.898 124.838 146.264 124.838C143.629 124.838 141.483 126.984 141.483 129.618H139.896C139.896 126.094 142.757 123.233 146.281 123.233C149.805 123.233 152.667 126.094 152.667 129.618H152.632Z" fill="#5869DD"/>
<path d="M146.257 95.1128L146.448 95.0607L146.414 95.1649L146.257 95.1128Z" fill="#555A5E"/>
<path d="M188.189 109.924C188.189 111.355 188.101 112.768 187.979 114.146C187.979 114.146 186.967 124.492 184.943 136.321C184.943 136.321 186.985 87.5752 167.427 88.9186L163.798 89.9654C152.213 93.2977 139.914 93.2628 128.346 89.8782L125.084 88.9186C105.526 87.5752 107.567 136.321 107.567 136.321C105.544 124.492 104.532 114.146 104.532 114.146C104.41 112.768 104.322 111.355 104.322 109.924C104.322 109.558 104.322 109.192 104.322 108.825C104.409 105.528 104.881 102.318 105.683 99.247L105.788 98.8283C109.853 84.0161 121.839 72.4663 136.913 69.0468C137.541 68.9072 138.151 68.7851 138.797 68.663C139.495 68.5408 140.193 68.4362 140.908 68.3489C141.187 68.2966 141.449 68.2617 141.728 68.2443C142.426 68.1745 143.124 68.1047 143.839 68.0698C144.624 68.0174 145.427 68 146.229 68C147.032 68 147.834 68 148.619 68.0698C149.335 68.1047 150.033 68.1745 150.73 68.2443C151.01 68.2617 151.271 68.2966 151.55 68.3489C152.266 68.4362 152.964 68.5408 153.662 68.663C154.307 68.7851 154.918 68.9072 155.546 69.0468C170.62 72.4663 182.569 83.4918 186.738 98.8201L186.881 99.2487C187.684 102.319 188.101 105.53 188.189 108.828C188.189 109.194 188.189 109.558 188.189 109.924Z" fill="black"/>
<path d="M182.641 147.922C180.53 157.151 177.773 165.543 174.353 168.963C171.946 171.37 169.765 173.673 167.654 175.75C165.996 177.355 164.374 178.838 162.682 180.146C159.559 182.536 156.191 184.316 152.004 185.153C151.952 185.171 151.9 185.171 151.83 185.188C151.446 185.258 151.062 185.328 150.661 185.38C149.754 185.52 148.794 185.607 147.8 185.659C147.294 185.677 146.788 185.694 146.264 185.694C145.741 185.694 145.235 185.677 144.729 185.659C143.735 185.607 142.775 185.52 141.868 185.38C141.466 185.328 141.083 185.258 140.699 185.188C140.646 185.171 140.577 185.171 140.524 185.153C136.337 184.316 132.97 182.536 129.847 180.146C128.155 178.838 126.532 177.355 124.875 175.75C122.764 173.673 120.583 171.37 118.175 168.963C114.756 165.543 111.999 157.151 109.888 147.922C110.795 147.835 116.082 148.184 125.101 164.706C131.19 175.889 144.363 178.384 146.247 178.698C146.247 178.681 146.282 178.681 146.299 178.698C148.183 178.384 161.356 175.889 167.445 164.706C176.465 148.184 181.751 147.835 182.658 147.922H182.641Z" fill="black"/>
<path d="M154.787 156.369H138.126C133.624 156.369 129.978 160.015 129.978 164.517H162.935C162.935 160.015 159.288 156.369 154.787 156.369Z" fill="black"/>
<path opacity="0.2" d="M153.014 151.133C153.014 154.029 150.065 156.367 146.419 156.367C142.773 156.367 139.842 154.029 139.842 151.133C139.842 150.784 139.876 150.435 139.981 150.121C140.557 152.529 143.226 154.343 146.419 154.343C149.612 154.343 152.298 152.529 152.874 150.121C152.979 150.453 153.014 150.784 153.014 151.133Z" fill="#8F8E93"/>
<path d="M48.7496 240.146L46.3594 249.549L33.5 299.5H128.411V290.863L107.597 203.7C105.678 204.659 103.637 205.409 101.491 205.915L77.7285 211.585C63.5095 214.988 52.361 225.979 48.7496 240.146Z" fill="#5869DD" stroke="black"/>
<path d="M246.138 249.549L243.748 240.146C240.136 225.979 228.988 214.988 214.769 211.585L191.006 205.915C188.86 205.409 186.819 204.659 184.9 203.7L164.086 290.863V299.5H258.997L246.138 249.549Z" fill="#5869DD" stroke="black"/>
<path d="M151.827 220.133V291.874C149.977 291.961 148.111 291.996 146.244 291.996C144.377 291.996 142.51 291.961 140.661 291.892V220.133C142.493 220.325 144.36 220.43 146.244 220.43C148.128 220.43 149.995 220.325 151.827 220.133Z" fill="#5869DD" stroke="black"/>
</g>
</g>
<rect x="0.5" y="0.5" width="291" height="291" rx="15.5" stroke="#A0A7E4"/>
</g>
<defs>
<linearGradient id="paint0_linear_3229_75349" x1="11.4202" y1="167.978" x2="291.889" y2="173.561" gradientUnits="userSpaceOnUse">
<stop stop-color="#5869DD" stop-opacity="0.5"/>
<stop offset="1" stop-color="#5869DD"/>
</linearGradient>
<radialGradient id="paint1_radial_3229_75349" cx="0" cy="0" r="1" gradientUnits="userSpaceOnUse" gradientTransform="translate(36.0521 67.5054) rotate(38.3453) scale(64.5266 118.615)">
<stop offset="0.227212" stop-color="#F1EFED"/>
<stop offset="1" stop-color="#F1EFED" stop-opacity="0"/>
</radialGradient>
<radialGradient id="paint2_radial_3229_75349" cx="0" cy="0" r="1" gradientUnits="userSpaceOnUse" gradientTransform="translate(254.38 166.409) rotate(133.102) scale(88.1551 127.919)">
<stop offset="0.227212" stop-color="#5869DD"/>
<stop offset="1" stop-color="#5869DD" stop-opacity="0"/>
</radialGradient>
<clipPath id="clip0_3229_75349">
<rect width="292" height="292" fill="white"/>
</clipPath>
</defs>
</svg>
