<svg width="292" height="292" viewBox="0 0 292 292" fill="none" xmlns="http://www.w3.org/2000/svg">
<g clip-path="url(#clip0_3229_76564)">
<rect width="292" height="292" rx="16" fill="#F1EFED"/>
<rect width="292" height="292" rx="16" fill="url(#paint0_linear_3229_76564)" fill-opacity="0.1"/>
<rect width="292" height="292" rx="16" fill="url(#paint1_radial_3229_76564)" fill-opacity="0.5"/>
<rect width="292" height="292" rx="16" fill="url(#paint2_radial_3229_76564)" fill-opacity="0.05"/>
<mask id="mask0_3229_76564" style="mask-type:alpha" maskUnits="userSpaceOnUse" x="0" y="0" width="292" height="292">
<rect width="292" height="292" rx="16" fill="#D9D9D9"/>
</mask>
<g mask="url(#mask0_3229_76564)">
<g opacity="0.5">
<path d="M189.708 126.063C195.801 101.589 180.9 76.8095 156.426 70.7165C131.952 64.6235 107.173 79.5242 101.08 103.998C94.9869 128.472 109.888 153.251 134.361 159.344C158.835 165.437 183.615 150.537 189.708 126.063Z" fill="black"/>
<path d="M242.453 254.758C226.841 270.929 207.246 283.219 185.226 290.016C179.937 291.66 174.513 292.966 168.97 293.932C161.325 295.305 153.443 296 145.408 296C137.373 296 129.609 295.305 122.015 293.966C116.472 293.017 111.048 291.694 105.776 290.067C83.6714 283.287 64.008 270.98 48.3621 254.758L50.6844 245.604C54.1933 231.857 65.0251 221.16 78.8403 217.872L78.959 217.838L101.911 212.346C103.165 212.041 104.403 211.668 105.589 211.176C105.945 211.041 106.318 210.888 106.674 210.718C107.301 210.464 107.912 210.176 108.505 209.854C111.031 208.532 113.302 206.854 115.268 204.853C115.404 204.718 115.54 204.582 115.675 204.447C117.286 202.751 118.71 200.836 119.862 198.768C120.184 198.192 120.489 197.598 120.761 196.988C121.49 195.445 122.083 193.818 122.524 192.106L124.32 185.122L124.795 183.241L124.829 183.088L127.134 174.189L127.812 171.527H162.986L165.597 181.698L165.851 182.613L165.969 183.122L166.003 183.241L166.495 185.139L168.292 192.106C168.732 193.801 169.326 195.429 170.055 196.988C170.326 197.598 170.648 198.192 170.97 198.768C174.123 204.447 179.208 208.905 185.379 211.261C185.955 211.481 186.548 211.685 187.141 211.871C187.718 212.041 188.294 212.21 188.887 212.346L211.975 217.872C211.975 217.872 212.009 217.872 212.026 217.872C225.807 221.177 236.622 231.857 240.114 245.587L242.453 254.741V254.758Z" fill="#F1EFED" stroke="black" stroke-linejoin="round"/>
<path d="M50.6844 245.604L48.3621 254.758L34.0027 312.5H122.015H261.503L242.453 254.758V254.741L240.114 245.587C236.622 231.857 225.807 221.177 212.026 217.872H211.975L192.362 213.177L188.887 212.346C188.294 212.21 187.718 212.041 187.141 211.871C186.548 211.685 185.955 211.481 185.379 211.261C184.294 210.837 183.243 210.363 182.226 209.82L151.12 240.112L145.408 245.672L139.695 240.112L108.59 209.803C108.556 209.82 108.539 209.837 108.505 209.854C107.912 210.176 107.301 210.464 106.674 210.719C106.318 210.888 105.945 211.041 105.589 211.176C104.403 211.668 103.165 212.041 101.911 212.346L98.4359 213.177L78.959 217.838L78.8403 217.872C65.0251 221.161 54.1933 231.857 50.6844 245.604Z" fill="#5869DD" stroke="black" stroke-linejoin="round"/>
<path opacity="0.2" d="M165.972 183.122C162.989 196.225 154.903 205.616 145.41 205.616C135.918 205.616 127.815 196.191 124.832 183.088L127.12 174.189L127.815 171.527H162.989L165.599 181.698L165.836 182.613L165.972 183.122Z" fill="#8F8E93"/>
<path d="M106.057 133.268C88.5463 113.622 100.226 161.661 109.922 156.034C126.958 146.168 106.057 133.268 106.057 133.268Z" fill="#F1EFED" stroke="black"/>
<path d="M184.729 133.268C202.24 113.622 190.561 161.661 180.865 156.034C163.829 146.168 184.729 133.268 184.729 133.268Z" fill="#F1EFED" stroke="black"/>
<path d="M186.149 119.094C186.149 120.586 186.081 122.043 185.912 123.501C185.81 124.535 185.42 128.231 184.759 133.231V133.265C182.911 146.894 178.945 170.219 172.724 176.457C170.401 178.796 168.282 181.034 166.197 183.051C164.333 184.882 162.485 186.543 160.553 187.933C156.434 190.882 151.857 192.713 145.415 192.713C138.533 192.713 133.77 190.628 129.464 187.323C127.82 186.051 126.243 184.61 124.65 183.051C122.582 181.034 120.463 178.796 118.124 176.457C113.632 171.982 110.326 158.675 108.14 146.47C108.055 145.894 107.936 145.317 107.834 144.741C107.123 140.588 106.546 136.638 106.088 133.265C105.292 127.298 104.885 123.196 104.885 123.196C104.766 121.857 104.698 120.484 104.698 119.094V118.026C104.783 114.822 105.241 111.703 106.021 108.72C106.055 108.584 106.088 108.449 106.122 108.313C110.665 91.7686 125.362 79.4282 143.093 78.428C143.856 78.3772 144.636 78.3602 145.415 78.3602C167.909 78.3602 186.149 96.5828 186.149 119.094Z" fill="#F1EFED" stroke="black"/>
<path opacity="0.2" d="M151.982 159.134C151.982 161.948 149.117 164.22 145.575 164.22C142.032 164.22 139.184 161.948 139.184 159.134C139.184 158.795 139.218 158.456 139.32 158.151C139.879 160.49 142.473 162.253 145.575 162.253C148.677 162.253 151.287 160.49 151.847 158.151C151.948 158.473 151.982 158.795 151.982 159.134Z" fill="#8F8E93"/>
<path d="M187.655 119.588C187.655 121.13 187.587 122.639 187.401 124.164C187.299 125.232 185.417 128.08 184.722 133.267L183.587 134.501V133.064C159.499 121.74 131.631 121.707 107.493 132.928L106.052 133.267C105.221 127.08 103.34 123.842 103.34 123.842C103.221 122.452 103.153 121.028 103.153 119.588V118.486C103.238 115.163 103.713 111.926 104.526 108.841C104.56 108.705 104.594 108.552 104.628 108.417C109.34 91.2622 124.58 78.464 142.972 77.43C143.768 77.3791 144.565 77.3622 145.379 77.3622H145.396C168.721 77.3622 187.638 96.2628 187.638 119.605L187.655 119.588Z" fill="black"/>
<path d="M126.192 164.581C118.055 164.581 111.444 157.97 111.444 149.833C111.444 141.697 118.055 135.086 126.192 135.086C134.328 135.086 140.939 141.697 140.939 149.833C140.939 157.97 134.328 164.581 126.192 164.581ZM126.192 136.628C118.92 136.628 112.987 142.544 112.987 149.833C112.987 157.122 118.903 163.038 126.192 163.038C133.481 163.038 139.397 157.122 139.397 149.833C139.397 142.544 133.481 136.628 126.192 136.628Z" fill="#5869DD"/>
<path d="M164.983 164.581C156.847 164.581 150.236 157.97 150.236 149.833C150.236 141.697 156.847 135.086 164.983 135.086C173.12 135.086 179.731 141.697 179.731 149.833C179.731 157.97 173.12 164.581 164.983 164.581ZM164.983 136.628C157.711 136.628 151.778 142.544 151.778 149.833C151.778 157.122 157.694 163.038 164.983 163.038C172.272 163.038 178.188 157.122 178.188 149.833C178.188 142.544 172.272 136.628 164.983 136.628Z" fill="#5869DD"/>
<path d="M151.787 149.833H150.244C150.244 147.273 148.159 145.188 145.6 145.188C143.04 145.188 140.955 147.273 140.955 149.833H139.412C139.412 146.409 142.192 143.629 145.616 143.629C149.041 143.629 151.821 146.409 151.821 149.833H151.787Z" fill="#5869DD"/>
<path d="M184.737 133.268L181.804 151.084L177.109 123.488L184.737 133.268Z" fill="black"/>
<path d="M106.2 133.268L109.133 151.084L113.828 123.488L106.2 133.268Z" fill="black"/>
<path d="M145.581 110.128L140.259 125.808H150.904L145.581 110.128Z" fill="#F1EFED"/>
<path d="M145.409 83.0731C157.58 83.0731 167.446 73.207 167.446 61.0366C167.446 48.8661 157.58 39 145.409 39C133.239 39 123.373 48.8661 123.373 61.0366C123.373 73.207 133.239 83.0731 145.409 83.0731Z" fill="black"/>
<path d="M145.404 268.469C148.072 268.469 150.235 266.306 150.235 263.637C150.235 260.969 148.072 258.806 145.404 258.806C142.735 258.806 140.573 260.969 140.573 263.637C140.573 266.306 142.735 268.469 145.404 268.469Z" fill="white"/>
<path d="M145.392 245.672L116.592 257.334L98.4201 213.176L98.3862 213.075L108.489 209.735L108.574 209.803L145.392 245.672Z" fill="white" stroke="black" stroke-linejoin="round"/>
<path d="M192.387 213.075L192.336 213.176L174.182 257.334L145.382 245.672L182.2 209.82L182.284 209.735L192.387 213.075Z" fill="white" stroke="black" stroke-linejoin="round"/>
<path d="M167.381 254.566L145.395 245.667L123.409 254.566L145.395 292.113V291.961V292.113L167.381 254.566Z" fill="white" stroke="black" stroke-linejoin="round"/>
<path d="M123.409 254.566H145.395V245.667L123.409 254.566Z" fill="black" fill-opacity="0.5" stroke="black"/>
<path d="M167.379 254.566H145.393V245.667L167.379 254.566Z" fill="black" fill-opacity="0.5" stroke="black"/>
<path d="M149.052 260.485C149.052 262.485 147.424 264.129 145.407 264.129C143.39 264.129 141.763 262.502 141.763 260.485C141.763 258.467 143.39 256.84 145.407 256.84C147.424 256.84 149.052 258.467 149.052 260.485Z" fill="black"/>
<path d="M149.052 272.535C149.052 274.536 147.424 276.18 145.407 276.18C143.39 276.18 141.763 274.553 141.763 272.535C141.763 270.518 143.39 268.891 145.407 268.891C147.424 268.891 149.052 270.518 149.052 272.535Z" fill="black"/>
</g>
</g>
<rect x="0.5" y="0.5" width="291" height="291" rx="15.5" stroke="#A0A7E4"/>
</g>
<defs>
<linearGradient id="paint0_linear_3229_76564" x1="11.4202" y1="167.978" x2="291.889" y2="173.561" gradientUnits="userSpaceOnUse">
<stop stop-color="#5869DD" stop-opacity="0.5"/>
<stop offset="1" stop-color="#5869DD"/>
</linearGradient>
<radialGradient id="paint1_radial_3229_76564" cx="0" cy="0" r="1" gradientUnits="userSpaceOnUse" gradientTransform="translate(36.0521 67.5054) rotate(38.3453) scale(64.5266 118.615)">
<stop offset="0.227212" stop-color="#F1EFED"/>
<stop offset="1" stop-color="#F1EFED" stop-opacity="0"/>
</radialGradient>
<radialGradient id="paint2_radial_3229_76564" cx="0" cy="0" r="1" gradientUnits="userSpaceOnUse" gradientTransform="translate(254.38 166.409) rotate(133.102) scale(88.1551 127.919)">
<stop offset="0.227212" stop-color="#5869DD"/>
<stop offset="1" stop-color="#5869DD" stop-opacity="0"/>
</radialGradient>
<clipPath id="clip0_3229_76564">
<rect width="292" height="292" fill="white"/>
</clipPath>
</defs>
</svg>
