<svg xmlns="http://www.w3.org/2000/svg" width="406" height="198" fill="none" viewBox="0 0 406 198"><mask id="a" width="406" height="198" x="0" y="0" maskUnits="userSpaceOnUse" style="mask-type:alpha"><path fill="#D9D9D9" stroke="#000" stroke-width=".535" d="M.268.268h405.465v197.465H.268z"/></mask><g stroke="#000" mask="url(#a)"><g opacity=".2"><path stroke-miterlimit="10" stroke-width=".411" d="M140.335 214.106c23.523 11.613 52.053 1.98 63.722-21.515 11.67-23.495 2.06-51.956-21.463-63.569s-52.052-1.98-63.722 21.515c-11.669 23.495-2.06 51.956 21.463 63.569Z"/><path stroke-miterlimit="10" stroke-width="1.691" d="M138.363 218.042c25.504 12.591 56.436 2.148 69.088-23.326 12.652-25.474 2.234-56.331-23.27-68.922-25.504-12.591-56.436-2.147-69.088 23.326-12.652 25.474-2.234 56.331 23.27 68.922Z"/><path stroke-width=".803" d="M188.593 171.46c-.001 1.302-.667 2.585-1.958 3.795-1.293 1.211-3.185 2.321-5.555 3.262-4.74 1.88-11.313 3.055-18.593 3.06-7.28.006-13.852-1.16-18.588-3.033-2.37-.938-4.26-2.044-5.551-3.254-1.29-1.208-1.953-2.49-1.952-3.792.001-1.303.666-2.585 1.958-3.796 1.293-1.211 3.184-2.32 5.555-3.261 4.739-1.881 11.312-3.055 18.593-3.061 7.28-.005 13.852 1.16 18.588 3.034 2.369.937 4.259 2.044 5.55 3.253 1.29 1.209 1.954 2.49 1.953 3.793Z"/><path stroke-width=".803" d="M176.747 148.976c1.082.725 1.781 1.993 2.073 3.743.293 1.751.17 3.944-.357 6.444-1.055 4.996-3.71 11.129-7.727 17.2-4.017 6.072-8.615 10.902-12.789 13.808-2.088 1.454-4.052 2.414-5.77 2.818-1.717.403-3.149.244-4.231-.481-1.082-.725-1.78-1.993-2.073-3.743-.292-1.751-.169-3.945.358-6.444 1.055-4.996 3.71-11.129 7.727-17.2 4.017-6.072 8.615-10.902 12.789-13.808 2.088-1.454 4.052-2.414 5.77-2.818 1.717-.404 3.149-.244 4.23.481Z"/><path stroke-width=".803" d="M148.285 148.965c-1.082.726-1.78 1.994-2.073 3.745-.293 1.752-.171 3.947.356 6.447 1.053 4.999 3.705 11.134 7.719 17.208 4.013 6.074 8.608 10.906 12.779 13.813 2.086 1.454 4.049 2.414 5.766 2.818 1.716.403 3.147.243 4.229-.482 1.081-.726 1.78-1.995 2.073-3.746.292-1.751.17-3.946-.356-6.447-1.053-4.998-3.705-11.134-7.719-17.208-4.013-6.073-8.608-10.905-12.779-13.812-2.087-1.454-4.049-2.415-5.766-2.818-1.716-.403-3.148-.243-4.229.482Z"/><circle r="4.099" fill="#000" stroke-width=".803" transform="translate(162.499 171.497) skewX(-.084)"/></g><g opacity=".2"><path stroke-miterlimit="10" stroke-width=".768" d="M249.624 212.817c44.075 21.759 97.53 3.711 119.395-40.311 21.865-44.023 3.86-97.35-40.214-119.108-44.075-21.76-97.53-3.711-119.395 40.311-21.865 44.023-3.86 97.349 40.214 119.108Z"/><path stroke-miterlimit="10" stroke-width="3.159" d="M246.677 219.571c47.789 23.593 105.749 4.024 129.456-43.708 23.708-47.732 4.186-105.552-43.603-129.145-47.789-23.593-105.749-4.024-129.456 43.708-23.708 47.732-4.186 105.553 43.603 129.145Z"/><path stroke-width=".548" d="M346.665 106.453c-6.856-3.057-13.744-6.023-20.575-9.156-5.227-2.406-10.438-4.873-15.51-7.587-7.096-3.795-14.13-7.703-21.6-10.736a65.977 65.977 0 0 0-6.47-2.267c-1.765-.508-3.904-.023-4.664 2.434-.336 1.086-.941 2.088-1.487 3.09-2.1 3.857-4.223 7.701-6.341 11.547-3.099 5.63-6.236 11.232-9.288 16.894-2.42 4.493-4.755 9.03-7.078 13.571-.663 1.295-1.144 2.68-1.716 4.04-4.568-.936-8.933-1.865-13.303-2.715-11.011-2.162-22.079-4.025-32.873-7.148-.617-.178-.882.095-1.009.611-.244 1.007-.561 2.007-.645 3.027a2.132 2.132 0 0 0 .585 1.548c5.747 5.239 11.489 10.482 17.321 15.625 9.338 8.237 18.665 16.486 28.138 24.566 7.477 6.377 15.618 11.89 23.795 17.337 2.014 1.343 4.138 2.093 6.644 1.927 13.659-.908 27.324-1.731 40.994-2.603 1.851-.118 3.769-.134 5.522-.653 1.753-.518 3.362-1.567 4.982-2.47.502-.278.913-.797 1.243-1.287.955-1.421 1.849-2.884 2.765-4.332 5.357-8.437 10.705-16.885 16.043-25.343a1692.32 1692.32 0 0 0 10.265-16.44c2.022-3.281 3.936-6.629 5.935-9.924.666-1.1.643-2.178-.207-3.047-.817-.821-1.758-1.618-2.793-2.096-5.923-2.729-11.882-5.385-17.839-8.041m-.834-.372.834.372m-.834-.372.834.372m-109.047 19.497c4.093.845 8.194 1.624 12.267 2.591 1.164.276 2.249 1.005 3.293 1.654 7.132 4.429 14.238 8.903 21.364 13.343 5.802 3.603 11.575 7.244 17.416 10.77 7.129 4.304 14.3 8.537 21.484 12.743 4.35 2.547 8.761 4.985 13.144 7.474.14.081.271.172.666.424-1.848.041-3.4.014-4.931.125a37038.8 37038.8 0 0 1-36.596 2.445c-2.387.16-4.779.329-7.171.374a4.001 4.001 0 0 1-2.19-.603c-9.582-6.487-19.158-12.998-28.014-20.46-8.048-6.781-15.979-13.7-23.862-20.674-6.063-5.364-11.966-10.905-17.941-16.369a.663.663 0 0 1-.238-.487c1.349.343 2.688.736 4.047 1.02m27.262 5.63-27.262-5.63m27.262 5.63-27.262-5.63m152.099 2.237a836.689 836.689 0 0 1-6.775 11.295c-4.385 7.141-8.755 14.303-13.228 21.403-2.912 4.618-5.978 9.141-8.993 13.692-1.339 2.02-2.721 4.002-4.183 6.148-26.458-14.569-51.979-30.601-77.684-46.83 2.205-4.439 4.23-8.807 6.507-13.038 4.424-8.242 9.028-16.387 13.507-24.6 2.149-3.94 4.208-7.942 6.281-11.937.773-1.488 1.733-2.084 3.394-1.742 1.044.232 2.067.555 3.055.965 9.806 3.864 18.929 9.092 28.327 13.811 10.155 5.097 20.578 9.672 30.994 14.228 6.91 3.022 13.943 5.763 20.597 9.349 1.017.552 1.406 1.246.871 2.392-.776 1.661-1.717 3.252-2.652 4.833m-.018.031.018-.031m-.018.031a.853.853 0 0 1 .018-.031m-30.085 51.935c1.684-2.648 3.367-5.297 5.05-7.947 4.309-6.818 8.614-13.638 12.914-20.459 2.905-4.624 5.795-9.255 8.658-13.905a1049.31 1049.31 0 0 0 7.736-12.835c.673-1.128.496-1.751-.399-2.52-.813 1.637-1.595 3.34-2.494 4.982-.687 1.248-1.547 2.401-2.279 3.624-5.452 9.047-10.816 18.149-16.387 27.121-3.608 5.818-7.532 11.441-11.308 17.156-1.457 2.181-2.884 4.385-4.32 6.585l.351.292c1.232-.168 1.838-1.105 2.445-2.042m.033-.052-.033.052m.033-.052-.033.052m-55.463 3.986c-26.476-16.844-49.147-38.31-72.309-59.323-.189.578-.34 1.085-.517 1.582-.323.9-.152 1.56.638 2.227 1.922 1.65 3.717 3.444 5.602 5.125 8.77 7.802 17.509 15.638 26.351 23.359 6.017 5.255 12.029 10.543 18.339 15.439 6.198 4.812 12.767 9.149 19.185 13.677.454.32 1.002.507 1.523.764.394-.938.761-1.821 1.188-2.85Zm-.985 3.237c1.575.034 2.853.152 4.121.075a10895.2 10895.2 0 0 0 36.167-2.219c3.244-.207 6.479-.539 9.718-.828 1.721-.154 2.612-1.234 3.114-2.8a1.258 1.258 0 0 0-.348-.114c-17.15.361-34.221 2.111-51.298 2.929l-1.474 2.957Z"/><path fill="#000" stroke-width=".548" d="m233.555 139.148 9.482.35-14.353-10.823.168-.339c.431.061.868.097 1.292.188 8.347 1.83 16.671 3.785 25.056 5.435 2.799.551 4.962 1.976 7.205 3.462 7.374 4.866 14.639 9.906 22.165 14.521 8.022 4.908 16.286 9.425 24.448 14.108.975.559 1.965 1.093 2.889 1.885-.377.051-.741.087-1.114.125-4.878.479-9.75 1.071-14.643 1.425-3.933.29-7.89.327-11.836.417-.44.019-.936-.296-1.315-.578-7.353-5.503-14.689-11.025-22.05-16.519a1.916 1.916 0 0 0-1.186-.292c-2.593.152-5.188.279-7.77.559-1.737.184-3.135-.225-4.545-1.309-4.67-3.595-9.16-7.348-13.281-11.543-.243-.246-.466-.505-.702-.761l.09-.311Zm.867.274-.058.355c.071.121.154.235.246.342 4.488 4.44 9.17 8.631 14.443 12.133a2.787 2.787 0 0 0 1.587.443c2.946-.155 5.894-.382 8.845-.604.071-.005.136-.12.236-.212-5.061-3.768-10.077-7.513-15.108-11.246a2.473 2.473 0 0 0-1.168-.479c-3.01-.26-6.017-.488-9.023-.732Zm8.888-.263c.536.414.895.702 1.265.977 5.616 4.193 11.281 8.315 16.827 12.589 1.472 1.134 2.8 1.002 4.473.511-2.45-1.699-4.801-3.295-7.113-4.931-3.734-2.663-7.514-5.272-11.125-8.096-1.336-1.041-2.601-1.261-4.327-1.05Zm40.261 23.06c1.757 1.237 3.262 2.304 4.787 3.359.196.153.43.249.677.278 1.935.041 3.872.054 5.807.076a56.398 56.398 0 0 0-5.322-3.854 1.262 1.262 0 0 0-.69-.219c-1.636.089-3.261.217-5.259.36Zm-5.939-4.196c1.772 1.246 3.324 2.351 4.895 3.444.225.158.499.371.737.364 1.681-.082 3.362-.218 5.333-.355-2.155-1.438-4.062-2.715-5.974-3.972a1.092 1.092 0 0 0-.686-.187c-1.356.197-2.702.439-4.305.706Zm-.623 6.251c1.809 1.367 3.526 2.527 5.067 3.891 1.64 1.454 3.461.961 5.308.864-1.729-1.452-3.591-2.684-5.281-4.119-1.562-1.328-3.17-1.251-5.094-.636Zm-.668-10.801.102-.248c-1.35-.979-2.696-1.961-4.047-2.923a.98.98 0 0 0-.584-.206c-1.513.115-3.023.259-4.79.417 1.647 1.151 3.112 2.187 4.591 3.199.187.1.401.14.611.114 1.367-.111 2.736-.237 4.117-.353Zm5.498 3.472c-1.626-1.111-2.967-2.036-4.318-2.944a1.189 1.189 0 0 0-.676-.251c-1.433.145-2.859.335-4.477.536 1.602 1.136 3.037 2.164 4.486 3.175a.91.91 0 0 0 .591.169c1.348-.194 2.705-.421 4.387-.689l.007.004Zm6.656.559c-1.941-1.271-3.656-2.397-5.382-3.509a.768.768 0 0 0-.509-.096c-1.09.215-2.175.456-3.498.738 1.793 1.202 3.358 2.282 4.965 3.312.316.157.675.207 1.022.143 1.047-.146 2.086-.355 3.402-.588Zm-18.575 1.452c2.151 1.614 4.193 3.148 6.239 4.674.163.12.384.286.544.268.897-.151 1.784-.357 2.777-.565-1.822-1.314-3.655-2.437-5.238-3.838-1.353-1.213-2.668-1.126-4.322-.539Zm7.552 2.349c.15.173.314.334.491.479 1.421.938 2.951 1.76 4.241 2.842 1.46 1.227 2.846.695 4.507.272-2.017-1.436-3.883-2.771-5.765-4.089a.846.846 0 0 0-.588-.101c-.931.17-1.854.373-2.886.597Zm12.806.788c.986.667 2.048 1.248 2.941 2.02 1.949 1.689 3.954.418 5.953.371-.833-.696-1.79-1.142-2.535-1.82-1.975-1.794-4.168-.786-6.359-.571Zm3.654-.894c.012-.072.024-.145.039-.218-1.201-.763-2.49-1.421-3.583-2.316-1.814-1.484-3.496-.22-5.536-.176 1.587 1.075 2.878 1.956 4.184 2.821.198.146.436.229.682.239 1.405-.094 2.809-.23 4.214-.35Zm-22.2-4.304-.097.253c1.629 1.197 3.251 2.402 4.892 3.581.207.129.452.181.693.149.943-.136 1.877-.314 3.098-.528-1.855-1.33-3.483-2.503-5.117-3.657a.818.818 0 0 0-.509-.086c-.991.083-1.979.195-2.96.288Zm35.441 8.845.155-.311c-1.459-.721-3.015-1.299-4.355-2.198-1.722-1.153-3.439-.569-5.218-.42 1.527 1.124 3.094 2.141 4.674 3.143a.91.91 0 0 0 .513.083c1.413-.09 2.823-.194 4.231-.297Zm-35.071-7.765c-1.772-1.434-3.469-2.816-5.183-4.178a.865.865 0 0 0-.597-.122c-.902.118-1.805.264-2.912.439 1.58 1.183 3.069 2.114 4.328 3.29 1.357 1.268 2.734 1.148 4.364.571Zm32.127 9.592c-1.42-.9-2.579-1.642-3.749-2.367a1.265 1.265 0 0 0-.672-.26c-1.434.13-2.863.302-4.548.493 1.272.886 2.338 1.628 3.41 2.361.223.174.494.276.776.291 1.503-.137 3.008-.322 4.783-.518Zm-30.089-16.473c1.425 1.011 2.852 2.028 4.29 3.031a.731.731 0 0 0 .496.113c1.056-.201 2.108-.427 3.358-.686-2.59-1.742-4.777-3.932-8.144-2.458Zm15.255 15.259c.817.574 1.404 1.001 2.007 1.403.556.369 1.138 1.035 1.695 1.012 1.722-.05 3.435-.361 5.153-.571l.053-.289c-.972-.551-1.908-1.453-2.926-1.579-1.863-.236-3.782-.014-5.982.024Zm-5.094-.463c3.12 3.065 4.934 3.741 7.86 2.894-1.155-.807-2.377-1.472-3.321-2.397-1.452-1.422-2.93-.94-4.539-.497Zm-29.283-23.935c1.27.884 2.311 2.087 3.596 2.388 1.536.367 3.25-.022 4.853-.083-2.235-2.859-5.211-2.726-8.449-2.305Zm8.172 5.712c2.786 2.405 5.508 3.015 8.184 1.91-.972-.695-1.916-1.384-2.879-2.044a1.167 1.167 0 0 0-.679-.207c-1.48.093-2.957.216-4.626.341Zm4.084-.713.033-.277c-1.031-.684-1.988-1.746-3.107-1.962-1.552-.293-3.221.04-5.133.116.796.568 1.321.974 1.878 1.33.615.394 1.249 1.024 1.896 1.054 1.471.076 2.954-.156 4.433-.261Zm2.119 5.693c-2.205-1.818-4.274-3.813-7.58-2.727.764.542 1.565 1.009 2.232 1.61 1.553 1.432 3.327 1.711 5.348 1.117Zm26.118 6.346c-1.46-.867-2.815-1.472-3.921-2.378-1.406-1.149-2.788-.763-4.288-.344.709.499 1.626.703 2.173 1.267 1.655 1.712 3.619 1.86 6.036 1.455Zm-28.41-5.535c2.203 1.649 3.908 4.166 7.184 2.581-.628-.445-1.317-.823-1.869-1.349-1.489-1.416-3.168-1.924-5.315-1.232Zm-25.047-18.008c2.15 1.93 4.219 3.905 7.48 3.03-2.176-1.742-4.262-3.664-7.48-3.03Zm14.331 3.728.121-.271c-.835-.562-1.61-1.442-2.52-1.621-1.855-.367-3.782-.357-5.741-.505 2.224 2.954 5.338 2.056 8.14 2.397Zm44.035 22.745c-2.35-1.449-4.529-3.272-7.596-2.171 2.267 1.555 4.393 3.497 7.596 2.171Zm-40.696-20.59c-.952-.707-1.622-1.549-2.396-1.67-1.85-.294-3.753-.246-5.634-.334.937.876 1.875 1.872 2.952 2.075 1.547.285 3.202-.015 5.076-.072l.002.001Zm-14.902-7.167-.114.287c.991.652 1.906 1.651 2.992 1.881 1.77.387 3.648.284 5.482.389-.736-.689-1.488-1.489-2.375-1.693-1.962-.448-3.98-.592-5.994-.869l.009.005Zm5.23.335c-2.616-2.541-5.924-2.254-8.883-3.098.885.847 1.74 1.898 2.808 2.198 1.878.53 3.888.604 6.073.899l.002.001Zm7.585 12.406c1.935 1.98 4.147 3.01 6.876 2.265-1.858-2.015-4.162-2.748-6.878-2.266l.002.001Zm-.704-3.103c-1.845-1.96-4.059-2.764-6.705-2.096 1.746 2.223 4.083 2.624 6.705 2.096Zm25.181 9.118c1.164.756 2.276 1.381 3.275 2.151 1.249.962 2.495.508 3.791.248-.853-.627-1.807-1.051-2.603-1.676-1.311-1.037-2.711-1.267-4.463-.723Zm-5.389-3.428c1.224.775 2.351 1.333 3.287 2.115 1.225 1.024 2.474.928 3.984.502-1.331-.853-2.595-1.57-3.751-2.434-1.103-.826-2.158-.502-3.51-.187l-.01.004Zm-6.219-1.12c2.231 2.094 4.232 2.639 6.371 1.702-1.906-1.348-3.718-2.955-6.371-1.702Zm-40.629-19.347c2.066 1.756 3.859 3.94 7.112 3.274-2.143-1.602-4.076-3.433-7.112-3.274Zm42.827 18.373c-1.859-1.358-3.632-3.031-6.278-1.871 1.822 1.51 3.61 3.132 6.278 1.871Zm-27.647-8.865c-2.044-2.33-4.61-3.493-6.552-2.929.876.645 1.83 1.187 2.571 1.929 1.166 1.166 2.492 1.313 3.981 1Zm8.953 5.956c2.393 1.92 4.057 2.382 6.622 1.877-2.232-2.018-3.903-2.504-6.622-1.877Zm18.068 1.999c1 .638 1.931 1.065 2.641 1.725 1.195 1.108 2.421.838 3.778.466-2.494-2.286-3.6-2.677-6.415-2.199l-.004.008Zm-25.165-7.479c1.482 2.31 3.72 2.459 6.091 2.06-1.58-1.973-3.756-2.294-6.087-2.068l-.004.008Zm27.155 6.779c-1.847-2.058-4.052-2.806-5.976-2.032 2.723 2.208 3.593 2.503 5.979 2.026l-.003.006Zm-39.581-16.047c1.932 2.426 4.45 2.67 7.175 2.806-1.895-2.328-4.658-1.919-7.175-2.806Zm3.811 2.887c2.585 2.171 4.172 2.729 6.419 2.369-1.518-2.191-3.905-2.15-6.419-2.369Zm31.597 10.285c-1.705-1.511-3.556-2.636-6.055-2.042 1.792 1.291 3.377 3.054 6.055 2.042Zm-7.126-.017c1.769 1.955 3.376 2.464 5.689 1.779-1.623-1.507-3.365-2.592-5.689-1.779Zm1.963-.766c-1.587-1.493-3.321-2.555-5.614-1.794 1.562 1.495 3.23 2.7 5.618 1.787l-.004.007Zm-24.06-7.066c-1.612-1.823-3.564-2.635-5.947-2.313 1.654 1.628 3.508 2.699 5.947 2.313Zm20.518 4.543c-1.607-1.43-3.206-2.662-5.484-1.869 1.478 1.591 3.158 2.591 5.481 1.875l.003-.006Zm42.279 26.821c2.008 1.879 4.234.511 6.366.632-2.025-1.488-4.223-.646-6.368-.626l.002-.006Zm-37.574-26.143c-1.544-1.449-3.281-2.216-5.42-1.878 1.462 1.607 3.217 2.322 5.42 1.878Zm-10.52-5.037c-1.871-1.755-4.145-1.446-6.372-2.263 1.838 2.034 3.907 2.393 6.372 2.263Zm-2.764.231c1.788 1.737 3.48 2.191 4.955 1.513-1.177-1.722-3.059-1.172-4.955-1.513Zm9.764 2.512c-1.277-1.473-2.926-1.537-4.629-1.646 1.167 1.714 2.873 1.634 4.629 1.646Zm-6.929-3.657c-.047.095-.077.198-.116.3 1.084 1.302 2.555 1.375 4.037 1.403l.12-.371-4.041-1.332Z"/><path stroke-width=".548" d="M360.701 118.84c-11.03 16.997-21.949 33.824-32.889 50.676-1.642-.94-3.324-1.949-5.044-2.872-3.811-2.049-7.691-3.974-11.456-6.103-4.76-2.69-9.43-5.54-14.146-8.304-9.868-5.783-19.571-11.836-29.756-17.081-3.879-1.999-7.345-4.798-10.968-7.278-.217-.148-.332-.78-.205-1.036 2.728-5.11 5.434-10.23 8.268-15.266 2.994-5.323 6.099-10.586 9.2-15.85 2.681-4.553 5.425-9.074 8.146-13.606.125-.209.285-.395.364-.507 26.107 12.49 51.755 25.773 78.486 37.227Zm-33.039 50.217 32.484-50.087c-26.523-11.296-52.013-24.337-77.839-36.92-1.598 2.653-3.244 5.334-4.835 8.035-3.661 6.22-7.364 12.415-10.932 18.686-3.322 5.835-6.491 11.758-9.749 17.632-.347.622-.408 1.058.265 1.498 3.618 2.365 7.144 4.864 10.837 7.098 3.083 1.865 6.395 3.356 9.531 5.144 4.595 2.617 9.117 5.359 13.681 8.035 3.731 2.187 7.457 4.385 11.215 6.525 8.441 4.805 16.902 9.575 25.342 14.354Z"/><path stroke-width=".548" d="m327.662 169.057 32.484-50.087c-26.523-11.296-52.013-24.337-77.839-36.92-1.598 2.653-3.244 5.334-4.835 8.035-3.661 6.22-7.364 12.415-10.932 18.686-3.322 5.835-6.491 11.758-9.749 17.632-.347.622-.408 1.058.265 1.498 3.618 2.365 7.144 4.864 10.837 7.098 3.083 1.865 6.395 3.356 9.531 5.144 4.595 2.617 9.117 5.359 13.681 8.035 3.731 2.187 7.457 4.385 11.215 6.525 8.441 4.805 16.902 9.575 25.342 14.354Z"/><path fill="#000" stroke-width=".548" d="M319.115 98.376c-.905.284-1.766-.182-1.916-1.058-.143-.818.268-1.37.964-1.676a1.496 1.496 0 0 1 1.192.027c.361.174.632.499.761.912.244.807-.126 1.448-1.05 1.815.364-.514.996-.943.635-1.695l.012.047c.045-.792-.459-1.03-1.012-.948-.379.057-1.044.475-1.076.735-.045.573.091 1.118.384 1.544.187.265.725.209 1.106.297ZM312.318 178.545c-.376.256-.75.677-1.13.737-1.476.229-2.955.344-4.535.513l-.015-1.054 5.5-.699.18.503ZM320.865 177.784c.044-.945.332-1.468 1.474-1.295.988.149 1.988.12 2.975.17.07.015.137.04.199.075-.106 1.27-2.115 1.742-4.648 1.05Zm4.134-.585c-2.651-.613-3.516-.502-3.614.435 1.237-.112 2.534.229 3.614-.435ZM317.636 177.317c-.334 1.309-1.52 1.795-3.775 1.465.13-.418.182-1.097.414-1.209a7.86 7.86 0 0 1 2.264-.684c.337-.055.681.249 1.097.428Zm-.471.733-.025-.372c-2.014-.203-2.546-.051-2.74.968l2.765-.596ZM327.963 176.475c.191.67.507 1.22.357 1.346-.36.273-.839.41-1.354.387-.161-.009-.667-.885-.543-1.044.244-.311.822-.397 1.54-.689ZM302.608 179.259c-.619.002-1.017.086-1.378-.032-.185-.062-.314-.488-.467-.75.384-.016.763-.091 1.157-.016.152.022.339.379.688.798Z"/><path fill="#000" stroke-width=".548" d="M319.675 97.038c-.411.444-.78 1.01-1.253 1.277-.219.123-.738-.26-.937-.57-.122-.2.019-.916.183-1.009.409-.22.851-.308 1.269-.25.29.042.503.394.752.61l-.014-.058Zm-2.042-.055c.244.518.319.967.562 1.093.155.077.708-.276.806-.528.098-.253-.075-.757-.284-.893-.174-.113-.56.16-1.084.328Z"/></g><g opacity=".2"><path fill="#000" stroke-width=".761" d="m69.004 142.136 19.497-6.565 15.417 13.587-4.08 20.152-19.495 6.565-15.417-13.587 4.078-20.152Z"/><path stroke-miterlimit="10" stroke-width="1.047" d="m90.278 105.014-54.223 35.661a5.985 5.985 0 0 0-1.684 8.35l36.154 53.895a6.118 6.118 0 0 0 8.426 1.7l54.224-35.661a5.983 5.983 0 0 0 1.684-8.349l-36.155-53.896a6.118 6.118 0 0 0-8.425-1.7Z"/><path stroke-miterlimit="10" stroke-width=".262" d="M91.186 107.39 36.97 143.046a3.517 3.517 0 0 0-.99 4.906l36.15 53.888a3.594 3.594 0 0 0 4.951.999l54.216-35.656a3.516 3.516 0 0 0 .989-4.906l-36.15-53.888a3.596 3.596 0 0 0-4.95-.999Z"/></g></g></svg>
