<svg xmlns="http://www.w3.org/2000/svg" width="25" height="24" fill="none" viewBox="0 0 25 24"><path fill="#000" d="M23.765 8.406a.574.574 0 0 1-.023.025l-13.7 13.775C8.872 23.384 7.482 24 6.005 24c-.112 0-.225-.003-.338-.01-1.41-.09-2.778-.733-3.853-1.813C.74 21.097.1 19.72.011 18.302c-.1-1.61.513-3.132 1.774-4.4L15.439.172c.23-.23.6-.23.829 0a.591.591 0 0 1 0 .834L2.613 14.736c-2.247 2.26-1.56 5.01.03 6.607 1.589 1.599 4.323 2.29 6.57.03L22.903 7.608c1.503-1.704.994-3.656-.18-4.836-1.173-1.18-3.114-1.692-4.81-.18l-8.745 8.794c-1.155 1.161-.824 2.534.017 3.379.84.845 2.205 1.178 3.36.016l7.57-7.61c.228-.23.599-.23.828 0a.592.592 0 0 1 0 .833l-7.569 7.61c-1.642 1.651-3.767 1.242-5.018-.016-1.25-1.258-1.658-3.395-.016-5.046l8.757-8.805a.622.622 0 0 1 .024-.023C18.133.815 19.325.391 20.566.5c1.097.095 2.157.607 2.985 1.44.829.833 1.337 1.899 1.433 3.002.107 1.248-.314 2.446-1.219 3.464Z"/></svg>
