<svg xmlns="http://www.w3.org/2000/svg" width="352" height="211" fill="none" viewBox="0 0 352 211"><path fill="url(#a)" stroke="#1D1D1B" stroke-miterlimit="10" stroke-width="1.6" d="M324.37 210H27.63c0-9.798-2.805-19.195-7.8-26.124-4.994-6.928-11.767-10.82-18.83-10.82V37.944c7.063 0 13.836-3.892 18.83-10.82 4.995-6.929 7.8-16.326 7.8-26.124h296.74c0 9.798 2.805 19.195 7.799 26.124 4.995 6.928 11.768 10.82 18.831 10.82v135.112c-7.063 0-13.836 3.892-18.831 10.82-4.994 6.929-7.799 16.326-7.799 26.124Z"/><defs><linearGradient id="a" x1="-19.23" x2="432.101" y1="1" y2="-45.096" gradientUnits="userSpaceOnUse"><stop stop-color="#D6FFBB"/><stop offset="1" stop-color="#5869DD"/></linearGradient></defs></svg>
