<svg xmlns="http://www.w3.org/2000/svg" width="620" height="269" fill="none" viewBox="0 0 620 269"><path fill="url(#a)" stroke="#1D1D1B" stroke-miterlimit="10" stroke-width="2.816" d="M571.13 267H48.87a46.83 46.83 0 0 0-13.728-33.123A46.882 46.882 0 0 0 2 220.157V48.843a46.883 46.883 0 0 0 33.142-13.72A46.83 46.83 0 0 0 48.87 2h522.26a46.83 46.83 0 0 0 13.728 33.123A46.883 46.883 0 0 0 618 48.843v171.314a46.882 46.882 0 0 0-33.142 13.72A46.828 46.828 0 0 0 571.13 267Z"/><defs><linearGradient id="a" x1="-33.604" x2="753.209" y1="2" y2="-109.546" gradientUnits="userSpaceOnUse"><stop stop-color="#D6FFBB"/><stop offset="1" stop-color="#5869DD"/></linearGradient></defs></svg>
