<svg xmlns="http://www.w3.org/2000/svg" width="287" height="281" fill="none" viewBox="0 0 287 281"><path fill="#000" d="m36.529 280.524-4.06-7.26 4.06 7.26ZM28.38 266.015l-4.037-7.265a.046.046 0 0 1-.012-.031c0-.011.004-.022.012-.03a.03.03 0 0 1 .014-.011.033.033 0 0 1 .017-.004c.006 0 .011.001.017.004a.03.03 0 0 1 .013.011l4.01 7.293a.033.033 0 0 1 .006.019.036.036 0 0 1-.006.02c-.005.003-.011.004-.017.003a.026.026 0 0 1-.016-.009ZM20.407 251.424l-3.816-7.388a.075.075 0 0 1-.005-.059.078.078 0 0 1 .038-.046.076.076 0 0 1 .03-.009c.01-.001.02 0 .03.004.01.003.019.008.027.014a.086.086 0 0 1 .019.024l3.782 7.399c.008.015.01.033.004.05a.071.071 0 0 1-.031.039.072.072 0 0 1-.044-.001.065.065 0 0 1-.034-.027ZM12.94 236.565l-3.444-7.576a.117.117 0 0 1 .055-.15.121.121 0 0 1 .086-.002c.028.011.05.031.064.058l3.41 7.581a.095.095 0 0 1 .01.036.093.093 0 0 1-.007.037.096.096 0 0 1-.02.03.08.08 0 0 1-.032.019.088.088 0 0 1-.068.007.092.092 0 0 1-.054-.04ZM6.351 221.28l-2.773-7.854a.132.132 0 0 1 .084-.177.145.145 0 0 1 .108.004.146.146 0 0 1 .075.079l2.773 7.848a.127.127 0 0 1-.006.096.131.131 0 0 1-.072.065.126.126 0 0 1-.11.018.131.131 0 0 1-.049-.03.127.127 0 0 1-.03-.049ZM1.36 205.395A61.478 61.478 0 0 1 0 197.187a.169.169 0 0 1 .04-.127.188.188 0 0 1 .051-.043.182.182 0 0 1 .065-.019.182.182 0 0 1 .189.161 60.262 60.262 0 0 0 1.303 8.192.16.16 0 0 1-.122.188.165.165 0 0 1-.166-.144ZM.25 188.828a17.26 17.26 0 0 1 3.178-7.71.2.2 0 0 1 .134-.076.19.19 0 0 1 .08.007.206.206 0 0 1 .109.319 16.897 16.897 0 0 0-3.157 7.498.183.183 0 0 1-.216.156.195.195 0 0 1-.128-.194ZM10.177 176.287a26.37 26.37 0 0 1 8.225-1.459.23.23 0 0 1 .168.061.234.234 0 0 1 .076.161.226.226 0 0 1-.06.172.235.235 0 0 1-.076.054.236.236 0 0 1-.091.018 26.192 26.192 0 0 0-8.092 1.403.22.22 0 0 1-.283-.127.222.222 0 0 1 .133-.283ZM26.745 175.305c2.773.372 5.491.91 8.198 1.542a.26.26 0 0 1 .167.119.266.266 0 0 1-.01.298.264.264 0 0 1-.279.104c-2.696-.643-5.408-1.186-8.142-1.564a.239.239 0 0 1-.094-.031.244.244 0 0 1-.123-.251.251.251 0 0 1 .096-.168.245.245 0 0 1 .187-.049ZM43.018 178.883l8.003 2.291a.28.28 0 0 1 .175.138.295.295 0 0 1 .025.222.288.288 0 0 1-.355.2l-7.992-2.296a.277.277 0 0 1-.189-.344.272.272 0 0 1 .333-.211ZM58.959 183.693l7.848 2.729a.309.309 0 0 1 .034.568.29.29 0 0 1-.116.03.296.296 0 0 1-.118-.016l-7.842-2.745a.322.322 0 0 1-.101-.06.295.295 0 0 1-.082-.323.297.297 0 0 1 .262-.2.298.298 0 0 1 .115.017ZM74.626 189.334l7.765 3.056a.306.306 0 0 1 .18.169.32.32 0 0 1-.065.354.321.321 0 0 1-.354.076l-7.753-3.067a.308.308 0 0 1-.174-.166.307.307 0 0 1-.004-.239.308.308 0 0 1 .284-.204.313.313 0 0 1 .121.021ZM90.062 195.565l7.654 3.283a.345.345 0 0 1 .008.656.348.348 0 0 1-.28-.029l-7.637-3.295a.332.332 0 0 1 .26-.61l-.005-.005ZM105.33 202.176l7.593 3.405a.362.362 0 0 1-.017.668.364.364 0 0 1-.277-.008l-7.581-3.422a.351.351 0 0 1-.175-.463.363.363 0 0 1 .079-.111.359.359 0 0 1 .251-.094.358.358 0 0 1 .133.03l-.006-.005ZM120.499 209.05l7.57 3.45a.367.367 0 0 1 .197.211.363.363 0 0 1-.014.288.364.364 0 0 1-.21.198.374.374 0 0 1-.289-.009l-7.559-3.466a.375.375 0 0 1-.197-.208.38.38 0 0 1 .097-.403.373.373 0 0 1 .123-.076.383.383 0 0 1 .142-.021.376.376 0 0 1 .14.036ZM135.641 215.938l7.592 3.4a.4.4 0 0 1 .208.22.395.395 0 0 1-.529.501l-7.582-3.422a.39.39 0 0 1-.201-.214.371.371 0 0 1-.024-.148.367.367 0 0 1 .034-.145.388.388 0 0 1 .507-.192h-.005ZM150.765 222.909l7.427 3.76a.418.418 0 0 1-.062.762.427.427 0 0 1-.316-.024l-7.404-3.777a.408.408 0 0 1-.177-.555.396.396 0 0 1 .532-.166ZM165.579 230.497l7.399 3.793a.435.435 0 0 1 .189.583.436.436 0 0 1-.583.188l-7.398-3.81a.425.425 0 0 1-.232-.244.42.42 0 0 1 .614-.505l.011-.005ZM180.426 237.973l7.538 3.495a.448.448 0 0 1 .222.593.456.456 0 0 1-.599.216l-7.543-3.494a.438.438 0 0 1-.214-.585.44.44 0 0 1 .585-.214l.011-.011ZM195.618 244.674l7.803 2.812h.028a.455.455 0 0 1 .305.414.465.465 0 0 1-.621.462l-7.843-2.851a.448.448 0 0 1-.289-.589.46.46 0 0 1 .243-.26.46.46 0 0 1 .357-.005l.017.017ZM211.386 249.747a75.122 75.122 0 0 0 8.125 1.492.474.474 0 0 1 .41.527.475.475 0 0 1-.527.411 75.096 75.096 0 0 1-8.23-1.515.468.468 0 0 1-.344-.554.455.455 0 0 1 .206-.301.472.472 0 0 1 .36-.06ZM227.748 251.665c1.37-.039 2.74-.133 4.104-.3a17.825 17.825 0 0 0 3.943-.893.482.482 0 0 1 .657.274.489.489 0 0 1-.026.388.49.49 0 0 1-.303.242 19.018 19.018 0 0 1-4.16.938 45.43 45.43 0 0 1-4.193.305.474.474 0 0 1-.337-.814c.089-.09.21-.14.337-.14h-.022ZM241.341 245.244c.419-1.268.618-2.598.588-3.932a20.74 20.74 0 0 0-.477-4.027.481.481 0 0 1 .371-.577.5.5 0 0 1 .366.067.49.49 0 0 1 .211.305c.304 1.387.469 2.801.494 4.221a12.476 12.476 0 0 1-.649 4.259.483.483 0 1 1-.904-.322v.006ZM238.851 229.498a84.845 84.845 0 0 0-3.716-7.387.489.489 0 0 1 .367-.728.492.492 0 0 1 .487.245 82.313 82.313 0 0 1 3.755 7.482.49.49 0 0 1-.893.388ZM230.842 215.019l-4.686-6.844a.502.502 0 0 1 .821-.555l4.708 6.888a.493.493 0 0 1-.815.555l-.028-.044ZM221.314 201.407l-4.759-6.827a.505.505 0 0 1-.119-.393.5.5 0 0 1 .94-.162l4.725 6.805a.494.494 0 0 1 .064.599.498.498 0 0 1-.879-.044l.028.022ZM212.023 187.559a104.951 104.951 0 0 1-4.055-7.31.51.51 0 0 1 .618-.705.515.515 0 0 1 .292.256 104.657 104.657 0 0 0 4.01 7.238.507.507 0 0 1-.554.751.504.504 0 0 1-.311-.23ZM204.657 172.556a46.064 46.064 0 0 1-2.113-8.137.516.516 0 0 1 1.021-.161 44.438 44.438 0 0 0 2.058 7.97.512.512 0 1 1-.966.344v-.016ZM202.405 155.95a10.897 10.897 0 0 1 1.664-4.004 10.536 10.536 0 0 1 3.178-2.962.523.523 0 0 1 .555.887 9.49 9.49 0 0 0-2.868 2.668 9.748 9.748 0 0 0-1.514 3.622.521.521 0 0 1-.613.402.521.521 0 0 1-.402-.613ZM215.384 146.551a45.71 45.71 0 0 1 8.403 0 .527.527 0 0 1-.083 1.048 45.722 45.722 0 0 0-8.215-.028.522.522 0 0 1-.105-1.037v.017ZM232.084 147.704l8.164 1.775a.548.548 0 0 1 .462.189.558.558 0 0 1-.443.918.559.559 0 0 1-.246-.07h-.028l-8.097-1.764h-.034a.507.507 0 0 1-.334-.228.515.515 0 0 1-.071-.398.555.555 0 0 1 .627-.422ZM248.295 151.618c1.337.361 2.662.727 3.999 1.076l4.043 1.004a.553.553 0 0 1 .394.649.553.553 0 0 1-.649.394l-4.032-.999c-1.342-.349-2.69-.726-4.032-1.109a.56.56 0 0 1-.253-.621.554.554 0 0 1 .53-.41v.016ZM264.392 155.822l8.02 2.252a.56.56 0 0 1 .285.645.556.556 0 0 1-.579.403l-7.998-2.258a.547.547 0 0 1-.508-.701.547.547 0 0 1 .559-.407.555.555 0 0 1 .238.066h-.017ZM280.397 160.403l7.981 2.363a.555.555 0 0 1 .366.688.553.553 0 0 1-.682.366l-7.97-2.368a.556.556 0 0 1-.062-.957.556.556 0 0 1 .367-.092Z"/></svg>
