<svg xmlns="http://www.w3.org/2000/svg" width="684" height="342" fill="none"><path fill="#000" d="M15.414 154.197a11.772 11.772 0 0 0 4.152 6.082 29.653 29.653 0 0 0 6.377 3.924.073.073 0 0 1 .022.05.068.068 0 0 1-.02.05.08.08 0 0 1-.11.002 29.647 29.647 0 0 1-6.358-3.925 11.802 11.802 0 0 1-4.063-6.183ZM40.17 168.865c4.853 1.173 9.774 2.064 14.695 2.936a.23.23 0 0 1 .193.268.233.233 0 0 1-.096.157.216.216 0 0 1-.087.037.215.215 0 0 1-.094-.001c-4.912-.942-9.834-1.884-14.688-3.096a.162.162 0 0 1-.056-.025.148.148 0 0 1-.056-.164.141.141 0 0 1 .067-.102.155.155 0 0 1 .06-.019.132.132 0 0 1 .061.009ZM99.43 176.864c4.999-.059 9.998-.198 14.944-.597a.528.528 0 0 1 .44.865.531.531 0 0 1-.358.184c-5.002.379-10.001.542-14.995.488a.469.469 0 0 1-.334-.138.456.456 0 0 1-.132-.337.462.462 0 0 1 .435-.465ZM129.204 174.432a152.025 152.025 0 0 0 14.613-3.173.62.62 0 0 1 .691.91.622.622 0 0 1-.376.286 165.434 165.434 0 0 1-14.735 3.085.588.588 0 0 1-.225-.008.586.586 0 0 1-.356-.262.59.59 0 0 1-.075-.212.571.571 0 0 1 .463-.626ZM158.043 166.83a141.925 141.925 0 0 0 13.691-5.942.707.707 0 0 1 .954.308.712.712 0 0 1-.318 1.004 143.238 143.238 0 0 1-13.861 5.925.673.673 0 0 1-.855-.4.664.664 0 0 1 .155-.756.67.67 0 0 1 .234-.139ZM184.484 153.157c4.067-2.859 7.93-5.965 11.732-9.22a.787.787 0 0 1 .878-.106.772.772 0 0 1 .243.193.79.79 0 0 1-.086 1.121 149.909 149.909 0 0 1-11.892 9.241.748.748 0 0 1-1.002-.188.75.75 0 0 1 .127-1.041ZM207.189 133.806l10.605-10.587a.858.858 0 0 1 .931-.198.853.853 0 0 1 .279.184.856.856 0 0 1 .015 1.21l-10.656 10.587a.852.852 0 0 1-1.19.014.848.848 0 0 1-.014-1.19l.03-.02ZM228.365 112.543l10.878-10.379a.886.886 0 0 1 .969-.205.868.868 0 0 1 .291.19.868.868 0 0 1 .243.632.869.869 0 0 1-.278.618l-10.879 10.3a.86.86 0 0 1-1.23-.036.863.863 0 0 1 .006-1.12ZM251.359 93.07a92.002 92.002 0 0 1 13.52-6.81.905.905 0 0 1 .992.198c.084.085.15.187.194.298a.918.918 0 0 1 .002.701.913.913 0 0 1-.498.495 89.91 89.91 0 0 0-13.262 6.657.907.907 0 0 1-1.35-.983.9.9 0 0 1 .402-.556ZM279.214 81.49c4.865-1.287 9.803-2.306 14.763-3.174a.94.94 0 0 1 1.079.777.94.94 0 0 1-.777 1.09c-4.911.797-9.789 1.795-14.585 3.062a.928.928 0 0 1-1.138-.667.924.924 0 0 1 .658-1.088ZM308.915 76.449c2.497-.24 4.995-.44 7.493-.619l7.484-.559a1 1 0 0 1 1.011.898.997.997 0 0 1-.898 1.011l-7.475.539c-2.491.17-4.976.369-7.453.598a1.001 1.001 0 0 1-1.01-.858.997.997 0 0 1 .848-1.01ZM338.894 74.474l14.996-.468a1 1 0 1 1 .023 2l-14.995.457a1 1 0 0 1-1.012-.988.998.998 0 0 1 .988-1.001ZM368.93 73.838l15.002.053a1 1 0 0 1 1.011.988 1.001 1.001 0 0 1-.988.962l-15.002-.023a1 1 0 0 1-.023-2v.02ZM398.944 74.133l15.005.372a.924.924 0 0 1 .668.3.932.932 0 0 1 .244.69.919.919 0 0 1-.082.364.915.915 0 0 1-.538.496.928.928 0 0 1-.37.051l-15.005-.342a1 1 0 0 1-.921-.99.937.937 0 0 1 .989-.931l.01-.01ZM428.945 74.967l15.007.503a.905.905 0 0 1 .83.626.898.898 0 0 1 .042.364.909.909 0 0 1-.99.881l-15.006-.482a.918.918 0 0 1-.892-.99.915.915 0 0 1 .623-.845.914.914 0 0 1 .366-.046l.02-.01ZM458.929 75.972l15.006.453a.873.873 0 0 1 .861.89.876.876 0 0 1-.275.62.887.887 0 0 1-.635.24l-15.006-.422a.875.875 0 0 1-.805-.569.884.884 0 0 1-.056-.341.882.882 0 0 1 .274-.624.894.894 0 0 1 .636-.247ZM488.902 76.768l15.003.212a.85.85 0 0 1 .831.86.854.854 0 0 1-.861.83l-15.003-.172a.87.87 0 0 1-.85-.87.867.867 0 0 1 .87-.86h.01ZM518.876 77.014l7.489-.089 7.479-.168a.77.77 0 0 1 .779.75.747.747 0 0 1-.45.716.751.751 0 0 1-.291.063l-7.489.179c-2.499.09-4.999.129-7.508.149a.811.811 0 0 1-.82-.8.818.818 0 0 1 .81-.82l.001.02ZM548.794 75.89l14.904-1.447a.68.68 0 1 1 .126 1.35l-14.983 1.536a.72.72 0 0 1-.797-.64.721.721 0 0 1 .64-.798l.11-.001ZM578.484 72.348l14.697-2.844a.6.6 0 0 1 .284 1.166l-14.736 2.945a.646.646 0 1 1-.245-1.267ZM607.709 65.802a193.435 193.435 0 0 0 14.195-4.729.501.501 0 0 1 .351.936 189.203 189.203 0 0 1-14.244 4.83.53.53 0 0 1-.674-.363.543.543 0 0 1 .044-.415.55.55 0 0 1 .328-.26ZM635.627 55.17a117.079 117.079 0 0 0 12.973-7.413.342.342 0 0 1 .472.094.35.35 0 0 1-.085.471 119.618 119.618 0 0 1-12.981 7.604.42.42 0 0 1-.509-.646.412.412 0 0 1 .13-.1v-.01ZM660.382 38.546a75.234 75.234 0 0 0 9.919-11.168.18.18 0 0 1 .25-.003.194.194 0 0 1 .053.13.186.186 0 0 1-.05.13 75.42 75.42 0 0 1-9.867 11.328.264.264 0 0 1-.444-.192.265.265 0 0 1 .08-.184l.059-.04ZM677.607 14.35a67.366 67.366 0 0 0 4.2-14.35 67.319 67.319 0 0 1-3.999 14.428.11.11 0 0 1-.022.034.105.105 0 0 1-.113.023.1.1 0 0 1-.033-.022.095.095 0 0 1-.023-.033.106.106 0 0 1-.008-.04c0-.013.003-.027.008-.04h-.01Z"/><path fill="#000" fill-rule="evenodd" d="m178.557 304.203-18.218-70.248-141.05 36.58 18.218 70.248 141.05-36.58Z" clip-rule="evenodd"/><path stroke="#000" stroke-width="1.3" d="m160.339 233.955-18.219-70.248-141.05 36.58 18.219 70.248m141.05-36.58 18.218 70.248-141.05 36.58-18.218-70.248m141.05-36.58-141.05 36.58"/><path fill="#F1EFED" stroke="#000" stroke-width="1.3" d="m3.633 195.222 141.05-36.58 36.437 140.496-141.05 36.58z"/><path fill="#000" stroke="#000" stroke-width="1.3" d="m158.48 268.087.63-.163-.164-.629-12.146-46.836-.163-.629-.63.163-125.129 32.451-.63.163.164.63 12.147 46.836.163.629.629-.163 125.129-32.452Z"/><path fill="url(#a)" stroke="#000" stroke-width="1.3" d="M15.312 201.793h127.969v95.471H15.312z" transform="rotate(-14.539 15.312 201.793)"/><defs><linearGradient id="a" x1="172.537" x2="-17.667" y1="131.549" y2="324.276" gradientUnits="userSpaceOnUse"><stop stop-color="#5869DD"/><stop offset="1" stop-color="#5869DD"/></linearGradient></defs></svg>
