<svg xmlns="http://www.w3.org/2000/svg" width="26" height="50" fill="none"><path fill="url(#a)" d="M24.087 3.879 4.27 2.359 2.553 24.757C9.569 22.27 13.77 21.03 18.85 20.842a42.76 42.76 0 0 1 3.932.047l1.304-17.01Z"/><path fill="#5869DD" fill-rule="evenodd" d="m18.851 20.842-.197 2.567-.196 2.567-15.905-1.219C9.569 22.27 13.77 21.03 18.85 20.842Z" clip-rule="evenodd"/><path fill="url(#b)" d="m.836 47.155 19.817 1.519.999-13.024.105-1.374.613-8-3.912-.3-15.905-1.219L.836 47.155Z"/><path fill="#000" d="m18.458 25.976 3.912.3-.613 8 2.847.219-.18-10.643-5.77-.443-.196 2.567Z"/><path fill="#000" d="m24.604 34.495-2.847-.219-.105 1.374 2.952-1.155ZM4.27 2.36l19.817 1.519.085-1.012L4.324 1.192 4.27 2.36Z"/><path fill="#F1EFED" d="m24.087 3.879-1.304 17.01a42.76 42.76 0 0 0-3.932-.047l-.197 2.567 5.77.443-.337-19.973Z"/><path fill="#000" d="m20.653 48.674-.057.748.748.057.057-.748-.748-.057ZM.836 47.154l-.748-.057-.057.748.748.058.057-.748ZM22.37 26.277l.748.058.057-.748-.748-.058-.057.748Zm.413-5.387-.04.75.732.04.056-.732-.748-.058Zm1.821 13.606.274.698.485-.19-.009-.521-.75.013Zm-.432-31.628.748.063.063-.747-.748-.063-.063.747ZM4.324 1.192l.063-.747L3.611.38l-.036.777.75.035Zm-.112 1.915 19.818 1.52.114-1.496L4.327 1.61l-.115 1.496Zm16.499 44.82L.893 46.406.78 47.903l19.817 1.519.115-1.496Zm-19.127-.715L3.3 24.814 1.805 24.7.088 47.097l1.496.115ZM3.3 24.814 5.018 2.418l-1.496-.115L1.805 24.7l1.496.114ZM23.339 3.822l-1.304 17.011 1.496.115 1.304-17.011-1.496-.115Zm-.515 16.32a43.483 43.483 0 0 0-4-.048l.055 1.499a41.968 41.968 0 0 1 3.863.046l.082-1.497Zm-4-.048c-5.204.192-9.499 1.467-16.522 3.957l.502 1.414c7.009-2.485 11.118-3.689 16.075-3.872l-.056-1.5Zm3.603 5.435-3.912-.3-.115 1.496 3.913.3.114-1.496Zm-3.912-.3L2.61 24.01l-.114 1.496 15.904 1.22.115-1.497Zm3.107.99-.613 8.001 1.496.115.613-8-1.496-.115Zm3.04 7.529-2.848-.218-.114 1.495 2.847.218.115-1.495Zm-6.559-12.962-.196 2.567 1.495.114.197-2.567-1.496-.114Zm-.196 2.567-.197 2.567 1.495.115.197-2.567-1.495-.115Zm5.43-19.46.338 19.972 1.5-.025-.338-19.973-1.5.025Zm.338 19.972.18 10.643 1.5-.025-.18-10.643-1.5.025Zm-5.078.293 5.77.442.115-1.495-5.77-.443-.115 1.496Zm2.412 10.062-.105 1.374 1.495.115.106-1.374-1.496-.115Zm-.105 1.374-.998 13.024 1.495.114.998-13.023-1.495-.115Zm3.427-1.797-2.953 1.156.547 1.397 2.953-1.156-.547-1.397Zm.503-29.854.086-1.012-1.495-.126-.085 1.012 1.494.126Zm-.599-1.822L4.387.445 4.261 1.94 24.11 3.614l.126-1.494Zm-20.66-.963-.054 1.167 1.498.07.054-1.167-1.498-.07Z"/><defs><linearGradient id="a" x1="-3.101" x2="28.663" y1="33.172" y2="22.888" gradientUnits="userSpaceOnUse"><stop stop-color="#D6FFBB"/><stop offset="1" stop-color="#5869DD"/></linearGradient><linearGradient id="b" x1="-3.101" x2="28.663" y1="33.172" y2="22.888" gradientUnits="userSpaceOnUse"><stop stop-color="#D6FFBB"/><stop offset="1" stop-color="#5869DD"/></linearGradient></defs></svg>
