<svg xmlns="http://www.w3.org/2000/svg" width="925" height="702" fill="none"><path fill="#000" d="m0 66.96 13.898-7.24L0 66.96ZM28.238 53.27l14.68-5.7a.112.112 0 0 1 .072.008c.023.01.04.027.05.049.01.021.013.045.006.068a.1.1 0 0 1-.043.055l-14.69 5.64a.075.075 0 0 1-.064.018.072.072 0 0 1-.053-.038.068.068 0 0 1 .021-.087c.01-.006.02-.01.032-.013h-.01ZM57.876 42.54l15.156-4.46a.177.177 0 0 1 .19.05.158.158 0 0 1 .032.06.162.162 0 0 1-.013.127.177.177 0 0 1-.103.083L57.97 42.77a.143.143 0 0 1-.152-.035.128.128 0 0 1-.028-.045.134.134 0 0 1 .016-.088.146.146 0 0 1 .069-.062ZM88.345 34.15l15.41-3.58a.267.267 0 0 1 .184.03.244.244 0 0 1 .113.14.23.23 0 0 1-.028.176.241.241 0 0 1-.152.104l-15.421 3.5a.211.211 0 0 1-.16-.017.185.185 0 0 1-.071-.266.195.195 0 0 1 .125-.087ZM119.23 27.28l15.526-3.14a.334.334 0 0 1 .235.044c.069.043.118.11.135.186a.297.297 0 0 1-.045.226.33.33 0 0 1-.198.134l-15.526 3.06a.3.3 0 0 1-.213-.035.273.273 0 0 1-.126-.165.25.25 0 0 1 .113-.27.281.281 0 0 1 .099-.04ZM150.283 21.08l15.516-3.11c.1-.017.203.002.287.054a.371.371 0 0 1 .174.37.33.33 0 0 1-.055.133.367.367 0 0 1-.247.153l-15.537 3a.368.368 0 0 1-.261-.045.334.334 0 0 1-.152-.205.333.333 0 0 1 .071-.222.359.359 0 0 1 .204-.127ZM181.327 14.87l15.558-3a.477.477 0 0 1 .345.064.44.44 0 0 1 .194.276.395.395 0 0 1-.067.323.441.441 0 0 1-.292.177l-15.569 2.94c-.11.021-.223 0-.316-.058a.4.4 0 0 1-.181-.252.393.393 0 0 1 .065-.296.434.434 0 0 1 .263-.174ZM212.484 9.16l15.664-2.49a.55.55 0 0 1 .39.081.495.495 0 0 1 .213.319.487.487 0 0 1-.092.373.545.545 0 0 1-.342.207l-15.653 2.43a.522.522 0 0 1-.371-.083.454.454 0 0 1-.119-.648.487.487 0 0 1 .31-.19ZM243.855 4.52l15.78-1.75a.6.6 0 0 1 .416.109.53.53 0 0 1 .213.356.503.503 0 0 1-.115.393.569.569 0 0 1-.377.202l-15.769 1.71a.554.554 0 0 1-.345-.135.49.49 0 0 1-.083-.657.536.536 0 0 1 .301-.208l-.021-.02ZM275.46 1.49l15.865-.74a.624.624 0 0 1 .435.146.55.55 0 0 1 .045.806.618.618 0 0 1-.417.188l-15.865.7a.599.599 0 0 1-.411-.161.536.536 0 0 1-.171-.39c0-.145.062-.285.171-.388a.599.599 0 0 1 .411-.161h-.063ZM307.21.61h15.865c.171 0 .335.065.456.179.121.114.189.27.189.431a.594.594 0 0 1-.189.432.664.664 0 0 1-.456.178H307.21a.641.641 0 0 1-.441-.172.575.575 0 0 1-.183-.418c0-.156.066-.306.183-.417a.641.641 0 0 1 .441-.173V.61ZM338.92.37l15.865-.22a.71.71 0 0 1 .486.18.63.63 0 0 1 .212.45.64.64 0 0 1-.197.46.715.715 0 0 1-.479.2l-15.865.18a.705.705 0 0 1-.525-.152.615.615 0 0 1-.226-.473.615.615 0 0 1 .226-.472.682.682 0 0 1 .525-.153h-.022ZM370.657 0h15.865c.191 0 .374.072.509.2.135.127.211.3.211.48s-.076.353-.211.48a.742.742 0 0 1-.509.2h-15.865a.724.724 0 0 1-.444-.221.648.648 0 0 1-.178-.444c0-.164.063-.321.178-.444a.724.724 0 0 1 .444-.221V0ZM402.408.3l15.865.64a.783.783 0 0 1 .53.232c.136.14.209.327.2.518a.706.706 0 0 1-.245.5.79.79 0 0 1-.548.19l-15.865-.68a.747.747 0 0 1-.513-.23.687.687 0 0 1-.19-.505.65.65 0 0 1 .07-.266.745.745 0 0 1 .421-.36.779.779 0 0 1 .286-.04h-.011ZM434.128 2.08l15.801 1.67a.825.825 0 0 1 .535.284.739.739 0 0 1 .174.556.75.75 0 0 1-.298.51.836.836 0 0 1-.591.16l-15.727-1.7a.807.807 0 0 1-.293-.086.767.767 0 0 1-.234-.187.689.689 0 0 1-.16-.547.726.726 0 0 1 .261-.475.807.807 0 0 1 .532-.185ZM465.636 6.08l15.601 3.14a.84.84 0 0 1 .484.358.76.76 0 0 1 .1.574.798.798 0 0 1-.337.487.884.884 0 0 1-.597.141l-15.515-3.19h-.053a.82.82 0 0 1-.514-.337.735.735 0 0 1-.11-.583.771.771 0 0 1 .357-.485.857.857 0 0 1 .616-.105h-.032ZM496.521 13.3a219.01 219.01 0 0 1 14.987 5.11.877.877 0 0 1 .477.452.809.809 0 0 1 .01.638.869.869 0 0 1-.477.454.934.934 0 0 1-.676.006c-4.876-1.89-9.837-3.58-14.808-5.11a.85.85 0 0 1-.502-.404.775.775 0 0 1-.053-.62.829.829 0 0 1 .427-.476.906.906 0 0 1 .657-.05h-.042ZM526.009 24.66c4.728 2.29 9.36 4.77 13.855 7.45.1.06.187.138.255.23a.81.81 0 0 1 .026.946.88.88 0 0 1-.242.24.929.929 0 0 1-.673.143.928.928 0 0 1-.328-.119 163.125 163.125 0 0 0-13.75-7.38.864.864 0 0 1-.444-.494.81.81 0 0 1 .053-.646.862.862 0 0 1 .222-.272.944.944 0 0 1 1.026-.098ZM552.663 41.2c3.955 3.39 7.615 7 11.253 10.66a.84.84 0 0 1 .252.616.854.854 0 0 1-.284.604.918.918 0 0 1-.3.18.96.96 0 0 1-.99-.21c-3.628-3.63-7.255-7.25-11.137-10.58a.832.832 0 0 1-.242-.579.838.838 0 0 1 .235-.582.947.947 0 0 1 1.223-.109h-.01ZM575.041 62.46a70.079 70.079 0 0 0 12.512 8.86c.119.05.225.123.312.215a.844.844 0 0 1 .116 1.026.903.903 0 0 1-.257.272.963.963 0 0 1-.737.152.957.957 0 0 1-.354-.145 71.862 71.862 0 0 1-12.84-9.1.845.845 0 0 1-.27-.615c0-.23.097-.452.27-.615a.967.967 0 0 1 1.248-.05ZM601.939 77.08a85.045 85.045 0 0 0 15.4 2.72.96.96 0 0 1 .639.321.86.86 0 0 1-.127 1.259.983.983 0 0 1-.692.2 86.393 86.393 0 0 1-15.738-2.81.954.954 0 0 1-.33-.154.895.895 0 0 1-.24-.263.84.84 0 0 1 .087-.986.922.922 0 0 1 .283-.222.969.969 0 0 1 .718-.065ZM633.044 79.97a149.593 149.593 0 0 0 15.643-1.72c.243-.026.487.035.683.173.197.137.331.34.375.567a.863.863 0 0 1-.176.646.958.958 0 0 1-.596.354 150.455 150.455 0 0 1-15.865 1.73.992.992 0 0 1-.682-.225.89.89 0 0 1-.313-.615.875.875 0 0 1 .268-.636.977.977 0 0 1 .663-.274ZM664.128 75.08l15.199-4.12a1.02 1.02 0 0 1 .692.119c.207.12.36.308.427.528a.87.87 0 0 1-.062.663.953.953 0 0 1-.518.45l-15.315 4.14a1.009 1.009 0 0 1-.727-.082.952.952 0 0 1-.283-.229.88.88 0 0 1-.198-.666.862.862 0 0 1 .115-.335.92.92 0 0 1 .242-.268.982.982 0 0 1 .333-.16l.095-.04ZM694.325 66.22c1.248-.42 2.475-.87 3.712-1.3l3.713-1.3 7.403-2.61c.246-.07.511-.052.744.049.234.1.421.28.525.5a.883.883 0 0 1-.031.71.965.965 0 0 1-.55.48l-7.404 2.61-3.723 1.31c-1.248.43-2.475.88-3.733 1.29a1.027 1.027 0 0 1-.78.004.982.982 0 0 1-.326-.216.91.91 0 0 1-.206-.322.865.865 0 0 1 .057-.736.925.925 0 0 1 .254-.29 1 1 0 0 1 .355-.17l-.01-.01ZM724.003 55.66l14.903-5.2a1.041 1.041 0 0 1 1.122.21.929.929 0 0 1 .213.323.886.886 0 0 1-.043.746.955.955 0 0 1-.25.3 1.012 1.012 0 0 1-.355.18l-14.871 5.17a1.018 1.018 0 0 1-1.06-.24.905.905 0 0 1-.179-1.002.962.962 0 0 1 .52-.487ZM753.968 45.64l15.283-4.19a1.059 1.059 0 0 1 .799.044c.123.059.232.14.32.24a.914.914 0 0 1-.185 1.377c-.112.077-.239.13-.373.159h-.053l-15.188 4.15a1.059 1.059 0 0 1-.809-.038 1 1 0 0 1-.323-.243.93.93 0 0 1-.223-.736.958.958 0 0 1 .424-.652 1.03 1.03 0 0 1 .381-.151l-.053.04ZM784.787 38.2c5.245-.902 10.543-1.5 15.865-1.79.228.046.434.161.585.329a.962.962 0 0 1 .067 1.217 1.061 1.061 0 0 1-.546.384 139.36 139.36 0 0 0-15.633 1.74 1.103 1.103 0 0 1-1.332-.29.97.97 0 0 1-.195-.425.935.935 0 0 1 .03-.464.993.993 0 0 1 .247-.4c.115-.114.256-.2.413-.252.156-.053.324-.07.488-.049h.011ZM816.719 36.96l3.977.66c1.301.25 2.602.53 3.903.82 2.591.58 5.172 1.25 7.721 2 .214.112.381.29.471.504a.946.946 0 0 1 .027.673c-.073.22-.225.41-.43.536a1.106 1.106 0 0 1-.692.157c-2.496-.75-5.024-1.4-7.573-2-1.28-.29-2.559-.56-3.85-.81l-3.839-.64h-.064a1.108 1.108 0 0 1-.471-.067 1.064 1.064 0 0 1-.393-.256.99.99 0 0 1-.233-.394.942.942 0 0 1-.027-.45.972.972 0 0 1 .185-.416c.094-.123.217-.224.36-.296a1.102 1.102 0 0 1 .928-.03v.01ZM847.125 46.27a62.75 62.75 0 0 1 13.084 8.85c.127.08.234.187.314.31a.956.956 0 0 1-.133 1.203 1.051 1.051 0 0 1-.374.244 1.112 1.112 0 0 1-.887-.04 1.04 1.04 0 0 1-.348-.277A60.587 60.587 0 0 0 846.089 48a.998.998 0 0 1-.377-.583.951.951 0 0 1 .108-.676c.118-.206.31-.366.541-.452.231-.087.486-.093.722-.02h.042ZM870.322 66.97a71.08 71.08 0 0 1 6.737 13.78.95.95 0 0 1-.05.763c-.123.239-.341.42-.606.507-.263.087-.552.071-.804-.043a1.023 1.023 0 0 1-.539-.567A69.163 69.163 0 0 0 868.524 68a.952.952 0 0 1-.119-.747c.065-.254.233-.474.468-.613a1.11 1.11 0 0 1 .796-.117c.272.062.506.223.653.447ZM881.195 95.36c.528 2.474.997 4.947 1.406 7.42.423 2.49.783 5 1.121 7.47a.96.96 0 0 1-.218.725 1.07 1.07 0 0 1-.691.375 1.104 1.104 0 0 1-.764-.202.994.994 0 0 1-.4-.648c-.328-2.45-.698-4.93-1.057-7.39-.36-2.46-.878-4.9-1.407-7.33a.99.99 0 0 1 .16-.766c.079-.11.18-.207.297-.281a1.118 1.118 0 0 1 .81-.153c.139.026.271.078.389.152s.219.17.298.28a.974.974 0 0 1 .161.368l-.105-.02ZM881.894 125.46a58.18 58.18 0 0 1-7.034 13.68 1.061 1.061 0 0 1-.645.417c-.264.056-.54.014-.772-.117a.998.998 0 0 1-.445-.614.957.957 0 0 1 .128-.736 56.986 56.986 0 0 0 6.801-13.23c.087-.245.271-.448.514-.567a1.11 1.11 0 0 1 .787-.073c.261.083.478.259.605.49a.95.95 0 0 1 .071.75h-.01ZM865.169 151.21c-3.501 3.8-7.202 7.41-11.031 10.9a1.029 1.029 0 0 1-.334.332 1.106 1.106 0 0 1-1.343-.146.984.984 0 0 1-.245-.395.93.93 0 0 1-.034-.456.976.976 0 0 1 .184-.424 1.07 1.07 0 0 1 .365-.301c3.787-3.46 7.404-7 10.884-10.78a1.105 1.105 0 0 1 1.293.061c.178.145.3.341.347.558a.945.945 0 0 1-.086.641v.01ZM842.397 172.24l-12.079 9.74a1.003 1.003 0 0 1-.344.214 1.055 1.055 0 0 1-.806-.029.991.991 0 0 1-.326-.238.933.933 0 0 1-.233-.73.92.92 0 0 1 .131-.369.987.987 0 0 1 .277-.288l12.047-9.72a1.106 1.106 0 0 1 1.428.1.966.966 0 0 1 .226.695.977.977 0 0 1-.332.655l.011-.03ZM817.449 190.93c-4.442 2.76-9.011 5.32-13.622 7.8a1.046 1.046 0 0 1-1.141-.036.95.95 0 0 1-.266-.285.888.888 0 0 1-.087-.741.921.921 0 0 1 .193-.334.987.987 0 0 1 .317-.234c4.59-2.47 9.117-5 13.506-7.75.219-.084.461-.092.685-.024a.999.999 0 0 1 .543.396.908.908 0 0 1 .147.633.93.93 0 0 1-.317.575h.042ZM798.93 223.99l-13.803 7.33a1.037 1.037 0 0 1-.741.082.986.986 0 0 1-.339-.163.947.947 0 0 1-.247-.274.882.882 0 0 1 .086-1.022.952.952 0 0 1 .289-.233l13.845-7.38c.226-.096.482-.108.717-.035a.984.984 0 0 1 .554.431.894.894 0 0 1 .104.671.941.941 0 0 1-.402.563l-.063.03ZM771.809 239.35a118.62 118.62 0 0 0-12.301 9.26 1.002 1.002 0 0 1-1.364-.05.89.89 0 0 1-.257-.656.89.89 0 0 1 .309-.634c3.944-3.4 8.12-6.55 12.502-9.43.211-.138.471-.192.724-.151a.992.992 0 0 1 .63.371c.147.2.204.447.158.687a.919.919 0 0 1-.401.593v.01ZM747.989 258.91l-11.317 10.44a.99.99 0 0 1-.676.273.991.991 0 0 1-.683-.258.885.885 0 0 1-.289-.64.881.881 0 0 1 .273-.645l11.37-10.5a.966.966 0 0 1 .313-.199 1.007 1.007 0 0 1 1.051.199.868.868 0 0 1 0 1.28l-.042.05ZM726.098 280.4a104.51 104.51 0 0 0-9.191 12.05.951.951 0 0 1-.581.398.998.998 0 0 1-.709-.098.905.905 0 0 1-.43-.547.834.834 0 0 1 .112-.673 105.274 105.274 0 0 1 9.35-12.27.962.962 0 0 1 .64-.321.98.98 0 0 1 .693.201.861.861 0 0 1 .127 1.26h-.011ZM710.159 305.8a44.036 44.036 0 0 0-2.613 14.45.834.834 0 0 1-.273.619.957.957 0 0 1-.657.251.944.944 0 0 1-.658-.255.854.854 0 0 1-.198-.287.801.801 0 0 1-.064-.338 45.62 45.62 0 0 1 2.697-15 .86.86 0 0 1 .176-.3.91.91 0 0 1 .286-.213.964.964 0 0 1 .712-.047.919.919 0 0 1 .539.44c.111.208.13.449.053.67v.01ZM709.639 334.82a53.545 53.545 0 0 0 6.346 13.45.827.827 0 0 1-.04.956.9.9 0 0 1-.262.229.95.95 0 0 1-1.012-.038.899.899 0 0 1-.241-.247 55.183 55.183 0 0 1-6.547-13.87.834.834 0 0 1 .103-.638.92.92 0 0 1 .539-.395.976.976 0 0 1 .679.064.887.887 0 0 1 .445.489h-.01ZM725.473 360.08a135.317 135.317 0 0 0 11.327 10.35.819.819 0 0 1 .085 1.2.918.918 0 0 1-.617.289.93.93 0 0 1-.652-.209 138.462 138.462 0 0 1-11.487-10.48.827.827 0 0 1 .115-1.156.938.938 0 0 1 .616-.222.939.939 0 0 1 .613.228ZM749.028 379.9l12.46 9.3a.799.799 0 0 1 .059 1.078.888.888 0 0 1-.515.306.927.927 0 0 1-.602-.084l-12.48-9.26a.83.83 0 0 1-.223-.529.819.819 0 0 1 .18-.543.902.902 0 0 1 .502-.314.945.945 0 0 1 .598.056l.021-.01ZM774.115 398.14l13.495 7.82a.804.804 0 0 1 .374.492.762.762 0 0 1-.099.598.796.796 0 0 1-.221.227.877.877 0 0 1-.931.033l-13.581-7.82a.826.826 0 0 1-.386-.505.782.782 0 0 1 .101-.615.818.818 0 0 1 .226-.232.891.891 0 0 1 .636-.141.88.88 0 0 1 .312.113l.074.03ZM801.192 413.85a95.139 95.139 0 0 1 12.639 9.25.732.732 0 0 1 .232.53.732.732 0 0 1-.232.53.828.828 0 0 1-.561.215.828.828 0 0 1-.56-.215 95.492 95.492 0 0 0-12.46-9.07.803.803 0 0 1-.248-.207.755.755 0 0 1-.14-.284.734.734 0 0 1 .114-.604.823.823 0 0 1 .544-.333.842.842 0 0 1 .629.148l.043.04ZM823.9 434.87a42.692 42.692 0 0 1 3.417 6.9c.465 1.2.867 2.41 1.226 3.63.36 1.22.646 2.44.974 3.66a.664.664 0 0 1-.083.54.716.716 0 0 1-.199.204.82.82 0 0 1-.564.132.786.786 0 0 1-.28-.094.722.722 0 0 1-.345-.442c-.317-1.2-.634-2.44-.973-3.62a41.529 41.529 0 0 0-4.516-10.17.707.707 0 0 1-.077-.557.707.707 0 0 1 .134-.256.756.756 0 0 1 .229-.187.792.792 0 0 1 1.057.26ZM833.343 463.61l3.692 14.61a.655.655 0 0 1-.115.484.721.721 0 0 1-.432.281.758.758 0 0 1-.519-.07.69.69 0 0 1-.331-.385l-3.722-14.57a.66.66 0 0 1 .085-.526.735.735 0 0 1 .454-.315.775.775 0 0 1 .556.082.696.696 0 0 1 .332.428v-.019ZM831.388 474.89l2.813 14.79a.62.62 0 0 1-.113.481.689.689 0 0 1-.942.162.638.638 0 0 1-.278-.413l-2.834-14.73a.63.63 0 0 1 .072-.534.69.69 0 0 1 .468-.306.738.738 0 0 1 .554.126.673.673 0 0 1 .188.21.618.618 0 0 1 .082.264l-.01-.05ZM836.254 504.59a197.95 197.95 0 0 1 1.057 15 .588.588 0 0 1-.17.434.657.657 0 0 1-.898.035.589.589 0 0 1-.201-.419c-.212-4.98-.596-9.953-1.153-14.92a.605.605 0 0 1 .15-.454.677.677 0 0 1 .442-.226.687.687 0 0 1 .48.135.612.612 0 0 1 .24.415h.053ZM837.397 534.631l-.497 7.51-.254 3.75c-.063 1.25-.254 2.5-.381 3.75a.569.569 0 0 1-.414.487.619.619 0 0 1-.636-.182.55.55 0 0 1-.134-.415c.116-1.24.306-2.47.37-3.72l.243-3.73.476-7.47a.57.57 0 0 1 .206-.4.63.63 0 0 1 .444-.145.628.628 0 0 1 .423.194.558.558 0 0 1 .154.42v-.049ZM833.345 564.44a120.918 120.918 0 0 1-4.823 14.35.547.547 0 0 1-.293.299.594.594 0 0 1-.431.016.555.555 0 0 1-.317-.278.506.506 0 0 1-.016-.407 120.14 120.14 0 0 0 4.738-14.24.564.564 0 0 1 .269-.336.617.617 0 0 1 .44-.064.577.577 0 0 1 .351.249.501.501 0 0 1 .061.411h.021ZM822.041 592.541a143.211 143.211 0 0 1-7.912 13 .476.476 0 0 1-.134.138.511.511 0 0 1-.379.081.507.507 0 0 1-.185-.07.48.48 0 0 1-.223-.299.452.452 0 0 1 .065-.36c2.82-4.22 5.425-8.554 7.816-13a.537.537 0 0 1 .308-.305.58.58 0 0 1 .446.019.53.53 0 0 1 .278.33.5.5 0 0 1-.08.415v.051ZM805.011 617.9c-3.222 4-6.611 7.854-10.164 11.56a.45.45 0 0 1-.711-.132.374.374 0 0 1 0-.315.422.422 0 0 1 .097-.133 188.68 188.68 0 0 0 10.059-11.55.489.489 0 0 1 .499-.166.468.468 0 0 1 .291.207.434.434 0 0 1 .052.341.44.44 0 0 1-.081.158l-.042.03ZM783.803 640.26a213.425 213.425 0 0 1-11.814 10 .394.394 0 0 1-.431.078.376.376 0 0 1-.196-.219.343.343 0 0 1-.011-.146.35.35 0 0 1 .162-.243 237.916 237.916 0 0 0 11.729-10.06.407.407 0 0 1 .288-.106.407.407 0 0 1 .283.116.37.37 0 0 1-.01.54v.04ZM759.49 659.57a256.208 256.208 0 0 1-13.105 8.51.312.312 0 0 1-.219.041.298.298 0 0 1-.183-.121.272.272 0 0 1 .085-.39 251.786 251.786 0 0 0 13.03-8.52.35.35 0 0 1 .246-.063.344.344 0 0 1 .22.123.307.307 0 0 1-.074.44v-.02ZM732.741 675.75c-4.633 2.42-9.347 4.7-14.141 6.84a.234.234 0 0 1-.087.019.236.236 0 0 1-.163-.057.224.224 0 0 1-.052-.067.215.215 0 0 1-.007-.164.22.22 0 0 1 .118-.121 254.413 254.413 0 0 0 14.078-6.89.282.282 0 0 1 .359.1c.017.029.028.06.031.093a.24.24 0 0 1-.057.184.268.268 0 0 1-.079.063ZM704.025 688.53a252.808 252.808 0 0 1-14.987 5 .161.161 0 0 1-.116-.014.146.146 0 0 1-.074-.086.148.148 0 0 1-.008-.059.146.146 0 0 1 .058-.103.179.179 0 0 1 .055-.028 232.791 232.791 0 0 0 14.924-5 .207.207 0 0 1 .149.001.177.177 0 0 1 .104.24.183.183 0 0 1-.105.099v-.05ZM673.733 697.4c-5.162 1.1-10.365 2-15.611 2.7a.103.103 0 0 1-.059-.021.093.093 0 0 1-.036-.049.062.062 0 0 1-.002-.033.069.069 0 0 1 .041-.05 195.538 195.538 0 0 0 15.669-2.787.147.147 0 0 1 .054.013.126.126 0 0 1 .066.082.102.102 0 0 1-.001.052.118.118 0 0 1-.067.081.125.125 0 0 1-.054.012Z"/><path fill="#000" fill-rule="evenodd" d="m728.434 245.452-31.61-92.313-185.355 63.469 31.61 92.313 185.355-63.469Z" clip-rule="evenodd"/><path fill="#000" d="m665.215 60.825-185.356 63.469 31.61 92.314 185.355-63.469-31.609-92.314Z"/><path stroke="#000" stroke-width="1.5" d="m696.824 153.139-31.609-92.314-185.356 63.469 31.61 92.314m185.355-63.469 31.61 92.313-185.355 63.469-31.61-92.313m185.355-63.469-185.355 63.469"/><path fill="#F1EFED" stroke="#000" stroke-width="1.5" d="m482.781 117.241 185.355-63.469 63.22 184.627L546 301.87z"/><path fill="#000" stroke="#000" stroke-width="1.5" d="m705.163 195.938.709-.243-.243-.71-20.832-60.838-.243-.71-.243-.709-20.832-60.839-.243-.71-.709.244-164.434 56.305-.71.243.243.709 20.832 60.839.243.709.243.71 20.833 60.838.242.71.71-.243 164.434-56.305Z"/><path fill="url(#a)" stroke="#000" stroke-width="1.5" d="M500.949 124.78h172.306v128.612H500.949z" transform="rotate(-18.902 500.949 124.78)"/><path fill="url(#b)" d="m607.852 49.09-16.058-2.661-3.007 18.148c5.902-1.526 9.418-2.235 13.577-2.024 1.015.051 2.068.157 3.204.32l2.284-13.784Z"/><path fill="#5869DD" fill-rule="evenodd" d="m602.364 62.553-.345 2.08-.345 2.08-12.887-2.136c5.902-1.526 9.418-2.235 13.577-2.024Z" clip-rule="evenodd"/><path fill="url(#c)" d="m585.78 82.726 16.058 2.66 1.748-10.552.185-1.114 1.074-6.482-3.171-.525-12.887-2.136-3.007 18.15Z"/><path fill="#000" d="m601.674 66.713 3.171.525-1.074 6.482 2.307.383.616-8.696-4.675-.774-.345 2.08ZM606.078 74.103l-2.307-.383-.185 1.114 2.492-.731ZM591.794 46.429l16.058 2.66.142-.819-16.072-2.79-.128.949Z"/><path fill="#F1EFED" d="m607.852 49.09-2.284 13.783a35.002 35.002 0 0 0-3.204-.32l-.345 2.08 4.675.774 1.158-16.318Z"/><path fill="#000" d="m601.838 85.387-.101.606.606.1.1-.606-.605-.1Zm-16.058-2.66-.606-.101-.101.606.606.1.101-.606Zm19.065-15.489.606.1.1-.605-.606-.1-.1.605Zm.723-4.365-.087.608.595.085.098-.593-.606-.1Zm.51 11.23.173.59.409-.121.03-.426-.612-.043Zm1.916-25.833.605.105.105-.605-.605-.105-.105.605Zm-16.072-2.79.105-.605-.628-.109-.086.632.609.082Zm-.229 1.555 16.058 2.66.201-1.212-16.058-2.66-.201 1.212Zm10.245 37.746-16.058-2.66-.201 1.211 16.058 2.66.201-1.211Zm-15.552-1.954 3.007-18.15-1.212-.2-3.007 18.149 1.212.2Zm3.007-18.15L592.4 46.53l-1.212-.2-3.007 18.148 1.212.2Zm17.853-15.688-2.284 13.784 1.212.2 2.284-13.783-1.212-.201Zm-1.591 13.276a35.628 35.628 0 0 0-3.26-.326l-.063 1.227c.994.05 2.029.155 3.149.315l.174-1.216Zm-3.26-.326c-4.259-.216-7.854.516-13.762 2.044l.307 1.189c5.897-1.525 9.335-2.212 13.392-2.006l.063-1.227Zm2.55 4.693-3.17-.525-.201 1.212 3.17.525.201-1.212Zm-3.17-.525-12.888-2.136-.201 1.212 12.888 2.136.201-1.212Zm2.464 1.03-1.074 6.483 1.211.2 1.075-6.482-1.212-.2Zm1.939 6.36-2.307-.382-.201 1.211 2.307.383.201-1.212Zm-4.42-11.045-.345 2.08 1.212.201.344-2.08-1.211-.2Zm-.345 2.08-.345 2.08 1.212.201.345-2.08-1.212-.2Zm5.826-15.486-1.157 16.318 1.225.087 1.157-16.318-1.225-.087Zm-1.157 16.318-.617 8.695 1.225.087.617-8.695-1.225-.087Zm-4.163-.126 4.675.775.201-1.212-4.676-.774-.2 1.212Zm1.246 8.382-.185 1.113 1.212.201.184-1.113-1.211-.201Zm-.185 1.113-1.748 10.553 1.211.201 1.749-10.553-1.212-.2Zm2.925-1.22-2.492.731.346 1.18 2.492-.732-.346-1.179Zm2.552-24.319.142-.819-1.21-.21-.143.82 1.211.21Zm-.358-1.529-16.072-2.79-.21 1.21 16.072 2.79.21-1.21Zm-16.786-2.267-.128.948 1.217.165.129-.948-1.218-.165Z"/><path fill="#000" fill-rule="evenodd" d="m738.188 172.385 23.51-68.658 137.858 47.205-23.509 68.659-137.859-47.206Z" clip-rule="evenodd"/><path stroke="#000" stroke-width="1.3" d="m761.698 103.727 23.51-68.659 137.858 47.205-23.51 68.659m-137.858-47.205-23.51 68.658 137.859 47.206 23.509-68.659m-137.858-47.205 137.858 47.205"/><path fill="#F1EFED" stroke="#000" stroke-width="1.3" d="M920.895 77.027 783.037 29.822l-47.02 137.317 137.858 47.205z"/><path fill="#000" stroke="#000" stroke-width="1.3" d="m756.955 134.902-.615-.211.21-.615L772.225 88.3l.211-.615.615.21 122.297 41.878.615.21-.21.615-15.675 45.777-.21.614-.615-.21-122.298-41.877Z"/><path fill="url(#d)" stroke="#000" stroke-width="1.3" d="M-.826.404h127.969v95.471H-.826z" transform="scale(-1 1) rotate(-18.902 -207.624 2768.62)"/><defs><linearGradient id="a" x1="495.174" x2="675.009" y1="101.868" y2="231.094" gradientUnits="userSpaceOnUse"><stop stop-color="#D6FFBB"/><stop offset="1" stop-color="#5869DD"/></linearGradient><linearGradient id="b" x1="583.57" x2="610.221" y1="71.037" y2="64.925" gradientUnits="userSpaceOnUse"><stop stop-color="#D6FFBB"/><stop offset="1" stop-color="#5869DD"/></linearGradient><linearGradient id="c" x1="583.57" x2="610.221" y1="71.037" y2="64.925" gradientUnits="userSpaceOnUse"><stop stop-color="#D6FFBB"/><stop offset="1" stop-color="#5869DD"/></linearGradient><linearGradient id="d" x1="158.018" x2="-32.187" y1="-69.778" y2="122.948" gradientUnits="userSpaceOnUse"><stop stop-color="#5869DD"/><stop offset="1" stop-color="#5869DD"/></linearGradient></defs></svg>
