<svg width="31" height="29" viewBox="0 0 31 29" fill="none" xmlns="http://www.w3.org/2000/svg">
<path d="M14.7528 1.28455C14.9876 0.561953 16.0098 0.56195 16.2446 1.28455L18.8681 9.35885C19.1201 10.1344 19.8429 10.6595 20.6583 10.6595H29.1482C29.908 10.6595 30.2239 11.6318 29.6092 12.0784L22.7408 17.0686C22.081 17.5479 21.805 18.3975 22.057 19.1731L24.6805 27.2474C24.9153 27.97 24.0882 28.5709 23.4735 28.1243L16.6051 23.1341C15.9454 22.6548 15.052 22.6548 14.3923 23.1341L7.52386 28.1243C6.90919 28.5709 6.08214 27.97 6.31693 27.2474L8.94043 19.1731C9.19243 18.3975 8.91637 17.5479 8.25663 17.0686L1.38821 12.0784C0.773536 11.6318 1.08944 10.6595 1.84922 10.6595H10.339C11.1545 10.6595 11.8773 10.1344 12.1293 9.35885L14.7528 1.28455Z" fill="#F2EA86" stroke="black" stroke-width="1.09804"/>
</svg>
