<svg xmlns="http://www.w3.org/2000/svg" width="783" height="790" fill="none" viewBox="0 0 783 790"><g clip-path="url(#a)"><path fill="url(#b)" fill-rule="evenodd" d="M1181.41 312.734h-172.86l17.86-24.092h155v24.092Zm-207.619-77.859h34.549v-16.597h-35.399l.85 16.597Zm21.407-50.863h208.322v-25.698H995.198v25.698Zm23.562 21.683h-23.959v-16.596h23.959v16.596Zm29.76 29.18h155v-24.092h-155v24.092ZM702.354 301.59h257.375v-13.098H699.354v-24.093h263.375v6H705.354v12.093h260.375v25.098H702.354v-6Zm280.618-54.192h175.348v6H982.972v-6Zm220.548-122.066H992.718v6h210.802v-6Zm-169.16 109.543v-38.87H1206v6h-165.64v32.87h-6Zm169.16-127.746H992.718v6h210.802v-6ZM992.718 90h210.802v6H992.718v-6ZM-71.52 136.484H-86l3.15 4.771 6.093 9.229h14.48l-9.243-14Zm18.793 0h-14.48l3.15 4.771 6.093 9.229h14.48l-9.243-14Zm2.498 173.451v-42.826h13.488l16.698 16.906v25.92h-30.185Zm43.208-59.302v10.203h7.44v-6.175l-4.116-4.028h-3.324Zm11.689 10.203v-10.203h3.324l4.116 4.028v6.175h-7.44Zm11.693-10.203v10.203h7.44v-6.175l-4.115-4.028H16.36Zm-39.366 5.103-.19-.223v.223h-32.832v-1.611h31.652l15.982-18.796 1.37 1.611-15.982 18.796Zm-24.875-98.035c-.1-.004-.201-.002-.301.006l-.268.02c-.096.008-.19.021-.284.039l-.268.052a2.425 2.425 0 0 0-.246.062l-.268.084a2.106 2.106 0 0 0-.2.074l-.269.114a1.912 1.912 0 0 0-.157.076l-.268.144a1.604 1.604 0 0 0-.12.071l-.269.172c-.031.02-.062.041-.091.063l-.269.2c-.024.017-.047.036-.07.054l-.268.225-.026.022-.013.012-.014.012-.268.248a.548.548 0 0 0-.04.039l-.269.268-.011.011a1.908 1.908 0 0 0-.02.021l-.268.286-.024.026-.268.303-.018.02-.268.316-.013.015-.269.327-.008.01-.269.334-.005.007-.27.34-.53.671-.005.006-.26.323-.257.313-.254.299-.248.281-.241.258-.233.234-.223.206-.208.175-.19.141-.164.106-.132.072-.092.04-.022.007-.072-.029-.118-.059-.153-.093-.18-.128-.203-.163-.217-.194-.23-.224-.238-.249-.246-.273-.252-.292-.256-.309-.26-.322-.263-.329-.003-.004-.534-.676-.272-.341-.008-.009-.268-.33-.011-.013-.269-.32-.015-.019-.269-.307-.01-.012-.01-.012-.27-.293a2.56 2.56 0 0 0-.027-.03l-.269-.275-.036-.036-.269-.256-.048-.044-.268-.233c-.02-.017-.041-.035-.063-.051l-.268-.209a1.269 1.269 0 0 0-.083-.06l-.268-.183a1.396 1.396 0 0 0-.109-.068l-.268-.155a1.66 1.66 0 0 0-.142-.074l-.269-.126a1.832 1.832 0 0 0-.183-.075l-.268-.096a2.382 2.382 0 0 0-.23-.068l-.268-.064a2.408 2.408 0 0 0-.27-.049l-.27-.032a2.45 2.45 0 0 0-.296-.019h-.269c-.1-.001-.199.005-.297.016l-.269.032a2.435 2.435 0 0 0-.272.047l-.268.063a2.16 2.16 0 0 0-.231.068l-.269.094a1.856 1.856 0 0 0-.185.075l-.268.124c-.05.024-.098.048-.144.075l-.269.154a1.402 1.402 0 0 0-.11.068l-.268.182a1.318 1.318 0 0 0-.083.06l-.269.208a1.406 1.406 0 0 0-.063.052l-.269.232a1.01 1.01 0 0 0-.048.044l-.268.255a1.827 1.827 0 0 0-.038.036l-.268.275-.028.03-.269.292a1.54 1.54 0 0 0-.021.024l-.269.307-.016.019-.268.32-.011.013-.269.329-.007.01-.268.335-.54.682-.002.003-.263.331-.26.322-.257.309-.251.293-.246.273-.24.251-.23.225-.217.196-.203.164-.182.129-.154.095-.12.06-.076.031-.02-.006-.09-.039-.13-.07-.163-.105-.188-.14-.208-.173-.222-.205-.233-.232-.24-.258-.249-.28-.253-.298-.258-.313-.261-.325-.803-1.014-.273-.34-.009-.011-.268-.326-.013-.015-.268-.317-.017-.02-.269-.303-.023-.026-.268-.287a.667.667 0 0 0-.031-.032l-.269-.269a2.137 2.137 0 0 0-.04-.039l-.268-.248a1.205 1.205 0 0 0-.052-.046l-.269-.226a2.753 2.753 0 0 0-.069-.054l-.268-.2a1.425 1.425 0 0 0-.09-.063l-.269-.174a1.567 1.567 0 0 0-.119-.07l-.268-.146a1.886 1.886 0 0 0-.155-.075l-.269-.116a2.4 2.4 0 0 0-.198-.074l-.268-.085a2.4 2.4 0 0 0-.244-.063l-.269-.053a2.395 2.395 0 0 0-.282-.04l-.268-.022c-.1-.008-.2-.011-.3-.007l-.269.01a2.569 2.569 0 0 0-.292.028l-.268.042c-.959.15-1.563.818-1.35 1.492.213.674 1.163 1.098 2.122.949l.09-.015.031.01.092.04.132.071.165.107.189.141.208.175.222.206.234.233.241.259.248.28.254.299.258.314.261.326.803 1.014.005.006.269.334.008.011.269.326.013.016.268.315.018.021.268.302a.459.459 0 0 0 .024.026l.268.287.031.032.268.268.022.021.019.018.268.247.053.047.269.224c.022.019.045.037.07.055l.268.199.091.064.269.172c.038.025.078.049.12.071l.268.144c.05.027.103.052.157.075l.269.115c.064.027.131.052.2.074l.268.083c.08.025.162.046.246.063l.268.052c.093.018.188.031.284.038l.268.021c.1.008.2.009.3.005l.27-.011c.097-.004.194-.014.29-.03l.268-.043a2.41 2.41 0 0 0 .258-.056l.269-.075c.073-.021.145-.044.213-.072l.269-.105c.058-.023.115-.048.169-.076l.268-.135c.045-.023.088-.047.13-.073l.269-.164c.034-.021.067-.043.099-.066l.268-.192c.026-.018.051-.037.075-.057l.269-.217.026-.022.031-.027.269-.241a.94.94 0 0 0 .043-.041l.269-.262.033-.034.269-.282.025-.027.269-.299.012-.013.007-.009.268-.312.014-.017.269-.323.01-.012.268-.332.006-.008.268-.337.003-.004.532-.673.004-.005.261-.326.26-.318.254-.303.25-.286.243-.266.236-.241.226-.214.213-.184.195-.152.173-.116.142-.082.104-.048.044-.015.046.016.107.05.143.083.174.118.196.153.213.185.227.216.236.242.244.266.25.287.255.304.259.319.26.326.005.005.532.674.003.003.269.338.006.007.268.332.01.012.268.323.015.017.268.312.01.011.01.011.268.298.026.028.268.281.018.018.016.016.269.261.016.016.012.011.016.015.268.24.017.014.041.035.269.216c.024.02.05.039.076.058l.268.19c.032.023.066.045.1.066l.269.163c.042.026.086.05.132.073l.268.134c.055.028.112.053.17.076l.27.104c.069.027.14.051.215.072l.268.073c.084.023.171.042.26.056l.268.041c.096.015.194.025.292.029l.268.01c.1.003.201.001.3-.007l.27-.022a2.39 2.39 0 0 0 .281-.04l.269-.054c.083-.016.165-.037.244-.062l.268-.086c.068-.021.134-.046.198-.074l.269-.115c.053-.023.105-.049.155-.076l.268-.145c.041-.022.081-.046.12-.07l.267-.174.047-.031.044-.032.268-.2.07-.055.267-.225c.019-.015.036-.031.053-.046l.268-.249.02-.018.005-.005.015-.015.269-.269.03-.032.269-.287.023-.026.268-.303.01-.01.008-.01.268-.317.013-.015.268-.327.009-.01.268-.334.544-.687.261-.33.005-.006.26-.323.257-.313.253-.298.248-.279.241-.258.233-.233.222-.204.208-.174.188-.14.163-.104.13-.07.09-.039.02-.006.077.03.119.061.154.094.182.13.203.164.218.196.23.225.239.25.246.274.252.293.256.309.26.322.263.33.003.004.535.676.004.005.268.336.007.009.269.329.011.014.269.32.008.01.007.008.269.308.01.011.011.013.269.292.014.016.014.014.268.275.011.01.017.017.01.009.268.255c.585.554 1.698.671 2.488.26.789-.411.955-1.194.37-1.749l-.25-.236-.236-.242-.243-.265-.25-.286-.255-.303-.259-.318-.26-.326-.005-.005-.532-.674-.27-.341-.007-.007-.268-.332-.01-.012-.269-.324-.014-.016-.268-.313-.02-.022-.268-.298-.01-.011-.015-.016-.269-.282-.017-.018-.016-.016-.269-.262a.94.94 0 0 0-.043-.041l-.269-.241a.343.343 0 0 0-.022-.02l-.01-.009-.017-.013-.008-.007-.269-.217a1.65 1.65 0 0 0-.075-.058l-.268-.191a1.578 1.578 0 0 0-.1-.066l-.268-.164a1.754 1.754 0 0 0-.13-.073l-.268-.135a1.833 1.833 0 0 0-.17-.076l-.268-.106a2.096 2.096 0 0 0-.213-.071l-.269-.075a2.406 2.406 0 0 0-.258-.056l-.268-.044a2.55 2.55 0 0 0-.291-.029l-.268-.012Zm-25.706 32.91v49.873h7.866l15.492-19.265v-30.608h-23.358Zm-2.695 62.893 11.326 10.75v53.805h4.252v-56.195l-12.908-12.251-2.67 3.891Zm422.65 43.266v-6.386H-7.021v-13.721h353.39v-5.917H-7.021v-3.637h356.806v13.19H-3.605v6.448h353.39v13.659H-3.605v7.571h124.657v3.637H-7.021V296.77h353.39ZM-25.126 173.941v5.917H14.5v13.721h-52.395v-3.636h48.979v-6.448h-39.626v-13.19H2.596v3.636h-27.722Zm689.38 14.543h16.178l10.326-18.235H674.58l-6.807 12.021-3.519 6.214Zm-193.269 113.5h-16.178l12.027-15.235h16.178l-12.027 15.235Zm5.555 0h16.177l12.027-15.235h-16.177l-12.027 15.235Zm37.91 0h-16.178l12.027-15.235h16.178l-12.027 15.235Zm5.553 0h16.177l12.027-15.235h-16.178l-12.026 15.235Zm37.908 0h-16.178l12.027-15.235h16.178l-12.027 15.235Zm5.556 0h38.408v-15.235h-26.381l-12.027 15.235Zm79.791-113.5h16.178l10.326-18.235h-16.178l-6.807 12.021-3.519 6.214Zm-16.135 91.075h-16.178v-12.158h16.178v12.158Zm-15.752-78.072v42.825h13.487l16.699-16.905v-22.099h40.91v-3.824h-40.91v.003h-30.186Zm45.469 53.208h-43.768v1.612h44.95v-.222l.188.221 21.694-25.513-1.37-1.611-21.694 25.513Zm-203.733 51.5h146.987v1.612H453.107v-1.612Zm146.987 4.614H448.855v1.611h151.239v-1.611Zm-156.34 4.609h156.34v1.611h-156.34v-1.611Zm220.53-12.411c.1-.007.2-.009.3-.005l.269.012c.063.002.126.007.189.015l.102.014.268.043c.051.009.102.018.152.03.036.008.071.017.106.027l.269.075c.073.02.144.044.213.071l.269.106c.058.023.114.048.169.075l.268.136c.045.023.088.047.13.072l.268.165.015.009.019.012.02.013.013.009.033.022.268.192.075.057.269.218.022.018.013.011.013.012.009.008.268.24.044.041.269.263.033.034.269.281.025.028.269.298.003.004.016.018.268.312.014.017.269.324.009.012.269.332.006.007.271.341.532.673.004.005.261.327.259.317.255.304.25.286.243.265.236.242.25.236c.584.555.419 1.338-.371 1.749-.789.411-1.903.294-2.487-.261l-.269-.254-.037-.037-.268-.274-.014-.014-.015-.016-.268-.292-.011-.013-.01-.011-.269-.308-.007-.008-.009-.01-.268-.32-.011-.014-.269-.329-.007-.009-.269-.336-.004-.005-.534-.676-.003-.004-.263-.33-.26-.322-.257-.309-.251-.293-.247-.274-.239-.251-.23-.225-.218-.195-.202-.164-.182-.13-.154-.094-.12-.061-.076-.03-.019.006-.091.038-.13.07-.163.105-.189.14-.207.174-.222.204-.233.233-.241.258-.248.279-.253.298-.258.313-.259.323-.005.006-.262.33-.543.687-.268.334-.009.01-.268.327-.013.015-.268.316-.009.011-.009.009-.268.304-.023.025-.269.288a.938.938 0 0 0-.03.032l-.269.269-.04.038-.268.248-.025.023-.01.009-.018.015-.268.225-.018.015-.008.006c-.014.011-.028.023-.043.033l-.268.201a1.219 1.219 0 0 1-.091.063l-.268.173a1.557 1.557 0 0 1-.119.071l-.268.145c-.05.027-.102.052-.155.075l-.269.116c-.064.028-.13.052-.198.074l-.269.085c-.079.025-.16.046-.243.063l-.269.054-.08.015-.068.01-.074.009-.06.006-.268.022c-.1.008-.201.01-.301.006l-.268-.01a2.366 2.366 0 0 1-.292-.028l-.268-.042a2.54 2.54 0 0 1-.099-.017l-.056-.012-.061-.014-.044-.012-.269-.074a2.082 2.082 0 0 1-.215-.071l-.269-.104a1.998 1.998 0 0 1-.17-.076l-.269-.134a1.838 1.838 0 0 1-.131-.073l-.269-.163a1.727 1.727 0 0 1-.1-.066l-.268-.191a.671.671 0 0 1-.043-.031l-.033-.026-.269-.216a1.386 1.386 0 0 1-.058-.05l-.268-.24-.045-.041-.268-.262a.545.545 0 0 1-.034-.034l-.268-.281-.026-.027-.269-.298-.011-.013-.008-.009-.268-.312-.015-.017-.268-.323-.01-.012-.268-.332-.007-.008-.268-.337-.003-.003-.532-.674-.004-.005-.261-.327-.259-.318-.255-.304-.25-.287-.244-.266-.237-.243-.226-.215-.213-.186-.196-.152-.174-.118-.144-.083-.106-.05-.047-.017-.043.016-.104.048-.143.081-.172.117-.195.151-.213.184-.226.215-.236.241-.243.265-.25.286-.255.304-.259.318-.261.326-.004.005-.532.673-.003.004-.268.337-.006.008-.268.332-.01.012-.269.323-.014.017-.268.312-.008.009-.011.013-.269.298-.025.028-.269.281a1.074 1.074 0 0 1-.033.034l-.269.263-.013.013-.031.028-.268.241a2.889 2.889 0 0 1-.057.049l-.269.217c-.024.02-.049.039-.075.057l-.268.192a1.082 1.082 0 0 1-.099.065l-.269.165c-.042.025-.085.05-.13.072l-.268.136a2.347 2.347 0 0 1-.169.076l-.269.105a2.42 2.42 0 0 1-.213.072l-.269.075a2.41 2.41 0 0 1-.258.056l-.268.043a2.352 2.352 0 0 1-.291.03l-.268.011a2.775 2.775 0 0 1-.158.002l-.059-.002a2.365 2.365 0 0 1-.084-.005l-.268-.021-.089-.008a3.567 3.567 0 0 1-.195-.03l-.268-.053a2.212 2.212 0 0 1-.246-.062l-.268-.084a2.177 2.177 0 0 1-.201-.073l-.268-.115-.063-.028-.068-.033-.026-.014-.268-.144a1.338 1.338 0 0 1-.075-.043l-.028-.017-.017-.011-.269-.173-.012-.008-.027-.017-.026-.018-.026-.02-.269-.199a1.28 1.28 0 0 1-.069-.055l-.269-.224-.021-.018-.032-.029-.268-.247-.022-.021-.019-.018-.268-.268-.014-.014-.017-.018-.268-.287-.01-.01-.014-.016-.268-.302-.018-.021-.268-.316-.013-.015-.269-.326-.008-.011-.269-.334-.005-.006-.803-1.014-.261-.326-.258-.314-.254-.299-.248-.28-.241-.259-.234-.234-.222-.205-.208-.175-.189-.142-.165-.106-.132-.071-.092-.04-.031-.01-.09.014c-.959.15-1.909-.275-2.122-.949-.214-.673.391-1.341 1.35-1.491l.268-.042c.096-.015.194-.024.292-.028l.268-.01.112-.002c.063.001.126.004.189.009l.268.022c.095.008.19.021.282.039l.269.054.101.023.072.019.07.021.269.085c.039.013.078.026.115.04l.042.017.041.017.269.116a1.476 1.476 0 0 1 .155.075l.268.145.019.011a.786.786 0 0 1 .1.06l.268.174c.032.02.062.041.091.062l.268.201c.024.017.047.036.069.054l.268.226.014.011.014.012.009.008.016.015.268.248.021.02.019.019.269.269.016.017.014.015.269.287.023.026.268.303.018.02.268.316.013.015.268.327.009.011.273.34.803 1.014.261.325.258.313.253.298.248.28.241.258.233.232.222.205.207.173.189.14.163.105.13.07.091.038.019.006.076-.03.12-.06.154-.095.182-.13.202-.163.218-.196.23-.225.239-.251.247-.273.251-.293.257-.31.26-.322.263-.33.003-.003.538-.682.269-.336.007-.009.269-.329.011-.014.268-.319.016-.019.269-.307.021-.024.269-.293.028-.029.268-.275.037-.037.269-.254a.768.768 0 0 1 .029-.027l.019-.017.269-.232c.02-.018.041-.035.063-.052l.269-.208a1.37 1.37 0 0 1 .083-.061l.268-.181c.036-.024.072-.047.11-.069l.269-.153c.026-.016.054-.031.082-.045l.061-.03.269-.124c.059-.028.121-.053.185-.075l.268-.095c.075-.026.152-.048.231-.067l.269-.063a2.323 2.323 0 0 1 .21-.039l.062-.008.269-.032a2.66 2.66 0 0 1 .297-.017l.269.001c.099 0 .199.006.297.018l.268.033c.092.011.183.027.271.049l.268.064c.079.019.155.042.229.068l.269.095.062.024c.041.016.082.033.121.052l.269.125c.049.023.096.048.142.074l.268.155c.038.022.074.045.109.069l.268.182.034.024.049.036.268.209a.46.46 0 0 1 .034.028l.029.024.268.233.048.044.269.255.017.017.009.009.01.011.269.275.012.013.016.017.268.293.011.012.01.011.269.308.015.019.269.32.011.013.268.33.008.009.272.34.534.677.003.003.262.33.261.322.256.308.252.293.246.272.238.25.23.224.217.194.202.163.181.128.153.093.118.059.072.028.022-.007.092-.039.132-.072.164-.106.19-.142.208-.174.222-.206.234-.234.241-.259.248-.28.254-.299.258-.314.259-.322.005-.007.53-.67.27-.341.005-.006.269-.334.008-.01.269-.327.013-.015.268-.316.018-.02.268-.303.009-.01.014-.016.269-.286.012-.013.019-.019.268-.269a.488.488 0 0 0 .023-.022l.018-.017.268-.247.014-.013.039-.034.269-.224a1.28 1.28 0 0 1 .069-.055l.269-.199.017-.012.012-.009.012-.009.05-.033.268-.173c.039-.024.079-.048.121-.07l.268-.145.026-.013.028-.015.051-.024.052-.023.268-.114a2.52 2.52 0 0 1 .201-.074l.268-.084c.08-.025.162-.046.246-.062l.268-.053c.093-.018.188-.031.284-.038l.268-.021Zm-47.554 10.727c2.759 0 4.996-2.63 4.996-5.875 0-3.244-2.237-5.875-4.996-5.875-2.759 0-4.996 2.631-4.996 5.875 0 3.245 2.237 5.875 4.996 5.875Zm366.244-49.332h175.346v6H982.974v-6ZM560.922 126.051h-3v45h-89.684v6h89.684v5h-89.684v6h95.684v-32.5h77.354v-6h-77.354v-5.485h209.577v-6H563.922v-6.015h77.354v-6h-80.354Zm10.203 62h56.971v-24.25h-56.971v24.25Zm-22.379 42.261h14.18v-19.723h-14.18v19.723Zm-158.791 82.11h42.994v-48h-42.994v28.571h-28.663v19.429h28.663Zm142.58-40.34h-51.869v-26.723l23.384-29h28.485v55.723Zm57.742-28.691h-20.339v-35.082H469.891v-6h119.043v.175h1.343v40.907Zm-238.17 69.031H139.529v-6h212.578v6Zm193.772-55.238h46.767v-6h-46.767v6Zm46.767 14h-46.767v-6h46.767v6Z" clip-rule="evenodd" opacity=".25"/><path stroke="#8F8E93" stroke-linejoin="round" stroke-width="2" d="M36 7h-50.785l-16.652 23.439H-76v230.143l18.226 16.482M35.5 248.22H.005m0 0h-31.442m31.442 0-22.037 28.844h-35.742m0 0V340M708.5 7h-30m0 0-37 21.81h-35.036v118.093M678.5 7h-37m61 120.752H657l-19 19.151h-31.536m0 113.679V146.903M1193 340H606.464V146.903M1337 301.646h-210L1096 340"/><path stroke="#8F8E93" stroke-width="2" d="M-76 117h69l24.5 12.5h29"/><path fill="#000" d="M47.814 3.29a5.915 5.915 0 1 0-.054 11.83 5.915 5.915 0 0 0 .054-11.83Z"/><path fill="#F0EFED" stroke="#000" stroke-width=".986" d="M35.493 6.89a5.422 5.422 0 1 1 10.844.05 5.422 5.422 0 0 1-10.844-.05Z"/><path fill="#000" d="M47.814 125.291a5.915 5.915 0 1 0-.054 11.83 5.915 5.915 0 0 0 .054-11.83Z"/><path fill="#F0EFED" stroke="#000" stroke-width=".986" d="M35.493 128.89a5.422 5.422 0 1 1 10.843.05 5.422 5.422 0 0 1-10.843-.05Z"/><path fill="#000" d="M48.018 243.434c-3.319-.016-6.021 2.784-6.036 6.254-.015 3.471 2.663 6.296 5.982 6.312 3.318.016 6.021-2.784 6.036-6.255.015-3.47-2.663-6.296-5.982-6.311Z"/><path fill="#F0EFED" stroke="#000" stroke-width=".986" d="M35.493 247.257c.014-3.219 2.515-5.778 5.541-5.764 3.026.014 5.505 2.598 5.492 5.817-.015 3.219-2.516 5.778-5.542 5.764-3.026-.015-5.505-2.598-5.491-5.817Z"/></g><g clip-path="url(#c)"><path fill="url(#d)" fill-rule="evenodd" d="M516.412 768.734H343.555l17.856-24.092h155.001v24.092Zm-207.621-77.859h34.551v-16.597h-35.401l.85 16.597Zm21.407-50.863H538.52v-25.698H330.198v25.698Zm23.558 21.683h-23.955v-16.596h23.955v16.596Zm29.763 29.18H538.52v-24.092H383.519v24.092ZM37.353 757.59H294.73v-13.098H34.354v-24.093h263.375v6H40.354v12.093h260.375v25.098H37.354v-6Zm280.619-54.192h175.344v6H317.972v-6ZM538.52 581.332H327.718v6H538.52v-6ZM369.359 690.875v-38.87H541v6H375.359v32.87h-6ZM538.52 563.129H327.718v6H538.52v-6ZM327.718 546H538.52v6H327.718v-6ZM-736.52 592.484H-751l3.15 4.771 6.093 9.229h14.48l-9.243-14Zm18.793 0h-14.48l3.15 4.771 6.093 9.229h14.48l-9.243-14Zm2.498 173.451v-42.826h13.488l16.698 16.906v25.92h-30.186Zm43.208-59.302v10.203h7.44v-6.175l-4.116-4.028h-3.324Zm11.689 10.203v-10.203h3.324l4.116 4.028v6.175h-7.44Zm11.693-10.203v10.203h7.441v-6.175l-4.116-4.028h-3.325Zm-39.366 5.103-.19-.223v.223h-32.832v-1.611h31.652l15.982-18.796 1.37 1.611-15.982 18.796Zm-24.875-98.035a2.516 2.516 0 0 0-.301.006l-.268.02a2.657 2.657 0 0 0-.284.039l-.268.052a2.458 2.458 0 0 0-.246.062l-.268.084a2.06 2.06 0 0 0-.2.074l-.269.114a2.067 2.067 0 0 0-.157.076l-.268.144a1.404 1.404 0 0 0-.12.071l-.269.172c-.031.02-.062.041-.091.063l-.269.2c-.024.017-.047.036-.069.054l-.269.225-.026.022-.013.012-.014.012-.268.248a.737.737 0 0 0-.041.039l-.268.268-.011.011-.02.021-.268.286-.024.026-.268.303-.018.02-.268.316-.013.015-.269.327-.008.01-.269.334-.005.007-.27.34-.53.671-.005.006-.259.323-.258.313-.254.299-.248.281-.241.258-.234.234-.222.206-.208.175-.189.141-.165.106-.132.072-.092.04-.022.007-.072-.029-.118-.059-.153-.093-.181-.128-.202-.163-.217-.194-.23-.224-.238-.249-.246-.273-.252-.292-.256-.309-.26-.322-.263-.329-.003-.004-.534-.676-.272-.341-.008-.009-.268-.33-.011-.013-.269-.32-.015-.019-.269-.307-.01-.012-.011-.012-.268-.293-.028-.03-.269-.275-.036-.036-.269-.256-.048-.044-.268-.233c-.02-.017-.041-.035-.063-.051l-.268-.209a1.253 1.253 0 0 0-.083-.06l-.268-.183a1.332 1.332 0 0 0-.109-.068l-.268-.155a1.733 1.733 0 0 0-.142-.074l-.269-.126a1.846 1.846 0 0 0-.183-.075l-.268-.096a2.425 2.425 0 0 0-.229-.068l-.269-.064a2.398 2.398 0 0 0-.271-.049l-.268-.032a2.454 2.454 0 0 0-.297-.019h-.269a2.452 2.452 0 0 0-.297.016l-.269.032a2.452 2.452 0 0 0-.272.047l-.269.063a2.111 2.111 0 0 0-.23.068l-.269.094a1.882 1.882 0 0 0-.185.075l-.268.124a1.95 1.95 0 0 0-.144.075l-.269.154a1.332 1.332 0 0 0-.109.068l-.269.182a1.253 1.253 0 0 0-.083.06l-.269.208a1.088 1.088 0 0 0-.063.052l-.269.232-.048.044-.269.255-.037.036-.268.275a.768.768 0 0 0-.028.03l-.269.292-.021.024-.269.307-.015.019-.269.32-.011.013-.269.329-.007.01-.268.335-.539.682-.003.003-.263.331-.26.322-.256.309-.252.293-.246.273-.239.251-.23.225-.218.196-.203.164-.182.129-.154.095-.119.06-.077.031-.019-.006-.09-.039-.131-.07-.163-.105-.188-.14-.208-.173-.222-.205-.233-.232-.241-.258-.248-.28-.253-.298-.258-.313-.261-.325-.803-1.014-.273-.34-.009-.011-.268-.326-.013-.015-.268-.317-.017-.02-.269-.303-.023-.026-.269-.287a.454.454 0 0 0-.03-.032l-.269-.269-.04-.039-.268-.248a1.138 1.138 0 0 0-.052-.046l-.269-.226a2.076 2.076 0 0 0-.069-.054l-.268-.2a1.445 1.445 0 0 0-.09-.063l-.269-.174a1.548 1.548 0 0 0-.119-.07l-.268-.146a2.015 2.015 0 0 0-.155-.075l-.269-.116a2.449 2.449 0 0 0-.198-.074l-.268-.085a2.422 2.422 0 0 0-.244-.063l-.269-.053a2.363 2.363 0 0 0-.282-.04l-.268-.022c-.1-.008-.2-.011-.301-.007l-.268.01a2.577 2.577 0 0 0-.292.028l-.268.042c-.959.15-1.563.818-1.35 1.492.213.674 1.163 1.098 2.122.949l.091-.015.03.01.092.04.132.071.165.107.189.141.208.175.223.206.233.233.241.259.248.28.254.299.258.314.261.326.803 1.014.005.006.269.334.009.011.268.326.013.016.268.315.018.021.268.302.024.026.268.287.031.032.268.268a.447.447 0 0 1 .022.021l.019.018.268.247.053.047.269.224c.022.019.045.037.069.055l.269.199c.029.022.06.043.091.064l.269.172c.038.025.078.049.12.071l.268.144c.051.027.103.052.157.075l.269.115c.064.027.131.052.2.074l.268.083c.08.025.162.046.246.063l.268.052c.093.018.188.031.284.038l.268.021c.1.008.2.009.301.005l.268-.011c.098-.004.195-.014.291-.03l.268-.043c.088-.014.175-.033.258-.056l.269-.075c.073-.021.145-.044.213-.072l.269-.105c.058-.023.114-.048.169-.076l.268-.135a1.62 1.62 0 0 0 .13-.073l.269-.164c.034-.021.067-.043.099-.066l.268-.192c.026-.018.051-.037.075-.057l.269-.217.027-.022.03-.027.269-.241.043-.041.269-.262.033-.034.269-.282.025-.027.269-.299.012-.013.007-.009.268-.312.014-.017.269-.323.01-.012.268-.332.006-.008.269-.337.002-.004.532-.673.004-.005.261-.326.259-.318.255-.303.25-.286.243-.266.236-.241.226-.214.213-.184.195-.152.173-.116.142-.082.104-.048.044-.015.046.016.107.05.143.083.174.118.196.153.213.185.226.216.237.242.244.266.25.287.255.304.259.319.261.326.004.005.532.674.003.003.268.338.007.007.268.332.01.012.268.323.015.017.268.312.01.011.01.011.268.298.026.028.268.281.018.018.016.016.269.261.016.016.012.011.016.015.268.24.017.014.041.035.269.216c.024.02.05.039.076.058l.268.19c.033.023.066.045.101.066l.268.163c.042.026.086.05.132.073l.268.134c.055.028.112.053.171.076l.268.104c.07.027.142.051.216.072l.268.073c.084.023.171.042.26.056l.268.041c.096.015.194.025.292.029l.268.01c.101.003.201.001.301-.007l.268-.022c.096-.008.19-.021.282-.04l.269-.054c.083-.016.165-.037.244-.062l.268-.086c.068-.021.134-.046.198-.074l.269-.115c.053-.023.105-.049.155-.076l.268-.145c.041-.022.081-.046.119-.07l.269-.174.046-.031.044-.032.268-.2a1.28 1.28 0 0 0 .069-.055l.269-.225.052-.046.268-.249.02-.018.005-.005.015-.015.269-.269.03-.032.269-.287.023-.026.269-.303.008-.01.009-.01.268-.317.013-.015.268-.327.009-.01.268-.334.544-.687.261-.33.005-.006.259-.323.258-.313.253-.298.248-.279.241-.258.233-.233.222-.204.208-.174.188-.14.163-.104.13-.07.091-.039.019-.006.076.03.12.061.154.094.182.13.203.164.218.196.23.225.239.25.246.274.251.293.257.309.261.322.262.33.003.004.535.676.004.005.268.336.007.009.269.329.011.014.269.32.008.01.007.008.269.308.01.011.011.013.269.292.014.016.014.014.268.275.011.01.017.017.009.009.269.255c.585.554 1.698.671 2.488.26.789-.411.954-1.194.37-1.749l-.25-.236-.236-.242-.243-.265-.25-.286-.255-.303-.259-.318-.261-.326-.004-.005-.532-.674-.271-.341-.006-.007-.268-.332-.01-.012-.269-.324-.014-.016-.268-.313-.019-.022-.269-.298-.01-.011-.015-.016-.269-.282-.017-.018-.016-.016-.269-.262-.043-.041-.269-.241a.398.398 0 0 0-.022-.02l-.01-.009-.017-.013-.008-.007-.269-.217a1.488 1.488 0 0 0-.075-.058l-.268-.191a1.702 1.702 0 0 0-.099-.066l-.269-.164a1.815 1.815 0 0 0-.13-.073l-.268-.135a1.978 1.978 0 0 0-.169-.076l-.269-.106a2.045 2.045 0 0 0-.213-.071l-.269-.075a2.41 2.41 0 0 0-.258-.056l-.268-.044a2.56 2.56 0 0 0-.291-.029l-.268-.012Zm-25.706 32.91v49.873h7.866l15.492-19.265v-30.608h-23.358Zm-2.695 62.893 11.326 10.75v53.805h4.251v-56.195l-12.907-12.251-2.67 3.891Zm422.65 43.266v-6.386h-353.39v-13.721h353.39v-5.917h-353.39v-3.637h356.806v13.19h-353.39v6.448h353.39v13.659h-353.39v7.571h124.657v3.637h-128.073V752.77h353.39Zm-371.495-122.829v5.917h39.626v13.721h-52.395v-3.636h48.979v-6.448h-39.626v-13.19h31.138v3.636h-27.722Zm689.38 14.543h16.178l10.326-18.235H9.58L2.773 638.27l-3.519 6.214Zm-193.269 113.5h-16.178l12.027-15.235h16.178l-12.027 15.235Zm5.555 0h16.177l12.027-15.235h-16.177l-12.027 15.235Zm37.91 0h-16.178l12.027-15.235h16.178l-12.027 15.235Zm5.553 0h16.177l12.027-15.235h-16.178l-12.026 15.235Zm37.908 0h-16.178l12.027-15.235h16.177l-12.026 15.235Zm5.556 0h38.408v-15.235h-26.381l-12.027 15.235Zm79.79-113.5h16.179l10.326-18.235h-16.178l-6.807 12.021-3.52 6.214Zm-16.134 91.075h-16.178v-12.158h16.178v12.158Zm-15.752-78.072v42.825h13.487l16.7-16.905v-22.099h40.909v-3.824h-40.91v.003H-53.63Zm45.469 53.208h-43.768v1.612h44.95v-.222l.188.221 21.694-25.513-1.37-1.611-21.694 25.513Zm-203.733 51.5h146.987v1.612h-146.987v-1.612Zm146.987 4.614h-151.239v1.611h151.239v-1.611Zm-156.34 4.609h156.34v1.611h-156.34v-1.611Zm220.53-12.411c.1-.007.2-.009.3-.005l.269.012a1.98 1.98 0 0 1 .29.029l.27.043a2.493 2.493 0 0 1 .257.057l.269.075c.073.02.144.044.213.071l.269.106c.058.023.114.048.169.075l.268.136c.045.023.088.047.13.072l.268.165.015.009.02.012.02.013.012.009.033.022.268.192.075.057.269.218.022.018.013.011.013.012.009.008.268.24.044.041.269.263a.69.69 0 0 1 .033.034l.269.281.025.028.269.298.003.004.016.018.268.312.014.017.269.324.01.012.268.332.006.007.271.341.532.673.004.005.261.327.26.317.254.304.25.286.243.265.236.242.25.236c.584.555.419 1.338-.37 1.749-.79.411-1.904.294-2.488-.261l-.269-.254a.803.803 0 0 1-.037-.037l-.268-.274-.014-.014-.015-.016-.268-.292-.011-.013-.01-.011-.269-.308-.007-.008-.009-.01-.268-.32-.011-.014-.269-.329-.007-.009-.269-.336-.004-.005-.534-.676-.003-.004-.263-.33-.26-.322-.257-.309-.251-.293-.247-.274-.239-.251-.23-.225-.218-.195-.202-.164-.182-.13-.154-.094-.12-.061-.076-.03-.02.006-.09.038-.13.07-.163.105-.189.14-.207.174-.222.204-.233.233-.241.258-.248.279-.253.298-.258.313-.259.323-.005.006-.262.33-.543.687-.268.334-.009.01-.268.327-.013.015-.268.316-.009.011-.009.009-.268.304-.023.025-.269.288-.03.032-.269.269-.04.038-.268.248a.453.453 0 0 1-.025.023l-.01.009-.018.015-.268.225-.018.015-.008.006c-.014.011-.028.023-.043.033l-.268.201-.09.063-.269.173a1.594 1.594 0 0 1-.119.071l-.268.145c-.05.027-.102.052-.155.075l-.269.116c-.064.028-.13.052-.198.074l-.269.085c-.079.025-.16.046-.243.063l-.269.054-.08.015-.068.01a82.508 82.508 0 0 1-.134.015l-.268.022c-.1.008-.2.01-.3.006l-.27-.01a2.36 2.36 0 0 1-.291-.028l-.268-.042a3.143 3.143 0 0 1-.155-.029l-.06-.014-.045-.012-.269-.074a2.133 2.133 0 0 1-.215-.071l-.269-.104a1.868 1.868 0 0 1-.17-.076l-.269-.134a1.77 1.77 0 0 1-.131-.073l-.269-.163a1.576 1.576 0 0 1-.1-.066l-.268-.191a.797.797 0 0 1-.043-.031l-.033-.026-.269-.216a1.271 1.271 0 0 1-.058-.05l-.268-.24a.903.903 0 0 1-.045-.041l-.268-.262a.68.68 0 0 1-.034-.034l-.268-.281a1.607 1.607 0 0 1-.026-.027l-.268-.298-.012-.013-.008-.009-.268-.312-.015-.017-.268-.323-.01-.012-.268-.332-.007-.008-.268-.337-.003-.003-.533-.674-.003-.005-.261-.327-.26-.318-.255-.304-.25-.287-.243-.266-.237-.243-.226-.215-.213-.186-.197-.152-.173-.118-.144-.083-.106-.05-.047-.017-.043.016-.104.048-.143.081-.172.117-.195.151-.213.184-.226.215-.236.241-.243.265-.25.286-.255.304-.259.318-.26.326-.005.005-.532.673-.003.004-.268.337-.006.008-.268.332-.01.012-.269.323-.014.017-.268.312-.008.009-.011.013-.269.298a.493.493 0 0 1-.025.028l-.269.281a.718.718 0 0 1-.033.034l-.269.263-.013.013-.03.028-.269.241-.057.049-.269.217c-.024.02-.05.039-.075.057l-.268.192a.842.842 0 0 1-.043.029.726.726 0 0 1-.056.036l-.269.165c-.042.025-.085.05-.13.072l-.268.136a2.18 2.18 0 0 1-.17.076l-.268.105a2.37 2.37 0 0 1-.213.072l-.269.075c-.084.023-.17.042-.258.056l-.268.043a2.342 2.342 0 0 1-.291.03l-.269.011c-.052.002-.104.003-.157.002l-.059-.002a2.362 2.362 0 0 1-.084-.005l-.268-.021a2.584 2.584 0 0 1-.284-.038l-.268-.053a2.196 2.196 0 0 1-.246-.062l-.268-.084a2.122 2.122 0 0 1-.2-.073l-.269-.115a1.388 1.388 0 0 1-.13-.061l-.027-.014-.268-.144a1.757 1.757 0 0 1-.075-.043l-.028-.017-.017-.011-.269-.173-.012-.008-.027-.017a1.952 1.952 0 0 1-.026-.018l-.026-.02-.269-.199a1.53 1.53 0 0 1-.07-.055l-.268-.224-.021-.018-.032-.029-.268-.247-.022-.021-.019-.018-.268-.268-.014-.014-.017-.018-.268-.287-.01-.01-.014-.016-.268-.302-.018-.021-.268-.316-.013-.015-.269-.326-.008-.011-.269-.334-.005-.006-.803-1.014-.261-.326-.258-.314-.254-.299-.248-.28-.241-.259-.234-.234-.222-.205-.208-.175-.19-.142-.164-.106-.132-.071-.092-.04-.03-.01-.091.014c-.96.15-1.91-.275-2.122-.949-.214-.673.39-1.341 1.35-1.491l.268-.042c.096-.015.194-.024.292-.028l.268-.01.112-.002c.063.001.126.004.189.009l.268.022c.095.008.19.021.282.039l.269.054a3.153 3.153 0 0 1 .243.063l.269.085.116.04.041.017.041.017.269.116a1.19 1.19 0 0 1 .155.075l.268.145.02.011a1.161 1.161 0 0 1 .1.06l.267.174c.032.02.062.041.09.062l.27.201.068.054.268.226.014.011.014.012.009.008.016.015.268.248.02.02.02.019.269.269.016.017.014.015.269.287a.421.421 0 0 1 .023.026l.268.303.018.02.268.316.013.015.268.327.009.011.273.34.803 1.014.261.325.258.313.253.298.248.28.241.258.233.232.222.205.207.173.189.14.163.105.13.07.09.038.02.006.076-.03.12-.06.154-.095.182-.13.202-.163.219-.196.23-.225.238-.251.247-.273.251-.293.257-.31.26-.322.263-.33.003-.003.538-.682.269-.336.007-.009.269-.329.011-.014.268-.319.016-.019.269-.307.021-.024.269-.293a.6.6 0 0 1 .028-.029l.268-.275.037-.037.269-.254.03-.027.018-.017.269-.232c.02-.018.041-.035.063-.052l.268-.208c.027-.021.055-.041.084-.061l.268-.181c.036-.024.072-.047.11-.069l.269-.153a1.285 1.285 0 0 1 .143-.075l.269-.124c.06-.028.121-.053.185-.075l.268-.095c.075-.026.152-.048.231-.067l.269-.063a2.321 2.321 0 0 1 .272-.047l.269-.032a2.68 2.68 0 0 1 .297-.017l.269.001c.1 0 .199.006.297.018l.268.033c.092.011.183.027.271.049l.268.064c.079.019.155.042.23.068l.268.095.062.024c.041.016.082.033.121.052l.268.125c.05.023.097.048.143.074l.268.155c.038.022.074.045.109.069l.268.182a2.547 2.547 0 0 1 .083.06l.268.209a.594.594 0 0 1 .063.052l.268.233.048.044.269.255.017.017.01.009.01.011.268.275.012.013.016.017.268.293.011.012.01.011.269.308.015.019.269.32.01.013.27.33.007.009.272.34.534.677.003.003.262.33.26.322.257.308.252.293.245.272.24.25.229.224.217.194.202.163.18.128.154.093.118.059.072.028.022-.007.092-.039.132-.072.164-.106.19-.142.208-.174.222-.206.234-.234.241-.259.248-.28.254-.299.258-.314.259-.322.005-.007.53-.67.27-.341.005-.006.269-.334.008-.01.269-.327.013-.015.268-.316.018-.02.268-.303.01-.01.013-.016.269-.286.012-.013.019-.019.268-.269.023-.022.018-.017.268-.247.014-.013.04-.034.268-.224c.022-.019.045-.037.07-.055l.268-.199.017-.012.012-.009.012-.009.05-.033.268-.173c.04-.024.08-.048.12-.07l.27-.145.025-.013.028-.015.05-.024.053-.023.268-.114a2.484 2.484 0 0 1 .2-.074l.27-.084c.079-.025.16-.046.245-.062l.268-.053c.093-.018.188-.031.284-.038l.268-.021Zm-47.554 10.727c2.759 0 4.995-2.63 4.995-5.875 0-3.244-2.236-5.875-4.995-5.875-2.76 0-4.996 2.631-4.996 5.875 0 3.245 2.237 5.875 4.996 5.875Zm366.244-49.332h175.344v6H317.974v-6Zm-422.052-138.351h-3v45h-89.684v6h89.684v5h-89.684v6h95.684v-32.5h77.354v-6h-77.354v-5.485h209.577v-6h-209.577v-6.015h77.354v-6h-80.354Zm10.203 62h56.97v-24.25h-56.97v24.25Zm-22.379 42.261h14.18v-19.723h-14.18v19.723Zm-158.791 82.11h42.994v-48h-42.994v28.571h-28.663v19.429h28.663Zm142.58-40.34h-51.869v-26.723l23.384-29h28.485v55.723Zm57.742-28.691h-20.339v-35.082h-100.047v-6h119.043v.175h1.343v40.907Zm-238.17 69.031h-212.578v-6h212.578v6Zm193.772-55.238h46.767v-6h-46.767v6Zm46.767 14h-46.767v-6h46.767v6Z" clip-rule="evenodd" opacity=".25"/><path stroke="#8F8E93" stroke-linejoin="round" stroke-width="2" d="M43.5 462h-30m0 0-37 20.5h-35.037v111M13.499 462h-37m61 113.5H-8l-19 18h-31.536m0 106.851V593.5M527.999 775H-58.537V593.5m730.536 145.449h-210l-31 36.051"/><path fill="#000" d="M47.814 457.291a5.915 5.915 0 1 0-.054 11.83 5.915 5.915 0 0 0 .054-11.83Z"/><path fill="#F0EFED" stroke="#000" stroke-width=".986" d="M35.493 460.89a5.422 5.422 0 1 1 10.843.05 5.422 5.422 0 0 1-10.843-.05Z"/><path fill="#000" d="M47.814 571.411a5.915 5.915 0 1 0-.053 11.83 5.915 5.915 0 0 0 .053-11.83Z"/><path fill="#F0EFED" stroke="#000" stroke-width=".986" d="M35.493 575.011a5.421 5.421 0 1 1 5.397 5.447 5.423 5.423 0 0 1-5.397-5.447Z"/><path stroke="#8F8E93" stroke-width="2" d="m305 748.625-188.377.001-25.327-23.227m0 0H-57.71l.363-25.985H6.55l11.088-16.633h52.67m20.988 42.618H164.5"/></g><defs><linearGradient id="b" x1="1141" x2="1143.35" y1="318.059" y2="78.566" gradientUnits="userSpaceOnUse"><stop stop-color="#F1EFED"/><stop offset=".503" stop-color="#A9A5A4" stop-opacity=".07"/><stop offset="1" stop-color="#F1EFED"/></linearGradient><linearGradient id="d" x1="475.998" x2="478.35" y1="774.059" y2="534.565" gradientUnits="userSpaceOnUse"><stop stop-color="#F1EFED"/><stop offset=".503" stop-color="#A9A5A4" stop-opacity=".07"/><stop offset="1" stop-color="#F1EFED"/></linearGradient><clipPath id="a"><path fill="#fff" d="M0 0h595.588v319H0z"/></clipPath><clipPath id="c"><path fill="#fff" d="M0 455h783v335H0z"/></clipPath></defs></svg>
