<svg xmlns="http://www.w3.org/2000/svg" width="375" height="699" fill="none" viewBox="0 0 375 699"><g clip-path="url(#a)"><path fill="url(#b)" fill-rule="evenodd" d="M1180.41 312.735h-172.85l17.85-24.092h155v24.092Zm-207.617-77.859h34.547v-16.597h-35.397l.85 16.597Zm21.405-50.864h208.322v-25.698H994.198v25.698Zm23.562 21.684h-23.957v-16.597h23.957v16.597Zm29.76 29.18h155v-24.092h-155v24.092Zm-346.168 66.715h257.375v-13.098H698.352V264.4h263.375v6H704.352v12.093h260.375v25.098H701.352v-6Zm280.62-54.192h175.348v6H981.972v-6Zm220.548-122.066H991.718v6h210.802v-6Zm-169.16 109.543v-38.871H1205v6h-165.64v32.871h-6Zm169.16-127.746H991.718v6h210.802v-6ZM991.718 90h210.802v6H991.718v-6ZM-72.52 136.486H-87l3.15 4.771 6.093 9.229h14.48l-9.243-14Zm18.793 0h-14.48l3.15 4.771 6.093 9.229h14.48l-9.243-14Zm2.5 173.45V267.11h13.488l16.698 16.906v25.919h-30.186Zm43.204-59.301v10.203h7.44v-6.175l-4.116-4.028h-3.324Zm11.691 10.203v-10.203h3.324l4.116 4.028v6.175h-7.44Zm11.691-10.203v10.203h7.44v-6.175l-4.115-4.028h-3.325Zm-39.364 5.103-.19-.223v.223h-32.832v-1.611h31.652l15.982-18.796 1.37 1.611-15.982 18.796Zm-24.875-98.035a2.74 2.74 0 0 0-.301.005l-.268.021c-.096.007-.19.02-.284.038l-.268.053a2.185 2.185 0 0 0-.246.062l-.268.084a1.864 1.864 0 0 0-.2.074l-.269.114a1.906 1.906 0 0 0-.157.075l-.268.145a1.595 1.595 0 0 0-.12.07l-.269.173c-.031.02-.062.041-.091.063l-.269.199a1.477 1.477 0 0 0-.07.055l-.268.224-.026.023-.013.012-.014.012-.268.247a2.179 2.179 0 0 0-.04.039l-.269.268-.011.012-.02.02-.268.287-.024.026-.268.303-.018.02-.268.316-.013.015-.269.327-.008.01-.269.334-.005.006-.27.341-.53.67-.005.007-.26.322-.257.314-.254.299-.248.28-.241.259-.233.234-.223.206-.208.174-.19.142-.164.106-.132.072-.092.039-.022.007-.072-.028-.118-.059-.153-.093-.18-.128-.203-.163-.217-.194-.23-.224-.238-.25-.246-.272-.252-.293-.256-.308-.26-.322-.263-.33-.003-.003-.534-.677-.272-.34-.008-.009-.268-.33-.011-.013-.269-.32-.015-.019-.269-.308-.01-.011-.01-.012-.27-.293a2.56 2.56 0 0 0-.027-.03l-.269-.276a1.797 1.797 0 0 0-.036-.036l-.269-.255a1.048 1.048 0 0 0-.048-.044l-.268-.233a1.386 1.386 0 0 0-.063-.052l-.268-.209a3.104 3.104 0 0 0-.083-.06l-.268-.182a1.79 1.79 0 0 0-.109-.069l-.268-.155a2.003 2.003 0 0 0-.142-.074l-.269-.125a2.109 2.109 0 0 0-.183-.076l-.268-.095a2.127 2.127 0 0 0-.23-.068l-.268-.064a2.202 2.202 0 0 0-.27-.049l-.27-.033a2.45 2.45 0 0 0-.296-.018l-.269-.001c-.1 0-.199.006-.297.017l-.269.031a2.437 2.437 0 0 0-.272.048l-.268.063c-.08.019-.157.041-.231.067l-.269.095a1.856 1.856 0 0 0-.185.075l-.268.124c-.05.023-.098.048-.144.074l-.269.154a1.794 1.794 0 0 0-.11.069l-.268.181c-.029.02-.057.04-.083.061l-.269.208a1.406 1.406 0 0 0-.063.052l-.269.232a1.01 1.01 0 0 0-.048.044l-.268.254-.038.037-.268.275a.518.518 0 0 0-.028.029l-.269.293a1.54 1.54 0 0 0-.021.024l-.269.307-.016.019-.268.319-.011.014-.269.329-.007.009-.268.336-.54.682-.002.003-.263.33-.26.322-.257.31-.251.293-.246.273-.24.251-.23.225-.217.195-.203.164-.182.13-.154.095-.12.06-.076.03-.02-.006-.09-.038-.13-.07-.163-.105-.188-.14-.208-.173-.222-.205-.233-.233-.24-.257-.249-.28-.253-.298-.258-.313-.261-.326-.803-1.013-.273-.34-.009-.011-.268-.327-.013-.015-.268-.316-.017-.02-.269-.303-.023-.026-.268-.288-.031-.031-.269-.269a2.137 2.137 0 0 0-.04-.039l-.268-.248a1.205 1.205 0 0 0-.052-.046l-.269-.226c-.022-.018-.045-.037-.069-.054l-.268-.201a3.37 3.37 0 0 0-.09-.063l-.269-.173a1.999 1.999 0 0 0-.119-.071l-.268-.145a1.886 1.886 0 0 0-.155-.075l-.269-.116a2.087 2.087 0 0 0-.198-.074l-.268-.085a2.4 2.4 0 0 0-.244-.063l-.269-.054a2.394 2.394 0 0 0-.282-.039l-.268-.022c-.1-.009-.2-.011-.3-.007l-.269.01a2.569 2.569 0 0 0-.292.028l-.268.042c-.959.15-1.563.818-1.35 1.491.213.674 1.163 1.099 2.122.949l.09-.014.031.01.092.04.132.071.165.106.189.142.208.175.222.205.234.234.241.259.248.28.254.299.258.314.261.326.803 1.014.005.006.269.334.008.011.269.326.013.015.268.316.018.02.268.303.024.026.268.287.031.032.268.268.022.021.019.018.268.247.053.047.269.224c.022.019.045.037.07.055l.268.199c.03.022.06.043.091.063l.269.173c.038.025.078.048.12.071l.268.144c.05.027.103.052.157.075l.269.115c.064.027.131.052.2.073l.268.084c.08.025.162.046.246.062l.268.053c.093.018.188.031.284.038l.268.021c.1.007.2.009.3.005l.27-.011c.097-.005.194-.014.29-.03l.268-.043a2.41 2.41 0 0 0 .258-.056l.269-.075c.073-.021.145-.045.213-.072l.269-.105c.058-.023.115-.049.169-.076l.268-.136c.045-.022.088-.047.13-.072l.269-.165c.034-.021.067-.042.099-.065l.268-.192c.026-.018.051-.037.075-.057l.269-.217.026-.022.031-.027.269-.241c.015-.014.03-.027.043-.041l.269-.263a.718.718 0 0 0 .033-.034l.269-.281a.493.493 0 0 0 .025-.028l.269-.298.012-.014.007-.008.268-.312.014-.017.269-.323.01-.012.268-.332.006-.008.268-.337.003-.004.532-.673.004-.005.261-.326.26-.318.254-.304.25-.286.243-.265.236-.241.226-.215.213-.184.195-.151.173-.117.142-.081.104-.049.044-.015.046.017.107.05.143.083.174.118.196.152.213.186.227.215.236.243.244.266.25.287.255.304.259.318.26.327.005.005.532.674.003.003.269.337.006.008.268.332.01.012.268.323.015.017.268.312.01.011.01.011.268.298.026.027.268.281.018.019.016.015.269.262.016.016.012.011.016.014.268.24.017.015.041.035.269.216c.024.02.05.039.076.057l.268.191c.032.023.066.045.1.066l.269.163c.042.026.086.05.132.073l.268.134c.055.028.112.053.17.076l.27.104c.069.027.14.051.215.071l.268.074c.084.023.171.041.26.055l.268.042c.096.015.194.025.292.028l.268.01c.1.004.201.002.3-.006l.27-.022c.095-.008.189-.022.281-.04l.269-.054c.083-.017.165-.038.244-.063l.268-.085c.068-.022.134-.046.198-.074l.269-.116a1.9 1.9 0 0 0 .155-.075l.268-.145c.041-.022.081-.046.12-.071l.267-.173.047-.032.044-.031.268-.201c.024-.017.047-.035.07-.054l.267-.225c.019-.015.036-.031.053-.047l.268-.248.02-.018.005-.005.015-.015.269-.27.03-.031.269-.288.023-.025.268-.304.01-.009.008-.011.268-.316.013-.015.268-.327.009-.01.268-.334.544-.687.261-.33.005-.006.26-.323.257-.313.253-.298.248-.28.241-.257.233-.233.222-.204.208-.174.188-.14.163-.105.13-.07.09-.038.02-.006.077.03.119.06.154.095.182.13.203.164.218.195.23.225.239.251.246.274.252.293.256.309.26.322.263.33.003.004.535.676.004.005.268.336.007.009.269.329.011.014.269.32.008.01.007.008.269.308.01.011.011.012.269.293.014.016.014.014.268.274.011.011.017.017.01.009.268.254c.585.555 1.698.672 2.488.261.789-.411.955-1.194.37-1.749l-.25-.236-.236-.242-.243-.265-.25-.286-.255-.304-.259-.317-.26-.327-.005-.005-.532-.673-.27-.341-.007-.007-.268-.332-.01-.012-.269-.324-.014-.017-.268-.312-.02-.022-.268-.298-.01-.011-.015-.017-.269-.281-.017-.018-.016-.016-.269-.263-.043-.041-.269-.241-.022-.019-.01-.009-.017-.014-.008-.006-.269-.218a2.905 2.905 0 0 0-.075-.057l-.268-.192a2.175 2.175 0 0 0-.1-.065l-.268-.165a2.202 2.202 0 0 0-.13-.072l-.268-.136a2.14 2.14 0 0 0-.17-.075l-.268-.106a2.096 2.096 0 0 0-.213-.071l-.269-.075a2.187 2.187 0 0 0-.258-.057l-.268-.043a2.55 2.55 0 0 0-.291-.029l-.268-.012Zm-25.706 32.909v49.874h7.866l15.492-19.265v-30.609h-23.358Zm-2.695 62.894 11.326 10.75v53.805h4.252v-56.195l-12.908-12.251-2.67 3.891Zm422.648 43.266v-6.387H-8.023v-13.72h353.39v-5.918H-8.023v-3.636h356.806v13.19H-4.607v6.448h353.39v13.659H-4.607v7.571H120.05v3.637H-8.023v-14.844h353.39ZM-26.126 173.942v5.917H13.5v13.721h-52.395v-3.637h48.979v-6.448h-39.626v-13.19H1.596v3.637h-27.722Zm689.38 14.543h16.178l10.326-18.235H673.58l-6.807 12.021-3.519 6.214Zm-193.269 113.5h-16.178l12.027-15.235h16.178l-12.027 15.235Zm5.553 0h16.177l12.027-15.235h-16.177l-12.027 15.235Zm37.912 0h-16.178l12.027-15.235h16.178l-12.027 15.235Zm5.553 0h16.177l12.027-15.235h-16.178l-12.026 15.235Zm37.908 0h-16.178l12.027-15.235h16.178l-12.027 15.235Zm5.556 0h38.408V286.75h-26.381l-12.027 15.235Zm79.791-113.5h16.178l10.326-18.235h-16.178l-6.807 12.021-3.519 6.214Zm-16.133 91.074h-16.178v-12.157h16.178v12.157Zm-15.754-78.071v42.825h13.487l16.699-16.906v-22.099h40.908v-3.823h-40.91v.003h-30.184Zm45.469 53.208h-43.77v1.611h44.95v-.223l.19.223 21.694-25.513-1.37-1.612-21.694 25.514Zm-203.731 51.5h146.987v1.611H452.109v-1.611Zm146.985 4.613H447.855v1.612h151.239v-1.612Zm-156.34 4.61h156.34v1.611h-156.34v-1.611Zm220.53-12.411c.1-.008.2-.009.3-.005l.269.011c.063.003.126.008.189.015l.102.015.268.043c.051.008.102.018.152.03l.106.026.269.075c.073.021.144.045.213.072l.269.105c.058.023.114.049.169.076l.268.136c.045.022.088.047.13.072l.268.165.015.008.019.013.02.013.013.009.033.022.268.192c.026.018.051.037.075.057l.269.217.022.019.013.011.013.011.009.008.268.241.044.041.269.263.033.034.269.281.025.028.269.298.003.004.016.018.268.312.014.017.269.323.009.012.269.332.006.008.271.341.532.673.004.005.261.326.259.318.255.304.25.286.243.265.236.241.25.237c.584.555.419 1.337-.371 1.748-.789.411-1.903.295-2.487-.26l-.269-.254-.037-.037-.268-.275-.014-.014-.015-.015-.268-.293-.011-.012-.01-.012-.269-.307-.007-.008-.009-.011-.268-.319-.011-.014-.269-.329-.007-.009-.269-.336-.004-.005-.534-.677-.003-.003-.263-.33-.26-.322-.257-.31-.251-.293-.247-.273-.239-.251-.23-.225-.218-.196-.202-.163-.182-.13-.154-.095-.12-.06-.076-.03-.019.006-.091.038-.13.07-.163.105-.189.14-.207.173-.222.205-.233.233-.241.257-.248.28-.253.298-.258.313-.259.322-.005.007-.262.33-.543.686-.268.334-.009.011-.268.327-.013.015-.268.316-.009.01-.009.01-.268.303-.023.026-.269.288-.03.031-.269.269a1.49 1.49 0 0 1-.04.039l-.268.248-.025.023-.01.009-.018.014-.268.226-.018.014-.008.007-.043.033-.268.201a1.607 1.607 0 0 1-.091.062l-.268.174a1.967 1.967 0 0 1-.119.071l-.268.145c-.05.027-.102.052-.155.075l-.269.116c-.064.028-.13.052-.198.074l-.269.085c-.079.025-.16.046-.243.063l-.269.054a1.9 1.9 0 0 1-.08.014l-.068.011-.074.009-.06.005-.268.022c-.1.009-.201.011-.301.007l-.268-.01a2.577 2.577 0 0 1-.292-.028l-.268-.042a1.452 1.452 0 0 1-.099-.018l-.056-.011-.061-.015-.044-.011-.269-.074a2.082 2.082 0 0 1-.215-.071l-.269-.104a2.371 2.371 0 0 1-.17-.076l-.269-.134a2.338 2.338 0 0 1-.131-.073l-.269-.163a1.727 1.727 0 0 1-.1-.066l-.268-.191-.043-.031-.033-.026-.269-.217a1.364 1.364 0 0 1-.058-.049l-.268-.24-.045-.041-.268-.262a.545.545 0 0 1-.034-.034l-.268-.281a.345.345 0 0 1-.026-.028l-.269-.297-.011-.014-.008-.008-.268-.312-.015-.017-.268-.323-.01-.012-.268-.332-.007-.008-.268-.337-.003-.004-.532-.673-.004-.005-.261-.327-.259-.318-.255-.304-.25-.287-.244-.266-.237-.243-.226-.215-.213-.186-.196-.153-.174-.118-.144-.083-.106-.049-.047-.017-.043.015-.104.049-.143.081-.172.117-.195.151-.213.184-.226.214-.236.242-.243.265-.25.286-.255.304-.259.317-.261.327-.004.005-.532.673-.003.003-.268.338-.006.007-.268.332-.01.012-.269.324-.014.017-.268.312-.008.009-.011.013-.269.298-.025.028-.269.281a1.074 1.074 0 0 1-.033.034l-.269.263-.013.013-.031.028-.268.241-.057.048-.269.218a2.444 2.444 0 0 1-.075.057l-.268.192-.043.029-.056.036-.269.165a2.299 2.299 0 0 1-.13.072l-.268.136a2.34 2.34 0 0 1-.169.075l-.269.106c-.069.027-.14.051-.213.071l-.269.075c-.084.024-.17.043-.258.057l-.268.043a2.56 2.56 0 0 1-.291.029l-.268.012c-.053.002-.105.003-.158.002l-.059-.002-.084-.005-.268-.021-.089-.008-.102-.014a3.012 3.012 0 0 1-.093-.016l-.268-.053a2.212 2.212 0 0 1-.246-.062l-.268-.084a1.925 1.925 0 0 1-.201-.074l-.268-.114-.063-.029a1.059 1.059 0 0 1-.068-.033l-.026-.013-.268-.145a.905.905 0 0 1-.075-.042l-.028-.017-.017-.011-.269-.173-.012-.008-.027-.018-.026-.018-.026-.019-.269-.199a1.28 1.28 0 0 1-.069-.055l-.269-.224-.021-.019a.8.8 0 0 1-.032-.028l-.268-.247-.022-.021-.019-.018-.268-.269-.014-.013-.017-.019-.268-.286-.01-.01-.014-.016-.268-.303-.018-.02-.268-.316-.013-.015-.269-.327-.008-.01-.269-.334-.005-.006-.803-1.015-.261-.325-.258-.314-.254-.299-.248-.28-.241-.259-.234-.234-.222-.206-.208-.174-.189-.142-.165-.106-.132-.072-.092-.039-.031-.01-.09.014c-.959.15-1.909-.275-2.122-.949-.214-.674.391-1.341 1.35-1.491l.268-.042c.096-.015.194-.025.292-.028l.268-.01c.038-.002.075-.002.112-.002.063 0 .126.003.189.008l.268.022c.095.008.19.021.282.04l.269.054c.034.007.068.014.101.023a1.912 1.912 0 0 1 .142.04l.269.085c.039.012.078.026.115.04l.042.017a.503.503 0 0 1 .041.017l.269.116a1.476 1.476 0 0 1 .155.075l.268.145.019.011a.786.786 0 0 1 .1.06l.268.173c.032.02.062.041.091.063l.268.201a.912.912 0 0 1 .069.054l.268.225.014.012.014.012.009.008.016.015.268.248.021.019.019.019.269.27.016.016.014.015.269.288.023.025.268.304.018.02.268.316.013.015.268.327.009.01.273.341.803 1.013.261.326.258.313.253.298.248.28.241.257.233.233.222.204.207.174.189.14.163.105.13.07.091.038.019.006.076-.03.12-.061.154-.094.182-.13.202-.164.218-.195.23-.225.239-.251.247-.274.251-.293.257-.309.26-.322.263-.33.003-.004.538-.681.269-.336.007-.009.269-.329.011-.014.268-.32.016-.018.269-.308.021-.024.269-.292.028-.03.268-.274.037-.037.269-.254a.383.383 0 0 1 .029-.028l.019-.016.269-.233.063-.052.269-.208.083-.06.268-.182c.036-.023.072-.046.11-.068l.269-.154a1.58 1.58 0 0 1 .082-.044l.061-.03.269-.125c.059-.027.121-.052.185-.075l.268-.094c.075-.026.152-.049.231-.067l.269-.063c.048-.011.096-.021.145-.03l.065-.01.062-.008.269-.031c.098-.012.197-.017.297-.017l.269.001c.099 0 .199.006.297.018l.268.033c.092.011.183.027.271.048l.268.065c.079.019.155.041.229.068l.269.095.062.023c.041.016.082.034.121.052l.269.126c.049.023.096.048.142.074l.268.155c.038.022.074.045.109.068l.268.183a1.001 1.001 0 0 1 .083.06l.268.209a1.01 1.01 0 0 1 .063.052l.268.233a.677.677 0 0 1 .048.044l.269.255.017.017.009.009.01.01.269.276.012.013.016.016.268.293.011.013.01.011.269.308.015.018.269.32.011.014.268.33.008.009.272.34.534.676.003.004.262.33.261.322.256.308.252.292.246.273.238.25.23.223.217.195.202.162.181.129.153.093.118.059.072.028.022-.007.092-.04.132-.071.164-.106.19-.142.208-.175.222-.205.234-.234.241-.259.248-.28.254-.299.258-.314.259-.323.005-.006.53-.67.27-.341.005-.006.269-.334.008-.011.269-.326.013-.015.268-.316.018-.021.268-.302.009-.011.014-.015.269-.287.012-.012.019-.02.268-.268.023-.023.018-.016.268-.247.014-.013.039-.034.269-.224a1.28 1.28 0 0 1 .069-.055l.269-.199.017-.013.012-.008.012-.009c.016-.011.033-.023.05-.033l.268-.173c.039-.025.079-.048.121-.071l.268-.144.026-.013.028-.015.051-.024.052-.023.268-.115c.03-.012.061-.025.092-.036.036-.013.072-.026.109-.037l.268-.084c.08-.025.162-.046.246-.062l.268-.053c.093-.018.188-.031.284-.038l.268-.021Zm-47.554 10.727c2.759 0 4.996-2.63 4.996-5.875s-2.237-5.875-4.996-5.875c-2.759 0-4.996 2.63-4.996 5.875s2.237 5.875 4.996 5.875Zm366.246-49.332h175.344v6H981.976v-6Zm-422.05-138.351h-3v45h-89.684v6h89.684v5h-89.684v6h95.684v-32.5h77.354v-6h-77.354v-5.485h209.573v-6H562.926v-6.015h77.354v-6h-80.354Zm10.201 62h56.971v-24.25h-56.971v24.25Zm-22.377 42.261h14.18V210.59h-14.18v19.723Zm-158.791 82.11h42.994v-48h-42.994v28.571h-28.663v19.429h28.663Zm142.58-40.34H479.67V245.359l23.384-29h28.485v55.724Zm57.742-28.692h-20.339v-35.082H468.891v-6h119.043v.176h1.347v40.906Zm-238.172 69.032H138.531v-6h212.578v6Zm193.774-55.239h46.767v-6h-46.767v6Zm46.767 14h-46.767v-6h46.767v6Z" clip-rule="evenodd" opacity=".25"/><path stroke="#8F8E93" stroke-linejoin="round" stroke-width="2" d="M35 6h-50.785l-16.652 22.032H-77v216.32l18.226 15.492M34.5 232.733H-.995m0 0h-31.443m31.443 0-22.037 27.111h-35.742m0 0v59.157m766.274-313h-30m0 0-37 20.5h-35.036v111M677.5 6.001h-37m61 113.5H656l-19 18h-31.536m0 106.851V137.501M1192 319.001H605.464v-181.5M1336 282.95h-210l-31 36.051"/><path fill="url(#c)" fill-rule="evenodd" d="M516.414 692.735H343.557l17.856-24.092h155.001v24.092Zm-207.621-77.859h34.551v-16.597h-35.401l.85 16.597Zm21.405-50.864H538.52v-25.698H330.198v25.698Zm23.56 21.684h-23.955v-16.597h23.955v16.597Zm29.761 29.18H538.52v-24.092H383.519v24.092ZM37.352 681.591h257.375v-13.098H34.352V644.4h263.375v6H40.352v12.093h260.375v25.098H37.352v-6Zm280.62-54.192h175.344v6H317.972v-6ZM538.52 505.333H327.718v6H538.52v-6ZM369.359 614.876v-38.871H541v6H375.359v32.871h-6ZM538.52 487.13H327.718v6H538.52v-6Zm-210.802-17.129H538.52v6H327.718v-6ZM-736.52 516.485H-751l3.15 4.771 6.093 9.229h14.48l-9.243-14Zm18.793 0h-14.48l3.15 4.771 6.093 9.229h14.48l-9.243-14Zm2.5 173.45V647.11h13.488l16.698 16.906v25.919h-30.186Zm43.204-59.301v10.203h7.44v-6.175l-4.116-4.028h-3.324Zm11.691 10.203v-10.203h3.324l4.116 4.028v6.175h-7.44Zm11.691-10.203v10.203h7.441v-6.175l-4.116-4.028h-3.325Zm-39.364 5.103-.19-.223v.223h-32.832v-1.611h31.652l15.982-18.796 1.37 1.611-15.982 18.796Zm-24.875-98.035a2.745 2.745 0 0 0-.301.005l-.268.021c-.096.007-.191.02-.284.038l-.268.053a2.212 2.212 0 0 0-.246.062l-.268.084a1.828 1.828 0 0 0-.2.074l-.269.114a2.06 2.06 0 0 0-.157.075l-.268.145a1.397 1.397 0 0 0-.12.07l-.269.173c-.031.02-.062.041-.091.063l-.269.199a1.28 1.28 0 0 0-.069.055l-.269.224-.026.023-.013.012-.014.012-.268.247-.041.039-.268.268-.011.012-.02.02-.268.287-.024.026-.268.303-.018.02-.268.316-.013.015-.269.327-.008.01-.269.334-.005.006-.27.341-.53.67-.005.007-.259.322-.258.314-.254.299-.248.28-.241.259-.234.234-.222.206-.208.174-.189.142-.165.106-.132.072-.092.039-.022.007-.072-.028-.118-.059-.153-.093-.181-.128-.202-.163-.217-.194-.23-.224-.238-.25-.246-.272-.252-.293-.256-.308-.26-.322-.263-.33-.003-.003-.534-.677-.272-.34-.008-.009-.268-.33-.011-.013-.269-.32-.015-.019-.269-.308-.01-.011-.011-.012-.268-.293-.028-.03-.269-.276-.036-.036-.269-.255a.677.677 0 0 0-.048-.044l-.268-.233a1.088 1.088 0 0 0-.063-.052l-.268-.209a2.984 2.984 0 0 0-.083-.06l-.268-.182a1.684 1.684 0 0 0-.109-.069l-.268-.155a2.113 2.113 0 0 0-.142-.074l-.269-.125a2.129 2.129 0 0 0-.183-.076l-.268-.095a2.161 2.161 0 0 0-.229-.068l-.269-.064a2.194 2.194 0 0 0-.271-.049l-.268-.033a2.454 2.454 0 0 0-.297-.018l-.269-.001c-.099 0-.199.006-.297.017l-.269.031a2.454 2.454 0 0 0-.272.048l-.269.063a2.357 2.357 0 0 0-.23.067l-.269.095a1.882 1.882 0 0 0-.185.075l-.268.124c-.05.023-.098.048-.144.074l-.269.154a1.684 1.684 0 0 0-.109.069l-.269.181c-.029.02-.056.04-.083.061l-.269.208a1.088 1.088 0 0 0-.063.052l-.269.232-.048.044-.269.254-.037.037-.268.275a.383.383 0 0 0-.028.029l-.269.293-.021.024-.269.307-.015.019-.269.319-.011.014-.269.329-.007.009-.268.336-.539.682-.003.003-.263.33-.26.322-.256.31-.252.293-.246.273-.239.251-.23.225-.218.195-.203.164-.182.13-.154.095-.119.06-.077.03-.019-.006-.09-.038-.131-.07-.163-.105-.188-.14-.208-.173-.222-.205-.233-.233-.241-.257-.248-.28-.253-.298-.258-.313-.261-.326-.803-1.013-.273-.34-.009-.011-.268-.327-.013-.015-.268-.316-.017-.02-.269-.303a.285.285 0 0 0-.023-.026l-.269-.288a.863.863 0 0 0-.03-.031l-.269-.269-.04-.039-.268-.248a1.138 1.138 0 0 0-.052-.046l-.269-.226c-.022-.018-.045-.037-.069-.054l-.268-.201a3.507 3.507 0 0 0-.09-.063l-.269-.173a1.967 1.967 0 0 0-.119-.071l-.268-.145a2.015 2.015 0 0 0-.155-.075l-.269-.116a2.123 2.123 0 0 0-.198-.074l-.268-.085a2.422 2.422 0 0 0-.244-.063l-.269-.054a2.363 2.363 0 0 0-.282-.039l-.268-.022c-.1-.009-.2-.011-.301-.007l-.268.01a2.577 2.577 0 0 0-.292.028l-.268.042c-.959.15-1.563.818-1.35 1.491.213.674 1.163 1.099 2.122.949l.091-.014.03.01.092.04.132.071.165.106.189.142.208.175.223.205.233.234.241.259.248.28.254.299.258.314.261.326.803 1.014.005.006.269.334.009.011.268.326.013.015.268.316.018.02.268.303.024.026.268.287a.95.95 0 0 1 .031.032l.268.268a.447.447 0 0 1 .022.021l.019.018.268.247.053.047.269.224c.022.019.045.037.069.055l.269.199c.029.022.06.043.091.063l.269.173c.038.025.078.048.12.071l.268.144c.051.027.103.052.157.075l.269.115c.064.027.131.052.2.073l.268.084c.08.025.162.046.246.062l.268.053c.093.018.188.031.284.038l.268.021c.1.007.2.009.301.005l.268-.011c.098-.005.195-.014.291-.03l.268-.043c.088-.014.175-.033.258-.056l.269-.075c.073-.021.145-.045.213-.072l.269-.105c.058-.023.114-.049.169-.076l.268-.136c.045-.022.089-.047.13-.072l.269-.165c.034-.021.067-.042.099-.065l.268-.192c.026-.018.051-.037.075-.057l.269-.217.027-.022.03-.027.269-.241.043-.041.269-.263.033-.034.269-.281.025-.028.269-.298.012-.014.007-.008.268-.312.014-.017.269-.323.01-.012.268-.332.006-.008.269-.337.002-.004.532-.673.004-.005.261-.326.259-.318.255-.304.25-.286.243-.265.236-.241.226-.215.213-.184.195-.151.173-.117.142-.081.104-.049.044-.015.046.017.107.05.143.083.174.118.196.152.213.186.226.215.237.243.244.266.25.287.255.304.259.318.261.327.004.005.532.674.003.003.268.337.007.008.268.332.01.012.268.323.015.017.268.312.01.011.01.011.268.298a.65.65 0 0 0 .026.027l.268.281.018.019.016.015.269.262.016.016a.12.12 0 0 1 .012.011l.016.014.268.24.017.015.041.035.269.216c.024.02.05.039.076.057l.268.191c.033.023.066.045.101.066l.268.163c.042.026.086.05.132.073l.268.134c.055.028.112.053.171.076l.268.104c.07.027.142.051.216.071l.268.074c.084.023.171.041.26.055l.268.042c.096.015.194.025.292.028l.268.01c.101.004.201.002.301-.006l.268-.022c.096-.008.19-.022.282-.04l.269-.054c.083-.017.165-.038.244-.063l.268-.085c.068-.022.134-.046.198-.074l.269-.116c.053-.023.105-.048.155-.075l.268-.145c.041-.022.081-.046.119-.071l.269-.173.046-.032.044-.031.268-.201a.912.912 0 0 0 .069-.054l.269-.225a1.16 1.16 0 0 0 .052-.047l.268-.248.02-.018.005-.005.015-.015.269-.27.03-.031.269-.288.023-.025.269-.304.008-.009.009-.011.268-.316.013-.015.268-.327.009-.01.268-.334.544-.687.261-.33.005-.006.259-.323.258-.313.253-.298.248-.28.241-.257.233-.233.222-.204.208-.174.188-.14.163-.105.13-.07.091-.038.019-.006.076.03.12.06.154.095.182.13.203.164.218.195.23.225.239.251.246.274.251.293.257.309.261.322.262.33.003.004.535.676.004.005.268.336.007.009.269.329.011.014.269.32.008.01.007.008.269.308.01.011.011.012.269.293.014.016.014.014.268.274.011.011.017.017.009.009.269.254c.585.555 1.698.672 2.488.261.789-.411.954-1.194.37-1.749l-.25-.236-.236-.242-.243-.265-.25-.286-.255-.304-.259-.317-.261-.327-.004-.005-.532-.673-.271-.341-.006-.007-.268-.332-.01-.012-.269-.324-.014-.017-.268-.312-.019-.022-.269-.298-.01-.011-.015-.017-.269-.281-.017-.018-.016-.016-.269-.263-.043-.041-.269-.241-.022-.019-.01-.009-.017-.014-.008-.006-.269-.218a2.444 2.444 0 0 0-.075-.057l-.268-.192a2.418 2.418 0 0 0-.099-.065l-.269-.165a2.299 2.299 0 0 0-.13-.072l-.268-.136a2.34 2.34 0 0 0-.169-.075l-.269-.106a2.045 2.045 0 0 0-.213-.071l-.269-.075a2.192 2.192 0 0 0-.258-.057l-.268-.043a2.56 2.56 0 0 0-.291-.029l-.268-.012Zm-25.706 32.909v49.874h7.866l15.492-19.265v-30.609h-23.358Zm-2.695 62.894 11.326 10.75v53.805h4.251v-56.195l-12.907-12.251-2.67 3.891Zm422.648 43.266v-6.387h-353.39v-13.72h353.39v-5.918h-353.39v-3.636h356.806v13.19h-353.39v6.448h353.39v13.659h-353.39v7.571h124.657v3.637h-128.073v-14.844h353.39Zm-371.493-122.829v5.917h39.626v13.721h-52.395v-3.637h48.979v-6.448h-39.626v-13.19h31.138v3.637h-27.722Zm689.38 14.543h16.178l10.326-18.235H9.58l-6.807 12.021-3.519 6.214Zm-193.269 113.5h-16.178l12.027-15.235h16.178l-12.027 15.235Zm5.553 0h16.177l12.027-15.235h-16.177l-12.027 15.235Zm37.912 0h-16.178l12.027-15.235h16.178l-12.027 15.235Zm5.553 0h16.177l12.027-15.235h-16.178l-12.026 15.235Zm37.908 0h-16.178l12.027-15.235h16.177l-12.026 15.235Zm5.556 0h38.408V666.75h-26.381l-12.027 15.235Zm79.79-113.5h16.179L4.762 550.25h-16.178l-6.807 12.021-3.52 6.214Zm-16.132 91.074h-16.178v-12.157h16.178v12.157Zm-15.754-78.071v42.825h13.487l16.7-16.906v-22.099h40.907v-3.823h-40.91v.003H-53.63Zm45.469 53.208h-43.77v1.611h44.95v-.223l.19.223 21.694-25.513-1.37-1.612-21.694 25.514Zm-203.731 51.5h146.987v1.611h-146.987v-1.611Zm146.985 4.613h-151.239v1.612h151.239v-1.612Zm-156.34 4.61h156.34v1.611h-156.34v-1.611Zm220.53-12.411c.1-.008.2-.009.3-.005l.269.011c.063.003.126.008.189.015l.102.015.268.043a3.452 3.452 0 0 1 .258.056l.269.075c.073.021.144.045.213.072l.269.105c.058.023.114.049.169.076l.268.136c.045.022.088.047.13.072l.268.165.015.008.02.013.02.013.012.009.033.022.268.192c.026.018.051.037.075.057l.269.217.022.019.013.011.013.011.009.008.268.241.044.041.269.263a.69.69 0 0 1 .033.034l.269.281a.534.534 0 0 1 .025.028l.269.298.003.004.016.018.268.312.014.017.269.323.01.012.268.332.006.008.271.341.532.673.004.005.261.326.26.318.254.304.25.286.243.265.236.241.25.237c.584.555.419 1.337-.37 1.748-.79.411-1.904.295-2.488-.26l-.269-.254-.037-.037-.268-.275-.014-.014-.015-.015-.268-.293-.011-.012-.01-.012-.269-.307-.007-.008-.009-.011-.268-.319-.011-.014-.269-.329-.007-.009-.269-.336-.004-.005-.534-.677-.003-.003-.263-.33-.26-.322-.257-.31-.251-.293-.247-.273-.239-.251-.23-.225-.218-.196-.202-.163-.182-.13-.154-.095-.12-.06-.076-.03-.02.006-.09.038-.13.07-.163.105-.189.14-.207.173-.222.205-.233.233-.241.257-.248.28-.253.298-.258.313-.259.322-.005.007-.262.33-.543.686-.268.334-.009.011-.268.327-.013.015-.268.316-.009.01-.009.01-.268.303a.452.452 0 0 1-.023.026l-.269.288-.03.031-.269.269a2.452 2.452 0 0 1-.04.039l-.268.248a.453.453 0 0 1-.025.023l-.01.009-.018.014-.268.226-.018.014-.008.007a2.92 2.92 0 0 1-.043.033l-.268.201a2.01 2.01 0 0 1-.09.062l-.269.174a2.028 2.028 0 0 1-.119.071l-.268.145c-.05.027-.102.052-.155.075l-.269.116c-.064.028-.13.052-.198.074l-.269.085c-.079.025-.16.046-.243.063l-.269.054a2.132 2.132 0 0 1-.148.025 82.508 82.508 0 0 1-.134.014l-.268.022c-.1.009-.2.011-.3.007l-.27-.01a2.57 2.57 0 0 1-.291-.028l-.268-.042a1.641 1.641 0 0 1-.155-.029l-.06-.015-.045-.011-.269-.074a2.133 2.133 0 0 1-.215-.071l-.269-.104a2.188 2.188 0 0 1-.17-.076l-.269-.134a2.225 2.225 0 0 1-.131-.073l-.269-.163a1.576 1.576 0 0 1-.1-.066l-.268-.191-.043-.031-.033-.026-.269-.217a1.252 1.252 0 0 1-.058-.049l-.268-.24a.903.903 0 0 1-.045-.041l-.268-.262a.68.68 0 0 1-.034-.034l-.268-.281a.497.497 0 0 1-.026-.028l-.268-.297-.012-.014-.008-.008-.268-.312-.015-.017-.268-.323-.01-.012-.268-.332-.007-.008-.268-.337-.003-.004-.533-.673-.003-.005-.261-.327-.26-.318-.255-.304-.25-.287-.243-.266-.237-.243-.226-.215-.213-.186-.197-.153-.173-.118-.144-.083-.106-.049-.047-.017-.043.015-.104.049-.143.081-.172.117-.195.151-.213.184-.226.214-.236.242-.243.265-.25.286-.255.304-.259.317-.26.327-.005.005-.532.673-.003.003-.268.338-.006.007-.268.332-.01.012-.269.324-.014.017-.268.312-.008.009-.011.013-.269.298-.025.028-.269.281a.718.718 0 0 1-.033.034l-.269.263-.013.013-.03.028-.269.241a2.238 2.238 0 0 1-.057.048l-.269.218-.075.057-.268.192-.043.029a3.977 3.977 0 0 1-.056.036l-.269.165a2.267 2.267 0 0 1-.13.072l-.268.136c-.055.027-.111.052-.17.075l-.268.106a2.09 2.09 0 0 1-.213.071l-.269.075c-.084.024-.17.043-.258.057l-.268.043a2.55 2.55 0 0 1-.291.029l-.269.012c-.052.002-.104.003-.157.002l-.059-.002-.084-.005-.268-.021a2.584 2.584 0 0 1-.284-.038l-.268-.053a2.196 2.196 0 0 1-.246-.062l-.268-.084a1.88 1.88 0 0 1-.2-.074l-.269-.114a1.402 1.402 0 0 1-.13-.062l-.027-.013-.268-.145a1.077 1.077 0 0 1-.075-.042l-.028-.017-.017-.011-.269-.173-.012-.008-.027-.018a1.952 1.952 0 0 1-.052-.037l-.269-.199a1.53 1.53 0 0 1-.07-.055l-.268-.224-.021-.019a.586.586 0 0 1-.032-.028l-.268-.247-.022-.021-.019-.018-.268-.269-.014-.013-.017-.019-.268-.286-.01-.01-.014-.016-.268-.303-.018-.02-.268-.316-.013-.015-.269-.327-.008-.01-.269-.334-.005-.006-.803-1.015-.261-.325-.258-.314-.254-.299-.248-.28-.241-.259-.234-.234-.222-.206-.208-.174-.19-.142-.164-.106-.132-.072-.092-.039-.03-.01-.091.014c-.96.15-1.91-.275-2.122-.949-.214-.674.39-1.341 1.35-1.491l.268-.042c.096-.015.194-.025.292-.028l.268-.01c.038-.002.075-.002.112-.002.063 0 .126.003.189.008l.268.022c.095.008.19.021.282.04l.269.054a1.707 1.707 0 0 1 .173.042.874.874 0 0 1 .07.021l.269.085c.04.012.078.026.116.04l.041.017a.675.675 0 0 1 .041.017l.269.116a1.19 1.19 0 0 1 .155.075l.268.145.02.011a1.161 1.161 0 0 1 .1.06l.267.173c.032.02.062.041.09.063l.27.201a.996.996 0 0 1 .068.054l.268.225.014.012.014.012.009.008.016.015.268.248.02.019.02.019.269.27.016.016.014.015.269.288.023.025.268.304.018.02.268.316.013.015.268.327.009.01.273.341.803 1.013.261.326.258.313.253.298.248.28.241.257.233.233.222.204.207.174.189.14.163.105.13.07.09.038.02.006.076-.03.12-.061.154-.094.182-.13.202-.164.219-.195.23-.225.238-.251.247-.274.251-.293.257-.309.26-.322.263-.33.003-.004.538-.681.269-.336.007-.009.269-.329.011-.014.268-.32.016-.018.269-.308.021-.024.269-.292.028-.03.268-.274a.76.76 0 0 1 .037-.037l.269-.254.03-.028.018-.016.269-.233.063-.052.268-.208.084-.06.268-.182c.036-.023.072-.046.11-.068l.269-.154a2.073 2.073 0 0 1 .143-.074l.269-.125c.06-.027.121-.052.185-.075l.268-.094c.075-.026.152-.049.231-.067l.269-.063c.048-.011.096-.021.145-.03l.065-.01.062-.008.269-.031c.098-.012.197-.017.297-.017l.269.001c.1 0 .199.006.297.018l.268.033c.092.011.183.027.271.048l.268.065c.079.019.155.041.23.068l.268.095.062.023c.041.016.082.034.121.052l.268.126c.05.023.097.048.143.074l.268.155c.038.022.074.045.109.068l.268.183a2.547 2.547 0 0 1 .083.06l.268.209a2.02 2.02 0 0 1 .063.052l.268.233a1 1 0 0 1 .048.044l.269.255.017.017.01.009.01.01.268.276.012.013.016.016.268.293.011.013.01.011.269.308.015.018.269.32.01.014.27.33.007.009.272.34.534.676.003.004.262.33.26.322.257.308.252.292.245.273.24.25.229.223.217.195.202.162.18.129.154.093.118.059.072.028.022-.007.092-.04.132-.071.164-.106.19-.142.208-.175.222-.205.234-.234.241-.259.248-.28.254-.299.258-.314.259-.323.005-.006.53-.67.27-.341.005-.006.269-.334.008-.011.269-.326.013-.015.268-.316.018-.021.268-.302.01-.011.013-.015.269-.287.012-.012.019-.02.268-.268.023-.023.018-.016.268-.247.014-.013a.766.766 0 0 1 .04-.034l.268-.224c.022-.019.045-.037.07-.055l.268-.199.017-.013.012-.008.012-.009c.016-.011.033-.023.05-.033l.268-.173c.04-.025.08-.048.12-.071l.27-.144.025-.013.028-.015a6.457 6.457 0 0 1 .103-.047l.268-.115c.03-.012.061-.025.092-.036.036-.013.072-.026.109-.037l.268-.084c.08-.025.162-.046.246-.062l.268-.053c.093-.018.188-.031.284-.038l.268-.021Zm-47.554 10.727c2.759 0 4.995-2.63 4.995-5.875s-2.236-5.875-4.995-5.875c-2.76 0-4.996 2.63-4.996 5.875s2.237 5.875 4.996 5.875Zm366.246-49.332H493.32v6H317.976v-6Zm-422.05-138.351h-3v45h-89.684v6h89.684v5h-89.684v6h95.684v-32.5h77.354v-6h-77.354v-5.485h209.573v-6h-209.573v-6.015h77.354v-6h-80.354Zm10.2 62h56.972v-24.25h-56.971v24.25Zm-22.376 42.261h14.18V590.59h-14.18v19.723Zm-158.791 82.11h42.994v-48h-42.994v28.571h-28.663v19.429h28.663Zm142.58-40.34h-51.869V625.359l23.384-29h28.485v55.724Zm57.742-28.692h-20.339v-35.082h-100.051v-6h119.043v.176h1.347v40.906Zm-238.172 69.032h-212.578v-6h212.578v6Zm193.774-55.239h46.767v-6h-46.767v6Zm46.767 14h-46.767v-6h46.767v6Z" clip-rule="evenodd" opacity=".25"/><path stroke="#8F8E93" stroke-linejoin="round" stroke-width="2" d="M43.497 386.001h-30m0 0-37 20.5h-35.036v111m72.036-131.5h-37m61 113.5h-45.5l-19 18h-31.536m0 106.851V517.501m586.536 181.5H-58.539v-181.5M671.997 662.95h-210l-31 36.051"/><path stroke="#8F8E93" stroke-width="2" d="M305 672.626H116.623L91.296 649.4m0 0H-57.71l.363-25.986H6.55l11.088-16.632h52.67M91.295 649.4H164.5M-77 107h69l24.5 12.5h29M16.5 119.5h-40"/><circle cx="47.027" cy="8.028" r="6" fill="#000" transform="rotate(-90.26 47.027 8.028)"/><circle cx="40.027" cy="6.028" r="5.5" fill="#F0EFED" stroke="#000" transform="rotate(-90.26 40.027 6.028)"/><circle cx="47.027" cy="234.027" r="6" fill="#000" transform="rotate(-90.26 47.027 234.027)"/><circle cx="40.027" cy="232.027" r="5.5" fill="#F0EFED" stroke="#000" transform="rotate(-90.26 40.027 232.027)"/><circle cx="47.027" cy="387.027" r="6" fill="#000" transform="rotate(-90.26 47.027 387.027)"/><circle cx="40.027" cy="385.027" r="5.5" fill="#F0EFED" stroke="#000" transform="rotate(-90.26 40.027 385.027)"/><circle cx="47.027" cy="501.027" r="6" fill="#000" transform="rotate(-90.26 47.027 501.027)"/><circle cx="40.027" cy="499.027" r="5.5" fill="#F0EFED" stroke="#000" transform="rotate(-90.26 40.027 499.027)"/><circle cx="47.027" cy="121.027" r="6" fill="#000" transform="rotate(-90.26 47.027 121.027)"/><circle cx="40.027" cy="119.027" r="5.5" fill="#F0EFED" stroke="#000" transform="rotate(-90.26 40.027 119.027)"/></g><defs><linearGradient id="b" x1="1140" x2="1142.35" y1="318.059" y2="78.566" gradientUnits="userSpaceOnUse"><stop stop-color="#F1EFED"/><stop offset=".503" stop-color="#A9A5A4" stop-opacity=".07"/><stop offset="1" stop-color="#F1EFED"/></linearGradient><linearGradient id="c" x1="475.998" x2="478.35" y1="698.059" y2="458.566" gradientUnits="userSpaceOnUse"><stop stop-color="#F1EFED"/><stop offset=".503" stop-color="#A9A5A4" stop-opacity=".07"/><stop offset="1" stop-color="#F1EFED"/></linearGradient><clipPath id="a"><path fill="#fff" d="M0 0h375v699H0z"/></clipPath></defs></svg>
