<svg xmlns="http://www.w3.org/2000/svg" width="1681" height="439" fill="none" viewBox="0 0 1681 439"><path stroke="#8F8E93" stroke-linejoin="round" stroke-width="2" d="M208.533 93h-56.785l-16.652 30.031H76.533v116.16m135.5 79.541h-39.494m0 0h-31.443m31.443 0v27.112h-57.78m0 0H76.533V239.191m38.226 106.653V418H607.507M879.033 93H778.997v43H793.6v52h-14.603v46.5m96.036-28h-45.5l-19 28h-31.536M1402.53 364l-284.26-3.949L1098.53 383h-61m-430.023 35 29.206 20h142.284l29.206-20h21.33m-222.026 0h69.026m102.464-183.5V318H793.6l35.933.732v41.319m806.997-32.102h-300l-31.75 34.693M76.533 239.191l50.016-.467m23.953-.224-23.953.224m0 0V205.5h85.484m639 212.5h-21.5m207.997-35v25.051h151m-151-25.051h-63.997m284.997 25.051h-70m0 0 25 26h202M829.533 418v-57.949m144 22.949-19.734-22.949H829.533m144 22.949h-61"/><path fill="#000" d="M886.029 88.271a5.864 5.864 0 1 0-.053 11.729 5.865 5.865 0 0 0 .053-11.729Z"/><path fill="#F0EFED" stroke="#000" stroke-width=".977" d="M873.813 91.84a5.375 5.375 0 1 1 10.75.048 5.375 5.375 0 0 1-10.75-.048Z"/><path fill="#000" d="M885.705 201.271a5.864 5.864 0 0 0-5.891 5.838 5.864 5.864 0 1 0 11.728.053 5.864 5.864 0 0 0-5.837-5.891Z"/><path fill="#F0EFED" stroke="#000" stroke-width=".977" d="M873.489 204.84a5.375 5.375 0 0 1 5.4-5.351 5.375 5.375 0 0 1 5.351 5.4 5.375 5.375 0 0 1-5.4 5.351 5.375 5.375 0 0 1-5.351-5.4Z"/><path fill="#000" d="M220.029 88.271a5.864 5.864 0 1 0-.053 11.729 5.865 5.865 0 0 0 .053-11.729Z"/><path fill="#F0EFED" stroke="#000" stroke-width=".977" d="M207.813 91.84a5.375 5.375 0 1 1 10.75.048 5.375 5.375 0 0 1-10.75-.048Z"/><path fill="#000" d="M219.705 201.271a5.864 5.864 0 0 0-5.891 5.838 5.864 5.864 0 1 0 11.728.053 5.864 5.864 0 0 0-5.837-5.891Z"/><path fill="#F0EFED" stroke="#000" stroke-width=".977" d="M207.489 204.84a5.375 5.375 0 0 1 5.4-5.351 5.375 5.375 0 0 1 5.351 5.4 5.375 5.375 0 0 1-5.4 5.351 5.375 5.375 0 0 1-5.351-5.4Z"/><path fill="#000" d="M219.705 314.271a5.864 5.864 0 0 0-5.891 5.838 5.864 5.864 0 1 0 11.728.053 5.864 5.864 0 0 0-5.837-5.891Z"/><path fill="#F0EFED" stroke="#000" stroke-width=".977" d="M207.489 317.84a5.375 5.375 0 0 1 5.4-5.351 5.375 5.375 0 0 1 5.351 5.4 5.375 5.375 0 0 1-5.4 5.351 5.375 5.375 0 0 1-5.351-5.4Z"/><path fill="url(#a)" d="M86.533 361.998h16v57h-16v-57Z"/><path fill="url(#b)" d="M141.783 255.901h5.5v57h-5.5v-57Z"/><path fill="url(#c)" d="M172.783 255.303h5.5v57h-5.5v-57Z"/><path fill="url(#d)" d="M182.783 255.303h3.25v57h-3.25v-57Z"/><path fill="url(#e)" d="M151.533 255.901h13v57h-13v-57Z"/><path fill="url(#f)" d="M92.033 321.999h16v18.804h-16v-18.804Z"/><path fill="url(#g)" d="M131.283 233.803h16v-22.804h-16v22.804Z"/><path fill="url(#h)" d="M92.033 288.999h24l11-16v-28.805h-35v44.805Z"/><path fill="url(#i)" d="M108.033 334.999h56.5v5.804h-56.5v-5.804Z"/><path fill="url(#j)" d="M119.033 354.401h59.5v-27h7.5v34.804h-67v-7.804Z"/><path fill="url(#k)" d="M119.033 365.998h59.5v-27h7.5v34.805h-67v-7.805Z"/><path fill="url(#l)" d="M119.033 378.623h59.5v-27h7.5v34.805h-67v-7.805Z"/><path fill="url(#m)" d="M147.283 216.249h56.5v-5.25h-56.5v5.25Z"/><path fill="url(#n)" d="M58.283 207.525h56.5v-4.999h-56.5v4.999Z"/><path fill="url(#o)" d="M58.283 213.077h56.5v-2.079h-56.5v2.079Z"/><path fill="url(#p)" d="M58.283 233.803h56.5v-16.078h-56.5v16.078Z"/><path fill="url(#q)" d="M160.534 400.151h15.144l-13.251 12.304h-15.144l13.251-12.304Z"/><path fill="url(#r)" d="M182.778 400.151h15.144l-13.251 12.304h-15.144l13.251-12.304Z"/><path fill="url(#s)" d="M205.02 400.151h15.144l-13.251 12.304H191.77l13.25-12.304Z"/><path fill="url(#t)" d="M123.331 106.195h15.144l-9.251 12.304H114.08l9.251-12.304Z"/><path fill="url(#u)" d="M162.427 109.303h-15.144l9.251-12.304h15.144l-9.251 12.304Z"/><path fill="url(#v)" d="M161.928 112.685h-15.144l-6.486 8.628h15.143l6.487-8.628Z"/><path fill="url(#w)" d="M199.596 179.373v-8.103H0v-20.639h199.596v-8.901H2.735v-5.47h202.331v19.841H5.47v9.699h199.596v19.043H0v-5.47h199.596Z"/><path fill="url(#x)" d="M134.033 406.303a7 7 0 1 1-14 0 7 7 0 0 1 14 0Z"/><path fill="url(#y)" d="M106.033 306.999a7 7 0 1 1-14 0 7 7 0 0 1 14 0Z"/><path fill="url(#z)" d="M69.777 118.499h56.5v-3h-56.5v3Z"/><path fill="url(#A)" d="M198.98 96.999h-39.5v3h39.5v-3Z"/><path fill="url(#B)" d="M781.533 141.999h7v40h-7v-40Z"/><path fill="url(#C)" d="M797.631 141.999h2.803v40h-2.803v-40Z"/><path fill="url(#D)" d="M838.533 366.998h7v40h-7v-40Z"/><path fill="url(#E)" d="M817.533 322.499h7v39.999h-7v-39.999Z"/><path fill="url(#F)" d="M805.033 346.998h7v40h-7v-40Z"/><path fill="url(#G)" d="M817.533 370.248h7v40h-7v-40Z"/><path fill="url(#H)" d="M1068.42 394.998h189.51v5h-189.51v-5Z"/><path fill="url(#I)" d="M1444.53 335.748h95.14v7h-95.14v-7Z"/><path fill="url(#J)" d="M1022.78 386.998h7v20h-7v-20Z"/><path fill="url(#K)" d="M1471.78 346.998h7v20h-7v-20Z"/><path fill="url(#L)" d="M1012.03 386.998h3.5v20h-3.5v-20Z"/><path fill="url(#M)" d="M1461.03 346.998h3.5v20h-3.5v-20Z"/><path fill="url(#N)" d="M995.533 386.998h9.247v20h-9.247v-20Z"/><path fill="url(#O)" d="M1444.53 346.998h9.25v20h-9.25v-20Z"/><path fill="url(#P)" d="M968.033 362.498h131.497l-13 15.5H981.033l-13-15.5Z"/><path fill="url(#Q)" d="M1344.03 335.748h91.5v21.25h-111.5l20-21.25Z"/><path fill="url(#R)" d="M1183.03 415.137h-112.5v21.25h131.5l-19-21.25Z"/><path fill="url(#S)" d="M601.418 423.789h-335.5v14.209h351.5l-16-14.209Z"/><path fill="url(#T)" d="M1297.78 353.123h-112.5v-21.25h131.5l-19 21.25Z"/><path fill="url(#U)" d="M800.284 218.194h15.144l-9.251 12.305h-15.144l9.251-12.305Z"/><path fill="url(#V)" d="M1124.28 364.998h15.15l-9.25 12.305h-15.15l9.25-12.305Z"/><path fill="url(#W)" d="M1218.19 427.442h15.15l-9.25-12.305h-15.15l9.25 12.305Z"/><path fill="url(#X)" d="M1155.59 364.998h15.14l-9.25 12.305h-15.14l9.25-12.305Z"/><path fill="url(#Y)" d="M1249.5 427.442h15.14l-9.25-12.305h-15.15l9.26 12.305Z"/><path fill="url(#Z)" d="M1186.89 364.998h15.14l-9.25 12.305h-15.14l9.25-12.305Z"/><path fill="url(#aa)" d="M1280.8 427.442h15.14l-9.25-12.305h-15.14l9.25 12.305Z"/><path fill="url(#ab)" d="M776.282 433.914h-15.144l10.251-12.304h15.144l-10.251 12.304Z"/><path fill="url(#ac)" d="M648.782 421.61h-15.144l10.251 12.304h15.144l-10.251-12.304Z"/><path fill="url(#ad)" d="M1218.19 364.998h15.15l-9.25 12.305h-15.15l9.25-12.305Z"/><path fill="url(#ae)" d="M1249.5 364.998h15.14l-9.25 12.305h-15.15l9.26-12.305Z"/><path fill="url(#af)" fill-rule="evenodd" d="M788.533 226.499v-30.5h-4v34.5h17.5v-4h-13.5Z" clip-rule="evenodd"/><path fill="url(#ag)" fill-rule="evenodd" d="M785.533 126.999v-30.5h-4v34.5h17.5v-4h-13.5Z" clip-rule="evenodd"/><path fill="url(#ah)" d="M785.033 292.064h27.086l12.414-18.057v-32.508h-39.5v50.565Z"/><path fill="url(#ai)" d="M793.283 116.999h27.086l12.414-6.606V98.499h-39.5V117Z"/><path fill="url(#aj)" d="M1038.13 345.528v-8.102H838.533v-20.639h199.597v-8.901H786.533v-5.47H1043.6v19.841H844.003v9.699H1043.6v19.042H838.533v-5.47h199.597Z"/><path fill="url(#ak)" d="M1534.2 415.819v-8.102h-199.6v-20.639h199.6v-8.901h-199.6v-5.47h205.07v19.841h-199.6v9.699h199.6v19.042H1334.6v-5.47h199.6Z"/><path fill="url(#al)" d="M806.033 201.999a7 7 0 1 1-14 0 7 7 0 0 1 14 0Z"/><path fill="url(#am)" d="M1057.6 396.998c0 3.866-3.13 7-7 7s-7-3.134-7-7 3.13-7 7-7 7 3.134 7 7Z"/><path fill="url(#an)" d="M1516.6 357.998c0 3.866-3.13 7-7 7s-7-3.134-7-7 3.13-7 7-7 7 3.134 7 7Z"/><path fill="url(#ao)" d="M677.254 424.762h67.664v3h-67.664v-3Z"/><path fill="url(#ap)" d="M668.033 430.914h86.106v3h-86.106v-3Z"/><path fill="url(#aq)" d="M1416.1 295.537h112.5v21.25h-131.5l19-21.25Z"/><path fill="url(#ar)" d="M1429 132.53v-8.103h199.6V87.788H1429v-8.9h251.6v-5.47h-257.07v19.84h199.6v25.699h-199.6V138h205.07v-5.47H1429Z"/><path fill="url(#as)" d="M1509.6 150.749h7v40h-7v-40Z"/><path fill="url(#at)" d="M1491.6 175.249h7v40h-7v-40Z"/><path fill="url(#au)" d="M1509.6 198.499h7v40h-7v-40Z"/><path fill="url(#av)" d="M1429 227.847h5.5v57h-5.5v-57Z"/><path fill="url(#aw)" d="M1460 227.249h5.5v57h-5.5v-57Z"/><path fill="url(#ax)" d="M1470 227.249h3.25v57H1470v-57Z"/><path fill="url(#ay)" d="M1438.75 227.847h13v57h-13v-57Z"/><path fill="url(#az)" d="M1596.1 282.787h-112.5v-32.25h131.5l-19 32.25Z"/><path fill="url(#aA)" d="M1501.6 234.249c0 3.866-3.13 7-7 7s-7-3.134-7-7 3.13-7 7-7 7 3.134 7 7Z"/><path fill="url(#aB)" d="M1457.5 202.944h-15.14l9.25 12.305h15.14l-9.25-12.305Z"/><path fill="url(#aC)" fill-rule="evenodd" d="M1469.25 211.249v-30.5h4v34.5h-17.5v-4h13.5Z" clip-rule="evenodd"/><path fill="url(#aD)" d="M1451.75 186.749c0 3.866 3.14 7 7 7 3.87 0 7-3.134 7-7s-3.13-7-7-7c-3.86 0-7 3.134-7 7Z"/><path fill="url(#aE)" d="M1453.1 150.749h41.5v17.038h-61.5l20-17.038Z"/><path fill="url(#aF)" d="M1451.61 102.248h95.13v7h-95.13v-7Z"/><defs><linearGradient id="a" x1="587.971" x2="574.457" y1="534.53" y2="-22.157" gradientUnits="userSpaceOnUse"><stop offset=".121" stop-color="#F1EFED"/><stop offset=".488" stop-color="#DDD" stop-opacity=".22"/><stop offset="1" stop-color="#F1EFED"/></linearGradient><linearGradient id="b" x1="587.971" x2="574.457" y1="534.53" y2="-22.157" gradientUnits="userSpaceOnUse"><stop offset=".121" stop-color="#F1EFED"/><stop offset=".488" stop-color="#DDD" stop-opacity=".22"/><stop offset="1" stop-color="#F1EFED"/></linearGradient><linearGradient id="c" x1="587.971" x2="574.457" y1="534.53" y2="-22.157" gradientUnits="userSpaceOnUse"><stop offset=".121" stop-color="#F1EFED"/><stop offset=".488" stop-color="#DDD" stop-opacity=".22"/><stop offset="1" stop-color="#F1EFED"/></linearGradient><linearGradient id="d" x1="587.971" x2="574.457" y1="534.53" y2="-22.157" gradientUnits="userSpaceOnUse"><stop offset=".121" stop-color="#F1EFED"/><stop offset=".488" stop-color="#DDD" stop-opacity=".22"/><stop offset="1" stop-color="#F1EFED"/></linearGradient><linearGradient id="e" x1="587.971" x2="574.457" y1="534.53" y2="-22.157" gradientUnits="userSpaceOnUse"><stop offset=".121" stop-color="#F1EFED"/><stop offset=".488" stop-color="#DDD" stop-opacity=".22"/><stop offset="1" stop-color="#F1EFED"/></linearGradient><linearGradient id="f" x1="587.971" x2="574.457" y1="534.53" y2="-22.157" gradientUnits="userSpaceOnUse"><stop offset=".121" stop-color="#F1EFED"/><stop offset=".488" stop-color="#DDD" stop-opacity=".22"/><stop offset="1" stop-color="#F1EFED"/></linearGradient><linearGradient id="g" x1="587.971" x2="574.457" y1="534.53" y2="-22.157" gradientUnits="userSpaceOnUse"><stop offset=".121" stop-color="#F1EFED"/><stop offset=".488" stop-color="#DDD" stop-opacity=".22"/><stop offset="1" stop-color="#F1EFED"/></linearGradient><linearGradient id="h" x1="587.971" x2="574.457" y1="534.53" y2="-22.157" gradientUnits="userSpaceOnUse"><stop offset=".121" stop-color="#F1EFED"/><stop offset=".488" stop-color="#DDD" stop-opacity=".22"/><stop offset="1" stop-color="#F1EFED"/></linearGradient><linearGradient id="i" x1="587.971" x2="574.457" y1="534.53" y2="-22.157" gradientUnits="userSpaceOnUse"><stop offset=".121" stop-color="#F1EFED"/><stop offset=".488" stop-color="#DDD" stop-opacity=".22"/><stop offset="1" stop-color="#F1EFED"/></linearGradient><linearGradient id="j" x1="587.971" x2="574.457" y1="534.53" y2="-22.157" gradientUnits="userSpaceOnUse"><stop offset=".121" stop-color="#F1EFED"/><stop offset=".488" stop-color="#DDD" stop-opacity=".22"/><stop offset="1" stop-color="#F1EFED"/></linearGradient><linearGradient id="k" x1="587.971" x2="574.457" y1="534.53" y2="-22.157" gradientUnits="userSpaceOnUse"><stop offset=".121" stop-color="#F1EFED"/><stop offset=".488" stop-color="#DDD" stop-opacity=".22"/><stop offset="1" stop-color="#F1EFED"/></linearGradient><linearGradient id="l" x1="587.971" x2="574.457" y1="534.53" y2="-22.157" gradientUnits="userSpaceOnUse"><stop offset=".121" stop-color="#F1EFED"/><stop offset=".488" stop-color="#DDD" stop-opacity=".22"/><stop offset="1" stop-color="#F1EFED"/></linearGradient><linearGradient id="m" x1="587.971" x2="574.457" y1="534.53" y2="-22.157" gradientUnits="userSpaceOnUse"><stop offset=".121" stop-color="#F1EFED"/><stop offset=".488" stop-color="#DDD" stop-opacity=".22"/><stop offset="1" stop-color="#F1EFED"/></linearGradient><linearGradient id="n" x1="587.971" x2="574.457" y1="534.53" y2="-22.157" gradientUnits="userSpaceOnUse"><stop offset=".121" stop-color="#F1EFED"/><stop offset=".488" stop-color="#DDD" stop-opacity=".22"/><stop offset="1" stop-color="#F1EFED"/></linearGradient><linearGradient id="o" x1="587.971" x2="574.457" y1="534.53" y2="-22.157" gradientUnits="userSpaceOnUse"><stop offset=".121" stop-color="#F1EFED"/><stop offset=".488" stop-color="#DDD" stop-opacity=".22"/><stop offset="1" stop-color="#F1EFED"/></linearGradient><linearGradient id="p" x1="587.971" x2="574.457" y1="534.53" y2="-22.157" gradientUnits="userSpaceOnUse"><stop offset=".121" stop-color="#F1EFED"/><stop offset=".488" stop-color="#DDD" stop-opacity=".22"/><stop offset="1" stop-color="#F1EFED"/></linearGradient><linearGradient id="q" x1="587.971" x2="574.457" y1="534.53" y2="-22.157" gradientUnits="userSpaceOnUse"><stop offset=".121" stop-color="#F1EFED"/><stop offset=".488" stop-color="#DDD" stop-opacity=".22"/><stop offset="1" stop-color="#F1EFED"/></linearGradient><linearGradient id="r" x1="587.971" x2="574.457" y1="534.53" y2="-22.157" gradientUnits="userSpaceOnUse"><stop offset=".121" stop-color="#F1EFED"/><stop offset=".488" stop-color="#DDD" stop-opacity=".22"/><stop offset="1" stop-color="#F1EFED"/></linearGradient><linearGradient id="s" x1="587.971" x2="574.457" y1="534.53" y2="-22.157" gradientUnits="userSpaceOnUse"><stop offset=".121" stop-color="#F1EFED"/><stop offset=".488" stop-color="#DDD" stop-opacity=".22"/><stop offset="1" stop-color="#F1EFED"/></linearGradient><linearGradient id="t" x1="587.971" x2="574.457" y1="534.53" y2="-22.157" gradientUnits="userSpaceOnUse"><stop offset=".121" stop-color="#F1EFED"/><stop offset=".488" stop-color="#DDD" stop-opacity=".22"/><stop offset="1" stop-color="#F1EFED"/></linearGradient><linearGradient id="u" x1="587.971" x2="574.457" y1="534.53" y2="-22.157" gradientUnits="userSpaceOnUse"><stop offset=".121" stop-color="#F1EFED"/><stop offset=".488" stop-color="#DDD" stop-opacity=".22"/><stop offset="1" stop-color="#F1EFED"/></linearGradient><linearGradient id="v" x1="587.971" x2="574.457" y1="534.53" y2="-22.157" gradientUnits="userSpaceOnUse"><stop offset=".121" stop-color="#F1EFED"/><stop offset=".488" stop-color="#DDD" stop-opacity=".22"/><stop offset="1" stop-color="#F1EFED"/></linearGradient><linearGradient id="w" x1="587.971" x2="574.457" y1="534.53" y2="-22.157" gradientUnits="userSpaceOnUse"><stop offset=".121" stop-color="#F1EFED"/><stop offset=".488" stop-color="#DDD" stop-opacity=".22"/><stop offset="1" stop-color="#F1EFED"/></linearGradient><linearGradient id="x" x1="587.971" x2="574.457" y1="534.53" y2="-22.157" gradientUnits="userSpaceOnUse"><stop offset=".121" stop-color="#F1EFED"/><stop offset=".488" stop-color="#DDD" stop-opacity=".22"/><stop offset="1" stop-color="#F1EFED"/></linearGradient><linearGradient id="y" x1="587.971" x2="574.457" y1="534.53" y2="-22.157" gradientUnits="userSpaceOnUse"><stop offset=".121" stop-color="#F1EFED"/><stop offset=".488" stop-color="#DDD" stop-opacity=".22"/><stop offset="1" stop-color="#F1EFED"/></linearGradient><linearGradient id="z" x1="587.971" x2="574.457" y1="534.53" y2="-22.157" gradientUnits="userSpaceOnUse"><stop offset=".121" stop-color="#F1EFED"/><stop offset=".488" stop-color="#DDD" stop-opacity=".22"/><stop offset="1" stop-color="#F1EFED"/></linearGradient><linearGradient id="A" x1="587.971" x2="574.457" y1="534.53" y2="-22.157" gradientUnits="userSpaceOnUse"><stop offset=".121" stop-color="#F1EFED"/><stop offset=".488" stop-color="#DDD" stop-opacity=".22"/><stop offset="1" stop-color="#F1EFED"/></linearGradient><linearGradient id="B" x1="587.971" x2="574.457" y1="534.53" y2="-22.157" gradientUnits="userSpaceOnUse"><stop offset=".121" stop-color="#F1EFED"/><stop offset=".488" stop-color="#DDD" stop-opacity=".22"/><stop offset="1" stop-color="#F1EFED"/></linearGradient><linearGradient id="C" x1="587.971" x2="574.457" y1="534.53" y2="-22.157" gradientUnits="userSpaceOnUse"><stop offset=".121" stop-color="#F1EFED"/><stop offset=".488" stop-color="#DDD" stop-opacity=".22"/><stop offset="1" stop-color="#F1EFED"/></linearGradient><linearGradient id="D" x1="587.971" x2="574.457" y1="534.53" y2="-22.157" gradientUnits="userSpaceOnUse"><stop offset=".121" stop-color="#F1EFED"/><stop offset=".488" stop-color="#DDD" stop-opacity=".22"/><stop offset="1" stop-color="#F1EFED"/></linearGradient><linearGradient id="E" x1="587.971" x2="574.457" y1="534.53" y2="-22.157" gradientUnits="userSpaceOnUse"><stop offset=".121" stop-color="#F1EFED"/><stop offset=".488" stop-color="#DDD" stop-opacity=".22"/><stop offset="1" stop-color="#F1EFED"/></linearGradient><linearGradient id="F" x1="587.971" x2="574.457" y1="534.53" y2="-22.157" gradientUnits="userSpaceOnUse"><stop offset=".121" stop-color="#F1EFED"/><stop offset=".488" stop-color="#DDD" stop-opacity=".22"/><stop offset="1" stop-color="#F1EFED"/></linearGradient><linearGradient id="G" x1="587.971" x2="574.457" y1="534.53" y2="-22.157" gradientUnits="userSpaceOnUse"><stop offset=".121" stop-color="#F1EFED"/><stop offset=".488" stop-color="#DDD" stop-opacity=".22"/><stop offset="1" stop-color="#F1EFED"/></linearGradient><linearGradient id="H" x1="587.971" x2="574.457" y1="534.53" y2="-22.157" gradientUnits="userSpaceOnUse"><stop offset=".121" stop-color="#F1EFED"/><stop offset=".488" stop-color="#DDD" stop-opacity=".22"/><stop offset="1" stop-color="#F1EFED"/></linearGradient><linearGradient id="I" x1="587.971" x2="574.457" y1="534.53" y2="-22.157" gradientUnits="userSpaceOnUse"><stop offset=".121" stop-color="#F1EFED"/><stop offset=".488" stop-color="#DDD" stop-opacity=".22"/><stop offset="1" stop-color="#F1EFED"/></linearGradient><linearGradient id="J" x1="587.971" x2="574.457" y1="534.53" y2="-22.157" gradientUnits="userSpaceOnUse"><stop offset=".121" stop-color="#F1EFED"/><stop offset=".488" stop-color="#DDD" stop-opacity=".22"/><stop offset="1" stop-color="#F1EFED"/></linearGradient><linearGradient id="K" x1="587.971" x2="574.457" y1="534.53" y2="-22.157" gradientUnits="userSpaceOnUse"><stop offset=".121" stop-color="#F1EFED"/><stop offset=".488" stop-color="#DDD" stop-opacity=".22"/><stop offset="1" stop-color="#F1EFED"/></linearGradient><linearGradient id="L" x1="587.971" x2="574.457" y1="534.53" y2="-22.157" gradientUnits="userSpaceOnUse"><stop offset=".121" stop-color="#F1EFED"/><stop offset=".488" stop-color="#DDD" stop-opacity=".22"/><stop offset="1" stop-color="#F1EFED"/></linearGradient><linearGradient id="M" x1="587.971" x2="574.457" y1="534.53" y2="-22.157" gradientUnits="userSpaceOnUse"><stop offset=".121" stop-color="#F1EFED"/><stop offset=".488" stop-color="#DDD" stop-opacity=".22"/><stop offset="1" stop-color="#F1EFED"/></linearGradient><linearGradient id="N" x1="587.971" x2="574.457" y1="534.53" y2="-22.157" gradientUnits="userSpaceOnUse"><stop offset=".121" stop-color="#F1EFED"/><stop offset=".488" stop-color="#DDD" stop-opacity=".22"/><stop offset="1" stop-color="#F1EFED"/></linearGradient><linearGradient id="O" x1="587.971" x2="574.457" y1="534.53" y2="-22.157" gradientUnits="userSpaceOnUse"><stop offset=".121" stop-color="#F1EFED"/><stop offset=".488" stop-color="#DDD" stop-opacity=".22"/><stop offset="1" stop-color="#F1EFED"/></linearGradient><linearGradient id="P" x1="587.971" x2="574.457" y1="534.53" y2="-22.157" gradientUnits="userSpaceOnUse"><stop offset=".121" stop-color="#F1EFED"/><stop offset=".488" stop-color="#DDD" stop-opacity=".22"/><stop offset="1" stop-color="#F1EFED"/></linearGradient><linearGradient id="Q" x1="587.971" x2="574.457" y1="534.53" y2="-22.157" gradientUnits="userSpaceOnUse"><stop offset=".121" stop-color="#F1EFED"/><stop offset=".488" stop-color="#DDD" stop-opacity=".22"/><stop offset="1" stop-color="#F1EFED"/></linearGradient><linearGradient id="R" x1="587.971" x2="574.457" y1="534.53" y2="-22.157" gradientUnits="userSpaceOnUse"><stop offset=".121" stop-color="#F1EFED"/><stop offset=".488" stop-color="#DDD" stop-opacity=".22"/><stop offset="1" stop-color="#F1EFED"/></linearGradient><linearGradient id="S" x1="587.971" x2="574.457" y1="534.53" y2="-22.157" gradientUnits="userSpaceOnUse"><stop offset=".121" stop-color="#F1EFED"/><stop offset=".488" stop-color="#DDD" stop-opacity=".22"/><stop offset="1" stop-color="#F1EFED"/></linearGradient><linearGradient id="T" x1="587.971" x2="574.457" y1="534.53" y2="-22.157" gradientUnits="userSpaceOnUse"><stop offset=".121" stop-color="#F1EFED"/><stop offset=".488" stop-color="#DDD" stop-opacity=".22"/><stop offset="1" stop-color="#F1EFED"/></linearGradient><linearGradient id="U" x1="587.971" x2="574.457" y1="534.53" y2="-22.157" gradientUnits="userSpaceOnUse"><stop offset=".121" stop-color="#F1EFED"/><stop offset=".488" stop-color="#DDD" stop-opacity=".22"/><stop offset="1" stop-color="#F1EFED"/></linearGradient><linearGradient id="V" x1="587.971" x2="574.457" y1="534.53" y2="-22.157" gradientUnits="userSpaceOnUse"><stop offset=".121" stop-color="#F1EFED"/><stop offset=".488" stop-color="#DDD" stop-opacity=".22"/><stop offset="1" stop-color="#F1EFED"/></linearGradient><linearGradient id="W" x1="587.971" x2="574.457" y1="534.53" y2="-22.157" gradientUnits="userSpaceOnUse"><stop offset=".121" stop-color="#F1EFED"/><stop offset=".488" stop-color="#DDD" stop-opacity=".22"/><stop offset="1" stop-color="#F1EFED"/></linearGradient><linearGradient id="X" x1="587.971" x2="574.457" y1="534.53" y2="-22.157" gradientUnits="userSpaceOnUse"><stop offset=".121" stop-color="#F1EFED"/><stop offset=".488" stop-color="#DDD" stop-opacity=".22"/><stop offset="1" stop-color="#F1EFED"/></linearGradient><linearGradient id="Y" x1="587.971" x2="574.457" y1="534.53" y2="-22.157" gradientUnits="userSpaceOnUse"><stop offset=".121" stop-color="#F1EFED"/><stop offset=".488" stop-color="#DDD" stop-opacity=".22"/><stop offset="1" stop-color="#F1EFED"/></linearGradient><linearGradient id="Z" x1="587.971" x2="574.457" y1="534.53" y2="-22.157" gradientUnits="userSpaceOnUse"><stop offset=".121" stop-color="#F1EFED"/><stop offset=".488" stop-color="#DDD" stop-opacity=".22"/><stop offset="1" stop-color="#F1EFED"/></linearGradient><linearGradient id="aa" x1="587.971" x2="574.457" y1="534.53" y2="-22.157" gradientUnits="userSpaceOnUse"><stop offset=".121" stop-color="#F1EFED"/><stop offset=".488" stop-color="#DDD" stop-opacity=".22"/><stop offset="1" stop-color="#F1EFED"/></linearGradient><linearGradient id="ab" x1="587.971" x2="574.457" y1="534.53" y2="-22.157" gradientUnits="userSpaceOnUse"><stop offset=".121" stop-color="#F1EFED"/><stop offset=".488" stop-color="#DDD" stop-opacity=".22"/><stop offset="1" stop-color="#F1EFED"/></linearGradient><linearGradient id="ac" x1="587.971" x2="574.457" y1="534.53" y2="-22.157" gradientUnits="userSpaceOnUse"><stop offset=".121" stop-color="#F1EFED"/><stop offset=".488" stop-color="#DDD" stop-opacity=".22"/><stop offset="1" stop-color="#F1EFED"/></linearGradient><linearGradient id="ad" x1="587.971" x2="574.457" y1="534.53" y2="-22.157" gradientUnits="userSpaceOnUse"><stop offset=".121" stop-color="#F1EFED"/><stop offset=".488" stop-color="#DDD" stop-opacity=".22"/><stop offset="1" stop-color="#F1EFED"/></linearGradient><linearGradient id="ae" x1="587.971" x2="574.457" y1="534.53" y2="-22.157" gradientUnits="userSpaceOnUse"><stop offset=".121" stop-color="#F1EFED"/><stop offset=".488" stop-color="#DDD" stop-opacity=".22"/><stop offset="1" stop-color="#F1EFED"/></linearGradient><linearGradient id="af" x1="587.971" x2="574.457" y1="534.53" y2="-22.157" gradientUnits="userSpaceOnUse"><stop offset=".121" stop-color="#F1EFED"/><stop offset=".488" stop-color="#DDD" stop-opacity=".22"/><stop offset="1" stop-color="#F1EFED"/></linearGradient><linearGradient id="ag" x1="587.971" x2="574.457" y1="534.53" y2="-22.157" gradientUnits="userSpaceOnUse"><stop offset=".121" stop-color="#F1EFED"/><stop offset=".488" stop-color="#DDD" stop-opacity=".22"/><stop offset="1" stop-color="#F1EFED"/></linearGradient><linearGradient id="ah" x1="587.971" x2="574.457" y1="534.53" y2="-22.157" gradientUnits="userSpaceOnUse"><stop offset=".121" stop-color="#F1EFED"/><stop offset=".488" stop-color="#DDD" stop-opacity=".22"/><stop offset="1" stop-color="#F1EFED"/></linearGradient><linearGradient id="ai" x1="587.971" x2="574.457" y1="534.53" y2="-22.157" gradientUnits="userSpaceOnUse"><stop offset=".121" stop-color="#F1EFED"/><stop offset=".488" stop-color="#DDD" stop-opacity=".22"/><stop offset="1" stop-color="#F1EFED"/></linearGradient><linearGradient id="aj" x1="587.971" x2="574.457" y1="534.53" y2="-22.157" gradientUnits="userSpaceOnUse"><stop offset=".121" stop-color="#F1EFED"/><stop offset=".488" stop-color="#DDD" stop-opacity=".22"/><stop offset="1" stop-color="#F1EFED"/></linearGradient><linearGradient id="ak" x1="587.971" x2="574.457" y1="534.53" y2="-22.157" gradientUnits="userSpaceOnUse"><stop offset=".121" stop-color="#F1EFED"/><stop offset=".488" stop-color="#DDD" stop-opacity=".22"/><stop offset="1" stop-color="#F1EFED"/></linearGradient><linearGradient id="al" x1="587.971" x2="574.457" y1="534.53" y2="-22.157" gradientUnits="userSpaceOnUse"><stop offset=".121" stop-color="#F1EFED"/><stop offset=".488" stop-color="#DDD" stop-opacity=".22"/><stop offset="1" stop-color="#F1EFED"/></linearGradient><linearGradient id="am" x1="587.971" x2="574.457" y1="534.53" y2="-22.157" gradientUnits="userSpaceOnUse"><stop offset=".121" stop-color="#F1EFED"/><stop offset=".488" stop-color="#DDD" stop-opacity=".22"/><stop offset="1" stop-color="#F1EFED"/></linearGradient><linearGradient id="an" x1="587.971" x2="574.457" y1="534.53" y2="-22.157" gradientUnits="userSpaceOnUse"><stop offset=".121" stop-color="#F1EFED"/><stop offset=".488" stop-color="#DDD" stop-opacity=".22"/><stop offset="1" stop-color="#F1EFED"/></linearGradient><linearGradient id="ao" x1="587.971" x2="574.457" y1="534.53" y2="-22.157" gradientUnits="userSpaceOnUse"><stop offset=".121" stop-color="#F1EFED"/><stop offset=".488" stop-color="#DDD" stop-opacity=".22"/><stop offset="1" stop-color="#F1EFED"/></linearGradient><linearGradient id="ap" x1="587.971" x2="574.457" y1="534.53" y2="-22.157" gradientUnits="userSpaceOnUse"><stop offset=".121" stop-color="#F1EFED"/><stop offset=".488" stop-color="#DDD" stop-opacity=".22"/><stop offset="1" stop-color="#F1EFED"/></linearGradient><linearGradient id="aq" x1="587.971" x2="574.457" y1="534.53" y2="-22.157" gradientUnits="userSpaceOnUse"><stop offset=".121" stop-color="#F1EFED"/><stop offset=".488" stop-color="#DDD" stop-opacity=".22"/><stop offset="1" stop-color="#F1EFED"/></linearGradient><linearGradient id="ar" x1="587.971" x2="574.457" y1="534.53" y2="-22.157" gradientUnits="userSpaceOnUse"><stop offset=".121" stop-color="#F1EFED"/><stop offset=".488" stop-color="#DDD" stop-opacity=".22"/><stop offset="1" stop-color="#F1EFED"/></linearGradient><linearGradient id="as" x1="587.971" x2="574.457" y1="534.53" y2="-22.157" gradientUnits="userSpaceOnUse"><stop offset=".121" stop-color="#F1EFED"/><stop offset=".488" stop-color="#DDD" stop-opacity=".22"/><stop offset="1" stop-color="#F1EFED"/></linearGradient><linearGradient id="at" x1="587.971" x2="574.457" y1="534.53" y2="-22.157" gradientUnits="userSpaceOnUse"><stop offset=".121" stop-color="#F1EFED"/><stop offset=".488" stop-color="#DDD" stop-opacity=".22"/><stop offset="1" stop-color="#F1EFED"/></linearGradient><linearGradient id="au" x1="587.971" x2="574.457" y1="534.53" y2="-22.157" gradientUnits="userSpaceOnUse"><stop offset=".121" stop-color="#F1EFED"/><stop offset=".488" stop-color="#DDD" stop-opacity=".22"/><stop offset="1" stop-color="#F1EFED"/></linearGradient><linearGradient id="av" x1="587.971" x2="574.457" y1="534.53" y2="-22.157" gradientUnits="userSpaceOnUse"><stop offset=".121" stop-color="#F1EFED"/><stop offset=".488" stop-color="#DDD" stop-opacity=".22"/><stop offset="1" stop-color="#F1EFED"/></linearGradient><linearGradient id="aw" x1="587.971" x2="574.457" y1="534.53" y2="-22.157" gradientUnits="userSpaceOnUse"><stop offset=".121" stop-color="#F1EFED"/><stop offset=".488" stop-color="#DDD" stop-opacity=".22"/><stop offset="1" stop-color="#F1EFED"/></linearGradient><linearGradient id="ax" x1="587.971" x2="574.457" y1="534.53" y2="-22.157" gradientUnits="userSpaceOnUse"><stop offset=".121" stop-color="#F1EFED"/><stop offset=".488" stop-color="#DDD" stop-opacity=".22"/><stop offset="1" stop-color="#F1EFED"/></linearGradient><linearGradient id="ay" x1="587.971" x2="574.457" y1="534.53" y2="-22.157" gradientUnits="userSpaceOnUse"><stop offset=".121" stop-color="#F1EFED"/><stop offset=".488" stop-color="#DDD" stop-opacity=".22"/><stop offset="1" stop-color="#F1EFED"/></linearGradient><linearGradient id="az" x1="587.971" x2="574.457" y1="534.53" y2="-22.157" gradientUnits="userSpaceOnUse"><stop offset=".121" stop-color="#F1EFED"/><stop offset=".488" stop-color="#DDD" stop-opacity=".22"/><stop offset="1" stop-color="#F1EFED"/></linearGradient><linearGradient id="aA" x1="587.971" x2="574.457" y1="534.53" y2="-22.157" gradientUnits="userSpaceOnUse"><stop offset=".121" stop-color="#F1EFED"/><stop offset=".488" stop-color="#DDD" stop-opacity=".22"/><stop offset="1" stop-color="#F1EFED"/></linearGradient><linearGradient id="aB" x1="587.971" x2="574.457" y1="534.53" y2="-22.157" gradientUnits="userSpaceOnUse"><stop offset=".121" stop-color="#F1EFED"/><stop offset=".488" stop-color="#DDD" stop-opacity=".22"/><stop offset="1" stop-color="#F1EFED"/></linearGradient><linearGradient id="aC" x1="587.971" x2="574.457" y1="534.53" y2="-22.157" gradientUnits="userSpaceOnUse"><stop offset=".121" stop-color="#F1EFED"/><stop offset=".488" stop-color="#DDD" stop-opacity=".22"/><stop offset="1" stop-color="#F1EFED"/></linearGradient><linearGradient id="aD" x1="587.971" x2="574.457" y1="534.53" y2="-22.157" gradientUnits="userSpaceOnUse"><stop offset=".121" stop-color="#F1EFED"/><stop offset=".488" stop-color="#DDD" stop-opacity=".22"/><stop offset="1" stop-color="#F1EFED"/></linearGradient><linearGradient id="aE" x1="587.971" x2="574.457" y1="534.53" y2="-22.157" gradientUnits="userSpaceOnUse"><stop offset=".121" stop-color="#F1EFED"/><stop offset=".488" stop-color="#DDD" stop-opacity=".22"/><stop offset="1" stop-color="#F1EFED"/></linearGradient><linearGradient id="aF" x1="587.971" x2="574.457" y1="534.53" y2="-22.157" gradientUnits="userSpaceOnUse"><stop offset=".121" stop-color="#F1EFED"/><stop offset=".488" stop-color="#DDD" stop-opacity=".22"/><stop offset="1" stop-color="#F1EFED"/></linearGradient></defs></svg>
