<svg xmlns="http://www.w3.org/2000/svg" width="80" height="90" fill="none" viewBox="0 0 80 90"><path fill="url(#a)" d="M71.134 46.676c-.951 3.184-6.37 4.78-14 4.647-5.245-.09-11.536-.998-18.139-2.767-10.188-2.73-18.708-6.866-23.308-10.917a16.951 16.951 0 0 1-1.97-2.02c-1.395-1.722-1.986-3.382-1.59-4.858L7.949 45.504c-.37 1.382.124 2.925 1.333 4.53 3.568 4.732 13.36 10.002 25.535 13.264 12.003 3.216 22.975 3.585 28.511 1.377 1.984-.791 3.27-1.913 3.656-3.353l4.15-14.646Z"/><path fill="#000" d="M41.115 40.091C29.37 36.944 19.844 31.93 15.98 27.331c-2.096.794-3.456 1.942-3.854 3.43-.396 1.476.195 3.136 1.59 4.859.27-3.108.701-4.22 2.065-4.86 6.019 10.078 30.992 14.745 42.726 15.82l-1.373 4.743c7.629.132 13.048-1.463 14-4.647l.027-.097c.409-1.526-.237-3.248-1.736-5.033-5.598 2.12-16.451 1.723-28.311-1.455ZM34.817 63.298C22.642 60.036 12.85 54.766 9.282 50.033c-1.984.791-3.27 1.913-3.655 3.353-.396 1.476.195 3.136 1.59 4.859.27-3.108.701-4.22 2.065-4.86 6.019 10.078 30.992 14.745 42.726 15.82l-1.373 4.743c7.434.129 12.77-1.383 13.918-4.406l.109-.338c.37-1.382-.124-2.924-1.334-4.529-5.536 2.208-16.508 1.84-28.51-1.377Z"/><path fill="#5869DD" d="M46.108 24.273c16.006 4.289 30.179 3.514 32.074-1.683l.092-.293c1.463-5.46-10.566-13.427-26.868-17.795C35.103.134 20.702 1.02 19.239 6.478c-1.463 5.46 10.567 13.427 26.869 17.795ZM38.995 48.556c6.603 1.769 12.894 2.676 18.14 2.767l1.373-4.744c-11.734-1.074-36.707-5.741-42.726-15.818-1.364.64-1.795 1.75-2.064 4.859.54.666 1.2 1.341 1.969 2.019 4.6 4.05 13.12 8.186 23.308 10.916ZM32.495 71.18c6.603 1.77 12.894 2.677 18.14 2.768l1.373-4.744C40.274 68.13 15.301 63.463 9.282 53.386c-1.364.64-1.795 1.75-2.064 4.859 3.765 4.646 13.384 9.749 25.277 12.935Z"/><path fill="url(#b)" d="M46.108 24.273C29.806 19.905 17.776 11.938 19.239 6.478l-4.993 15.819c-.409 1.526.237 3.249 1.736 5.034 3.862 4.599 13.389 9.613 25.133 12.76 11.86 3.178 22.713 3.576 28.311 1.455 2.097-.795 3.456-1.943 3.855-3.43l4.9-15.526c-1.894 5.197-16.067 5.972-32.073 1.683Z"/><path fill="url(#c)" d="M27.87 85.498c16.302 4.368 30.704 3.483 32.166-1.977l4.517-13.98c-1.149 3.024-6.484 4.536-13.918 4.407-5.246-.09-11.537-.998-18.14-2.767-11.893-3.187-21.512-8.29-25.277-12.936-1.396-1.723-1.987-3.383-1.591-4.86L1 67.704c-1.463 5.46 10.567 13.426 26.87 17.795Z"/><path fill="#000" d="m64.662 69.204.724.194-.724-.194Zm-32.167 1.977.195-.725-.195.724Zm6.5-22.625.195-.725-.195.724Zm7.113-24.283.194-.724-.194.724Zm27.173 13.842-.715-.226-.005.016-.004.016.724.194Zm-32.166 1.976.194-.724-.194.724ZM14.246 22.297l-.715-.226-.005.016-.005.016.725.194Zm52.738 39.025-.722-.204-.003.01.725.194Zm-32.167 1.976.194-.724-.194.724ZM7.95 45.504l-.722-.205-.003.01.725.195Zm52.087 38.018-.713-.231-.006.018-.005.018.724.195ZM1.001 67.703l-.713-.23-.006.018-.005.018.724.194Zm8.281-17.67.599-.451-.599.451Zm41.353 23.915-.013.75.013-.75Zm1.373-4.744.72.209.253-.873-.904-.083-.069.747ZM9.282 53.386 9.926 53l-.348-.582-.614.288.318.679Zm-2.064 4.859-.583.472.583-.472Zm51.29-11.666.72.209.253-.873-.904-.083-.069.747ZM15.782 30.761l.644-.385-.348-.582-.614.288.318.679Zm-.095 6.878.496-.563-.496.563Zm30.615-14.09c-8.094-2.17-15.098-5.225-19.876-8.39-2.393-1.584-4.191-3.172-5.296-4.659-1.112-1.495-1.447-2.778-1.166-3.828l-1.45-.388c-.45 1.68.17 3.44 1.412 5.111 1.248 1.68 3.202 3.38 5.672 5.015 4.946 3.276 12.108 6.388 20.316 8.587l.388-1.448ZM19.964 6.672c.28-1.049 1.213-1.992 2.923-2.731 1.7-.735 4.052-1.212 6.917-1.388 5.72-.351 13.313.505 21.407 2.674l.389-1.45C43.392 1.58 35.633.693 29.712 1.058c-2.957.18-5.5.677-7.42 1.507-1.91.825-3.327 2.04-3.777 3.72l1.449.388ZM51.21 5.227c8.095 2.169 15.098 5.224 19.877 8.389 2.392 1.584 4.19 3.172 5.296 4.659 1.111 1.495 1.447 2.778 1.166 3.828l1.449.388c.45-1.68-.17-3.44-1.411-5.111-1.249-1.68-3.202-3.38-5.672-5.015C66.97 9.089 59.807 5.977 51.6 3.778l-.389 1.449Zm8.101 78.1c-.281 1.05-1.214 1.993-2.924 2.732-1.7.735-4.052 1.211-6.916 1.387-5.72.352-13.313-.504-21.408-2.673l-.388 1.45c8.208 2.198 15.966 3.084 21.888 2.72 2.957-.181 5.499-.677 7.42-1.507 1.91-.826 3.327-2.04 3.777-3.72l-1.449-.389Zm-31.248 1.446c-8.094-2.169-15.098-5.224-19.876-8.389-2.393-1.584-4.19-3.172-5.296-4.659-1.112-1.495-1.447-2.779-1.166-3.828l-1.45-.388c-.45 1.68.17 3.44 1.412 5.11C2.936 74.3 4.89 76 7.36 77.636c4.946 3.276 12.108 6.388 20.316 8.587l.388-1.449Zm-13.103-62.25 4.993-15.819-1.43-.451L13.53 22.07l1.43.451Zm20.05 40.051c-6.041-1.619-11.48-3.733-15.84-6.02-4.38-2.298-7.604-4.736-9.29-6.972l-1.198.902c1.883 2.498 5.337 5.061 9.79 7.398 4.472 2.346 10.017 4.497 16.15 6.14l.389-1.448ZM9.881 49.582c-1.144-1.519-1.493-2.822-1.208-3.884l-1.449-.388c-.456 1.701.185 3.484 1.46 5.174l1.197-.902ZM6.35 53.58c.297-1.107 1.32-2.097 3.209-2.85l-.556-1.394c-2.079.83-3.627 2.083-4.102 3.856l1.449.388Zm59.908 7.548c-.296 1.107-1.32 2.097-3.208 2.85l.555 1.394c2.08-.83 3.627-2.083 4.102-3.856l-1.449-.388Zm-3.208 2.85c-2.625 1.047-6.628 1.51-11.52 1.294-4.875-.216-10.564-1.102-16.52-2.698l-.388 1.449c6.047 1.62 11.845 2.526 16.841 2.747 4.979.22 9.23-.237 12.142-1.398l-.555-1.394Zm-.322 1.148c1.145 1.519 1.493 2.822 1.208 3.884l1.45.388c.455-1.701-.185-3.484-1.46-5.174l-1.197.902ZM41.31 39.367c-5.828-1.561-11.095-3.584-15.374-5.779-4.294-2.202-7.54-4.55-9.38-6.74l-1.148.965c2.024 2.41 5.472 4.868 9.843 7.11 4.385 2.25 9.754 4.307 15.67 5.893l.389-1.449ZM16.556 26.848c-1.439-1.713-1.9-3.183-1.586-4.357l-1.449-.388c-.503 1.878.327 3.853 1.886 5.71l1.149-.965Zm-3.705 4.107c.307-1.144 1.39-2.163 3.396-2.923l-.531-1.403c-2.188.83-3.823 2.106-4.314 3.938l1.449.388Zm59.706 6.966c-.307 1.144-1.391 2.163-3.397 2.923l.532 1.403c2.188-.83 3.823-2.106 4.314-3.938l-1.45-.388Zm-3.397 2.923c-2.66 1.008-6.653 1.442-11.506 1.212-4.835-.228-10.46-1.112-16.345-2.689l-.388 1.449c5.975 1.6 11.706 2.505 16.662 2.739 4.94.233 9.17-.195 12.11-1.308l-.532-1.403Zm-.308 1.184c1.439 1.713 1.9 3.183 1.585 4.357l1.45.388c.503-1.878-.327-3.853-1.886-5.71l-1.15.965ZM11.405 30.556 7.227 45.3l1.443.41 4.178-14.744-1.443-.409Zm-6.492 22.6L.288 67.471l1.427.462L6.34 53.617l-1.427-.462Zm45.735 20.042c-5.175-.09-11.405-.986-17.959-2.742l-.388 1.449c6.652 1.782 13.005 2.7 18.32 2.793l.027-1.5Zm.707.959 1.374-4.744-1.441-.417-1.373 4.744 1.44.417Zm.722-5.7c-5.83-.533-14.955-1.96-23.358-4.504-4.201-1.271-8.2-2.814-11.508-4.651-3.319-1.843-5.878-3.944-7.285-6.3l-1.288.768c1.602 2.683 4.422 4.943 7.845 6.843 3.434 1.907 7.54 3.487 11.802 4.776 8.521 2.579 17.75 4.022 23.655 4.562l.137-1.494Zm-19.387 2c-5.902-1.582-11.229-3.636-15.537-5.863-4.324-2.235-7.565-4.615-9.352-6.821l-1.166.944c1.977 2.44 5.428 4.935 9.83 7.21 4.415 2.282 9.844 4.372 15.836 5.978l.389-1.449ZM7.8 57.772c-1.333-1.646-1.753-3.058-1.449-4.193l-1.449-.388c-.487 1.817.275 3.726 1.733 5.525l1.166-.944Zm1.163-5.066c-.842.395-1.428.967-1.816 1.893-.36.865-.542 2.024-.676 3.58l1.494.13c.134-1.553.304-2.503.566-3.131.237-.566.548-.87 1.07-1.114l-.638-1.358Zm48.185-2.134c-5.175-.09-11.405-.986-17.959-2.742l-.388 1.449c6.652 1.782 13.005 2.7 18.32 2.793l.027-1.5Zm.707.959 1.374-4.744-1.441-.417-1.373 4.743 1.44.418Zm.722-5.7c-5.83-.533-14.955-1.96-23.358-4.504-4.201-1.271-8.2-2.814-11.508-4.651-3.319-1.843-5.878-3.944-7.285-6.3l-1.288.768c1.602 2.683 4.422 4.943 7.845 6.844 3.434 1.906 7.54 3.486 11.802 4.775 8.522 2.579 17.75 4.022 23.655 4.562l.137-1.494Zm-43.114-15.75c-.842.395-1.428.967-1.815 1.893-.362.865-.543 2.024-.677 3.58l1.494.13c.134-1.553.304-2.503.566-3.131.237-.566.548-.87 1.07-1.114l-.637-1.358Zm54.953 16.38c-.368 1.23-1.656 2.311-4.007 3.067-2.32.746-5.49 1.11-9.261 1.044l-.026 1.5c3.859.067 7.211-.301 9.746-1.116 2.503-.805 4.401-2.113 4.985-4.066l-1.437-.43Zm-31.226 1.37C29.057 45.115 20.66 41.02 16.183 37.075l-.992 1.126c4.721 4.157 13.365 8.333 23.61 11.078l.389-1.449ZM16.183 37.075a16.188 16.188 0 0 1-1.882-1.928l-1.166.944a17.69 17.69 0 0 0 2.056 2.11l.992-1.126ZM14.3 35.148c-1.334-1.646-1.754-3.058-1.45-4.193l-1.449-.388c-.487 1.817.275 3.726 1.733 5.525l1.166-.944Zm53.404 26.379 4.151-14.647-1.443-.409-4.15 14.647 1.442.409ZM16.183 37.076c-1.34-1.18-2.297-2.319-2.854-3.37-.554-1.048-.69-1.962-.478-2.751l-1.449-.388c-.337 1.258-.072 2.567.601 3.84.67 1.267 1.768 2.544 3.188 3.795l.992-1.126Zm55.673 9.804.027-.096-1.443-.41-.027.097 1.443.41Zm-1.419-.495c-.006.026-.014.05-.021.076l1.437.43c.012-.04.023-.078.033-.118l-1.449-.388Zm-.021.076c-.31 1.036-1.268 1.968-2.993 2.695-1.715.722-4.07 1.187-6.927 1.354-5.71.336-13.26-.523-21.306-2.679L38.8 49.28c8.16 2.186 15.875 3.075 21.782 2.728 2.95-.174 5.492-.657 7.422-1.47 1.92-.808 3.355-1.997 3.848-3.647l-1.437-.43ZM50.622 74.698c3.76.065 7.04-.283 9.55-1.054 2.478-.762 4.383-1.995 5.082-3.836l-1.402-.532c-.45 1.182-1.786 2.217-4.121 2.934-2.304.708-5.41 1.052-9.083.988l-.026 1.5Zm14.644-4.925.11-.338-1.428-.461-.109.337 1.427.461Zm-1.329-.763c-.024.09-.052.179-.085.266l1.402.532c.05-.134.095-.27.132-.41l-1.449-.388Zm-.098.301-4.516 13.98 1.427.461 4.516-13.98-1.427-.46ZM45.914 24.997c8.059 2.16 15.684 3.053 21.562 2.74 2.936-.155 5.475-.614 7.424-1.392 1.935-.772 3.407-1.91 3.986-3.498l-1.409-.514c-.368 1.01-1.379 1.919-3.133 2.619-1.742.695-4.102 1.136-6.947 1.288-5.684.302-13.148-.562-21.095-2.691l-.388 1.448Zm32.983-2.181.093-.293-1.43-.452-.094.293 1.431.452Zm-1.43-.452L72.566 37.89l1.43.452 4.901-15.525-1.43-.452Zm.083-.261c-.021.078-.045.155-.073.23l1.41.514c.042-.117.08-.236.112-.356l-1.45-.388Z"/><defs><linearGradient id="a" x1="6.064" x2="78.395" y1="45" y2="45" gradientUnits="userSpaceOnUse"><stop stop-color="#D6FFBB"/><stop offset="1" stop-color="#5869DD"/></linearGradient><linearGradient id="b" x1="12.065" x2="78.395" y1="24.46" y2="45" gradientUnits="userSpaceOnUse"><stop stop-color="#D6FFBB"/><stop offset="1" stop-color="#5869DD"/></linearGradient><linearGradient id="c" x1=".881" x2="78.395" y1="45" y2="45" gradientUnits="userSpaceOnUse"><stop stop-color="#D6FFBB"/><stop offset="1" stop-color="#5869DD"/></linearGradient></defs></svg>
