<svg xmlns="http://www.w3.org/2000/svg" width="80" height="89" fill="none" viewBox="0 0 80 89"><path fill="#5869DD" d="m50.625 1.5-36.75 10 28.5 28.25 36.75-10-28.5-28.25Z"/><path fill="#000" d="m55.935 53.722 17.815-4.847-4.292-4.254-30.333 8.254 16.81.847ZM52.28 71.607l16.47-4.482-4.337-4.299L34.375 71l17.904.607Z"/><path fill="#5869DD" d="M8.5 30.625 37 58.875l18.935-5.153-16.81-.847-24.208-23.996L8.5 30.625ZM32 77.125l20.28-5.518L34.374 71 10.212 47.049 3.5 48.875 32 77.125Z"/><path fill="url(#a)" d="m79.125 29.75-36.75 10-3.25 13.125 30.333-8.254 6.417-1.746 3.25-13.125Z"/><path fill="url(#b)" d="M64.413 62.826 71.125 61l2.625-12.125-17.815 4.847L37 58.875 34.375 71l30.038-8.174Z"/><path fill="url(#c)" d="m42.375 39.75-28.5-28.25-3.25 13.125 4.292 4.254 24.208 23.996 3.25-13.125Z"/><path fill="url(#d)" d="M37 58.875 8.5 30.625 5.875 42.75l4.337 4.299L34.375 71 37 58.875Z"/><path fill="url(#e)" fill-rule="evenodd" d="m32 77.125-2.5 11 36.75-10 2.5-11-16.47 4.482L32 77.125Z" clip-rule="evenodd"/><path fill="url(#f)" d="m1 59.875 28.5 28.25 2.5-11-28.5-28.25-2.5 11Z"/><path fill="#000" d="m13.875 11.5-.197-.724a.75.75 0 0 0-.531.544l.728.18Zm36.75-10 .528-.533a.75.75 0 0 0-.725-.19l.197.723Zm28.5 28.25.728.18.102-.413-.302-.3-.528.533Zm-68.5-5.125-.728-.18a.75.75 0 0 0 .2.713l.528-.533Zm65.25 18.25.197.724.425-.116.106-.428-.728-.18Zm-36.75 10-.528.533.204.202.286.014.038-.749ZM5.875 42.75l-.733-.159a.75.75 0 0 0 .205.692l.528-.533ZM71.125 61l.197.724.44-.12.096-.445-.733-.159Zm-36.75 10-.528.533.209.207.294.01.025-.75ZM1 59.875l-.731-.166a.75.75 0 0 0 .203.699L1 59.875Zm65.25 18.25.197.724.434-.119.1-.439-.731-.166Zm-36.75 10-.528.533.307.304.418-.113-.197-.724Zm-26-39.25-.197-.724a.75.75 0 0 0-.534.558l.731.166Zm65.25 18.25.731.166.093-.406-.296-.293-.528.533ZM8.5 30.625l-.197-.724a.75.75 0 0 0-.536.565l.733.159Zm65.25 18.25.733.159.087-.402-.292-.29-.528.533ZM14.917 28.879l.528-.533-.528.533Zm-4.705 18.17.528-.533-.528.533Zm3.86-34.825 36.75-10-.394-1.448-36.75 10 .394 1.448ZM50.097 2.033l28.5 28.25 1.056-1.066-28.5-28.25-1.056 1.066Zm28.831 26.993-36.75 10 .394 1.448 36.75-10-.394-1.448ZM42.903 39.217l-28.5-28.25-1.056 1.066 28.5 28.25 1.056-1.066Zm23.15 38.184-36.75 10 .394 1.448 36.75-10-.394-1.448ZM30.028 87.592l-28.5-28.25-1.056 1.066 28.5 28.25 1.056-1.066Zm38.525-21.19-36.75 10 .394 1.447 36.75-10-.394-1.448Zm-36.025 10.19-28.5-28.25-1.056 1.066 28.5 28.25 1.056-1.066Zm5-18.25-28.5-28.25-1.056 1.066 28.5 28.25 1.056-1.066ZM8.697 31.35l6.417-1.746-.394-1.448-6.417 1.746.394 1.448Zm30.956 20.993L15.445 28.346l-1.056 1.066 24.208 23.996 1.056-1.066ZM15.445 28.346l-4.292-4.254-1.056 1.066 4.292 4.254 1.056-1.066Zm48.44 35.013 4.337 4.299 1.056-1.066-4.337-4.298-1.056 1.065Zm7.043-3.083-6.712 1.827.394 1.447 6.712-1.826-.394-1.448Zm-6.712 1.827-30.038 8.173.394 1.448L64.61 63.55l-.394-1.447ZM3.696 49.599l6.713-1.827-.394-1.447-6.712 1.826.394 1.448Zm31.207 20.868L10.74 46.516l-1.056 1.065 24.163 23.952 1.056-1.066ZM10.74 46.516l-4.337-4.299-1.056 1.066 4.337 4.298 1.056-1.065ZM1.73 60.041l2.5-11-1.462-.332-2.5 11 1.462.332ZM6.608 42.91l2.625-12.125-1.466-.318-2.625 12.125 1.466.318Zm4.745-18.104 3.25-13.125-1.456-.36-3.25 13.125 1.456.36Zm65.25 18.25 3.25-13.125-1.456-.36-3.25 13.125 1.456.36ZM71.858 61.16l2.625-12.125-1.466-.318-2.625 12.125 1.466.318ZM66.981 78.29l2.5-11-1.462-.332-2.5 11 1.462.332Zm6.572-30.14L55.74 53l.394 1.447L73.947 49.6l-.394-1.448ZM55.74 53 36.803 58.15l.394 1.448 18.935-5.153L55.74 53Zm-16.652.625 16.81.847.076-1.498-16.81-.847-.076 1.498ZM34.35 71.75l17.904.606.05-1.499L34.4 70.25l-.05 1.5Zm7.297-32.18-3.25 13.125 1.456.36 3.25-13.125-1.456-.36Zm-5.38 19.146-2.625 12.125 1.466.318 2.625-12.125-1.466-.318ZM31.269 76.96l-2.5 11 1.462.332 2.5-11-1.462-.332Zm44.41-34.808-6.418 1.746.394 1.448 6.417-1.746-.394-1.448Zm-6.749 3.003 4.292 4.254 1.056-1.066-4.292-4.254-1.056 1.066Zm-.045-.045.045.045 1.056-1.066-.045-.044-1.056 1.065Zm.376-1.212-30.333 8.254.394 1.448 30.333-8.254-.394-1.448Zm-.708 22.504-16.47 4.482.393 1.448 16.47-4.482-.393-1.448Zm-16.47 4.482-20.28 5.518.394 1.448 20.279-5.518-.394-1.448Z"/><defs><linearGradient id="a" x1="37.182" x2="54.183" y1="49.313" y2="69.685" gradientUnits="userSpaceOnUse"><stop stop-color="#D6FFBB"/><stop offset="1" stop-color="#5869DD"/></linearGradient><linearGradient id="b" x1="29.125" x2="52.969" y1="55.125" y2="83.739" gradientUnits="userSpaceOnUse"><stop stop-color="#D6FFBB"/><stop offset="1" stop-color="#5869DD"/></linearGradient><linearGradient id="c" x1="1" x2="21.958" y1="31.625" y2="71.655" gradientUnits="userSpaceOnUse"><stop stop-color="#D6FFBB"/><stop offset="1" stop-color="#5869DD"/></linearGradient><linearGradient id="d" x1="1" x2="21.958" y1="31.625" y2="71.655" gradientUnits="userSpaceOnUse"><stop stop-color="#D6FFBB"/><stop offset="1" stop-color="#5869DD"/></linearGradient><linearGradient id="e" x1="26.682" x2="89.682" y1="58.313" y2="88.125" gradientUnits="userSpaceOnUse"><stop stop-color="#D6FFBB"/><stop offset="1" stop-color="#5869DD"/></linearGradient><linearGradient id="f" x1="1" x2="21.958" y1="31.625" y2="71.655" gradientUnits="userSpaceOnUse"><stop stop-color="#D6FFBB"/><stop offset="1" stop-color="#5869DD"/></linearGradient></defs></svg>
